#
# OBJECT NAME
#
o model_4630
mtllib 4630.mtl

#
# VERTEX BUFFER 000
#
v 0.468114 0.759491 -0.340779
v 0.486447 0.825915 -0.303119
v -0.496629 0.862103 -0.292179
v -0.491744 0.794587 -0.33087
v 0.486953 0.888778 -0.352131
v -0.487316 0.925343 -0.342765
v 0.480708 0.881744 -0.427858
v -0.479906 0.914585 -0.412892
v 0.476626 0.829975 -0.460549
v -0.488 0.866477 -0.451046
v 0.47199 0.762406 -0.424987
v -0.495485 0.796682 -0.415648
v 0.468114 0.759491 -0.340779
v -0.491744 0.794587 -0.33087
v 0.486953 0.888778 -0.352131
v 0.476626 0.829975 -0.460549
v 0.480708 0.881744 -0.427858
v 0.47199 0.762406 -0.424987
v 0.486447 0.825915 -0.303119
v 0.468114 0.759491 -0.340779
v -0.488 0.866477 -0.451046
v -0.487316 0.925343 -0.342765
v -0.479906 0.914585 -0.412892
v -0.495485 0.796682 -0.415648
v -0.496629 0.862103 -0.292179
v -0.491744 0.794587 -0.33087
v -0.494067 0.465301 -0.333099
v -0.491857 0.442177 -0.385038
v 0.46357 0.408983 -0.381061
v 0.462115 0.430802 -0.327795
v -0.497857 0.519442 -0.307062
v -0.494067 0.465301 -0.333099
v 0.462115 0.430802 -0.327795
v 0.485271 0.483254 -0.30269
v -0.486737 0.591221 -0.338794
v 0.491625 0.551548 -0.335428
v 0.479678 0.547376 -0.416671
v -0.487765 0.581516 -0.426095
v -0.489924 0.494599 -0.443805
v 0.473859 0.460152 -0.439637
v -0.486737 0.591221 -0.338794
v -0.487765 0.581516 -0.426095
v -0.489924 0.494599 -0.443805
v 0.485271 0.483254 -0.30269
v 0.473859 0.460152 -0.439637
v 0.479678 0.547376 -0.416671
v 0.491625 0.551548 -0.335428
v 0.46357 0.408983 -0.381061
v 0.462115 0.430802 -0.327795
v -0.491857 0.442177 -0.385038
v -0.497857 0.519442 -0.307062
v -0.497857 0.519442 -0.307062
v -0.494067 0.465301 -0.333099
v -0.467126 0.105073 -0.332418
v -0.470573 0.0930419 -0.410322
v 0.489963 0.0892402 -0.406914
v 0.488862 0.0992682 -0.329141
v -0.470573 0.0930419 -0.410322
v -0.492029 0.159959 -0.452893
v 0.497524 0.156032 -0.45006
v 0.489963 0.0892402 -0.406914
v -0.478621 0.236356 -0.421724
v 0.492184 0.230597 -0.415757
v -0.478413 0.24422 -0.347461
v 0.481242 0.235947 -0.347027
v -0.475321 0.174575 -0.29506
v 0.489068 0.169644 -0.292063
v -0.475321 0.174575 -0.29506
v -0.478413 0.24422 -0.347461
v -0.478621 0.236356 -0.421724
v -0.467126 0.105073 -0.332418
v 0.492184 0.230597 -0.415757
v 0.488862 0.0992682 -0.329141
v 0.489963 0.0892402 -0.406914
v 0.497524 0.156032 -0.45006
v -0.478621 0.236356 -0.421724
v -0.492029 0.159959 -0.452893
v -0.470573 0.0930419 -0.410322
v 0.481242 0.235947 -0.347027
v 0.489068 0.169644 -0.292063
v 0.268658 0.769008 -0.424068
v 0.269696 0.837828 -0.459358
v 0.399068 0.832015 -0.464752
v 0.397265 0.763745 -0.424316
v 0.269319 0.766083 -0.338111
v 0.397395 0.760679 -0.34012
v 0.270606 0.83773 -0.296234
v 0.269319 0.766083 -0.338111
v 0.397395 0.760679 -0.34012
v 0.399021 0.829859 -0.300732
v 0.27104 0.897962 -0.347825
v 0.400179 0.89198 -0.348067
v 0.400214 0.887353 -0.427044
v 0.270626 0.890681 -0.424786
v -0.350027 0.922483 -0.343817
v -0.236711 0.918135 -0.345747
v -0.240271 0.90695 -0.418025
v -0.353987 0.911273 -0.416254
v -0.347922 0.856021 -0.292372
v -0.234959 0.851889 -0.293241
v -0.349792 0.788788 -0.331301
v -0.236833 0.783289 -0.333704
v -0.354487 0.791698 -0.418213
v -0.241069 0.786144 -0.420828
v -0.236833 0.783289 -0.333704
v -0.349792 0.788788 -0.331301
v -0.355835 0.86185 -0.454934
v -0.24207 0.856327 -0.457474
v 0.210149 0.470119 -0.442911
v 0.211066 0.557869 -0.422448
v 0.340451 0.555788 -0.420117
v 0.339232 0.464946 -0.442678
v 0.209119 0.414755 -0.38095
v 0.337356 0.412548 -0.381462
v 0.337006 0.434477 -0.327548
v 0.211542 0.438912 -0.328716
v 0.209907 0.493135 -0.302338
v 0.211542 0.438912 -0.328716
v 0.337006 0.434477 -0.327548
v 0.338243 0.491338 -0.297187
v 0.210753 0.563981 -0.335649
v 0.339691 0.559454 -0.334986
v -0.398721 0.589455 -0.336378
v -0.285641 0.584687 -0.337271
v -0.288244 0.57755 -0.428121
v -0.401911 0.580407 -0.431114
v -0.397897 0.51723 -0.305964
v -0.285109 0.513118 -0.305014
v -0.400062 0.461189 -0.33178
v -0.287067 0.457646 -0.328167
v -0.401379 0.437429 -0.386315
v -0.288137 0.43181 -0.38159
v -0.287067 0.457646 -0.328167
v -0.400062 0.461189 -0.33178
v -0.403694 0.489902 -0.445238
v -0.289877 0.486337 -0.445249
v -0.350022 0.173553 -0.285834
v -0.350117 0.100696 -0.333697
v -0.243362 0.102294 -0.3313
v -0.242627 0.17169 -0.292577
v -0.34927 0.0917842 -0.410641
v -0.24274 0.0916142 -0.409328
v -0.24274 0.0916142 -0.409328
v -0.34927 0.0917842 -0.410641
v -0.347879 0.160457 -0.455449
v -0.241157 0.15995 -0.457727
v -0.354381 0.237207 -0.421698
v -0.235971 0.235637 -0.420798
v -0.348916 0.243381 -0.347707
v -0.238458 0.243137 -0.346418
v 0.390203 0.23227 -0.416021
v 0.278001 0.232805 -0.417075
v 0.278613 0.239324 -0.348356
v 0.391405 0.23834 -0.345447
v 0.38627 0.157823 -0.452654
v 0.273341 0.157881 -0.452804
v 0.384778 0.0893723 -0.409687
v 0.271962 0.0901335 -0.407875
v 0.386129 0.0984621 -0.326134
v 0.27301 0.0994079 -0.329269
v 0.271962 0.0901335 -0.407875
v 0.384778 0.0893723 -0.409687
v 0.390378 0.171032 -0.289994
v 0.276566 0.172354 -0.290828
v 0.268585 0 -0.36694
v 0.284578 0 -0.332316
v 0.284578 1 -0.332316
v 0.268585 1 -0.36694
v 0.322559 0 -0.328854
v 0.322559 1 -0.328854
v 0.344548 0 -0.360016
v 0.344548 1 -0.360016
v 0.328556 0 -0.39464
v 0.328556 1 -0.39464
v 0.290574 0 -0.398102
v 0.290574 1 -0.398102
v 0.268585 0 -0.36694
v 0.268585 1 -0.36694
v 0.284578 0 -0.332316
v 0.268585 0 -0.36694
v 0.344548 0 -0.360016
v 0.322559 0 -0.328854
v 0.268585 1 -0.36694
v 0.344548 1 -0.360016
v 0.328556 1 -0.39464
v 0.290574 1 -0.398102
v 0.284578 1 -0.332316
v 0.322559 1 -0.328854
v 0.344548 1 -0.360016
v 0.268585 1 -0.36694
v 0.290574 0 -0.398102
v 0.328556 0 -0.39464
v -0.280229 0 -0.377247
v -0.294677 0 -0.414062
v -0.294677 1 -0.414062
v -0.280229 1 -0.377247
v -0.333785 0 -0.419957
v -0.333785 1 -0.419957
v -0.358444 0 -0.389037
v -0.358444 1 -0.389037
v -0.343995 0 -0.352221
v -0.343995 1 -0.352221
v -0.304888 0 -0.346326
v -0.304888 1 -0.346326
v -0.280229 0 -0.377247
v -0.280229 1 -0.377247
v -0.280229 1 -0.377247
v -0.358444 1 -0.389037
v -0.343995 1 -0.352221
v -0.304888 1 -0.346326
v -0.294677 0 -0.414062
v -0.280229 0 -0.377247
v -0.358444 0 -0.389037
v -0.333785 0 -0.419957
v -0.304888 0 -0.346326
v -0.343995 0 -0.352221
v -0.294677 1 -0.414062
v -0.333785 1 -0.419957
v -0.358444 1 -0.389037
v -0.280229 1 -0.377247

vn -0.000879765 -0.872559 0.488281
vn 0.0992432 0.123108 0.987305
vn -0.0709229 0.0982666 0.992188
vn -0.0536499 -0.876465 0.478027
vn 0.127563 0.899902 0.416504
vn -0.0537109 0.898926 0.433838
vn 0.0474548 0.882813 -0.467041
vn 0.00813293 0.880371 -0.473633
vn 0.0828247 0.00379181 -0.996094
vn -0.106628 -0.021225 -0.993652
vn 0.0463257 -0.849121 -0.525391
vn -0.121765 -0.852051 -0.508301
vn -0.000879765 -0.872559 0.488281
vn -0.0536499 -0.876465 0.478027
vn 0.127563 0.899902 0.416504
vn 0.0828247 0.00379181 -0.996094
vn 0.0474548 0.882813 -0.467041
vn 0.0463257 -0.849121 -0.525391
vn 0.0992432 0.123108 0.987305
vn -0.000879765 -0.872559 0.488281
vn -0.106628 -0.021225 -0.993652
vn -0.0537109 0.898926 0.433838
vn 0.00813293 0.880371 -0.473633
vn -0.121765 -0.852051 -0.508301
vn -0.0709229 0.0982666 0.992188
vn -0.0536499 -0.876465 0.478027
vn -0.0446777 -0.702637 0.709961
vn -0.12439 -0.958984 -0.25415
vn 0.0269775 -0.959961 -0.2771
vn 0.0372925 -0.699707 0.712891
vn -0.107727 0.0608521 0.992188
vn -0.0446777 -0.702637 0.709961
vn 0.0372925 -0.699707 0.712891
vn 0.0930176 0.104492 0.989746
vn -0.0366516 0.869629 0.491699
vn 0.119019 0.861328 0.493408
vn 0.105286 0.760742 -0.640137
vn -0.000313759 0.742676 -0.668945
vn -0.078125 -0.256348 -0.963379
vn 0.0650024 -0.247559 -0.966309
vn -0.0366516 0.869629 0.491699
vn -0.000313759 0.742676 -0.668945
vn -0.078125 -0.256348 -0.963379
vn 0.0930176 0.104492 0.989746
vn 0.0650024 -0.247559 -0.966309
vn 0.105286 0.760742 -0.640137
vn 0.119019 0.861328 0.493408
vn 0.0269775 -0.959961 -0.2771
vn 0.0372925 -0.699707 0.712891
vn -0.12439 -0.958984 -0.25415
vn -0.107727 0.0608521 0.992188
vn -0.107727 0.0608521 0.992188
vn -0.0446777 -0.702637 0.709961
vn -0.0878906 -0.807129 0.583496
vn -0.0784912 -0.881836 -0.464355
vn 0.0778198 -0.895996 -0.436523
vn 0.0767212 -0.812988 0.57666
vn -0.0784912 -0.881836 -0.464355
vn -0.0895996 -0.0523682 -0.994141
vn 0.088623 -0.0665894 -0.993652
vn 0.0778198 -0.895996 -0.436523
vn -0.0740356 0.763184 -0.641602
vn 0.0923462 0.756348 -0.647461
vn -0.0792847 0.897949 0.432617
vn 0.079834 0.898438 0.430908
vn -0.0822144 0.143066 0.98584
vn 0.0744019 0.102417 0.991699
vn -0.0822144 0.143066 0.98584
vn -0.0792847 0.897949 0.432617
vn -0.0740356 0.763184 -0.641602
vn -0.0878906 -0.807129 0.583496
vn 0.0923462 0.756348 -0.647461
vn 0.0767212 -0.812988 0.57666
vn 0.0778198 -0.895996 -0.436523
vn 0.088623 -0.0665894 -0.993652
vn -0.0740356 0.763184 -0.641602
vn -0.0895996 -0.0523682 -0.994141
vn -0.0784912 -0.881836 -0.464355
vn 0.079834 0.898438 0.430908
vn 0.0744019 0.102417 0.991699
vn -0.046936 -0.859375 -0.508301
vn -0.02771 -0.00231361 -0.999512
vn -0.0282593 -0.0197754 -0.999023
vn -0.046936 -0.863281 -0.501953
vn -0.0269165 -0.877441 0.478516
vn -0.02742 -0.883789 0.466309
vn 0.0270844 0.0839844 0.996094
vn -0.0269165 -0.877441 0.478516
vn -0.02742 -0.883789 0.466309
vn 0.0257111 0.0543823 0.998047
vn 0.0469055 0.918457 0.391846
vn 0.0469971 0.915527 0.398682
vn 0.0185547 0.881836 -0.470459
vn 0.0189972 0.886719 -0.46167
vn 0.0393372 0.919922 0.389648
vn 0.0392456 0.90918 0.413818
vn 0.0261383 0.875977 -0.480957
vn 0.0259857 0.873535 -0.485107
vn 0.0157623 0.104431 0.994141
vn 0.0148392 0.0792236 0.996582
vn -0.0352173 -0.88916 0.456055
vn -0.0351868 -0.888672 0.457031
vn -0.0533752 -0.852539 -0.519531
vn -0.0535278 -0.866699 -0.495117
vn -0.0351868 -0.888672 0.457031
vn -0.0352173 -0.88916 0.456055
vn -0.0211792 0.0349731 -0.999023
vn -0.022583 0.00645828 -0.999512
vn -0.00188446 -0.26001 -0.965332
vn 0.0261688 0.749512 -0.661133
vn 0.0262146 0.75293 -0.657227
vn -0.00241089 -0.273438 -0.961426
vn -0.0274963 -0.962402 -0.268799
vn -0.0274963 -0.962402 -0.269531
vn -0.0311279 -0.720215 0.692383
vn -0.0311737 -0.717285 0.695313
vn -0.0218658 0.0674438 0.99707
vn -0.0311737 -0.717285 0.695313
vn -0.0311279 -0.720215 0.692383
vn -0.0219879 0.0629272 0.997559
vn 0.0115128 0.885254 0.464111
vn 0.0112991 0.882324 0.469971
vn 0.0317993 0.896484 0.441162
vn 0.0314026 0.883301 0.466797
vn 0.0329895 0.744629 -0.666016
vn 0.0326233 0.727051 -0.685547
vn -0.00547028 0.0595703 0.998047
vn -0.00614929 0.0482483 0.998535
vn -0.045105 -0.701172 0.710938
vn -0.0447388 -0.691895 0.720215
vn -0.0366211 -0.962891 -0.266602
vn -0.0384521 -0.975098 -0.21814
vn -0.0447388 -0.691895 0.720215
vn -0.045105 -0.701172 0.710938
vn 0.00214958 -0.290283 -0.956543
vn 0.00142288 -0.310059 -0.950195
vn 0.026123 0.109314 0.993652
vn 0.0118866 -0.833496 0.552246
vn 0.0120697 -0.825684 0.563477
vn 0.0261536 0.114929 0.992676
vn -0.000782013 -0.904297 -0.426025
vn -0.000808239 -0.90332 -0.428711
vn -0.000808239 -0.90332 -0.428711
vn -0.000782013 -0.904297 -0.426025
vn -0.00401306 -0.0508423 -0.998535
vn -0.00400543 -0.0487976 -0.998535
vn 0.00379562 0.800293 -0.599121
vn 0.00383377 0.802246 -0.596191
vn 0.0198822 0.911133 0.411133
vn 0.0199432 0.909668 0.414307
vn 0.00810242 0.801758 -0.597168
vn 0.00802612 0.785645 -0.618164
vn 0.000388145 0.901855 0.431152
vn 0.000165939 0.895996 0.443848
vn -0.00100994 -0.0436707 -0.999023
vn -0.00136375 -0.0681763 -0.997559
vn -0.00959778 -0.902344 -0.429688
vn -0.00959778 -0.90625 -0.421631
vn -0.0162811 -0.811035 0.583984
vn -0.0158691 -0.82959 0.557617
vn -0.00959778 -0.90625 -0.421631
vn -0.00959778 -0.902344 -0.429688
vn -0.0153046 0.145264 0.989258
vn -0.0155487 0.126465 0.991699
vn -0.995605 0 -0.0907593
vn -0.576172 0 0.816895
vn -0.576172 0 0.816895
vn -0.995605 0 -0.0907593
vn 0.419189 0 0.907715
vn 0.419189 0 0.907715
vn 0.995605 0 0.0907593
vn 0.995605 0 0.0907593
vn 0.576172 0 -0.816895
vn 0.576172 0 -0.816895
vn -0.419189 0 -0.907715
vn -0.419189 0 -0.907715
vn -0.995605 0 -0.0907593
vn -0.995605 0 -0.0907593
vn 0 -1 0
vn 0 -1 0
vn 0 -1 0
vn 0 -1 0
vn -5.36442e-007 1 2.38419e-007
vn -5.36442e-007 1 2.38419e-007
vn -5.36442e-007 1 2.38419e-007
vn -5.36442e-007 1 2.38419e-007
vn 0 1 0
vn 0 1 0
vn 0 1 0
vn 0 1 0
vn 0 -1 0
vn 0 -1 0
vn 0.98877 0 0.149048
vn 0.623047 0 -0.781738
vn 0.623047 0 -0.781738
vn 0.98877 0 0.149048
vn -0.365234 0 -0.930664
vn -0.365234 0 -0.930664
vn -0.98877 0 -0.149048
vn -0.98877 0 -0.149048
vn -0.623047 0 0.781738
vn -0.623047 0 0.781738
vn 0.365234 0 0.930664
vn 0.365234 0 0.930664
vn 0.98877 0 0.149048
vn 0.98877 0 0.149048
vn -1.01328e-006 1 3.57628e-007
vn -1.01328e-006 1 3.57628e-007
vn -1.01328e-006 1 3.57628e-007
vn -1.01328e-006 1 3.57628e-007
vn 0 -1 0
vn 0 -1 0
vn 0 -1 0
vn 0 -1 0
vn 0 -1 0
vn 0 -1 0
vn 1.01328e-006 1 -3.57628e-007
vn 1.01328e-006 1 -3.57628e-007
vn 1.01328e-006 1 -3.57628e-007
vn 1.01328e-006 1 -3.57628e-007

vt 0.963919 0.501064
vt 0.971391 0.607305
vt 0.0364671 0.600089
vt 0.0383208 0.501799
vt 0.971391 0.688
vt 0.0364671 0.687487
vt 0.971391 0.76645
vt 0.0364671 0.766697
vt 0.971391 0.834985
vt 0.0364671 0.837608
vt 0.971391 0.906435
vt 0.0364671 0.909073
vt 0.969268 0.97453
vt 0.0373617 0.974863
vt 0.889872 0.231844
vt 0.761978 0.105901
vt 0.788869 0.192078
vt 0.830049 0.0252213
vt 0.971929 0.163554
vt 0.942321 0.0579983
vt 0.499998 0.134248
vt 0.645887 0.227446
vt 0.547262 0.206356
vt 0.552504 0.0393889
vt 0.719352 0.142441
vt 0.667357 0.0473943
vt 0.036265 0.98847
vt 0.0364671 0.944365
vt 0.971391 0.942193
vt 0.969417 0.987645
vt 0.0358084 0.589513
vt 0.0392655 0.523099
vt 0.963652 0.525126
vt 0.972263 0.595959
vt 0.0366665 0.684068
vt 0.971828 0.685235
vt 0.970587 0.761271
vt 0.0352747 0.773257
vt 0.0365129 0.873544
vt 0.971453 0.867783
vt 0.662599 0.228749
vt 0.547339 0.198835
vt 0.525519 0.0824051
vt 0.9643 0.151441
vt 0.793469 0.0643863
vt 0.79846 0.189844
vt 0.901882 0.230425
vt 0.88337 0.0142534
vt 0.947359 0.0654056
vt 0.605149 0.0149932
vt 0.709562 0.132247
vt 0.709562 0.132247
vt 0.669883 0.060212
vt 0.971391 0.942193
vt 0.970565 0.993589
vt 0.0367711 0.99452
vt 0.0364671 0.944365
vt 0.970056 0.530699
vt 0.971391 0.629164
vt 0.0364671 0.621689
vt 0.0368194 0.526548
vt 0.970569 0.704988
vt 0.0360708 0.710958
vt 0.971311 0.779766
vt 0.0392295 0.782449
vt 0.971391 0.873296
vt 0.0364671 0.877477
vt 0.786614 0.0523981
vt 0.779024 0.174605
vt 0.86307 0.238031
vt 0.88337 0.0142534
vt 0.61934 0.236167
vt 0.605149 0.0149932
vt 0.704528 0.0618845
vt 0.713511 0.173188
vt 0.86307 0.238031
vt 0.959378 0.194085
vt 0.974601 0.0801554
vt 0.531708 0.192971
vt 0.516698 0.0736055
vt 0.58759 0.476181
vt 0.480323 0.47778
vt 0.48044 0.271537
vt 0.594543 0.272913
vt 0.690656 0.474122
vt 0.696936 0.273074
vt 0.159019 0.479028
vt 0.0306286 0.475584
vt 0.0211939 0.27112
vt 0.147468 0.27252
vt 0.275978 0.479261
vt 0.270891 0.27237
vt 0.396232 0.272098
vt 0.397522 0.478869
vt 0.530256 0.478975
vt 0.533087 0.274031
vt 0.658864 0.273389
vt 0.656395 0.478505
vt 0.387025 0.479336
vt 0.388673 0.275285
vt 0.269928 0.477561
vt 0.268567 0.274462
vt 0.872086 0.476682
vt 0.87075 0.273837
vt 0.986614 0.276108
vt 0.987645 0.475077
vt 0.756191 0.477114
vt 0.758524 0.272304
vt 0.525612 0.477035
vt 0.384665 0.477741
vt 0.380376 0.276629
vt 0.526999 0.273896
vt 0.647099 0.477335
vt 0.647049 0.27055
vt 0.719255 0.266697
vt 0.713231 0.471713
vt 0.145087 0.47486
vt 0.0570537 0.469382
vt 0.0487066 0.27336
vt 0.145048 0.273043
vt 0.273549 0.476641
vt 0.272325 0.275763
vt 0.526666 0.475759
vt 0.529154 0.276443
vt 0.647541 0.276345
vt 0.652523 0.475332
vt 0.378102 0.476098
vt 0.381594 0.277935
vt 0.283826 0.475638
vt 0.290219 0.276591
vt 0.934742 0.47783
vt 0.942696 0.272701
vt 1.02686 0.274783
vt 1.02274 0.480824
vt 0.807628 0.476936
vt 0.807776 0.275258
vt 0.53951 0.28425
vt 0.658897 0.284966
vt 0.650864 0.473442
vt 0.539114 0.474183
vt 0.720525 0.281821
vt 0.714606 0.469659
vt 0.0638724 0.46221
vt 0.0641757 0.284095
vt 0.189986 0.287288
vt 0.19138 0.468594
vt 0.312707 0.274419
vt 0.309186 0.476182
vt 0.404953 0.284765
vt 0.405473 0.475721
vt 0.56464 0.47263
vt 0.563271 0.277023
vt 0.672557 0.274595
vt 0.679126 0.472524
vt 0.424502 0.475623
vt 0.422027 0.280887
vt 0.293534 0.47243
vt 0.291839 0.279234
vt 0.93836 0.477059
vt 0.936335 0.273885
vt 1.02262 0.274645
vt 1.02754 0.478295
vt 0.822399 0.475622
vt 0.816598 0.272923
vt 5.90086e-006 0.474686
vt 7.09295e-006 0.462233
vt 0.999995 0.462231
vt 0.99997 0.474686
vt -2.68221e-006 0.443831
vt 1.00002 0.44383
vt -7.09295e-006 0.424674
vt 1.00003 0.424674
vt -2.92063e-006 0.405517
vt 1.00002 0.405518
vt 6.79493e-006 0.387114
vt 0.999995 0.387116
vt 5.42402e-006 0.374661
vt 0.99997 0.374661
vt 0.366959 0.332948
vt 0.338453 0.349405
vt 0.338453 0.283575
vt 0.366959 0.300033
vt 0.366959 0.300033
vt 0.309948 0.332948
vt 0.309948 0.300033
vt 0.338453 0.283575
vt 0.366959 0.332948
vt 0.338453 0.349405
vt 0.309948 0.332948
vt 0.366959 0.300033
vt 0.309948 0.332948
vt 0.309948 0.300033
vt 5.90086e-006 0.366105
vt 7.09295e-006 0.354811
vt 0.999995 0.35481
vt 0.99997 0.366105
vt -2.68221e-006 0.338124
vt 1.00002 0.338123
vt -7.09295e-006 0.320751
vt 1.00003 0.320751
vt -2.92063e-006 0.303379
vt 1.00002 0.30338
vt 6.79493e-006 0.286691
vt 0.999995 0.286692
vt 5.42402e-006 0.275398
vt 0.99997 0.275398
vt 0.366959 0.300033
vt 0.309948 0.332948
vt 0.309948 0.300033
vt 0.338453 0.283575
vt 0.366959 0.332948
vt 0.338453 0.349405
vt 0.338453 0.283575
vt 0.366959 0.300033
vt 0.309948 0.332948
vt 0.309948 0.300033
vt 0.366959 0.332948
vt 0.338453 0.349405
vt 0.309948 0.332948
vt 0.366959 0.300033


#
# MESH 000
#
g surface_000
usemtl surface_000
f 52/52/52 50/50/50 53/53/53
f 80/80/80 72/72/72 79/79/79
f 80/80/80 73/73/73 72/72/72
f 75/75/75 72/72/72 73/73/73
f 75/75/75 73/73/73 74/74/74
f 77/77/77 71/71/71 76/76/76
f 77/77/77 78/78/78 71/71/71
f 68/68/68 70/70/70 71/71/71
f 68/68/68 69/69/69 70/70/70
f 58/58/58 60/60/60 61/61/61
f 58/58/58 59/59/59 60/60/60
f 59/59/59 63/63/63 60/60/60
f 59/59/59 62/62/62 63/63/63
f 63/63/63 62/62/62 64/64/64
f 63/63/63 64/64/64 65/65/65
f 64/64/64 67/67/67 65/65/65
f 64/64/64 66/66/66 67/67/67
f 66/66/66 57/57/57 67/67/67
f 66/66/66 54/54/54 57/57/57
f 54/54/54 56/56/56 57/57/57
f 54/54/54 55/55/55 56/56/56
f 51/51/51 43/43/43 50/50/50
f 51/51/51 41/41/41 43/43/43
f 41/41/41 42/42/42 43/43/43
f 48/48/48 44/44/44 49/49/49
f 48/48/48 45/45/45 44/44/44
f 47/47/47 44/44/44 45/45/45
f 47/47/47 45/45/45 46/46/46
f 31/31/31 32/32/32 33/33/33
f 31/31/31 33/33/33 34/34/34
f 35/35/35 31/31/31 34/34/34
f 35/35/35 34/34/34 36/36/36
f 37/37/37 35/35/35 36/36/36
f 37/37/37 38/38/38 35/35/35
f 39/39/39 38/38/38 37/37/37
f 39/39/39 37/37/37 40/40/40
f 28/28/28 39/39/39 40/40/40
f 28/28/28 40/40/40 29/29/29
f 27/27/27 28/28/28 29/29/29
f 27/27/27 29/29/29 30/30/30
f 24/24/24 26/26/26 25/25/25
f 21/21/21 24/24/24 25/25/25
f 21/21/21 25/25/25 22/22/22
f 21/21/21 22/22/22 23/23/23
f 20/20/20 18/18/18 19/19/19
f 18/18/18 15/15/15 19/19/19
f 18/18/18 16/16/16 15/15/15
f 15/15/15 16/16/16 17/17/17
f 11/11/11 13/13/13 14/14/14
f 11/11/11 14/14/14 12/12/12
f 9/9/9 11/11/11 12/12/12
f 9/9/9 12/12/12 10/10/10
f 8/8/8 9/9/9 10/10/10
f 8/8/8 7/7/7 9/9/9
f 5/5/5 7/7/7 8/8/8
f 5/5/5 8/8/8 6/6/6
f 2/2/2 5/5/5 6/6/6
f 2/2/2 6/6/6 3/3/3
f 1/1/1 2/2/2 3/3/3
f 1/1/1 3/3/3 4/4/4
f 159/159/159 161/161/161 162/162/162
f 159/159/159 160/160/160 161/161/161
f 163/163/163 160/160/160 159/159/159
f 163/163/163 164/164/164 160/160/160
f 154/154/154 164/164/164 163/163/163
f 154/154/154 153/153/153 164/164/164
f 151/151/151 153/153/153 154/154/154
f 151/151/151 152/152/152 153/153/153
f 155/155/155 152/152/152 151/151/151
f 155/155/155 156/156/156 152/152/152
f 157/157/157 156/156/156 155/155/155
f 157/157/157 158/158/158 156/156/156
f 143/143/143 144/144/144 145/145/145
f 143/143/143 145/145/145 146/146/146
f 145/145/145 148/148/148 146/146/146
f 145/145/145 147/147/147 148/148/148
f 147/147/147 150/150/150 148/148/148
f 147/147/147 149/149/149 150/150/150
f 149/149/149 140/140/140 150/150/150
f 149/149/149 137/137/137 140/140/140
f 137/137/137 139/139/139 140/140/140
f 137/137/137 138/138/138 139/139/139
f 138/138/138 142/142/142 139/139/139
f 138/138/138 141/141/141 142/142/142
f 131/131/131 133/133/133 134/134/134
f 131/131/131 132/132/132 133/133/133
f 135/135/135 132/132/132 131/131/131
f 135/135/135 136/136/136 132/132/132
f 126/126/126 136/136/136 135/135/135
f 126/126/126 125/125/125 136/136/136
f 123/123/123 125/125/125 126/126/126
f 123/123/123 124/124/124 125/125/125
f 127/127/127 124/124/124 123/123/123
f 127/127/127 128/128/128 124/124/124
f 129/129/129 128/128/128 127/127/127
f 129/129/129 130/130/130 128/128/128
f 117/117/117 118/118/118 119/119/119
f 117/117/117 119/119/119 120/120/120
f 121/121/121 117/117/117 120/120/120
f 121/121/121 120/120/120 122/122/122
f 111/111/111 121/121/121 122/122/122
f 111/111/111 110/110/110 121/121/121
f 109/109/109 110/110/110 111/111/111
f 109/109/109 111/111/111 112/112/112
f 113/113/113 109/109/109 112/112/112
f 113/113/113 112/112/112 114/114/114
f 115/115/115 113/113/113 114/114/114
f 115/115/115 116/116/116 113/113/113
f 103/103/103 105/105/105 106/106/106
f 103/103/103 104/104/104 105/105/105
f 107/107/107 104/104/104 103/103/103
f 107/107/107 108/108/108 104/104/104
f 98/98/98 108/108/108 107/107/107
f 98/98/98 97/97/97 108/108/108
f 95/95/95 97/97/97 98/98/98
f 95/95/95 96/96/96 97/97/97
f 99/99/99 96/96/96 95/95/95
f 99/99/99 100/100/100 96/96/96
f 101/101/101 100/100/100 99/99/99
f 101/101/101 102/102/102 100/100/100
f 87/87/87 88/88/88 89/89/89
f 87/87/87 89/89/89 90/90/90
f 91/91/91 87/87/87 90/90/90
f 91/91/91 90/90/90 92/92/92
f 93/93/93 91/91/91 92/92/92
f 93/93/93 94/94/94 91/91/91
f 83/83/83 94/94/94 93/93/93
f 83/83/83 82/82/82 94/94/94
f 81/81/81 82/82/82 83/83/83
f 81/81/81 83/83/83 84/84/84
f 85/85/85 81/81/81 84/84/84
f 85/85/85 84/84/84 86/86/86
f 181/181/181 191/191/191 192/192/192
f 181/181/181 180/180/180 191/191/191
f 179/179/179 180/180/180 181/181/181
f 179/179/179 181/181/181 182/182/182
f 187/187/187 189/189/189 190/190/190
f 187/187/187 188/188/188 189/189/189
f 183/183/183 185/185/185 186/186/186
f 183/183/183 184/184/184 185/185/185
f 175/175/175 177/177/177 178/178/178
f 175/175/175 178/178/178 176/176/176
f 173/173/173 175/175/175 176/176/176
f 173/173/173 176/176/176 174/174/174
f 171/171/171 173/173/173 174/174/174
f 171/171/171 174/174/174 172/172/172
f 169/169/169 171/171/171 172/172/172
f 169/169/169 172/172/172 170/170/170
f 166/166/166 169/169/169 170/170/170
f 166/166/166 170/170/170 167/167/167
f 165/165/165 166/166/166 167/167/167
f 165/165/165 167/167/167 168/168/168
f 217/217/217 219/219/219 220/220/220
f 217/217/217 218/218/218 219/219/219
f 213/213/213 215/215/215 216/216/216
f 213/213/213 212/212/212 215/215/215
f 211/211/211 212/212/212 213/213/213
f 211/211/211 213/213/213 214/214/214
f 207/207/207 209/209/209 210/210/210
f 207/207/207 208/208/208 209/209/209
f 203/203/203 205/205/205 206/206/206
f 203/203/203 206/206/206 204/204/204
f 201/201/201 203/203/203 204/204/204
f 201/201/201 204/204/204 202/202/202
f 199/199/199 201/201/201 202/202/202
f 199/199/199 202/202/202 200/200/200
f 197/197/197 199/199/199 200/200/200
f 197/197/197 200/200/200 198/198/198
f 194/194/194 197/197/197 198/198/198
f 194/194/194 198/198/198 195/195/195
f 193/193/193 194/194/194 195/195/195
f 193/193/193 195/195/195 196/196/196

