#
# OBJECT NAME
#
o model_2756
mtllib 2756.mtl

#
# VERTEX BUFFER 000
#
v -1.05387 0.72607 -0.5
v -0.860995 1.30031 -0.5
v -0.58582 0.966006 -0.5
v -0.996639 0.639255 -0.5
v 0.860995 1.30031 -0.5
v 1.05387 0.72607 -0.5
v 0.99664 0.639255 -0.5
v 0.585779 0.966006 -0.5
v -0.000103956 0.674025 -0.5
v 0 1.7522 -0.5
v 0.486187 1.63236 -0.5
v -0.486187 1.63236 -0.5
v -1 0.72607 -0.241185
v -0.681951 1.02581 -0.241185
v -0.816983 1.27096 -0.241185
v -0.461335 1.58604 -0.241185
v -2.07201e-005 1.53065 -0.241185
v 0.461335 1.58604 -0.241185
v -2.07201e-005 1.53065 -0.241185
v 0.681909 1.02581 -0.241185
v 0.816984 1.27096 -0.241185
v 1 0.72607 -0.241185
v -0.860995 1.30031 -0.5
v -1.05387 0.72607 -0.5
v -1 0.72607 -0.241185
v -0.816983 1.27096 -0.241185
v -0.461335 1.58604 -0.241185
v 0 1.69975 -0.241185
v 0 1.7522 -0.5
v -0.486187 1.63236 -0.5
v 0 1.69975 -0.241185
v 0.461335 1.58604 -0.241185
v 0.486187 1.63236 -0.5
v 0 1.7522 -0.5
v 0.461335 1.58604 -0.241185
v 0.816984 1.27096 -0.241185
v 0.860995 1.30031 -0.5
v 0.486187 1.63236 -0.5
v 0.816984 1.27096 -0.241185
v 1 0.72607 -0.241185
v 1.05387 0.72607 -0.5
v 0.860995 1.30031 -0.5
v -0.816983 1.27096 -0.241185
v -0.461335 1.58604 -0.241185
v -0.486187 1.63236 -0.5
v -0.860995 1.30031 -0.5
v 0.816984 1.27096 -0.241185
v 0 1.69975 -0.241185
v 0 1.69975 -0.241185
v 0.606006 1.05994 -0.0835959
v -0.610284 1.0585 -0.0835959
v -2.07215e-005 0.750491 -0.0835959
v 0.552451 1.22395 -0.0835959
v -0.554611 1.22322 -0.0835959
v -2.07201e-005 1.4494 -0.0835959
v 0.320273 1.34671 -0.0807335
v 0.384428 1.24914 -0.0807335
v 0.533972 1.21626 -0.0807335
v 0.612363 1.29507 -0.0807335
v 0.612363 1.29507 -0.0807335
v 0.533972 1.21626 -0.0807335
v 0.578869 1.06993 -0.0807335
v 0.696977 1.02069 -0.0807335
v 0 0.674025 -0.0807335
v 0.22134 0.895539 -0.0807335
v 0 0.674025 -0.0807335
v 0.612363 1.29507 -0.241185
v 0.320273 1.34671 -0.241185
v 0.320273 1.34671 -0.0807335
v 0.612363 1.29507 -0.0807335
v 0.696977 1.02069 -0.241185
v 0.696977 1.02069 -0.0807335
v -0.388202 1.24639 -0.0807335
v -0.324782 1.34442 -0.0807335
v -0.610588 1.29699 -0.0807335
v -0.532403 1.21793 -0.0807335
v -0.532403 1.21793 -0.0807335
v -0.610588 1.29699 -0.0807335
v -0.691351 1.01866 -0.0807335
v -0.578868 1.06993 -0.0807335
v -0.22134 0.895539 -0.0807335
v 0 0.674025 -0.0807335
v 0 0.674025 -0.0807335
v -0.691351 1.01866 -0.241185
v -0.58582 0.966006 -0.5
v 0 0.674025 -0.5
v 0 0.674025 -0.0807335
v -0.691351 1.01866 -0.0807335
v -0.691351 1.01866 -0.241185
v -0.691351 1.01866 -0.0807335
v -0.610588 1.29699 -0.0807335
v -0.610588 1.29699 -0.241185
v -0.324782 1.34442 -0.241185
v -0.324782 1.34442 -0.0807335
v 0.201132 1.31373 -0.0807335
v 0.320273 1.34671 -0.0807335
v -2.07201e-005 1.53065 -0.0807335
v -2.07201e-005 1.42268 -0.0807335
v -2.07201e-005 1.42268 -0.0807335
v -2.07201e-005 1.53065 -0.0807335
v -0.324782 1.34442 -0.0807335
v -0.205411 1.31229 -0.0807335
v 0 0.674025 -0.0807335
v -2.07215e-005 0.884066 -0.0807335
v 0 0.674025 -0.0807335
v -2.07201e-005 1.53065 -0.241185
v -0.324782 1.34442 -0.241185
v -0.324782 1.34442 -0.0807335
v -2.07201e-005 1.53065 -0.0807335
v 0.320273 1.34671 -0.241185
v 0.320273 1.34671 -0.0807335
v 0.585779 0.966006 -0.5
v 0.696977 1.02069 -0.241185
v 0.696977 1.02069 -0.0807335
v 0 0.674025 -0.0807335
v 0 0.674025 -0.5
v 1 0.72607 -0.241185
v 0.942769 0.639255 -0.144425
v 0.99664 0.639255 -0.5
v 1.05387 0.72607 -0.5
v 0.585779 0.966006 -0.5
v 0.99664 0.639255 -0.5
v 0.942769 0.639255 -0.144425
v 0.585779 0.966006 -0.144669
v 1 0.72607 -0.241185
v 0.696977 1.02069 -0.241185
v 0.696977 1.02069 -0.144349
v 1 0.72607 -0.144425
v 1 0.72607 -0.144425
v 0.696977 1.02069 -0.144349
v 0.585779 0.966006 -0.144669
v 0.942769 0.639255 -0.144425
v 1 0.72607 -0.144425
v -0.942769 0.639256 -0.144425
v -1 0.72607 -0.144425
v -1 0.72607 -0.241186
v -0.996639 0.639255 -0.5
v -0.58582 0.966006 -0.5
v -0.58582 0.966006 -0.145489
v -0.942769 0.639256 -0.144425
v -0.691351 1.01866 -0.241185
v -1 0.72607 -0.241186
v -1 0.72607 -0.144425
v -0.691351 1.01866 -0.142472
v -0.942769 0.639256 -0.144425
v -0.58582 0.966006 -0.145489
v -0.691351 1.01866 -0.142472
v -1 0.72607 -0.144425
v -1.05387 0.72607 -0.5
v -0.996639 0.639255 -0.5

vn 0 0 -1
vn -5.36442e-007 -1.78814e-007 -1
vn 0 0 -1
vn -1.78814e-007 0 -1
vn 5.36442e-007 -1.78814e-007 -1
vn 3.57628e-007 -5.36442e-007 -1
vn 3.57628e-007 -2.38419e-007 -1
vn -1.78814e-007 0 -1
vn -7.15256e-007 -2.38419e-007 -1
vn 0 1.19209e-007 -1
vn 4.17233e-007 0 -1
vn 0 1.19209e-007 -1
vn 0 0 1
vn -7.15256e-007 0 1
vn 1.19209e-007 0 1
vn -1.19209e-007 0 1
vn 0 0 1
vn -1.19209e-007 0 1
vn -1.19209e-007 0 1
vn 7.15256e-007 0 1
vn -1.19209e-007 0 1
vn 0 0 1
vn -0.867188 0.454834 0.202026
vn -0.970703 0.128052 0.202026
vn -0.970703 0.128052 0.202026
vn -0.866699 0.455322 0.202026
vn -0.347168 0.916016 0.200195
vn -0.118042 0.972168 0.200073
vn -0.118103 0.972168 0.200073
vn -0.347412 0.916016 0.200195
vn 0.118042 0.972168 0.200073
vn 0.347168 0.916016 0.200195
vn 0.347412 0.916016 0.200195
vn 0.118103 0.972168 0.200073
vn 0.556152 0.806152 0.200684
vn 0.73291 0.649414 0.201294
vn 0.73291 0.648926 0.201294
vn 0.556641 0.805664 0.200684
vn 0.866699 0.455322 0.202026
vn 0.970703 0.128052 0.202026
vn 0.970703 0.128052 0.202026
vn 0.867188 0.454834 0.202026
vn -0.73291 0.649414 0.201294
vn -0.556152 0.806152 0.200684
vn -0.556641 0.805664 0.200684
vn -0.73291 0.648926 0.201294
vn 0 0 1
vn -1.19209e-007 0 1
vn 0 0 1
vn 0 0 1
vn 0 0 1
vn 0 0 1
vn 0 0 1
vn 0 0 1
vn 0 0 1
vn 0 0 1
vn 0 0 1
vn 0 0 1
vn 0 0 1
vn 0 0 1
vn 0 0 1
vn 0 0 1
vn 0 0 1
vn 0 0 1
vn 0 0 1
vn 0 0 1
vn 0.654297 0.755859 0
vn 0.174072 0.984375 0
vn 0.174072 0.984375 0
vn 0.654297 0.755859 0
vn 0.955566 0.294678 0
vn 0.955566 0.294678 0
vn 0 0 1
vn 0 0 1
vn 0 0 1
vn 0 0 1
vn 0 0 1
vn 0 0 1
vn 0 0 1
vn 0 0 1
vn 0 0 1
vn 0 0 1
vn 0 0 1
vn -0.446045 -0.894531 5.73397e-005
vn -0.446045 -0.894531 5.73397e-005
vn -0.446045 -0.894531 5.73397e-005
vn -0.446045 -0.894531 5.73397e-005
vn -0.446045 -0.894531 5.73397e-005
vn -0.959961 0.278564 0
vn -0.959961 0.278564 0
vn -0.664063 0.74707 0
vn -0.664063 0.74707 0
vn -0.163696 0.986328 0
vn -0.163696 0.986328 0
vn 0 0 1
vn 0 0 1
vn 0 0 1
vn 0 0 1
vn 0 0 1
vn 0 0 1
vn 0 0 1
vn 0 0 1
vn 0 0 1
vn 0 0 1
vn 0 0 1
vn -0.00354958 0.999512 0
vn -0.497314 0.867188 0
vn -0.497314 0.867188 0
vn -0.00354958 0.999512 0
vn 0.497803 0.866699 0
vn 0.497803 0.866699 0
vn 0.445313 -0.89502 -0.000697613
vn 0.445313 -0.89502 -0.000697613
vn 0.445313 -0.89502 -0.000697613
vn 0.445313 -0.89502 -0.000697613
vn 0.445313 -0.89502 -0.000697613
vn 0.86084 -0.487549 0.143311
vn 0.859375 -0.493896 0.130127
vn 0.861816 -0.483887 0.151123
vn 0.861816 -0.483887 0.151123
vn -0.646973 -0.760254 -0.0490417
vn -0.646973 -0.760254 -0.0490417
vn -0.646973 -0.760254 -0.0490417
vn -0.646973 -0.760254 -0.0490417
vn 0.696777 0.716797 0
vn 0.696777 0.716797 0
vn 0.696777 0.716797 0
vn 0.696777 0.716797 0
vn -0.00112438 -0.00092411 0.999512
vn -0.00112438 -0.00092411 0.999512
vn -0.00112438 -0.00092411 0.999512
vn -0.00112438 -0.00092411 0.999512
vn 0.834473 -0.550293 0
vn -0.859375 -0.493896 0.130127
vn -0.834473 -0.550293 0
vn -0.86084 -0.487549 0.143311
vn 0.646973 -0.760254 -0.0491028
vn 0.646973 -0.760254 -0.0491028
vn 0.646973 -0.760254 -0.0491028
vn 0.646973 -0.760254 -0.0491028
vn -0.6875 0.725586 0
vn -0.6875 0.725586 0
vn -0.6875 0.725586 0
vn -0.6875 0.725586 0
vn 0.00900269 -0.011116 0.999512
vn 0.00900269 -0.011116 0.999512
vn 0.00900269 -0.011116 0.999512
vn 0.00900269 -0.011116 0.999512
vn -0.861816 -0.483887 0.151123
vn -0.861816 -0.483887 0.151123

vt 0.565943 0.536943
vt 0.603492 0.442811
vt 0.646222 0.494904
vt 0.574949 0.57003
vt 0.952555 0.442811
vt 0.989397 0.556621
vt 0.979572 0.57085
vt 0.908714 0.494904
vt 0.777192 0.557398
vt 0.77726 0.349344
vt 0.876151 0.373353
vt 0.678806 0.374225
vt 0.00605173 0.89999
vt 0.142046 0.81849
vt 0.186825 0.89999
vt 0.329855 0.89999
vt 0.499977 0.842001
vt 0.669133 0.89999
vt 0.499977 0.842001
vt 0.858656 0.817237
vt 0.81313 0.89999
vt 0.992507 0.89999
vt 0.186825 0.998168
vt 0 0.998168
vt 0 0.905145
vt 0.186825 0.905145
vt 0.329855 0.905145
vt 0.499977 0.905145
vt 0.499977 0.998168
vt 0.329855 0.998168
vt 0.499977 0.905145
vt 0.669133 0.905145
vt 0.669133 0.998168
vt 0.499977 0.998168
vt 0.669133 0.905145
vt 0.81313 0.905145
vt 0.81313 0.998168
vt 0.669133 0.998168
vt 0.81313 0.905145
vt 0.999955 0.905145
vt 0.999955 0.998168
vt 0.81313 0.998168
vt 0.186825 0.905145
vt 0.329855 0.905145
vt 0.329855 0.998168
vt 0.186825 0.998168
vt 0.81313 0.89999
vt 0.499977 0.89999
vt 0.499977 0.89999
vt 0.191166 0.495412
vt 0.00550157 0.495412
vt 0.0980054 0.451324
vt 0.175443 0.520474
vt 0.0208956 0.520474
vt 0.0980054 0.550663
vt 0.669318 0.332902
vt 0.688512 0.292482
vt 0.735127 0.29143
vt 0.74243 0.332014
vt 0.816358 0.263835
vt 0.777291 0.253552
vt 0.77679 0.208709
vt 0.816471 0.190731
vt 0.506262 0.0528624
vt 0.589576 0.12322
vt 0.52248 0.0451983
vt 0.247167 0.585809
vt 0.345463 0.585809
vt 0.345463 0.611107
vt 0.247167 0.611107
vt 0.154968 0.586639
vt 0.154968 0.611107
vt 0.275916 0.292482
vt 0.295889 0.332902
vt 0.222578 0.3324
vt 0.230062 0.290458
vt 0.187929 0.25258
vt 0.14865 0.26422
vt 0.147657 0.191116
vt 0.18783 0.20756
vt 0.372938 0.12234
vt 0.460074 0.0528624
vt 0.444268 0.0451983
vt 0.229298 0.68948
vt 0.263905 0.623105
vt 0.450422 0.623156
vt 0.450422 0.726653
vt 0.229298 0.726432
vt 0.842583 0.586787
vt 0.842583 0.611107
vt 0.750493 0.611107
vt 0.750493 0.585809
vt 0.652197 0.585809
vt 0.652197 0.611107
vt 0.601212 0.338778
vt 0.652495 0.348989
vt 0.580152 0.416704
vt 0.561981 0.382478
vt 0.403961 0.382478
vt 0.38579 0.416704
vt 0.312492 0.348989
vt 0.36473 0.338778
vt 0.478099 0.0603731
vt 0.483882 0.134289
vt 0.489439 0.0603078
vt 0.49883 0.585809
vt 0.652197 0.585809
vt 0.652197 0.611107
vt 0.49883 0.611107
vt 0.345463 0.585809
vt 0.345463 0.611107
vt 0.726501 0.623105
vt 0.759043 0.68948
vt 0.760032 0.727605
vt 0.557593 0.726653
vt 0.557593 0.623156
vt 0.995403 0.700005
vt 0.960942 0.726703
vt 0.960942 0.623105
vt 0.995403 0.623105
vt 0.765461 0.623105
vt 0.952281 0.623105
vt 0.952281 0.726703
vt 0.765461 0.726805
vt 0.00344688 0.585809
vt 0.153761 0.585809
vt 0.153761 0.611107
vt 0.00344688 0.611107
vt 0.954903 0.0436695
vt 0.862425 0.12688
vt 0.82388 0.1011
vt 0.933292 0.00787997
vt 0.995403 0.726703
vt 0.0391135 0.726703
vt 0.003581 0.726703
vt 0.003581 0.700005
vt 0.0472013 0.623105
vt 0.23396 0.623105
vt 0.23396 0.726602
vt 0.0472013 0.726703
vt 0.843774 0.585809
vt 0.995404 0.585809
vt 0.995404 0.611107
vt 0.843774 0.611107
vt 0.0323798 0.00744414
vt 0.143007 0.1011
vt 0.101703 0.127265
vt 0.00936394 0.0436694
vt 0.003581 0.623105
vt 0.0391135 0.623105


#
# MESH 000
#
g surface_000
usemtl surface_000
f 5/5/5 6/6/6 7/7/7
f 5/5/5 7/7/7 8/8/8
f 9/9/9 5/5/5 8/8/8
f 9/9/9 11/11/11 5/5/5
f 9/9/9 10/10/10 11/11/11
f 10/10/10 9/9/9 12/12/12
f 2/2/2 12/12/12 9/9/9
f 2/2/2 9/9/9 3/3/3
f 1/1/1 2/2/2 3/3/3
f 1/1/1 3/3/3 4/4/4
f 21/21/21 20/20/20 22/22/22
f 16/16/16 17/17/17 49/49/49
f 16/16/16 14/14/14 17/17/17
f 16/16/16 15/15/15 14/14/14
f 13/13/13 14/14/14 15/15/15
f 18/18/18 48/48/48 19/19/19
f 18/18/18 19/19/19 20/20/20
f 18/18/18 20/20/20 47/47/47
f 43/43/43 45/45/45 46/46/46
f 43/43/43 44/44/44 45/45/45
f 39/39/39 41/41/41 42/42/42
f 39/39/39 40/40/40 41/41/41
f 35/35/35 37/37/37 38/38/38
f 35/35/35 36/36/36 37/37/37
f 31/31/31 33/33/33 34/34/34
f 31/31/31 32/32/32 33/33/33
f 27/27/27 29/29/29 30/30/30
f 27/27/27 28/28/28 29/29/29
f 23/23/23 25/25/25 26/26/26
f 23/23/23 24/24/24 25/25/25
f 54/54/54 53/53/53 55/55/55
f 50/50/50 53/53/53 54/54/54
f 50/50/50 54/54/54 51/51/51
f 50/50/50 51/51/51 52/52/52
f 112/112/112 115/115/115 116/116/116
f 112/112/112 114/114/114 115/115/115
f 112/112/112 113/113/113 114/114/114
f 110/110/110 109/109/109 111/111/111
f 110/110/110 106/106/106 109/109/109
f 106/106/106 108/108/108 109/109/109
f 106/106/106 107/107/107 108/108/108
f 105/105/105 95/95/95 104/104/104
f 105/105/105 96/96/96 95/95/95
f 95/95/95 96/96/96 97/97/97
f 95/95/95 97/97/97 98/98/98
f 101/101/101 103/103/103 104/104/104
f 101/101/101 104/104/104 102/102/102
f 99/99/99 101/101/101 102/102/102
f 99/99/99 100/100/100 101/101/101
f 93/93/93 91/91/91 94/94/94
f 93/93/93 92/92/92 91/91/91
f 89/89/89 91/91/91 92/92/92
f 89/89/89 90/90/90 91/91/91
f 84/84/84 87/87/87 88/88/88
f 84/84/84 86/86/86 87/87/87
f 84/84/84 85/85/85 86/86/86
f 80/80/80 83/83/83 81/81/81
f 80/80/80 79/79/79 83/83/83
f 77/77/77 79/79/79 80/80/80
f 77/77/77 78/78/78 79/79/79
f 74/74/74 81/81/81 82/82/82
f 74/74/74 73/73/73 81/81/81
f 73/73/73 74/74/74 75/75/75
f 73/73/73 75/75/75 76/76/76
f 71/71/71 70/70/70 72/72/72
f 71/71/71 67/67/67 70/70/70
f 67/67/67 69/69/69 70/70/70
f 67/67/67 68/68/68 69/69/69
f 63/63/63 65/65/65 66/66/66
f 63/63/63 62/62/62 65/65/65
f 60/60/60 62/62/62 63/63/63
f 60/60/60 61/61/61 62/62/62
f 56/56/56 64/64/64 65/65/65
f 56/56/56 65/65/65 57/57/57
f 56/56/56 57/57/57 58/58/58
f 56/56/56 58/58/58 59/59/59
f 117/117/117 133/133/133 118/118/118
f 117/117/117 118/118/118 119/119/119
f 117/117/117 119/119/119 120/120/120
f 129/129/129 131/131/131 132/132/132
f 129/129/129 130/130/130 131/131/131
f 125/125/125 127/127/127 128/128/128
f 125/125/125 126/126/126 127/127/127
f 121/121/121 123/123/123 124/124/124
f 121/121/121 122/122/122 123/123/123
f 134/134/134 149/149/149 150/150/150
f 134/134/134 136/136/136 149/149/149
f 134/134/134 135/135/135 136/136/136
f 145/145/145 147/147/147 148/148/148
f 145/145/145 146/146/146 147/147/147
f 141/141/141 143/143/143 144/144/144
f 141/141/141 142/142/142 143/143/143
f 137/137/137 139/139/139 140/140/140
f 137/137/137 138/138/138 139/139/139

