g t025v001_l
v -0.5 0 0.5
v -0.5 0.25 0.5
v 0.5 0.25 0.5
v 0.5 0 0.5
v -0.5 0.25 0.5
v -0.5 0.25 -0.5
v 0.5 0.25 -0.5
v 0.5 0.25 0.5
v -0.5 0.25 -0.5
v -0.5 0 -0.5
v 0.5 0 -0.5
v 0.5 0.25 -0.5
v -0.5 0 -0.5
v -0.5 0 0.5
v 0.5 0 0.5
v 0.5 0 -0.5
v 0.5 0 0.5
v 0.5 0.25 0.5
v 0.5 0.25 -0.5
v 0.5 0 -0.5
v -0.5 0 -0.5
v -0.5 0.25 -0.5
v -0.5 0.25 0.5
v -0.5 0 0.5
v 0.3232388 0.25 -0.5000001
v 0.2091904 0.4728897 -0.5000001
v 0 0.25 -0.5000002
v -4.904614E-19 0.570683 -0.5000001
v -0.2091904 0.4728897 -0.5000001
v -0.3232388 0.25 -0.5000001
v 0.5 0.25 -0.4039556
v 0.2091904 0.4728897 -0.5000001
v 0.3232388 0.25 -0.5000001
v 0.275622 0.5461545 -0.3884851
v 8.106431E-18 0.6730391 -0.3884851
v -4.904614E-19 0.570683 -0.5000001
v -0.275622 0.5461545 -0.3884851
v -0.2091904 0.4728897 -0.5000001
v -0.3232388 0.25 -0.5000001
v -0.5 0.25 -0.4039556
v 0.5 0.25 0
v 0.275622 0.5461545 -0.3884851
v 0.5 0.25 -0.4039556
v 0.275622 0.5461545 1.962816E-35
v 8.106431E-18 0.6730391 -0.3884851
v 0.275622 0.5461545 0.3884851
v 0.5 0.25 0.4039556
v -1.802918E-19 0.6730391 0.3884851
v 6.938895E-18 0.6730391 0
v -0.275622 0.5461545 0
v -0.275622 0.5461545 -0.3884851
v -0.275622 0.5461545 0.3884851
v -0.5 0.25 -0.4039556
v -0.5 0.25 0.4039556
v -0.5 0.25 0
v 0.3232387 0.25 0.5000001
v 0 0.25 0.5000002
v 0.2091904 0.4728897 0.5000001
v -4.205143E-18 0.570683 0.5000001
v -0.2091904 0.4728897 0.5000001
v -0.3232397 0.25 0.5000001
v 0.275622 0.5461545 0.3884851
v 0.5 0.25 0.4039556
v 0.3232387 0.25 0.5000001
v 0.2091904 0.4728897 0.5000001
v -4.205143E-18 0.570683 0.5000001
v -1.802918E-19 0.6730391 0.3884851
v -0.2091904 0.4728897 0.5000001
v -0.275622 0.5461545 0.3884851
v -0.5 0.25 0.4039556
v -0.3232397 0.25 0.5000001
vt 0.5019531 0.1384277
vt 0.5019531 0.2614746
vt 0.7480469 0.2614746
vt 0.7480469 0.1384277
vt 0.5019531 0.479248
vt 0.5019531 0.9716797
vt 0.7480469 0.9716797
vt 0.7480469 0.479248
vt 0.9980469 0.4367676
vt 0.9980469 0.3134766
vt 0.7519531 0.3134766
vt 0.7519531 0.4367676
vt 0.9980469 0.9716797
vt 0.9980469 0.479248
vt 0.7519531 0.479248
vt 0.7519531 0.9716797
vt 0.7519531 0.1384277
vt 0.7519531 0.2614746
vt 0.9980469 0.2614746
vt 0.9980469 0.1384277
vt 0.5019531 0.3134766
vt 0.5019531 0.4367676
vt 0.7480469 0.4367676
vt 0.7480469 0.3134766
vt 0.2927246 0.2807617
vt 0.3266602 0.4138184
vt 0.3891602 0.2807617
vt 0.3891602 0.472168
vt 0.451416 0.4138184
vt 0.4855957 0.2807617
vt 0.006759644 0.009292603
vt 0.09393311 0.1429443
vt 0.0597229 0.009292603
vt 0.07397461 0.1867676
vt 0.1566162 0.2629395
vt 0.1566162 0.2015381
vt 0.2392578 0.1867676
vt 0.2192383 0.1429443
vt 0.253418 0.009292603
vt 0.3063965 0.009292603
vt 0.4133301 0.7304688
vt 0.3417969 0.9770508
vt 0.4133301 0.9770508
vt 0.3417969 0.7304688
vt 0.2481689 0.9770508
vt 0.3417969 0.4985352
vt 0.4133301 0.4985352
vt 0.2481689 0.4985352
vt 0.2481689 0.7304688
vt 0.1546631 0.7304688
vt 0.1546631 0.9770508
vt 0.1546631 0.4985352
vt 0.08361816 0.9770508
vt 0.08361816 0.4985352
vt 0.08361816 0.7304688
vt 0.4855957 0.2807617
vt 0.3891602 0.2807617
vt 0.451416 0.4138184
vt 0.3891602 0.472168
vt 0.3266602 0.4138184
vt 0.2927246 0.2807617
vt 0.2392578 0.3867188
vt 0.3063965 0.2091064
vt 0.253418 0.2091064
vt 0.2192383 0.3427734
vt 0.1566162 0.4013672
vt 0.1566162 0.4626465
vt 0.09393311 0.3427734
vt 0.07397461 0.3867188
vt 0.006759644 0.2091064
vt 0.0597229 0.2091064
vn 0 0 1
vn 0 0 1
vn 0 0 1
vn 0 0 1
vn 0 1 0
vn 0 1 0
vn 0 1 0
vn 0 1 0
vn 0 0 -1
vn 0 0 -1
vn 0 0 -1
vn 0 0 -1
vn 0 -1 0
vn 0 -1 0
vn 0 -1 0
vn 0 -1 0
vn 1 0 0
vn 1 0 0
vn 1 0 0
vn 1 0 0
vn -1 0 0
vn -1 0 0
vn -1 0 0
vn -1 0 0
vn 0 0 -1
vn 0 0 -1
vn 0 0 -1
vn 0 0 -1
vn 0 0 -1
vn 0 0 -1
vn 0.5351563 0.371582 -0.7583008
vn 0.4521484 0.5224609 -0.7231445
vn 0.5351563 0.371582 -0.7583008
vn 0.4526367 0.5214844 -0.7236328
vn 0 0.7338867 -0.6791992
vn 0 0.7338867 -0.6791992
vn -0.4526367 0.5214844 -0.7236328
vn -0.4521484 0.5224609 -0.7231445
vn -0.5351563 0.371582 -0.7583008
vn -0.5351563 0.371582 -0.7583008
vn 0.796875 0.6040039 0
vn 0.6503906 0.7597656 0
vn 0.796875 0.6040039 0
vn 0.6479492 0.7617188 0
vn 0 1 0
vn 0.6503906 0.7597656 0
vn 0.796875 0.6040039 0
vn 0 1 0
vn 0 1 0
vn -0.6479492 0.7617188 0
vn -0.6503906 0.7597656 0
vn -0.6503906 0.7597656 0
vn -0.796875 0.6040039 0
vn -0.796875 0.6040039 0
vn -0.796875 0.6040039 0
vn 0 0 1
vn 0 0 1
vn 0 0 1
vn 0 0 1
vn 0 0 1
vn 0 0 1
vn 0.4526367 0.5214844 0.7236328
vn 0.5351563 0.371582 0.7583008
vn 0.5351563 0.371582 0.7583008
vn 0.4521484 0.5224609 0.7231445
vn 0 0.7338867 0.6791992
vn 0 0.7338867 0.6791992
vn -0.4521484 0.5224609 0.7231445
vn -0.4526367 0.5214844 0.7236328
vn -0.5351563 0.371582 0.7583008
vn -0.5351563 0.371582 0.7583008
g t025v001_l_0
f 3/3/3 2/2/2 1/1/1
f 4/4/4 3/3/3 1/1/1
f 7/7/7 6/6/6 5/5/5
f 8/8/8 7/7/7 5/5/5
f 11/11/11 10/10/10 9/9/9
f 12/12/12 11/11/11 9/9/9
f 15/15/15 14/14/14 13/13/13
f 16/16/16 15/15/15 13/13/13
f 19/19/19 18/18/18 17/17/17
f 20/20/20 19/19/19 17/17/17
f 23/23/23 22/22/22 21/21/21
f 24/24/24 23/23/23 21/21/21
f 27/27/27 26/26/26 25/25/25
f 28/28/28 26/26/26 27/27/27
f 29/29/29 28/28/28 27/27/27
f 29/29/29 27/27/27 30/30/30
f 33/33/33 32/32/32 31/31/31
f 32/32/32 34/34/34 31/31/31
f 35/35/35 34/34/34 32/32/32
f 36/36/36 35/35/35 32/32/32
f 37/37/37 35/35/35 36/36/36
f 38/38/38 37/37/37 36/36/36
f 38/38/38 39/39/39 37/37/37
f 39/39/39 40/40/40 37/37/37
f 43/43/43 42/42/42 41/41/41
f 42/42/42 44/44/44 41/41/41
f 44/44/44 42/42/42 45/45/45
f 44/44/44 46/46/46 41/41/41
f 46/46/46 47/47/47 41/41/41
f 46/46/46 44/44/44 48/48/48
f 49/49/49 44/44/44 45/45/45
f 44/44/44 49/49/49 48/48/48
f 50/50/50 49/49/49 45/45/45
f 49/49/49 50/50/50 48/48/48
f 51/51/51 50/50/50 45/45/45
f 50/50/50 52/52/52 48/48/48
f 51/51/51 53/53/53 50/50/50
f 54/54/54 52/52/52 50/50/50
f 53/53/53 55/55/55 50/50/50
f 55/55/55 54/54/54 50/50/50
f 58/58/58 57/57/57 56/56/56
f 58/58/58 59/59/59 57/57/57
f 59/59/59 60/60/60 57/57/57
f 57/57/57 60/60/60 61/61/61
f 64/64/64 63/63/63 62/62/62
f 65/65/65 64/64/64 62/62/62
f 65/65/65 62/62/62 66/66/66
f 62/62/62 67/67/67 66/66/66
f 66/66/66 67/67/67 68/68/68
f 67/67/67 69/69/69 68/68/68
f 68/68/68 69/69/69 70/70/70
f 71/71/71 68/68/68 70/70/70
