g p004v001_m
v 0.2041779 0.1886033 0.3248537
v 0.3490992 0.1886033 -0.1711652
v 0.6146135 0.004949952 0.1728768
v 0.006076813 -0.01472258 -0.0008621216
v 0.3087091 0.1657043 -0.2323966
v -0.1978264 0.1591523 -0.3344865
v 0.1276388 0.01218438 -0.6317086
v 0.006076813 -0.01472258 -0.0008621216
v -0.2865324 0.1646365 -0.2457891
v -0.2575092 0.1788418 0.2699852
v -0.6328478 0.01605762 0.03117275
v 0.006076813 -0.01472258 -0.0008621216
v -0.3098841 0.1579943 0.2406921
v 0.1988811 0.1764316 0.3296175
v -0.1132307 0.01297541 0.6168308
v 0.006076813 -0.01472258 -0.0008621216
v -0.05037611 0.1866115 -0.3377624
v 0.3216885 0.2114851 0.09137955
v 0.005456924 -0.01322275 -0.0007748604
v 0.481431 0.1824805 -0.4200125
v -0.2930723 0.2477809 0.1278952
v 0.03919828 0.2418707 -0.3544952
v 0.005456924 -0.01322275 -0.0007748604
v -0.4438286 0.3425835 -0.381074
v 0.08449706 0.2090565 0.3339263
v -0.3594822 0.2185866 -0.03183636
v 0.005456924 -0.01322275 -0.0007748604
v -0.4199886 0.1560018 0.5000381
v 0.3227131 0.2257985 -0.06897019
v -0.08671077 0.2498979 0.3092718
v 0.005456924 -0.01322275 -0.0007748604
v 0.3966503 0.3323241 0.4722819
v -0.116395 0.4765719 -0.2021999
v -0.167367 0.2146885 0.07689571
v -0.4452353 0.3647376 -0.1452522
v -0.5393724 0.2502173 0.1739783
v -0.3046713 0.2475314 0.4362626
v -0.3046713 0.2475314 0.4362626
v -0.167367 0.2146885 0.07689571
v 0.02416897 0.3593658 0.3793159
v 0.1183062 0.473886 0.06008482
v -0.116395 0.4765719 -0.2021999
v 0.2111263 0.3058569 -0.3122506
v 0.2732019 0.2069353 -0.02535677
v 0.04499817 0.4008164 -0.1046014
v 0.1454363 0.4209603 0.1585345
v 0.4120035 0.3461447 0.2140217
v 0.4120035 0.3461447 0.2140217
v 0.2732019 0.2069353 -0.02535677
v 0.5781326 0.2511852 0.006372452
v 0.4776945 0.2310414 -0.2567639
v 0.2111263 0.3058569 -0.3122506
vt 0.4916992 0.4101563
vt 0.008247375 0.4101563
vt 0.25 0.9897461
vt 0.25 0.003353119
vt 0.4916992 0.4101563
vt 0.008247375 0.4101563
vt 0.25 0.9897461
vt 0.25 0.003353119
vt 0.4916992 0.4101563
vt 0.008247375 0.4101563
vt 0.25 0.9897461
vt 0.25 0.003353119
vt 0.4916992 0.4101563
vt 0.008247375 0.4101563
vt 0.25 0.9897461
vt 0.25 0.003353119
vt 0.008247375 0.4101563
vt 0.4916992 0.4101563
vt 0.25 0.003355026
vt 0.25 0.9897461
vt 0.008247375 0.4101563
vt 0.4916992 0.4101563
vt 0.25 0.003355026
vt 0.25 0.9897461
vt 0.008247375 0.4101563
vt 0.4916992 0.4101563
vt 0.25 0.003355026
vt 0.25 0.9897461
vt 0.008247375 0.4101563
vt 0.4916992 0.4101563
vt 0.25 0.003355026
vt 0.25 0.9897461
vt 0.7324219 0.9794922
vt 0.7324219 0.4919434
vt 0.5195313 0.7416992
vt 0.5195313 0.2418213
vt 0.7324219 0.004386902
vt 0.7324219 0.9794922
vt 0.7324219 0.4919434
vt 0.5195313 0.7416992
vt 0.5195313 0.2418213
vt 0.7324219 0.004386902
vt 0.7739258 0.006763458
vt 0.7739258 0.4941406
vt 0.9868164 0.2442627
vt 0.9868164 0.7441406
vt 0.7739258 0.9819336
vt 0.7739258 0.006763458
vt 0.7739258 0.4941406
vt 0.9868164 0.2442627
vt 0.9868164 0.7441406
vt 0.7739258 0.9819336
vn 0.3276367 0.8320313 0.4477539
vn 0.5170898 0.8320313 -0.2009277
vn 0.7685547 0.6352539 -0.07702637
vn 0.008224487 0.887207 0.4614258
vn 0.4221191 0.8271484 -0.3710938
vn -0.2481689 0.8242188 -0.5087891
vn -0.1447754 0.6176758 -0.7729492
vn 0.4594727 0.887207 -0.04275513
vn -0.4802246 0.8149414 -0.3242188
vn -0.4353027 0.8208008 0.3696289
vn -0.7197266 0.6035156 0.3432617
vn -0.1541748 0.8852539 -0.4389648
vn -0.432373 0.8149414 0.3859863
vn 0.2507324 0.828125 0.5009766
vn 0.1621094 0.6137695 0.7724609
vn -0.472168 0.8803711 0.0456543
vn -0.3986816 0.8999023 -0.1774902
vn 0.06378174 0.9321289 0.3562012
vn -0.7006836 0.4177246 0.5786133
vn 0.09082031 0.9858398 -0.1405029
vn 0.1599121 0.8330078 0.5297852
vn 0.5874023 0.8066406 -0.06170654
vn 0.7636719 0.3793945 0.5224609
vn 0.1091309 0.9936523 0.03314209
vn 0.3500977 0.9311523 0.09967041
vn -0.1381836 0.9443359 -0.2983398
vn 0.5385742 0.5634766 -0.6264648
vn -0.08709717 0.987793 0.1290283
vn -0.02781677 0.8466797 -0.5317383
vn -0.5097656 0.8554688 -0.09130859
vn -0.5771484 0.4267578 -0.6962891
vn -0.04568481 0.9902344 -0.1313477
vn -0.3579102 0.7128906 0.6035156
vn -0.2719727 0.9287109 0.2529297
vn 0.02616882 0.8432617 0.5366211
vn 0.1361084 0.9770508 0.1640625
vn -0.1379395 0.9799805 -0.142334
vn -0.1379395 0.9799805 -0.142334
vn -0.2719727 0.9287109 0.2529297
vn -0.5219727 0.8496094 -0.07580566
vn -0.6318359 0.7158203 0.2971191
vn -0.3579102 0.7128906 0.6035156
vn 0.4208984 0.8818359 0.2130127
vn 0.3012695 0.9350586 -0.1866455
vn 0.6625977 0.7436523 -0.08929443
vn 0.5166016 0.7143555 -0.4724121
vn 0.128418 0.8232422 -0.5532227
vn 0.128418 0.8232422 -0.5532227
vn 0.3012695 0.9350586 -0.1866455
vn -0.1134033 0.9614258 -0.2509766
vn 0.0328064 0.9907227 0.1322021
vn 0.4208984 0.8818359 0.2130127
g p004v001_m_0
f 3/3/3 2/2/2 1/1/1
f 1/1/1 2/2/2 4/4/4
f 7/7/7 6/6/6 5/5/5
f 5/5/5 6/6/6 8/8/8
f 11/11/11 10/10/10 9/9/9
f 9/9/9 10/10/10 12/12/12
f 15/15/15 14/14/14 13/13/13
f 13/13/13 14/14/14 16/16/16
f 19/19/19 18/18/18 17/17/17
f 17/17/17 18/18/18 20/20/20
f 23/23/23 22/22/22 21/21/21
f 21/21/21 22/22/22 24/24/24
f 27/27/27 26/26/26 25/25/25
f 26/26/26 28/28/28 25/25/25
f 31/31/31 30/30/30 29/29/29
f 29/29/29 30/30/30 32/32/32
f 35/35/35 34/34/34 33/33/33
f 36/36/36 34/34/34 35/35/35
f 37/37/37 34/34/34 36/36/36
f 40/40/40 39/39/39 38/38/38
f 41/41/41 39/39/39 40/40/40
f 42/42/42 39/39/39 41/41/41
f 45/45/45 44/44/44 43/43/43
f 46/46/46 44/44/44 45/45/45
f 47/47/47 44/44/44 46/46/46
f 50/50/50 49/49/49 48/48/48
f 51/51/51 49/49/49 50/50/50
f 52/52/52 49/49/49 51/51/51
