#
# OBJECT NAME
#
o model_4897
mtllib 4897.mtl

#
# VERTEX BUFFER 000
#
v -0.5 0 0.065
v 0.065 0 0.065
v 0.065 1 0.065
v -0.5 1 0.065
v -0.234931 0.997 -0.200069
v 0.065 1 0.065
v 0.065 1 -0.5
v -0.5 1 -0.5
v 0.065 1 -0.5
v 0.065 0 -0.5
v -0.5 0 -0.5
v -0.5 0 0.065
v -0.213007 0.000999987 -0.213007
v 0.065 0 0.065
v 0.065 0 0.065
v 0.065 0 -0.5
v 0.065 1 -0.5
v 0.065 1 0.065
v -0.5 0 -0.5
v -0.5 0 0.065
v -0.5 1 0.065
v -0.5 1 -0.5
v -0.5 1 -0.5
v -0.5 1 0.065
v 0.065 0 -0.5
v -0.5 0 -0.5

vn 0 0 1
vn 0 0 1
vn 0 0 1
vn 0 0 1
vn 0.000208735 0.999512 -0.000208735
vn -0.00569534 0.999512 -0.00486755
vn -0.00499725 0.999512 0.00499725
vn 0 0 -1
vn 0 0 -1
vn 0 0 -1
vn 0 0 -1
vn 0.00180435 -0.999512 -0.00173283
vn -1.78814e-005 -1 -1.78814e-005
vn -0.00179768 -0.999512 -0.00179768
vn 1 0 0
vn 1 0 0
vn 1 0 0
vn 1 0 0
vn -1 0 0
vn -1 0 0
vn -1 0 0
vn -1 0 0
vn 0.00486755 0.999512 0.00569534
vn 0.0056572 0.999512 -0.0056572
vn -0.00173283 -0.999512 0.00180435
vn 0.00174141 -0.999512 0.00174141

vt 0.0244339 0.0602379
vt 0.205941 0.0602379
vt 0.205941 0.946404
vt 0.0244339 0.946404
vt 0.885464 0.262949
vt 0.978395 0.0624606
vt 0.978395 0.489805
vt 0.217536 0.0602379
vt 0.399043 0.0602379
vt 0.399043 0.946404
vt 0.217536 0.946404
vt 0.803335 0.946404
vt 0.892258 0.736131
vt 0.978395 0.946404
vt 0.410503 0.0602379
vt 0.59201 0.0602379
vt 0.59201 0.946404
vt 0.410503 0.946404
vt 0.603668 0.0602379
vt 0.785175 0.0602379
vt 0.785175 0.946404
vt 0.603668 0.946404
vt 0.803335 0.489805
vt 0.803335 0.0624606
vt 0.978395 0.51906
vt 0.803335 0.51906


#
# MESH 000
#
g surface_000
usemtl surface_000
f 19/19/19 21/21/21 22/22/22
f 19/19/19 20/20/20 21/21/21
f 15/15/15 17/17/17 18/18/18
f 15/15/15 16/16/16 17/17/17
f 8/8/8 10/10/10 11/11/11
f 8/8/8 9/9/9 10/10/10
f 1/1/1 3/3/3 4/4/4
f 1/1/1 2/2/2 3/3/3
f 26/26/26 25/25/25 13/13/13
f 13/13/13 25/25/25 14/14/14
f 12/12/12 13/13/13 14/14/14
f 26/26/26 13/13/13 12/12/12
f 24/24/24 6/6/6 5/5/5
f 5/5/5 6/6/6 7/7/7
f 23/23/23 5/5/5 7/7/7
f 24/24/24 5/5/5 23/23/23

