g d008v001_h
v 0.3799448 0 -0.9172668
v 9.536743E-07 0.1 -0.9416924
v 9.536743E-07 0 -0.9928398
v 0.3603706 0.1 -0.8700104
v 0.7020454 0 -0.7020454
v 0.6658764 0.1 -0.6658745
v 0.9172659 0 -0.3799438
v 0.8700094 0.1 -0.3603706
v 0.9928417 0 0
v 0.9416914 0.1 0
v 0.9172659 0 0.3799438
v 0.8700094 0.1 0.3603705
v 0.7020445 0 0.7020454
v 0.6658764 0.09999999 0.6658783
v 0.3799438 0 0.9172668
v 0.3603697 0.1 0.8700104
v 0 0 0.9928398
v 0 0.1 0.9416924
v 9.536743E-07 0 -0.9928398
v 9.536743E-07 0.1 -0.9416924
v -0.3603697 0.1 -0.8700104
v -0.3799438 0 -0.9172668
v -0.6658764 0.1 -0.6658783
v -0.7020445 0 -0.7020454
v -0.8700094 0.1 -0.3603706
v -0.9172659 0 -0.3799438
v -0.9416914 0.1 0
v -0.9928417 0 0
v -0.8700094 0.1 0.3603705
v -0.9172659 0 0.3799438
v -0.6658764 0.09999999 0.6658783
v -0.7020454 0 0.7020454
v -0.3603697 0.1 0.8700104
v -0.3799438 0 0.9172668
v 0 0.1 0.9416924
v 0 0 0.9928398
v 9.536743E-07 0.1 -0.9416924
v 0 0.1 -0.7171555
v -0.2744427 0.1 -0.6625633
v -0.3603697 0.1 -0.8700104
v -0.5071039 0.1 -0.507103
v -0.6658764 0.1 -0.6658783
v -0.6625633 0.1 -0.2744446
v -0.8700094 0.1 -0.3603706
v -0.7171535 0.1 0
v -0.9416914 0.1 0
v -0.6625633 0.1 0.2744406
v -0.8700094 0.1 0.3603705
v -0.5071049 0.09999999 0.507103
v -0.6658764 0.09999999 0.6658783
v -0.2744427 0.09999999 0.6625633
v -0.3603697 0.1 0.8700104
v 0 0.09999999 0.7171555
v 0 0.1 0.9416924
v 0.3603706 0.1 -0.8700104
v 0 0.1 -0.7171555
v 9.536743E-07 0.1 -0.9416924
v 0.2744436 0.1 -0.6625633
v 0.6658764 0.1 -0.6658745
v 0.5071049 0.1 -0.507103
v 0.8700094 0.1 -0.3603706
v 0.6625633 0.1 -0.2744408
v 0.9416914 0.1 0
v 0.7171535 0.1 0
v 0.8700094 0.1 0.3603705
v 0.6625633 0.1 0.2744445
v 0.6658764 0.09999999 0.6658783
v 0.5071039 0.09999999 0.507103
v 0.3603697 0.1 0.8700104
v 0.2744427 0.09999999 0.6625633
v 0 0.1 0.9416924
v 0 0.09999999 0.7171555
v -0.9172659 0 -0.3799438
v -0.9928417 0 0
v -0.9172659 0 0.3799438
v -0.7020445 0 -0.7020454
v -0.7020454 0 0.7020454
v -0.3799438 0 0.9172668
v -0.3799438 0 -0.9172668
v 9.536743E-07 0 -0.9928398
v 0 0 0.9928398
v 0.3799448 0 -0.9172668
v 0.3799438 0 0.9172668
v 0.7020454 0 -0.7020454
v 0.7020445 0 0.7020454
v 0.9172659 0 -0.3799438
v 0.9172659 0 0.3799438
v 0.9928417 0 0
v 0.6625633 0.1 0.2744445
v 0 0.1 0
v 0.7171535 0.1 0
v 0.5071039 0.09999999 0.507103
v 0.6625633 0.1 -0.2744408
v 0.2744427 0.09999999 0.6625633
v 0.5071049 0.1 -0.507103
v 0 0.09999999 0.7171555
v 0.2744436 0.1 -0.6625633
v -0.2744427 0.09999999 0.6625633
v 0 0.1 -0.7171555
v -0.5071049 0.09999999 0.507103
v -0.2744427 0.1 -0.6625633
v -0.6625633 0.1 0.2744406
v -0.5071039 0.1 -0.507103
v -0.7171535 0.1 0
v -0.6625633 0.1 -0.2744446
vt 0.8774414 0.2030029
vt 1 0.2519531
vt 1 0.2030029
vt 0.8774414 0.2519531
vt 0.7524414 0.2030029
vt 0.7524414 0.2519531
vt 0.6259766 0.2030029
vt 0.6259766 0.2519531
vt 0.5014648 0.2030029
vt 0.5019531 0.2519531
vt 0.3771973 0.2030029
vt 0.3771973 0.2519531
vt 0.2509766 0.2030029
vt 0.2509766 0.2519531
vt 0.1257324 0.2030029
vt 0.1257324 0.2519531
vt 0 0.2030029
vt 0 0.2519531
vt 0 0.2030029
vt 0 0.2519531
vt 0.1257324 0.2519531
vt 0.1257324 0.2030029
vt 0.2509766 0.2519531
vt 0.2509766 0.2030029
vt 0.3771973 0.2519531
vt 0.3771973 0.2030029
vt 0.5019531 0.2519531
vt 0.5019531 0.2030029
vt 0.6259766 0.2519531
vt 0.6259766 0.2030029
vt 0.7524414 0.2519531
vt 0.7524414 0.2030029
vt 0.8774414 0.2519531
vt 0.8774414 0.2030029
vt 1 0.2519531
vt 1 0.2030029
vt 0 0.2995605
vt 0 0.3847656
vt 0.1257324 0.3847656
vt 0.1257324 0.2995605
vt 0.2509766 0.3847656
vt 0.2509766 0.2995605
vt 0.376709 0.3847656
vt 0.3771973 0.2995605
vt 0.5019531 0.3847656
vt 0.5019531 0.2995605
vt 0.6259766 0.3847656
vt 0.6259766 0.2995605
vt 0.7524414 0.3847656
vt 0.7524414 0.2995605
vt 0.8774414 0.3847656
vt 0.8774414 0.2995605
vt 1 0.3847656
vt 1 0.2995605
vt 0.8774414 0.2995605
vt 1 0.3847656
vt 1 0.2995605
vt 0.8774414 0.3847656
vt 0.7524414 0.2995605
vt 0.7524414 0.3847656
vt 0.6259766 0.2995605
vt 0.6259766 0.3847656
vt 0.5019531 0.2995605
vt 0.5019531 0.3847656
vt 0.3771973 0.2995605
vt 0.376709 0.3847656
vt 0.2509766 0.2995605
vt 0.2509766 0.3847656
vt 0.1257324 0.2995605
vt 0.1257324 0.3847656
vt 0 0.2995605
vt 0 0.3847656
vt 0.9633789 0.8427734
vt 0.9790039 0.7641602
vt 0.9633789 0.6855469
vt 0.9189453 0.909668
vt 0.9189453 0.6191406
vt 0.8525391 0.574707
vt 0.8520508 0.9541016
vt 0.7734375 0.9697266
vt 0.7739258 0.5585938
vt 0.6948242 0.9541016
vt 0.6953125 0.5742188
vt 0.628418 0.9091797
vt 0.628418 0.6186523
vt 0.5839844 0.8427734
vt 0.5839844 0.6855469
vt 0.5683594 0.7641602
vt 0.5322266 0.5961914
vt 0.2836914 0.6992188
vt 0.5527344 0.6992188
vt 0.473877 0.5087891
vt 0.5322266 0.8017578
vt 0.3867188 0.4504395
vt 0.473877 0.8891602
vt 0.2836914 0.4299316
vt 0.3867188 0.9472656
vt 0.1809082 0.4504395
vt 0.2836914 0.9677734
vt 0.09362793 0.5087891
vt 0.1809082 0.9472656
vt 0.03533936 0.5961914
vt 0.09362793 0.8891602
vt 0.01486206 0.6992188
vt 0.03533936 0.8017578
vn 0.3591309 0.3449707 -0.8671875
vn 0 0.3449707 -0.9384766
vn 0 0.3449707 -0.9384766
vn 0.3591309 0.3449707 -0.8671875
vn 0.6635742 0.3449707 -0.6635742
vn 0.6635742 0.3449707 -0.6635742
vn 0.8671875 0.3449707 -0.3591309
vn 0.8671875 0.3449707 -0.3591309
vn 0.9384766 0.3449707 0
vn 0.9384766 0.3449707 0
vn 0.8671875 0.3449707 0.3591309
vn 0.8671875 0.3449707 0.3591309
vn 0.6635742 0.3449707 0.6635742
vn 0.6635742 0.3449707 0.6635742
vn 0.3591309 0.3449707 0.8671875
vn 0.3591309 0.3449707 0.8671875
vn 0 0.3449707 0.9384766
vn 0 0.3449707 0.9384766
vn 0 0.3449707 -0.9384766
vn 0 0.3449707 -0.9384766
vn -0.3591309 0.3449707 -0.8671875
vn -0.3591309 0.3449707 -0.8671875
vn -0.6635742 0.3449707 -0.6635742
vn -0.6635742 0.3449707 -0.6635742
vn -0.8671875 0.3449707 -0.3591309
vn -0.8671875 0.3449707 -0.3591309
vn -0.9384766 0.3449707 0
vn -0.9384766 0.3449707 0
vn -0.8671875 0.3449707 0.3591309
vn -0.8671875 0.3449707 0.3591309
vn -0.6635742 0.3449707 0.6635742
vn -0.6635742 0.3449707 0.6635742
vn -0.3591309 0.3449707 0.8671875
vn -0.3591309 0.3449707 0.8671875
vn 0 0.3449707 0.9384766
vn 0 0.3449707 0.9384766
vn 0 1 0
vn 0 1 0
vn 0 1 0
vn 0 1 0
vn 0 1 0
vn 0 1 0
vn 0 1 0
vn 0 1 0
vn 0 1 0
vn 0 1 0
vn 0 1 0
vn 0 1 0
vn 0 1 0
vn 0 1 0
vn 0 1 0
vn 0 1 0
vn 0 1 0
vn 0 1 0
vn 0 1 0
vn 0 1 0
vn 0 1 0
vn 0 1 0
vn 0 1 0
vn 0 1 0
vn 0 1 0
vn 0 1 0
vn 0 1 0
vn 0 1 0
vn 0 1 0
vn 0 1 0
vn 0 1 0
vn 0 1 0
vn 0 1 0
vn 0 1 0
vn 0 1 0
vn 0 1 0
vn 0 -1 0
vn 0 -1 0
vn 0 -1 0
vn 0 -1 0
vn 0 -1 0
vn 0 -1 0
vn 0 -1 0
vn 0 -1 0
vn 0 -1 0
vn 0 -1 0
vn 0 -1 0
vn 0 -1 0
vn 0 -1 0
vn 0 -1 0
vn 0 -1 0
vn 0 -1 0
vn 0 1 0
vn 0 1 0
vn 0 1 0
vn 0 1 0
vn 0 1 0
vn 0 1 0
vn 0 1 0
vn 0 1 0
vn 0 1 0
vn 0 1 0
vn 0 1 0
vn 0 1 0
vn 0 1 0
vn 0 1 0
vn 0 1 0
vn 0 1 0
vn 0 1 0
g d008v001_h_0
f 3/3/3 2/2/2 1/1/1
f 2/2/2 4/4/4 1/1/1
f 1/1/1 4/4/4 5/5/5
f 4/4/4 6/6/6 5/5/5
f 5/5/5 6/6/6 7/7/7
f 6/6/6 8/8/8 7/7/7
f 7/7/7 8/8/8 9/9/9
f 8/8/8 10/10/10 9/9/9
f 9/9/9 10/10/10 11/11/11
f 10/10/10 12/12/12 11/11/11
f 11/11/11 12/12/12 13/13/13
f 12/12/12 14/14/14 13/13/13
f 13/13/13 14/14/14 15/15/15
f 14/14/14 16/16/16 15/15/15
f 15/15/15 16/16/16 17/17/17
f 16/16/16 18/18/18 17/17/17
f 21/21/21 20/20/20 19/19/19
f 22/22/22 21/21/21 19/19/19
f 23/23/23 21/21/21 22/22/22
f 24/24/24 23/23/23 22/22/22
f 25/25/25 23/23/23 24/24/24
f 26/26/26 25/25/25 24/24/24
f 27/27/27 25/25/25 26/26/26
f 28/28/28 27/27/27 26/26/26
f 29/29/29 27/27/27 28/28/28
f 30/30/30 29/29/29 28/28/28
f 31/31/31 29/29/29 30/30/30
f 32/32/32 31/31/31 30/30/30
f 33/33/33 31/31/31 32/32/32
f 34/34/34 33/33/33 32/32/32
f 35/35/35 33/33/33 34/34/34
f 36/36/36 35/35/35 34/34/34
f 39/39/39 38/38/38 37/37/37
f 40/40/40 39/39/39 37/37/37
f 41/41/41 39/39/39 40/40/40
f 42/42/42 41/41/41 40/40/40
f 43/43/43 41/41/41 42/42/42
f 44/44/44 43/43/43 42/42/42
f 45/45/45 43/43/43 44/44/44
f 46/46/46 45/45/45 44/44/44
f 47/47/47 45/45/45 46/46/46
f 48/48/48 47/47/47 46/46/46
f 49/49/49 47/47/47 48/48/48
f 50/50/50 49/49/49 48/48/48
f 51/51/51 49/49/49 50/50/50
f 52/52/52 51/51/51 50/50/50
f 53/53/53 51/51/51 52/52/52
f 54/54/54 53/53/53 52/52/52
f 57/57/57 56/56/56 55/55/55
f 56/56/56 58/58/58 55/55/55
f 55/55/55 58/58/58 59/59/59
f 58/58/58 60/60/60 59/59/59
f 59/59/59 60/60/60 61/61/61
f 60/60/60 62/62/62 61/61/61
f 61/61/61 62/62/62 63/63/63
f 62/62/62 64/64/64 63/63/63
f 63/63/63 64/64/64 65/65/65
f 64/64/64 66/66/66 65/65/65
f 65/65/65 66/66/66 67/67/67
f 66/66/66 68/68/68 67/67/67
f 67/67/67 68/68/68 69/69/69
f 68/68/68 70/70/70 69/69/69
f 69/69/69 70/70/70 71/71/71
f 70/70/70 72/72/72 71/71/71
f 75/75/75 74/74/74 73/73/73
f 75/75/75 73/73/73 76/76/76
f 77/77/77 75/75/75 76/76/76
f 77/77/77 76/76/76 78/78/78
f 76/76/76 79/79/79 78/78/78
f 79/79/79 80/80/80 78/78/78
f 80/80/80 81/81/81 78/78/78
f 81/81/81 80/80/80 82/82/82
f 83/83/83 81/81/81 82/82/82
f 83/83/83 82/82/82 84/84/84
f 85/85/85 83/83/83 84/84/84
f 85/85/85 84/84/84 86/86/86
f 87/87/87 85/85/85 86/86/86
f 87/87/87 86/86/86 88/88/88
f 91/91/91 90/90/90 89/89/89
f 89/89/89 90/90/90 92/92/92
f 93/93/93 90/90/90 91/91/91
f 92/92/92 90/90/90 94/94/94
f 95/95/95 90/90/90 93/93/93
f 94/94/94 90/90/90 96/96/96
f 97/97/97 90/90/90 95/95/95
f 96/96/96 90/90/90 98/98/98
f 99/99/99 90/90/90 97/97/97
f 98/98/98 90/90/90 100/100/100
f 101/101/101 90/90/90 99/99/99
f 100/100/100 90/90/90 102/102/102
f 103/103/103 90/90/90 101/101/101
f 102/102/102 90/90/90 104/104/104
f 105/105/105 90/90/90 103/103/103
f 104/104/104 90/90/90 105/105/105
