g d008v001_l
v 0.8156728 0.1 -0.4719663
v 9.536743E-07 0.1 -0.9416924
v 9.536743E-07 0 -0.9928398
v 0.8573296 0 -0.4942813
v 0.817254 0.1 0.4712551
v 0.8594427 0 0.500174
v 0 0.1 0.9416924
v 0 0 0.9928398
v 9.536743E-07 0.1 -0.9416924
v -0.8600475 0 -0.5002276
v 9.536743E-07 0 -0.9928398
v -0.8178588 0.1 -0.4713087
v -0.8579344 0 0.4971728
v -0.8162774 0.1 0.4748596
v 0 0 0.9928398
v 0 0.1 0.9416924
v -0.8600475 0 -0.5002276
v -0.8579344 0 0.4971728
v 0 0 0.9928398
v 9.536743E-07 0 -0.9928398
v 0.8594427 0 0.500174
v 0.8573296 0 -0.4942813
v 0 0.1 0.7171555
v 0 0.1 0.9416924
v -0.8162774 0.1 0.4748596
v -0.6327595 0.1 0.366685
v -0.8178588 0.1 -0.4713087
v -0.6333435 0.1 -0.3663497
v 9.536743E-07 0.1 -0.9416924
v 0 0.1 -0.7171555
v 0.8156728 0.1 -0.4719663
v 0 0.1 -0.7171555
v 9.536743E-07 0.1 -0.9416924
v 0.6321355 0.1 -0.363493
v 0.817254 0.1 0.4712551
v 0.6327589 0.1 0.3636519
v 0 0.1 0.9416924
v 0 0.1 0.7171555
v 2.356246E-07 0.1 0
v 0.6327589 0.1 0.3636519
v 0 0.1 0.7171555
v -0.6327595 0.1 0.366685
v 0.6321355 0.1 -0.363493
v -0.6333435 0.1 -0.3663497
v 0 0.1 -0.7171555
vt 0.6269531 0.2519531
vt 1 0.2519531
vt 1 0.2030029
vt 0.6269531 0.2030029
vt 0.2509766 0.2519531
vt 0.2509766 0.2030029
vt 0 0.2519531
vt 0 0.2030029
vt 0 0.2519531
vt 0.2509766 0.2030029
vt 0 0.2030029
vt 0.2509766 0.2519531
vt 0.6269531 0.2030029
vt 0.6269531 0.2519531
vt 1 0.2030029
vt 1 0.2519531
vt 0.9189453 0.909668
vt 0.9492188 0.6918945
vt 0.7739258 0.5585938
vt 0.7734375 0.9697266
vt 0.628418 0.6186523
vt 0.5986328 0.8208008
vt 1 0.3847656
vt 1 0.2995605
vt 0.6269531 0.2995605
vt 0.6269531 0.3847656
vt 0.2509766 0.2995605
vt 0.2509766 0.3847656
vt 0 0.2995605
vt 0 0.3847656
vt 0.6269531 0.2995605
vt 1 0.3847656
vt 1 0.2995605
vt 0.6269531 0.3847656
vt 0.2509766 0.2995605
vt 0.2509766 0.3847656
vt 0 0.2995605
vt 0 0.3847656
vt 0.2839355 0.6992188
vt 0.5219727 0.5585938
vt 0.2839355 0.4367676
vt 0.046875 0.5581055
vt 0.5219727 0.8320313
vt 0.03659058 0.8383789
vt 0.2839355 0.9614258
vn 0.6635742 0.3449707 -0.6635742
vn 0 0.3449707 -0.9384766
vn 0 0.3449707 -0.9384766
vn 0.9384766 0.3449707 0
vn 0.6635742 0.3449707 0.6635742
vn 0.6635742 0.3449707 0.6635742
vn 0 0.3449707 0.9384766
vn 0 0.3449707 0.9384766
vn 0 0.3449707 -0.9384766
vn -0.6635742 0.3449707 -0.6635742
vn 0 0.3449707 -0.9384766
vn -0.6635742 0.3449707 -0.6635742
vn -0.6635742 0.3449707 0.6635742
vn -0.6635742 0.3449707 0.6635742
vn 0 0.3449707 0.9384766
vn 0 0.3449707 0.9384766
vn 0 -1 0
vn 0 -1 0
vn 0 -1 0
vn 0 -1 0
vn 0 -1 0
vn 0 -1 0
vn 0 1 0
vn 0 1 0
vn 0 1 0
vn 0 1 0
vn 0 1 0
vn 0 1 0
vn 0 1 0
vn 0 1 0
vn 0 1 0
vn 0 1 0
vn 0 1 0
vn 0 1 0
vn 0 1 0
vn 0 1 0
vn 0 1 0
vn 0 1 0
vn 0 1 0
vn 0 1 0
vn 0 1 0
vn 0 1 0
vn 0 1 0
vn 0 1 0
vn 0 1 0
g d008v001_l_0
f 3/3/3 2/2/2 1/1/1
f 4/4/4 3/3/3 1/1/1
f 4/4/4 1/1/1 5/5/5
f 6/6/6 4/4/4 5/5/5
f 6/6/6 5/5/5 7/7/7
f 8/8/8 6/6/6 7/7/7
f 11/11/11 10/10/10 9/9/9
f 10/10/10 12/12/12 9/9/9
f 10/10/10 13/13/13 12/12/12
f 13/13/13 14/14/14 12/12/12
f 13/13/13 15/15/15 14/14/14
f 15/15/15 16/16/16 14/14/14
f 19/19/19 18/18/18 17/17/17
f 20/20/20 19/19/19 17/17/17
f 21/21/21 19/19/19 20/20/20
f 22/22/22 21/21/21 20/20/20
f 25/25/25 24/24/24 23/23/23
f 26/26/26 25/25/25 23/23/23
f 25/25/25 26/26/26 27/27/27
f 26/26/26 28/28/28 27/27/27
f 27/27/27 28/28/28 29/29/29
f 28/28/28 30/30/30 29/29/29
f 33/33/33 32/32/32 31/31/31
f 32/32/32 34/34/34 31/31/31
f 31/31/31 34/34/34 35/35/35
f 34/34/34 36/36/36 35/35/35
f 35/35/35 36/36/36 37/37/37
f 36/36/36 38/38/38 37/37/37
f 41/41/41 40/40/40 39/39/39
f 42/42/42 41/41/41 39/39/39
f 40/40/40 43/43/43 39/39/39
f 44/44/44 42/42/42 39/39/39
f 43/43/43 45/45/45 39/39/39
f 45/45/45 44/44/44 39/39/39
