#
# OBJECT NAME
#
o model_2614
mtllib 2614.mtl

#
# VERTEX BUFFER 000
#
v -0.731496 0.00258616 -0.360331
v -0.731496 0.00258616 0.480128
v -0.754085 0.592883 0.519643
v -0.754085 0.592883 -0.41086
v -0.61557 0.650489 0.523157
v -0.61557 0.650489 -0.41086
v -0.490953 0.00356427 0.482985
v -0.490953 0.00356427 -0.357474
v -0.482874 0.592883 -0.41086
v -0.482874 0.592883 0.519643
v -0.482874 0.592883 0.519643
v -0.61557 0.650489 0.523157
v -0.490953 0.00356427 0.482985
v -0.731496 0.00258616 0.480128
v -0.754085 0.592883 0.519643
v -0.490953 0.00356427 -0.357474
v -0.490953 0.00356427 0.482985
v -0.490953 0.00356427 -0.357474
v -0.731496 0.00258616 -0.360331
v -0.482874 0.592883 -0.41086
v -0.61557 0.650489 -0.41086
v -0.754085 0.592883 -0.41086
v -0.0130119 0.470905 0.168359
v 0.0314137 0.470905 0.149958
v 0 0.495589 0.136946
v 0.013012 0.470905 0.105532
v -0.0314136 0.470905 0.123934
v 0.0130064 0.74007 -0.237147
v -0.0314003 0.721896 -0.23431
v 0 0.711564 -0.204724
v -0.0130063 0.67802 -0.22746
v 0.0314004 0.696194 -0.230297
v -0.5 0 0.466027
v -0.5 0 -0.38348
v 0.5 0 -0.38348
v 0.5 0 0.466027
v 0.5 0.253286 -0.400661
v -0.5 0.253286 -0.400661
v -0.5 0.253286 0.476335
v 0.5 0.253286 0.476335
v -0.5 0.253286 0.476335
v -0.5 0.253286 -0.400661
v -0.5 0 -0.38348
v -0.5 0 0.466027
v 0.5 0.253286 0.476335
v 0.5 0 0.466027
v 0.5 0 -0.38348
v 0.5 0.253286 -0.400661
v 0.5 0.253286 0.476335
v -0.5 0.253286 0.476335
v -0.5 0 0.466027
v 0.5 0 0.466027
v 0.5 0.253286 -0.400661
v 0.5 0 -0.38348
v -0.5 0 -0.38348
v -0.5 0.253286 -0.400661
v 0.240984 0.979575 -0.48385
v 0.464146 0.935077 -0.480524
v 0.00291882 0.710997 -0.451994
v 0.242221 1.00371 -0.274737
v 0.463608 0.960261 -0.263541
v 0.464146 0.935077 -0.480524
v 0.240984 0.979575 -0.48385
v 0.488812 0.705913 -0.202261
v 0.260124 0.710193 -0.191716
v 0.499979 0.686273 -0.451914
v 0.464146 0.935077 -0.480524
v 0.463608 0.960261 -0.263541
v 0.488812 0.705913 -0.202261
v 0.499979 0.686273 -0.451914
v 0 0.98251 -0.272853
v 0 0.957452 -0.485209
v 0 0.957452 -0.485209
v 0 0.707376 -0.228862
v 0.478716 0.253946 -0.393114
v 0.25846 0.343434 -0.123365
v 0 0.253946 -0.159294
v 0.478716 0.253946 -0.189458
v 0 0.253946 -0.159294
v 0 0.253946 -0.392432
v 0.478716 0.253946 -0.393114
v 0.478716 0.253946 -0.189458
v 0.478716 0.253946 -0.189458
v 0.478716 0.253946 -0.189458
v 0.478716 0.253946 -0.393114
v 0 0.327922 -0.14748
v 0 0.253946 -0.392432
v -0.240984 0.979575 -0.48385
v 0.00291882 0.710997 -0.451994
v -0.464146 0.935077 -0.480524
v -0.242221 1.00371 -0.274737
v -0.240984 0.979575 -0.48385
v -0.464146 0.935077 -0.480524
v -0.463608 0.960261 -0.263541
v -0.494983 0.686273 -0.451914
v -0.494983 0.686273 -0.451914
v -0.488812 0.705913 -0.202261
v -0.463608 0.960261 -0.263541
v -0.464146 0.935077 -0.480524
v -0.260124 0.710193 -0.191716
v 0 0.98251 -0.272853
v 0 0.957452 -0.485209
v 0 0.957452 -0.485209
v 0 0.707376 -0.228862
v -0.5 0.326439 -0.153262
v -0.25846 0.343434 -0.123365
v -0.478716 0.253946 -0.393114
v -0.478716 0.253946 -0.393114
v -0.478716 0.253946 -0.189458
v 0 0.253946 -0.159294
v -0.478716 0.253946 -0.189458
v -0.478716 0.253946 -0.393114
v 0 0.253946 -0.392432
v 0 0.253946 -0.392432
v -0.478716 0.253946 -0.189458
v 0 0.253946 -0.159294
v 0 0.327922 -0.14748
v -0.481425 0.494999 -0.0577654
v -0.45804 0.472671 -0.234981
v -0.458571 0.25079 -0.215518
v -0.495186 0.242586 0.145663
v -0.45804 0.472671 -0.234981
v -0.481425 0.494999 -0.0577654
v 0.492606 0.494999 -0.0577654
v 0.46922 0.472671 -0.234981
v -0.458571 0.25079 -0.215518
v -0.45804 0.472671 -0.234981
v 0.46922 0.472671 -0.234981
v 0.468688 0.25079 -0.215518
v -0.464568 0.472581 0.136832
v -0.464568 0.472581 0.136832
v 0.475749 0.472581 0.136832
v -0.481426 0.495229 0.332445
v -0.495186 0.242586 0.145663
v -0.454923 0.247259 0.475833
v -0.457659 0.457887 0.508288
v -0.464568 0.472581 0.136832
v -0.464568 0.472581 0.136832
v -0.481426 0.495229 0.332445
v 0.492606 0.495229 0.332445
v 0.475749 0.472581 0.136832
v 0.492606 0.494999 -0.0577654
v 0.48866 0.250212 0.147499
v 0.468688 0.25079 -0.215518
v 0.46922 0.472671 -0.234981
v 0.475749 0.472581 0.136832
v 0.492606 0.495229 0.332445
v 0.4696 0.457887 0.508288
v 0.472337 0.247259 0.475833
v 0.48866 0.250212 0.147499
v -0.457659 0.457887 0.508288
v 0.4696 0.457887 0.508288
v 0.475749 0.472581 0.136832
v -0.454923 0.247259 0.475833
v 0.472337 0.247259 0.475833
v 0.4696 0.457887 0.508288
v -0.457659 0.457887 0.508288

vn -0.927246 -0.373535 0
vn -0.914063 -0.384766 0.125
vn -0.977051 0.19104 0.0897217
vn -0.97998 0.197144 0
vn -0.000743866 0.962402 0.270996
vn 0 1 0
vn 0.92334 -0.362061 0.12561
vn 0.933594 -0.356934 0
vn 0.977539 0.209595 0
vn 0.975098 0.203003 0.0864258
vn 0.975098 0.203003 0.0864258
vn -0.000743866 0.962402 0.270996
vn 0.92334 -0.362061 0.12561
vn -0.914063 -0.384766 0.125
vn -0.977051 0.19104 0.0897217
vn 0.933594 -0.356934 0
vn 0.92334 -0.362061 0.12561
vn 0.0121918 -0.090332 -0.995605
vn 0.00981903 -0.0879517 -0.995605
vn -0.0195313 -0.0770874 -0.996582
vn -0.0047226 -0.0769043 -0.996582
vn 0.0348816 -0.0838623 -0.995605
vn -0.224731 0.809082 0.54248
vn 0.54248 0.809082 0.224731
vn 0 1 0
vn 0.224731 0.809082 -0.54248
vn -0.54248 0.809082 -0.224731
vn 0.227051 0.684082 0.692383
vn -0.567383 0.374023 0.73291
vn 5.42402e-006 0.140015 0.989746
vn -0.256348 -0.472168 0.843262
vn 0.59668 -0.103821 0.79541
vn 0 -1 0
vn 0 -1 0
vn 0 -1 0
vn 0 -1 0
vn 0 1 0
vn 0 1 0
vn 0 1 0
vn 0 1 0
vn -1 1.78814e-007 0
vn -1 1.78814e-007 0
vn -1 1.78814e-007 0
vn -1 1.78814e-007 0
vn 1 0 0
vn 1 0 0
vn 1 0 0
vn 1 0 0
vn 0 -0.0406494 0.999023
vn 0 -0.0406494 0.999023
vn 0 -0.0406494 0.999023
vn 0 -0.0406494 0.999023
vn 0 -0.067627 -0.997559
vn 0 -0.067627 -0.997559
vn 0 -0.067627 -0.997559
vn 0 -0.067627 -0.997559
vn 0.0411682 0.782227 -0.621094
vn 0.637695 0.436279 -0.634277
vn -0.00222015 -0.128296 -0.991699
vn 0.00527191 0.758789 0.650879
vn 0.601074 0.586914 0.541504
vn 0.637695 0.436279 -0.634277
vn 0.0411682 0.782227 -0.621094
vn 0.740234 0.119202 0.661133
vn 0.00481033 0.184692 0.982422
vn 0.701172 -0.0741577 -0.708984
vn 0.637695 0.436279 -0.634277
vn 0.601074 0.586914 0.541504
vn 0.740234 0.119202 0.661133
vn 0.701172 -0.0741577 -0.708984
vn -0.109314 0.692871 0.712402
vn -0.0667114 0.777832 -0.624512
vn -0.0667114 0.777832 -0.624512
vn -0.103271 0.203857 0.973145
vn 0.551758 -0.624023 -0.553223
vn 0.0427856 0.0487366 0.997559
vn -0.00277519 -0.992676 0.120422
vn 0.640625 -0.615723 0.45752
vn -0.00277519 -0.992676 0.120422
vn -0.000962257 -0.736816 -0.675293
vn 0.551758 -0.624023 -0.553223
vn 0.640625 -0.615723 0.45752
vn 0.640625 -0.615723 0.45752
vn 0.640625 -0.615723 0.45752
vn 0.551758 -0.624023 -0.553223
vn -0.118713 0.162842 0.979004
vn -0.000962257 -0.736816 -0.675293
vn -0.0410767 0.78125 -0.62207
vn 0.00222778 -0.128418 -0.991699
vn -0.63916 0.431396 -0.63623
vn -0.00527191 0.758789 0.650879
vn -0.0410767 0.78125 -0.62207
vn -0.63916 0.431396 -0.63623
vn -0.60498 0.584961 0.539551
vn -0.6875 -0.0663452 -0.722656
vn -0.6875 -0.0663452 -0.722656
vn -0.750977 0.153076 0.64209
vn -0.60498 0.584961 0.539551
vn -0.63916 0.431396 -0.63623
vn 0.0242157 0.202026 0.979004
vn 0.109314 0.692871 0.712402
vn 0.0663452 0.774414 -0.628906
vn 0.0663452 0.774414 -0.628906
vn 0.103271 0.203857 0.973145
vn -0.759766 -0.0288086 0.648926
vn 0.00253868 0.0198822 0.999512
vn -0.486572 -0.635254 -0.599121
vn -0.486572 -0.635254 -0.599121
vn -0.0874023 -0.962891 0.255127
vn 0.000957966 -0.990234 0.139282
vn -0.0874023 -0.962891 0.255127
vn -0.486572 -0.635254 -0.599121
vn 0.000966072 -0.734375 -0.678223
vn 0.000966072 -0.734375 -0.678223
vn -0.0874023 -0.962891 0.255127
vn 0.000957966 -0.990234 0.139282
vn 0.118713 0.162842 0.979004
vn -0.285889 0.95752 -0.0224152
vn -0.224487 0.552734 -0.802246
vn -0.307373 -0.086853 -0.947266
vn -0.997559 0.0103378 -0.0673218
vn -0.224487 0.552734 -0.802246
vn -0.285889 0.95752 -0.0224152
vn 0.286133 0.95752 -0.0147858
vn 0.225708 0.553223 -0.80127
vn -0.307373 -0.086853 -0.947266
vn -0.224487 0.552734 -0.802246
vn 0.225708 0.553223 -0.80127
vn 0.304199 -0.0953979 -0.947754
vn -0.119629 0.984863 0.12384
vn -0.119629 0.984863 0.12384
vn 0.117798 0.984863 0.123657
vn -0.26001 0.963379 0.0596619
vn -0.99707 0.000483751 0.0753174
vn -0.305664 -0.149658 0.939941
vn -0.216309 0.515137 0.829102
vn -0.115601 0.985352 -0.124023
vn -0.115601 0.985352 -0.124023
vn -0.26001 0.963379 0.0596619
vn 0.256592 0.964844 0.0492859
vn 0.112793 0.98584 -0.12384
vn 0.286133 0.95752 -0.0147858
vn 0.998535 -0.0252686 -0.0437927
vn 0.304199 -0.0953979 -0.947754
vn 0.225708 0.553223 -0.80127
vn 0.117798 0.984863 0.123657
vn 0.256592 0.964844 0.0492859
vn 0.213745 0.512695 0.831055
vn 0.307617 -0.152954 0.938965
vn 0.999023 -0.0186005 0.0389099
vn -0.216309 0.515137 0.829102
vn 0.213745 0.512695 0.831055
vn 0.112793 0.98584 -0.12384
vn -0.305664 -0.149658 0.939941
vn 0.307617 -0.152954 0.938965
vn 0.213745 0.512695 0.831055
vn -0.216309 0.515137 0.829102

vt 0.337392 0.907204
vt 0.0141353 0.907205
vt 0.00651729 0.70069
vt 0.344435 0.70069
vt 0.00485589 0.646632
vt 0.346707 0.646632
vt 0.0207433 0.388262
vt 0.328579 0.388263
vt 0.344435 0.5925
vt 0.00651729 0.5925
vt 0.193452 0.3537
vt 0.111328 0.380859
vt 0.206162 0.016893
vt 0.0251376 0.0168474
vt 0.0292039 0.3537
vt 0.338425 0.995828
vt 0.0108301 0.995829
vt 0.0166908 0.017105
vt 0.19763 0.0167146
vt 0.0292039 0.3537
vt 0.111328 0.380859
vt 0.193452 0.3537
vt 0.441051 0.443072
vt 0.395584 0.424239
vt 0.425534 0.411834
vt 0.414417 0.378772
vt 0.459885 0.397605
vt 0.441051 0.443072
vt 0.395584 0.424239
vt 0.429935 0.41001
vt 0.414417 0.378772
vt 0.459885 0.397605
vt 0.691968 0.360543
vt 0.691968 0.013975
vt 0.976115 0.013975
vt 0.976115 0.360543
vt 0.976115 0.360543
vt 0.691967 0.360543
vt 0.691967 0.013975
vt 0.976115 0.013975
vt 0.586779 0.360543
vt 0.586779 0.013975
vt 0.683798 0.013975
vt 0.683798 0.360543
vt 0.586779 0.013975
vt 0.683798 0.013975
vt 0.683798 0.360543
vt 0.586779 0.360543
vt 0.586779 0.360543
vt 0.586779 0.013975
vt 0.683798 0.013975
vt 0.683798 0.360543
vt 0.683798 0.360543
vt 0.586779 0.360543
vt 0.586779 0.013975
vt 0.683798 0.013975
vt 0.310936 0.355469
vt 0.234073 0.355469
vt 0.394354 0.190108
vt 0.852152 0.517841
vt 0.953316 0.517841
vt 0.953316 0.390625
vt 0.852152 0.390625
vt 0.976746 0.751953
vt 0.852152 0.751953
vt 0.369141 0.752594
vt 0.369141 0.542969
vt 0.488058 0.542969
vt 0.48829 0.751953
vt 0.226123 0.273928
vt 0.730843 0.517841
vt 0.730843 0.390625
vt 0.390625 0.355469
vt 0.730843 0.751953
vt 0.22968 0.0361328
vt 0.852152 0.94544
vt 0.730843 0.985471
vt 0.968937 0.966029
vt 0.730843 0.517841
vt 0.730843 0.390625
vt 0.953316 0.390625
vt 0.953316 0.517841
vt 0.976746 0.946587
vt 0.48829 0.964505
vt 0.369141 0.956543
vt 0.730843 0.949281
vt 0.390625 0.0273438
vt 0.47022 0.355469
vt 0.394354 0.190108
vt 0.547083 0.355469
vt 0.628751 0.517841
vt 0.628751 0.390625
vt 0.511719 0.390625
vt 0.502865 0.518827
vt 0.555034 0.273928
vt 0.369141 0.752594
vt 0.48829 0.751953
vt 0.488058 0.542969
vt 0.369141 0.542969
vt 0.617084 0.751953
vt 0.730843 0.517841
vt 0.730843 0.390625
vt 0.390625 0.355469
vt 0.730843 0.751953
vt 0.48829 0.946587
vt 0.619751 0.941562
vt 0.369141 0.956543
vt 0.549176 0.0361328
vt 0.48829 0.982422
vt 0.730843 0.517841
vt 0.502865 0.518827
vt 0.511719 0.390625
vt 0.730843 0.390625
vt 0.390625 0.0273438
vt 0.503906 0.985471
vt 0.730843 0.985471
vt 0.730843 0.949281
vt 0.488281 0.875977
vt 0.488281 0.982422
vt 0.369438 0.97489
vt 0.36046 0.749159
vt 0.526367 0.982422
vt 0.507324 0.875977
vt 0.958496 0.875977
vt 0.939453 0.982422
vt 0.938709 0.384656
vt 0.939453 0.517578
vt 0.525991 0.517578
vt 0.525689 0.384656
vt 0.488281 0.753906
vt 0.507324 0.753906
vt 0.958496 0.753906
vt 0.488281 0.624512
vt 0.36046 0.749159
vt 0.37202 0.535253
vt 0.478471 0.513242
vt 0.488281 0.753906
vt 0.507324 0.753906
vt 0.507324 0.624512
vt 0.958496 0.624512
vt 0.958496 0.753906
vt 0.488281 0.875977
vt 0.361282 0.749014
vt 0.368636 0.975515
vt 0.488281 0.982422
vt 0.488281 0.753906
vt 0.488281 0.624512
vt 0.478377 0.513185
vt 0.369341 0.53494
vt 0.361282 0.749014
vt 0.522418 0.515538
vt 0.943758 0.515538
vt 0.488281 0.753906
vt 0.52723 0.383171
vt 0.940063 0.383169
vt 0.939495 0.50895
vt 0.526586 0.508951


#
# MESH 000
#
g surface_000
usemtl surface_000
f 21/21/21 19/19/19 22/22/22
f 20/20/20 19/19/19 21/21/21
f 18/18/18 19/19/19 20/20/20
f 2/2/2 16/16/16 17/17/17
f 2/2/2 1/1/1 16/16/16
f 1/1/1 2/2/2 3/3/3
f 1/1/1 3/3/3 4/4/4
f 3/3/3 6/6/6 4/4/4
f 3/3/3 5/5/5 6/6/6
f 10/10/10 6/6/6 5/5/5
f 10/10/10 9/9/9 6/6/6
f 7/7/7 9/9/9 10/10/10
f 7/7/7 8/8/8 9/9/9
f 12/12/12 15/15/15 14/14/14
f 13/13/13 12/12/12 14/14/14
f 11/11/11 12/12/12 13/13/13
f 27/27/27 23/23/23 25/25/25
f 23/23/23 24/24/24 25/25/25
f 24/24/24 26/26/26 25/25/25
f 26/26/26 27/27/27 25/25/25
f 32/32/32 28/28/28 30/30/30
f 28/28/28 29/29/29 30/30/30
f 29/29/29 31/31/31 30/30/30
f 31/31/31 32/32/32 30/30/30
f 53/53/53 55/55/55 56/56/56
f 53/53/53 54/54/54 55/55/55
f 49/49/49 51/51/51 52/52/52
f 49/49/49 50/50/50 51/51/51
f 45/45/45 47/47/47 48/48/48
f 45/45/45 46/46/46 47/47/47
f 41/41/41 43/43/43 44/44/44
f 41/41/41 42/42/42 43/43/43
f 37/37/37 39/39/39 40/40/40
f 37/37/37 38/38/38 39/39/39
f 33/33/33 35/35/35 36/36/36
f 33/33/33 34/34/34 35/35/35
f 89/89/89 114/114/114 108/108/108
f 108/108/108 95/95/95 89/89/89
f 89/89/89 95/95/95 90/90/90
f 88/88/88 89/89/89 90/90/90
f 103/103/103 89/89/89 88/88/88
f 110/110/110 112/112/112 113/113/113
f 110/110/110 111/111/111 112/112/112
f 109/109/109 105/105/105 107/107/107
f 96/96/96 107/107/107 105/105/105
f 96/96/96 105/105/105 97/97/97
f 96/96/96 97/97/97 98/98/98
f 96/96/96 98/98/98 99/99/99
f 97/97/97 105/105/105 106/106/106
f 97/97/97 106/106/106 100/100/100
f 94/94/94 97/97/97 100/100/100
f 94/94/94 100/100/100 91/91/91
f 91/91/91 93/93/93 94/94/94
f 91/91/91 92/92/92 93/93/93
f 106/106/106 105/105/105 115/115/115
f 106/106/106 115/115/115 116/116/116
f 106/106/106 116/116/116 117/117/117
f 104/104/104 106/106/106 117/117/117
f 104/104/104 100/100/100 106/106/106
f 100/100/100 104/104/104 101/101/101
f 100/100/100 101/101/101 91/91/91
f 101/101/101 92/92/92 91/91/91
f 101/101/101 102/102/102 92/92/92
f 59/59/59 75/75/75 87/87/87
f 75/75/75 59/59/59 70/70/70
f 59/59/59 58/58/58 70/70/70
f 57/57/57 58/58/58 59/59/59
f 73/73/73 57/57/57 59/59/59
f 66/66/66 84/84/84 85/85/85
f 66/66/66 69/69/69 84/84/84
f 66/66/66 68/68/68 69/69/69
f 66/66/66 67/67/67 68/68/68
f 79/79/79 81/81/81 82/82/82
f 79/79/79 80/80/80 81/81/81
f 76/76/76 77/77/77 78/78/78
f 76/76/76 86/86/86 77/77/77
f 74/74/74 86/86/86 76/76/76
f 74/74/74 76/76/76 65/65/65
f 74/74/74 65/65/65 60/60/60
f 74/74/74 60/60/60 71/71/71
f 71/71/71 60/60/60 63/63/63
f 71/71/71 63/63/63 72/72/72
f 83/83/83 65/65/65 76/76/76
f 83/83/83 64/64/64 65/65/65
f 64/64/64 60/60/60 65/65/65
f 64/64/64 61/61/61 60/60/60
f 60/60/60 61/61/61 62/62/62
f 60/60/60 62/62/62 63/63/63
f 154/154/154 156/156/156 157/157/157
f 154/154/154 155/155/155 156/156/156
f 150/150/150 153/153/153 147/147/147
f 147/147/147 149/149/149 150/150/150
f 147/147/147 148/148/148 149/149/149
f 151/151/151 152/152/152 140/140/140
f 151/151/151 140/140/140 139/139/139
f 138/138/138 139/139/139 140/140/140
f 138/138/138 140/140/140 141/141/141
f 143/143/143 142/142/142 146/146/146
f 142/142/142 143/143/143 144/144/144
f 142/142/142 144/144/144 145/145/145
f 134/134/134 133/133/133 137/137/137
f 133/133/133 134/134/134 135/135/135
f 133/133/133 135/135/135 136/136/136
f 123/123/123 131/131/131 132/132/132
f 123/123/123 132/132/132 124/124/124
f 122/122/122 123/123/123 124/124/124
f 122/122/122 124/124/124 125/125/125
f 121/121/121 130/130/130 118/118/118
f 118/118/118 120/120/120 121/121/121
f 118/118/118 119/119/119 120/120/120
f 126/126/126 128/128/128 129/129/129
f 126/126/126 127/127/127 128/128/128

