g p008v001_h
v 0.7461672 0.2306748 -0.2142763
v 0.02620792 0.3202391 0.1514306
v 0.03222084 0.1638888 -0.3198142
v -0.2147732 0.4374571 -0.3086267
v 0.5517063 0.1369061 -0.6223087
v 0.4242954 0.07574625 -0.1432543
v -0.2631941 0.2732996 0.3755469
v -0.6232138 0.2986571 -0.4290161
v -0.1402512 0.1220683 -0.3408365
v -0.1621819 0.3741442 -0.6210246
v 0.1918144 0.1471614 0.1910257
v -0.2851143 0.08271528 0.02458811
v -0.1217909 0.03626739 -0.5893717
v 0.393647 0.01462565 -0.5988788
v 0.6230822 0.1947823 0.05448246
v 0.2872393 0.171411 0.3165892
v -0.298958 -0.01333966 -0.1885676
v -0.3958178 0.03626739 0.3799248
v -0.6624365 0.01443428 -0.0615958
v -0.2106609 0.1947823 -0.5870805
v 0.1835541 0.1705175 -0.4236091
v 0.03796946 -0.01577558 0.3429781
v 0.5806313 0.03626738 0.1325908
v -0.4036032 0.1701804 0.03214158
v 0.319028 -0.01256021 -0.2201673
v -0.3493986 0.1947822 0.4557424
v 0.3357806 0.01234676 0.5905721
v -0.02020597 0.4073452 -0.1702726
v 0.08435994 0.1281641 0.2432609
v -0.2607537 0.2115868 0.6036795
v 0.5706179 0.2306918 0.4403734
vt 1 0.125
vt 0.6972656 1
vt 1 1
vt 1 0.125
vt 0.6972656 1
vt 1 1
vt 1 0.125
vt 0.6972656 1
vt 1 1
vt 1 0.125
vt 0.6972656 1
vt 1 1
vt 0.5048828 0.5356445
vt 0.3054199 0.3076172
vt 0.001950264 0.5356445
vt 0.05172729 0.9975586
vt 0.447998 0.9975586
vt 0.5048828 0.5356445
vt 0.3054199 0.3076172
vt 0.001950264 0.5356445
vt 0.05172729 0.9975586
vt 0.447998 0.9975586
vt 0.5048828 0.5356445
vt 0.05172729 0.9975586
vt 0.447998 0.9975586
vt 0.001950264 0.5356445
vt 0.3054199 0.3076172
vt 0.3828125 0.02307129
vt 0.6831055 0.3291016
vt 0.9453125 0.02534485
vt 0.6831055 0.9931641
vn 0.4692383 0.8813477 -0.05276489
vn -0.1448975 0.9892578 0.006881714
vn 0.01464844 0.9394531 -0.342041
vn -0.1456299 0.9375 -0.3166504
vn 0.4104004 0.840332 -0.3540039
vn 0.253418 0.9619141 -0.1005249
vn -0.3376465 0.9208984 0.1940918
vn -0.2487793 0.8608398 -0.4443359
vn 0.01160431 0.9765625 -0.2159424
vn 0.07458496 0.9316406 -0.3562012
vn -0.03274536 0.9614258 0.2727051
vn -0.2978516 0.9536133 -0.03952026
vn -0.1524658 0.980957 -0.121521
vn 0.03521729 0.9599609 -0.2770996
vn -0.07019043 0.984375 -0.1611328
vn -0.206665 0.9770508 -0.05239868
vn -0.206665 0.9770508 -0.05239868
vn -0.02897644 0.980957 0.1928711
vn -0.2575684 0.9599609 0.1080933
vn -0.1044312 0.984375 0.1413574
vn 0.05862427 0.9770508 0.2054443
vn 0.05862427 0.9770508 0.2054443
vn 0.1815186 0.980957 -0.0713501
vn 0.1485596 0.9770508 -0.152832
vn 0.1485596 0.9770508 -0.152832
vn 0.1746826 0.984375 0.01977539
vn 0.2224121 0.9599609 0.1690674
vn 0.01376343 0.9638672 -0.2663574
vn 0.1011963 0.9931641 0.06091309
vn -0.2045898 0.9311523 0.3012695
vn 0.3845215 0.9052734 0.1799316
g p008v001_h_0
f 3/3/3 2/2/2 1/1/1
f 6/6/6 5/5/5 4/4/4
f 9/9/9 8/8/8 7/7/7
f 12/12/12 11/11/11 10/10/10
f 15/15/15 14/14/14 13/13/13
f 16/16/16 15/15/15 13/13/13
f 17/17/17 16/16/16 13/13/13
f 20/20/20 19/19/19 18/18/18
f 21/21/21 20/20/20 18/18/18
f 22/22/22 21/21/21 18/18/18
f 25/25/25 24/24/24 23/23/23
f 24/24/24 26/26/26 23/23/23
f 26/26/26 27/27/27 23/23/23
f 30/30/30 29/29/29 28/28/28
f 28/28/28 29/29/29 31/31/31
f 31/31/31 29/29/29 30/30/30
