#
# OBJECT NAME
#
o model_3002
mtllib 3002.mtl

#
# VERTEX BUFFER 000
#
v -0.091068 0.521804 -0.947308
v 0 0.373237 -0.947308
v 0 0.642238 -0.572024
v -0.091139 0.711618 -0.691471
v 0 0.660063 -0.947308
v 0 0.77193 -0.796252
v 0.091068 0.521804 -0.947308
v 0.091139 0.711618 -0.691471
v 0 0.642238 -0.572024
v 0 0.373237 -0.947308
v 0 0.660063 -0.947308
v 0 0.77193 -0.796252
v 0 0.660063 -0.947308
v 0.091068 0.521804 -0.947308
v -0.091068 0.521804 -0.947308
v 0 0.373237 -0.947308
v 0.091139 0.711618 -0.691471
v 0 0.77193 -0.796252
v -0.091139 0.711618 -0.691471
v 0 0.642238 -0.572024
v 0.091139 0.711618 -0.691471
v -0.091139 0.711618 -0.691471
v 0 1.95119 1.02793
v 0 1.97549 0.886944
v -0.084423 1.89382 0.94495
v 0 1.87038 0.790661
v -0.0584735 1.8143 0.830433
v 0 1.81218 1.00299
v 0 1.75821 0.870255
v 0 1.87038 0.790661
v -0.000482 0.719687 -0.797257
v -0.059046 0.663615 -0.757489
v -0.0584735 1.8143 0.830433
v -0.000482 0.607522 -0.717663
v 0 1.75821 0.870255
v 0 1.97549 0.886944
v 0 1.95119 1.02793
v 0.084423 1.89382 0.94495
v 0 1.87038 0.790661
v 0.0584735 1.8143 0.830433
v 0 1.81218 1.00299
v 0 1.75821 0.870255
v 0 1.87038 0.790661
v 0.0584735 1.8143 0.830433
v 0.0580815 0.663615 -0.757489
v -0.000482 0.719687 -0.797257
v 0 1.75821 0.870255
v -0.000482 0.607522 -0.717663

vn -0.932617 -0.292725 0.210693
vn 0 -0.808594 0.587891
vn 0 -0.808594 0.587891
vn -0.955566 -0.239136 0.171265
vn 0 0.802734 -0.595703
vn 0 0.802734 -0.595703
vn 0.932617 -0.292725 0.210693
vn 0.955566 -0.239136 0.171265
vn 0 -0.808594 0.587891
vn 0 -0.808594 0.587891
vn 0 0.802734 -0.595703
vn 0 0.802734 -0.595703
vn 0 0 -1
vn 0 0 -1
vn 0 0 -1
vn 0 0 -1
vn 0 0.866211 0.498779
vn 0 0.866211 0.498779
vn 0 0.866211 0.498779
vn 0 0.864258 0.501953
vn 0 0.864258 0.501953
vn 0 0.864258 0.501953
vn 1.19209e-007 0.575684 0.817383
vn 3.57628e-007 0.854004 -0.52002
vn -0.99707 0.0390625 0.0585938
vn 0.000109076 0.798828 -0.600586
vn -0.999512 -0.00592422 -0.0153503
vn 0 -0.783203 0.621094
vn 0.000108302 -0.821777 0.569336
vn 0.000109076 0.798828 -0.600586
vn -0.000118613 0.80957 -0.586426
vn -0.999512 -0.00315857 0.0026207
vn -0.999512 -0.00592422 -0.0153503
vn -0.000119627 -0.80957 0.586426
vn 0.000108302 -0.821777 0.569336
vn 3.57628e-007 0.854004 -0.52002
vn 1.19209e-007 0.575684 0.817383
vn 0.99707 0.0390625 0.0585938
vn 0.000109076 0.798828 -0.600586
vn 0.999512 -0.00618362 -0.0157166
vn 0 -0.783203 0.621094
vn 0.000108302 -0.821777 0.569336
vn 0.000109076 0.798828 -0.600586
vn 0.999512 -0.00618362 -0.0157166
vn 0.999512 -0.00344276 0.00222015
vn -0.000118613 0.80957 -0.586426
vn 0.000108302 -0.821777 0.569336
vn -0.000119627 -0.80957 0.586426

vt 0.240079 0.0571525
vt 0.222033 0.0235773
vt 0.359047 0.0235773
vt 0.339333 0.0571525
vt 0.261278 0.0942408
vt 0.318424 0.0942408
vt 0.240079 0.0571525
vt 0.339333 0.0571525
vt 0.359047 0.0235773
vt 0.222033 0.0235773
vt 0.261278 0.0942408
vt 0.318424 0.0942408
vt 0.286921 0.544783
vt 0.238423 0.471154
vt 0.335418 0.471154
vt 0.286921 0.392036
vt 0.288108 0.518047
vt 0.252701 0.469511
vt 0.288108 0.420976
vt 0.320892 0.469511
vt 0.288108 0.518047
vt 0.288108 0.420976
vt 0.294579 0.349784
vt 0.205161 0.24627
vt 0.294416 0.24627
vt 0.205161 0.141736
vt 0.294416 0.141736
vt 0.382976 0.24627
vt 0.382976 0.141736
vt 0.011426 0.971111
vt 0.011426 0.023569
vt 0.0953335 0.023569
vt 0.0953335 0.971111
vt 0.178697 0.023569
vt 0.178697 0.971111
vt 0.205161 0.24627
vt 0.294579 0.349784
vt 0.294416 0.24627
vt 0.205161 0.141736
vt 0.294416 0.141736
vt 0.382976 0.24627
vt 0.382976 0.141736
vt 0.011426 0.971111
vt 0.0953335 0.971111
vt 0.0953335 0.023569
vt 0.011426 0.023569
vt 0.178697 0.971111
vt 0.178697 0.023569


#
# VERTEX BUFFER 001
#
v 0.00029 1.57161 0.657621
v 0.0722735 1.66848 0.627397
v 0.07227 1.74841 0.737348
v 0.00029 1.64922 0.760899
v 0.00029 1.76255 0.619997
v 0.00029 1.83615 0.726613
v -0.071693 1.66848 0.627397
v 0.00029 1.57161 0.657621
v 0.00029 1.64922 0.760899
v -0.0716895 1.74841 0.737348
v 0.00029 1.76255 0.619997
v 0.00029 1.83615 0.726613
v 0.0036611 0.019734 0.400525
v 0.0036611 0.203453 0.21963
v -5.34998e-005 1.11585 0.001348
v -5.34998e-005 1.66476 0.772818
v -5.34998e-005 1.66476 0.772818
v 0.0036611 0.203453 0.583116
v 0.0036611 0.019734 0.400525
v -5.34998e-005 1.66476 0.772818
v -5.34998e-005 0.0275415 0.777686
v 0.0036611 0.203453 0.583116
v -5.34998e-005 1.66476 0.772818
v -0.0037681 0.203453 0.583116
v -5.34998e-005 0.0275415 0.777686
v -0.0037681 0.019734 0.400525
v -5.34998e-005 1.66476 0.772818
v -5.34998e-005 1.11585 0.001348
v -0.0037681 0.203453 0.21963
v -5.34998e-005 1.66476 0.772818
v -0.0037681 0.019734 0.400525
v -0.0037681 0.203453 0.583116
v -5.34998e-005 0.0275415 0.022465
v -5.34998e-005 1.11585 0.001348
v 0.0036611 0.203453 0.21963
v -5.34998e-005 0.0275415 0.022465
v -0.0037681 0.203453 0.21963
v -5.34998e-005 1.11585 0.001348
v -0.000188 1.10898 0.01973
v 0.071795 1.20584 -0.010494
v 0.071792 1.28578 0.099458
v -0.000188 1.18658 0.123008
v -0.000188 1.29992 -0.017894
v -0.000188 1.37352 0.088722
v -0.072171 1.20584 -0.010494
v -0.000188 1.10898 0.01973
v -0.000188 1.18658 0.123008
v -0.072168 1.28578 0.099458
v -0.000188 1.29992 -0.017894
v -0.000188 1.37352 0.088722

vn 1.78814e-007 -0.804199 0.594238
vn 0.982422 -0.14502 0.114624
vn 0.98291 0.152832 -0.100647
vn -3.57628e-007 -0.804199 0.594238
vn -2.38419e-007 0.81543 -0.578125
vn 4.76837e-007 0.81543 -0.578125
vn -0.982422 -0.14502 0.114624
vn 1.78814e-007 -0.804199 0.594238
vn -3.57628e-007 -0.804199 0.594238
vn -0.98291 0.152832 -0.100647
vn -2.38419e-007 0.81543 -0.578125
vn 4.76837e-007 0.81543 -0.578125
vn 0.999512 0.00297356 -0.00113964
vn 0.999512 0.00297356 -0.00113964
vn 0.999512 0.00297356 -0.00113964
vn 0.999512 0.00297356 -0.00113964
vn 0.999512 0.00292206 -0.00294113
vn 0.999512 0.00292206 -0.00294113
vn 0.999512 0.00292206 -0.00294113
vn 0.999512 5.68628e-005 0.0191345
vn 0.999512 5.68628e-005 0.0191345
vn 0.999512 5.68628e-005 0.0191345
vn -0.999512 5.68628e-005 0.0191345
vn -0.999512 5.68628e-005 0.0191345
vn -0.999512 5.68628e-005 0.0191345
vn -0.999512 0.00297356 -0.00113964
vn -0.999512 0.00297356 -0.00113964
vn -0.999512 0.00297356 -0.00113964
vn -0.999512 0.00297356 -0.00113964
vn -0.999512 0.00292206 -0.00294113
vn -0.999512 0.00292206 -0.00294113
vn -0.999512 0.00292206 -0.00294113
vn 0.999512 -0.000359058 -0.0185089
vn 0.999512 -0.000359058 -0.0185089
vn 0.999512 -0.000359058 -0.0185089
vn -0.999512 -0.000359058 -0.0185089
vn -0.999512 -0.000359058 -0.0185089
vn -0.999512 -0.000359058 -0.0185089
vn 0 -0.804199 0.594238
vn 0.982422 -0.14502 0.114624
vn 0.98291 0.152832 -0.100647
vn 0 -0.804199 0.594238
vn 0 0.81543 -0.578125
vn 0 0.81543 -0.578125
vn -0.982422 -0.14502 0.114624
vn 0 -0.804199 0.594238
vn 0 -0.804199 0.594238
vn -0.98291 0.152832 -0.100647
vn 0 0.81543 -0.578125
vn 0 0.81543 -0.578125

vt 0.677086 0.762727
vt 0.593722 0.762727
vt 0.593722 0.848927
vt 0.677086 0.848928
vt 0.509814 0.762727
vt 0.509814 0.848928
vt 0.593722 0.762727
vt 0.677086 0.762727
vt 0.677086 0.848928
vt 0.593722 0.848927
vt 0.509814 0.762727
vt 0.509814 0.848928
vt 0.702936 0.109543
vt 0.595924 0.192327
vt 0.461636 0.598422
vt 0.929053 0.855956
vt 0.929053 0.855956
vt 0.810951 0.192327
vt 0.702936 0.109543
vt 0.929053 0.855956
vt 0.929053 0.111205
vt 0.810951 0.192327
vt 0.929053 0.855956
vt 0.810951 0.192327
vt 0.929053 0.111197
vt 0.702936 0.109543
vt 0.929053 0.855956
vt 0.461636 0.598422
vt 0.595924 0.192327
vt 0.929053 0.855956
vt 0.702936 0.109543
vt 0.810951 0.192327
vt 0.461636 0.111997
vt 0.461636 0.598422
vt 0.595924 0.192327
vt 0.461636 0.111989
vt 0.595924 0.192327
vt 0.461636 0.598422
vt 0.677086 0.762727
vt 0.593722 0.762727
vt 0.593722 0.848927
vt 0.677086 0.848928
vt 0.509814 0.762727
vt 0.509814 0.848928
vt 0.593722 0.762727
vt 0.677086 0.762727
vt 0.677086 0.848928
vt 0.593722 0.848927
vt 0.509814 0.762727
vt 0.509814 0.848928


#
# MESH 000
#
g surface_000
usemtl surface_000
f 20/20/20 21/21/21 22/22/22
f 17/17/17 18/18/18 19/19/19
f 16/16/16 15/15/15 14/14/14
f 13/13/13 14/14/14 15/15/15
f 11/11/11 12/12/12 8/8/8
f 11/11/11 8/8/8 7/7/7
f 7/7/7 8/8/8 9/9/9
f 7/7/7 9/9/9 10/10/10
f 5/5/5 4/4/4 6/6/6
f 5/5/5 1/1/1 4/4/4
f 1/1/1 3/3/3 4/4/4
f 1/1/1 2/2/2 3/3/3
f 44/44/44 47/47/47 48/48/48
f 44/44/44 48/48/48 45/45/45
f 43/43/43 44/44/44 45/45/45
f 43/43/43 45/45/45 46/46/46
f 33/33/33 34/34/34 35/35/35
f 33/33/33 32/32/32 34/34/34
f 30/30/30 32/32/32 33/33/33
f 30/30/30 31/31/31 32/32/32
f 28/28/28 27/27/27 29/29/29
f 28/28/28 25/25/25 27/27/27
f 25/25/25 26/26/26 27/27/27
f 25/25/25 24/24/24 26/26/26
f 23/23/23 24/24/24 25/25/25
f 23/23/23 25/25/25 28/28/28
f 37/37/37 41/41/41 38/38/38
f 38/38/38 41/41/41 42/42/42
f 38/38/38 42/42/42 40/40/40
f 39/39/39 38/38/38 40/40/40
f 39/39/39 36/36/36 38/38/38
f 36/36/36 37/37/37 38/38/38

#
# MESH 001
#
g surface_001
usemtl surface_001
f 84/84/84 85/85/85 86/86/86
f 81/81/81 82/82/82 83/83/83
f 78/78/78 79/79/79 80/80/80
f 71/71/71 72/72/72 73/73/73
f 68/68/68 69/69/69 70/70/70
f 65/65/65 66/66/66 67/67/67
f 97/97/97 96/96/96 98/98/98
f 97/97/97 93/93/93 96/96/96
f 93/93/93 95/95/95 96/96/96
f 93/93/93 94/94/94 95/95/95
f 88/88/88 91/91/91 92/92/92
f 88/88/88 92/92/92 89/89/89
f 87/87/87 88/88/88 89/89/89
f 87/87/87 89/89/89 90/90/90
f 74/74/74 76/76/76 77/77/77
f 74/74/74 75/75/75 76/76/76
f 61/61/61 63/63/63 64/64/64
f 61/61/61 62/62/62 63/63/63
f 59/59/59 58/58/58 60/60/60
f 59/59/59 55/55/55 58/58/58
f 55/55/55 57/57/57 58/58/58
f 55/55/55 56/56/56 57/57/57
f 50/50/50 53/53/53 54/54/54
f 50/50/50 54/54/54 51/51/51
f 49/49/49 50/50/50 51/51/51
f 49/49/49 51/51/51 52/52/52

