#
# OBJECT NAME
#
o model_3003
mtllib 3003.mtl

#
# VERTEX BUFFER 000
#
v -0.091068 0.456379 -0.943998
v 0 0.420636 -0.899489
v 0 0.640566 -0.588718
v -0.091139 0.670881 -0.640912
v 0 0.612664 -0.995128
v -0.091068 0.543068 -0.995158
v -0.091139 0.72981 -0.74203
v 0 0.758912 -0.795933
v 0.091068 0.456379 -0.943998
v 0.091139 0.670881 -0.640912
v 0 0.640566 -0.588718
v 0 0.420636 -0.899489
v 0 0.612664 -0.995128
v 0 0.758912 -0.795933
v 0.091139 0.72981 -0.74203
v 0.091068 0.543068 -0.995159
v 0 1.95119 1.02793
v 0 1.97549 0.886944
v -0.084423 1.89382 0.94495
v 0 1.91087 0.847392
v -0.0589191 1.85459 0.88722
v 0 1.79834 0.927082
v 0 1.81218 1.00299
v 0 1.87038 0.790661
v -0.000482 0.719687 -0.797257
v -0.059046 0.663615 -0.757489
v -0.0584735 1.8143 0.830433
v -0.0589191 1.85459 0.88722
v 0 1.91087 0.847392
v 0 1.87038 0.790661
v -0.0584735 1.8143 0.830433
v -0.000482 0.607522 -0.717663
v 0 1.75821 0.870255
v 0 1.79834 0.927082
v 0 1.75821 0.870255
v 0 1.97549 0.886944
v 0 1.95119 1.02793
v 0.084423 1.89382 0.94495
v 0.0589191 1.85459 0.88722
v 0 1.91087 0.847392
v 0 1.81218 1.00299
v 0 1.79834 0.927082
v 0 1.87038 0.790661
v 0.0584735 1.8143 0.830433
v 0.0580815 0.663615 -0.757489
v -0.000482 0.719687 -0.797257
v 0 1.87038 0.790661
v 0 1.91087 0.847392
v 0.0589191 1.85459 0.88722
v 0.0584735 1.8143 0.830433
v 0 1.75821 0.870255
v -0.000482 0.607522 -0.717663
v 0 1.79834 0.927082
v 0 1.75821 0.870255
v 0.114754 0.485481 -1.00018
v 0.155069 0.464501 -0.945711
v -3.9e-005 0.340111 -0.945711
v -3.9e-005 0.382982 -1.00018
v 0.155069 0.464501 -0.945711
v 0.114903 0.491356 -0.89202
v -3.9e-005 0.392965 -0.892019
v -3.9e-005 0.340111 -0.945711
v -0.155129 0.464501 -0.945711
v -0.111499 0.491389 -0.89202
v -0.111498 0.62409 -0.892022
v -0.155129 0.649229 -0.945712
v -0.1114 0.626432 -1.00018
v -0.155129 0.649229 -0.945712
v -3.9e-005 0.741592 -0.945712
v -3.9e-005 0.696908 -1.00018
v -0.155129 0.464501 -0.945711
v -0.1114 0.485481 -1.00018
v -3.9e-005 0.690389 -0.892023
v 0.114904 0.624056 -0.892022
v 0.155069 0.649229 -0.945712
v -3.9e-005 0.741592 -0.945712
v 0.114754 0.626432 -1.00018
v 0.155069 0.649229 -0.945712
v -3.9e-005 0.741592 -0.945712
v -3.9e-005 0.690389 -0.892023
v -3.9e-005 0.696908 -1.00018
v -3.9e-005 0.741592 -0.945712
v -3.9e-005 0.690389 -0.892023
v -0.111498 0.62409 -0.892022
v -3.9e-005 0.392965 -0.892019
v 0.114904 0.624056 -0.892022
v 0.114903 0.491356 -0.89202
v -0.111499 0.491389 -0.89202
v -3.9e-005 0.696908 -1.00018
v -3.9e-005 0.382982 -1.00018
v -0.1114 0.485481 -1.00018
v -0.1114 0.626432 -1.00018
v 0.114754 0.485481 -1.00018
v 0.114754 0.626432 -1.00018
v 0 0.782621 -0.834006
v -0.12108 0.743782 -0.767562
v -0.09081 0.763649 -0.733662
v 0 0.792778 -0.783495
v -0.054247 0.722344 -0.730886
v 0 0.739745 -0.760655
v 0.105945 0.709351 -0.776545
v 0 0.743334 -0.834683
v 0 0.782621 -0.834006
v 0.12108 0.743782 -0.767562
v 0 0.723915 -0.801461
v -0.075675 0.699641 -0.759934
v -0.105945 0.709351 -0.776545
v 0 0.743334 -0.834683
v -0.12108 0.666105 -0.634674
v -0.09081 0.705392 -0.633996
v -0.054247 0.687543 -0.671349
v 0.075675 0.699641 -0.759934
v 0 0.723915 -0.801461
v -0.075675 0.651093 -0.676879
v -0.105945 0.641383 -0.660268
v 0 0.627267 -0.56823
v 0 0.676262 -0.584163
v 0 0.670142 -0.64158
v 0.09081 0.763649 -0.733662
v 0 0.792778 -0.783495
v 0 0.739745 -0.760655
v 0.054247 0.722344 -0.730886
v 0 0.626819 -0.635351
v 0 0.6074 -0.602129
v 0 0.627267 -0.56823
v 0.12108 0.666105 -0.634674
v 0.09081 0.705392 -0.633996
v 0 0.676262 -0.584163
v 0.054247 0.687543 -0.671349
v 0 0.670142 -0.64158
v 0 0.626819 -0.635351
v 0.075675 0.651093 -0.676879
v 0.105945 0.641383 -0.660268
v 0 0.6074 -0.602129

vn -0.870117 -0.402832 0.282471
vn -0.515137 -0.701172 0.491943
vn -0.515137 -0.701172 0.491943
vn -0.870117 -0.402832 0.282471
vn -0.521484 0.687988 -0.503418
vn -0.87207 0.394287 -0.288574
vn -0.87207 0.394287 -0.288574
vn -0.521484 0.687988 -0.503418
vn 0.870117 -0.402832 0.282471
vn 0.870117 -0.402832 0.282471
vn -0.515137 -0.701172 0.491943
vn -0.515137 -0.701172 0.491943
vn -0.521484 0.687988 -0.503418
vn -0.521484 0.687988 -0.503418
vn 0.87207 0.394287 -0.288574
vn 0.87207 0.394287 -0.288574
vn 0 0.578613 0.81543
vn 0 0.911621 -0.410156
vn -0.851074 0.509277 -0.125488
vn -1.78814e-007 0.527832 -0.848633
vn -0.937012 -0.197388 -0.287598
vn 1.78814e-007 -0.982422 0.185425
vn 0 -0.687012 0.726074
vn -0.505859 0.698242 -0.505859
vn -0.505859 0.698242 -0.505859
vn -0.867676 -0.401855 0.291504
vn -0.867676 -0.401855 0.291504
vn -0.999512 -0.00182724 -0.00392532
vn 0 0.8125 -0.58252
vn -0.505859 0.698242 -0.505859
vn -0.867676 -0.401855 0.291504
vn -0.506836 -0.697754 0.505859
vn -0.506836 -0.697754 0.505859
vn 0 -0.817871 0.574707
vn -0.506836 -0.697754 0.505859
vn 0 0.911621 -0.410156
vn 0 0.578613 0.81543
vn 0.851074 0.509277 -0.125488
vn 0.937012 -0.197388 -0.287598
vn -1.78814e-007 0.527832 -0.848633
vn 0 -0.687012 0.726074
vn 1.78814e-007 -0.982422 0.185425
vn -0.505859 0.698242 -0.505859
vn 0.867676 -0.4021 0.29126
vn 0.867676 -0.4021 0.29126
vn -0.505859 0.698242 -0.505859
vn -0.505859 0.698242 -0.505859
vn 0 0.8125 -0.58252
vn 0.999512 -0.00182724 -0.00392532
vn 0.867676 -0.4021 0.29126
vn -0.506836 -0.697754 0.505859
vn -0.506836 -0.697754 0.505859
vn 0 -0.817871 0.574707
vn -0.506836 -0.697754 0.505859
vn 0.708984 -0.338379 -0.618164
vn 0.737305 -0.408936 0.537109
vn 0.000367641 -0.82959 0.557617
vn -0.00118923 -0.738281 -0.673828
vn 0.737305 -0.408936 0.537109
vn 0.21582 -0.117615 0.969238
vn 0 1.35303e-005 1
vn 0.000367641 -0.82959 0.557617
vn -0.791016 -0.448242 -0.415527
vn -0.206299 -0.115051 0.97168
vn -0.206909 0.11615 0.971191
vn -0.733398 0.410889 0.541016
vn -0.65625 0.361328 -0.662109
vn -0.733398 0.410889 0.541016
vn 3.89814e-005 0.908203 -0.41748
vn -0.000939369 0.760254 -0.648926
vn -0.791016 -0.448242 -0.415527
vn -0.694824 -0.330322 -0.638184
vn 0.000309467 0.234863 0.97168
vn 0.216553 0.118713 0.96875
vn 0.794434 0.446777 -0.4104
vn 3.89814e-005 0.908203 -0.41748
vn 0.67041 0.369629 -0.642578
vn 0.794434 0.446777 -0.4104
vn 3.89814e-005 0.908203 -0.41748
vn 0.000309467 0.234863 0.97168
vn -0.000939369 0.760254 -0.648926
vn 3.89814e-005 0.908203 -0.41748
vn 0.000309467 0.234863 0.97168
vn -0.206909 0.11615 0.971191
vn 0 1.35303e-005 1
vn 0.216553 0.118713 0.96875
vn 0.21582 -0.117615 0.969238
vn -0.206299 -0.115051 0.97168
vn 0 -1.09673e-005 -1
vn 0 -1.09673e-005 -1
vn -6.13928e-006 -1.09673e-005 -1
vn -6.13928e-006 -1.09673e-005 -1
vn 5.66244e-006 -1.09673e-005 -1
vn 5.66244e-006 -1.09673e-005 -1
vn 0 0.504395 -0.863281
vn -0.87793 0.241455 -0.413086
vn 0.37793 0.675781 0.632324
vn 0 0.580078 0.814453
vn 0.706543 0.319824 0.630371
vn 0 0.142212 0.989746
vn 0.77832 -0.185547 -0.599609
vn 0 0.0172272 -0.999512
vn 0 0.504395 -0.863281
vn 0.87793 0.241455 -0.413086
vn 0 -0.863281 -0.504395
vn 0 -0.863281 -0.504395
vn 0 -0.863281 -0.504395
vn 0 0.0172272 -0.999512
vn -0.87793 -0.241455 0.413086
vn 0.37793 0.882324 0.278564
vn 0.706543 0.706543 -0.0307159
vn 0 -0.863281 -0.504395
vn 0 -0.863281 -0.504395
vn 0 -0.863281 -0.504395
vn 0 -0.863281 -0.504395
vn 0 -0.504395 0.863281
vn 0 0.994141 0.105835
vn 0 0.932129 -0.361572
vn 0 0.863281 0.504395
vn 0 0.580078 0.814453
vn 0 0.142212 0.989746
vn -0.706543 0.319824 0.630371
vn 0 -0.863281 -0.504395
vn 0 -0.863281 -0.504395
vn 0 -0.504395 0.863281
vn 0.87793 -0.241455 0.413086
vn -0.37793 0.882324 0.278564
vn 0 0.994141 0.105835
vn -0.706543 0.706543 -0.0307159
vn 0 0.932129 -0.361572
vn 0 -0.863281 -0.504395
vn 0 -0.863281 -0.504395
vn 0 -0.863281 -0.504395
vn 0 -0.863281 -0.504395

vt 0.383376 0.68717
vt 0.4565 0.675477
vt 0.4565 0.864939
vt 0.383376 0.850861
vt 0.212552 0.711204
vt 0.297804 0.697955
vt 0.297804 0.838314
vt 0.212552 0.824908
vt 0.383376 0.68717
vt 0.383376 0.850861
vt 0.4565 0.864939
vt 0.4565 0.675477
vt 0.212552 0.711204
vt 0.212552 0.824908
vt 0.297804 0.838314
vt 0.297804 0.697955
vt 0.294579 0.349784
vt 0.205161 0.24627
vt 0.294416 0.24627
vt 0.205161 0.211573
vt 0.294416 0.211573
vt 0.382976 0.211573
vt 0.382976 0.24627
vt 0.011426 0.971111
vt 0.011426 0.023569
vt 0.0953335 0.023569
vt 0.0953335 0.971111
vt 0.294416 0.211573
vt 0.205161 0.211573
vt 0.205161 0.141736
vt 0.294416 0.141736
vt 0.178697 0.023569
vt 0.178697 0.971111
vt 0.382976 0.211573
vt 0.382976 0.141736
vt 0.205161 0.24627
vt 0.294579 0.349784
vt 0.294416 0.24627
vt 0.294416 0.211573
vt 0.205161 0.211573
vt 0.382976 0.24627
vt 0.382976 0.211573
vt 0.011426 0.971111
vt 0.0953335 0.971111
vt 0.0953335 0.023569
vt 0.011426 0.023569
vt 0.205161 0.141736
vt 0.205161 0.211573
vt 0.294416 0.211573
vt 0.294416 0.141736
vt 0.178697 0.971111
vt 0.178697 0.023569
vt 0.382976 0.211573
vt 0.382976 0.141736
vt 0.514214 0.886279
vt 0.514214 0.933614
vt 0.440617 0.933614
vt 0.440617 0.886279
vt 0.514185 0.950139
vt 0.514185 0.981379
vt 0.440587 0.981379
vt 0.440587 0.950139
vt 0.36699 0.950139
vt 0.36699 0.981379
vt 0.294182 0.981379
vt 0.294182 0.950139
vt 0.294212 0.886279
vt 0.294212 0.933614
vt 0.217979 0.933614
vt 0.217979 0.886279
vt 0.367019 0.933614
vt 0.367019 0.886279
vt 0.663229 0.981379
vt 0.586993 0.981379
vt 0.586993 0.950139
vt 0.663229 0.950139
vt 0.587022 0.886279
vt 0.587022 0.933614
vt 0.217949 0.950139
vt 0.217949 0.981379
vt 0.663258 0.886279
vt 0.663258 0.933614
vt 0.748414 0.97288
vt 0.702648 0.948614
vt 0.748414 0.87844
vt 0.79561 0.948602
vt 0.795609 0.900036
vt 0.702648 0.900048
vt 0.877732 0.974313
vt 0.877732 0.881426
vt 0.918899 0.904648
vt 0.918899 0.951091
vt 0.835296 0.904648
vt 0.835296 0.951091
vt 0.206367 0.057056
vt 0.257598 0.057056
vt 0.257598 0.085343
vt 0.206367 0.085343
vt 0.257598 0.119614
vt 0.206367 0.119614
vt 0.257598 0.041548
vt 0.206367 0.041548
vt 0.206367 0.057056
vt 0.257598 0.057056
vt 0.206367 0.023177
vt 0.257598 0.023177
vt 0.257598 0.041548
vt 0.206367 0.041548
vt 0.330864 0.057056
vt 0.330864 0.085343
vt 0.330864 0.119614
vt 0.257598 0.023177
vt 0.206367 0.023177
vt 0.330864 0.023177
vt 0.330864 0.041548
vt 0.382095 0.057056
vt 0.382095 0.085343
vt 0.382095 0.119614
vt 0.257598 0.085343
vt 0.206367 0.085343
vt 0.206367 0.119614
vt 0.257598 0.119614
vt 0.382095 0.023177
vt 0.382095 0.041548
vt 0.382095 0.057056
vt 0.330864 0.057056
vt 0.330864 0.085343
vt 0.382095 0.085343
vt 0.330864 0.119614
vt 0.382095 0.119614
vt 0.382095 0.023177
vt 0.330864 0.023177
vt 0.330864 0.041548
vt 0.382095 0.041548


#
# VERTEX BUFFER 001
#
v 0.00029 1.57161 0.657621
v 0.072274 1.63042 0.633612
v 0.072271 1.70869 0.743564
v 0.00029 1.64922 0.760899
v 0.072273 1.70653 0.621182
v 0.072269 1.78814 0.731133
v 0.00029 1.76255 0.619997
v 0.00029 1.83615 0.726613
v -0.071693 1.63042 0.633612
v 0.00029 1.57161 0.657621
v 0.00029 1.64922 0.760899
v -0.07169 1.70869 0.743564
v -0.071693 1.70653 0.621182
v -0.071689 1.78814 0.731133
v 0.00029 1.76255 0.619997
v 0.00029 1.83615 0.726613
v 0.072271 1.70869 0.743564
v 0.072269 1.78814 0.731133
v 0.00029 1.83615 0.726613
v 0.00029 1.64922 0.760899
v -0.071693 1.63042 0.633612
v -0.071693 1.70653 0.621182
v 0.00029 1.76255 0.619997
v 0.00029 1.57161 0.657621
v 0.072273 1.70653 0.621182
v 0.072274 1.63042 0.633612
v -0.07169 1.70869 0.743564
v -0.071689 1.78814 0.731133
v 0.019222 0.019734 0.400525
v 0.019222 0.203453 0.21963
v -5.34998e-005 1.11585 0.001348
v -5.34998e-005 1.66476 0.772818
v 0.019222 0.203453 0.583116
v 0.019222 0.019734 0.400525
v 0.019222 0.203453 0.583116
v -0.019329 0.203453 0.583116
v -0.019329 0.019734 0.400525
v 0.019222 0.019734 0.400525
v -0.019329 0.019734 0.400525
v -0.019329 0.203453 0.21963
v 0.019222 0.203453 0.21963
v -5.34998e-005 0.0275415 0.777686
v -5.34998e-005 0.0275415 0.777686
v -0.019329 0.203453 0.583116
v 0.019222 0.203453 0.583116
v -5.34998e-005 1.66476 0.772818
v -0.019329 0.203453 0.583116
v -5.34998e-005 0.0275415 0.777686
v -0.019329 0.019734 0.400525
v -5.34998e-005 1.11585 0.001348
v -0.019329 0.203453 0.21963
v -5.34998e-005 0.0275415 0.022465
v -5.34998e-005 0.0275415 0.022465
v 0.019222 0.203453 0.21963
v -0.019329 0.203453 0.21963
v -5.34998e-005 0.0275415 0.022465
v -0.000188 1.10898 0.01973
v 0.071795 1.16778 -0.004279
v 0.071793 1.24605 0.105673
v -0.000188 1.18658 0.123008
v 0.071795 1.2439 -0.016709
v 0.071791 1.32551 0.093243
v -0.000188 1.29992 -0.017894
v -0.000188 1.37352 0.088722
v -0.072171 1.16778 -0.004279
v -0.000188 1.10898 0.01973
v -0.000188 1.18658 0.123008
v -0.072169 1.24605 0.105673
v -0.072171 1.2439 -0.016709
v -0.072167 1.32551 0.093243
v -0.000188 1.29992 -0.017894
v -0.000188 1.37352 0.088722
v 0.071793 1.24605 0.105673
v 0.071791 1.32551 0.093243
v -0.000188 1.37352 0.088722
v -0.000188 1.18658 0.123008
v -0.072171 1.16778 -0.004279
v -0.072171 1.2439 -0.016709
v -0.000188 1.29992 -0.017894
v -0.000188 1.10898 0.01973
v 0.071795 1.2439 -0.016709
v 0.071795 1.16778 -0.004279
v -0.072169 1.24605 0.105673
v -0.072167 1.32551 0.093243

vn 0.639648 -0.620117 0.453369
vn 0.905273 -0.342529 0.250244
vn 0.905273 -0.342529 0.250244
vn 0.639648 -0.620117 0.453369
vn 0.87207 0.397705 -0.284912
vn 0.87207 0.397705 -0.284912
vn 0.520996 0.693359 -0.49707
vn 0.520996 0.693359 -0.49707
vn -0.905273 -0.342529 0.250244
vn -0.639648 -0.620117 0.453369
vn -0.639648 -0.620117 0.453369
vn -0.905273 -0.342529 0.250244
vn -0.87207 0.397705 -0.284912
vn -0.87207 0.397705 -0.284912
vn -0.520996 0.693359 -0.49707
vn -0.520996 0.693359 -0.49707
vn 0.0736694 0.172241 0.981934
vn 0.0736694 0.172241 0.981934
vn 0 0.172729 0.984863
vn 0 0.172729 0.984863
vn 0.150513 -0.182007 -0.97168
vn 0.150513 -0.182007 -0.97168
vn 0 -0.184204 -0.982422
vn 0 -0.184204 -0.982422
vn -0.150513 -0.182007 -0.97168
vn -0.150513 -0.182007 -0.97168
vn -0.0736694 0.172241 0.981934
vn -0.0736694 0.172241 0.981934
vn 1 0 0
vn 1 0 0
vn 1 0 0
vn 1 0 0
vn 1 0 0
vn 0 -0.70459 0.708984
vn 0 -0.70459 0.708984
vn 0 -0.70459 0.708984
vn 0 -0.70459 0.708984
vn 0 -0.701172 -0.712402
vn 0 -0.701172 -0.712402
vn 0 -0.701172 -0.712402
vn 0 -0.701172 -0.712402
vn 1 0 0
vn 0 -0.709473 -0.704102
vn 0 -0.709473 -0.704102
vn 0 -0.709473 -0.704102
vn -1 0 0
vn -1 0 0
vn -1 0 0
vn -1 0 0
vn -1 0 0
vn -1 0 0
vn 1 0 0
vn 0 -0.714355 0.699219
vn 0 -0.714355 0.699219
vn 0 -0.714355 0.699219
vn -1 0 0
vn 0.639648 -0.620117 0.453369
vn 0.905273 -0.342529 0.250244
vn 0.905273 -0.342529 0.250244
vn 0.639648 -0.620117 0.453369
vn 0.87207 0.397705 -0.284912
vn 0.87207 0.397705 -0.284912
vn 0.520996 0.693359 -0.49707
vn 0.520996 0.693359 -0.49707
vn -0.905273 -0.342529 0.250244
vn -0.639648 -0.620117 0.453369
vn -0.639648 -0.620117 0.453369
vn -0.905273 -0.342529 0.250244
vn -0.87207 0.397705 -0.284912
vn -0.87207 0.397705 -0.284912
vn -0.520996 0.693359 -0.49707
vn -0.520996 0.693359 -0.49707
vn 0.0736694 0.172241 0.981934
vn 0.0736694 0.172241 0.981934
vn 0 0.172729 0.984863
vn 0 0.172729 0.984863
vn 0.150513 -0.182007 -0.97168
vn 0.150513 -0.182007 -0.97168
vn 0 -0.184204 -0.982422
vn 0 -0.184204 -0.982422
vn -0.150513 -0.182007 -0.97168
vn -0.150513 -0.182007 -0.97168
vn -0.0736694 0.172241 0.981934
vn -0.0736694 0.172241 0.981934

vt 0.677086 0.762727
vt 0.621761 0.762728
vt 0.621761 0.848928
vt 0.677086 0.848928
vt 0.565683 0.762727
vt 0.565683 0.848927
vt 0.509814 0.762727
vt 0.509814 0.848928
vt 0.621761 0.762728
vt 0.677086 0.762727
vt 0.677086 0.848928
vt 0.621761 0.848928
vt 0.565683 0.762727
vt 0.565683 0.848927
vt 0.509814 0.762727
vt 0.509814 0.848928
vt 0.286129 0.5868
vt 0.286128 0.628639
vt 0.245202 0.663577
vt 0.245202 0.55481
vt 0.382729 0.588307
vt 0.382729 0.626171
vt 0.341199 0.6627
vt 0.341199 0.557837
vt 0.299668 0.626171
vt 0.299668 0.588307
vt 0.204274 0.5868
vt 0.204275 0.628639
vt 0.702936 0.109543
vt 0.595924 0.192327
vt 0.461636 0.598422
vt 0.929053 0.855956
vt 0.810951 0.192327
vt 0.70416 0.0553724
vt 0.828315 0.0553724
vt 0.828315 0.073471
vt 0.70416 0.073471
vt 0.676476 0.055796
vt 0.676476 0.0732991
vt 0.555851 0.0732991
vt 0.555851 0.055796
vt 0.929053 0.111205
vt 0.963857 0.0644217
vt 0.828315 0.073471
vt 0.828315 0.0553724
vt 0.929053 0.855956
vt 0.810951 0.192327
vt 0.929053 0.111197
vt 0.702936 0.109543
vt 0.461636 0.598422
vt 0.595924 0.192327
vt 0.461636 0.111997
vt 0.418802 0.0645475
vt 0.555851 0.055796
vt 0.555851 0.0732991
vt 0.461636 0.111989
vt 0.677086 0.762727
vt 0.621761 0.762728
vt 0.621761 0.848928
vt 0.677086 0.848928
vt 0.565683 0.762727
vt 0.565683 0.848927
vt 0.509814 0.762727
vt 0.509814 0.848928
vt 0.621761 0.762728
vt 0.677086 0.762727
vt 0.677086 0.848928
vt 0.621761 0.848928
vt 0.565683 0.762727
vt 0.565683 0.848927
vt 0.509814 0.762727
vt 0.509814 0.848928
vt 0.286129 0.5868
vt 0.286128 0.628639
vt 0.245202 0.663577
vt 0.245202 0.55481
vt 0.382729 0.588307
vt 0.382729 0.626171
vt 0.341199 0.6627
vt 0.341199 0.557837
vt 0.299668 0.626171
vt 0.299668 0.588307
vt 0.204274 0.5868
vt 0.204275 0.628639


#
# MESH 000
#
g surface_000
usemtl surface_000
f 13/13/13 14/14/14 15/15/15
f 13/13/13 15/15/15 16/16/16
f 16/16/16 15/15/15 10/10/10
f 16/16/16 10/10/10 9/9/9
f 9/9/9 10/10/10 11/11/11
f 9/9/9 11/11/11 12/12/12
f 5/5/5 7/7/7 8/8/8
f 5/5/5 6/6/6 7/7/7
f 6/6/6 4/4/4 7/7/7
f 6/6/6 1/1/1 4/4/4
f 1/1/1 3/3/3 4/4/4
f 1/1/1 2/2/2 3/3/3
f 53/53/53 54/54/54 50/50/50
f 53/53/53 50/50/50 49/49/49
f 47/47/47 49/49/49 50/50/50
f 47/47/47 48/48/48 49/49/49
f 44/44/44 51/51/51 52/52/52
f 44/44/44 52/52/52 45/45/45
f 43/43/43 44/44/44 45/45/45
f 43/43/43 45/45/45 46/46/46
f 36/36/36 39/39/39 40/40/40
f 36/36/36 38/38/38 39/39/39
f 38/38/38 42/42/42 39/39/39
f 38/38/38 41/41/41 42/42/42
f 37/37/37 41/41/41 38/38/38
f 36/36/36 37/37/37 38/38/38
f 34/34/34 31/31/31 35/35/35
f 34/34/34 28/28/28 31/31/31
f 28/28/28 30/30/30 31/31/31
f 28/28/28 29/29/29 30/30/30
f 27/27/27 32/32/32 33/33/33
f 27/27/27 26/26/26 32/32/32
f 24/24/24 26/26/26 27/27/27
f 24/24/24 25/25/25 26/26/26
f 18/18/18 20/20/20 21/21/21
f 18/18/18 21/21/21 19/19/19
f 17/17/17 18/18/18 19/19/19
f 17/17/17 19/19/19 23/23/23
f 19/19/19 22/22/22 23/23/23
f 19/19/19 21/21/21 22/22/22
f 93/93/93 89/89/89 94/94/94
f 93/93/93 90/90/90 89/89/89
f 89/89/89 90/90/90 91/91/91
f 89/89/89 91/91/91 92/92/92
f 88/88/88 85/85/85 84/84/84
f 83/83/83 84/84/84 85/85/85
f 83/83/83 85/85/85 86/86/86
f 86/86/86 85/85/85 87/87/87
f 81/81/81 82/82/82 78/78/78
f 81/81/81 78/78/78 77/77/77
f 77/77/77 78/78/78 56/56/56
f 77/77/77 56/56/56 55/55/55
f 55/55/55 56/56/56 57/57/57
f 55/55/55 57/57/57 58/58/58
f 58/58/58 57/57/57 71/71/71
f 58/58/58 71/71/71 72/72/72
f 72/72/72 71/71/71 68/68/68
f 72/72/72 68/68/68 67/67/67
f 67/67/67 68/68/68 69/69/69
f 67/67/67 69/69/69 70/70/70
f 79/79/79 65/65/65 80/80/80
f 79/79/79 66/66/66 65/65/65
f 63/63/63 65/65/65 66/66/66
f 63/63/63 64/64/64 65/65/65
f 62/62/62 64/64/64 63/63/63
f 62/62/62 61/61/61 64/64/64
f 59/59/59 61/61/61 62/62/62
f 59/59/59 60/60/60 61/61/61
f 75/75/75 60/60/60 59/59/59
f 75/75/75 74/74/74 60/60/60
f 73/73/73 74/74/74 75/75/75
f 73/73/73 75/75/75 76/76/76
f 128/128/128 129/129/129 130/130/130
f 128/128/128 127/127/127 129/129/129
f 127/127/127 122/122/122 129/129/129
f 127/127/127 119/119/119 122/122/122
f 119/119/119 121/121/121 122/122/122
f 119/119/119 120/120/120 121/121/121
f 104/104/104 120/120/120 119/119/119
f 104/104/104 103/103/103 120/120/120
f 125/125/125 127/127/127 128/128/128
f 125/125/125 126/126/126 127/127/127
f 126/126/126 119/119/119 127/127/127
f 126/126/126 104/104/104 119/119/119
f 133/133/133 104/104/104 126/126/126
f 133/133/133 101/101/101 104/104/104
f 101/101/101 103/103/103 104/104/104
f 101/101/101 102/102/102 103/103/103
f 112/112/112 102/102/102 101/101/101
f 112/112/112 113/113/113 102/102/102
f 134/134/134 126/126/126 125/125/125
f 134/134/134 133/133/133 126/126/126
f 131/131/131 133/133/133 134/134/134
f 131/131/131 132/132/132 133/133/133
f 132/132/132 101/101/101 133/133/133
f 132/132/132 112/112/112 101/101/101
f 114/114/114 123/123/123 124/124/124
f 114/114/114 124/124/124 115/115/115
f 106/106/106 114/114/114 115/115/115
f 106/106/106 115/115/115 107/107/107
f 105/105/105 106/106/106 107/107/107
f 105/105/105 107/107/107 108/108/108
f 108/108/108 107/107/107 96/96/96
f 108/108/108 96/96/96 95/95/95
f 115/115/115 124/124/124 116/116/116
f 115/115/115 116/116/116 109/109/109
f 107/107/107 115/115/115 109/109/109
f 107/107/107 109/109/109 96/96/96
f 96/96/96 109/109/109 110/110/110
f 96/96/96 110/110/110 97/97/97
f 95/95/95 96/96/96 97/97/97
f 95/95/95 97/97/97 98/98/98
f 98/98/98 97/97/97 99/99/99
f 98/98/98 99/99/99 100/100/100
f 109/109/109 116/116/116 117/117/117
f 109/109/109 117/117/117 110/110/110
f 110/110/110 117/117/117 118/118/118
f 110/110/110 118/118/118 111/111/111
f 97/97/97 110/110/110 111/111/111
f 97/97/97 111/111/111 99/99/99

#
# MESH 001
#
g surface_001
usemtl surface_001
f 187/187/187 188/188/188 189/189/189
f 177/177/177 178/178/178 179/179/179
f 217/217/217 209/209/209 218/218/218
f 217/217/217 210/210/210 209/209/209
f 207/207/207 209/209/209 210/210/210
f 207/207/207 208/208/208 209/209/209
f 215/215/215 216/216/216 214/214/214
f 215/215/215 214/214/214 213/213/213
f 211/211/211 213/213/213 214/214/214
f 211/211/211 212/212/212 213/213/213
f 205/205/205 204/204/204 206/206/206
f 205/205/205 203/203/203 204/204/204
f 203/203/203 202/202/202 204/204/204
f 203/203/203 199/199/199 202/202/202
f 199/199/199 201/201/201 202/202/202
f 199/199/199 200/200/200 201/201/201
f 195/195/195 197/197/197 198/198/198
f 195/195/195 198/198/198 196/196/196
f 192/192/192 195/195/195 196/196/196
f 192/192/192 196/196/196 193/193/193
f 191/191/191 192/192/192 193/193/193
f 191/191/191 193/193/193 194/194/194
f 190/190/190 185/185/185 184/184/184
f 183/183/183 184/184/184 185/185/185
f 183/183/183 180/180/180 184/184/184
f 180/180/180 183/183/183 181/181/181
f 180/180/180 181/181/181 182/182/182
f 186/186/186 165/165/165 164/164/164
f 163/163/163 164/164/164 165/165/165
f 163/163/163 165/165/165 166/166/166
f 166/166/166 167/167/167 163/163/163
f 166/166/166 176/176/176 167/167/167
f 172/172/172 174/174/174 175/175/175
f 172/172/172 173/173/173 174/174/174
f 168/168/168 170/170/170 171/171/171
f 168/168/168 169/169/169 170/170/170
f 161/161/161 153/153/153 162/162/162
f 161/161/161 154/154/154 153/153/153
f 151/151/151 153/153/153 154/154/154
f 151/151/151 152/152/152 153/153/153
f 159/159/159 160/160/160 158/158/158
f 159/159/159 158/158/158 157/157/157
f 155/155/155 157/157/157 158/158/158
f 155/155/155 156/156/156 157/157/157
f 149/149/149 148/148/148 150/150/150
f 149/149/149 147/147/147 148/148/148
f 147/147/147 146/146/146 148/148/148
f 147/147/147 143/143/143 146/146/146
f 143/143/143 145/145/145 146/146/146
f 143/143/143 144/144/144 145/145/145
f 139/139/139 141/141/141 142/142/142
f 139/139/139 142/142/142 140/140/140
f 136/136/136 139/139/139 140/140/140
f 136/136/136 140/140/140 137/137/137
f 135/135/135 136/136/136 137/137/137
f 135/135/135 137/137/137 138/138/138

