#
# OBJECT NAME
#
o model_4963
mtllib 4963.mtl

#
# VERTEX BUFFER 000
#
v -0.977575 0.842383 0.097092
v -0.99152 0.842382 0.119409
v -0.99152 0.842383 0.0673509
v -0.977575 0.842383 0.0673509
v -0.99152 1.15762 0.0673509
v -0.99152 0.842383 0.0673509
v -0.99152 0.842382 0.119409
v -0.99152 1.15762 0.119409
v -0.977575 1.15762 0.0673509
v -0.99152 1.15762 0.0673509
v -0.99152 1.15762 0.119409
v -0.977575 1.15762 0.097092
v -0.918469 0.842383 0.119409
v -0.977575 0.842383 0.097092
v -0.977575 1.15762 0.097092
v -0.918469 1.15762 0.119409
v -0.918469 1.15762 0.119409
v -0.918469 0.842383 0.119409
v -0.918469 1.15762 0.119409
v -0.99152 1.15762 0.119409
v -0.99152 0.842382 0.119409
v -0.918469 0.842383 0.119409
v -0.977575 1.15762 0.097092
v -0.977575 0.842383 0.097092
v -0.977575 0.842383 0.0673509
v -0.977575 1.15762 0.0673509
v -0.977575 0.842383 -0.0882031
v -0.977575 0.842383 -0.06
v -0.99152 0.842383 -0.06
v -0.99152 0.842382 -0.11052
v -0.99152 1.15762 -0.06
v -0.99152 1.15762 -0.11052
v -0.99152 0.842382 -0.11052
v -0.99152 0.842383 -0.06
v -0.977575 1.15762 -0.06
v -0.977575 1.15762 -0.0882031
v -0.99152 1.15762 -0.11052
v -0.99152 1.15762 -0.06
v -0.918469 0.842383 -0.11052
v -0.918469 1.15762 -0.11052
v -0.977575 1.15762 -0.0882031
v -0.977575 0.842383 -0.0882031
v -0.918469 1.15762 -0.11052
v -0.918469 0.842383 -0.11052
v -0.99152 0.842382 -0.11052
v -0.99152 1.15762 -0.11052
v -0.918469 1.15762 -0.11052
v -0.918469 0.842383 -0.11052
v -0.977575 1.15762 -0.0882031
v -0.977575 1.15762 -0.06
v -0.977575 0.842383 -0.06
v -0.977575 0.842383 -0.0882031
v -0.263387 1.94088 0.0673509
v -0.324328 1.94088 0.0673509
v -0.324328 0.0591213 0.0673509
v -0.263387 0.0591213 0.0673509
v -0.324328 1.94088 -0.06
v -0.263387 1.94088 -0.06
v -0.263387 0.0591213 -0.06
v -0.324328 0.0591213 -0.06
v -0.324328 1.94088 -0.06
v -0.324328 0.0591213 -0.06
v -0.324328 0.0591213 0.0673509
v -0.324328 1.94088 0.0673509
v -0.263387 1.94088 0.0673509
v -0.263387 0.0591213 0.0673509
v -0.263387 0.0591213 -0.06
v -0.263387 1.94088 -0.06
v -0.674575 1.94088 0.0673509
v -0.735515 1.94088 0.0673509
v -0.735515 0.0591213 0.0673509
v -0.674575 0.0591213 0.0673509
v -0.735515 1.94088 -0.06
v -0.674575 1.94088 -0.06
v -0.674575 0.0591213 -0.06
v -0.735515 0.0591213 -0.06
v -0.674575 1.94088 0.0673509
v -0.674575 0.0591213 0.0673509
v -0.674575 0.0591213 -0.06
v -0.674575 1.94088 -0.06
v -0.735515 1.94088 -0.06
v -0.735515 0.0591213 -0.06
v -0.735515 0.0591213 0.0673509
v -0.735515 1.94088 0.0673509
v -0.674575 1.03938 0.0673509
v -0.674575 0.960624 0.0673509
v -0.324328 0.960624 0.0673509
v -0.324328 1.03938 0.0673509
v -0.324328 1.03938 -0.06
v -0.324328 0.960624 -0.06
v -0.674575 0.960624 -0.06
v -0.674575 1.03938 -0.06
v -0.674575 0.960624 0.0673509
v -0.674575 0.960624 -0.06
v -0.324328 0.960624 -0.06
v -0.324328 0.960624 0.0673509
v -0.674575 1.03938 -0.06
v -0.674575 1.03938 0.0673509
v -0.324328 1.03938 0.0673509
v -0.324328 1.03938 -0.06
v -0.263387 0.511173 0.0673509
v -0.263387 0.450543 0.0673509
v -0.0597473 0.450543 0.0673509
v -0.0597473 0.511174 0.0673509
v -0.0597473 0.511174 -0.06
v -0.0597473 0.450543 -0.06
v -0.263387 0.450543 -0.06
v -0.263387 0.511174 -0.06
v -0.263387 0.450543 0.0673509
v -0.263387 0.450543 -0.06
v -0.0597473 0.450543 -0.06
v -0.0597473 0.450543 0.0673509
v -0.263387 0.511174 -0.06
v -0.263387 0.511173 0.0673509
v -0.0597473 0.511174 0.0673509
v -0.0597473 0.511174 -0.06
v -0.939155 0.511173 0.0673509
v -0.939155 0.450543 0.0673509
v -0.735515 0.450543 0.0673509
v -0.735515 0.511174 0.0673509
v -0.735515 0.511174 -0.06
v -0.735515 0.450543 -0.06
v -0.939155 0.450543 -0.06
v -0.939155 0.511174 -0.06
v -0.939155 0.450543 0.0673509
v -0.939155 0.450543 -0.06
v -0.735515 0.450543 -0.06
v -0.735515 0.450543 0.0673509
v -0.939155 0.511174 -0.06
v -0.939155 0.511173 0.0673509
v -0.735515 0.511174 0.0673509
v -0.735515 0.511174 -0.06
v -0.263387 1.54946 0.0673509
v -0.263387 1.48883 0.0673509
v -0.0597473 1.48883 0.0673509
v -0.0597473 1.54946 0.0673509
v -0.0597473 1.54946 -0.06
v -0.0597473 1.48883 -0.06
v -0.263387 1.48883 -0.06
v -0.263387 1.54946 -0.06
v -0.263387 1.48883 0.0673509
v -0.263387 1.48883 -0.06
v -0.0597473 1.48883 -0.06
v -0.0597473 1.48883 0.0673509
v -0.263387 1.54946 -0.06
v -0.263387 1.54946 0.0673509
v -0.0597473 1.54946 0.0673509
v -0.0597473 1.54946 -0.06
v -0.939155 1.54946 0.0673509
v -0.939155 1.48883 0.0673509
v -0.735515 1.48883 0.0673509
v -0.735515 1.54946 0.0673509
v -0.735515 1.54946 -0.06
v -0.735515 1.48883 -0.06
v -0.939155 1.48883 -0.06
v -0.939155 1.54946 -0.06
v -0.939155 1.48883 0.0673509
v -0.939155 1.48883 -0.06
v -0.735515 1.48883 -0.06
v -0.735515 1.48883 0.0673509
v -0.939155 1.54946 -0.06
v -0.939155 1.54946 0.0673509
v -0.735515 1.54946 0.0673509
v -0.735515 1.54946 -0.06
v 0 0 0.0673509
v -0.0597473 0.0591213 0.0673509
v -0.939155 0.0591213 0.0673509
v -0.998902 0 0.0673509
v -0.939155 0.0591213 -0.06
v -0.0597473 0.0591213 -0.06
v 0 0 -0.06
v -0.998902 0 -0.06
v 0 0 -0.06
v 0 0 0.0673509
v -0.998902 0 0.0673509
v -0.998902 0 -0.06
v -0.939155 0.0591213 0.0673509
v -0.0597473 0.0591213 0.0673509
v -0.0597473 0.0591213 -0.06
v -0.939155 0.0591213 -0.06
v -0.998902 2 0.0673509
v -0.939155 1.94088 0.0673509
v -0.0597473 1.94088 0.0673509
v 0 2 0.0673509
v -0.939155 1.94088 -0.06
v -0.998902 1.995 -0.06
v 0 1.995 -0.06
v -0.0597473 1.94088 -0.06
v 0 1.995 -0.06
v -0.998902 1.995 -0.06
v -0.998902 2 0.0673509
v 0 2 0.0673509
v -0.0597473 1.94088 0.0673509
v -0.0597473 1.94088 -0.06
v 0 1.995 -0.06
v 0 2 0.0673509
v 0 0 0.0673509
v 0 0 -0.06
v -0.939155 1.94088 0.0673509
v -0.939155 1.94088 -0.06
v -0.998902 0 -0.06
v -0.998902 0 0.0673509
v -0.998902 2 0.0673509
v -0.998902 1.995 -0.06
v -0.939155 1.94088 -0.06
v -0.0597473 1.94088 -0.06
v -0.0597473 1.94088 0.0673509
v -0.939155 1.94088 0.0673509
v -0.939155 1.94088 0.0673509
v -0.939155 0.0591213 0.0673509
v -0.939155 0.0591213 -0.06
v -0.939155 1.94088 -0.06
v -0.0597473 1.94088 -0.06
v -0.0597473 0.0591213 -0.06
v -0.0597473 0.0591213 0.0673509
v -0.0597473 1.94088 0.0673509

vn 8.16584e-006 -1 -6.55651e-006
vn 8.10623e-006 -1 -6.67572e-006
vn 9.29832e-006 -1 -3.21865e-006
vn 9.29832e-006 -1 -3.21865e-006
vn -1 0 -6.25849e-006
vn -1 0 -6.25849e-006
vn -1 0 -6.25849e-006
vn -1 0 -6.25849e-006
vn -6.19888e-006 1 3.21865e-006
vn -6.19888e-006 1 3.21865e-006
vn -3.51667e-006 1 1.74642e-005
vn -3.57628e-006 1 1.68085e-005
vn 0.353027 0 -0.935059
vn 0.353027 0 -0.935059
vn 0.353027 0 -0.935059
vn 0.353027 0 -0.935059
vn -1.60933e-006 1 2.74181e-005
vn 1.19209e-007 0 1
vn 1.19209e-007 0 1
vn 1.19209e-007 0 1
vn 1.19209e-007 0 1
vn 7.33137e-006 -1 -9.11951e-006
vn 1 0 0
vn 1 0 0
vn 1 0 0
vn 1 0 0
vn 7.45058e-006 -1 6.67572e-006
vn 7.62939e-006 -1 3.33786e-006
vn 7.62939e-006 -1 3.33786e-006
vn 7.45058e-006 -1 6.79493e-006
vn -1 0 6.4373e-006
vn -1 0 6.4373e-006
vn -1 0 6.4373e-006
vn -1 0 6.4373e-006
vn -6.07967e-006 1 -3.33786e-006
vn -3.51667e-006 1 -1.71065e-005
vn -3.39746e-006 1 -1.77026e-005
vn -6.07967e-006 1 -3.33786e-006
vn 0.353027 0 0.935059
vn 0.353027 0 0.935059
vn 0.353027 0 0.935059
vn 0.353027 0 0.935059
vn -1.60933e-006 1 -2.74181e-005
vn 7.7486e-007 0 -1
vn 7.7486e-007 0 -1
vn 7.7486e-007 0 -1
vn 7.7486e-007 0 -1
vn 7.33137e-006 -1 9.11951e-006
vn 1 0 0
vn 1 0 0
vn 1 0 0
vn 1 0 0
vn 0 0 1
vn 0 0 1
vn 0 0 1
vn 0 0 1
vn 0 0 -1
vn 0 0 -1
vn 0 0 -1
vn 0 0 -1
vn -1 0 0
vn -1 0 0
vn -1 0 0
vn -1 0 0
vn 1 0 0
vn 1 0 0
vn 1 0 0
vn 1 0 0
vn 0 0 1
vn 0 0 1
vn 0 0 1
vn 0 0 1
vn 0 0 -1
vn 0 0 -1
vn 0 0 -1
vn 0 0 -1
vn 1 0 1.78814e-007
vn 1 0 1.78814e-007
vn 1 0 1.78814e-007
vn 1 0 1.78814e-007
vn -1 0 0
vn -1 0 0
vn -1 0 0
vn -1 0 0
vn 0 0 1
vn 0 0 1
vn 0 0 1
vn 0 0 1
vn 0 0 -1
vn 0 0 -1
vn 0 0 -1
vn 0 0 -1
vn 0 -1 -2.6226e-006
vn 0 -1 -2.6226e-006
vn 0 -1 -2.6226e-006
vn 0 -1 -2.6226e-006
vn 0 1 3.33786e-006
vn 0 1 3.33786e-006
vn 0 1 3.33786e-006
vn 0 1 3.33786e-006
vn 0 0 1
vn 0 0 1
vn 0 0 1
vn 0 0 1
vn 0 0 -1
vn 0 0 -1
vn 0 0 -1
vn 0 0 -1
vn 0 -1 -5.36442e-007
vn 0 -1 -5.36442e-007
vn 0 -1 -5.36442e-007
vn 0 -1 -5.36442e-007
vn -1.19209e-007 1 5.36442e-007
vn -1.19209e-007 1 5.36442e-007
vn -1.19209e-007 1 5.36442e-007
vn -1.19209e-007 1 5.36442e-007
vn 0 0 1
vn 0 0 1
vn 0 0 1
vn 0 0 1
vn 0 0 -1
vn 0 0 -1
vn 0 0 -1
vn 0 0 -1
vn 0 -1 0
vn 0 -1 0
vn 0 -1 0
vn 0 -1 0
vn -2.38419e-007 1 5.36442e-007
vn -2.38419e-007 1 5.36442e-007
vn -2.38419e-007 1 5.36442e-007
vn -2.38419e-007 1 5.36442e-007
vn 0 0 1
vn 0 0 1
vn 0 0 1
vn 0 0 1
vn 0 0 -1
vn 0 0 -1
vn 0 0 -1
vn 0 0 -1
vn -2.38419e-007 -1 0
vn -2.38419e-007 -1 0
vn -2.38419e-007 -1 0
vn -2.38419e-007 -1 0
vn 0 1 -2.26498e-006
vn 0 1 -2.26498e-006
vn 0 1 -2.26498e-006
vn 0 1 -2.26498e-006
vn 0 0 1
vn 0 0 1
vn 0 0 1
vn 0 0 1
vn 0 0 -1
vn 0 0 -1
vn 0 0 -1
vn 0 0 -1
vn 0 -1 -1.13249e-006
vn 0 -1 -1.13249e-006
vn 0 -1 -1.13249e-006
vn 0 -1 -1.13249e-006
vn 1.22786e-005 1 0
vn 1.22786e-005 1 0
vn 1.22786e-005 1 0
vn 1.22786e-005 1 0
vn 0 0 1
vn 0 0 1
vn 0 0 1
vn 0 0 1
vn 0 0 -1
vn 0 0 -1
vn 0 0 -1
vn 0 0 -1
vn 0 -1 0
vn 0 -1 0
vn 0 -1 0
vn 0 -1 0
vn 0 1 0
vn 0 1 0
vn 0 1 0
vn 0 1 0
vn 0 0 1
vn 0 0 1
vn 0 0 1
vn 0 0 1
vn 0 0 -1
vn 0 0 -1
vn 0 0 -1
vn 0 0 -1
vn 0 0.999023 -0.0392151
vn 0 0.999023 -0.0392151
vn 0 0.999023 -0.0392151
vn 0 0.999023 -0.0392151
vn 0 0 1
vn 0 0 -1
vn 1 0 0
vn 1 0 0
vn 1 0 0
vn 1 0 0
vn 0 0 1
vn 0 0 -1
vn -1 0 0
vn -1 0 0
vn -1 0 0
vn -1 0 0
vn 0 -1 0
vn 0 -1 0
vn 0 -1 0
vn 0 -1 0
vn 1 0 0
vn 1 0 0
vn 1 0 0
vn 1 0 0
vn -1 0 0
vn -1 0 0
vn -1 0 0
vn -1 0 0

vt 0.824948 0.128765
vt 0.818828 0.139136
vt 0.832681 0.139136
vt 0.832681 0.128765
vt 0.859591 0.0121171
vt 0.98394 0.0121171
vt 0.98394 0.0284394
vt 0.859591 0.0284393
vt 0.833486 0.0957769
vt 0.833486 0.0854067
vt 0.847339 0.0854063
vt 0.841219 0.0957769
vt 0.872921 0.106877
vt 0.890694 0.106877
vt 0.890694 0.323347
vt 0.872921 0.323347
vt 0.844279 0.139732
vt 0.98394 0.0754877
vt 0.859591 0.0754877
vt 0.859591 0.0352169
vt 0.98394 0.035217
vt 0.821888 0.0848105
vt 0.896236 0.323347
vt 0.896236 0.106877
vt 0.905665 0.106877
vt 0.905665 0.323347
vt 0.841219 0.0957769
vt 0.833486 0.0957768
vt 0.833486 0.0854067
vt 0.847339 0.0854063
vt 0.859591 0.0121171
vt 0.859591 0.0284393
vt 0.98394 0.0284394
vt 0.98394 0.0121171
vt 0.833486 0.0957769
vt 0.841219 0.0957769
vt 0.847339 0.0854063
vt 0.833486 0.0854067
vt 0.872921 0.106877
vt 0.872921 0.323347
vt 0.890694 0.323347
vt 0.890694 0.106877
vt 0.844279 0.139732
vt 0.98394 0.0754877
vt 0.98394 0.035217
vt 0.859591 0.0352169
vt 0.859591 0.0754877
vt 0.844279 0.139732
vt 0.896236 0.323347
vt 0.905665 0.323347
vt 0.905665 0.106877
vt 0.896236 0.106877
vt 0.791988 0.484652
vt 0.791988 0.511382
vt 0.0289606 0.511382
vt 0.0289606 0.484652
vt 0.791988 0.511382
vt 0.791988 0.484652
vt 0.0289606 0.484652
vt 0.0289606 0.511382
vt 0.77066 0.158437
vt 0.0113506 0.158437
vt 0.0113506 0.211917
vt 0.77066 0.211917
vt 0.77066 0.211917
vt 0.0113506 0.211917
vt 0.0113506 0.158437
vt 0.77066 0.158437
vt 0.791988 0.774046
vt 0.791988 0.802379
vt 0.0289606 0.802379
vt 0.0289606 0.774046
vt 0.791988 0.802379
vt 0.791988 0.774046
vt 0.0289606 0.774046
vt 0.0289606 0.802379
vt 0.77066 0.211917
vt 0.0113506 0.211917
vt 0.0113506 0.158437
vt 0.77066 0.158437
vt 0.77066 0.158437
vt 0.0113506 0.158437
vt 0.0113506 0.211917
vt 0.77066 0.211917
vt 0.419295 0.774046
vt 0.401653 0.774046
vt 0.401653 0.511382
vt 0.419296 0.511382
vt 0.419296 0.511382
vt 0.401653 0.511382
vt 0.401653 0.774046
vt 0.419295 0.774046
vt 0.955176 0.36258
vt 0.985517 0.36258
vt 0.985517 0.112949
vt 0.955176 0.112949
vt 0.942496 0.36258
vt 0.911802 0.36258
vt 0.911802 0.112949
vt 0.942496 0.112949
vt 0.208797 0.484652
vt 0.191155 0.484652
vt 0.191155 0.332727
vt 0.208797 0.332727
vt 0.208797 0.332727
vt 0.191155 0.332727
vt 0.191155 0.484652
vt 0.208797 0.484652
vt 0.864538 0.212883
vt 0.864538 0.160855
vt 0.78102 0.160855
vt 0.78102 0.212883
vt 0.864538 0.234376
vt 0.864538 0.286404
vt 0.781021 0.286404
vt 0.781021 0.234376
vt 0.208797 0.95225
vt 0.191155 0.95225
vt 0.191155 0.802379
vt 0.208797 0.802379
vt 0.208797 0.802379
vt 0.191155 0.802379
vt 0.191155 0.95225
vt 0.208797 0.95225
vt 0.864538 0.212883
vt 0.864538 0.160855
vt 0.78102 0.160855
vt 0.78102 0.212883
vt 0.864538 0.234376
vt 0.864538 0.286404
vt 0.781021 0.286404
vt 0.781021 0.234376
vt 0.629794 0.484652
vt 0.612152 0.484652
vt 0.612152 0.332727
vt 0.629794 0.332727
vt 0.629794 0.332727
vt 0.612152 0.332727
vt 0.612152 0.484652
vt 0.629794 0.484652
vt 0.864538 0.212883
vt 0.864538 0.160855
vt 0.78102 0.160855
vt 0.78102 0.212883
vt 0.864538 0.234376
vt 0.864538 0.286404
vt 0.781021 0.286404
vt 0.781021 0.234376
vt 0.629794 0.95225
vt 0.612152 0.95225
vt 0.612152 0.802379
vt 0.629794 0.802379
vt 0.629794 0.802379
vt 0.612152 0.802379
vt 0.612152 0.95225
vt 0.629794 0.95225
vt 0.864538 0.212883
vt 0.864538 0.160855
vt 0.78102 0.160855
vt 0.78102 0.212883
vt 0.864538 0.234376
vt 0.864538 0.286404
vt 0.781021 0.286404
vt 0.781021 0.234376
vt 0.0113185 0.306245
vt 0.0289605 0.332727
vt 0.0289606 0.95225
vt 0.0113185 0.981314
vt 0.0289606 0.95225
vt 0.0289605 0.332727
vt 0.0113185 0.306245
vt 0.0113185 0.981314
vt 0.898459 0.335571
vt 0.867921 0.335571
vt 0.867921 0.980723
vt 0.898459 0.980723
vt 0.955961 0.980769
vt 0.955961 0.392005
vt 0.986302 0.392005
vt 0.986302 0.980769
vt 0.80963 0.981314
vt 0.791988 0.95225
vt 0.791988 0.332727
vt 0.809631 0.306245
vt 0.791988 0.95225
vt 0.80963 0.981314
vt 0.809631 0.306245
vt 0.791988 0.332727
vt 0.853797 0.335571
vt 0.853797 0.980723
vt 0.823103 0.980723
vt 0.823103 0.335571
vt 0.791988 0.332727
vt 0.791988 0.332727
vt 0.806416 0.0107652
vt 0.806416 0.067319
vt 0.00990145 0.067319
vt 0.00990145 0.0107652
vt 0.791988 0.95225
vt 0.791988 0.95225
vt 0.0114229 0.0856022
vt 0.0114229 0.13937
vt 0.805066 0.13937
vt 0.805066 0.0856022
vt 0.943468 0.980769
vt 0.943468 0.392005
vt 0.912773 0.392005
vt 0.912773 0.980769
vt 0.77066 0.211917
vt 0.0113506 0.211917
vt 0.0113506 0.158437
vt 0.77066 0.158437
vt 0.77066 0.231028
vt 0.0113506 0.231028
vt 0.0113506 0.285325
vt 0.77066 0.285325


#
# VERTEX BUFFER 001
#
v -0.954704 0.0441983 -0.0209167
v -0.954704 1.9558 -0.0209167
v -0.0441984 1.9558 -0.0209167
v -0.0441984 0.0441983 -0.0209167
v -0.954704 0.0441983 0.0309584
v -0.0441984 0.0441983 0.0309584
v -0.0441984 1.9558 0.0309584
v -0.954704 1.9558 0.0309584

vn 0 0 -1
vn 0 0 -1
vn 0 0 -1
vn 0 0 -1
vn 0 0 1
vn 0 0 1
vn 0 0 1
vn 0 0 1

vt 0.0289606 0.95225
vt 0.791988 0.95225
vt 0.791988 0.332727
vt 0.0289605 0.332727
vt 0.0289606 0.95225
vt 0.0289605 0.332727
vt 0.791988 0.332727
vt 0.791988 0.95225


#
# MESH 000
#
g surface_000
usemtl surface_000
f 49/49/49 51/51/51 52/52/52
f 49/49/49 50/50/50 51/51/51
f 48/48/48 27/27/27 30/30/30
f 27/27/27 29/29/29 30/30/30
f 27/27/27 28/28/28 29/29/29
f 44/44/44 46/46/46 47/47/47
f 44/44/44 45/45/45 46/46/46
f 43/43/43 37/37/37 36/36/36
f 35/35/35 36/36/36 37/37/37
f 35/35/35 37/37/37 38/38/38
f 39/39/39 41/41/41 42/42/42
f 39/39/39 40/40/40 41/41/41
f 31/31/31 33/33/33 34/34/34
f 31/31/31 32/32/32 33/33/33
f 23/23/23 25/25/25 26/26/26
f 23/23/23 24/24/24 25/25/25
f 22/22/22 2/2/2 1/1/1
f 1/1/1 2/2/2 3/3/3
f 1/1/1 3/3/3 4/4/4
f 18/18/18 20/20/20 21/21/21
f 18/18/18 19/19/19 20/20/20
f 17/17/17 12/12/12 11/11/11
f 9/9/9 11/11/11 12/12/12
f 9/9/9 10/10/10 11/11/11
f 13/13/13 15/15/15 16/16/16
f 13/13/13 14/14/14 15/15/15
f 5/5/5 7/7/7 8/8/8
f 5/5/5 6/6/6 7/7/7
f 65/65/65 67/67/67 68/68/68
f 65/65/65 66/66/66 67/67/67
f 61/61/61 63/63/63 64/64/64
f 61/61/61 62/62/62 63/63/63
f 57/57/57 59/59/59 60/60/60
f 57/57/57 58/58/58 59/59/59
f 53/53/53 55/55/55 56/56/56
f 53/53/53 54/54/54 55/55/55
f 81/81/81 83/83/83 84/84/84
f 81/81/81 82/82/82 83/83/83
f 77/77/77 79/79/79 80/80/80
f 77/77/77 78/78/78 79/79/79
f 73/73/73 75/75/75 76/76/76
f 73/73/73 74/74/74 75/75/75
f 69/69/69 71/71/71 72/72/72
f 69/69/69 70/70/70 71/71/71
f 97/97/97 99/99/99 100/100/100
f 97/97/97 98/98/98 99/99/99
f 93/93/93 95/95/95 96/96/96
f 93/93/93 94/94/94 95/95/95
f 89/89/89 91/91/91 92/92/92
f 89/89/89 90/90/90 91/91/91
f 85/85/85 87/87/87 88/88/88
f 85/85/85 86/86/86 87/87/87
f 113/113/113 115/115/115 116/116/116
f 113/113/113 114/114/114 115/115/115
f 109/109/109 111/111/111 112/112/112
f 109/109/109 110/110/110 111/111/111
f 105/105/105 107/107/107 108/108/108
f 105/105/105 106/106/106 107/107/107
f 101/101/101 103/103/103 104/104/104
f 101/101/101 102/102/102 103/103/103
f 129/129/129 131/131/131 132/132/132
f 129/129/129 130/130/130 131/131/131
f 125/125/125 127/127/127 128/128/128
f 125/125/125 126/126/126 127/127/127
f 121/121/121 123/123/123 124/124/124
f 121/121/121 122/122/122 123/123/123
f 117/117/117 119/119/119 120/120/120
f 117/117/117 118/118/118 119/119/119
f 145/145/145 147/147/147 148/148/148
f 145/145/145 146/146/146 147/147/147
f 141/141/141 143/143/143 144/144/144
f 141/141/141 142/142/142 143/143/143
f 137/137/137 139/139/139 140/140/140
f 137/137/137 138/138/138 139/139/139
f 133/133/133 135/135/135 136/136/136
f 133/133/133 134/134/134 135/135/135
f 161/161/161 163/163/163 164/164/164
f 161/161/161 162/162/162 163/163/163
f 157/157/157 159/159/159 160/160/160
f 157/157/157 158/158/158 159/159/159
f 153/153/153 155/155/155 156/156/156
f 153/153/153 154/154/154 155/155/155
f 149/149/149 151/151/151 152/152/152
f 149/149/149 150/150/150 151/151/151
f 213/213/213 215/215/215 216/216/216
f 213/213/213 214/214/214 215/215/215
f 209/209/209 211/211/211 212/212/212
f 209/209/209 210/210/210 211/211/211
f 205/205/205 207/207/207 208/208/208
f 205/205/205 206/206/206 207/207/207
f 201/201/201 203/203/203 204/204/204
f 201/201/201 202/202/202 203/203/203
f 200/200/200 172/172/172 186/186/186
f 200/200/200 169/169/169 172/172/172
f 169/169/169 171/171/171 172/172/172
f 169/169/169 170/170/170 171/171/171
f 194/194/194 171/171/171 170/170/170
f 194/194/194 187/187/187 171/171/171
f 168/168/168 199/199/199 181/181/181
f 168/168/168 167/167/167 199/199/199
f 165/165/165 167/167/167 168/168/168
f 165/165/165 166/166/166 167/167/167
f 184/184/184 166/166/166 165/165/165
f 184/184/184 193/193/193 166/166/166
f 195/195/195 197/197/197 198/198/198
f 195/195/195 196/196/196 197/197/197
f 189/189/189 191/191/191 192/192/192
f 189/189/189 190/190/190 191/191/191
f 185/185/185 187/187/187 188/188/188
f 185/185/185 186/186/186 187/187/187
f 181/181/181 183/183/183 184/184/184
f 181/181/181 182/182/182 183/183/183
f 177/177/177 179/179/179 180/180/180
f 177/177/177 178/178/178 179/179/179
f 173/173/173 175/175/175 176/176/176
f 173/173/173 174/174/174 175/175/175

#
# MESH 001
#
g surface_001
usemtl surface_001
f 221/221/221 223/223/223 224/224/224
f 221/221/221 222/222/222 223/223/223
f 217/217/217 219/219/219 220/220/220
f 217/217/217 218/218/218 219/219/219

