#
# OBJECT NAME
#
o model_1097
mtllib 1097.mtl

#
# VERTEX BUFFER 000
#
v 0.754629 0.948788 -0.59504
v -0.433303 1.05909 -0.99593
v -0.340415 1.30014 -0.444419
v 0.51018 1.3008 -0.147861
v -0.206285 -4.54944e-006 -0.848804
v -0.393359 -4.54944e-006 0.947471
v -0.981828 -4.54944e-006 0.202493
v 0.35624 2.42534 -0.221229
v -0.371964 2.53871 -0.466265
v -0.457651 2.90614 -0.807131
v 0.722288 2.94165 -0.499592
v -0.279539 0.554618 0.996342
v -0.173582 0.990387 1.04381
v -0.830024 1.02188 0.280324
v -1.09165 0.41392 0.276732
v 0.694058 3.31591 0.34274
v 0.386008 3.38921 -0.629312
v 0.730992 3.58057 -0.929786
v 1.01228 3.50339 0.595845
v 0.465186 2.48053 0.517347
v 0.866575 3.01652 0.678383
v 0.661096 1.67928 0.307688
v 0.230171 1.6951 0.813642
v 0.0912203 1.29244 0.524943
v 0.441061 1.29386 0.261628
v -0.345185 3.36211 -0.701022
v -0.457651 2.90614 -0.807131
v -0.960806 2.98861 0.275884
v -0.703862 3.34873 0.42199
v -0.345185 3.36211 -0.701022
v -0.242499 2.52783 0.763167
v -0.140798 3.04745 1.10762
v 0.825642 4.07294 -0.84016
v -0.570016 3.63852 -1.03344
v -0.564608 4.06988 -1.06582
v 0.611821 2.24018 0.538523
v -0.287914 2.2977 0.88466
v -0.110282 1.99295 0.502498
v 0.382154 1.93808 0.299238
v -0.634211 2.53108 0.231871
v 0.991347 0.513448 0.745525
v 0.859834 0.00139663 0.679301
v 0.814176 -4.54944e-006 -0.378934
v 0.890543 0.399565 -0.571529
v -0.371964 2.53871 -0.466265
v -1.13533 3.48932 0.582828
v -0.570016 3.63852 -1.03344
v -0.564608 4.06988 -1.06582
v -1.16325 3.92838 0.546576
v 1.0945 3.90933 0.550683
v 0.18838 3.9378 1.17438
v 0.186429 3.45774 1.23092
v -0.380218 2.04637 -0.363784
v 0.245328 1.98336 -0.343975
v 0.309503 1.66654 -0.548903
v -0.488016 1.68527 -0.472088
v -0.464446 2.29254 -0.539915
v -0.728246 2.29834 0.269515
v 0.127925 3.34578 0.910033
v 0.825642 4.07294 -0.84016
v -0.564608 4.06988 -1.06582
v 1.0945 3.90933 0.550683
v -0.239877 0.410175 -0.994668
v -0.488016 1.68527 -0.472088
v -0.340415 1.30014 -0.444419
v -0.465546 1.23337 0.28071
v -0.650725 1.72969 0.528413
v -0.380218 2.04637 -0.363784
v -0.466418 2.03184 0.300886
v -0.206285 -4.54944e-006 -0.848804
v 0.765347 0.998605 0.667115
v 0.374731 2.13008 -0.388707
v -0.464446 2.29254 -0.539915
v -0.433303 1.05909 -0.99593
v -0.239877 0.410175 -0.994668
v 0.18838 3.9378 1.17438
v -1.16325 3.92838 0.546576
v -0.393359 -4.54944e-006 0.947471
v -0.981828 -4.54944e-006 0.202493
v -0.206285 -4.54944e-006 -0.848804
v 0.859834 0.00139663 0.679301
v 0.814176 -4.54944e-006 -0.378934

vn 0.64502 0.467285 -0.604004
vn -0.436523 0.411865 -0.799805
vn -0.419678 0.619141 -0.663086
vn 0.681641 0.591309 -0.430176
vn -0.165771 -0.889648 -0.424316
vn -0.134644 -0.862793 0.486572
vn -0.724609 -0.6875 -0.0419922
vn 0.720215 -0.415771 -0.554688
vn -0.364258 -0.442383 -0.819336
vn -0.452637 -0.175049 -0.874023
vn 0.802246 -0.225098 -0.552246
vn -0.240234 0.0154037 0.970215
vn -0.149414 0.375244 0.914551
vn -0.94873 0.314941 0.00683212
vn -0.999512 -0.00638199 0.00523758
vn 0.9375 -0.344238 0.0408936
vn 0.460449 -0.532227 -0.709961
vn 0.595703 -0.386719 -0.703613
vn 0.854492 -0.439209 0.276367
vn 0.763184 -0.43457 0.477295
vn 0.853027 -0.213501 0.475586
vn 0.962891 0.18457 0.195679
vn 0.200928 -0.0229492 0.979004
vn 0.10083 0.233032 0.966797
vn 0.847168 0.425049 0.317871
vn -0.453369 -0.496582 -0.739746
vn -0.452637 -0.175049 -0.874023
vn -0.996582 0.0392151 0.0668335
vn -0.86084 -0.481934 0.160278
vn -0.453369 -0.496582 -0.739746
vn -0.253418 -0.307617 0.916992
vn -0.196655 -0.0970459 0.975586
vn 0.533203 0.750488 -0.389893
vn -0.561035 -0.347168 -0.750977
vn -0.227783 0.927734 -0.295166
vn 0.827148 -0.262939 0.49585
vn -0.213379 -0.273193 0.9375
vn -0.0661011 -0.128296 0.989258
vn 0.92627 0.039978 0.373779
vn -0.946289 -0.277588 0.165405
vn 0.825684 0.0254669 0.562988
vn 0.32373 -0.890137 0.31958
vn 0.327637 -0.928223 -0.173584
vn 0.807617 -0.0107193 -0.588867
vn -0.364258 -0.442383 -0.819336
vn -0.877441 -0.355225 0.321777
vn -0.561035 -0.347168 -0.750977
vn -0.227783 0.927734 -0.295166
vn -0.351074 0.922852 0.15686
vn 0.370117 0.918945 0.132324
vn 0.00392532 0.943359 0.331055
vn -0.00246048 -0.332764 0.942871
vn -0.709961 -0.0558472 -0.70166
vn 0.608887 0.100281 -0.786621
vn 0.427734 0.00238609 -0.903809
vn -0.734375 -0.0739136 -0.674316
vn -0.525391 -0.0335999 -0.849609
vn -0.970215 -0.20166 0.130493
vn 0.0750122 -0.492676 0.866699
vn 0.533203 0.750488 -0.389893
vn -0.227783 0.927734 -0.295166
vn 0.370117 0.918945 0.132324
vn -0.347412 -0.0820313 -0.933594
vn -0.734375 -0.0739136 -0.674316
vn -0.419678 0.619141 -0.663086
vn -0.929199 0.211426 0.30249
vn -0.839355 -0.0892944 0.535156
vn -0.709961 -0.0558472 -0.70166
vn -0.955078 -0.0827026 0.284424
vn -0.165771 -0.889648 -0.424316
vn 0.746094 0.451416 0.488525
vn 0.708984 -0.0987549 -0.697754
vn -0.525391 -0.0335999 -0.849609
vn -0.436523 0.411865 -0.799805
vn -0.347412 -0.0820313 -0.933594
vn 0.00392532 0.943359 0.331055
vn -0.351074 0.922852 0.15686
vn -0.134644 -0.862793 0.486572
vn -0.724609 -0.6875 -0.0419922
vn -0.165771 -0.889648 -0.424316
vn 0.32373 -0.890137 0.31958
vn 0.327637 -0.928223 -0.173584

vt 0.794767 0.233444
vt 0.937937 0.261058
vt 0.934182 0.310504
vt 0.759627 0.315164
vt 0.0811558 0.00429744
vt 0.044105 0.253074
vt -0.00346501 0.148697
vt 0.777006 0.570684
vt 0.918569 0.600039
vt 0.938012 0.698207
vt 0.777472 0.702357
vt 0.517965 0.137286
vt 0.530602 0.243965
vt 0.399882 0.251332
vt 0.389583 0.102435
vt 0.677413 0.795748
vt 0.84025 0.814297
vt 0.836423 0.858939
vt 0.662729 0.834892
vt 0.635332 0.587747
vt 0.6436 0.720923
vt 0.676647 0.399875
vt 0.600576 0.403421
vt 0.57297 0.313291
vt 0.670608 0.313609
vt 0.207316 0.812845
vt 0.22078 0.707131
vt 0.385652 0.714263
vt 0.390432 0.802802
vt 0.943926 0.809366
vt 0.510586 0.599887
vt 0.537445 0.72873
vt 0.818081 0.979055
vt 0.988397 0.877048
vt 0.994628 0.994201
vt 0.626126 0.529507
vt 0.51201 0.542471
vt 0.526985 0.470101
vt 0.657507 0.457818
vt 0.392456 0.601687
vt 0.65093 0.127909
vt 0.650498 0.000644803
vt 0.772335 -2.38419e-007
vt 0.790511 0.0989785
vt 0.253033 0.610622
vt 0.388909 0.838699
vt 0.11148 0.881209
vt 0.122379 0.989222
vt 0.384075 0.950778
vt 0.667171 0.933525
vt 0.567334 0.945621
vt 0.568801 0.830868
vt 0.983008 0.482526
vt 0.834917 0.468532
vt 0.859596 0.397022
vt 0.997668 0.396565
vt 0.270289 0.526708
vt 0.399554 0.545888
vt 0.566008 0.803305
vt 0.189365 0.561241
vt 0.0383054 0.584672
vt 0.228369 0.394524
vt 0.941454 0.0850918
vt 0.281373 0.404507
vt 0.312033 0.306883
vt 0.424999 0.30007
vt 0.448783 0.411184
vt 0.279926 0.485935
vt 0.429859 0.478806
vt 0.933498 0.000275731
vt 0.647775 0.245231
vt 0.81059 0.502091
vt 0.96676 0.54673
vt 0.252044 0.255976
vt 0.21918 0.101669
vt 0.135397 0.323449
vt -0.0148735 0.389854
vt 0.500131 -0.000175476
vt 0.370008 -1.45435e-005
vt 0.207658 7.34329e-005
vt 0.176168 0.207275
vt 0.180249 0.0645815


#
# MESH 000
#
g surface_000
usemtl surface_000
f 81/81/81 5/5/5 82/82/82
f 81/81/81 6/6/6 5/5/5
f 5/5/5 6/6/6 7/7/7
f 76/76/76 61/61/61 77/77/77
f 76/76/76 62/62/62 61/61/61
f 60/60/60 61/61/61 62/62/62
f 33/33/33 34/34/34 35/35/35
f 33/33/33 18/18/18 34/34/34
f 18/18/18 30/30/30 34/34/34
f 18/18/18 17/17/17 30/30/30
f 30/30/30 17/17/17 11/11/11
f 30/30/30 11/11/11 10/10/10
f 8/8/8 10/10/10 11/11/11
f 8/8/8 9/9/9 10/10/10
f 33/33/33 19/19/19 18/18/18
f 16/16/16 18/18/18 19/19/19
f 16/16/16 17/17/17 18/18/18
f 17/17/17 16/16/16 21/21/21
f 17/17/17 21/21/21 11/11/11
f 20/20/20 11/11/11 21/21/21
f 20/20/20 8/8/8 11/11/11
f 36/36/36 8/8/8 20/20/20
f 36/36/36 72/72/72 8/8/8
f 72/72/72 9/9/9 8/8/8
f 72/72/72 73/73/73 9/9/9
f 33/33/33 50/50/50 19/19/19
f 19/19/19 50/50/50 51/51/51
f 19/19/19 51/51/51 52/52/52
f 19/19/19 52/52/52 59/59/59
f 19/19/19 59/59/59 16/16/16
f 16/16/16 59/59/59 32/32/32
f 16/16/16 32/32/32 21/21/21
f 31/31/31 21/21/21 32/32/32
f 31/31/31 20/20/20 21/21/21
f 36/36/36 20/20/20 31/31/31
f 51/51/51 46/46/46 52/52/52
f 29/29/29 52/52/52 46/46/46
f 29/29/29 59/59/59 52/52/52
f 59/59/59 29/29/29 28/28/28
f 59/59/59 28/28/28 32/32/32
f 28/28/28 31/31/31 32/32/32
f 28/28/28 40/40/40 31/31/31
f 40/40/40 37/37/37 31/31/31
f 36/36/36 31/31/31 37/37/37
f 51/51/51 49/49/49 46/46/46
f 48/48/48 46/46/46 49/49/49
f 48/48/48 47/47/47 46/46/46
f 26/26/26 46/46/46 47/47/47
f 26/26/26 29/29/29 46/46/46
f 26/26/26 28/28/28 29/29/29
f 26/26/26 27/27/27 28/28/28
f 27/27/27 40/40/40 28/28/28
f 27/27/27 45/45/45 40/40/40
f 45/45/45 58/58/58 40/40/40
f 40/40/40 58/58/58 37/37/37
f 37/37/37 58/58/58 69/69/69
f 37/37/37 69/69/69 38/38/38
f 36/36/36 37/37/37 38/38/38
f 36/36/36 38/38/38 39/39/39
f 72/72/72 36/36/36 39/39/39
f 72/72/72 39/39/39 54/54/54
f 54/54/54 73/73/73 72/72/72
f 45/45/45 57/57/57 58/58/58
f 58/58/58 57/57/57 68/68/68
f 58/58/58 68/68/68 69/69/69
f 68/68/68 67/67/67 69/69/69
f 69/69/69 67/67/67 23/23/23
f 69/69/69 23/23/23 38/38/38
f 39/39/39 38/38/38 23/23/23
f 39/39/39 23/23/23 22/22/22
f 54/54/54 39/39/39 22/22/22
f 54/54/54 22/22/22 55/55/55
f 53/53/53 54/54/54 55/55/55
f 54/54/54 53/53/53 73/73/73
f 68/68/68 64/64/64 67/67/67
f 64/64/64 66/66/66 67/67/67
f 23/23/23 67/67/67 66/66/66
f 23/23/23 66/66/66 24/24/24
f 22/22/22 23/23/23 24/24/24
f 22/22/22 24/24/24 25/25/25
f 4/4/4 22/22/22 25/25/25
f 4/4/4 55/55/55 22/22/22
f 3/3/3 55/55/55 4/4/4
f 3/3/3 56/56/56 55/55/55
f 53/53/53 55/55/55 56/56/56
f 64/64/64 65/65/65 66/66/66
f 14/14/14 66/66/66 65/65/65
f 13/13/13 66/66/66 14/14/14
f 24/24/24 66/66/66 13/13/13
f 71/71/71 24/24/24 13/13/13
f 71/71/71 25/25/25 24/24/24
f 71/71/71 4/4/4 25/25/25
f 71/71/71 1/1/1 4/4/4
f 1/1/1 3/3/3 4/4/4
f 1/1/1 2/2/2 3/3/3
f 2/2/2 1/1/1 44/44/44
f 2/2/2 44/44/44 63/63/63
f 14/14/14 65/65/65 74/74/74
f 74/74/74 15/15/15 14/14/14
f 12/12/12 14/14/14 15/15/15
f 12/12/12 13/13/13 14/14/14
f 41/41/41 13/13/13 12/12/12
f 41/41/41 71/71/71 13/13/13
f 1/1/1 71/71/71 41/41/41
f 1/1/1 41/41/41 44/44/44
f 41/41/41 43/43/43 44/44/44
f 44/44/44 43/43/43 70/70/70
f 44/44/44 70/70/70 63/63/63
f 74/74/74 75/75/75 15/15/15
f 15/15/15 75/75/75 80/80/80
f 15/15/15 80/80/80 79/79/79
f 78/78/78 15/15/15 79/79/79
f 78/78/78 12/12/12 15/15/15
f 41/41/41 12/12/12 78/78/78
f 41/41/41 78/78/78 42/42/42
f 41/41/41 42/42/42 43/43/43

