#
# OBJECT NAME
#
o model_3515
mtllib 3515.mtl

#
# VERTEX BUFFER 000
#
v 0.00136956 0 -1.21916
v 0.00136956 0.156802 -1.19686
v 1.18534 0 -0.205292
v 1.16367 0.156802 -0.196499
v 0.00136956 0 -1.21916
v -1.1826 0 -0.214008
v 0.00136956 0.156802 -1.19686
v -1.16093 0.156802 -0.205216
v -1.1826 0 -0.214008
v -0.83133 0 0.832697
v -1.16093 0.156802 -0.205216
v -0.824996 0.154786 0.826197
v 0.00136956 0.154786 1.19685
v 0.00136956 0 1.21916
v 0.00136956 0.154786 1.19685
v 0.00136956 0 1.21916
v 0.821659 0.154786 0.829141
v 0.83407 0 0.832697
v 0.00136956 0 -1.21916
v 1.18534 0 -0.205292
v 0.00136956 0 -6.40869e-006
v -1.1826 0 -0.214008
v -0.83133 0 0.832697
v -1.1826 0 -0.214008
v 0.00136956 0 1.21916
v 0.83407 0 0.832697
v 1.18534 0 -0.205292
v -0.824996 0.154786 0.826197
v 0.00136956 0.154786 1.19685
v 0.00136956 0.154786 -6.40869e-006
v 0.821659 0.154786 0.829141
v 0.00136956 0.939855 0.851991
v 0.391335 0.774058 0.868185
v 0.00136956 1.10872 0.666985
v 0.536722 0.909352 0.714813
v 0.821659 0.154786 0.829141
v 0.791071 0.430763 0.804866
v 0.591685 0.153102 0.906441
v 0.560689 0.400324 0.929946
v 0.00136956 0.807488 0.667209
v 0.321658 0.692316 0.694292
v 0.00136956 0.939855 0.851991
v 0.391335 0.774058 0.868185
v 0.560689 0.400324 0.929946
v 0.523772 0.153393 0.755478
v -0.824996 0.154786 0.826197
v -0.594426 0.151169 0.913494
v -0.788333 0.430763 0.804866
v -0.557951 0.400324 0.929946
v -0.552073 0.908979 0.699002
v -0.388595 0.774058 0.868185
v -0.52103 0.147873 0.735908
v -0.318918 0.692317 0.694292
v -0.557951 0.400324 0.929946
v -0.388595 0.774058 0.868185
v 0.00136956 0.807488 0.667209
v 0.523772 0.153393 0.755478
v 0.321658 0.692316 0.694292
v 0.00136956 0.807488 0.667209
v -0.52103 0.147873 0.735908
v 0.523772 0.153393 0.755478
v -0.52103 0.147873 0.735908
v -0.318918 0.692317 0.694292
v -1.16093 0.156802 -0.205216
v -1.1055 0.433064 -0.199793
v 0.00136956 0.156802 -1.19686
v 0.00136956 0.435346 -1.13978
v -0.788333 0.430763 0.804866
v -1.1055 0.433064 -0.199793
v -0.824996 0.154786 0.826197
v -1.16093 0.156802 -0.205216
v 0.00136956 1.10872 0.666985
v 0.00136956 1.1525 0.579801
v -0.552073 0.908979 0.699002
v -0.529723 1.1525 -0.0161031
v -0.824921 0.934131 -0.0867009
v 0.00136956 0.900324 -0.888937
v 0.00136956 1.1525 -0.579814
v -0.529723 1.1525 -0.0161031
v -0.824921 0.934131 -0.0867009
v 1.16367 0.156802 -0.196499
v 0.00136956 0.156802 -1.19686
v 1.10824 0.433064 -0.204016
v 0.00136956 0.435346 -1.13978
v 0.821659 0.154786 0.829141
v 1.16367 0.156802 -0.196499
v 0.791071 0.430763 0.804866
v 1.10824 0.433064 -0.204016
v 0.00136956 0.900324 -0.888937
v 0.82766 0.934131 -0.103689
v 0.82766 0.934131 -0.103689
v 0.536722 0.909352 0.714813
v 0.00136956 1.1525 -0.579814
v 0.539977 1.1525 0.00413553
v 0.539977 1.1525 0.00413553
v 0.524043 1.31968 0.0106003
v 0.00136956 1.31968 -0.560882
v -0.51379 1.31968 -0.00963828
v 0.524043 1.31968 0.0106003
v -0.51379 1.31968 -0.00963828
v 0.00136956 1.31968 0.560869
v 0.524043 1.31968 0.0106003
v 0.539977 1.1525 0.00413553
v 0.00136956 1.31968 -0.560882
v 0.00136956 1.1525 -0.579814
v -0.529723 1.1525 -0.0161031
v -0.51379 1.31968 -0.00963828
v 0.00136956 1.31968 0.560869
v -0.51379 1.31968 -0.00963828
v 0.00136956 1.1525 0.579801
v -0.529723 1.1525 -0.0161031
v 0.524043 1.31968 0.0106003
v 0.539977 1.1525 0.00413553
v -0.270215 1.31946 0.271581
v 0.272955 1.31946 0.271581
v -0.239959 1.69864 0.241319
v 0.242698 1.69864 0.241319
v -0.239959 1.69864 -0.241332
v 0.242698 1.69864 -0.241332
v -0.270215 1.31946 -0.271594
v 0.272955 1.31946 -0.271594
v 0.272955 1.31946 0.271581
v 0.272955 1.31946 -0.271594
v 0.242698 1.69864 0.241319
v 0.242698 1.69864 -0.241332
v -0.270215 1.31946 -0.271594
v -0.270215 1.31946 0.271581
v -0.239959 1.69864 -0.241332
v -0.239959 1.69864 0.241319
v -0.239959 1.69864 0.241319
v 0.242698 1.69864 0.241319
v -0.239959 1.69864 -0.241332
v 0.242698 1.69864 -0.241332
v 1.18534 0 -0.205292
v 1.16367 0.156802 -0.196499
v 0.00136956 1.10872 0.666985
v 0.00136956 1.1525 0.579801

vn 0 0.104675 -0.994141
vn 0 0.767578 -0.640625
vn 0.49707 0.104675 -0.86084
vn 0.554688 0.767578 -0.320313
vn 0 0.104675 -0.994141
vn -0.994141 0.104675 0
vn 0 0.767578 -0.640625
vn -0.640625 0.767578 0
vn -0.994141 0.104675 0
vn -0.76709 0.0950317 0.634277
vn -0.640625 0.767578 0
vn -0.452881 0.767578 0.452881
vn 0 0.767578 0.640625
vn 0 0.104675 0.994141
vn 0 0.767578 0.640625
vn 0 0.104675 0.994141
vn 0.759277 0.103638 0.641602
vn 0.770996 0.103699 0.62793
vn 0 -1 0
vn 0 -1 0
vn 0 -1 0
vn 0 -1 0
vn 0 -1 0
vn 0 -1 0
vn 0 -1 0
vn 0 -1 0
vn 0 -1 0
vn 0 1 0
vn 0 1 0
vn 0 1 0
vn 0 1 0
vn 0.000793457 0.576172 0.816895
vn 0.327393 0.441162 0.835449
vn 1.2517e-006 0.768066 0.640137
vn 0.264404 0.713867 0.647949
vn 0.498291 -0.356445 0.790039
vn 0.546875 0.200928 0.8125
vn 0.120911 -0.546875 0.828125
vn 0.407715 0.252441 0.877441
vn 5.36442e-007 -0.914551 0.403809
vn -0.687988 -0.633301 0.353027
vn 0.000793457 0.576172 0.816895
vn 0.327393 0.441162 0.835449
vn 0.407715 0.252441 0.877441
vn -0.963867 -0.0496826 0.260498
vn -0.467041 -0.400391 0.788086
vn -0.299072 -0.463379 0.833984
vn -0.543457 0.165039 0.822754
vn -0.466064 0.16626 0.868652
vn -0.703613 0.608398 0.365723
vn -0.28418 0.486328 0.826172
vn 0.963867 -0.0496521 0.260498
vn 0.687988 -0.633301 0.353027
vn -0.466064 0.16626 0.868652
vn -0.28418 0.486328 0.826172
vn 0 -0.763184 0.645508
vn -0.687988 -0.710449 -0.146851
vn 2.98023e-007 -0.999512 0.00158405
vn 0 -0.763184 0.645508
vn -0.917969 -0.222534 -0.327148
vn -0.687988 -0.710449 -0.146851
vn -0.917969 -0.222534 -0.327148
vn 0.687988 -0.710449 -0.146851
vn -0.499512 -0.0356445 -0.865234
vn -0.956055 0.292236 0
vn 0 -0.035614 -0.999023
vn 0 0.292236 -0.956055
vn -0.543457 0.165039 0.822754
vn -0.956055 0.292236 0
vn -0.467041 -0.400391 0.788086
vn -0.499512 -0.0356445 -0.865234
vn 1.2517e-006 0.768066 0.640137
vn 0 0.930664 0.364746
vn -0.703613 0.608398 0.365723
vn -0.445313 0.857422 -0.25708
vn -0.665527 0.63916 -0.384277
vn 0 0.63916 -0.768555
vn 0 0.857422 -0.51416
vn -0.445313 0.857422 -0.25708
vn -0.665527 0.63916 -0.384277
vn 0.499512 -0.0356445 -0.865234
vn 0 -0.035614 -0.999023
vn 0.956055 0.292236 0
vn 0 0.292236 -0.956055
vn 0.498291 -0.356445 0.790039
vn 0.499512 -0.0356445 -0.865234
vn 0.546875 0.200928 0.8125
vn 0.956055 0.292236 0
vn 0 0.63916 -0.768555
vn 0.768555 0.63916 0
vn 0.768555 0.63916 0
vn 0.264404 0.713867 0.647949
vn 0 0.857422 -0.51416
vn 0.51416 0.857422 -5.96046e-007
vn 0.51416 0.857422 -5.96046e-007
vn 0 1 -2.38419e-007
vn 0 1 0
vn 0 1 0
vn 0 1 -2.38419e-007
vn 0 1 0
vn 0 1 0
vn 0.860352 0.112488 -0.496582
vn 0.496582 0.112488 -0.860352
vn 0 0.112488 -0.993164
vn 0 0.112488 -0.993164
vn -0.496582 0.112488 -0.860352
vn -0.496582 0.112488 -0.860352
vn 0 0.112488 0.993164
vn -0.496582 0.112488 -0.860352
vn 0 0.112488 0.993164
vn -0.496582 0.112488 -0.860352
vn 0.860352 0.112488 -0.496582
vn 0.496582 0.112488 -0.860352
vn 0 0.0795288 0.996582
vn 0 0.0795288 0.996582
vn 0 0.0795288 0.996582
vn 0 0.0795288 0.996582
vn 0 0.0795288 -0.996582
vn 0 0.0795288 -0.996582
vn 0 0.0795288 -0.996582
vn 0 0.0795288 -0.996582
vn 0.996582 0.0795288 0
vn 0.996582 0.0795288 0
vn 0.996582 0.0795288 0
vn 0.996582 0.0795288 0
vn -0.996582 0.0795288 0
vn -0.996582 0.0795288 0
vn -0.996582 0.0795288 0
vn -0.996582 0.0795288 0
vn 0 1 -5.36442e-007
vn 0 1 -5.36442e-007
vn 0 1 5.36442e-007
vn 0 1 0
vn 0.49707 0.104675 -0.86084
vn 0.554688 0.767578 -0.320313
vn 1.2517e-006 0.768066 0.640137
vn 0 0.930664 0.364746

vt 0.247868 0.610653
vt 0.247868 0.662545
vt 0.126037 0.610653
vt 0.0654116 0.662545
vt 0.521143 0.945977
vt 0.70331 0.945977
vt 0.521143 0.991379
vt 0.70331 0.991379
vt 0.00478589 0.610653
vt 0.126037 0.610653
vt 0.00478625 0.662545
vt 0.126039 0.662545
vt 0.247868 0.662545
vt 0.247868 0.610653
vt 0.521143 0.991379
vt 0.521143 0.945977
vt 0.641841 0.991379
vt 0.642394 0.945977
vt 0.157392 0.679207
vt 0.26374 0.777946
vt 0.157392 0.988854
vt 0.0521724 0.777449
vt 0.263138 0.777361
vt 0.312216 0.988854
vt 0.157392 0.679207
vt 0.0516457 0.777361
vt 0.00256846 0.988854
vt 0.0508038 0.776832
vt 0.157392 0.679207
vt 0.157392 0.988854
vt 0.263678 0.77837
vt 0.350498 0.254731
vt 0.422406 0.251752
vt 0.350498 0.326717
vt 0.422406 0.320713
vt 0.532495 0.320543
vt 0.492831 0.320641
vt 0.532495 0.234161
vt 0.494563 0.250532
vt 0.350498 0.160333
vt 0.422406 0.160333
vt 0.350498 0.254731
vt 0.422406 0.251752
vt 0.494563 0.250532
vt 0.532495 0.160333
vt 0.168501 0.320543
vt 0.168501 0.234024
vt 0.206056 0.310684
vt 0.206056 0.249293
vt 0.273464 0.328834
vt 0.275388 0.252034
vt 0.168501 0.160333
vt 0.275388 0.160333
vt 0.206056 0.249293
vt 0.275388 0.252034
vt 0.542646 0.209814
vt 0.660623 0.176324
vt 0.58378 0.204992
vt 0.542646 0.209814
vt 0.542646 0.589327
vt 0.660623 0.176324
vt 0.601635 0.382825
vt 0.58378 0.204992
vt 0.640418 0.611085
vt 0.638907 0.695206
vt 0.471346 0.611085
vt 0.474067 0.695206
vt 0.820868 0.695552
vt 0.699299 0.6952
vt 0.82214 0.611084
vt 0.696831 0.611084
vt 0.846993 0.975811
vt 0.838216 0.989991
vt 0.815064 0.843732
vt 0.728407 0.933987
vt 0.629639 0.831639
vt 0.492433 0.831639
vt 0.511443 0.933987
vt 0.6201 0.933987
vt 0.713304 0.831625
vt 0.527675 0.611085
vt 0.696831 0.611085
vt 0.529016 0.695206
vt 0.693848 0.695206
vt 0.34583 0.611084
vt 0.471346 0.611084
vt 0.349653 0.714506
vt 0.468671 0.6952
vt 0.675374 0.831639
vt 0.538169 0.831639
vt 0.455345 0.831625
vt 0.350172 0.846274
vt 0.656312 0.933987
vt 0.547665 0.933987
vt 0.439563 0.933987
vt 0.00616585 0.597996
vt 0.0932633 0.424583
vt 0.180361 0.597996
vt 0.180482 0.599021
vt 0.00604503 0.599021
vt 0.0932633 0.424583
vt 0.299028 0.41629
vt 0.299012 0.365038
vt 0.400351 0.41629
vt 0.400352 0.365038
vt 0.501691 0.365038
vt 0.501675 0.41629
vt 0.400351 0.41629
vt 0.265091 0.41629
vt 0.400352 0.365038
vt 0.265091 0.365038
vt 0.535612 0.41629
vt 0.535612 0.365038
vt 0.269092 0.444549
vt 0.356239 0.444549
vt 0.273407 0.560578
vt 0.351924 0.560578
vt 0.351924 0.560578
vt 0.273407 0.560578
vt 0.356239 0.444549
vt 0.269092 0.444549
vt 0.17848 0.444897
vt 0.265627 0.444897
vt 0.182795 0.560926
vt 0.261312 0.560926
vt 0.17848 0.444897
vt 0.265627 0.444897
vt 0.182795 0.560926
vt 0.261312 0.560926
vt 0.443575 0.874657
vt 0.512291 0.874657
vt 0.443575 1.01209
vt 0.512291 1.01209
vt 0.764225 0.945977
vt 0.764225 0.991379
vt 0.320976 0.975811
vt 0.329754 0.989991


#
# MESH 000
#
g surface_000
usemtl surface_000
f 54/54/54 47/47/47 52/52/52
f 99/99/99 100/100/100 101/101/101
f 96/96/96 97/97/97 98/98/98
f 62/62/62 56/56/56 63/63/63
f 59/59/59 60/60/60 61/61/61
f 56/56/56 57/57/57 58/58/58
f 55/55/55 53/53/53 42/42/42
f 54/54/54 53/53/53 51/51/51
f 52/52/52 53/53/53 49/49/49
f 44/44/44 45/45/45 38/38/38
f 45/45/45 39/39/39 41/41/41
f 41/41/41 39/39/39 43/43/43
f 42/42/42 41/41/41 43/43/43
f 136/136/136 92/92/92 137/137/137
f 92/92/92 95/95/95 137/137/137
f 92/92/92 91/91/91 95/95/95
f 87/87/87 91/91/91 92/92/92
f 88/88/88 91/91/91 87/87/87
f 87/87/87 86/86/86 88/88/88
f 85/85/85 86/86/86 87/87/87
f 134/134/134 135/135/135 18/18/18
f 18/18/18 135/135/135 17/17/17
f 17/17/17 16/16/16 18/18/18
f 15/15/15 16/16/16 17/17/17
f 132/132/132 131/131/131 133/133/133
f 130/130/130 131/131/131 132/132/132
f 128/128/128 127/127/127 129/129/129
f 126/126/126 127/127/127 128/128/128
f 124/124/124 123/123/123 125/125/125
f 122/122/122 123/123/123 124/124/124
f 120/120/120 119/119/119 121/121/121
f 118/118/118 119/119/119 120/120/120
f 116/116/116 115/115/115 117/117/117
f 114/114/114 115/115/115 116/116/116
f 112/112/112 110/110/110 113/113/113
f 108/108/108 110/110/110 112/112/112
f 108/108/108 109/109/109 110/110/110
f 110/110/110 109/109/109 111/111/111
f 104/104/104 106/106/106 107/107/107
f 105/105/105 106/106/106 104/104/104
f 104/104/104 103/103/103 105/105/105
f 102/102/102 103/103/103 104/104/104
f 90/90/90 93/93/93 94/94/94
f 89/89/89 93/93/93 90/90/90
f 83/83/83 89/89/89 90/90/90
f 84/84/84 89/89/89 83/83/83
f 83/83/83 82/82/82 84/84/84
f 81/81/81 82/82/82 83/83/83
f 78/78/78 76/76/76 79/79/79
f 77/77/77 76/76/76 78/78/78
f 76/76/76 77/77/77 65/65/65
f 65/65/65 77/77/77 67/67/67
f 66/66/66 65/65/65 67/67/67
f 64/64/64 65/65/65 66/66/66
f 72/72/72 73/73/73 74/74/74
f 73/73/73 75/75/75 74/74/74
f 74/74/74 75/75/75 80/80/80
f 74/74/74 80/80/80 68/68/68
f 68/68/68 80/80/80 69/69/69
f 68/68/68 69/69/69 70/70/70
f 70/70/70 69/69/69 71/71/71
f 32/32/32 53/53/53 40/40/40
f 40/40/40 41/41/41 32/32/32
f 46/46/46 47/47/47 48/48/48
f 48/48/48 47/47/47 49/49/49
f 51/51/51 48/48/48 49/49/49
f 50/50/50 48/48/48 51/51/51
f 50/50/50 51/51/51 34/34/34
f 34/34/34 51/51/51 32/32/32
f 32/32/32 33/33/33 34/34/34
f 34/34/34 33/33/33 35/35/35
f 35/35/35 33/33/33 37/37/37
f 37/37/37 33/33/33 39/39/39
f 38/38/38 37/37/37 39/39/39
f 36/36/36 37/37/37 38/38/38
f 29/29/29 31/31/31 30/30/30
f 28/28/28 29/29/29 30/30/30
f 27/27/27 26/26/26 21/21/21
f 26/26/26 25/25/25 21/21/21
f 25/25/25 23/23/23 21/21/21
f 23/23/23 24/24/24 21/21/21
f 22/22/22 19/19/19 21/21/21
f 19/19/19 20/20/20 21/21/21
f 13/13/13 10/10/10 14/14/14
f 12/12/12 10/10/10 13/13/13
f 11/11/11 10/10/10 12/12/12
f 9/9/9 10/10/10 11/11/11
f 7/7/7 6/6/6 8/8/8
f 5/5/5 6/6/6 7/7/7
f 3/3/3 2/2/2 4/4/4
f 1/1/1 2/2/2 3/3/3

