#
# OBJECT NAME
#
o model_4996
mtllib 4996.mtl

#
# VERTEX BUFFER 000
#
v -0.169892 0.189694 -0.296391
v -0.0957347 0.0233087 -0.358742
v -0.275239 0.0241119 -0.341976
v 0.184158 0.00919979 0.0477871
v 0.0986389 0.00919979 -0.194348
v -0.00379252 0.242227 -0.122052
v 0.106093 0.177922 0.102944
v -0.284018 0.190008 -0.218766
v -0.175044 0.236455 -0.00294902
v -0.0131051 0.177922 0.185483
v -0.363332 0.0153033 -0.174571
v 0.0935572 0.00919979 0.23849
v -0.0944103 0.00919979 0.243073
v -0.267676 0.00591726 0.0603761
v -0.0114617 0.221635 0.0333641
v -0.0304098 0.251443 -0.10774
v -0.105378 0.208647 0.0944731
v -0.202084 0.217535 -0.225576
v -0.184854 0.242186 -0.00687304
v -0.287417 0.0214785 0.0564414
v -0.210323 0.0280815 0.152707
v -0.279854 0.199372 -0.204397
v -0.39046 0.0203464 -0.181481
v 0.393834 0.0269545 0.137126
v 0.0387282 0.023901 -0.208282
v 0.315123 0.0283039 0.341623
v 0.00523252 0.0190801 0.252076
v 0.381241 0.0725596 -0.0374306
v -0.00087625 0.0222223 0.337959
v 0.171286 0.0456478 0.384953
v 0.138325 0.0724911 0.239697
v 0.169279 0.0946318 0.254228
v 0.16068 0.0956423 0.178536
v 0.329032 0.128761 0.215995
v 0.31437 0.134604 0.245918
v 0.346177 0.0850704 0.264115
v 0.352645 0.084397 0.22195
v 0.201961 0.123883 0.190987
v 0.336161 0.137307 0.170533
v 0.349161 0.109066 0.149441
v 0.344661 0.126342 0.132639
v 0.315039 0.0480228 0.306433
v 0.274555 0.130638 0.279772
v 0.308623 0.099243 0.0901434
v 0.30024 0.138415 0.122935
v 0.292911 0.143165 0.158533
v 0.346348 0.0898067 0.0944891
v 0.417069 0.0565048 0.00377848
v 0.444672 0.0565048 -0.000313189
v 0.000313189 0.0565048 -0.444672
v -0.00377848 0.0565048 -0.417069
v -0.0231005 -0.000554 -0.361536
v 0.361536 -0.000554 0.0231005
v 0.000598449 -0.000554 -0.000598449
v 0.00059836 0.00106247 -0.000598566
v -0.0200668 0.0266362 -0.366254
v -0.336924 0.0264469 -0.337089
v -0.428156 0.0565048 0.00730826
v -0.455759 0.0565048 0.0113999
v -0.0113999 0.0565048 0.455759
v -0.00730826 0.0565048 0.428156
v -0.439213 0.0233589 0.00664347
v -0.372623 -0.000554 -0.0120138
v 0.0120138 -0.000554 0.372623
v -0.00664347 0.0233589 0.439213
v -0.0113999 0.0565048 0.455759
v -0.455759 0.0565048 0.0113999
v 0.444672 0.0565048 -0.000313189
v 0.428126 0.0233589 0.00444328
v -0.00444328 0.0233589 -0.428126
v 0.000313189 0.0565048 -0.444672
v 0.366321 0.0267448 0.0200559
v 0.00896918 0.0267448 0.377408
v -0.37734 0.0266362 -0.00898007
v 0.330663 -0.000554 0.329466
v 0.0120138 -0.000554 0.372623
v -0.372623 -0.000554 -0.0120138
v -0.37734 0.0266362 -0.00898007
v -0.428156 0.0565048 0.00730826
v -0.00730826 0.0565048 0.428156
v 0.00896918 0.0267448 0.377408
v 0.366321 0.0267448 0.0200559
v 0.417069 0.0565048 0.00377848
v -0.00377848 0.0565048 -0.417069
v -0.0200668 0.0266362 -0.366254
v -0.373088 0.0565048 -0.374285
v -0.336924 0.0264469 -0.337089
v 0.337095 0.0264595 0.33693
v 0.383771 0.0229531 0.382574
v 0.397216 0.0565048 0.396019
v -0.329466 -0.000554 -0.330663
v -0.382574 0.0229531 -0.383771
v -0.396019 0.0565048 -0.397216
v 0.397216 0.0565048 0.396019
v 0.383771 0.0229531 0.382574
v -0.0231005 -0.000554 -0.361536
v -0.329466 -0.000554 -0.330663
v 0.330663 -0.000554 0.329466
v -0.396019 0.0565048 -0.397216
v -0.373088 0.0565048 -0.374285
v -0.396019 0.0565048 -0.397216
v -0.382574 0.0229531 -0.383771
v 0.374286 0.0565048 0.373089
v 0.397216 0.0565048 0.396019
v 0.337095 0.0264595 0.33693
v 0.374286 0.0565048 0.373089
v -0.329466 -0.000554 -0.330663
v -0.396019 0.0565048 -0.397216
v -0.373088 0.0565048 -0.374285
v -0.373088 0.0565048 -0.374285
v -0.336924 0.0264469 -0.337089
v 0.330663 -0.000554 0.329466
v 0.361536 -0.000554 0.0231005
v 0.374286 0.0565048 0.373089
v 0.397216 0.0565048 0.396019
v 0.337095 0.0264595 0.33693
v 0.374286 0.0565048 0.373089
v 0.361536 -0.000554 0.0231005
v -0.0231005 -0.000554 -0.361536

vn 0.24231 0.678223 -0.693359
vn 0.511719 0.265137 -0.816895
vn -0.552246 0.207275 -0.807129
vn 0.972168 0.218872 -0.0783081
vn 0.788086 0.25293 -0.560547
vn 0.528809 0.760742 -0.375244
vn 0.762695 0.633789 0.126221
vn -0.762695 0.645508 -0.0352478
vn -0.570313 0.740234 0.355225
vn -0.196411 0.64502 0.738281
vn -0.968262 0.194824 0.153809
vn 0.535156 0.174561 0.826172
vn -0.498047 0.237793 0.833496
vn -0.833008 0.255127 0.490723
vn -0.44165 0.79248 0.420166
vn -0.103333 0.983887 -0.143066
vn -0.458252 0.771484 0.440674
vn -0.727539 0.668457 -0.150269
vn -0.579102 0.744629 0.331543
vn -0.0397644 0.998047 0.0380249
vn -0.00817871 0.984863 0.172241
vn -0.75293 0.655762 -0.0487671
vn -0.107117 0.958496 -0.262451
vn -0.269043 0.955078 0.121094
vn 0 1 0
vn 0 1 0
vn 0.00912476 0.999512 -0.0224915
vn -0.730469 0.516602 0.445801
vn 0 1 0
vn 0 1 0
vn -0.799805 0.599609 -0.00670624
vn -0.364258 0.555664 0.74707
vn -0.842285 0.523438 -0.124817
vn 0.564941 0.814453 0.129395
vn 0.54248 0.770996 0.332275
vn 0.628418 0.606934 0.48584
vn 0.618164 0.670898 0.408203
vn -0.531738 0.842285 -0.081665
vn 0.57666 0.809082 -0.110168
vn 0.657227 0.685059 -0.313232
vn 0.559082 0.68457 -0.466797
vn 0.625977 0.427979 0.651367
vn 0.460205 0.63623 0.618652
vn 0.543945 0.473877 -0.691895
vn 0.437744 0.78418 -0.439453
vn 0.320313 0.920898 -0.220825
vn 0.664551 0.382568 -0.641602
vn 0 1 0
vn 0.86377 -0.404297 -0.300049
vn 0.304199 -0.404053 -0.862305
vn 0 1 0
vn 0 -1 0
vn 0 -1 0
vn 0 -1 0
vn -0.00152683 0.999512 0.00144196
vn -0.255615 0.76709 0.587891
vn 0.420654 0.803711 0.420654
vn 0 1 0
vn -0.86377 -0.404297 0.300049
vn -0.304199 -0.404053 0.862305
vn 0 1 0
vn -0.607422 -0.749023 0.262939
vn -0.350342 -0.921875 0.163574
vn -0.163818 -0.921875 0.350342
vn -0.264648 -0.749023 0.606934
vn -0.304199 -0.404053 0.862305
vn -0.86377 -0.404297 0.300049
vn 0.86377 -0.404297 -0.300049
vn 0.607422 -0.749023 -0.262939
vn 0.264648 -0.749023 -0.606934
vn 0.304199 -0.404053 -0.862305
vn -0.588867 0.769043 0.246948
vn 0.248413 0.769043 -0.588379
vn 0.588867 0.769043 -0.24707
vn 0 -1 0
vn 0 -1 0
vn 0 -1 0
vn 0.588867 0.769043 -0.24707
vn 0.751465 0.582031 -0.30957
vn 0.313232 0.582031 -0.75
vn 0.248413 0.769043 -0.588379
vn -0.588867 0.769043 0.246948
vn -0.750977 0.58252 0.30957
vn -0.313232 0.582031 0.75
vn -0.255615 0.76709 0.587891
vn 0.518555 0.679199 0.518555
vn 0.420654 0.803711 0.420654
vn -0.42041 0.803711 -0.42041
vn 0.383057 -0.840332 0.383057
vn 0.0161133 -0.420166 0.907227
vn 0 -1 0
vn -0.383057 -0.840332 -0.383057
vn 0.00891876 -0.41626 -0.908691
vn 0.908691 -0.41626 -0.00891876
vn 0.383057 -0.840332 0.383057
vn 0.163818 -0.921875 -0.350342
vn -0.234741 -0.942871 -0.234741
vn 0.234741 -0.942871 0.234741
vn 0 1 0
vn 0 1 0
vn -0.907227 -0.420166 -0.0161133
vn -0.383057 -0.840332 -0.383057
vn 0 1 0
vn 0 1 0
vn -0.42041 0.803711 -0.42041
vn -0.518555 0.679199 -0.518555
vn -0.234741 -0.942871 -0.234741
vn 0 1 0
vn 0 1 0
vn 0.518555 0.679199 0.518555
vn 0.420654 0.803711 0.420654
vn 0.234741 -0.942871 0.234741
vn 0.350342 -0.921875 -0.163574
vn 0 1 0
vn 0 1 0
vn -0.42041 0.803711 -0.42041
vn -0.518555 0.679199 -0.518555
vn 0 -1 0
vn 0 -1 0

vt 0.513185 0.712216
vt 0.54433 0.62801
vt 0.643727 0.740814
vt 0.12364 0.635239
vt 0.334604 0.551597
vt 0.334739 0.687097
vt 0.155884 0.715681
vt 0.512819 0.818218
vt 0.333952 0.846854
vt 0.155524 0.821674
vt 0.545071 0.898645
vt 0.0250075 0.79253
vt 0.124358 0.90585
vt 0.334078 0.982353
vt 0.987495 0.332835
vt 0.94966 0.436079
vt 0.959567 0.301424
vt 0.834017 0.46848
vt 0.909742 0.35132
vt 0.852171 0.293184
vt 0.889693 0.242902
vt 0.818721 0.454077
vt 0.768796 0.404913
vt 0.904673 0.172027
vt 0.702014 0.324891
vt 0.898058 0.0341169
vt 0.705564 0.10181
vt 0.869368 0.24172
vt 0.705541 0.0443481
vt 0.818819 0.00823164
vt 0.133868 0.546836
vt 0.118689 0.580478
vt 0.0460147 0.546247
vt 0.708421 0.984433
vt 0.667712 0.98426
vt 0.67384 0.924801
vt 0.700155 0.937932
vt 0.0465378 0.607692
vt 0.00934362 0.932982
vt 0.0489224 0.933316
vt 0.0681913 0.959779
vt 0.610669 0.893279
vt 0.605008 0.983993
vt 0.112968 0.987036
vt 0.0544523 0.986601
vt 0.0146921 0.986305
vt 0.118705 0.945762
vt 0.183657 0.0867323
vt 0.181364 0.101792
vt 0.513954 0.101792
vt 0.511669 0.0867323
vt 0.295763 0.510565
vt 0.110131 0.514432
vt 0.201679 0.454711
vt 0.627047 0.498332
vt 0.480268 0.553501
vt 0.412165 0.44077
vt 0.511669 0.265888
vt 0.513954 0.27936
vt 0.181364 0.27936
vt 0.183657 0.265888
vt 0.514101 0.302148
vt 0.507929 0.347262
vt 0.187433 0.347262
vt 0.18121 0.302148
vt 0.181364 0.27936
vt 0.513954 0.27936
vt 0.181364 0.101792
vt 0.18121 0.12458
vt 0.514101 0.12458
vt 0.513954 0.101792
vt 0.726617 0.619531
vt 0.775406 0.437451
vt 0.529045 0.37146
vt 0.040787 0.458063
vt 0.107596 0.398857
vt 0.293228 0.39499
vt 0.512354 0.226049
vt 0.511669 0.265888
vt 0.183657 0.265888
vt 0.183022 0.226049
vt 0.183022 0.0484821
vt 0.183657 0.0867323
vt 0.511669 0.0867323
vt 0.509444 0.0484821
vt 0.678858 0.0867323
vt 0.678858 0.0484821
vt 0.841953 0.555931
vt 0.016082 0.302148
vt 0.016082 0.27936
vt 0.362572 0.451359
vt 0.678858 0.12458
vt 0.678858 0.101792
vt 0.016082 0.101792
vt 0.016082 0.12458
vt 0.507929 0.169694
vt 0.678858 0.169694
vt 0.016082 0.347262
vt 0.678858 0.101792
vt 0.678858 0.0867323
vt 0.678858 0.27936
vt 0.678858 0.302148
vt 0.016082 0.0867323
vt 0.016082 0.101792
vt 0.016082 0.0487676
vt 0.016082 0.0867323
vt 0.678858 0.347262
vt 0.678858 0.27936
vt 0.678858 0.265888
vt 0.678858 0.265888
vt 0.678858 0.226049
vt 0.016082 0.169694
vt 0.187433 0.169694
vt 0.016082 0.265888
vt 0.016082 0.27936
vt 0.016082 0.226335
vt 0.016082 0.265888
vt 0.187433 0.169694
vt 0.507929 0.169694


#
# VERTEX BUFFER 001
#
v 0.217393 0.120524 0.290697
v 0.0748102 0.0199526 0.288627
v 0.166353 0.0199526 0.35974
v 0.171362 0.0199526 -0.0658989
v 0.137739 0.0199526 0.13051
v 0.227787 0.151912 0.10412
v 0.302103 0.151846 0.240746
v 0.368237 0.0199526 0.270084
v 0.343783 0.125674 0.133005
v 0.302103 0.151846 0.240746
v 0.227787 0.151912 0.10412
v 0.217393 0.120524 0.290697
v 0.302103 0.151846 0.240746
v 0.343783 0.125674 0.133005
v 0.227787 0.151912 0.10412
v 0.227787 0.151912 0.10412
v 0.137739 0.0199526 0.13051
v 0.0748102 0.0199526 0.288627
v 0.227787 0.151912 0.10412
v 0.353449 0.0199526 0.0384204
v 0.171362 0.0199526 -0.0658989
v 0.343783 0.125674 0.133005
v 0.368237 0.0199526 0.270084
v 0.353449 0.0199526 0.0384204
v 0.166353 0.0199526 0.35974
v 0.26568 0.0199526 0.366167
v 0.217393 0.120524 0.290697
v 0.343783 0.125674 0.133005
v 0.302103 0.151846 0.240746
v 0.26568 0.0199526 0.366167
v 0.368237 0.0199526 0.270084
v 0.0748102 0.0199526 0.288627
v 0.217393 0.120524 0.290697
v 0.227787 0.151912 0.10412
v 0.217393 0.120524 0.290697
v 0.26568 0.0199526 0.366167
v 0.302103 0.151846 0.240746

vn -0.333252 0.72998 0.596191
vn -0.8125 0.54248 0.21228
vn -0.369873 0.445068 0.814941
vn 0.126953 0.688477 -0.713379
vn -0.90918 0.390381 -0.143799
vn -0.255615 0.88623 -0.385498
vn 0.382568 0.815918 0.432861
vn 0.772461 0.393799 0.497559
vn 0.66748 0.675781 -0.311035
vn 0.382568 0.815918 0.432861
vn -0.255615 0.88623 -0.385498
vn -0.333252 0.72998 0.596191
vn 0.382568 0.815918 0.432861
vn 0.66748 0.675781 -0.311035
vn -0.255615 0.88623 -0.385498
vn -0.255615 0.88623 -0.385498
vn -0.90918 0.390381 -0.143799
vn -0.8125 0.54248 0.21228
vn -0.255615 0.88623 -0.385498
vn 0.724609 0.302979 -0.618164
vn 0.126953 0.688477 -0.713379
vn 0.66748 0.675781 -0.311035
vn 0.772461 0.393799 0.497559
vn 0.724609 0.302979 -0.618164
vn -0.369873 0.445068 0.814941
vn 0.161011 0.45166 0.877441
vn -0.333252 0.72998 0.596191
vn 0.66748 0.675781 -0.311035
vn 0.382568 0.815918 0.432861
vn 0.161011 0.45166 0.877441
vn 0.772461 0.393799 0.497559
vn -0.8125 0.54248 0.21228
vn -0.333252 0.72998 0.596191
vn -0.255615 0.88623 -0.385498
vn -0.333252 0.72998 0.596191
vn 0.161011 0.45166 0.877441
vn 0.382568 0.815918 0.432861

vt 0.836093 0.865825
vt 0.96559 0.909514
vt 0.871185 0.976028
vt 0.913964 0.598176
vt 0.995787 0.753738
vt 0.850543 0.714915
vt 0.775402 0.819307
vt 0.688903 0.860851
vt 0.773245 0.743537
vt 0.775402 0.819307
vt 0.850543 0.714915
vt 0.836093 0.865825
vt 0.775402 0.819307
vt 0.773245 0.743537
vt 0.850543 0.714915
vt 0.850543 0.714915
vt 0.995787 0.753738
vt 0.96559 0.909514
vt 0.850543 0.714915
vt 0.761958 0.657739
vt 0.913964 0.598176
vt 0.773245 0.743537
vt 0.688903 0.860851
vt 0.761958 0.657739
vt 0.871185 0.976028
vt 0.769859 0.964646
vt 0.836093 0.865825
vt 0.773245 0.743537
vt 0.775402 0.819307
vt 0.769859 0.964646
vt 0.688903 0.860851
vt 0.96559 0.909514
vt 0.836093 0.865825
vt 0.850543 0.714915
vt 0.836093 0.865825
vt 0.769859 0.964646
vt 0.775402 0.819307


#
# MESH 000
#
g surface_000
usemtl surface_000
f 9/9/9 11/11/11 14/14/14
f 9/9/9 8/8/8 11/11/11
f 11/11/11 8/8/8 3/3/3
f 8/8/8 1/1/1 3/3/3
f 1/1/1 2/2/2 3/3/3
f 5/5/5 2/2/2 1/1/1
f 10/10/10 9/9/9 14/14/14
f 7/7/7 9/9/9 10/10/10
f 7/7/7 6/6/6 9/9/9
f 6/6/6 8/8/8 9/9/9
f 6/6/6 1/1/1 8/8/8
f 5/5/5 1/1/1 6/6/6
f 4/4/4 5/5/5 6/6/6
f 4/4/4 6/6/6 7/7/7
f 12/12/12 4/4/4 7/7/7
f 12/12/12 7/7/7 10/10/10
f 12/12/12 10/10/10 13/13/13
f 10/10/10 14/14/14 13/13/13
f 22/22/22 23/23/23 20/20/20
f 22/22/22 20/20/20 19/19/19
f 18/18/18 22/22/22 19/19/19
f 16/16/16 18/18/18 19/19/19
f 17/17/17 16/16/16 19/19/19
f 15/15/15 16/16/16 17/17/17
f 19/19/19 20/20/20 21/21/21
f 17/17/17 19/19/19 21/21/21
f 26/26/26 29/29/29 30/30/30
f 26/26/26 27/27/27 29/29/29
f 26/26/26 25/25/25 27/27/27
f 24/24/24 25/25/25 26/26/26
f 28/28/28 25/25/25 24/24/24
f 42/42/42 36/36/36 43/43/43
f 43/43/43 36/36/36 35/35/35
f 34/34/34 35/35/35 36/36/36
f 34/34/34 36/36/36 37/37/37
f 32/32/32 38/38/38 33/33/33
f 31/31/31 32/32/32 33/33/33
f 46/46/46 41/41/41 45/45/45
f 39/39/39 41/41/41 46/46/46
f 39/39/39 40/40/40 41/41/41
f 47/47/47 41/41/41 40/40/40
f 47/47/47 44/44/44 41/41/41
f 44/44/44 45/45/45 41/41/41
f 70/70/70 118/118/118 119/119/119
f 70/70/70 69/69/69 118/118/118
f 68/68/68 69/69/69 70/70/70
f 68/68/68 95/95/95 69/69/69
f 69/69/69 95/95/95 112/112/112
f 69/69/69 112/112/112 113/113/113
f 68/68/68 70/70/70 71/71/71
f 70/70/70 93/93/93 71/71/71
f 70/70/70 92/92/92 93/93/93
f 96/96/96 92/92/92 70/70/70
f 96/96/96 97/97/97 92/92/92
f 68/68/68 94/94/94 95/95/95
f 116/116/116 80/80/80 117/117/117
f 116/116/116 81/81/81 80/80/80
f 78/78/78 80/80/80 81/81/81
f 78/78/78 79/79/79 80/80/80
f 110/110/110 79/79/79 78/78/78
f 110/110/110 78/78/78 111/111/111
f 60/60/60 115/115/115 114/114/114
f 60/60/60 114/114/114 61/61/61
f 59/59/59 60/60/60 61/61/61
f 59/59/59 61/61/61 58/58/58
f 59/59/59 58/58/58 109/109/109
f 59/59/59 109/109/109 108/108/108
f 102/102/102 107/107/107 63/63/63
f 102/102/102 63/63/63 62/62/62
f 62/62/62 101/101/101 102/102/102
f 62/62/62 67/67/67 101/101/101
f 65/65/65 67/67/67 62/62/62
f 65/65/65 66/66/66 67/67/67
f 89/89/89 66/66/66 65/65/65
f 89/89/89 90/90/90 66/66/66
f 62/62/62 63/63/63 64/64/64
f 62/62/62 64/64/64 65/65/65
f 65/65/65 64/64/64 98/98/98
f 65/65/65 98/98/98 89/89/89
f 82/82/82 105/105/105 106/106/106
f 82/82/82 106/106/106 83/83/83
f 82/82/82 83/83/83 84/84/84
f 82/82/82 84/84/84 85/85/85
f 84/84/84 87/87/87 85/85/85
f 84/84/84 86/86/86 87/87/87
f 49/49/49 103/103/103 104/104/104
f 49/49/49 48/48/48 103/103/103
f 49/49/49 51/51/51 48/48/48
f 49/49/49 50/50/50 51/51/51
f 50/50/50 100/100/100 51/51/51
f 50/50/50 99/99/99 100/100/100
f 88/88/88 55/55/55 73/73/73
f 55/55/55 88/88/88 72/72/72
f 56/56/56 55/55/55 72/72/72
f 55/55/55 56/56/56 57/57/57
f 74/74/74 55/55/55 57/57/57
f 73/73/73 55/55/55 74/74/74
f 54/54/54 91/91/91 52/52/52
f 54/54/54 77/77/77 91/91/91
f 54/54/54 76/76/76 77/77/77
f 76/76/76 54/54/54 75/75/75
f 54/54/54 53/53/53 75/75/75
f 52/52/52 53/53/53 54/54/54

#
# MESH 001
#
g surface_001
usemtl surface_001
f 154/154/154 155/155/155 156/156/156
f 151/151/151 152/152/152 153/153/153
f 148/148/148 149/149/149 150/150/150
f 144/144/144 145/145/145 146/146/146
f 141/141/141 142/142/142 143/143/143
f 135/135/135 136/136/136 137/137/137
f 132/132/132 133/133/133 134/134/134
f 129/129/129 130/130/130 131/131/131
f 126/126/126 127/127/127 128/128/128
f 123/123/123 124/124/124 125/125/125
f 120/120/120 121/121/121 122/122/122
f 147/147/147 139/139/139 138/138/138
f 138/138/138 139/139/139 140/140/140

