#
# OBJECT NAME
#
o model_2828
mtllib 2828.mtl

#
# VERTEX BUFFER 000
#
v -0.180752 0.304282 -0.248783
v -5.47357e-005 0.306862 3.98736e-005
v 0 0.304282 -0.307513
v -5.47357e-005 0.306862 3.98736e-005
v 0.180752 0.304282 0.248783
v 0.292462 0.304282 0.0950268
v -5.47357e-005 0.306862 3.98736e-005
v 0.292462 0.304282 0.0950268
v 0.292462 0.304282 -0.0950272
v -5.47357e-005 0.306862 3.98736e-005
v 0.292462 0.304282 -0.0950272
v 0.180752 0.304282 -0.248784
v -5.47357e-005 0.306862 3.98736e-005
v -0.390559 0.136826 0
v -0.292462 0.304282 0.0950272
v -0.292462 0.304282 -0.0950268
v 0.120689 0.136826 -0.371443
v 0.315968 0.136826 -0.229564
v 0.390559 0.136826 0
v 0.315968 0.136826 0.229564
v 0 0.304282 0.307513
v 0.120689 0.136826 0.371443
v -0.180752 0.304282 0.248784
v -0.120689 0.136826 0.371443
v -0.292462 0.304282 0.0950272
v -0.315968 0.136826 0.229564
v -0.292462 0.304282 -0.0950268
v -0.315968 0.136826 -0.229564
v -0.120689 0.136826 -0.371443
v -5.47357e-005 0.306862 3.98736e-005
v -5.47357e-005 0.306862 3.98736e-005
v -5.47357e-005 0.306862 3.98736e-005
v -5.47357e-005 0.306862 3.98736e-005
v -0.27073 0.16561 -0.372628
v -0.120689 0.136826 -0.371443
v -4.24404e-005 0.263871 1.80028e-005
v -0.438051 0.16561 -0.142331
v -0.315968 0.136826 -0.229564
v -4.24404e-005 0.263871 1.80028e-005
v -0.43805 0.16561 0.142331
v -0.390559 0.136826 0
v -4.24404e-005 0.263871 1.80028e-005
v 0 0.16561 0.460593
v -0.120689 0.136826 0.371443
v -4.24404e-005 0.263871 1.80028e-005
v 0.27073 0.16561 0.372628
v 0.120689 0.136826 0.371443
v -4.24404e-005 0.263871 1.80028e-005
v 0.27073 0.16561 -0.372628
v 0.315968 0.136826 -0.229564
v -4.24404e-005 0.263871 1.80028e-005
v 0.43805 0.16561 -0.142331
v 0.390559 0.136826 0
v 0.43805 0.16561 0.142331
v 0.315968 0.136826 0.229564
v -4.24404e-005 0.263871 1.80028e-005
v 0 0.16561 -0.460593
v 0.120689 0.136826 -0.371443
v -0.27073 0.16561 0.372628
v -0.315968 0.136826 0.229564
v -4.24404e-005 0.263871 1.80028e-005
v -4.24404e-005 0.263871 1.80028e-005
v 0.390559 0.136826 0
v -4.24404e-005 0.263871 1.80028e-005
v -0.390559 0.136826 0
v 0.43805 0.16561 -0.142331
v 0.43805 0.16561 -0.142331
v 0.27073 0.16561 -0.372628
v 0 0.16561 -0.460593
v -0.27073 0.16561 -0.372628
v -0.438051 0.16561 -0.142331
v -0.390559 0.136826 0
v -0.438051 0.16561 -0.142331
v -0.43805 0.16561 0.142331
v -0.43805 0.16561 0.142331
v -0.27073 0.16561 0.372628
v 0 0.16561 0.460593
v 0.27073 0.16561 0.372628
v 0.43805 0.16561 0.142331
v 0.43805 0.16561 0.142331
v 0.147452 0 -0.250712
v -0.147452 0 -0.250712
v -0.147452 0.0520151 -0.250712
v 0.147452 0.0520151 -0.250712
v -0.147452 0 -0.250712
v -0.293868 0 0
v -0.293868 0.0520151 0
v -0.147452 0.0520151 -0.250712
v -0.293868 0 0
v -0.147452 0 0.250712
v -0.147452 0.0520151 0.250712
v -0.293868 0.0520151 0
v -0.147452 0 0.250712
v 0.147452 0 0.250712
v 0.147452 0.0520151 0.250712
v -0.147452 0.0520151 0.250712
v 0.147452 0 0.250712
v 0.293868 0 0
v 0.293868 0.0520151 0
v 0.147452 0.0520151 0.250712
v 0.147452 0 -0.250712
v 0.147452 0.0520151 -0.250712
v -0.147452 0 -0.250712
v 0.147452 0 -0.250712
v 0.293868 0 0
v -0.293868 0 0
v 0.147452 0 0.250712
v -0.147452 0 0.250712
v 0.147452 0.0520151 -0.250712
v -0.147452 0.0520151 -0.250712
v -0.127605 0.0520151 -0.216967
v 0.127605 0.0520151 -0.216967
v -0.293868 0.0520151 0
v -0.254314 0.0520151 0
v -0.293868 0.0520151 0
v -0.147452 0.0520151 0.250712
v -0.127605 0.0520151 0.216967
v -0.254314 0.0520151 0
v 0.147452 0.0520151 0.250712
v 0.127605 0.0520151 0.216967
v 0.293868 0.0520151 0
v 0.254314 0.0520151 0
v -0.127605 0.0520151 -0.216967
v -0.254314 0.0520151 0
v -0.283352 0.159605 0
v -0.142176 0.159605 -0.241741
v -0.254314 0.0520151 0
v -0.127605 0.0520151 0.216967
v -0.142176 0.159605 0.241741
v -0.283352 0.159605 0
v -0.127605 0.0520151 0.216967
v 0.127605 0.0520151 0.216967
v 0.142176 0.159605 0.241741
v -0.142176 0.159605 0.241741
v 0.127605 0.0520151 0.216967
v 0.254314 0.0520151 0
v 0.283352 0.159605 0
v 0.142176 0.159605 0.241741
v 0.127605 0.0520151 -0.216967
v 0.142176 0.159605 -0.241741
v 0.127605 0.0520151 -0.216967
v -0.127605 0.0520151 -0.216967
v -0.142176 0.159605 -0.241741
v 0.142176 0.159605 -0.241741
v 0.127076 0.285362 -0.216066
v 0.253258 0.285362 0
v 0.283352 0.159605 0
v 0.142176 0.159605 -0.241741
v 0.127076 0.285362 0.216066
v 0.142176 0.159605 0.241741
v 0.127076 0.285362 0.216066
v -0.127203 0.285362 0.216181
v -0.142176 0.159605 0.241741
v 0.142176 0.159605 0.241741
v -0.127203 0.285362 0.216181
v -0.253258 0.285362 0
v -0.283352 0.159605 0
v -0.142176 0.159605 0.241741
v -0.253258 0.285362 0
v -0.127076 0.285362 -0.216066
v -0.142176 0.159605 -0.241741
v -0.283352 0.159605 0
v -0.127076 0.285362 -0.216066
v 0.127076 0.285362 -0.216066
v 0.142176 0.159605 -0.241741
v -0.142176 0.159605 -0.241741
v 0.0998517 0.273842 -0.169053
v -0.0998517 0.273842 -0.169053
v -0.147768 0.374359 -0.250178
v 0.147768 0.374359 -0.250178
v -0.0998517 0.273842 -0.169053
v -0.195711 0.273842 0
v -0.289628 0.374359 0
v -0.147768 0.374359 -0.250178
v -0.195711 0.273842 0
v -0.0999915 0.273845 0.169178
v -0.147768 0.374359 0.250178
v -0.289628 0.374359 0
v 0.0998517 0.273842 0.169053
v 0.147768 0.374359 0.250178
v 0.0998517 0.273842 0.169053
v 0.195711 0.273842 0
v 0.289628 0.374359 0
v 0.147768 0.374359 0.250178
v 0.0998517 0.273842 -0.169053
v 0.147768 0.374359 -0.250178
v -0.172246 0.536036 -0.291619
v 0.172246 0.536036 -0.291619
v -0.337605 0.536036 0
v -0.172246 0.536036 -0.291619
v -0.172246 0.536036 0.291619
v -0.337605 0.536036 0
v 0.172246 0.536036 0.291619
v 0.337605 0.536036 0
v 0.172246 0.536036 0.291619
v 0.172246 0.536036 -0.291619
v -0.147768 0.697713 -0.250178
v 0.147768 0.697713 -0.250178
v -0.289628 0.697713 0
v -0.147768 0.697713 -0.250178
v -0.147768 0.697713 0.250178
v -0.289628 0.697713 0
v 0.147768 0.697713 0.250178
v 0.289628 0.697713 0
v 0.147768 0.697713 0.250178
v 0.147768 0.697713 -0.250178
v -0.0938559 0.81135 -0.158902
v 0.0938559 0.81135 -0.158902
v -0.183959 0.81135 0
v -0.0938559 0.81135 -0.158902
v -0.0938559 0.81135 0.158902
v -0.183959 0.81135 0
v 0.0938559 0.81135 0.158902
v 0.183959 0.81135 0
v 0.0938559 0.81135 0.158902
v 0.0938559 0.81135 -0.158902
v -0.0998517 0.273842 -0.169053
v 0.0998517 0.273842 -0.169053
v 0 0.198431 0
v -0.195711 0.273842 0
v -0.0998517 0.273842 -0.169053
v 0 0.198431 0
v -0.0999915 0.273845 0.169178
v -0.195711 0.273842 0
v 0 0.198431 0
v 0.0998517 0.273842 0.169053
v 0 0.198431 0
v 0.195711 0.273842 0
v 0.0998517 0.273842 0.169053
v 0 0.198431 0
v 0.0998517 0.273842 -0.169053
v 0 0.198431 0
v 0.0938559 0.81135 -0.158902
v -0.0938559 0.81135 -0.158902
v 0 0.873641 0
v -0.0938559 0.81135 -0.158902
v -0.183959 0.81135 0
v 0 0.873641 0
v -0.183959 0.81135 0
v -0.0938559 0.81135 0.158902
v 0 0.873641 0
v 0.0938559 0.81135 0.158902
v 0 0.873641 0
v 0.0938559 0.81135 0.158902
v 0.183959 0.81135 0
v 0 0.873641 0
v 0.0938559 0.81135 -0.158902
v 0 0.873641 0

vn -0.240234 0.912598 -0.330566
vn -7.15256e-007 1 5.36442e-007
vn -1.19209e-007 0.912598 -0.408691
vn -7.15256e-007 1 5.36442e-007
vn 0.240234 0.912598 0.330566
vn 0.388672 0.912598 0.126221
vn -7.15256e-007 1 5.36442e-007
vn 0.388672 0.912598 0.126221
vn 0.388672 0.912598 -0.126221
vn -7.15256e-007 1 5.36442e-007
vn 0.388672 0.912598 -0.126221
vn 0.240112 0.912598 -0.330566
vn -7.15256e-007 1 5.36442e-007
vn -0.793457 0.608398 2.38419e-006
vn -0.388672 0.912598 0.126221
vn -0.388672 0.912598 -0.126221
vn 0.245117 0.608398 -0.754395
vn 0.641602 0.608398 -0.466309
vn 0.793457 0.608398 -1.78814e-007
vn 0.641602 0.608398 0.466309
vn 5.96046e-007 0.912598 0.408691
vn 0.245117 0.608398 0.754395
vn -0.240234 0.912598 0.330566
vn -0.245117 0.608398 0.754395
vn -0.388672 0.912598 0.126221
vn -0.641602 0.608398 0.466309
vn -0.388672 0.912598 -0.126221
vn -0.641602 0.608398 -0.466309
vn -0.245117 0.608398 -0.754395
vn -7.15256e-007 1 5.36442e-007
vn -7.15256e-007 1 5.36442e-007
vn -7.15256e-007 1 5.36442e-007
vn -7.15256e-007 1 5.36442e-007
vn 0.122559 -0.977539 0.168701
vn 0.0955811 -0.950684 0.293945
vn 6.19888e-006 -1 -2.563e-006
vn 0.198364 -0.977539 0.0644531
vn 0.250244 -0.950684 0.181763
vn 6.19888e-006 -1 -2.563e-006
vn 0.198364 -0.977539 -0.0644531
vn 0.309326 -0.950684 -8.28505e-006
vn 6.19888e-006 -1 -2.563e-006
vn -3.21865e-005 -0.977539 -0.208618
vn 0.0955811 -0.950684 -0.294189
vn 6.19888e-006 -1 -2.563e-006
vn -0.12262 -0.977539 -0.168701
vn -0.09552 -0.950684 -0.294189
vn 6.19888e-006 -1 -2.563e-006
vn -0.12262 -0.977539 0.168701
vn -0.25 -0.950684 0.181763
vn 6.19888e-006 -1 -2.563e-006
vn -0.198364 -0.977539 0.0644531
vn -0.309082 -0.950684 -6.85453e-006
vn -0.198364 -0.977539 -0.0643921
vn -0.25 -0.950684 -0.181763
vn 6.19888e-006 -1 -2.563e-006
vn -3.21865e-005 -0.977539 0.208618
vn -0.09552 -0.950684 0.293945
vn 0.12262 -0.977539 -0.168701
vn 0.250244 -0.950684 -0.181763
vn 6.19888e-006 -1 -2.563e-006
vn 6.19888e-006 -1 -2.563e-006
vn -0.309082 -0.950684 -6.85453e-006
vn 6.19888e-006 -1 -2.563e-006
vn 0.309326 -0.950684 -8.28505e-006
vn 0.638184 0.740723 -0.207397
vn 0.638184 0.740723 -0.207397
vn 0.394531 0.740723 -0.542969
vn 0 0.740723 -0.670898
vn -0.394531 0.740723 -0.542969
vn -0.638184 0.740723 -0.207397
vn -0.793457 0.608398 2.38419e-006
vn -0.638184 0.740723 -0.207397
vn -0.638184 0.740723 0.207397
vn -0.638184 0.740723 0.207397
vn -0.394531 0.740723 0.542969
vn 0 0.740723 0.670898
vn 0.394531 0.740723 0.542969
vn 0.638184 0.740723 0.207397
vn 0.638184 0.740723 0.207397
vn 0.308838 0 -0.950684
vn -0.308838 0 -0.950684
vn -0.308838 0 -0.950684
vn 0.308838 0 -0.950684
vn -0.808594 0 -0.587402
vn -1 0 0
vn -1 0 0
vn -0.808594 0 -0.587402
vn -1 0 0
vn -0.808594 0 0.587402
vn -0.808594 0 0.587402
vn -1 0 0
vn -0.308838 0 0.950684
vn 0.308838 0 0.950684
vn 0.308838 0 0.950684
vn -0.308838 0 0.950684
vn 0.808594 0 0.587402
vn 1 0 0
vn 1 0 0
vn 0.808594 0 0.587402
vn 0.808594 0 -0.587402
vn 0.808594 0 -0.587402
vn 0 -1 0
vn 0 -1 0
vn 0 -1 0
vn 0 -1 0
vn 0 -1 0
vn 0 -1 0
vn 0 1 0
vn 0 1 0
vn 0 1 0
vn 0 1 0
vn 0 1 0
vn 0 1 0
vn 0 1 0
vn 0 1 0
vn 0 1 0
vn 0 1 0
vn 0 1 0
vn 0 1 0
vn 0 1 0
vn 0 1 0
vn -0.808594 0 -0.587402
vn -1 0 0
vn -0.969238 -0.245728 0
vn -0.78418 -0.245728 -0.569336
vn -1 0 0
vn -0.808594 0 0.587402
vn -0.78418 -0.245728 0.569336
vn -0.969238 -0.245728 0
vn -0.308838 -9.53674e-007 0.950684
vn 0.308838 -9.53674e-007 0.950684
vn 0.299316 -0.245728 0.921875
vn -0.299316 -0.245728 0.921875
vn 0.808594 0 0.587402
vn 1 0 0
vn 0.969238 -0.245728 0
vn 0.78418 -0.245728 0.569336
vn 0.808594 0 -0.587402
vn 0.78418 -0.245728 -0.569336
vn 0.308838 0 -0.950684
vn -0.308838 0 -0.950684
vn -0.299316 -0.245728 -0.921875
vn 0.299316 -0.245728 -0.921875
vn 0.808594 0 -0.587402
vn 1 0 0
vn 0.969238 -0.245728 0
vn 0.78418 -0.245728 -0.569336
vn 0.808594 0 0.587402
vn 0.78418 -0.245728 0.569336
vn 0.308838 0 0.950684
vn -0.308838 0 0.950684
vn -0.299316 -0.245728 0.921875
vn 0.299316 -0.245728 0.921875
vn -0.808594 0 0.587402
vn -1 0 0
vn -0.969238 -0.245728 0
vn -0.78418 -0.245728 0.569336
vn -1 0 0
vn -0.808594 0 -0.587402
vn -0.78418 -0.245728 -0.569336
vn -0.969238 -0.245728 0
vn -0.308838 0 -0.950684
vn 0.308838 0 -0.950684
vn 0.299316 -0.245728 -0.921875
vn -0.299316 -0.245728 -0.921875
vn 0.167969 -0.838867 -0.516602
vn -0.167969 -0.838867 -0.516602
vn -0.293213 -0.313477 -0.902832
vn 0.293213 -0.313477 -0.902832
vn -0.167969 -0.838867 -0.516602
vn -0.542969 -0.839355 -0.000663757
vn -0.949707 -0.312744 -0.00028491
vn -0.293213 -0.313477 -0.902832
vn -0.542969 -0.839355 -0.000663757
vn -0.438721 -0.839844 0.318604
vn -0.768066 -0.3125 0.558105
vn -0.949707 -0.312744 -0.00028491
vn 0.167969 -0.838867 0.516602
vn 0.293213 -0.313477 0.902832
vn 0.167969 -0.838867 0.516602
vn 0.543457 -0.838867 0
vn 0.949219 -0.313477 0
vn 0.293213 -0.313477 0.902832
vn 0.167969 -0.838867 -0.516602
vn 0.293213 -0.313477 -0.902832
vn -0.308838 0 -0.950684
vn 0.308838 0 -0.950684
vn -1 0 0
vn -0.308838 0 -0.950684
vn -0.808594 0 0.587402
vn -1 0 0
vn 0.308838 0 0.950684
vn 1 0 0
vn 0.308838 0 0.950684
vn 0.308838 0 -0.950684
vn -0.289063 0.353271 -0.889648
vn 0.289063 0.353271 -0.889648
vn -0.935059 0.353271 0
vn -0.289063 0.353271 -0.889648
vn -0.756348 0.353271 0.549805
vn -0.935059 0.353271 0
vn 0.289063 0.353271 0.889648
vn 0.935059 0.353271 0
vn 0.289063 0.353271 0.889648
vn 0.289063 0.353271 -0.889648
vn -0.151733 0.870605 -0.467041
vn 0.151733 0.870605 -0.467041
vn -0.490967 0.870605 0
vn -0.151733 0.870605 -0.467041
vn -0.397217 0.870605 0.288574
vn -0.490967 0.870605 0
vn 0.151733 0.870605 0.467041
vn 0.490967 0.870605 0
vn 0.151733 0.870605 0.467041
vn 0.151733 0.870605 -0.467041
vn -0.167969 -0.838867 -0.516602
vn 0.167969 -0.838867 -0.516602
vn 0 -1 0
vn -0.542969 -0.839355 -0.000663757
vn -0.167969 -0.838867 -0.516602
vn 0 -1 0
vn -0.438721 -0.839844 0.318604
vn -0.542969 -0.839355 -0.000663757
vn 0 -1 0
vn 0.167969 -0.838867 0.516602
vn 0 -1 0
vn 0.543457 -0.838867 0
vn 0.167969 -0.838867 0.516602
vn 0 -1 0
vn 0.167969 -0.838867 -0.516602
vn 0 -1 0
vn 0.151733 0.870605 -0.467041
vn -0.151733 0.870605 -0.467041
vn 0 1 0
vn -0.151733 0.870605 -0.467041
vn -0.490967 0.870605 0
vn 0 1 0
vn -0.490967 0.870605 0
vn -0.397217 0.870605 0.288574
vn 0 1 0
vn 0.151733 0.870605 0.467041
vn 0 1 0
vn 0.151733 0.870605 0.467041
vn 0.490967 0.870605 0
vn 0 1 0
vn 0.151733 0.870605 -0.467041
vn 0 1 0

vt 0.53795 0.955736
vt 0.460968 1.10564
vt 0.385296 0.955736
vt 0.612732 1.10564
vt 0.53795 0.955736
vt 0.690605 0.955736
vt 0.154093 1.10564
vt 0.0813936 0.955736
vt 0.232885 0.955736
vt 0.154813 1.10564
vt 0.079987 0.955736
vt 0.232642 0.955736
vt 0.309624 1.10564
vt 0.613244 0.829505
vt 0.689571 0.955606
vt 0.538079 0.955606
vt 0.308969 0.829462
vt 0.156315 0.829462
vt 0.156558 0.829462
vt 0.614277 0.823306
vt 0.385296 0.955736
vt 0.461623 0.823306
vt 0.232642 0.955736
vt 0.308969 0.825358
vt 0.079987 0.955736
vt 0.156315 0.825358
vt 0.690605 0.955736
vt 0.614277 0.829462
vt 0.461623 0.829462
vt 0.463521 1.10564
vt 0.613339 1.1105
vt 0.614277 1.10564
vt 0.310867 1.10564
vt 0.53795 0.829462
vt 0.461623 0.829462
vt 0.385296 0.997626
vt 0.690605 0.829462
vt 0.614277 0.829462
vt 0.65215 0.997687
vt 0.079987 0.829462
vt 0.00366 0.829462
vt 0.080004 0.997789
vt 0.385296 0.829462
vt 0.308969 0.829462
vt 0.347133 0.997687
vt 0.53795 0.829462
vt 0.461623 0.829462
vt 0.53795 0.997789
vt 0.232642 0.829462
vt 0.156315 0.829462
vt 0.118151 0.997687
vt 0.079987 0.829462
vt 0.00366 0.829462
vt 0.690605 0.829462
vt 0.614277 0.829462
vt 0.652441 0.997687
vt 0.385296 0.829462
vt 0.308969 0.829462
vt 0.232642 0.829462
vt 0.156315 0.829462
vt 0.232642 0.997789
vt 0.42346 0.997687
vt 0.76577 0.829462
vt 0.728187 0.997687
vt 0.76577 0.829462
vt 0.232885 0.829462
vt 0.079987 0.829462
vt 0.232642 0.829462
vt 0.385296 0.829462
vt 0.53795 0.829462
vt 0.690605 0.829462
vt 0.613244 0.829821
vt 0.538079 0.829332
vt 0.689571 0.829505
vt 0.079987 0.825358
vt 0.232642 0.825358
vt 0.385296 0.825358
vt 0.53795 0.823306
vt 0.690605 0.823306
vt 0.0813936 0.828992
vt 0.680699 0.00340575
vt 0.854743 0.00340575
vt 0.854743 0.0321668
vt 0.680699 0.0321668
vt 0.854743 0.00340575
vt 1 0.00340575
vt 1 0.0321668
vt 0.854743 0.0321668
vt 0.000141597 0.00340575
vt 0.145909 0.00340575
vt 0.145909 0.0321668
vt 0.000141597 0.0321668
vt 0.145909 0.00340575
vt 0.319953 0.00340575
vt 0.319953 0.0321668
vt 0.145909 0.0321668
vt 0.319953 0.00340575
vt 0.500326 0.00340575
vt 0.500326 0.0321668
vt 0.319953 0.0321668
vt 0.680699 0.00340575
vt 0.680699 0.0321668
vt 0.832463 0.816537
vt 0.949577 0.816537
vt 0.995771 0.897135
vt 0.786269 0.897135
vt 0.949577 0.977732
vt 0.832463 0.977732
vt 0.680699 0.0384517
vt 0.854743 0.0384517
vt 0.854743 0.0619198
vt 0.680699 0.0619198
vt 1 0.0384517
vt 1 0.0619198
vt 0.000141621 0.0384517
vt 0.145909 0.0384517
vt 0.145909 0.0619198
vt 0.000141621 0.0619198
vt 0.319953 0.0384517
vt 0.319953 0.0619198
vt 0.500326 0.0384517
vt 0.500326 0.0619198
vt 0.854743 0.119975
vt 1 0.119975
vt 1 0.0673724
vt 0.854743 0.0673724
vt 0.000141621 0.119975
vt 0.145909 0.119975
vt 0.145909 0.0673724
vt 0.000141591 0.0673724
vt 0.145909 0.119975
vt 0.319953 0.119975
vt 0.319953 0.0673724
vt 0.145909 0.0673724
vt 0.319953 0.119975
vt 0.500326 0.119975
vt 0.500326 0.0673724
vt 0.319953 0.0673724
vt 0.680699 0.119975
vt 0.680699 0.0673724
vt 0.680699 0.119975
vt 0.854743 0.119975
vt 0.854743 0.0673724
vt 0.680699 0.0673724
vt 0.680699 0.237456
vt 0.500326 0.237456
vt 0.500326 0.148937
vt 0.680699 0.148937
vt 0.319953 0.237456
vt 0.319953 0.148937
vt 0.319953 0.237456
vt 0.145909 0.237456
vt 0.145909 0.148937
vt 0.319953 0.148937
vt 0.145909 0.237456
vt 0.000141621 0.237456
vt 0.000141621 0.148937
vt 0.145909 0.148937
vt 1 0.237456
vt 0.854743 0.237456
vt 0.854743 0.148937
vt 1 0.148937
vt 0.854743 0.237456
vt 0.680699 0.237456
vt 0.680699 0.148937
vt 0.854743 0.148937
vt 0.530687 0.437285
vt 0.64802 0.437285
vt 0.64802 0.504257
vt 0.530687 0.504257
vt 0.64802 0.437285
vt 0.765498 0.437285
vt 0.765498 0.504257
vt 0.64802 0.504257
vt 0.0638451 0.437285
vt 0.182453 0.437285
vt 0.182453 0.504257
vt 0.0638451 0.504257
vt 0.299815 0.437285
vt 0.299815 0.504257
vt 0.299829 0.437285
vt 0.414621 0.437285
vt 0.414621 0.504257
vt 0.299829 0.504257
vt 0.53061 0.437285
vt 0.53061 0.504257
vt 0.64802 0.579313
vt 0.530687 0.579313
vt 0.765498 0.579313
vt 0.64802 0.579313
vt 0.182453 0.579313
vt 0.0638451 0.579313
vt 0.299815 0.579313
vt 0.414621 0.579313
vt 0.299829 0.579313
vt 0.53061 0.579313
vt 0.64802 0.654369
vt 0.530687 0.654369
vt 0.765498 0.654369
vt 0.64802 0.654369
vt 0.182453 0.654369
vt 0.0638451 0.654369
vt 0.299815 0.654369
vt 0.414621 0.654369
vt 0.299829 0.654369
vt 0.53061 0.654369
vt 0.64802 0.725197
vt 0.530687 0.725197
vt 0.765498 0.725197
vt 0.64802 0.725197
vt 0.182453 0.725197
vt 0.0638451 0.725197
vt 0.299815 0.725197
vt 0.414621 0.725197
vt 0.299829 0.725197
vt 0.53061 0.725197
vt 0.64802 0.437285
vt 0.530687 0.437285
vt 0.590653 0.348651
vt 0.765498 0.437285
vt 0.64802 0.437285
vt 0.708555 0.348651
vt 0.182453 0.437285
vt 0.0638451 0.437285
vt 0.122516 0.348651
vt 0.299815 0.437285
vt 0.23982 0.348651
vt 0.414621 0.437285
vt 0.299829 0.437285
vt 0.358033 0.348651
vt 0.53061 0.437285
vt 0.473039 0.348651
vt 0.530687 0.725208
vt 0.64802 0.725208
vt 0.590653 0.809086
vt 0.64802 0.725208
vt 0.765498 0.725208
vt 0.708555 0.809086
vt 0.0638451 0.725208
vt 0.182453 0.725208
vt 0.122516 0.809086
vt 0.299815 0.725208
vt 0.23982 0.809086
vt 0.299829 0.725208
vt 0.414621 0.725208
vt 0.358033 0.809086
vt 0.53061 0.725208
vt 0.473039 0.809086


#
# MESH 000
#
g surface_000
usemtl surface_000
f 72/72/72 16/16/16 73/73/73
f 63/63/63 54/54/54 64/64/64
f 47/47/47 43/43/43 62/62/62
f 54/54/54 55/55/55 56/56/56
f 43/43/43 44/44/44 45/45/45
f 19/19/19 8/8/8 80/80/80
f 9/9/9 8/8/8 19/19/19
f 7/7/7 8/8/8 9/9/9
f 9/9/9 19/19/19 66/66/66
f 6/6/6 20/20/20 79/79/79
f 6/6/6 5/5/5 20/20/20
f 20/20/20 5/5/5 78/78/78
f 5/5/5 22/22/22 78/78/78
f 5/5/5 21/21/21 22/22/22
f 22/22/22 21/21/21 77/77/77
f 21/21/21 24/24/24 77/77/77
f 4/4/4 5/5/5 6/6/6
f 30/30/30 21/21/21 5/5/5
f 26/26/26 25/25/25 75/75/75
f 23/23/23 25/25/25 26/26/26
f 23/23/23 10/10/10 25/25/25
f 23/23/23 26/26/26 76/76/76
f 24/24/24 23/23/23 76/76/76
f 21/21/21 23/23/23 24/24/24
f 33/33/33 23/23/23 21/21/21
f 14/14/14 74/74/74 15/15/15
f 14/14/14 15/15/15 16/16/16
f 31/31/31 16/16/16 15/15/15
f 27/27/27 28/28/28 71/71/71
f 27/27/27 1/1/1 28/28/28
f 28/28/28 1/1/1 70/70/70
f 1/1/1 29/29/29 70/70/70
f 1/1/1 3/3/3 29/29/29
f 29/29/29 3/3/3 69/69/69
f 3/3/3 17/17/17 69/69/69
f 32/32/32 1/1/1 27/27/27
f 1/1/1 2/2/2 3/3/3
f 18/18/18 11/11/11 67/67/67
f 12/12/12 11/11/11 18/18/18
f 10/10/10 11/11/11 12/12/12
f 12/12/12 18/18/18 68/68/68
f 17/17/17 12/12/12 68/68/68
f 3/3/3 12/12/12 17/17/17
f 13/13/13 12/12/12 3/3/3
f 60/60/60 40/40/40 42/42/42
f 40/40/40 41/41/41 42/42/42
f 65/65/65 37/37/37 39/39/39
f 37/37/37 38/38/38 39/39/39
f 38/38/38 34/34/34 39/39/39
f 58/58/58 49/49/49 36/36/36
f 57/57/57 58/58/58 36/36/36
f 35/35/35 57/57/57 36/36/36
f 34/34/34 35/35/35 36/36/36
f 55/55/55 46/46/46 48/48/48
f 46/46/46 47/47/47 48/48/48
f 44/44/44 59/59/59 61/61/61
f 59/59/59 60/60/60 61/61/61
f 52/52/52 53/53/53 51/51/51
f 50/50/50 52/52/52 51/51/51
f 49/49/49 50/50/50 51/51/51
f 163/163/163 165/165/165 166/166/166
f 163/163/163 164/164/164 165/165/165
f 159/159/159 161/161/161 162/162/162
f 159/159/159 160/160/160 161/161/161
f 155/155/155 157/157/157 158/158/158
f 155/155/155 156/156/156 157/157/157
f 151/151/151 153/153/153 154/154/154
f 151/151/151 152/152/152 153/153/153
f 146/146/146 149/149/149 150/150/150
f 146/146/146 150/150/150 147/147/147
f 145/145/145 146/146/146 147/147/147
f 145/145/145 147/147/147 148/148/148
f 141/141/141 143/143/143 144/144/144
f 141/141/141 142/142/142 143/143/143
f 136/136/136 139/139/139 140/140/140
f 136/136/136 140/140/140 137/137/137
f 135/135/135 136/136/136 137/137/137
f 135/135/135 137/137/137 138/138/138
f 131/131/131 133/133/133 134/134/134
f 131/131/131 132/132/132 133/133/133
f 127/127/127 129/129/129 130/130/130
f 127/127/127 128/128/128 129/129/129
f 123/123/123 125/125/125 126/126/126
f 123/123/123 124/124/124 125/125/125
f 115/115/115 117/117/117 118/118/118
f 115/115/115 116/116/116 117/117/117
f 116/116/116 120/120/120 117/117/117
f 116/116/116 119/119/119 120/120/120
f 119/119/119 122/122/122 120/120/120
f 119/119/119 121/121/121 122/122/122
f 121/121/121 112/112/112 122/122/122
f 121/121/121 109/109/109 112/112/112
f 109/109/109 111/111/111 112/112/112
f 109/109/109 110/110/110 111/111/111
f 110/110/110 114/114/114 111/111/111
f 110/110/110 113/113/113 114/114/114
f 107/107/107 108/108/108 106/106/106
f 107/107/107 106/106/106 105/105/105
f 103/103/103 105/105/105 106/106/106
f 103/103/103 104/104/104 105/105/105
f 98/98/98 101/101/101 102/102/102
f 98/98/98 102/102/102 99/99/99
f 97/97/97 98/98/98 99/99/99
f 97/97/97 99/99/99 100/100/100
f 93/93/93 95/95/95 96/96/96
f 93/93/93 94/94/94 95/95/95
f 89/89/89 91/91/91 92/92/92
f 89/89/89 90/90/90 91/91/91
f 85/85/85 87/87/87 88/88/88
f 85/85/85 86/86/86 87/87/87
f 81/81/81 83/83/83 84/84/84
f 81/81/81 82/82/82 83/83/83
f 245/245/245 247/247/247 248/248/248
f 244/244/244 245/245/245 246/246/246
f 240/240/240 242/242/242 243/243/243
f 239/239/239 240/240/240 241/241/241
f 236/236/236 237/237/237 238/238/238
f 233/233/233 234/234/234 235/235/235
f 231/231/231 228/228/228 232/232/232
f 228/228/228 229/229/229 230/230/230
f 226/226/226 223/223/223 227/227/227
f 223/223/223 224/224/224 225/225/225
f 220/220/220 221/221/221 222/222/222
f 217/217/217 218/218/218 219/219/219
f 205/205/205 214/214/214 215/215/215
f 205/205/205 204/204/204 214/214/214
f 204/204/204 216/216/216 214/214/214
f 204/204/204 206/206/206 216/216/216
f 194/194/194 206/206/206 204/204/204
f 194/194/194 196/196/196 206/206/206
f 183/183/183 196/196/196 194/194/194
f 183/183/183 186/186/186 196/196/196
f 195/195/195 204/204/204 205/205/205
f 195/195/195 194/194/194 204/204/204
f 184/184/184 194/194/194 195/195/195
f 184/184/184 183/183/183 194/194/194
f 181/181/181 183/183/183 184/184/184
f 181/181/181 182/182/182 183/183/183
f 182/182/182 186/186/186 183/183/183
f 182/182/182 185/185/185 186/186/186
f 202/202/202 211/211/211 212/212/212
f 202/202/202 201/201/201 211/211/211
f 201/201/201 213/213/213 211/211/211
f 201/201/201 203/203/203 213/213/213
f 191/191/191 203/203/203 201/201/201
f 191/191/191 193/193/193 203/203/203
f 177/177/177 193/193/193 191/191/191
f 177/177/177 180/180/180 193/193/193
f 192/192/192 201/201/201 202/202/202
f 192/192/192 191/191/191 201/201/201
f 178/178/178 191/191/191 192/192/192
f 178/178/178 177/177/177 191/191/191
f 175/175/175 177/177/177 178/178/178
f 175/175/175 176/176/176 177/177/177
f 176/176/176 180/180/180 177/177/177
f 176/176/176 179/179/179 180/180/180
f 200/200/200 209/209/209 210/210/210
f 200/200/200 199/199/199 209/209/209
f 190/190/190 199/199/199 200/200/200
f 190/190/190 189/189/189 199/199/199
f 174/174/174 189/189/189 190/190/190
f 174/174/174 173/173/173 189/189/189
f 171/171/171 173/173/173 174/174/174
f 171/171/171 172/172/172 173/173/173
f 198/198/198 207/207/207 208/208/208
f 198/198/198 197/197/197 207/207/207
f 188/188/188 197/197/197 198/198/198
f 188/188/188 187/187/187 197/197/197
f 170/170/170 187/187/187 188/188/188
f 170/170/170 169/169/169 187/187/187
f 167/167/167 169/169/169 170/170/170
f 167/167/167 168/168/168 169/169/169

