#
# OBJECT NAME
#
o model_3244
mtllib 3244.mtl

#
# VERTEX BUFFER 000
#
v 0.055209 0.58038 -0.461783
v 0.102819 0.527943 -0.412486
v 0.00962462 0.529912 -0.412617
v 0.110336 0.666532 -0.469843
v 0.143578 0.592468 -0.437303
v 0.0201646 0.678606 -0.461462
v -0.0362171 0.614618 -0.4288

vn -0.0882568 -0.356689 -0.929688
vn 0.154785 -0.598145 -0.785645
vn -0.267822 -0.537109 -0.799316
vn 0.0771484 -0.141724 -0.986816
vn 0.294678 -0.370117 -0.880859
vn -0.241699 -0.0830688 -0.966309
vn -0.407715 -0.240479 -0.880371

vt 0.7108 0.836548
vt 0.657488 0.776073
vt 0.657488 0.776073
vt 0.657488 0.776073
vt 0.657488 0.776073
vt 0.657488 0.776073
vt 0.657488 0.776073


#
# VERTEX BUFFER 001
#
v 0.325688 0.0794667 -0.351912
v 0.175472 0.615792 -0.341544
v 0.00667652 0.436193 -0.371548
v 0.677696 0.401911 -0.434988
v 0.352674 0.741344 -0.454017
v 0.502216 0.237019 -0.340142
v -0.372005 0.195207 -0.365315
v -0.0540659 0.502992 -0.40225
v -0.236402 0.547741 -0.473666
v -0.0302563 0.0598218 -0.339657
v 0.110346 0.412355 -0.448009
v -0.616722 0.651463 -0.37358
v -0.0368652 0.631889 -0.431084
v -0.178856 0.783384 -0.54641
v -0.385783 0.225463 -0.248653
v 0.051681 0.392892 -0.412595
v -0.47634 0.423077 -0.290445
v 0.0238596 0.826402 -0.255661
v -0.0817922 0.791935 -0.225338
v -0.0202152 0.677342 -0.304768
v 0.109989 0.782897 -0.286212
v -0.0201026 0.598163 -0.155404
v -0.111123 0.713885 -0.182693
v 0.0647885 0.589731 -0.250458
v 0.0586986 0.624851 -0.364347
v 0.0456093 0.755035 -0.252031
v 0.126058 0.692716 -0.273667
v 0.114853 0.759946 -0.231956
v 0.0634083 0.631848 -0.347093
v 0.0412579 0.647167 -0.252117
v 0.0224789 0.702374 -0.208624
v 0.131486 0.796809 -0.345559
v 0.0409635 0.864838 -0.363511
v 0.0605626 0.572355 -0.386392
v 0.114803 0.64129 -0.399223
v -0.0998226 0.873301 -0.354693
v -0.120521 0.696206 -0.305349
v -0.219498 0.739554 -0.301994
v -0.186763 0.596218 -0.229538
v -0.120521 0.696206 -0.305349
v 0.00523143 0.495953 -0.232227
v 0.0633768 0.538322 -0.320341
v -0.113815 0.553299 -0.219638
v 0.0787138 0.633714 -0.40449
v 0.19967 0.759637 -0.310941
v 0.0155699 0.847447 -0.323186
v -0.0183189 0.735136 -0.328338
v 0.322929 0.681247 -0.200763
v 0.331805 0.828179 -0.282902
v 0.25431 0.93036 -0.328317
v 0.106128 0.918959 -0.352433
v 0.160364 0.566647 -0.209431
v -0.017385 0.768551 -0.435725
v -0.158884 0.734831 -0.326732
v -0.0871166 0.585889 -0.314469
v 0.0633623 0.98555 -0.448978
v 0.215366 0.901917 -0.413631
v 0.260404 0.729322 -0.391003
v 0.0588174 0.564677 -0.447211
v -0.119028 0.894911 -0.370958
v 0.202516 0.839783 -0.234639
v 0.0684985 0.801263 -0.319936
v 0.161462 0.670528 -0.246175
v -0.000969453 0.562379 -0.191562
v 0.13224 0.521112 -0.100355
v 0.278667 0.673192 -0.154896
v 0.0650127 0.615161 -0.407753
v 0.00146925 0.644801 -0.365673
v -0.0550806 0.667258 -0.307014
v 0.00403753 0.795706 -0.356795
v -0.12253 0.787404 -0.279386
v -0.156241 0.581191 -0.204871
v -0.051748 0.43116 -0.15623
v -0.0121311 0.526857 -0.208357
v 0.0747233 0.601752 -0.420299
v 0.0595001 0.676353 -0.410846
v 0.177863 0.53389 -0.198709
v 0.17339 0.675245 -0.377407
v 0.119984 0.426944 -0.153565
v 0.274237 0.527034 -0.217088
v 0.293184 0.680161 -0.30813
v 0.0437136 0.641474 -0.345858
v 0.127421 0.652209 -0.204997
v 0.0949507 0.702581 -0.34457
v -0.0058347 0.677476 -0.224319
v 0.00149083 0.66809 -0.305689
v 0.0418605 0.658082 -0.181509
v 0.129105 0.727933 -0.288243
v 0.121745 0.465915 -0.225102
v 0.229953 0.468626 -0.245393
v 0.36516 0.539283 -0.261845
v 0.295684 0.696655 -0.344728
v 0.387515 0.642817 -0.338995
v 0.354842 0.746417 -0.386155
v 0.264449 0.838006 -0.391637
v 0.093138 0.832932 -0.391178
v -0.014894 0.776861 -0.40038
v -0.0119858 0.699518 -0.404314
v 0.0139459 0.55992 -0.396409
v -0.00726781 0.549314 -0.372634
v 0.04883 0.608078 -0.43923

vn -0.0630493 -0.0369263 0.99707
vn 0.108154 0.139771 0.983887
vn -0.119995 -0.0527649 0.991211
vn 0.285889 0.27002 0.918945
vn 0.312988 0.349121 0.882813
vn 0.125 0.111511 0.98584
vn -0.0618896 0.181641 0.980957
vn 0.011734 0.216797 0.976074
vn -0.257324 0.372803 0.891113
vn 0.0409241 0.141846 0.98877
vn 0.340576 0.149292 0.928223
vn 0.102905 0.462646 0.880371
vn 0.182495 0.390625 0.901855
vn 0.0961914 0.658203 0.746094
vn 0.208008 0.246216 0.946289
vn 0.284668 0.178345 0.941406
vn 0.133911 0.34375 0.929199
vn 0.255615 -0.369873 0.893066
vn 0.598633 -0.213135 0.771484
vn 0.629883 0.152588 0.76123
vn 0.204346 -0.408447 0.88916
vn 0.631836 0.68457 0.362305
vn 0.786133 0.40918 0.462891
vn 0.563965 0.754395 0.334473
vn 0.620605 0.0448608 0.782227
vn 0.361816 -0.491211 0.791992
vn -0.260498 -0.599121 0.756836
vn -0.198608 -0.540039 0.817383
vn 0.471436 -0.494873 0.729492
vn 0.962402 -0.039032 0.268555
vn 0.899414 -0.0366211 0.434814
vn -0.033783 -0.168457 0.984863
vn 0.197144 -0.0130997 0.97998
vn 0.456055 0.282715 0.843262
vn -0.033783 -0.168457 0.984863
vn 0.0897827 0.257568 0.961914
vn 0.348389 0.291016 0.890625
vn 0.181641 0.343262 0.921387
vn 0.268555 0.5 0.822754
vn 0.348389 0.291016 0.890625
vn 0.504883 0.604492 0.615723
vn 0.580566 0.626953 0.519043
vn 0.274658 0.503906 0.818848
vn -0.398438 -0.0766602 0.913574
vn -0.351074 0.171387 0.92041
vn -0.0054512 -0.204102 0.978516
vn -0.0333557 -0.36377 0.930664
vn -0.393799 0.481201 0.782715
vn -0.359131 0.336426 0.870117
vn -0.219849 0.168091 0.960449
vn -0.0411072 0.229126 0.972168
vn -0.623047 0.459473 0.632324
vn 0.22644 0.0536804 0.972168
vn 0.560059 0.224731 0.796875
vn 0.620117 0.255127 0.741211
vn 0.0391235 0.0463867 0.998047
vn -0.1521 0.102661 0.98291
vn -0.159424 -0.00398636 0.986816
vn 0.192017 0.0164948 0.980957
vn 0.503906 -0.0367432 0.862793
vn -0.577148 0.0847168 0.811523
vn -0.705566 -0.106506 0.700195
vn -0.570801 0.519043 0.635742
vn -0.398438 0.788086 0.468262
vn -0.355225 0.6875 0.632813
vn -0.442383 0.555664 0.703125
vn -0.657227 0.625977 0.418945
vn 0.577637 0.733887 0.355713
vn 0.603516 0.278076 0.746582
vn 0.612305 0.0838623 0.785645
vn 0.57666 0.138794 0.804688
vn 0.389893 0.391113 0.833496
vn 0.0188446 0.439453 0.897949
vn 0.128418 0.658203 0.741699
vn 0.0350037 0.812988 0.580566
vn 0.670898 0.0100861 0.741211
vn -0.086731 0.682617 0.725098
vn -0.532715 0.656738 0.532715
vn -0.0196075 0.436768 0.898926
vn 0.19812 0.446045 0.872559
vn -0.277832 0.706055 0.650879
vn -0.219238 0.972656 0.0740967
vn -0.149536 0.987793 0.0335083
vn -0.751465 0.544434 0.371338
vn 0.218018 0.965332 -0.142822
vn 0.493896 0.867188 -0.0555725
vn 0.140503 0.951172 0.27417
vn -0.853516 0.393311 0.340576
vn -0.335693 0.637695 0.692383
vn 0.185791 -0.128784 0.973633
vn 0.0219116 0.463623 0.885254
vn -0.143555 0.379395 0.913574
vn 0.254883 0.521484 0.813965
vn 0.109985 0.351074 0.929688
vn 0.0916748 0.331787 0.938477
vn -0.143433 -0.0874634 0.985352
vn -0.0574646 -0.0528564 0.996582
vn -0.18335 -0.164551 0.96875
vn -0.416748 0.687988 0.593262
vn 0.0600891 0.890137 0.450684
vn -0.377686 0.365967 0.850098

vt 0.527607 0.516779
vt 0.698849 0.977897
vt 0.527607 0.977897
vt 0.900326 0.516779
vt 0.900326 0.977897
vt 0.711131 0.516779
vt 0.525675 0.00668305
vt 0.696917 0.499992
vt 0.525675 0.499992
vt 0.898394 0.00668305
vt 0.898394 0.499992
vt 0.502052 0.512755
vt 0.696917 0.969849
vt 0.502052 0.969849
vt 0.899146 0.512755
vt 0.899146 0.969849
vt 0.714941 0.512755
vt 0.109218 0.963594
vt 0.00920701 0.801625
vt 0.224923 0.745852
vt 0.308679 0.985625
vt 0.128807 0.460052
vt 0.00884842 0.614955
vt 0.360118 0.490435
vt 0.392923 0.732111
vt 0.00542548 0.212186
vt 0.15969 0.343783
vt 0.0235828 0.349151
vt 0.31147 0.202258
vt 0.166889 0.0886661
vt 0.0348583 0.073517
vt 0.177039 0.99863
vt 0.075751 0.939288
vt 0.349958 0.747303
vt 0.330604 0.873036
vt 0.0124589 0.807574
vt 0.187085 0.651062
vt 0.011312 0.645143
vt 0.103124 0.459356
vt 0.187085 0.651062
vt 0.35219 0.497461
vt 0.385157 0.653375
vt 0.273535 0.440995
vt 0.404765 0.22371
vt 0.19884 0.239403
vt 0.274129 0.0169767
vt 0.402541 0.0948351
vt 0.125816 0.443844
vt 0.0106419 0.296095
vt 0.0202997 0.122236
vt 0.133142 0.0317445
vt 0.339896 0.414673
vt 0.244265 0.698896
vt 0.16278 0.448354
vt 0.336123 0.465713
vt -0.0111905 0.809806
vt 0.154725 1.00554
vt 0.320921 0.99732
vt 0.410512 0.737196
vt 0.0374072 0.517662
vt 0.102106 0.449001
vt 0.310416 0.441911
vt 0.162223 0.725751
vt 0.271128 1.01422
vt 0.0713111 0.968511
vt -0.00937034 0.686212
vt 0.399615 0.749389
vt 0.392046 0.866279
vt 0.269664 0.319941
vt 0.397682 0.364995
vt 0.301087 0.449603
vt 0.10197 0.391588
vt 0.00994416 0.282785
vt 0.156331 0.249335
vt 0.355156 0.158022
vt 0.404847 0.21371
vt 0.138152 0.12394
vt 0.340585 0.0712649
vt 0.00603051 0.153228
vt 0.0901502 0.0314194
vt 0.22496 0.0103465
vt 0.296277 0.215856
vt 0.0150109 0.175119
vt 0.200003 0.101028
vt 0.0839623 0.337891
vt 0.213027 0.295533
vt 0.0233121 0.295229
vt 0.0922016 0.0553754
vt 0.301261 0.993844
vt 0.121477 0.9946
vt 0.0249296 0.881582
vt 0.164283 0.694917
vt -0.0043399 0.733412
vt 0.0237314 0.563965
vt 0.105299 0.431391
vt 0.282737 0.427526
vt 0.382699 0.461349
vt 0.371054 0.594748
vt 0.393373 0.751877
vt 0.393132 0.860573
vt 0.359534 0.681302


#
# MESH 000
#
g surface_000
usemtl surface_000
f 1/1/1 3/3/3 7/7/7
f 1/1/1 2/2/2 3/3/3
f 1/1/1 5/5/5 2/2/2
f 1/1/1 4/4/4 5/5/5
f 1/1/1 6/6/6 4/4/4
f 1/1/1 7/7/7 6/6/6

#
# MESH 001
#
g surface_001
usemtl surface_001
f 17/17/17 18/18/18 15/15/15
f 17/17/17 15/15/15 14/14/14
f 14/14/14 15/15/15 16/16/16
f 11/11/11 12/12/12 9/9/9
f 11/11/11 9/9/9 13/13/13
f 13/13/13 9/9/9 8/8/8
f 8/8/8 9/9/9 10/10/10
f 22/22/22 23/23/23 20/20/20
f 22/22/22 20/20/20 24/24/24
f 24/24/24 20/20/20 19/19/19
f 19/19/19 20/20/20 21/21/21
f 27/27/27 29/29/29 31/31/31
f 29/29/29 27/27/27 30/30/30
f 30/30/30 27/27/27 26/26/26
f 25/25/25 26/26/26 27/27/27
f 25/25/25 27/27/27 28/28/28
f 32/32/32 28/28/28 27/27/27
f 27/27/27 31/31/31 32/32/32
f 37/37/37 33/33/33 38/38/38
f 36/36/36 33/33/33 37/37/37
f 33/33/33 36/36/36 34/34/34
f 33/33/33 34/34/34 35/35/35
f 48/48/48 49/49/49 41/41/41
f 48/48/48 41/41/41 47/47/47
f 47/47/47 50/50/50 48/48/48
f 47/47/47 46/46/46 50/50/50
f 45/45/45 46/46/46 47/47/47
f 45/45/45 44/44/44 43/43/43
f 40/40/40 43/43/43 44/44/44
f 44/44/44 41/41/41 40/40/40
f 39/39/39 40/40/40 41/41/41
f 39/39/39 41/41/41 42/42/42
f 51/51/51 53/53/53 54/54/54
f 51/51/51 52/52/52 53/53/53
f 52/52/52 58/58/58 53/53/53
f 57/57/57 58/58/58 52/52/52
f 57/57/57 52/52/52 56/56/56
f 52/52/52 55/55/55 56/56/56
f 59/59/59 55/55/55 52/52/52
f 59/59/59 52/52/52 51/51/51
f 66/66/66 65/65/65 60/60/60
f 60/60/60 65/65/65 64/64/64
f 63/63/63 60/60/60 64/64/64
f 67/67/67 60/60/60 63/63/63
f 60/60/60 67/67/67 61/61/61
f 60/60/60 61/61/61 62/62/62
f 62/62/62 66/66/66 60/60/60
f 71/71/71 74/74/74 75/75/75
f 74/74/74 71/71/71 70/70/70
f 70/70/70 69/69/69 74/74/74
f 68/68/68 69/69/69 70/70/70
f 70/70/70 73/73/73 68/68/68
f 71/71/71 73/73/73 70/70/70
f 71/71/71 72/72/72 73/73/73
f 80/80/80 86/86/86 84/84/84
f 84/84/84 86/86/86 87/87/87
f 88/88/88 84/84/84 87/87/87
f 85/85/85 84/84/84 88/88/88
f 82/82/82 84/84/84 85/85/85
f 82/82/82 81/81/81 84/84/84
f 80/80/80 84/84/84 81/81/81
f 79/79/79 80/80/80 81/81/81
f 76/76/76 79/79/79 81/81/81
f 76/76/76 78/78/78 79/79/79
f 76/76/76 77/77/77 78/78/78
f 76/76/76 83/83/83 77/77/77
f 83/83/83 76/76/76 82/82/82
f 82/82/82 76/76/76 81/81/81
f 91/91/91 90/90/90 95/95/95
f 89/89/89 90/90/90 91/91/91
f 90/90/90 89/89/89 92/92/92
f 90/90/90 92/92/92 94/94/94
f 92/92/92 89/89/89 93/93/93
f 96/96/96 106/106/106 107/107/107
f 96/96/96 108/108/108 106/106/106
f 96/96/96 99/99/99 108/108/108
f 108/108/108 99/99/99 103/103/103
f 108/108/108 103/103/103 105/105/105
f 104/104/104 105/105/105 103/103/103
f 96/96/96 98/98/98 99/99/99
f 99/99/99 98/98/98 100/100/100
f 101/101/101 99/99/99 100/100/100
f 101/101/101 103/103/103 99/99/99
f 101/101/101 102/102/102 103/103/103
f 96/96/96 97/97/97 98/98/98

