# Blender 4.1.1
# www.blender.org
o model_2711
v 0.000000 1.497220 -0.864645
v 0.864645 1.497220 -0.000000
v 0.688053 1.430650 -0.050838
v 0.050838 1.430650 -0.688053
v 0.000000 2.612240 -0.000000
v 0.000000 1.497220 0.864645
v 0.050838 1.563780 0.688053
v 0.050838 2.385520 0.050838
v 0.864645 1.497220 -0.000000
v 0.000000 2.612240 -0.000000
v 0.050838 2.385520 0.050838
v 0.688053 1.563780 0.050838
v 0.000000 1.497220 0.864645
v 0.864645 1.497220 -0.000000
v 0.688053 1.563780 0.050838
v 0.050838 1.563780 0.688053
v 0.864645 1.497220 -0.000000
v 0.000000 0.382190 -0.000000
v 0.050838 0.608912 -0.050838
v 0.688053 1.430650 -0.050838
v 0.000000 2.612240 -0.000000
v -0.050838 2.385520 0.050838
v -0.050838 1.563780 0.688053
v 0.000000 1.497220 0.864645
v -0.864645 1.497220 -0.000000
v -0.688053 1.563780 0.050838
v -0.050838 2.385520 0.050838
v 0.000000 2.612240 -0.000000
v 0.000000 1.497220 0.864645
v -0.050838 1.563780 0.688053
v -0.688053 1.563780 0.050838
v -0.864645 1.497220 -0.000000
v 0.000000 0.382190 -0.000000
v 0.000000 1.497220 -0.864645
v 0.050838 1.430650 -0.688053
v 0.050838 0.608912 -0.050838
v 0.000000 2.612240 -0.000000
v 0.050838 2.385520 -0.050838
v 0.050838 1.563780 -0.688053
v 0.000000 1.497220 -0.864645
v 0.864645 1.497220 -0.000000
v 0.688053 1.563780 -0.050838
v 0.050838 2.385520 -0.050838
v 0.000000 2.612240 -0.000000
v 0.000000 1.497220 -0.864645
v 0.050838 1.563780 -0.688053
v 0.688053 1.563780 -0.050838
v 0.864645 1.497220 -0.000000
v 0.000000 1.497220 -0.864645
v -0.050838 1.430650 -0.688053
v -0.688053 1.430650 -0.050838
v -0.864645 1.497220 -0.000000
v 0.000000 2.612240 -0.000000
v 0.000000 1.497220 -0.864645
v -0.050838 1.563780 -0.688053
v -0.050838 2.385520 -0.050838
v -0.864645 1.497220 -0.000000
v 0.000000 2.612240 -0.000000
v -0.050838 2.385520 -0.050838
v -0.688053 1.563780 -0.050838
v 0.000000 1.497220 -0.864645
v -0.864645 1.497220 -0.000000
v -0.688053 1.563780 -0.050838
v -0.050838 1.563780 -0.688053
v -0.864645 1.497220 -0.000000
v -0.688053 1.430650 -0.050838
v -0.050838 0.608912 -0.050838
v 0.000000 0.382190 -0.000000
v 0.000000 0.382190 -0.000000
v 0.000000 1.497220 0.864645
v -0.050838 1.430650 0.688053
v -0.050838 0.608912 0.050838
v -0.864645 1.497220 -0.000000
v 0.000000 0.382190 -0.000000
v -0.050838 0.608912 0.050838
v -0.688053 1.430650 0.050838
v 0.000000 1.497220 0.864645
v -0.864645 1.497220 -0.000000
v -0.688053 1.430650 0.050838
v -0.050838 1.430650 0.688053
v 0.000000 0.382190 -0.000000
v -0.050838 0.608912 -0.050838
v -0.050838 1.430650 -0.688053
v 0.000000 1.497220 -0.864645
v 0.000000 0.382190 -0.000000
v 0.050838 0.608912 0.050838
v 0.050838 1.430650 0.688053
v 0.000000 1.497220 0.864645
v 0.864645 1.497220 -0.000000
v 0.688053 1.430650 0.050838
v 0.050838 0.608912 0.050838
v 0.000000 0.382190 -0.000000
v 0.000000 1.497220 0.864645
v 0.050838 1.430650 0.688053
v 0.688053 1.430650 0.050838
v 0.864645 1.497220 -0.000000
v -0.688053 1.563780 0.050838
v -0.050838 1.563780 0.688053
v -0.050838 1.430650 0.688053
v -0.688053 1.430650 0.050838
v 0.050838 1.563780 0.688053
v 0.688053 1.563780 0.050838
v 0.688053 1.430650 0.050838
v 0.050838 1.430650 0.688053
v -0.050838 1.563780 -0.688053
v -0.688053 1.563780 -0.050838
v -0.688053 1.430650 -0.050838
v -0.050838 1.430650 -0.688053
v -0.050838 2.385520 -0.050838
v -0.050838 1.563780 -0.688053
v 0.050838 1.563780 -0.688053
v 0.050838 2.385520 -0.050838
v -0.688053 1.563780 -0.050838
v -0.050838 2.385520 -0.050838
v -0.050838 2.385520 0.050838
v -0.688053 1.563780 0.050838
v -0.050838 1.563780 0.688053
v -0.050838 2.385520 0.050838
v 0.050838 2.385520 0.050838
v 0.050838 1.563780 0.688053
v 0.050838 2.385520 -0.050838
v 0.688053 1.563780 -0.050838
v 0.688053 1.563780 0.050838
v 0.050838 2.385520 0.050838
v -0.050838 0.608912 0.050838
v -0.050838 1.430650 0.688053
v 0.050838 1.430650 0.688053
v 0.050838 0.608912 0.050838
v -0.688053 1.430650 0.050838
v -0.050838 0.608912 0.050838
v -0.050838 0.608912 -0.050838
v -0.688053 1.430650 -0.050838
v 0.688053 1.563780 -0.050838
v 0.050838 1.563780 -0.688053
v 0.050838 1.430650 -0.688053
v 0.688053 1.430650 -0.050838
v 0.050838 0.608912 -0.050838
v 0.050838 1.430650 -0.688053
v -0.050838 1.430650 -0.688053
v -0.050838 0.608912 -0.050838
v 0.050838 1.563780 -0.688053
v -0.050838 1.563780 -0.688053
v -0.050838 1.430650 -0.688053
v 0.050838 1.430650 -0.688053
v 0.050838 0.608912 0.050838
v 0.688053 1.430650 0.050838
v 0.688053 1.430650 -0.050838
v 0.050838 0.608912 -0.050838
v 0.688053 1.563780 0.050838
v 0.688053 1.563780 -0.050838
v 0.688053 1.430650 -0.050838
v 0.688053 1.430650 0.050838
v -0.688053 1.563780 0.050838
v -0.688053 1.430650 0.050838
v -0.688053 1.430650 -0.050838
v -0.688053 1.563780 -0.050838
v -0.050838 1.430650 0.688053
v -0.050838 1.563780 0.688053
v 0.050838 1.563780 0.688053
v 0.050838 1.430650 0.688053
v -0.050838 0.608912 -0.050838
v -0.050838 0.608912 0.050838
v 0.050838 0.608912 0.050838
v 0.050838 0.608912 -0.050838
v -0.050838 2.385520 0.050838
v -0.050838 2.385520 -0.050838
v 0.050838 2.385520 -0.050838
v 0.050838 2.385520 0.050838
v 0.000000 1.096820 -0.000000
v -0.141562 1.150460 0.141562
v -0.141562 1.150460 -0.141562
v -0.283126 1.497220 -0.283126
v -0.283126 1.497220 0.283126
v -0.141562 1.843970 -0.141562
v -0.141562 1.843970 0.141562
v 0.000000 1.897620 -0.000000
v -0.141562 1.150460 0.141562
v 0.000000 1.096820 -0.000000
v 0.141562 1.150460 0.141562
v -0.283126 1.497220 0.283126
v 0.283126 1.497220 0.283126
v -0.141562 1.843970 0.141562
v 0.141562 1.843970 0.141562
v 0.000000 1.897620 -0.000000
v 0.141562 1.150460 0.141562
v 0.141562 1.150460 -0.141562
v 0.283126 1.497220 0.283126
v 0.283126 1.497220 -0.283126
v 0.141562 1.843970 0.141562
v 0.141562 1.843970 -0.141562
v 0.141562 1.150460 -0.141562
v -0.141562 1.150460 -0.141562
v 0.283126 1.497220 -0.283126
v -0.283126 1.497220 -0.283126
v 0.141562 1.843970 -0.141562
v -0.141562 1.843970 -0.141562
v 0.000000 1.897620 -0.000000
vn 0.3172 -0.8937 -0.3172
vn -0.3172 -0.8937 0.3172
vn -0.3172 -0.8937 -0.3172
vn 0.3172 -0.8937 0.3172
vn 0.3172 0.8937 0.3172
vn -0.3172 0.8937 -0.3172
vn -0.3172 0.8937 0.3172
vn 0.3172 0.8937 -0.3172
vn 0.2652 0.2298 -0.9364
vn -0.2652 -0.2298 -0.9364
vn -0.2652 0.2298 -0.9364
vn 0.2652 -0.2298 -0.9364
vn 0.9364 -0.2298 -0.2652
vn 0.9364 0.2298 0.2652
vn 0.9364 -0.2298 0.2652
vn 0.9364 0.2298 -0.2652
vn -0.9364 -0.2298 -0.2652
vn -0.9364 0.2298 0.2652
vn -0.9364 0.2298 -0.2652
vn -0.9364 -0.2298 0.2652
vn -0.9364 0.2298 0.2653
vn -0.3172 0.8937 -0.3173
vn -0.2652 -0.2298 0.9364
vn 0.2652 0.2298 0.9364
vn -0.2652 0.2298 0.9364
vn 0.2652 -0.2298 0.9364
vn 0.2653 0.2298 0.9364
vn -0.3173 0.8937 0.3172
vn 0.9364 0.2298 -0.2653
vn 0.3172 0.8937 0.3173
vn -0.2653 0.2298 -0.9364
vn 0.3173 0.8937 -0.3172
vn -0.3172 -0.8938 0.3172
vn -0.9364 -0.2299 -0.2652
vn -0.3172 -0.8937 0.3173
vn 0.2652 -0.2299 -0.9364
vn -0.3173 -0.8937 -0.3172
vn -0.3172 -0.8938 -0.3172
vn 0.9364 -0.2299 0.2652
vn 0.3172 -0.8937 -0.3173
vn 0.3172 -0.8938 -0.3172
vn 0.3172 -0.8938 0.3172
vn -0.2652 -0.2299 0.9364
vn 0.3173 -0.8937 0.3172
vn 0.7009 -0.5769 0.4194
vn 0.4194 -0.5769 0.7009
vn 0.4193 -0.5769 0.7009
vn 0.7009 -0.5769 0.4193
vn 0.4193 -0.5769 0.7010
vn 0.6740 -0.3023 0.6740
vn 0.4194 -0.5769 0.7010
vn 0.6740 -0.3024 0.6740
vn 0.7010 -0.5769 0.4194
vn 0.7010 -0.5769 0.4193
vn -0.6740 -0.3023 -0.6740
vn -0.7010 -0.5769 -0.4194
vn -0.7010 -0.5769 -0.4193
vn -0.7009 -0.5769 0.4193
vn -0.4194 -0.5769 0.7009
vn -0.7009 -0.5769 0.4194
vn -0.4194 -0.5769 0.7010
vn -0.6740 -0.3024 0.6740
vn -0.4193 -0.5769 0.7010
vn -0.6740 -0.3023 0.6740
vn -0.7010 -0.5769 0.4193
vn -0.7010 -0.5769 0.4194
vn -0.4193 -0.5769 -0.7010
vn -0.4194 -0.5769 -0.7010
vn -0.6740 -0.3024 -0.6740
vn -0.7009 0.5769 -0.4194
vn -0.4194 0.5769 -0.7009
vn -0.7009 0.5769 -0.4193
vn -0.4193 0.5769 -0.7010
vn -0.6740 0.3023 -0.6740
vn -0.4194 0.5768 -0.7010
vn -0.4194 0.5769 -0.7010
vn -0.7010 0.5769 -0.4193
vn -0.6741 0.3023 -0.6740
vn -0.7010 0.5768 -0.4194
vn -0.7009 -0.5769 -0.4194
vn -0.4194 -0.5769 -0.7009
vn -0.4193 -0.5769 -0.7009
vn -0.7009 -0.5769 -0.4193
vn 0.7009 0.5769 -0.4193
vn 0.4194 0.5769 -0.7009
vn 0.7009 0.5769 -0.4194
vn 0.4193 0.5769 -0.7010
vn 0.6740 0.3023 -0.6740
vn 0.6741 0.3023 -0.6740
vn 0.7010 0.5768 -0.4194
vn 0.7010 0.5769 -0.4193
vn 0.6740 -0.3023 -0.6740
vn 0.7010 -0.5769 -0.4193
vn 0.7010 -0.5769 -0.4194
vn -0.7009 0.5769 0.4193
vn -0.4194 0.5769 0.7009
vn -0.7009 0.5769 0.4194
vn -0.4193 0.5769 0.7010
vn -0.6740 0.3023 0.6740
vn -0.6741 0.3023 0.6740
vn -0.7010 0.5768 0.4194
vn -0.7010 0.5769 0.4193
vn 0.4194 -0.5769 -0.7010
vn 0.6740 -0.3024 -0.6740
vn 0.4193 -0.5769 -0.7010
vn 0.7009 0.5769 0.4194
vn 0.4194 0.5769 0.7009
vn 0.7009 0.5769 0.4193
vn 0.4193 0.5769 0.7010
vn 0.6740 0.3023 0.6740
vn 0.4194 0.5768 0.7010
vn 0.4194 0.5769 0.7010
vn 0.7010 0.5769 0.4193
vn 0.6741 0.3023 0.6740
vn 0.7010 0.5768 0.4194
vn 0.7009 -0.5769 -0.4193
vn 0.4194 -0.5769 -0.7009
vn 0.7009 -0.5769 -0.4194
vn -0.0000 1.0000 -0.0000
vn 0.3534 0.8661 -0.3534
vn -0.3534 0.8661 -0.3534
vn -0.7071 -0.0000 -0.7071
vn 0.3535 0.8661 -0.3534
vn 0.7071 -0.0000 -0.7071
vn 0.7071 0.0001 -0.7071
vn -0.3535 -0.8661 -0.3534
vn 0.3534 -0.8661 -0.3534
vn -0.3534 -0.8661 -0.3534
vn -0.0000 -1.0000 -0.0000
vn 0.3534 0.8661 0.3534
vn 0.3534 0.8661 0.3535
vn 0.7071 -0.0000 0.7071
vn 0.7071 0.0001 0.7071
vn 0.3534 -0.8661 -0.3535
vn 0.3534 -0.8661 0.3534
vn -0.3534 0.8661 0.3534
vn -0.3535 0.8661 0.3534
vn -0.7071 -0.0000 0.7071
vn -0.7071 0.0001 0.7071
vn 0.3535 -0.8661 0.3534
vn -0.3534 -0.8661 0.3534
vn -0.3534 0.8661 -0.3535
vn -0.7071 0.0001 -0.7071
vn -0.3534 -0.8661 0.3535
vt 0.994246 0.968889
vt 0.934815 0.904594
vt 0.994246 0.904594
vt 0.934815 0.968889
vt 0.934816 0.904594
vt 0.934816 0.968889
vt 0.625700 0.968398
vt 0.543908 0.904145
vt 0.625700 0.904145
vt 0.543908 0.968398
vt 0.934814 0.234234
vt 0.994245 0.892817
vt 0.994245 0.234234
vt 0.934814 0.892817
vt 0.543906 0.891631
vt 0.625698 0.318225
vt 0.625698 0.891631
vt 0.543906 0.318225
vt 0.698893 0.980679
vt 0.635903 0.318225
vt 0.698893 0.229025
vt 0.635903 0.894196
vt 0.860634 0.979876
vt 0.924738 0.229578
vt 0.860634 0.109815
vt 0.924738 0.894196
vt 0.850499 0.979876
vt 0.787228 0.229578
vt 0.787228 0.894196
vt 0.850499 0.109815
vt 0.711752 0.980679
vt 0.774714 0.318225
vt 0.774714 0.894196
vt 0.711752 0.229025
vt 0.774713 0.894196
vt 0.094418 0.997334
vt 0.126951 0.923167
vt 0.379962 0.923167
vt 0.379962 0.774595
vt 0.126951 0.774595
vt 0.379962 0.625897
vt 0.126951 0.625897
vt 0.410350 0.551236
vt 0.345466 0.997334
vt 0.156563 0.551236
vt 0.094417 0.997334
s 0
f 165/1/1 167/2/2 168/3/3
f 165/1/1 166/4/4 167/2/2
f 161/1/5 163/5/6 164/3/7
f 161/1/5 162/6/8 163/5/6
f 157/7/9 159/8/10 160/9/11
f 157/7/9 158/10/12 159/8/10
f 153/7/13 155/8/14 156/9/15
f 153/7/13 154/10/16 155/8/14
f 149/9/17 151/10/18 152/8/19
f 149/9/17 150/7/20 151/10/18
f 145/11/6 147/12/21 148/13/7
f 145/11/22 146/14/19 147/12/21
f 141/9/23 143/10/24 144/8/25
f 141/9/23 142/7/26 143/10/24
f 137/13/7 139/14/27 140/11/5
f 137/13/28 138/12/25 139/14/27
f 133/15/20 135/16/25 136/17/18
f 133/15/20 134/18/23 135/16/25
f 129/12/29 131/11/30 132/14/14
f 129/12/29 130/13/8 131/11/5
f 125/13/8 127/14/31 128/11/6
f 125/13/32 126/12/9 127/14/31
f 121/13/33 123/14/34 124/11/3
f 121/13/35 122/12/20 123/14/34
f 117/12/36 119/11/37 120/14/10
f 117/12/36 118/13/1 119/11/38
f 113/14/39 115/13/40 116/12/13
f 113/14/39 114/11/4 115/13/41
f 109/11/42 111/12/43 112/13/2
f 109/11/44 110/14/26 111/12/43
f 105/15/26 107/16/14 108/17/24
f 105/15/26 106/18/15 107/16/14
f 101/15/10 103/16/19 104/17/11
f 101/15/10 102/18/17 103/16/19
f 97/15/13 99/16/9 100/17/16
f 97/15/13 98/18/12 99/16/9
f 93/19/45 95/20/46 96/21/47
f 93/19/48 94/22/45 95/20/46
f 89/23/49 91/24/50 92/25/50
f 89/23/51 90/26/51 91/24/52
f 85/25/50 87/26/53 88/23/54
f 85/25/50 86/24/50 87/26/54
f 81/25/55 83/26/56 84/23/57
f 81/25/55 82/24/55 83/26/57
f 77/21/58 79/22/59 80/20/60
f 77/21/60 78/19/59 79/22/59
f 73/27/61 75/28/62 76/29/63
f 73/27/61 74/30/64 75/28/64
f 69/30/64 71/29/65 72/28/64
f 69/30/64 70/27/65 71/29/66
f 65/23/67 67/24/55 68/25/55
f 65/23/68 66/26/68 67/24/69
f 61/31/70 63/32/71 64/33/70
f 61/31/72 62/34/71 63/32/71
f 57/23/73 59/24/74 60/26/75
f 57/23/76 58/25/74 59/24/74
f 53/25/74 55/26/77 56/24/74
f 53/25/78 54/23/79 55/26/79
f 49/19/80 51/20/81 52/21/82
f 49/19/83 50/22/80 51/20/81
f 45/34/84 47/35/85 48/31/85
f 45/34/86 46/32/86 47/35/85
f 41/27/87 43/28/88 44/30/88
f 41/27/87 42/29/87 43/28/88
f 37/30/89 39/29/90 40/27/90
f 37/30/88 38/28/88 39/29/91
f 33/30/92 35/29/93 36/28/92
f 33/30/92 34/27/93 35/29/94
f 29/34/95 31/35/96 32/31/96
f 29/34/97 30/32/97 31/35/96
f 25/27/98 27/28/99 28/30/99
f 25/27/98 26/29/98 27/28/99
f 21/30/100 23/29/101 24/27/101
f 21/30/99 22/28/99 23/29/102
f 17/27/103 19/28/104 20/29/105
f 17/27/103 18/30/92 19/28/92
f 13/31/106 15/32/107 16/33/106
f 13/31/108 14/34/107 15/32/107
f 9/23/109 11/24/110 12/26/111
f 9/23/112 10/25/110 11/24/110
f 5/25/110 7/26/113 8/24/110
f 5/25/114 6/23/115 7/26/115
f 1/21/116 3/22/117 4/20/118
f 1/21/118 2/19/117 3/22/117
f 197/36/119 195/37/120 196/38/121
f 195/37/120 194/39/122 196/38/121
f 195/37/123 193/40/124 194/39/122
f 193/40/125 192/41/126 194/39/122
f 193/40/124 191/42/127 192/41/128
f 191/42/127 178/43/129 192/41/128
f 176/44/119 189/38/130 190/37/120
f 189/38/130 188/40/124 190/37/120
f 189/38/131 187/39/132 188/40/124
f 187/39/133 186/42/134 188/40/124
f 187/39/132 185/41/135 186/42/127
f 185/41/135 169/45/129 186/42/127
f 184/46/119 182/37/136 183/38/130
f 182/37/136 181/39/132 183/38/130
f 182/37/137 180/40/138 181/39/132
f 180/40/139 179/41/140 181/39/132
f 180/40/138 177/42/141 179/41/135
f 177/42/141 178/43/129 179/41/135
f 175/37/136 176/44/119 174/38/121
f 174/38/121 173/40/138 175/37/136
f 174/38/142 172/39/122 173/40/138
f 172/39/143 170/42/144 173/40/138
f 172/39/122 171/41/128 170/42/141
f 169/45/129 170/42/141 171/41/128
o model_2714
v 1.500000 1.500000 0.000000
v 1.152640 1.321212 0.000000
v 1.152640 1.500000 -0.178788
v 1.152640 1.500000 -0.178788
v 1.152640 1.321212 0.000000
v 0.914854 1.500000 0.000000
v 1.152640 1.500000 0.178788
v 1.152640 1.678788 -0.000000
v 0.914854 1.500000 0.000000
v 1.152640 1.500000 -0.178788
v 0.914854 1.500000 0.000000
v 1.152640 1.678788 -0.000000
v 1.152640 1.500000 0.178788
v 1.500000 1.500000 0.000000
v 1.152640 1.678788 -0.000000
v 1.152640 1.500000 -0.178788
v 1.152640 1.678788 -0.000000
v 1.500000 1.500000 0.000000
v 1.500000 1.500000 0.000000
v 1.152640 1.500000 0.178788
v 1.152640 1.321212 0.000000
v 1.152640 1.500000 0.178788
v 0.914854 1.500000 0.000000
v 1.152640 1.321212 0.000000
v -1.500000 1.500000 0.000000
v -1.152640 1.500000 -0.178788
v -1.152640 1.321212 0.000000
v -1.152640 1.500000 -0.178788
v -0.914854 1.500000 0.000000
v -1.152640 1.321212 0.000000
v -1.152640 1.500000 0.178788
v -0.914854 1.500000 0.000000
v -1.152640 1.678788 -0.000000
v -1.152640 1.500000 -0.178788
v -1.152640 1.678788 -0.000000
v -0.914854 1.500000 0.000000
v -1.152640 1.500000 0.178788
v -1.152640 1.678788 -0.000000
v -1.500000 1.500000 0.000000
v -1.152640 1.500000 -0.178788
v -1.500000 1.500000 0.000000
v -1.152640 1.678788 -0.000000
v -1.500000 1.500000 0.000000
v -1.152640 1.321212 0.000000
v -1.152640 1.500000 0.178788
v -1.152640 1.500000 0.178788
v -1.152640 1.321212 0.000000
v -0.914854 1.500000 0.000000
v 0.000000 1.500000 -1.500000
v 0.178788 1.500000 -1.152640
v 0.000000 1.321212 -1.152640
v 0.178788 1.500000 -1.152640
v 0.000000 1.500000 -0.914854
v 0.000000 1.321212 -1.152640
v -0.178788 1.500000 -1.152640
v 0.000000 1.500000 -0.914854
v 0.000000 1.678788 -1.152640
v 0.178788 1.500000 -1.152640
v 0.000000 1.678788 -1.152640
v 0.000000 1.500000 -0.914854
v -0.178788 1.500000 -1.152640
v 0.000000 1.678788 -1.152640
v 0.000000 1.500000 -1.500000
v 0.178788 1.500000 -1.152640
v 0.000000 1.500000 -1.500000
v 0.000000 1.678788 -1.152640
v 0.000000 1.500000 -1.500000
v 0.000000 1.321212 -1.152640
v -0.178788 1.500000 -1.152640
v -0.178788 1.500000 -1.152640
v 0.000000 1.321212 -1.152640
v 0.000000 1.500000 -0.914854
v 0.000000 1.500000 1.500000
v 0.000000 1.321212 1.152640
v 0.178788 1.500000 1.152640
v 0.178788 1.500000 1.152640
v 0.000000 1.321212 1.152640
v 0.000000 1.500000 0.914854
v -0.178788 1.500000 1.152640
v 0.000000 1.678788 1.152640
v 0.000000 1.500000 0.914854
v 0.178788 1.500000 1.152640
v 0.000000 1.500000 0.914854
v 0.000000 1.678788 1.152640
v -0.178788 1.500000 1.152640
v 0.000000 1.500000 1.500000
v 0.000000 1.678788 1.152640
v 0.178788 1.500000 1.152640
v 0.000000 1.678788 1.152640
v 0.000000 1.500000 1.500000
v 0.000000 1.500000 1.500000
v -0.178788 1.500000 1.152640
v 0.000000 1.321212 1.152640
v -0.178788 1.500000 1.152640
v 0.000000 1.500000 0.914854
v 0.000000 1.321212 1.152640
vn -0.4694 -0.6243 0.6244
vn 0.3420 -0.6645 0.6645
vn 0.3420 0.6645 -0.6645
vn 0.3420 0.6645 0.6645
vn -0.4694 0.6243 -0.6244
vn -0.4694 0.6244 0.6243
vn -0.4694 -0.6244 -0.6244
vn 0.3420 -0.6645 -0.6645
vn 0.4694 -0.6243 0.6244
vn -0.3420 -0.6645 0.6645
vn -0.3420 0.6645 -0.6645
vn -0.3420 0.6645 0.6645
vn 0.4694 0.6243 -0.6244
vn 0.4694 0.6244 0.6243
vn 0.4694 -0.6244 -0.6244
vn -0.3420 -0.6645 -0.6645
vn -0.6244 -0.6244 0.4694
vn -0.6645 -0.6645 -0.3420
vn 0.6645 0.6645 -0.3420
vn -0.6645 0.6645 -0.3420
vn 0.6243 0.6244 0.4694
vn -0.6244 0.6244 0.4694
vn 0.6243 -0.6244 0.4694
vn 0.6645 -0.6645 -0.3420
vn -0.6244 -0.6244 -0.4694
vn -0.6645 -0.6645 0.3420
vn 0.6645 0.6645 0.3420
vn -0.6645 0.6645 0.3420
vn 0.6243 0.6243 -0.4694
vn -0.6244 0.6243 -0.4694
vn 0.6243 -0.6244 -0.4694
vn 0.6645 -0.6645 0.3420
vt 0.558850 0.193346
vt 0.399544 0.118223
vt 0.558850 0.043545
vt 0.795853 0.118223
vt 0.575313 0.193346
vt 0.575313 0.043545
vt 0.558850 0.043546
vt 0.399544 0.118224
vt 0.575313 0.043546
s 0
f 219/47/145 220/48/145 221/49/145
f 216/50/146 217/51/146 218/52/146
f 213/52/147 214/51/147 215/50/147
f 210/52/148 211/50/148 212/51/148
f 207/49/149 208/48/149 209/47/149
f 204/49/150 205/47/150 206/48/150
f 201/47/151 202/53/151 203/54/151
f 198/50/152 199/55/152 200/51/152
f 243/47/153 244/49/153 245/48/153
f 240/50/154 241/52/154 242/51/154
f 237/52/155 238/50/155 239/51/155
f 234/52/156 235/51/156 236/50/156
f 231/49/157 232/47/157 233/48/157
f 228/49/158 229/48/158 230/47/158
f 225/47/159 226/54/159 227/53/159
f 222/50/160 223/51/160 224/55/160
f 267/47/161 268/49/161 269/48/161
f 264/50/162 265/52/162 266/51/162
f 261/52/163 262/50/163 263/51/163
f 258/52/164 259/51/164 260/50/164
f 255/49/165 256/47/165 257/48/165
f 252/49/166 253/48/166 254/47/166
f 249/47/167 250/54/167 251/53/167
f 246/50/168 247/51/168 248/55/168
f 291/47/169 292/48/169 293/49/169
f 288/50/170 289/51/170 290/52/170
f 285/52/171 286/51/171 287/50/171
f 282/52/172 283/50/172 284/51/172
f 279/49/173 280/48/173 281/47/173
f 276/49/174 277/47/174 278/48/174
f 273/47/175 274/53/175 275/54/175
f 270/50/176 271/55/176 272/51/176
