#
# OBJECT NAME
#
o model_3089
mtllib 3089.mtl

#
# VERTEX BUFFER 000
#
v 0.963754 0.0768152 0
v 1.22455 -0.000109173 0
v 0.489187 0.0768152 -0.859441
v 0.607195 -0.000109173 -1.09561
v -0.529624 0.0768152 0.873624
v -1.04074 0.0768152 0
v -0.646378 -0.000109173 1.07714
v -1.30379 -0.000109173 0
v -0.373215 0.362244 0.607561
v 0.312851 0.297201 0.603378
v -0.733008 0.376525 0
v -0.378007 0.327357 -0.60566
v 0.656021 0.362244 0
v 0.332778 0.362244 -0.593377
v -0.531062 0.0768152 -0.873514
v 0.465907 0.0768152 0.871231
v -0.656486 -0.000109173 -1.09302
v 0.605643 -0.00712659 1.11578
v -0.0261497 -0.000109173 0
v -1.30379 -0.000109173 0
v -0.656486 -0.000109173 -1.09302
v -0.0261497 -0.000109173 0
v -0.646378 -0.000109173 1.07714
v -1.30379 -0.000109173 0
v 0.607195 -0.000109173 -1.09561
v 1.22455 -0.000109173 0
v 0.605643 -0.00712659 1.11578
v 1.22455 -0.000109173 0

vn 0.701172 0.712891 -0.00305367
vn 0.0323486 0.999023 0
vn -0.00241852 0.719727 -0.693848
vn 0 0.999023 -0.0323486
vn 0.00325584 0.725098 0.688477
vn -0.710449 0.703125 0.00445175
vn -0.0123749 0.999023 0.0298767
vn -0.0323486 0.999023 0
vn 0.0878906 0.988281 0.121704
vn 0.0280151 0.985352 0.16626
vn -0.131958 0.98877 0.0646362
vn -0.0339661 0.981934 -0.18396
vn 0.114258 0.991699 -0.0559082
vn -0.0461731 0.993652 -0.098877
vn -0.482178 0.726074 -0.489502
vn 0.474609 0.736816 0.480713
vn -0.0228729 0.999023 -0.0228729
vn 0.0228729 0.999023 0.0228729
vn -0.000902653 -0.999512 -0.00158596
vn 0 -1 0
vn 0 -1 0
vn -0.000902653 -0.999512 -0.00158596
vn -0.00275993 -0.999512 -0.00158978
vn 0 -1 0
vn 0 -1 0
vn 0 -0.999512 -0.00318146
vn -0.00273323 -0.999512 -0.00473785
vn 0 -0.999512 -0.00318146

vt 0.727382 0.635437
vt 0.793861 0.64153
vt 0.54063 0.893469
vt 0.558458 0.950912
vt 0.249194 0.317405
vt 0.0662871 0.597379
vt 0.223144 0.265871
vt -0.000981033 0.596287
vt 0.319092 0.452104
vt 0.498321 0.459095
vt 0.221467 0.601673
vt 0.304952 0.758528
vt 0.574248 0.62257
vt 0.479877 0.763215
vt 0.233687 0.879709
vt 0.578664 0.338078
vt 0.206049 0.929856
vt 0.618257 0.277062
vt 0.232103 0.00197613
vt 0.00104684 0.00190014
vt 0.110631 0.199582
vt 0.232087 0.00190014
vt 0.109958 0.199582
vt 0.00104684 0.00190014
vt 0.365597 0.199582
vt 0.463697 0.00190014
vt 0.365597 0.199582
vt 0.463697 0.00190014


#
# MESH 000
#
g surface_000
usemtl surface_000
f 28/28/28 27/27/27 22/22/22
f 22/22/22 27/27/27 23/23/23
f 22/22/22 23/23/23 24/24/24
f 19/19/19 25/25/25 26/26/26
f 19/19/19 21/21/21 25/25/25
f 19/19/19 20/20/20 21/21/21
f 16/16/16 7/7/7 18/18/18
f 5/5/5 7/7/7 16/16/16
f 5/5/5 6/6/6 7/7/7
f 7/7/7 6/6/6 8/8/8
f 8/8/8 6/6/6 17/17/17
f 17/17/17 6/6/6 15/15/15
f 15/15/15 4/4/4 17/17/17
f 2/2/2 16/16/16 18/18/18
f 1/1/1 16/16/16 2/2/2
f 16/16/16 1/1/1 10/10/10
f 16/16/16 10/10/10 5/5/5
f 5/5/5 10/10/10 9/9/9
f 11/11/11 5/5/5 9/9/9
f 6/6/6 5/5/5 11/11/11
f 12/12/12 6/6/6 11/11/11
f 15/15/15 6/6/6 12/12/12
f 15/15/15 12/12/12 3/3/3
f 3/3/3 4/4/4 15/15/15
f 3/3/3 2/2/2 4/4/4
f 1/1/1 2/2/2 3/3/3
f 3/3/3 14/14/14 1/1/1
f 1/1/1 14/14/14 13/13/13
f 10/10/10 1/1/1 13/13/13
f 10/10/10 13/13/13 12/12/12
f 11/11/11 10/10/10 12/12/12
f 9/9/9 10/10/10 11/11/11
f 3/3/3 12/12/12 14/14/14
f 12/12/12 13/13/13 14/14/14

