#
# OBJECT NAME
#
o model_3090
mtllib 3090.mtl

#
# VERTEX BUFFER 000
#
v 0.673423 0.0768152 -0.710762
v 0.96783 0.0768152 0
v 0.855856 -0.000109173 -0.893196
v 1.22583 -0.000109173 0
v -0.0373406 0.0768152 -1.00517
v -0.0373406 -0.000109173 -1.26317
v -1.19074 -0.000109173 -0.517935
v -0.748104 0.0768152 -0.710762
v -0.930536 -0.000109173 -0.893196
v -0.748105 0.0768152 0.710762
v -1.04251 0.0768152 0
v -1.02317 -0.000109173 0.814764
v -1.30051 -0.000109173 0.104986
v -0.332304 -0.000109173 1.14202
v -0.520736 -0.000109173 1.16702
v -0.0373406 0.0768152 1.00517
v 0.088012 -0.000109173 1.24305
v 0.673422 0.0768152 0.710762
v 0.855855 -0.000109173 0.893196
v -0.0373406 0.00273717 0
v 0.27969 0.185522 -0.317032
v -0.0373406 0.185522 -0.448349
v -0.354371 0.185522 -0.317032
v -0.485689 0.185522 0
v -0.354371 0.185522 0.317032
v -0.0373406 0.185522 0.448349
v 0.27969 0.185522 0.317032
v 0.411007 0.185522 0
v -0.654294 0.21845 0.616951
v -0.909845 0.269041 0
v -0.654294 0.235526 -0.616951
v -0.0373406 0.261469 -0.872498
v 0.579613 0.233748 -0.616951
v 0.835164 0.261469 0
v 0.579613 0.228536 0.616951
v -0.0373406 0.253359 0.872498
v -0.73388 0.376525 0
v -0.529869 0.315111 0.492531
v -0.529869 0.327357 -0.492531
v -0.0373406 0.362244 -0.696541
v 0.455188 0.311342 -0.492531
v 0.659199 0.362244 0
v 0.455188 0.297201 0.492531
v -0.0373406 0.362244 0.696541
v -0.379507 -0.000109173 -1.15695
v -0.27869 -0.000109173 -1.19684
v -1.21436 -0.000109173 -0.38011
v -1.20358 -0.000109173 -0.2443
v 1.12238 -0.000109173 0.269876
v -0.0198508 -0.000109173 0
v -1.30051 -0.000109173 0.104986
v -1.20358 -0.000109173 -0.2443
v -1.02317 -0.000109173 0.814764
v -1.30051 -0.000109173 0.104986
v -0.520736 -0.000109173 1.16702
v -0.332304 -0.000109173 1.14202
v -0.27869 -0.000109173 -1.19684
v -0.379507 -0.000109173 -1.15695
v -0.520734 -0.000109173 -1.16702
v -0.930536 -0.000109173 -0.893196
v -1.19074 -0.000109173 -0.517935
v -1.21436 -0.000109173 -0.38011
v 1.22583 -0.000109173 0
v 1.12238 -0.000109173 0.269876
v 0.855856 -0.000109173 -0.893196
v 1.22583 -0.000109173 0
v -0.0373406 -0.000109173 -1.26317
v -0.224732 -0.000109173 1.21987
v 0.088012 -0.000109173 1.24305
v 0.855855 -0.000109173 0.893196
v 1.15774 -0.000109173 0.342307
v 1.15774 -0.000109173 0.342307
v -0.520734 -0.000109173 -1.16702
v -0.224732 -0.000109173 1.21987

vn 0.480713 0.734375 -0.478271
vn 0.701172 0.712891 -0.00305367
vn 0.0228729 0.999023 -0.0228729
vn 0.0323486 0.999023 0
vn -0.00241852 0.719727 -0.693848
vn 0 0.999023 -0.0323486
vn -0.0298767 0.999023 -0.0123749
vn -0.482178 0.726074 -0.489502
vn -0.0228729 0.999023 -0.0228729
vn -0.474609 0.743164 0.471436
vn -0.710449 0.703125 0.00445175
vn -0.0228729 0.999023 0.0228729
vn -0.0323486 0.999023 0
vn -0.0958252 0.961914 0.254639
vn -0.0123749 0.999023 0.0298767
vn 0.00325584 0.725098 0.688477
vn 0 0.999023 0.0323486
vn 0.474609 0.736816 0.480713
vn 0.0228729 0.999023 0.0228729
vn 0 1 0
vn -0.279297 0.914551 0.292236
vn -0.0162811 0.904785 0.424805
vn 0.322754 0.905762 0.273926
vn 0.458008 0.888672 0.0167389
vn 0.29248 0.905273 -0.306396
vn 0.036377 0.90332 -0.427002
vn -0.30127 0.918945 -0.252686
vn -0.436523 0.899414 -0.0180511
vn -0.482422 0.742676 0.463867
vn -0.705566 0.708008 0.0260315
vn -0.450928 0.737793 -0.501465
vn -0.0175018 0.742676 -0.668457
vn 0.469238 0.757324 -0.453369
vn 0.68457 0.728516 -0.0206299
vn 0.431152 0.766113 0.476074
vn 0.0289764 0.740723 0.670898
vn -0.131958 0.98877 0.0646362
vn -0.178833 0.975098 0.129639
vn -0.0339661 0.981934 -0.18396
vn -0.0461731 0.993652 -0.098877
vn 0.124695 0.98877 -0.0819092
vn 0.114258 0.991699 -0.0559082
vn 0.0280151 0.985352 0.16626
vn 0.0878906 0.988281 0.121704
vn -0.0888062 0.966309 -0.240356
vn -0.0900269 0.958008 -0.270996
vn -0.161621 0.986816 0.0016098
vn -0.270508 0.95752 -0.0958862
vn 0.257324 0.961426 0.0922852
vn 0 -1 0
vn 0 -1 0
vn 0 -1 0
vn 0 -1 0
vn 0 -1 0
vn 0 -1 0
vn 0 -1 0
vn 0 -1 0
vn 0 -1 0
vn 0 -1 0
vn 0 -1 0
vn 0 -1 0
vn 0 -1 0
vn 0 -1 0
vn 0 -1 0
vn 0 -1 0
vn 0 -1 0
vn 0 -1 0
vn 0 -1 0
vn 0 -1 0
vn 0 -1 0
vn 0 -1 0
vn 0.182129 0.982422 0.0343018
vn -0.0123749 0.999023 -0.0298767
vn -0.0853882 0.958984 0.269043

vt 0.613126 0.816065
vt 0.703753 0.603264
vt 0.673697 0.876686
vt 0.788905 0.603533
vt 0.400763 0.904905
vt 0.400527 0.989999
vt 0.0405607 0.751438
vt 0.185922 0.815038
vt 0.12564 0.876201
vt 0.186929 0.391712
vt 0.0962782 0.604587
vt 0.126256 0.331195
vt 0.0111218 0.60421
vt 0.317793 0.233206
vt 0.251295 0.247045
vt 0.398239 0.302733
vt 0.398522 0.21778
vt 0.613311 0.392895
vt 0.673609 0.331526
vt 0.401439 0.603499
vt 0.480788 0.683189
vt 0.40087 0.715052
vt 0.321872 0.682142
vt 0.290993 0.603626
vt 0.32176 0.524702
vt 0.40087 0.491863
vt 0.481444 0.523684
vt 0.512878 0.603708
vt 0.227515 0.431828
vt 0.161599 0.605102
vt 0.227895 0.771883
vt 0.401281 0.841164
vt 0.570741 0.773904
vt 0.640059 0.602849
vt 0.572196 0.435291
vt 0.39756 0.364816
vt 0.214329 0.605611
vt 0.268584 0.472175
vt 0.266507 0.732262
vt 0.402088 0.789842
vt 0.532517 0.735801
vt 0.588152 0.60221
vt 0.534672 0.473667
vt 0.396047 0.417284
vt 0.295658 0.968654
vt 0.326557 0.974943
vt 0.0342708 0.719982
vt 0.0295358 0.696301
vt 0.774633 0.532862
vt 0.232087 0.00190014
vt 0.463697 0.00190014
vt 0.4429 0.0608981
vt 0.0460699 0.128885
vt 0.00104684 0.00190014
vt 0.121938 0.203304
vt 0.15655 0.207249
vt 0.272849 0.218925
vt 0.290195 0.212525
vt 0.312588 0.210696
vt 0.388308 0.171388
vt 0.430323 0.104635
vt 0.443682 0.0847146
vt 0.463697 0.00190014
vt 0.442501 0.055217
vt 0.070647 0.163978
vt 0.00104684 0.00190014
vt 0.23162 0.229741
vt 0.174907 0.223833
vt 0.232087 0.23449
vt 0.386362 0.175282
vt 0.442699 0.0713241
vt 0.767837 0.499208
vt 0.252374 0.959844
vt 0.346226 0.227651


#
# VERTEX BUFFER 001
#
v -1.13997 0.00580527 -0.393489
v -0.791702 0.00580526 -0.891768
v -1.63457 0.00580526 -0.741332
v -1.2863 0.00580526 -1.23962
v -1.40935 0.00580526 0.857481
v -0.960555 0.00580526 0.730291
v -1.5365 0.00580526 0.408711
v -1.08771 0.00580526 0.281527
v 0.450817 0.00580526 1.71635
v 1.11562 0.00580526 1.4883
v 0.222777 0.00580526 1.05154
v 0.887588 0.00580526 0.823516
v 1.19952 0.00580526 0.00139618
v 1.56792 0.00580526 -0.284683
v 0.913438 0.00580526 -0.367004
v 1.28184 0.00580526 -0.653084
v 0.272437 0.00580526 -1.17627
v 0.816498 0.00580526 -0.731321
v 0.717403 0.00580526 -1.72032
v 1.26145 0.00580526 -1.27535
v -0.216546 0.00580526 0.960305
v -0.682719 0.00580526 0.976822
v -0.200058 0.00580526 1.42645
v -0.666231 0.00580526 1.44296
v 0.157202 0.00580526 -1.01153
v 0.506318 0.00580526 -1.3209
v -0.152125 0.00580526 -1.36065
v 0.196994 0.00580526 -1.67001

vn -0.110229 0.993652 0.00144863
vn -0.110229 0.993652 0.00144863
vn -0.110229 0.993652 0.00144863
vn -0.110229 0.993652 0.00144863
vn 0 1 0
vn 0 1 0
vn 0 1 0
vn 0 1 0
vn 0 1 0
vn 0 1 0
vn 0 1 0
vn 0 1 0
vn 0 1 0
vn 0 1 0
vn 0 1 0
vn 0 1 0
vn 0 1 0
vn 0 1 0
vn 0 1 0
vn 0 1 0
vn 0 1 0
vn 0 1 0
vn 0 1 0
vn 0 1 0
vn 0 1 0
vn 0 1 0
vn 0 1 0
vn 0 1 0

vt 0.68098 0.00527513
vt 0.996847 0.00527525
vt 0.68098 0.321144
vt 0.996847 0.321144
vt 0.806376 0.337682
vt 0.99553 0.337682
vt 0.806376 0.526838
vt 0.99553 0.526838
vt 0.68098 0.00527513
vt 0.996847 0.00527525
vt 0.68098 0.321144
vt 0.996847 0.321144
vt 0.806376 0.337682
vt 0.99553 0.337682
vt 0.806376 0.526838
vt 0.99553 0.526838
vt 0.68098 0.00527513
vt 0.996847 0.00527525
vt 0.68098 0.321144
vt 0.996847 0.321144
vt 0.806376 0.337682
vt 0.99553 0.337682
vt 0.806376 0.526838
vt 0.99553 0.526838
vt 0.806376 0.337682
vt 0.99553 0.337682
vt 0.806376 0.526838
vt 0.99553 0.526838


#
# MESH 000
#
g surface_000
usemtl surface_000
f 50/50/50 65/65/65 66/66/66
f 50/50/50 67/67/67 65/65/65
f 67/67/67 50/50/50 57/57/57
f 57/57/57 50/50/50 58/58/58
f 58/58/58 50/50/50 59/59/59
f 60/60/60 59/59/59 50/50/50
f 50/50/50 61/61/61 60/60/60
f 50/50/50 62/62/62 61/61/61
f 50/50/50 52/52/52 62/62/62
f 50/50/50 51/51/51 52/52/52
f 50/50/50 63/63/63 64/64/64
f 50/50/50 64/64/64 71/71/71
f 50/50/50 71/71/71 70/70/70
f 50/50/50 70/70/70 69/69/69
f 69/69/69 68/68/68 50/50/50
f 56/56/56 50/50/50 68/68/68
f 50/50/50 56/56/56 55/55/55
f 50/50/50 55/55/55 53/53/53
f 50/50/50 53/53/53 54/54/54
f 74/74/74 16/16/16 14/14/14
f 16/16/16 74/74/74 17/17/17
f 16/16/16 17/17/17 18/18/18
f 18/18/18 35/35/35 16/16/16
f 16/16/16 35/35/35 36/36/36
f 29/29/29 16/16/16 36/36/36
f 10/10/10 16/16/16 29/29/29
f 14/14/14 16/16/16 10/10/10
f 14/14/14 10/10/10 15/15/15
f 15/15/15 10/10/10 12/12/12
f 18/18/18 17/17/17 19/19/19
f 72/72/72 18/18/18 19/19/19
f 72/72/72 49/49/49 18/18/18
f 18/18/18 49/49/49 2/2/2
f 18/18/18 2/2/2 35/35/35
f 35/35/35 2/2/2 34/34/34
f 34/34/34 43/43/43 35/35/35
f 35/35/35 43/43/43 36/36/36
f 36/36/36 43/43/43 44/44/44
f 44/44/44 38/38/38 36/36/36
f 36/36/36 38/38/38 29/29/29
f 2/2/2 49/49/49 4/4/4
f 3/3/3 2/2/2 4/4/4
f 1/1/1 2/2/2 3/3/3
f 1/1/1 33/33/33 2/2/2
f 2/2/2 33/33/33 34/34/34
f 33/33/33 41/41/41 34/34/34
f 34/34/34 41/41/41 42/42/42
f 42/42/42 43/43/43 34/34/34
f 6/6/6 1/1/1 3/3/3
f 5/5/5 1/1/1 6/6/6
f 1/1/1 5/5/5 33/33/33
f 33/33/33 5/5/5 32/32/32
f 33/33/33 32/32/32 41/41/41
f 41/41/41 32/32/32 40/40/40
f 40/40/40 22/22/22 41/41/41
f 41/41/41 22/22/22 21/21/21
f 28/28/28 41/41/41 21/21/21
f 42/42/42 41/41/41 28/28/28
f 42/42/42 28/28/28 43/43/43
f 46/46/46 5/5/5 6/6/6
f 45/45/45 5/5/5 46/46/46
f 45/45/45 8/8/8 5/5/5
f 8/8/8 31/31/31 5/5/5
f 5/5/5 31/31/31 32/32/32
f 31/31/31 39/39/39 32/32/32
f 32/32/32 39/39/39 40/40/40
f 40/40/40 39/39/39 22/22/22
f 22/22/22 39/39/39 23/23/23
f 20/20/20 22/22/22 23/23/23
f 20/20/20 21/21/21 22/22/22
f 20/20/20 28/28/28 21/21/21
f 20/20/20 27/27/27 28/28/28
f 43/43/43 28/28/28 27/27/27
f 45/45/45 73/73/73 8/8/8
f 8/8/8 73/73/73 9/9/9
f 7/7/7 8/8/8 9/9/9
f 47/47/47 8/8/8 7/7/7
f 47/47/47 48/48/48 8/8/8
f 48/48/48 11/11/11 8/8/8
f 8/8/8 11/11/11 31/31/31
f 31/31/31 11/11/11 30/30/30
f 30/30/30 39/39/39 31/31/31
f 37/37/37 39/39/39 30/30/30
f 37/37/37 24/24/24 39/39/39
f 39/39/39 24/24/24 23/23/23
f 20/20/20 23/23/23 24/24/24
f 11/11/11 48/48/48 13/13/13
f 12/12/12 11/11/11 13/13/13
f 10/10/10 11/11/11 12/12/12
f 10/10/10 29/29/29 11/11/11
f 11/11/11 29/29/29 30/30/30
f 38/38/38 30/30/30 29/29/29
f 37/37/37 30/30/30 38/38/38
f 37/37/37 38/38/38 24/24/24
f 24/24/24 38/38/38 25/25/25
f 20/20/20 24/24/24 25/25/25
f 20/20/20 25/25/25 26/26/26
f 20/20/20 26/26/26 27/27/27
f 26/26/26 43/43/43 27/27/27
f 44/44/44 43/43/43 26/26/26
f 44/44/44 26/26/26 38/38/38
f 38/38/38 26/26/26 25/25/25

#
# MESH 001
#
g surface_001
usemtl surface_001
f 101/101/101 100/100/100 102/102/102
f 99/99/99 100/100/100 101/101/101
f 97/97/97 96/96/96 98/98/98
f 95/95/95 96/96/96 97/97/97
f 93/93/93 92/92/92 94/94/94
f 91/91/91 92/92/92 93/93/93
f 89/89/89 88/88/88 90/90/90
f 87/87/87 88/88/88 89/89/89
f 85/85/85 84/84/84 86/86/86
f 83/83/83 84/84/84 85/85/85
f 81/81/81 80/80/80 82/82/82
f 79/79/79 80/80/80 81/81/81
f 77/77/77 76/76/76 78/78/78
f 75/75/75 76/76/76 77/77/77

