#
# OBJECT NAME
#
o model_3092
mtllib 3092.mtl

#
# VERTEX BUFFER 000
#
v 0.17459 -0.000108934 -1.20568
v 0.84573 -0.002709 -0.88453
v -0.068188 -0.020973 0.0111307
v -0.695546 -0.000108933 -1.053
v -1.06745 -0.000108934 0.69696
v -1.30051 -0.000108934 0.00866635
v -0.068188 -0.020973 0.0111307
v -0.279038 -0.000108934 1.22376
v 0.650954 -0.000108927 1.03877
v -1.30051 -0.000108934 0.00866635
v -1.1828 -0.000108934 -0.509269
v 1.08959 0.0367676 0.0527167
v 1.08959 0.0367676 0.0527167
v -1.1828 -0.000108934 -0.509269
v -1.63457 0.00580526 -0.732666
v -1.13997 0.00580527 -0.384823
v -0.791702 0.00580538 -0.883102
v -1.2863 0.00580526 -1.23095
v -1.43096 0.0107655 0.494907
v -1.40648 0.00580526 0.835089
v -0.960555 0.00580538 0.738957
v -1.08771 0.00580529 0.290193
v 0.255179 0.00580524 1.20096
v 0.573407 0.00580526 1.77651
v 1.16929 0.00580526 1.45828
v 0.851064 0.0058052 0.882748
v 0.790723 0.00580526 -1.66249
v 0.345757 0.00580514 -1.11844
v 0.867972 0.0058052 -0.673488
v 1.28206 0.00580526 -1.21752
v -0.0848851 0.0058052 -1.35198
v 0.157202 0.00580527 -1.00287
v 0.454883 0.0058052 -1.31224
v 0.196994 0.00580526 -1.58538
v -0.300044 0.315441 -0.501335
v -0.169779 0.214928 -0.321047
v -0.00946373 0.312913 -0.528193
v -0.399023 0.327334 0.351481
v -0.473257 0.369559 -0.0992691
v -1.30051 -0.000108934 0.00866635
v -1.06745 -0.000108934 0.69696
v -0.695546 -0.000108933 -1.053
v -1.1828 -0.000108934 -0.509269
v 0.84573 -0.00010892 -0.88453
v 0.17459 -0.000108934 -1.20568
v 0.152672 0.281542 -0.294239
v 0.0866805 0.321921 0.466032
v 0.650954 -0.000108927 1.03877
v 1.08959 0.0367676 0.0527167
v 0.165483 0.267099 0.109022
v -0.119905 0.320274 0.641084
v -0.279038 -0.000108934 1.22376
v -0.109001 0.231773 0.394868
v 1.60156 -0.00592627 -0.0897708
v 1.47475 -0.00604181 -0.602747
v 1.30884 -0.0057758 0.457336

vn 0.000352859 -0.999512 -0.0170593
vn 0.0267334 -0.999512 0.00690842
vn 0.0113068 -0.999512 0.00187016
vn -0.00782013 -0.999512 -0.0149841
vn -0.0133743 -0.999512 0.0109253
vn -0.016922 -0.999512 0.00142384
vn 0.0113068 -0.999512 0.00187016
vn -0.00316429 -0.999512 0.0166473
vn 0.0263519 -0.999512 0.00185299
vn -0.016922 -0.999512 0.00142384
vn -0.0169067 -0.999512 -0.00384521
vn 0.04953 -0.998535 0.00719452
vn 0.04953 -0.998535 0.00719452
vn -0.0131912 -0.999512 -0.0118179
vn -1.19209e-007 1 0
vn -1.19209e-007 1 0
vn -1.19209e-007 1 0
vn -1.19209e-007 1 0
vn 0.00808716 0.999512 0.00473022
vn 0.00808716 0.999512 0.00473022
vn 0.00808716 0.999512 0.00473022
vn 0.00808716 0.999512 0.00473022
vn 0 1 0
vn 0 1 0
vn 0 1 0
vn 0 1 0
vn -1.19209e-007 1 0
vn -1.19209e-007 1 0
vn -1.19209e-007 1 0
vn -1.19209e-007 1 0
vn 0 1 0
vn 0 1 0
vn 0 1 0
vn 0 1 0
vn -0.183472 0.923828 -0.335205
vn 0.120667 0.990723 0.0561523
vn 0.0807495 0.937988 -0.336914
vn -0.217285 0.953613 0.206299
vn -0.220581 0.973633 -0.0492859
vn -0.395508 0.915527 0.0704346
vn -0.342041 0.90918 0.237183
vn -0.2146 0.910645 -0.352539
vn -0.353027 0.90918 -0.219482
vn 0.207642 0.969238 -0.130493
vn 0.0933838 0.927734 -0.361328
vn 0.201538 0.972656 -0.114136
vn 0.232056 0.949219 0.212036
vn 0.240479 0.943848 0.224731
vn 0.203735 0.979004 0.00452805
vn 0.218872 0.975098 0.0222778
vn -0.0645142 0.914551 0.398682
vn -0.0953979 0.905762 0.412109
vn 0.136475 0.986816 -0.0860596
vn 0.0537415 0.998047 -0.0257721
vn 0.0471191 0.998047 -0.0374756
vn 0.0755615 0.994629 0.0636597

vt 0.265141 0.20974
vt 0.409154 0.135714
vt 0.208558 0.0138696
vt 0.110939 0.182614
vt 0.0438825 0.123749
vt 0.0126239 0.00637221
vt 0.208558 0.0138696
vt 0.169552 0.220334
vt 0.325265 0.192834
vt 0.0126239 0.00637221
vt 0.0347954 0.100324
vt 0.451891 0.0226241
vt 0.457548 0.0124601
vt 0.0347954 0.100324
vt 0.68098 0.321144
vt 0.68098 0.00527513
vt 0.996847 0.00527525
vt 0.996847 0.321144
vt 0.82927 0.488762
vt 0.801308 0.34155
vt 0.990463 0.34155
vt 0.990463 0.530706
vt 0.68098 0.321144
vt 0.68098 0.00527513
vt 0.996847 0.00527525
vt 0.996847 0.321144
vt 0.68098 0.321144
vt 0.68098 0.00527513
vt 0.996847 0.00527525
vt 0.996847 0.321144
vt 0.826164 0.50119
vt 0.801308 0.34155
vt 0.990463 0.34155
vt 0.990463 0.530706
vt 0.304503 0.776056
vt 0.352107 0.710881
vt 0.40301 0.767183
vt 0.258441 0.487498
vt 0.243453 0.648498
vt 0.0101415 0.603078
vt 0.0811151 0.393476
vt 0.185205 0.91677
vt 0.0435701 0.760802
vt 0.674408 0.883066
vt 0.459345 0.972875
vt 0.459328 0.69457
vt 0.427932 0.463966
vt 0.604409 0.289386
vt 0.745982 0.589709
vt 0.46053 0.572517
vt 0.360345 0.399037
vt 0.316329 0.23635
vt 0.349576 0.490706
vt 0.931076 0.626015
vt 0.896654 0.777674
vt 0.807318 0.464028


#
# MESH 000
#
g surface_000
usemtl surface_000
f 3/3/3 10/10/10 11/11/11
f 14/14/14 4/4/4 3/3/3
f 3/3/3 4/4/4 1/1/1
f 1/1/1 2/2/2 3/3/3
f 3/3/3 2/2/2 13/13/13
f 7/7/7 12/12/12 9/9/9
f 9/9/9 8/8/8 7/7/7
f 8/8/8 5/5/5 7/7/7
f 5/5/5 6/6/6 7/7/7
f 44/44/44 54/54/54 55/55/55
f 44/44/44 49/49/49 54/54/54
f 54/54/54 49/49/49 56/56/56
f 49/49/49 48/48/48 56/56/56
f 47/47/47 48/48/48 49/49/49
f 51/51/51 48/48/48 47/47/47
f 51/51/51 52/52/52 48/48/48
f 51/51/51 41/41/41 52/52/52
f 50/50/50 49/49/49 44/44/44
f 47/47/47 49/49/49 50/50/50
f 53/53/53 47/47/47 50/50/50
f 51/51/51 47/47/47 53/53/53
f 51/51/51 53/53/53 38/38/38
f 51/51/51 38/38/38 41/41/41
f 38/38/38 40/40/40 41/41/41
f 38/38/38 39/39/39 40/40/40
f 39/39/39 43/43/43 40/40/40
f 39/39/39 42/42/42 43/43/43
f 50/50/50 44/44/44 46/46/46
f 53/53/53 50/50/50 46/46/46
f 53/53/53 46/46/46 36/36/36
f 39/39/39 53/53/53 36/36/36
f 39/39/39 38/38/38 53/53/53
f 44/44/44 37/37/37 46/46/46
f 46/46/46 37/37/37 36/36/36
f 35/35/35 36/36/36 37/37/37
f 39/39/39 36/36/36 35/35/35
f 39/39/39 35/35/35 42/42/42
f 45/45/45 42/42/42 35/35/35
f 45/45/45 35/35/35 37/37/37
f 44/44/44 45/45/45 37/37/37
f 31/31/31 33/33/33 34/34/34
f 31/31/31 32/32/32 33/33/33
f 27/27/27 29/29/29 30/30/30
f 27/27/27 28/28/28 29/29/29
f 23/23/23 25/25/25 26/26/26
f 23/23/23 24/24/24 25/25/25
f 19/19/19 21/21/21 22/22/22
f 19/19/19 20/20/20 21/21/21
f 15/15/15 17/17/17 18/18/18
f 15/15/15 16/16/16 17/17/17

