#
# OBJECT NAME
#
o model_4803
mtllib 4803.mtl

#
# VERTEX BUFFER 000
#
v 0.815673 0.1 -0.471966
v 0.85733 0 -0.494281
v 9.53674e-007 0.1 -0.941692
v 9.53674e-007 0 -0.99284
v 9.53674e-007 0 -0.99284
v -0.860048 0 -0.500228
v 9.53674e-007 0.1 -0.941692
v -0.817859 0.1 -0.471309
v -0.857934 0 0.497173
v -0.816277 0.1 0.47486
v 0 0.1 0.941692
v 0 0 0.99284
v 0 0 0.99284
v 0.859443 0 0.500174
v 0 0.1 0.941692
v 0.817254 0.1 0.471255
v -0.860048 0 -0.500228
v 9.53674e-007 0 -0.99284
v -0.857934 0 0.497173
v 0 0 0.99284
v 0.85733 0 -0.494281
v 0.859443 0 0.500174
v 2.35625e-007 0.1 0
v 0.632135 0.1 -0.363493
v 0 0.1 -0.717155
v -0.633343 0.1 -0.36635
v -0.63276 0.1 0.366685
v 0 0.1 0.717155
v 0.632759 0.1 0.363652
v -0.63276 0.1 0.366685
v -0.816277 0.1 0.47486
v 0 0.1 0.717155
v 0 0.1 0.941692
v -0.817859 0.1 -0.471309
v -0.633343 0.1 -0.36635
v 9.53674e-007 0.1 -0.941692
v 0 0.1 -0.717155
v 9.53674e-007 0.1 -0.941692
v 0 0.1 -0.717155
v 0.815673 0.1 -0.471966
v 0.632135 0.1 -0.363493
v 0.817254 0.1 0.471255
v 0.632759 0.1 0.363652
v 0 0.1 0.941692
v 0 0.1 0.717155

vn 0.663574 0.344727 -0.663574
vn 0.938477 0.344727 3.57628e-007
vn 0 0.344727 -0.938477
vn 0 0.344727 -0.938477
vn 0 0.344727 -0.938477
vn -0.663574 0.344727 -0.663574
vn 0 0.344727 -0.938477
vn -0.663574 0.344727 -0.663574
vn -0.663574 0.344727 0.663574
vn -0.663574 0.344727 0.663574
vn 0 0.344727 0.938477
vn 0 0.344727 0.938477
vn 0 0.344727 0.938477
vn 0.663574 0.344727 0.663574
vn 0 0.344727 0.938477
vn 0.663574 0.344727 0.663574
vn 0 -1 0
vn 0 -1 0
vn 0 -1 0
vn 0 -1 0
vn 0 -1 0
vn 0 -1 0
vn 5.96046e-007 1 -1.43051e-006
vn 2.5034e-006 1 0
vn 0 1 0
vn 2.32458e-006 1 -1.54972e-006
vn 0 1 0
vn 0 1 0
vn 0 1 0
vn 0 1 0
vn 0 1 0
vn 0 1 0
vn 0 1 0
vn -3.57628e-007 1 1.96695e-006
vn 2.32458e-006 1 -1.54972e-006
vn 0 1 0
vn 0 1 0
vn 0 1 0
vn 0 1 0
vn 5.24521e-006 1 0
vn 2.5034e-006 1 0
vn 0 1 0
vn 0 1 0
vn 0 1 0
vn 0 1 0

vt 0.627011 0.251883
vt 0.627005 0.202989
vt 1 0.251883
vt 1 0.202989
vt 0 0.202989
vt 0.250923 0.202989
vt 0 0.251883
vt 0.250923 0.251883
vt 0.627005 0.202989
vt 0.627011 0.251883
vt 1 0.251883
vt 1 0.202989
vt 0 0.202989
vt 0.250923 0.202989
vt 0 0.251883
vt 0.250923 0.251883
vt 0.91891 0.90955
vt 0.773621 0.969599
vt 0.94916 0.69171
vt 0.773939 0.558791
vt 0.598399 0.82056
vt 0.628647 0.61884
vt 0.283853 0.698976
vt 0.521989 0.831901
vt 0.283822 0.961213
vt 0.0365755 0.838364
vt 0.0468813 0.558043
vt 0.283822 0.436737
vt 0.522074 0.558469
vt 0.627008 0.384804
vt 0.627011 0.299448
vt 1 0.384804
vt 1 0.299448
vt 0.250923 0.299448
vt 0.250923 0.384804
vt 0 0.299448
vt 0 0.384804
vt 1 0.299448
vt 1 0.384804
vt 0.627011 0.299448
vt 0.627008 0.384804
vt 0.250923 0.299448
vt 0.250923 0.384804
vt 0 0.299448
vt 0 0.384804


#
# MESH 000
#
g surface_000
usemtl surface_000
f 44/44/44 42/42/42 45/45/45
f 45/45/45 42/42/42 43/43/43
f 42/42/42 40/40/40 43/43/43
f 43/43/43 40/40/40 41/41/41
f 40/40/40 39/39/39 41/41/41
f 38/38/38 39/39/39 40/40/40
f 36/36/36 34/34/34 37/37/37
f 37/37/37 34/34/34 35/35/35
f 34/34/34 30/30/30 35/35/35
f 31/31/31 30/30/30 34/34/34
f 30/30/30 31/31/31 32/32/32
f 32/32/32 31/31/31 33/33/33
f 20/20/20 21/21/21 22/22/22
f 18/18/18 21/21/21 20/20/20
f 19/19/19 18/18/18 20/20/20
f 17/17/17 18/18/18 19/19/19
f 13/13/13 14/14/14 15/15/15
f 15/15/15 14/14/14 16/16/16
f 14/14/14 2/2/2 16/16/16
f 16/16/16 2/2/2 1/1/1
f 1/1/1 2/2/2 3/3/3
f 3/3/3 2/2/2 4/4/4
f 11/11/11 9/9/9 12/12/12
f 10/10/10 9/9/9 11/11/11
f 8/8/8 9/9/9 10/10/10
f 6/6/6 9/9/9 8/8/8
f 7/7/7 6/6/6 8/8/8
f 5/5/5 6/6/6 7/7/7
f 23/23/23 29/29/29 24/24/24
f 23/23/23 28/28/28 29/29/29
f 23/23/23 27/27/27 28/28/28
f 23/23/23 26/26/26 27/27/27
f 23/23/23 25/25/25 26/26/26
f 23/23/23 24/24/24 25/25/25

