#
# OBJECT NAME
#
o model_1333
mtllib 1333.mtl

#
# VERTEX BUFFER 000
#
v 1 1 -1
v 0 1 -1
v 0.15462 0.990191 -0.515424
v 0.510711 0.990191 -0.157021
v 0 1 -1
v 1 1 -1
v 1 -1.55214e-007 -1
v 0 -1.55214e-007 -1
v 1 1 -1
v 1 1 0
v 1 -1.55214e-007 0
v 1 -1.55214e-007 -1
v 1 0.951057 0.309017
v -0.587785 0.809017 -1
v -0.309017 0.951057 -1
v 0 -1.55214e-007 -1
v -0.73205 -3.10428e-007 -3.57628e-007
v -1 0 -1
v 1 -1.55214e-007 0
v 0 -1.55214e-007 -1
v 1 -1.55214e-007 -1
v -0.587785 0.809017 -1
v -0.809017 0.587785 -1
v -0.554938 0.58167 -0.104575
v -0.37486 0.796385 -0.20965
v -0.951057 0.309017 -1
v -0.683729 0.303015 -0.0294257
v -1 0 -1
v -0.73205 -3.10428e-007 -3.57628e-007
v 1 0.809017 0.587785
v 1 0.587785 0.809017
v 1 0.309017 0.951057
v 1 0 1
v 1 0.309017 0.951057
v -0.951057 0.309017 -1
v -0.809017 0.587785 -1
v -1 0 -1
v -0.683729 0.303015 -0.0294257
v -0.73205 -3.10428e-007 -3.57628e-007
v 1.19209e-007 -3.10428e-007 0.73205
v 0.0321885 0.303015 0.681739
v -0.554938 0.58167 -0.104575
v 0.106918 0.58167 0.552734
v -0.37486 0.796385 -0.20965
v 0.211405 0.796385 0.372356
v 0.0321885 0.303015 0.681739
v 1.19209e-007 -3.10428e-007 0.73205
v 1 0 1
v 1 0.309017 0.951057
v 0.106918 0.58167 0.552734
v 1 0.587785 0.809017
v 0.211405 0.796385 0.372356
v 1 0.809017 0.587785
v 1 0.951057 0.309017
v 0.351406 0.950954 0.130672
v 1 0 1
v 1.19209e-007 -3.10428e-007 0.73205
v 1 -1.55214e-007 0
v 1.19209e-007 -3.10428e-007 0.73205
v -0.73205 -3.10428e-007 -3.57628e-007
v 1 1 0
v 0.351406 0.950954 0.130672
v -0.133576 0.950954 -0.350438
v 1 1 0
v 0.510711 0.990191 -0.157021
v 0.15462 0.990191 -0.515424
v 0 1 -1
v -0.309017 0.951057 -1
v -0.133576 0.950954 -0.350438
v 0.15462 0.990191 -0.515424
v 0.510711 0.990191 -0.157021

vn -0.00922394 0.999512 0.00914001
vn 0 0.999512 0.0202332
vn -0.00359154 0.999512 0.0139694
vn -0.013916 0.999512 0.00355339
vn 0 0 -1
vn 0 0 -1
vn 0 0 -1
vn 0 0 -1
vn 1 0 0
vn 1 0 0
vn 1 0 0
vn 1 0 0
vn 1 0 0
vn 0 0 -1
vn 0 0 -1
vn -1.19209e-007 -1 -2.38419e-007
vn -1.19209e-007 -1 -2.38419e-007
vn -1.19209e-007 -1 -2.38419e-007
vn 0 -1 0
vn 0 -1 0
vn 0 -1 0
vn -0.606445 0.775391 0.174316
vn -0.797363 0.558594 0.227051
vn -0.706543 0.571777 0.416504
vn -0.536133 0.781738 0.317871
vn -0.918457 0.302734 0.25415
vn -0.818359 0.318604 0.477539
vn -0.95166 0.163696 0.259033
vn -0.850586 0.179565 0.493652
vn 1 0 0
vn 1 0 0
vn 1 0 0
vn 1 -1.78814e-007 0
vn 1 -1.78814e-007 0
vn 0 0 -1
vn 0 0 -1
vn 0 0 -1
vn -0.818359 0.318604 0.477539
vn -0.850586 0.179565 0.493652
vn -0.493164 0.181641 0.850586
vn -0.476074 0.31958 0.818848
vn -0.706543 0.571777 0.416504
vn -0.415283 0.571289 0.70752
vn -0.536133 0.781738 0.317871
vn -0.317139 0.781738 0.536621
vn -0.476074 0.31958 0.818848
vn -0.493164 0.181641 0.850586
vn -0.26001 0.167847 0.950684
vn -0.255859 0.304688 0.916992
vn -0.415283 0.571289 0.70752
vn -0.22937 0.558594 0.796387
vn -0.317139 0.781738 0.536621
vn -0.176514 0.775391 0.605957
vn -0.103882 0.932617 0.345459
vn -0.180786 0.936035 0.30127
vn 2.38419e-007 -1 1.19209e-007
vn 2.38419e-007 -1 1.19209e-007
vn 2.38419e-007 -1 1.19209e-007
vn 0 -1 0
vn 0 -1 0
vn -0.0200348 0.999512 0
vn -0.180786 0.936035 0.30127
vn -0.301025 0.936035 0.181396
vn -0.0479431 0.989746 0.133423
vn -0.0679321 0.991211 0.109192
vn -0.109131 0.991699 0.0675659
vn -0.133057 0.989746 0.0473633
vn -0.345459 0.932617 0.102417
vn -0.301025 0.936035 0.181396
vn -0.109131 0.991699 0.0675659
vn -0.0679321 0.991211 0.109192

vt 0.485262 0.992387
vt 0.283292 0.992387
vt 0.30281 0.808349
vt 0.372854 0.670858
vt 0.167486 0.994165
vt 0.0164192 0.994165
vt 0.0164192 0.596393
vt 0.167486 0.596393
vt 0.0164192 0.994165
vt 0.167486 0.994165
vt 0.167486 0.596393
vt 0.0164192 0.596393
vt 0.22009 0.975575
vt 0.263229 0.92557
vt 0.22009 0.975575
vt 0.803389 0.5981
vt 0.95122 0.298029
vt 0.985733 0.5981
vt 0.657797 0.316262
vt 0.803389 0.5981
vt 0.657797 0.5981
vt 0.247713 0.339879
vt 0.240384 0.23418
vt 0.408154 0.23418
vt 0.396291 0.339879
vt 0.235668 0.128483
vt 0.417164 0.128483
vt 0.234894 0.0227845
vt 0.42112 0.0227845
vt 0.263229 0.92557
vt 0.295519 0.837561
vt 0.316251 0.73168
vt 0.320942 0.596393
vt 0.316251 0.73168
vt 0.316251 0.73168
vt 0.295519 0.837561
vt 0.320942 0.596393
vt 0.235668 0.128483
vt 0.234894 0.0227845
vt 0.42112 0.0227845
vt 0.417164 0.128483
vt 0.240384 0.23418
vt 0.408154 0.23418
vt 0.247713 0.339879
vt 0.396291 0.339879
vt 0.235668 0.128483
vt 0.234894 0.0227845
vt 0.42112 0.0227845
vt 0.417164 0.128483
vt 0.240384 0.23418
vt 0.408154 0.234181
vt 0.247713 0.339879
vt 0.396291 0.339879
vt 0.380955 0.445577
vt 0.258091 0.445577
vt 0.657797 0.00491548
vt 0.836958 0.086265
vt 0.657797 0.316262
vt 0.836958 0.086265
vt 0.95122 0.298029
vt 0.483293 0.613283
vt 0.380955 0.445577
vt 0.258091 0.445577
vt 0.362406 0.551275
vt 0.271516 0.551275
vt 0.362406 0.551275
vt 0.271516 0.551275
vt 0.258091 0.445577
vt 0.380955 0.445577
vt 0.271516 0.551275
vt 0.362406 0.551275


#
# MESH 000
#
g surface_000
usemtl surface_000
f 56/56/56 57/57/57 58/58/58
f 11/11/11 32/32/32 33/33/33
f 16/16/16 17/17/17 18/18/18
f 70/70/70 62/62/62 71/71/71
f 70/70/70 63/63/63 62/62/62
f 44/44/44 62/62/62 63/63/63
f 44/44/44 45/45/45 62/62/62
f 44/44/44 43/43/43 45/45/45
f 44/44/44 42/42/42 43/43/43
f 42/42/42 41/41/41 43/43/43
f 42/42/42 38/38/38 41/41/41
f 38/38/38 40/40/40 41/41/41
f 38/38/38 39/39/39 40/40/40
f 66/66/66 67/67/67 68/68/68
f 66/66/66 68/68/68 69/69/69
f 69/69/69 68/68/68 22/22/22
f 69/69/69 22/22/22 25/25/25
f 22/22/22 24/24/24 25/25/25
f 22/22/22 23/23/23 24/24/24
f 23/23/23 27/27/27 24/24/24
f 23/23/23 26/26/26 27/27/27
f 26/26/26 29/29/29 27/27/27
f 26/26/26 28/28/28 29/29/29
f 55/55/55 64/64/64 65/65/65
f 55/55/55 54/54/54 64/64/64
f 53/53/53 54/54/54 55/55/55
f 53/53/53 55/55/55 52/52/52
f 52/52/52 51/51/51 53/53/53
f 52/52/52 50/50/50 51/51/51
f 50/50/50 49/49/49 51/51/51
f 50/50/50 46/46/46 49/49/49
f 46/46/46 48/48/48 49/49/49
f 46/46/46 47/47/47 48/48/48
f 1/1/1 4/4/4 61/61/61
f 1/1/1 3/3/3 4/4/4
f 1/1/1 2/2/2 3/3/3
f 19/19/19 59/59/59 60/60/60
f 19/19/19 60/60/60 20/20/20
f 19/19/19 20/20/20 21/21/21
f 8/8/8 37/37/37 35/35/35
f 8/8/8 35/35/35 36/36/36
f 8/8/8 36/36/36 14/14/14
f 8/8/8 14/14/14 15/15/15
f 8/8/8 15/15/15 5/5/5
f 5/5/5 7/7/7 8/8/8
f 5/5/5 6/6/6 7/7/7
f 11/11/11 31/31/31 34/34/34
f 11/11/11 30/30/30 31/31/31
f 11/11/11 13/13/13 30/30/30
f 11/11/11 10/10/10 13/13/13
f 9/9/9 10/10/10 11/11/11
f 9/9/9 11/11/11 12/12/12

