#
# OBJECT NAME
#
o model_1338
mtllib 1338.mtl

#
# VERTEX BUFFER 000
#
v 1 0.0130613 -1
v 0.336222 0.0228702 -0.332666
v 0 0.0130613 -1
v 1 0.704044 0.951057
v 1 0.204044 0.587785
v 1 1.01306 -1
v 1 0.704044 0.951057
v 1 1.01306 1
v -0.366025 1.01306 0.366025
v -0.326157 0.710046 0.32577
v 0 0.0130613 -1
v 1 1.01306 -1
v 1 0.0130613 -1
v -0.0813533 0.216677 0.0817274
v 1 0.204044 0.587785
v 1 1.01306 -1
v -0.366025 1.01306 0.366025
v 1 1.01306 1
v 0.336222 0.0228702 -0.332666
v 1 0.0130613 0
v -0.951057 0.704044 -1
v -1 1.01306 -1
v -0.587785 0.204044 -1
v 0 0.0130613 -1
v 1 0.0130613 0
v 1 0.0130613 0
v 1 0.0130613 -1
v 1 1.01306 1
v -0.951057 0.704044 -1
v -1 1.01306 -1
v 1 1.01306 -1
v -0.587785 0.204044 -1
v -0.951057 0.704044 -1
v -1 1.01306 -1
v -0.366025 1.01306 0.366025
v 1 1.01306 -1

vn -0.00734329 -0.999512 0.00739288
vn -0.00737762 -0.999512 0.00735855
vn 0 -0.999512 0.0146942
vn 1 0 0
vn 1 0 0
vn 1 0 0
vn -0.391113 -0.400635 0.828125
vn -0.418457 -0.157593 0.894043
vn -0.696777 -0.167114 0.696777
vn -0.640625 -0.422852 0.640625
vn 0 0 -1
vn 0 0 -1
vn 0 0 -1
vn -0.479004 -0.735352 0.47876
vn -0.306396 -0.709473 0.634277
vn 1.78814e-007 1 0
vn 1.78814e-007 1 0
vn 1.78814e-007 1 0
vn -0.226929 -0.946777 0.227173
vn -0.154907 -0.941895 0.297119
vn -0.828125 -0.400635 0.391113
vn -0.894043 -0.157227 0.418457
vn -0.633789 -0.709961 0.306152
vn -0.296631 -0.941895 0.155029
vn -0.0147705 -0.999512 0
vn 1 0 0
vn 1 0 0
vn 1 0 0
vn 0 1.78814e-007 -1
vn 0 1.78814e-007 -1
vn 0 1.78814e-007 -1
vn 0 0 -1
vn 0 0 -1
vn 0 1 -1.78814e-007
vn 0 1 -1.78814e-007
vn 0 1 -1.78814e-007

vt 0.485262 0.992387
vt 0.337832 0.739604
vt 0.483293 0.613283
vt 0.316251 0.73168
vt 0.263229 0.92557
vt 0.0164192 0.596393
vt 0.235668 0.128483
vt 0.234894 0.0227845
vt 0.328007 0.0227845
vt 0.326416 0.128483
vt 0.167486 0.994165
vt 0.0164192 0.596393
vt 0.0164192 0.994165
vt 0.322002 0.339879
vt 0.247713 0.339879
vt 0.657797 0.5981
vt 0.894089 0.192147
vt 0.985733 0.5981
vt 0.316961 0.551275
vt 0.271516 0.551275
vt 0.417164 0.128483
vt 0.42112 0.0227845
vt 0.396291 0.339879
vt 0.362406 0.551275
vt 0.283292 0.992387
vt 0.167486 0.994165
vt 0.0164192 0.994165
vt 0.320942 0.596393
vt 0.316251 0.73168
vt 0.320942 0.596393
vt 0.0164192 0.596393
vt 0.263229 0.92557
vt 0.316251 0.73168
vt 0.657797 0.00491548
vt 0.894089 0.192147
vt 0.657797 0.5981


#
# MESH 000
#
g surface_000
usemtl surface_000
f 34/34/34 35/35/35 36/36/36
f 29/29/29 30/30/30 31/31/31
f 16/16/16 17/17/17 18/18/18
f 33/33/33 12/12/12 32/32/32
f 32/32/32 12/12/12 11/11/11
f 11/11/11 12/12/12 13/13/13
f 4/4/4 6/6/6 28/28/28
f 4/4/4 5/5/5 6/6/6
f 6/6/6 5/5/5 26/26/26
f 6/6/6 26/26/26 27/27/27
f 2/2/2 1/1/1 25/25/25
f 1/1/1 2/2/2 3/3/3
f 23/23/23 24/24/24 19/19/19
f 23/23/23 19/19/19 14/14/14
f 21/21/21 23/23/23 14/14/14
f 21/21/21 14/14/14 10/10/10
f 21/21/21 10/10/10 9/9/9
f 21/21/21 9/9/9 22/22/22
f 14/14/14 19/19/19 20/20/20
f 14/14/14 20/20/20 15/15/15
f 10/10/10 14/14/14 15/15/15
f 10/10/10 15/15/15 7/7/7
f 7/7/7 9/9/9 10/10/10
f 7/7/7 8/8/8 9/9/9

