#
# OBJECT NAME
#
o model_1334
mtllib 1334.mtl

#
# VERTEX BUFFER 000
#
v -0.999999 -0.00231841 -1
v -0.931851 -0.00231841 -0.482362
v -0.931851 1 -0.482362
v -0.999999 1 -1
v -0.73205 -0.00231841 -3.57628e-007
v -0.73205 1 -3.57628e-007
v -0.73205 -0.00231841 -3.57628e-007
v -0.414213 -0.00231841 0.414213
v -0.414213 1 0.414213
v -0.73205 1 -3.57628e-007
v 1.19209e-007 -0.00231841 0.73205
v 1.19209e-007 1 0.73205
v 1.19209e-007 -0.00231841 0.73205
v 0.482362 -0.00231841 0.931851
v 0.482362 1 0.931851
v 1.19209e-007 1 0.73205
v 1 -0.00231841 1
v 1 1 1
v -0.931851 -0.00231841 -0.482362
v -0.999999 -0.00231841 -1
v 1 -0.00231841 -1
v -0.73205 -0.00231841 -3.57628e-007
v -0.414213 -0.00231841 0.414213
v 1.19209e-007 -0.00231841 0.73205
v 0.482362 -0.00231841 0.931851
v 1 -0.00231841 1
v -0.999999 1 -1
v -0.931851 1 -0.482362
v 1 1 -1
v -0.73205 1 -3.57628e-007
v -0.414213 1 0.414213
v 1.19209e-007 1 0.73205
v 0.482362 1 0.931851
v 1 1 1
v 1 -0.00231841 -1
v -0.999999 -0.00231841 -1
v -0.999999 1 -1
v 1 1 -1
v 1 -0.00231841 1
v 1 -0.00231841 -1
v 1 1 -1
v 1 1 1

vn -0.991211 0 0.130493
vn -0.96582 0 0.258789
vn -0.96582 0 0.258789
vn -0.991211 0 0.130493
vn -0.865723 0 0.499756
vn -0.865723 0 0.499756
vn -0.865723 0 0.499756
vn -0.707031 0 0.707031
vn -0.707031 0 0.707031
vn -0.865723 0 0.499756
vn -0.5 0 0.865723
vn -0.5 0 0.865723
vn -0.5 0 0.865723
vn -0.258789 0 0.96582
vn -0.258789 0 0.96582
vn -0.5 0 0.865723
vn -0.130493 0 0.991211
vn -0.130493 0 0.991211
vn 0 -1 0
vn 0 -1 0
vn 0 -1 0
vn 0 -1 0
vn 0 -1 0
vn 0 -1 0
vn 0 -1 0
vn 0 -1 0
vn 0 1 0
vn 0 1 0
vn 0 1 0
vn 0 1 0
vn 0 1 0
vn 0 1 0
vn 0 1 0
vn 0 1 0
vn 0 0 -1
vn 0 0 -1
vn 0 0 -1
vn 0 0 -1
vn 1 0 0
vn 1 0 0
vn 1 0 0
vn 1 0 0

vt 0.0320876 0.0346823
vt 0.117191 0.0346823
vt 0.117191 0.539377
vt 0.0320876 0.539377
vt 0.212565 0.0346823
vt 0.212565 0.539377
vt 0.0320876 0.0346823
vt 0.117191 0.0346823
vt 0.117191 0.539377
vt 0.0320876 0.539377
vt 0.212565 0.0346823
vt 0.212565 0.539377
vt 0.0320876 0.0346823
vt 0.117191 0.0346823
vt 0.117191 0.539377
vt 0.0320876 0.539377
vt 0.212565 0.0346823
vt 0.212565 0.539377
vt 0.755695 0.014473
vt 0.657894 0.00491548
vt 0.657894 0.5981
vt 0.836958 0.0862648
vt 0.902606 0.180328
vt 0.95122 0.298029
vt 0.978425 0.437883
vt 0.985733 0.5981
vt 0.657894 0.00491548
vt 0.755695 0.014473
vt 0.657894 0.5981
vt 0.836958 0.0862648
vt 0.902606 0.180328
vt 0.95122 0.298029
vt 0.978425 0.437883
vt 0.985733 0.5981
vt 0.495561 0.60646
vt 0.748927 0.60646
vt 0.748927 0.990598
vt 0.495561 0.990598
vt 0.748927 0.60646
vt 0.495561 0.60646
vt 0.495561 0.990598
vt 0.748927 0.990598


#
# MESH 000
#
g surface_000
usemtl surface_000
f 39/39/39 41/41/41 42/42/42
f 39/39/39 40/40/40 41/41/41
f 35/35/35 37/37/37 38/38/38
f 35/35/35 36/36/36 37/37/37
f 33/33/33 34/34/34 29/29/29
f 32/32/32 33/33/33 29/29/29
f 31/31/31 32/32/32 29/29/29
f 30/30/30 31/31/31 29/29/29
f 28/28/28 30/30/30 29/29/29
f 27/27/27 28/28/28 29/29/29
f 26/26/26 25/25/25 21/21/21
f 25/25/25 24/24/24 21/21/21
f 24/24/24 23/23/23 21/21/21
f 23/23/23 22/22/22 21/21/21
f 22/22/22 19/19/19 21/21/21
f 19/19/19 20/20/20 21/21/21
f 14/14/14 17/17/17 18/18/18
f 14/14/14 18/18/18 15/15/15
f 13/13/13 14/14/14 15/15/15
f 13/13/13 15/15/15 16/16/16
f 8/8/8 11/11/11 12/12/12
f 8/8/8 12/12/12 9/9/9
f 7/7/7 8/8/8 9/9/9
f 7/7/7 9/9/9 10/10/10
f 2/2/2 5/5/5 6/6/6
f 2/2/2 6/6/6 3/3/3
f 1/1/1 2/2/2 3/3/3
f 1/1/1 3/3/3 4/4/4

