#
# OBJECT NAME
#
o model_1335
mtllib 1335.mtl

#
# VERTEX BUFFER 000
#
v -0.999999 1 -1
v -0.999999 -0.00231841 -1
v -0.366025 -0.00231841 0.366025
v -0.366025 1 0.366025
v -0.366025 -0.00231841 0.366025
v -0.999999 -0.00231841 -1
v 1 -0.00231841 -1
v 1 1 -1
v -0.999999 1 -1
v -0.366025 1 0.366025
v 1 1 1
v 1 -0.00231841 -1
v -0.999999 -0.00231841 -1
v -0.999999 1 -1
v 1 1 -1
v 1 -0.00231841 1
v 1 -0.00231841 -1
v 1 1 -1
v 1 1 1
v 1 1 1
v 1 -0.00231841 1
v 1 -0.00231841 1

vn -0.906738 0 0.420898
vn -0.906738 0 0.420898
vn -0.707031 0 0.707031
vn -0.707031 0 0.707031
vn 0 -1 0
vn 0 -1 0
vn 0 -1 0
vn 0 1 0
vn 0 1 0
vn 0 1 0
vn 0 1 0
vn 0 0 -1
vn 0 0 -1
vn 0 0 -1
vn 0 0 -1
vn 1 0 0
vn 1 0 0
vn 1 0 0
vn 1 0 0
vn -0.420898 0 0.906738
vn -0.420898 0 0.906738
vn 0 -1 0

vt 0.0320876 0.539377
vt 0.0320876 0.0346823
vt 0.122327 0.0346823
vt 0.122327 0.539377
vt 0.894089 0.192147
vt 0.657894 0.00491548
vt 0.657894 0.5981
vt 0.657894 0.5981
vt 0.657894 0.00491548
vt 0.894089 0.192147
vt 0.985733 0.5981
vt 0.495561 0.60646
vt 0.748927 0.60646
vt 0.748927 0.990598
vt 0.495561 0.990598
vt 0.748927 0.60646
vt 0.495561 0.60646
vt 0.495561 0.990598
vt 0.748927 0.990598
vt 0.212565 0.539377
vt 0.212565 0.0346823
vt 0.985733 0.5981


#
# MESH 000
#
g surface_000
usemtl surface_000
f 22/22/22 5/5/5 7/7/7
f 5/5/5 6/6/6 7/7/7
f 20/20/20 3/3/3 21/21/21
f 20/20/20 4/4/4 3/3/3
f 1/1/1 3/3/3 4/4/4
f 1/1/1 2/2/2 3/3/3
f 16/16/16 18/18/18 19/19/19
f 16/16/16 17/17/17 18/18/18
f 12/12/12 14/14/14 15/15/15
f 12/12/12 13/13/13 14/14/14
f 8/8/8 10/10/10 11/11/11
f 8/8/8 9/9/9 10/10/10

