#
# OBJECT NAME
#
o model_2174
mtllib 2174.mtl

#
# VERTEX BUFFER 000
#
v -0.815203 0 -0.0927966
v -1.0008 0 0
v -1.0154 0.893333 0
v -0.800595 0.893333 -0.107405
v -0.800595 0.893333 0.107405
v -1.0154 0.893333 0
v -1.0008 0 0
v -0.815203 0 0.0927966
v -0.815203 0 0.0927966
v -1.0008 0 0
v -0.815203 0 -0.0927966
v -0.815203 0 0.0927966
v -0.815203 0 -0.0927966
v -0.800595 0.893333 -0.107405
v -0.800595 0.893333 0.107405
v -0.800595 0.893333 -0.107405
v -1.0154 0.893333 0
v -0.908 1 0
v -0.800595 0.893333 0.107405
v -0.908 1 0
v -1.0154 0.893333 0
v -0.800595 0.893333 -0.107405
v -0.908 1 0
v -0.800595 0.893333 0.107405
v -0.000253888 0.738367 -0.038571
v -0.000253888 0.544899 0.0320146
v -0.817675 0.544899 0.0320146
v -0.817675 0.738369 -0.038571
v -0.000253888 0.738369 0.038571
v -0.000253888 0.544899 0.0320146
v -0.000253888 0.738367 -0.038571
v -0.817675 0.738369 0.038571
v -0.000253888 0.738369 0.038571
v -0.000253888 0.738367 -0.038571
v -0.817675 0.738369 -0.038571
v -0.817675 0.738369 0.038571
v -0.817675 0.544899 0.0320146
v -0.000253888 0.544899 0.0320146
v -0.000253888 0.738369 0.038571
v -0.817675 0.738369 0.038571
v -0.817675 0.738369 -0.038571
v -0.817675 0.544899 0.0320146
v -0.000253888 0.335737 -0.038571
v -0.000253888 0.142269 0.0320146
v -0.817675 0.142269 0.0320146
v -0.817675 0.335739 -0.038571
v -0.000253888 0.335739 0.038571
v -0.000253888 0.142269 0.0320146
v -0.000253888 0.335737 -0.038571
v -0.817675 0.335739 0.038571
v -0.000253888 0.335739 0.038571
v -0.000253888 0.335737 -0.038571
v -0.817675 0.335739 -0.038571
v -0.817675 0.335739 0.038571
v -0.817675 0.142269 0.0320146
v -0.000253888 0.142269 0.0320146
v -0.000253888 0.335739 0.038571
v -0.817675 0.335739 0.038571
v -0.817675 0.335739 -0.038571
v -0.817675 0.142269 0.0320146
v -0.677724 0.0893667 0.038571
v -0.542767 0.0893667 0.038571
v -0.542767 0.793426 0.0927965
v -0.677724 0.793426 0.0927965
v -0.677724 0.793426 0.038571
v -0.542767 0.793426 0.038571
v -0.542767 0.0893667 0.038571
v -0.677724 0.0893667 0.038571
v -0.542767 0.0893667 0.038571
v -0.542767 0.793426 0.038571
v -0.542767 0.793426 0.0927965
v -0.677724 0.0893667 0.038571
v -0.677724 0.793426 0.0927965
v -0.677724 0.793426 0.038571
v -0.542767 0.793426 0.038571
v -0.610246 0.881028 0.038571
v -0.542767 0.793426 0.0927965
v -0.677724 0.793426 0.0927965
v -0.542767 0.793426 0.0927965
v -0.610246 0.881028 0.038571
v -0.677724 0.793426 0.0927965
v -0.610246 0.881028 0.038571
v -0.677724 0.793426 0.038571
v -0.677724 0.793426 0.038571
v -0.610246 0.881028 0.038571
v -0.542767 0.793426 0.038571
v -0.412568 0.0893667 0.038571
v -0.278241 0.0893667 0.038571
v -0.278241 0.793426 0.0927965
v -0.412568 0.793426 0.0927965
v -0.412568 0.793426 0.038571
v -0.278241 0.793426 0.038571
v -0.278241 0.0893667 0.038571
v -0.412568 0.0893667 0.038571
v -0.278241 0.0893667 0.038571
v -0.278241 0.793426 0.038571
v -0.278241 0.793426 0.0927965
v -0.412568 0.0893667 0.038571
v -0.412568 0.793426 0.0927965
v -0.412568 0.793426 0.038571
v -0.278241 0.793426 0.038571
v -0.345089 0.881028 0.038571
v -0.278241 0.793426 0.0927965
v -0.412568 0.793426 0.0927965
v -0.278241 0.793426 0.0927965
v -0.345089 0.881028 0.038571
v -0.412568 0.793426 0.0927965
v -0.345089 0.881028 0.038571
v -0.412568 0.793426 0.038571
v -0.412568 0.793426 0.038571
v -0.345089 0.881028 0.038571
v -0.278241 0.793426 0.038571
v -0.132953 0.0893667 0.038571
v -0.000253853 0.0893667 0.038571
v -0.000253853 0.793426 0.0927965
v -0.132953 0.793426 0.0927965
v -0.132953 0.793426 0.038571
v -0.000253853 0.793426 0.038571
v -0.000253853 0.0893667 0.038571
v -0.132953 0.0893667 0.038571
v -0.000253853 0.0893667 0.038571
v -0.000253853 0.793426 0.038571
v -0.000253853 0.793426 0.0927965
v -0.132953 0.0893667 0.038571
v -0.132953 0.793426 0.0927965
v -0.132953 0.793426 0.038571
v -0.000253853 0.793426 0.038571
v -0.0654747 0.881028 0.038571
v -0.000253853 0.793426 0.0927965
v -0.132953 0.793426 0.0927965
v -0.000253853 0.793426 0.0927965
v -0.0654747 0.881028 0.038571
v -0.132953 0.793426 0.0927965
v -0.0654747 0.881028 0.038571
v -0.132953 0.793426 0.038571
v -0.132953 0.793426 0.038571
v -0.0654747 0.881028 0.038571
v -0.000253853 0.793426 0.038571
v 0.815204 0 0.0927966
v 1.0008 0 0
v 1.01541 0.893333 0
v 0.800595 0.893333 0.107405
v 0.800595 0.893333 -0.107405
v 1.01541 0.893333 0
v 1.0008 0 0
v 0.815204 0 -0.0927966
v 0.815204 0 -0.0927966
v 1.0008 0 0
v 0.815204 0 0.0927966
v 0.815204 0 -0.0927966
v 0.815204 0 0.0927966
v 0.800595 0.893333 0.107405
v 0.800595 0.893333 -0.107405
v 0.800595 0.893333 0.107405
v 1.01541 0.893333 0
v 0.908 1 0
v 0.800595 0.893333 -0.107405
v 0.908 1 0
v 1.01541 0.893333 0
v 0.800595 0.893333 0.107405
v 0.908 1 0
v 0.800595 0.893333 -0.107405
v 0.815 0.737679 -0.038571
v 0.815 0.545313 0.0320146
v -9.56297e-006 0.544894 0.0320146
v -9.56297e-006 0.738367 -0.038571
v -9.56297e-006 0.738365 0.038571
v 0.815 0.737679 0.038571
v 0.815 0.737679 -0.038571
v -9.56297e-006 0.738367 -0.038571
v -9.56297e-006 0.738367 -0.038571
v -9.56297e-006 0.544894 0.0320146
v -9.56297e-006 0.738365 0.038571
v -9.56297e-006 0.738365 0.038571
v -9.56297e-006 0.544894 0.0320146
v 0.815 0.545313 0.0320146
v 0.815 0.737679 0.038571
v 0.815 0.545313 0.0320146
v 0.815 0.737679 -0.038571
v 0.815 0.737679 0.038571
v 0.815 0.335049 -0.038571
v 0.815 0.142683 0.0320146
v -9.56297e-006 0.142264 0.0320146
v -9.56297e-006 0.335737 -0.038571
v -9.56297e-006 0.335735 0.038571
v 0.815 0.335049 0.038571
v 0.815 0.335049 -0.038571
v -9.56297e-006 0.335737 -0.038571
v -9.56297e-006 0.335737 -0.038571
v -9.56297e-006 0.142264 0.0320146
v -9.56297e-006 0.335735 0.038571
v -9.56297e-006 0.335735 0.038571
v -9.56297e-006 0.142264 0.0320146
v 0.815 0.142683 0.0320146
v 0.815 0.335049 0.038571
v 0.815 0.142683 0.0320146
v 0.815 0.335049 -0.038571
v 0.815 0.335049 0.038571
v 0.277977 0.0893667 0.038571
v 0.415438 0.0893667 0.038571
v 0.415438 0.793426 0.0927965
v 0.277977 0.793426 0.0927965
v 0.277977 0.793426 0.038571
v 0.415438 0.793426 0.038571
v 0.415438 0.0893667 0.038571
v 0.277977 0.0893667 0.038571
v 0.415438 0.0893667 0.038571
v 0.415438 0.793426 0.038571
v 0.415438 0.793426 0.0927965
v 0.277977 0.0893667 0.038571
v 0.277977 0.793426 0.0927965
v 0.277977 0.793426 0.038571
v 0.415438 0.793426 0.038571
v 0.347959 0.881028 0.038571
v 0.415438 0.793426 0.0927965
v 0.277977 0.793426 0.0927965
v 0.415438 0.793426 0.0927965
v 0.347959 0.881028 0.038571
v 0.277977 0.793426 0.0927965
v 0.347959 0.881028 0.038571
v 0.277977 0.793426 0.038571
v 0.277977 0.793426 0.038571
v 0.347959 0.881028 0.038571
v 0.415438 0.793426 0.038571
v 0.553025 0.0893667 0.038571
v 0.687983 0.0893667 0.038571
v 0.687982 0.793426 0.0927965
v 0.553025 0.793426 0.0927965
v 0.553025 0.793426 0.038571
v 0.687982 0.793426 0.038571
v 0.687983 0.0893667 0.038571
v 0.553025 0.0893667 0.038571
v 0.687983 0.0893667 0.038571
v 0.687982 0.793426 0.038571
v 0.687982 0.793426 0.0927965
v 0.553025 0.0893667 0.038571
v 0.553025 0.793426 0.0927965
v 0.553025 0.793426 0.038571
v 0.687982 0.793426 0.038571
v 0.620504 0.881028 0.038571
v 0.687982 0.793426 0.0927965
v 0.553025 0.793426 0.0927965
v 0.687982 0.793426 0.0927965
v 0.620504 0.881028 0.038571
v 0.553025 0.793426 0.0927965
v 0.620504 0.881028 0.038571
v 0.553025 0.793426 0.038571
v 0.553025 0.793426 0.038571
v 0.620504 0.881028 0.038571
v 0.687982 0.793426 0.038571
v -9.5233e-006 0.0893667 0.038571
v 0.134304 0.0893667 0.038571
v 0.134304 0.793426 0.0927965
v -9.5233e-006 0.793426 0.0927965
v -9.5233e-006 0.793426 0.038571
v 0.134304 0.793426 0.038571
v 0.134304 0.0893667 0.038571
v -9.5233e-006 0.0893667 0.038571
v 0.134304 0.0893667 0.038571
v 0.134304 0.793426 0.038571
v 0.134304 0.793426 0.0927965
v -9.5233e-006 0.0893667 0.038571
v -9.5233e-006 0.793426 0.0927965
v -9.5233e-006 0.793426 0.038571
v 0.134304 0.793426 0.038571
v 0.0668256 0.881028 0.038571
v 0.134304 0.793426 0.0927965
v -9.5233e-006 0.793426 0.0927965
v 0.134304 0.793426 0.0927965
v 0.0668256 0.881028 0.038571
v -9.5233e-006 0.793426 0.0927965
v 0.0668256 0.881028 0.038571
v -9.5233e-006 0.793426 0.038571
v -9.5233e-006 0.793426 0.038571
v 0.0668256 0.881028 0.038571
v 0.134304 0.793426 0.038571

vn -0.447021 -0.00731277 -0.894043
vn -0.447021 -0.00731277 -0.894043
vn -0.447021 -0.00731277 -0.894043
vn -0.447021 -0.00731277 -0.894043
vn -0.447021 -0.00731277 0.894043
vn -0.447021 -0.00731277 0.894043
vn -0.447021 -0.00731277 0.894043
vn -0.447021 -0.00731277 0.894043
vn 0 -1 0
vn 0 -1 0
vn 0 -1 0
vn 0.999512 -0.0163422 0
vn 0.999512 -0.0163422 0
vn 0.999512 -0.0163422 0
vn 0.999512 -0.0163422 0
vn -0.407715 0.4104 -0.81543
vn -0.407715 0.4104 -0.81543
vn -0.407715 0.4104 -0.81543
vn -0.407715 0.4104 0.81543
vn -0.407715 0.4104 0.81543
vn -0.407715 0.4104 0.81543
vn 0.70459 0.709473 0
vn 0.70459 0.709473 0
vn 0.70459 0.709473 0
vn -4.76837e-007 -0.342529 -0.938965
vn -4.76837e-007 -0.342529 -0.938965
vn -4.76837e-007 -0.342529 -0.938965
vn -4.76837e-007 -0.342529 -0.938965
vn 1 4.76837e-007 0
vn 1 4.76837e-007 0
vn 1 4.76837e-007 0
vn 1.37091e-006 1 -1.41263e-005
vn 1.37091e-006 1 -1.41263e-005
vn 1.37091e-006 1 -1.41263e-005
vn 1.37091e-006 1 -1.41263e-005
vn 0 -0.033844 0.999023
vn 0 -0.033844 0.999023
vn 0 -0.033844 0.999023
vn 0 -0.033844 0.999023
vn -1 -7.15256e-007 0
vn -1 -7.15256e-007 0
vn -1 -7.15256e-007 0
vn -4.76837e-007 -0.342529 -0.938965
vn -4.76837e-007 -0.342529 -0.938965
vn -4.76837e-007 -0.342529 -0.938965
vn -4.76837e-007 -0.342529 -0.938965
vn 1 4.76837e-007 0
vn 1 4.76837e-007 0
vn 1 4.76837e-007 0
vn 1.37091e-006 1 -1.41263e-005
vn 1.37091e-006 1 -1.41263e-005
vn 1.37091e-006 1 -1.41263e-005
vn 1.37091e-006 1 -1.41263e-005
vn 0 -0.033844 0.999023
vn 0 -0.033844 0.999023
vn 0 -0.033844 0.999023
vn 0 -0.033844 0.999023
vn -1 -7.15256e-007 0
vn -1 -7.15256e-007 0
vn -1 -7.15256e-007 0
vn 0 -0.0767822 0.996582
vn 0 -0.0767822 0.996582
vn 0 -0.0767822 0.996582
vn 0 -0.0767822 0.996582
vn 0 0 -1
vn 0 0 -1
vn 0 0 -1
vn 0 0 -1
vn 1 0 -5.36442e-007
vn 1 0 -5.36442e-007
vn 1 0 -5.36442e-007
vn -1 -2.38419e-007 0
vn -1 -2.38419e-007 0
vn -1 -2.38419e-007 0
vn 0.791992 0.609863 -7.7486e-007
vn 0.791992 0.609863 -7.7486e-007
vn 0.791992 0.609863 -7.7486e-007
vn 0 0.525879 0.850098
vn 0 0.525879 0.850098
vn 0 0.525879 0.850098
vn -0.791992 0.609863 0
vn -0.791992 0.609863 0
vn -0.791992 0.609863 0
vn 0 0 -1
vn 0 0 -1
vn 0 0 -1
vn 0 -0.0767822 0.996582
vn 0 -0.0767822 0.996582
vn 0 -0.0767822 0.996582
vn 0 -0.0767822 0.996582
vn 0 0 -1
vn 0 0 -1
vn 0 0 -1
vn 0 0 -1
vn 1 -1.78814e-007 0
vn 1 -1.78814e-007 0
vn 1 -1.78814e-007 0
vn -1 1.19209e-007 0
vn -1 1.19209e-007 0
vn -1 1.19209e-007 0
vn 0.794922 0.606445 0
vn 0.794922 0.606445 0
vn 0.794922 0.606445 0
vn 0 0.525879 0.850098
vn 0 0.525879 0.850098
vn 0 0.525879 0.850098
vn -0.791992 0.609863 0
vn -0.791992 0.609863 0
vn -0.791992 0.609863 0
vn 0 0 -1
vn 0 0 -1
vn 0 0 -1
vn 0 -0.0767822 0.996582
vn 0 -0.0767822 0.996582
vn 0 -0.0767822 0.996582
vn 0 -0.0767822 0.996582
vn 0 0 -1
vn 0 0 -1
vn 0 0 -1
vn 0 0 -1
vn 1 0 0
vn 1 0 0
vn 1 0 0
vn -1 -1.78814e-007 0
vn -1 -1.78814e-007 0
vn -1 -1.78814e-007 0
vn 0.801758 0.597168 0
vn 0.801758 0.597168 0
vn 0.801758 0.597168 0
vn 0 0.525879 0.850098
vn 0 0.525879 0.850098
vn 0 0.525879 0.850098
vn -0.791992 0.609863 0
vn -0.791992 0.609863 0
vn -0.791992 0.609863 0
vn 0 0 -1
vn 0 0 -1
vn 0 0 -1
vn 0.447021 -0.00731277 0.894043
vn 0.447021 -0.00731277 0.894043
vn 0.447021 -0.00731277 0.894043
vn 0.447021 -0.00731277 0.894043
vn 0.447021 -0.00731277 -0.894043
vn 0.447021 -0.00731277 -0.894043
vn 0.447021 -0.00731277 -0.894043
vn 0.447021 -0.00731277 -0.894043
vn 0 -1 0
vn 0 -1 0
vn 0 -1 0
vn -0.999512 -0.0163422 0
vn -0.999512 -0.0163422 0
vn -0.999512 -0.0163422 0
vn -0.999512 -0.0163422 0
vn 0.407715 0.4104 0.81543
vn 0.407715 0.4104 0.81543
vn 0.407715 0.4104 0.81543
vn 0.407715 0.4104 -0.81543
vn 0.407715 0.4104 -0.81543
vn 0.407715 0.4104 -0.81543
vn -0.70459 0.709473 0
vn -0.70459 0.709473 0
vn -0.70459 0.709473 0
vn -5.6684e-005 -0.343506 -0.938965
vn -5.6684e-005 -0.343506 -0.938965
vn -5.6684e-005 -0.343506 -0.938965
vn -5.6684e-005 -0.343506 -0.938965
vn 0.000842571 0.999512 1.41859e-005
vn 0.000842571 0.999512 1.41859e-005
vn 0.000842571 0.999512 1.41859e-005
vn 0.000842571 0.999512 1.41859e-005
vn -1 0 0
vn -1 0 0
vn -1 0 0
vn -5.54323e-006 -0.0339355 0.999023
vn -5.54323e-006 -0.0339355 0.999023
vn -5.54323e-006 -0.0339355 0.999023
vn -5.54323e-006 -0.0339355 0.999023
vn 1 2.38419e-007 0
vn 1 2.38419e-007 0
vn 1 2.38419e-007 0
vn -5.6684e-005 -0.343506 -0.938965
vn -5.6684e-005 -0.343506 -0.938965
vn -5.6684e-005 -0.343506 -0.938965
vn -5.6684e-005 -0.343506 -0.938965
vn 0.000842571 0.999512 1.41859e-005
vn 0.000842571 0.999512 1.41859e-005
vn 0.000842571 0.999512 1.41859e-005
vn 0.000842571 0.999512 1.41859e-005
vn -1 0 0
vn -1 0 0
vn -1 0 0
vn -5.54323e-006 -0.0339355 0.999023
vn -5.54323e-006 -0.0339355 0.999023
vn -5.54323e-006 -0.0339355 0.999023
vn -5.54323e-006 -0.0339355 0.999023
vn 1 2.38419e-007 0
vn 1 2.38419e-007 0
vn 1 2.38419e-007 0
vn 0 -0.0767822 0.996582
vn 0 -0.0767822 0.996582
vn 0 -0.0767822 0.996582
vn 0 -0.0767822 0.996582
vn 0 0 -1
vn 0 0 -1
vn 0 0 -1
vn 0 0 -1
vn 1 0 0
vn 1 0 0
vn 1 0 0
vn -1 -1.78814e-007 0
vn -1 -1.78814e-007 0
vn -1 -1.78814e-007 0
vn 0.791992 0.609863 0
vn 0.791992 0.609863 0
vn 0.791992 0.609863 0
vn 0 0.525879 0.850098
vn 0 0.525879 0.850098
vn 0 0.525879 0.850098
vn -0.78125 0.624023 0
vn -0.78125 0.624023 0
vn -0.78125 0.624023 0
vn 0 0 -1
vn 0 0 -1
vn 0 0 -1
vn 0 -0.0767822 0.996582
vn 0 -0.0767822 0.996582
vn 0 -0.0767822 0.996582
vn 0 -0.0767822 0.996582
vn 0 0 -1
vn 0 0 -1
vn 0 0 -1
vn 0 0 -1
vn 1 2.98023e-007 0
vn 1 2.98023e-007 0
vn 1 2.98023e-007 0
vn -1 1.78814e-007 0
vn -1 1.78814e-007 0
vn -1 1.78814e-007 0
vn 0.791992 0.609863 0
vn 0.791992 0.609863 0
vn 0.791992 0.609863 0
vn 0 0.525879 0.850098
vn 0 0.525879 0.850098
vn 0 0.525879 0.850098
vn -0.791992 0.609863 0
vn -0.791992 0.609863 0
vn -0.791992 0.609863 0
vn 0 0 -1
vn 0 0 -1
vn 0 0 -1
vn 0 -0.0767822 0.996582
vn 0 -0.0767822 0.996582
vn 0 -0.0767822 0.996582
vn 0 -0.0767822 0.996582
vn 0 0 -1
vn 0 0 -1
vn 0 0 -1
vn 0 0 -1
vn 1 -1.78814e-007 0
vn 1 -1.78814e-007 0
vn 1 -1.78814e-007 0
vn -1 0 0
vn -1 0 0
vn -1 0 0
vn 0.791992 0.609863 0
vn 0.791992 0.609863 0
vn 0.791992 0.609863 0
vn 0 0.525879 0.850098
vn 0 0.525879 0.850098
vn 0 0.525879 0.850098
vn -0.794922 0.606445 0
vn -0.794922 0.606445 0
vn -0.794922 0.606445 0
vn 0 0 -1
vn 0 0 -1
vn 0 0 -1

vt 0.155781 0.267911
vt 0.293164 0.267911
vt 0.293164 0.873651
vt 0.155781 0.87365
vt 0.588151 0.873651
vt 0.448613 0.873651
vt 0.448613 0.267911
vt 0.588151 0.267911
vt 0.0168968 0.258548
vt 0.0783588 0.133544
vt 0.139821 0.258548
vt 0.00621944 0.267911
vt 0.149204 0.267911
vt 0.149204 0.87365
vt 0.00621944 0.873651
vt 0.155784 0.880539
vt 0.293737 0.880539
vt 0.223361 0.978541
vt 0.584849 0.880539
vt 0.514473 0.978541
vt 0.448713 0.880539
vt 0.148418 0.880539
vt 0.0780413 0.978541
vt 0.00766506 0.880539
vt 0.740409 0.654237
vt 0.597522 0.654237
vt 0.597522 0.315337
vt 0.740409 0.315337
vt 0.319488 0.253674
vt 0.172431 0.227531
vt 0.319488 0.201387
vt 0.743841 0.993138
vt 0.743841 0.654237
vt 0.792278 0.654237
vt 0.792278 0.993138
vt 0.740409 0.993138
vt 0.597522 0.993138
vt 0.597522 0.654237
vt 0.740409 0.654237
vt 0.319488 0.201387
vt 0.319488 0.253674
vt 0.172431 0.227531
vt 0.740409 0.654237
vt 0.597522 0.654237
vt 0.597522 0.315337
vt 0.740409 0.315337
vt 0.319488 0.253674
vt 0.172431 0.227531
vt 0.319488 0.201387
vt 0.743841 0.993138
vt 0.743841 0.654237
vt 0.792278 0.654237
vt 0.792278 0.993138
vt 0.740409 0.993138
vt 0.597522 0.993138
vt 0.597522 0.654237
vt 0.740409 0.654237
vt 0.319488 0.201387
vt 0.319488 0.253674
vt 0.172431 0.227531
vt 0.381971 0.248606
vt 0.381971 0.128509
vt 0.890734 0.128509
vt 0.890734 0.248606
vt 0.890734 0.128509
vt 0.890734 0.248606
vt 0.381971 0.248606
vt 0.381971 0.128509
vt 0.371681 0.267911
vt 0.441879 0.873651
vt 0.301484 0.873651
vt 0.0777117 0.267911
vt 0.149204 0.87365
vt 0.00621944 0.873651
vt 0.317714 0.0763596
vt 0.174027 0.0491499
vt 0.317714 0.0219402
vt 0.897029 0.248606
vt 0.897029 0.128509
vt 0.986584 0.187874
vt 0.317714 0.0763596
vt 0.174027 0.0491499
vt 0.317714 0.0219402
vt 0.897029 0.128509
vt 0.986583 0.186884
vt 0.897029 0.248606
vt 0.381971 0.125215
vt 0.381971 0.00511873
vt 0.890734 0.00511873
vt 0.890734 0.125215
vt 0.890734 0.00511873
vt 0.890734 0.125215
vt 0.381971 0.125215
vt 0.381971 0.00511873
vt 0.371681 0.267911
vt 0.441879 0.873651
vt 0.301484 0.873651
vt 0.0777117 0.267911
vt 0.149204 0.87365
vt 0.00621944 0.873651
vt 0.317714 0.0763596
vt 0.174027 0.0491499
vt 0.317714 0.0219402
vt 0.897029 0.125215
vt 0.897029 0.00511873
vt 0.986584 0.0644831
vt 0.317714 0.0763596
vt 0.174027 0.0491499
vt 0.317714 0.0219402
vt 0.897029 0.00511873
vt 0.986583 0.0634934
vt 0.897029 0.125215
vt 0.381971 0.248606
vt 0.381971 0.128509
vt 0.890734 0.128509
vt 0.890734 0.248606
vt 0.890734 0.128509
vt 0.890734 0.248606
vt 0.381971 0.248606
vt 0.381971 0.128509
vt 0.371681 0.267911
vt 0.441879 0.873651
vt 0.301484 0.873651
vt 0.0777117 0.267911
vt 0.149204 0.87365
vt 0.00621944 0.873651
vt 0.317714 0.0763596
vt 0.174027 0.0491499
vt 0.317714 0.0219402
vt 0.897029 0.248606
vt 0.897029 0.128509
vt 0.986584 0.187874
vt 0.317714 0.0763596
vt 0.174027 0.0491499
vt 0.317714 0.0219402
vt 0.897029 0.128509
vt 0.986583 0.186884
vt 0.897029 0.248606
vt 0.155781 0.267911
vt 0.293164 0.267911
vt 0.293164 0.873651
vt 0.155781 0.87365
vt 0.588151 0.873651
vt 0.448613 0.873651
vt 0.448613 0.267911
vt 0.588151 0.267911
vt 0.0168968 0.258548
vt 0.0783588 0.133544
vt 0.139821 0.258548
vt 0.00621944 0.267911
vt 0.149204 0.267911
vt 0.149204 0.87365
vt 0.00621944 0.873651
vt 0.155784 0.880539
vt 0.293737 0.880539
vt 0.223361 0.978541
vt 0.584849 0.880539
vt 0.514473 0.978541
vt 0.448713 0.880539
vt 0.148418 0.880539
vt 0.0780413 0.978541
vt 0.00766506 0.880539
vt 0.740409 0.993138
vt 0.597522 0.993138
vt 0.597522 0.654237
vt 0.740409 0.654237
vt 0.743841 0.654237
vt 0.743841 0.315337
vt 0.792278 0.315337
vt 0.792278 0.654237
vt 0.319488 0.19611
vt 0.172431 0.169967
vt 0.319488 0.143823
vt 0.740409 0.654237
vt 0.597522 0.654237
vt 0.597522 0.315337
vt 0.740409 0.315337
vt 0.319488 0.169967
vt 0.172431 0.19611
vt 0.172431 0.143823
vt 0.740409 0.993138
vt 0.597522 0.993138
vt 0.597522 0.654237
vt 0.740409 0.654237
vt 0.743841 0.654237
vt 0.743841 0.315337
vt 0.792278 0.315337
vt 0.792278 0.654237
vt 0.319488 0.19611
vt 0.172431 0.169967
vt 0.319488 0.143823
vt 0.740409 0.654237
vt 0.597522 0.654237
vt 0.597522 0.315337
vt 0.740409 0.315337
vt 0.319488 0.169967
vt 0.172431 0.19611
vt 0.172431 0.143823
vt 0.381971 0.248606
vt 0.381971 0.128509
vt 0.890734 0.128509
vt 0.890734 0.248606
vt 0.890734 0.128509
vt 0.890734 0.248606
vt 0.381971 0.248606
vt 0.381971 0.128509
vt 0.371681 0.267911
vt 0.441879 0.873651
vt 0.301484 0.873651
vt 0.0777117 0.267911
vt 0.149204 0.87365
vt 0.00621944 0.873651
vt 0.317714 0.0763596
vt 0.174027 0.0491499
vt 0.317714 0.0219402
vt 0.897029 0.248606
vt 0.897029 0.128509
vt 0.986584 0.187874
vt 0.317714 0.0763596
vt 0.174027 0.0491499
vt 0.317714 0.0219402
vt 0.897029 0.128509
vt 0.986583 0.186884
vt 0.897029 0.248606
vt 0.381971 0.125215
vt 0.381971 0.00511873
vt 0.890734 0.00511873
vt 0.890734 0.125215
vt 0.890734 0.00511873
vt 0.890734 0.125215
vt 0.381971 0.125215
vt 0.381971 0.00511873
vt 0.371681 0.267911
vt 0.441879 0.873651
vt 0.301484 0.873651
vt 0.0777117 0.267911
vt 0.149204 0.87365
vt 0.00621944 0.873651
vt 0.317714 0.0763596
vt 0.174027 0.0491499
vt 0.317714 0.0219402
vt 0.897029 0.125215
vt 0.897029 0.00511873
vt 0.986584 0.0644831
vt 0.317714 0.0763596
vt 0.174027 0.0491499
vt 0.317714 0.0219402
vt 0.897029 0.00511873
vt 0.986583 0.0634934
vt 0.897029 0.125215
vt 0.381971 0.125215
vt 0.381971 0.00511873
vt 0.890734 0.00511873
vt 0.890734 0.125215
vt 0.890734 0.00511873
vt 0.890734 0.125215
vt 0.381971 0.125215
vt 0.381971 0.00511873
vt 0.371681 0.267911
vt 0.441879 0.873651
vt 0.301484 0.873651
vt 0.0777117 0.267911
vt 0.149204 0.87365
vt 0.00621944 0.873651
vt 0.317714 0.0763596
vt 0.174027 0.0491499
vt 0.317714 0.0219402
vt 0.897029 0.125215
vt 0.897029 0.00511873
vt 0.986584 0.0644831
vt 0.317714 0.0763596
vt 0.174027 0.0491499
vt 0.317714 0.0219402
vt 0.897029 0.00511873
vt 0.986583 0.0634934
vt 0.897029 0.125215


#
# MESH 000
#
g surface_000
usemtl surface_000
f 22/22/22 23/23/23 24/24/24
f 19/19/19 20/20/20 21/21/21
f 16/16/16 17/17/17 18/18/18
f 9/9/9 10/10/10 11/11/11
f 12/12/12 14/14/14 15/15/15
f 12/12/12 13/13/13 14/14/14
f 5/5/5 7/7/7 8/8/8
f 5/5/5 6/6/6 7/7/7
f 1/1/1 3/3/3 4/4/4
f 1/1/1 2/2/2 3/3/3
f 40/40/40 41/41/41 42/42/42
f 29/29/29 30/30/30 31/31/31
f 36/36/36 38/38/38 39/39/39
f 36/36/36 37/37/37 38/38/38
f 32/32/32 34/34/34 35/35/35
f 32/32/32 33/33/33 34/34/34
f 25/25/25 27/27/27 28/28/28
f 25/25/25 26/26/26 27/27/27
f 58/58/58 59/59/59 60/60/60
f 47/47/47 48/48/48 49/49/49
f 54/54/54 56/56/56 57/57/57
f 54/54/54 55/55/55 56/56/56
f 50/50/50 52/52/52 53/53/53
f 50/50/50 51/51/51 52/52/52
f 43/43/43 45/45/45 46/46/46
f 43/43/43 44/44/44 45/45/45
f 84/84/84 85/85/85 86/86/86
f 81/81/81 82/82/82 83/83/83
f 78/78/78 79/79/79 80/80/80
f 75/75/75 76/76/76 77/77/77
f 72/72/72 73/73/73 74/74/74
f 69/69/69 70/70/70 71/71/71
f 65/65/65 67/67/67 68/68/68
f 65/65/65 66/66/66 67/67/67
f 61/61/61 63/63/63 64/64/64
f 61/61/61 62/62/62 63/63/63
f 110/110/110 111/111/111 112/112/112
f 107/107/107 108/108/108 109/109/109
f 104/104/104 105/105/105 106/106/106
f 101/101/101 102/102/102 103/103/103
f 98/98/98 99/99/99 100/100/100
f 95/95/95 96/96/96 97/97/97
f 91/91/91 93/93/93 94/94/94
f 91/91/91 92/92/92 93/93/93
f 87/87/87 89/89/89 90/90/90
f 87/87/87 88/88/88 89/89/89
f 136/136/136 137/137/137 138/138/138
f 133/133/133 134/134/134 135/135/135
f 130/130/130 131/131/131 132/132/132
f 127/127/127 128/128/128 129/129/129
f 124/124/124 125/125/125 126/126/126
f 121/121/121 122/122/122 123/123/123
f 117/117/117 119/119/119 120/120/120
f 117/117/117 118/118/118 119/119/119
f 113/113/113 115/115/115 116/116/116
f 113/113/113 114/114/114 115/115/115
f 160/160/160 161/161/161 162/162/162
f 157/157/157 158/158/158 159/159/159
f 154/154/154 155/155/155 156/156/156
f 147/147/147 148/148/148 149/149/149
f 150/150/150 152/152/152 153/153/153
f 150/150/150 151/151/151 152/152/152
f 143/143/143 145/145/145 146/146/146
f 143/143/143 144/144/144 145/145/145
f 139/139/139 141/141/141 142/142/142
f 139/139/139 140/140/140 141/141/141
f 178/178/178 179/179/179 180/180/180
f 171/171/171 172/172/172 173/173/173
f 174/174/174 176/176/176 177/177/177
f 174/174/174 175/175/175 176/176/176
f 167/167/167 169/169/169 170/170/170
f 167/167/167 168/168/168 169/169/169
f 163/163/163 165/165/165 166/166/166
f 163/163/163 164/164/164 165/165/165
f 196/196/196 197/197/197 198/198/198
f 189/189/189 190/190/190 191/191/191
f 192/192/192 194/194/194 195/195/195
f 192/192/192 193/193/193 194/194/194
f 185/185/185 187/187/187 188/188/188
f 185/185/185 186/186/186 187/187/187
f 181/181/181 183/183/183 184/184/184
f 181/181/181 182/182/182 183/183/183
f 222/222/222 223/223/223 224/224/224
f 219/219/219 220/220/220 221/221/221
f 216/216/216 217/217/217 218/218/218
f 213/213/213 214/214/214 215/215/215
f 210/210/210 211/211/211 212/212/212
f 207/207/207 208/208/208 209/209/209
f 203/203/203 205/205/205 206/206/206
f 203/203/203 204/204/204 205/205/205
f 199/199/199 201/201/201 202/202/202
f 199/199/199 200/200/200 201/201/201
f 248/248/248 249/249/249 250/250/250
f 245/245/245 246/246/246 247/247/247
f 242/242/242 243/243/243 244/244/244
f 239/239/239 240/240/240 241/241/241
f 236/236/236 237/237/237 238/238/238
f 233/233/233 234/234/234 235/235/235
f 229/229/229 231/231/231 232/232/232
f 229/229/229 230/230/230 231/231/231
f 225/225/225 227/227/227 228/228/228
f 225/225/225 226/226/226 227/227/227
f 274/274/274 275/275/275 276/276/276
f 271/271/271 272/272/272 273/273/273
f 268/268/268 269/269/269 270/270/270
f 265/265/265 266/266/266 267/267/267
f 262/262/262 263/263/263 264/264/264
f 259/259/259 260/260/260 261/261/261
f 255/255/255 257/257/257 258/258/258
f 255/255/255 256/256/256 257/257/257
f 251/251/251 253/253/253 254/254/254
f 251/251/251 252/252/252 253/253/253

