#
# OBJECT NAME
#
o model_4843
mtllib 4843.mtl

#
# VERTEX BUFFER 000
#
v -0.46605 0.145802 0.335243
v -0.282292 0.00475946 0.406881
v -0.205289 0.200122 0.465624
v -0.435535 0.230099 0.357221
v -0.00411593 0.650959 -0.346529
v 0.292874 0.634099 -0.213485
v 0.406017 0.320419 -0.273718
v 0.00860367 0.309604 -0.450837
v -0.380524 0.360918 -0.308942
v -0.428758 0.244132 -0.342921
v -0.509857 0.246102 0.0671613
v -0.429177 0.40966 0.0774528
v -0.011912 0.200313 0.334684
v -0.210695 0.368961 0.229806
v -0.169481 -0.00852551 -0.431742
v -0.0780384 0.162596 -0.478369
v 0.473805 -0.00353406 -0.320296
v 0.371659 -0.0034434 0.374145
v 0.395491 0.140786 0.376643
v 0.0441305 0.158308 0.474127
v 0.0532689 -0.00361665 0.471422
v 0.355191 0.578015 -0.0176503
v 0.311877 0.527535 0.1592
v 0.301736 0.277798 0.266508
v 0.441001 0.341328 0.0157164
v -0.524758 0.135086 -0.00680511
v -0.382966 0.0017701 0.302948
v -0.324787 0.378336 0.202992
v -0.0943486 0.508575 0.199146
v 0.0281305 0.489716 0.270048
v -0.44179 0.128122 -0.341451
v -0.388316 -0.00525353 -0.307688
v -0.426818 -0.00679903 -0.0157866
v 0.406017 0.320419 -0.273718
v 0.292874 0.634099 -0.213485
v 0.50115 0.24205 0.0499995
v -0.386715 0.605382 -0.0452218
v -0.322838 0.648799 -0.280272
v 0.463255 0.215888 -0.3139
v 0.509517 0.0117087 0.131315
v 0.473805 -0.00353406 -0.320296
v -0.428758 0.244132 -0.342921
v -0.380524 0.360918 -0.308942
v -0.388316 -0.00525353 -0.307688
v -0.44179 0.128122 -0.341451
v 0.482772 0.000646442 0.273612
v 0.371659 -0.0034434 0.374145
v 0.473805 -0.00353406 -0.320296
v 0.482772 0.000646442 0.273612
v -0.00411593 0.650959 -0.346529
v -0.322838 0.648799 -0.280272
v -0.0943486 0.508575 0.199146
v 0.0281305 0.489716 0.270048
v 0.311877 0.527535 0.1592
v -0.280277 0.549136 0.142705
v -0.386715 0.605382 -0.0452218
v -0.322838 0.648799 -0.280272
v 0.463255 0.215888 -0.3139
v -0.280277 0.549136 0.142705
v 0.292874 0.634099 -0.213485
v 0.355191 0.578015 -0.0176503
v -0.282292 0.00475946 0.406881
v -0.388316 -0.00525353 -0.307688
v -0.169481 -0.00852551 -0.431742
v 0.0532689 -0.00361665 0.471422
v -0.382966 0.0017701 0.302948
v -0.426818 -0.00679903 -0.0157866

vn -0.833496 -0.156982 0.528809
vn -0.0901489 -0.965332 0.244629
vn -0.130371 0.297852 0.945313
vn -0.584961 0.418945 0.693848
vn 0.0521851 0.905273 -0.420654
vn 0.501465 0.695313 -0.51416
vn 0.629883 0.354004 -0.690918
vn 0.111023 0.272461 -0.955566
vn -0.647461 0.32959 -0.686523
vn -0.73877 0.339355 -0.581543
vn -0.925781 0.374268 0.0463562
vn -0.883789 0.446045 0.139038
vn 0.111084 0.61377 0.78125
vn -0.157959 0.574707 0.802734
vn -0.0431213 -0.980957 -0.187866
vn -0.0282898 0.0240479 -0.999023
vn 0.260986 -0.952148 -0.158325
vn 0.0512085 -0.990234 0.127563
vn 0.50293 0.45166 0.736328
vn 0.0740967 0.343994 0.935547
vn 0.0131531 -0.980957 0.192505
vn 0.615234 0.766602 0.181763
vn 0.266113 0.823242 0.500977
vn 0.391113 0.554199 0.734375
vn 0.884766 0.444092 0.139648
vn -0.981934 -0.165405 -0.0906372
vn -0.31958 -0.936523 0.141357
vn -0.459473 0.64209 0.613281
vn -0.0355835 0.919922 0.390137
vn 0.0249329 0.840332 0.541016
vn -0.811035 -0.164551 -0.560547
vn -0.222412 -0.960938 -0.16394
vn -0.477051 -0.87793 -0.032074
vn 0.629883 0.354004 -0.690918
vn 0.501465 0.695313 -0.51416
vn 0.949707 0.297119 0.0957031
vn -0.708984 0.70166 0.0684204
vn -0.360352 0.879883 -0.308838
vn 0.790039 0.154907 -0.592773
vn 0.995605 -0.00226402 0.0930176
vn 0.260986 -0.952148 -0.158325
vn -0.73877 0.339355 -0.581543
vn -0.647461 0.32959 -0.686523
vn -0.222412 -0.960938 -0.16394
vn -0.811035 -0.164551 -0.560547
vn 0.84082 -0.442139 0.311768
vn 0.0512085 -0.990234 0.127563
vn 0.260986 -0.952148 -0.158325
vn 0.84082 -0.442139 0.311768
vn 0.0521851 0.905273 -0.420654
vn -0.360352 0.879883 -0.308838
vn -0.0355835 0.919922 0.390137
vn 0.0249329 0.840332 0.541016
vn 0.266113 0.823242 0.500977
vn -0.168945 0.84375 0.509277
vn -0.708984 0.70166 0.0684204
vn -0.360352 0.879883 -0.308838
vn 0.790039 0.154907 -0.592773
vn -0.168945 0.84375 0.509277
vn 0.501465 0.695313 -0.51416
vn 0.615234 0.766602 0.181763
vn -0.0901489 -0.965332 0.244629
vn -0.222412 -0.960938 -0.16394
vn -0.0431213 -0.980957 -0.187866
vn 0.0131531 -0.980957 0.192505
vn -0.31958 -0.936523 0.141357
vn -0.477051 -0.87793 -0.032074

vt 0.301619 0.630141
vt 0.375083 0.566498
vt 0.419218 0.652955
vt 0.320203 0.680253
vt 0.246943 0.457031
vt 0.0996274 0.47635
vt 0.0640487 0.296957
vt 0.245456 0.249133
vt 0.046643 0.803591
vt 0.0218137 0.730119
vt 0.21029 0.709116
vt 0.249495 0.818699
vt 0.494361 0.718408
vt 0.384011 0.837145
vt 0.321046 0.0630451
vt 0.280776 0.154869
vt 0.0385377 0.0609924
vt 0.643201 0.566498
vt 0.656842 0.630844
vt 0.516212 0.630986
vt 0.513777 0.566498
vt 0.788769 0.912822
vt 0.683419 0.889288
vt 0.630654 0.745685
vt 0.790837 0.772201
vt 0.171792 0.657478
vt 0.309024 0.566498
vt 0.32002 0.800223
vt 0.433875 0.927549
vt 0.512808 0.899972
vt 0.0307202 0.650874
vt 0.0281079 0.566498
vt 0.163487 0.566498
vt 0.930324 0.786795
vt 0.884691 0.968273
vt 0.791841 0.700293
vt 0.195741 0.936167
vt 0.0750742 0.964147
vt 0.956189 0.707719
vt 0.770652 0.578817
vt 0.969516 0.574598
vt 0.443219 0.20654
vt 0.427085 0.285567
vt 0.441089 0.062124
vt 0.456849 0.134387
vt 0.714424 0.566498
vt 0.974301 0.183416
vt 0.972328 0.0248535
vt 0.989642 0.158048
vt 0.652575 0.545646
vt 0.481676 0.491042
vt 0.623885 0.198097
vt 0.694879 0.159198
vt 0.842852 0.231802
vt 0.519762 0.225095
vt 0.449941 0.339974
vt 0.389304 0.442372
vt 0.0483089 0.190341
vt 0.322524 0.910689
vt 0.821039 0.462921
vt 0.860453 0.339834
vt 0.842246 0.202334
vt 0.802814 0.0437062
vt 0.845272 0.011977
vt 0.91226 0.218527
vt 0.818607 0.180989
vt 0.800732 0.110579


#
# MESH 000
#
g surface_000
usemtl surface_000
f 62/62/62 66/66/66 67/67/67
f 62/62/62 67/67/67 63/63/63
f 62/62/62 63/63/63 64/64/64
f 62/62/62 64/64/64 65/65/65
f 65/65/65 64/64/64 48/48/48
f 65/65/65 48/48/48 47/47/47
f 47/47/47 48/48/48 49/49/49
f 60/60/60 54/54/54 61/61/61
f 60/60/60 50/50/50 54/54/54
f 50/50/50 53/53/53 54/54/54
f 50/50/50 52/52/52 53/53/53
f 50/50/50 51/51/51 52/52/52
f 55/55/55 52/52/52 51/51/51
f 55/55/55 51/51/51 56/56/56
f 43/43/43 57/57/57 5/5/5
f 43/43/43 5/5/5 8/8/8
f 42/42/42 43/43/43 8/8/8
f 42/42/42 8/8/8 16/16/16
f 42/42/42 16/16/16 45/45/45
f 15/15/15 45/45/45 16/16/16
f 15/15/15 44/44/44 45/45/45
f 5/5/5 7/7/7 8/8/8
f 8/8/8 7/7/7 58/58/58
f 8/8/8 58/58/58 16/16/16
f 17/17/17 16/16/16 58/58/58
f 15/15/15 16/16/16 17/17/17
f 5/5/5 6/6/6 7/7/7
f 9/9/9 37/37/37 38/38/38
f 9/9/9 12/12/12 37/37/37
f 12/12/12 59/59/59 37/37/37
f 12/12/12 28/28/28 59/59/59
f 59/59/59 28/28/28 14/14/14
f 59/59/59 14/14/14 29/29/29
f 29/29/29 14/14/14 13/13/13
f 29/29/29 13/13/13 30/30/30
f 9/9/9 11/11/11 12/12/12
f 11/11/11 28/28/28 12/12/12
f 11/11/11 4/4/4 28/28/28
f 3/3/3 28/28/28 4/4/4
f 3/3/3 14/14/14 28/28/28
f 13/13/13 14/14/14 3/3/3
f 20/20/20 13/13/13 3/3/3
f 20/20/20 24/24/24 13/13/13
f 23/23/23 13/13/13 24/24/24
f 23/23/23 30/30/30 13/13/13
f 9/9/9 10/10/10 11/11/11
f 26/26/26 11/11/11 10/10/10
f 4/4/4 11/11/11 26/26/26
f 4/4/4 26/26/26 1/1/1
f 1/1/1 3/3/3 4/4/4
f 1/1/1 2/2/2 3/3/3
f 21/21/21 3/3/3 2/2/2
f 21/21/21 20/20/20 3/3/3
f 18/18/18 20/20/20 21/21/21
f 18/18/18 19/19/19 20/20/20
f 20/20/20 19/19/19 24/24/24
f 26/26/26 10/10/10 31/31/31
f 26/26/26 31/31/31 32/32/32
f 26/26/26 32/32/32 33/33/33
f 26/26/26 33/33/33 27/27/27
f 26/26/26 27/27/27 1/1/1
f 1/1/1 27/27/27 2/2/2
f 46/46/46 19/19/19 18/18/18
f 36/36/36 19/19/19 46/46/46
f 36/36/36 24/24/24 19/19/19
f 36/36/36 25/25/25 24/24/24
f 22/22/22 24/24/24 25/25/25
f 22/22/22 23/23/23 24/24/24
f 36/36/36 46/46/46 40/40/40
f 40/40/40 39/39/39 36/36/36
f 34/34/34 36/36/36 39/39/39
f 34/34/34 25/25/25 36/36/36
f 22/22/22 25/25/25 34/34/34
f 22/22/22 34/34/34 35/35/35
f 40/40/40 46/46/46 41/41/41
f 40/40/40 41/41/41 39/39/39

