#
# OBJECT NAME
#
o model_1794
mtllib 1794.mtl

#
# VERTEX BUFFER 000
#
v -0.101914 1.90823 0.492995
v 0.000364978 1.80549 0.492995
v 0.101914 1.90657 0.492995
v -0.000364972 2.00932 0.492995
v -0.101914 1.90823 -0.492995
v -0.101914 1.90823 0.492995
v -0.000364972 2.00932 0.492995
v -0.000364972 2.00932 -0.492995
v 0.000364978 1.80549 -0.492995
v -0.101914 1.90823 -0.492995
v -0.000364972 2.00932 -0.492995
v 0.101914 1.90657 -0.492995
v 0.000364978 1.80549 0.492995
v 0.000364978 1.80549 -0.492995
v 0.101914 1.90657 -0.492995
v 0.101914 1.90657 0.492995
v 0.101914 1.90657 0.492995
v 0.101914 1.90657 -0.492995
v -0.000364972 2.00932 -0.492995
v -0.000364972 2.00932 0.492995
v 0.000364978 1.80549 -0.492995
v 0.000364978 1.80549 0.492995
v -0.101914 1.90823 0.492995
v -0.101914 1.90823 -0.492995
v 0.382703 1.46353 -0.349174
v -0.382703 1.46353 -0.349174
v 0 1.84539 -0.349174
v -0.298889 1.00242 -0.298889
v 0.298889 1.00242 -0.298889
v 0.298889 1.00242 -0.241033
v -0.298889 1.00242 -0.241033
v 0.382703 1.46353 -0.289366
v 0.298889 1.00242 -0.241033
v 0.298889 1.00242 -0.298889
v 0.382703 1.46353 -0.349174
v -0.298889 1.00242 -0.298889
v -0.298889 1.00242 -0.241033
v -0.382703 1.46353 -0.289366
v -0.382703 1.46353 -0.349174
v 0.298889 1.00242 0.298889
v 0.298889 1.00242 0.241033
v 0.382703 1.46353 0.289367
v 0.382703 1.46353 0.349174
v 0.298889 1.00242 0.241033
v 0.298889 1.00242 0.298889
v -0.298889 1.00242 0.298889
v -0.298889 1.00242 0.241033
v -0.382703 1.46353 0.289367
v -0.298889 1.00242 0.241033
v -0.298889 1.00242 0.298889
v -0.382703 1.46353 0.349174
v 0.382703 1.46353 0.289367
v 0.298889 1.00242 0.241033
v 0.298889 1.00242 -0.241033
v 0.382703 1.46353 -0.289366
v 0.298889 1.00242 -0.241033
v 0.298889 1.00242 0.241033
v -0.298889 1.00242 0.241033
v -0.298889 1.00242 -0.241033
v -0.382703 1.46353 -0.289366
v -0.298889 1.00242 -0.241033
v -0.298889 1.00242 0.241033
v -0.382703 1.46353 0.289367
v 0 1.84539 0.349174
v -0.382703 1.46353 0.349174
v 0.382703 1.46353 0.349174
v 0.382703 1.46353 -0.349174
v 0.298889 1.00242 -0.298889
v -0.298889 1.00242 -0.298889
v -0.382703 1.46353 -0.349174
v -0.298889 1.00242 0.298889
v 0.298889 1.00242 0.298889
v 0.382703 1.46353 0.349174
v -0.382703 1.46353 0.349174
v 0.427737 1.40197 0.468345
v 0.427737 1.40197 -0.468345
v 0.503485 1.47738 -0.468345
v 0.503485 1.47738 0.468345
v 0.0115022 1.8201 0.468345
v 0.0115022 1.8201 -0.468345
v 0.427737 1.40197 -0.468345
v 0.427737 1.40197 0.468345
v 0.0872497 1.8955 0.468345
v 0.0115022 1.8201 0.468345
v 0.427737 1.40197 0.468345
v 0.503485 1.47738 0.468345
v 0.0872497 1.8955 -0.468345
v 0.0872497 1.8955 0.468345
v 0.503485 1.47738 0.468345
v 0.503485 1.47738 -0.468345
v 0.0115022 1.8201 -0.468345
v 0.0872497 1.8955 -0.468345
v 0.503485 1.47738 -0.468345
v 0.427737 1.40197 -0.468345
v -0.425468 1.40197 -0.468345
v -0.425468 1.40197 0.468345
v -0.501216 1.47738 0.468345
v -0.501216 1.47738 -0.468345
v -0.425468 1.40197 -0.468345
v -0.00923346 1.8201 -0.468345
v -0.00923346 1.8201 0.468345
v -0.425468 1.40197 0.468345
v -0.501216 1.47738 -0.468345
v -0.084981 1.8955 -0.468345
v -0.00923346 1.8201 -0.468345
v -0.425468 1.40197 -0.468345
v -0.501216 1.47738 0.468345
v -0.084981 1.8955 0.468345
v -0.084981 1.8955 -0.468345
v -0.501216 1.47738 -0.468345
v -0.425468 1.40197 0.468345
v -0.00923346 1.8201 0.468345
v -0.084981 1.8955 0.468345
v -0.501216 1.47738 0.468345
v -0.108632 1.00888 0
v 0 1.00888 -0.108632
v 0 0 -0.108632
v -0.108632 0 0
v 0 1.00888 0.108632
v -0.108632 1.00888 0
v -0.108632 0 0
v 0 0 0.108632
v 0.108632 1.00888 0
v 0.108632 0 0
v 0.108632 1.00888 0
v 0.108632 0 0
v -0.108632 0 0
v 0 0 -0.108632
v 0 0 0
v 0 0 0.108632
v 0.108632 0 0

vn 0 0 1
vn 0 0 1
vn 0 0 1
vn 0 0 1
vn -0.705078 0.708496 0
vn -0.705078 0.708496 0
vn -0.705078 0.708496 0
vn -0.705078 0.708496 0
vn 0 0 -1
vn 0 0 -1
vn 0 0 -1
vn 0 0 -1
vn 0.705078 -0.708496 0
vn 0.705078 -0.708496 0
vn 0.705078 -0.708496 0
vn 0.705078 -0.708496 0
vn 0.708496 0.705078 0
vn 0.708496 0.705078 0
vn 0.708496 0.705078 0
vn 0.708496 0.705078 0
vn -0.708496 -0.705078 0
vn -0.708496 -0.705078 0
vn -0.708496 -0.705078 0
vn -0.708496 -0.705078 0
vn 0 0 -1
vn 0 0 -1
vn 0 0 -1
vn 0 -1 0
vn 0 -1 0
vn 0 -1 0
vn 0 -1 0
vn 0.983398 -0.178833 1.78814e-007
vn 0.983398 -0.178833 1.78814e-007
vn 0.983398 -0.178833 1.78814e-007
vn 0.983398 -0.178833 1.78814e-007
vn -0.983398 -0.178833 2.38419e-007
vn -0.983398 -0.178833 2.38419e-007
vn -0.983398 -0.178833 2.38419e-007
vn -0.983398 -0.178833 2.38419e-007
vn 0.983398 -0.178833 1.84774e-006
vn 0.983398 -0.178833 1.84774e-006
vn 0.983398 -0.178833 1.84774e-006
vn 0.983398 -0.178833 1.84774e-006
vn 0 -1 0
vn 0 -1 0
vn 0 -1 0
vn 0 -1 0
vn -0.983398 -0.178833 1.90735e-006
vn -0.983398 -0.178833 1.90735e-006
vn -0.983398 -0.178833 1.90735e-006
vn -0.983398 -0.178833 1.90735e-006
vn 0.983398 -0.178833 0
vn 0.983398 -0.178833 0
vn 0.983398 -0.178833 0
vn 0.983398 -0.178833 0
vn 0 -1 0
vn 0 -1 0
vn 0 -1 0
vn 0 -1 0
vn -0.983398 -0.178833 0
vn -0.983398 -0.178833 0
vn -0.983398 -0.178833 0
vn -0.983398 -0.178833 0
vn 0 1.78814e-007 1
vn 0 1.78814e-007 1
vn 0 1.78814e-007 1
vn 0 -0.108398 -0.993652
vn 0 -0.108398 -0.993652
vn 0 -0.108398 -0.993652
vn 0 -0.108398 -0.993652
vn 0 -0.108398 0.993652
vn 0 -0.108398 0.993652
vn 0 -0.108398 0.993652
vn 0 -0.108398 0.993652
vn 0.705078 -0.708496 0
vn 0.705078 -0.708496 0
vn 0.705078 -0.708496 0
vn 0.705078 -0.708496 0
vn -0.708496 -0.705078 0
vn -0.708496 -0.705078 0
vn -0.708496 -0.705078 0
vn -0.708496 -0.705078 0
vn 0 0 1
vn 0 0 1
vn 0 0 1
vn 0 0 1
vn 0.708496 0.705078 0
vn 0.708496 0.705078 0
vn 0.708496 0.705078 0
vn 0.708496 0.705078 0
vn 0 0 -1
vn 0 0 -1
vn 0 0 -1
vn 0 0 -1
vn -0.705078 -0.708496 0
vn -0.705078 -0.708496 0
vn -0.705078 -0.708496 0
vn -0.705078 -0.708496 0
vn 0.708496 -0.705078 0
vn 0.708496 -0.705078 0
vn 0.708496 -0.705078 0
vn 0.708496 -0.705078 0
vn 0 0 -1
vn 0 0 -1
vn 0 0 -1
vn 0 0 -1
vn -0.708496 0.705078 0
vn -0.708496 0.705078 0
vn -0.708496 0.705078 0
vn -0.708496 0.705078 0
vn 0 0 1
vn 0 0 1
vn 0 0 1
vn 0 0 1
vn -1 0 0
vn 0 0 -1
vn 0 -0.0269012 -0.999512
vn -0.999512 -0.0269012 0
vn 0 0 1
vn -1 0 0
vn -0.999512 -0.0269012 0
vn 0 -0.0269012 0.999512
vn 1 0 0
vn 0.999512 -0.0269012 0
vn 1 0 0
vn 0.999512 -0.0269012 0
vn -0.999512 -0.0269012 0
vn 0 -0.0269012 -0.999512
vn 0 -1 0
vn 0 -0.0269012 0.999512
vn 0.999512 -0.0269012 0

vt 0.0163038 0.942921
vt 0.0163038 0.893542
vt 0.0693955 0.893542
vt 0.0693955 0.942921
vt 0.392754 0.990304
vt 0.0693955 0.990304
vt 0.0693955 0.942921
vt 0.392754 0.942921
vt 0.0693956 0.894958
vt 0.0693956 0.944336
vt 0.0142674 0.944336
vt 0.0142674 0.894958
vt 0.392754 0.944336
vt 0.0693954 0.944336
vt 0.0693953 0.990304
vt 0.392754 0.990304
vt 0.0693955 0.893542
vt 0.392754 0.893542
vt 0.392754 0.942921
vt 0.0693955 0.942921
vt 0.0693952 0.944336
vt 0.392754 0.944336
vt 0.392754 0.894958
vt 0.0693952 0.894958
vt 0.429543 0.429417
vt 0.750676 0.428464
vt 0.59011 0.612575
vt 0.750479 0.193053
vt 0.429346 0.194006
vt 0.42928 0.164412
vt 0.750412 0.162285
vt 0.401633 0.429418
vt 0.401633 0.194007
vt 0.429346 0.194006
vt 0.429346 0.429418
vt 0.400099 0.194007
vt 0.429229 0.194007
vt 0.429229 0.429418
vt 0.400099 0.429418
vt 0.372628 0.194007
vt 0.344915 0.194007
vt 0.344915 0.429418
vt 0.372628 0.429418
vt 0.344848 0.164412
vt 0.344914 0.194006
vt 0.0237817 0.194006
vt 0.0237156 0.164412
vt 0.372962 0.429418
vt 0.372962 0.194007
vt 0.343832 0.194007
vt 0.343832 0.429418
vt 0.0492456 0.863571
vt 0.0492456 0.62816
vt 0.314953 0.62816
vt 0.314953 0.863571
vt 0.802649 0.164647
vt 0.977698 0.164581
vt 0.979825 0.485714
vt 0.804776 0.48578
vt 0.0506623 0.863571
vt 0.0506623 0.62816
vt 0.313536 0.62816
vt 0.313536 0.863571
vt 0.184348 0.612575
vt 0.0461189 0.430257
vt 0.321532 0.430786
vt 0.429543 0.429417
vt 0.429346 0.194006
vt 0.750479 0.193053
vt 0.750676 0.428464
vt 0.0237817 0.194006
vt 0.344915 0.194007
vt 0.321532 0.430786
vt 0.0461189 0.430257
vt 0.545358 0.630553
vt 0.950822 0.630553
vt 0.950822 0.675969
vt 0.545358 0.675969
vt 0.545358 0.991265
vt 0.950822 0.991264
vt 0.950822 0.675969
vt 0.545358 0.675969
vt 0.545358 0.991264
vt 0.504455 0.991264
vt 0.504455 0.675969
vt 0.545358 0.675969
vt 0.950822 0.991264
vt 0.545358 0.991264
vt 0.545358 0.675969
vt 0.950822 0.675969
vt 0.991725 0.991265
vt 0.950822 0.991264
vt 0.950822 0.675969
vt 0.991725 0.675969
vt 0.545358 0.630553
vt 0.950822 0.630553
vt 0.950822 0.675969
vt 0.545358 0.675969
vt 0.545358 0.675969
vt 0.545358 0.991265
vt 0.950822 0.991264
vt 0.950822 0.675969
vt 0.545358 0.675969
vt 0.545358 0.991264
vt 0.504455 0.991264
vt 0.504455 0.675969
vt 0.950822 0.675969
vt 0.950822 0.991264
vt 0.545358 0.991264
vt 0.545358 0.675969
vt 0.991725 0.675969
vt 0.991725 0.991265
vt 0.950822 0.991264
vt 0.950822 0.675969
vt 1.01049 0.143553
vt 1.01049 0.0746469
vt 1.98438 0.0746471
vt 1.98438 0.143553
vt 0.165955 0.0746472
vt 0.165955 0.005741
vt 0.986943 0.005741
vt 0.986944 0.0746472
vt 0.165955 0.143553
vt 0.986944 0.143553
vt 1.01049 0.00574064
vt 1.98438 0.00574064
vt -0.151513 0.0759003
vt -0.0885738 0.0129614
vt -0.0885738 0.0733827
vt -0.0885738 0.138839
vt -0.0256349 0.0759003


#
# MESH 000
#
g surface_000
usemtl surface_000
f 21/21/21 23/23/23 24/24/24
f 21/21/21 22/22/22 23/23/23
f 17/17/17 19/19/19 20/20/20
f 17/17/17 18/18/18 19/19/19
f 13/13/13 15/15/15 16/16/16
f 13/13/13 14/14/14 15/15/15
f 9/9/9 11/11/11 12/12/12
f 9/9/9 10/10/10 11/11/11
f 5/5/5 7/7/7 8/8/8
f 5/5/5 6/6/6 7/7/7
f 1/1/1 3/3/3 4/4/4
f 1/1/1 2/2/2 3/3/3
f 64/64/64 65/65/65 66/66/66
f 25/25/25 26/26/26 27/27/27
f 71/71/71 73/73/73 74/74/74
f 71/71/71 72/72/72 73/73/73
f 67/67/67 69/69/69 70/70/70
f 67/67/67 68/68/68 69/69/69
f 60/60/60 62/62/62 63/63/63
f 60/60/60 61/61/61 62/62/62
f 56/56/56 58/58/58 59/59/59
f 56/56/56 57/57/57 58/58/58
f 52/52/52 54/54/54 55/55/55
f 52/52/52 53/53/53 54/54/54
f 48/48/48 50/50/50 51/51/51
f 48/48/48 49/49/49 50/50/50
f 44/44/44 46/46/46 47/47/47
f 44/44/44 45/45/45 46/46/46
f 40/40/40 42/42/42 43/43/43
f 40/40/40 41/41/41 42/42/42
f 36/36/36 38/38/38 39/39/39
f 36/36/36 37/37/37 38/38/38
f 32/32/32 34/34/34 35/35/35
f 32/32/32 33/33/33 34/34/34
f 28/28/28 30/30/30 31/31/31
f 28/28/28 29/29/29 30/30/30
f 91/91/91 93/93/93 94/94/94
f 91/91/91 92/92/92 93/93/93
f 87/87/87 89/89/89 90/90/90
f 87/87/87 88/88/88 89/89/89
f 83/83/83 85/85/85 86/86/86
f 83/83/83 84/84/84 85/85/85
f 79/79/79 81/81/81 82/82/82
f 79/79/79 80/80/80 81/81/81
f 75/75/75 77/77/77 78/78/78
f 75/75/75 76/76/76 77/77/77
f 111/111/111 113/113/113 114/114/114
f 111/111/111 112/112/112 113/113/113
f 107/107/107 109/109/109 110/110/110
f 107/107/107 108/108/108 109/109/109
f 103/103/103 105/105/105 106/106/106
f 103/103/103 104/104/104 105/105/105
f 99/99/99 101/101/101 102/102/102
f 99/99/99 100/100/100 101/101/101
f 95/95/95 97/97/97 98/98/98
f 95/95/95 96/96/96 97/97/97
f 116/116/116 125/125/125 126/126/126
f 116/116/116 126/126/126 117/117/117
f 115/115/115 116/116/116 117/117/117
f 115/115/115 117/117/117 118/118/118
f 123/123/123 122/122/122 124/124/124
f 123/123/123 119/119/119 122/122/122
f 119/119/119 121/121/121 122/122/122
f 119/119/119 120/120/120 121/121/121
f 128/128/128 131/131/131 129/129/129
f 131/131/131 130/130/130 129/129/129
f 130/130/130 127/127/127 129/129/129
f 127/127/127 128/128/128 129/129/129

