#
# OBJECT NAME
#
o model_4598
mtllib 4598.mtl

#
# VERTEX BUFFER 000
#
v -0.307159 1.93323 0.185247
v 0.479176 1.77056 0.185247
v 0.307159 1.93323 0.185247
v -0.489663 1.77057 0.185247
v 0.374263 1.54533 0.185247
v 0.319035 0.220377 0.243541
v 0.245164 0.840037 0.185247
v -0.319035 0.220377 0.243541
v -0.245164 0.840037 0.185247
v -0.391967 0.20747 0.313679
v -0.404193 0 0.326257
v 0.391967 0.20747 0.313679
v 0.404193 0 0.326257
v -0.404193 0 0.326257
v -0.391967 0.20747 0.313679
v -0.404193 0 -0.313679
v -0.391967 0.20747 -0.313679
v 0 0.30538 0.00643379
v -0.391967 0.20747 0.313679
v 0.391967 0.20747 0.313679
v -0.391967 0.20747 0.313679
v 0 0.30538 0.00643379
v -0.391967 0.20747 -0.313679
v -0.489663 1.77057 0.185247
v -0.307159 1.93323 0.185247
v -0.489663 1.77057 -0.185247
v -0.307159 1.93323 -0.185247
v -0.374263 1.54533 0.185247
v -0.374263 1.54533 -0.185247
v -0.245164 0.840037 0.185247
v -0.245164 0.840037 -0.185247
v -0.374263 1.54533 0.185247
v -0.374263 1.54533 -0.185247
v -0.319035 0.220377 -0.230674
v -0.319035 0.220377 0.243541
v -0.404193 0 -0.313679
v -0.391967 0.20747 -0.313679
v 0.404193 0 -0.313679
v 0.391967 0.20747 -0.313679
v -0.404193 0 0.326257
v -0.404193 0 -0.313679
v 0.404193 0 0.326257
v 0.404193 0 -0.313679
v 0.391967 0.20747 -0.313679
v 0.391967 0.20747 0.313679
v 0.404193 0 -0.313679
v 0.404193 0 0.326257
v -0.391967 0.20747 -0.313679
v 0 0.30538 0.00643379
v 0.391967 0.20747 -0.313679
v 0.391967 0.20747 0.313679
v 0.391967 0.20747 -0.313679
v 0.479176 1.77056 0.185247
v 0.479176 1.77056 -0.185247
v 0.307159 1.93323 0.185247
v 0.307159 1.93323 -0.185247
v 0.319035 0.220377 0.243541
v 0.319035 0.220377 -0.230674
v 0.245164 0.840037 0.185247
v 0.245164 0.840037 -0.185247
v 0.374263 1.54533 0.185247
v 0.374263 1.54533 -0.185247
v 0.374263 1.54533 0.185247
v 0.374263 1.54533 -0.185247
v -0.319035 0.220377 -0.230674
v -0.245164 0.840037 -0.185247
v 0.319035 0.220377 -0.230674
v 0.245164 0.840037 -0.185247
v -0.489663 1.77057 -0.185247
v 0.374263 1.54533 -0.185247
v -0.374263 1.54533 -0.185247
v 0.307159 1.93323 -0.185247
v -0.489663 1.77057 -0.185247
v -0.307159 1.93323 -0.185247
v -0.374263 1.54533 0.185247
v -0.374263 1.54533 -0.185247
v 0.374263 1.54533 -0.185247
v -0.245164 0.840037 -0.185247
v 0.245164 0.840037 -0.185247
v 0.479176 1.77056 -0.185247
v 0.479176 1.77056 -0.185247

vn 0 0 1
vn 0 0 1
vn 0 0 1
vn 0 0 1
vn 0 0 1
vn 0 0.0936279 0.995117
vn 0 0.0409241 0.999023
vn 0 0.0936279 0.995117
vn 0 0.0409241 0.999023
vn 0 0.0604858 0.998047
vn 0 0.0604858 0.998047
vn 0 0.0604858 0.998047
vn 0 0.0604858 0.998047
vn -0.998047 0.0588074 0
vn -0.998047 0.0588074 0
vn -0.998047 0.0588074 0
vn -0.998047 0.0588074 0
vn 0 0.999512 0.00187302
vn -0.141357 0.980957 0.13208
vn 0.141357 0.980957 0.13208
vn -0.141357 0.980957 0.13208
vn 0 0.999512 0.00187302
vn -0.136108 0.981445 -0.133423
vn -0.985352 0.17041 0
vn -0.199951 0.979492 0
vn -0.985352 0.17041 0
vn -0.199951 0.979492 0
vn -0.966797 -0.253906 0
vn -0.966797 -0.253906 0
vn -0.999512 -0.02742 0
vn -0.999512 -0.0283661 0
vn -0.966797 -0.253906 0
vn -0.966797 -0.253906 0
vn -0.992676 0.118347 0
vn -0.992676 0.118347 0
vn 0 0 -1
vn 0 0 -1
vn 0 0 -1
vn 0 0 -1
vn 0 -1 0
vn 0 -1 0
vn 0 -1 0
vn 0 -1 0
vn 0.998047 0.0588074 0
vn 0.998047 0.0588074 0
vn 0.998047 0.0588074 0
vn 0.998047 0.0588074 0
vn -0.136108 0.981445 -0.133423
vn 0 0.999512 0.00187302
vn 0.136108 0.981445 -0.133423
vn 0.141357 0.980957 0.13208
vn 0.136108 0.981445 -0.133423
vn 0.985352 0.17041 0
vn 0.985352 0.17041 0
vn 0.202515 0.979004 0
vn 0.202515 0.979004 0
vn 0.992676 0.118347 0
vn 0.992676 0.118347 0
vn 0.999512 -0.02742 0
vn 0.999512 -0.0283661 0
vn 0.983398 -0.179932 0
vn 0.983398 -0.179932 0
vn 0.90625 -0.422119 0
vn 0.90625 -0.422119 0
vn 0 0.0730591 -0.99707
vn 0 0.0730591 -0.99707
vn 0 0.0730591 -0.99707
vn 0 0.0730591 -0.99707
vn 0 0 -1
vn 0 0 -1
vn 0 0 -1
vn 0 0 -1
vn 0 0 -1
vn 0 0 -1
vn 0 0 1
vn 0 0 -1
vn 0 0 -1
vn 0 0 -1
vn 0 0 -1
vn 0 0 -1
vn 0 0 -1

vt 0.135963 0.986469
vt 0.570878 0.930326
vt 0.467587 0.986469
vt 0.032672 0.930326
vt 0.542948 0.861489
vt 0.482117 0.462569
vt 0.463378 0.634246
vt 0.121433 0.463221
vt 0.140172 0.634246
vt 0.239471 0.153907
vt 0.239471 0.0909926
vt 0.734389 0.153907
vt 0.734389 0.0909926
vt 0.619761 0.0134745
vt 0.619761 0.0763887
vt 0.241345 0.0134745
vt 0.241345 0.0763887
vt 0.535437 0.429029
vt 0.301607 0.401142
vt 0.769269 0.401142
vt 0.603599 0.352052
vt 0.423025 0.37972
vt 0.242451 0.352052
vt 0.0106864 0.390879
vt 0.0106864 0.311021
vt 0.215655 0.390879
vt 0.215655 0.311021
vt 0.977141 0.372656
vt 0.76409 0.372656
vt 0.977141 0.161441
vt 0.76409 0.161441
vt 0.0106864 0.460247
vt 0.215655 0.460247
vt 0.750406 0.00917375
vt 0.989748 0.00917375
vt 0.734389 0.0909926
vt 0.734389 0.153907
vt 0.239471 0.0909926
vt 0.239471 0.153907
vt 0.971734 0.86157
vt 0.971731 0.988594
vt 0.635303 0.861566
vt 0.635301 0.9886
vt 0.619761 0.0763887
vt 0.241345 0.0763887
vt 0.619761 0.0134745
vt 0.241345 0.0134745
vt 0.770408 0.401142
vt 0.534305 0.429029
vt 0.301374 0.401142
vt 0.242451 0.352052
vt 0.603599 0.352052
vt 0.0106864 0.0811113
vt 0.215655 0.0811116
vt 0.0106864 0.160974
vt 0.215655 0.160972
vt 0.750406 0.00917375
vt 0.989748 0.00917375
vt 0.76409 0.161441
vt 0.977141 0.161441
vt 0.76409 0.372656
vt 0.977141 0.372656
vt 0.0106864 0.0117428
vt 0.215655 0.0117428
vt 0.909302 0.831858
vt 0.888914 0.686051
vt 0.580424 0.831858
vt 0.600812 0.686051
vt 0.0343635 0.929485
vt 0.541633 0.881834
vt 0.0678712 0.882772
vt 0.466446 0.986469
vt 0.0315311 0.930326
vt 0.134822 0.986469
vt 0.0606016 0.861489
vt 0.964768 0.478848
vt 0.524958 0.478848
vt 0.888914 0.686051
vt 0.600812 0.686051
vt 0.566904 0.929485
vt 0.569737 0.930326


#
# MESH 000
#
g surface_000
usemtl surface_000
f 51/51/51 52/52/52 22/22/22
f 48/48/48 49/49/49 50/50/50
f 21/21/21 22/22/22 23/23/23
f 18/18/18 19/19/19 20/20/20
f 72/72/72 81/81/81 73/73/73
f 72/72/72 73/73/73 74/74/74
f 69/69/69 80/80/80 70/70/70
f 69/69/69 70/70/70 71/71/71
f 78/78/78 77/77/77 79/79/79
f 76/76/76 77/77/77 78/78/78
f 67/67/67 66/66/66 68/68/68
f 65/65/65 66/66/66 67/67/67
f 63/63/63 64/64/64 53/53/53
f 53/53/53 64/64/64 54/54/54
f 53/53/53 54/54/54 55/55/55
f 55/55/55 54/54/54 56/56/56
f 27/27/27 55/55/55 56/56/56
f 25/25/25 55/55/55 27/27/27
f 26/26/26 25/25/25 27/27/27
f 24/24/24 25/25/25 26/26/26
f 33/33/33 24/24/24 26/26/26
f 32/32/32 24/24/24 33/33/33
f 61/61/61 60/60/60 62/62/62
f 59/59/59 60/60/60 61/61/61
f 59/59/59 58/58/58 60/60/60
f 57/57/57 58/58/58 59/59/59
f 46/46/46 45/45/45 47/47/47
f 44/44/44 45/45/45 46/46/46
f 42/42/42 41/41/41 43/43/43
f 40/40/40 41/41/41 42/42/42
f 38/38/38 37/37/37 39/39/39
f 36/36/36 37/37/37 38/38/38
f 30/30/30 34/34/34 35/35/35
f 31/31/31 34/34/34 30/30/30
f 30/30/30 29/29/29 31/31/31
f 28/28/28 29/29/29 30/30/30
f 16/16/16 15/15/15 17/17/17
f 14/14/14 15/15/15 16/16/16
f 12/12/12 11/11/11 13/13/13
f 10/10/10 11/11/11 12/12/12
f 6/6/6 7/7/7 8/8/8
f 8/8/8 7/7/7 9/9/9
f 7/7/7 5/5/5 9/9/9
f 9/9/9 5/5/5 75/75/75
f 75/75/75 5/5/5 4/4/4
f 4/4/4 5/5/5 2/2/2
f 1/1/1 4/4/4 2/2/2
f 1/1/1 2/2/2 3/3/3

