#
# OBJECT NAME
#
o model_1183
mtllib 1183.mtl

#
# VERTEX BUFFER 000
#
v 0.380134 0.125559 -0.0405326
v 0.00307721 0.0752384 0.448603
v 0.107325 0.0905468 0.534808
v 0.495605 0.137319 0.0549517
v 0 0.00496268 0.0857923
v 0.0455622 0.00496268 0.0214774
v 0.362439 0.060758 0.56412
v 0.549205 0.0873731 0.329331
v -0.303779 0.131428 -0.202753
v 0.313457 0.0807186 -0.223883
v 0.313457 0.106969 -0.359156
v -0.303779 0.144682 -0.352588
v 0.0455623 0.00496268 0.0214774
v -0.0492865 0.0159665 0.0234901
v 0.173472 0.111298 -0.574438
v -0.126486 0.119512 -0.568747
v 0 0.00496268 0.0857924
v -0.0205942 0.0838642 0.427197
v -0.396316 0.0942482 -0.0629653
v -0.50643 0.102206 0.0156084
v -0.142562 0.101719 0.514229
v -0.0492865 0.0159665 0.0234901
v 0 0.00496268 0.0857923
v -0.600361 0.0654693 0.254605
v -0.421497 0.0628272 0.495467

vn -0.184082 0.981445 -0.0452576
vn -0.187622 0.980957 -0.0474243
vn -0.0348206 0.996582 0.0739136
vn -0.0431213 0.996582 0.0672607
vn 0 1 0
vn 0 1 0
vn 0.0861206 0.981445 0.170044
vn 0.0861206 0.981445 0.170044
vn 0.0786133 0.975586 0.204468
vn 0.0787354 0.974121 0.21106
vn 0.0639038 0.995605 0.0619812
vn 0.0647583 0.995117 0.0682983
vn 0 1 0
vn 0 1 0
vn 0.0493469 0.997559 -0.0439148
vn 0.0493469 0.997559 -0.0439148
vn 0 1 0
vn 0.124878 0.98877 -0.0802612
vn 0.125366 0.988281 -0.081665
vn -0.0139313 0.999512 0.0177307
vn -0.00604248 0.999512 0.0121536
vn 0 1 0
vn 0 1 0
vn -0.137573 0.984863 0.105164
vn -0.137573 0.984863 0.105164

vt 0.0298508 0.462498
vt 0.970149 0.462498
vt 0.981582 0.666436
vt 0.0175167 0.682523
vt 0.54889 0.0989362
vt 0.424825 0.0989362
vt 0.773206 0.995
vt 0.287236 0.995
vt 0.0298508 0.462498
vt 0.970149 0.462498
vt 0.981582 0.666436
vt 0.0175167 0.682523
vt 0.54889 0.0989362
vt 0.424825 0.0989362
vt 0.773206 0.995
vt 0.287236 0.995
vt 0.489054 0.0936953
vt 0.0298508 0.462498
vt 0.970149 0.462498
vt 0.981582 0.666436
vt 0.0175167 0.682523
vt 0.54889 0.0989362
vt 0.424825 0.0989362
vt 0.773206 0.995
vt 0.287236 0.995


#
# MESH 000
#
g surface_000
usemtl surface_000
f 4/4/4 7/7/7 8/8/8
f 4/4/4 3/3/3 7/7/7
f 1/1/1 3/3/3 4/4/4
f 1/1/1 2/2/2 3/3/3
f 1/1/1 5/5/5 2/2/2
f 6/6/6 5/5/5 1/1/1
f 13/13/13 14/14/14 17/17/17
f 14/14/14 13/13/13 9/9/9
f 9/9/9 13/13/13 10/10/10
f 9/9/9 10/10/10 11/11/11
f 9/9/9 11/11/11 12/12/12
f 12/12/12 11/11/11 15/15/15
f 12/12/12 15/15/15 16/16/16
f 21/21/21 24/24/24 25/25/25
f 21/21/21 20/20/20 24/24/24
f 18/18/18 20/20/20 21/21/21
f 18/18/18 19/19/19 20/20/20
f 18/18/18 22/22/22 19/19/19
f 23/23/23 22/22/22 18/18/18

