#
# OBJECT NAME
#
o model_1510
mtllib 1510.mtl

#
# VERTEX BUFFER 000
#
v 0.108239 -0.00955164 -0.108239
v 0 -0.00955164 -0.153073
v 0 0.0771573 -0.282843
v 0.2 0.0771573 -0.2
v -0.108239 -0.00955164 -0.108239
v -0.2 0.0771573 -0.2
v -0.153073 -0.00955164 0
v -0.282843 0.0771573 0
v -0.153073 -0.00955164 0
v -0.108239 -0.00955164 0.108239
v -0.2 0.0771573 0.2
v -0.282843 0.0771573 0
v 0 -0.00955164 0.153073
v 0 0.0771573 0.282843
v 0.108239 -0.00955164 0.108239
v 0.2 0.0771573 0.2
v 0.153073 -0.00955164 0
v 0.282843 0.0771573 0
v 0.153073 -0.00955164 0
v 0.282843 0.0771573 0
v 0 0.206927 -0.369552
v 0.261313 0.206927 -0.261313
v -0.261313 0.206927 -0.261313
v -0.369552 0.206927 0
v -0.261313 0.206927 0.261313
v -0.369552 0.206927 0
v 0 0.206927 0.369552
v 0.261313 0.206927 0.261313
v 0.369552 0.206927 0
v 0.369552 0.206927 0
v 0 0.36 -0.4
v 0.282843 0.36 -0.282843
v -0.282843 0.36 -0.282843
v -0.4 0.36 0
v -0.282843 0.36 0.282843
v -0.4 0.36 0
v 0 0.36 0.4
v 0.282843 0.36 0.282843
v 0.4 0.36 0
v 0.4 0.36 0
v 0 0.513073 -0.369552
v 0.261313 0.513073 -0.261313
v -0.261313 0.513073 -0.261313
v -0.369552 0.513073 0
v -0.261313 0.513073 0.261313
v -0.369552 0.513073 0
v 0 0.513073 0.369552
v 0.261313 0.513073 0.261313
v 0.369552 0.513073 0
v 0.369552 0.513073 0
v 0 0.642843 -0.282843
v 0.2 0.642843 -0.2
v -0.2 0.642843 -0.2
v -0.282843 0.642843 0
v -0.2 0.642843 0.2
v -0.282843 0.642843 0
v 0 0.642843 0.282843
v 0.2 0.642843 0.2
v 0.282843 0.642843 0
v 0.282843 0.642843 0
v 0 0.717804 -0.153073
v 0.108239 0.717804 -0.108239
v -0.108239 0.717804 -0.108239
v -0.153073 0.717804 0
v -0.108239 0.717804 0.108239
v -0.153073 0.717804 0
v 0 0.717804 0.153073
v 0.108239 0.717804 0.108239
v 0.153073 0.717804 0
v 0.153073 0.717804 0
v 0 -0.0294577 0
v 0 0.74256 0

vn 0.344238 -0.873047 -0.344238
vn 0 -0.873047 -0.487061
vn 0 -0.653809 -0.755859
vn 0.534668 -0.653809 -0.534668
vn -0.344238 -0.873047 -0.344238
vn -0.534668 -0.653809 -0.534668
vn -0.487061 -0.873047 0
vn -0.755859 -0.653809 0
vn -0.487061 -0.873047 0
vn -0.344238 -0.873047 0.344238
vn -0.534668 -0.653809 0.534668
vn -0.755859 -0.653809 0
vn 0 -0.873047 0.487061
vn 0 -0.653809 0.755859
vn 0.344238 -0.873047 0.344238
vn 0.534668 -0.653809 0.534668
vn 0.487061 -0.873047 0
vn 0.755859 -0.653809 0
vn 0.487061 -0.873047 0
vn 0.755859 -0.653809 0
vn 0 -0.349854 -0.936523
vn 0.662109 -0.349854 -0.662109
vn -0.662109 -0.349854 -0.662109
vn -0.936523 -0.349854 0
vn -0.662109 -0.349854 0.662109
vn -0.936523 -0.349854 0
vn 0 -0.349854 0.936523
vn 0.662109 -0.349854 0.662109
vn 0.936523 -0.349854 0
vn 0.936523 -0.349854 0
vn 0 0 -1
vn 0.707031 0 -0.707031
vn -0.707031 0 -0.707031
vn -1 0 0
vn -0.707031 0 0.707031
vn -1 0 0
vn 0 0 1
vn 0.707031 0 0.707031
vn 1 0 0
vn 1 0 0
vn 0 0.349854 -0.936523
vn 0.662109 0.349854 -0.662109
vn -0.63916 0.323486 -0.697266
vn -0.943848 0.328125 0.0343018
vn -0.662109 0.349854 0.662109
vn -0.943848 0.328125 0.0343018
vn 0 0.349854 0.936523
vn 0.63916 0.323486 0.697266
vn 0.943848 0.328125 -0.0343018
vn 0.943848 0.328125 -0.0343018
vn 0 0.665527 -0.746094
vn 0.527344 0.665527 -0.527344
vn -0.448242 0.688477 -0.569824
vn -0.725586 0.68457 0.0692139
vn -0.527344 0.665527 0.527344
vn -0.725586 0.68457 0.0692139
vn 0 0.665527 0.746094
vn 0.448242 0.688477 0.569824
vn 0.725586 0.68457 -0.0692139
vn 0.725586 0.68457 -0.0692139
vn 0 0.896973 -0.441895
vn 0.312256 0.896973 -0.312256
vn -0.312256 0.896973 -0.312256
vn -0.441895 0.896973 0
vn -0.312256 0.896973 0.312256
vn -0.441895 0.896973 0
vn 0 0.896973 0.441895
vn 0.312256 0.896973 0.312256
vn 0.441895 0.896973 0
vn 0.441895 0.896973 0
vn 0 -1 0
vn 0 1 0

vt 0.376946 0.0917375
vt 0.5 0.0917375
vt 0.5 0.210938
vt 0.267758 0.210938
vt 0.615946 0.0917375
vt 0.748191 0.210938
vt 0.707293 0.00453621
vt 0.959674 0.210938
vt 0.310117 0.00453621
vt 0.376946 0.0917375
vt 0.267758 0.210938
vt 0.0577357 0.210938
vt 0.5 0.0917375
vt 0.5 0.210938
vt 0.615946 0.0917375
vt 0.748191 0.210938
vt 0.707293 0.00453621
vt 0.959674 0.210938
vt 0.310117 0.00453621
vt 0.0577357 0.210938
vt 0.5 0.351563
vt 0.236551 0.351563
vt 0.779399 0.351563
vt 1 0.351563
vt 0.236551 0.351563
vt 0 0.351563
vt 0.5 0.351563
vt 0.779399 0.351563
vt 1 0.351563
vt 0 0.351563
vt 0.5 0.5
vt 0.236155 0.5
vt 0.779795 0.5
vt 1 0.5
vt 0.236155 0.5
vt 0 0.5
vt 0.5 0.5
vt 0.779795 0.5
vt 1 0.5
vt 0 0.5
vt 0.5 0.63867
vt 0.236551 0.63867
vt 0.779399 0.63867
vt 1 0.63867
vt 0.236551 0.63867
vt 0 0.63867
vt 0.5 0.63867
vt 0.779399 0.63867
vt 1 0.63867
vt 0 0.63867
vt 0.5 0.768306
vt 0.292785 0.768306
vt 0.714323 0.768306
vt 0.932833 0.792969
vt 0.292785 0.768306
vt 0.0845772 0.792969
vt 0.5 0.768306
vt 0.714323 0.768306
vt 0.932833 0.792969
vt 0.0845772 0.792969
vt 0.5 0.880068
vt 0.376946 0.880068
vt 0.644756 0.880068
vt 0.742612 0.914063
vt 0.376946 0.880068
vt 0.274798 0.914063
vt 0.5 0.880068
vt 0.644756 0.880068
vt 0.742612 0.914063
vt 0.274798 0.914063
vt 0.5 0.00165212
vt 0.5 0.995998


#
# MESH 000
#
g surface_000
usemtl surface_000
f 48/48/48 49/49/49 59/59/59
f 38/38/38 49/49/49 48/48/48
f 38/38/38 39/39/39 49/49/49
f 28/28/28 39/39/39 38/38/38
f 28/28/28 29/29/29 39/39/39
f 16/16/16 29/29/29 28/28/28
f 16/16/16 18/18/18 29/29/29
f 48/48/48 59/59/59 58/58/58
f 47/47/47 48/48/48 58/58/58
f 37/37/37 48/48/48 47/47/47
f 37/37/37 38/38/38 48/48/48
f 27/27/27 38/38/38 37/37/37
f 27/27/27 28/28/28 38/38/38
f 14/14/14 28/28/28 27/27/27
f 14/14/14 16/16/16 28/28/28
f 58/58/58 59/59/59 69/69/69
f 58/58/58 69/69/69 68/68/68
f 57/57/57 58/58/58 68/68/68
f 47/47/47 58/58/58 57/57/57
f 45/45/45 47/47/47 57/57/57
f 35/35/35 47/47/47 45/45/45
f 35/35/35 37/37/37 47/47/47
f 25/25/25 37/37/37 35/35/35
f 25/25/25 27/27/27 37/37/37
f 11/11/11 27/27/27 25/25/25
f 11/11/11 14/14/14 27/27/27
f 68/68/68 69/69/69 72/72/72
f 67/67/67 68/68/68 72/72/72
f 57/57/57 68/68/68 67/67/67
f 55/55/55 57/57/57 67/67/67
f 45/45/45 57/57/57 55/55/55
f 46/46/46 45/45/45 55/55/55
f 36/36/36 45/45/45 46/46/46
f 36/36/36 35/35/35 45/45/45
f 26/26/26 35/35/35 36/36/36
f 26/26/26 25/25/25 35/35/35
f 12/12/12 25/25/25 26/26/26
f 12/12/12 11/11/11 25/25/25
f 65/65/65 67/67/67 72/72/72
f 55/55/55 67/67/67 65/65/65
f 56/56/56 55/55/55 65/65/65
f 46/46/46 55/55/55 56/56/56
f 66/66/66 65/65/65 72/72/72
f 56/56/56 65/65/65 66/66/66
f 9/9/9 11/11/11 12/12/12
f 9/9/9 10/10/10 11/11/11
f 10/10/10 14/14/14 11/11/11
f 10/10/10 13/13/13 14/14/14
f 13/13/13 16/16/16 14/14/14
f 13/13/13 15/15/15 16/16/16
f 15/15/15 18/18/18 16/16/16
f 15/15/15 17/17/17 18/18/18
f 10/10/10 9/9/9 71/71/71
f 13/13/13 10/10/10 71/71/71
f 15/15/15 13/13/13 71/71/71
f 17/17/17 15/15/15 71/71/71
f 70/70/70 62/62/62 72/72/72
f 60/60/60 62/62/62 70/70/70
f 60/60/60 52/52/52 62/62/62
f 52/52/52 61/61/61 62/62/62
f 62/62/62 61/61/61 72/72/72
f 61/61/61 63/63/63 72/72/72
f 63/63/63 64/64/64 72/72/72
f 53/53/53 64/64/64 63/63/63
f 53/53/53 54/54/54 64/64/64
f 50/50/50 52/52/52 60/60/60
f 50/50/50 42/42/42 52/52/52
f 42/42/42 51/51/51 52/52/52
f 52/52/52 51/51/51 61/61/61
f 51/51/51 63/63/63 61/61/61
f 51/51/51 53/53/53 63/63/63
f 41/41/41 53/53/53 51/51/51
f 41/41/41 43/43/43 53/53/53
f 43/43/43 54/54/54 53/53/53
f 43/43/43 44/44/44 54/54/54
f 33/33/33 44/44/44 43/43/43
f 33/33/33 34/34/34 44/44/44
f 40/40/40 42/42/42 50/50/50
f 40/40/40 32/32/32 42/42/42
f 32/32/32 41/41/41 42/42/42
f 42/42/42 41/41/41 51/51/51
f 30/30/30 32/32/32 40/40/40
f 30/30/30 22/22/22 32/32/32
f 22/22/22 31/31/31 32/32/32
f 32/32/32 31/31/31 41/41/41
f 31/31/31 43/43/43 41/41/41
f 31/31/31 33/33/33 43/43/43
f 21/21/21 33/33/33 31/31/31
f 21/21/21 23/23/23 33/33/33
f 23/23/23 34/34/34 33/33/33
f 23/23/23 24/24/24 34/34/34
f 6/6/6 24/24/24 23/23/23
f 6/6/6 8/8/8 24/24/24
f 20/20/20 22/22/22 30/30/30
f 20/20/20 4/4/4 22/22/22
f 4/4/4 21/21/21 22/22/22
f 22/22/22 21/21/21 31/31/31
f 19/19/19 4/4/4 20/20/20
f 19/19/19 1/1/1 4/4/4
f 1/1/1 3/3/3 4/4/4
f 4/4/4 3/3/3 21/21/21
f 3/3/3 23/23/23 21/21/21
f 3/3/3 6/6/6 23/23/23
f 2/2/2 6/6/6 3/3/3
f 2/2/2 5/5/5 6/6/6
f 5/5/5 8/8/8 6/6/6
f 5/5/5 7/7/7 8/8/8
f 7/7/7 5/5/5 71/71/71
f 1/1/1 19/19/19 71/71/71
f 2/2/2 1/1/1 71/71/71
f 1/1/1 2/2/2 3/3/3
f 5/5/5 2/2/2 71/71/71

