#
# OBJECT NAME
#
o model_2119
mtllib 2119.mtl

#
# VERTEX BUFFER 000
#
v -0.103991 0 -0.180118
v -4.50946e-007 0 -0.207982
v -4.50946e-007 0 0.207982
v -0.103991 0 0.180118
v -0.180118 0 0.103991
v -0.207982 0 0
v -0.180118 0 -0.103991
v 0.103991 0 0.180118
v 0.103991 0 -0.180118
v 0.180117 0 -0.103991
v 0.207982 0 0
v 0.180117 0 0.103991
v 0.103991 1 -0.180118
v 0.180117 1 -0.103991
v 0.180117 0 -0.103991
v 0.103991 0 -0.180118
v -4.50946e-007 1 -0.207982
v -4.50946e-007 0 -0.207982
v 0.207982 1 0
v 0.207982 0 0
v -0.103991 1 -0.180118
v -4.50946e-007 1 -0.207982
v -4.50946e-007 0 -0.207982
v -0.103991 0 -0.180118
v -0.180118 1 -0.103991
v -0.180118 0 -0.103991
v -0.207982 1 0
v -0.207982 0 0
v -0.180118 1 0.103991
v -0.207982 1 0
v -0.207982 0 0
v -0.180118 0 0.103991
v -0.103991 1 0.180118
v -0.103991 0 0.180118
v -4.50946e-007 1 0.207982
v -4.50946e-007 0 0.207982
v 0.103991 1 0.180118
v -4.50946e-007 1 0.207982
v -4.50946e-007 0 0.207982
v 0.103991 0 0.180118
v 0.180117 1 0.103991
v 0.180117 0 0.103991
v 0.207982 1 0
v 0.207982 0 0
v -0.180118 1 -0.103991
v -0.207982 1 0
v -0.184894 1.01555 0
v -0.160123 1.01555 -0.092447
v -0.180118 1 -0.103991
v -0.160123 1.01555 -0.092447
v -0.0924466 1.01555 -0.160122
v -0.103991 1 -0.180118
v -0.103991 1 -0.180118
v -0.0924466 1.01555 -0.160122
v -4.31257e-007 1.01555 -0.184893
v -4.50946e-007 1 -0.207982
v -4.50946e-007 1 -0.207982
v -4.31257e-007 1.01555 -0.184893
v 0.0924465 1.01555 -0.160122
v 0.103991 1 -0.180118
v 0.0924465 1.01555 -0.160122
v 0.160122 1.01555 -0.092447
v 0.180117 1 -0.103991
v 0.103991 1 -0.180118
v 0.160122 1.01555 -0.092447
v 0.184894 1.01555 0
v 0.207982 1 0
v 0.180117 1 -0.103991
v -0.160123 1.01555 0.092447
v -0.184894 1.01555 0
v -0.207982 1 0
v -0.180118 1 0.103991
v -0.0924466 1.01555 0.160122
v -0.160123 1.01555 0.092447
v -0.180118 1 0.103991
v -0.103991 1 0.180118
v -4.31257e-007 1.01555 0.184893
v -0.0924466 1.01555 0.160122
v -0.103991 1 0.180118
v -4.50946e-007 1 0.207982
v 0.0924465 1.01555 0.160122
v -4.31257e-007 1.01555 0.184893
v -4.50946e-007 1 0.207982
v 0.103991 1 0.180118
v 0.103991 1 0.180118
v 0.180117 1 0.103991
v 0.160122 1.01555 0.092447
v 0.0924465 1.01555 0.160122
v 0.180117 1 0.103991
v 0.207982 1 0
v 0.184894 1.01555 0
v 0.160122 1.01555 0.092447
v -2.73585e-007 1.01228 0
v -2.73585e-007 1.01228 0
v -2.73585e-007 1.01228 0
v -2.73585e-007 1.01228 0
v -2.73585e-007 1.01228 0
v -2.73585e-007 1.01228 0
v -2.73585e-007 1.01228 0
v -2.73585e-007 1.01228 0
v -2.73585e-007 1.01228 0
v -2.73585e-007 1.01228 0
v -2.73585e-007 1.01228 0
v -2.73585e-007 1.01228 0

vn 0 -1 0
vn 0 -1 0
vn 0 -1 0
vn 0 -1 0
vn 0 -1 0
vn 0 -1 0
vn 0 -1 0
vn 0 -1 0
vn 0 -1 0
vn 0 -1 0
vn 0 -1 0
vn 0 -1 0
vn 0.499756 0 -0.865723
vn 0.865723 0 -0.5
vn 0.865723 0 -0.5
vn 0.499756 0 -0.865723
vn 0 0 -1
vn 0 0 -1
vn 1 0 0
vn 1 0 0
vn -0.499756 0 -0.865723
vn 0 0 -1
vn 0 0 -1
vn -0.499756 0 -0.865723
vn -0.865723 0 -0.5
vn -0.865723 0 -0.5
vn -1 0 0
vn -1 0 0
vn -0.865723 0 0.5
vn -1 0 0
vn -1 0 0
vn -0.865723 0 0.5
vn -0.499756 0 0.865723
vn -0.499756 0 0.865723
vn 0 0 1
vn 0 0 1
vn 0.499756 0 0.865723
vn 0 0 1
vn 0 0 1
vn 0.499756 0 0.865723
vn 0.865723 0 0.5
vn 0.865723 0 0.5
vn 1 0 0
vn 1 0 0
vn -0.552246 0.820313 -0.147949
vn -0.552246 0.820313 -0.147949
vn -0.164185 0.985352 -0.0439758
vn -0.164185 0.985352 -0.0439758
vn -0.404297 0.820313 -0.404297
vn -0.120178 0.985352 -0.120178
vn -0.120178 0.985352 -0.120178
vn -0.404297 0.820313 -0.404297
vn -0.147949 0.820313 -0.552246
vn -0.0439758 0.985352 -0.164185
vn -0.0439758 0.985352 -0.164185
vn -0.147949 0.820313 -0.552246
vn 0.147949 0.820313 -0.552246
vn 0.0439758 0.985352 -0.164185
vn 0.0439758 0.985352 -0.164185
vn 0.147949 0.820313 -0.552246
vn 0.120178 0.985352 -0.120178
vn 0.120178 0.985352 -0.120178
vn 0.404297 0.820313 -0.404297
vn 0.404297 0.820313 -0.404297
vn 0.164185 0.985352 -0.0439758
vn 0.164185 0.985352 -0.0439758
vn 0.552246 0.820313 -0.147949
vn 0.552246 0.820313 -0.147949
vn -0.164185 0.985352 0.0439758
vn -0.164185 0.985352 0.0439758
vn -0.552246 0.820313 0.147949
vn -0.552246 0.820313 0.147949
vn -0.120178 0.985352 0.120178
vn -0.120178 0.985352 0.120178
vn -0.404297 0.820313 0.404297
vn -0.404297 0.820313 0.404297
vn -0.0439758 0.985352 0.164185
vn -0.0439758 0.985352 0.164185
vn -0.147949 0.820313 0.552246
vn -0.147949 0.820313 0.552246
vn 0.0439758 0.985352 0.164185
vn 0.0439758 0.985352 0.164185
vn 0.147949 0.820313 0.552246
vn 0.147949 0.820313 0.552246
vn 0.404297 0.820313 0.404297
vn 0.404297 0.820313 0.404297
vn 0.120178 0.985352 0.120178
vn 0.120178 0.985352 0.120178
vn 0.552246 0.820313 0.147949
vn 0.552246 0.820313 0.147949
vn 0.164185 0.985352 0.0439758
vn 0.164185 0.985352 0.0439758
vn -0.00472641 0.999512 -0.0176239
vn 0.00472641 0.999512 -0.0176392
vn 0.0129089 0.999512 -0.0129089
vn 0.0176392 0.999512 -0.0047226
vn 0.0176392 0.999512 0.0047226
vn 0.0129089 0.999512 0.0129089
vn 0.00472641 0.999512 0.0176392
vn -0.00472641 0.999512 0.0176239
vn -0.0129089 0.999512 0.0129089
vn -0.0176392 0.999512 0.0047226
vn -0.0176392 0.999512 -0.0047226
vn -0.0129089 0.999512 -0.0129089

vt 0.194908 0.942013
vt 0.137795 0.957317
vt 0.137795 0.728864
vt 0.194908 0.744168
vt 0.236717 0.785977
vt 0.252021 0.843091
vt 0.236717 0.900203
vt 0.0806818 0.744168
vt 0.0806818 0.942013
vt 0.0388731 0.900203
vt 0.0235683 0.843091
vt 0.0388731 0.785977
vt 0.519926 0.675648
vt 0.474748 0.675648
vt 0.474748 0.0459019
vt 0.519926 0.0459019
vt 0.565104 0.675648
vt 0.565104 0.0459019
vt 0.42957 0.675648
vt 0.42957 0.0459019
vt 0.474748 0.675648
vt 0.42957 0.675648
vt 0.42957 0.0459019
vt 0.474748 0.0459019
vt 0.519926 0.675648
vt 0.519926 0.0459019
vt 0.565104 0.675648
vt 0.565104 0.0459019
vt 0.474748 0.675648
vt 0.42957 0.675648
vt 0.42957 0.0459019
vt 0.474748 0.0459019
vt 0.519926 0.675648
vt 0.519926 0.0459019
vt 0.565104 0.675648
vt 0.565104 0.0459019
vt 0.474748 0.675648
vt 0.42957 0.675648
vt 0.42957 0.0459019
vt 0.474748 0.0459019
vt 0.519926 0.675648
vt 0.519926 0.0459019
vt 0.565104 0.675648
vt 0.565104 0.0459019
vt 0.236036 0.786373
vt 0.251285 0.843375
vt 0.237052 0.84337
vt 0.223709 0.793494
vt 0.236036 0.786373
vt 0.223709 0.793494
vt 0.187258 0.757116
vt 0.194378 0.744799
vt 0.194378 0.744799
vt 0.187258 0.757116
vt 0.137465 0.743701
vt 0.137472 0.729467
vt 0.137472 0.729467
vt 0.137465 0.743701
vt 0.0875395 0.757116
vt 0.0804141 0.744799
vt 0.0875395 0.757116
vt 0.0511125 0.793494
vt 0.0387833 0.786373
vt 0.0804141 0.744799
vt 0.0511125 0.793494
vt 0.0377796 0.84337
vt 0.0235457 0.843375
vt 0.0387833 0.786373
vt 0.223709 0.893168
vt 0.237052 0.84337
vt 0.251285 0.843375
vt 0.236036 0.900287
vt 0.187258 0.929624
vt 0.223709 0.893168
vt 0.236036 0.900287
vt 0.194378 0.94195
vt 0.137465 0.942873
vt 0.187258 0.929624
vt 0.194378 0.94195
vt 0.137472 0.957092
vt 0.0875395 0.929624
vt 0.137465 0.942873
vt 0.137472 0.957092
vt 0.0804141 0.94195
vt 0.0804141 0.94195
vt 0.0387833 0.900287
vt 0.0511125 0.893168
vt 0.0875395 0.929624
vt 0.0387833 0.900287
vt 0.0235457 0.843375
vt 0.0377796 0.84337
vt 0.0511125 0.893168
vt 0.137417 0.843338
vt 0.137417 0.843338
vt 0.137417 0.843338
vt 0.137417 0.843338
vt 0.137417 0.843338
vt 0.137417 0.843338
vt 0.137417 0.843338
vt 0.137417 0.843338
vt 0.137417 0.843338
vt 0.137417 0.843338
vt 0.137417 0.843338
vt 0.137417 0.843338


#
# MESH 000
#
g surface_000
usemtl surface_000
f 104/104/104 88/88/88 87/87/87
f 85/85/85 87/87/87 88/88/88
f 85/85/85 86/86/86 87/87/87
f 103/103/103 92/92/92 91/91/91
f 89/89/89 91/91/91 92/92/92
f 89/89/89 90/90/90 91/91/91
f 102/102/102 66/66/66 65/65/65
f 65/65/65 66/66/66 67/67/67
f 65/65/65 67/67/67 68/68/68
f 101/101/101 62/62/62 61/61/61
f 61/61/61 62/62/62 63/63/63
f 61/61/61 63/63/63 64/64/64
f 100/100/100 59/59/59 58/58/58
f 57/57/57 58/58/58 59/59/59
f 57/57/57 59/59/59 60/60/60
f 99/99/99 55/55/55 54/54/54
f 53/53/53 54/54/54 55/55/55
f 53/53/53 55/55/55 56/56/56
f 98/98/98 51/51/51 50/50/50
f 49/49/49 50/50/50 51/51/51
f 49/49/49 51/51/51 52/52/52
f 97/97/97 48/48/48 47/47/47
f 45/45/45 47/47/47 48/48/48
f 45/45/45 46/46/46 47/47/47
f 96/96/96 70/70/70 69/69/69
f 69/69/69 70/70/70 71/71/71
f 69/69/69 71/71/71 72/72/72
f 95/95/95 74/74/74 73/73/73
f 73/73/73 74/74/74 75/75/75
f 73/73/73 75/75/75 76/76/76
f 94/94/94 78/78/78 77/77/77
f 77/77/77 78/78/78 79/79/79
f 77/77/77 79/79/79 80/80/80
f 93/93/93 82/82/82 81/81/81
f 81/81/81 82/82/82 83/83/83
f 81/81/81 83/83/83 84/84/84
f 43/43/43 42/42/42 44/44/44
f 43/43/43 41/41/41 42/42/42
f 41/41/41 40/40/40 42/42/42
f 41/41/41 37/37/37 40/40/40
f 37/37/37 39/39/39 40/40/40
f 37/37/37 38/38/38 39/39/39
f 35/35/35 34/34/34 36/36/36
f 35/35/35 33/33/33 34/34/34
f 33/33/33 32/32/32 34/34/34
f 33/33/33 29/29/29 32/32/32
f 29/29/29 31/31/31 32/32/32
f 29/29/29 30/30/30 31/31/31
f 27/27/27 26/26/26 28/28/28
f 27/27/27 25/25/25 26/26/26
f 25/25/25 24/24/24 26/26/26
f 25/25/25 21/21/21 24/24/24
f 21/21/21 23/23/23 24/24/24
f 21/21/21 22/22/22 23/23/23
f 14/14/14 19/19/19 20/20/20
f 14/14/14 20/20/20 15/15/15
f 13/13/13 14/14/14 15/15/15
f 13/13/13 15/15/15 16/16/16
f 17/17/17 13/13/13 16/16/16
f 17/17/17 16/16/16 18/18/18
f 10/10/10 11/11/11 12/12/12
f 9/9/9 10/10/10 12/12/12
f 9/9/9 12/12/12 8/8/8
f 8/8/8 2/2/2 9/9/9
f 8/8/8 3/3/3 2/2/2
f 1/1/1 2/2/2 3/3/3
f 1/1/1 3/3/3 4/4/4
f 1/1/1 4/4/4 5/5/5
f 1/1/1 5/5/5 7/7/7
f 5/5/5 6/6/6 7/7/7

