#
# OBJECT NAME
#
o model_2726
mtllib 2726.mtl

#
# VERTEX BUFFER 000
#
v -0.675218 1.42608 0.160241
v -0.615843 1.55785 -0.0271742
v -0.38119 1.33721 -0.144117
v -0.456104 1.17561 -0.0277014
v -0.387405 1.16925 0.15179
v -0.675218 1.42608 0.160241
v -0.487742 1.70048 0.0984198
v -0.615843 1.55785 -0.0271742
v -0.507747 1.54867 0.266658
v -0.487742 1.70048 0.0984198
v -0.383534 1.61345 -0.0491246
v -0.487742 1.70048 0.0984198
v -0.507747 1.54867 0.266658
v -0.325219 1.61583 0.207158
v -0.288935 1.36391 0.253348
v -0.0354353 2.16399 0.13398
v -0.0560576 1.99775 0.375931
v 0.116364 2.60841 0.518062
v 0.1792 2.75115 0.244116
v -0.0354353 2.16399 0.13398
v -0.249282 2.29827 0.0773066
v -0.215257 2.09166 0.308481
v -0.249282 2.29827 0.0773066
v -0.0354353 2.16399 0.13398
v -0.209008 2.24027 -0.0256017
v -0.184976 1.98547 0.329735
v -0.0560576 1.99775 0.375931
v -0.215257 2.09166 0.308481
v -0.0182344 0.162722 0.344873
v -0.184831 0.751447 0.309425
v -0.300036 0.774633 0.249869
v -0.27015 0 0.340405
v -0.300036 0.774633 0.249869
v -0.412352 0 0.286746
v -0.387405 1.16925 0.15179
v -0.456104 1.17561 -0.0277014
v -0.524572 0.313889 -0.0670454
v -0.450664 0.311078 0.165668
v -0.358588 0.310913 -0.357588
v -0.302636 1.4452 -0.290154
v -0.066608 1.44725 -0.326108
v -0.0533381 0.315621 -0.373023
v 0.220751 0.31131 -0.249468
v 0.158463 1.44046 -0.206952
v 0.269473 1.42654 0.0374152
v 0.333524 0.313889 0.0421825
v 0.0699914 0.187973 0.376269
v 0.193196 0.314502 0.323286
v 0.109996 1.41284 0.277869
v -0.0291366 1.08186 0.300838
v 0.267642 0 0.435377
v 0.467728 0 0.0437254
v 0.353826 0 -0.0877277
v 0.3322 0 -0.307301
v 0.167033 0 -0.429942
v -0.0533381 0.315621 -0.373023
v -0.0873336 0 -0.475132
v -0.557448 0 -0.212809
v -0.393091 0.311939 -0.235331
v -0.066608 1.44725 -0.326108
v -0.366816 0 -0.429717
v -0.537806 0 -0.0863368
v -0.591586 0 0.0489321
v -0.215257 2.09166 0.308481
v -0.325219 1.61583 0.207158
v -0.288935 1.36391 0.253348
v -0.184976 1.98547 0.329735
v -0.557448 0 -0.212809
v -0.404271 0 -0.272
v -0.537806 0 -0.0863368
v -0.366816 0 -0.429717
v -0.0873336 0 -0.475132
v 0.0207617 0 -0.356573
v 0.167033 0 -0.429942
v 0.3322 0 -0.307301
v 0.353826 0 -0.0877277
v -0.27015 0 0.340405
v -0.0290045 0.00295663 0.391425
v -0.27015 0 0.340405
v 0.353826 0 -0.0877277
v -0.412352 0 0.286746
v -0.464254 0 0.185014
v 0.467728 0 0.0437254
v 0.105842 0 0.436984
v 0.105842 0 0.436984
v 0.267642 0 0.435377
v -0.160935 1.4103 0.322371
v -0.0560576 1.99775 0.375931
v 0.467931 3.24262 0.409626
v 0.30397 3.02497 0.507445
v 0.105842 0 0.436984
v 0.0699914 0.187973 0.376269
v -0.0291366 1.08186 0.300838
v -0.0290045 0.00295663 0.391425
v 0.105842 0 0.436984
v 0.0699914 0.187973 0.376269
v -0.0182344 0.162722 0.344873
v -0.383534 1.61345 -0.0491246
v -0.38119 1.33721 -0.144117
v -0.591586 0 0.0489321
v -0.249282 2.29827 0.0773066
v 0.28602 3.03711 0.124331
v 0.420679 3.00122 0.281228
v -0.158211 2.45163 -0.0396074
v 0.0523407 2.7417 -0.0435384
v 0.0523407 2.7417 -0.0435384
v 0.30397 3.02497 0.507445
v -0.383534 1.61345 -0.0491246
v -0.325219 1.61583 0.207158
v 0.28602 3.03711 0.124331
v 0.420679 3.00122 0.281228
v 0.467931 3.24262 0.409626
v 0.0523407 2.7417 -0.0435384
v -0.404271 0 -0.272
v -0.209008 2.24027 -0.0256017
v -0.209008 2.24027 -0.0256017
v -0.158211 2.45163 -0.0396074
v -0.158211 2.45163 -0.0396074
v 0.420679 3.00122 0.281228
v 0.0207617 0 -0.356573
v 0.0207617 0 -0.356573
v -0.464254 0 0.185014
v 0.116364 2.60841 0.518062
v -0.27015 0 0.340405
v -0.0290045 0.00295663 0.391425
v -0.184831 0.751447 0.309425
v 1.04702 2.53374 0.440949
v 0.988795 2.62945 0.409424
v 0.747409 2.5799 0.462211
v 1.00151 2.58319 0.559565
v 0.527859 2.25274 0.378243
v 0.1644 1.96762 0.284119
v 0.2128 1.78659 0.06373
v 1.00151 2.58319 0.559565
v 0.747409 2.5799 0.462211
v 0.458356 2.33263 0.499815
v 1.04702 2.53374 0.440949
v 0.0967135 2.20968 0.322481
v 0.441791 2.4594 0.410099
v 0.209055 2.32381 0.255172
v 0.213902 2.10471 0.0391778
v 0.516058 2.37181 0.291036
v 0.2128 1.78659 0.06373
v 1.04702 2.53374 0.440949
v 0.527859 2.25274 0.378243
v 0.988795 2.62945 0.409424

vn -0.952148 -0.301758 -0.0392456
vn -0.766602 0.0569763 -0.638672
vn -0.867676 0.00293541 -0.496826
vn -0.966797 -0.0280609 -0.253174
vn -0.8125 -0.0374451 0.581543
vn -0.952148 -0.301758 -0.0392456
vn -0.268555 0.960449 0.0665894
vn -0.766602 0.0569763 -0.638672
vn -0.344971 0.196289 0.91748
vn -0.268555 0.960449 0.0665894
vn -0.91748 0.313721 -0.243408
vn -0.268555 0.960449 0.0665894
vn -0.344971 0.196289 0.91748
vn -0.837402 0.202271 0.507324
vn -0.438232 -0.0633545 0.896484
vn -0.885254 0.406006 0.224854
vn -0.55957 0.0567017 0.826172
vn -0.569824 0.153687 0.806641
vn -0.92041 0.360352 0.148193
vn -0.885254 0.406006 0.224854
vn -0.904785 0.376465 0.196899
vn -0.885742 0.229248 0.402588
vn -0.904785 0.376465 0.196899
vn -0.885254 0.406006 0.224854
vn -0.915527 0.340332 -0.213989
vn -0.49585 0.0742188 0.864746
vn -0.55957 0.0567017 0.826172
vn -0.885742 0.229248 0.402588
vn -0.154541 0.102112 0.982422
vn -0.245728 0.0147705 0.96875
vn -0.273926 0.0230103 0.960938
vn -0.351318 0.0952759 0.931152
vn -0.623535 0.0375977 0.780273
vn -0.536621 0.103333 0.836914
vn -0.8125 -0.0374451 0.581543
vn -0.966797 -0.0280609 -0.253174
vn -0.98584 0.119812 -0.115051
vn -0.891113 0.10675 0.44043
vn -0.438721 0.0877686 -0.894043
vn -0.365967 0.1427 -0.919434
vn 0.165527 0.125977 -0.978027
vn 0.17749 0.0891113 -0.97998
vn 0.733887 0.0994263 -0.671387
vn 0.693359 0.0758057 -0.71582
vn 0.999023 -0.000805378 -0.0378723
vn 0.984863 0.13562 0.105896
vn 0.12561 0.147461 0.980957
vn 0.685059 0.147461 0.712891
vn 0.741211 -0.0532227 0.668457
vn 0.11499 0.0495605 0.991699
vn 0.768555 0.370605 0.520996
vn 0.888672 0.376221 0.260742
vn 0.884766 0.291748 -0.362305
vn 0.81543 0.373779 -0.440918
vn 0.282715 0.285645 -0.915527
vn 0.17749 0.0891113 -0.97998
vn 0.156494 0.253906 -0.954102
vn -0.792969 0.192139 -0.577637
vn -0.875 0.0883789 -0.475342
vn 0.165527 0.125977 -0.978027
vn -0.47583 0.205933 -0.854492
vn -0.991211 0.0491638 -0.119934
vn -0.954102 0.163452 0.25
vn -0.885742 0.229248 0.402588
vn -0.837402 0.202271 0.507324
vn -0.438232 -0.0633545 0.896484
vn -0.49585 0.0742188 0.864746
vn 0 -1 0
vn 0 -1 0
vn 0 -1 0
vn 0 -1 0
vn 0 -1 0
vn 0 -1 0
vn 0 -1 0
vn 0 -1 0
vn 0 -1 0
vn 0 -1 0
vn 0.00181389 -0.999512 0.00761795
vn 0.0093689 -0.999512 0.013649
vn 7.79033e-005 -0.999512 0.0022583
vn 0 -1 0
vn 0 -1 0
vn 0 -1 0
vn -0.0157166 -0.999512 -0.00743103
vn 0 -1 0
vn 0 -1 0
vn -0.162964 -0.0474854 0.985352
vn -0.55957 0.0567017 0.826172
vn 0.778809 -0.032196 0.625488
vn 0.443359 -0.00238991 0.895996
vn 0.00944519 0.308838 0.950684
vn -0.185913 0.0768433 0.979492
vn 0.11499 0.0495605 0.991699
vn -0.272705 0.270752 0.922852
vn -0.337891 0.254883 0.905762
vn -0.185913 0.0768433 0.979492
vn -0.154541 0.102112 0.982422
vn -0.91748 0.313721 -0.243408
vn -0.867676 0.00293541 -0.496826
vn 0 -1 0
vn -0.904785 0.376465 0.196899
vn 0.763672 0.116821 -0.634277
vn 0.854004 0.0724487 -0.514648
vn -0.392822 0.345215 -0.852051
vn 0.236328 0.259277 -0.936035
vn 0.236328 0.259277 -0.936035
vn 0.443359 -0.00238991 0.895996
vn -0.91748 0.313721 -0.243408
vn -0.837402 0.202271 0.507324
vn 0.763672 0.116821 -0.634277
vn 0.854004 0.0724487 -0.514648
vn 0.778809 -0.032196 0.625488
vn 0.236328 0.259277 -0.936035
vn -0.758789 0.102722 -0.642578
vn -0.915527 0.340332 -0.213989
vn -0.915527 0.340332 -0.213989
vn -0.392822 0.345215 -0.852051
vn -0.392822 0.345215 -0.852051
vn 0.854004 0.0724487 -0.514648
vn 0.0854492 -0.0318298 -0.995605
vn 0.0854492 -0.0318298 -0.995605
vn -0.797363 0.0720215 0.598145
vn -0.569824 0.153687 0.806641
vn -0.101746 0.130371 0.98584
vn -0.272705 0.270752 0.922852
vn -0.245728 0.0147705 0.96875
vn 0.162964 0.96582 0.200439
vn 0.12323 0.377197 0.91748
vn 0.162598 0.968262 0.188843
vn 0.119202 0.931641 -0.342529
vn 0.673828 -0.734863 -0.0704346
vn 0.184814 -0.608887 0.770996
vn 0.818848 -0.567871 -0.0789185
vn 0.264893 -0.643555 0.717773
vn -0.377686 0.76123 0.525879
vn -0.0790405 -0.262451 0.961426
vn 0.490723 -0.707031 -0.508789
vn -0.44751 -0.0585022 0.89209
vn -0.432861 0.899414 0.0519409
vn -0.262695 0.85498 -0.446533
vn 0.584473 0.0980835 -0.805176
vn 0.334717 0.145996 -0.930664
vn 0.818848 -0.567871 -0.0789185
vn 0.490723 -0.707031 -0.508789
vn 0.673828 -0.734863 -0.0704346
vn 0.310303 -0.247437 -0.91748

vt 0.172957 0.960612
vt 0.0737759 0.960552
vt 0.0834642 0.883775
vt 0.146298 0.876981
vt 0.199617 0.879927
vt 0.675976 0.25819
vt 0.682465 0.397645
vt 0.608428 0.329745
vt 0.746902 0.326695
vt 0 0.960426
vt 0.0173321 0.930422
vt 0.375587 0.960413
vt 0.270865 0.960468
vt 0.330615 0.927226
vt 0.245265 0.883667
vt 0.856908 0.889852
vt 0.926112 0.998977
vt 0.675746 0.991952
vt 0.615578 0.902915
vt 0.879368 0.745934
vt 0.773167 0.640151
vt 0.934302 0.629761
vt 0.773167 0.640151
vt 0.879368 0.745934
vt 0.751101 0.708256
vt 0.972283 0.649091
vt 0.999584 0.673536
vt 0.934302 0.629761
vt 0.940555 0.0802561
vt 0.861323 0.409044
vt 0.76526 0.419273
vt 0.245407 0
vt 0.248205 0.135032
vt 0.22008 0
vt 0.19967 0.219105
vt 0.145095 0.218645
vt 0.144213 0.0492769
vt 0.19967 0.0492769
vt 0.0613256 0.0492769
vt 0.0662857 0.270132
vt 0.00131184 0.27006
vt 0.00131184 0.0492769
vt 0.531606 0.0492769
vt 0.531606 0.270639
vt 0.45799 0.270282
vt 0.452775 0.0492769
vt 0.3399 0.0261184
vt 0.374192 0.0494586
vt 0.378454 0.269888
vt 0.337198 0.201594
vt 0.363934 1.5378e-005
vt 0.460027 0.000188053
vt 0.489036 -2.26498e-006
vt 0.536068 -0.00201714
vt 0.574514 0.000330389
vt 0.595778 0.0492769
vt 0.02494 0
vt 0.117794 0
vt 0.0898944 0.0492769
vt 0.595778 0.27006
vt 0.0613256 0
vt 0.144213 0
vt 0.165664 0
vt 0.221787 0.43283
vt 0.210575 0.312887
vt 0.233057 0.257399
vt 0.245281 0.39932
vt 0.623483 0.473331
vt 0.641497 0.501896
vt 0.642244 0.45487
vt 0.628324 0.532519
vt 0.668872 0.57431
vt 0.70126 0.56801
vt 0.716395 0.598067
vt 0.758701 0.598097
vt 0.789215 0.564516
vt 0.738782 0.417293
vt 0.784837 0.438465
vt 0.738782 0.417293
vt 0.789215 0.564516
vt 0.70873 0.408697
vt 0.687681 0.419116
vt 0.824143 0.5568
vt 0.812681 0.447495
vt 0.812681 0.447495
vt 0.839185 0.467615
vt 0.291047 0.269921
vt 0.298782 0.402944
vt 0.426261 0.81694
vt 0.354289 0.731477
vt 0.3399 1.5378e-005
vt 0.991779 0.0897434
vt 0.975679 0.585746
vt 0.300471 1.5378e-005
vt 0.324335 1.5378e-005
vt 0.329026 0.0362794
vt 0.306546 0.0287681
vt 0.12668 0.308037
vt 0.101757 0.248079
vt 0.649969 0.425948
vt 0.12369 0.484919
vt 0.547065 0.721033
vt 0.475542 0.731624
vt 0.0758856 0.536887
vt 0.0113408 0.62461
vt 0.592488 0.630161
vt 0.510626 0.983567
vt 0.393985 0.944862
vt 0.330615 0.927226
vt 0.503337 0.863378
vt 0.512569 0.923721
vt 0.428095 0.959838
vt 0.623202 0.800459
vt 0.0913745 0
vt 0.0928881 0.468557
vt 0.751101 0.708256
vt 0.675427 0.713524
vt 0.752733 0.770516
vt 0.512569 0.923721
vt 0.595778 0
vt 0.00131184 0
vt 0.197309 0
vt 0.317146 0.5885
vt 0.739759 -0.000470996
vt 0.923587 -0.000470996
vt 0.281913 0.130058
vt 0.745677 0.641837
vt 0.723106 0.661548
vt 0.619482 0.629259
vt 0.725814 0.621595
vt 0.0952557 0.73696
vt 0.125035 0.8364
vt 0.0952557 0.845017
vt 0.160241 0.580769
vt 0.187962 0.633626
vt 0.14466 0.73696
vt 0.0952557 0.584756
vt 0.170594 0.837776
vt 0.200413 0.73696
vt 0.202172 0.817514
vt 0.241841 0.851622
vt 0.246568 0.73696
vt 0.295957 0.870184
vt 0.295957 0.583359
vt 0.295957 0.73696
vt 0.237382 0.587306


#
# MESH 000
#
g surface_000
usemtl surface_000
f 116/116/116 20/20/20 117/117/117
f 108/108/108 12/12/12 109/109/109
f 85/85/85 83/83/83 86/86/86
f 28/28/28 26/26/26 24/24/24
f 20/20/20 26/26/26 27/27/27
f 23/23/23 24/24/24 25/25/25
f 20/20/20 21/21/21 22/22/22
f 29/29/29 124/124/124 125/125/125
f 29/29/29 31/31/31 124/124/124
f 29/29/29 30/30/30 31/31/31
f 29/29/29 93/93/93 30/30/30
f 29/29/29 92/92/92 93/93/93
f 57/57/57 42/42/42 121/121/121
f 57/57/57 39/39/39 42/42/42
f 39/39/39 41/41/41 42/42/42
f 39/39/39 40/40/40 41/41/41
f 41/41/41 40/40/40 104/104/104
f 41/41/41 104/104/104 105/105/105
f 57/57/57 61/61/61 39/39/39
f 61/61/61 59/59/59 39/39/39
f 99/99/99 39/39/39 59/59/59
f 99/99/99 40/40/40 39/39/39
f 98/98/98 40/40/40 99/99/99
f 115/115/115 40/40/40 98/98/98
f 104/104/104 40/40/40 115/115/115
f 114/114/114 59/59/59 61/61/61
f 58/58/58 59/59/59 114/114/114
f 58/58/58 37/37/37 59/59/59
f 99/99/99 59/59/59 37/37/37
f 99/99/99 37/37/37 36/36/36
f 35/35/35 36/36/36 37/37/37
f 35/35/35 37/37/37 38/38/38
f 38/38/38 66/66/66 35/35/35
f 62/62/62 37/37/37 58/58/58
f 63/63/63 37/37/37 62/62/62
f 63/63/63 38/38/38 37/37/37
f 122/122/122 38/38/38 63/63/63
f 122/122/122 34/34/34 38/38/38
f 34/34/34 33/33/33 38/38/38
f 38/38/38 33/33/33 66/66/66
f 66/66/66 33/33/33 87/87/87
f 87/87/87 67/67/67 66/66/66
f 64/64/64 66/66/66 67/67/67
f 64/64/64 65/65/65 66/66/66
f 98/98/98 65/65/65 64/64/64
f 32/32/32 33/33/33 34/34/34
f 98/98/98 64/64/64 101/101/101
f 98/98/98 101/101/101 115/115/115
f 87/87/87 88/88/88 67/67/67
f 49/49/49 88/88/88 87/87/87
f 49/49/49 123/123/123 88/88/88
f 49/49/49 90/90/90 123/123/123
f 49/49/49 89/89/89 90/90/90
f 45/45/45 89/89/89 49/49/49
f 103/103/103 89/89/89 45/45/45
f 45/45/45 102/102/102 103/103/103
f 87/87/87 50/50/50 49/49/49
f 47/47/47 49/49/49 50/50/50
f 47/47/47 48/48/48 49/49/49
f 46/46/46 49/49/49 48/48/48
f 46/46/46 45/45/45 49/49/49
f 43/43/43 45/45/45 46/46/46
f 43/43/43 44/44/44 45/45/45
f 45/45/45 44/44/44 102/102/102
f 87/87/87 126/126/126 50/50/50
f 87/87/87 33/33/33 126/126/126
f 56/56/56 55/55/55 120/120/120
f 43/43/43 55/55/55 56/56/56
f 43/43/43 54/54/54 55/55/55
f 53/53/53 54/54/54 43/43/43
f 53/53/53 43/43/43 46/46/46
f 53/53/53 46/46/46 52/52/52
f 46/46/46 51/51/51 52/52/52
f 43/43/43 56/56/56 60/60/60
f 43/43/43 60/60/60 44/44/44
f 102/102/102 44/44/44 60/60/60
f 102/102/102 60/60/60 106/106/106
f 46/46/46 48/48/48 51/51/51
f 47/47/47 51/51/51 48/48/48
f 51/51/51 47/47/47 91/91/91
f 19/19/19 112/112/112 119/119/119
f 19/19/19 107/107/107 112/112/112
f 19/19/19 18/18/18 107/107/107
f 16/16/16 18/18/18 19/19/19
f 16/16/16 17/17/17 18/18/18
f 19/19/19 113/113/113 16/16/16
f 16/16/16 113/113/113 118/118/118
f 113/113/113 19/19/19 110/110/110
f 110/110/110 19/19/19 111/111/111
f 70/70/70 82/82/82 100/100/100
f 70/70/70 81/81/81 82/82/82
f 70/70/70 77/77/77 81/81/81
f 70/70/70 76/76/76 77/77/77
f 70/70/70 69/69/69 76/76/76
f 73/73/73 76/76/76 69/69/69
f 73/73/73 75/75/75 76/76/76
f 74/74/74 75/75/75 73/73/73
f 68/68/68 69/69/69 70/70/70
f 71/71/71 73/73/73 69/69/69
f 71/71/71 72/72/72 73/73/73
f 94/94/94 96/96/96 97/97/97
f 94/94/94 95/95/95 96/96/96
f 80/80/80 83/83/83 84/84/84
f 80/80/80 84/84/84 78/78/78
f 78/78/78 79/79/79 80/80/80
f 12/12/12 13/13/13 14/14/14
f 15/15/15 14/14/14 13/13/13
f 13/13/13 1/1/1 15/15/15
f 15/15/15 1/1/1 5/5/5
f 1/1/1 4/4/4 5/5/5
f 1/1/1 3/3/3 4/4/4
f 1/1/1 2/2/2 3/3/3
f 2/2/2 11/11/11 3/3/3
f 2/2/2 10/10/10 11/11/11
f 6/6/6 9/9/9 7/7/7
f 6/6/6 7/7/7 8/8/8
f 134/134/134 131/131/131 137/137/137
f 136/136/136 131/131/131 134/134/134
f 131/131/131 136/136/136 132/132/132
f 131/131/131 132/132/132 133/133/133
f 134/134/134 135/135/135 136/136/136
f 136/136/136 135/135/135 139/139/139
f 136/136/136 139/139/139 138/138/138
f 138/138/138 132/132/132 136/136/136
f 135/135/135 146/146/146 139/139/139
f 139/139/139 146/146/146 142/142/142
f 142/142/142 140/140/140 139/139/139
f 138/138/138 139/139/139 140/140/140
f 144/144/144 142/142/142 146/146/146
f 144/144/144 145/145/145 142/142/142
f 143/143/143 142/142/142 145/145/145
f 141/141/141 142/142/142 143/143/143
f 142/142/142 141/141/141 140/140/140
f 127/127/127 129/129/129 130/130/130
f 127/127/127 128/128/128 129/129/129

