#
# OBJECT NAME
#
o model_2786
mtllib 2786.mtl

#
# VERTEX BUFFER 000
#
v 0.5 1.00011 -0.5
v -0.5 1.00011 -0.5
v -0.5 0.999894 0.747733
v 0.5 0.999894 0.747733
v 0.5 1.00011 -0.5
v 0.5 1.00011 0.747733
v 0.5 -1.19209e-007 0.5
v 0.5 -8.34465e-007 -0.5
v -0.5 1.00011 -0.5
v 0.5 1.00011 -0.5
v 0.5 -8.34465e-007 -0.5
v -0.5 -5.16574e-007 -0.5
v -0.5 1.00011 -0.5
v -0.5 -5.16574e-007 -0.5
v -0.5 -1.19209e-007 0.5
v -0.5 1.00011 0.747733
v -0.5 0.999894 0.747733
v -0.5 -4.76837e-007 0.5
v 0.5 -4.76837e-007 0.5
v 0.5 0.999894 0.747733
v 0.5 -8.34465e-007 -0.5
v 0.5 -4.76837e-007 0.5
v -0.5 -4.76837e-007 0.5
v -0.5 -5.16574e-007 -0.5
v -0.198642 1.28172 0.238952
v 0.185674 1.28172 0.237584
v 0.261677 1.00011 0.155285
v -0.275229 1.00011 0.157195
v -0.235789 1.28172 0.534207
v -0.198642 1.28172 0.238952
v -0.275229 1.00011 0.157195
v -0.361932 1.00011 0.619104
v 0.351664 1.00011 0.616566
v 0.261677 1.00011 0.155285
v 0.185674 1.28172 0.237584
v 0.224921 1.28172 0.532568
v -0.361932 1.00011 0.619104
v 0.351664 1.00011 0.616566
v 0.224921 1.28172 0.532568
v -0.235789 1.28172 0.534207
v -0.235789 1.28172 0.534207
v 0.224921 1.28172 0.532568
v 0.185674 1.28172 0.237584
v -0.198642 1.28172 0.238952

vn 0 1 0.000169992
vn 0 1 0.000169992
vn 0 1 0.000169992
vn 0 1 0.000169992
vn 1 0 0
vn 1 0 0
vn 1 0 0
vn 1 0 0
vn 0 0 -1
vn 0 0 -1
vn 0 0 -1
vn 0 0 -1
vn -1 0 0
vn -1 0 0
vn -1 0 0
vn -1 0 0
vn 0 -0.240479 0.970215
vn 0 -0.240479 0.970215
vn 0 -0.240479 0.970215
vn 0 -0.240479 0.970215
vn -1.19209e-007 -1 2.98023e-007
vn -1.19209e-007 -1 2.98023e-007
vn -1.19209e-007 -1 2.98023e-007
vn -1.19209e-007 -1 2.98023e-007
vn -0.00341415 0.279541 -0.959961
vn -0.00341415 0.279541 -0.959961
vn -0.00341415 0.279541 -0.959961
vn -0.00341415 0.279541 -0.959961
vn -0.930176 0.33374 -0.1521
vn -0.930176 0.33374 -0.1521
vn -0.930176 0.33374 -0.1521
vn -0.930176 0.33374 -0.1521
vn 0.928711 0.33374 -0.158691
vn 0.928711 0.33374 -0.158691
vn 0.928711 0.33374 -0.158691
vn 0.928711 0.33374 -0.158691
vn 0.00340652 0.287109 0.95752
vn 0.00340652 0.287109 0.95752
vn 0.00340652 0.287109 0.95752
vn 0.00340652 0.287109 0.95752
vn 0 1 3.57628e-007
vn 0 1 3.57628e-007
vn 0 1 3.57628e-007
vn 0 1 3.57628e-007

vt 0.553847 0.0292562
vt 0.553846 0.357281
vt 0.825509 0.357281
vt 0.825509 0.0292562
vt 0.749481 0.994107
vt 0.995097 0.994107
vt 0.995097 0.497425
vt 0.749481 0.497425
vt 0.995097 0.994107
vt 0.749481 0.994107
vt 0.749481 0.497425
vt 0.995097 0.497425
vt 0.749481 0.994107
vt 0.749481 0.497425
vt 0.995097 0.497425
vt 0.995097 0.994107
vt 0.749481 0.994107
vt 0.749481 0.497425
vt 0.995097 0.497425
vt 0.995097 0.994107
vt 0.426064 0.320081
vt 0.356566 0.178122
vt 0.434727 0.0216945
vt 0.506826 0.163355
vt 0.150966 0.187059
vt 0.0301935 0.187059
vt 0.00923725 0.0290098
vt 0.172763 0.0290096
vt 0.102226 0.232215
vt 0.0354508 0.232215
vt 0.01513 0.39295
vt 0.128426 0.39295
vt 0.128426 0.39295
vt 0.01513 0.39295
vt 0.0354508 0.232215
vt 0.102226 0.232215
vt 0.35572 0.39295
vt 0.145914 0.39295
vt 0.174373 0.232215
vt 0.321635 0.232215
vt 0.314904 0.185469
vt 0.18009 0.185469
vt 0.188933 0.0604104
vt 0.304804 0.0604104


#
# MESH 000
#
g surface_000
usemtl surface_000
f 21/21/21 23/23/23 24/24/24
f 21/21/21 22/22/22 23/23/23
f 17/17/17 19/19/19 20/20/20
f 17/17/17 18/18/18 19/19/19
f 13/13/13 15/15/15 16/16/16
f 13/13/13 14/14/14 15/15/15
f 9/9/9 11/11/11 12/12/12
f 9/9/9 10/10/10 11/11/11
f 5/5/5 7/7/7 8/8/8
f 5/5/5 6/6/6 7/7/7
f 1/1/1 3/3/3 4/4/4
f 1/1/1 2/2/2 3/3/3
f 41/41/41 43/43/43 44/44/44
f 41/41/41 42/42/42 43/43/43
f 37/37/37 39/39/39 40/40/40
f 37/37/37 38/38/38 39/39/39
f 33/33/33 35/35/35 36/36/36
f 33/33/33 34/34/34 35/35/35
f 29/29/29 31/31/31 32/32/32
f 29/29/29 30/30/30 31/31/31
f 25/25/25 27/27/27 28/28/28
f 25/25/25 26/26/26 27/27/27

