#
# OBJECT NAME
#
o model_2785
mtllib 2785.mtl

#
# VERTEX BUFFER 000
#
v 0.5 0.300671 0.5
v 0.461174 0.20246 0.523309
v 0.5 0.20246 0.5
v -0.5 0.300671 0.5
v 0.5 0.300671 0.5
v 0.5 0.603 0.747733
v -0.5 0.603 0.747733
v 0.5 0.999965 0.747733
v -0.5 0.999965 0.747733
v 0.461174 0.135576 0.523309
v 0.5 0.135576 0.5
v 0.5 0.20246 0.5
v 0.5 -3.17891e-007 0.5
v 0.5 0.135576 0.5
v -0.5 0.135576 0.5
v -0.460784 0.135576 0.523309
v -0.460784 0.20246 0.523309
v -0.5 0.20246 0.5
v -0.5 0.300671 0.5
v -0.5 0.20246 0.5
v 0.5 0.300671 0.5
v -0.5 0.300671 0.5
v -0.5 -3.17891e-007 0.5
v -0.5 0.135576 0.5
v -0.5 -3.17891e-007 0.5
v 0.5 -3.17891e-007 0.5
v 0.5 -8.34465e-007 -0.5
v 0.5 -3.17891e-007 0.5
v -0.5 -3.17891e-007 0.5
v -0.5 -5.16574e-007 -0.5
v -0.5 0.999965 0.747733
v 0.5 0.999965 0.747733
v -0.00513402 1.02 0.617835
v -0.5 0.603 -0.5
v -0.5 1.00011 -0.5
v 0.5 1.00011 -0.5
v 0.5 0.603 -0.5
v 0.5 -8.34465e-007 -0.5
v -0.5 -5.16574e-007 -0.5
v -0.5 0.300316 -0.5
v 0.5 0.3003 -0.5
v 0.5 -8.34465e-007 -0.5
v 0.5 0.3003 -0.5
v 0.5 0.300671 0.5
v 0.5 -3.17891e-007 0.5
v -0.5 -5.16574e-007 -0.5
v -0.5 -3.17891e-007 0.5
v -0.5 0.300671 0.5
v -0.5 0.300316 -0.5
v -0.198642 1.28172 0.238952
v 0.185674 1.28172 0.237584
v 0.261677 1.00011 0.155285
v -0.275229 1.00011 0.157195
v -0.235789 1.28172 0.534207
v -0.198642 1.28172 0.238952
v -0.275229 1.00011 0.157195
v -0.361932 0.99802 0.619104
v 0.351664 0.99802 0.616566
v 0.261677 1.00011 0.155285
v 0.185674 1.28172 0.237584
v 0.224921 1.28172 0.532568
v -0.235789 1.28172 0.534207
v -0.00513402 0.99802 0.617835
v 0.224921 1.28172 0.532568
v -0.235789 1.28172 0.534207
v 0.224921 1.28172 0.532568
v 0.185674 1.28172 0.237584
v -0.198642 1.28172 0.238952
v 0.5 1.00011 -0.5
v -0.5 1.00011 -0.5
v -0.5 0.99999 0.5
v 0.5 0.999994 0.5
v -0.5 0.300671 0.5
v -0.5 0.603 0.747733
v -0.51 0.603 0.623867
v -0.5 0.300316 -0.5
v 0.5 0.3003 -0.5
v 0.51 0.603 0.623867
v 0.5 0.300671 0.5
v 0.5 0.3003 -0.5
v 0.5 0.603 -0.5
v 0.5 0.603 0.747733
v -0.5 0.603 -0.5
v -0.5 0.300316 -0.5
v -0.51 0.921261 0.622709
v -0.5 0.999965 0.747733
v -0.361932 0.99802 0.619104
v 0.351664 0.99802 0.616566
v -0.5 0.99999 0.5
v 0.5 0.999965 0.747733
v 0.51 0.917551 0.623867
v 0.5 0.999994 0.5
v 0.51 0.917551 0.623867
v 0.5 0.603 -0.5
v 0.5 1.00011 -0.5
v -0.5 1.00011 -0.5
v -0.51 0.921261 0.622709
v -0.5 1.00011 -0.5
v -0.5 0.603 -0.5
v 0.5 1.00011 -0.5

vn 0.000714779 -0.523438 0.851563
vn 0.0129623 0.150024 0.988281
vn 0.514648 0 0.856934
vn -0.000719547 -0.523438 0.851563
vn 0.000714779 -0.523438 0.851563
vn 0 -0.33374 0.942383
vn 0 -0.33374 0.942383
vn 0 0 1
vn 0 0 1
vn 0.0127335 -0.119019 0.992676
vn 0.514648 0 0.856934
vn 0.514648 0 0.856934
vn 0.0029583 -0.168579 0.985352
vn 0.514648 0 0.856934
vn -0.510742 0 0.859375
vn -0.0127029 -0.11908 0.992676
vn -0.0129395 0.150024 0.988281
vn -0.510742 0 0.859375
vn -0.000719547 -0.523438 0.851563
vn -0.510742 0 0.859375
vn 0.000714779 -0.523438 0.851563
vn -0.000719547 -0.523438 0.851563
vn -0.002985 -0.168579 0.985352
vn -0.510742 0 0.859375
vn -0.002985 -0.168579 0.985352
vn 0.0029583 -0.168579 0.985352
vn -1.19209e-007 -1 3.57628e-007
vn -1.19209e-007 -1 3.57628e-007
vn -1.19209e-007 -1 3.57628e-007
vn -1.19209e-007 -1 3.57628e-007
vn -0.0334167 0.999023 0.0267487
vn 0.0329895 0.999023 0.0258026
vn -6.30617e-005 0.999512 -0.00104618
vn 0 0 -1
vn 0 0 -1
vn 0 0 -1
vn 0 0 -1
vn 0 0 -1
vn 0 0 -1
vn 0 0 -1
vn 0 0 -1
vn 1 0 0
vn 1 0 0
vn 1 0 0
vn 1 0 0
vn -1 2.38419e-007 0
vn -1 2.38419e-007 0
vn -1 2.38419e-007 0
vn -1 2.38419e-007 0
vn -0.00341415 0.279541 -0.959961
vn -0.00341415 0.279541 -0.959961
vn -0.00341415 0.279541 -0.959961
vn -0.00341415 0.279541 -0.959961
vn -0.930664 0.332764 -0.151245
vn -0.930664 0.332764 -0.151245
vn -0.930664 0.332764 -0.151245
vn -0.930664 0.332764 -0.151245
vn 0.929199 0.332764 -0.157837
vn 0.929199 0.332764 -0.157837
vn 0.929199 0.332764 -0.157837
vn 0.929199 0.332764 -0.157837
vn 0.00340843 0.285156 0.958008
vn 0.00340843 0.285156 0.958008
vn 0.00340843 0.285156 0.958008
vn 0 1 -1.19209e-007
vn 0 1 -1.19209e-007
vn 0 1 -1.19209e-007
vn 0 1 -1.19209e-007
vn -2.02656e-006 1 0.000114441
vn -2.02656e-006 1 0.000114441
vn -0.00199127 0.999512 -0.00130939
vn 0.00199127 0.999512 -0.00127888
vn -0.999512 -0.0160065 -0.00394821
vn -0.996094 -0.0219727 0.0802612
vn -0.999512 -0.0114441 0.0016222
vn 0 0 -1
vn 0 0 -1
vn 0.999512 -0.0114975 0.00161362
vn 0.999512 -0.0160065 -0.00394821
vn 0.999512 -0.0155563 -0.00470352
vn 0.999512 -0.0141983 -0.00506973
vn 0.996094 -0.0222778 0.0804443
vn -0.999512 -0.0141754 -0.00507736
vn -0.999512 -0.0155563 -0.00470352
vn -0.999512 0.01548 0.00623703
vn -0.997559 0.0228424 0.0653687
vn 0.00340843 0.285156 0.958008
vn 0.00340843 0.285156 0.958008
vn -0.991699 0.125977 1.44243e-005
vn 0.997559 0.0241089 0.0644531
vn 0.999512 0.0155716 0.00647354
vn 0.992676 0.120422 1.35303e-005
vn 0.999512 -2.38419e-007 -0.00889587
vn 0.999512 -2.38419e-007 -0.00889587
vn 0.999512 -2.38419e-007 -0.00889587
vn -0.991699 0.125977 1.45435e-005
vn -0.999512 0 -0.0089035
vn -0.999512 0 -0.0089035
vn -0.999512 0 -0.0089035
vn 0.992676 0.120422 1.35303e-005

vt 0.994205 0.648106
vt 0.986221 0.596383
vt 0.993432 0.59732
vt 0.7495 0.651665
vt 0.995078 0.651665
vt 0.995097 0.804866
vt 0.749481 0.804866
vt 0.995097 0.994107
vt 0.749481 0.994107
vt 0.986221 0.56438
vt 0.993755 0.564901
vt 0.993755 0.595862
vt 0.99421 0.498176
vt 0.993427 0.563748
vt 0.751406 0.564901
vt 0.762396 0.56438
vt 0.762396 0.596383
vt 0.751406 0.595862
vt 0.750762 0.648107
vt 0.751871 0.597322
vt 0.994132 0.647559
vt 0.75057 0.647559
vt 0.750754 0.498176
vt 0.751878 0.563746
vt 0.750542 0.498563
vt 0.994103 0.498563
vt 0.426064 0.320081
vt 0.354947 0.176921
vt 0.435046 0.0202929
vt 0.506826 0.163355
vt 0.825509 0.357281
vt 0.825509 0.0292562
vt 0.798286 0.194953
vt 0.217638 0.572671
vt 0.217575 0.439335
vt 0.00835924 0.439334
vt 0.00835924 0.573545
vt 0.755887 0.484423
vt 0.982594 0.484423
vt 0.982594 0.394655
vt 0.755887 0.394655
vt 0.755887 0.484423
vt 0.755887 0.394655
vt 0.984674 0.394688
vt 0.984674 0.484391
vt 0.755887 0.484423
vt 0.984674 0.484389
vt 0.984674 0.39469
vt 0.755887 0.394655
vt 0.150966 0.187059
vt 0.0301935 0.187059
vt 0.00923725 0.0290098
vt 0.172763 0.0290096
vt 0.102226 0.232215
vt 0.0354508 0.232215
vt 0.01513 0.39295
vt 0.127737 0.394343
vt 0.127737 0.394343
vt 0.01513 0.39295
vt 0.0354508 0.232215
vt 0.102226 0.232215
vt 0.321635 0.232215
vt 0.250835 0.394004
vt 0.174373 0.232215
vt 0.314904 0.185469
vt 0.18009 0.185469
vt 0.188933 0.0604104
vt 0.304804 0.0604104
vt 0.553847 0.0292562
vt 0.553846 0.357281
vt 0.773591 0.357269
vt 0.773586 0.0292686
vt 0.437809 0.661392
vt 0.489868 0.571859
vt 0.464061 0.572117
vt 0.217678 0.658328
vt 0.00835924 0.658328
vt 0.464057 0.572556
vt 0.437809 0.661398
vt 0.223661 0.658328
vt 0.223661 0.573545
vt 0.489868 0.571859
vt 0.223661 0.572671
vt 0.223661 0.658328
vt 0.464112 0.46626
vt 0.489868 0.439335
vt 0.355619 0.39392
vt 0.146049 0.39392
vt 0.438984 0.440974
vt 0.489868 0.439335
vt 0.464342 0.46758
vt 0.438973 0.440994
vt 0.464342 0.46758
vt 0.223661 0.573545
vt 0.223661 0.439334
vt 0.223661 0.439334
vt 0.464112 0.46626
vt 0.223661 0.439334
vt 0.223661 0.572671
vt 0.223661 0.439334


#
# MESH 000
#
g surface_000
usemtl surface_000
f 97/97/97 98/98/98 99/99/99
f 93/93/93 94/94/94 95/95/95
f 23/23/23 16/16/16 24/24/24
f 17/17/17 19/19/19 20/20/20
f 10/10/10 13/13/13 14/14/14
f 1/1/1 2/2/2 3/3/3
f 91/91/91 100/100/100 92/92/92
f 90/90/90 91/91/91 92/92/92
f 82/82/82 91/91/91 90/90/90
f 78/78/78 91/91/91 82/82/82
f 78/78/78 81/81/81 91/91/91
f 78/78/78 80/80/80 81/81/81
f 78/78/78 79/79/79 80/80/80
f 79/79/79 78/78/78 82/82/82
f 85/85/85 89/89/89 96/96/96
f 89/89/89 85/85/85 86/86/86
f 85/85/85 74/74/74 86/86/86
f 75/75/75 74/74/74 85/85/85
f 73/73/73 74/74/74 75/75/75
f 73/73/73 75/75/75 83/83/83
f 73/73/73 83/83/83 84/84/84
f 85/85/85 83/83/83 75/75/75
f 64/64/64 63/63/63 88/88/88
f 62/62/62 63/63/63 64/64/64
f 87/87/87 63/63/63 62/62/62
f 76/76/76 37/37/37 77/77/77
f 76/76/76 34/34/34 37/37/37
f 34/34/34 36/36/36 37/37/37
f 34/34/34 35/35/35 36/36/36
f 69/69/69 70/70/70 71/71/71
f 69/69/69 71/71/71 72/72/72
f 71/71/71 33/33/33 72/72/72
f 72/72/72 33/33/33 32/32/32
f 31/31/31 32/32/32 33/33/33
f 31/31/31 33/33/33 71/71/71
f 65/65/65 67/67/67 68/68/68
f 65/65/65 66/66/66 67/67/67
f 58/58/58 60/60/60 61/61/61
f 58/58/58 59/59/59 60/60/60
f 54/54/54 56/56/56 57/57/57
f 54/54/54 55/55/55 56/56/56
f 50/50/50 52/52/52 53/53/53
f 50/50/50 51/51/51 52/52/52
f 46/46/46 48/48/48 49/49/49
f 46/46/46 47/47/47 48/48/48
f 42/42/42 44/44/44 45/45/45
f 42/42/42 43/43/43 44/44/44
f 38/38/38 40/40/40 41/41/41
f 38/38/38 39/39/39 40/40/40
f 27/27/27 29/29/29 30/30/30
f 27/27/27 28/28/28 29/29/29
f 25/25/25 26/26/26 10/10/10
f 25/25/25 10/10/10 16/16/16
f 16/16/16 10/10/10 2/2/2
f 16/16/16 2/2/2 17/17/17
f 15/15/15 16/16/16 17/17/17
f 15/15/15 17/17/17 18/18/18
f 2/2/2 10/10/10 11/11/11
f 2/2/2 11/11/11 12/12/12
f 17/17/17 2/2/2 21/21/21
f 17/17/17 21/21/21 22/22/22
f 8/8/8 9/9/9 7/7/7
f 8/8/8 7/7/7 6/6/6
f 4/4/4 6/6/6 7/7/7
f 4/4/4 5/5/5 6/6/6

