#
# OBJECT NAME
#
o model_1679
mtllib 1679.mtl

#
# VERTEX BUFFER 000
#
v -0.0679497 1.10473 0.0299205
v 0.0127584 1.10103 0.0647499
v 0.0165152 1.2024 0.0786547
v -0.0207084 1.27249 0.0912826
v 0.0165152 1.2024 0.0786547
v 0.0127584 1.10103 0.0647499
v 0.0554351 1.1023 0.00527806
v 0.0613063 1.25306 0.0830135
v 0.0238837 1.27719 0.00310533
v 0.0613063 1.25306 0.0830135
v -0.0121539 1.10168 -0.0841122
v -0.113094 1.04569 0.00685897
v 0.02804 1.04328 0.110247
v -0.0679497 1.10473 0.0299205
v 0.02804 1.04328 0.110247
v 0.099967 1.04487 -0.0329285
v -0.0171484 1.04272 -0.140147
v -0.0121539 1.10168 -0.0841122
v -0.0207084 1.27249 0.0912826
v 0.0238837 1.27719 0.00310533
v 0.0279372 1.23898 0.116348
v 0.00236985 1.30229 0.153834
v 0.0279372 1.23898 0.116348
v 0.0674928 1.28316 0.142533
v 0.038465 1.30769 0.0707012
v 0.0674928 1.28316 0.142533
v 0.00236985 1.30229 0.153834
v 0.038465 1.30769 0.0707012
v 0.0279372 1.23898 0.116348
v 0.0674928 1.28316 0.142533
v 0.038465 1.30769 0.0707012
v 0.00236985 1.30229 0.153834
v -0.0171484 1.04272 -0.140147
v -0.0700832 0.466902 0.60906
v -0.0953245 0.555126 0.631251
v -0.35225 0.571811 0.523842
v -0.433919 0.555028 0.45344
v -0.293713 0.497483 0.576402
v 0.176367 0.435525 0.580483
v 0.298753 0.49822 0.57245
v 0.346801 0.573776 0.545918
v 0.0929828 0.552594 0.609286
v 0.076824 0.467089 0.580311
v 0.0032287 0.570792 0.604774
v -0.177344 0.767199 0.568703
v -0.315225 1.05205 0.0701893
v -0.250695 1.05205 0.19756
v -3.82328e-007 1.04002 -0.0114517
v -0.237964 0.157746 0.480664
v 0.182621 0.156572 0.502884
v 0.213579 0.272274 0.54259
v -0.208129 0.27378 0.534769
v 0.450859 0.51183 0.453028
v 0.595058 0.543092 0.337633
v 0.438925 0.550547 0.474722
v -0.506415 0.740476 0.404568
v -0.35225 0.571811 0.523842
v -0.432016 0.16602 0.340286
v -0.301786 0.31017 0.526148
v -0.446129 0.511983 0.448375
v -0.546413 0.534057 0.420927
v -0.104346 0.91442 0.54228
v 0.177882 0.766604 0.559455
v 0.187523 0.91442 0.519892
v -0.440383 0.91357 0.352372
v -0.175902 0.435746 0.607582
v -0.552257 0.913567 0.131644
v 0.167768 1.07719 -0.290888
v 0.291891 0.91357 -0.501923
v -0.140824 0.913571 -0.563686
v -0.0793282 1.05205 -0.326707
v 0.312477 0.159254 0.439028
v 0.376887 0.362572 0.514615
v -0.27938 1.07719 -0.177312
v -0.490474 0.913568 -0.301384
v -0.552257 0.913567 0.131644
v -0.315225 1.05205 0.0701893
v -3.82328e-007 1.04002 -0.0114517
v 0.281312 1.06607 0.156753
v 0.492406 0.913568 0.280824
v 0.554189 0.913567 -0.152203
v 0.317157 1.05205 -0.0907487
v -3.82328e-007 1.04002 -0.0114517
v 0.317157 1.05205 -0.0907487
v -3.82328e-007 1.04002 -0.0114517
v -0.27938 1.07719 -0.177312
v 0.554189 0.913567 -0.152203
v -3.82328e-007 1.04002 -0.0114517
v -0.091426 -1.78814e-007 0.179301
v -0.166226 0.00248975 0.127985
v -0.633273 0.740474 0.153489
v -0.662642 0.543088 0.161268
v 0.635201 0.740474 -0.174048
v 0.664556 0.543088 -0.181828
v 0.352095 0.543092 -0.600797
v 0.33365 0.740478 -0.574558
v -3.81602e-007 0.0375105 -0.0114517
v 0.187288 0.00248986 0.10087
v 0.119446 -4.76837e-007 0.163127
v -3.81602e-007 0.0375105 -0.0114517
v -0.0521914 0.00249457 -0.220624
v 0.112111 0.00249439 -0.196606
v 0.565503 0.740475 0.322404
v 0.595058 0.543092 0.337633
v 0.664556 0.543088 -0.181828
v 0.635201 0.740474 -0.174048
v 0.106293 1.05348 0.290517
v -0.0590638 1.07863 0.3032
v 0.481344 0.166135 0.27106
v 0.187288 0.00248986 0.10087
v 0.21131 0.00249249 -0.0634412
v 0.537385 0.166138 -0.14757
v -0.13633 0.166141 -0.545441
v -0.475577 0.166139 -0.29162
v -0.589835 0.543089 -0.358192
v -0.172989 0.543092 -0.67385
v -0.589835 0.543089 -0.358192
v -0.475577 0.166139 -0.29162
v -0.536139 0.166138 0.127011
v -0.662642 0.543088 0.161268
v 0.282638 0.166141 -0.485774
v -0.185355 0.0024935 -0.121429
v 0.481344 0.166135 0.27106
v 0.492406 0.913568 0.280824
v 0.281312 1.06607 0.156753
v -3.81602e-007 0.0375105 -0.0114517
v -0.209378 0.00249219 0.0428818
v -0.185355 0.0024935 -0.121429
v -3.82328e-007 1.04002 -0.0114517
v -0.536139 0.166138 0.127011
v -0.209378 0.00249219 0.0428818
v -0.490474 0.913568 -0.301384
v 0.565503 0.740475 0.322404
v -3.81602e-007 0.0375105 -0.0114517
v -0.162795 0.740478 -0.644521
v -0.563323 0.740475 -0.342963
v -0.563323 0.740475 -0.342963
v -0.633273 0.740474 0.153489
v -3.82328e-007 1.04002 -0.0114517
v -3.81602e-007 0.0375105 -0.0114517
v 0.537385 0.166138 -0.14757
v 0.21131 0.00249249 -0.0634412
v -3.81602e-007 0.0375105 -0.0114517
v -0.27021 0.395962 0.565825
v -0.293713 0.497483 0.576402
v -0.301786 0.31017 0.526148
v -0.293713 0.497483 0.576402
v -0.27021 0.395962 0.565825
v -0.226539 0.382673 0.573116
v -0.35225 0.571811 0.523842
v -0.0953245 0.555126 0.631251
v -0.177344 0.767199 0.568703
v 0.177882 0.766604 0.559455
v 0.0929828 0.552594 0.609286
v 0.346801 0.573776 0.545918
v 0.0032287 0.570792 0.604774
v -0.0700832 0.466902 0.60906
v 0.076824 0.467089 0.580311
v -0.208129 0.27378 0.534769
v -0.226539 0.382673 0.573116
v 0.213579 0.272274 0.54259
v 0.224757 0.383905 0.567523
v 0.376887 0.362572 0.514615
v 0.268488 0.395951 0.56789
v -0.446129 0.511983 0.448375
v -3.81602e-007 0.0375105 -0.0114517
v 0.376887 0.362572 0.514615
v 0.224757 0.383905 0.567523
v 0.268488 0.395951 0.56789
v 0.176367 0.435525 0.580483
v -0.175902 0.435746 0.607582
v 0.450859 0.51183 0.453028
v 0.298753 0.49822 0.57245
v 0.438925 0.550547 0.474722
v -0.433919 0.555028 0.45344

vn -0.765137 0.584961 -0.267578
vn 0.153442 0.487549 0.859375
vn -0.0234528 -0.55127 0.833496
vn -0.811523 0.551758 -0.190674
vn -0.0234528 -0.55127 0.833496
vn 0.153442 0.487549 0.859375
vn 0.632813 0.612793 -0.472168
vn 0.893555 0.239868 -0.37915
vn 0.101929 0.731445 -0.673828
vn 0.893555 0.239868 -0.37915
vn -0.122498 0.638672 -0.759277
vn -0.825195 0.476807 -0.302246
vn 0.182251 0.397705 0.898926
vn -0.765137 0.584961 -0.267578
vn 0.182251 0.397705 0.898926
vn 0.672852 0.49585 -0.54834
vn -0.154297 0.504395 -0.849121
vn -0.122498 0.638672 -0.759277
vn -0.811523 0.551758 -0.190674
vn 0.101929 0.731445 -0.673828
vn 0.231567 0.205078 0.950684
vn 0.0111542 0.686523 0.726563
vn 0.231567 0.205078 0.950684
vn 0.569336 0.527832 0.629395
vn 0.32251 0.748535 0.578613
vn 0.569336 0.527832 0.629395
vn 0.0111542 0.686523 0.726563
vn 0.32251 0.748535 0.578613
vn 0.231567 0.205078 0.950684
vn 0.569336 0.527832 0.629395
vn 0.32251 0.748535 0.578613
vn 0.0111542 0.686523 0.726563
vn -0.154297 0.504395 -0.849121
vn 0.286621 -0.170532 0.942383
vn -0.484131 0.425537 0.76416
vn -0.207764 0.930664 0.300781
vn -0.591797 -0.66748 0.451172
vn -0.749512 -0.45459 0.480469
vn -0.185181 -0.749512 0.634766
vn 0.731934 -0.533203 0.424072
vn -0.269287 0.325928 0.905762
vn 0.0775146 0.00567245 0.996582
vn -0.131348 -0.192993 0.972168
vn 0.229492 -0.113892 0.966309
vn -0.255371 -0.470703 0.844238
vn -0.275635 0.936523 -0.216431
vn 0.0223083 0.932617 0.359619
vn 0.00919342 0.999512 0.0184479
vn -0.428223 -0.632324 0.64502
vn 0.0580139 -0.617188 0.78418
vn -0.165161 0.556152 0.813965
vn 0.0714111 0.555664 0.827637
vn 0.408936 -0.0365295 0.911621
vn 0.774414 0.00642014 0.632324
vn 0.10968 -0.776367 0.620117
vn -0.621582 0.316406 0.716309
vn -0.207764 0.930664 0.300781
vn -0.447754 -0.665039 0.59668
vn 0.188354 0.583984 0.789063
vn 0.649902 0.0257416 0.759277
vn -0.700684 -0.0218353 0.712402
vn -0.0351868 0.550293 0.833496
vn 0.216553 -0.532715 0.817383
vn 0.086731 0.603516 0.79248
vn -0.436768 0.634277 0.637207
vn 0.0633545 -0.783691 0.617676
vn -0.771973 0.635254 -0.0152664
vn 0.450684 0.891113 0.0436707
vn 0.586426 0.598633 -0.544434
vn 0.018158 0.634277 -0.772461
vn 0.225098 0.934082 -0.276367
vn 0.530762 -0.637207 0.558105
vn -0.26416 0.539063 0.799316
vn 0.0377502 0.89502 -0.443359
vn -0.549805 0.599609 -0.580566
vn -0.771973 0.635254 -0.0152664
vn -0.275635 0.936523 -0.216431
vn 0.00919342 0.999512 0.0184479
vn -0.038269 0.911621 0.408203
vn 0.540039 0.604004 0.584961
vn 0.772461 0.633789 0.0261078
vn 0.2771 0.932617 0.230103
vn 0.00919342 0.999512 0.0184479
vn 0.2771 0.932617 0.230103
vn 0.00919342 0.999512 0.0184479
vn 0.0377502 0.89502 -0.443359
vn 0.772461 0.633789 0.0261078
vn 0.00919342 0.999512 0.0184479
vn -0.271973 -0.955078 -0.114502
vn 0.217896 -0.924316 0.312744
vn -0.950684 0.302246 0.0653076
vn -0.99707 0.00695419 0.074707
vn 0.953613 0.293945 -0.0614014
vn 0.996094 -0.00382614 -0.085022
vn 0.643555 -0.00452423 -0.764648
vn 0.628906 0.296631 -0.718262
vn 0.00337029 -0.999512 0.0128937
vn -0.163574 -0.92627 0.338379
vn 0.251221 -0.955078 -0.154663
vn 0.00337029 -0.999512 0.0128937
vn 0.355713 -0.92627 -0.123291
vn 0.342041 -0.924316 0.167236
vn 0.71875 0.299805 0.626465
vn 0.774414 0.00642014 0.632324
vn 0.996094 -0.00382614 -0.085022
vn 0.953613 0.293945 -0.0614014
vn -0.133911 0.955566 0.260742
vn 0.281006 0.929199 0.238281
vn 0.537109 -0.646484 0.541016
vn -0.163574 -0.92627 0.338379
vn 0.123535 -0.924805 0.359619
vn 0.768066 -0.640137 0.0119171
vn 0.00543976 -0.640137 -0.767578
vn -0.540527 -0.641113 -0.543457
vn -0.772461 -0.00356293 -0.634766
vn -0.0958252 -0.00487518 -0.995117
vn -0.772461 -0.00356293 -0.634766
vn -0.540527 -0.641113 -0.543457
vn -0.761719 -0.646973 -0.0124664
vn -0.99707 0.00695419 0.074707
vn 0.548828 -0.639648 -0.537109
vn 0.160034 -0.928711 -0.333984
vn 0.537109 -0.646484 0.541016
vn 0.540039 0.604004 0.584961
vn -0.038269 0.911621 0.408203
vn 0.00337029 -0.999512 0.0128937
vn -0.122437 -0.930664 -0.344238
vn 0.160034 -0.928711 -0.333984
vn 0.00919342 0.999512 0.0184479
vn -0.761719 -0.646973 -0.0124664
vn -0.122437 -0.930664 -0.344238
vn -0.549805 0.599609 -0.580566
vn 0.71875 0.299805 0.626465
vn 0.00337029 -0.999512 0.0128937
vn -0.0710449 0.293945 -0.953125
vn -0.725098 0.294434 -0.62207
vn -0.725098 0.294434 -0.62207
vn -0.950684 0.302246 0.0653076
vn 0.00919342 0.999512 0.0184479
vn 0.00337029 -0.999512 0.0128937
vn 0.768066 -0.640137 0.0119171
vn 0.123535 -0.924805 0.359619
vn 0.00337029 -0.999512 0.0128937
vn -0.677734 -0.63623 0.368408
vn -0.749512 -0.45459 0.480469
vn 0.188354 0.583984 0.789063
vn -0.749512 -0.45459 0.480469
vn -0.677734 -0.63623 0.368408
vn -0.0864868 -0.742676 0.663574
vn -0.207764 0.930664 0.300781
vn -0.484131 0.425537 0.76416
vn -0.255371 -0.470703 0.844238
vn 0.216553 -0.532715 0.817383
vn 0.0775146 0.00567245 0.996582
vn -0.269287 0.325928 0.905762
vn 0.229492 -0.113892 0.966309
vn 0.286621 -0.170532 0.942383
vn -0.131348 -0.192993 0.972168
vn 0.0714111 0.555664 0.827637
vn -0.0864868 -0.742676 0.663574
vn -0.165161 0.556152 0.813965
vn -0.36377 -0.764648 0.53125
vn -0.26416 0.539063 0.799316
vn 0.673828 -0.64502 0.358643
vn 0.649902 0.0257416 0.759277
vn 0.00337029 -0.999512 0.0128937
vn -0.26416 0.539063 0.799316
vn -0.36377 -0.764648 0.53125
vn 0.673828 -0.64502 0.358643
vn -0.185181 -0.749512 0.634766
vn 0.0633545 -0.783691 0.617676
vn 0.408936 -0.0365295 0.911621
vn 0.731934 -0.533203 0.424072
vn 0.10968 -0.776367 0.620117
vn -0.591797 -0.66748 0.451172

vt 0.849525 0.0953263
vt 0.991732 0.0953263
vt 0.991732 0.259441
vt 0.849525 0.259441
vt 0.778646 0.259441
vt 0.778646 0.0953262
vt 0.920229 0.0953262
vt 0.920229 0.259441
vt 0.991732 0.259441
vt 0.920229 0.259441
vt 0.991732 0.0953263
vt 0.849525 0.0119644
vt 0.991732 0.0119644
vt 0.849525 0.0953263
vt 0.778646 0.0119644
vt 0.920229 0.0119644
vt 0.991732 0.0119644
vt 0.778646 0.0953262
vt 0.849525 0.259441
vt 0.778646 0.259441
vt 0.989589 0.329949
vt 0.854179 0.329949
vt 0.781389 0.329949
vt 0.914807 0.329949
vt 0.986003 0.329949
vt 0.922519 0.329949
vt 0.84663 0.329949
vt 0.783218 0.329949
vt 0.857349 0.34711
vt 0.933671 0.415515
vt 0.896286 0.461686
vt 0.83586 0.448445
vt 0.778646 0.0119644
vt 0.327526 0.411243
vt 0.324339 0.445786
vt 0.242852 0.452681
vt 0.201498 0.430232
vt 0.256742 0.41244
vt 0.408348 0.39393
vt 0.464709 0.411917
vt 0.481017 0.451673
vt 0.396802 0.443839
vt 0.38526 0.408797
vt 0.362388 0.446216
vt 0.294393 0.515887
vt 0.057257 0.672251
vt 0.159218 0.672251
vt 0.130729 0.774665
vt 0.25818 0.29673
vt 0.438111 0.29673
vt 0.435412 0.342712
vt 0.282161 0.343931
vt 0.52584 0.422244
vt 0.59705 0.433283
vt 0.520313 0.431642
vt 0.159218 0.501559
vt 0.242852 0.452681
vt 0.159218 0.29673
vt 0.252913 0.358103
vt 0.198487 0.421823
vt 0.157735 0.430257
vt 0.318157 0.569836
vt 0.430355 0.513411
vt 0.438111 0.569836
vt 0.159218 0.569836
vt 0.315425 0.39488
vt 0.057257 0.569836
vt 0.237188 0.672251
vt 0.237188 0.569836
vt 0.417119 0.569836
vt 0.417119 0.672251
vt 0.498088 0.29673
vt 0.488728 0.377735
vt 0.59705 0.672251
vt 0.59705 0.569836
vt 0.057257 0.569836
vt 0.057257 0.672251
vt 0.580556 0.774665
vt 0.59705 0.672251
vt 0.59705 0.569836
vt 0.057257 0.569836
vt 0.057257 0.672251
vt 0.0407633 0.774665
vt 0.057257 0.672251
vt 0.400625 0.774665
vt 0.59705 0.672251
vt 0.057257 0.569836
vt 0.220694 0.774665
vt 0.25818 0.160177
vt 0.159218 0.160177
vt 0.057257 0.501559
vt 0.057257 0.433283
vt 0.057257 0.501559
vt 0.057257 0.433283
vt 0.237188 0.433283
vt 0.237188 0.501559
vt 0.715504 0.0919005
vt 0.59705 0.160177
vt 0.498088 0.160177
vt 0.535574 0.0919005
vt 0.417119 0.160177
vt 0.237188 0.160177
vt 0.59705 0.501559
vt 0.59705 0.433283
vt 0.057257 0.433283
vt 0.057257 0.501559
vt 0.438111 0.672251
vt 0.318157 0.672251
vt 0.59705 0.29673
vt 0.59705 0.160177
vt 0.057257 0.160177
vt 0.057257 0.29673
vt 0.417119 0.29673
vt 0.59705 0.29673
vt 0.59705 0.433283
vt 0.417119 0.433283
vt 0.59705 0.433283
vt 0.59705 0.29673
vt 0.057257 0.29673
vt 0.057257 0.433283
vt 0.237188 0.29673
vt 0.59705 0.160177
vt 0.59705 0.29673
vt 0.59705 0.569836
vt 0.59705 0.672251
vt 0.175712 0.0919005
vt 0.057257 0.160177
vt 0.59705 0.160177
vt 0.445608 0.774665
vt 0.057257 0.29673
vt 0.057257 0.160177
vt 0.59705 0.569836
vt 0.59705 0.501559
vt 0.265677 0.0919005
vt 0.417119 0.501559
vt 0.59705 0.501559
vt 0.59705 0.501559
vt 0.057257 0.501559
vt 0.31066 0.774665
vt 0.490591 0.0919005
vt 0.057257 0.29673
vt 0.057257 0.160177
vt 0.355643 0.0919005
vt 0.821433 0.751361
vt 0.811554 0.780155
vt 0.808945 0.741403
vt 0.256742 0.41244
vt 0.271126 0.37074
vt 0.294383 0.363463
vt 0.799016 0.798853
vt 0.856132 0.798408
vt 0.83752 0.840095
vt 0.926143 0.840019
vt 0.908122 0.797071
vt 0.967044 0.799156
vt 0.883087 0.796065
vt 0.864908 0.772037
vt 0.901065 0.770771
vt 0.831512 0.73416
vt 0.832 0.748882
vt 0.932709 0.733619
vt 0.933117 0.748327
vt 0.971482 0.750449
vt 0.943605 0.750667
vt 0.773301 0.7793
vt 0.175712 0.0919005
vt 0.488728 0.377735
vt 0.433153 0.363497
vt 0.453121 0.365665
vt 0.915972 0.766169
vt 0.849652 0.76654
vt 0.988389 0.778083
vt 0.953527 0.7793
vt 0.985819 0.786463
vt 0.776296 0.78799


#
# MESH 000
#
g surface_000
usemtl surface_000
f 18/18/18 33/33/33 12/12/12
f 18/18/18 12/12/12 14/14/14
f 18/18/18 14/14/14 19/19/19
f 18/18/18 19/19/19 20/20/20
f 27/27/27 20/20/20 19/19/19
f 27/27/27 28/28/28 20/20/20
f 12/12/12 2/2/2 14/14/14
f 12/12/12 13/13/13 2/2/2
f 29/29/29 31/31/31 32/32/32
f 29/29/29 30/30/30 31/31/31
f 25/25/25 26/26/26 10/10/10
f 25/25/25 10/10/10 9/9/9
f 9/9/9 10/10/10 7/7/7
f 9/9/9 7/7/7 11/11/11
f 16/16/16 11/11/11 7/7/7
f 16/16/16 17/17/17 11/11/11
f 6/6/6 16/16/16 7/7/7
f 6/6/6 15/15/15 16/16/16
f 8/8/8 6/6/6 7/7/7
f 8/8/8 5/5/5 6/6/6
f 23/23/23 10/10/10 24/24/24
f 23/23/23 5/5/5 10/10/10
f 22/22/22 3/3/3 21/21/21
f 22/22/22 19/19/19 3/3/3
f 4/4/4 2/2/2 3/3/3
f 4/4/4 1/1/1 2/2/2
f 156/156/156 157/157/157 158/158/158
f 153/153/153 154/154/154 155/155/155
f 150/150/150 151/151/151 152/152/152
f 175/175/175 165/165/165 145/145/145
f 145/145/145 165/165/165 146/146/146
f 144/144/144 145/145/145 146/146/146
f 144/144/144 146/146/146 159/159/159
f 144/144/144 159/159/159 160/160/160
f 161/161/161 160/160/160 159/159/159
f 161/161/161 162/162/162 160/160/160
f 160/160/160 162/162/162 170/170/170
f 160/160/160 170/170/170 171/171/171
f 161/161/161 164/164/164 162/162/162
f 161/161/161 163/163/163 164/164/164
f 164/164/164 163/163/163 172/172/172
f 164/164/164 172/172/172 173/173/173
f 173/173/173 172/172/172 174/174/174
f 168/168/168 169/169/169 40/40/40
f 168/168/168 40/40/40 39/39/39
f 39/39/39 40/40/40 41/41/41
f 39/39/39 41/41/41 42/42/42
f 43/43/43 39/39/39 42/42/42
f 39/39/39 43/43/43 34/34/34
f 39/39/39 34/34/34 66/66/66
f 41/41/41 40/40/40 55/55/55
f 133/133/133 41/41/41 55/55/55
f 133/133/133 63/63/63 41/41/41
f 133/133/133 64/64/64 63/63/63
f 62/62/62 63/63/63 64/64/64
f 62/62/62 45/45/45 63/63/63
f 63/63/63 45/45/45 44/44/44
f 63/63/63 44/44/44 42/42/42
f 44/44/44 43/43/43 42/42/42
f 55/55/55 54/54/54 133/133/133
f 53/53/53 54/54/54 55/55/55
f 54/54/54 53/53/53 123/123/123
f 167/167/167 123/123/123 53/53/53
f 167/167/167 72/72/72 123/123/123
f 72/72/72 98/98/98 123/123/123
f 72/72/72 99/99/99 98/98/98
f 97/97/97 98/98/98 99/99/99
f 99/99/99 72/72/72 50/50/50
f 99/99/99 50/50/50 49/49/49
f 99/99/99 49/49/49 89/89/89
f 140/140/140 99/99/99 89/89/89
f 50/50/50 72/72/72 73/73/73
f 50/50/50 73/73/73 51/51/51
f 49/49/49 50/50/50 51/51/51
f 49/49/49 51/51/51 52/52/52
f 49/49/49 52/52/52 59/59/59
f 58/58/58 49/49/49 59/59/59
f 89/89/89 49/49/49 58/58/58
f 89/89/89 58/58/58 90/90/90
f 134/134/134 89/89/89 90/90/90
f 58/58/58 59/59/59 60/60/60
f 58/58/58 60/60/60 61/61/61
f 58/58/58 61/61/61 92/92/92
f 58/58/58 92/92/92 130/130/130
f 58/58/58 130/130/130 131/131/131
f 58/58/58 131/131/131 90/90/90
f 131/131/131 166/166/166 90/90/90
f 37/37/37 61/61/61 60/60/60
f 37/37/37 56/56/56 61/61/61
f 61/61/61 56/56/56 91/91/91
f 61/61/61 91/91/91 92/92/92
f 37/37/37 57/57/57 56/56/56
f 56/56/56 57/57/57 45/45/45
f 45/45/45 65/65/65 56/56/56
f 67/67/67 56/56/56 65/65/65
f 67/67/67 91/91/91 56/56/56
f 45/45/45 62/62/62 65/65/65
f 62/62/62 47/47/47 65/65/65
f 47/47/47 67/67/67 65/65/65
f 47/47/47 46/46/46 67/67/67
f 46/46/46 47/47/47 48/48/48
f 48/48/48 47/47/47 108/108/108
f 62/62/62 108/108/108 47/47/47
f 62/62/62 107/107/107 108/108/108
f 108/108/108 107/107/107 139/139/139
f 62/62/62 64/64/64 107/107/107
f 64/64/64 125/125/125 107/107/107
f 129/129/129 107/107/107 125/125/125
f 64/64/64 124/124/124 125/125/125
f 133/133/133 124/124/124 64/64/64
f 35/35/35 44/44/44 45/45/45
f 44/44/44 35/35/35 34/34/34
f 36/36/36 34/34/34 35/35/35
f 36/36/36 38/38/38 34/34/34
f 36/36/36 37/37/37 38/38/38
f 34/34/34 147/147/147 66/66/66
f 66/66/66 147/147/147 148/148/148
f 66/66/66 148/148/148 149/149/149
f 126/126/126 111/111/111 110/110/110
f 109/109/109 110/110/110 111/111/111
f 109/109/109 111/111/111 112/112/112
f 104/104/104 109/109/109 112/112/112
f 104/104/104 112/112/112 105/105/105
f 103/103/103 104/104/104 105/105/105
f 103/103/103 105/105/105 106/106/106
f 80/80/80 103/103/103 106/106/106
f 80/80/80 106/106/106 81/81/81
f 79/79/79 80/80/80 81/81/81
f 79/79/79 81/81/81 82/82/82
f 78/78/78 79/79/79 82/82/82
f 142/142/142 143/143/143 102/102/102
f 141/141/141 142/142/142 102/102/102
f 141/141/141 102/102/102 121/121/121
f 94/94/94 141/141/141 121/121/121
f 94/94/94 121/121/121 95/95/95
f 93/93/93 94/94/94 95/95/95
f 93/93/93 95/95/95 96/96/96
f 87/87/87 93/93/93 96/96/96
f 121/121/121 102/102/102 101/101/101
f 121/121/121 101/101/101 113/113/113
f 95/95/95 121/121/121 113/113/113
f 95/95/95 113/113/113 116/116/116
f 96/96/96 95/95/95 116/116/116
f 96/96/96 116/116/116 135/135/135
f 69/69/69 96/96/96 135/135/135
f 87/87/87 96/96/96 69/69/69
f 84/84/84 87/87/87 69/69/69
f 100/100/100 101/101/101 102/102/102
f 101/101/101 97/97/97 122/122/122
f 113/113/113 101/101/101 122/122/122
f 113/113/113 122/122/122 114/114/114
f 113/113/113 114/114/114 115/115/115
f 113/113/113 115/115/115 116/116/116
f 135/135/135 116/116/116 115/115/115
f 135/135/135 115/115/115 136/136/136
f 70/70/70 135/135/135 136/136/136
f 69/69/69 135/135/135 70/70/70
f 68/68/68 69/69/69 70/70/70
f 84/84/84 69/69/69 68/68/68
f 83/83/83 84/84/84 68/68/68
f 70/70/70 136/136/136 132/132/132
f 71/71/71 70/70/70 132/132/132
f 68/68/68 70/70/70 71/71/71
f 88/88/88 68/68/68 71/71/71
f 71/71/71 132/132/132 86/86/86
f 85/85/85 71/71/71 86/86/86
f 126/126/126 127/127/127 128/128/128
f 119/119/119 128/128/128 127/127/127
f 119/119/119 118/118/118 128/128/128
f 117/117/117 118/118/118 119/119/119
f 117/117/117 119/119/119 120/120/120
f 137/137/137 117/117/117 120/120/120
f 137/137/137 120/120/120 138/138/138
f 75/75/75 137/137/137 138/138/138
f 75/75/75 138/138/138 76/76/76
f 74/74/74 75/75/75 76/76/76
f 74/74/74 76/76/76 77/77/77
f 78/78/78 74/74/74 77/77/77

