g t015v001_h
v -0.49 1 0.5125617
v -0.49 1.3254 0.5125617
v -0.4900001 1.010566 0.9252204
v 0.49 1.3254 0.5125617
v 0.49 1 0.5125617
v 0.49 1.010566 0.9252204
v -0.472345 0.1406166 0.7320194
v -0.472345 0.2671807 0.7320194
v 0.472345 0.2671807 0.7320194
v 0.472345 0.1406166 0.7320194
v -0.472345 0.01405259 0.7320194
v 0.472345 0.01405259 0.7320194
v -0.472345 0.2671807 0.7320194
v 0.5 0.2921437 0.5
v 0.472345 0.2671807 0.7320194
v -0.5 0.2921437 0.5
v 0.5 0.2921437 -0.4970027
v -0.5 0.2921437 -0.4970027
v 0.472345 0.2671807 -0.7320194
v -0.472345 0.2671807 -0.7320194
v -0.472345 0.2671807 -0.7320194
v 0.472345 0.1406166 -0.7320194
v 0.472345 0.2671807 -0.7320194
v -0.472345 0.1406166 -0.7320194
v 0.472345 0.01405259 -0.7320194
v -0.472345 0.01405259 -0.7320194
v 0.472345 0.01405259 0.7320194
v -0.5 0 0.5
v -0.472345 0.01405259 0.7320194
v 0.5 0 0.5
v -0.5 0 -0.4970027
v 0.5 0 -0.4970027
v -0.472345 0.01405259 -0.7320194
v 0.472345 0.01405259 -0.7320194
v -0.5 0.2921437 0.5
v -0.472345 0.2671807 0.7320194
v -0.472345 0.1406166 0.7320194
v -0.5 0 0.5
v -0.472345 0.01405259 0.7320194
v -0.5 0.2921437 -0.4970027
v -0.5 0 -0.4970027
v -0.472345 0.1406166 -0.7320194
v -0.472345 0.01405259 -0.7320194
v -0.472345 0.2671807 -0.7320194
v 0.472345 0.2671807 -0.7320194
v 0.472345 0.1406166 -0.7320194
v 0.5 0.2921437 -0.4970027
v 0.5 0 -0.4970027
v 0.472345 0.01405259 -0.7320194
v 0.5 0.2921437 0.5
v 0.5 0 0.5
v 0.472345 0.1406166 0.7320194
v 0.472345 0.01405259 0.7320194
v 0.472345 0.2671807 0.7320194
v -0.07181376 0.2820739 0.571413
v -0.07181376 0.8576612 0.571413
v 0.07181286 0.8576612 0.571413
v 0.07181286 0.2820739 0.571413
v -0.07601833 0.8576612 0.3547264
v -0.07601833 0.2820739 0.3547264
v 0.07601738 0.2820739 0.3547264
v 0.07601738 0.8576612 0.3547264
v -0.07601833 0.2820739 0.3547264
v -0.07601833 0.8576612 0.3547264
v -0.07181376 0.8576612 0.571413
v -0.07181376 0.2820739 0.571413
v 0.07181286 0.8576612 0.571413
v 0.07601738 0.8576612 0.3547264
v 0.07601738 0.2820739 0.3547264
v 0.07181286 0.2820739 0.571413
v -0.472345 0.2738006 0.6004009
v -0.472345 0.8498958 0.6004009
v -0.3711745 0.8498958 0.6004009
v -0.3711745 0.2738006 0.6004009
v -0.472345 0.8498958 -0.6031342
v -0.472345 0.2738006 -0.6031342
v -0.3711745 0.2738006 -0.6031342
v -0.3711745 0.8498958 -0.6031342
v -0.472345 0.2738006 -0.6031342
v -0.472345 0.8498958 -0.6031342
v -0.5 0.8498958 -0.4970027
v -0.5 0.2921437 -0.4970027
v -0.5 0.2921437 0.5
v -0.5 0.8498958 0.5
v -0.472345 0.2738006 0.6004009
v -0.472345 0.8498958 0.6004009
v -0.3711745 0.8498958 -0.6031342
v -0.3711745 0.2738006 -0.6031342
v -0.3929062 0.2921437 -0.4970027
v -0.3929062 0.8498958 -0.4970027
v -0.3929062 0.8498958 0.5
v -0.3929062 0.2921437 0.5
v -0.3711745 0.8498958 0.6004009
v -0.3711745 0.2738006 0.6004009
v 0.472345 0.2738006 0.6004009
v 0.3711737 0.2738006 0.6004009
v 0.3711737 0.8498958 0.6004009
v 0.472345 0.8498958 0.6004009
v 0.472345 0.8498958 -0.6031342
v 0.3711737 0.8498958 -0.6031342
v 0.3711737 0.2738006 -0.6031342
v 0.472345 0.2738006 -0.6031342
v 0.472345 0.2738006 -0.6031342
v 0.5 0.8498958 -0.4970027
v 0.472345 0.8498958 -0.6031342
v 0.5 0.2921437 -0.4970027
v 0.5 0.8498958 0.5
v 0.5 0.2921437 0.5
v 0.472345 0.8498958 0.6004009
v 0.472345 0.2738006 0.6004009
v 0.3711737 0.8498958 -0.6031342
v 0.3929052 0.2921437 -0.4970027
v 0.3711737 0.2738006 -0.6031342
v 0.3929052 0.8498958 -0.4970027
v 0.3929052 0.2921437 0.5
v 0.3929052 0.8498958 0.5
v 0.3711737 0.2738006 0.6004009
v 0.3711737 0.8498958 0.6004009
v -0.3988495 0.4988617 0.5309563
v -0.3988495 0.6414678 0.5309563
v 0.3988485 0.6414678 0.5309563
v 0.3988485 0.4988617 0.5309563
v -0.3988495 0.6414678 0.5309563
v -0.3988495 0.6414678 0.3951832
v 0.3988485 0.6414678 0.3951832
v 0.3988485 0.6414678 0.5309563
v -0.3988495 0.6414678 0.3951832
v -0.3988495 0.4988617 0.3951832
v 0.3988485 0.4988617 0.3951832
v 0.3988485 0.6414678 0.3951832
v -0.3988495 0.4988617 0.3951832
v -0.3988495 0.4988617 0.5309563
v 0.3988485 0.4988617 0.5309563
v 0.3988485 0.4988617 0.3951832
v -0.472345 0.8498958 0.6736298
v -0.472345 1 0.6736298
v 0.472345 1 0.6736298
v 0.472345 0.8498958 0.6736298
v -0.472345 1 0.6736298
v 0.5 1 0.5
v 0.472345 1 0.6736298
v -0.5 1 0.5
v 0.5 1 -0.4970027
v -0.5 1 -0.4970027
v 0.472345 0.9796571 -0.6736317
v -0.472345 0.9796571 -0.6736317
v -0.472345 0.9796571 -0.6736317
v -0.472345 0.8498958 -0.6736317
v 0.472345 0.8498958 -0.6736317
v 0.472345 0.9796571 -0.6736317
v -0.472345 0.8498958 -0.6736317
v 0.5 0.8498958 -0.4970027
v 0.472345 0.8498958 -0.6736317
v -0.5 0.8498958 -0.4970027
v 0.5 0.8498958 0.5
v -0.5 0.8498958 0.5
v 0.472345 0.8498958 0.6736298
v -0.472345 0.8498958 0.6736298
v -0.472345 0.8498958 -0.6736317
v -0.472345 0.9796571 -0.6736317
v -0.5 1 -0.4970027
v -0.5 0.8498958 -0.4970027
v -0.5 0.8498958 0.5
v -0.5 1 0.5
v -0.472345 0.8498958 0.6736298
v -0.472345 1 0.6736298
v 0.472345 1 0.6736298
v 0.5 0.8498958 0.5
v 0.472345 0.8498958 0.6736298
v 0.5 1 0.5
v 0.5 0.8498958 -0.4970027
v 0.5 1 -0.4970027
v 0.472345 0.8498958 -0.6736317
v 0.472345 0.9796571 -0.6736317
v -0.4900001 1.010566 0.9252204
v -0.4900001 1.142057 0.9252204
v 0.49 1.142057 0.9252204
v 0.49 1.010566 0.9252204
v -0.4900001 1.142057 0.9252204
v -0.49 1.467812 0.5125617
v 0.49 1.467812 0.5125617
v 0.49 1.142057 0.9252204
v -0.49 1.3254 0.5125617
v -0.49 1 0.5125617
v 0.49 1 0.5125617
v 0.49 1.3254 0.5125617
v -0.49 1 0.5125617
v -0.4900001 1.010566 0.9252204
v 0.49 1.010566 0.9252204
v 0.49 1 0.5125617
v 0.49 1.142057 0.9252204
v 0.49 1.467812 0.5125617
v 0.49 1.3254 0.5125617
v 0.49 1.010566 0.9252204
v -0.49 1.3254 0.5125617
v -0.49 1.467812 0.5125617
v -0.4900001 1.142057 0.9252204
v -0.4900001 1.010566 0.9252204
v -0.49 1.467812 0.5125617
v -0.49 1.3254 0.5125617
v 0.49 1.3254 0.5125617
v 0.49 1.467812 0.5125617
vt 0.01229095 0.6967773
vt 0.01229095 0.7788086
vt 0.1226807 0.6967773
vt 0.262207 0.7827148
vt 0.262207 0.6967773
vt 0.1466064 0.6967773
vt 0.7392578 0.09747314
vt 0.7392578 0.1705322
vt 0.9892578 0.1705322
vt 0.9892578 0.09747314
vt 0.7392578 0.02442932
vt 0.9892578 0.02442932
vt 0.4604492 0.02629089
vt 0.7236328 0.1430664
vt 0.7236328 0.02629089
vt 0.4604492 0.1430664
vt 0.7236328 0.6469727
vt 0.4604492 0.6469727
vt 0.7236328 0.765625
vt 0.4604492 0.765625
vt 0.9892578 0.1705322
vt 0.7392578 0.09747314
vt 0.7392578 0.1705322
vt 0.9892578 0.09747314
vt 0.7392578 0.02442932
vt 0.9892578 0.02442932
vt 0.4604492 0.02629089
vt 0.7236328 0.1430664
vt 0.7236328 0.02629089
vt 0.4604492 0.1430664
vt 0.7236328 0.6469727
vt 0.4604492 0.6469727
vt 0.7236328 0.765625
vt 0.4604492 0.765625
vt 0.3852539 0.1728516
vt 0.442627 0.1728516
vt 0.442627 0.09985352
vt 0.3852539 0.02679443
vt 0.442627 0.02679443
vt 0.137207 0.1728516
vt 0.137207 0.02679443
vt 0.07879639 0.09985352
vt 0.07879639 0.02679443
vt 0.07879639 0.1728516
vt 0.442627 0.1728516
vt 0.442627 0.09985352
vt 0.3842773 0.1728516
vt 0.3842773 0.02679443
vt 0.442627 0.02679443
vt 0.1362305 0.1728516
vt 0.1362305 0.02679443
vt 0.07879639 0.09985352
vt 0.07879639 0.02679443
vt 0.07879639 0.1728516
vt 0.01376343 0.3522949
vt 0.01376343 0.6547852
vt 0.05175781 0.6547852
vt 0.05175781 0.3522949
vt 0.05175781 0.6547852
vt 0.05175781 0.3522949
vt 0.01376343 0.3522949
vt 0.01376343 0.6547852
vt 0.007949829 0.02272034
vt 0.007949829 0.3105469
vt 0.06213379 0.3105469
vt 0.06213379 0.02272034
vt 0.007949829 0.3105469
vt 0.06213379 0.3105469
vt 0.06213379 0.02272034
vt 0.007949829 0.02272034
vt 0.07940674 0.3522949
vt 0.07940674 0.6547852
vt 0.1062012 0.6547852
vt 0.1062012 0.3522949
vt 0.1062012 0.6547852
vt 0.1062012 0.3522949
vt 0.07940674 0.3522949
vt 0.07940674 0.6547852
vt 0.1469727 0.3522949
vt 0.1469727 0.6547852
vt 0.1727295 0.6547852
vt 0.1727295 0.3522949
vt 0.4160156 0.3522949
vt 0.4160156 0.6547852
vt 0.4401855 0.3522949
vt 0.4401855 0.6547852
vt 0.4401855 0.6547852
vt 0.4401855 0.3522949
vt 0.4143066 0.3522949
vt 0.4143066 0.6547852
vt 0.1711426 0.6547852
vt 0.1711426 0.3522949
vt 0.1469727 0.6547852
vt 0.1469727 0.3522949
vt 0.1062012 0.3522949
vt 0.07940674 0.3522949
vt 0.07940674 0.6547852
vt 0.1062012 0.6547852
vt 0.07940674 0.6547852
vt 0.1062012 0.6547852
vt 0.1062012 0.3522949
vt 0.07940674 0.3522949
vt 0.4401855 0.3522949
vt 0.4143066 0.6547852
vt 0.4401855 0.6547852
vt 0.4143066 0.3522949
vt 0.1711426 0.6547852
vt 0.1711426 0.3522949
vt 0.1469727 0.6547852
vt 0.1469727 0.3522949
vt 0.1469727 0.6547852
vt 0.1727295 0.3522949
vt 0.1469727 0.3522949
vt 0.1727295 0.6547852
vt 0.4160156 0.3522949
vt 0.4160156 0.6547852
vt 0.4401855 0.3522949
vt 0.4401855 0.6547852
vt 0.5244141 0.8017578
vt 0.5244141 0.8730469
vt 0.7236328 0.8730469
vt 0.7236328 0.8017578
vt 0.5244141 0.9101563
vt 0.5244141 0.9780273
vt 0.7236328 0.9780273
vt 0.7236328 0.9101563
vt 0.7236328 0.8730469
vt 0.7236328 0.8017578
vt 0.5244141 0.8017578
vt 0.5244141 0.8730469
vt 0.7236328 0.9780273
vt 0.7236328 0.9101563
vt 0.5244141 0.9101563
vt 0.5244141 0.9780273
vt 0.7392578 0.2142334
vt 0.7392578 0.2893066
vt 0.9892578 0.2893066
vt 0.9892578 0.2142334
vt 0.4604492 0.02629089
vt 0.7236328 0.1210938
vt 0.7236328 0.02629089
vt 0.4604492 0.1210938
vt 0.7236328 0.6689453
vt 0.4604492 0.6689453
vt 0.7236328 0.765625
vt 0.4604492 0.765625
vt 0.9892578 0.2893066
vt 0.9892578 0.2142334
vt 0.7392578 0.2142334
vt 0.7392578 0.2893066
vt 0.7236328 0.765625
vt 0.4604492 0.6689453
vt 0.4604492 0.765625
vt 0.7236328 0.6689453
vt 0.4604492 0.1210938
vt 0.7236328 0.1210938
vt 0.4604492 0.02629089
vt 0.7236328 0.02629089
vt 0.1051636 0.2254639
vt 0.1051636 0.3005371
vt 0.149292 0.3005371
vt 0.149292 0.2254639
vt 0.3986816 0.2254639
vt 0.3986816 0.3005371
vt 0.4418945 0.2254639
vt 0.4418945 0.3005371
vt 0.1051636 0.3005371
vt 0.1483154 0.2254639
vt 0.1051636 0.2254639
vt 0.1483154 0.3005371
vt 0.3979492 0.2254639
vt 0.3979492 0.3005371
vt 0.4418945 0.2254639
vt 0.4418945 0.3005371
vt 0.7392578 0.3317871
vt 0.7392578 0.4025879
vt 0.9892578 0.4025879
vt 0.9892578 0.3317871
vt 0.7392578 0.4384766
vt 0.7392578 0.7407227
vt 0.9892578 0.7407227
vt 0.9892578 0.4384766
vt 0.262207 0.7783203
vt 0.262207 0.6967773
vt 0.01229095 0.6967773
vt 0.01229095 0.7783203
vt 0.9892578 0.9775391
vt 0.9892578 0.7714844
vt 0.7392578 0.7714844
vt 0.7392578 0.9775391
vt 0.3068848 0.9716797
vt 0.5053711 0.9716797
vt 0.4731445 0.8989258
vt 0.2746582 0.8989258
vt 0.3083496 0.7963867
vt 0.2753906 0.8710938
vt 0.4741211 0.8710938
vt 0.5068359 0.7963867
vt 0.262207 0.9736328
vt 0.262207 0.8959961
vt 0.01229095 0.8959961
vt 0.01229095 0.9736328
vn -1 0 0
vn -1 0 0
vn -1 0 0
vn 1 0 0
vn 1 0 0
vn 1 0 0
vn 0 0 1
vn 0 0 1
vn 0 0 1
vn 0 0 1
vn 0 0 1
vn 0 0 1
vn 0 1 0
vn 0 1 0.01861572
vn 0 1 0
vn 0 1 0.01861572
vn 0 1 -0.01858521
vn 0 1 -0.01858521
vn 0 1 0
vn 0 1 0
vn 0 0 -1
vn 0 0 -1
vn 0 0 -1
vn 0 0 -1
vn 0 0 -1
vn 0 0 -1
vn 0 -1 0
vn 0 -1 0.01047516
vn 0 -1 0
vn 0 -1 0.01047516
vn 0 -1 -0.01046753
vn 0 -1 -0.01046753
vn 0 -1 0
vn 0 -1 0
vn -1 0 0.009719849
vn -1 0 0
vn -0.9931641 0 0.1183472
vn -1 0 0.01000977
vn -1 0 0
vn -1 0 -0.009735107
vn -1 0 -0.01002502
vn -0.9931641 0 -0.1168823
vn -1 0 0
vn -1 0 0
vn 1 0 0
vn 0.9931641 0 -0.1168823
vn 1 0 -0.009735107
vn 1 0 -0.01002502
vn 1 0 0
vn 1 0 0.009719849
vn 1 0 0.01000977
vn 0.9931641 0 0.1183472
vn 1 0 0
vn 1 0 0
vn 0 0 1
vn 0 0 1
vn 0 0 1
vn 0 0 1
vn 0 0 -1
vn 0 0 -1
vn 0 0 -1
vn 0 0 -1
vn -1 0 0
vn -1 0 0
vn -1 0 0
vn -1 0 0
vn 1 0 0
vn 1 0 0
vn 1 0 0
vn 1 0 0
vn 0 0 1
vn 0 0 1
vn 0 0 1
vn 0 0 1
vn 0 0 -1
vn 0 0 -1
vn 0 0 -1
vn 0 0 -1
vn -1 0 0
vn -1 0 0
vn -0.9995117 0 -0.0254364
vn -0.9995117 0 -0.02783203
vn -0.9995117 0 0.02810669
vn -0.9995117 0 0.02557373
vn -1 0 0
vn -1 0 0
vn 1 0 0
vn 1 0 0
vn 1 0 0.02189636
vn 1 0 0.01998901
vn 1 0 -0.02009583
vn 0.9995117 0 -0.02212524
vn 1 0 0
vn 1 0 0
vn 0 0 1
vn 0 0 1
vn 0 0 1
vn 0 0 1
vn 0 0 -1
vn 0 0 -1
vn 0 0 -1
vn 0 0 -1
vn 1 0 0
vn 0.9995117 0 -0.0254364
vn 1 0 0
vn 0.9995117 0 -0.02783203
vn 0.9995117 0 0.02557373
vn 0.9995117 0 0.02810669
vn 1 0 0
vn 1 0 0
vn -1 0 0
vn -1 0 0.02189636
vn -1 0 0
vn -1 0 0.01998901
vn -0.9995117 0 -0.02212524
vn -1 0 -0.02009583
vn -1 0 0
vn -1 0 0
vn 0 0 1
vn 0 0 1
vn 0 0 1
vn 0 0 1
vn 0 1 0
vn 0 1 0
vn 0 1 0
vn 0 1 0
vn 0 0 -1
vn 0 0 -1
vn 0 0 -1
vn 0 0 -1
vn 0 -1 0
vn 0 -1 0
vn 0 -1 0
vn 0 -1 0
vn 0 0 1
vn 0 0 1
vn 0 0 1
vn 0 0 1
vn 0 1 0
vn 0 1 0
vn 0 1 0
vn 0 1 0
vn 0 1 -0.01548004
vn 0 1 -0.01548004
vn 0 1 0
vn 0 1 0
vn 0 0 -1
vn 0 0 -1
vn 0 0 -1
vn 0 0 -1
vn 0 -1 0
vn 0 -1 0
vn 0 -1 0
vn 0 -1 0
vn 0 -1 0
vn 0 -1 0
vn 0 -1 0
vn 0 -1 0
vn -1 0 0
vn -1 0 0
vn -1 0 -0.02079773
vn -0.9995117 0 -0.02218628
vn -0.9995117 0 0.02362061
vn -0.9995117 0 0.02362061
vn -1 0 0
vn -1 0 0
vn 1 0 0
vn 0.9995117 0 0.02362061
vn 1 0 0
vn 0.9995117 0 0.02362061
vn 0.9995117 0 -0.02218628
vn 1 0 -0.02079773
vn 1 0 0
vn 1 0 0
vn 0 0 1
vn 0 0 1
vn 0 0 1
vn 0 0 1
vn 0 0.7333984 0.6796875
vn 0 0.7333984 0.6796875
vn 0 0.7333984 0.6796875
vn 0 0.7333984 0.6796875
vn 0 0 -1
vn 0 0 -1
vn 0 0 -1
vn 0 0 -1
vn 0 -1 0
vn 0 -1 0
vn 0 -1 0
vn 0 -1 0
vn 1 0 0
vn 1 0 0
vn 1 0 0
vn 1 0 0
vn -1 0 0
vn -1 0 0
vn -1 0 0
vn -1 0 0
vn 0 0 -1
vn 0 0 -1
vn 0 0 -1
vn 0 0 -1
g t015v001_h_0
f 3/3/3 2/2/2 1/1/1
f 6/6/6 5/5/5 4/4/4
f 9/9/9 8/8/8 7/7/7
f 10/10/10 9/9/9 7/7/7
f 10/10/10 7/7/7 11/11/11
f 12/12/12 10/10/10 11/11/11
f 15/15/15 14/14/14 13/13/13
f 14/14/14 16/16/16 13/13/13
f 14/14/14 17/17/17 16/16/16
f 17/17/17 18/18/18 16/16/16
f 17/17/17 19/19/19 18/18/18
f 19/19/19 20/20/20 18/18/18
f 23/23/23 22/22/22 21/21/21
f 22/22/22 24/24/24 21/21/21
f 22/22/22 25/25/25 24/24/24
f 25/25/25 26/26/26 24/24/24
f 29/29/29 28/28/28 27/27/27
f 28/28/28 30/30/30 27/27/27
f 28/28/28 31/31/31 30/30/30
f 31/31/31 32/32/32 30/30/30
f 31/31/31 33/33/33 32/32/32
f 33/33/33 34/34/34 32/32/32
f 37/37/37 36/36/36 35/35/35
f 37/37/37 35/35/35 38/38/38
f 37/37/37 38/38/38 39/39/39
f 35/35/35 40/40/40 38/38/38
f 40/40/40 41/41/41 38/38/38
f 40/40/40 42/42/42 41/41/41
f 42/42/42 43/43/43 41/41/41
f 40/40/40 44/44/44 42/42/42
f 47/47/47 46/46/46 45/45/45
f 47/47/47 48/48/48 46/46/46
f 48/48/48 49/49/49 46/46/46
f 47/47/47 50/50/50 48/48/48
f 50/50/50 51/51/51 48/48/48
f 50/50/50 52/52/52 51/51/51
f 52/52/52 53/53/53 51/51/51
f 50/50/50 54/54/54 52/52/52
f 57/57/57 56/56/56 55/55/55
f 58/58/58 57/57/57 55/55/55
f 61/61/61 60/60/60 59/59/59
f 62/62/62 61/61/61 59/59/59
f 65/65/65 64/64/64 63/63/63
f 66/66/66 65/65/65 63/63/63
f 69/69/69 68/68/68 67/67/67
f 70/70/70 69/69/69 67/67/67
f 73/73/73 72/72/72 71/71/71
f 74/74/74 73/73/73 71/71/71
f 77/77/77 76/76/76 75/75/75
f 78/78/78 77/77/77 75/75/75
f 81/81/81 80/80/80 79/79/79
f 82/82/82 81/81/81 79/79/79
f 82/82/82 83/83/83 81/81/81
f 83/83/83 84/84/84 81/81/81
f 83/83/83 85/85/85 84/84/84
f 85/85/85 86/86/86 84/84/84
f 89/89/89 88/88/88 87/87/87
f 90/90/90 89/89/89 87/87/87
f 90/90/90 91/91/91 89/89/89
f 91/91/91 92/92/92 89/89/89
f 91/91/91 93/93/93 92/92/92
f 93/93/93 94/94/94 92/92/92
f 97/97/97 96/96/96 95/95/95
f 98/98/98 97/97/97 95/95/95
f 101/101/101 100/100/100 99/99/99
f 102/102/102 101/101/101 99/99/99
f 105/105/105 104/104/104 103/103/103
f 104/104/104 106/106/106 103/103/103
f 104/104/104 107/107/107 106/106/106
f 107/107/107 108/108/108 106/106/106
f 107/107/107 109/109/109 108/108/108
f 109/109/109 110/110/110 108/108/108
f 113/113/113 112/112/112 111/111/111
f 112/112/112 114/114/114 111/111/111
f 112/112/112 115/115/115 114/114/114
f 115/115/115 116/116/116 114/114/114
f 115/115/115 117/117/117 116/116/116
f 117/117/117 118/118/118 116/116/116
f 121/121/121 120/120/120 119/119/119
f 122/122/122 121/121/121 119/119/119
f 125/125/125 124/124/124 123/123/123
f 126/126/126 125/125/125 123/123/123
f 129/129/129 128/128/128 127/127/127
f 130/130/130 129/129/129 127/127/127
f 133/133/133 132/132/132 131/131/131
f 134/134/134 133/133/133 131/131/131
f 137/137/137 136/136/136 135/135/135
f 138/138/138 137/137/137 135/135/135
f 141/141/141 140/140/140 139/139/139
f 140/140/140 142/142/142 139/139/139
f 140/140/140 143/143/143 142/142/142
f 143/143/143 144/144/144 142/142/142
f 143/143/143 145/145/145 144/144/144
f 145/145/145 146/146/146 144/144/144
f 149/149/149 148/148/148 147/147/147
f 150/150/150 149/149/149 147/147/147
f 153/153/153 152/152/152 151/151/151
f 152/152/152 154/154/154 151/151/151
f 152/152/152 155/155/155 154/154/154
f 155/155/155 156/156/156 154/154/154
f 155/155/155 157/157/157 156/156/156
f 157/157/157 158/158/158 156/156/156
f 161/161/161 160/160/160 159/159/159
f 162/162/162 161/161/161 159/159/159
f 162/162/162 163/163/163 161/161/161
f 163/163/163 164/164/164 161/161/161
f 163/163/163 165/165/165 164/164/164
f 165/165/165 166/166/166 164/164/164
f 169/169/169 168/168/168 167/167/167
f 168/168/168 170/170/170 167/167/167
f 168/168/168 171/171/171 170/170/170
f 171/171/171 172/172/172 170/170/170
f 171/171/171 173/173/173 172/172/172
f 173/173/173 174/174/174 172/172/172
f 177/177/177 176/176/176 175/175/175
f 178/178/178 177/177/177 175/175/175
f 181/181/181 180/180/180 179/179/179
f 182/182/182 181/181/181 179/179/179
f 185/185/185 184/184/184 183/183/183
f 186/186/186 185/185/185 183/183/183
f 189/189/189 188/188/188 187/187/187
f 190/190/190 189/189/189 187/187/187
f 193/193/193 192/192/192 191/191/191
f 194/194/194 193/193/193 191/191/191
f 197/197/197 196/196/196 195/195/195
f 198/198/198 197/197/197 195/195/195
f 201/201/201 200/200/200 199/199/199
f 202/202/202 201/201/201 199/199/199
