g p022v001_l
v -0.9190526 1.328308 -0.0829346
v -0.9753718 1.259229 -0.06687115
v -0.9843154 1.294879 -0.1593216
v 0.2969885 2.155762 -0.7711238
v 0.2394552 2.184103 -0.799693
v 0.2462974 2.107583 -0.8328776
v -0.2310648 -0.2536277 -0.1447912
v -0.1582379 -0.2536277 0.2368152
v 0.2075124 -0.2536277 0.01598806
v -0.2310648 -0.2536277 -0.1447912
v -0.2637691 1.501327 0.1298389
v -0.1582379 -0.2536277 0.2368152
v -0.3793211 1.578294 -0.1490585
v 0.2075124 -0.2536277 0.01598806
v -1.197324 2.780759 0.2569351
v -1.122481 2.756585 0.4342324
v -1.036532 2.721083 0.3079699
v -0.0897007 1.692458 -0.02723251
v -0.1582379 -0.2536277 0.2368152
v -1.122481 2.756585 0.4342324
v -0.2637691 1.501327 0.1298389
v -0.2591767 0.709962 -0.1123446
v -0.9753718 1.259229 -0.06687115
v -0.2335224 0.6266796 0.03715257
v -0.9843154 1.294879 -0.1593216
v -0.9190526 1.328308 -0.0829346
v -0.2116241 0.8541436 -0.00510738
v -0.2335224 0.6266796 0.03715257
v -0.9753718 1.259229 -0.06687115
v 0.2969885 2.155762 -0.7711238
v 0.2462974 2.107583 -0.8328776
v -0.214622 1.058557 -0.07744887
v -0.1001964 1.189218 0.03495106
v -0.2543154 1.202458 0.01875325
v 0.2394552 2.184103 -0.799693
v -0.214622 1.058557 -0.07744887
v 0.2462974 2.107583 -0.8328776
v -1.036532 2.721083 0.3079699
v -1.122481 2.756585 0.4342324
v -1.132735 2.793853 0.2911409
v -1.197324 2.780759 0.2569351
vt 0.8945313 0.1268311
vt 0.7817383 0.1368408
vt 0.8183594 0.1740723
vt 0.9165039 0.1428223
vt 0.8271484 0.1237793
vt 0.8183594 0.1740723
vt 0.7783203 0.3376465
vt 0.8012695 0.2027588
vt 0.9174805 0.2807617
vt 0.4924316 0.005435944
vt 0.6083984 0.5097656
vt 0.6083984 0.005435944
vt 0.4709473 0.5097656
vt 0.2349854 0.005435944
vt 0.3737793 0.9755859
vt 0.4299316 0.972168
vt 0.2910156 0.9316406
vt 0.2614746 0.5063477
vt 0.004447937 0.005435944
vt 0.2006836 0.9711914
vt 0.004447937 0.5097656
vt 0.9086914 0.5571289
vt 0.996582 0.8930664
vt 0.996582 0.5288086
vt 0.9086914 0.9003906
vt 0.7504883 0.8896484
vt 0.7504883 0.5820313
vt 0.6142578 0.5317383
vt 0.6142578 0.8901367
vt 0.9086914 0.9750977
vt 0.996582 0.9614258
vt 0.996582 0.5195313
vt 0.9086914 0.5297852
vt 0.7504883 0.5263672
vt 0.7504883 0.9736328
vt 0.6142578 0.5195313
vt 0.6142578 0.9609375
vt 0.8286133 0.310791
vt 0.7949219 0.4128418
vt 0.8344727 0.3703613
vt 0.8681641 0.4013672
vn 0.5405273 0.8295898 0.1418457
vn -0.5737305 -0.5493164 0.6074219
vn -0.1229858 -0.1679688 -0.9780273
vn 0.8271484 0.1322021 0.5458984
vn -0.7631836 0.5996094 0.2399902
vn -0.1000366 -0.5449219 -0.8325195
vn 0 -1 0
vn 0 -1 0
vn 0 -1 0
vn -0.4848633 -0.02018738 -0.8745117
vn -0.2415771 -0.05715942 0.96875
vn -0.3027344 0.03359985 0.9526367
vn -0.4101563 -0.08197021 -0.9082031
vn 0.9560547 0.1274414 -0.2631836
vn -0.8505859 -0.4562988 -0.2612305
vn -0.6157227 -0.5415039 0.5727539
vn 0.7270508 0.6650391 -0.1710205
vn 0.8637695 0.3378906 -0.3742676
vn -0.3027344 0.03359985 0.9526367
vn -0.6157227 -0.5415039 0.5727539
vn -0.2415771 -0.05715942 0.96875
vn -0.3144531 -0.4335938 -0.8442383
vn -0.5737305 -0.5493164 0.6074219
vn -0.5263672 -0.5097656 0.6806641
vn -0.1229858 -0.1679688 -0.9780273
vn 0.5405273 0.8295898 0.1418457
vn 0.4626465 0.7397461 0.4882813
vn -0.5263672 -0.5097656 0.6806641
vn -0.5737305 -0.5493164 0.6074219
vn 0.8271484 0.1322021 0.5458984
vn -0.1000366 -0.5449219 -0.8325195
vn -0.07287598 -0.5605469 -0.8251953
vn 0.9287109 -0.07574463 0.3630371
vn -0.875 0.480957 0.0534668
vn -0.7631836 0.5996094 0.2399902
vn -0.07287598 -0.5605469 -0.8251953
vn -0.1000366 -0.5449219 -0.8325195
vn 0.7270508 0.6650391 -0.1710205
vn -0.6157227 -0.5415039 0.5727539
vn 0.279541 0.953125 -0.1159668
vn -0.8505859 -0.4562988 -0.2612305
g p022v001_l_0
f 3/3/3 2/2/2 1/1/1
f 6/6/6 5/5/5 4/4/4
f 9/9/9 8/8/8 7/7/7
f 12/12/12 11/11/11 10/10/10
f 11/11/11 13/13/13 10/10/10
f 10/10/10 13/13/13 14/14/14
f 15/15/15 13/13/13 11/11/11
f 16/16/16 15/15/15 11/11/11
f 15/15/15 17/17/17 13/13/13
f 13/13/13 18/18/18 14/14/14
f 17/17/17 18/18/18 13/13/13
f 14/14/14 18/18/18 19/19/19
f 17/17/17 20/20/20 18/18/18
f 18/18/18 21/21/21 19/19/19
f 20/20/20 21/21/21 18/18/18
f 24/24/24 23/23/23 22/22/22
f 23/23/23 25/25/25 22/22/22
f 22/22/22 25/25/25 26/26/26
f 27/27/27 22/22/22 26/26/26
f 27/27/27 26/26/26 28/28/28
f 26/26/26 29/29/29 28/28/28
f 32/32/32 31/31/31 30/30/30
f 33/33/33 32/32/32 30/30/30
f 33/33/33 30/30/30 34/34/34
f 30/30/30 35/35/35 34/34/34
f 34/34/34 35/35/35 36/36/36
f 35/35/35 37/37/37 36/36/36
f 40/40/40 39/39/39 38/38/38
f 38/38/38 41/41/41 40/40/40
f 39/39/39 40/40/40 41/41/41
