g n014v001_l
v -0.1875 0.9375 -0.355102
v -0.125 0.9375 -0.355102
v -0.1875 0.875 -0.355102
v -0.0625 0.9375 -0.355102
v 0.1875 0.875 -0.355102
v 0.0625 0.9375 -0.355102
v 0.0625 1 -0.355102
v -0.0625 1 -0.355102
v 0.125 0.9375 -0.355102
v 0.1875 0.9375 -0.355102
v 0.25 0.5 -0.355102
v 0.25 0.875 -0.355102
v -0.25 0.5 -0.355102
v -0.25 0.875 -0.355102
v -0.25 0.4375 -0.355102
v 0.25 0.4375 -0.355102
v 0.3125 0.25 -0.355102
v 0.3125 0.4375 -0.355102
v -0.3125 0.25 -0.355102
v -0.3125 0.4375 -0.355102
v 0.3125 0.1875 -0.355102
v -0.3125 0.1875 -0.355102
v 0.375 5E-15 -0.355102
v 0.375 0.1875 -0.355102
v -0.375 5E-15 -0.355102
v -0.375 0.1875 -0.355102
v 0.0625 0.9375 -0.3564302
v 0.0625 1 -0.3564302
v -0.0625 1 -0.3564302
v -0.0625 0.9375 -0.3564302
v 0.1875 0.875 -0.3564302
v 0.125 0.9375 -0.3564302
v 0.1875 0.9375 -0.3564302
v -0.1875 0.875 -0.3564302
v -0.125 0.9375 -0.3564302
v -0.1875 0.9375 -0.3564302
v -0.25 0.4375 -0.3564302
v -0.25 0.875 -0.3564302
v 0.25 0.4375 -0.3564302
v 0.25 0.875 -0.3564302
v -0.3125 0.25 -0.3564302
v -0.3125 0.4375 -0.3564302
v 0.3125 0.25 -0.3564302
v 0.3125 0.4375 -0.3564302
v -0.3125 0.1875 -0.3564302
v 0.3125 0.1875 -0.3564302
v 0.375 -5E-15 -0.3564302
v 0.375 0.1875 -0.3564302
v -0.375 -5E-15 -0.3564302
v -0.375 0.1875 -0.3564302
vt 0.65625 0.46875
vt 0.6875 0.46875
vt 0.65625 0.4375
vt 0.71875 0.46875
vt 0.84375 0.4375
vt 0.78125 0.46875
vt 0.78125 0.5
vt 0.71875 0.5
vt 0.8125 0.46875
vt 0.84375 0.46875
vt 0.875 0.25
vt 0.875 0.4375
vt 0.625 0.25
vt 0.625 0.4375
vt 0.625 0.21875
vt 0.875 0.21875
vt 0.90625 0.125
vt 0.90625 0.21875
vt 0.59375 0.125
vt 0.59375 0.21875
vt 0.90625 0.09375
vt 0.59375 0.09375
vt 0.9375 0
vt 0.9375 0.09375
vt 0.5625 0
vt 0.5625 0.09375
vt 0.78125 0.53125
vt 0.78125 0.5
vt 0.71875 0.5
vt 0.71875 0.53125
vt 0.84375 0.5625
vt 0.8125 0.53125
vt 0.84375 0.53125
vt 0.65625 0.5625
vt 0.6875 0.53125
vt 0.65625 0.53125
vt 0.625 0.78125
vt 0.625 0.5625
vt 0.875 0.78125
vt 0.875 0.5625
vt 0.59375 0.875
vt 0.59375 0.78125
vt 0.90625 0.875
vt 0.90625 0.78125
vt 0.59375 0.90625
vt 0.90625 0.90625
vt 0.9375 1
vt 0.9375 0.90625
vt 0.5625 1
vt 0.5625 0.90625
vn 0 0 1
vn 0 0 1
vn 0 0 1
vn 0 0 1
vn 0 0 1
vn 0 0 1
vn 0 0 1
vn 0 0 1
vn 0 0 1
vn 0 0 1
vn 0 0 1
vn 0 0 1
vn 0 0 1
vn 0 0 1
vn 0 0 1
vn 0 0 1
vn 0 0 1
vn 0 0 1
vn 0 0 1
vn 0 0 1
vn 0 0 1
vn 0 0 1
vn 0 0 1
vn 0 0 1
vn 0 0 1
vn 0 0 1
vn 0 0 -1
vn 0 0 -1
vn 0 0 -1
vn 0 0 -1
vn 0 0 -1
vn 0 0 -1
vn 0 0 -1
vn 0 0 -1
vn 0 0 -1
vn 0 0 -1
vn 0 0 -1
vn 0 0 -1
vn 0 0 -1
vn 0 0 -1
vn 0 0 -1
vn 0 0 -1
vn 0 0 -1
vn 0 0 -1
vn 0 0 -1
vn 0 0 -1
vn 0 0 -1
vn 0 0 -1
vn 0 0 -1
vn 0 0 -1
g n014v001_l_0
f 3/3/3 2/2/2 1/1/1
f 4/4/4 2/2/2 3/3/3
f 3/3/3 5/5/5 4/4/4
f 5/5/5 6/6/6 4/4/4
f 4/4/4 6/6/6 7/7/7
f 8/8/8 4/4/4 7/7/7
f 5/5/5 9/9/9 6/6/6
f 5/5/5 10/10/10 9/9/9
f 11/11/11 5/5/5 3/3/3
f 5/5/5 11/11/11 12/12/12
f 13/13/13 11/11/11 3/3/3
f 3/3/3 14/14/14 13/13/13
f 11/11/11 13/13/13 15/15/15
f 16/16/16 11/11/11 15/15/15
f 17/17/17 16/16/16 15/15/15
f 16/16/16 17/17/17 18/18/18
f 19/19/19 17/17/17 15/15/15
f 19/19/19 15/15/15 20/20/20
f 17/17/17 19/19/19 21/21/21
f 19/19/19 22/22/22 21/21/21
f 23/23/23 21/21/21 22/22/22
f 21/21/21 23/23/23 24/24/24
f 25/25/25 23/23/23 22/22/22
f 25/25/25 22/22/22 26/26/26
f 29/29/29 28/28/28 27/27/27
f 30/30/30 29/29/29 27/27/27
f 30/30/30 27/27/27 31/31/31
f 32/32/32 31/31/31 27/27/27
f 33/33/33 31/31/31 32/32/32
f 34/34/34 30/30/30 31/31/31
f 34/34/34 35/35/35 30/30/30
f 34/34/34 36/36/36 35/35/35
f 37/37/37 34/34/34 31/31/31
f 34/34/34 37/37/37 38/38/38
f 39/39/39 37/37/37 31/31/31
f 31/31/31 40/40/40 39/39/39
f 41/41/41 37/37/37 39/39/39
f 37/37/37 41/41/41 42/42/42
f 43/43/43 41/41/41 39/39/39
f 39/39/39 44/44/44 43/43/43
f 41/41/41 43/43/43 45/45/45
f 43/43/43 46/46/46 45/45/45
f 45/45/45 46/46/46 47/47/47
f 47/47/47 46/46/46 48/48/48
f 49/49/49 45/45/45 47/47/47
f 49/49/49 50/50/50 45/45/45
