g b007v001_l
v -0.341985 0 0.341985
v -0.1873679 0.3 0.1873679
v 0.1873679 0.3 0.1873679
v 0.341985 0 0.341985
v -0.1873679 0.3 0.1873679
v -0.1873679 0.3 -0.1873679
v 0.1873679 0.3 -0.1873679
v 0.1873679 0.3 0.1873679
v -0.1873679 0.3 -0.1873679
v -0.341985 0 -0.341985
v 0.341985 0 -0.341985
v 0.1873679 0.3 -0.1873679
v -0.341985 0 -0.341985
v -0.341985 0 0.341985
v 0.341985 0 0.341985
v 0.341985 0 -0.341985
v 0.341985 0 0.341985
v 0.1873679 0.3 0.1873679
v 0.1873679 0.3 -0.1873679
v 0.341985 0 -0.341985
v -0.341985 0 -0.341985
v -0.1873679 0.3 -0.1873679
v -0.1873679 0.3 0.1873679
v -0.341985 0 0.341985
vt 0.03585815 0.4938965
vt 0.2084961 0.6777344
vt 0.6269531 0.6777344
vt 0.7993164 0.4938965
vt 0.05331421 0.02322388
vt 0.05331421 0.2324219
vt 0.4716797 0.2324219
vt 0.4716797 0.02322388
vt 0.6269531 0.6777344
vt 0.7993164 0.4938965
vt 0.03585815 0.4938965
vt 0.2084961 0.6777344
vt 0.581543 0.9868164
vt 0.581543 0.7084961
vt 0.0252533 0.7084961
vt 0.0252533 0.9868164
vt 0.03585815 0.2746582
vt 0.2084961 0.4584961
vt 0.6269531 0.4584961
vt 0.7993164 0.2746582
vt 0.03585815 0.2746582
vt 0.2084961 0.4584961
vt 0.6269531 0.4584961
vt 0.7993164 0.2746582
vn 0 0.4580078 0.8886719
vn 0 0.4580078 0.8886719
vn 0 0.4580078 0.8886719
vn 0 0.4580078 0.8886719
vn 0 1 0
vn 0 1 0
vn 0 1 0
vn 0 1 0
vn 0 0.4580078 -0.8886719
vn 0 0.4580078 -0.8886719
vn 0 0.4580078 -0.8886719
vn 0 0.4580078 -0.8886719
vn 0 -1 0
vn 0 -1 0
vn 0 -1 0
vn 0 -1 0
vn 0.8886719 0.4580078 0
vn 0.8886719 0.4580078 0
vn 0.8886719 0.4580078 0
vn 0.8886719 0.4580078 0
vn -0.8886719 0.4580078 0
vn -0.8886719 0.4580078 0
vn -0.8886719 0.4580078 0
vn -0.8886719 0.4580078 0
g b007v001_l_0
f 3/3/3 2/2/2 1/1/1
f 4/4/4 3/3/3 1/1/1
f 7/7/7 6/6/6 5/5/5
f 8/8/8 7/7/7 5/5/5
f 11/11/11 10/10/10 9/9/9
f 12/12/12 11/11/11 9/9/9
f 15/15/15 14/14/14 13/13/13
f 16/16/16 15/15/15 13/13/13
f 19/19/19 18/18/18 17/17/17
f 20/20/20 19/19/19 17/17/17
f 23/23/23 22/22/22 21/21/21
f 24/24/24 23/23/23 21/21/21
