g p019v001_h
v -0.4357629 0.1786052 0.4218334
v -0.3223433 0.09768093 0.07056141
v -0.1331744 0.1038558 0.1876699
v -0.1498179 -0.0275833 0.01006818
v -0.295176 0.1718015 -0.6669419
v -0.03171301 0.09520209 -0.4371918
v -0.2151284 0.1111778 -0.3062297
v -0.04043245 -0.02746445 -0.2563579
v 0.6536247 0.1687812 0.2090429
v 0.3022646 0.09689458 0.1866804
v 0.383873 0.1014212 -0.02564108
v 0.1929422 -0.02782062 0.02399144
v 0.3567256 0.03223602 -0.05109099
v -0.01349038 0.1195369 0.3423128
v -0.02508404 0.0001763585 -0.03949738
v -0.03667771 0.08041885 -0.421307
v -0.4068942 0.06954808 -0.02790383
v -0.6657578 0.03190288 0.4755511
v -0.4807678 0.1135465 -0.04562441
v -0.3126733 -0.0009178068 0.3074598
v -0.1445801 0.06091867 0.6605426
v 0.04041115 0.04296411 0.1393677
v -0.6428859 0.02957938 -0.4268543
v -0.2031603 0.1049398 -0.5924367
v -0.3402337 0.007688927 -0.2897817
v -0.4773071 0.06802768 0.0128729
v -0.03758199 0.07310942 -0.152709
v 0.5411614 0.03218069 -0.04285769
v -0.001954839 0.1128952 0.01998239
v 0.2381828 -0.000266497 -0.2829979
v 0.4783229 0.06251762 -0.585976
v -0.06479637 0.06994404 -0.5231362
v 0.59867 0.03175518 0.1544376
v 0.3924347 0.1246742 0.6711865
v 0.2371779 -0.001264314 0.3096938
v 0.08192127 0.07018434 -0.05179821
v -0.1243149 0.07018434 0.4649503
vt 1 1
vt 0.5698242 0.8081055
vt 0.8618164 0.4741211
vt 0.5039063 0.4672852
vt 1 1
vt 0.5698242 0.8081055
vt 0.8618164 0.4741211
vt 0.5039063 0.4672852
vt 1 1
vt 0.5698242 0.8081055
vt 0.8618164 0.4741211
vt 0.5039063 0.4672852
vt 0 1
vt 1 1
vt 0.5039063 0.4672852
vt 0 0
vt 1 0
vt 0 1
vt 1 1
vt 0.5039063 0.4672852
vt 0 0
vt 1 0
vt 0 1
vt 1 1
vt 0.5039063 0.4672852
vt 0 0
vt 1 0
vt 0 1
vt 1 1
vt 0.5039063 0.4672852
vt 0 0
vt 1 0
vt 0 1
vt 1 1
vt 0.5039063 0.4672852
vt 0 0
vt 1 0
vn -0.0239563 0.996582 0.07806396
vn -0.01216125 0.9990234 0.04165649
vn 0.00831604 0.9985352 0.05422974
vn 0.006725311 0.9995117 0.03613281
vn -0.04226685 0.9975586 -0.05264282
vn -0.01496124 0.996582 -0.08154297
vn -0.002386093 0.9980469 -0.06103516
vn 0.004814148 0.996582 -0.08056641
vn 0.07885742 0.996582 0.03128052
vn 0.04977417 0.9985352 0.004447937
vn 0.06964111 0.9975586 -0.009017944
vn 0.05157471 0.9985352 -0.01679993
vn 0.04885864 0.9985352 -0.009010315
vn -0.0007748604 0.9990234 0.04281616
vn -0.002370834 1 -0.007534027
vn -0.003858566 0.9985352 -0.05801392
vn -0.05297852 0.9985352 -0.005840302
vn -0.08422852 0.9931641 0.07891846
vn -0.07678223 0.9970703 0.006996155
vn -0.04592896 0.9980469 0.04666138
vn -0.01231384 0.996582 0.08428955
vn -0.006385803 1 0.01306915
vn -0.09283447 0.9936523 -0.0670166
vn -0.02336121 0.9960938 -0.08605957
vn -0.0486145 0.9980469 -0.04348755
vn -0.07165527 0.9975586 0.00194931
vn -0.003091812 1 -0.01869202
vn 0.0814209 0.996582 -0.01956177
vn 0.0125885 1 0.0031147
vn 0.03616333 0.9985352 -0.04296875
vn 0.0579834 0.9946289 -0.08709717
vn -0.009811401 0.9980469 -0.06481934
vn 0.07409668 0.9970703 0.008850098
vn 0.07226563 0.9941406 0.0791626
vn 0.03829956 0.9980469 0.04547119
vn 0.001739502 1 0.008781433
vn 0.00173378 0.996582 0.08032227
g p019v001_h_0
f 3/3/3 2/2/2 1/1/1
f 2/2/2 3/3/3 4/4/4
f 7/7/7 6/6/6 5/5/5
f 6/6/6 7/7/7 8/8/8
f 11/11/11 10/10/10 9/9/9
f 10/10/10 11/11/11 12/12/12
f 15/15/15 14/14/14 13/13/13
f 15/15/15 13/13/13 16/16/16
f 15/15/15 17/17/17 14/14/14
f 15/15/15 16/16/16 17/17/17
f 20/20/20 19/19/19 18/18/18
f 20/20/20 18/18/18 21/21/21
f 20/20/20 22/22/22 19/19/19
f 20/20/20 21/21/21 22/22/22
f 25/25/25 24/24/24 23/23/23
f 25/25/25 23/23/23 26/26/26
f 25/25/25 27/27/27 24/24/24
f 25/25/25 26/26/26 27/27/27
f 30/30/30 29/29/29 28/28/28
f 30/30/30 28/28/28 31/31/31
f 30/30/30 32/32/32 29/29/29
f 30/30/30 31/31/31 32/32/32
f 35/35/35 34/34/34 33/33/33
f 35/35/35 33/33/33 36/36/36
f 35/35/35 37/37/37 34/34/34
f 35/35/35 36/36/36 37/37/37
