g p028v001_l
v 1.921638 2.140681 0
v -0.6923109 3.663002 0
v 1.048824 3.663002 0
v -1.82984 2.467461 0
v -1.82984 1.234442 0
v 1.921638 1.468806 0
v 0.3268726 -2.220446E-16 0
v -0.293489 -2.220446E-16 0
vt 1 0.5839844
vt 0.3032227 0.9902344
vt 0.7675781 0.9902344
vt 7.867813E-06 0.6713867
vt 1.615286E-05 0.3427734
vt 1 0.4050293
vt 0.574707 0.01361084
vt 0.4094238 0.01361084
vn 0 0 1
vn 0 0 1
vn 0 0 1
vn 0 0 1
vn 0 0 1
vn 0 0 1
vn 0 0 1
vn 0 0 1
g p028v001_l_0
f 3/3/3 2/2/2 1/1/1
f 2/2/2 4/4/4 1/1/1
f 4/4/4 5/5/5 1/1/1
f 5/5/5 6/6/6 1/1/1
f 7/7/7 6/6/6 5/5/5
f 8/8/8 7/7/7 5/5/5
