#
# OBJECT NAME
#
o model_2906
mtllib 2906.mtl

#
# VERTEX BUFFER 000
#
v -1.2253 0 1.2253
v 1.2253 0 1.2253
v 1.2253 0.177994 1.2253
v -1.2253 0.177994 1.2253
v -1.2253 0.177994 1.2253
v 1.2253 0.177994 1.2253
v 1.2253 0.177994 -1.2253
v -1.2253 0.177994 -1.2253
v -1.2253 0.177994 -1.2253
v 1.2253 0.177994 -1.2253
v 1.2253 0 -1.2253
v -1.2253 0 -1.2253
v -1.2253 0 -1.2253
v 1.2253 0 -1.2253
v 1.2253 0 1.2253
v -1.2253 0 1.2253
v 1.2253 0 1.2253
v 1.2253 0 -1.2253
v 1.2253 0.177994 -1.2253
v 1.2253 0.177994 1.2253
v -1.2253 0 -1.2253
v -1.2253 0 1.2253
v -1.2253 0.177994 1.2253
v -1.2253 0.177994 -1.2253
v -0.845608 0.177994 0.845608
v 0.845608 0.177994 0.845608
v 0.845608 0.669441 0.845608
v -0.845608 0.669441 0.845608
v -0.845608 0.669441 -0.845608
v 0.845608 0.669441 -0.845608
v 0.845608 0.177994 -0.845608
v -0.845608 0.177994 -0.845608
v 0.845608 0.177994 0.845608
v 0.845608 0.177994 -0.845608
v 0.845608 0.669441 -0.845608
v 0.845608 0.669441 0.845608
v -0.845608 0.177994 -0.845608
v -0.845608 0.177994 0.845608
v -0.845608 0.669441 0.845608
v -0.845608 0.669441 -0.845608
v -1.5 0.75 1.5
v 1.5 0.75 1.5
v 1.5 0.75 -1.5
v -1.5 0.75 -1.5
v 0 0.331166 1.5
v 0.604744 0.454887 1.5
v -0.604744 0.454887 1.5
v 1.5 0.75 1.5
v 0.604744 0.454887 1.5
v 1.5 0.454887 1.5
v -1.5 0.75 1.5
v -0.604744 0.454887 1.5
v -1.5 0.454887 1.5
v 3.44463e-007 0.331166 -1.5
v -0.604744 0.454887 -1.5
v 0.604744 0.454887 -1.5
v -1.5 0.75 -1.5
v -0.604744 0.454887 -1.5
v -1.5 0.454887 -1.5
v 1.5 0.75 -1.5
v 0.604744 0.454887 -1.5
v 1.5 0.454887 -1.5
v 1.5 0.331166 -1.19209e-007
v 1.5 0.454887 -0.604744
v 1.5 0.454887 0.604744
v 1.5 0.75 -1.5
v 1.5 0.454887 -0.604744
v 1.5 0.454887 -1.5
v 1.5 0.75 1.5
v 1.5 0.454887 0.604744
v 1.5 0.454887 1.5
v -1.5 0.331166 -4.76837e-007
v -1.5 0.454887 0.604744
v -1.5 0.454887 -0.604744
v -1.5 0.75 1.5
v -1.5 0.454887 0.604744
v -1.5 0.454887 1.5
v -1.5 0.75 -1.5
v -1.5 0.454887 -0.604744
v -1.5 0.454887 -1.5

vn 0 0 1
vn 0 0 1
vn 0 0 1
vn 0 0 1
vn 0 1 0
vn 0 1 0
vn 0 1 0
vn 0 1 0
vn 0 0 -1
vn 0 0 -1
vn 0 0 -1
vn 0 0 -1
vn 0 -1 0
vn 0 -1 0
vn 0 -1 0
vn 0 -1 0
vn 1 0 0
vn 1 0 0
vn 1 0 0
vn 1 0 0
vn -1 0 0
vn -1 0 0
vn -1 0 0
vn -1 0 0
vn 0 0 1
vn 0 0 1
vn 0 0 1
vn 0 0 1
vn 0 0 -1
vn 0 0 -1
vn 0 0 -1
vn 0 0 -1
vn 1 0 0
vn 1 0 0
vn 1 0 0
vn 1 0 0
vn -1 0 0
vn -1 0 0
vn -1 0 0
vn -1 0 0
vn 0 1 0
vn 0 1 0
vn 0 1 0
vn 0 1 0
vn 0 0 1
vn 0 0 1
vn 0 0 1
vn 0 2.38419e-007 1
vn 0 2.38419e-007 1
vn 0 2.38419e-007 1
vn 0 0 1
vn 0 2.38419e-007 1
vn 0 0 1
vn -6.55651e-007 7.09295e-006 -1
vn 1.19209e-007 4.17233e-006 -1
vn 1.19209e-007 4.17233e-006 -1
vn -1.78814e-007 -1.19209e-007 -1
vn 0 0 -1
vn -5.96046e-007 -3.57628e-007 -1
vn 0 -1.19209e-007 -1
vn 0 0 -1
vn 0 -3.57628e-007 -1
vn 1 0 0
vn 1 7.98702e-006 0
vn 1 7.98702e-006 0
vn 1 4.76837e-007 0
vn 1 4.76837e-007 0
vn 1 4.76837e-007 0
vn 1 6.55651e-007 0
vn 1 4.76837e-007 0
vn 1 8.34465e-007 0
vn -1 0 7.15256e-007
vn -1 3.99351e-006 0
vn -1 3.99351e-006 0
vn -1 -2.98023e-007 0
vn -1 -4.76837e-007 0
vn -1 0 1.19209e-007
vn -1 0 1.19209e-007
vn -1 -4.76837e-007 0
vn -1 8.34465e-007 1.19209e-007

vt 0.870559 0.129469
vt 0.489766 0.129469
vt 0.489766 0.162732
vt 0.870559 0.162732
vt 0.488335 0.209772
vt 0.87255 0.209772
vt 0.87255 0.984575
vt 0.488335 0.984575
vt 0.87056 0.162732
vt 0.489766 0.162732
vt 0.489766 0.129469
vt 0.870559 0.129469
vt 0.488335 0.209772
vt 0.87255 0.209772
vt 0.87255 0.984575
vt 0.488335 0.984575
vt 0.870559 0.129469
vt 0.489766 0.129469
vt 0.489766 0.162732
vt 0.870559 0.162732
vt 0.870559 0.129469
vt 0.489766 0.129469
vt 0.489766 0.162732
vt 0.870559 0.162732
vt 0.899754 0.471019
vt 0.899754 0.970043
vt 0.975233 0.970043
vt 0.975233 0.471019
vt 0.899754 0.471019
vt 0.899754 0.970043
vt 0.975233 0.970043
vt 0.975233 0.471018
vt 0.899754 0.471572
vt 0.899754 0.969489
vt 0.975233 0.96842
vt 0.975233 0.470504
vt 0.899754 0.471019
vt 0.899754 0.970043
vt 0.975233 0.970043
vt 0.975233 0.471019
vt 0.00920579 0.153561
vt 0.42384 0.153561
vt 0.422753 0.984114
vt 0.00920579 0.984114
vt 0.240005 0.0089519
vt 0.334452 0.0405687
vt 0.145558 0.0405687
vt 0.471171 0.13311
vt 0.334452 0.0405687
vt 0.47115 0.0407163
vt 0.00792053 0.13311
vt 0.145558 0.0405687
vt 0.00794107 0.0407163
vt 0.240005 0.00972617
vt 0.334452 0.041343
vt 0.145558 0.041343
vt 0.471171 0.133884
vt 0.334452 0.041343
vt 0.47115 0.0414904
vt 0.00792053 0.133884
vt 0.145558 0.041343
vt 0.00794107 0.0414904
vt 0.240005 0.00948882
vt 0.334452 0.0411055
vt 0.145558 0.0411054
vt 0.471171 0.133647
vt 0.334452 0.0411055
vt 0.47115 0.0412531
vt 0.00792047 0.133647
vt 0.145558 0.0411054
vt 0.00794104 0.0412531
vt 0.240005 0.00952679
vt 0.334452 0.0411435
vt 0.145558 0.0411435
vt 0.471171 0.133685
vt 0.334452 0.0411435
vt 0.47115 0.0412909
vt 0.0079205 0.133685
vt 0.145558 0.0411435
vt 0.00794104 0.0412909


#
# MESH 000
#
g surface_000
usemtl surface_000
f 72/72/72 73/73/73 74/74/74
f 63/63/63 64/64/64 65/65/65
f 54/54/54 55/55/55 56/56/56
f 45/45/45 46/46/46 47/47/47
f 79/79/79 78/78/78 80/80/80
f 75/75/75 78/78/78 79/79/79
f 75/75/75 79/79/79 76/76/76
f 75/75/75 76/76/76 77/77/77
f 70/70/70 69/69/69 71/71/71
f 66/66/66 69/69/69 70/70/70
f 66/66/66 70/70/70 67/67/67
f 66/66/66 67/67/67 68/68/68
f 61/61/61 60/60/60 62/62/62
f 57/57/57 60/60/60 61/61/61
f 57/57/57 61/61/61 58/58/58
f 57/57/57 58/58/58 59/59/59
f 52/52/52 51/51/51 53/53/53
f 48/48/48 51/51/51 52/52/52
f 48/48/48 52/52/52 49/49/49
f 48/48/48 49/49/49 50/50/50
f 41/41/41 43/43/43 44/44/44
f 41/41/41 42/42/42 43/43/43
f 37/37/37 39/39/39 40/40/40
f 37/37/37 38/38/38 39/39/39
f 33/33/33 35/35/35 36/36/36
f 33/33/33 34/34/34 35/35/35
f 29/29/29 31/31/31 32/32/32
f 29/29/29 30/30/30 31/31/31
f 25/25/25 27/27/27 28/28/28
f 25/25/25 26/26/26 27/27/27
f 21/21/21 23/23/23 24/24/24
f 21/21/21 22/22/22 23/23/23
f 17/17/17 19/19/19 20/20/20
f 17/17/17 18/18/18 19/19/19
f 13/13/13 15/15/15 16/16/16
f 13/13/13 14/14/14 15/15/15
f 9/9/9 11/11/11 12/12/12
f 9/9/9 10/10/10 11/11/11
f 5/5/5 7/7/7 8/8/8
f 5/5/5 6/6/6 7/7/7
f 1/1/1 3/3/3 4/4/4
f 1/1/1 2/2/2 3/3/3

