g t004v001_m
v 0.1079235 0.8314131 -0.5
v 0.2321072 0.9161403 -0.4553957
v 0.06895539 0.9470811 -0.4411854
v 0.1580162 0.8078967 -0.3794165
v 0.3130005 0.9374753 -0.3269323
v 0.1079235 0.7945513 -0.2716093
v 0.1480113 0.9368562 -0.04913075
v -0.2054424 0.9278851 -0.106122
v -0.107954 0.8164662 -0.2678328
v -0.1598701 0.8395344 -0.3745436
v -0.2860387 0.9998032 -0.3568918
v -0.1961726 1.025369 -0.4632537
v -0.107954 0.8533281 -0.5
v 0.06895539 0.9470811 -0.4411854
v 0.1079235 0.8314131 -0.5
v -0.1143589 0.7826151 -0.5
v -0.1713009 0.7715501 -0.3787088
v -0.3675022 0.5694953 -0.3529215
v -1.621246E-05 0.5357826 -0.5
v 0.1152191 0.7640663 -0.5
v 0.3674698 0.5694953 -0.3529215
v 0.167841 0.7410383 -0.3886757
v 0.4167843 0.3336982 -0.3239241
v -1.525879E-05 0.3226086 -0.5
v -0.4168167 0.3336982 -0.3239241
v -0.3085747 0.1237308 -0.3240452
v -1.716614E-05 0.1237308 -0.4831581
v 0.3085403 0.1237308 -0.3240452
v -1.716614E-05 0.009193331 -0.3079014
v 0.3674698 0.5694953 -0.3529215
v 0.1085796 0.7288109 -0.279562
v 0.167841 0.7410383 -0.3886757
v 0.1837254 0.6217955 -0.05555058
v 0.2083855 0.3528084 0.04328442
v 0.4167843 0.3336982 -0.3239241
v 0.3085403 0.1237308 -0.3240452
v -0.1837578 0.6217955 -0.05555058
v -0.1127815 0.7503837 -0.2735662
v -0.1713009 0.7715501 -0.3787088
v -0.3675022 0.5694953 -0.3529215
v -0.208416 0.3528084 0.04328442
v -0.4168167 0.3336982 -0.3239241
v 0.1542625 0.1237308 -0.05682468
v -1.716614E-05 0.009193331 -0.3079014
v -0.1542969 0.1237308 -0.05682468
v -0.3085747 0.1237308 -0.3240452
v -0.1143589 0.7826151 -0.5
v -0.107954 0.8533281 -0.5
v -0.1598701 0.8395344 -0.3745436
v -0.1713009 0.7715501 -0.3787088
v -0.107954 0.8164662 -0.2678328
v -0.1127815 0.7503837 -0.2735662
v 0.1079235 0.7945513 -0.2716093
v 0.1085796 0.7288109 -0.279562
v 0.1580162 0.8078967 -0.3794165
v 0.167841 0.7410383 -0.3886757
v 0.1079235 0.8314131 -0.5
v 0.1152191 0.7640663 -0.5
v -0.1143589 0.7826151 -0.5
v -0.107954 0.8533281 -0.5
v -0.2054424 0.9278851 -0.106122
v 0.01523972 0.8143235 -0.3609304
v 0.1480113 0.9368562 -0.04913075
v -0.2860387 0.9998032 -0.3568918
v 0.3130005 0.9374753 -0.3269323
v -0.1961726 1.025369 -0.4632537
v 0.2321072 0.9161403 -0.4553957
v 0.06895539 0.9470811 -0.4411854
vt 0.543457 0.244751
vt 0.5014648 0.1656494
vt 0.467041 0.2543945
vt 0.5844727 0.184082
vt 0.5273438 0.08691406
vt 0.6445313 0.1601563
vt 0.6835938 0.02755737
vt 0.84375 0.1063232
vt 0.7714844 0.1993408
vt 0.8115234 0.2587891
vt 0.9204102 0.2241211
vt 0.9248047 0.3041992
vt 0.8164063 0.3415527
vt 0.8759766 0.4467773
vt 0.8051758 0.4714355
vt 0.5366211 0.9272461
vt 0.6767578 0.972168
vt 0.8071289 0.7626953
vt 0.4130859 0.7368164
vt 0.3044434 0.9291992
vt 0.01905823 0.7626953
vt 0.1506348 0.9833984
vt 0.02754211 0.559082
vt 0.4116211 0.5737305
vt 0.8041992 0.5605469
vt 0.6821289 0.3745117
vt 0.4116211 0.4333496
vt 0.1407471 0.3728027
vt 0.4121094 0.2792969
vt 0.8071289 0.7626953
vt 0.5366211 0.9272461
vt 0.6767578 0.972168
vt 0.5205078 0.7382813
vt 0.5117188 0.5893555
vt 0.8041992 0.5605469
vt 0.6821289 0.3745117
vt 0.3029785 0.7397461
vt 0.2905273 0.934082
vt 0.1506348 0.9833984
vt 0.01905823 0.7626953
vt 0.310791 0.5893555
vt 0.02754211 0.559082
vt 0.4963379 0.4633789
vt 0.4121094 0.2792969
vt 0.326416 0.4631348
vt 0.1407471 0.3728027
vt 0.9873047 0.395752
vt 0.9453125 0.395752
vt 0.9453125 0.4758301
vt 0.9873047 0.479248
vt 0.9453125 0.5493164
vt 0.9873047 0.5517578
vt 0.9453125 0.7021484
vt 0.9873047 0.7041016
vt 0.9453125 0.7783203
vt 0.9873047 0.777832
vt 0.9453125 0.862793
vt 0.9873047 0.8540039
vt 0.9873047 1
vt 0.9453125 1
vt 0.06951904 0.07550049
vt 0.2145996 0.1975098
vt 0.2822266 0.009017944
vt 0.01791382 0.2303467
vt 0.4179688 0.1695557
vt 0.1100464 0.3154297
vt 0.3669434 0.253418
vt 0.2399902 0.2773438
vn 0.2312012 0.1994629 -0.9521484
vn 0.2147217 0.9501953 -0.2252197
vn 0.208252 0.9536133 0.2163086
vn 0.6298828 -0.7558594 0.1783447
vn 0.7421875 0.612793 0.2714844
vn 0.270752 -0.8461914 0.4589844
vn 0.1252441 -0.1315918 0.9833984
vn -0.2763672 -0.0223999 0.9609375
vn -0.3300781 -0.8457031 0.4189453
vn -0.7783203 -0.6259766 -0.05184937
vn -0.3151855 0.8510742 0.4194336
vn 0.0725708 0.9975586 0.008323669
vn -0.201416 0.152832 -0.9672852
vn 0.208252 0.9536133 0.2163086
vn 0.2312012 0.1994629 -0.9521484
vn -0.348877 -0.02557373 -0.9370117
vn -0.6606445 0.7319336 0.1654053
vn -0.9150391 0.2924805 -0.2773438
vn -0.004886627 -0.05813599 -0.9985352
vn 0.3137207 -0.05197144 -0.9482422
vn 0.9091797 0.3083496 -0.2805176
vn 0.5922852 0.7895508 0.1605225
vn 0.9716797 -0.08007813 -0.2233887
vn 0 -0.08502197 -0.996582
vn -0.9716797 -0.08007813 -0.2233887
vn -0.7949219 -0.5380859 -0.2810059
vn 0 -0.3449707 -0.9384766
vn 0.7949219 -0.5380859 -0.2810059
vn 0 -0.9980469 -0.06079102
vn 0.9091797 0.3083496 -0.2805176
vn 0.2983398 0.8740234 0.3835449
vn 0.5922852 0.7895508 0.1605225
vn 0.4169922 0.5424805 0.7290039
vn 0.4697266 -0.007019043 0.8828125
vn 0.9716797 -0.08007813 -0.2233887
vn 0.7949219 -0.5380859 -0.2810059
vn -0.4104004 0.5395508 0.7353516
vn -0.3041992 0.8564453 0.4172363
vn -0.6606445 0.7319336 0.1654053
vn -0.9150391 0.2924805 -0.2773438
vn -0.4697266 -0.007015228 0.8828125
vn -0.9716797 -0.08007813 -0.2233887
vn 0.3964844 -0.5957031 0.6987305
vn 0 -0.9980469 -0.06079102
vn -0.3964844 -0.5957031 0.6987305
vn -0.7949219 -0.5380859 -0.2810059
vn -0.4326172 0.06115723 -0.8994141
vn -0.3876953 0.05484009 -0.9199219
vn -0.9931641 0.1148682 -0.01171112
vn -0.9931641 0.1119995 0.03475952
vn -0.3759766 -0.04354858 0.9257813
vn -0.3432617 -0.04925537 0.9379883
vn 0.3623047 -0.07348633 0.9291992
vn 0.4001465 -0.06933594 0.9135742
vn 0.9956055 0.08776855 0.02484131
vn 0.9956055 0.08636475 0.03372192
vn 0.3181152 0.04962158 -0.9467773
vn 0.4631348 0.07226563 -0.8833008
vn -0.4326172 0.06115723 -0.8994141
vn -0.3876953 0.05484009 -0.9199219
vn -0.2763672 -0.0223999 0.9609375
vn 0.04830933 0.9980469 0.03594971
vn 0.1252441 -0.1315918 0.9833984
vn -0.3151855 0.8510742 0.4194336
vn 0.7421875 0.612793 0.2714844
vn 0.0725708 0.9975586 0.008323669
vn 0.2147217 0.9501953 -0.2252197
vn 0.208252 0.9536133 0.2163086
g t004v001_m_0
f 3/3/3 2/2/2 1/1/1
f 1/1/1 2/2/2 4/4/4
f 2/2/2 5/5/5 4/4/4
f 4/4/4 5/5/5 6/6/6
f 5/5/5 7/7/7 6/6/6
f 6/6/6 7/7/7 8/8/8
f 9/9/9 6/6/6 8/8/8
f 10/10/10 9/9/9 8/8/8
f 11/11/11 10/10/10 8/8/8
f 10/10/10 11/11/11 12/12/12
f 10/10/10 12/12/12 13/13/13
f 12/12/12 14/14/14 13/13/13
f 15/15/15 13/13/13 14/14/14
f 18/18/18 17/17/17 16/16/16
f 18/18/18 16/16/16 19/19/19
f 20/20/20 19/19/19 16/16/16
f 19/19/19 20/20/20 21/21/21
f 20/20/20 22/22/22 21/21/21
f 19/19/19 21/21/21 23/23/23
f 18/18/18 19/19/19 24/24/24
f 24/24/24 19/19/19 23/23/23
f 25/25/25 18/18/18 24/24/24
f 26/26/26 25/25/25 24/24/24
f 27/27/27 24/24/24 23/23/23
f 27/27/27 26/26/26 24/24/24
f 28/28/28 27/27/27 23/23/23
f 27/27/27 29/29/29 26/26/26
f 28/28/28 29/29/29 27/27/27
f 32/32/32 31/31/31 30/30/30
f 31/31/31 33/33/33 30/30/30
f 30/30/30 33/33/33 34/34/34
f 35/35/35 30/30/30 34/34/34
f 36/36/36 35/35/35 34/34/34
f 33/33/33 31/31/31 37/37/37
f 31/31/31 38/38/38 37/37/37
f 37/37/37 38/38/38 39/39/39
f 40/40/40 37/37/37 39/39/39
f 33/33/33 37/37/37 41/41/41
f 37/37/37 40/40/40 41/41/41
f 34/34/34 33/33/33 41/41/41
f 40/40/40 42/42/42 41/41/41
f 43/43/43 36/36/36 34/34/34
f 43/43/43 34/34/34 41/41/41
f 43/43/43 44/44/44 36/36/36
f 41/41/41 42/42/42 45/45/45
f 45/45/45 43/43/43 41/41/41
f 45/45/45 44/44/44 43/43/43
f 42/42/42 46/46/46 45/45/45
f 45/45/45 46/46/46 44/44/44
f 49/49/49 48/48/48 47/47/47
f 50/50/50 49/49/49 47/47/47
f 51/51/51 49/49/49 50/50/50
f 52/52/52 51/51/51 50/50/50
f 53/53/53 51/51/51 52/52/52
f 54/54/54 53/53/53 52/52/52
f 55/55/55 53/53/53 54/54/54
f 56/56/56 55/55/55 54/54/54
f 57/57/57 55/55/55 56/56/56
f 58/58/58 57/57/57 56/56/56
f 58/58/58 59/59/59 57/57/57
f 59/59/59 60/60/60 57/57/57
f 63/63/63 62/62/62 61/61/61
f 62/62/62 64/64/64 61/61/61
f 63/63/63 65/65/65 62/62/62
f 66/66/66 64/64/64 62/62/62
f 65/65/65 67/67/67 62/62/62
f 66/66/66 62/62/62 68/68/68
f 67/67/67 68/68/68 62/62/62
