#
# OBJECT NAME
#
o model_4931
mtllib 4931.mtl

#
# VERTEX BUFFER 000
#
v -0.5 0 -0.16698
v 0.5 0 -0.16698
v 0.5 0.177258 -0.16698
v -0.5 0.177258 -0.16698
v -0.5 0.177258 -0.16698
v 0.5 0.177258 -0.16698
v 0.5 0.177258 -0.5
v -0.5 0.177258 -0.5
v -0.5 0.177258 -0.5
v 0.5 0.177258 -0.5
v 0.5 0 -0.16698
v -0.5 0 -0.16698
v 0.5 0 -0.16698
v 0.5 0.177258 -0.5
v 0.5 0.177258 -0.16698
v -0.5 0.177258 -0.5
v -0.5 0 -0.16698
v -0.5 0.177258 -0.16698
v -0.5 0.822743 -0.16698
v -0.5 0.177258 -0.16698
v -0.322742 0.177258 -0.16698
v -0.322742 0.822743 -0.16698
v -0.322742 0.822743 -0.16698
v -0.322742 0.177258 -0.16698
v -0.5 0.177258 -0.5
v -0.5 0.822743 -0.5
v -0.5 0.822743 -0.5
v -0.5 0.177258 -0.5
v -0.5 0.177258 -0.16698
v -0.5 0.822743 -0.16698
v 0.322742 0.822743 -0.16698
v 0.322742 0.177258 -0.16698
v 0.5 0.177258 -0.16698
v 0.5 0.822743 -0.16698
v 0.5 0.822743 -0.16698
v 0.5 0.177258 -0.16698
v 0.5 0.177258 -0.5
v 0.5 0.822743 -0.5
v 0.5 0.822743 -0.5
v 0.5 0.177258 -0.5
v 0.322742 0.177258 -0.16698
v 0.322742 0.822743 -0.16698
v -0.5 0.822743 -0.16698
v 0.5 0.822743 -0.16698
v 0.5 1 -0.16698
v -0.5 1 -0.16698
v -0.5 1 -0.16698
v 0.5 1 -0.16698
v 0.5 0.822743 -0.5
v -0.5 0.822743 -0.5
v -0.5 0.822743 -0.5
v 0.5 0.822743 -0.5
v 0.5 0.822743 -0.16698
v -0.5 0.822743 -0.16698
v 0.5 0.822743 -0.16698
v 0.5 0.822743 -0.5
v 0.5 1 -0.16698
v -0.5 0.822743 -0.5
v -0.5 0.822743 -0.16698
v -0.5 1 -0.16698

vn 0 0 1
vn 0 0 1
vn 0 0 1
vn 0 0 1
vn 0 1 0
vn 0 1 0
vn 0 1 0
vn 0 1 0
vn 0 -1 0
vn 0 -1 0
vn 0 -1 0
vn 0 -1 0
vn 1 0 0
vn 1 0 0
vn 1 0 0
vn -1 0 0
vn -1 0 0
vn -1 0 0
vn 0 0 1
vn 0 0 1
vn 0 0 1
vn 0 0 1
vn 1 0 0
vn 1 0 0
vn 1 0 0
vn 1 0 0
vn -1 0 0
vn -1 0 0
vn -1 0 0
vn -1 0 0
vn 0 0 1
vn 0 0 1
vn 0 0 1
vn 0 0 1
vn 1 0 0
vn 1 0 0
vn 1 0 0
vn 1 0 0
vn -1 0 0
vn -1 0 0
vn -1 0 0
vn -1 0 0
vn 0 0 1
vn 0 0 1
vn 0 0 1
vn 0 0 1
vn 0 1 0
vn 0 1 0
vn 0 1 0
vn 0 1 0
vn 0 -1 0
vn 0 -1 0
vn 0 -1 0
vn 0 -1 0
vn 1 0 0
vn 1 0 0
vn 1 0 0
vn -1 0 0
vn -1 0 0
vn -1 0 0

vt 0.0159494 0.608981
vt 0.685498 0.608981
vt 0.685498 0.712968
vt 0.0159494 0.712968
vt 0.0159494 0.747603
vt 0.685498 0.747603
vt 0.685498 0.981306
vt 0.0159494 0.981306
vt 0.0159494 0.747603
vt 0.685498 0.747603
vt 0.685498 0.981306
vt 0.0159494 0.981306
vt 0.9522 0.876894
vt 0.737755 0.9291
vt 0.9522 0.981306
vt 0.9522 0.9291
vt 0.737755 0.876894
vt 0.737755 0.981306
vt 0.0405618 0.0227436
vt 0.490933 0.0227436
vt 0.490933 0.122788
vt 0.0405618 0.122788
vt 0.0247632 0.169356
vt 0.490933 0.169356
vt 0.490933 0.398244
vt 0.0247632 0.398244
vt 0.0247632 0.169356
vt 0.490933 0.169356
vt 0.490933 0.398244
vt 0.0247632 0.398244
vt 0.0405618 0.0227436
vt 0.490933 0.0227436
vt 0.490933 0.122788
vt 0.0405618 0.122788
vt 0.0247632 0.169356
vt 0.490933 0.169356
vt 0.490933 0.398244
vt 0.0247632 0.398244
vt 0.0247632 0.169356
vt 0.490933 0.169356
vt 0.490933 0.398244
vt 0.0247632 0.398244
vt 0.0137682 0.608981
vt 0.68288 0.608981
vt 0.68288 0.712968
vt 0.0137682 0.712968
vt 0.0159494 0.747603
vt 0.685498 0.747603
vt 0.685498 0.981306
vt 0.0159494 0.981306
vt 0.0159494 0.747603
vt 0.685498 0.747603
vt 0.685498 0.981306
vt 0.0159494 0.981306
vt 0.9522 0.876894
vt 0.737755 0.9291
vt 0.9522 0.981306
vt 0.9522 0.9291
vt 0.737755 0.876894
vt 0.737755 0.981306


#
# MESH 000
#
g surface_000
usemtl surface_000
f 16/16/16 17/17/17 18/18/18
f 13/13/13 14/14/14 15/15/15
f 9/9/9 11/11/11 12/12/12
f 9/9/9 10/10/10 11/11/11
f 5/5/5 7/7/7 8/8/8
f 5/5/5 6/6/6 7/7/7
f 1/1/1 3/3/3 4/4/4
f 1/1/1 2/2/2 3/3/3
f 27/27/27 29/29/29 30/30/30
f 27/27/27 28/28/28 29/29/29
f 23/23/23 25/25/25 26/26/26
f 23/23/23 24/24/24 25/25/25
f 19/19/19 21/21/21 22/22/22
f 19/19/19 20/20/20 21/21/21
f 39/39/39 41/41/41 42/42/42
f 39/39/39 40/40/40 41/41/41
f 35/35/35 37/37/37 38/38/38
f 35/35/35 36/36/36 37/37/37
f 31/31/31 33/33/33 34/34/34
f 31/31/31 32/32/32 33/33/33
f 58/58/58 59/59/59 60/60/60
f 55/55/55 56/56/56 57/57/57
f 51/51/51 53/53/53 54/54/54
f 51/51/51 52/52/52 53/53/53
f 47/47/47 49/49/49 50/50/50
f 47/47/47 48/48/48 49/49/49
f 43/43/43 45/45/45 46/46/46
f 43/43/43 44/44/44 45/45/45

