g t002v001_m
v 0.282271 1 0
v -0.1996877 1 0.1995015
v -0.282271 1 0
v 0.1985098 1 0.2006735
v -2.853873E-13 1 0.2822691
v 0.4623117 0.6950457 -1.536682E-08
v 0.2526156 0.9999997 0.2553683
v 0.359207 0.9999998 -5.355105E-08
v 0.3251244 0.6950458 0.3286682
v 0.3406033 0.494176 0.3443159
v 0.4843219 0.4941764 -1.882658E-08
v 0.4623117 0.3031554 -2.421439E-08
v 0.3251244 0.3031551 0.3286682
v 0.3592072 -5.960464E-08 3.72529E-09
v 0.2526156 -1.192093E-07 0.2553683
v -5.960464E-08 0.6950454 0.462307
v 5.960464E-08 0.9999999 0.3592014
v 0.2526156 0.9999997 0.2553683
v 0.3251244 0.6950458 0.3286682
v 0.3406033 0.494176 0.3443159
v -3.855725E-08 0.4941764 0.4843174
v 0 0.3031555 0.462307
v 0.3251244 0.3031551 0.3286682
v 0.2526156 -1.192093E-07 0.2553683
v -2.980232E-08 -1.788139E-07 0.3592015
v -0.3270547 0.6950455 0.3267483
v -5.960464E-08 0.6950454 0.462307
v 5.960464E-08 0.9999999 0.3592014
v -0.2541145 0.9999999 0.2538767
v -0.3426254 0.4941766 0.3423044
v -0.3270544 0.3031557 0.3267482
v 0 0.3031555 0.462307
v -2.980232E-08 -1.788139E-07 0.3592015
v -0.2541145 0 0.2538768
v -0.3270547 0.6950455 0.3267483
v -0.3592071 1 9.965152E-08
v -0.2541145 0.9999999 0.2538767
v -0.462312 0.6950455 3.958121E-08
v -0.484322 0.4941766 -2.19911E-08
v -0.3426254 0.4941766 0.3423044
v -0.4623116 0.3031557 -6.146729E-08
v -0.3270544 0.3031557 0.3267482
v -0.2541145 0 0.2538768
v -0.3592072 5.960464E-08 -2.980232E-08
v 0.2526156 0.9999997 0.2553683
v 0.1985098 1 0.2006735
v 0.282271 1 0
v 0.359207 0.9999998 -5.355105E-08
v 5.960464E-08 0.9999999 0.3592014
v -2.853873E-13 1 0.2822691
v 0.1985098 1 0.2006735
v 0.2526156 0.9999997 0.2553683
v -0.2541145 0.9999999 0.2538767
v -0.1996877 1 0.1995015
v -2.853873E-13 1 0.2822691
v 5.960464E-08 0.9999999 0.3592014
v -0.3592071 1 9.965152E-08
v -0.282271 1 0
v -0.1996877 1 0.1995015
v -0.2541145 0.9999999 0.2538767
v 0.1963069 -1.192093E-07 0.1984466
v 0.2791386 1.192093E-07 -4.93601E-08
v -0.2791386 1.788139E-07 -6.519258E-09
v -0.1974717 5.960464E-08 0.1972875
v 2.980232E-08 -1.788139E-07 0.2791367
v 0.1963069 -1.192093E-07 0.1984466
v 0.2526156 -1.192093E-07 0.2553683
v 0.3592072 -5.960464E-08 3.72529E-09
v 0.2791386 1.192093E-07 -4.93601E-08
v -2.980232E-08 -1.788139E-07 0.3592015
v 0.2526156 -1.192093E-07 0.2553683
v 0.1963069 -1.192093E-07 0.1984466
v 2.980232E-08 -1.788139E-07 0.2791367
v -0.2541145 0 0.2538768
v -2.980232E-08 -1.788139E-07 0.3592015
v 2.980232E-08 -1.788139E-07 0.2791367
v -0.1974717 5.960464E-08 0.1972875
v -0.1974717 5.960464E-08 0.1972875
v -0.2791386 1.788139E-07 -6.519258E-09
v -0.3592072 5.960464E-08 -2.980232E-08
v -0.2541145 0 0.2538768
v -0.282271 1 0
v 0.1996877 1 -0.1995015
v 0.282271 1 0
v -0.1985098 1 -0.2006736
v -2.853528E-13 1 -0.2822691
v -0.462312 0.6950455 3.958121E-08
v -0.2526156 0.9999999 -0.2553684
v -0.3592071 1 9.965152E-08
v -0.3251247 0.6950455 -0.3286682
v -0.3406035 0.4941763 -0.3443159
v -0.484322 0.4941766 -2.19911E-08
v -0.4623116 0.3031557 -6.146729E-08
v -0.3251245 0.3031554 -0.3286684
v -0.3592072 5.960464E-08 -2.980232E-08
v -0.2526156 0 -0.2553683
v -5.960464E-08 0.6950454 -0.4623071
v 5.960464E-08 0.9999999 -0.3592015
v -0.2526156 0.9999999 -0.2553684
v -0.3251247 0.6950455 -0.3286682
v -0.3406035 0.4941763 -0.3443159
v -3.855725E-08 0.4941764 -0.4843173
v 5.661628E-17 0.3031555 -0.4623069
v -0.3251245 0.3031554 -0.3286684
v -0.2526156 0 -0.2553683
v -2.980232E-08 -1.788139E-07 -0.3592014
v 0.3270545 0.6950458 -0.3267483
v -5.960464E-08 0.6950454 -0.4623071
v 5.960464E-08 0.9999999 -0.3592015
v 0.2541145 0.9999997 -0.2538767
v 0.3426254 0.494176 -0.3423044
v 0.3270545 0.3031551 -0.3267482
v 5.661628E-17 0.3031555 -0.4623069
v -2.980232E-08 -1.788139E-07 -0.3592014
v 0.2541146 -1.192093E-07 -0.2538768
v 0.3270545 0.6950458 -0.3267483
v 0.359207 0.9999998 -5.355105E-08
v 0.2541145 0.9999997 -0.2538767
v 0.4623117 0.6950457 -1.536682E-08
v 0.4843219 0.4941764 -1.882658E-08
v 0.3426254 0.494176 -0.3423044
v 0.4623117 0.3031554 -2.421439E-08
v 0.3270545 0.3031551 -0.3267482
v 0.2541146 -1.192093E-07 -0.2538768
v 0.3592072 -5.960464E-08 3.72529E-09
v -0.2526156 0.9999999 -0.2553684
v -0.1985098 1 -0.2006736
v -0.282271 1 0
v -0.3592071 1 9.965152E-08
v 5.960464E-08 0.9999999 -0.3592015
v -2.853528E-13 1 -0.2822691
v -0.1985098 1 -0.2006736
v -0.2526156 0.9999999 -0.2553684
v 0.2541145 0.9999997 -0.2538767
v 0.1996877 1 -0.1995015
v -2.853528E-13 1 -0.2822691
v 5.960464E-08 0.9999999 -0.3592015
v 0.359207 0.9999998 -5.355105E-08
v 0.282271 1 0
v 0.1996877 1 -0.1995015
v 0.2541145 0.9999997 -0.2538767
v -0.1963069 5.960464E-08 -0.1984466
v -0.2791386 1.788139E-07 -6.519258E-09
v 0.2791386 1.192093E-07 -4.93601E-08
v 0.1974717 -1.192093E-07 -0.1972876
v 2.980232E-08 -1.788139E-07 -0.2791366
v -0.1963069 5.960464E-08 -0.1984466
v -0.2526156 0 -0.2553683
v -0.3592072 5.960464E-08 -2.980232E-08
v -0.2791386 1.788139E-07 -6.519258E-09
v -2.980232E-08 -1.788139E-07 -0.3592014
v -0.2526156 0 -0.2553683
v -0.1963069 5.960464E-08 -0.1984466
v 2.980232E-08 -1.788139E-07 -0.2791366
v 0.2541146 -1.192093E-07 -0.2538768
v -2.980232E-08 -1.788139E-07 -0.3592014
v 2.980232E-08 -1.788139E-07 -0.2791366
v 0.1974717 -1.192093E-07 -0.1972876
v 0.1974717 -1.192093E-07 -0.1972876
v 0.2791386 1.192093E-07 -4.93601E-08
v 0.3592072 -5.960464E-08 3.72529E-09
v 0.2541146 -1.192093E-07 -0.2538768
vt 0.4245605 0.0219574
vt 0.706543 0.1674805
vt 0.796875 0.0219574
vt 0.5126953 0.1674805
vt 0.6108398 0.2147217
vt 0.8364258 0.7211914
vt 0.6323242 0.9140625
vt 0.8310547 0.9140625
vt 0.6201172 0.7211914
vt 0.6166992 0.6064453
vt 0.8374023 0.6064453
vt 0.8359375 0.4975586
vt 0.6201172 0.4975586
vt 0.8305664 0.3000488
vt 0.6333008 0.2998047
vt 0.4199219 0.7211914
vt 0.4233398 0.9140625
vt 0.6088867 0.9140625
vt 0.6210938 0.7216797
vt 0.6240234 0.6064453
vt 0.4199219 0.6064453
vt 0.4199219 0.4975586
vt 0.6206055 0.4970703
vt 0.6079102 0.2993164
vt 0.4216309 0.2998047
vt 0.2211914 0.7207031
vt 0.4199219 0.7202148
vt 0.4155273 0.9140625
vt 0.2412109 0.9140625
vt 0.2181396 0.6064453
vt 0.2214355 0.4980469
vt 0.4199219 0.4985352
vt 0.4157715 0.3012695
vt 0.2348633 0.3007813
vt 0.2283936 0.7216797
vt 0.0254364 0.9140625
vt 0.2061768 0.9140625
vt 0.01843262 0.7216797
vt 0.01664734 0.6064453
vt 0.2316895 0.6064453
vt 0.01860046 0.4973145
vt 0.2282715 0.4973145
vt 0.2149658 0.2993164
vt 0.02586365 0.2993164
vt 0.6323242 0.9267578
vt 0.6494141 0.9692383
vt 0.8237305 0.9692383
vt 0.8310547 0.9267578
vt 0.4233398 0.9267578
vt 0.4274902 0.9697266
vt 0.5932617 0.9702148
vt 0.6088867 0.9272461
vt 0.2412109 0.9257813
vt 0.2507324 0.9682617
vt 0.4135742 0.9682617
vt 0.4155273 0.925293
vt 0.0254364 0.9272461
vt 0.03469849 0.9702148
vt 0.1895752 0.9702148
vt 0.2061768 0.9272461
vt 0.3081055 0.1809082
vt 0.401123 0.02197266
vt 0.02903748 0.02197266
vt 0.1220703 0.1809082
vt 0.2178955 0.2075195
vt 0.6508789 0.2502441
vt 0.6333008 0.2868652
vt 0.8305664 0.2871094
vt 0.8232422 0.25
vt 0.4216309 0.2868652
vt 0.6079102 0.286377
vt 0.5913086 0.2493896
vt 0.432373 0.2497559
vt 0.2348633 0.2878418
vt 0.4157715 0.2883301
vt 0.3984375 0.2514648
vt 0.2524414 0.2509766
vt 0.1975098 0.2493896
vt 0.0355835 0.2493896
vt 0.02586365 0.286377
vt 0.2149658 0.286377
vt 0.4245605 0.0219574
vt 0.706543 0.1674805
vt 0.796875 0.0219574
vt 0.5126953 0.1674805
vt 0.6108398 0.2147217
vt 0.8364258 0.7211914
vt 0.6323242 0.9140625
vt 0.8310547 0.9140625
vt 0.6201172 0.7211914
vt 0.6166992 0.6064453
vt 0.8374023 0.6064453
vt 0.8359375 0.4975586
vt 0.6201172 0.4975586
vt 0.8305664 0.3000488
vt 0.6333008 0.2998047
vt 0.4199219 0.7211914
vt 0.423584 0.9140625
vt 0.6088867 0.9140625
vt 0.6210938 0.7216797
vt 0.6240234 0.6064453
vt 0.4199219 0.6064453
vt 0.4199219 0.4975586
vt 0.6210938 0.4970703
vt 0.6079102 0.2993164
vt 0.421875 0.2998047
vt 0.2211914 0.7207031
vt 0.4199219 0.7202148
vt 0.4155273 0.9140625
vt 0.2412109 0.9140625
vt 0.2181396 0.6064453
vt 0.2214355 0.4980469
vt 0.4199219 0.4985352
vt 0.4157715 0.3012695
vt 0.2349854 0.3007813
vt 0.2283936 0.7216797
vt 0.02546692 0.9140625
vt 0.2062988 0.9140625
vt 0.01846313 0.7216797
vt 0.01667786 0.6064453
vt 0.2316895 0.6064453
vt 0.01863098 0.4973145
vt 0.2282715 0.4973145
vt 0.2150879 0.2993164
vt 0.02589417 0.2993164
vt 0.6323242 0.9267578
vt 0.6494141 0.9692383
vt 0.8237305 0.9692383
vt 0.8310547 0.9267578
vt 0.423584 0.9267578
vt 0.4274902 0.9697266
vt 0.5932617 0.9702148
vt 0.6088867 0.9272461
vt 0.2412109 0.9257813
vt 0.2507324 0.9682617
vt 0.4135742 0.9682617
vt 0.4155273 0.925293
vt 0.02546692 0.9272461
vt 0.034729 0.9702148
vt 0.1896973 0.9702148
vt 0.2062988 0.9272461
vt 0.3081055 0.1809082
vt 0.401123 0.02197266
vt 0.02903748 0.02197266
vt 0.1220703 0.1809082
vt 0.2178955 0.2075195
vt 0.6508789 0.2502441
vt 0.6333008 0.2868652
vt 0.8305664 0.2871094
vt 0.8232422 0.25
vt 0.421875 0.2868652
vt 0.6079102 0.286377
vt 0.5913086 0.2493896
vt 0.432373 0.2497559
vt 0.2349854 0.2878418
vt 0.4157715 0.2883301
vt 0.3984375 0.2514648
vt 0.2524414 0.2509766
vt 0.1975098 0.2493896
vt 0.03561401 0.2493896
vt 0.02589417 0.286377
vt 0.2150879 0.286377
vn 0 1 0
vn 0 1 0
vn 0 1 0
vn 0 1 0
vn 0 1 0
vn 0.9736328 0.2272949 0.002817154
vn 0.6699219 0.3203125 0.6699219
vn 0.9472656 0.3203125 0.002891541
vn 0.6884766 0.2272949 0.6884766
vn 0.7070313 7.796288E-05 0.7070313
vn 1 7.838011E-05 0.002902985
vn 0.9726563 -0.2329102 0.002813339
vn 0.6875 -0.2329102 0.6875
vn 0.9467773 -0.3220215 0.002889633
vn 0.6694336 -0.3220215 0.6694336
vn -0.002817154 0.2272949 0.9736328
vn -0.002889633 0.3203125 0.9472656
vn 0.6699219 0.3203125 0.6699219
vn 0.6884766 0.2272949 0.6884766
vn 0.7070313 7.796288E-05 0.7070313
vn -0.002902985 7.766485E-05 1
vn -0.002813339 -0.2329102 0.9726563
vn 0.6875 -0.2329102 0.6875
vn 0.6694336 -0.3220215 0.6694336
vn -0.002889633 -0.3220215 0.9467773
vn -0.6884766 0.2272949 0.6884766
vn -0.002817154 0.2272949 0.9736328
vn -0.002889633 0.3203125 0.9472656
vn -0.6699219 0.3203125 0.6699219
vn -0.7070313 7.742643E-05 0.7070313
vn -0.6875 -0.2329102 0.6875
vn -0.002813339 -0.2329102 0.9726563
vn -0.002889633 -0.3220215 0.9467773
vn -0.6694336 -0.3220215 0.6694336
vn -0.6884766 0.2272949 0.6884766
vn -0.9472656 0.3203125 -0.002891541
vn -0.6699219 0.3203125 0.6699219
vn -0.9736328 0.2272949 -0.002817154
vn -1 7.760525E-05 -0.002902985
vn -0.7070313 7.742643E-05 0.7070313
vn -0.9726563 -0.2329102 -0.002813339
vn -0.6875 -0.2329102 0.6875
vn -0.6694336 -0.3220215 0.6694336
vn -0.9467773 -0.3220215 -0.002889633
vn 0 1 0
vn 0 1 0
vn 0 1 0
vn 0 1 0
vn 0 1 0
vn 0 1 0
vn 0 1 0
vn 0 1 0
vn 0 1 0
vn 0 1 0
vn 0 1 0
vn 0 1 0
vn 0 1 0
vn 0 1 0
vn 0 1 0
vn 0 1 0
vn 0 -1 0
vn 0 -1 0
vn 0 -1 0
vn 0 -1 0
vn 0 -1 0
vn 0 -1 0
vn 0 -1 0
vn 0 -1 0
vn 0 -1 0
vn 0 -1 0
vn 0 -1 0
vn 0 -1 0
vn 0 -1 0
vn 0 -1 0
vn 0 -1 0
vn 0 -1 0
vn 0 -1 0
vn 0 -1 0
vn 0 -1 0
vn 0 -1 0
vn 0 -1 0
vn 0 1 0
vn 0 1 0
vn 0 1 0
vn 0 1 0
vn 0 1 0
vn -0.9736328 0.2272949 -0.002817154
vn -0.6699219 0.3203125 -0.6699219
vn -0.9472656 0.3203125 -0.002891541
vn -0.6884766 0.2272949 -0.6884766
vn -0.7070313 7.766485E-05 -0.7070313
vn -1 7.760525E-05 -0.002902985
vn -0.9726563 -0.2329102 -0.002813339
vn -0.6875 -0.2329102 -0.6875
vn -0.9467773 -0.3220215 -0.002889633
vn -0.6694336 -0.3220215 -0.6694336
vn 0.002817154 0.2272949 -0.9736328
vn 0.002889633 0.3203125 -0.9472656
vn -0.6699219 0.3203125 -0.6699219
vn -0.6884766 0.2272949 -0.6884766
vn -0.7070313 7.766485E-05 -0.7070313
vn 0.002902985 7.772446E-05 -1
vn 0.002813339 -0.2329102 -0.9726563
vn -0.6875 -0.2329102 -0.6875
vn -0.6694336 -0.3220215 -0.6694336
vn 0.002889633 -0.3220215 -0.9467773
vn 0.6884766 0.2272949 -0.6884766
vn 0.002817154 0.2272949 -0.9736328
vn 0.002889633 0.3203125 -0.9472656
vn 0.6699219 0.3203125 -0.6699219
vn 0.7070313 7.790327E-05 -0.7070313
vn 0.6875 -0.2329102 -0.6875
vn 0.002813339 -0.2329102 -0.9726563
vn 0.002889633 -0.3220215 -0.9467773
vn 0.6694336 -0.3220215 -0.6694336
vn 0.6884766 0.2272949 -0.6884766
vn 0.9472656 0.3203125 0.002891541
vn 0.6699219 0.3203125 -0.6699219
vn 0.9736328 0.2272949 0.002817154
vn 1 7.838011E-05 0.002902985
vn 0.7070313 7.790327E-05 -0.7070313
vn 0.9726563 -0.2329102 0.002813339
vn 0.6875 -0.2329102 -0.6875
vn 0.6694336 -0.3220215 -0.6694336
vn 0.9467773 -0.3220215 0.002889633
vn 0 1 0
vn 0 1 0
vn 0 1 0
vn 0 1 0
vn 0 1 0
vn 0 1 0
vn 0 1 0
vn 0 1 0
vn 0 1 0
vn 0 1 0
vn 0 1 0
vn 0 1 0
vn 0 1 0
vn 0 1 0
vn 0 1 0
vn 0 1 0
vn 0 -1 0
vn 0 -1 0
vn 0 -1 0
vn 0 -1 0
vn 0 -1 0
vn 0 -1 0
vn 0 -1 0
vn 0 -1 0
vn 0 -1 0
vn 0 -1 0
vn 0 -1 0
vn 0 -1 0
vn 0 -1 0
vn 0 -1 0
vn 0 -1 0
vn 0 -1 0
vn 0 -1 0
vn 0 -1 0
vn 0 -1 0
vn 0 -1 0
vn 0 -1 0
g t002v001_m_0
f 3/3/3 2/2/2 1/1/1
f 2/2/2 4/4/4 1/1/1
f 2/2/2 5/5/5 4/4/4
f 8/8/8 7/7/7 6/6/6
f 7/7/7 9/9/9 6/6/6
f 9/9/9 10/10/10 6/6/6
f 10/10/10 11/11/11 6/6/6
f 12/12/12 11/11/11 10/10/10
f 13/13/13 12/12/12 10/10/10
f 12/12/12 13/13/13 14/14/14
f 13/13/13 15/15/15 14/14/14
f 18/18/18 17/17/17 16/16/16
f 19/19/19 18/18/18 16/16/16
f 20/20/20 19/19/19 16/16/16
f 21/21/21 20/20/20 16/16/16
f 21/21/21 22/22/22 20/20/20
f 22/22/22 23/23/23 20/20/20
f 24/24/24 23/23/23 22/22/22
f 25/25/25 24/24/24 22/22/22
f 21/21/21 27/27/27 26/26/26
f 27/27/27 28/28/28 26/26/26
f 28/28/28 29/29/29 26/26/26
f 30/30/30 21/21/21 26/26/26
f 30/30/30 31/31/31 21/21/21
f 31/31/31 32/32/32 21/21/21
f 33/33/33 32/32/32 31/31/31
f 34/34/34 33/33/33 31/31/31
f 37/37/37 36/36/36 35/35/35
f 36/36/36 38/38/38 35/35/35
f 35/35/35 38/38/38 39/39/39
f 40/40/40 35/35/35 39/39/39
f 40/40/40 39/39/39 41/41/41
f 42/42/42 40/40/40 41/41/41
f 42/42/42 41/41/41 43/43/43
f 41/41/41 44/44/44 43/43/43
f 47/47/47 46/46/46 45/45/45
f 48/48/48 47/47/47 45/45/45
f 51/51/51 50/50/50 49/49/49
f 52/52/52 51/51/51 49/49/49
f 55/55/55 54/54/54 53/53/53
f 56/56/56 55/55/55 53/53/53
f 59/59/59 58/58/58 57/57/57
f 60/60/60 59/59/59 57/57/57
f 63/63/63 62/62/62 61/61/61
f 64/64/64 63/63/63 61/61/61
f 61/61/61 65/65/65 64/64/64
f 68/68/68 67/67/67 66/66/66
f 69/69/69 68/68/68 66/66/66
f 72/72/72 71/71/71 70/70/70
f 73/73/73 72/72/72 70/70/70
f 76/76/76 75/75/75 74/74/74
f 77/77/77 76/76/76 74/74/74
f 80/80/80 79/79/79 78/78/78
f 81/81/81 80/80/80 78/78/78
f 84/84/84 83/83/83 82/82/82
f 83/83/83 85/85/85 82/82/82
f 83/83/83 86/86/86 85/85/85
f 89/89/89 88/88/88 87/87/87
f 88/88/88 90/90/90 87/87/87
f 90/90/90 91/91/91 87/87/87
f 91/91/91 92/92/92 87/87/87
f 93/93/93 92/92/92 91/91/91
f 94/94/94 93/93/93 91/91/91
f 93/93/93 94/94/94 95/95/95
f 94/94/94 96/96/96 95/95/95
f 99/99/99 98/98/98 97/97/97
f 100/100/100 99/99/99 97/97/97
f 101/101/101 100/100/100 97/97/97
f 102/102/102 101/101/101 97/97/97
f 102/102/102 103/103/103 101/101/101
f 103/103/103 104/104/104 101/101/101
f 105/105/105 104/104/104 103/103/103
f 106/106/106 105/105/105 103/103/103
f 102/102/102 108/108/108 107/107/107
f 108/108/108 109/109/109 107/107/107
f 109/109/109 110/110/110 107/107/107
f 111/111/111 102/102/102 107/107/107
f 111/111/111 112/112/112 102/102/102
f 112/112/112 113/113/113 102/102/102
f 114/114/114 113/113/113 112/112/112
f 115/115/115 114/114/114 112/112/112
f 118/118/118 117/117/117 116/116/116
f 117/117/117 119/119/119 116/116/116
f 116/116/116 119/119/119 120/120/120
f 121/121/121 116/116/116 120/120/120
f 121/121/121 120/120/120 122/122/122
f 123/123/123 121/121/121 122/122/122
f 123/123/123 122/122/122 124/124/124
f 122/122/122 125/125/125 124/124/124
f 128/128/128 127/127/127 126/126/126
f 129/129/129 128/128/128 126/126/126
f 132/132/132 131/131/131 130/130/130
f 133/133/133 132/132/132 130/130/130
f 136/136/136 135/135/135 134/134/134
f 137/137/137 136/136/136 134/134/134
f 140/140/140 139/139/139 138/138/138
f 141/141/141 140/140/140 138/138/138
f 144/144/144 143/143/143 142/142/142
f 145/145/145 144/144/144 142/142/142
f 142/142/142 146/146/146 145/145/145
f 149/149/149 148/148/148 147/147/147
f 150/150/150 149/149/149 147/147/147
f 153/153/153 152/152/152 151/151/151
f 154/154/154 153/153/153 151/151/151
f 157/157/157 156/156/156 155/155/155
f 158/158/158 157/157/157 155/155/155
f 161/161/161 160/160/160 159/159/159
f 162/162/162 161/161/161 159/159/159
