#
# OBJECT NAME
#
o model_2644
mtllib 2644.mtl

#
# VERTEX BUFFER 000
#
v -0.0656138 0.0487237 0.284108
v -0.080091 -0.00114126 0.240653
v -0.0795064 0.121866 0.239225
v -0.148829 0.0303474 0.308783
v -0.149433 0.0351854 0.297304
v -0.151522 0.00240873 0.263552
v -0.175873 0.0292891 0.224588
v -0.151522 0.00240873 0.263552
v -0.169715 0.0343907 0.234158
v -0.151522 0.00240873 0.263552
v -0.080091 -0.00114126 0.240653
v -0.0656138 0.0487237 0.284108
v -0.148829 0.0303474 0.308783
v -0.0795064 0.121866 0.239225
v -0.25542 0.115182 0.295813
v -0.236527 0.0312853 0.337746
v -0.148829 0.0303474 0.308783
v -0.150698 0.0202775 0.303287
v -0.149433 0.0351854 0.297304
v -0.150698 0.0202775 0.303287
v -0.238429 0.0212144 0.332154
v -0.149433 0.0351854 0.297304
v -0.255483 0.0807992 0.295958
v -0.159309 0.0797834 0.26508
v -0.344161 0.0708276 0.529947
v -0.382238 0.0221406 0.337409
v -0.238429 0.0212144 0.332154
v -0.0957049 0.0685346 0.472993
v -0.150698 0.0202775 0.303287
v -0.148829 0.0303474 0.308783
v -0.0956171 0.0834872 0.472776
v -0.0957049 0.0685346 0.472993
v -0.0956171 0.0834872 0.472776
v -0.148829 0.0303474 0.308783
v -0.228481 0.0782866 0.0591158
v -0.463655 0.0810993 0.157438
v -0.38218 0.0321398 0.337265
v -0.26404 0.0302089 0.252088
v -0.586608 0.0833892 0.265361
v -0.656708 0.0786346 0.424858
v -0.463739 0.0661468 0.157653
v -0.228569 0.0633339 0.0593319
v -0.262254 0.0202806 0.25797
v -0.382238 0.0221406 0.337409
v -0.5867 0.0684365 0.265579
v -0.656708 0.0786346 0.424858
v -0.382238 0.0221406 0.337409
v -0.262254 0.0202806 0.25797
v -0.255483 0.0807992 0.295958
v -0.174121 0.0193616 0.230373
v -0.169715 0.0343907 0.234158
v -0.159309 0.0797834 0.26508
v -0.174121 0.0193616 0.230373
v -0.175873 0.0292891 0.224588
v -0.26404 0.0302089 0.252088
v -0.0939882 0.0476123 0.195772
v -0.175873 0.0292891 0.224588
v -0.174121 0.0193616 0.230373
v -0.228569 0.0633339 0.0593319
v -0.228481 0.0782866 0.0591158
v -0.175873 0.0292891 0.224588
v -0.175873 0.0292891 0.224588
v -0.169715 0.0343907 0.234158
v -0.174121 0.0193616 0.230373
v -0.0795064 0.121866 0.239225
v -0.26404 0.0302089 0.252088
v -0.25542 0.115182 0.295813
v -0.151522 0.00240873 0.263552
v -0.0939882 0.0476123 0.195772
v -0.080091 -0.00114126 0.240653
v -0.0939882 0.0476123 0.195772
v -0.0795064 0.121866 0.239225
v -0.080091 -0.00114126 0.240653
v -0.344069 0.0857805 0.529731
v -0.0956171 0.0834872 0.472776
v -0.38218 0.0321398 0.337265
v -0.50689 0.0865101 0.513558
v -0.656708 0.0786346 0.424858
v -0.506981 0.0715565 0.513776
v -0.656708 0.0786346 0.424858
v -0.382238 0.0221406 0.337409
v -0.150698 0.0202775 0.303287
v -0.0957049 0.0685346 0.472993
v -0.236527 0.0312853 0.337746
v -0.463655 0.0810993 0.157438
v -0.228481 0.0782866 0.0591158
v -0.228569 0.0633339 0.0593319
v -0.463739 0.0661468 0.157653
v -0.586608 0.0833892 0.265361
v -0.5867 0.0684365 0.265579
v -0.656708 0.0786346 0.424858
v -0.50689 0.0865101 0.513558
v -0.656708 0.0786346 0.424858
v -0.506981 0.0715565 0.513776
v -0.344069 0.0857805 0.529731
v -0.344161 0.0708276 0.529947
v -0.0956171 0.0834872 0.472776
v -0.0957049 0.0685346 0.472993
v -0.26404 0.0302089 0.252088
v 0.619261 0.0401964 -0.0352673
v 0.631627 0.00208706 0.00400952
v -0.249182 0.0470665 0.260506
v -0.237557 0.0103431 0.291086
v -0.237032 0.0991182 0.289801
v 0.632186 0.0965235 0.00264269
v -0.237032 0.0991182 0.289801
v -0.249182 0.0470665 0.260506
v -0.237557 0.0103431 0.291086
v 0.619261 0.0401964 -0.0352673
v 0.632186 0.0965235 0.00264269
v 0.631627 0.00208706 0.00400952
v 0.644273 0.0411756 0.0426029
v -0.225669 0.047987 0.321022
v 0.631627 0.00208706 0.00400952
v -0.237557 0.0103431 0.291086
v 0.632186 0.0965235 0.00264269
v -0.237032 0.0991182 0.289801
v -0.225669 0.047987 0.321022
v -0.237032 0.0991182 0.289801
v -0.237557 0.0103431 0.291086
v 0.632186 0.0965235 0.00264269
v 0.644273 0.0411756 0.0426029
v 0.631627 0.00208706 0.00400952
v -0.173405 0.0894047 -0.175193
v -0.101854 0.0502358 -0.1513
v 0.00768763 0.121852 -0.146932
v -0.00136503 0.0794423 -0.259002
v -0.105488 0.0344004 -0.194619
v -0.173405 0.0894047 -0.175193
v 0.484266 0.248522 -0.289228
v 0.327163 0.199146 -0.202326
v 0.449388 0.183603 -0.24688
v 0.1925 0.0638487 -0.165123
v 0.17442 0.137439 -0.166468
v 0.484266 0.248522 -0.289228
v 0.445754 0.167768 -0.290199
v 0.318111 0.156736 -0.314396
v 0.484266 0.248522 -0.289228
v 0.318111 0.156736 -0.314396
v 0.327163 0.199146 -0.202326
v 0.00768763 0.121852 -0.146932
v 0.17442 0.137439 -0.166468
v 0.165367 0.0950291 -0.278537
v -0.00136503 0.0794423 -0.259002
v -0.173405 0.0894047 -0.175193
v 0.00768763 0.121852 -0.146932
v -0.00136503 0.0794423 -0.259002
v 0.185824 0.0330949 -0.247037
v 0.445754 0.167768 -0.290199
v 0.449388 0.183603 -0.24688
v 0.1925 0.0638487 -0.165123
v -0.173405 0.0894047 -0.175193
v -0.105488 0.0344004 -0.194619
v -0.101854 0.0502358 -0.1513
v 0.484266 0.248522 -0.289228
v -0.00136503 0.0794423 -0.259002
v 0.165367 0.0950291 -0.278537
v 0.185824 0.0330949 -0.247037
v 0.327163 0.199146 -0.202326
v 0.327163 0.199146 -0.202326
v 0.318111 0.156736 -0.314396
v -0.0903745 0.857901 -0.495119
v -0.108771 0.864639 -0.454049
v -0.0214294 0.88462 -0.469153
v -0.0467039 0.867891 -0.502671
v -0.0834962 0.881368 -0.420531
v -0.0398256 0.891358 -0.428083
v -0.0467039 0.867891 -0.502671
v -0.0214294 0.88462 -0.469153
v 0.187873 0.205345 -0.258825
v 0.162598 0.188616 -0.292342
v -0.0214294 0.88462 -0.469153
v -0.0398256 0.891358 -0.428083
v 0.169477 0.212083 -0.217755
v 0.187873 0.205345 -0.258825
v -0.0834962 0.881368 -0.420531
v 0.125806 0.202093 -0.210202
v 0.114773 0.0808393 -0.208358
v 0.149894 0.104086 -0.161781
v 0.125806 0.202093 -0.210202
v 0.100531 0.185364 -0.24372
v 0.210579 0.117968 -0.172276
v 0.169477 0.212083 -0.217755
v 0.201021 0.0853582 -0.275923
v 0.140336 0.0714756 -0.265429
v 0.118928 0.178626 -0.28479
v 0.162598 0.188616 -0.292342
v 0.114773 0.0808393 -0.208358
v 0.100531 0.185364 -0.24372
v 0.236143 0.108605 -0.229347
v 0.187873 0.205345 -0.258825
v 0.236143 0.108605 -0.229347
v 0.187873 0.205345 -0.258825
v -0.108771 0.864639 -0.454049
v 0.100531 0.185364 -0.24372
v -0.0903745 0.857901 -0.495119
v 0.118928 0.178626 -0.28479
v -0.108771 0.864639 -0.454049
v 0.100531 0.185364 -0.24372
v 0.22353 0.0699497 -0.21681
v 0.185692 0.071686 -0.174631
v 0.202069 -0.00644457 -0.189377
v 0.179222 0.0483125 -0.244783
v 0.141384 0.0500488 -0.202604

vn 0.435059 0.294678 0.850586
vn 0.95166 -0.00806427 -0.305664
vn 0.0465088 0.998535 -0.0275574
vn 0.94873 -0.0126648 -0.314209
vn -0.432617 -0.552734 -0.711914
vn -0.924805 -0.233643 0.299805
vn 0.95459 -0.0125809 -0.296631
vn -0.924805 -0.233643 0.299805
vn 0.0667114 -0.533203 0.842773
vn 0.0795288 -0.996582 -0.0130081
vn 0.0795288 -0.996582 -0.0130081
vn 0.435059 0.294678 0.850586
vn 0.286377 -0.617188 0.732422
vn 0.0465088 0.998535 -0.0275574
vn -0.179565 0.982422 0.0454102
vn 0.020752 0.999512 0.0219727
vn 0.94873 -0.0126648 -0.314209
vn 0.578613 -0.215942 -0.786133
vn -0.432617 -0.552734 -0.711914
vn 0.578613 -0.215942 -0.786133
vn -0.120117 -0.538086 -0.833984
vn -0.432617 -0.552734 -0.711914
vn 0.242432 -0.967773 -0.0656738
vn -0.00590897 -0.999512 0.0144806
vn 0.0167236 -0.96582 0.257324
vn -0.0743408 -0.996094 0.0364075
vn 0.0372314 -0.964844 0.258789
vn 0.0369873 -0.964844 0.259033
vn 0.578613 -0.215942 -0.786133
vn 0.94873 -0.0126648 -0.314209
vn 0.606934 0.0079422 0.793945
vn 0.722168 0.00579834 0.691406
vn -0.0387268 0.956055 -0.289551
vn -0.0831299 0.955566 -0.282471
vn 0.130127 0.962891 0.236206
vn 0.14624 0.964355 0.220215
vn 0.0603638 0.997559 -0.0319824
vn -0.00328827 0.998535 -0.0525513
vn 0.193848 0.970703 0.140503
vn 0.147949 0.986816 -0.059967
vn -0.12915 -0.97168 -0.196899
vn -0.113647 -0.970703 -0.210083
vn -0.113403 -0.970703 -0.210083
vn -0.0743408 -0.996094 0.0364075
vn -0.194336 -0.977539 -0.0768433
vn -0.179565 -0.980957 0.0700073
vn 0.386719 -0.915039 -0.112671
vn 0.391846 -0.518066 0.759766
vn 0.242432 -0.967773 -0.0656738
vn 0.929688 -0.202271 0.306885
vn 0.0667114 -0.533203 0.842773
vn -0.00590897 -0.999512 0.0144806
vn -0.0802612 -0.971191 -0.224121
vn -0.189209 -0.635742 -0.748047
vn -0.00328827 0.998535 -0.0525513
vn -0.3125 0.281982 -0.906738
vn 0.0899658 0.961914 0.256348
vn 0.929688 -0.202271 0.306885
vn 0.184326 -0.0153351 -0.982422
vn 0.0312195 -0.0146713 -0.999023
vn 0.95459 -0.0125809 -0.296631
vn 0.95459 -0.0125809 -0.296631
vn 0.0667114 -0.533203 0.842773
vn 0.929688 -0.202271 0.306885
vn 0.0465088 0.998535 -0.0275574
vn -0.00328827 0.998535 -0.0525513
vn -0.179565 0.982422 0.0454102
vn 0.0795288 -0.996582 -0.0130081
vn -0.3125 0.281982 -0.906738
vn 0.0795288 -0.996582 -0.0130081
vn 0.952637 -0.00804901 -0.303711
vn 0.0465088 0.998535 -0.0275574
vn 0.95166 -0.00806427 -0.305664
vn -0.0163727 0.958008 -0.286133
vn -0.0387268 0.956055 -0.289551
vn 0.0603638 0.997559 -0.0319824
vn 0.0686646 0.96582 -0.249268
vn 0.147949 0.986816 -0.059967
vn -0.106079 -0.974121 0.197876
vn -0.179565 -0.980957 0.0700073
vn 0.386719 -0.915039 -0.112671
vn 0.0722656 -0.964844 0.250977
vn 0.0369873 -0.964844 0.259033
vn 0.020752 0.999512 0.0219727
vn -0.499023 -0.00961304 -0.866211
vn 0.0312195 -0.0146713 -0.999023
vn 0.184326 -0.0153351 -0.982422
vn -0.499023 -0.00961304 -0.866211
vn -0.762695 -0.00481033 -0.645996
vn -0.763184 -0.00480652 -0.645996
vn -0.915039 -0.000249624 -0.402344
vn -0.244141 0.0156021 0.969238
vn -0.509766 0.0156708 0.859863
vn -0.244141 0.0156021 0.969238
vn 0.0987549 0.0138397 0.994629
vn 0.0986938 0.0138397 0.994629
vn 0.606934 0.0079422 0.793945
vn 0.722168 0.00579834 0.691406
vn -0.00328827 0.998535 -0.0525513
vn -0.312012 0.204712 -0.927734
vn -0.0132217 -0.999512 0.0110016
vn -0.305664 0.257813 -0.916016
vn -0.0116959 -0.999512 -0.00666809
vn -0.0283203 0.999023 -0.0319824
vn 0.0145721 0.999512 -0.0248718
vn -0.0283203 0.999023 -0.0319824
vn -0.930176 0.0108032 0.366455
vn -0.931641 0.0107498 0.361816
vn 0.950684 -0.0100937 -0.309082
vn 0.0145721 0.999512 -0.0248718
vn 0.95166 -0.0100479 -0.305664
vn 0.329102 0.230103 0.915527
vn 0.275146 0.280029 0.919434
vn -0.0132217 -0.999512 0.0110016
vn -0.0116959 -0.999512 -0.00666809
vn 0.0145721 0.999512 -0.0248718
vn -0.0283203 0.999023 -0.0319824
vn 0.275146 0.280029 0.919434
vn -0.0283203 0.999023 -0.0319824
vn -0.931641 0.0107498 0.361816
vn 0.0145721 0.999512 -0.0248718
vn 0.329102 0.230103 0.915527
vn 0.95166 -0.0100479 -0.305664
vn -0.243042 0.151367 0.958008
vn -0.222168 0.119019 0.967285
vn -0.04953 0.0905151 0.994629
vn -0.217529 -0.516602 -0.827637
vn -0.384766 -0.468262 -0.794922
vn -0.405518 -0.435547 -0.803223
vn 0.44043 0.316895 0.839844
vn 0.317139 0.179321 0.931152
vn 0.44043 0.279541 0.853027
vn 0.180908 -0.0438843 0.982422
vn 0.180908 -0.0439148 0.982422
vn 0.277832 -0.269775 -0.921387
vn 0.277832 -0.307617 -0.909668
vn 0.149048 -0.427734 -0.891113
vn -0.567383 0.794922 -0.212646
vn -0.506348 0.830566 -0.230103
vn -0.506348 0.830566 -0.230103
vn -0.136597 0.943359 -0.301758
vn -0.274658 0.90625 -0.320801
vn -0.274902 0.90625 -0.320557
vn -0.136597 0.943359 -0.301758
vn 0.0536194 0.945801 -0.320068
vn -0.0189972 0.94873 -0.314453
vn -0.0189972 0.94873 -0.314453
vn 0.274414 -0.908203 0.315186
vn 0.772461 -0.619629 0.135254
vn 0.772461 -0.619629 0.135254
vn 0.27417 -0.908203 0.315186
vn -0.533203 -0.786621 0.311035
vn -0.328125 -0.88623 0.325684
vn -0.328125 -0.88623 0.325684
vn 0.89502 -0.44043 0.0641479
vn -0.0960693 -0.498047 -0.861328
vn 0.00481033 -0.595215 -0.803223
vn 0.00482559 -0.595215 -0.803223
vn 0.199097 0.148926 0.968262
vn -0.401367 0.879395 -0.255859
vn -0.401367 0.879395 -0.255859
vn -0.271484 0.919922 -0.281494
vn -0.271484 0.919922 -0.281494
vn -0.271484 0.919922 -0.281494
vn -0.271484 0.919922 -0.281494
vn -0.271484 0.919922 -0.281494
vn -0.271484 0.919922 -0.281494
vn 0.403564 -0.156494 -0.901367
vn 0.958008 0.232178 -0.165649
vn 0.958008 0.232178 -0.165649
vn 0.403564 -0.156494 -0.901367
vn 0.958008 0.232178 -0.165649
vn 0.554688 0.388672 0.735352
vn 0.554688 0.388672 0.735352
vn 0.958008 0.232178 -0.165649
vn -0.403564 0.156494 0.901367
vn -0.403564 0.156494 0.901367
vn -0.966797 -0.200195 0.155884
vn -0.412842 0.188232 0.890625
vn -0.271484 0.919922 -0.281494
vn -0.271484 0.919922 -0.281494
vn 0.544922 0.420166 0.725098
vn -0.271484 0.919922 -0.281494
vn 0.394043 -0.124695 -0.910156
vn -0.563477 -0.356689 -0.744629
vn -0.271484 0.919922 -0.281494
vn -0.271484 0.919922 -0.281494
vn -0.966797 -0.200195 0.155884
vn -0.271484 0.919922 -0.281494
vn 0.948242 0.263672 -0.175293
vn -0.271484 0.919922 -0.281494
vn 0.948242 0.263672 -0.175293
vn -0.271484 0.919922 -0.281494
vn -0.958008 -0.232178 0.165649
vn -0.958008 -0.232178 0.165649
vn -0.554688 -0.388672 -0.735352
vn -0.554688 -0.388672 -0.735352
vn -0.958008 -0.232178 0.165649
vn -0.958008 -0.232178 0.165649
vn 0.958008 0.232178 -0.165649
vn -0.403564 0.156494 0.901367
vn 0.271484 -0.919922 0.281494
vn 0.403564 -0.156494 -0.901367
vn -0.958008 -0.232178 0.165649

vt 0.328501 0.381
vt 0.289716 0.414589
vt 0.367286 0.414589
vt 0.227733 0.405696
vt 0.227733 0.417305
vt 0.275136 0.405696
vt 0.227733 0.405696
vt 0.275136 0.405696
vt 0.227733 0.417305
vt 0.466583 0.207318
vt 0.528824 0.207318
vt 0.528824 0.160623
vt 0.45716 0.179725
vt 0.528824 0.103319
vt 0.379617 0.103319
vt 0.380776 0.153573
vt 0.193719 0.403026
vt 0.197104 0.415302
vt 0.21062 0.415246
vt 0.99902 0.383055
vt 0.931232 0.386039
vt 0.99902 0.395513
vt 0.934526 0.441285
vt 0.99902 0.441285
vt 0.782039 0.248816
vt 0.755274 0.441285
vt 0.931232 0.386039
vt 0.900914 0.218224
vt 0.787343 0.411348
vt 0.780765 0.418201
vt 0.633596 0.42664
vt 0.636387 0.414743
vt 0.379996 0.345851
vt 0.45716 0.179725
vt 0.379996 0.345851
vt 0.218312 0.301854
vt 0.19496 0.103319
vt 0.378192 0.170026
vt 0.0935603 0.229362
vt -0.0024392 0.103319
vt 0.782039 0.248816
vt 0.950377 0.216078
vt 0.931232 0.386039
vt 0.755274 0.441285
vt 0.655605 0.32225
vt 0.56309 0.439757
vt 0.755274 0.441285
vt 0.931232 0.386039
vt 0.934526 0.441285
vt 0.99902 0.383055
vt 0.99902 0.395513
vt 0.99902 0.441285
vt 0.99902 0.383055
vt 0.45716 0.179725
vt 0.380776 0.153573
vt 0.528824 0.141522
vt 0.45716 0.179725
vt 0.585566 0.430916
vt 0.736455 0.426638
vt 0.739832 0.438381
vt 0.592475 0.437428
vt 0.193719 0.403026
vt 0.21062 0.415246
vt 0.197104 0.415302
vt 0.528824 0.103319
vt 0.383361 0.137121
vt 0.379617 0.103319
vt 0.466583 0.207318
vt 0.528824 0.179725
vt 0.528824 0.207318
vt 0.309109 0.381
vt 0.367286 0.414589
vt 0.289716 0.414589
vt 0.218312 0.301854
vt 0.331846 0.338146
vt 0.19496 0.103319
vt 0.0935603 0.229362
vt -0.0024392 0.103319
vt 0.655605 0.32225
vt 0.56309 0.439757
vt 0.755274 0.441285
vt 0.99902 0.383055
vt 0.950377 0.216078
vt 0.380776 0.153573
vt 0.779503 0.239201
vt 0.949046 0.20709
vt 0.950377 0.216078
vt 0.782039 0.248816
vt 0.653069 0.31123
vt 0.655605 0.32225
vt 0.56309 0.439757
vt 0.653069 0.31123
vt 0.56309 0.439757
vt 0.655605 0.32225
vt 0.779503 0.239201
vt 0.782039 0.248816
vt 0.898379 0.209194
vt 0.900914 0.218224
vt 0.380776 0.153573
vt 0.995114 0.0648295
vt 0.995114 0.0951176
vt 0.108338 0.0648295
vt 0.108338 0.0951176
vt 0.108338 0.0244451
vt 0.995114 0.0244452
vt 0.0910854 0.322324
vt 0.0512227 0.332187
vt 0.0341386 0.302597
vt 0.741293 0.779155
vt 0.798836 0.793393
vt 0.716631 0.821869
vt 0.995114 0.0648295
vt 0.108338 0.0648295
vt 0.995114 0.0951176
vt 0.108338 0.0951176
vt 0.995114 0.0244452
vt 0.108338 0.0244451
vt 0.0512227 0.332187
vt 0.0910854 0.322324
vt 0.0341386 0.302597
vt 0.798836 0.793393
vt 0.741293 0.779155
vt 0.716631 0.821869
vt 0.00193548 0.729296
vt 0.0897204 0.74889
vt 0.1853 0.843361
vt 0.185849 0.615781
vt 0.0898988 0.709616
vt 0.00193548 0.729296
vt 0.733967 0.72933
vt 0.550593 0.843341
vt 0.645981 0.748932
vt 0.367986 0.770799
vt 0.367947 0.843351
vt 0.733967 0.72933
vt 0.646204 0.709655
vt 0.550012 0.616357
vt 0.0268422 0.523884
vt 0.20582 0.469708
vt 0.20582 0.583645
vt 0.530777 0.584944
vt 0.368298 0.584295
vt 0.368298 0.470357
vt 0.530777 0.471007
vt 0.707593 0.529871
vt 0.530777 0.584944
vt 0.530777 0.471007
vt 0.368095 0.688044
vt 0.646204 0.709655
vt 0.645981 0.748932
vt 0.367986 0.770799
vt 0.00193548 0.729296
vt 0.0898988 0.709616
vt 0.0897204 0.74889
vt 0.733967 0.72933
vt 0.185849 0.615781
vt 0.36793 0.616069
vt 0.368095 0.688044
vt 0.550593 0.843341
vt 0.20582 0.583645
vt 0.20582 0.469708
vt 0.742809 0.864051
vt 0.71784 0.820804
vt 0.817716 0.820804
vt 0.792747 0.864051
vt 0.742809 0.777556
vt 0.792747 0.777556
vt 0.997456 0.960609
vt 0.997456 0.997313
vt 0.0965896 0.997313
vt 0.0965896 0.960609
vt 0.997456 0.997313
vt 0.997456 0.960609
vt 0.0965896 0.960609
vt 0.0965896 0.997313
vt 0.997456 0.916583
vt 0.0965896 0.916583
vt 0.0019543 0.879879
vt 0.0019543 0.916583
vt 0.0965896 0.916583
vt 0.0965896 0.879879
vt 0.0019543 0.960609
vt 0.0965896 0.960609
vt 0.0019543 0.960609
vt 0.0019543 0.916583
vt 0.0965896 0.916583
vt 0.0965896 0.960609
vt 0.0019543 0.879879
vt 0.0965896 0.879879
vt 0.0019543 0.997313
vt 0.0965896 0.997313
vt 0.0019543 0.997313
vt 0.0965896 0.997313
vt 0.997456 0.879879
vt 0.0965896 0.879879
vt 0.997456 0.916583
vt 0.0965896 0.916583
vt 0.997456 0.879879
vt 0.0965896 0.879879
vt 0.754048 0.641251
vt 0.872733 0.744036
vt 0.872733 0.641251
vt 0.872733 0.538467
vt 0.991419 0.641251


#
# MESH 000
#
g surface_000
usemtl surface_000
f 99/99/99 37/37/37 67/67/67
f 82/82/82 83/83/83 27/27/27
f 71/71/71 72/72/72 73/73/73
f 62/62/62 63/63/63 64/64/64
f 54/54/54 55/55/55 56/56/56
f 33/33/33 34/34/34 16/16/16
f 17/17/17 18/18/18 19/19/19
f 7/7/7 8/8/8 9/9/9
f 1/1/1 2/2/2 3/3/3
f 97/97/97 96/96/96 98/98/98
f 97/97/97 95/95/95 96/96/96
f 95/95/95 94/94/94 96/96/96
f 95/95/95 92/92/92 94/94/94
f 92/92/92 93/93/93 94/94/94
f 91/91/91 89/89/89 90/90/90
f 89/89/89 88/88/88 90/90/90
f 89/89/89 85/85/85 88/88/88
f 85/85/85 87/87/87 88/88/88
f 85/85/85 86/86/86 87/87/87
f 84/84/84 13/13/13 12/12/12
f 10/10/10 12/12/12 13/13/13
f 10/10/10 11/11/11 12/12/12
f 21/21/21 81/81/81 23/23/23
f 21/21/21 23/23/23 22/22/22
f 20/20/20 21/21/21 22/22/22
f 22/22/22 23/23/23 24/24/24
f 79/79/79 80/80/80 26/26/26
f 25/25/25 79/79/79 26/26/26
f 25/25/25 26/26/26 27/27/27
f 25/25/25 27/27/27 28/28/28
f 76/76/76 78/78/78 77/77/77
f 77/77/77 74/74/74 76/76/76
f 74/74/74 16/16/16 76/76/76
f 16/16/16 15/15/15 76/76/76
f 14/14/14 15/15/15 16/16/16
f 14/14/14 16/16/16 12/12/12
f 74/74/74 75/75/75 16/16/16
f 68/68/68 69/69/69 70/70/70
f 68/68/68 54/54/54 69/69/69
f 65/65/65 66/66/66 67/67/67
f 65/65/65 56/56/56 66/66/66
f 58/58/58 60/60/60 61/61/61
f 58/58/58 59/59/59 60/60/60
f 35/35/35 38/38/38 57/57/57
f 35/35/35 37/37/37 38/38/38
f 35/35/35 36/36/36 37/37/37
f 36/36/36 39/39/39 37/37/37
f 37/37/37 39/39/39 40/40/40
f 42/42/42 53/53/53 43/43/43
f 41/41/41 42/42/42 43/43/43
f 41/41/41 43/43/43 44/44/44
f 45/45/45 41/41/41 44/44/44
f 46/46/46 45/45/45 44/44/44
f 51/51/51 52/52/52 49/49/49
f 48/48/48 51/51/51 49/49/49
f 50/50/50 51/51/51 48/48/48
f 47/47/47 48/48/48 49/49/49
f 29/29/29 31/31/31 32/32/32
f 29/29/29 30/30/30 31/31/31
f 6/6/6 5/5/5 9/9/9
f 4/4/4 5/5/5 6/6/6
f 121/121/121 122/122/122 123/123/123
f 118/118/118 119/119/119 120/120/120
f 109/109/109 110/110/110 111/111/111
f 106/106/106 107/107/107 108/108/108
f 116/116/116 117/117/117 113/113/113
f 116/116/116 113/113/113 112/112/112
f 112/112/112 113/113/113 114/114/114
f 114/114/114 113/113/113 115/115/115
f 104/104/104 105/105/105 100/100/100
f 104/104/104 100/100/100 102/102/102
f 100/100/100 101/101/101 102/102/102
f 102/102/102 101/101/101 103/103/103
f 145/145/145 146/146/146 147/147/147
f 138/138/138 139/139/139 140/140/140
f 130/130/130 131/131/131 132/132/132
f 127/127/127 128/128/128 129/129/129
f 143/143/143 160/160/160 161/161/161
f 143/143/143 142/142/142 160/160/160
f 141/141/141 142/142/142 143/143/143
f 141/141/141 143/143/143 144/144/144
f 132/132/132 159/159/159 134/134/134
f 132/132/132 134/134/134 133/133/133
f 133/133/133 134/134/134 126/126/126
f 133/133/133 126/126/126 125/125/125
f 124/124/124 125/125/125 126/126/126
f 128/128/128 156/156/156 157/157/157
f 128/128/128 157/157/157 158/158/158
f 158/158/158 157/157/157 137/137/137
f 158/158/158 137/137/137 136/136/136
f 135/135/135 136/136/136 137/137/137
f 155/155/155 150/150/150 149/149/149
f 148/148/148 149/149/149 150/150/150
f 148/148/148 150/150/150 151/151/151
f 153/153/153 148/148/148 151/151/151
f 153/153/153 151/151/151 154/154/154
f 152/152/152 153/153/153 154/154/154
f 198/198/198 197/197/197 199/199/199
f 198/198/198 196/196/196 197/197/197
f 196/196/196 171/171/171 197/197/197
f 196/196/196 168/168/168 171/171/171
f 168/168/168 170/170/170 171/171/171
f 168/168/168 169/169/169 170/170/170
f 176/176/176 194/194/194 195/195/195
f 176/176/176 195/195/195 177/177/177
f 173/173/173 176/176/176 177/177/177
f 173/173/173 177/177/177 174/174/174
f 172/172/172 173/173/173 174/174/174
f 172/172/172 174/174/174 175/175/175
f 182/182/182 192/192/192 193/193/193
f 182/182/182 193/193/193 183/183/183
f 179/179/179 182/182/182 183/183/183
f 179/179/179 183/183/183 180/180/180
f 178/178/178 179/179/179 180/180/180
f 178/178/178 180/180/180 181/181/181
f 190/190/190 187/187/187 191/191/191
f 190/190/190 184/184/184 187/187/187
f 184/184/184 186/186/186 187/187/187
f 184/184/184 185/185/185 186/186/186
f 185/185/185 189/189/189 186/186/186
f 185/185/185 188/188/188 189/189/189
f 164/164/164 166/166/166 167/167/167
f 164/164/164 163/163/163 166/166/166
f 162/162/162 163/163/163 164/164/164
f 162/162/162 164/164/164 165/165/165
f 201/201/201 204/204/204 202/202/202
f 204/204/204 203/203/203 202/202/202
f 203/203/203 200/200/200 202/202/202
f 200/200/200 201/201/201 202/202/202

