#
# OBJECT NAME
#
o model_1697
mtllib 1697.mtl

#
# VERTEX BUFFER 000
#
v -0.500073 0.84131 0.339482
v -0.5 1.0025 0
v -0.5 0.841561 -0.339248
v 0.890547 1.003 0.000259439
v 0.848777 0.841267 0.339522
v 0.848777 0.841884 -0.339054
v -0.500085 -0.00244921 0.000259499
v 0.62135 -0.00245316 0.000259439
v 0.663934 0.164176 0.341547
v -0.5 0.164045 0.341734
v 0.62135 -0.00245316 0.000259439
v -0.500085 -0.00244921 0.000259499
v -0.5 0.164045 -0.341734
v 0.663934 0.164176 -0.341547
v 0.848777 0.841267 0.339522
v -0.500073 0.84131 0.339482
v -0.5 0.500175 0.47774
v 0.75511 0.499876 0.478
v -0.5 0.841561 -0.339248
v 0.848777 0.841884 -0.339054
v 0.75511 0.499876 -0.478
v -0.5 0.500175 -0.47774
v 0.75511 0.499876 0.478
v 0.75511 0.499876 -0.478
v 0.62135 -0.00245316 0.000259439
v 0.663934 0.164176 -0.341547
v 0.663934 0.164176 0.341547
v -0.5 0.500175 -0.47774
v -0.5 0.500175 0.47774
v -0.5 0.164045 -0.341734
v -0.500085 -0.00244921 0.000259499
v -0.5 0.164045 0.341734
v 0.890547 1.003 0.000259439
v -0.5 1.0025 0
v 0.890547 1.003 0.000259439
v -0.5 1.0025 0
v 0.350722 0.834867 0.5
v 0 1.0025 0.5
v -0.351082 0.834867 0.5
v 0 1.003 -0.890547
v 0.351082 0.835157 -0.841089
v -0.351082 0.835157 -0.841089
v 0 -0.00215021 0.5
v 0 -0.00245318 -0.62135
v 0.342968 0.148441 -0.665562
v 0.342968 0.148495 0.50007
v 0 -0.00245318 -0.62135
v 0 -0.00215021 0.5
v -0.342968 0.148309 0.5
v -0.342968 0.148441 -0.665562
v 0.351082 0.835157 -0.841089
v 0.350722 0.834867 0.5
v 0.478 0.500175 0.5
v 0.478 0.499876 -0.75511
v -0.478 0.499876 -0.75511
v -0.478 0.500175 0.5
v -0.351082 0.834867 0.5
v -0.351082 0.835157 -0.841089
v 0.478 0.499876 -0.75511
v -0.478 0.499876 -0.75511
v 0 -0.00245318 -0.62135
v -0.342968 0.148441 -0.665562
v 0.342968 0.148441 -0.665562
v -0.478 0.500175 0.5
v 0.478 0.500175 0.5
v -0.342968 0.148309 0.5
v 0 -0.00215021 0.5
v 0.342968 0.148495 0.50007
v 0 1.003 -0.890547
v 0 1.0025 0.5
v 0 1.003 -0.890547
v 0 1.0025 0.5
v -0.478 0.500175 0.5
v -0.478 0.499876 -0.75511
v 0.478 0.500175 0.5
v 0.478 0.499876 -0.75511

vn -1 -9.25064e-005 -4.71473e-005
vn -0.999512 0.000225663 -0.00010705
vn -1 -9.25064e-005 -4.71473e-005
vn 0.967773 -0.250488 -0.000227094
vn 0.964355 -0.263672 -0.000104845
vn 0.964355 -0.263672 -0.000104845
vn 9.56059e-005 -1 0
vn 9.56059e-005 -1 1.96099e-005
vn 8.64267e-006 -0.649414 0.759766
vn 1.68681e-005 -0.680664 0.731934
vn 9.56059e-005 -1 1.96099e-005
vn 9.56059e-005 -1 0
vn 1.67489e-005 -0.681152 -0.731445
vn 8.58307e-006 -0.649902 -0.759277
vn -0.000147939 0.728027 0.685059
vn -0.000139236 0.695801 0.717773
vn -5.98431e-005 0.018158 0.999512
vn -5.99623e-005 0.0810547 0.996582
vn -0.000124812 0.695801 -0.717773
vn -0.00013566 0.728516 -0.68457
vn -4.04119e-005 0.081543 -0.996582
vn -4.28557e-005 0.0186462 -0.999512
vn 0.964355 -0.263184 -4.98891e-005
vn 0.964355 -0.263184 -4.98295e-005
vn 0.96875 -0.247559 0
vn 0.964844 -0.26123 2.38419e-007
vn 0.964844 -0.26123 2.38419e-007
vn -1 -5.3525e-005 -2.24113e-005
vn -1 -5.3525e-005 -2.24113e-005
vn -1 2.3365e-005 0
vn -0.999512 0.000509739 0
vn -1 2.3365e-005 0
vn -0.00022006 0.999512 0.000714779
vn -0.00022006 0.999512 0.000627995
vn -0.00022006 0.999512 0.000714779
vn -0.00022006 0.999512 0.000627995
vn 0 0 1
vn 0 0 1
vn 0 0 1
vn 0 -0.282471 -0.958984
vn 0 -0.25 -0.967773
vn 0 -0.25 -0.967773
vn 0.000171185 -1 0.000115514
vn 0.000144839 -1 0.000115514
vn 0.761719 -0.646973 9.88245e-005
vn 0.732422 -0.680664 0.000104249
vn 0.000144839 -1 0.000115514
vn 0.000171185 -1 0.000115514
vn -0.732422 -0.680664 4.97699e-005
vn -0.762207 -0.646973 4.71473e-005
vn 0.683594 0.729004 0.000258207
vn 0.717285 0.696289 0.000247002
vn 0.999512 0.00183773 9.72152e-005
vn 0.998047 0.0584717 0.000103056
vn -0.998047 0.0581665 1.03712e-005
vn -0.999512 0.00158501 1.24574e-005
vn -0.717285 0.696289 0.000149131
vn -0.683594 0.729004 0.000165462
vn 0 -0.247559 -0.96875
vn 0 -0.247559 -0.96875
vn 0 -0.281006 -0.959473
vn 0 -0.248169 -0.968262
vn 0 -0.248169 -0.968262
vn -2.18749e-005 5.09024e-005 1
vn -2.18749e-005 5.09024e-005 1
vn -4.50611e-005 8.7738e-005 1
vn -0.00010246 -0.000233531 0.999512
vn -4.50611e-005 8.7738e-005 1
vn -1.78814e-007 0.999512 0.000320435
vn -1.78814e-007 0.999512 0.000320435
vn -1.78814e-007 0.999512 0.000320435
vn -1.78814e-007 0.999512 0.000320435
vn -0.999512 0.00158501 1.24574e-005
vn -0.998047 0.0581665 1.03712e-005
vn 0.999512 0.00183773 9.72152e-005
vn 0.998047 0.0584717 0.000103056

vt 0.896063 0.107106
vt 0.978969 0.242212
vt 0.896063 0.399869
vt 0.978969 0.242212
vt 0.896063 0.399869
vt 0.896063 0.107106
vt 0.499158 0.00999999
vt 0.00261138 0.00999999
vt 0.00261138 0.254252
vt 0.499158 0.254252
vt 0.00261138 0.00999999
vt 0.499158 0.00999999
vt 0.499158 0.254252
vt 0.00261138 0.254252
vt 0.00261138 0.757753
vt 0.499158 0.757753
vt 0.499158 0.504087
vt 0.00261138 0.504087
vt 0.499158 0.757753
vt 0.00261138 0.757753
vt 0.00261138 0.504087
vt 0.499158 0.504087
vt 0.754913 0.46341
vt 0.754863 0.0433171
vt 0.532039 0.242212
vt 0.603032 0.107106
vt 0.603032 0.399869
vt 0.754913 0.46341
vt 0.754863 0.0433171
vt 0.603032 0.399869
vt 0.532039 0.242212
vt 0.603032 0.107106
vt 0.00261138 0.99
vt 0.499158 0.99
vt 0.00261138 0.99
vt 0.499158 0.99
vt 0.896063 0.107106
vt 0.978969 0.242212
vt 0.896063 0.399869
vt 0.978969 0.242212
vt 0.896063 0.399869
vt 0.896063 0.107106
vt 0.499158 0.00999999
vt 0.00261138 0.00999999
vt 0.00261138 0.258714
vt 0.499158 0.258714
vt 0.00261138 0.00999999
vt 0.499158 0.00999999
vt 0.499158 0.24195
vt 0.00261138 0.24195
vt 0.00261138 0.757795
vt 0.499158 0.757795
vt 0.499158 0.601107
vt 0.00261138 0.601107
vt 0.00261138 0.601107
vt 0.499158 0.601107
vt 0.499158 0.757795
vt 0.00261138 0.757795
vt 0.754913 0.46341
vt 0.754863 0.0433171
vt 0.532039 0.242212
vt 0.603032 0.107106
vt 0.603032 0.399869
vt 0.754913 0.46341
vt 0.754863 0.0433171
vt 0.603032 0.399869
vt 0.532039 0.242212
vt 0.603032 0.107106
vt 0.00261138 0.99
vt 0.499158 0.99
vt 0.00261138 0.99
vt 0.499158 0.99
vt 0.499158 0.407067
vt 0.00261138 0.407067
vt 0.499158 0.504087
vt 0.00261138 0.504087


#
# MESH 000
#
g surface_000
usemtl surface_000
f 16/16/16 35/35/35 36/36/36
f 16/16/16 15/15/15 35/35/35
f 15/15/15 16/16/16 17/17/17
f 15/15/15 17/17/17 18/18/18
f 17/17/17 9/9/9 18/18/18
f 17/17/17 10/10/10 9/9/9
f 7/7/7 9/9/9 10/10/10
f 7/7/7 8/8/8 9/9/9
f 33/33/33 19/19/19 34/34/34
f 33/33/33 20/20/20 19/19/19
f 19/19/19 20/20/20 21/21/21
f 19/19/19 21/21/21 22/22/22
f 14/14/14 22/22/22 21/21/21
f 14/14/14 13/13/13 22/22/22
f 11/11/11 13/13/13 14/14/14
f 11/11/11 12/12/12 13/13/13
f 30/30/30 31/31/31 32/32/32
f 29/29/29 30/30/30 32/32/32
f 29/29/29 28/28/28 30/30/30
f 1/1/1 28/28/28 29/29/29
f 1/1/1 3/3/3 28/28/28
f 1/1/1 2/2/2 3/3/3
f 25/25/25 26/26/26 27/27/27
f 24/24/24 27/27/27 26/26/26
f 24/24/24 23/23/23 27/27/27
f 6/6/6 23/23/23 24/24/24
f 6/6/6 5/5/5 23/23/23
f 4/4/4 5/5/5 6/6/6
f 75/75/75 45/45/45 76/76/76
f 75/75/75 46/46/46 45/45/45
f 43/43/43 45/45/45 46/46/46
f 43/43/43 44/44/44 45/45/45
f 50/50/50 73/73/73 74/74/74
f 50/50/50 49/49/49 73/73/73
f 47/47/47 49/49/49 50/50/50
f 47/47/47 48/48/48 49/49/49
f 52/52/52 71/71/71 72/72/72
f 52/52/52 51/51/51 71/71/71
f 51/51/51 52/52/52 53/53/53
f 51/51/51 53/53/53 54/54/54
f 69/69/69 57/57/57 70/70/70
f 69/69/69 58/58/58 57/57/57
f 55/55/55 57/57/57 58/58/58
f 55/55/55 56/56/56 57/57/57
f 66/66/66 67/67/67 68/68/68
f 65/65/65 66/66/66 68/68/68
f 65/65/65 64/64/64 66/66/66
f 37/37/37 64/64/64 65/65/65
f 37/37/37 39/39/39 64/64/64
f 37/37/37 38/38/38 39/39/39
f 61/61/61 62/62/62 63/63/63
f 60/60/60 63/63/63 62/62/62
f 60/60/60 59/59/59 63/63/63
f 42/42/42 59/59/59 60/60/60
f 42/42/42 41/41/41 59/59/59
f 40/40/40 41/41/41 42/42/42

