#
# OBJECT NAME
#
o model_1710
mtllib 1710.mtl

#
# VERTEX BUFFER 000
#
v 0.0760449 1.40209 -0.00991775
v -0.00125416 1.42522 -0.000347943
v 0.0492449 1.40067 0.0691661
v 0.475621 0.811 0.154326
v 0.502 0.811 -0.000128917
v -0.154196 0.811 0.475234
v 0.000258274 0.811 0.502
v -0.0347704 1.40129 0.0680717
v 0.475621 0.811 -0.154584
v 0.404626 0.811 -0.29392
v 0.0336193 1.40157 -0.0679838
v 0.294049 0.811 -0.404497
v 0.154713 0.811 -0.475492
v 0.404626 0.811 0.293662
v 0.294049 0.811 0.404239
v 0.154455 0.811 0.475363
v -0.0760449 1.40209 0.00991775
v -0.0492449 1.40067 -0.0691661
v -0.474343 0.811 -0.15608
v -0.502 0.811 -0.000128947
v 0.000258304 0.811 -0.502
v -0.474342 0.811 0.155822
v -0.40411 0.811 0.293662
v -0.293532 0.811 0.404239
v -0.40411 0.811 -0.29392
v -0.293532 0.811 -0.404497
v -0.154197 0.811 -0.475492
v -0.428274 -3.86453e-006 -0.139368
v -0.450327 -3.86453e-006 -0.000129044
v -0.502 0 0.000129163
v -0.475363 0 -0.154326
v 0.000258312 -3.86453e-006 -0.000128984
v -0.404368 0 -0.293661
v -0.364273 -3.86453e-006 -0.264977
v -0.475363 0 0.154584
v -0.428274 -3.86453e-006 0.13911
v -0.29379 0 -0.404239
v -0.264589 -3.86453e-006 -0.364661
v -0.404368 0 0.29392
v -0.364273 -3.86453e-006 0.264719
v -0.154455 0 -0.475234
v -0.13898 -3.86453e-006 -0.428662
v -0.29379 0 0.404497
v -0.264589 -3.86453e-006 0.364403
v 1.04308e-007 0 -0.502
v 0.000258669 -3.86453e-006 -0.450715
v -0.154455 0 0.475492
v -0.13898 -3.86453e-006 0.428404
v 0.154455 0 -0.475234
v 0.139497 -3.86453e-006 -0.428662
v 0 0 0.502
v 0.000258669 -3.86453e-006 0.450457
v 0.293791 0 -0.404239
v 0.265107 -3.86453e-006 -0.364661
v 0.154455 0 0.475492
v 0.139497 -3.86453e-006 0.428404
v 0.404368 0 -0.293661
v 0.364791 -3.86453e-006 -0.264977
v 0.293791 0 0.404497
v 0.265106 -3.86453e-006 0.364403
v 0.475363 0 -0.154326
v 0.428791 -3.86453e-006 -0.139368
v 0.404368 0 0.29392
v 0.364791 -3.86453e-006 0.264719
v 0.502 0 0.000129163
v 0.450845 -3.86453e-006 -0.000128984
v 0.475363 0 0.154584
v 0.428791 -3.86453e-006 0.13911
v -0.502 0 0.000129163
v -0.502 0.811 -0.000128947
v -0.474343 0.811 -0.15608
v -0.475363 0 -0.154326
v -0.40411 0.811 -0.29392
v -0.404368 0 -0.293661
v -0.474342 0.811 0.155822
v -0.502 0.811 -0.000128947
v -0.502 0 0.000129163
v -0.475363 0 0.154584
v -0.293532 0.811 -0.404497
v -0.29379 0 -0.404239
v -0.404368 0 0.29392
v -0.40411 0.811 0.293662
v -0.154197 0.811 -0.475492
v -0.154455 0 -0.475234
v -0.293532 0.811 0.404239
v -0.29379 0 0.404497
v 0.000258304 0.811 -0.502
v 1.04308e-007 0 -0.502
v -0.154196 0.811 0.475234
v -0.154455 0 0.475492
v 0.000258304 0.811 -0.502
v 0.154713 0.811 -0.475492
v 0.154455 0 -0.475234
v 1.04308e-007 0 -0.502
v 0.000258274 0.811 0.502
v 0 0 0.502
v 0.294049 0.811 -0.404497
v 0.293791 0 -0.404239
v 0.154455 0.811 0.475363
v 0.000258274 0.811 0.502
v 0 0 0.502
v 0.154455 0 0.475492
v 0.404626 0.811 -0.29392
v 0.404368 0 -0.293661
v 0.294049 0.811 0.404239
v 0.293791 0 0.404497
v 0.475621 0.811 -0.154584
v 0.475363 0 -0.154326
v 0.404626 0.811 0.293662
v 0.404368 0 0.29392
v 0.502 0.811 -0.000128917
v 0.502 0 0.000129163
v 0.475621 0.811 0.154326
v 0.475363 0 0.154584
v 0.502 0.811 -0.000128917
v 0.502 0 0.000129163

vn 0.720703 0.677246 -0.146362
vn -0.00231743 0.999512 0.000668526
vn 0.448975 0.641113 0.621582
vn 0.92627 0.214844 0.309326
vn 0.983398 0.180298 0.000361681
vn -0.337646 0.208984 0.91748
vn 0.000561714 0.214844 0.976563
vn -0.220825 0.618164 0.753906
vn 0.933105 0.180664 -0.310059
vn 0.794434 0.183472 -0.578613
vn 0.220093 0.618164 -0.753906
vn 0.586914 0.210938 -0.78125
vn 0.337402 0.209229 -0.91748
vn 0.80127 0.213257 0.558105
vn 0.578125 0.17688 0.795898
vn 0.287109 0.213989 0.933594
vn -0.722168 0.675781 0.144775
vn -0.44873 0.640625 -0.622559
vn -0.925781 0.214966 -0.310547
vn -0.983398 0.18103 -0.000438213
vn -0.000759602 0.214355 -0.976563
vn -0.932617 0.18103 0.311035
vn -0.793945 0.183594 0.579102
vn -0.586914 0.210693 0.78125
vn -0.80127 0.212891 -0.558594
vn -0.578125 0.176636 -0.795898
vn -0.287354 0.213379 -0.933594
vn -1.66297e-005 -1 -5.42402e-006
vn -1.74046e-005 -1 0
vn -7.76649e-005 -1 0
vn -7.48634e-005 -1 -2.44975e-005
vn 0 -1 0
vn -6.45518e-005 -1 -4.68493e-005
vn -1.41859e-005 -1 -1.03116e-005
vn -7.4625e-005 -1 2.44975e-005
vn -1.66297e-005 -1 5.42402e-006
vn -4.70281e-005 -1 -6.46114e-005
vn -1.03116e-005 -1 -1.41859e-005
vn -6.41346e-005 -1 4.66108e-005
vn -1.41263e-005 -1 1.0252e-005
vn -2.47359e-005 -1 -7.52807e-005
vn -5.42402e-006 -1 -1.66297e-005
vn -4.64916e-005 -1 6.34789e-005
vn -1.0252e-005 -1 1.40071e-005
vn 0 -1 -7.83205e-005
vn 0 -1 -1.74642e-005
vn -2.41995e-005 -1 7.28369e-005
vn -5.36442e-006 -1 1.62125e-005
vn 2.47359e-005 -1 -7.55191e-005
vn 5.48363e-006 -1 -1.66297e-005
vn 2.38419e-007 -1 7.59363e-005
vn 0 -1 1.70469e-005
vn 4.72665e-005 -1 -6.50883e-005
vn 1.03116e-005 -1 -1.41859e-005
vn 2.45571e-005 -1 7.42674e-005
vn 5.48363e-006 -1 1.64509e-005
vn 6.50883e-005 -1 -4.72665e-005
vn 1.41859e-005 -1 -1.03116e-005
vn 4.68493e-005 -1 6.45518e-005
vn 1.03116e-005 -1 1.41859e-005
vn 7.55787e-005 -1 -2.47359e-005
vn 1.66297e-005 -1 -5.48363e-006
vn 6.46114e-005 -1 4.70281e-005
vn 1.41859e-005 -1 1.03116e-005
vn 7.84397e-005 -1 0
vn 1.74642e-005 -1 0
vn 7.53403e-005 -1 2.47359e-005
vn 1.66297e-005 -1 5.42402e-006
vn -0.999512 0.000467777 3.54052e-005
vn -0.983398 0.18103 -0.000438213
vn -0.925781 0.214966 -0.310547
vn -0.94873 0.000276566 -0.31543
vn -0.80127 0.212891 -0.558594
vn -0.808594 7.01547e-005 -0.587891
vn -0.932617 0.18103 0.311035
vn -0.983398 0.18103 -0.000438213
vn -0.999512 0.000467777 3.54052e-005
vn -0.94873 0.000477552 0.31543
vn -0.578125 0.176636 -0.795898
vn -0.587402 -7.03931e-005 -0.808594
vn -0.808594 0.000444889 0.587891
vn -0.793945 0.183594 0.579102
vn -0.287354 0.213379 -0.933594
vn -0.315186 -0.00012219 -0.94873
vn -0.586914 0.210693 0.78125
vn -0.587402 0.000444651 0.808594
vn -0.000759602 0.214355 -0.976563
vn -3.43919e-005 -0.000159144 -1
vn -0.337646 0.208984 0.91748
vn -0.315186 0.000323057 0.94873
vn -0.000759602 0.214355 -0.976563
vn 0.337402 0.209229 -0.91748
vn 0.315186 -0.000323057 -0.94873
vn -3.43919e-005 -0.000159144 -1
vn 0.000561714 0.214844 0.976563
vn -0.000243545 0.000133157 0.999512
vn 0.586914 0.210938 -0.78125
vn 0.587402 -0.000444412 -0.808594
vn 0.287109 0.213989 0.933594
vn 0.000561714 0.214844 0.976563
vn -0.000243545 0.000133157 0.999512
vn 0.315186 9.69768e-005 0.94873
vn 0.794434 0.183472 -0.578613
vn 0.808594 -0.000444412 -0.587402
vn 0.578125 0.17688 0.795898
vn 0.587402 7.10487e-005 0.809082
vn 0.933105 0.180664 -0.310059
vn 0.94873 -0.00032258 -0.314941
vn 0.80127 0.213257 0.558105
vn 0.808594 -7.05719e-005 0.587402
vn 0.983398 0.180298 0.000361681
vn 1 -0.000159144 3.47495e-005
vn 0.92627 0.214844 0.309326
vn 0.94873 -0.000122666 0.314941
vn 0.983398 0.180298 0.000361681
vn 1 -0.000159144 3.47495e-005

vt 0.15732 0.236369
vt 0.243886 0.25176
vt 0.218165 0.304743
vt 0.014438 0.32223
vt 0.00352327 0.245181
vt 0.316393 0.488934
vt 0.248149 0.495301
vt 0.286465 0.350465
vt 0.0165313 0.168933
vt 0.0498547 0.10066
vt 0.20197 0.149679
vt 0.117142 0.0452214
vt 0.174395 0.0148216
vt 0.0499626 0.396019
vt 0.104872 0.448512
vt 0.172821 0.48331
vt 0.331563 0.262957
vt 0.265594 0.211941
vt 0.473433 0.175434
vt 0.485247 0.25235
vt 0.237718 0.00510281
vt 0.47313 0.328745
vt 0.440606 0.397402
vt 0.37397 0.453623
vt 0.43705 0.102065
vt 0.381532 0.0502166
vt 0.31318 0.0162145
vt 0.566626 0.190242
vt 0.556915 0.239122
vt 0.532512 0.239122
vt 0.543418 0.182986
vt 0.755385 0.239122
vt 0.575067 0.12149
vt 0.59481 0.134929
vt 0.542995 0.316674
vt 0.566626 0.309257
vt 0.624363 0.0721942
vt 0.638707 0.0910317
vt 0.575067 0.378511
vt 0.59481 0.36457
vt 0.686227 0.0402279
vt 0.694021 0.0628481
vt 0.624363 0.42867
vt 0.638707 0.408468
vt 0.755336 0.0296543
vt 0.755336 0.0531628
vt 0.686276 0.46032
vt 0.69407 0.436651
vt 0.824445 0.0402277
vt 0.816652 0.062848
vt 0.755386 0.471206
vt 0.755385 0.446357
vt 0.886024 0.0721942
vt 0.871965 0.0910316
vt 0.824495 0.46032
vt 0.816701 0.436651
vt 0.935213 0.12149
vt 0.915862 0.134929
vt 0.886309 0.42867
vt 0.871965 0.408467
vt 0.967255 0.183124
vt 0.944046 0.190178
vt 0.935605 0.379375
vt 0.915862 0.36457
vt 0.979442 0.239122
vt 0.953757 0.239122
vt 0.967677 0.316674
vt 0.944046 0.309257
vt 0.997 0.996
vt 0.50487 0.996
vt 0.50487 0.898
vt 0.997 0.898
vt 0.50487 0.798
vt 0.997 0.798
vt 0.50487 0.599
vt 0.50487 0.502
vt 0.997 0.502
vt 0.997 0.599
vt 0.50487 0.698
vt 0.997 0.698
vt 0.997 0.698
vt 0.50487 0.698
vt 0.50487 0.599
vt 0.997 0.599
vt 0.50487 0.798
vt 0.997 0.798
vt 0.50487 0.502
vt 0.997 0.502
vt 0.50487 0.898
vt 0.997 0.898
vt 0.50487 0.996
vt 0.50487 0.898
vt 0.997095 0.898
vt 0.997095 0.996
vt 0.50487 0.996
vt 0.997 0.996
vt 0.50487 0.798
vt 0.997095 0.798
vt 0.50487 0.599
vt 0.50487 0.502
vt 0.997 0.502
vt 0.997 0.599
vt 0.50487 0.698
vt 0.997095 0.698
vt 0.50487 0.698
vt 0.997 0.698
vt 0.50487 0.599
vt 0.997095 0.599
vt 0.50487 0.798
vt 0.997 0.798
vt 0.50487 0.502
vt 0.997095 0.502
vt 0.50487 0.898
vt 0.997 0.898
vt 0.50487 0.996
vt 0.997 0.996


#
# MESH 000
#
g surface_000
usemtl surface_000
f 115/115/115 114/114/114 116/116/116
f 115/115/115 113/113/113 114/114/114
f 113/113/113 110/110/110 114/114/114
f 113/113/113 109/109/109 110/110/110
f 109/109/109 106/106/106 110/110/110
f 109/109/109 105/105/105 106/106/106
f 105/105/105 102/102/102 106/106/106
f 105/105/105 99/99/99 102/102/102
f 99/99/99 101/101/101 102/102/102
f 99/99/99 100/100/100 101/101/101
f 107/107/107 111/111/111 112/112/112
f 107/107/107 112/112/112 108/108/108
f 103/103/103 107/107/107 108/108/108
f 103/103/103 108/108/108 104/104/104
f 97/97/97 103/103/103 104/104/104
f 97/97/97 104/104/104 98/98/98
f 92/92/92 97/97/97 98/98/98
f 92/92/92 98/98/98 93/93/93
f 91/91/91 92/92/92 93/93/93
f 91/91/91 93/93/93 94/94/94
f 95/95/95 90/90/90 96/96/96
f 95/95/95 89/89/89 90/90/90
f 89/89/89 86/86/86 90/90/90
f 89/89/89 85/85/85 86/86/86
f 85/85/85 81/81/81 86/86/86
f 85/85/85 82/82/82 81/81/81
f 81/81/81 82/82/82 75/75/75
f 81/81/81 75/75/75 78/78/78
f 75/75/75 77/77/77 78/78/78
f 75/75/75 76/76/76 77/77/77
f 83/83/83 87/87/87 88/88/88
f 83/83/83 88/88/88 84/84/84
f 79/79/79 83/83/83 84/84/84
f 79/79/79 84/84/84 80/80/80
f 73/73/73 79/79/79 80/80/80
f 73/73/73 80/80/80 74/74/74
f 72/72/72 73/73/73 74/74/74
f 72/72/72 71/71/71 73/73/73
f 69/69/69 71/71/71 72/72/72
f 69/69/69 70/70/70 71/71/71
f 65/65/65 67/67/67 68/68/68
f 67/67/67 64/64/64 68/68/68
f 64/64/64 32/32/32 68/68/68
f 68/68/68 32/32/32 66/66/66
f 65/65/65 68/68/68 66/66/66
f 61/61/61 65/65/65 66/66/66
f 61/61/61 66/66/66 62/62/62
f 57/57/57 61/61/61 62/62/62
f 67/67/67 63/63/63 64/64/64
f 63/63/63 60/60/60 64/64/64
f 60/60/60 32/32/32 64/64/64
f 63/63/63 59/59/59 60/60/60
f 59/59/59 56/56/56 60/60/60
f 56/56/56 32/32/32 60/60/60
f 59/59/59 55/55/55 56/56/56
f 55/55/55 52/52/52 56/56/56
f 52/52/52 32/32/32 56/56/56
f 55/55/55 51/51/51 52/52/52
f 51/51/51 48/48/48 52/52/52
f 48/48/48 32/32/32 52/52/52
f 51/51/51 47/47/47 48/48/48
f 47/47/47 44/44/44 48/48/48
f 44/44/44 32/32/32 48/48/48
f 47/47/47 43/43/43 44/44/44
f 43/43/43 40/40/40 44/44/44
f 40/40/40 32/32/32 44/44/44
f 43/43/43 39/39/39 40/40/40
f 39/39/39 36/36/36 40/40/40
f 36/36/36 32/32/32 40/40/40
f 39/39/39 35/35/35 36/36/36
f 35/35/35 29/29/29 36/36/36
f 29/29/29 32/32/32 36/36/36
f 35/35/35 30/30/30 29/29/29
f 28/28/28 29/29/29 30/30/30
f 28/28/28 32/32/32 29/29/29
f 28/28/28 30/30/30 31/31/31
f 31/31/31 34/34/34 28/28/28
f 34/34/34 32/32/32 28/28/28
f 31/31/31 33/33/33 34/34/34
f 33/33/33 38/38/38 34/34/34
f 38/38/38 32/32/32 34/34/34
f 33/33/33 37/37/37 38/38/38
f 37/37/37 42/42/42 38/38/38
f 42/42/42 32/32/32 38/38/38
f 46/46/46 32/32/32 42/42/42
f 50/50/50 32/32/32 46/46/46
f 54/54/54 32/32/32 50/50/50
f 58/58/58 32/32/32 54/54/54
f 62/62/62 32/32/32 58/58/58
f 66/66/66 32/32/32 62/62/62
f 37/37/37 41/41/41 42/42/42
f 41/41/41 46/46/46 42/42/42
f 41/41/41 45/45/45 46/46/46
f 45/45/45 50/50/50 46/46/46
f 45/45/45 49/49/49 50/50/50
f 49/49/49 54/54/54 50/50/50
f 49/49/49 53/53/53 54/54/54
f 53/53/53 58/58/58 54/54/54
f 53/53/53 57/57/57 58/58/58
f 57/57/57 62/62/62 58/58/58
f 21/21/21 27/27/27 18/18/18
f 27/27/27 26/26/26 18/18/18
f 26/26/26 25/25/25 18/18/18
f 25/25/25 17/17/17 18/18/18
f 17/17/17 2/2/2 18/18/18
f 18/18/18 2/2/2 11/11/11
f 21/21/21 18/18/18 11/11/11
f 13/13/13 21/21/21 11/11/11
f 12/12/12 13/13/13 11/11/11
f 12/12/12 11/11/11 1/1/1
f 10/10/10 12/12/12 1/1/1
f 25/25/25 19/19/19 17/17/17
f 19/19/19 20/20/20 17/17/17
f 20/20/20 22/22/22 17/17/17
f 22/22/22 23/23/23 17/17/17
f 23/23/23 24/24/24 17/17/17
f 17/17/17 24/24/24 6/6/6
f 17/17/17 6/6/6 8/8/8
f 8/8/8 2/2/2 17/17/17
f 3/3/3 2/2/2 8/8/8
f 1/1/1 2/2/2 3/3/3
f 11/11/11 2/2/2 1/1/1
f 6/6/6 7/7/7 8/8/8
f 7/7/7 3/3/3 8/8/8
f 7/7/7 16/16/16 3/3/3
f 16/16/16 15/15/15 3/3/3
f 15/15/15 14/14/14 3/3/3
f 14/14/14 1/1/1 3/3/3
f 14/14/14 4/4/4 1/1/1
f 4/4/4 5/5/5 1/1/1
f 5/5/5 9/9/9 1/1/1
f 9/9/9 10/10/10 1/1/1

