#
# OBJECT NAME
#
o model_1713
mtllib 1713.mtl

#
# VERTEX BUFFER 000
#
v 0.404368 0 -0.293791
v 0.475363 0 -0.154455
v 0 0 0
v 0.293791 0 -0.404368
v 0.154455 0 -0.475363
v 0 0 -0.502
v -0.154455 0 -0.475363
v -0.293791 0 -0.404368
v -0.404368 0 -0.293791
v -0.475363 0 -0.154455
v -0.502 0 0
v -0.475363 0 0.154455
v -0.404368 0 0.293791
v -0.29379 0 0.404368
v -0.154455 0 0.475363
v 0 0 0.502
v 0.154455 0 0.475363
v 0.293791 0 0.404368
v 0.404368 0 0.29379
v 0.475363 0 0.154455
v 0.502 0 0
v 0.502 1 0
v 0.475363 1 -0.154455
v 0 1.032 0
v 0.404368 1 -0.293791
v 0.293791 1 -0.404368
v 0.154455 1 -0.475363
v 0 1 -0.502
v -0.154455 1 -0.475363
v -0.293791 1 -0.404368
v -0.404368 1 -0.293791
v -0.475363 1 -0.154455
v -0.502 1 0
v -0.475363 1 0.154455
v -0.404368 1 0.293791
v -0.29379 1 0.404368
v -0.154455 1 0.475363
v 0 1 0.502
v 0.154455 1 0.475363
v 0.293791 1 0.404368
v 0.404368 1 0.29379
v 0.475363 1 0.154455
v 0.475363 0 -0.154455
v 0.404368 0 -0.293791
v 0.404368 1 -0.293791
v 0.475363 1 -0.154455
v 0.293791 0 -0.404368
v 0.293791 1 -0.404368
v 0.154455 0 -0.475363
v 0.154455 1 -0.475363
v 0 0 -0.502
v 0 1 -0.502
v 0 0 -0.502
v -0.154455 0 -0.475363
v -0.154455 1 -0.475363
v 0 1 -0.502
v -0.293791 0 -0.404368
v -0.293791 1 -0.404368
v -0.404368 0 -0.293791
v -0.404368 1 -0.293791
v -0.475363 0 -0.154455
v -0.475363 1 -0.154455
v -0.502 0 0
v -0.502 1 0
v -0.502 0 0
v -0.475363 0 0.154455
v -0.475363 1 0.154455
v -0.502 1 0
v -0.404368 0 0.293791
v -0.404368 1 0.293791
v -0.29379 0 0.404368
v -0.29379 1 0.404368
v -0.154455 0 0.475363
v -0.154455 1 0.475363
v 0 0 0.502
v 0 1 0.502
v 0 0 0.502
v 0.154455 0 0.475363
v 0.154455 1 0.475363
v 0 1 0.502
v 0.293791 0 0.404368
v 0.293791 1 0.404368
v 0.404368 0 0.29379
v 0.404368 1 0.29379
v 0.475363 0 0.154455
v 0.475363 1 0.154455
v 0.502 0 0
v 0.502 1 0
v 0.502 0 0
v 0.502 1 0

vn 0 -1 0
vn 0 -1 0
vn 0 -1 0
vn 0 -1 0
vn 0 -1 0
vn 0 -1 0
vn 0 -1 0
vn 0 -1 0
vn 0 -1 0
vn 0 -1 0
vn 0 -1 0
vn 0 -1 0
vn 0 -1 0
vn 0 -1 0
vn 0 -1 0
vn 0 -1 0
vn 0 -1 0
vn 0 -1 0
vn 0 -1 0
vn 0 -1 0
vn 0 -1 0
vn 0.0635986 0.997559 3.57628e-007
vn 0.0606384 0.997559 -0.0200958
vn 0 1 0
vn 0.0516663 0.997559 -0.0375366
vn 0.0375366 0.997559 -0.0516663
vn 0.0200958 0.997559 -0.0606384
vn 0 0.997559 -0.0635986
vn -0.0200958 0.997559 -0.0606384
vn -0.0375366 0.997559 -0.0516663
vn -0.0516663 0.997559 -0.0375366
vn -0.0606384 0.997559 -0.0200958
vn -0.0635986 0.997559 -3.57628e-007
vn -0.0606384 0.997559 0.0200958
vn -0.0516663 0.997559 0.0375366
vn -0.0375366 0.997559 0.0516663
vn -0.0200958 0.997559 0.0606384
vn 0 0.997559 0.0635986
vn 0.0200958 0.997559 0.0606384
vn 0.0375366 0.997559 0.0516663
vn 0.0516663 0.997559 0.0375366
vn 0.0606384 0.997559 0.0200958
vn 0.94873 0 -0.315186
vn 0.808594 0 -0.587402
vn 0.808594 0 -0.587402
vn 0.94873 0 -0.315186
vn 0.587402 0 -0.808594
vn 0.587402 0 -0.808594
vn 0.315186 0 -0.94873
vn 0.315186 0 -0.94873
vn 0 0 -1
vn 0 0 -1
vn 0 0 -1
vn -0.315186 0 -0.94873
vn -0.315186 0 -0.94873
vn 0 0 -1
vn -0.587402 0 -0.808594
vn -0.587402 0 -0.808594
vn -0.808594 0 -0.587402
vn -0.808594 0 -0.587402
vn -0.94873 0 -0.315186
vn -0.94873 0 -0.315186
vn -1 0 0
vn -1 0 0
vn -1 0 0
vn -0.94873 0 0.315186
vn -0.94873 0 0.315186
vn -1 0 0
vn -0.808594 0 0.587402
vn -0.808594 0 0.587402
vn -0.587402 0 0.808594
vn -0.587402 0 0.808594
vn -0.315186 0 0.94873
vn -0.315186 0 0.94873
vn 0 0 1
vn 0 0 1
vn 0 0 1
vn 0.315186 0 0.94873
vn 0.315186 0 0.94873
vn 0 0 1
vn 0.587402 0 0.808594
vn 0.587402 0 0.808594
vn 0.808594 0 0.587402
vn 0.808594 0 0.587402
vn 0.94873 0 0.315186
vn 0.94873 0 0.315186
vn 1 0 1.13249e-006
vn 1 0 1.13249e-006
vn 1 0 1.13249e-006
vn 1 0 1.13249e-006

vt 0.934762 0.124579
vt 0.966803 0.186213
vt 0.754934 0.242212
vt 0.885692 0.0754728
vt 0.823888 0.0434498
vt 0.754885 0.0328388
vt 0.686134 0.0437664
vt 0.623792 0.0754727
vt 0.574451 0.124813
vt 0.542783 0.186335
vt 0.53206 0.242365
vt 0.542721 0.320008
vt 0.574616 0.3816
vt 0.623912 0.43176
vt 0.685776 0.46341
vt 0.754934 0.474295
vt 0.824043 0.46341
vt 0.885857 0.43176
vt 0.935153 0.382464
vt 0.967225 0.319764
vt 0.978991 0.242365
vt 0.978991 0.242058
vt 0.967225 0.319764
vt 0.754934 0.242212
vt 0.935153 0.382464
vt 0.885857 0.43176
vt 0.824043 0.46341
vt 0.754934 0.474295
vt 0.685776 0.46341
vt 0.623912 0.43176
vt 0.574616 0.3816
vt 0.542367 0.319519
vt 0.53206 0.242058
vt 0.543149 0.185815
vt 0.57478 0.124345
vt 0.624031 0.0750944
vt 0.685922 0.0435011
vt 0.754885 0.0326484
vt 0.8241 0.0431842
vt 0.885453 0.0750943
vt 0.934762 0.124579
vt 0.966803 0.186213
vt 0.997 0.598652
vt 0.997 0.698457
vt 0.504527 0.698457
vt 0.504527 0.598652
vt 0.997 0.79826
vt 0.504527 0.79826
vt 0.997 0.898064
vt 0.504527 0.898064
vt 0.997 0.996
vt 0.504527 0.996
vt 0.997 0.502
vt 0.997 0.598652
vt 0.504527 0.598652
vt 0.504527 0.502
vt 0.997 0.698457
vt 0.504527 0.698457
vt 0.997 0.79826
vt 0.504527 0.79826
vt 0.997 0.898064
vt 0.504527 0.898064
vt 0.997 0.996
vt 0.504527 0.996
vt 0.997 0.502
vt 0.997 0.598652
vt 0.504527 0.598652
vt 0.504527 0.502
vt 0.997 0.698457
vt 0.504527 0.698457
vt 0.997 0.79826
vt 0.504527 0.79826
vt 0.997 0.898064
vt 0.504527 0.898064
vt 0.997 0.996
vt 0.504527 0.996
vt 0.997 0.502
vt 0.997 0.598652
vt 0.504527 0.598652
vt 0.504527 0.502
vt 0.997 0.698457
vt 0.504527 0.698457
vt 0.997 0.79826
vt 0.504527 0.79826
vt 0.997 0.898064
vt 0.504527 0.898064
vt 0.997 0.996
vt 0.504527 0.996
vt 0.997 0.502
vt 0.504527 0.502


#
# MESH 000
#
g surface_000
usemtl surface_000
f 89/89/89 46/46/46 90/90/90
f 89/89/89 43/43/43 46/46/46
f 43/43/43 45/45/45 46/46/46
f 43/43/43 44/44/44 45/45/45
f 44/44/44 48/48/48 45/45/45
f 44/44/44 47/47/47 48/48/48
f 47/47/47 50/50/50 48/48/48
f 47/47/47 49/49/49 50/50/50
f 49/49/49 52/52/52 50/50/50
f 49/49/49 51/51/51 52/52/52
f 85/85/85 87/87/87 88/88/88
f 85/85/85 88/88/88 86/86/86
f 83/83/83 85/85/85 86/86/86
f 83/83/83 86/86/86 84/84/84
f 81/81/81 83/83/83 84/84/84
f 81/81/81 84/84/84 82/82/82
f 78/78/78 81/81/81 82/82/82
f 78/78/78 82/82/82 79/79/79
f 77/77/77 78/78/78 79/79/79
f 77/77/77 79/79/79 80/80/80
f 73/73/73 75/75/75 76/76/76
f 73/73/73 76/76/76 74/74/74
f 71/71/71 73/73/73 74/74/74
f 71/71/71 74/74/74 72/72/72
f 69/69/69 71/71/71 72/72/72
f 69/69/69 72/72/72 70/70/70
f 66/66/66 69/69/69 70/70/70
f 66/66/66 70/70/70 67/67/67
f 65/65/65 66/66/66 67/67/67
f 65/65/65 67/67/67 68/68/68
f 61/61/61 63/63/63 64/64/64
f 61/61/61 64/64/64 62/62/62
f 59/59/59 61/61/61 62/62/62
f 59/59/59 62/62/62 60/60/60
f 57/57/57 59/59/59 60/60/60
f 57/57/57 60/60/60 58/58/58
f 54/54/54 57/57/57 58/58/58
f 54/54/54 58/58/58 55/55/55
f 53/53/53 54/54/54 55/55/55
f 53/53/53 55/55/55 56/56/56
f 42/42/42 22/22/22 24/24/24
f 22/22/22 23/23/23 24/24/24
f 23/23/23 25/25/25 24/24/24
f 25/25/25 26/26/26 24/24/24
f 26/26/26 27/27/27 24/24/24
f 27/27/27 28/28/28 24/24/24
f 28/28/28 29/29/29 24/24/24
f 29/29/29 30/30/30 24/24/24
f 30/30/30 31/31/31 24/24/24
f 31/31/31 32/32/32 24/24/24
f 32/32/32 33/33/33 24/24/24
f 33/33/33 34/34/34 24/24/24
f 34/34/34 35/35/35 24/24/24
f 35/35/35 36/36/36 24/24/24
f 36/36/36 37/37/37 24/24/24
f 37/37/37 38/38/38 24/24/24
f 38/38/38 39/39/39 24/24/24
f 39/39/39 40/40/40 24/24/24
f 40/40/40 41/41/41 24/24/24
f 41/41/41 42/42/42 24/24/24
f 2/2/2 21/21/21 3/3/3
f 21/21/21 20/20/20 3/3/3
f 20/20/20 19/19/19 3/3/3
f 19/19/19 18/18/18 3/3/3
f 18/18/18 17/17/17 3/3/3
f 17/17/17 16/16/16 3/3/3
f 16/16/16 15/15/15 3/3/3
f 15/15/15 14/14/14 3/3/3
f 14/14/14 13/13/13 3/3/3
f 13/13/13 12/12/12 3/3/3
f 12/12/12 11/11/11 3/3/3
f 11/11/11 10/10/10 3/3/3
f 10/10/10 9/9/9 3/3/3
f 9/9/9 8/8/8 3/3/3
f 8/8/8 7/7/7 3/3/3
f 7/7/7 6/6/6 3/3/3
f 6/6/6 5/5/5 3/3/3
f 5/5/5 4/4/4 3/3/3
f 4/4/4 1/1/1 3/3/3
f 1/1/1 2/2/2 3/3/3

