#
# OBJECT NAME
#
o model_1715
mtllib 1715.mtl

#
# VERTEX BUFFER 000
#
v -0.377839 0.135245 0.379994
v -0.31388 0.0292807 0.316167
v -0.00610679 0.0128042 0.440404
v -0.00648737 0.12254 0.532632
v -0.00648737 0.12254 -0.559234
v -0.00610679 0.0128042 -0.468786
v -0.30825 0.0166821 -0.328757
v -0.372037 0.12553 -0.393442
v -0.459489 0.0762598 -0.010547
v -0.548931 0.170874 -0.0112333
v -0.00610679 0.233412 0.441703
v -0.318582 0.249888 0.317218
v -0.30825 0.23729 -0.328757
v -0.00610679 0.233412 -0.467347
v -0.459489 0.296868 -0.010547
v 0.372233 0.133674 0.383742
v 0.31098 0.0272435 0.318331
v 0.460807 0.0873755 -0.0146285
v 0.548806 0.187986 -0.0147582
v 0.297508 0.0177021 -0.327526
v 0.359554 0.126317 -0.392011
v 0.460807 0.0873755 -0.0146285
v 0.548806 0.187986 -0.0147582
v 0.312985 0.247851 0.32289
v 0.456693 0.299125 -0.0146285
v 0.297508 0.23831 -0.327526
v 0.456693 0.299125 -0.0146285
v -0.341758 1.00354 -0.366534
v -0.364491 0.906563 -0.386981
v -0.535261 0.875293 -0.00279478
v -0.50259 0.972279 -0.0050105
v -0.321963 0.912222 0.398071
v -0.297772 1.00935 0.37387
v -0.341797 0.826628 -0.36654
v -0.502661 0.7953 -0.00503401
v -0.297788 0.832451 0.37387
v 0.34307 0.904956 -0.385184
v 0.322544 1.00048 -0.362342
v 0.519071 0.923429 -0.0159566
v 0.540805 0.821939 -0.0174462
v -0.00648814 1.01391 0.486141
v -0.00683421 0.916785 0.519377
v 0.354176 0.913729 0.343455
v 0.331889 1.01085 0.319919
v 0.317205 0.82667 -0.362342
v 0.511199 0.751244 -0.0166109
v -0.00648808 0.837014 0.484227
v 0.331889 0.833958 0.319919
v 0.540805 0.821939 -0.0174462
v 0.511199 0.751244 -0.0166109
v 0.519071 0.923429 -0.0159566
v -0.00648808 1.01391 -0.515794
v -0.00683421 0.916785 -0.548574
v -0.00648808 0.837014 -0.515911
v 0.518484 0.898045 -0.0309142
v 0.442686 0.975481 -0.023005
v 0.310743 0.756482 0.316574
v 0.350521 0.663171 0.351631
v 0.46727 0.791421 -0.0318334
v 0.313013 0.573021 0.307848
v 0.314468 0.671096 -0.351228
v 0.346066 0.768379 -0.398549
v 0.292195 0.848829 -0.357394
v -0.00628173 0.580613 -0.554743
v 0.0104031 0.496941 -0.490284
v -0.276986 0.34363 -0.403786
v -0.323643 0.408897 -0.446817
v -0.0274348 0.678893 -0.487339
v -0.298831 0.52612 -0.388884
v -0.495534 0.184558 -0.149662
v -0.504133 0.108518 0.0649375
v -0.561853 0.166769 0.0810102
v -0.555049 0.248079 -0.162952
v -0.510475 0.295502 0.070685
v -0.47735 0.3755 -0.143539
v -0.510475 0.295502 0.070685
v -0.561853 0.166769 0.0810102
v -0.365512 0.242743 0.385502
v -0.337806 0.370385 0.343855
v -0.504133 0.108518 0.0649375
v -0.319187 0.182924 0.364661
v -0.00944889 0.454825 0.525336
v 0.00357559 0.382442 0.460876
v -0.0342237 0.56504 0.466062
v -0.319116 0.773494 -0.437196
v -0.297405 0.662211 -0.377784
v -0.474293 0.830204 -0.0198388
v -0.537293 0.952932 -0.0132962
v -0.477159 1.02115 -0.0151214
v -0.274612 0.852722 -0.394788
v -0.00630432 0.586931 -0.59153
v -0.0245457 0.48878 -0.521427
v 0.353738 0.386815 -0.419371
v 0.294821 0.309864 -0.371022
v 0.0119066 0.67937 -0.521059
v 0.309742 0.507463 -0.359879
v -0.00630432 0.468177 0.559881
v 0.317933 0.243996 0.407363
v 0.276372 0.375735 0.362554
v 0.0119066 0.575367 0.487094
v 0.260367 0.181332 0.359212
v -0.0245457 0.38473 0.483591
v -0.339321 0.645536 0.418112
v -0.30298 0.544698 0.351553
v -0.285921 0.739551 0.367795
v 0.52752 0.11601 0.0109771
v 0.470493 0.25225 0.00731508
v 0.463365 0.0555933 -0.00692798
v 0.463365 0.0555933 -0.00692798
v 0.52752 0.11601 0.0109771
v 0.470493 0.25225 0.00731508
v -0.00506794 1.02962 0.487727
v 0.323444 1.02962 0.333176
v -0.332972 1.02962 0.33366
v -0.00506794 -0.0102095 0.487726
v -0.332972 -0.0102095 0.33366
v 0.323444 -0.0102095 0.333176
v -0.00506794 1.02962 0.487727
v -0.00506794 -0.0102095 0.487726
v 0.323444 -0.0102095 0.333176
v 0.323444 1.02962 0.333176
v 0.472672 1.02962 -0.0145987
v 0.472672 -0.0102095 -0.0145986
v -0.00506794 1.02962 -0.516924
v 0.326296 1.02962 -0.355151
v 0.326296 -0.0102095 -0.355151
v -0.00506794 -0.0102095 -0.516924
v -0.00506794 1.02962 -0.516924
v -0.00506794 -0.0102095 -0.516924
v -0.336432 -0.0102095 -0.355151
v -0.336432 1.02962 -0.355151
v -0.332972 -0.0102095 0.33366
v -0.332972 1.02962 0.33366
v -0.482808 1.02962 -0.0145988
v -0.482808 -0.0102095 -0.0145987
v 0.472672 1.02962 -0.0145987
v -0.482808 1.02962 -0.0145988
v -0.00506794 1.02962 -0.516924
v -0.336432 1.02962 -0.355151
v 0.326296 1.02962 -0.355151
v -0.482808 -0.0102095 -0.0145987
v 0.472672 -0.0102095 -0.0145986
v -0.00506794 -0.0102095 -0.516924
v 0.326296 -0.0102095 -0.355151
v -0.336432 -0.0102095 -0.355151
v -0.00506794 1.02962 0.487727
v -0.00506794 -0.0102095 0.487726
v 0.472672 1.02962 -0.0145987
v 0.472672 -0.0102095 -0.0145986
v -0.482808 1.02962 -0.0145988
v -0.482808 -0.0102095 -0.0145987

vn -0.707031 -0.0174561 0.706543
vn -0.544434 -0.658691 0.519043
vn -0.0042572 -0.648438 0.76123
vn -0.00483704 -0.0241394 0.999512
vn 0.000821114 -0.001647 -0.999512
vn 0.00241089 -0.64502 -0.763672
vn -0.553711 -0.651367 -0.517578
vn -0.711426 -0.0218506 -0.702148
vn -0.755371 -0.654785 -0.00174236
vn -0.998047 0.0553894 -0.0118027
vn -0.00522995 0.611816 0.790527
vn -0.555176 0.597168 0.578125
vn -0.549316 0.604492 -0.576172
vn 0.00175762 0.637695 -0.769531
vn -0.788574 0.61377 -0.0137024
vn 0.700684 -0.0257721 0.712402
vn 0.552734 -0.652344 0.518066
vn 0.771484 -0.635254 -0.0126495
vn 0.996582 0.0762329 -0.0161591
vn 0.559082 -0.640625 -0.525391
vn 0.700684 -0.0258636 -0.712402
vn 0.771484 -0.635254 -0.0126495
vn 0.996582 0.0762329 -0.0161591
vn 0.529785 0.609863 0.588867
vn 0.76123 0.647461 -0.022644
vn 0.523926 0.612305 -0.591797
vn 0.76123 0.647461 -0.022644
vn -0.683105 0.305908 -0.662598
vn -0.72168 0.00867462 -0.691406
vn -0.998047 -0.0161591 0.0602722
vn -0.944336 0.324219 0.0495605
vn -0.708008 0.0106888 0.706055
vn -0.666016 0.325928 0.67041
vn -0.662109 -0.359863 -0.656738
vn -0.918457 -0.391357 0.0514221
vn -0.636719 -0.386475 0.666504
vn 0.697266 0.0014782 -0.716309
vn 0.672363 0.281006 -0.684082
vn 0.964355 0.264404 -0.00841522
vn 0.99707 -0.0701294 -0.0191498
vn 0.0824585 0.326172 0.941406
vn 0.0773926 0.0017786 0.996582
vn 0.69873 0.0108719 0.714844
vn 0.672363 0.285889 0.682617
vn 0.614258 -0.378418 -0.691895
vn 0.908691 -0.416748 -0.0158844
vn 0.0806274 -0.395264 0.914551
vn 0.625977 -0.368408 0.687012
vn 0.99707 -0.0701294 -0.0191498
vn 0.908691 -0.416748 -0.0158844
vn 0.964355 0.264404 -0.00841522
vn 0.00401306 0.316406 -0.948242
vn 0.00111675 0.00761032 -0.999512
vn 0.00318527 -0.37915 -0.924805
vn 0.970215 0.241699 0.0110245
vn 0.723145 0.687988 0.0527344
vn 0.450684 0.51123 0.731445
vn 0.705078 0.0314636 0.708008
vn 0.899902 -0.431396 -0.0570679
vn 0.754883 -0.493652 0.431641
vn 0.723145 -0.459229 -0.514648
vn 0.663086 0.113464 -0.739746
vn 0.373535 0.623535 -0.686035
vn 0.0423889 0.0267029 -0.998535
vn 0.313232 -0.540527 -0.780273
vn -0.194702 -0.611816 -0.766113
vn -0.601563 0.00872803 -0.79834
vn -0.179932 0.52002 -0.834473
vn -0.657715 0.460938 -0.595215
vn -0.538086 -0.662598 -0.52002
vn -0.663574 -0.711914 0.22937
vn -0.944824 -0.0905151 0.314453
vn -0.91748 -0.0123825 -0.396484
vn -0.871094 0.395264 0.290283
vn -0.85498 0.462402 -0.233887
vn -0.871094 0.395264 0.290283
vn -0.944824 -0.0905151 0.314453
vn -0.625 -0.0734863 0.776855
vn -0.660645 0.350342 0.663086
vn -0.663574 -0.711914 0.22937
vn -0.26416 -0.626465 0.73291
vn 0.0157623 0.0122681 0.999512
vn 0.319824 -0.544922 0.774414
vn -0.147583 0.429688 0.890625
vn -0.706543 0.0421448 -0.706055
vn -0.766602 -0.41626 -0.488525
vn -0.90625 -0.414551 -0.0808716
vn -0.973633 0.222168 0.0490723
vn -0.693848 0.717773 0.0512695
vn -0.40918 0.59668 -0.689941
vn 0.0235138 -7.76052e-005 -0.999512
vn -0.234009 -0.547363 -0.803223
vn 0.764648 -0.00274467 -0.644043
vn 0.335693 -0.606934 -0.719727
vn 0.293213 0.546875 -0.783691
vn 0.777832 0.453857 -0.434326
vn 0.0317383 -0.00848389 0.999023
vn 0.690918 -0.0985107 0.71582
vn 0.741211 0.397705 0.540039
vn 0.239136 0.508301 0.82666
vn 0.244751 -0.71875 0.649902
vn -0.318848 -0.603027 0.730957
vn -0.745117 -0.0240631 0.666016
vn -0.776367 -0.507813 0.372803
vn -0.350342 0.569824 0.742676
vn 0.976074 -0.212524 0.0369873
vn 0.914551 0.393555 0.088562
vn 0.594727 -0.794434 -0.120483
vn 0.594727 -0.794434 -0.120483
vn 0.976074 -0.212524 0.0369873
vn 0.914551 0.393555 0.088562
vn 0 1 -2.38419e-007
vn 0 1 1.19209e-007
vn 0 1 1.19209e-007
vn 0 -1 -2.38419e-007
vn 0 -1 0
vn 0 -1 0
vn 0.000737667 0 0.999512
vn 0.000737667 0 0.999512
vn 0.724609 0 0.688965
vn 0.724609 0 0.688965
vn 0.999512 0 0.00414276
vn 0.999512 0 0.00414276
vn 0 0 -1
vn 0.724609 0 -0.688965
vn 0.724609 0 -0.688965
vn 0 0 -1
vn 0 0 -1
vn 0 0 -1
vn -0.724609 0 -0.688965
vn -0.724609 0 -0.688965
vn -0.724609 0 0.688965
vn -0.724609 0 0.688965
vn -0.999512 0 0.00502014
vn -0.999512 0 0.00502014
vn 0 1 0
vn 0 1 0
vn 0 1 0
vn 0 1 -2.38419e-007
vn 0 1 -2.38419e-007
vn 0 -1 0
vn 0 -1 0
vn 0 -1 -2.38419e-007
vn 0 -1 0
vn 0 -1 0
vn 0.000737667 0 0.999512
vn 0.000737667 0 0.999512
vn 0.999512 0 0.00414276
vn 0.999512 0 0.00414276
vn -0.999512 0 0.00502014
vn -0.999512 0 0.00502014

vt 2.19096 0.0561457
vt 2.19096 0.0204273
vt 2.73069 0.0204274
vt 2.73069 0.0561457
vt 0.47458 0.0561457
vt 0.47458 0.0204275
vt 1.0093 0.0204275
vt 1.0093 0.0561457
vt 1.59429 0.0204275
vt 1.59429 0.0561457
vt 2.73069 0.0889081
vt 2.19096 0.0889083
vt 1.0093 0.0889082
vt 0.474579 0.0889083
vt 1.59429 0.088908
vt 3.28236 0.0561458
vt 3.28236 0.0204271
vt 3.88375 0.0204271
vt 3.88375 0.0561453
vt -0.0839053 0.0204272
vt -0.0839053 0.0561457
vt -0.71295 0.0204274
vt -0.71295 0.0561457
vt 3.28236 0.0889082
vt 3.88375 0.0889081
vt -0.0839053 0.0889083
vt -0.71295 0.0889081
vt 2.22359 0.020496
vt 2.22359 0.0573653
vt 1.73723 0.0573655
vt 1.73723 0.020496
vt 1.25678 0.0573654
vt 1.25678 0.020496
vt 2.22359 0.088306
vt 1.73723 0.088306
vt 1.25678 0.088306
vt 3.30975 0.0573653
vt 3.30975 0.0204959
vt 3.88402 0.020496
vt 3.88402 0.0573654
vt 0.747589 0.0204961
vt 0.747589 0.0573655
vt 0.215839 0.0573653
vt 0.215839 0.020496
vt 3.30975 0.0883061
vt 3.88402 0.0883058
vt 0.747589 0.088306
vt 0.215839 0.088306
vt -0.298701 0.0573654
vt -0.298701 0.088306
vt -0.298701 0.0204961
vt 2.79833 0.0204961
vt 2.79833 0.0573652
vt 2.79833 0.088306
vt 1.61081 0.0611563
vt 1.61081 0.0285354
vt 2.31085 0.0285351
vt 2.31085 0.0611563
vt 1.61081 0.0906827
vt 2.31085 0.0906828
vt 1.07822 0.0906827
vt 1.07822 0.0611566
vt 1.07822 0.0285352
vt 0.549538 0.0611563
vt 0.549538 0.0906827
vt 0.104831 0.0901051
vt 0.104831 0.0615797
vt 0.549538 0.0285354
vt 0.104831 0.0285352
vt -0.38039 0.0906828
vt -0.711813 0.0906829
vt -0.711813 0.0611565
vt -0.380391 0.0611566
vt -0.711814 0.0285352
vt -0.38039 0.0285354
vt 3.8347 0.0285352
vt 3.8347 0.0611567
vt 3.45765 0.0611563
vt 3.45765 0.0285352
vt 3.8347 0.0906832
vt 3.45765 0.0906826
vt 2.88189 0.0611563
vt 2.88189 0.0906827
vt 2.88189 0.0285352
vt 1.58509 0.0548875
vt 1.58509 0.0870414
vt 0.748148 0.0870411
vt 0.748529 0.0550752
vt 0.750778 0.019423
vt 1.58509 0.0190372
vt 2.20204 0.0548876
vt 2.20204 0.0870414
vt 2.93424 0.0548878
vt 2.93424 0.0870415
vt 2.20204 0.019037
vt 2.93424 0.0190372
vt -0.699681 0.0548878
vt -1.50085 0.0548879
vt -1.50085 0.0190371
vt -0.69968 0.0190373
vt -1.50085 0.0870413
vt -0.69968 0.0870414
vt -0.0542012 0.0548878
vt -0.0542012 0.0870414
vt -0.0542014 0.019037
vt 3.77448 0.0548875
vt 3.77448 0.0190371
vt 3.77448 0.0870413
vt -1.93014 0.0870415
vt -1.93014 0.0548877
vt -1.93014 0.0190372
vt 0.77423 0.294044
vt 0.646037 0.420824
vt 0.645495 0.185752
vt 0.77423 0.294044
vt 0.646037 0.420824
vt 0.645495 0.185798
vt 0 0.998503
vt 0.996388 0.998503
vt 0.996388 0.750064
vt 0 0.750064
vt 0 0.503188
vt 0.996388 0.503188
vt 0 0.509444
vt 0 0.750821
vt 0.996388 0.750821
vt 0.996388 0.509444
vt 0 0.509444
vt 0.996388 0.509444
vt 0.996388 0.750821
vt 0 0.750821
vt 0.996388 0.750064
vt 0 0.750064
vt 0 0.503188
vt 0.996388 0.503188
vt 0.396645 0.475282
vt 0.396645 0.131081
vt 0.0212207 0.294044
vt 0.153014 0.184489
vt 0.153014 0.421514
vt 0.396645 0.475282
vt 0.396645 0.131341
vt 0.0212207 0.294044
vt 0.153014 0.184541
vt 0.153014 0.421514
vt 0 0.998503
vt 0.996388 0.998503
vt 0 0.914617
vt 0.996388 0.914617
vt 0 0.914617
vt 0.996388 0.914617


#
# MESH 000
#
g surface_000
usemtl surface_000
f 23/23/23 26/26/26 27/27/27
f 23/23/23 21/21/21 26/26/26
f 21/21/21 14/14/14 26/26/26
f 21/21/21 5/5/5 14/14/14
f 13/13/13 14/14/14 5/5/5
f 13/13/13 5/5/5 8/8/8
f 15/15/15 13/13/13 8/8/8
f 22/22/22 21/21/21 23/23/23
f 22/22/22 20/20/20 21/21/21
f 20/20/20 5/5/5 21/21/21
f 20/20/20 6/6/6 5/5/5
f 5/5/5 6/6/6 7/7/7
f 5/5/5 7/7/7 8/8/8
f 8/8/8 7/7/7 9/9/9
f 8/8/8 9/9/9 10/10/10
f 15/15/15 8/8/8 10/10/10
f 10/10/10 12/12/12 15/15/15
f 10/10/10 1/1/1 12/12/12
f 11/11/11 12/12/12 1/1/1
f 11/11/11 1/1/1 4/4/4
f 4/4/4 24/24/24 11/11/11
f 9/9/9 1/1/1 10/10/10
f 9/9/9 2/2/2 1/1/1
f 1/1/1 2/2/2 3/3/3
f 1/1/1 3/3/3 4/4/4
f 17/17/17 4/4/4 3/3/3
f 17/17/17 16/16/16 4/4/4
f 4/4/4 16/16/16 24/24/24
f 24/24/24 16/16/16 19/19/19
f 24/24/24 19/19/19 25/25/25
f 16/16/16 17/17/17 18/18/18
f 16/16/16 18/18/18 19/19/19
f 44/44/44 49/49/49 51/51/51
f 44/44/44 43/43/43 49/49/49
f 49/49/49 43/43/43 48/48/48
f 49/49/49 48/48/48 50/50/50
f 41/41/41 43/43/43 44/44/44
f 41/41/41 42/42/42 43/43/43
f 43/43/43 42/42/42 47/47/47
f 43/43/43 47/47/47 48/48/48
f 41/41/41 32/32/32 42/42/42
f 42/42/42 32/32/32 36/36/36
f 42/42/42 36/36/36 47/47/47
f 41/41/41 33/33/33 32/32/32
f 32/32/32 33/33/33 31/31/31
f 32/32/32 31/31/31 30/30/30
f 35/35/35 32/32/32 30/30/30
f 35/35/35 36/36/36 32/32/32
f 28/28/28 30/30/30 31/31/31
f 28/28/28 29/29/29 30/30/30
f 29/29/29 35/35/35 30/30/30
f 29/29/29 34/34/34 35/35/35
f 54/54/54 34/34/34 29/29/29
f 54/54/54 29/29/29 53/53/53
f 53/53/53 45/45/45 54/54/54
f 29/29/29 28/28/28 52/52/52
f 29/29/29 52/52/52 53/53/53
f 52/52/52 37/37/37 53/53/53
f 53/53/53 37/37/37 45/45/45
f 45/45/45 37/37/37 40/40/40
f 45/45/45 40/40/40 46/46/46
f 52/52/52 38/38/38 37/37/37
f 37/37/37 38/38/38 39/39/39
f 37/37/37 39/39/39 40/40/40
f 77/77/77 80/80/80 81/81/81
f 77/77/77 81/81/81 78/78/78
f 76/76/76 77/77/77 78/78/78
f 76/76/76 78/78/78 79/79/79
f 84/84/84 79/79/79 78/78/78
f 84/84/84 78/78/78 82/82/82
f 58/58/58 84/84/84 82/82/82
f 58/58/58 57/57/57 84/84/84
f 82/82/82 78/78/78 81/81/81
f 82/82/82 81/81/81 83/83/83
f 60/60/60 82/82/82 83/83/83
f 60/60/60 58/58/58 82/82/82
f 59/59/59 58/58/58 60/60/60
f 59/59/59 55/55/55 58/58/58
f 55/55/55 57/57/57 58/58/58
f 55/55/55 56/56/56 57/57/57
f 56/56/56 55/55/55 62/62/62
f 56/56/56 62/62/62 63/63/63
f 68/68/68 63/63/63 62/62/62
f 55/55/55 59/59/59 61/61/61
f 55/55/55 61/61/61 62/62/62
f 64/64/64 62/62/62 61/61/61
f 68/68/68 62/62/62 64/64/64
f 68/68/68 64/64/64 67/67/67
f 68/68/68 67/67/67 69/69/69
f 69/69/69 67/67/67 73/73/73
f 69/69/69 73/73/73 75/75/75
f 73/73/73 74/74/74 75/75/75
f 73/73/73 72/72/72 74/74/74
f 64/64/64 61/61/61 65/65/65
f 64/64/64 65/65/65 66/66/66
f 64/64/64 66/66/66 67/67/67
f 67/67/67 66/66/66 70/70/70
f 67/67/67 70/70/70 73/73/73
f 70/70/70 72/72/72 73/73/73
f 70/70/70 71/71/71 72/72/72
f 110/110/110 111/111/111 99/99/99
f 110/110/110 99/99/99 98/98/98
f 109/109/109 110/110/110 98/98/98
f 109/109/109 98/98/98 101/101/101
f 101/101/101 98/98/98 97/97/97
f 101/101/101 97/97/97 102/102/102
f 102/102/102 97/97/97 103/103/103
f 102/102/102 103/103/103 104/104/104
f 97/97/97 98/98/98 99/99/99
f 97/97/97 99/99/99 100/100/100
f 103/103/103 97/97/97 100/100/100
f 103/103/103 100/100/100 105/105/105
f 103/103/103 105/105/105 89/89/89
f 103/103/103 89/89/89 88/88/88
f 104/104/104 103/103/103 88/88/88
f 104/104/104 88/88/88 87/87/87
f 85/85/85 87/87/87 88/88/88
f 85/85/85 86/86/86 87/87/87
f 86/86/86 85/85/85 91/91/91
f 86/86/86 91/91/91 92/92/92
f 89/89/89 85/85/85 88/88/88
f 89/89/89 90/90/90 85/85/85
f 91/91/91 85/85/85 90/90/90
f 91/91/91 90/90/90 95/95/95
f 93/93/93 91/91/91 95/95/95
f 92/92/92 91/91/91 93/93/93
f 92/92/92 93/93/93 94/94/94
f 94/94/94 93/93/93 106/106/106
f 94/94/94 106/106/106 108/108/108
f 93/93/93 95/95/95 96/96/96
f 106/106/106 93/93/93 96/96/96
f 106/106/106 96/96/96 107/107/107
f 150/150/150 130/130/130 151/151/151
f 150/150/150 131/131/131 130/130/130
f 128/128/128 130/130/130 131/131/131
f 128/128/128 129/129/129 130/130/130
f 126/126/126 148/148/148 149/149/149
f 126/126/126 125/125/125 148/148/148
f 124/124/124 125/125/125 126/126/126
f 124/124/124 126/126/126 127/127/127
f 146/146/146 132/132/132 147/147/147
f 146/146/146 133/133/133 132/132/132
f 132/132/132 133/133/133 134/134/134
f 132/132/132 134/134/134 135/135/135
f 143/143/143 144/144/144 145/145/145
f 142/142/142 145/145/145 144/144/144
f 142/142/142 141/141/141 145/145/145
f 117/117/117 141/141/141 142/142/142
f 117/117/117 116/116/116 141/141/141
f 115/115/115 116/116/116 117/117/117
f 138/138/138 139/139/139 140/140/140
f 137/137/137 140/140/140 139/139/139
f 137/137/137 136/136/136 140/140/140
f 114/114/114 136/136/136 137/137/137
f 114/114/114 113/113/113 136/136/136
f 112/112/112 113/113/113 114/114/114
f 122/122/122 120/120/120 123/123/123
f 122/122/122 121/121/121 120/120/120
f 118/118/118 120/120/120 121/121/121
f 118/118/118 119/119/119 120/120/120

