g z030v001_uranus_l
v 0.06750296 -0.4535495 -0.02456901
v 0 -0.459203 0
v 0.07074381 -0.4535495 -0.01247399
v 0.2053065 -0.4091529 -0.03620091
v 0.05502894 -0.4535495 -0.04617469
v 0 -0.459203 0
v 0.04617476 -0.4535495 -0.05502887
v 0.1340044 -0.4091529 -0.1597
v 0 -0.459203 0
v 0.3197723 -0.3247055 -0.05638424
v 0.03591761 -0.4535495 -0.06221103
v 0 -0.459203 0
v 0.2087167 -0.3247055 -0.2487386
v 0.4029367 -0.2084738 -0.07104829
v 0.01247408 -0.4535495 -0.07074379
v 0 -0.459203 0
v 4.28171E-08 -0.4535495 -0.07183515
v 0 -0.459203 0
v 0.2629984 -0.2084738 -0.3134289
v 0.4466588 -0.07183513 -0.07875764
v 1.242601E-07 -0.4091529 -0.2084737
v -0.1340042 -0.4091529 -0.1597002
v 1.935396E-07 -0.3247055 -0.3247054
v 0.291536 -0.07183513 -0.3474386
v 0.4466588 0.07183513 -0.07875764
v 2.438741E-07 -0.2084738 -0.4091526
v 0.291536 0.07183513 -0.3474386
v 0.4029367 0.2084738 -0.07104829
v -0.012474 -0.4535495 -0.07074381
v 0 -0.459203 0
v -0.2087165 -0.3247055 -0.2487389
v -0.2053065 -0.4091529 -0.03620115
v 2.703365E-07 -0.07183513 -0.4535492
v 0.2629984 0.2084738 -0.3134289
v 0.3197723 0.3247055 -0.05638424
v -0.03591754 -0.4535495 -0.06221108
v 0 -0.459203 0
v -0.04617471 -0.4535495 -0.05502893
v 0 -0.459203 0
v -0.2629981 -0.2084738 -0.3134292
v 2.703365E-07 0.07183513 -0.4535492
v 0.2087167 0.3247055 -0.2487386
v 0.2053065 0.4091529 -0.03620091
v -0.05502889 -0.4535495 -0.04617476
v 0 -0.459203 0
v -0.3197723 -0.3247055 -0.05638461
v -0.2915357 -0.07183513 -0.347439
v 2.438741E-07 0.2084738 -0.4091526
v 0.1340044 0.4091529 -0.1597
v 0.07074381 0.4535495 -0.01247399
v -0.06750295 -0.4535495 -0.02456909
v 0 -0.459203 0
v -0.07074381 -0.4535495 -0.01247407
v 0 -0.459203 0
v -0.1805436 -0.4091529 0.1042368
v -0.07183515 -0.4535495 -2.354941E-08
v -0.2812032 -0.3247055 0.1623527
v 0 -0.459203 0
v 1.935396E-07 0.3247055 -0.3247054
v -0.4029367 -0.2084738 -0.07104875
v -0.06750298 -0.4535495 0.02456905
v 0 -0.459203 0
v -0.06221109 -0.4535495 0.03591757
v 0 -0.459203 0
v -0.05502894 -0.4535495 0.04617473
v 0 -0.459203 0
v -0.03591759 -0.4535495 0.06221107
v 0 -0.459203 0
v -0.02456908 -0.4535495 0.06750298
v 0 -0.459203 0
v -0.07130226 -0.4091529 0.1959012
v -0.01247406 -0.4535495 0.07074382
v 0 -0.459203 0
v 0.01247404 -0.4535495 0.07074384
v 0 -0.459203 0
v -0.1110559 -0.3247055 0.3051233
v 0.07130221 -0.4091529 0.1959013
v -0.3543367 -0.2084738 0.2045763
v 0.02456906 -0.4535495 0.06750298
v 0 -0.459203 0
v -0.4466588 -0.07183513 -0.07875815
v -0.2915357 0.07183513 -0.347439
v -0.2629981 0.2084738 -0.3134292
v -0.4466588 0.07183513 -0.07875815
v -0.3927853 -0.07183513 0.2267746
v -0.1399386 -0.2084738 0.3844778
v 0.1110558 -0.3247055 0.3051234
v 0.1805436 -0.4091529 0.1042369
v 0.03591758 -0.4535495 0.06221109
v 0.2812032 -0.3247055 0.1623528
v 0 -0.459203 0
v 0.1399385 -0.2084738 0.3844779
v -0.1551231 -0.07183513 0.4261969
v -0.3927853 0.07183513 0.2267746
v 0.05502893 -0.4535495 0.04617476
v 0 -0.459203 0
v -0.4029367 0.2084738 -0.07104875
v 0.06221109 -0.4535495 0.03591759
v 0 -0.459203 0
v -0.2087165 0.3247055 -0.2487389
v 0.06750298 -0.4535495 0.02456908
v 0 -0.459203 0
v 1.242601E-07 0.4091529 -0.2084737
v 0.07183518 -0.4535495 0
v 0 -0.459203 0
v 0.07074381 -0.4535495 -0.01247399
v 0 -0.459203 0
v 0.2053065 -0.4091529 -0.03620091
v 0.3197723 -0.3247055 -0.05638424
v 0.3543367 -0.2084738 0.2045764
v 0.4029367 -0.2084738 -0.07104829
v 0.155123 -0.07183513 0.426197
v 0.3927853 -0.07183513 0.2267747
v 0.4466588 -0.07183513 -0.07875764
v -0.1551231 0.07183513 0.4261969
v 0.155123 0.07183513 0.426197
v 0.3927853 0.07183513 0.2267747
v 0.4466588 0.07183513 -0.07875764
v -0.3543367 0.2084738 0.2045763
v -0.1399386 0.2084738 0.3844778
v 0.1399385 0.2084738 0.3844779
v 0.3543367 0.2084738 0.2045764
v 0.4029367 0.2084738 -0.07104829
v -0.3197723 0.3247055 -0.05638461
v -0.2812032 0.3247055 0.1623527
v -0.1110559 0.3247055 0.3051233
v 0.1110558 0.3247055 0.3051234
v 0.2812032 0.3247055 0.1623528
v 0.3197723 0.3247055 -0.05638424
v -0.1340042 0.4091529 -0.1597002
v -0.2053065 0.4091529 -0.03620115
v -0.1805436 0.4091529 0.1042368
v -0.07130226 0.4091529 0.1959012
v 0.07130221 0.4091529 0.1959013
v 0.1805436 0.4091529 0.1042369
v 0.2053065 0.4091529 -0.03620091
v 0.06221109 0.4535495 0.03591759
v 0.07074381 0.4535495 -0.01247399
v 0 0.459203 0
v 0.02456906 0.4535495 0.06750298
v 0 0.459203 0
v -0.02456908 0.4535495 0.06750298
v 0 0.459203 0
v -0.06221109 0.4535495 0.03591757
v 0 0.459203 0
v -0.07074381 0.4535495 -0.01247407
v 0 0.459203 0
v -0.04617471 0.4535495 -0.05502893
v 0 0.459203 0
v 4.28171E-08 0.4535495 -0.07183515
v 0 0.459203 0
v 0.04617476 0.4535495 -0.05502887
v 0 0.459203 0
v 0 0.459203 0
vt 0.027771 0.04998779
vt 0.0138855 0
vt 0 0.04998779
vt 0 0.1500244
vt 0.08331299 0.04998779
vt 0.06945801 0
vt 0.111084 0.04998779
vt 0.111084 0.1500244
vt 0.097229 0
vt 0 0.25
vt 0.138916 0.04998779
vt 0.125 0
vt 0.111084 0.25
vt 0 0.3500977
vt 0.194458 0.04998779
vt 0.180542 0
vt 0.222168 0.04998779
vt 0.208374 0
vt 0.111084 0.3500977
vt 0 0.4499512
vt 0.222168 0.1500244
vt 0.333252 0.1500244
vt 0.222168 0.25
vt 0.111084 0.4499512
vt 0 0.5498047
vt 0.222168 0.3500977
vt 0.111084 0.5498047
vt 0 0.6499023
vt 0.25 0.04998779
vt 0.236084 0
vt 0.333252 0.25
vt 0.4443359 0.1500244
vt 0.222168 0.4499512
vt 0.111084 0.6499023
vt 0 0.75
vt 0.3056641 0.04998779
vt 0.291748 0
vt 0.333252 0.04998779
vt 0.3193359 0
vt 0.333252 0.3500977
vt 0.222168 0.5498047
vt 0.111084 0.75
vt 0 0.8500977
vt 0.361084 0.04998779
vt 0.347168 0
vt 0.4443359 0.25
vt 0.333252 0.4499512
vt 0.222168 0.6499023
vt 0.111084 0.8500977
vt 0 0.9501953
vt 0.416748 0.04998779
vt 0.402832 0
vt 0.4443359 0.04998779
vt 0.4306641 0
vt 0.5556641 0.1500244
vt 0.472168 0.04998779
vt 0.5556641 0.25
vt 0.458252 0
vt 0.222168 0.75
vt 0.4443359 0.3500977
vt 0.527832 0.04998779
vt 0.5136719 0
vt 0.5556641 0.04998779
vt 0.5415039 0
vt 0.5834961 0.04998779
vt 0.5693359 0
vt 0.6386719 0.04998779
vt 0.625 0
vt 0.6665039 0.04998779
vt 0.652832 0
vt 0.6665039 0.1500244
vt 0.6943359 0.04998779
vt 0.6806641 0
vt 0.75 0.04998779
vt 0.7363281 0
vt 0.6665039 0.25
vt 0.777832 0.1500244
vt 0.5556641 0.3500977
vt 0.777832 0.04998779
vt 0.7636719 0
vt 0.4443359 0.4499512
vt 0.333252 0.5498047
vt 0.333252 0.6499023
vt 0.4443359 0.5498047
vt 0.5556641 0.4499512
vt 0.6665039 0.3500977
vt 0.777832 0.25
vt 0.8886719 0.1500244
vt 0.8056641 0.04998779
vt 0.8886719 0.25
vt 0.7915039 0
vt 0.777832 0.3500977
vt 0.6665039 0.4499512
vt 0.5556641 0.5498047
vt 0.8613281 0.04998779
vt 0.847168 0
vt 0.4443359 0.6499023
vt 0.8886719 0.04998779
vt 0.875 0
vt 0.333252 0.75
vt 0.9165039 0.04998779
vt 0.902832 0
vt 0.222168 0.8500977
vt 0.972168 0.04998779
vt 0.9584961 0
vt 1 0.04998779
vt 0.9863281 0
vt 1 0.1500244
vt 1 0.25
vt 0.8886719 0.3500977
vt 1 0.3500977
vt 0.777832 0.4499512
vt 0.8886719 0.4499512
vt 1 0.4499512
vt 0.6665039 0.5498047
vt 0.777832 0.5498047
vt 0.8886719 0.5498047
vt 1 0.5498047
vt 0.5556641 0.6499023
vt 0.6665039 0.6499023
vt 0.777832 0.6499023
vt 0.8886719 0.6499023
vt 1 0.6499023
vt 0.4443359 0.75
vt 0.5556641 0.75
vt 0.6665039 0.75
vt 0.777832 0.75
vt 0.8886719 0.75
vt 1 0.75
vt 0.333252 0.8500977
vt 0.4443359 0.8500977
vt 0.5556641 0.8500977
vt 0.6665039 0.8500977
vt 0.777832 0.8500977
vt 0.8886719 0.8500977
vt 1 0.8500977
vt 0.8886719 0.9501953
vt 1 0.9501953
vt 0.902832 1
vt 0.777832 0.9501953
vt 0.7915039 1
vt 0.6665039 0.9501953
vt 0.6806641 1
vt 0.5556641 0.9501953
vt 0.5693359 1
vt 0.4443359 0.9501953
vt 0.458252 1
vt 0.333252 0.9501953
vt 0.347168 1
vt 0.222168 0.9501953
vt 0.236084 1
vt 0.111084 0.9501953
vt 0.125 1
vt 0.0138855 1
vn 0.2753906 -0.9482422 -0.1586914
vn 0 -1 0
vn 0.300293 -0.9521484 -0.052948
vn 0.5131836 -0.8535156 -0.09051514
vn 0.2751465 -0.9482422 -0.1593018
vn 0 -1 0
vn 0.1960449 -0.9521484 -0.2335205
vn 0.3349609 -0.8535156 -0.3991699
vn 0 -1 0
vn 0.7294922 -0.671875 -0.1286621
vn 0.1090698 -0.9482422 -0.298584
vn 0 -1 0
vn 0.4760742 -0.671875 -0.5673828
vn 0.8896484 -0.4284668 -0.1568604
vn 0.1083984 -0.9482422 -0.2988281
vn 0 -1 0
vn 0 -0.9521484 -0.3049316
vn 0 -1 0
vn 0.5810547 -0.4284668 -0.6923828
vn 0.9741211 -0.1470947 -0.1717529
vn 0 -0.8535156 -0.5209961
vn -0.3349609 -0.8535156 -0.3991699
vn 0 -0.671875 -0.7407227
vn 0.6357422 -0.1470947 -0.7578125
vn 0.9741211 0.1470947 -0.1717529
vn 0 -0.4284668 -0.9038086
vn 0.6357422 0.1470947 -0.7578125
vn 0.8896484 0.4284668 -0.1568604
vn -0.1083984 -0.9482422 -0.2988281
vn 0 -1 0
vn -0.4760742 -0.671875 -0.5673828
vn -0.5131836 -0.8535156 -0.09051514
vn 0 -0.1470947 -0.9892578
vn 0.5810547 0.4284668 -0.6923828
vn 0.7294922 0.671875 -0.1286621
vn -0.1090698 -0.9482422 -0.298584
vn 0 -1 0
vn -0.1960449 -0.9521484 -0.2335205
vn 0 -1 0
vn -0.5810547 -0.4284668 -0.6923828
vn 0 0.1470947 -0.9892578
vn 0.4760742 0.671875 -0.5673828
vn 0.512207 0.8540039 -0.09033203
vn -0.2751465 -0.9482422 -0.1593018
vn 0 -1 0
vn -0.7294922 -0.671875 -0.1286621
vn -0.6357422 -0.1470947 -0.7578125
vn 0 0.4284668 -0.9038086
vn 0.3342285 0.8540039 -0.3984375
vn 0.2875977 0.956543 -0.0506897
vn -0.2753906 -0.9482422 -0.1586914
vn 0 -1 0
vn -0.300293 -0.9521484 -0.052948
vn 0 -1 0
vn -0.451416 -0.8535156 0.260498
vn -0.3132324 -0.9482422 0.05487061
vn -0.6416016 -0.671875 0.3703613
vn 0 -1 0
vn 0 0.671875 -0.7407227
vn -0.8896484 -0.4284668 -0.1568604
vn -0.3129883 -0.9482422 0.05554199
vn 0 -1 0
vn -0.2641602 -0.9521484 0.1524658
vn 0 -1 0
vn -0.2045898 -0.9482422 0.2432861
vn 0 -1 0
vn -0.2041016 -0.9482422 0.2437744
vn 0 -1 0
vn -0.1043091 -0.9521484 0.2866211
vn 0 -1 0
vn -0.1782227 -0.8535156 0.4897461
vn -0.0003483295 -0.9482422 0.3178711
vn 0 -1 0
vn 0.0003483295 -0.9482422 0.3178711
vn 0 -1 0
vn -0.253418 -0.671875 0.6962891
vn 0.1782227 -0.8535156 0.4897461
vn -0.7827148 -0.4284668 0.4519043
vn 0.1043091 -0.9521484 0.2866211
vn 0 -1 0
vn -0.9741211 -0.1470947 -0.1717529
vn -0.6357422 0.1470947 -0.7578125
vn -0.5810547 0.4284668 -0.6923828
vn -0.9741211 0.1470947 -0.1717529
vn -0.8564453 -0.1470947 0.4946289
vn -0.309082 -0.4284668 0.8491211
vn 0.253418 -0.671875 0.6962891
vn 0.451416 -0.8535156 0.260498
vn 0.2041016 -0.9482422 0.2437744
vn 0.6416016 -0.671875 0.3703613
vn 0 -1 0
vn 0.309082 -0.4284668 0.8491211
vn -0.3383789 -0.1470947 0.9296875
vn -0.8564453 0.1470947 0.4946289
vn 0.2045898 -0.9482422 0.2432861
vn 0 -1 0
vn -0.8896484 0.4284668 -0.1568604
vn 0.2641602 -0.9521484 0.1524658
vn 0 -1 0
vn -0.4760742 0.671875 -0.5673828
vn 0.3129883 -0.9482422 0.05554199
vn 0 -1 0
vn 0 0.8540039 -0.5200195
vn 0.3132324 -0.9482422 0.05487061
vn 0 -1 0
vn 0.300293 -0.9521484 -0.052948
vn 0 -1 0
vn 0.5131836 -0.8535156 -0.09051514
vn 0.7294922 -0.671875 -0.1286621
vn 0.7827148 -0.4284668 0.4519043
vn 0.8896484 -0.4284668 -0.1568604
vn 0.3383789 -0.1470947 0.9296875
vn 0.8564453 -0.1470947 0.4946289
vn 0.9741211 -0.1470947 -0.1717529
vn -0.3383789 0.1470947 0.9296875
vn 0.3383789 0.1470947 0.9296875
vn 0.8564453 0.1470947 0.4946289
vn 0.9741211 0.1470947 -0.1717529
vn -0.7827148 0.4284668 0.4519043
vn -0.309082 0.4284668 0.8491211
vn 0.309082 0.4284668 0.8491211
vn 0.7827148 0.4284668 0.4519043
vn 0.8896484 0.4284668 -0.1568604
vn -0.7294922 0.671875 -0.1286621
vn -0.6416016 0.671875 0.3703613
vn -0.253418 0.671875 0.6962891
vn 0.253418 0.671875 0.6962891
vn 0.6416016 0.671875 0.3703613
vn 0.7294922 0.671875 -0.1286621
vn -0.3342285 0.8540039 -0.3984375
vn -0.512207 0.8540039 -0.09033203
vn -0.4504395 0.8540039 0.2600098
vn -0.1778564 0.8540039 0.4887695
vn 0.1778564 0.8540039 0.4887695
vn 0.4504395 0.8540039 0.2600098
vn 0.512207 0.8540039 -0.09033203
vn 0.2529297 0.956543 0.1459961
vn 0.2875977 0.956543 -0.0506897
vn 0 1 0
vn 0.09985352 0.956543 0.2744141
vn 0 1 0
vn -0.09985352 0.956543 0.2744141
vn 0 1 0
vn -0.2529297 0.956543 0.1459961
vn 0 1 0
vn -0.2875977 0.956543 -0.0506897
vn 0 1 0
vn -0.1877441 0.956543 -0.2236328
vn 0 1 0
vn 0 0.956543 -0.2919922
vn 0 1 0
vn 0.1877441 0.956543 -0.2236328
vn 0 1 0
vn 0 1 0
g z030v001_uranus_l_0
f 3/3/3 2/2/2 1/1/1
f 4/4/4 3/3/3 1/1/1
f 4/4/4 1/1/1 5/5/5
f 1/1/1 6/6/6 5/5/5
f 4/4/4 5/5/5 7/7/7
f 7/7/7 8/8/8 4/4/4
f 5/5/5 9/9/9 7/7/7
f 4/4/4 8/8/8 10/10/10
f 8/8/8 7/7/7 11/11/11
f 7/7/7 12/12/12 11/11/11
f 8/8/8 13/13/13 10/10/10
f 10/10/10 13/13/13 14/14/14
f 8/8/8 11/11/11 15/15/15
f 11/11/11 16/16/16 15/15/15
f 8/8/8 15/15/15 17/17/17
f 15/15/15 18/18/18 17/17/17
f 13/13/13 19/19/19 14/14/14
f 14/14/14 19/19/19 20/20/20
f 8/8/8 21/21/21 13/13/13
f 17/17/17 21/21/21 8/8/8
f 22/22/22 21/21/21 17/17/17
f 21/21/21 23/23/23 13/13/13
f 13/13/13 23/23/23 19/19/19
f 21/21/21 22/22/22 23/23/23
f 19/19/19 24/24/24 20/20/20
f 20/20/20 24/24/24 25/25/25
f 23/23/23 26/26/26 19/19/19
f 19/19/19 26/26/26 24/24/24
f 24/24/24 27/27/27 25/25/25
f 25/25/25 27/27/27 28/28/28
f 17/17/17 29/29/29 22/22/22
f 17/17/17 30/30/30 29/29/29
f 22/22/22 31/31/31 23/23/23
f 23/23/23 31/31/31 26/26/26
f 22/22/22 32/32/32 31/31/31
f 26/26/26 33/33/33 24/24/24
f 24/24/24 33/33/33 27/27/27
f 27/27/27 34/34/34 28/28/28
f 28/28/28 34/34/34 35/35/35
f 29/29/29 36/36/36 22/22/22
f 29/29/29 37/37/37 36/36/36
f 36/36/36 38/38/38 22/22/22
f 32/32/32 22/22/22 38/38/38
f 36/36/36 39/39/39 38/38/38
f 31/31/31 40/40/40 26/26/26
f 26/26/26 40/40/40 33/33/33
f 33/33/33 41/41/41 27/27/27
f 27/27/27 41/41/41 34/34/34
f 34/34/34 42/42/42 35/35/35
f 35/35/35 42/42/42 43/43/43
f 38/38/38 44/44/44 32/32/32
f 38/38/38 45/45/45 44/44/44
f 32/32/32 46/46/46 31/31/31
f 31/31/31 46/46/46 40/40/40
f 40/40/40 47/47/47 33/33/33
f 33/33/33 47/47/47 41/41/41
f 41/41/41 48/48/48 34/34/34
f 34/34/34 48/48/48 42/42/42
f 42/42/42 49/49/49 43/43/43
f 43/43/43 49/49/49 50/50/50
f 44/44/44 51/51/51 32/32/32
f 44/44/44 52/52/52 51/51/51
f 51/51/51 53/53/53 32/32/32
f 51/51/51 54/54/54 53/53/53
f 55/55/55 32/32/32 53/53/53
f 32/32/32 55/55/55 46/46/46
f 53/53/53 56/56/56 55/55/55
f 55/55/55 57/57/57 46/46/46
f 53/53/53 58/58/58 56/56/56
f 42/42/42 59/59/59 49/49/49
f 48/48/48 59/59/59 42/42/42
f 46/46/46 57/57/57 60/60/60
f 46/46/46 60/60/60 40/40/40
f 40/40/40 60/60/60 47/47/47
f 56/56/56 61/61/61 55/55/55
f 56/56/56 62/62/62 61/61/61
f 61/61/61 63/63/63 55/55/55
f 61/61/61 64/64/64 63/63/63
f 55/55/55 63/63/63 65/65/65
f 63/63/63 66/66/66 65/65/65
f 65/65/65 67/67/67 55/55/55
f 65/65/65 68/68/68 67/67/67
f 67/67/67 69/69/69 55/55/55
f 67/67/67 70/70/70 69/69/69
f 69/69/69 71/71/71 55/55/55
f 55/55/55 71/71/71 57/57/57
f 71/71/71 69/69/69 72/72/72
f 69/69/69 73/73/73 72/72/72
f 72/72/72 74/74/74 71/71/71
f 72/72/72 75/75/75 74/74/74
f 71/71/71 76/76/76 57/57/57
f 77/77/77 71/71/71 74/74/74
f 71/71/71 77/77/77 76/76/76
f 57/57/57 76/76/76 78/78/78
f 57/57/57 78/78/78 60/60/60
f 74/74/74 79/79/79 77/77/77
f 74/74/74 80/80/80 79/79/79
f 60/60/60 78/78/78 81/81/81
f 60/60/60 81/81/81 47/47/47
f 47/47/47 81/81/81 82/82/82
f 47/47/47 82/82/82 41/41/41
f 41/41/41 82/82/82 48/48/48
f 82/82/82 83/83/83 48/48/48
f 48/48/48 83/83/83 59/59/59
f 81/81/81 84/84/84 82/82/82
f 82/82/82 84/84/84 83/83/83
f 78/78/78 85/85/85 81/81/81
f 81/81/81 85/85/85 84/84/84
f 78/78/78 86/86/86 85/85/85
f 76/76/76 86/86/86 78/78/78
f 76/76/76 87/87/87 86/86/86
f 77/77/77 87/87/87 76/76/76
f 77/77/77 88/88/88 87/87/87
f 88/88/88 77/77/77 79/79/79
f 88/88/88 79/79/79 89/89/89
f 88/88/88 90/90/90 87/87/87
f 79/79/79 91/91/91 89/89/89
f 87/87/87 92/92/92 86/86/86
f 87/87/87 90/90/90 92/92/92
f 86/86/86 93/93/93 85/85/85
f 86/86/86 92/92/92 93/93/93
f 85/85/85 94/94/94 84/84/84
f 85/85/85 93/93/93 94/94/94
f 88/88/88 89/89/89 95/95/95
f 89/89/89 96/96/96 95/95/95
f 84/84/84 94/94/94 97/97/97
f 84/84/84 97/97/97 83/83/83
f 95/95/95 98/98/98 88/88/88
f 95/95/95 99/99/99 98/98/98
f 83/83/83 97/97/97 100/100/100
f 83/83/83 100/100/100 59/59/59
f 88/88/88 98/98/98 101/101/101
f 98/98/98 102/102/102 101/101/101
f 59/59/59 100/100/100 103/103/103
f 59/59/59 103/103/103 49/49/49
f 88/88/88 101/101/101 104/104/104
f 101/101/101 105/105/105 104/104/104
f 88/88/88 104/104/104 106/106/106
f 104/104/104 107/107/107 106/106/106
f 106/106/106 108/108/108 88/88/88
f 88/88/88 108/108/108 90/90/90
f 108/108/108 109/109/109 90/90/90
f 90/90/90 109/109/109 110/110/110
f 90/90/90 110/110/110 92/92/92
f 109/109/109 111/111/111 110/110/110
f 92/92/92 110/110/110 112/112/112
f 92/92/92 112/112/112 93/93/93
f 110/110/110 111/111/111 113/113/113
f 110/110/110 113/113/113 112/112/112
f 111/111/111 114/114/114 113/113/113
f 93/93/93 112/112/112 115/115/115
f 93/93/93 115/115/115 94/94/94
f 112/112/112 113/113/113 116/116/116
f 112/112/112 116/116/116 115/115/115
f 113/113/113 114/114/114 117/117/117
f 113/113/113 117/117/117 116/116/116
f 114/114/114 118/118/118 117/117/117
f 94/94/94 115/115/115 119/119/119
f 94/94/94 119/119/119 97/97/97
f 115/115/115 116/116/116 120/120/120
f 115/115/115 120/120/120 119/119/119
f 116/116/116 117/117/117 121/121/121
f 116/116/116 121/121/121 120/120/120
f 117/117/117 118/118/118 122/122/122
f 117/117/117 122/122/122 121/121/121
f 118/118/118 123/123/123 122/122/122
f 97/97/97 119/119/119 124/124/124
f 97/97/97 124/124/124 100/100/100
f 119/119/119 120/120/120 125/125/125
f 119/119/119 125/125/125 124/124/124
f 120/120/120 121/121/121 126/126/126
f 120/120/120 126/126/126 125/125/125
f 121/121/121 122/122/122 127/127/127
f 121/121/121 127/127/127 126/126/126
f 122/122/122 123/123/123 128/128/128
f 122/122/122 128/128/128 127/127/127
f 123/123/123 129/129/129 128/128/128
f 100/100/100 124/124/124 130/130/130
f 100/100/100 130/130/130 103/103/103
f 124/124/124 125/125/125 131/131/131
f 124/124/124 131/131/131 130/130/130
f 125/125/125 126/126/126 132/132/132
f 125/125/125 132/132/132 131/131/131
f 126/126/126 127/127/127 133/133/133
f 126/126/126 133/133/133 132/132/132
f 127/127/127 128/128/128 134/134/134
f 127/127/127 134/134/134 133/133/133
f 128/128/128 129/129/129 135/135/135
f 128/128/128 135/135/135 134/134/134
f 129/129/129 136/136/136 135/135/135
f 135/135/135 136/136/136 137/137/137
f 136/136/136 138/138/138 137/137/137
f 137/137/137 138/138/138 139/139/139
f 135/135/135 137/137/137 140/140/140
f 134/134/134 135/135/135 140/140/140
f 140/140/140 137/137/137 141/141/141
f 134/134/134 140/140/140 142/142/142
f 133/133/133 134/134/134 142/142/142
f 142/142/142 140/140/140 143/143/143
f 133/133/133 142/142/142 144/144/144
f 144/144/144 142/142/142 145/145/145
f 132/132/132 133/133/133 144/144/144
f 132/132/132 144/144/144 146/146/146
f 146/146/146 144/144/144 147/147/147
f 131/131/131 132/132/132 146/146/146
f 131/131/131 146/146/146 148/148/148
f 148/148/148 146/146/146 149/149/149
f 130/130/130 131/131/131 148/148/148
f 130/130/130 148/148/148 150/150/150
f 150/150/150 148/148/148 151/151/151
f 103/103/103 130/130/130 150/150/150
f 103/103/103 150/150/150 152/152/152
f 152/152/152 150/150/150 153/153/153
f 49/49/49 103/103/103 152/152/152
f 49/49/49 152/152/152 50/50/50
f 50/50/50 152/152/152 154/154/154
