#
# OBJECT NAME
#
o model_2557
mtllib 2557.mtl

#
# VERTEX BUFFER 000
#
v 0.291636 0.292662 0.5
v 0.5 0.5 0.30904
v -0.0714425 0.5 0.5
v 0.5 1 -0.35
v 0.5 0.85 -0.5
v 0.35 1 -0.5
v 0.5 0 0
v -0.5 0 0.5
v 0 0 -0.5
v 0.51244 0 -0.505922
v -0.5 0.5 0
v -0.519216 0.765855 0.114011
v -0.43559 0.826647 -0.0119848
v -0.5 0 -0.5
v 0.5 0 0.5
v 0.517884 0.498444 -0.517971
v 0.521269 0.498444 0
v 0.521269 0 0
v 0.51244 0 -0.505922
v 0 0 -0.5
v 0 0.5 -0.5
v 0.517884 0.498444 -0.517971
v 0.51244 0 -0.505922
v -0.5 0.430345 -0.5
v -0.368116 0.5 -0.5
v 0 0 -0.5
v -0.5 0 -0.5
v -0.5 0.5 -0.379826
v -0.5 0 0.5
v -0.5 0.5 0
v -0.5 0.5 0.5
v -0.5 0 0.5
v 0 1 -0.0119848
v 0 1 0.372089
v 0 1 0.0317098
v 0.5 0.699902 0.244463
v 0 0.5 0.432353
v 0.5 0.5 0.30904
v -0.16339 0.85026 0.535698
v 0 0.767498 0.392663
v -0.188926 0.999806 0.5
v 0.5 0.20822 0.5
v 0.291636 0.292662 0.5
v -0.5 0 0.5
v 0.5 0 0.5
v 0.5 0.20822 0.5
v 0.5 0 0
v 0.5 0.5 0.30904
v 0 0.5 0.432353
v -0.0714425 0.5 0.5
v 0.5 0.5 0.30904
v 0.5 1 -0.35
v 0.5 0.5 0.0317098
v 0.5 0.85 -0.5
v 0.35 1 -0.5
v 0 0.5 -0.5
v 0 1 -0.5
v 0.5 1 0.0317098
v 0 1 -0.5
v -0.368116 0.5 -0.5
v -0.244207 0.654718 -0.5
v -0.5 0.5 0
v -0.368116 0.5 -0.5
v -0.5 0.5 -0.379826
v -0.363128 0.742676 -0.0992455
v -0.269916 0.724402 -0.287303
v -0.368116 0.5 -0.5
v -0.244207 0.654718 -0.5
v -0.43559 0.826647 -0.0119848
v -0.5 0.5 0
v 0 1 -0.0119848
v -0.201873 1 -0.219631
v -0.482069 1 -0.0119848
v -0.121958 1 -0.5
v -0.201873 1 -0.219631
v -0.482069 1 -0.0119848
v -0.188926 0.999806 0.5
v 0.5 0.5 -0.5
v 0.5 0.85 -0.5
v 0.5 1 0.0317098
v 0.5 0.875964 0.0317098
v 0.5 0.5 -0.5
v 0.5 0 0.5
v 0 1 -0.0119848
v 0.5 0.5 0
v -0.0714425 0.5 0.5
v -0.5 0.5 0.5
v -0.5 0.5 0.5
v -0.0714425 0.5 0.5
v -0.127417 0.514728 0.535698
v -0.519137 0.505869 0.535698
v -0.519137 0.505869 0.535698
v -0.127417 0.514728 0.535698
v -0.0481684 0.642077 0.535698
v -0.16339 0.85026 0.535698
v -0.519137 0.505869 0.535698
v -0.535449 0.504703 0.0303012
v -0.5 0.5 0
v -0.5 0.5 0.5
v 0 0.767498 0.392663
v -0.16339 0.85026 0.535698
v -0.0481684 0.642077 0.535698
v -0.0714425 0.5 0.5
v -0.127417 0.514728 0.535698
v 0 0.5 0.432353
v 0 0.767498 0.392663
v 0.313042 0.746296 0.281446
v 0.5 0.20822 0.5
v 0.239264 1 0.142256
v 0.5 1 0.0317098
v 0.239264 1 0.142256
v 0.5 1 0.0317098
v 0.5 0.875964 0.0317098
v -0.43559 0.826647 -0.0119848
v -0.482069 1 -0.0119848
v -0.201873 1 -0.219631
v -0.121958 1 -0.5
v -0.188577 0.865 -0.5
v -0.188577 0.865 -0.5
v -0.121958 1 -0.5
v -0.188577 0.865 -0.5
v -0.5 0.5 -0.379826
v -0.368116 0.5 -0.5
v -0.5 0.430345 -0.5
v -0.5 0 -0.5
v -0.5 0.430345 -0.5
v -0.519137 0.995 0.535698
v 0.35 1 -0.5
v 0.5 1 -0.35
v -0.535449 0.504703 0.0303012
v 0.5 0.5 -0.5
v 0.5 0.5 0
v 0.521269 0.498444 0
v 0.517884 0.498444 -0.517971
v 0.5 0.5 0
v 0.5 0 0
v 0.521269 0 0
v 0.521269 0.498444 0
v 0.5 0 0
v 0.51244 0 -0.505922
v 0.521269 0 0
v 0.51244 0 -0.505922
v 0.5 0.5 -0.5
v 0.517884 0.498444 -0.517971
v 0 0.5 -0.5
v 0.5 0.5 -0.5
v 0.517884 0.498444 -0.517971
v 0.5 0.5 -0.5
v 0.51244 0 -0.505922
v 0.517884 0.498444 -0.517971
v -0.519137 0.505869 0.535698
v -0.519216 0.765855 0.114011
v -0.535449 0.504703 0.0303012
v -0.482069 1 -0.0119848
v -0.519137 0.995 0.535698
v -0.188926 0.999806 0.5
v 0 1 0.372089
v 0 1 0.372089
v 0.5 0.875964 0.0317098
v 0.313042 0.746296 0.281446
v 0.5 0.699902 0.244463
v 0.5 0.699902 0.244463
v 0.5 0.5 0.0317098
v 0.5 0.5 0.30904
v 0.5 0.5 0
v 0.5 0.5 0
v -0.519137 0.995 0.535698
v -0.482069 1 -0.0119848

vn 0.26123 0.498535 0.826172
vn 0.258057 0.500977 0.825684
vn 0.2771 0.485107 0.829102
vn 0.577148 0.577148 -0.577148
vn 0.577148 0.577148 -0.577148
vn 0.577148 0.577148 -0.577148
vn 0 -1 0
vn 0 -1 0
vn -0.00681686 -0.955566 -0.293701
vn -0.0107346 -0.88623 -0.462646
vn -0.773438 0.201538 -0.600098
vn -0.843262 0.0797119 -0.53125
vn -0.825684 -0.0305481 -0.5625
vn 0 -1 0
vn 0 -1 0
vn 0.999512 -0.00560379 -0.0119247
vn 0.999512 -0.00560379 -0.0119247
vn 0.999512 -0.00560379 -0.0119247
vn 0.999512 -0.00560379 -0.0119247
vn -0.00681686 -0.955566 -0.293701
vn -0.0231934 -0.0119324 -0.999512
vn -0.0231934 -0.0119324 -0.999512
vn -0.0107346 -0.88623 -0.462646
vn 0 0 -1
vn 0 0 -1
vn 0 0 -1
vn 0 0 -1
vn -1 0 0
vn -1 0 0
vn -1 0 0
vn -1 0 0
vn -1 0 0
vn 0 1 0
vn -0.000234962 0.999512 0.000294685
vn 0 1 0
vn 0.233398 0.288574 0.928223
vn 0.296875 0.200928 0.933105
vn 0.228394 0.299072 0.92627
vn 0.708008 0.275879 0.649414
vn 0.606445 0.131348 0.783691
vn 0.62207 0.150879 0.768066
vn 0 0 1
vn 0 0 1
vn 0 0 1
vn 0 0 1
vn 1 0 0
vn 1 0 0
vn 1 0 0
vn 0.477783 0.836914 0.265625
vn 0.616699 0.00972748 0.786621
vn 0 1 1.13249e-006
vn 1 1.19209e-007 0
vn 1 1.19209e-007 0
vn 1 1.19209e-007 0
vn 0 0 -1
vn 0 0 -1
vn 0 0 -1
vn 0 1 0
vn 0 1 0
vn 0 0 -1
vn 0 0 -1
vn 0 1 0
vn 0 1 0
vn 0 1 0
vn -0.817871 0.286621 -0.498535
vn -0.834961 0.446777 -0.320557
vn -0.822266 0.497559 -0.274902
vn -0.854492 0.453857 -0.251953
vn -0.70752 0.113953 -0.697266
vn -0.879395 0.378418 -0.287354
vn 0 1 0
vn 0 1 0
vn -0.00426483 0.999512 0.00261307
vn 0 1 0
vn 0 1 0
vn -0.00426483 0.999512 0.00261307
vn -0.00722504 0.999512 0.0045166
vn 0 0 -1
vn 0 0 -1
vn 0.829102 0.245728 0.501953
vn 0.995117 0 0.0982666
vn 1 0 0
vn 1 0 0
vn 0 1 0
vn 1 0 0
vn 0 0 1
vn 0 0 1
vn 0.0103378 -0.95752 0.287109
vn 0.0103378 -0.95752 0.287109
vn 0.0103378 -0.95752 0.287109
vn 0.0103378 -0.95752 0.287109
vn 0 -1.78814e-007 1
vn 0 0 1
vn 0 0 1
vn 0.0114517 0.0281525 0.999512
vn -0.185181 -0.982422 0.00414276
vn -0.185181 -0.982422 0.00414276
vn -0.185181 -0.982422 0.00414276
vn -0.185181 -0.982422 0.00414276
vn 0.807617 0.280762 0.518066
vn 0.709961 0.393066 0.583496
vn 0.841797 0.159546 0.515137
vn 0.616699 0.00972748 0.786621
vn 0.460205 -0.286377 0.839844
vn 0.477783 0.836914 0.265625
vn 0.451904 0.271973 0.849121
vn 0.405518 0.313477 0.858398
vn 0.216553 0.53418 0.816406
vn 0 1 0
vn 0 1 0
vn 0.447021 0.406494 0.796387
vn 0.829102 0.245728 0.501953
vn 0.995117 0 0.0982666
vn -0.845215 -0.226563 -0.483643
vn -0.614258 -0.0165405 -0.788574
vn -0.864258 0.250488 -0.435547
vn -0.919434 0.335205 -0.205078
vn -0.919434 0.335205 -0.205078
vn 0 0 -1
vn 0 0 -1
vn -0.947754 0.250732 -0.196655
vn -0.415527 0.786621 -0.456055
vn -0.415527 0.786621 -0.456055
vn -0.415527 0.786621 -0.456055
vn -1 0 0
vn -1 0 0
vn 0.00944519 0.0232086 0.999512
vn 0 1 0
vn 0 1 0
vn -0.602539 0.2771 -0.748047
vn 0.0791016 0.996582 -0.000262976
vn 0.0791016 0.996582 -0.000262976
vn 0.0791016 0.996582 -0.000262976
vn 0.0791016 0.996582 -0.000262976
vn 0 0 1
vn 0 0 1
vn 0 0 1
vn 0 0 1
vn 0 -1 0
vn -0.0107346 -0.88623 -0.462646
vn 0 -1 0
vn -0.708984 -0.0092926 -0.70459
vn -0.708984 -0.0092926 -0.70459
vn -0.708984 -0.0092926 -0.70459
vn 0 0.996094 -0.0862427
vn 0 0.996094 -0.0862427
vn 0 0.996094 -0.0862427
vn 0.708984 0.0092926 0.70459
vn 0.708984 0.0092926 0.70459
vn 0.708984 0.0092926 0.70459
vn -0.999512 0.0134048 0.00845337
vn -0.998047 0.0567322 -0.0128708
vn -0.998047 0.0517273 0.032074
vn -0.766602 -0.205566 -0.60791
vn -0.999023 0.0279388 -0.0149918
vn 0.100586 0.247192 0.963379
vn 0.559082 0.0730591 0.825684
vn 0.503418 0.337646 0.794922
vn 0.302246 0.733887 0.607422
vn 0.302246 0.733887 0.607422
vn 0.302246 0.733887 0.607422
vn 1 1.19209e-007 0
vn 1 1.19209e-007 0
vn 1 0 0
vn 1 0 0
vn 1 0 0
vn -0.0136642 0.999512 0.0082016
vn -0.990234 0.121643 -0.065918

vt 0.690426 0.579718
vt 0.748742 0.737054
vt 0.544164 0.709789
vt 0.89353 0.674049
vt 0.933731 0.592998
vt 0.973933 0.674049
vt 0 0.74964
vt 0.249867 0.561977
vt 0.125 0.99952
vt 0 0.99952
vt 0.939525 0.762804
vt 0.998893 0.886665
vt 0.942956 0.91705
vt 0.25 0.99952
vt 0 0.49976
vt 0.75 0.24988
vt 0.625 0.24988
vt 0.625 0
vt 0.75 0
vt 0.875 0
vt 0.875 0.24988
vt 0.75 0.24988
vt 0.75 0
vt 0.999963 0.197626
vt 0.967162 0.249846
vt 0.875 0
vt 1 0
vt 0.0420118 0.249841
vt 0.252596 0
vt 0.125 0.24988
vt 0.250129 0.24988
vt 0.251301 -0.000183463
vt 0.373246 0.749642
vt 0.375 0.583959
vt 0.375 0.74964
vt 0.73493 0.863666
vt 0.576934 0.749973
vt 0.738052 0.750705
vt 0.503699 0.908424
vt 0.573973 0.893272
vt 0.509887 0.995696
vt 0.49679 0.104153
vt 0.397177 0.144522
vt 0.00280096 0.00460815
vt 0.49679 0.00460821
vt 0.5 0.10406
vt 0.625 0
vt 0.557551 0.249791
vt 0.555465 0.739617
vt 0.544164 0.709789
vt 0.748742 0.737054
vt 0.712956 0.49976
vt 0.626433 0.254284
vt 0.75 0.425076
vt 0.787044 0.49976
vt 0.875 0.24988
vt 0.875 0.49976
vt 0.49487 0.74968
vt 0.375 0.99952
vt 0.96679 0.249873
vt 0.935819 0.327168
vt 0.265159 0.0103425
vt 0.326222 0.241845
vt 0.265159 0.186204
vt 0.899791 0.875474
vt 0.831635 0.870349
vt 0.752852 0.755241
vt 0.752499 0.830357
vt 0.942956 0.91705
vt 0.939525 0.762804
vt 0.373438 0.750296
vt 0.30876 0.812783
vt 0.26034 0.761894
vt 0.344571 0.999328
vt 0.338971 0.904863
vt 0.253187 0.736085
vt 0.34277 0.49976
vt 0.75 0.24988
vt 0.75 0.425076
vt 0.625 0.49976
vt 0.62503 0.403431
vt 0.75 0.24988
vt 0.5 0
vt 0.374137 0.75336
vt 0.623903 0.249878
vt 0.223599 0.243644
vt 0.00280106 0.243644
vt 0.250129 0.24988
vt 0.357139 0.24988
vt 0.343107 0.257595
vt 0.250129 0.259262
vt 0.250129 0.259262
vt 0.343107 0.257595
vt 0.362816 0.320841
vt 0.334034 0.411216
vt 0.250129 0.259065
vt 0.134585 0.250986
vt 0.125 0.24988
vt 0.250129 0.24988
vt 0.573973 0.893272
vt 0.503699 0.908424
vt 0.531358 0.818461
vt 0.530872 0.748756
vt 0.521252 0.751861
vt 0.576934 0.749973
vt 0.573973 0.893272
vt 0.680643 0.874303
vt 0.748742 0.501819
vt 0.425942 0.699466
vt 0.49394 0.737842
vt 0.675396 0.995029
vt 0.741223 0.993628
vt 0.739218 0.960496
vt 0.942956 0.91705
vt 0.934664 0.999073
vt 0.853539 0.999255
vt 0.75032 0.999385
vt 0.751324 0.932344
vt 0.922019 0.432254
vt 0.90546 0.499709
vt 0.751324 0.932344
vt 0.265159 0.186204
vt 0.326222 0.241845
vt 0.265159 0.241845
vt 0 0
vt 3.12941e-005 0.197649
vt 0.25129 0.498017
vt 0.463294 0.99952
vt 0.5 0.924943
vt 0.959705 0.763128
vt 0.75 0.24988
vt 0.626124 0.24988
vt 0.625 0.24988
vt 0.75 0.24988
vt 0.626124 0.24988
vt 0.625 0
vt 0.625 0
vt 0.625 0.24988
vt 0.625 0
vt 0.75 0
vt 0.625 0
vt 0.75 0
vt 0.75 0.24988
vt 0.75 0.24988
vt 0.875 0.24988
vt 0.75 0.24988
vt 0.75 0.24988
vt 0.75 0.24988
vt 0.75 0
vt 0.75 0.24988
vt 0.250129 0.259065
vt 0.158925 0.382475
vt 0.134585 0.250986
vt 0.999771 0.999286
vt 0.249684 0.499241
vt 0.342427 0.499692
vt 0.574126 0.99506
vt 0.574126 0.99506
vt 0.739218 0.960496
vt 0.680643 0.874303
vt 0.73493 0.863666
vt 0.554842 0.370768
vt 0.624027 0.251927
vt 0.564045 0.250009
vt 0.624008 0.249882
vt 0.627097 0.25227
vt 0.254274 0.518708
vt 0.125 0.49976


#
# MESH 000
#
g surface_000
usemtl surface_000
f 159/159/159 160/160/160 161/161/161
f 148/148/148 149/149/149 150/150/150
f 145/145/145 146/146/146 147/147/147
f 142/142/142 143/143/143 144/144/144
f 139/139/139 140/140/140 141/141/141
f 122/122/122 123/123/123 124/124/124
f 71/71/71 72/72/72 73/73/73
f 62/62/62 63/63/63 64/64/64
f 49/49/49 50/50/50 51/51/51
f 31/31/31 30/30/30 32/32/32
f 4/4/4 5/5/5 6/6/6
f 168/168/168 152/152/152 155/155/155
f 155/155/155 152/152/152 151/151/151
f 151/151/151 152/152/152 153/153/153
f 76/76/76 167/167/167 77/77/77
f 76/76/76 77/77/77 34/34/34
f 76/76/76 34/34/34 33/33/33
f 33/33/33 34/34/34 35/35/35
f 109/109/109 35/35/35 34/34/34
f 109/109/109 110/110/110 35/35/35
f 82/82/82 53/53/53 166/166/166
f 54/54/54 53/53/53 82/82/82
f 52/52/52 53/53/53 54/54/54
f 52/52/52 81/81/81 53/53/53
f 80/80/80 81/81/81 52/52/52
f 165/165/165 163/163/163 164/164/164
f 164/164/164 163/163/163 162/162/162
f 81/81/81 162/162/162 163/163/163
f 106/106/106 111/111/111 158/158/158
f 106/106/106 107/107/107 111/111/111
f 111/111/111 107/107/107 112/112/112
f 113/113/113 112/112/112 107/107/107
f 106/106/106 37/37/37 107/107/107
f 107/107/107 37/37/37 36/36/36
f 36/36/36 37/37/37 38/38/38
f 41/41/41 40/40/40 157/157/157
f 39/39/39 40/40/40 41/41/41
f 156/156/156 127/127/127 95/95/95
f 92/92/92 95/95/95 127/127/127
f 92/92/92 94/94/94 95/95/95
f 92/92/92 93/93/93 94/94/94
f 13/13/13 12/12/12 154/154/154
f 11/11/11 12/12/12 13/13/13
f 12/12/12 11/11/11 130/130/130
f 135/135/135 137/137/137 138/138/138
f 135/135/135 136/136/136 137/137/137
f 131/131/131 133/133/133 134/134/134
f 131/131/131 132/132/132 133/133/133
f 128/128/128 58/58/58 129/129/129
f 128/128/128 59/59/59 58/58/58
f 58/58/58 59/59/59 35/35/35
f 59/59/59 84/84/84 35/35/35
f 59/59/59 75/75/75 84/84/84
f 74/74/74 75/75/75 59/59/59
f 125/125/125 28/28/28 126/126/126
f 125/125/125 29/29/29 28/28/28
f 28/28/28 29/29/29 30/30/30
f 68/68/68 66/66/66 121/121/121
f 68/68/68 67/67/67 66/66/66
f 65/65/65 66/66/66 67/67/67
f 116/116/116 66/66/66 65/65/65
f 66/66/66 116/116/116 117/117/117
f 66/66/66 117/117/117 118/118/118
f 70/70/70 65/65/65 67/67/67
f 69/69/69 65/65/65 70/70/70
f 65/65/65 115/115/115 116/116/116
f 65/65/65 114/114/114 115/115/115
f 108/108/108 2/2/2 1/1/1
f 1/1/1 2/2/2 3/3/3
f 103/103/103 102/102/102 104/104/104
f 103/103/103 105/105/105 102/102/102
f 102/102/102 105/105/105 100/100/100
f 100/100/100 101/101/101 102/102/102
f 96/96/96 98/98/98 99/99/99
f 96/96/96 97/97/97 98/98/98
f 88/88/88 90/90/90 91/91/91
f 88/88/88 89/89/89 90/90/90
f 44/44/44 86/86/86 87/87/87
f 44/44/44 43/43/43 86/86/86
f 42/42/42 43/43/43 44/44/44
f 42/42/42 44/44/44 45/45/45
f 48/48/48 47/47/47 85/85/85
f 46/46/46 47/47/47 48/48/48
f 83/83/83 47/47/47 46/46/46
f 78/78/78 56/56/56 79/79/79
f 79/79/79 56/56/56 55/55/55
f 55/55/55 56/56/56 57/57/57
f 56/56/56 120/120/120 57/57/57
f 56/56/56 119/119/119 120/120/120
f 56/56/56 61/61/61 119/119/119
f 60/60/60 61/61/61 56/56/56
f 26/26/26 25/25/25 56/56/56
f 24/24/24 25/25/25 26/26/26
f 24/24/24 26/26/26 27/27/27
f 20/20/20 22/22/22 23/23/23
f 20/20/20 21/21/21 22/22/22
f 16/16/16 18/18/18 19/19/19
f 16/16/16 17/17/17 18/18/18
f 8/8/8 7/7/7 15/15/15
f 7/7/7 8/8/8 9/9/9
f 7/7/7 9/9/9 10/10/10
f 14/14/14 9/9/9 8/8/8

