#
# OBJECT NAME
#
o model_2007
mtllib 2007.mtl

#
# VERTEX BUFFER 000
#
v -0.0642436 0.351293 -0.0250934
v -0.00953806 0.214029 -0.0117895
v -0.0258644 0.21054 -0.0107219
v -0.0642436 0.351293 -0.0250934
v -0.0258644 0.21054 -0.0107219
v -0.0162441 0.21351 0.00351865
v -0.0112808 0 -0.0081949
v 0.00429901 0 0.0132597
v 0.0139279 0 -0.0101297
v -0.0112808 0 -0.0081949
v -0.0413069 0.286048 -0.0128118
v -0.0356334 0.280708 -0.0155505
v -0.0205244 0.297722 -0.0501803
v -0.0356334 0.280708 -0.0155505
v -0.0434055 0.278318 -0.0161713
v -0.0413069 0.286048 -0.0128118
v -0.0205244 0.297722 -0.0501803
v -0.0844863 0.263987 0.01515
v -0.0330498 0.242976 -0.0118305
v -0.0278632 0.247301 -0.00680276
v -0.0844863 0.263987 0.01515
v -0.0267028 0.248169 -0.0150968
v -0.0330498 0.242976 -0.0118305
v -0.224637 0.559189 -0.159642
v -0.341903 0.532722 -0.0755315
v -0.163605 0.303474 0.0656626
v -0.0463385 0.32994 -0.0184482
v 0.0610724 0.332502 -0.108205
v -0.117226 0.561751 -0.249399
v 0.102301 0.233636 -0.27171
v -0.014893 0.201878 -0.328616
v -0.149693 0.264256 -0.077605
v -0.0324991 0.296014 -0.0206981
v 0.0705351 0.261869 0.0378011
v 0.205336 0.199491 -0.21321
v -0.199331 0.138966 0.222549
v -0.0844082 0.119977 0.282072
v 0.0462213 0.255705 0.051981
v -0.0687012 0.274693 -0.00754261
v -0.171881 0.357908 -0.0358955
v -0.302511 0.222181 0.194196

vn -0.519043 0.840332 0.154663
vn 0.840332 0.12793 -0.525879
vn -0.910156 -0.112732 -0.398193
vn -0.519043 0.840332 0.154663
vn -0.910156 -0.112732 -0.398193
vn 0.129028 0.093811 0.986816
vn -0.914063 -0.0686646 -0.398682
vn 0.127441 0.0574341 0.989746
vn 0.836426 0.0880737 -0.540039
vn -0.914063 -0.0686646 -0.398682
vn -0.537598 0.842285 -0.0358276
vn 0.896973 -0.394775 0.197388
vn -0.376221 0.670898 -0.638672
vn 0.896973 -0.394775 0.197388
vn -0.772461 -0.163208 -0.612793
vn -0.537598 0.842285 -0.0358276
vn -0.376221 0.670898 -0.638672
vn -0.373047 -0.293457 0.879883
vn -0.513184 -0.769043 -0.379639
vn 0.435791 0.467285 0.769043
vn -0.373047 -0.293457 0.879883
vn -0.0438232 0.848145 -0.527344
vn -0.513184 -0.769043 -0.379639
vn 0.385498 0.682129 0.620605
vn 0.328613 0.666992 0.667969
vn 0.328613 0.666992 0.667969
vn 0.393066 0.684082 0.61377
vn 0.450928 0.695313 0.559082
vn 0.450928 0.695313 0.559082
vn 0.109375 0.976563 -0.18396
vn -0.113037 0.948242 -0.296387
vn -0.113037 0.948242 -0.296387
vn 0.105591 0.976563 -0.185913
vn 0.339844 0.938965 -0.0507507
vn 0.339844 0.938965 -0.0507507
vn 0.140991 0.81543 0.561035
vn -0.0953979 0.879883 0.464844
vn -0.0953979 0.879883 0.464844
vn 0.163086 0.806152 0.567871
vn 0.381592 0.68457 0.620605
vn 0.381592 0.68457 0.620605

vt 0.139118 0.478698
vt 0.148438 0.289085
vt 0.175512 0.289085
vt 0.139118 0.478698
vt 0.0943065 0.289085
vt 0.121377 0.289085
vt 0.070979 0.0087406
vt 0.112034 0.0087406
vt 0.153441 0.0087406
vt 0.194571 0.0087406
vt 0.296491 0.274144
vt 0.333298 0.274144
vt 0.270123 0.432097
vt 0.211913 0.274144
vt 0.248486 0.274144
vt 0.296491 0.274144
vt 0.270123 0.432097
vt 0.272435 0.457465
vt 0.200622 0.146579
vt 0.228808 0.146579
vt 0.272435 0.457465
vt 0.273017 0.146579
vt 0.335724 0.146579
vt 0.194458 0.980362
vt 0.00241445 0.980885
vt 4.9995e-005 0.525903
vt 0.193874 0.525955
vt 0.387698 0.526008
vt 0.388532 0.980558
vt 0.565685 0.983109
vt 0.374784 0.982024
vt 0.363183 0.525903
vt 0.557007 0.525955
vt 0.750831 0.526008
vt 0.761526 0.98109
vt 0.196161 0.977091
vt 0.00317725 0.977224
vt 4.9995e-005 0.525903
vt 0.193874 0.525955
vt 0.37131 0.527315
vt 0.37242 0.973092


#
# MESH 000
#
g surface_000
usemtl surface_000
f 5/5/5 7/7/7 8/8/8
f 5/5/5 8/8/8 6/6/6
f 4/4/4 5/5/5 6/6/6
f 6/6/6 8/8/8 9/9/9
f 6/6/6 9/9/9 2/2/2
f 1/1/1 6/6/6 2/2/2
f 1/1/1 2/2/2 3/3/3
f 2/2/2 10/10/10 3/3/3
f 2/2/2 9/9/9 10/10/10
f 15/15/15 16/16/16 17/17/17
f 14/14/14 15/15/15 13/13/13
f 11/11/11 12/12/12 13/13/13
f 18/18/18 19/19/19 20/20/20
f 21/21/21 22/22/22 23/23/23
f 21/21/21 20/20/20 22/22/22
f 28/28/28 29/29/29 24/24/24
f 28/28/28 24/24/24 27/27/27
f 24/24/24 26/26/26 27/27/27
f 24/24/24 25/25/25 26/26/26
f 34/34/34 35/35/35 30/30/30
f 34/34/34 30/30/30 33/33/33
f 30/30/30 32/32/32 33/33/33
f 30/30/30 31/31/31 32/32/32
f 40/40/40 41/41/41 36/36/36
f 40/40/40 36/36/36 39/39/39
f 36/36/36 38/38/38 39/39/39
f 36/36/36 37/37/37 38/38/38

