g p032v001_h
v -0.6608467 1.029484 -0.4280796
v -0.3415661 1.005024 -0.3143749
v -0.6121063 0.8952967 -0.20996
v -0.5756111 1.166019 -0.6229687
v -0.3411503 1.064859 -0.6481514
v -0.1360836 0.951048 -0.5404024
v -0.1443348 0.6905943 -0.08375168
v -0.4370708 0.6192077 -0.006329536
v 0.04204559 0.6746765 -0.3323336
v -0.06241035 0.2935638 -0.0341444
v 0.4956264 0.866865 -0.04720688
v 0.2393398 0.8181883 0.0577383
v 0.3508472 0.7595545 -0.1657696
v 0.5459175 0.9632254 0.1314936
v 0.4228249 0.8553602 0.266757
v 0.2438297 0.7448512 0.303688
v 0.006652832 0.5482686 -0.003540993
v 0.1447773 0.5223985 -0.2192383
v 0.03341103 0.5073054 0.2491999
v -0.05043983 0.2159395 -0.0262785
v -0.4204445 0.6133556 0.5992002
v -0.4079189 0.586347 0.2928171
v -0.2171173 0.5518577 0.4960327
v -0.6421146 0.6676924 0.5807524
v -0.696785 0.5471432 0.389679
v -0.6317234 0.4551584 0.1848059
v -0.181982 0.3566824 0.06279564
v -0.01832008 0.3502892 0.2921381
v -0.4300785 0.2541934 -0.02303886
v -0.04742813 0.02052884 -0.01324844
v 0.5706081 0.4357218 0.2877359
v 0.3157864 0.4410283 0.3096113
v 0.4593582 0.4165936 0.1271982
v 0.5834351 0.4572953 0.4763594
v 0.4206409 0.3687352 0.5308514
v 0.2371788 0.3179894 0.4918652
v 0.08176041 0.2974155 0.1284246
v 0.252264 0.2907758 -0.03200245
v 0.02661705 0.1933169 0.3308449
v -0.02739143 0.04336621 -0.006041527
v -0.1272469 0.4283897 -0.6497183
v 0.02322769 0.4392395 -0.4467134
v -0.2001076 0.388125 -0.4744453
v 0.01999092 0.4760049 -0.7567215
v 0.1612797 0.3986822 -0.6540842
v 0.230999 0.3453701 -0.4831934
v 0.01288033 0.2754847 -0.1658764
v -0.2084808 0.2446162 -0.226429
v 0.2227783 0.2027601 -0.2312498
v -0.01000977 0.00900422 -0.02138424
v -0.004156113 0.116573 -0.02081871
v 0.02677536 -0.02192061 -0.01973152
v -0.02671814 -0.02210718 0.03751278
v -0.04405785 0.1155964 0.02196693
v -0.08346176 -0.03125066 -0.0155077
v -0.0393219 0.2938937 -0.03768158
v -0.08633423 0.1072141 -0.01763344
v -0.06884766 0.2930754 -0.006529808
v -0.07448387 0.4404211 -0.06337643
v -0.09946632 0.2860896 -0.03557205
v -0.09411812 0.4402688 -0.04242325
v -0.1007595 0.4568205 -0.07029915
v -0.1130733 0.4278695 -0.06022358
v -0.08633423 0.1072141 -0.01763344
v -0.08346176 -0.03125066 -0.0155077
v -0.02996635 -0.03106381 -0.072752
v -0.0464344 0.1081909 -0.06041813
v 0.02677536 -0.02192061 -0.01973152
v -0.09946632 0.2860896 -0.03557205
v -0.004156113 0.116573 -0.02081871
v -0.06994247 0.2869076 -0.06672382
v -0.1130733 0.4278695 -0.06022358
v -0.0393219 0.2938937 -0.03768158
v -0.09344101 0.4280218 -0.08117676
v -0.1007595 0.4568205 -0.07029915
v -0.07448387 0.4404211 -0.06337643
v -0.02703285 -0.1308173 0.1911688
v -0.03238869 -0.04384771 0.104167
v 0.05322838 -0.03888955 0.06993675
v -0.03494072 0.01148808 -0.01874828
v 0.1178417 -0.1224274 0.1332474
v -0.01828575 -0.2562989 0.2360153
v 0.08978844 -0.03954853 -0.01485348
v 0.1548729 -0.2462711 0.1667852
v -0.01053619 -0.356673 0.2122545
v 0.05587196 -0.04543869 -0.1005354
v -0.02865028 -0.05310969 -0.136919
v 0.1797066 -0.1235424 -0.01023197
v 0.1223145 -0.1335097 -0.155221
v -0.02070808 -0.14649 -0.2167864
v 0.1429577 -0.347784 0.1508884
v -0.004232407 -0.4264514 0.1235371
v 0.2288132 -0.247604 -0.004704475
v 0.1602192 -0.2595169 -0.1779985
v -0.01072502 -0.2750314 -0.2515831
v 0.08438683 -0.4213193 0.08810711
v 0 -0.4624181 0
v 0.2085018 -0.3489655 -0.001125336
v 0.1476974 -0.3595255 -0.1547375
v -0.003833771 -0.3732779 -0.219964
v 0.1222267 -0.4220015 0.0003423691
v 0.08712196 -0.4280982 -0.08834553
v -0.0003643036 -0.4360382 -0.1260042
v -0.02070808 -0.14649 -0.2167864
v -0.02865028 -0.05310969 -0.136919
v -0.1142673 -0.05806784 -0.1026888
v -0.03494072 0.01148808 -0.01874828
v -0.1655827 -0.1548798 -0.158864
v -0.01072502 -0.2750314 -0.2515831
v -0.1508255 -0.05740885 -0.01789856
v -0.1838856 -0.2850592 -0.182353
v -0.003833771 -0.3732779 -0.219964
v -0.1169109 -0.05151868 0.06778336
v -0.03238869 -0.04384771 0.104167
v -0.2274456 -0.1537646 -0.01538467
v -0.1700554 -0.1437975 0.1296043
v -0.02703285 -0.1308173 0.1911688
v -0.1573277 -0.3821669 -0.1585979
v -0.0003643036 -0.4360382 -0.1260042
v -0.2578259 -0.2837264 -0.0108633
v -0.1892319 -0.2718134 0.1624308
v -0.01828575 -0.2562989 0.2360153
v -0.08898354 -0.4411702 -0.09057426
v 0 -0.4624181 0
v -0.2228699 -0.3809854 -0.006584167
v -0.1620655 -0.3704255 0.147028
v -0.01053619 -0.356673 0.2122545
v -0.1268234 -0.4404881 -0.002809525
v -0.09171867 -0.4343913 0.08587933
v -0.004232407 -0.4264514 0.1235371
vt 0.5244141 0.956543
vt 0.578125 0.8911133
vt 0.5029297 0.890625
vt 0.578125 0.9956055
vt 0.6328125 0.9550781
vt 0.6533203 0.8901367
vt 0.578125 0.7895508
vt 0.5029297 0.7929688
vt 0.6533203 0.7919922
vt 0.578125 0.6914063
vt 0.5244141 0.956543
vt 0.578125 0.8911133
vt 0.5029297 0.890625
vt 0.578125 0.9956055
vt 0.6328125 0.9550781
vt 0.6533203 0.8901367
vt 0.578125 0.7895508
vt 0.5029297 0.7929688
vt 0.6533203 0.7919922
vt 0.578125 0.6914063
vt 0.5244141 0.956543
vt 0.578125 0.8911133
vt 0.5029297 0.890625
vt 0.578125 0.9956055
vt 0.6328125 0.9550781
vt 0.6533203 0.8901367
vt 0.578125 0.7895508
vt 0.5029297 0.7929688
vt 0.6533203 0.7919922
vt 0.578125 0.6914063
vt 0.5244141 0.956543
vt 0.578125 0.8911133
vt 0.5029297 0.890625
vt 0.578125 0.9956055
vt 0.6328125 0.9550781
vt 0.6533203 0.8901367
vt 0.578125 0.7895508
vt 0.5029297 0.7929688
vt 0.6533203 0.7919922
vt 0.578125 0.6914063
vt 0.5244141 0.956543
vt 0.578125 0.8911133
vt 0.5029297 0.890625
vt 0.578125 0.9956055
vt 0.6328125 0.9550781
vt 0.6533203 0.8901367
vt 0.578125 0.7895508
vt 0.5029297 0.7929688
vt 0.6533203 0.7919922
vt 0.578125 0.6914063
vt 0.8061523 0.2670898
vt 0.8061523 0.2297363
vt 0.7905273 0.2297363
vt 0.7905273 0.2670898
vt 0.7753906 0.2297363
vt 0.8061523 0.3100586
vt 0.7753906 0.2670898
vt 0.7905273 0.3100586
vt 0.8061523 0.3618164
vt 0.7753906 0.3100586
vt 0.7905273 0.3601074
vt 0.7905273 0.3696289
vt 0.7753906 0.3618164
vt 0.8061523 0.2670898
vt 0.8061523 0.2297363
vt 0.7905273 0.2297363
vt 0.7905273 0.2670898
vt 0.7753906 0.2297363
vt 0.8061523 0.3100586
vt 0.7753906 0.2670898
vt 0.7905273 0.3100586
vt 0.8061523 0.3618164
vt 0.7753906 0.3100586
vt 0.7905273 0.3601074
vt 0.7905273 0.3696289
vt 0.7753906 0.3618164
vt 0.5112305 0.5673828
vt 0.5263672 0.5917969
vt 0.5439453 0.5917969
vt 0.5615234 0.6157227
vt 0.5385742 0.5673828
vt 0.5043945 0.5429688
vt 0.5615234 0.5917969
vt 0.5371094 0.5429688
vt 0.5073242 0.5185547
vt 0.5791016 0.5917969
vt 0.597168 0.5917969
vt 0.5615234 0.5673828
vt 0.5844727 0.5673828
vt 0.6118164 0.5673828
vt 0.5380859 0.5185547
vt 0.5229492 0.4943848
vt 0.5615234 0.5429688
vt 0.5864258 0.5429688
vt 0.6191406 0.5429688
vt 0.5429688 0.4943848
vt 0.5615234 0.4702148
vt 0.5615234 0.5185547
vt 0.5854492 0.5185547
vt 0.6162109 0.5185547
vt 0.5615234 0.4943848
vt 0.5805664 0.4943848
vt 0.6005859 0.4943848
vt 0.5112305 0.5673828
vt 0.5263672 0.5917969
vt 0.5439453 0.5917969
vt 0.5615234 0.6157227
vt 0.5385742 0.5673828
vt 0.5043945 0.5429688
vt 0.5615234 0.5917969
vt 0.5371094 0.5429688
vt 0.5073242 0.5185547
vt 0.5791016 0.5917969
vt 0.597168 0.5917969
vt 0.5615234 0.5673828
vt 0.5844727 0.5673828
vt 0.6118164 0.5673828
vt 0.5380859 0.5185547
vt 0.5229492 0.4943848
vt 0.5615234 0.5429688
vt 0.5864258 0.5429688
vt 0.6191406 0.5429688
vt 0.5429688 0.4943848
vt 0.5615234 0.4702148
vt 0.5615234 0.5185547
vt 0.5854492 0.5185547
vt 0.6162109 0.5185547
vt 0.5615234 0.4943848
vt 0.5805664 0.4943848
vt 0.6005859 0.4943848
vn -0.1265869 0.8354492 0.5351563
vn 0.310791 0.7543945 0.578125
vn 0.02102661 0.6635742 0.7475586
vn 0.1495361 0.918457 0.3659668
vn 0.4082031 0.8984375 0.1616211
vn 0.5771484 0.7329102 0.3596191
vn 0.4299316 0.5463867 0.71875
vn 0.09332275 0.5273438 0.8447266
vn 0.6625977 0.5986328 0.4499512
vn 0.5336914 0.2124023 0.8188477
vn -0.3210449 0.8666992 -0.3818359
vn -0.6660156 0.734375 -0.1306152
vn -0.5625 0.6875 -0.4594727
vn -0.4143066 0.9077148 -0.06335449
vn -0.4648438 0.847168 0.2573242
vn -0.7124023 0.6708984 0.2055664
vn -0.8354492 0.5195313 -0.1783447
vn -0.6723633 0.5473633 -0.4978027
vn -0.8276367 0.5307617 0.1807861
vn -0.9584961 0.1798096 -0.2211914
vn 0.2473145 0.9658203 -0.07507324
vn 0.1802979 0.8466797 -0.5004883
vn 0.4492188 0.8486328 -0.2797852
vn -0.01461792 0.9589844 -0.2827148
vn -0.2692871 0.8457031 -0.4604492
vn -0.08880615 0.7270508 -0.6806641
vn 0.3378906 0.6772461 -0.6538086
vn 0.5585938 0.7392578 -0.3762207
vn 0.0100174 0.6162109 -0.7875977
vn 0.5048828 0.3776855 -0.7763672
vn 0.01051331 0.9926758 -0.1184082
vn -0.4145508 0.9101563 -0.008613586
vn -0.2298584 0.9248047 -0.3029785
vn -0.1629639 0.9726563 0.166748
vn -0.3200684 0.8452148 0.4279785
vn -0.5732422 0.7749023 0.2666016
vn -0.6049805 0.7792969 -0.1628418
vn -0.3513184 0.8417969 -0.4101563
vn -0.7041016 0.6894531 0.1707764
vn -0.7817383 0.519043 -0.3457031
vn -0.2307129 0.9658203 0.1194458
vn 0.09637451 0.9038086 0.4174805
vn -0.2502441 0.8745117 0.4155273
vn 0.1029053 0.987793 0.1160889
vn 0.4213867 0.9008789 0.1043091
vn 0.4284668 0.8105469 0.3991699
vn 0.1405029 0.8193359 0.5556641
vn -0.2156982 0.8295898 0.5151367
vn 0.4724121 0.7675781 0.4333496
vn 0.1402588 0.5415039 0.8291016
vn 0.9785156 0.2059326 -0.0242157
vn 0.9731445 0.2174072 -0.07653809
vn 0.04833984 0.117981 0.9916992
vn 0.02807617 0.1379395 0.9902344
vn -1 -0.02101135 0.002227783
vn 0.9780273 0.2064209 -0.02375793
vn -0.9975586 -0.04342651 0.05172729
vn 0.02244568 0.1898193 0.9814453
vn 0.9609375 0.2763672 0.01675415
vn -0.9960938 -0.07513428 0.04605103
vn 0.07104492 0.2900391 0.9545898
vn -0.3041992 0.9018555 -0.3061523
vn -0.9951172 -0.0574646 0.08227539
vn -0.9975586 -0.04342651 0.05172729
vn -1 -0.02101135 0.002227783
vn -0.0241394 0.08502197 -0.9960938
vn -0.03497314 0.02648926 -0.9990234
vn 0.9731445 0.2174072 -0.07653809
vn -0.9960938 -0.07513428 0.04605103
vn 0.9785156 0.2059326 -0.0242157
vn -0.02035522 -0.06219482 -0.9980469
vn -0.9951172 -0.0574646 0.08227539
vn 0.9780273 0.2064209 -0.02375793
vn 0.0352478 -0.07348633 -0.996582
vn -0.3041992 0.9018555 -0.3061523
vn 0.9609375 0.2763672 0.01675415
vn -0.04608154 0.4707031 0.8808594
vn -0.06433105 0.7558594 0.6513672
vn 0.4187012 0.7841797 0.458252
vn -0.07348633 0.996582 -0.03942871
vn 0.5917969 0.5078125 0.6259766
vn -0.01902771 0.08648682 0.9960938
vn 0.625 0.7802734 -0.02027893
vn 0.6899414 0.1275635 0.7128906
vn 0.02319336 -0.4633789 0.8857422
vn 0.4338379 0.7470703 -0.5039063
vn -0.04327393 0.7036133 -0.7089844
vn 0.8642578 0.5029297 -0.005912781
vn 0.6118164 0.4587402 -0.6445313
vn -0.01823425 0.4016113 -0.9155273
vn 0.6381836 -0.4277344 0.6396484
vn 0.05453491 -0.8295898 0.5556641
vn 0.9926758 0.1221313 0.01069641
vn 0.7119141 0.07336426 -0.6987305
vn 0.01192474 0.00983429 -1
vn 0.4255371 -0.8081055 0.4074707
vn 0.07348633 -0.996582 0.03942871
vn 0.9008789 -0.4326172 0.03059387
vn 0.6572266 -0.4748535 -0.5849609
vn 0.05004883 -0.5297852 -0.8466797
vn 0.5839844 -0.8110352 0.04019165
vn 0.4367676 -0.8364258 -0.3310547
vn 0.07073975 -0.8696289 -0.4885254
vn -0.01823425 0.4016113 -0.9155273
vn -0.04327393 0.7036133 -0.7089844
vn -0.5263672 0.6757813 -0.5161133
vn -0.07348633 0.996582 -0.03942871
vn -0.65625 0.3647461 -0.6606445
vn 0.01192474 0.00983429 -1
vn -0.7329102 0.6796875 -0.03747559
vn -0.6967773 -0.03121948 -0.7163086
vn 0.05004883 -0.5297852 -0.8466797
vn -0.5415039 0.7128906 0.4460449
vn -0.06433105 0.7558594 0.6513672
vn -0.9287109 0.3696289 -0.02859497
vn -0.6757813 0.4135742 0.6098633
vn -0.04608154 0.4707031 0.8808594
vn -0.5649414 -0.5654297 -0.6005859
vn 0.07073975 -0.8696289 -0.4885254
vn -0.9995117 -0.02575684 -0.01451111
vn -0.71875 0.02301025 0.6948242
vn -0.01902771 0.08648682 0.9960938
vn -0.3000488 -0.8911133 -0.340332
vn 0.07348633 -0.996582 0.03942871
vn -0.8276367 -0.5610352 0.008712769
vn -0.5839844 -0.5185547 0.6245117
vn 0.02319336 -0.4633789 0.8857422
vn -0.4584961 -0.8881836 0.02702332
vn -0.3115234 -0.862793 0.3981934
vn 0.05453491 -0.8295898 0.5556641
g p032v001_h_0
f 3/3/3 2/2/2 1/1/1
f 1/1/1 2/2/2 4/4/4
f 2/2/2 5/5/5 4/4/4
f 5/5/5 2/2/2 6/6/6
f 2/2/2 3/3/3 7/7/7
f 2/2/2 7/7/7 6/6/6
f 3/3/3 8/8/8 7/7/7
f 7/7/7 9/9/9 6/6/6
f 7/7/7 8/8/8 10/10/10
f 7/7/7 10/10/10 9/9/9
f 13/13/13 12/12/12 11/11/11
f 11/11/11 12/12/12 14/14/14
f 12/12/12 15/15/15 14/14/14
f 15/15/15 12/12/12 16/16/16
f 12/12/12 13/13/13 17/17/17
f 12/12/12 17/17/17 16/16/16
f 13/13/13 18/18/18 17/17/17
f 17/17/17 19/19/19 16/16/16
f 17/17/17 18/18/18 20/20/20
f 17/17/17 20/20/20 19/19/19
f 23/23/23 22/22/22 21/21/21
f 21/21/21 22/22/22 24/24/24
f 22/22/22 25/25/25 24/24/24
f 25/25/25 22/22/22 26/26/26
f 22/22/22 23/23/23 27/27/27
f 22/22/22 27/27/27 26/26/26
f 23/23/23 28/28/28 27/27/27
f 27/27/27 29/29/29 26/26/26
f 27/27/27 28/28/28 30/30/30
f 27/27/27 30/30/30 29/29/29
f 33/33/33 32/32/32 31/31/31
f 31/31/31 32/32/32 34/34/34
f 32/32/32 35/35/35 34/34/34
f 35/35/35 32/32/32 36/36/36
f 32/32/32 33/33/33 37/37/37
f 32/32/32 37/37/37 36/36/36
f 33/33/33 38/38/38 37/37/37
f 37/37/37 39/39/39 36/36/36
f 37/37/37 38/38/38 40/40/40
f 37/37/37 40/40/40 39/39/39
f 43/43/43 42/42/42 41/41/41
f 41/41/41 42/42/42 44/44/44
f 42/42/42 45/45/45 44/44/44
f 45/45/45 42/42/42 46/46/46
f 42/42/42 43/43/43 47/47/47
f 42/42/42 47/47/47 46/46/46
f 43/43/43 48/48/48 47/47/47
f 47/47/47 49/49/49 46/46/46
f 47/47/47 48/48/48 50/50/50
f 47/47/47 50/50/50 49/49/49
g p032v001_h_1
f 53/53/53 52/52/52 51/51/51
f 54/54/54 53/53/53 51/51/51
f 55/55/55 53/53/53 54/54/54
f 54/54/54 51/51/51 56/56/56
f 57/57/57 55/55/55 54/54/54
f 58/58/58 54/54/54 56/56/56
f 57/57/57 54/54/54 58/58/58
f 58/58/58 56/56/56 59/59/59
f 60/60/60 57/57/57 58/58/58
f 61/61/61 58/58/58 59/59/59
f 60/60/60 58/58/58 61/61/61
f 61/61/61 59/59/59 62/62/62
f 63/63/63 60/60/60 61/61/61
f 63/63/63 61/61/61 62/62/62
f 66/66/66 65/65/65 64/64/64
f 67/67/67 66/66/66 64/64/64
f 68/68/68 66/66/66 67/67/67
f 67/67/67 64/64/64 69/69/69
f 70/70/70 68/68/68 67/67/67
f 71/71/71 67/67/67 69/69/69
f 70/70/70 67/67/67 71/71/71
f 71/71/71 69/69/69 72/72/72
f 73/73/73 70/70/70 71/71/71
f 74/74/74 71/71/71 72/72/72
f 73/73/73 71/71/71 74/74/74
f 74/74/74 72/72/72 75/75/75
f 76/76/76 73/73/73 74/74/74
f 76/76/76 74/74/74 75/75/75
f 79/79/79 78/78/78 77/77/77
f 79/79/79 80/80/80 78/78/78
f 81/81/81 79/79/79 77/77/77
f 81/81/81 77/77/77 82/82/82
f 83/83/83 80/80/80 79/79/79
f 83/83/83 79/79/79 81/81/81
f 84/84/84 81/81/81 82/82/82
f 84/84/84 82/82/82 85/85/85
f 86/86/86 80/80/80 83/83/83
f 87/87/87 80/80/80 86/86/86
f 88/88/88 83/83/83 81/81/81
f 86/86/86 83/83/83 88/88/88
f 88/88/88 81/81/81 84/84/84
f 87/87/87 86/86/86 89/89/89
f 89/89/89 86/86/86 88/88/88
f 90/90/90 87/87/87 89/89/89
f 91/91/91 84/84/84 85/85/85
f 91/91/91 85/85/85 92/92/92
f 93/93/93 88/88/88 84/84/84
f 89/89/89 88/88/88 93/93/93
f 93/93/93 84/84/84 91/91/91
f 90/90/90 89/89/89 94/94/94
f 94/94/94 89/89/89 93/93/93
f 95/95/95 90/90/90 94/94/94
f 96/96/96 91/91/91 92/92/92
f 92/92/92 97/97/97 96/96/96
f 98/98/98 93/93/93 91/91/91
f 94/94/94 93/93/93 98/98/98
f 98/98/98 91/91/91 96/96/96
f 95/95/95 94/94/94 99/99/99
f 99/99/99 94/94/94 98/98/98
f 100/100/100 95/95/95 99/99/99
f 101/101/101 98/98/98 96/96/96
f 96/96/96 97/97/97 101/101/101
f 99/99/99 98/98/98 101/101/101
f 100/100/100 99/99/99 102/102/102
f 102/102/102 99/99/99 101/101/101
f 101/101/101 97/97/97 102/102/102
f 103/103/103 100/100/100 102/102/102
f 102/102/102 97/97/97 103/103/103
f 106/106/106 105/105/105 104/104/104
f 106/106/106 107/107/107 105/105/105
f 108/108/108 106/106/106 104/104/104
f 108/108/108 104/104/104 109/109/109
f 110/110/110 107/107/107 106/106/106
f 110/110/110 106/106/106 108/108/108
f 111/111/111 108/108/108 109/109/109
f 111/111/111 109/109/109 112/112/112
f 113/113/113 107/107/107 110/110/110
f 114/114/114 107/107/107 113/113/113
f 115/115/115 110/110/110 108/108/108
f 113/113/113 110/110/110 115/115/115
f 115/115/115 108/108/108 111/111/111
f 114/114/114 113/113/113 116/116/116
f 116/116/116 113/113/113 115/115/115
f 117/117/117 114/114/114 116/116/116
f 118/118/118 111/111/111 112/112/112
f 118/118/118 112/112/112 119/119/119
f 120/120/120 115/115/115 111/111/111
f 116/116/116 115/115/115 120/120/120
f 120/120/120 111/111/111 118/118/118
f 117/117/117 116/116/116 121/121/121
f 121/121/121 116/116/116 120/120/120
f 122/122/122 117/117/117 121/121/121
f 123/123/123 118/118/118 119/119/119
f 119/119/119 124/124/124 123/123/123
f 125/125/125 120/120/120 118/118/118
f 121/121/121 120/120/120 125/125/125
f 125/125/125 118/118/118 123/123/123
f 122/122/122 121/121/121 126/126/126
f 126/126/126 121/121/121 125/125/125
f 127/127/127 122/122/122 126/126/126
f 128/128/128 125/125/125 123/123/123
f 123/123/123 124/124/124 128/128/128
f 126/126/126 125/125/125 128/128/128
f 127/127/127 126/126/126 129/129/129
f 129/129/129 126/126/126 128/128/128
f 128/128/128 124/124/124 129/129/129
f 130/130/130 127/127/127 129/129/129
f 129/129/129 124/124/124 130/130/130
