g p033v001_h
v 0.2304573 0 0.2286453
v 0.2757424 0.4127483 -0.002496775
v 0.3246422 0 -0.001241684
v 0.1971999 0.4127483 0.1936187
v 0.001274109 0 0.3245945
v 0.2000777 1.335113 0.001228746
v 0.001771441 0.4127483 0.2731106
v -0.2286587 0 0.2304001
v 0.1453584 1.335113 0.1409374
v -0.1941748 0.4127483 0.19494
v -0.3246422 0 0.001239777
v -0.2741327 0.4127483 -0.0005546508
v 0.1154575 2.158391 0.1090641
v 0.1593704 2.158391 0.002632141
v 0.006950378 2.475351 0.003471375
v 0.00573724 1.335113 0.1962875
v -0.1342168 1.335113 0.1416413
v -0.1898028 1.335113 0.002223817
v -0.09594727 2.158391 0.1096935
v -0.1408119 2.158391 0.003526688
v 0.0100956 2.158391 0.1540508
v -0.2304554 0 -0.2286472
v -0.2741327 0.4127483 -0.0005546508
v -0.3246422 0 0.001239777
v -0.196032 0.4127483 -0.1965912
v -0.001270294 0 -0.3245964
v -0.1351463 1.335113 -0.137472
v -0.1898028 1.335113 0.002223817
v -0.0002386664 0.4127483 -0.2764997
v 0.2286606 0 -0.2304001
v 0.1961441 0.4127483 -0.1980903
v 0.3246422 0 -0.001241684
v 0.2757424 0.4127483 -0.002496775
v 0.004526704 1.335113 -0.1928813
v 0.1445446 1.335113 -0.1382028
v 0.2000777 1.335113 0.001228746
v 0.1143093 2.158391 -0.1035843
v 0.1593704 2.158391 0.002632141
v 0.006950378 2.475351 0.003471375
v 0.008464813 2.158391 -0.1478939
v -0.09709549 2.158391 -0.102953
v -0.1408119 2.158391 0.003526688
v 0.2304573 0 0.2286453
v -0.2286587 0 0.2304001
v 0.001274109 0 0.3245945
v -0.3246422 0 0.001239777
v 0.3246422 0 -0.001241684
v -0.2304554 0 -0.2286472
v 0.2286606 0 -0.2304001
v -0.001270294 0 -0.3245964
v 1.079153 2.250853 1.430902
v 0.9041519 2.285106 1.850552
v 0.5142059 2.359816 1.206692
v 0.4736519 2.134583 1.772335
v 1.007874 2.259632 0.963932
v 0.1123428 2.086614 1.483883
v 0.1715393 2.121623 0.5381756
v 0.7038002 2.051773 0.3750648
v -0.1967278 1.882905 0.8877201
v 0.007949829 1.571632 0.07635498
v -1.399984 3.49703 1.2131
v -1.835878 3.756599 0.9410992
v -1.01659 3.481987 0.5344791
v -1.774841 3.528558 0.4067593
v -0.8565712 3.252983 1.182791
v -1.428543 3.306481 -0.01169968
v -0.3440285 2.838572 0.1829643
v -0.2628078 2.688383 0.8703995
v -0.8236427 2.74252 -0.3293457
v -0.09646797 1.95665 0.02287865
v -0.7591934 4.102628 -1.231882
v -0.3611813 4.435452 -1.514759
v -0.2016964 3.949107 -0.6786289
v 0.1437912 4.151039 -1.36071
v -0.8902187 3.737459 -0.7581635
v 0.4523563 3.819606 -0.963438
v -0.06015205 3.130534 -0.08442307
v -0.7631721 3.018056 -0.2322063
v 0.5813751 3.097984 -0.4251747
v 0.01164627 2.181793 -0.007041931
v 1.580826 3.582865 0.8049603
v 1.489368 3.842512 1.280912
v 0.8500042 3.623695 0.668251
v 0.9723778 3.664838 1.392632
v 1.367878 3.361535 0.325119
v 0.472187 3.489163 1.210688
v 0.2784805 3.047299 0.1740608
v 0.8617115 2.856086 -0.1105595
v -0.04210663 2.984884 0.7665615
v -0.00692749 2.22303 0.006698608
v -2.21891 2.760524 -0.312645
v -2.399101 2.868606 -0.8461094
v -1.497807 2.92684 -0.5477409
v -1.926121 2.714386 -1.147846
v -1.765968 2.725133 0.07016373
v -1.345291 2.657291 -1.179358
v -0.6211338 2.586971 -0.2347507
v -0.9916248 2.428418 0.3443298
v -0.5601864 2.365416 -0.9017849
v -0.08503723 1.863787 -0.01693726
v -1.567158 1.910357 -1.000853
v -1.520868 2.005871 -1.457253
v -0.9564285 2.065666 -0.9260998
v -1.062607 1.895698 -1.520277
v -1.361551 1.88284 -0.5618668
v -0.6196117 1.861521 -1.344908
v -0.4044914 1.79951 -0.3965397
v -0.8733482 1.650643 -0.09578323
v -0.1247253 1.633426 -0.8725548
v -0.06209373 1.215301 -0.05827332
v 0.4739799 2.320293 -1.997972
v 0.9953861 2.411666 -2.127973
v 0.6380215 2.50644 -1.302731
v 1.239849 2.282628 -1.648848
v 0.07318497 2.308179 -1.60021
v 1.220448 2.252234 -1.094362
v 0.2645836 2.222198 -0.4858379
v -0.2544594 2.060405 -0.8786182
v 0.8887291 2.009528 -0.3630714
v 0.005649567 1.55911 0.0324192
v 2.07172 2.774673 -0.6690197
v 2.445013 2.900483 -0.2755299
v 1.53047 3.003263 -0.1963959
v 2.137018 2.805567 0.18857
v 1.51828 2.748775 -0.8299007
v 1.631432 2.79487 0.4462967
v 0.6157894 2.718657 -0.1044521
v 0.7114067 2.500902 -0.7469692
v 0.8138657 2.55224 0.5299435
v 0.02504539 2.044982 -0.02595329
v -0.1197357 2.691222 2.228249
v -0.6343098 2.821874 2.445164
v -0.3944473 2.877923 1.526169
v -0.9741383 2.688195 1.991989
v 0.2298584 2.64386 1.750046
v -1.047173 2.640285 1.413918
v -0.1573601 2.535226 0.6267796
v 0.4371548 2.344751 0.9558258
v -0.8369694 2.345994 0.608778
v -0.0106411 1.809548 0.06986046
v 1.866684 1.713685 0.3978653
v 2.001768 1.754276 0.8314648
v 1.320385 1.947492 0.5657959
v 1.597239 1.697959 1.048923
v 1.523932 1.767317 0.07714272
v 1.134531 1.742037 1.051815
v 0.5980663 1.826984 0.2745857
v 0.8863621 1.663522 -0.1781292
v 0.4894505 1.643776 0.7936478
v 0.07883072 1.352307 0.0564003
vt 0.7817383 0.5668945
vt 0.815918 0.6171875
vt 0.815918 0.5668945
vt 0.7817383 0.6171875
vt 0.7490234 0.5668945
vt 0.815918 0.7617188
vt 0.7490234 0.6171875
vt 0.7163086 0.5668945
vt 0.7817383 0.7617188
vt 0.7163086 0.6171875
vt 0.6826172 0.5668945
vt 0.6826172 0.6171875
vt 0.7817383 0.9370117
vt 0.815918 0.9370117
vt 0.7490234 0.9921875
vt 0.7490234 0.7617188
vt 0.7163086 0.7617188
vt 0.6826172 0.7617188
vt 0.7163086 0.9370117
vt 0.6826172 0.9370117
vt 0.7490234 0.9370117
vt 0.7817383 0.5668945
vt 0.815918 0.6171875
vt 0.815918 0.5668945
vt 0.7817383 0.6171875
vt 0.7490234 0.5668945
vt 0.7817383 0.7617188
vt 0.815918 0.7617188
vt 0.7490234 0.6171875
vt 0.7163086 0.5668945
vt 0.7163086 0.6171875
vt 0.6826172 0.5668945
vt 0.6826172 0.6171875
vt 0.7490234 0.7617188
vt 0.7163086 0.7617188
vt 0.6826172 0.7617188
vt 0.7163086 0.9370117
vt 0.6826172 0.9370117
vt 0.7490234 0.9921875
vt 0.7490234 0.9370117
vt 0.7817383 0.9370117
vt 0.815918 0.9370117
vt 0.7631836 0.09899902
vt 0.8129883 0.1091309
vt 0.7900391 0.09362793
vt 0.8183594 0.1363525
vt 0.7475586 0.1220703
vt 0.8032227 0.1594238
vt 0.7529297 0.149292
vt 0.7758789 0.1647949
vt 0.5444336 0.4013672
vt 0.625 0.4589844
vt 0.625 0.3051758
vt 0.7055664 0.4013672
vt 0.5068359 0.3093262
vt 0.7431641 0.3093262
vt 0.625 0.1561279
vt 0.5068359 0.1693115
vt 0.7431641 0.1693115
vt 0.625 0
vt 0.5444336 0.4013672
vt 0.625 0.4589844
vt 0.625 0.3051758
vt 0.7055664 0.4013672
vt 0.5068359 0.3093262
vt 0.7431641 0.3093262
vt 0.625 0.1561279
vt 0.5068359 0.1693115
vt 0.7431641 0.1693115
vt 0.625 0
vt 0.5444336 0.4013672
vt 0.625 0.4589844
vt 0.625 0.3051758
vt 0.7055664 0.4013672
vt 0.5068359 0.3093262
vt 0.7431641 0.3093262
vt 0.625 0.1561279
vt 0.5068359 0.1693115
vt 0.7431641 0.1693115
vt 0.625 0
vt 0.5444336 0.4013672
vt 0.625 0.4589844
vt 0.625 0.3051758
vt 0.7055664 0.4013672
vt 0.5068359 0.3093262
vt 0.7431641 0.3093262
vt 0.625 0.1561279
vt 0.5068359 0.1693115
vt 0.7431641 0.1693115
vt 0.625 0
vt 0.5444336 0.4013672
vt 0.625 0.4589844
vt 0.625 0.3051758
vt 0.7055664 0.4013672
vt 0.5068359 0.3093262
vt 0.7431641 0.3093262
vt 0.625 0.1561279
vt 0.5068359 0.1693115
vt 0.7431641 0.1693115
vt 0.625 0
vt 0.5444336 0.4013672
vt 0.625 0.4589844
vt 0.625 0.3051758
vt 0.7055664 0.4013672
vt 0.5068359 0.3093262
vt 0.7431641 0.3093262
vt 0.625 0.1561279
vt 0.5068359 0.1693115
vt 0.7431641 0.1693115
vt 0.625 0
vt 0.5444336 0.4013672
vt 0.625 0.4589844
vt 0.625 0.3051758
vt 0.7055664 0.4013672
vt 0.5068359 0.3093262
vt 0.7431641 0.3093262
vt 0.625 0.1561279
vt 0.5068359 0.1693115
vt 0.7431641 0.1693115
vt 0.625 0
vt 0.5444336 0.4013672
vt 0.625 0.4589844
vt 0.625 0.3051758
vt 0.7055664 0.4013672
vt 0.5068359 0.3093262
vt 0.7431641 0.3093262
vt 0.625 0.1561279
vt 0.5068359 0.1693115
vt 0.7431641 0.1693115
vt 0.625 0
vt 0.5444336 0.4013672
vt 0.625 0.4589844
vt 0.625 0.3051758
vt 0.7055664 0.4013672
vt 0.5068359 0.3093262
vt 0.7431641 0.3093262
vt 0.625 0.1561279
vt 0.5068359 0.1693115
vt 0.7431641 0.1693115
vt 0.625 0
vt 0.5444336 0.4013672
vt 0.625 0.4589844
vt 0.625 0.3051758
vt 0.7055664 0.4013672
vt 0.5068359 0.3093262
vt 0.7431641 0.3093262
vt 0.625 0.1561279
vt 0.5068359 0.1693115
vt 0.7431641 0.1693115
vt 0.625 0
vn 0.7104492 0.07702637 0.6992188
vn 0.9956055 0.09375 -0.00384903
vn 0.996582 0.08233643 -0.006671906
vn 0.7060547 0.09503174 0.7016602
vn 0.005878448 0.06414795 0.9980469
vn 0.9975586 0.06939697 -0.002855301
vn 0.00268364 0.09667969 0.9951172
vn -0.7036133 0.06561279 0.7075195
vn 0.7075195 0.06921387 0.703125
vn -0.7016602 0.1002197 0.7055664
vn -0.9975586 0.06634521 0.001245499
vn -0.9951172 0.1009521 0.003343582
vn 0.706543 0.1115723 0.6992188
vn 0.9912109 0.1337891 0.003835678
vn -0.08026123 0.996582 0.0287323
vn 0.00302124 0.07098389 0.9975586
vn -0.7026367 0.07611084 0.7075195
vn -0.9970703 0.07891846 0.004470825
vn -0.699707 0.1160278 0.7050781
vn -0.9970703 0.07244873 0.01094818
vn 0.03417969 0.07537842 0.996582
vn -0.7041016 0.08056641 -0.7055664
vn -0.9951172 0.1009521 0.003343582
vn -0.9975586 0.06634521 0.001245499
vn -0.7055664 0.1012573 -0.7011719
vn -0.001833916 0.08502197 -0.996582
vn -0.7075195 0.08007813 -0.7021484
vn -0.9970703 0.07891846 0.004470825
vn -0.004032135 0.0982666 -0.9951172
vn 0.7006836 0.09185791 -0.7075195
vn 0.7006836 0.09619141 -0.7070313
vn 0.996582 0.08233643 -0.006671906
vn 0.9956055 0.09375 -0.00384903
vn -0.002838135 0.07678223 -0.9970703
vn 0.703125 0.07342529 -0.7070313
vn 0.9975586 0.06939697 -0.002855301
vn 0.7011719 0.1133423 -0.7036133
vn 0.9912109 0.1337891 0.003835678
vn -0.08026123 0.996582 0.0287323
vn 0.02453613 0.1323242 -0.9907227
vn -0.7045898 0.1176147 -0.699707
vn -0.9970703 0.07244873 0.01094818
vn 0 -1 0
vn 0 -1 0
vn 0 -1 0
vn 0 -1 0
vn 0 -1 0
vn 0 -1 0
vn 0 -1 0
vn 0 -1 0
vn 0.1912842 0.9814453 -0.004833221
vn -0.09002686 0.9814453 0.168457
vn -0.2437744 0.9643555 -0.1033325
vn -0.3669434 0.8730469 0.3212891
vn 0.05432129 0.9580078 -0.2817383
vn -0.5263672 0.8481445 0.05822754
vn -0.3505859 0.8813477 -0.3164063
vn -0.009483337 0.9052734 -0.4245605
vn -0.6025391 0.7944336 -0.07775879
vn -0.4660645 0.6459961 -0.6044922
vn 0.4050293 0.8901367 0.2091064
vn 0.2770996 0.9570313 -0.08807373
vn 0.5288086 0.8212891 -0.2141113
vn 0.1204224 0.9169922 -0.3808594
vn 0.6572266 0.7470703 0.1001587
vn 0.3620605 0.777832 -0.5136719
vn 0.6953125 0.652832 -0.3005371
vn 0.7695313 0.6367188 0.04998779
vn 0.46875 0.6694336 -0.5766602
vn 0.8652344 0.3139648 -0.3911133
vn -0.300293 0.796875 0.5239258
vn 0.02183533 0.8662109 0.4995117
vn 0.06976318 0.6704102 0.7387695
vn 0.3461914 0.8374023 0.4230957
vn -0.269043 0.5957031 0.7568359
vn 0.4035645 0.6401367 0.6538086
vn 0.1031494 0.4641113 0.8798828
vn -0.2541504 0.4602051 0.8505859
vn 0.4321289 0.5068359 0.7460938
vn 0.1369629 0.09082031 0.9863281
vn 0.1347656 0.878418 -0.458252
vn -0.09899902 0.965332 -0.2414551
vn -0.3098145 0.84375 -0.4379883
vn -0.3276367 0.9448242 0.001676559
vn -0.0604248 0.7485352 -0.6601563
vn -0.5419922 0.8203125 -0.1827393
vn -0.4580078 0.6850586 -0.5664063
vn -0.1524658 0.644043 -0.7495117
vn -0.644043 0.71875 -0.2624512
vn -0.6245117 0.3571777 -0.6948242
vn -0.1408691 0.9589844 0.2462158
vn -0.04229736 0.9970703 -0.06677246
vn 0.2519531 0.9672852 0.03460693
vn 0.06622314 0.9248047 -0.3747559
vn 0.144043 0.9208984 0.3615723
vn 0.359375 0.8886719 -0.284668
vn 0.472168 0.8740234 0.114624
vn 0.2861328 0.8608398 0.4208984
vn 0.5058594 0.8291016 -0.2385254
vn 0.7485352 0.6230469 0.2268066
vn -0.2626953 0.9487305 0.1761475
vn -0.04336548 0.9970703 -0.06610107
vn 0.1821289 0.9716797 0.1490479
vn 0.1865234 0.9350586 -0.3007813
vn -0.05142212 0.9150391 0.3999023
vn 0.4160156 0.9042969 -0.09649658
vn 0.3515625 0.8823242 0.3129883
vn 0.05456543 0.8569336 0.5126953
vn 0.53125 0.847168 0.006011963
vn 0.5634766 0.6357422 0.527832
vn -0.2220459 0.9536133 -0.2030029
vn 0.08154297 0.9936523 -0.07879639
vn -0.04568481 0.9775391 0.2064209
vn 0.3779297 0.9238281 0.05950928
vn -0.3625488 0.9291992 0.07202148
vn 0.2619629 0.9013672 0.3447266
vn -0.145874 0.8945313 0.4226074
vn -0.4345703 0.8754883 0.2106934
vn 0.2025146 0.8486328 0.4890137
vn -0.284668 0.6567383 0.6982422
vn 0.06982422 0.9272461 -0.3684082
vn 0.1075439 0.9931641 -0.04693604
vn -0.2036133 0.9790039 -0.0194397
vn 0.1295166 0.9501953 0.2839355
vn -0.2387695 0.9033203 -0.3566895
vn -0.1762695 0.9301758 0.3217773
vn -0.4411621 0.8974609 0.003757477
vn -0.3950195 0.8500977 -0.3486328
vn -0.3312988 0.8789063 0.3435059
vn -0.7495117 0.6611328 0.03436279
vn 0.3005371 0.9443359 0.1335449
vn -0.01612854 0.9980469 0.05667114
vn 0.06378174 0.9677734 -0.2441406
vn -0.3337402 0.9423828 -0.03152466
vn 0.3947754 0.9047852 -0.1589355
vn -0.2653809 0.9057617 -0.3303223
vn 0.1243286 0.8735352 -0.4702148
vn 0.4414063 0.84375 -0.3051758
vn -0.2320557 0.8457031 -0.4802246
vn 0.2056885 0.621582 -0.7558594
vn 0.3347168 0.921875 -0.1949463
vn 0.229248 0.9663086 0.1149902
vn -0.05975342 0.9980469 -0.0002727509
vn 0.09320068 0.9052734 0.4143066
vn 0.05410767 0.9443359 -0.3242188
vn -0.1964111 0.9301758 0.3100586
vn -0.2893066 0.9526367 -0.09405518
vn -0.09356689 0.9150391 -0.3920898
vn -0.348877 0.9018555 0.2548828
vn -0.6025391 0.7646484 -0.2296143
g p033v001_h_0
f 3/3/3 2/2/2 1/1/1
f 2/2/2 4/4/4 1/1/1
f 1/1/1 4/4/4 5/5/5
f 4/4/4 2/2/2 6/6/6
f 4/4/4 7/7/7 5/5/5
f 5/5/5 7/7/7 8/8/8
f 9/9/9 4/4/4 6/6/6
f 7/7/7 4/4/4 9/9/9
f 7/7/7 10/10/10 8/8/8
f 8/8/8 10/10/10 11/11/11
f 10/10/10 12/12/12 11/11/11
f 9/9/9 6/6/6 13/13/13
f 6/6/6 14/14/14 13/13/13
f 13/13/13 14/14/14 15/15/15
f 16/16/16 7/7/7 9/9/9
f 10/10/10 7/7/7 16/16/16
f 9/9/9 13/13/13 16/16/16
f 12/12/12 10/10/10 17/17/17
f 17/17/17 10/10/10 16/16/16
f 18/18/18 12/12/12 17/17/17
f 17/17/17 19/19/19 18/18/18
f 17/17/17 16/16/16 19/19/19
f 19/19/19 20/20/20 18/18/18
f 19/19/19 15/15/15 20/20/20
f 13/13/13 15/15/15 21/21/21
f 13/13/13 21/21/21 16/16/16
f 19/19/19 21/21/21 15/15/15
f 16/16/16 21/21/21 19/19/19
f 24/24/24 23/23/23 22/22/22
f 23/23/23 25/25/25 22/22/22
f 22/22/22 25/25/25 26/26/26
f 27/27/27 25/25/25 23/23/23
f 28/28/28 27/27/27 23/23/23
f 25/25/25 29/29/29 26/26/26
f 29/29/29 25/25/25 27/27/27
f 26/26/26 29/29/29 30/30/30
f 29/29/29 31/31/31 30/30/30
f 30/30/30 31/31/31 32/32/32
f 31/31/31 33/33/33 32/32/32
f 31/31/31 29/29/29 34/34/34
f 34/34/34 29/29/29 27/27/27
f 33/33/33 31/31/31 35/35/35
f 35/35/35 31/31/31 34/34/34
f 36/36/36 33/33/33 35/35/35
f 35/35/35 37/37/37 36/36/36
f 35/35/35 34/34/34 37/37/37
f 37/37/37 38/38/38 36/36/36
f 37/37/37 39/39/39 38/38/38
f 34/34/34 40/40/40 37/37/37
f 34/34/34 27/27/27 40/40/40
f 37/37/37 40/40/40 39/39/39
f 27/27/27 28/28/28 41/41/41
f 27/27/27 41/41/41 40/40/40
f 41/41/41 39/39/39 40/40/40
f 28/28/28 42/42/42 41/41/41
f 41/41/41 42/42/42 39/39/39
f 45/45/45 44/44/44 43/43/43
f 44/44/44 46/46/46 43/43/43
f 46/46/46 47/47/47 43/43/43
f 46/46/46 48/48/48 47/47/47
f 48/48/48 49/49/49 47/47/47
f 48/48/48 50/50/50 49/49/49
g p033v001_h_1
f 53/53/53 52/52/52 51/51/51
f 53/53/53 54/54/54 52/52/52
f 55/55/55 53/53/53 51/51/51
f 53/53/53 56/56/56 54/54/54
f 53/53/53 55/55/55 57/57/57
f 53/53/53 57/57/57 56/56/56
f 55/55/55 58/58/58 57/57/57
f 57/57/57 59/59/59 56/56/56
f 57/57/57 58/58/58 60/60/60
f 57/57/57 60/60/60 59/59/59
f 63/63/63 62/62/62 61/61/61
f 63/63/63 64/64/64 62/62/62
f 65/65/65 63/63/63 61/61/61
f 63/63/63 66/66/66 64/64/64
f 63/63/63 65/65/65 67/67/67
f 63/63/63 67/67/67 66/66/66
f 65/65/65 68/68/68 67/67/67
f 67/67/67 69/69/69 66/66/66
f 67/67/67 68/68/68 70/70/70
f 67/67/67 70/70/70 69/69/69
f 73/73/73 72/72/72 71/71/71
f 73/73/73 74/74/74 72/72/72
f 75/75/75 73/73/73 71/71/71
f 73/73/73 76/76/76 74/74/74
f 73/73/73 75/75/75 77/77/77
f 73/73/73 77/77/77 76/76/76
f 75/75/75 78/78/78 77/77/77
f 77/77/77 79/79/79 76/76/76
f 77/77/77 78/78/78 80/80/80
f 77/77/77 80/80/80 79/79/79
f 83/83/83 82/82/82 81/81/81
f 83/83/83 84/84/84 82/82/82
f 85/85/85 83/83/83 81/81/81
f 83/83/83 86/86/86 84/84/84
f 83/83/83 85/85/85 87/87/87
f 83/83/83 87/87/87 86/86/86
f 85/85/85 88/88/88 87/87/87
f 87/87/87 89/89/89 86/86/86
f 87/87/87 88/88/88 90/90/90
f 87/87/87 90/90/90 89/89/89
f 93/93/93 92/92/92 91/91/91
f 93/93/93 94/94/94 92/92/92
f 95/95/95 93/93/93 91/91/91
f 93/93/93 96/96/96 94/94/94
f 93/93/93 95/95/95 97/97/97
f 93/93/93 97/97/97 96/96/96
f 95/95/95 98/98/98 97/97/97
f 97/97/97 99/99/99 96/96/96
f 97/97/97 98/98/98 100/100/100
f 97/97/97 100/100/100 99/99/99
f 103/103/103 102/102/102 101/101/101
f 103/103/103 104/104/104 102/102/102
f 105/105/105 103/103/103 101/101/101
f 103/103/103 106/106/106 104/104/104
f 103/103/103 105/105/105 107/107/107
f 103/103/103 107/107/107 106/106/106
f 105/105/105 108/108/108 107/107/107
f 107/107/107 109/109/109 106/106/106
f 107/107/107 108/108/108 110/110/110
f 107/107/107 110/110/110 109/109/109
f 113/113/113 112/112/112 111/111/111
f 113/113/113 114/114/114 112/112/112
f 115/115/115 113/113/113 111/111/111
f 113/113/113 116/116/116 114/114/114
f 113/113/113 115/115/115 117/117/117
f 113/113/113 117/117/117 116/116/116
f 115/115/115 118/118/118 117/117/117
f 117/117/117 119/119/119 116/116/116
f 117/117/117 118/118/118 120/120/120
f 117/117/117 120/120/120 119/119/119
f 123/123/123 122/122/122 121/121/121
f 123/123/123 124/124/124 122/122/122
f 125/125/125 123/123/123 121/121/121
f 123/123/123 126/126/126 124/124/124
f 123/123/123 125/125/125 127/127/127
f 123/123/123 127/127/127 126/126/126
f 125/125/125 128/128/128 127/127/127
f 127/127/127 129/129/129 126/126/126
f 127/127/127 128/128/128 130/130/130
f 127/127/127 130/130/130 129/129/129
f 133/133/133 132/132/132 131/131/131
f 133/133/133 134/134/134 132/132/132
f 135/135/135 133/133/133 131/131/131
f 133/133/133 136/136/136 134/134/134
f 133/133/133 135/135/135 137/137/137
f 133/133/133 137/137/137 136/136/136
f 135/135/135 138/138/138 137/137/137
f 137/137/137 139/139/139 136/136/136
f 137/137/137 138/138/138 140/140/140
f 137/137/137 140/140/140 139/139/139
f 143/143/143 142/142/142 141/141/141
f 143/143/143 144/144/144 142/142/142
f 145/145/145 143/143/143 141/141/141
f 143/143/143 146/146/146 144/144/144
f 143/143/143 145/145/145 147/147/147
f 143/143/143 147/147/147 146/146/146
f 145/145/145 148/148/148 147/147/147
f 147/147/147 149/149/149 146/146/146
f 147/147/147 148/148/148 150/150/150
f 147/147/147 150/150/150 149/149/149
