g f010v001_l
v -0.1213131 1.293327 -0.2602561
v -0.08855629 1.197387 -0.05998734
v -0.001649857 1.345956 -0.09065368
v -0.8557758 1.561182 -0.01831817
v -0.9465303 1.35384 0.006580355
v -0.9441662 1.436696 -0.223031
v 0.9490337 0.7368077 -0.2359754
v 0.9631214 0.6662686 -0.01380746
v 0.8979359 0.8677995 -0.01284235
v -0.9220819 0.6624743 0.2283325
v -0.9121122 0.4410878 0.2279053
v -0.9201517 0.5129373 0.008529663
v -0.5132683 0.466087 0.214579
v -0.7229347 0.5005887 0.09537953
v -0.4818483 0.4934268 -0.0566446
v -0.5207372 -0.03885782 -0.2292368
v -0.7618237 -0.03169604 -0.07720882
v -0.5521572 -0.06619771 0.04199069
v 0.453928 0.6629577 -0.1616911
v 0.6829062 0.6618915 -0.179387
v 0.6513756 0.5948489 0.01741875
v 0.7074793 -0.009081125 -0.3550712
v 0.7390109 0.05796146 -0.5518769
v 0.5100307 0.05902719 -0.5341811
v -0.8326082 -0.01367873 0.455616
v -0.7175064 1.694849 -0.1016502
v -0.6830463 1.690741 -0.02108002
v -0.527895 -0.03337109 0.4170876
v -0.4513569 1.685365 -0.05527878
v -0.4155159 1.695037 -0.1408348
v 0.7422085 -0.00614604 0.3568459
v 0.4451256 1.167155 -0.09807205
v 0.4920292 1.153437 0.006843567
v 0.7030449 1.199876 -0.04462814
v 0.7239895 1.221033 -0.1296349
v 1.052681 -0.006145999 0.3290482
v -0.8557758 1.561182 -0.01831817
v -0.9441662 1.436696 -0.223031
v -0.1213131 1.293327 -0.2602561
v -0.001649857 1.345956 -0.09065368
v -0.9441662 1.436696 -0.223031
v -0.08855629 1.197387 -0.05998734
v -0.1213131 1.293327 -0.2602561
v -0.9465303 1.35384 0.006580355
v -0.8557758 1.561182 -0.01831817
v -0.001649857 1.345956 -0.09065368
v -0.9220819 0.6624743 0.2283325
v -0.9201517 0.5129373 0.008529663
v 0.9490337 0.7368077 -0.2359754
v 0.8979359 0.8677995 -0.01284235
v -0.9201517 0.5129373 0.008529663
v 0.9631214 0.6662686 -0.01380746
v 0.9490337 0.7368077 -0.2359754
v -0.9121122 0.4410878 0.2279053
v -0.9220819 0.6624743 0.2283325
v 0.8979359 0.8677995 -0.01284235
v -0.4818483 0.4934268 -0.0566446
v -0.7229347 0.5005887 0.09537953
v -0.7618237 -0.03169604 -0.07720882
v -0.5207372 -0.03885782 -0.2292368
v -0.4818483 0.4934268 -0.0566446
v -0.5207372 -0.03885782 -0.2292368
v -0.5521572 -0.06619771 0.04199069
v -0.5132683 0.466087 0.214579
v -0.7229347 0.5005887 0.09537953
v -0.7618237 -0.03169604 -0.07720882
v 0.6829062 0.6618915 -0.179387
v 0.453928 0.6629577 -0.1616911
v 0.5100307 0.05902719 -0.5341811
v 0.7390109 0.05796146 -0.5518769
v 0.7074793 -0.009081125 -0.3550712
v 0.6513756 0.5948489 0.01741875
v 0.7074793 -0.009081125 -0.3550712
v 0.5100307 0.05902719 -0.5341811
v 0.453928 0.6629577 -0.1616911
v 0.6513756 0.5948489 0.01741875
v -0.6830463 1.690741 -0.02108002
v -0.7175064 1.694849 -0.1016502
v -0.4155159 1.695037 -0.1408348
v -0.4513569 1.685365 -0.05527878
v -0.8326082 -0.01367873 0.455616
v -0.6830463 1.690741 -0.02108002
v -0.4513569 1.685365 -0.05527878
v -0.527895 -0.03337109 0.4170876
v -0.527895 -0.03337109 0.4170876
v -0.4155159 1.695037 -0.1408348
v -0.7175064 1.694849 -0.1016502
v -0.8326082 -0.01367873 0.455616
v -0.8290291 0.8648514 0.2484016
v 0.7588005 0.7531803 0.2335627
v 0.7448074 0.5326021 0.2869341
v -0.8798046 0.6321293 0.3257332
v -0.8798046 0.6321293 0.3257332
v 0.7448074 0.5326021 0.2869341
v 0.7588005 0.7531803 0.2335627
v -0.8290291 0.8648514 0.2484016
v 0.7030449 1.199876 -0.04462814
v 0.4920292 1.153437 0.006843567
v 0.4451256 1.167155 -0.09807205
v 0.7239895 1.221033 -0.1296349
v 0.7422085 -0.00614604 0.3568459
v 1.052681 -0.006145999 0.3290482
v 0.7239895 1.221033 -0.1296349
v 0.4451256 1.167155 -0.09807205
v 0.7422085 -0.00614604 0.3568459
v 0.4920292 1.153437 0.006843567
v 0.7030449 1.199876 -0.04462814
v 1.052681 -0.006145999 0.3290482
v -0.02254391 0.003109455 0.3623676
v -0.3304758 0.003109455 0.3899384
v -0.4306316 0.9889032 0.1264945
v -0.07964325 0.9128903 0.097396
v -0.3304758 0.003109455 0.3899384
v -0.02254391 0.003109455 0.3623676
v -0.07964325 0.9128903 0.097396
v -0.4306316 0.9889032 0.1264945
vt 0.8618164 0.9863281
vt 0.9501953 0.9692383
vt 0.9404297 0.9179688
vt 0.8515625 0.9350586
vt 0.8618164 0.9863281
vt 0.9501953 0.9692383
vt 0.8608398 0.8930664
vt 0.9619141 0.859375
vt 0.9389648 0.8251953
vt 0.8378906 0.859375
vt 0.8608398 0.8930664
vt 0.9619141 0.859375
vt 0.5537109 0.7651367
vt 0.4365234 0.7983398
vt 0.5898438 0.7983398
vt 0.4365234 0.7983398
vt 0.5898438 0.7983398
vt 0.4770508 0.7651367
vt 0.4726563 0.8305664
vt 0.5898438 0.7983398
vt 0.5537109 0.7651367
vt 0.4365234 0.7983398
vt 0.4726563 0.8305664
vt 0.5898438 0.7983398
vt 0.5351563 0.6132813
vt 0.5649414 0.01165009
vt 0.5053711 0.01165009
vt 0.5351563 0.01165009
vt 0.5053711 0.6132813
vt 0.5649414 0.6132813
vt 0.5351563 0.1335449
vt 0.5053711 0.6132813
vt 0.5649414 0.6132813
vt 0.5053711 0.5043945
vt 0.5649414 0.5180664
vt 0.5351563 0.04614258
vt 0.565918 0.9902344
vt 0.565918 0.8735352
vt 0.01631165 0.8735352
vt 0.01631165 0.9902344
vt 0.565918 0.9902344
vt 0.01631165 0.9121094
vt 0.01631165 0.9902344
vt 0.565918 0.9121094
vt 0.565918 0.8735352
vt 0.01631165 0.8735352
vt 0.008262634 0.6137695
vt 0.2416992 0.6137695
vt 0.2416992 0.008987427
vt 0.008262634 0.008987427
vt 0.008262634 0.6137695
vt 0.1645508 0.008987427
vt 0.008262634 0.008987427
vt 0.1645508 0.6137695
vt 0.2416992 0.6137695
vt 0.2416992 0.008987427
vt 0.4082031 0.8588867
vt 0.4082031 0.7421875
vt 0.01751709 0.7421875
vt 0.01751709 0.8588867
vt 0.4082031 0.7421875
vt 0.01751709 0.7421875
vt 0.01751709 0.7817383
vt 0.4082031 0.7817383
vt 0.4082031 0.8588867
vt 0.01751709 0.8588867
vt 0.4082031 0.8203125
vt 0.4082031 0.7421875
vt 0.01751709 0.7421875
vt 0.01751709 0.8203125
vt 0.01751709 0.8588867
vt 0.4082031 0.8588867
vt 0.01751709 0.7421875
vt 0.01751709 0.8588867
vt 0.4082031 0.8588867
vt 0.4082031 0.7421875
vt 0.7714844 0.6933594
vt 0.7714844 0.7182617
vt 0.9941406 0.7182617
vt 0.9941406 0.6933594
vt 0.2614746 0.0112381
vt 0.2614746 0.565918
vt 0.4824219 0.565918
vt 0.4824219 0.0112381
vt 0.2614746 0.0112381
vt 0.2614746 0.565918
vt 0.4824219 0.565918
vt 0.4824219 0.0112381
vt 0.9165039 0.6137695
vt 0.9165039 0.01252747
vt 0.7602539 0.01252747
vt 0.7602539 0.6137695
vt 0.7602539 0.01252747
vt 0.7602539 0.6137695
vt 0.9165039 0.6137695
vt 0.9165039 0.01252747
vt 0.9941406 0.6933594
vt 0.7714844 0.6933594
vt 0.7714844 0.7182617
vt 0.9941406 0.7182617
vt 0.4824219 0.0112381
vt 0.2614746 0.0112381
vt 0.2614746 0.565918
vt 0.4824219 0.565918
vt 0.2614746 0.0112381
vt 0.2614746 0.565918
vt 0.4824219 0.565918
vt 0.4824219 0.0112381
vt 0.01657104 0.6337891
vt 0.01657104 0.7246094
vt 0.5717773 0.7246094
vt 0.5717773 0.6337891
vt 0.01657104 0.6337891
vt 0.01657104 0.7246094
vt 0.5717773 0.7246094
vt 0.5717773 0.6337891
vn 0.7636719 -0.5244141 -0.3762207
vn 0.7636719 -0.5244141 -0.3762207
vn 0.7636719 -0.5244141 -0.3762207
vn -0.9008789 0.4111328 0.1390381
vn -0.9008789 0.4111328 0.1390381
vn -0.9008789 0.4111328 0.1390381
vn 0.9506836 0.307373 0.03729248
vn 0.9506836 0.307373 0.03729248
vn 0.9506836 0.307373 0.03729248
vn -0.9985352 -0.04501343 0.02185059
vn -0.9985352 -0.04501343 0.02185059
vn -0.9985352 -0.04501343 0.02185059
vn 0.0994873 0.9887695 0.1112061
vn 0.0994873 0.9887695 0.1112061
vn 0.0994873 0.9887695 0.1112061
vn -0.0994873 -0.9887695 -0.1112061
vn -0.0994873 -0.9887695 -0.1112061
vn -0.0994873 -0.9887695 -0.1112061
vn 0.02963257 0.9448242 0.3266602
vn 0.02963257 0.9448242 0.3266602
vn 0.02963257 0.9448242 0.3266602
vn -0.02963257 -0.9448242 -0.3266602
vn -0.02963257 -0.9448242 -0.3266602
vn -0.02963257 -0.9448242 -0.3266602
vn -0.8994141 0.189209 0.3942871
vn -0.8994141 0.189209 0.3942871
vn -0.8994141 0.189209 0.3942871
vn 0.9174805 0.0668335 0.3918457
vn 0.9174805 0.0668335 0.3918457
vn 0.9174805 0.0668335 0.3918457
vn -0.9140625 -0.0769043 0.3984375
vn -0.9140625 -0.0769043 0.3984375
vn -0.9140625 -0.0769043 0.3984375
vn 0.8852539 0.3513184 0.3054199
vn 0.8852539 0.3513184 0.3054199
vn 0.8852539 0.3513184 0.3054199
vn 0.2298584 0.8930664 0.3867188
vn -0.07635498 -0.2600098 -0.9624023
vn -0.01641846 0.0569458 -0.9980469
vn 0.2282715 0.8613281 0.4538574
vn -0.07635498 -0.2600098 -0.9624023
vn -0.0586853 -0.7080078 0.7036133
vn -0.01641846 0.0569458 -0.9980469
vn -0.1194458 -0.9106445 0.3955078
vn 0.2298584 0.8930664 0.3867188
vn 0.2282715 0.8613281 0.4538574
vn -0.05944824 0.9257813 0.3735352
vn -0.116272 -0.08258057 -0.9897461
vn -0.1086426 -0.140625 -0.9838867
vn -0.07403564 0.9545898 0.2878418
vn -0.116272 -0.08258057 -0.9897461
vn 0.1623535 -0.8920898 0.421875
vn -0.1086426 -0.140625 -0.9838867
vn 0.1704102 -0.8154297 0.5532227
vn -0.05944824 0.9257813 0.3735352
vn -0.07403564 0.9545898 0.2878418
vn 0.5458984 0.2220459 -0.8081055
vn -0.9975586 0.07196045 0.002801895
vn -0.9697266 0.1363525 -0.2020264
vn 0.4631348 0.2425537 -0.8525391
vn 0.5458984 0.2220459 -0.8081055
vn 0.4631348 0.2425537 -0.8525391
vn 0.5493164 -0.2937012 0.7822266
vn 0.4436035 -0.3056641 0.8427734
vn -0.9975586 0.07196045 0.002801895
vn -0.9697266 0.1363525 -0.2020264
vn 0.7109375 0.4157715 -0.5668945
vn -0.9970703 -0.0657959 -0.04351807
vn -0.9594727 0.07806396 -0.2709961
vn 0.6484375 0.4423828 -0.6196289
vn 0.1461182 -0.5092773 0.8481445
vn -0.03123474 -0.5268555 0.8496094
vn 0.1461182 -0.5092773 0.8481445
vn -0.9594727 0.07806396 -0.2709961
vn -0.9970703 -0.0657959 -0.04351807
vn -0.03123474 -0.5268555 0.8496094
vn 0.02107239 0.996582 0.08282471
vn 0.02107239 0.996582 0.08282471
vn 0.02107239 0.996582 0.08282471
vn 0.02107239 0.996582 0.08282471
vn 0.1416016 0.2558594 0.956543
vn 0.1416016 0.2558594 0.956543
vn 0.1416016 0.2558594 0.956543
vn 0.1416016 0.2558594 0.956543
vn -0.1307373 -0.2980957 -0.9453125
vn -0.1307373 -0.2980957 -0.9453125
vn -0.1307373 -0.2980957 -0.9453125
vn -0.1307373 -0.2980957 -0.9453125
vn 0.03396606 0.2724609 0.9614258
vn 0.03396606 0.2724609 0.9614258
vn 0.03396606 0.2724609 0.9614258
vn 0.03396606 0.2724609 0.9614258
vn -0.03396606 -0.2724609 -0.9614258
vn -0.03396606 -0.2724609 -0.9614258
vn -0.03396606 -0.2724609 -0.9614258
vn -0.03396606 -0.2724609 -0.9614258
vn -0.1639404 0.9658203 0.1998291
vn -0.1639404 0.9658203 0.1998291
vn -0.1639404 0.9658203 0.1998291
vn -0.1639404 0.9658203 0.1998291
vn -0.0597229 -0.3686523 -0.9277344
vn -0.0597229 -0.3686523 -0.9277344
vn -0.0597229 -0.3686523 -0.9277344
vn -0.0597229 -0.3686523 -0.9277344
vn 0.1148682 0.3171387 0.9414063
vn 0.1148682 0.3171387 0.9414063
vn 0.1148682 0.3171387 0.9414063
vn 0.1148682 0.3171387 0.9414063
vn 0.1138916 0.2756348 0.9545898
vn 0.1138916 0.2756348 0.9545898
vn 0.1138916 0.2756348 0.9545898
vn 0.1138916 0.2756348 0.9545898
vn -0.1138916 -0.2756348 -0.9545898
vn -0.1138916 -0.2756348 -0.9545898
vn -0.1138916 -0.2756348 -0.9545898
vn -0.1138916 -0.2756348 -0.9545898
g f010v001_l_0
f 3/3/3 2/2/2 1/1/1
f 6/6/6 5/5/5 4/4/4
f 9/9/9 8/8/8 7/7/7
f 12/12/12 11/11/11 10/10/10
f 15/15/15 14/14/14 13/13/13
f 18/18/18 17/17/17 16/16/16
f 21/21/21 20/20/20 19/19/19
f 24/24/24 23/23/23 22/22/22
f 27/27/27 26/26/26 25/25/25
f 30/30/30 29/29/29 28/28/28
f 33/33/33 32/32/32 31/31/31
f 36/36/36 35/35/35 34/34/34
f 39/39/39 38/38/38 37/37/37
f 40/40/40 39/39/39 37/37/37
f 43/43/43 42/42/42 41/41/41
f 42/42/42 44/44/44 41/41/41
f 45/45/45 44/44/44 42/42/42
f 46/46/46 45/45/45 42/42/42
f 49/49/49 48/48/48 47/47/47
f 50/50/50 49/49/49 47/47/47
f 53/53/53 52/52/52 51/51/51
f 52/52/52 54/54/54 51/51/51
f 55/55/55 54/54/54 52/52/52
f 56/56/56 55/55/55 52/52/52
f 59/59/59 58/58/58 57/57/57
f 60/60/60 59/59/59 57/57/57
f 63/63/63 62/62/62 61/61/61
f 64/64/64 63/63/63 61/61/61
f 64/64/64 65/65/65 63/63/63
f 65/65/65 66/66/66 63/63/63
f 69/69/69 68/68/68 67/67/67
f 70/70/70 69/69/69 67/67/67
f 71/71/71 70/70/70 67/67/67
f 72/72/72 71/71/71 67/67/67
f 75/75/75 74/74/74 73/73/73
f 76/76/76 75/75/75 73/73/73
f 79/79/79 78/78/78 77/77/77
f 80/80/80 79/79/79 77/77/77
f 83/83/83 82/82/82 81/81/81
f 84/84/84 83/83/83 81/81/81
f 87/87/87 86/86/86 85/85/85
f 88/88/88 87/87/87 85/85/85
f 91/91/91 90/90/90 89/89/89
f 92/92/92 91/91/91 89/89/89
f 95/95/95 94/94/94 93/93/93
f 96/96/96 95/95/95 93/93/93
f 99/99/99 98/98/98 97/97/97
f 100/100/100 99/99/99 97/97/97
f 103/103/103 102/102/102 101/101/101
f 104/104/104 103/103/103 101/101/101
f 107/107/107 106/106/106 105/105/105
f 108/108/108 107/107/107 105/105/105
f 111/111/111 110/110/110 109/109/109
f 112/112/112 111/111/111 109/109/109
f 115/115/115 114/114/114 113/113/113
f 116/116/116 115/115/115 113/113/113
