g f010v001_m
v -0.01743889 1.308506 -0.2806523
v -0.001649857 1.345956 -0.09065368
v -0.8557758 1.530211 -0.01831817
v -0.8902073 1.486951 -0.2344093
v -0.9441662 1.30275 -0.2120857
v -0.1213131 1.159381 -0.2493108
v -0.9441662 1.30275 -0.2120857
v -0.08855629 1.197387 -0.05998734
v -0.1213131 1.159381 -0.2493108
v -0.9465303 1.35384 0.006580355
v -0.8557758 1.530211 -0.01831817
v -0.001649857 1.345956 -0.09065368
v -0.1213131 1.159381 -0.2493108
v -0.08855629 1.197387 -0.05998734
v -0.01743889 1.308506 -0.2806523
v -0.001649857 1.345956 -0.09065368
v -0.8902073 1.486951 -0.2344093
v -0.9465303 1.35384 0.006580355
v -0.9441662 1.30275 -0.2120857
v -0.8557758 1.530211 -0.01831817
v 0.9065847 0.8718355 -0.1818237
v 0.8979359 0.8677995 0.03685379
v -0.9220819 0.6624743 0.2283325
v -0.9677353 0.6590791 0.01223755
v -0.9201517 0.4681767 0.008529663
v 0.9490337 0.6920471 -0.1862793
v -0.9201517 0.4681767 0.008529663
v 0.9631214 0.69311 0.03588867
v 0.9490337 0.6920471 -0.1862793
v -0.9121122 0.4679293 0.2279053
v -0.9220819 0.6624743 0.2283325
v 0.8979359 0.8677995 0.03685379
v 0.9490337 0.6920471 -0.1862793
v 0.9631214 0.69311 0.03588867
v 0.9065847 0.8718355 -0.1818237
v 0.8979359 0.8677995 0.03685379
v -0.9677353 0.6590791 0.01223755
v -0.9121122 0.4679293 0.2279053
v -0.9201517 0.4681767 0.008529663
v -0.9220819 0.6624743 0.2283325
v -0.6982585 -0.004356161 -0.2641659
v -0.5015803 -0.03885782 -0.1807156
v -0.4626913 0.4934268 -0.008123405
v -0.6593676 0.5279285 -0.09157372
v -0.7229347 0.5005887 0.09537953
v -0.7618237 -0.03169604 -0.07720882
v -0.4626913 0.4934268 -0.008123405
v -0.5015803 -0.03885782 -0.1807156
v -0.5651436 -0.06619771 0.006241497
v -0.5262547 0.466087 0.1788298
v -0.7229347 0.5005887 0.09537953
v -0.7618237 -0.03169604 -0.07720882
v -0.4626913 0.4934268 -0.008123405
v -0.5262547 0.466087 0.1788298
v -0.6593676 0.5279285 -0.09157372
v -0.7229347 0.5005887 0.09537953
v -0.6982585 -0.004356161 -0.2641659
v -0.5651436 -0.06619771 0.006241497
v -0.5015803 -0.03885782 -0.1807156
v -0.7618237 -0.03169604 -0.07720882
v 0.6829062 0.6618915 -0.179387
v 0.4679757 0.6629577 -0.204667
v 0.5240784 0.05902719 -0.5771569
v 0.7390109 0.05796146 -0.5518769
v 0.7074793 -0.009081125 -0.3550712
v 0.6513756 0.5948489 0.01741875
v 0.7074793 -0.009081125 -0.3550712
v 0.4364441 0.5959148 -0.007865068
v 0.6513756 0.5948489 0.01741875
v 0.4925478 -0.008014917 -0.380355
v 0.5240784 0.05902719 -0.5771569
v 0.4679757 0.6629577 -0.204667
v 0.6829062 0.6618915 -0.179387
v 0.6513756 0.5948489 0.01741875
v 0.4679757 0.6629577 -0.204667
v 0.4364441 0.5959148 -0.007865068
v 0.7074793 -0.009081125 -0.3550712
v 0.7390109 0.05796146 -0.5518769
v 0.5240784 0.05902719 -0.5771569
v 0.4925478 -0.008014917 -0.380355
v -0.5235977 -0.0457589 0.3752861
v -0.8551693 -0.02433079 0.4157181
v -0.8100471 -0.003026664 0.4955139
v -0.5321922 -0.02098328 0.458889
v -0.8551693 -0.02433079 0.4157181
v -0.7175064 1.694849 -0.1016502
v -0.6830463 1.690741 -0.02108002
v -0.8100471 -0.003026664 0.4955139
v -0.6830463 1.690741 -0.02108002
v -0.7175064 1.694849 -0.1016502
v -0.4155159 1.695037 -0.1408348
v -0.4513569 1.685365 -0.05527878
v -0.5321922 -0.02098328 0.458889
v -0.4513569 1.685365 -0.05527878
v -0.4155159 1.695037 -0.1408348
v -0.5235977 -0.0457589 0.3752861
v -0.8100471 -0.003026664 0.4955139
v -0.6830463 1.690741 -0.02108002
v -0.4513569 1.685365 -0.05527878
v -0.5321922 -0.02098328 0.458889
v -0.5235977 -0.0457589 0.3752861
v -0.4155159 1.695037 -0.1408348
v -0.7175064 1.694849 -0.1016502
v -0.8551693 -0.02433079 0.4157181
v -0.8802819 0.5614053 0.3257332
v -0.8502551 0.8055885 0.2511163
v -0.8166591 0.7946901 0.3322549
v -0.8349051 0.6033437 0.3953373
v -0.8502551 0.8055885 0.2511163
v 0.7588005 0.7445434 0.1842201
v 0.7242292 0.7409509 0.2679375
v -0.8166591 0.7946901 0.3322549
v 0.7588005 0.7445434 0.1842201
v 0.7434419 0.5023217 0.2523471
v 0.7116129 0.5335577 0.3252308
v 0.7242292 0.7409509 0.2679375
v -0.8349051 0.6033437 0.3953373
v 0.7116129 0.5335577 0.3252308
v 0.7434419 0.5023217 0.2523471
v -0.8802819 0.5614053 0.3257332
v -0.8166591 0.7946901 0.3322549
v 0.7242292 0.7409509 0.2679375
v 0.7116129 0.5335577 0.3252308
v -0.8349051 0.6033437 0.3953373
v -0.8802819 0.5614053 0.3257332
v 0.7434419 0.5023217 0.2523471
v 0.7588005 0.7445434 0.1842201
v -0.8502551 0.8055885 0.2511163
v 1.067953 -0.01801758 0.3040733
v 0.7401123 -0.01801755 0.3334274
v 0.7443047 0.005725466 0.3802643
v 1.037409 0.005725577 0.354023
v 0.7401123 -0.01801755 0.3334274
v 0.4451256 1.167155 -0.09807205
v 0.4920292 1.153437 0.006843567
v 0.7443047 0.005725466 0.3802643
v 0.7030449 1.199876 -0.04462814
v 0.4920292 1.153437 0.006843567
v 0.4451256 1.167155 -0.09807205
v 0.7239895 1.221033 -0.1296349
v 0.7401123 -0.01801755 0.3334274
v 1.067953 -0.01801758 0.3040733
v 0.7239895 1.221033 -0.1296349
v 0.4451256 1.167155 -0.09807205
v 0.7443047 0.005725466 0.3802643
v 0.4920292 1.153437 0.006843567
v 0.7030449 1.199876 -0.04462814
v 1.037409 0.005725577 0.354023
v 0.7030449 1.199876 -0.04462814
v 0.7239895 1.221033 -0.1296349
v 1.067953 -0.01801758 0.3040733
v 1.037409 0.005725577 0.354023
v -0.02623558 -0.008762062 0.3211327
v -0.3341675 -0.008762062 0.3487015
v -0.3267841 0.01498097 0.4311752
v -0.01885223 0.01498097 0.4036026
v -0.4306316 0.9889032 0.1089706
v -0.3612156 0.9507775 0.1860313
v -0.3267841 0.01498097 0.4311752
v -0.3341675 -0.008762062 0.3487015
v -0.01885223 0.01498097 0.4036026
v -0.3267841 0.01498097 0.4311752
v -0.3612156 0.9507775 0.1860313
v -0.07227516 0.9007457 0.1624908
v -0.4306316 0.9889032 0.1089706
v -0.2265015 0.9944875 0.07620621
v -0.3612156 0.9507775 0.1860313
v -0.07227516 0.9007457 0.1624908
v -0.07964325 0.9128903 0.07987213
v -0.07964325 0.9128903 0.07987213
v -0.02623558 -0.008762062 0.3211327
v -0.01885223 0.01498097 0.4036026
v -0.07227516 0.9007457 0.1624908
v -0.4306316 0.9889032 0.1089706
v -0.3341675 -0.008762062 0.3487015
v -0.2265015 0.9944875 0.07620621
v -0.07964325 0.9128903 0.07987213
v -0.02623558 -0.008762062 0.3211327
vt 0.01631165 0.9121094
vt 0.01631165 0.9902344
vt 0.565918 0.9902344
vt 0.565918 0.9121094
vt 0.565918 0.8735352
vt 0.01631165 0.8735352
vt 0.565918 0.9902344
vt 0.01631165 0.9121094
vt 0.01631165 0.9902344
vt 0.565918 0.9121094
vt 0.565918 0.8735352
vt 0.01631165 0.8735352
vt 0.8618164 0.9863281
vt 0.9501953 0.9692383
vt 0.8515625 0.9350586
vt 0.9404297 0.9179688
vt 0.9404297 0.9179688
vt 0.8618164 0.9863281
vt 0.9501953 0.9692383
vt 0.8515625 0.9350586
vt 0.1645508 0.008987427
vt 0.008262634 0.008987427
vt 0.008262634 0.6137695
vt 0.1645508 0.6137695
vt 0.2416992 0.6137695
vt 0.2416992 0.008987427
vt 0.008262634 0.6137695
vt 0.1645508 0.008987427
vt 0.008262634 0.008987427
vt 0.1645508 0.6137695
vt 0.2416992 0.6137695
vt 0.2416992 0.008987427
vt 0.8608398 0.8930664
vt 0.9619141 0.859375
vt 0.8378906 0.859375
vt 0.9389648 0.8251953
vt 0.9389648 0.8251953
vt 0.8608398 0.8930664
vt 0.9619141 0.859375
vt 0.8378906 0.859375
vt 0.01751709 0.7817383
vt 0.01751709 0.8588867
vt 0.4082031 0.8588867
vt 0.4082031 0.7817383
vt 0.4082031 0.7436523
vt 0.01751709 0.7436523
vt 0.4082031 0.7436523
vt 0.01751709 0.7436523
vt 0.01751709 0.7817383
vt 0.4082031 0.7817383
vt 0.4082031 0.8588867
vt 0.01751709 0.8588867
vt 0.5898438 0.7983398
vt 0.5537109 0.7651367
vt 0.4726563 0.8305664
vt 0.4365234 0.7983398
vt 0.5493164 0.8305664
vt 0.4770508 0.7651367
vt 0.4365234 0.7983398
vt 0.5898438 0.7983398
vt 0.4082031 0.8203125
vt 0.4082031 0.7436523
vt 0.01751709 0.7436523
vt 0.01751709 0.8203125
vt 0.01751709 0.8588867
vt 0.4082031 0.8588867
vt 0.01751709 0.7436523
vt 0.4082031 0.8203125
vt 0.4082031 0.7436523
vt 0.01751709 0.8203125
vt 0.01751709 0.8588867
vt 0.4082031 0.8588867
vt 0.5898438 0.7983398
vt 0.5537109 0.7651367
vt 0.4726563 0.8305664
vt 0.4365234 0.7983398
vt 0.4365234 0.7983398
vt 0.4726563 0.8305664
vt 0.5898438 0.7983398
vt 0.5537109 0.7651367
vt 0.7714844 0.7182617
vt 0.9941406 0.7182617
vt 0.9941406 0.6933594
vt 0.7714844 0.6933594
vt 0.5649414 0.6132813
vt 0.5649414 0.01165009
vt 0.5053711 0.01165009
vt 0.5053711 0.6132813
vt 0.7714844 0.6933594
vt 0.7714844 0.7182617
vt 0.9941406 0.7182617
vt 0.9941406 0.6933594
vt 0.5053711 0.01165009
vt 0.5053711 0.6132813
vt 0.5649414 0.6132813
vt 0.5649414 0.01165009
vt 0.2614746 0.0112381
vt 0.2614746 0.565918
vt 0.4824219 0.565918
vt 0.4824219 0.0112381
vt 0.2614746 0.0112381
vt 0.2614746 0.565918
vt 0.4824219 0.565918
vt 0.4824219 0.0112381
vt 0.7602539 0.6601563
vt 0.9165039 0.6601563
vt 0.9165039 0.6318359
vt 0.7602539 0.6318359
vt 0.9355469 0.01252747
vt 0.9355469 0.6137695
vt 0.9946289 0.6137695
vt 0.9946289 0.01252747
vt 0.7602539 0.6601563
vt 0.9165039 0.6601563
vt 0.9165039 0.6318359
vt 0.7602539 0.6318359
vt 0.9946289 0.6137695
vt 0.9946289 0.01252747
vt 0.9355469 0.01252747
vt 0.9355469 0.6137695
vt 0.9165039 0.6137695
vt 0.9165039 0.01252747
vt 0.7602539 0.01252747
vt 0.7602539 0.6137695
vt 0.5839844 0.01252747
vt 0.5839844 0.6137695
vt 0.7402344 0.6137695
vt 0.7402344 0.01252747
vt 0.7714844 0.7182617
vt 0.9941406 0.7182617
vt 0.9941406 0.6933594
vt 0.7714844 0.6933594
vt 0.5053711 0.1320801
vt 0.5053711 0.6132813
vt 0.5649414 0.6132813
vt 0.5649414 0.1350098
vt 0.9941406 0.6933594
vt 0.7714844 0.6933594
vt 0.7714844 0.7182617
vt 0.9941406 0.7182617
vt 0.4824219 0.0112381
vt 0.2614746 0.0112381
vt 0.2614746 0.565918
vt 0.4824219 0.565918
vt 0.2614746 0.0112381
vt 0.2614746 0.565918
vt 0.4824219 0.565918
vt 0.4824219 0.0112381
vt 0.5053711 0.5043945
vt 0.5649414 0.5180664
vt 0.5649414 0.04348755
vt 0.5053711 0.04879761
vt 0.7714844 0.7182617
vt 0.9941406 0.7182617
vt 0.9941406 0.6933594
vt 0.7714844 0.6933594
vt 0.6137695 0.9912109
vt 0.6733398 0.9912109
vt 0.6733398 0.6591797
vt 0.6137695 0.6591797
vt 0.01657104 0.6337891
vt 0.01657104 0.7246094
vt 0.5717773 0.7246094
vt 0.5717773 0.6337891
vt 0.7714844 0.7182617
vt 0.8706055 0.7182617
vt 0.7714844 0.6933594
vt 0.9941406 0.6933594
vt 0.9941406 0.7182617
vt 0.7490234 0.9912109
vt 0.7490234 0.6889648
vt 0.6894531 0.6894531
vt 0.6894531 0.9912109
vt 0.5717773 0.6337891
vt 0.01657104 0.6337891
vt 0.5717773 0.6884766
vt 0.5717773 0.7246094
vt 0.01657104 0.7246094
vn -0.007099152 0.5131836 -0.8583984
vn 0.1876221 0.7060547 0.6831055
vn 0.1793213 0.5307617 0.8286133
vn -0.04275513 0.3134766 -0.9487305
vn -0.145752 -0.6665039 -0.730957
vn -0.1411133 -0.5522461 -0.8212891
vn -0.145752 -0.6665039 -0.730957
vn 0.0793457 -0.3029785 0.949707
vn -0.1411133 -0.5522461 -0.8212891
vn 0.05227661 -0.4553223 0.8886719
vn 0.1793213 0.5307617 0.8286133
vn 0.1876221 0.7060547 0.6831055
vn 0.7426758 -0.6103516 -0.2751465
vn 0.847168 -0.4987793 0.182251
vn 0.8012695 -0.597168 -0.04049683
vn 0.8334961 -0.5517578 0.03198242
vn -0.9272461 0.2685547 0.2607422
vn -0.777832 0.5224609 -0.3486328
vn -0.8330078 0.5097656 0.2156982
vn -0.9404297 0.3051758 -0.1508789
vn -0.1411133 0.4260254 -0.8935547
vn 0.03964233 0.4626465 0.8857422
vn 0.0267334 0.5375977 0.8427734
vn -0.147583 0.5444336 -0.8256836
vn -0.03167725 -0.4912109 -0.8706055
vn -0.02223206 -0.543457 -0.8393555
vn -0.03167725 -0.4912109 -0.8706055
vn 0.15271 -0.5839844 0.7973633
vn -0.02223206 -0.543457 -0.8393555
vn 0.1491699 -0.512207 0.8457031
vn 0.0267334 0.5375977 0.8427734
vn 0.03964233 0.4626465 0.8857422
vn 0.9223633 0.3640137 0.1309814
vn 0.875 0.4433594 -0.194458
vn 0.9487305 0.2932129 0.1173706
vn 0.9135742 0.3986816 -0.07946777
vn -0.9038086 -0.3579102 0.2352295
vn -0.9990234 -0.04418945 0.01657104
vn -0.9707031 -0.1934814 0.1422119
vn -0.9702148 -0.2277832 0.08233643
vn -0.5732422 0.2902832 -0.7661133
vn 0.9916992 -0.03222656 -0.1240845
vn 0.9946289 -0.04144287 -0.09631348
vn -0.5810547 0.2890625 -0.7607422
vn -0.9916992 0.03222656 0.1240845
vn -0.9946289 0.04144287 0.09631348
vn 0.9946289 -0.04144287 -0.09631348
vn 0.9916992 -0.03222656 -0.1240845
vn 0.5810547 -0.2890625 0.7607422
vn 0.5732422 -0.2902832 0.7661133
vn -0.9916992 0.03222656 0.1240845
vn -0.9946289 0.04144287 0.09631348
vn 0.05651855 0.9628906 0.2646484
vn 0.05654907 0.9628906 0.2646484
vn 0.05654907 0.9628906 0.2646484
vn 0.05651855 0.9628906 0.2646484
vn -0.05654907 -0.9628906 -0.2646484
vn -0.05651855 -0.9628906 -0.2646484
vn -0.05651855 -0.9628906 -0.2646484
vn -0.05654907 -0.9628906 -0.2646484
vn 0.9072266 0.2785645 -0.3146973
vn -0.8085938 0.2526855 -0.5317383
vn -0.8076172 0.2536621 -0.5327148
vn 0.9121094 0.2731934 -0.3054199
vn 0.8085938 -0.2526855 0.53125
vn 0.8076172 -0.2536621 0.5327148
vn 0.8085938 -0.2526855 0.53125
vn -0.9121094 -0.2731934 0.3054199
vn 0.8076172 -0.2536621 0.5327148
vn -0.9072266 -0.2785645 0.3146973
vn -0.8076172 0.2536621 -0.5327148
vn -0.8085938 0.2526855 -0.5317383
vn -0.05856323 0.84375 0.5332031
vn -0.05856323 0.84375 0.5332031
vn -0.05856323 0.84375 0.5332031
vn -0.05856323 0.84375 0.5332031
vn 0.05856323 -0.84375 -0.5332031
vn 0.05856323 -0.84375 -0.5332031
vn 0.05856323 -0.84375 -0.5332031
vn 0.05856323 -0.84375 -0.5332031
vn -0.02705383 -0.9604492 0.2768555
vn -0.02705383 -0.9604492 0.2768555
vn -0.02705383 -0.9604492 0.2768555
vn -0.02705383 -0.9604492 0.2768555
vn -0.90625 0.1580811 0.3925781
vn -0.9057617 0.2327881 0.3544922
vn -0.9057617 0.2327881 0.3544922
vn -0.90625 0.1580811 0.3925781
vn -0.1525879 0.9814453 0.1152954
vn -0.08782959 0.9931641 -0.07501221
vn 0.04473877 0.9873047 -0.1513672
vn 0.4001465 0.8769531 0.2666016
vn 0.9956055 -0.01016235 0.09124756
vn 0.9702148 0.0009832382 0.241333
vn 0.9702148 0.0009832382 0.241333
vn 0.9956055 -0.01016235 0.09124756
vn 0.0791626 0.2751465 0.9580078
vn 0.05282593 0.2805176 0.9584961
vn 0.090271 0.2944336 0.9511719
vn 0.0791626 0.2751465 0.9580078
vn -0.08642578 -0.2727051 -0.9580078
vn -0.08178711 -0.2905273 -0.953125
vn -0.08178711 -0.2905273 -0.953125
vn -0.08642578 -0.2727051 -0.9580078
vn -0.9331055 0.2993164 0.1989746
vn -0.9331055 0.2993164 0.1989746
vn -0.9331055 0.2993164 0.1989746
vn -0.9331055 0.2993164 0.1989746
vn 0.1959229 0.9804688 -0.02323914
vn 0.01174927 0.9995117 0.01895142
vn 0.01174927 0.9995117 0.01895142
vn 0.1959229 0.9804688 -0.02323914
vn 0.9150391 0.2489014 0.3178711
vn 0.9150391 0.2489014 0.3178711
vn 0.9150391 0.2489014 0.3178711
vn 0.9150391 0.2489014 0.3178711
vn -0.1174927 -0.8847656 0.4506836
vn -0.03424072 -0.8320313 0.5532227
vn -0.03424072 -0.8320313 0.5532227
vn -0.1174927 -0.8847656 0.4506836
vn 0.116394 0.3095703 0.9438477
vn -0.1265869 0.3110352 0.9418945
vn -0.1265869 0.3110352 0.9418945
vn 0.116394 0.3095703 0.9438477
vn -0.09674072 -0.2485352 -0.9638672
vn 0.1391602 -0.2393799 -0.9609375
vn 0.1391602 -0.2393799 -0.9609375
vn -0.09674072 -0.2485352 -0.9638672
vn 0.04019165 -0.8925781 0.4489746
vn 0.04019165 -0.8925781 0.4489746
vn 0.04019165 -0.8925781 0.4489746
vn 0.04019165 -0.8925781 0.4489746
vn -0.949707 -0.119751 0.2897949
vn -0.9189453 -0.08312988 0.3859863
vn -0.9189453 -0.08312988 0.3859863
vn -0.949707 -0.119751 0.2897949
vn 0.1916504 0.9404297 0.28125
vn -0.3466797 0.8974609 0.2724609
vn -0.2888184 0.9536133 0.08496094
vn -0.1199341 0.9912109 -0.05245972
vn -0.0637207 -0.3210449 -0.9448242
vn -0.0637207 -0.3210449 -0.9448242
vn -0.003929138 -0.4272461 -0.9042969
vn -0.003929138 -0.4272461 -0.9042969
vn 0.06640625 0.3005371 0.9516602
vn 0.0993042 0.3764648 0.9208984
vn 0.2128906 0.5424805 0.8125
vn 0.06640625 0.3005371 0.9516602
vn 0.7543945 0.5688477 0.3273926
vn 0.8149414 0.5239258 0.248291
vn 0.9394531 0.2851563 0.19104
vn 0.9394531 0.2851563 0.19104
vn 0.02458191 -0.9614258 0.2746582
vn 0.02458191 -0.9614258 0.2746582
vn 0.02458191 -0.9614258 0.2746582
vn 0.02458191 -0.9614258 0.2746582
vn -0.7314453 0.1425781 0.6669922
vn -0.6933594 0.1586914 0.703125
vn -0.987793 -0.05740356 0.1448975
vn -0.9916992 -0.06970215 0.1088257
vn 0.1040649 0.2612305 0.9594727
vn 0.1040649 0.2612305 0.9594727
vn 0.1040649 0.2612305 0.9594727
vn 0.1040649 0.2612305 0.9594727
vn 0.04138184 0.909668 0.4128418
vn 0.1900635 0.8422852 0.5039063
vn 0.1081543 0.8710938 0.479248
vn 0.3085938 0.8671875 0.3903809
vn 0.4821777 0.8720703 0.08514404
vn 0.9951172 0.03445435 -0.09136963
vn 0.9951172 0.03445435 -0.09136963
vn 0.9951172 0.03445435 -0.09136963
vn 0.9951172 0.03445435 -0.09136963
vn -0.1431885 -0.3000488 -0.9433594
vn -0.1115112 -0.2497559 -0.9619141
vn -0.1431885 -0.3000488 -0.9433594
vn -0.1115112 -0.2497559 -0.9619141
vn -0.1115112 -0.2497559 -0.9619141
g f010v001_m_0
f 3/3/3 2/2/2 1/1/1
f 4/4/4 3/3/3 1/1/1
f 5/5/5 4/4/4 1/1/1
f 6/6/6 5/5/5 1/1/1
f 9/9/9 8/8/8 7/7/7
f 8/8/8 10/10/10 7/7/7
f 11/11/11 10/10/10 8/8/8
f 12/12/12 11/11/11 8/8/8
f 15/15/15 14/14/14 13/13/13
f 14/14/14 15/15/15 16/16/16
f 19/19/19 18/18/18 17/17/17
f 18/18/18 20/20/20 17/17/17
f 23/23/23 22/22/22 21/21/21
f 24/24/24 23/23/23 21/21/21
f 25/25/25 24/24/24 21/21/21
f 26/26/26 25/25/25 21/21/21
f 29/29/29 28/28/28 27/27/27
f 28/28/28 30/30/30 27/27/27
f 31/31/31 30/30/30 28/28/28
f 32/32/32 31/31/31 28/28/28
f 35/35/35 34/34/34 33/33/33
f 34/34/34 35/35/35 36/36/36
f 39/39/39 38/38/38 37/37/37
f 38/38/38 40/40/40 37/37/37
f 43/43/43 42/42/42 41/41/41
f 44/44/44 43/43/43 41/41/41
f 44/44/44 41/41/41 45/45/45
f 41/41/41 46/46/46 45/45/45
f 49/49/49 48/48/48 47/47/47
f 50/50/50 49/49/49 47/47/47
f 50/50/50 51/51/51 49/49/49
f 51/51/51 52/52/52 49/49/49
f 55/55/55 54/54/54 53/53/53
f 54/54/54 55/55/55 56/56/56
f 59/59/59 58/58/58 57/57/57
f 58/58/58 60/60/60 57/57/57
f 63/63/63 62/62/62 61/61/61
f 64/64/64 63/63/63 61/61/61
f 65/65/65 64/64/64 61/61/61
f 66/66/66 65/65/65 61/61/61
f 69/69/69 68/68/68 67/67/67
f 68/68/68 70/70/70 67/67/67
f 71/71/71 70/70/70 68/68/68
f 72/72/72 71/71/71 68/68/68
f 75/75/75 74/74/74 73/73/73
f 74/74/74 75/75/75 76/76/76
f 79/79/79 78/78/78 77/77/77
f 80/80/80 79/79/79 77/77/77
f 83/83/83 82/82/82 81/81/81
f 84/84/84 83/83/83 81/81/81
f 87/87/87 86/86/86 85/85/85
f 88/88/88 87/87/87 85/85/85
f 91/91/91 90/90/90 89/89/89
f 92/92/92 91/91/91 89/89/89
f 95/95/95 94/94/94 93/93/93
f 96/96/96 95/95/95 93/93/93
f 99/99/99 98/98/98 97/97/97
f 100/100/100 99/99/99 97/97/97
f 103/103/103 102/102/102 101/101/101
f 104/104/104 103/103/103 101/101/101
f 107/107/107 106/106/106 105/105/105
f 108/108/108 107/107/107 105/105/105
f 111/111/111 110/110/110 109/109/109
f 112/112/112 111/111/111 109/109/109
f 115/115/115 114/114/114 113/113/113
f 116/116/116 115/115/115 113/113/113
f 119/119/119 118/118/118 117/117/117
f 120/120/120 119/119/119 117/117/117
f 123/123/123 122/122/122 121/121/121
f 124/124/124 123/123/123 121/121/121
f 127/127/127 126/126/126 125/125/125
f 128/128/128 127/127/127 125/125/125
f 131/131/131 130/130/130 129/129/129
f 132/132/132 131/131/131 129/129/129
f 135/135/135 134/134/134 133/133/133
f 136/136/136 135/135/135 133/133/133
f 139/139/139 138/138/138 137/137/137
f 140/140/140 139/139/139 137/137/137
f 143/143/143 142/142/142 141/141/141
f 144/144/144 143/143/143 141/141/141
f 147/147/147 146/146/146 145/145/145
f 148/148/148 147/147/147 145/145/145
f 151/151/151 150/150/150 149/149/149
f 152/152/152 151/151/151 149/149/149
f 155/155/155 154/154/154 153/153/153
f 156/156/156 155/155/155 153/153/153
f 159/159/159 158/158/158 157/157/157
f 159/159/159 157/157/157 160/160/160
f 163/163/163 162/162/162 161/161/161
f 164/164/164 163/163/163 161/161/161
f 167/167/167 166/166/166 165/165/165
f 167/167/167 168/168/168 166/166/166
f 168/168/168 169/169/169 166/166/166
f 172/172/172 171/171/171 170/170/170
f 173/173/173 172/172/172 170/170/170
f 176/176/176 175/175/175 174/174/174
f 176/176/176 177/177/177 175/175/175
f 177/177/177 178/178/178 175/175/175
