#
# OBJECT NAME
#
o model_1745
mtllib 1745.mtl

#
# VERTEX BUFFER 000
#
v -0.0432668 -0.00116222 0.0316577
v -0.0116091 -0.00116222 0.0447715
v -0.0136288 0.124842 0.0392734
v -0.0413598 0.12328 0.0277671
v 0.0025047 -0.00116222 0.0316577
v -0.00126394 0.125538 0.027772
v 0 -0.00116222 0
v -0.00345908 0.125415 0
v 0 -0.00116222 0
v 0.0025047 -0.00116222 -0.0316577
v -0.00126394 0.125538 -0.027772
v -0.00345908 0.125415 0
v -0.0116091 -0.00116222 -0.0447705
v -0.0136288 0.124842 -0.0392734
v -0.0432668 -0.00116222 -0.0316577
v -0.0413598 0.12328 -0.0277671
v -0.0563796 -0.00116222 0
v -0.0528444 0.122634 0
v 0.0025047 -0.00116222 0.0316577
v -0.0116091 -0.00116222 0.0447715
v -0.0432668 -0.00116222 0.0316577
v 0 -0.00116222 0
v -0.0116091 -0.00116222 -0.0447705
v 0.0025047 -0.00116222 -0.0316577
v -0.0432668 -0.00116222 -0.0316577
v -0.0563796 -0.00116222 0
v -0.113788 0.50634 0.00516938
v -0.108978 0.507961 0.00729158
v -0.111354 0.512673 0
v -0.106739 0.508716 0.00520007
v -0.111354 0.512673 0
v -0.107013 0.508623 0
v -0.111354 0.512673 0
v -0.107013 0.508623 0
v -0.106739 0.508716 -0.00520018
v -0.111354 0.512673 0
v -0.108978 0.507961 -0.00729169
v -0.111354 0.512673 0
v -0.113788 0.50634 -0.00516846
v -0.111354 0.512673 0
v -0.115817 0.505656 0
v -0.111354 0.512673 0
v -0.111354 0.512673 0
v -0.025821 0.25822 0.0351415
v -0.0498988 0.254151 0.024856
v -0.0145799 0.260114 0.0250877
v -0.0159591 0.259881 0
v -0.0145799 0.260114 -0.0250877
v -0.0159591 0.259881 0
v -0.025821 0.25822 -0.0351416
v -0.0498988 0.254151 -0.0248561
v -0.060022 0.252435 0
v -0.059161 0.387317 0.0262021
v -0.0765726 0.381873 0.0185739
v -0.051058 0.38985 0.0186874
v -0.0520516 0.38954 0
v -0.051058 0.38985 -0.0186865
v -0.0520516 0.38954 0
v -0.059161 0.387317 -0.0262023
v -0.0765726 0.381873 -0.0185729
v -0.0839153 0.379577 0
v 0.0357546 0 -0.039763
v -0.00400934 0 -0.053328
v 0.000452404 0.107479 -0.0440192
v 0.0315335 0.106135 -0.0311227
v -0.0141027 0 -0.0465901
v -0.00961149 0.108078 -0.0404928
v -0.0139094 0 0
v -0.0109463 0.107972 0
v -0.0139094 0 0
v -0.0141027 0 0.0465901
v -0.00961149 0.108078 0.0404927
v -0.0109463 0.107972 0
v -0.00400934 0 0.0533289
v 0.000452404 0.107479 0.0440192
v 0.0357546 0 0.0397639
v 0.0315335 0.106135 0.0311236
v 0.0522248 0 0
v 0.0444051 0.105578 0
v 0.0357546 0 0.0397639
v -0.0139094 0 0
v 0.0357546 0 -0.039763
v 0.0522248 0 0
v 0.0837728 0.44803 -0.00512446
v 0.0784325 0.449904 -0.00722927
v 0.0812689 0.453706 0
v 0.075947 0.450776 -0.00515618
v 0.0812689 0.453706 0
v 0.0762509 0.450668 0
v 0.0812689 0.453706 0
v 0.0762509 0.450668 0
v 0.075947 0.450776 0.00515607
v 0.0812689 0.453706 0
v 0.0784325 0.449904 0.00722917
v 0.0812689 0.453706 0
v 0.0837728 0.44803 0.00512435
v 0.0812689 0.453706 0
v 0.0860249 0.44724 0
v 0.0812689 0.453706 0
v 0.0812689 0.453706 0
v 0.0133537 0.227099 -0.0346078
v 0.0398355 0.222396 -0.0244691
v 0.000981839 0.229287 -0.0247118
v 0.00249972 0.229019 0
v 0.000981839 0.229287 0.0247117
v 0.00249972 0.229019 0
v 0.0133537 0.227099 0.0346077
v 0.0398355 0.222396 0.0244691
v 0.0509627 0.220413 0
v 0.0414461 0.337996 -0.0228506
v 0.061327 0.333869 -0.0161638
v 0.0321654 0.339916 -0.0163123
v 0.0333035 0.339681 0
v 0.0321654 0.339916 0.0163132
v 0.0333035 0.339681 0
v 0.0414461 0.337996 0.0228505
v 0.061327 0.333869 0.0161637
v 0.0696851 0.33213 0
v -0.00400934 0 0.0533289
v -0.0141027 0 0.0465901
v -0.0141027 0 -0.0465901
v -0.00400934 0 -0.053328

vn -0.680664 -0.255127 0.686035
vn 0.00397491 -0.198242 0.97998
vn 0.0117264 0.0381165 0.999023
vn -0.702637 0.00265312 0.710938
vn 0.941406 -0.227051 0.248291
vn 0.965332 0.0666504 0.250732
vn 0.946777 -0.321289 0
vn 0.998047 0.0602112 0
vn 0.946777 -0.321289 0
vn 0.941406 -0.227051 -0.248291
vn 0.965332 0.0666504 -0.250732
vn 0.998047 0.0602112 0
vn 0.00397491 -0.198242 -0.97998
vn 0.0117264 0.0381165 -0.999023
vn -0.680664 -0.255127 -0.686035
vn -0.702637 0.00265121 -0.710938
vn -0.947266 -0.319336 0
vn -0.999512 -0.0116806 0
vn 0.941406 -0.227051 0.248291
vn 0.00397491 -0.198242 0.97998
vn -0.680664 -0.255127 0.686035
vn 0.946777 -0.321289 0
vn 0.00397491 -0.198242 -0.97998
vn 0.941406 -0.227051 -0.248291
vn -0.680664 -0.255127 -0.686035
vn -0.947266 -0.319336 0
vn -0.709473 -0.12915 0.692383
vn -0.0605469 0.137817 0.988281
vn -0.352539 0.935547 -4.94719e-006
vn 0.860352 0.437988 0.259033
vn -0.352539 0.935547 -4.94719e-006
vn 0.90625 0.422363 0
vn -0.352539 0.935547 -4.94719e-006
vn 0.90625 0.422363 0
vn 0.860352 0.437988 -0.259033
vn -0.352539 0.935547 -4.94719e-006
vn -0.0605774 0.137817 -0.988281
vn -0.352539 0.935547 -4.94719e-006
vn -0.709473 -0.12915 -0.692383
vn -0.352539 0.935547 -4.94719e-006
vn -0.971191 -0.237549 -5.36442e-007
vn -0.352539 0.935547 -4.94719e-006
vn -0.352539 0.935547 -4.94719e-006
vn 0.0157166 0.0498352 0.998535
vn -0.695313 -0.0653687 0.714844
vn 0.94873 0.177368 0.260498
vn 0.984375 0.173828 0
vn 0.94873 0.177368 -0.260498
vn 0.984375 0.173828 0
vn 0.0157166 0.0498352 -0.998535
vn -0.695313 -0.0653687 -0.714844
vn -0.993164 -0.113342 0
vn -0.00828552 0.0943604 0.995117
vn -0.693848 -0.117126 0.709961
vn 0.90625 0.327881 0.266602
vn 0.946777 0.321533 0
vn 0.90625 0.327881 -0.266602
vn 0.946777 0.321533 0
vn -0.00830078 0.0943604 -0.995117
vn -0.693848 -0.117126 -0.709961
vn -0.978516 -0.205688 -1.19209e-007
vn 0.654785 -0.319336 -0.68457
vn 0.162109 -0.304932 -0.937988
vn 0.142334 0.0773315 -0.986328
vn 0.6875 0.0393372 -0.724609
vn -0.931641 -0.29541 -0.209717
vn -0.96582 0.0834961 -0.244995
vn -0.937012 -0.348145 0
vn -0.997559 0.0639038 0
vn -0.937012 -0.348145 0
vn -0.931641 -0.29541 0.209717
vn -0.96582 0.0834961 0.244995
vn -0.997559 0.0639038 0
vn 0.162109 -0.304932 0.937988
vn 0.142334 0.0773315 0.986328
vn 0.654785 -0.319336 0.68457
vn 0.6875 0.0393372 0.724609
vn 0.907715 -0.418945 0
vn 0.999512 0.016571 0
vn 0.654785 -0.319336 0.68457
vn -0.937012 -0.348145 0
vn 0.654785 -0.319336 -0.68457
vn 0.907715 -0.418945 0
vn 0.628906 -0.0401001 -0.775879
vn 0.027771 0.139771 -0.989746
vn 0.374756 0.926758 -5.96046e-007
vn -0.870117 0.382324 -0.309326
vn 0.374756 0.926758 -5.96046e-007
vn -0.929688 0.36792 0
vn 0.374756 0.926758 -5.96046e-007
vn -0.929688 0.36792 0
vn -0.870117 0.382324 0.309326
vn 0.374756 0.926758 -5.96046e-007
vn 0.0277863 0.139771 0.989746
vn 0.374756 0.926758 -5.96046e-007
vn 0.628906 -0.0401001 0.775879
vn 0.374756 0.926758 -5.96046e-007
vn 0.990723 -0.134399 0
vn 0.374756 0.926758 -5.96046e-007
vn 0.374756 0.926758 -5.96046e-007
vn 0.0625 0.0829468 -0.994141
vn 0.664551 -0.032074 -0.746094
vn -0.943848 0.18457 -0.272461
vn -0.986328 0.161987 0
vn -0.943848 0.18457 0.272461
vn -0.986328 0.161987 0
vn 0.0625 0.0829468 0.994141
vn 0.664551 -0.032074 0.746094
vn 0.995117 -0.0960083 0
vn 0.022934 0.108093 -0.993652
vn 0.643555 -0.0623169 -0.762207
vn -0.895508 0.312744 -0.31543
vn -0.953613 0.300781 0
vn -0.895508 0.312744 0.31543
vn -0.953613 0.300781 0
vn 0.0229492 0.108093 0.993652
vn 0.643555 -0.0623169 0.762207
vn 0.987793 -0.153931 0
vn 0.162109 -0.304932 0.937988
vn -0.931641 -0.29541 0.209717
vn -0.931641 -0.29541 -0.209717
vn 0.162109 -0.304932 -0.937988

vt 0.188602 0.217768
vt 0.220412 0.217768
vt 0.220412 0.350414
vt 0.188602 0.350414
vt 0.238647 0.217768
vt 0.238647 0.350414
vt 0.268932 0.217768
vt 0.268932 0.350414
vt 0.0438205 0.217768
vt 0.0741047 0.217768
vt 0.0741047 0.350414
vt 0.0438205 0.350414
vt 0.0923403 0.217768
vt 0.0923403 0.350414
vt 0.124152 0.217768
vt 0.124152 0.350414
vt 0.156375 0.217768
vt 0.156375 0.350414
vt 0.0208883 0.0501713
vt 0.0485005 0.0243796
vt 0.110656 0.0499347
vt 0.0259642 0.112246
vt 0.0489634 0.19999
vt 0.0212156 0.174345
vt 0.110983 0.174109
vt 0.136536 0.111954
vt 0.188602 0.971602
vt 0.220412 0.971602
vt 0.200165 0.986526
vt 0.238647 0.971602
vt 0.245116 0.985859
vt 0.268932 0.971602
vt 0.26984 0.982284
vt 0.0438205 0.971602
vt 0.0741047 0.971602
vt 0.0429126 0.982284
vt 0.0923403 0.971602
vt 0.0676356 0.985859
vt 0.124152 0.971602
vt 0.112593 0.986525
vt 0.156375 0.971602
vt 0.142113 0.98589
vt 0.170634 0.985891
vt 0.220412 0.498516
vt 0.188602 0.498516
vt 0.238647 0.498516
vt 0.268932 0.498516
vt 0.0741047 0.498516
vt 0.0438205 0.498516
vt 0.0923403 0.498516
vt 0.124152 0.498516
vt 0.156375 0.498516
vt 0.220412 0.687628
vt 0.188602 0.687628
vt 0.238647 0.687628
vt 0.268932 0.687628
vt 0.0741047 0.687628
vt 0.0438205 0.687628
vt 0.0923403 0.687628
vt 0.124152 0.687628
vt 0.156375 0.687628
vt 0.194134 0.282189
vt 0.230055 0.282189
vt 0.230055 0.381569
vt 0.194134 0.381569
vt 0.247437 0.282189
vt 0.247437 0.381569
vt 0.279022 0.282189
vt 0.279022 0.381569
vt 0.0426068 0.282189
vt 0.0741924 0.282189
vt 0.0741924 0.381569
vt 0.0426068 0.381569
vt 0.0915743 0.282189
vt 0.0915743 0.381569
vt 0.127495 0.282189
vt 0.127495 0.381569
vt 0.160815 0.282189
vt 0.160815 0.381569
vt 0.180195 0.0332747
vt 0.279214 0.109195
vt 0.183473 0.189209
vt 0.14954 0.111922
vt 0.194134 0.936108
vt 0.230055 0.936108
vt 0.207158 0.950465
vt 0.247437 0.936108
vt 0.247463 0.950883
vt 0.279022 0.936108
vt 0.28044 0.946976
vt 0.0426068 0.936108
vt 0.0741924 0.936108
vt 0.0411884 0.946976
vt 0.0915743 0.936108
vt 0.0741667 0.950883
vt 0.127495 0.936108
vt 0.114471 0.950465
vt 0.160815 0.936108
vt 0.144321 0.950057
vt 0.177309 0.950057
vt 0.230055 0.532198
vt 0.194134 0.532198
vt 0.247437 0.532198
vt 0.279022 0.532198
vt 0.0741924 0.532198
vt 0.0426068 0.532198
vt 0.0915743 0.532198
vt 0.127495 0.532198
vt 0.160815 0.532198
vt 0.230055 0.703236
vt 0.194134 0.703236
vt 0.247437 0.703236
vt 0.279022 0.703236
vt 0.0741924 0.703236
vt 0.0426068 0.703236
vt 0.0915743 0.703236
vt 0.127495 0.703236
vt 0.160815 0.703236
vt 0.257603 0.00503755
vt 0.277672 0.0178344
vt 0.281514 0.20054
vt 0.262001 0.214168


#
# MESH 000
#
g surface_000
usemtl surface_000
f 82/82/82 121/121/121 122/122/122
f 82/82/82 81/81/81 121/121/121
f 80/80/80 81/81/81 82/82/82
f 80/80/80 120/120/120 81/81/81
f 80/80/80 119/119/119 120/120/120
f 80/80/80 82/82/82 83/83/83
f 98/98/98 84/84/84 100/100/100
f 118/118/118 84/84/84 98/98/98
f 118/118/118 111/111/111 84/84/84
f 111/111/111 85/85/85 84/84/84
f 84/84/84 85/85/85 86/86/86
f 117/117/117 118/118/118 98/98/98
f 108/108/108 118/118/118 117/117/117
f 108/108/108 109/109/109 118/118/118
f 109/109/109 111/111/111 118/118/118
f 109/109/109 102/102/102 111/111/111
f 102/102/102 110/110/110 111/111/111
f 111/111/111 110/110/110 85/85/85
f 110/110/110 87/87/87 85/85/85
f 85/85/85 87/87/87 88/88/88
f 117/117/117 98/98/98 96/96/96
f 116/116/116 117/117/117 96/96/96
f 107/107/107 117/117/117 116/116/116
f 107/107/107 108/108/108 117/117/117
f 75/75/75 108/108/108 107/107/107
f 75/75/75 77/77/77 108/108/108
f 77/77/77 109/109/109 108/108/108
f 77/77/77 79/79/79 109/109/109
f 79/79/79 102/102/102 109/109/109
f 96/96/96 98/98/98 99/99/99
f 94/94/94 96/96/96 97/97/97
f 116/116/116 96/96/96 94/94/94
f 114/114/114 116/116/116 94/94/94
f 105/105/105 116/116/116 114/114/114
f 105/105/105 107/107/107 116/116/116
f 72/72/72 107/107/107 105/105/105
f 72/72/72 75/75/75 107/107/107
f 71/71/71 75/75/75 72/72/72
f 71/71/71 74/74/74 75/75/75
f 74/74/74 77/77/77 75/75/75
f 74/74/74 76/76/76 77/77/77
f 76/76/76 79/79/79 77/77/77
f 114/114/114 94/94/94 92/92/92
f 115/115/115 114/114/114 92/92/92
f 106/106/106 114/114/114 115/115/115
f 106/106/106 105/105/105 114/114/114
f 73/73/73 105/105/105 106/106/106
f 73/73/73 72/72/72 105/105/105
f 70/70/70 72/72/72 73/73/73
f 70/70/70 71/71/71 72/72/72
f 92/92/92 94/94/94 95/95/95
f 115/115/115 92/92/92 91/91/91
f 91/91/91 92/92/92 93/93/93
f 76/76/76 78/78/78 79/79/79
f 78/78/78 65/65/65 79/79/79
f 79/79/79 65/65/65 102/102/102
f 65/65/65 101/101/101 102/102/102
f 102/102/102 101/101/101 110/110/110
f 101/101/101 112/112/112 110/110/110
f 110/110/110 112/112/112 87/87/87
f 78/78/78 62/62/62 65/65/65
f 62/62/62 64/64/64 65/65/65
f 65/65/65 64/64/64 101/101/101
f 64/64/64 103/103/103 101/101/101
f 101/101/101 103/103/103 112/112/112
f 103/103/103 113/113/113 112/112/112
f 112/112/112 113/113/113 89/89/89
f 112/112/112 89/89/89 87/87/87
f 87/87/87 89/89/89 90/90/90
f 62/62/62 63/63/63 64/64/64
f 63/63/63 67/67/67 64/64/64
f 64/64/64 67/67/67 103/103/103
f 67/67/67 104/104/104 103/103/103
f 103/103/103 104/104/104 113/113/113
f 63/63/63 66/66/66 67/67/67
f 66/66/66 69/69/69 67/67/67
f 67/67/67 69/69/69 104/104/104
f 66/66/66 68/68/68 69/69/69
f 41/41/41 27/27/27 43/43/43
f 61/61/61 27/27/27 41/41/41
f 61/61/61 54/54/54 27/27/27
f 54/54/54 28/28/28 27/27/27
f 27/27/27 28/28/28 29/29/29
f 60/60/60 61/61/61 41/41/41
f 51/51/51 61/61/61 60/60/60
f 51/51/51 52/52/52 61/61/61
f 52/52/52 54/54/54 61/61/61
f 52/52/52 45/45/45 54/54/54
f 45/45/45 53/53/53 54/54/54
f 54/54/54 53/53/53 28/28/28
f 53/53/53 30/30/30 28/28/28
f 28/28/28 30/30/30 31/31/31
f 60/60/60 41/41/41 39/39/39
f 59/59/59 60/60/60 39/39/39
f 50/50/50 60/60/60 59/59/59
f 50/50/50 51/51/51 60/60/60
f 14/14/14 51/51/51 50/50/50
f 14/14/14 16/16/16 51/51/51
f 16/16/16 52/52/52 51/51/51
f 16/16/16 18/18/18 52/52/52
f 18/18/18 45/45/45 52/52/52
f 39/39/39 41/41/41 42/42/42
f 37/37/37 39/39/39 40/40/40
f 59/59/59 39/39/39 37/37/37
f 57/57/57 59/59/59 37/37/37
f 48/48/48 59/59/59 57/57/57
f 48/48/48 50/50/50 59/59/59
f 11/11/11 50/50/50 48/48/48
f 11/11/11 14/14/14 50/50/50
f 10/10/10 14/14/14 11/11/11
f 10/10/10 13/13/13 14/14/14
f 13/13/13 16/16/16 14/14/14
f 13/13/13 15/15/15 16/16/16
f 15/15/15 18/18/18 16/16/16
f 57/57/57 37/37/37 35/35/35
f 58/58/58 57/57/57 35/35/35
f 49/49/49 57/57/57 58/58/58
f 49/49/49 48/48/48 57/57/57
f 12/12/12 48/48/48 49/49/49
f 12/12/12 11/11/11 48/48/48
f 9/9/9 11/11/11 12/12/12
f 9/9/9 10/10/10 11/11/11
f 35/35/35 37/37/37 38/38/38
f 58/58/58 35/35/35 34/34/34
f 34/34/34 35/35/35 36/36/36
f 15/15/15 17/17/17 18/18/18
f 17/17/17 4/4/4 18/18/18
f 18/18/18 4/4/4 45/45/45
f 4/4/4 44/44/44 45/45/45
f 45/45/45 44/44/44 53/53/53
f 44/44/44 55/55/55 53/53/53
f 53/53/53 55/55/55 30/30/30
f 17/17/17 1/1/1 4/4/4
f 1/1/1 3/3/3 4/4/4
f 4/4/4 3/3/3 44/44/44
f 3/3/3 46/46/46 44/44/44
f 44/44/44 46/46/46 55/55/55
f 46/46/46 56/56/56 55/55/55
f 55/55/55 56/56/56 32/32/32
f 55/55/55 32/32/32 30/30/30
f 30/30/30 32/32/32 33/33/33
f 1/1/1 2/2/2 3/3/3
f 2/2/2 6/6/6 3/3/3
f 3/3/3 6/6/6 46/46/46
f 6/6/6 47/47/47 46/46/46
f 46/46/46 47/47/47 56/56/56
f 2/2/2 5/5/5 6/6/6
f 5/5/5 8/8/8 6/6/6
f 6/6/6 8/8/8 47/47/47
f 5/5/5 7/7/7 8/8/8
f 25/25/25 21/21/21 26/26/26
f 25/25/25 22/22/22 21/21/21
f 19/19/19 21/21/21 22/22/22
f 19/19/19 20/20/20 21/21/21
f 23/23/23 22/22/22 25/25/25
f 23/23/23 24/24/24 22/22/22

