g r013v001_m
v 0 0.4681803 -0.4174647
v -0.1298632 0.2019415 -0.1298632
v 0 0.2019415 -0.1901329
v -0.2087324 0.4681803 -0.3615352
v -0.3615352 0.4681803 -0.2087324
v -0.1901329 0.2019415 0
v -0.4174647 0.4681803 0
v -0.4313675 0.9831725 -0.2490501
v -0.4981003 0.9831725 0
v -0.2490501 0.9831725 -0.4313675
v 0 0.9831725 -0.4981003
v 0.2490501 0.9831725 -0.4313675
v 0.2087324 0.4681803 -0.3615352
v 0 0.2019415 -0.1901329
v 0.4313675 0.9831725 -0.2490501
v 0.1298632 0.2019415 -0.1298632
v 0.3615352 0.4681803 -0.2087324
v 0.4981003 0.9831725 0
v 0.4174647 0.4681803 0
v 0.1901329 0.2019415 0
v 0 0.4681803 0.4174647
v 0.1298632 0.2019415 0.1298632
v 0 0.2019415 0.1901329
v 0.2087324 0.4681803 0.3615352
v 0.3615352 0.4681803 0.2087324
v 0.1901329 0.2019415 0
v 0.4174647 0.4681803 0
v 0.4313675 0.9831725 0.2490501
v 0.4981003 0.9831725 0
v 0.2490501 0.9831725 0.4313675
v 0 0.9831725 0.4981003
v -0.2490501 0.9831725 0.4313675
v -0.2087324 0.4681803 0.3615352
v 0 0.2019415 0.1901329
v -0.4313675 0.9831725 0.2490501
v -0.1298632 0.2019415 0.1298632
v -0.3615352 0.4681803 0.2087324
v -0.4981003 0.9831725 0
v -0.4174647 0.4681803 0
v -0.1901329 0.2019415 0
v 0 0.2019415 0.1901329
v 0.2867693 0 0.2867693
v 0 0 0.4198594
v 0.1298632 0.2019415 0.1298632
v 0.4198594 0 0
v 0.1901329 0.2019415 0
v -0.1298632 0.2019415 0.1298632
v 0 0.2019415 0.1901329
v 0 0 0.4198594
v -0.2867693 0 0.2867693
v -0.1901329 0.2019415 0
v -0.4198594 0 0
v -0.1298632 0.2019415 -0.1298632
v -0.1901329 0.2019415 0
v -0.4198594 0 0
v -0.2867693 0 -0.2867693
v 0 0.2019415 -0.1901329
v 0 0 -0.4198594
v 0.1298632 0.2019415 -0.1298632
v 0 0.2019415 -0.1901329
v 0 0 -0.4198594
v 0.2867693 0 -0.2867693
v 0.1901329 0.2019415 0
v 0.4198594 0 0
v -0.4981003 0.9831725 0
v -0.3952848 0.9989954 -1.224789E-09
v -0.3423267 0.9989954 0.1976424
v -0.4313675 0.9831725 0.2490501
v -0.1976424 0.9989954 0.3423267
v -0.2490501 0.9831725 0.4313675
v -1.224789E-09 0.9989954 0.3952848
v 0 0.9831725 0.4981003
v 0.1976424 0.9989954 0.3423267
v 0.2490501 0.9831725 0.4313675
v 0.3423267 0.9989954 0.1976424
v 0.4313675 0.9831725 0.2490501
v 0.3952848 0.9989954 -1.224789E-09
v 0.4981003 0.9831725 0
v 0.3423267 0.9989954 -0.1976424
v 0.4313675 0.9831725 -0.2490501
v 0.1976424 0.9989954 -0.3423267
v 0.2490501 0.9831725 -0.4313675
v -1.224789E-09 0.9989954 -0.3952848
v 0 0.9831725 -0.4981003
v -0.1976424 0.9989954 -0.3423267
v -0.2490501 0.9831725 -0.4313675
v -0.3423267 0.9989954 -0.1976424
v -0.4313675 0.9831725 -0.2490501
v -0.3952848 0.9989954 -1.224789E-09
v -0.4981003 0.9831725 0
v -0.2867693 0 0.2867693
v 0 0 0.4198594
v 0.2867693 0 0.2867693
v -0.4198594 0 0
v 0.4198594 0 0
v -0.2867693 0 -0.2867693
v 0.2867693 0 -0.2867693
v 0 0 -0.4198594
v -0.3423267 0.9989954 0.1976424
v -0.3952848 0.9989954 -1.224789E-09
v -0.3423267 0.9989954 -0.1976424
v -0.1976424 0.9989954 0.3423267
v -0.1976424 0.9989954 -0.3423267
v -1.224789E-09 0.9989954 -0.3952848
v -1.224789E-09 0.9989954 0.3952848
v 0.1976424 0.9989954 0.3423267
v 0.1976424 0.9989954 -0.3423267
v 0.3423267 0.9989954 0.1976424
v 0.3423267 0.9989954 -0.1976424
v 0.3952848 0.9989954 -1.224789E-09
vt 0.2490234 0.423584
vt 0.3671875 0.137085
vt 0.2954102 0.137085
vt 0.328125 0.423584
vt 0.4055176 0.423584
vt 0.4387207 0.137085
vt 0.4851074 0.423584
vt 0.4055176 0.7641602
vt 0.4851074 0.7641602
vt 0.328125 0.7641602
vt 0.2490234 0.7641602
vt 0.1697998 0.7641602
vt 0.1697998 0.423584
vt 0.2026367 0.137085
vt 0.09246826 0.7641602
vt 0.1308594 0.137085
vt 0.09246826 0.423584
vt 0.01499939 0.7641602
vt 0.01499939 0.423584
vt 0.05917358 0.137085
vt 0.2490234 0.423584
vt 0.3671875 0.137085
vt 0.2954102 0.137085
vt 0.328125 0.423584
vt 0.4055176 0.423584
vt 0.4387207 0.137085
vt 0.4851074 0.423584
vt 0.4055176 0.7641602
vt 0.4851074 0.7641602
vt 0.328125 0.7641602
vt 0.2490234 0.7641602
vt 0.1697998 0.7641602
vt 0.1697998 0.423584
vt 0.2026367 0.137085
vt 0.09246826 0.7641602
vt 0.1308594 0.137085
vt 0.09246826 0.423584
vt 0.01499939 0.7641602
vt 0.01499939 0.423584
vt 0.05917358 0.137085
vt 0.7841797 0.7880859
vt 0.8613281 0.5688477
vt 0.7587891 0.5688477
vt 0.8613281 0.7880859
vt 0.9633789 0.5688477
vt 0.9389648 0.7880859
vt 0.6308594 0.7880859
vt 0.7084961 0.7880859
vt 0.7333984 0.5688477
vt 0.6313477 0.5688477
vt 0.5532227 0.7880859
vt 0.5288086 0.5688477
vt 0.8613281 0.7880859
vt 0.9389648 0.7880859
vt 0.9633789 0.5688477
vt 0.8613281 0.5688477
vt 0.7841797 0.7880859
vt 0.7587891 0.5688477
vt 0.6308594 0.7880859
vt 0.7084961 0.7880859
vt 0.7333984 0.5688477
vt 0.6313477 0.5688477
vt 0.5532227 0.7880859
vt 0.5288086 0.5688477
vt 0.02714539 0.8774414
vt 0.02714539 0.9443359
vt 0.105957 0.9443359
vt 0.105957 0.8774414
vt 0.1833496 0.9443359
vt 0.1833496 0.8774414
vt 0.2624512 0.9443359
vt 0.2624512 0.8774414
vt 0.3417969 0.9443359
vt 0.3417969 0.8774414
vt 0.4189453 0.9443359
vt 0.4189453 0.8774414
vt 0.4978027 0.9443359
vt 0.4978027 0.8774414
vt 0.5766602 0.9443359
vt 0.5766602 0.8774414
vt 0.6542969 0.9443359
vt 0.6542969 0.8774414
vt 0.7333984 0.9443359
vt 0.7333984 0.8774414
vt 0.8125 0.9443359
vt 0.8125 0.8774414
vt 0.8896484 0.9443359
vt 0.8896484 0.8774414
vt 0.96875 0.9443359
vt 0.96875 0.8774414
vt 0.9448242 0.07952881
vt 0.8754883 0.01513672
vt 0.8061523 0.07952881
vt 0.9770508 0.2181396
vt 0.7739258 0.2181396
vt 0.9448242 0.3569336
vt 0.8061523 0.3569336
vt 0.8754883 0.4211426
vt 0.5131836 0.1437988
vt 0.494873 0.2790527
vt 0.5131836 0.4143066
vt 0.5625 0.04483032
vt 0.5625 0.5131836
vt 0.6298828 0.5493164
vt 0.6298828 0.008613586
vt 0.6977539 0.04483032
vt 0.6977539 0.5131836
vt 0.7470703 0.1437988
vt 0.7470703 0.4143066
vt 0.7651367 0.2790527
vn 0 -0.326416 -0.9453125
vn -0.5141602 -0.6865234 -0.5141602
vn 0 -0.6743164 -0.7387695
vn -0.4694824 -0.2988281 -0.8310547
vn -0.8310547 -0.2988281 -0.4694824
vn -0.7387695 -0.6743164 0
vn -0.9453125 -0.326416 0
vn -0.8554688 -0.1546631 -0.4938965
vn -0.987793 -0.1546631 0
vn -0.4938965 -0.1546631 -0.8554688
vn 0 -0.1546631 -0.987793
vn 0.4938965 -0.1546631 -0.8554688
vn 0.4694824 -0.2988281 -0.8310547
vn 0 -0.6743164 -0.7387695
vn 0.8554688 -0.1546631 -0.4938965
vn 0.5141602 -0.6865234 -0.5141602
vn 0.8310547 -0.2988281 -0.4694824
vn 0.987793 -0.1546631 0
vn 0.9453125 -0.326416 0
vn 0.7387695 -0.6743164 0
vn 0 -0.326416 0.9453125
vn 0.5141602 -0.6865234 0.5141602
vn 0 -0.6743164 0.7387695
vn 0.4694824 -0.2988281 0.8310547
vn 0.8310547 -0.2988281 0.4694824
vn 0.7387695 -0.6743164 0
vn 0.9453125 -0.326416 0
vn 0.8554688 -0.1546631 0.4938965
vn 0.987793 -0.1546631 0
vn 0.4938965 -0.1546631 0.8554688
vn 0 -0.1546631 0.987793
vn -0.4938965 -0.1546631 0.8554688
vn -0.4694824 -0.2988281 0.8310547
vn 0 -0.6743164 0.7387695
vn -0.8554688 -0.1546631 0.4938965
vn -0.5141602 -0.6865234 0.5141602
vn -0.8310547 -0.2988281 0.4694824
vn -0.987793 -0.1546631 0
vn -0.9453125 -0.326416 0
vn -0.7387695 -0.6743164 0
vn 0 0.7509766 0.6601563
vn 0.4758301 0.7397461 0.4758301
vn 0 0.7509766 0.6601563
vn 0.4758301 0.7397461 0.4758301
vn 0.6601563 0.7509766 0
vn 0.6601563 0.7509766 0
vn -0.4758301 0.7397461 0.4758301
vn 0 0.7509766 0.6601563
vn 0 0.7509766 0.6601563
vn -0.4758301 0.7397461 0.4758301
vn -0.6601563 0.7509766 0
vn -0.6601563 0.7509766 0
vn -0.4758301 0.7397461 -0.4758301
vn -0.6601563 0.7509766 0
vn -0.6601563 0.7509766 0
vn -0.4758301 0.7397461 -0.4758301
vn 0 0.7509766 -0.6601563
vn 0 0.7509766 -0.6601563
vn 0.4758301 0.7397461 -0.4758301
vn 0 0.7509766 -0.6601563
vn 0 0.7509766 -0.6601563
vn 0.4758301 0.7397461 -0.4758301
vn 0.6601563 0.7509766 0
vn 0.6601563 0.7509766 0
vn -0.1520996 0.9882813 0
vn -0.1520996 0.9882813 0
vn -0.1317139 0.9882813 0.0760498
vn -0.1317139 0.9882813 0.0760498
vn -0.0760498 0.9882813 0.1317139
vn -0.0760498 0.9882813 0.1317139
vn 0 0.9882813 0.1520996
vn 0 0.9882813 0.1520996
vn 0.0760498 0.9882813 0.1317139
vn 0.0760498 0.9882813 0.1317139
vn 0.1317139 0.9882813 0.0760498
vn 0.1317139 0.9882813 0.0760498
vn 0.1520996 0.9882813 0
vn 0.1520996 0.9882813 0
vn 0.1317139 0.9882813 -0.0760498
vn 0.1317139 0.9882813 -0.0760498
vn 0.0760498 0.9882813 -0.1317139
vn 0.0760498 0.9882813 -0.1317139
vn 0 0.9882813 -0.1520996
vn 0 0.9882813 -0.1520996
vn -0.0760498 0.9882813 -0.1317139
vn -0.0760498 0.9882813 -0.1317139
vn -0.1317139 0.9882813 -0.0760498
vn -0.1317139 0.9882813 -0.0760498
vn -0.1520996 0.9882813 0
vn -0.1520996 0.9882813 0
vn 0 -1 0
vn 0 -1 0
vn 0 -1 0
vn 0 -1 0
vn 0 -1 0
vn 0 -1 0
vn 0 -1 0
vn 0 -1 0
vn 0 1 0
vn 0 1 0
vn 0 1 0
vn 0 1 0
vn 0 1 0
vn 0 1 0
vn 0 1 0
vn 0 1 0
vn 0 1 0
vn 0 1 0
vn 0 1 0
vn 0 1 0
g r013v001_m_0
f 3/3/3 2/2/2 1/1/1
f 2/2/2 4/4/4 1/1/1
f 2/2/2 5/5/5 4/4/4
f 2/2/2 6/6/6 5/5/5
f 6/6/6 7/7/7 5/5/5
f 5/5/5 7/7/7 8/8/8
f 7/7/7 9/9/9 8/8/8
f 5/5/5 8/8/8 10/10/10
f 4/4/4 5/5/5 10/10/10
f 4/4/4 10/10/10 11/11/11
f 1/1/1 4/4/4 11/11/11
f 1/1/1 11/11/11 12/12/12
f 13/13/13 1/1/1 12/12/12
f 14/14/14 1/1/1 13/13/13
f 13/13/13 12/12/12 15/15/15
f 16/16/16 14/14/14 13/13/13
f 17/17/17 13/13/13 15/15/15
f 16/16/16 13/13/13 17/17/17
f 17/17/17 15/15/15 18/18/18
f 19/19/19 17/17/17 18/18/18
f 16/16/16 17/17/17 19/19/19
f 20/20/20 16/16/16 19/19/19
f 23/23/23 22/22/22 21/21/21
f 22/22/22 24/24/24 21/21/21
f 22/22/22 25/25/25 24/24/24
f 22/22/22 26/26/26 25/25/25
f 26/26/26 27/27/27 25/25/25
f 25/25/25 27/27/27 28/28/28
f 27/27/27 29/29/29 28/28/28
f 25/25/25 28/28/28 30/30/30
f 24/24/24 25/25/25 30/30/30
f 24/24/24 30/30/30 31/31/31
f 21/21/21 24/24/24 31/31/31
f 21/21/21 31/31/31 32/32/32
f 33/33/33 21/21/21 32/32/32
f 34/34/34 21/21/21 33/33/33
f 33/33/33 32/32/32 35/35/35
f 36/36/36 34/34/34 33/33/33
f 37/37/37 33/33/33 35/35/35
f 36/36/36 33/33/33 37/37/37
f 37/37/37 35/35/35 38/38/38
f 39/39/39 37/37/37 38/38/38
f 36/36/36 37/37/37 39/39/39
f 40/40/40 36/36/36 39/39/39
f 43/43/43 42/42/42 41/41/41
f 42/42/42 44/44/44 41/41/41
f 42/42/42 45/45/45 44/44/44
f 45/45/45 46/46/46 44/44/44
f 49/49/49 48/48/48 47/47/47
f 50/50/50 49/49/49 47/47/47
f 50/50/50 47/47/47 51/51/51
f 52/52/52 50/50/50 51/51/51
f 55/55/55 54/54/54 53/53/53
f 56/56/56 55/55/55 53/53/53
f 56/56/56 53/53/53 57/57/57
f 58/58/58 56/56/56 57/57/57
f 61/61/61 60/60/60 59/59/59
f 62/62/62 61/61/61 59/59/59
f 62/62/62 59/59/59 63/63/63
f 64/64/64 62/62/62 63/63/63
f 67/67/67 66/66/66 65/65/65
f 68/68/68 67/67/67 65/65/65
f 69/69/69 67/67/67 68/68/68
f 70/70/70 69/69/69 68/68/68
f 71/71/71 69/69/69 70/70/70
f 72/72/72 71/71/71 70/70/70
f 73/73/73 71/71/71 72/72/72
f 74/74/74 73/73/73 72/72/72
f 75/75/75 73/73/73 74/74/74
f 76/76/76 75/75/75 74/74/74
f 77/77/77 75/75/75 76/76/76
f 78/78/78 77/77/77 76/76/76
f 79/79/79 77/77/77 78/78/78
f 80/80/80 79/79/79 78/78/78
f 81/81/81 79/79/79 80/80/80
f 82/82/82 81/81/81 80/80/80
f 83/83/83 81/81/81 82/82/82
f 84/84/84 83/83/83 82/82/82
f 85/85/85 83/83/83 84/84/84
f 86/86/86 85/85/85 84/84/84
f 87/87/87 85/85/85 86/86/86
f 88/88/88 87/87/87 86/86/86
f 89/89/89 87/87/87 88/88/88
f 90/90/90 89/89/89 88/88/88
f 93/93/93 92/92/92 91/91/91
f 91/91/91 94/94/94 93/93/93
f 94/94/94 95/95/95 93/93/93
f 95/95/95 94/94/94 96/96/96
f 97/97/97 95/95/95 96/96/96
f 96/96/96 98/98/98 97/97/97
f 101/101/101 100/100/100 99/99/99
f 101/101/101 99/99/99 102/102/102
f 103/103/103 101/101/101 102/102/102
f 103/103/103 102/102/102 104/104/104
f 102/102/102 105/105/105 104/104/104
f 105/105/105 106/106/106 104/104/104
f 106/106/106 107/107/107 104/104/104
f 106/106/106 108/108/108 107/107/107
f 108/108/108 109/109/109 107/107/107
f 108/108/108 110/110/110 109/109/109
