g t064v001_m
v -0.09960938 1.866286 -0.4168543
v -0.09960938 1.618996 -0.4374447
v -0.09960938 1.741177 -0.2497787
v -0.1918659 1.866286 -0.4168543
v -0.1918659 1.741177 -0.2497787
v -0.1918659 1.618996 -0.4374447
v 0.09960938 1.866286 -0.4168543
v 0.09960938 1.741177 -0.2497787
v 0.09960938 1.618996 -0.4374447
v 0.1918659 1.866286 -0.4168543
v 0.1918659 1.618996 -0.4374447
v 0.1918659 1.741177 -0.2497787
v -0.1918659 1.618996 -0.4374447
v -0.1918659 1.741177 -0.2497787
v -0.09960938 1.741177 -0.2497787
v -0.09960938 1.618996 -0.4374447
v -0.1918659 1.741177 -0.2497787
v -0.1918659 1.866286 -0.4168543
v -0.09960938 1.866286 -0.4168543
v -0.09960938 1.741177 -0.2497787
v -0.1918659 1.866286 -0.4168543
v -0.1918659 1.618996 -0.4374447
v -0.09960938 1.618996 -0.4374447
v -0.09960938 1.866286 -0.4168543
v 0.1918659 1.618996 -0.4374447
v 0.09960938 1.618996 -0.4374447
v 0.09960938 1.741177 -0.2497787
v 0.1918659 1.741177 -0.2497787
v 0.1918659 1.741177 -0.2497787
v 0.09960938 1.741177 -0.2497787
v 0.09960938 1.866286 -0.4168543
v 0.1918659 1.866286 -0.4168543
v 0.1918659 1.866286 -0.4168543
v 0.09960938 1.866286 -0.4168543
v 0.09960938 1.618996 -0.4374447
v 0.1918659 1.618996 -0.4374447
v -0.3128204 1.741177 -0.2814331
v 0.3128204 1.741177 -0.2814331
v 0.3128204 1.660216 -0.4216175
v -0.3128204 1.660216 -0.4216175
v -0.3128204 1.825354 -0.4051057
v 0.3128204 1.825354 -0.4051057
v 0.3128204 1.741177 -0.2814331
v -0.3128204 1.741177 -0.2814331
v -0.3128204 1.660216 -0.4216175
v 0.3128204 1.660216 -0.4216175
v 0.3128204 1.825354 -0.4051057
v -0.3128204 1.825354 -0.4051057
v -0.4711704 1.831882 -0.2757393
v -0.4711704 1.857121 -0.4908333
v -0.3078346 1.857121 -0.4908333
v -0.3078346 1.831882 -0.2757393
v -0.4711704 1.857121 -0.4908333
v -0.4711704 1.625234 -0.4908333
v -0.3078346 1.625234 -0.4908333
v -0.3078346 1.857121 -0.4908333
v -0.4711704 1.625234 -0.4908333
v -0.4711704 1.625234 -0.2589493
v -0.3078346 1.625234 -0.2589493
v -0.3078346 1.625234 -0.4908333
v -0.3078346 1.625234 -0.2589493
v -0.3078346 1.831882 -0.2757393
v -0.3078346 1.625234 -0.4908333
v -0.3078346 1.857121 -0.4908333
v -0.4711704 1.831882 -0.2757393
v -0.4711704 1.625234 -0.4908333
v -0.4711704 1.857121 -0.4908333
v -0.4711704 1.625234 -0.2589493
v -0.4711704 1.625234 -0.2589493
v -0.4711704 1.831882 -0.2757393
v -0.3078346 1.831882 -0.2757393
v -0.3078346 1.625234 -0.2589493
v 0.4711704 1.831882 -0.2757393
v 0.3078346 1.831882 -0.2757393
v 0.3078346 1.857121 -0.4908333
v 0.4711704 1.857121 -0.4908333
v 0.4711704 1.857121 -0.4908333
v 0.3078346 1.857121 -0.4908333
v 0.3078346 1.625234 -0.4908333
v 0.4711704 1.625234 -0.4908333
v 0.4711704 1.625234 -0.4908333
v 0.3078346 1.625234 -0.4908333
v 0.3078346 1.625234 -0.2589493
v 0.4711704 1.625234 -0.2589493
v 0.3078346 1.625234 -0.2589493
v 0.3078346 1.625234 -0.4908333
v 0.3078346 1.831882 -0.2757393
v 0.3078346 1.857121 -0.4908333
v 0.4711704 1.625234 -0.2589493
v 0.3078346 1.625234 -0.2589493
v 0.3078346 1.831882 -0.2757393
v 0.4711704 1.831882 -0.2757393
v 0.4711704 1.625234 -0.2589493
v 0.4711704 1.831882 -0.2757393
v 0.4711704 1.625234 -0.4908333
v 0.4711704 1.857121 -0.4908333
v 0.4205666 1.712962 -0.394165
v 0.4205666 0.2062211 -0.3748894
v 0.4205666 1.712962 -0.3556137
v -0.4205647 1.712962 -0.3556137
v -0.4205647 0.2062211 -0.3748894
v -0.4205647 1.712962 -0.394165
v -0.4205647 1.712962 -0.394165
v -0.4205647 0.2062211 -0.3748894
v 0 0.5094384 -0.3748894
v 0 1.712962 -0.394165
v 0.4205666 0.2062211 -0.3748894
v 0 0.5094384 -0.3748894
v 0.4205666 1.712962 -0.3556137
v -0.4205647 1.712962 -0.3556137
v -0.4205647 0.2062211 -0.3748894
v 0.4205666 1.712962 -0.394165
v 0 1.712962 -0.394165
v 0 0.5094384 -0.3748894
v 0.4205666 0.2062211 -0.3748894
vt 0.1634521 0.1755371
vt 0.2393799 0.02380371
vt 0.3151855 0.1755371
vt 0.1634521 0.1755371
vt 0.3151855 0.1755371
vt 0.2393799 0.02380371
vt 0.1634521 0.1755371
vt 0.3151855 0.1755371
vt 0.2393799 0.02380371
vt 0.1634521 0.1755371
vt 0.2393799 0.02380371
vt 0.3151855 0.1755371
vt 0.5258789 0.08728027
vt 0.6455078 0.08728027
vt 0.6455078 0.02394104
vt 0.5258789 0.02394104
vt 0.3562012 0.08728027
vt 0.4873047 0.08728027
vt 0.4873047 0.02394104
vt 0.3562012 0.02394104
vt 0.3562012 0.08728027
vt 0.4873047 0.08728027
vt 0.4873047 0.02394104
vt 0.3562012 0.02394104
vt 0.5258789 0.02394104
vt 0.5258789 0.08728027
vt 0.6455078 0.08728027
vt 0.6455078 0.02394104
vt 0.3562012 0.02394104
vt 0.3562012 0.08728027
vt 0.4873047 0.08728027
vt 0.4873047 0.02394104
vt 0.5258789 0.02394104
vt 0.5258789 0.08728027
vt 0.6455078 0.08728027
vt 0.6455078 0.02394104
vt 0.6801758 0.07183838
vt 0.9824219 0.07183838
vt 0.9824219 0.01055908
vt 0.6801758 0.01055908
vt 0.6801758 0.07183838
vt 0.9824219 0.07183838
vt 0.9824219 0.01055908
vt 0.6801758 0.01055908
vt 0.6801758 0.1549072
vt 0.9824219 0.1549072
vt 0.9824219 0.0960083
vt 0.6801758 0.0960083
vt 0.9677734 0.4143066
vt 0.9677734 0.2900391
vt 0.871582 0.2900391
vt 0.871582 0.4143066
vt 0.871582 0.5483398
vt 0.871582 0.6850586
vt 0.9677734 0.6850586
vt 0.9677734 0.5483398
vt 0.9677734 0.6850586
vt 0.9677734 0.5483398
vt 0.871582 0.5483398
vt 0.871582 0.6850586
vt 0.8598633 0.7143555
vt 0.8833008 0.8017578
vt 0.9755859 0.7143555
vt 0.9755859 0.8305664
vt 0.9516602 0.9467773
vt 0.8603516 0.8579102
vt 0.8603516 0.9741211
vt 0.9765625 0.8579102
vt 0.9677734 0.5273438
vt 0.9677734 0.4143066
vt 0.871582 0.4143066
vt 0.871582 0.5273438
vt 0.871582 0.4143066
vt 0.9677734 0.4143066
vt 0.9677734 0.2900391
vt 0.871582 0.2900391
vt 0.9677734 0.5483398
vt 0.871582 0.5483398
vt 0.871582 0.6850586
vt 0.9677734 0.6850586
vt 0.871582 0.6850586
vt 0.9677734 0.6850586
vt 0.9677734 0.5483398
vt 0.871582 0.5483398
vt 0.9765625 0.8579102
vt 0.8603516 0.8579102
vt 0.9516602 0.9467773
vt 0.8603516 0.9741211
vt 0.871582 0.5273438
vt 0.9677734 0.5273438
vt 0.9677734 0.4143066
vt 0.871582 0.4143066
vt 0.8598633 0.7143555
vt 0.8833008 0.8017578
vt 0.9755859 0.7143555
vt 0.9755859 0.8305664
vt 0.5537109 0.9887695
vt 0.543457 0.1694336
vt 0.5322266 0.9887695
vt 0.5537109 0.9887695
vt 0.543457 0.1694336
vt 0.5322266 0.9887695
vt 0.5883789 0.9887695
vt 0.5883789 0.177124
vt 0.8198242 0.3256836
vt 0.8198242 0.9887695
vt 0.5014648 0.1694336
vt 0.2626953 0.3166504
vt 0.5014648 0.9887695
vt 0.02394104 0.9887695
vt 0.02394104 0.1694336
vt 0.5883789 0.9887695
vt 0.8198242 0.9887695
vt 0.8198242 0.3256836
vt 0.5883789 0.177124
vn 1 0 0
vn 1 0 0
vn 1 0 0
vn -1 0 0
vn -1 0 0
vn -1 0 0
vn -1 0 0
vn -1 0 0
vn -1 0 0
vn 1 0 0
vn 1 0 0
vn 1 0 0
vn 0 -0.8378906 0.5454102
vn 0 -0.8378906 0.5454102
vn 0 -0.8378906 0.5454102
vn 0 -0.8378906 0.5454102
vn 0 0.800293 0.5996094
vn 0 0.800293 0.5996094
vn 0 0.800293 0.5996094
vn 0 0.800293 0.5996094
vn 0 0.08294678 -0.996582
vn 0 0.08294678 -0.996582
vn 0 0.08294678 -0.996582
vn 0 0.08294678 -0.996582
vn 0 -0.8378906 0.5454102
vn 0 -0.8378906 0.5454102
vn 0 -0.8378906 0.5454102
vn 0 -0.8378906 0.5454102
vn 0 0.800293 0.5996094
vn 0 0.800293 0.5996094
vn 0 0.800293 0.5996094
vn 0 0.800293 0.5996094
vn 0 0.08294678 -0.996582
vn 0 0.08294678 -0.996582
vn 0 0.08294678 -0.996582
vn 0 0.08294678 -0.996582
vn 0 -0.8657227 0.5
vn 0 -0.8657227 0.5
vn 0 -0.8657227 0.5
vn 0 -0.8657227 0.5
vn 0 0.8266602 0.5625
vn 0 0.8266602 0.5625
vn 0 0.8266602 0.5625
vn 0 0.8266602 0.5625
vn 0 0.0994873 -0.9951172
vn 0 0.0994873 -0.9951172
vn 0 0.0994873 -0.9951172
vn 0 0.0994873 -0.9951172
vn 0 0.9931641 0.1165161
vn 0 0.9931641 0.1165161
vn 0 0.9931641 0.1165161
vn 0 0.9931641 0.1165161
vn 0 0 -1
vn 0 0 -1
vn 0 0 -1
vn 0 0 -1
vn 0 -1 0
vn 0 -1 0
vn 0 -1 0
vn 0 -1 0
vn 1 0 0
vn 1 0 0
vn 1 0 0
vn 1 0 0
vn -1 0 0
vn -1 0 0
vn -1 0 0
vn -1 0 0
vn 0 0.08099365 0.996582
vn 0 0.08099365 0.996582
vn 0 0.08099365 0.996582
vn 0 0.08099365 0.996582
vn 0 0.9931641 0.1165161
vn 0 0.9931641 0.1165161
vn 0 0.9931641 0.1165161
vn 0 0.9931641 0.1165161
vn 0 0 -1
vn 0 0 -1
vn 0 0 -1
vn 0 0 -1
vn 0 -1 0
vn 0 -1 0
vn 0 -1 0
vn 0 -1 0
vn -1 0 0
vn -1 0 0
vn -1 0 0
vn -1 0 0
vn 0 0.08099365 0.996582
vn 0 0.08099365 0.996582
vn 0 0.08099365 0.996582
vn 0 0.08099365 0.996582
vn 1 0 0
vn 1 0 0
vn 1 0 0
vn 1 0 0
vn 0.04537964 -0.01420593 -0.9990234
vn -0.003749847 -0.01422119 -1
vn 1 0 0
vn -1 0 0
vn 0.003749847 -0.01422119 -1
vn -0.04537964 -0.01420593 -0.9990234
vn -0.04537964 -0.01420593 -0.9990234
vn 0.003749847 -0.01422119 -1
vn 0 -0.01422119 -1
vn 0 -0.01422119 -1
vn -0.009223938 -0.01279449 1
vn 0 -0.01351166 1
vn -0.001342773 -0.01554108 1
vn 0.001342773 -0.01554108 1
vn 0.009223938 -0.01279449 1
vn 0.04537964 -0.01420593 -0.9990234
vn 0 -0.01422119 -1
vn 0 -0.01422119 -1
vn -0.003749847 -0.01422119 -1
g t064v001_m_0
f 3/3/3 2/2/2 1/1/1
f 6/6/6 5/5/5 4/4/4
f 9/9/9 8/8/8 7/7/7
f 12/12/12 11/11/11 10/10/10
f 15/15/15 14/14/14 13/13/13
f 16/16/16 15/15/15 13/13/13
f 19/19/19 18/18/18 17/17/17
f 20/20/20 19/19/19 17/17/17
f 23/23/23 22/22/22 21/21/21
f 24/24/24 23/23/23 21/21/21
f 27/27/27 26/26/26 25/25/25
f 28/28/28 27/27/27 25/25/25
f 31/31/31 30/30/30 29/29/29
f 32/32/32 31/31/31 29/29/29
f 35/35/35 34/34/34 33/33/33
f 36/36/36 35/35/35 33/33/33
f 39/39/39 38/38/38 37/37/37
f 40/40/40 39/39/39 37/37/37
f 43/43/43 42/42/42 41/41/41
f 44/44/44 43/43/43 41/41/41
f 47/47/47 46/46/46 45/45/45
f 48/48/48 47/47/47 45/45/45
f 51/51/51 50/50/50 49/49/49
f 52/52/52 51/51/51 49/49/49
f 55/55/55 54/54/54 53/53/53
f 56/56/56 55/55/55 53/53/53
f 59/59/59 58/58/58 57/57/57
f 60/60/60 59/59/59 57/57/57
f 63/63/63 62/62/62 61/61/61
f 64/64/64 62/62/62 63/63/63
f 67/67/67 66/66/66 65/65/65
f 68/68/68 65/65/65 66/66/66
f 71/71/71 70/70/70 69/69/69
f 72/72/72 71/71/71 69/69/69
f 75/75/75 74/74/74 73/73/73
f 76/76/76 75/75/75 73/73/73
f 79/79/79 78/78/78 77/77/77
f 80/80/80 79/79/79 77/77/77
f 83/83/83 82/82/82 81/81/81
f 84/84/84 83/83/83 81/81/81
f 87/87/87 86/86/86 85/85/85
f 88/88/88 86/86/86 87/87/87
f 91/91/91 90/90/90 89/89/89
f 92/92/92 91/91/91 89/89/89
f 95/95/95 94/94/94 93/93/93
f 95/95/95 96/96/96 94/94/94
g t064v001_m_1
f 99/99/99 98/98/98 97/97/97
f 102/102/102 101/101/101 100/100/100
f 105/105/105 104/104/104 103/103/103
f 106/106/106 105/105/105 103/103/103
f 109/109/109 108/108/108 107/107/107
f 110/110/110 108/108/108 109/109/109
f 108/108/108 110/110/110 111/111/111
f 114/114/114 113/113/113 112/112/112
f 115/115/115 114/114/114 112/112/112
