#
# OBJECT NAME
#
o model_1447
mtllib 1447.mtl

#
# VERTEX BUFFER 000
#
v -0.359956 0 0.0327516
v 0.359956 0 0.0327516
v 0.359956 0.462553 0.0327516
v -0.359956 0.462553 0.0327516
v -0.359956 0.462553 -0.0327516
v -0.314432 0.541591 -0.0327516
v 0.314432 0.541591 -0.0327516
v 0.359956 0.462553 -0.0327516
v 0.359956 0 -0.0327516
v -0.359956 0 -0.0327516
v 0.236647 0.640092 -0.0327516
v -0.236647 0.640092 -0.0327516
v -0.146464 0.731867 -0.0327516
v 0.146464 0.731867 -0.0327516
v 0.0471662 0.813144 -0.0327516
v -0.0471662 0.813144 -0.0327516
v 0 0.839531 -0.0327516
v -0.0471662 0.813144 0.0327516
v 0.0471662 0.813144 0.0327516
v 0 0.839531 0.0327516
v 0.314432 0.541591 0.0327516
v -0.314432 0.541591 0.0327516
v 0.236647 0.640092 0.0327516
v -0.236647 0.640092 0.0327516
v 0.146464 0.731867 0.0327516
v -0.134284 0.741837 0.0327516
v -0.146464 0.731867 0.0327516
v 0.359956 0 -0.0327516
v 0.359956 0 0.0327516
v -0.359956 0 0.0327516
v -0.359956 0 -0.0327516
v 0.5 1 0.101619
v 0.5 1 -0.101619
v -0.5 1 -0.101619
v -0.5 1 0.101619
v 0.5 0 -0.101619
v 0.5 1 -0.101619
v 0.5 1 0.101619
v 0.5 0 0.101619
v -0.5 1 -0.101619
v -0.5 0 -0.101619
v -0.5 0 0.101619
v -0.5 1 0.101619
v 0 1 0.101619
v 0.5 0.5 0.101619
v 0.5 1 0.101619
v -0.5 0.5 0.101619
v -0.5 1 0.101619
v 0.5 1 -0.101619
v 0.5 0.5 -0.101619
v 0 1 -0.101619
v -0.5 1 -0.101619
v -0.5 0.5 -0.101619
v 0.5 0 -0.20859
v 0.5 0 0.20859
v 0.359956 0 0.20859
v 0.359956 0 -0.20859
v -0.359956 0 -0.20859
v -0.359956 0 0.20859
v -0.5 0 0.20859
v -0.5 0 -0.20859
v 0.359956 0.462553 -0.20859
v 0.503423 0.5 -0.20859
v 0.503423 0 -0.20859
v 0.359956 0 -0.20859
v 0.503423 0.5 -0.20859
v 0.503423 0.5 0.20859
v 0.503423 0 0.20859
v 0.503423 0 -0.20859
v 0.314432 0.541591 -0.20859
v 0.43068 0.620354 -0.20859
v -0.359956 0.462553 -0.20859
v -0.359956 0 -0.20859
v -0.503632 0 -0.20859
v -0.503632 0.5 -0.20859
v 0.503423 0.5 0.20859
v 0.503423 0.5 -0.20859
v 0.43068 0.620354 -0.20859
v 0.43068 0.620354 0.20859
v 0.341853 0.732837 -0.20859
v 0.341853 0.732837 0.20859
v 0.241037 0.835434 -0.20859
v 0.241037 0.835434 0.20859
v 0.126315 0.929335 -0.20859
v 0.126315 0.929335 0.20859
v 0 1 -0.20859
v 0 1 0.20859
v 0 1 0.20859
v 0 1 -0.20859
v -0.126315 0.929335 -0.20859
v -0.126315 0.929335 0.20859
v -0.241037 0.835434 -0.20859
v -0.241037 0.835434 0.20859
v -0.341853 0.732837 -0.20859
v -0.341853 0.732837 0.20859
v -0.43068 0.620354 -0.20859
v -0.43068 0.620354 0.20859
v -0.503632 0.5 -0.20859
v -0.503632 0.5 0.20859
v -0.503632 0.5 -0.20859
v -0.503632 0 -0.20859
v -0.503632 0 0.20859
v -0.503632 0.5 0.20859
v -0.126315 0.929335 -0.20859
v -0.047166 0.813144 -0.20859
v -0.146464 0.731867 -0.20859
v -0.241037 0.835434 -0.20859
v 0 1 -0.20859
v 0 0.839531 -0.20859
v -0.241037 0.835434 -0.20859
v -0.146464 0.731867 -0.20859
v -0.236647 0.640092 -0.20859
v -0.341853 0.732837 -0.20859
v -0.341853 0.732837 -0.20859
v -0.236647 0.640092 -0.20859
v -0.314432 0.541591 -0.20859
v -0.43068 0.620354 -0.20859
v 0.126315 0.929335 -0.20859
v 0.047166 0.813144 -0.20859
v -0.43068 0.620354 -0.20859
v -0.314432 0.541591 -0.20859
v -0.359956 0.462553 -0.20859
v -0.503632 0.5 -0.20859
v 0.241037 0.835434 -0.20859
v 0.146464 0.731867 -0.20859
v 0.047166 0.813144 -0.20859
v 0.126315 0.929335 -0.20859
v 0.341853 0.732837 -0.20859
v 0.236647 0.640092 -0.20859
v 0.146464 0.731867 -0.20859
v 0.241037 0.835434 -0.20859
v 0.43068 0.620354 -0.20859
v 0.314432 0.541591 -0.20859
v 0.236647 0.640092 -0.20859
v 0.341853 0.732837 -0.20859
v 0.359956 0.462553 0.20859
v 0.359956 0 0.20859
v 0.503423 0 0.20859
v 0.503423 0.5 0.20859
v 0.43068 0.620354 0.20859
v 0.314432 0.541591 0.20859
v 0.341853 0.732837 0.20859
v 0.236647 0.640092 0.20859
v 0.359956 0.462553 0.20859
v 0.359956 0.462553 -0.20859
v 0.359956 0 -0.20859
v 0.359956 0 0.20859
v 0.359956 0.462553 0.20859
v 0.314432 0.541591 0.20859
v 0.314432 0.541591 -0.20859
v 0.359956 0.462553 -0.20859
v -0.359956 0.462553 0.20859
v -0.359956 0 0.20859
v -0.359956 0 -0.20859
v -0.359956 0.462553 -0.20859
v -0.314432 0.541591 0.20859
v -0.359956 0.462553 0.20859
v -0.359956 0.462553 -0.20859
v -0.314432 0.541591 -0.20859
v -0.236647 0.640092 0.20859
v -0.236647 0.640092 -0.20859
v -0.146464 0.731867 0.20859
v -0.146464 0.731867 -0.20859
v -0.047166 0.813144 0.20859
v -0.047166 0.813144 -0.20859
v 0 0.839531 0.20859
v 0 0.839531 -0.20859
v -0.359956 0.462553 0.20859
v -0.503632 0.5 0.20859
v -0.503632 0 0.20859
v -0.359956 0 0.20859
v 0.047166 0.813144 0.20859
v 0 0.839531 0.20859
v 0 0.839531 -0.20859
v 0.047166 0.813144 -0.20859
v 0.146464 0.731867 0.20859
v 0.146464 0.731867 -0.20859
v -0.126315 0.929335 0.20859
v -0.241037 0.835434 0.20859
v -0.146464 0.731867 0.20859
v -0.047166 0.813144 0.20859
v 0 1 0.20859
v -0.126315 0.929335 0.20859
v -0.047166 0.813144 0.20859
v 0 0.839531 0.20859
v -0.241037 0.835434 0.20859
v -0.341853 0.732837 0.20859
v -0.236647 0.640092 0.20859
v -0.146464 0.731867 0.20859
v 0.236647 0.640092 0.20859
v 0.236647 0.640092 -0.20859
v -0.341853 0.732837 0.20859
v -0.43068 0.620354 0.20859
v -0.314432 0.541591 0.20859
v -0.236647 0.640092 0.20859
v 0.126315 0.929335 0.20859
v 0 1 0.20859
v 0 0.839531 0.20859
v 0.047166 0.813144 0.20859
v -0.43068 0.620354 0.20859
v -0.503632 0.5 0.20859
v -0.359956 0.462553 0.20859
v -0.314432 0.541591 0.20859
v 0.241037 0.835434 0.20859
v 0.146464 0.731867 0.20859
v 0.341853 0.732837 0.20859
v 0.241037 0.835434 0.20859
v 0.146464 0.731867 0.20859
v 0.236647 0.640092 0.20859

vn 0 0 1
vn 0 0 1
vn 0 0 1
vn 0 0 1
vn 0 0 -1
vn 0 0 -1
vn 0 0 -1
vn 0 0 -1
vn 0 0 -1
vn 0 0 -1
vn 0 0 -1
vn 0 0 -1
vn 0 0 -1
vn 0 0 -1
vn 0 0 -1
vn 0 0 -1
vn 0 0 -1
vn 0 0 1
vn 0 0 1
vn 0 0 1
vn 0 0 1
vn 0 0 1
vn 0 0 1
vn 0 0 1
vn 0 0 1
vn 0 0 1
vn 0 0 1
vn 0 -1 0
vn 0 -1 0
vn 0 -1 0
vn 0 -1 0
vn 0 1 0
vn 0 1 0
vn 0 1 0
vn 0 1 0
vn 1 0 0
vn 1 0 0
vn 1 0 0
vn 1 0 0
vn -1 0 0
vn -1 0 0
vn -1 0 0
vn -1 0 0
vn 0 0 1
vn 0 0 1
vn 0 0 1
vn 0 0 1
vn 0 0 1
vn 0 0 -1
vn 0 0 -1
vn 0 0 -1
vn 0 0 -1
vn 0 0 -1
vn 0 -1 0
vn 0 -1 0
vn 0 -1 0
vn 0 -1 0
vn 0 -1 0
vn 0 -1 0
vn 0 -1 0
vn 0 -1 0
vn 0 0 -1
vn 0 0 -1
vn 0 0 -1
vn 0 0 -1
vn 1 0 0
vn 1 0 0
vn 1 0 0
vn 1 0 0
vn 0 0 -1
vn 0 0 -1
vn 0 0 -1
vn 0 0 -1
vn 0 0 -1
vn 0 0 -1
vn 0.855469 0.51709 0
vn 0.855469 0.51709 0
vn 0.821289 0.569824 0
vn 0.821289 0.569824 0
vn 0.75 0.661133 0
vn 0.75 0.661133 0
vn 0.67334 0.73877 0
vn 0.67334 0.73877 0
vn 0.563477 0.825684 0
vn 0.563477 0.825684 0
vn 0.488037 0.872559 0
vn 0.488037 0.872559 0
vn -0.488037 0.872559 0
vn -0.488037 0.872559 0
vn -0.563477 0.825684 0
vn -0.563477 0.825684 0
vn -0.67334 0.73877 0
vn -0.67334 0.73877 0
vn -0.75 0.661133 0
vn -0.75 0.661133 0
vn -0.820801 0.570313 0
vn -0.820801 0.570313 0
vn -0.85498 0.518066 0
vn -0.85498 0.518066 0
vn -1 0 0
vn -1 0 0
vn -1 0 0
vn -1 0 0
vn 0 0 -1
vn 0 0 -1
vn 0 0 -1
vn 0 0 -1
vn 0 0 -1
vn 0 0 -1
vn -1.19209e-007 0 -1
vn -1.19209e-007 0 -1
vn -1.19209e-007 0 -1
vn -1.19209e-007 0 -1
vn 0 0 -1
vn 0 0 -1
vn 0 0 -1
vn 0 0 -1
vn 0 0 -1
vn 0 0 -1
vn -1.19209e-007 0 -1
vn -1.19209e-007 0 -1
vn -1.19209e-007 0 -1
vn -1.19209e-007 0 -1
vn -1.19209e-007 0 -1
vn -1.19209e-007 0 -1
vn -1.19209e-007 0 -1
vn -1.19209e-007 0 -1
vn 0 0 -1
vn 0 0 -1
vn 0 0 -1
vn 0 0 -1
vn -1.19209e-007 0 -1
vn -1.19209e-007 0 -1
vn -1.19209e-007 0 -1
vn -1.19209e-007 0 -1
vn 0 0 1
vn 0 0 1
vn 0 0 1
vn 0 0 1
vn 0 0 1
vn 0 0 1
vn 0 0 1
vn 0 0 1
vn -1 0 0
vn -1 0 0
vn -1 0 0
vn -1 0 0
vn -0.866211 -0.499023 0
vn -0.821289 -0.570313 0
vn -0.821289 -0.570313 0
vn -0.866211 -0.499023 0
vn 1 0 0
vn 1 0 0
vn 1 0 0
vn 1 0 0
vn 0.821289 -0.570313 0
vn 0.866211 -0.499023 0
vn 0.866211 -0.499023 0
vn 0.821289 -0.570313 0
vn 0.749512 -0.661621 0
vn 0.749512 -0.661621 0
vn 0.674316 -0.738281 0
vn 0.674316 -0.738281 0
vn 0.591797 -0.805664 0
vn 0.591797 -0.805664 0
vn 0.488037 -0.872559 0
vn 0.488037 -0.872559 0
vn 0 0 1
vn 0 0 1
vn 0 0 1
vn 0 0 1
vn -0.591797 -0.805664 0
vn -0.488037 -0.872559 0
vn -0.488037 -0.872559 0
vn -0.591797 -0.805664 0
vn -0.674316 -0.738281 0
vn -0.674316 -0.738281 0
vn 1.19209e-007 0 1
vn 1.19209e-007 0 1
vn 1.19209e-007 0 1
vn 1.19209e-007 0 1
vn -1.78814e-007 0 1
vn -1.78814e-007 0 1
vn -1.78814e-007 0 1
vn -1.78814e-007 0 1
vn 0 0 1
vn 0 0 1
vn 0 0 1
vn 0 0 1
vn -0.749512 -0.661621 0
vn -0.749512 -0.661621 0
vn 1.19209e-007 0 1
vn 1.19209e-007 0 1
vn 1.19209e-007 0 1
vn 1.19209e-007 0 1
vn 0 0 1
vn 0 0 1
vn 0 0 1
vn 0 0 1
vn -1.78814e-007 0 1
vn -1.78814e-007 0 1
vn -1.78814e-007 0 1
vn -1.78814e-007 0 1
vn 0 0 1
vn 0 0 1
vn 1.19209e-007 0 1
vn 1.19209e-007 0 1
vn 1.19209e-007 0 1
vn 1.19209e-007 0 1

vt 0.000817962 0.67824
vt 0.292737 0.67824
vt 0.292737 0.850047
vt 0.000911209 0.850047
vt 0.000911209 0.850047
vt 0.0177733 0.880375
vt 0.275874 0.880375
vt 0.292737 0.850047
vt 0.292737 0.67824
vt 0.000817962 0.67824
vt 0.242752 0.917204
vt 0.050896 0.917204
vt 0.0874528 0.95242
vt 0.206195 0.95242
vt 0.167741 0.983606
vt 0.125907 0.983606
vt 0.146824 0.999555
vt 0.125907 0.983606
vt 0.167741 0.983606
vt 0.146824 0.999555
vt 0.275874 0.880375
vt 0.0177733 0.880375
vt 0.242752 0.917204
vt 0.050896 0.917204
vt 0.206195 0.95242
vt 0.0921697 0.956245
vt 0.0874528 0.95242
vt 0.292737 0.305294
vt 0.292737 0.289633
vt 0.000911209 0.289633
vt 0.000911209 0.305294
vt 0.36267 0.00855732
vt 0.421466 0.00855732
vt 0.421466 0.47085
vt 0.36267 0.47085
vt 0.722321 0.539083
vt 0.722321 0.952642
vt 0.66363 0.952642
vt 0.66363 0.539083
vt 0.722321 0.952642
vt 0.722321 0.539083
vt 0.66363 0.539083
vt 0.66363 0.952642
vt 0.810991 0.196984
vt 0.992925 0.375576
vt 0.810991 0.375576
vt 0.992925 0.00586891
vt 0.810991 0.00625962
vt 0.810991 0.375576
vt 0.992925 0.375576
vt 0.810991 0.196984
vt 0.810991 0.00625962
vt 0.992925 0.00586891
vt 0.884767 0.717639
vt 0.812258 0.717639
vt 0.812258 0.768276
vt 0.884767 0.768276
vt 0.884767 0.772313
vt 0.812258 0.772313
vt 0.812258 0.82295
vt 0.884767 0.82295
vt 0.348249 0.806953
vt 0.303371 0.820135
vt 0.303371 0.644364
vt 0.348249 0.644364
vt 0.898258 1.57148
vt 0.826958 1.57148
vt 0.826958 1.39572
vt 0.898258 1.39572
vt 0.363709 0.834705
vt 0.327526 0.861751
vt 0.604551 0.806792
vt 0.604551 0.644199
vt 0.650547 0.644199
vt 0.650547 0.819959
vt 0.735116 0.879433
vt 0.799387 0.879433
vt 0.799387 0.928255
vt 0.735116 0.928255
vt 0.799387 0.978637
vt 0.735116 0.978637
vt 0.799387 1.0292
vt 0.735116 1.0292
vt 0.799387 1.08131
vt 0.735116 1.08131
vt 0.799387 1.13219
vt 0.735116 1.13219
vt 0.735116 1.13219
vt 0.799387 1.13219
vt 0.799387 1.18307
vt 0.735116 1.18307
vt 0.799387 1.23518
vt 0.735116 1.23518
vt 0.799387 1.28574
vt 0.735116 1.28574
vt 0.799387 1.33612
vt 0.735116 1.33612
vt 0.799387 1.38494
vt 0.735116 1.38494
vt 0.898258 1.39572
vt 0.898258 1.57148
vt 0.826958 1.57148
vt 0.826958 1.39572
vt 0.521723 0.968288
vt 0.493909 0.932201
vt 0.531421 0.90143
vt 0.560361 0.936145
vt 0.477325 0.994614
vt 0.477325 0.941473
vt 0.560361 0.936145
vt 0.531421 0.90143
vt 0.564014 0.869182
vt 0.594873 0.900568
vt 0.594873 0.900568
vt 0.564014 0.869182
vt 0.590785 0.834569
vt 0.626995 0.861573
vt 0.432942 0.968316
vt 0.459622 0.932207
vt 0.626995 0.861573
vt 0.590785 0.834569
vt 0.604551 0.806792
vt 0.650547 0.819959
vt 0.394279 0.93623
vt 0.423169 0.901472
vt 0.459622 0.932207
vt 0.432942 0.968316
vt 0.359711 0.900712
vt 0.390524 0.869271
vt 0.423169 0.901472
vt 0.394279 0.93623
vt 0.327526 0.861751
vt 0.363709 0.834705
vt 0.390524 0.869271
vt 0.359711 0.900712
vt 0.348249 0.806953
vt 0.348249 0.644364
vt 0.303371 0.644364
vt 0.303371 0.820135
vt 0.327526 0.861751
vt 0.363709 0.834705
vt 0.359711 0.900712
vt 0.390524 0.869271
vt 0.735116 0.86627
vt 0.799387 0.86627
vt 0.799387 0.703676
vt 0.735116 0.703676
vt 0.735116 0.86627
vt 0.735116 0.898332
vt 0.799387 0.898332
vt 0.799387 0.86627
vt 0.735116 1.2373
vt 0.735116 1.39989
vt 0.799387 1.39989
vt 0.799387 1.2373
vt 0.735116 1.20524
vt 0.735116 1.2373
vt 0.799387 1.2373
vt 0.799387 1.20524
vt 0.735116 1.16112
vt 0.799387 1.16112
vt 0.735116 1.11589
vt 0.799387 1.11589
vt 0.735116 1.07078
vt 0.799387 1.07078
vt 0.735116 1.05178
vt 0.799387 1.05178
vt 0.604551 0.806792
vt 0.650547 0.819959
vt 0.650547 0.644199
vt 0.604551 0.644199
vt 0.735116 1.03279
vt 0.735116 1.05178
vt 0.799387 1.05178
vt 0.799387 1.03279
vt 0.735116 0.98768
vt 0.799387 0.98768
vt 0.521723 0.968288
vt 0.560361 0.936145
vt 0.531421 0.90143
vt 0.493909 0.932201
vt 0.477325 0.994614
vt 0.521723 0.968288
vt 0.493909 0.932201
vt 0.477325 0.941473
vt 0.560361 0.936145
vt 0.594873 0.900568
vt 0.564014 0.869182
vt 0.531421 0.90143
vt 0.735116 0.942451
vt 0.799387 0.942451
vt 0.594873 0.900568
vt 0.626995 0.861573
vt 0.590785 0.834569
vt 0.564014 0.869182
vt 0.432942 0.968316
vt 0.477325 0.994614
vt 0.477325 0.941473
vt 0.459622 0.932207
vt 0.626995 0.861573
vt 0.650547 0.819959
vt 0.604551 0.806792
vt 0.590785 0.834569
vt 0.394279 0.93623
vt 0.423169 0.901472
vt 0.359711 0.900712
vt 0.394279 0.93623
vt 0.423169 0.901472
vt 0.390524 0.869271


#
# MESH 000
#
g surface_000
usemtl surface_000
f 24/24/24 26/26/26 27/27/27
f 24/24/24 25/25/25 26/26/26
f 26/26/26 25/25/25 19/19/19
f 26/26/26 19/19/19 18/18/18
f 18/18/18 19/19/19 20/20/20
f 24/24/24 23/23/23 25/25/25
f 22/22/22 23/23/23 24/24/24
f 22/22/22 21/21/21 23/23/23
f 4/4/4 21/21/21 22/22/22
f 4/4/4 3/3/3 21/21/21
f 1/1/1 3/3/3 4/4/4
f 1/1/1 2/2/2 3/3/3
f 15/15/15 16/16/16 17/17/17
f 14/14/14 16/16/16 15/15/15
f 14/14/14 13/13/13 16/16/16
f 11/11/11 13/13/13 14/14/14
f 11/11/11 12/12/12 13/13/13
f 7/7/7 12/12/12 11/11/11
f 7/7/7 6/6/6 12/12/12
f 5/5/5 6/6/6 7/7/7
f 5/5/5 7/7/7 8/8/8
f 5/5/5 8/8/8 9/9/9
f 5/5/5 9/9/9 10/10/10
f 28/28/28 30/30/30 31/31/31
f 28/28/28 29/29/29 30/30/30
f 40/40/40 42/42/42 43/43/43
f 40/40/40 41/41/41 42/42/42
f 36/36/36 38/38/38 39/39/39
f 36/36/36 37/37/37 38/38/38
f 32/32/32 34/34/34 35/35/35
f 32/32/32 33/33/33 34/34/34
f 52/52/52 51/51/51 53/53/53
f 49/49/49 50/50/50 51/51/51
f 47/47/47 44/44/44 48/48/48
f 44/44/44 45/45/45 46/46/46
f 58/58/58 60/60/60 61/61/61
f 58/58/58 59/59/59 60/60/60
f 54/54/54 56/56/56 57/57/57
f 54/54/54 55/55/55 56/56/56
f 206/206/206 208/208/208 209/209/209
f 206/206/206 207/207/207 208/208/208
f 204/204/204 199/199/199 205/205/205
f 204/204/204 196/196/196 199/199/199
f 196/196/196 198/198/198 199/199/199
f 196/196/196 197/197/197 198/198/198
f 200/200/200 202/202/202 203/203/203
f 200/200/200 201/201/201 202/202/202
f 192/192/192 194/194/194 195/195/195
f 192/192/192 193/193/193 194/194/194
f 186/186/186 188/188/188 189/189/189
f 186/186/186 187/187/187 188/188/188
f 182/182/182 184/184/184 185/185/185
f 182/182/182 183/183/183 184/184/184
f 178/178/178 180/180/180 181/181/181
f 178/178/178 179/179/179 180/180/180
f 172/172/172 173/173/173 174/174/174
f 172/172/172 174/174/174 175/175/175
f 176/176/176 172/172/172 175/175/175
f 176/176/176 175/175/175 177/177/177
f 190/190/190 176/176/176 177/177/177
f 190/190/190 177/177/177 191/191/191
f 149/149/149 190/190/190 191/191/191
f 149/149/149 191/191/191 150/150/150
f 148/148/148 149/149/149 150/150/150
f 148/148/148 150/150/150 151/151/151
f 168/168/168 170/170/170 171/171/171
f 168/168/168 169/169/169 170/170/170
f 166/166/166 165/165/165 167/167/167
f 166/166/166 164/164/164 165/165/165
f 164/164/164 163/163/163 165/165/165
f 164/164/164 162/162/162 163/163/163
f 162/162/162 161/161/161 163/163/163
f 162/162/162 160/160/160 161/161/161
f 160/160/160 159/159/159 161/161/161
f 160/160/160 156/156/156 159/159/159
f 156/156/156 158/158/158 159/159/159
f 156/156/156 157/157/157 158/158/158
f 152/152/152 154/154/154 155/155/155
f 152/152/152 153/153/153 154/154/154
f 144/144/144 146/146/146 147/147/147
f 144/144/144 145/145/145 146/146/146
f 140/140/140 142/142/142 143/143/143
f 140/140/140 143/143/143 141/141/141
f 139/139/139 140/140/140 141/141/141
f 139/139/139 141/141/141 136/136/136
f 136/136/136 138/138/138 139/139/139
f 136/136/136 137/137/137 138/138/138
f 132/132/132 134/134/134 135/135/135
f 132/132/132 133/133/133 134/134/134
f 128/128/128 130/130/130 131/131/131
f 128/128/128 129/129/129 130/130/130
f 124/124/124 126/126/126 127/127/127
f 124/124/124 125/125/125 126/126/126
f 120/120/120 122/122/122 123/123/123
f 120/120/120 121/121/121 122/122/122
f 118/118/118 119/119/119 109/109/109
f 118/118/118 109/109/109 108/108/108
f 108/108/108 109/109/109 105/105/105
f 108/108/108 105/105/105 104/104/104
f 104/104/104 105/105/105 106/106/106
f 104/104/104 106/106/106 107/107/107
f 114/114/114 116/116/116 117/117/117
f 114/114/114 115/115/115 116/116/116
f 110/110/110 112/112/112 113/113/113
f 110/110/110 111/111/111 112/112/112
f 100/100/100 102/102/102 103/103/103
f 100/100/100 101/101/101 102/102/102
f 97/97/97 98/98/98 99/99/99
f 97/97/97 96/96/96 98/98/98
f 95/95/95 96/96/96 97/97/97
f 95/95/95 94/94/94 96/96/96
f 93/93/93 94/94/94 95/95/95
f 93/93/93 92/92/92 94/94/94
f 91/91/91 92/92/92 93/93/93
f 91/91/91 90/90/90 92/92/92
f 88/88/88 90/90/90 91/91/91
f 88/88/88 89/89/89 90/90/90
f 85/85/85 86/86/86 87/87/87
f 85/85/85 84/84/84 86/86/86
f 83/83/83 84/84/84 85/85/85
f 83/83/83 82/82/82 84/84/84
f 81/81/81 82/82/82 83/83/83
f 81/81/81 80/80/80 82/82/82
f 79/79/79 80/80/80 81/81/81
f 79/79/79 78/78/78 80/80/80
f 76/76/76 78/78/78 79/79/79
f 76/76/76 77/77/77 78/78/78
f 72/72/72 74/74/74 75/75/75
f 72/72/72 73/73/73 74/74/74
f 63/63/63 70/70/70 71/71/71
f 63/63/63 62/62/62 70/70/70
f 62/62/62 63/63/63 64/64/64
f 62/62/62 64/64/64 65/65/65
f 66/66/66 68/68/68 69/69/69
f 66/66/66 67/67/67 68/68/68

