#
# OBJECT NAME
#
o model_2796
mtllib 2796.mtl

#
# VERTEX BUFFER 000
#
v 0.5 1 0.406232
v 0.338577 1 0.406232
v 0.338577 -5.96046e-007 0.406232
v 0.5 -6.55651e-007 0.406232
v 0.5 1 0.26808
v 0.5 1 0.406232
v 0.5 -6.55651e-007 0.406232
v 0.5 -3.57628e-007 0.26808
v -0.338577 1 0.406232
v -0.5 1 0.406232
v -0.5 -5.96046e-007 0.406232
v -0.338577 -9.53674e-007 0.406232
v -0.5 1 0.406232
v -0.5 1 0.26808
v -0.5 -2.98023e-007 0.26808
v -0.5 -5.96046e-007 0.406232
v -0.338577 1 0.172406
v -0.338577 1 0.406232
v -0.338577 -9.53674e-007 0.406232
v -0.338577 -5.96046e-007 0.172406
v 0.338577 1 0.406232
v 0.338577 1 0.172406
v 0.338577 -5.96046e-007 0.172406
v 0.338577 -5.96046e-007 0.406232
v -0.5 1 0.26808
v -0.5 0.999999 -0.26808
v -0.5 -1.16229e-006 -0.26808
v -0.5 -2.98023e-007 0.26808
v 0.5 -3.57628e-007 0.26808
v 0.5 -1.10269e-006 -0.26808
v 0.5 0.999999 -0.26808
v 0.5 1 0.26808
v -0.5 1 -0.406232
v -0.338577 1 -0.406232
v -0.338577 -5.96046e-007 -0.406232
v -0.5 -6.55651e-007 -0.406232
v -0.5 0.999999 -0.26808
v -0.5 1 -0.406232
v -0.5 -6.55651e-007 -0.406232
v -0.5 -1.16229e-006 -0.26808
v 0.338577 1 -0.406232
v 0.5 1 -0.406232
v 0.5 -5.96046e-007 -0.406232
v 0.338577 -9.53674e-007 -0.406232
v 0.5 1 -0.406232
v 0.5 0.999999 -0.26808
v 0.5 -1.10269e-006 -0.26808
v 0.5 -5.96046e-007 -0.406232
v 0.338577 1 -0.172406
v 0.338577 1 -0.406232
v 0.338577 -9.53674e-007 -0.406232
v 0.338577 -5.96046e-007 -0.172406
v -0.338577 1 -0.406232
v -0.338577 1 -0.172406
v -0.338577 -5.96046e-007 -0.172406
v -0.338577 -5.96046e-007 -0.406232
v -0.192989 1 -0.146162
v -0.192989 1 0
v 0.192989 1 0
v 0.192989 1 -0.146162
v -0.192989 -9.53674e-007 -0.146162
v 0.192989 -9.53674e-007 -0.146162
v 0.192989 -9.53674e-007 0.146162
v -0.192989 -9.53674e-007 0.146162
v -0.192989 1 0.146162
v 0.192989 1 0.146162
v 0.338577 1 0.172406
v 0.192989 1 0.172406
v 0.192989 -8.34465e-007 0.172406
v 0.338577 0.000117898 0.172406
v -0.338577 -8.34465e-007 0.172406
v -0.192989 -8.34465e-007 0.172406
v -0.192989 1 0.172406
v -0.338577 1 0.172406
v 0.192989 -6.55651e-007 0.0965453
v 0.192989 -8.34465e-007 0.172406
v 0.192989 1 0.172406
v 0.192989 1 0.0965453
v -0.192989 0.999999 0.0965453
v -0.192989 1 0.172406
v -0.192989 -8.34465e-007 0.172406
v -0.192989 -1.3113e-006 0.0965453
v 0.338577 1 -0.172406
v 0.338577 0.000117898 -0.172406
v 0.192989 -8.34465e-007 -0.172406
v 0.192989 1 -0.172406
v -0.338577 -8.34465e-007 -0.172406
v -0.338577 1 -0.172406
v -0.192989 1 -0.172406
v -0.192989 -8.34465e-007 -0.172406
v 0.192989 -6.55651e-007 -0.0965453
v 0.192989 1 -0.0965453
v 0.192989 1 -0.172406
v 0.192989 -8.34465e-007 -0.172406
v -0.192989 0.999999 -0.0965453
v -0.192989 -1.3113e-006 -0.0965453
v -0.192989 -8.34465e-007 -0.172406
v -0.192989 1 -0.172406
v 0.192989 0.918731 0.146162
v -0.192989 0.918731 0.146162
v -0.192989 0.918731 0
v 0.192989 0.918731 0
v 0.192989 0.41873 0.146162
v 0.192989 0.581268 0.146162
v -0.192989 0.581268 0.146162
v -0.192989 0.41873 0.146162
v 0.192989 0.41873 0.146162
v -0.192989 0.41873 0.146162
v -0.192989 0.41873 0
v 0.192989 0.41873 0
v -0.192989 0.581268 0.146162
v 0.192989 0.581268 0.146162
v 0.192989 0.581268 0
v -0.192989 0.581268 0
v -0.192989 -1.01328e-006 0.146162
v 0.192989 -1.01328e-006 0.146162
v 0.192989 0.0812679 0.146162
v -0.192989 0.0812679 0.146162
v -0.192989 0.0812679 0.146162
v 0.192989 0.0812679 0.146162
v 0.192989 0.0812679 0
v -0.192989 0.0812679 0
v 0.192989 0.918731 0.146162
v 0.192989 1 0.146162
v -0.192989 1 0.146162
v -0.192989 0.918731 0.146162
v 0.192989 0.918731 -0.146162
v 0.192989 0.918731 0
v -0.192989 0.918731 0
v -0.192989 0.918731 -0.146162
v 0.192989 0.41873 -0.146162
v -0.192989 0.41873 -0.146162
v -0.192989 0.581268 -0.146162
v 0.192989 0.581268 -0.146162
v 0.192989 0.41873 -0.146162
v 0.192989 0.41873 0
v -0.192989 0.41873 0
v -0.192989 0.41873 -0.146162
v -0.192989 0.581268 -0.146162
v -0.192989 0.581268 0
v 0.192989 0.581268 0
v 0.192989 0.581268 -0.146162
v -0.192989 -1.01328e-006 -0.146162
v -0.192989 0.0812679 -0.146162
v 0.192989 0.0812679 -0.146162
v 0.192989 -1.01328e-006 -0.146162
v -0.192989 0.0812679 -0.146162
v -0.192989 0.0812679 0
v 0.192989 0.0812679 0
v 0.192989 0.0812679 -0.146162
v 0.192989 0.918731 -0.146162
v -0.192989 0.918731 -0.146162
v -0.192989 1 -0.146162
v 0.192989 1 -0.146162
v 0.192989 -6.55651e-007 -0.096545
v 0.192989 -8.34465e-007 0.0965454
v 0.192989 1 0.0965454
v 0.192989 1 -0.096545
v -0.192989 0.999999 -0.096545
v -0.192989 1 0.0965454
v -0.192989 -8.34465e-007 0.0965454
v -0.192989 -1.3113e-006 -0.096545
v -0.5 1 -0.406232
v -0.5 1 0.406232
v -0.338577 1 0.406232
v -0.338577 1 -0.406232
v 0.5 1 0.406232
v 0.5 1 -0.406232
v 0.338577 1 -0.406232
v 0.338577 1 0.406232
v -0.338577 1 -0.172406
v -0.338577 1 0.172406
v -0.192989 1 0.172406
v -0.192989 1 -0.172406
v 0.338577 1 -0.172406
v 0.192989 1 -0.172406
v 0.192989 1 0.172406
v 0.338577 1 0.172406
v -0.338577 -9.53674e-007 -0.172406
v -0.192989 -1.19209e-006 -0.172406
v -0.192989 -1.19209e-006 0.172406
v -0.338577 -9.53674e-007 0.172406
v 0.338577 -9.53674e-007 -0.172406
v 0.338577 -9.53674e-007 0.172406
v 0.192989 -1.19209e-006 0.172406
v 0.192989 -1.19209e-006 -0.172406
v -0.5 -9.53674e-007 -0.406232
v -0.338577 -9.53674e-007 -0.406232
v -0.338577 -9.53674e-007 0.406232
v -0.5 -9.53674e-007 0.406232
v 0.5 -9.53674e-007 0.406232
v 0.338577 -9.53674e-007 0.406232
v 0.338577 -9.53674e-007 -0.406232
v 0.5 -9.53674e-007 -0.406232

vn -1.78814e-007 0 1
vn -1.78814e-007 0 1
vn -1.78814e-007 0 1
vn -1.78814e-007 0 1
vn 1 0 0
vn 1 0 0
vn 1 0 0
vn 1 0 0
vn 0 0 1
vn 0 0 1
vn 0 0 1
vn 0 0 1
vn -1 0 0
vn -1 0 0
vn -1 0 0
vn -1 0 0
vn 1 0 0
vn 1 0 0
vn 1 0 0
vn 1 0 0
vn -1 0 0
vn -1 0 0
vn -1 0 0
vn -1 0 0
vn -1 0 1.78814e-007
vn -1 0 1.78814e-007
vn -1 0 1.78814e-007
vn -1 0 1.78814e-007
vn 1 0 -1.78814e-007
vn 1 0 -1.78814e-007
vn 1 0 -1.78814e-007
vn 1 0 -1.78814e-007
vn 1.78814e-007 0 -1
vn 1.78814e-007 0 -1
vn 1.78814e-007 0 -1
vn 1.78814e-007 0 -1
vn -1 0 8.34465e-007
vn -1 0 8.34465e-007
vn -1 0 8.34465e-007
vn -1 0 8.34465e-007
vn 0 0 -1
vn 0 0 -1
vn 0 0 -1
vn 0 0 -1
vn 1 0 -8.34465e-007
vn 1 0 -8.34465e-007
vn 1 0 -8.34465e-007
vn 1 0 -8.34465e-007
vn -1 0 0
vn -1 0 0
vn -1 0 0
vn -1 0 0
vn 1 0 0
vn 1 0 0
vn 1 0 0
vn 1 0 0
vn 0 1 0
vn 0 1 0
vn 0 1 0
vn 0 1 0
vn 0 -1 0
vn 0 -1 0
vn 0 -1 0
vn 0 -1 0
vn 0 1 0
vn 0 1 0
vn 0 0 1
vn 0 0 1
vn 0 0 1
vn 0 0 1
vn 0 0 1
vn 0 0 1
vn 0 0 1
vn 0 0 1
vn -1 0 0
vn -1 0 0
vn -1 0 0
vn -1 0 0
vn 1 0 0
vn 1 0 0
vn 1 0 0
vn 1 0 0
vn 0 0 -1
vn 0 0 -1
vn 0 0 -1
vn 0 0 -1
vn 0 0 -1
vn 0 0 -1
vn 0 0 -1
vn 0 0 -1
vn -1 0 0
vn -1 0 0
vn -1 0 0
vn -1 0 0
vn 1 0 0
vn 1 0 0
vn 1 0 0
vn 1 0 0
vn 0 -1 0
vn 0 -1 0
vn 0 -1 0
vn 0 -1 0
vn 0 0 1
vn 0 0 1
vn 0 0 1
vn 0 0 1
vn 0 -1 0
vn 0 -1 0
vn 0 -1 0
vn 0 -1 0
vn 0 1 0
vn 0 1 0
vn 0 1 0
vn 0 1 0
vn 0 0 1
vn 0 0 1
vn 0 0 1
vn 0 0 1
vn 0 1 0
vn 0 1 0
vn 0 1 0
vn 0 1 0
vn 0 0 1
vn 0 0 1
vn 0 0 1
vn 0 0 1
vn 0 -1 0
vn 0 -1 0
vn 0 -1 0
vn 0 -1 0
vn 0 0 -1
vn 0 0 -1
vn 0 0 -1
vn 0 0 -1
vn 0 -1 0
vn 0 -1 0
vn 0 -1 0
vn 0 -1 0
vn 0 1 0
vn 0 1 0
vn 0 1 0
vn 0 1 0
vn 0 0 -1
vn 0 0 -1
vn 0 0 -1
vn 0 0 -1
vn 0 1 0
vn 0 1 0
vn 0 1 0
vn 0 1 0
vn 0 0 -1
vn 0 0 -1
vn 0 0 -1
vn 0 0 -1
vn -1 0 0
vn -1 0 0
vn -1 0 0
vn -1 0 0
vn 1 0 0
vn 1 0 0
vn 1 0 0
vn 1 0 0
vn 0 1 0
vn 0 1 0
vn 0 1 0
vn 0 1 0
vn 0 1 0
vn 0 1 0
vn 0 1 0
vn 0 1 0
vn 1.60933e-006 1 0
vn 1.60933e-006 1 0
vn 1.60933e-006 1 0
vn 1.60933e-006 1 0
vn -1.60933e-006 1 0
vn -1.60933e-006 1 0
vn -1.60933e-006 1 0
vn -1.60933e-006 1 0
vn -1.60933e-006 -1 0
vn -1.60933e-006 -1 0
vn -1.60933e-006 -1 0
vn -1.60933e-006 -1 0
vn 1.60933e-006 -1 0
vn 1.60933e-006 -1 0
vn 1.60933e-006 -1 0
vn 1.60933e-006 -1 0
vn 0 -1 0
vn 0 -1 0
vn 0 -1 0
vn 0 -1 0
vn 0 -1 0
vn 0 -1 0
vn 0 -1 0
vn 0 -1 0

vt 0.899179 0.60909
vt 0.874378 0.60909
vt 0.874379 0.246355
vt 0.89918 0.246355
vt 0.917404 0.60909
vt 0.9037 0.60909
vt 0.903701 0.246355
vt 0.917406 0.246355
vt 0.95178 0.60909
vt 0.976581 0.60909
vt 0.976578 0.246355
vt 0.951777 0.246355
vt 0.981101 0.60909
vt 0.994806 0.60909
vt 0.994803 0.246355
vt 0.981098 0.246355
vt 0.922545 0.60909
vt 0.947038 0.60909
vt 0.947035 0.246355
vt 0.922545 0.246355
vt 0.869637 0.60909
vt 0.845142 0.60909
vt 0.845142 0.246355
vt 0.869638 0.246355
vt 0.111576 0.632997
vt 0.00326478 0.632997
vt 0.00326478 0.256774
vt 0.111576 0.256774
vt 0.00326478 0.256774
vt 0.111576 0.256774
vt 0.111576 0.632997
vt 0.00326478 0.632997
vt 0.899179 0.60909
vt 0.874378 0.60909
vt 0.874379 0.246355
vt 0.89918 0.246355
vt 0.917404 0.60909
vt 0.9037 0.60909
vt 0.903701 0.246355
vt 0.917406 0.246355
vt 0.95178 0.60909
vt 0.976581 0.60909
vt 0.976578 0.246355
vt 0.951777 0.246355
vt 0.981101 0.60909
vt 0.994806 0.60909
vt 0.994803 0.246355
vt 0.981098 0.246355
vt 0.922545 0.60909
vt 0.947038 0.60909
vt 0.947035 0.246355
vt 0.922545 0.246355
vt 0.869637 0.60909
vt 0.845142 0.60909
vt 0.845142 0.246355
vt 0.869638 0.246355
vt 0.662886 0.588423
vt 0.662875 0.632555
vt 0.737781 0.632555
vt 0.737769 0.588423
vt 0.662886 0.588423
vt 0.737769 0.588423
vt 0.737792 0.676687
vt 0.662863 0.676687
vt 0.662863 0.676687
vt 0.737792 0.676687
vt 0.45522 0.683652
vt 0.426686 0.683652
vt 0.426686 0.307003
vt 0.45522 0.307003
vt 0.313602 0.307003
vt 0.342078 0.307003
vt 0.342078 0.683652
vt 0.313602 0.683652
vt 0.522468 0.307003
vt 0.544774 0.307003
vt 0.544774 0.683652
vt 0.522468 0.683652
vt 0.516458 0.683652
vt 0.49395 0.683652
vt 0.49395 0.307003
vt 0.516458 0.307003
vt 0.45522 0.683652
vt 0.45522 0.307003
vt 0.426686 0.307003
vt 0.426686 0.683652
vt 0.313602 0.307003
vt 0.313602 0.683652
vt 0.342078 0.683652
vt 0.342078 0.307003
vt 0.522468 0.307003
vt 0.522468 0.683652
vt 0.544774 0.683652
vt 0.544774 0.307003
vt 0.516458 0.683652
vt 0.516458 0.307003
vt 0.49395 0.307003
vt 0.49395 0.683652
vt 0.670672 0.0578222
vt 0.595788 0.0578222
vt 0.595766 0.00439453
vt 0.670694 0.00439453
vt 0.670672 0.244515
vt 0.670672 0.298103
vt 0.595788 0.298103
vt 0.595788 0.244515
vt 0.670672 0.236059
vt 0.595788 0.236059
vt 0.595766 0.182195
vt 0.670694 0.182195
vt 0.595788 0.307303
vt 0.670672 0.307303
vt 0.670694 0.34853
vt 0.595766 0.34853
vt 0.595791 0.0938068
vt 0.670668 0.0938068
vt 0.670672 0.120659
vt 0.595788 0.120659
vt 0.595788 0.129597
vt 0.670672 0.129597
vt 0.670694 0.170987
vt 0.595766 0.170987
vt 0.670672 0.0669546
vt 0.670668 0.0938068
vt 0.595791 0.0938068
vt 0.595788 0.0669546
vt 0.670672 0.0578222
vt 0.670694 0.00439453
vt 0.595766 0.00439453
vt 0.595788 0.0578222
vt 0.670672 0.244515
vt 0.595788 0.244515
vt 0.595788 0.298103
vt 0.670672 0.298103
vt 0.670672 0.236059
vt 0.670694 0.182195
vt 0.595766 0.182195
vt 0.595788 0.236059
vt 0.595788 0.307303
vt 0.595766 0.34853
vt 0.670694 0.34853
vt 0.670672 0.307303
vt 0.595791 0.0938068
vt 0.595788 0.120659
vt 0.670672 0.120659
vt 0.670668 0.0938068
vt 0.595788 0.129597
vt 0.595766 0.170987
vt 0.670694 0.170987
vt 0.670672 0.129597
vt 0.670672 0.0669546
vt 0.595788 0.0669546
vt 0.595791 0.0938068
vt 0.670668 0.0938068
vt 0.49395 0.307003
vt 0.516255 0.307003
vt 0.516255 0.683652
vt 0.49395 0.683652
vt 0.516458 0.683652
vt 0.49395 0.683652
vt 0.49395 0.307003
vt 0.516458 0.307003
vt 0.580023 0.381435
vt 0.580023 0.666138
vt 0.614638 0.666138
vt 0.614637 0.381435
vt 0.580023 0.666138
vt 0.580023 0.381435
vt 0.614637 0.381435
vt 0.614638 0.666138
vt 0.614638 0.418869
vt 0.614638 0.631661
vt 0.657786 0.631661
vt 0.657786 0.418869
vt 0.614638 0.418869
vt 0.657786 0.418869
vt 0.657786 0.631661
vt 0.614638 0.631661
vt 0.614638 0.418869
vt 0.657786 0.418869
vt 0.657786 0.631661
vt 0.614638 0.631661
vt 0.614638 0.418869
vt 0.614638 0.631661
vt 0.657786 0.631661
vt 0.657786 0.418869
vt 0.580023 0.381435
vt 0.614637 0.381435
vt 0.614638 0.666138
vt 0.580023 0.666138
vt 0.580023 0.666138
vt 0.614638 0.666138
vt 0.614637 0.381435
vt 0.580023 0.381435


#
# VERTEX BUFFER 001
#
v 0.192989 0.918731 0
v -0.192989 0.918731 0
v -0.192989 0.0812679 0
v 0.192989 0.0812679 0

vn 0 0 1
vn 0 0 1
vn 0 0 1
vn 0 0 1

vt 0.926567 0.995299
vt 0.998134 0.995299
vt 0.998134 0.728974
vt 0.926567 0.728974


#
# MESH 000
#
g surface_000
usemtl surface_000
f 53/53/53 55/55/55 56/56/56
f 53/53/53 54/54/54 55/55/55
f 49/49/49 51/51/51 52/52/52
f 49/49/49 50/50/50 51/51/51
f 45/45/45 47/47/47 48/48/48
f 45/45/45 46/46/46 47/47/47
f 41/41/41 43/43/43 44/44/44
f 41/41/41 42/42/42 43/43/43
f 37/37/37 39/39/39 40/40/40
f 37/37/37 38/38/38 39/39/39
f 33/33/33 35/35/35 36/36/36
f 33/33/33 34/34/34 35/35/35
f 29/29/29 31/31/31 32/32/32
f 29/29/29 30/30/30 31/31/31
f 25/25/25 27/27/27 28/28/28
f 25/25/25 26/26/26 27/27/27
f 21/21/21 23/23/23 24/24/24
f 21/21/21 22/22/22 23/23/23
f 17/17/17 19/19/19 20/20/20
f 17/17/17 18/18/18 19/19/19
f 13/13/13 15/15/15 16/16/16
f 13/13/13 14/14/14 15/15/15
f 9/9/9 11/11/11 12/12/12
f 9/9/9 10/10/10 11/11/11
f 5/5/5 7/7/7 8/8/8
f 5/5/5 6/6/6 7/7/7
f 1/1/1 3/3/3 4/4/4
f 1/1/1 2/2/2 3/3/3
f 59/59/59 65/65/65 66/66/66
f 59/59/59 58/58/58 65/65/65
f 57/57/57 58/58/58 59/59/59
f 57/57/57 59/59/59 60/60/60
f 61/61/61 63/63/63 64/64/64
f 61/61/61 62/62/62 63/63/63
f 95/95/95 97/97/97 98/98/98
f 95/95/95 96/96/96 97/97/97
f 91/91/91 93/93/93 94/94/94
f 91/91/91 92/92/92 93/93/93
f 87/87/87 89/89/89 90/90/90
f 87/87/87 88/88/88 89/89/89
f 83/83/83 85/85/85 86/86/86
f 83/83/83 84/84/84 85/85/85
f 79/79/79 81/81/81 82/82/82
f 79/79/79 80/80/80 81/81/81
f 75/75/75 77/77/77 78/78/78
f 75/75/75 76/76/76 77/77/77
f 71/71/71 73/73/73 74/74/74
f 71/71/71 72/72/72 73/73/73
f 67/67/67 69/69/69 70/70/70
f 67/67/67 68/68/68 69/69/69
f 151/151/151 153/153/153 154/154/154
f 151/151/151 152/152/152 153/153/153
f 147/147/147 149/149/149 150/150/150
f 147/147/147 148/148/148 149/149/149
f 143/143/143 145/145/145 146/146/146
f 143/143/143 144/144/144 145/145/145
f 139/139/139 141/141/141 142/142/142
f 139/139/139 140/140/140 141/141/141
f 135/135/135 137/137/137 138/138/138
f 135/135/135 136/136/136 137/137/137
f 131/131/131 133/133/133 134/134/134
f 131/131/131 132/132/132 133/133/133
f 127/127/127 129/129/129 130/130/130
f 127/127/127 128/128/128 129/129/129
f 123/123/123 125/125/125 126/126/126
f 123/123/123 124/124/124 125/125/125
f 119/119/119 121/121/121 122/122/122
f 119/119/119 120/120/120 121/121/121
f 115/115/115 117/117/117 118/118/118
f 115/115/115 116/116/116 117/117/117
f 111/111/111 113/113/113 114/114/114
f 111/111/111 112/112/112 113/113/113
f 107/107/107 109/109/109 110/110/110
f 107/107/107 108/108/108 109/109/109
f 103/103/103 105/105/105 106/106/106
f 103/103/103 104/104/104 105/105/105
f 99/99/99 101/101/101 102/102/102
f 99/99/99 100/100/100 101/101/101
f 159/159/159 161/161/161 162/162/162
f 159/159/159 160/160/160 161/161/161
f 155/155/155 157/157/157 158/158/158
f 155/155/155 156/156/156 157/157/157
f 167/167/167 169/169/169 170/170/170
f 167/167/167 168/168/168 169/169/169
f 163/163/163 165/165/165 166/166/166
f 163/163/163 164/164/164 165/165/165
f 175/175/175 177/177/177 178/178/178
f 175/175/175 176/176/176 177/177/177
f 171/171/171 173/173/173 174/174/174
f 171/171/171 172/172/172 173/173/173
f 183/183/183 185/185/185 186/186/186
f 183/183/183 184/184/184 185/185/185
f 179/179/179 181/181/181 182/182/182
f 179/179/179 180/180/180 181/181/181
f 191/191/191 193/193/193 194/194/194
f 191/191/191 192/192/192 193/193/193
f 187/187/187 189/189/189 190/190/190
f 187/187/187 188/188/188 189/189/189

#
# MESH 001
#
g surface_001
usemtl surface_001
f 195/195/195 197/197/197 198/198/198
f 195/195/195 196/196/196 197/197/197

