#
# OBJECT NAME
#
o model_3026
mtllib 3026.mtl

#
# VERTEX BUFFER 000
#
v -0.699451 -0.01 -0.164141
v 0.300549 0.99 -0.164141
v 0.699451 0.99 -0.164141
v -0.300549 -0.01 -0.164141
v 0.699451 0.99 -0.164141
v 0.300549 0.99 -0.164141
v 0.300549 0.99 0
v 0.699451 0.99 0
v -0.300549 -0.01 0
v 0.699451 0.99 0
v 0.300549 0.99 0
v -0.699451 -0.01 0
v -0.699451 -0.01 0
v -0.699451 -0.01 -0.164141
v -0.300549 -0.01 -0.164141
v -0.300549 -0.01 0
v 0.699451 0.99 0
v -0.300549 -0.01 0
v -0.300549 -0.01 -0.164141
v 0.699451 0.99 -0.164141
v -0.699451 -0.01 0
v 0.300549 0.99 0
v 0.300549 0.99 -0.164141
v -0.699451 -0.01 -0.164141
v 0.699451 -0.01 0
v 0.300549 -0.01 0
v -0.699451 0.99 0
v -0.300549 0.99 0
v -0.699451 0.99 0
v -0.699451 0.99 0.164141
v -0.300549 0.99 0.164141
v -0.300549 0.99 0
v 0.300549 -0.01 0.164141
v 0.699451 -0.01 0.164141
v -0.300549 0.99 0.164141
v -0.699451 0.99 0.164141
v 0.699451 -0.01 0.164141
v 0.300549 -0.01 0.164141
v 0.300549 -0.01 0
v 0.699451 -0.01 0
v -0.699451 0.99 0.164141
v -0.699451 0.99 0
v 0.300549 -0.01 0
v 0.300549 -0.01 0.164141
v 0.699451 -0.01 0.164141
v 0.699451 -0.01 0
v -0.300549 0.99 0
v -0.300549 0.99 0.164141
v 0.121257 0.392917 -0.257862
v 0.096858 0.256085 -0.310505
v 0.0700567 0.385629 -0.272959
v -0.168133 0.386776 -0.266279
v -0.198734 0.427283 -0.247005
v 0.0161993 0.583424 -0.238139
v 0.0269777 0.530242 -0.262807
v 0.255918 0.459814 0.0247006
v 0.238846 0.528883 0.00867664
v 0.157205 0.541521 0.169633
v 0.204749 0.484848 0.177886
v 0.109515 0.494106 -0.255771
v 0.198323 0.486638 -0.168266
v 0.149899 0.42517 -0.17065
v 0.1544 0.506457 -0.218649
v 0.114732 0.393179 -0.236614
v 0.082625 0.497077 -0.272081
v 0.0455323 0.444526 -0.282428
v -0.0453164 0.417216 -0.222845
v -0.011207 0.45385 -0.244952
v -0.0262394 0.726358 0.179834
v 0.0431213 0.732154 -0.0122511
v -0.0228811 0.712638 -0.00279933
v 0.0033475 0.281691 0.182184
v 0.0386125 0.661095 0.184922
v -0.0513053 0.321574 0.180874
v -0.041798 0.563408 -0.257572
v -0.0799707 0.513891 -0.267865
v -0.0970597 0.540738 -0.16878
v 0.0465435 0.449125 -0.22075
v -0.115813 0.496061 -0.195621
v -0.0970597 0.540738 -0.16878
v -0.0179126 0.270099 -0.00378979
v 0.0361534 0.252753 -0.00186477
v -0.0472419 0.406617 -0.217815
v -0.24066 0.469932 -0.184806
v -0.184459 0.521405 -0.183745
v 0.00268434 0.457919 -0.219319
v -0.21859 0.509141 0.173695
v -0.171515 0.448305 0.172121
v -0.233902 0.516143 -0.00150103
v -0.247628 0.455903 -0.00473729
v 0.0482658 0.330552 -0.16976
v 0.00272197 0.292326 -0.165401
v -0.0094349 0.684727 -0.18489
v -0.0652095 0.630717 -0.175784
v -0.115813 0.496061 -0.195621
v 0.0740047 0.468947 -0.174779
v 0.144531 0.244914 -0.286093
v 0.128923 0.393406 -0.183779

vn 0 0 -1
vn 0 0 -1
vn 0 0 -1
vn 0 0 -1
vn 0 1 0
vn 0 1 0
vn 0 1 0
vn 0 1 0
vn 0 0 1
vn 0 0 1
vn 0 0 1
vn 0 0 1
vn 0 -1 0
vn 0 -1 0
vn 0 -1 0
vn 0 -1 0
vn 0.707031 -0.707031 0
vn 0.707031 -0.707031 0
vn 0.707031 -0.707031 0
vn 0.707031 -0.707031 0
vn -0.707031 0.707031 0
vn -0.707031 0.707031 0
vn -0.707031 0.707031 0
vn -0.707031 0.707031 0
vn 0 0 -1
vn 0 0 -1
vn 0 0 -1
vn 0 0 -1
vn 0 1 0
vn 0 1 0
vn 0 1 0
vn 0 1 0
vn 0 0 1
vn 0 0 1
vn 0 0 1
vn 0 0 1
vn 0 -1 0
vn 0 -1 0
vn 0 -1 0
vn 0 -1 0
vn -0.707031 -0.707031 0
vn -0.707031 -0.707031 0
vn -0.707031 -0.707031 0
vn -0.707031 -0.707031 0
vn 0.707031 0.707031 0
vn 0.707031 0.707031 0
vn 0.707031 0.707031 0
vn 0.707031 0.707031 0
vn 0.265869 0.470947 -0.84082
vn 0.439697 0.25293 -0.861328
vn 0.192139 0.452881 -0.870117
vn -0.216675 0.334229 -0.916992
vn -0.216675 0.334229 -0.916992
vn -0.136353 0.369629 -0.918945
vn -0.145142 0.357666 -0.922363
vn 0.938477 0.330078 0.0986328
vn 0.916504 0.387451 0.0941162
vn 0.221558 0.17749 0.958496
vn 0.491699 0.321045 0.809082
vn 0.532227 0.324707 -0.781738
vn 0.749512 -0.45166 -0.483398
vn 0.674805 -0.457764 -0.578125
vn 0.680664 0.163086 -0.713379
vn 0.352295 -0.891113 -0.285156
vn 0.505371 -0.264404 -0.821289
vn 0.411865 -0.171997 -0.894531
vn -0.463623 -0.254883 -0.848145
vn -0.446533 -0.0683594 -0.891602
vn 0.253906 0.399902 0.880371
vn -0.102478 0.993164 -0.0487671
vn -0.354004 0.926758 -0.124512
vn -0.310303 -0.511719 0.800781
vn 0.0845337 0.137939 0.986328
vn -0.168335 -0.224731 0.959473
vn -0.28833 0.402832 -0.868164
vn -0.408691 0.454834 -0.791016
vn -0.773438 0.564453 -0.286377
vn 0.276123 0.760254 -0.587402
vn 0.0144882 0.510254 -0.859375
vn 0.078186 0.581543 -0.809082
vn -0.426025 -0.903809 0.0373535
vn -0.365723 -0.930176 0.0099411
vn 0.00325012 -0.032959 -0.999023
vn -0.48584 0.448486 -0.749512
vn -0.313477 0.332764 -0.88916
vn 0.00782013 -0.0385132 -0.999023
vn -0.332031 -0.152222 0.930664
vn -0.137573 -0.0547791 0.98877
vn -0.95166 0.305908 0.0118637
vn -0.992188 0.0950928 0.0764771
vn 0.350342 -0.452881 -0.819336
vn 0.380859 -0.599609 -0.703125
vn -0.615234 0.650879 -0.443604
vn -0.566895 0.445313 -0.692871
vn -0.813965 0.508789 -0.27832
vn 0.316406 0.787598 -0.52832
vn 0.486084 0.236816 -0.84082
vn 0.484375 -0.865234 -0.126343

vt 0.0177079 0.88182
vt 0.866946 0.88182
vt 0.977827 0.993855
vt 0.128589 0.993855
vt 0.917584 0.900989
vt 0.917584 0.75025
vt 0.993184 0.75025
vt 0.993184 0.900989
vt 0.128589 0.65581
vt 0.977434 0.65581
vt 0.866946 0.767263
vt 0.0166345 0.767263
vt 0.917584 0.75025
vt 0.993184 0.75025
vt 0.993184 0.900989
vt 0.917584 0.900989
vt 0.988189 0.642056
vt 0.128589 0.642056
vt 0.128589 0.553369
vt 0.988189 0.553369
vt 0.00734603 0.779855
vt 0.866946 0.779855
vt 0.866946 0.872639
vt 0.00734603 0.872639
vt 0.0177083 0.425449
vt 0.12716 0.540258
vt 0.976397 0.540258
vt 0.866946 0.425449
vt 0.917442 0.453678
vt 0.996395 0.453678
vt 0.996395 0.30141
vt 0.917442 0.30141
vt 0.12751 0.200767
vt 0.0177808 0.313632
vt 0.866946 0.313632
vt 0.974156 0.201847
vt 0.917442 0.30141
vt 0.917442 0.453678
vt 0.996395 0.453678
vt 0.996395 0.30141
vt 0.988189 0.187017
vt 0.988189 0.0993672
vt 0.128589 0.0993672
vt 0.128589 0.187017
vt 0.00734603 0.324367
vt 0.00734603 0.414166
vt 0.866946 0.414166
vt 0.866946 0.324367
vt 5.2894 0.0639802
vt 5.48282 0.0303453
vt 5.2894 0.0303453
vt 0.00405607 0.0639802
vt 0.00405607 0.0303453
vt 0.354169 0.0303453
vt 0.354169 0.0639802
vt 4.26041 0.0303453
vt 4.26041 0.0639802
vt 3.93435 0.0639802
vt 3.93435 0.0303453
vt 0.50686 0.0639802
vt 4.46454 0.0639802
vt 4.46454 0.0303453
vt 0.50686 0.0303453
vt 0.655661 0.0639802
vt 4.65713 0.0639802
vt 4.65713 0.0303453
vt 0.854325 0.0303453
vt 0.854325 0.0639802
vt 1.56491 0.0303453
vt 1.35683 0.0639802
vt 1.35683 0.0303453
vt 2.1977 0.0639802
vt 1.56491 0.0639802
vt 2.1977 0.0303453
vt 4.87919 0.0639802
vt 4.87919 0.0303453
vt 5.00022 0.0639802
vt 5.17318 0.0303453
vt 5.00022 0.0303453
vt 5.00022 0.0639802
vt 2.36021 0.0303453
vt 2.35644 0.0639802
vt 2.79955 0.0303453
vt 3.05972 0.0303453
vt 3.05972 0.0639802
vt 2.79955 0.0639802
vt 3.54312 0.0639802
vt 3.54312 0.0303453
vt 3.32289 0.0639802
vt 3.32289 0.0303453
vt 2.55942 0.0639802
vt 2.56427 0.0303453
vt 1.14388 0.0639802
vt 1.11545 0.0303453
vt 5.00022 0.0303453
vt 5.17318 0.0639802
vt 5.48282 0.0639802
vt 0.655661 0.0303453


#
# MESH 000
#
g surface_000
usemtl surface_000
f 21/21/21 23/23/23 24/24/24
f 21/21/21 22/22/22 23/23/23
f 17/17/17 19/19/19 20/20/20
f 17/17/17 18/18/18 19/19/19
f 13/13/13 15/15/15 16/16/16
f 13/13/13 14/14/14 15/15/15
f 9/9/9 11/11/11 12/12/12
f 9/9/9 10/10/10 11/11/11
f 5/5/5 7/7/7 8/8/8
f 5/5/5 6/6/6 7/7/7
f 1/1/1 3/3/3 4/4/4
f 1/1/1 2/2/2 3/3/3
f 45/45/45 47/47/47 48/48/48
f 45/45/45 46/46/46 47/47/47
f 41/41/41 43/43/43 44/44/44
f 41/41/41 42/42/42 43/43/43
f 37/37/37 39/39/39 40/40/40
f 37/37/37 38/38/38 39/39/39
f 33/33/33 35/35/35 36/36/36
f 33/33/33 34/34/34 35/35/35
f 29/29/29 31/31/31 32/32/32
f 29/29/29 30/30/30 31/31/31
f 25/25/25 27/27/27 28/28/28
f 25/25/25 26/26/26 27/27/27
f 49/49/49 97/97/97 50/50/50
f 49/49/49 50/50/50 51/51/51
f 78/78/78 49/49/49 51/51/51
f 96/96/96 49/49/49 78/78/78
f 78/78/78 80/80/80 96/96/96
f 78/78/78 79/79/79 80/80/80
f 77/77/77 76/76/76 95/95/95
f 75/75/75 76/76/76 77/77/77
f 65/65/65 76/76/76 75/75/75
f 65/65/65 66/66/66 76/76/76
f 65/65/65 62/62/62 66/66/66
f 65/65/65 61/61/61 62/62/62
f 61/61/61 56/56/56 62/62/62
f 57/57/57 56/56/56 61/61/61
f 56/56/56 57/57/57 58/58/58
f 56/56/56 58/58/58 59/59/59
f 59/59/59 58/58/58 87/87/87
f 59/59/59 87/87/87 88/88/88
f 87/87/87 90/90/90 88/88/88
f 89/89/89 90/90/90 87/87/87
f 89/89/89 84/84/84 90/90/90
f 85/85/85 84/84/84 89/89/89
f 83/83/83 84/84/84 85/85/85
f 83/83/83 85/85/85 86/86/86
f 91/91/91 83/83/83 86/86/86
f 91/91/91 92/92/92 83/83/83
f 91/91/91 82/82/82 92/92/92
f 92/92/92 82/82/82 81/81/81
f 72/72/72 81/81/81 82/82/82
f 72/72/72 74/74/74 81/81/81
f 72/72/72 69/69/69 74/74/74
f 72/72/72 73/73/73 69/69/69
f 69/69/69 73/73/73 70/70/70
f 69/69/69 70/70/70 71/71/71
f 70/70/70 93/93/93 71/71/71
f 71/71/71 93/93/93 94/94/94
f 68/68/68 94/94/94 93/93/93
f 67/67/67 94/94/94 68/68/68
f 64/64/64 67/67/67 68/68/68
f 64/64/64 98/98/98 67/67/67
f 64/64/64 63/63/63 98/98/98
f 60/60/60 63/63/63 64/64/64
f 60/60/60 54/54/54 63/63/63
f 55/55/55 54/54/54 60/60/60
f 52/52/52 54/54/54 55/55/55
f 52/52/52 53/53/53 54/54/54

