#
# OBJECT NAME
#
o model_4619
mtllib 4619.mtl

#
# VERTEX BUFFER 000
#
v -0.249241 0 -0.0827595
v -0.249241 1 -0.0827595
v -0.332241 1 0.0827594
v -0.332241 0 0.0827594
v -0.249241 1 -0.0827595
v -0.249241 0 -0.0827595
v -0.415241 0 -0.0827595
v -0.415241 1 -0.0827595
v -0.415241 0 -0.0827595
v -0.249241 0 -0.0827595
v -0.332241 0 0.0827594
v -0.249241 1 -0.0827595
v -0.415241 1 -0.0827595
v -0.332241 1 0.0827594
v -0.415241 0 -0.0827595
v -0.332241 0 0.0827594
v -0.332241 1 0.0827594
v -0.415241 1 -0.0827595
v 0.0827594 0 -0.0827595
v 0.0827594 1 -0.0827595
v -0.000240572 1 0.0827594
v -0.000240557 0 0.0827594
v 0.0827594 1 -0.0827595
v 0.0827594 0 -0.0827595
v -0.0832406 0 -0.0827595
v -0.0832406 1 -0.0827595
v -0.0832406 0 -0.0827595
v 0.0827594 0 -0.0827595
v -0.000240557 0 0.0827594
v 0.0827594 1 -0.0827595
v -0.0832406 1 -0.0827595
v -0.000240572 1 0.0827594
v -0.0832406 0 -0.0827595
v -0.000240557 0 0.0827594
v -0.000240572 1 0.0827594
v -0.0832406 1 -0.0827595
v 0.248759 1 -0.0827595
v 0.248759 0 -0.0827595
v 0.331759 0 0.0827594
v 0.331759 1 0.0827594
v 0.248759 0 -0.0827595
v 0.248759 1 -0.0827595
v 0.414759 1 -0.0827595
v 0.414759 0 -0.0827595
v 0.414759 1 -0.0827595
v 0.248759 1 -0.0827595
v 0.331759 1 0.0827594
v 0.248759 0 -0.0827595
v 0.414759 0 -0.0827595
v 0.331759 0 0.0827594
v 0.414759 1 -0.0827595
v 0.331759 1 0.0827594
v 0.331759 0 0.0827594
v 0.414759 0 -0.0827595

vn 0.893555 0 0.448242
vn 0.893555 0 0.448242
vn 0.893555 0 0.448242
vn 0.893555 0 0.448242
vn 0 0 -1
vn 0 0 -1
vn 0 0 -1
vn 0 0 -1
vn 0 -1 0
vn 0 -1 0
vn 0 -1 0
vn 0 1 0
vn 0 1 0
vn 0 1 0
vn -0.893555 0 0.448242
vn -0.893555 0 0.448242
vn -0.893555 0 0.448242
vn -0.893555 0 0.448242
vn 0.893555 0 0.448242
vn 0.893555 0 0.448242
vn 0.893555 0 0.448242
vn 0.893555 0 0.448242
vn 0 0 -1
vn 0 0 -1
vn 0 0 -1
vn 0 0 -1
vn 0 -1 0
vn 0 -1 0
vn 0 -1 0
vn 0 1 5.36442e-007
vn 0 1 5.36442e-007
vn 0 1 5.36442e-007
vn -0.893555 0 0.448242
vn -0.893555 0 0.448242
vn -0.893555 0 0.448242
vn -0.893555 0 0.448242
vn -0.893555 0 0.448242
vn -0.893555 0 0.448242
vn -0.893555 0 0.448242
vn -0.893555 0 0.448242
vn 0 0 -1
vn 0 0 -1
vn 0 0 -1
vn 0 0 -1
vn 0 1 0
vn 0 1 0
vn 0 1 0
vn 0 -1 0
vn 0 -1 0
vn 0 -1 0
vn 0.893555 0 0.448242
vn 0.893555 0 0.448242
vn 0.893555 0 0.448242
vn 0.893555 0 0.448242

vt 0.986544 0.0203746
vt 0.986544 0.629044
vt 0.836215 0.629044
vt 0.836215 0.0203746
vt 0.685887 0.629044
vt 0.685887 0.0203746
vt 0.986544 0.0203746
vt 0.986544 0.629044
vt 0.684404 0.654524
vt 0.390515 0.654524
vt 0.537459 0.809417
vt 0.684404 0.654524
vt 0.390515 0.654524
vt 0.537459 0.809417
vt 0.685887 0.0203746
vt 0.836215 0.0203746
vt 0.836215 0.629044
vt 0.685887 0.629044
vt 0.653952 0.0203746
vt 0.653952 0.629044
vt 0.502478 0.629044
vt 0.502478 0.0203745
vt 0.351004 0.629044
vt 0.351004 0.0203746
vt 0.653952 0.0203746
vt 0.653952 0.629044
vt 0.383469 0.823357
vt 0.687382 0.823357
vt 0.535425 0.97825
vt 0.383469 0.823357
vt 0.687382 0.823357
vt 0.535425 0.97825
vt 0.351004 0.0203746
vt 0.502478 0.0203745
vt 0.502478 0.629044
vt 0.351004 0.629044
vt 0.323715 0.629044
vt 0.323715 0.0203746
vt 0.16962 0.0203746
vt 0.16962 0.629044
vt 0.0155246 0.0203746
vt 0.0155246 0.629044
vt 0.323715 0.629044
vt 0.323715 0.0203746
vt 0.0234268 0.823357
vt 0.32734 0.823357
vt 0.175384 0.97825
vt 0.0234268 0.823357
vt 0.32734 0.823357
vt 0.175384 0.97825
vt 0.0155246 0.629044
vt 0.16962 0.629044
vt 0.16962 0.0203746
vt 0.0155246 0.0203746


#
# MESH 000
#
g surface_000
usemtl surface_000
f 12/12/12 13/13/13 14/14/14
f 9/9/9 10/10/10 11/11/11
f 15/15/15 17/17/17 18/18/18
f 15/15/15 16/16/16 17/17/17
f 5/5/5 7/7/7 8/8/8
f 5/5/5 6/6/6 7/7/7
f 1/1/1 3/3/3 4/4/4
f 1/1/1 2/2/2 3/3/3
f 30/30/30 31/31/31 32/32/32
f 27/27/27 28/28/28 29/29/29
f 33/33/33 35/35/35 36/36/36
f 33/33/33 34/34/34 35/35/35
f 23/23/23 25/25/25 26/26/26
f 23/23/23 24/24/24 25/25/25
f 19/19/19 21/21/21 22/22/22
f 19/19/19 20/20/20 21/21/21
f 48/48/48 49/49/49 50/50/50
f 45/45/45 46/46/46 47/47/47
f 51/51/51 53/53/53 54/54/54
f 51/51/51 52/52/52 53/53/53
f 41/41/41 43/43/43 44/44/44
f 41/41/41 42/42/42 43/43/43
f 37/37/37 39/39/39 40/40/40
f 37/37/37 38/38/38 39/39/39

