#
# OBJECT NAME
#
o model_1765
mtllib 1765.mtl

#
# VERTEX BUFFER 000
#
v 0.143248 0.193243 0.457008
v -0.143248 0.193243 0.457008
v -0.1048 0.192272 0.63955
v 0.1048 0.192272 0.63955
v 0.1048 0.192272 0.63955
v -0.1048 0.192272 0.63955
v -0.1048 0.06752 0.654128
v 0.1048 0.06752 0.654127
v 0.1048 0.06752 0.654127
v -0.1048 0.06752 0.654128
v -0.146461 0.0151503 0.429524
v 0.146461 0.0151503 0.429524
v -0.143248 0.193243 0.457008
v -0.146461 0.0151503 0.429524
v -0.1048 0.06752 0.654128
v -0.1048 0.192272 0.63955
v 0.146461 0.0151503 0.429524
v 0.143248 0.193243 0.457008
v 0.1048 0.192272 0.63955
v 0.1048 0.06752 0.654127
v -0.376695 0.219786 0.376973
v -0.345955 -0.0363494 0.345685
v -4.14848e-007 -0.0365905 0.488983
v -2.47353e-005 0.224877 0.533006
v -2.47353e-005 0.224877 0.533006
v -4.14848e-007 -0.0365905 0.488983
v 0.345954 -0.0363493 0.345685
v 0.376667 0.228089 0.376974
v 0.489253 -0.0357675 -0.00026877
v 0.532718 0.227541 0.000276808
v 0.345954 -0.0351856 -0.346222
v 0.376717 0.223554 -0.37642
v -1.03712e-007 -0.0349445 -0.489521
v 4.63074e-005 0.218463 -0.532453
v -0.345954 -0.0351856 -0.346223
v -0.376645 0.215251 -0.37642
v -0.489253 -0.0357674 -0.000268925
v -0.532696 0.215799 0.000276652
v -4.14848e-007 -0.0365905 0.488983
v -0.345955 -0.0363494 0.345685
v 0 -0.0357674 -0.000268925
v 0.345954 -0.0363493 0.345685
v 0.489253 -0.0357675 -0.00026877
v 0.345954 -0.0351856 -0.346222
v 0.489253 -0.0357675 -0.00026877
v -1.03712e-007 -0.0349445 -0.489521
v -0.345954 -0.0351856 -0.346223
v -1.03712e-007 -0.0349445 -0.489521
v -0.489253 -0.0357674 -0.000268925
v 0 0.0204928 -0.00015142
v -0.305882 0.0199785 0.305729
v -3.11136e-007 0.0197653 0.432429
v 0.305881 0.0199784 0.305729
v 0.432581 0.0204928 -0.000151212
v 0.305881 0.0210075 -0.306032
v 0 0.0212206 -0.432732
v -0.305881 0.0210074 -0.306032
v -0.432582 0.0204928 -0.00015142
v -0.3294 0.220023 0.32968
v -0.376695 0.219786 0.376973
v -2.47353e-005 0.224877 0.533006
v -2.02239e-005 0.224474 0.466123
v -2.02239e-005 0.224474 0.466123
v -2.47353e-005 0.224877 0.533006
v 0.376667 0.228089 0.376974
v 0.329378 0.227283 0.32968
v 0.532718 0.227541 0.000276808
v 0.465838 0.226804 0.000276808
v 0.376717 0.223554 -0.37642
v 0.329422 0.223317 -0.329127
v 4.63074e-005 0.218463 -0.532453
v 4.18478e-005 0.218866 -0.46557
v -0.376645 0.215251 -0.37642
v -0.329357 0.216057 -0.329127
v -0.532696 0.215799 0.000276652
v -0.465816 0.216536 0.000276652
v -0.305882 0.0199785 0.305729
v -0.3294 0.220023 0.32968
v -2.02239e-005 0.224474 0.466123
v -3.11136e-007 0.0197653 0.432429
v -3.11136e-007 0.0197653 0.432429
v -2.02239e-005 0.224474 0.466123
v 0.329378 0.227283 0.32968
v 0.305881 0.0199784 0.305729
v 0.465838 0.226804 0.000276808
v 0.432581 0.0204928 -0.000151212
v 0.329422 0.223317 -0.329127
v 0.305881 0.0210075 -0.306032
v 4.18478e-005 0.218866 -0.46557
v 0 0.0212206 -0.432732
v -0.329357 0.216057 -0.329127
v -0.305881 0.0210074 -0.306032
v -0.465816 0.216536 0.000276652
v -0.432582 0.0204928 -0.00015142
v -3.11136e-007 0.231362 1.08125
v -0.0344601 0.22974 1.06773
v -0.062921 0.234876 1.11491
v -4.14848e-007 0.237898 1.1392
v 0.0344595 0.22974 1.06773
v 0.0629209 0.234876 1.11491
v 0.0487326 0.225824 1.03509
v 0.0853141 0.227515 1.05347
v 0.0344589 0.221908 1.00245
v 0.0840338 0.177651 0.636713
v -3.11136e-007 0.220286 0.988928
v 0 0.177651 0.636712
v -0.0344597 0.221908 1.00245
v -0.0840342 0.177651 0.636713
v -0.0487333 0.225824 1.03509
v -0.0853145 0.227515 1.05347
v -4.14848e-007 0.237898 1.1392
v -0.062921 0.234876 1.11491
v -0.062921 0.144876 1.12723
v -4.14848e-007 0.147898 1.15152
v 0.0629209 0.234876 1.11491
v -4.14848e-007 0.237898 1.1392
v -4.14848e-007 0.147898 1.15152
v 0.062921 0.144876 1.12723
v 0.0853141 0.227515 1.05347
v 0.085314 0.137542 1.06596
v 0.0840338 0.177651 0.636713
v 0.0840342 0.0873717 0.647236
v -0.0853145 0.227515 1.05347
v -0.0840342 0.177651 0.636713
v -0.0840342 0.0873719 0.647236
v -0.0853145 0.137542 1.06596
v -4.14848e-007 0.147898 1.15152
v -0.062921 0.144876 1.12723
v -0.0344601 0.139759 1.08013
v -3.11136e-007 0.141382 1.09366
v 0.062921 0.144876 1.12723
v 0.0344594 0.139759 1.08013
v 0.085314 0.137542 1.06596
v 0.0487326 0.135844 1.04749
v 0.0840342 0.0873717 0.647236
v 0.0344589 0.131927 1.01485
v 0 0.0873708 0.647236
v -3.11136e-007 0.130304 1.00133
v -0.0840342 0.0873719 0.647236
v -0.0344597 0.131927 1.01485
v -0.0853145 0.137542 1.06596
v -0.0487333 0.135844 1.04749
v -3.11136e-007 0.231362 1.08125
v -3.11136e-007 0.141382 1.09366
v -0.0344601 0.139759 1.08013
v -0.0344601 0.22974 1.06773
v 0.0344595 0.22974 1.06773
v 0.0344594 0.139759 1.08013
v -3.11136e-007 0.141382 1.09366
v -3.11136e-007 0.231362 1.08125
v 0.0487326 0.225824 1.03509
v 0.0487326 0.135844 1.04749
v 0.0344589 0.221908 1.00245
v 0.0344589 0.131927 1.01485
v -3.11136e-007 0.220286 0.988928
v -3.11136e-007 0.130304 1.00133
v -0.0344597 0.221908 1.00245
v -0.0344597 0.131927 1.01485
v -3.11136e-007 0.130304 1.00133
v -3.11136e-007 0.220286 0.988928
v -0.0487333 0.225824 1.03509
v -0.0487333 0.135844 1.04749

vn 0 0.999512 0.00531769
vn 0 0.999512 0.00531769
vn 0 0.999512 0.00531769
vn 0 0.999512 0.00531769
vn 5.96046e-007 0.116028 0.993164
vn 5.96046e-007 0.116028 0.993164
vn 5.96046e-007 0.116028 0.993164
vn 5.96046e-007 0.116028 0.993164
vn 0 -0.973633 0.227051
vn 0 -0.973633 0.227051
vn 0 -0.973633 0.227051
vn 0 -0.973633 0.227051
vn -0.980957 0.00219154 0.192749
vn -0.980957 0.00219154 0.192749
vn -0.980957 0.00219154 0.192749
vn -0.980957 0.00219154 0.192749
vn 0.980957 0.00219154 0.192749
vn 0.980957 0.00219154 0.192749
vn 0.980957 0.00219154 0.192749
vn 0.980957 0.00219154 0.192749
vn -0.690918 -0.168579 0.702637
vn -0.693359 -0.168579 0.700195
vn 0.00408554 -0.16626 0.98584
vn 0.00677109 -0.16626 0.98584
vn 0.00677109 -0.16626 0.98584
vn 0.00408554 -0.16626 0.98584
vn 0.698242 -0.164063 0.696289
vn 0.698242 -0.164063 0.696289
vn 0.986328 -0.16333 0.00248718
vn 0.986328 -0.16333 0.00457764
vn 0.700684 -0.164307 -0.693848
vn 0.703125 -0.164307 -0.691406
vn 0.00410843 -0.166626 -0.98584
vn 0.00691986 -0.166626 -0.98584
vn -0.695801 -0.168701 -0.697754
vn -0.695801 -0.168701 -0.697754
vn -0.985352 -0.169556 0.00249481
vn -0.985352 -0.169556 0.00463104
vn 0 -0.999512 -0.00168133
vn 0 -0.999512 -0.00168133
vn 0 -0.999512 -0.00168133
vn 0 -0.999512 -0.00168133
vn 0 -0.999512 -0.00168133
vn -1.19209e-007 -0.999512 -0.00168133
vn -1.19209e-007 -0.999512 -0.00168133
vn 0 -0.999512 -0.00168133
vn 0 -0.999512 -0.00168133
vn 0 -0.999512 -0.00168133
vn 0 -0.999512 -0.00168133
vn 0 0.999512 0.00168133
vn 0 0.999512 0.00168133
vn 0 0.999512 0.00168133
vn 0 0.999512 0.00168133
vn 0 0.999512 0.00168133
vn 0 0.999512 0.00168228
vn 0 0.999512 0.00168228
vn 0 0.999512 0.00168228
vn 0 0.999512 0.00168133
vn -0.0110168 0.999512 -0.00601959
vn -0.0110168 0.999512 -0.00601959
vn -0.0110168 0.999512 -0.00601959
vn -0.0110168 0.999512 -0.00601959
vn -0.0110168 0.999512 -0.00601959
vn -0.0110168 0.999512 -0.00601959
vn -0.0110168 0.999512 -0.00601959
vn -0.0110168 0.999512 -0.00601959
vn -0.0110168 0.999512 -0.00601959
vn -0.0110168 0.999512 -0.00601959
vn -0.0110168 0.999512 -0.00601959
vn -0.0110168 0.999512 -0.00601959
vn -0.0110168 0.999512 -0.00601959
vn -0.0110168 0.999512 -0.00601959
vn -0.0110168 0.999512 -0.00601959
vn -0.0110168 0.999512 -0.00601959
vn -0.0110168 0.999512 -0.00601959
vn -0.0110168 0.999512 -0.00601959
vn 0.693359 0.165283 -0.700684
vn 0.690918 0.165283 -0.703125
vn -0.00713348 0.16272 -0.986328
vn -0.00444794 0.16272 -0.986328
vn -0.00444794 0.16272 -0.986328
vn -0.00713348 0.16272 -0.986328
vn -0.69873 0.1604 -0.696777
vn -0.69873 0.1604 -0.696777
vn -0.986816 0.159668 -0.00483704
vn -0.986816 0.159668 -0.00274277
vn -0.703613 0.160889 0.691406
vn -0.701172 0.160889 0.693848
vn -0.00731277 0.163452 0.986328
vn -0.0044899 0.163452 0.986328
vn 0.695801 0.165771 0.698242
vn 0.696289 0.165771 0.697754
vn 0.98584 0.166504 -0.00491333
vn 0.98584 0.166504 -0.00277138
vn -1.19209e-007 0.993652 -0.111389
vn -0.00762939 0.993164 -0.112976
vn -0.00644684 0.993164 -0.112427
vn -1.19209e-007 0.993652 -0.111389
vn 0.00762939 0.993164 -0.112976
vn 0.00644684 0.993164 -0.112427
vn 0.0102158 0.992676 -0.118652
vn 0.0103607 0.992676 -0.118103
vn 0.00511551 0.992676 -0.119629
vn 0.000582695 0.992676 -0.120056
vn 8.34465e-007 0.992676 -0.120117
vn 8.34465e-007 0.992676 -0.120117
vn -0.00511551 0.992676 -0.119629
vn -0.000580788 0.992676 -0.120056
vn -0.0102158 0.992676 -0.118652
vn -0.0103607 0.992676 -0.118103
vn 1.84774e-006 0.135498 0.990723
vn -0.712891 0.0952148 0.694336
vn -0.708496 0.0957642 0.69873
vn 2.02656e-006 0.135498 0.990723
vn 0.712891 0.0952148 0.694336
vn 1.84774e-006 0.135498 0.990723
vn 2.02656e-006 0.135498 0.990723
vn 0.708496 0.0957642 0.69873
vn 0.999023 0.00586319 0.0423584
vn 0.998535 0.00612259 0.04422
vn 0.999512 -0.000383377 -0.00301743
vn 0.999512 -0.000383377 -0.00301743
vn -0.999023 0.00586319 0.0423584
vn -0.999512 -0.000385046 -0.00301743
vn -0.999512 -0.000385046 -0.00301743
vn -0.998535 0.00611877 0.04422
vn -2.38419e-007 -0.993652 0.111267
vn 0.00651169 -0.993164 0.112305
vn 0.00769043 -0.993164 0.112854
vn -2.38419e-007 -0.993652 0.111267
vn -0.00651169 -0.993164 0.112305
vn -0.00769424 -0.993164 0.112854
vn -0.0105362 -0.992676 0.118225
vn -0.0104065 -0.992676 0.118774
vn -0.000600815 -0.992676 0.120239
vn -0.00522614 -0.992676 0.119812
vn -1.01328e-006 -0.992676 0.1203
vn -1.01328e-006 -0.992676 0.1203
vn 0.000598907 -0.992676 0.120239
vn 0.00522614 -0.992676 0.119812
vn 0.0105362 -0.992676 0.118225
vn 0.0104065 -0.992676 0.118774
vn -5.48363e-006 -0.136475 -0.990234
vn -4.82798e-006 -0.136475 -0.990234
vn 0.687988 -0.0990601 -0.71875
vn 0.691895 -0.0985107 -0.714355
vn -0.691895 -0.0985107 -0.714355
vn -0.687988 -0.0990601 -0.71875
vn -4.82798e-006 -0.136475 -0.990234
vn -5.48363e-006 -0.136475 -0.990234
vn -0.999512 0.000610352 0.00442123
vn -0.999512 -0.000606537 -0.00440598
vn -0.687988 0.0990601 0.71875
vn -0.691895 0.0985107 0.714355
vn 1.72853e-006 0.136475 0.990234
vn 1.72853e-006 0.136475 0.990234
vn 0.687988 0.0990601 0.71875
vn 0.691895 0.0985107 0.714355
vn 1.72853e-006 0.136475 0.990234
vn 1.72853e-006 0.136475 0.990234
vn 0.999512 0.000609875 0.00442123
vn 0.999512 -0.000608444 -0.0044136

vt 0.659164 0.538079
vt 0.72654 0.538079
vt 0.72157 0.573321
vt 0.664135 0.573321
vt 0.816681 0.54076
vt 0.872202 0.54076
vt 0.872202 0.5724
vt 0.816681 0.5724
vt 0.565556 0.577846
vt 0.508121 0.577846
vt 0.502395 0.532508
vt 0.571282 0.532508
vt 0.746298 0.537116
vt 0.791006 0.530583
vt 0.783109 0.575969
vt 0.750384 0.572396
vt 0.591547 0.531546
vt 0.636255 0.538079
vt 0.63217 0.573359
vt 0.599444 0.576932
vt 0.672573 0.666891
vt 0.672382 0.598953
vt 0.762062 0.598953
vt 0.765242 0.668252
vt 0.0414335 0.668251
vt 0.0446237 0.598953
vt 0.134304 0.598953
vt 0.134094 0.669091
vt 0.223983 0.598953
vt 0.224001 0.668784
vt 0.313663 0.598953
vt 0.313671 0.667558
vt 0.403343 0.598953
vt 0.403331 0.666139
vt 0.493023 0.598953
vt 0.493007 0.665357
vt 0.582703 0.598953
vt 0.582693 0.665671
vt 0.126471 0.574936
vt 0.207085 0.541544
vt 0.126471 0.46093
vt 0.0458566 0.541544
vt 0.012465 0.46093
vt 0.0458567 0.380315
vt 0.012465 0.46093
vt 0.126857 0.346891
vt 0.207085 0.380315
vt 0.126857 0.346891
vt 0.240477 0.46093
vt 0.364187 0.48097
vt 0.435464 0.552246
vt 0.364187 0.58177
vt 0.292911 0.552247
vt 0.263387 0.48097
vt 0.292911 0.409693
vt 0.364187 0.38017
vt 0.435464 0.409693
vt 0.464987 0.48097
vt 0.672463 0.691181
vt 0.672697 0.689572
vt 0.766163 0.689022
vt 0.757259 0.699579
vt 0.0494195 0.699582
vt 0.0405134 0.689026
vt 0.133975 0.689572
vt 0.134211 0.691181
vt 0.223972 0.690592
vt 0.223974 0.691051
vt 0.313653 0.690593
vt 0.313654 0.691051
vt 0.403331 0.690593
vt 0.403332 0.691051
vt 0.493012 0.690593
vt 0.493012 0.691051
vt 0.582696 0.690593
vt 0.582697 0.691051
vt 0.646731 0.721123
vt 0.646882 0.775691
vt 0.73036 0.776901
vt 0.72786 0.721123
vt 0.0788256 0.721123
vt 0.0763174 0.776901
vt 0.159788 0.77767
vt 0.159955 0.721123
vt 0.2411 0.777394
vt 0.241084 0.721123
vt 0.32222 0.776292
vt 0.322214 0.721123
vt 0.403332 0.775016
vt 0.403343 0.721123
vt 0.484458 0.774313
vt 0.484472 0.721123
vt 0.565593 0.774595
vt 0.565602 0.721123
vt 0.0437458 0.285393
vt 0.0541934 0.281094
vt 0.0628223 0.299104
vt 0.0437458 0.305102
vt 0.0332983 0.281094
vt 0.0246694 0.299104
vt 0.0289707 0.270717
vt 0.0178799 0.281834
vt 0.0332983 0.26034
vt 0.019634 0.186399
vt 0.0437458 0.256042
vt 0.0437458 0.186398
vt 0.0541934 0.26034
vt 0.0678577 0.186399
vt 0.0585209 0.270717
vt 0.0696118 0.281834
vt 0.0730105 0.163283
vt 0.0730105 0.141224
vt 0.102758 0.141224
vt 0.102758 0.163283
vt 0.0184771 0.141224
vt 0.0184771 0.163283
vt 0.0482249 0.163283
vt 0.0482249 0.141224
vt 0.0184771 0.120814
vt 0.0482249 0.120814
vt 0.0184771 0.0247295
vt 0.0482249 0.0247295
vt 0.0730105 0.120814
vt 0.0730105 0.0247295
vt 0.102758 0.0247295
vt 0.102758 0.120814
vt 0.119596 0.304883
vt 0.138672 0.298884
vt 0.130044 0.280875
vt 0.119596 0.285173
vt 0.100519 0.298884
vt 0.109148 0.280875
vt 0.0937299 0.281615
vt 0.104821 0.270498
vt 0.095484 0.186179
vt 0.109148 0.260121
vt 0.119596 0.186179
vt 0.119596 0.255823
vt 0.143708 0.186179
vt 0.130044 0.260121
vt 0.145462 0.281615
vt 0.134371 0.270498
vt 0.125345 0.115504
vt 0.153965 0.115504
vt 0.153965 0.105081
vt 0.125345 0.105081
vt 0.125345 0.105081
vt 0.153965 0.105081
vt 0.153965 0.115504
vt 0.125345 0.115504
vt 0.125345 0.0943112
vt 0.153965 0.0943112
vt 0.125345 0.0835411
vt 0.153965 0.0835411
vt 0.125345 0.073061
vt 0.153965 0.073061
vt 0.125345 0.0835411
vt 0.153965 0.0835411
vt 0.153965 0.073061
vt 0.125345 0.073061
vt 0.125345 0.0943112
vt 0.153965 0.0943112


#
# MESH 000
#
g surface_000
usemtl surface_000
f 17/17/17 19/19/19 20/20/20
f 17/17/17 18/18/18 19/19/19
f 13/13/13 15/15/15 16/16/16
f 13/13/13 14/14/14 15/15/15
f 9/9/9 11/11/11 12/12/12
f 9/9/9 10/10/10 11/11/11
f 5/5/5 7/7/7 8/8/8
f 5/5/5 6/6/6 7/7/7
f 1/1/1 3/3/3 4/4/4
f 1/1/1 2/2/2 3/3/3
f 81/81/81 82/82/82 83/83/83
f 81/81/81 83/83/83 84/84/84
f 84/84/84 83/83/83 85/85/85
f 84/84/84 85/85/85 86/86/86
f 86/86/86 85/85/85 87/87/87
f 86/86/86 87/87/87 88/88/88
f 88/88/88 87/87/87 89/89/89
f 88/88/88 89/89/89 90/90/90
f 90/90/90 89/89/89 91/91/91
f 90/90/90 91/91/91 92/92/92
f 92/92/92 91/91/91 93/93/93
f 92/92/92 93/93/93 94/94/94
f 77/77/77 94/94/94 93/93/93
f 77/77/77 93/93/93 78/78/78
f 77/77/77 78/78/78 79/79/79
f 77/77/77 79/79/79 80/80/80
f 63/63/63 64/64/64 65/65/65
f 63/63/63 65/65/65 66/66/66
f 66/66/66 65/65/65 67/67/67
f 66/66/66 67/67/67 68/68/68
f 68/68/68 67/67/67 69/69/69
f 68/68/68 69/69/69 70/70/70
f 70/70/70 69/69/69 71/71/71
f 70/70/70 71/71/71 72/72/72
f 72/72/72 71/71/71 73/73/73
f 72/72/72 73/73/73 74/74/74
f 74/74/74 73/73/73 75/75/75
f 74/74/74 75/75/75 76/76/76
f 76/76/76 75/75/75 60/60/60
f 76/76/76 60/60/60 59/59/59
f 59/59/59 60/60/60 61/61/61
f 59/59/59 61/61/61 62/62/62
f 47/47/47 48/48/48 41/41/41
f 49/49/49 47/47/47 41/41/41
f 40/40/40 49/49/49 41/41/41
f 39/39/39 40/40/40 41/41/41
f 42/42/42 39/39/39 41/41/41
f 43/43/43 42/42/42 41/41/41
f 46/46/46 44/44/44 41/41/41
f 44/44/44 45/45/45 41/41/41
f 25/25/25 26/26/26 27/27/27
f 25/25/25 27/27/27 28/28/28
f 28/28/28 27/27/27 29/29/29
f 28/28/28 29/29/29 30/30/30
f 30/30/30 29/29/29 31/31/31
f 30/30/30 31/31/31 32/32/32
f 32/32/32 31/31/31 33/33/33
f 32/32/32 33/33/33 34/34/34
f 34/34/34 33/33/33 35/35/35
f 34/34/34 35/35/35 36/36/36
f 36/36/36 35/35/35 37/37/37
f 36/36/36 37/37/37 38/38/38
f 38/38/38 37/37/37 22/22/22
f 38/38/38 22/22/22 21/21/21
f 21/21/21 22/22/22 23/23/23
f 21/21/21 23/23/23 24/24/24
f 50/50/50 58/58/58 51/51/51
f 50/50/50 57/57/57 58/58/58
f 50/50/50 56/56/56 57/57/57
f 50/50/50 55/55/55 56/56/56
f 50/50/50 54/54/54 55/55/55
f 50/50/50 53/53/53 54/54/54
f 50/50/50 52/52/52 53/53/53
f 50/50/50 51/51/51 52/52/52
f 157/157/157 159/159/159 160/160/160
f 157/157/157 158/158/158 159/159/159
f 161/161/161 158/158/158 157/157/157
f 161/161/161 162/162/162 158/158/158
f 146/146/146 162/162/162 161/161/161
f 146/146/146 145/145/145 162/162/162
f 143/143/143 145/145/145 146/146/146
f 143/143/143 144/144/144 145/145/145
f 155/155/155 156/156/156 154/154/154
f 155/155/155 154/154/154 153/153/153
f 153/153/153 154/154/154 152/152/152
f 153/153/153 152/152/152 151/151/151
f 151/151/151 152/152/152 148/148/148
f 151/151/151 148/148/148 147/147/147
f 147/147/147 148/148/148 149/149/149
f 147/147/147 149/149/149 150/150/150
f 123/123/123 124/124/124 125/125/125
f 123/123/123 125/125/125 126/126/126
f 112/112/112 123/123/123 126/126/126
f 112/112/112 126/126/126 113/113/113
f 111/111/111 112/112/112 113/113/113
f 111/111/111 113/113/113 114/114/114
f 121/121/121 120/120/120 122/122/122
f 121/121/121 119/119/119 120/120/120
f 119/119/119 118/118/118 120/120/120
f 119/119/119 115/115/115 118/118/118
f 115/115/115 117/117/117 118/118/118
f 115/115/115 116/116/116 117/117/117
f 128/128/128 142/142/142 129/129/129
f 128/128/128 141/141/141 142/142/142
f 141/141/141 140/140/140 142/142/142
f 141/141/141 139/139/139 140/140/140
f 139/139/139 138/138/138 140/140/140
f 139/139/139 137/137/137 138/138/138
f 137/137/137 136/136/136 138/138/138
f 127/127/127 128/128/128 129/129/129
f 127/127/127 129/129/129 130/130/130
f 131/131/131 127/127/127 130/130/130
f 131/131/131 130/130/130 132/132/132
f 133/133/133 131/131/131 132/132/132
f 133/133/133 132/132/132 134/134/134
f 135/135/135 133/133/133 134/134/134
f 135/135/135 134/134/134 136/136/136
f 137/137/137 135/135/135 136/136/136
f 96/96/96 110/110/110 97/97/97
f 96/96/96 109/109/109 110/110/110
f 109/109/109 108/108/108 110/110/110
f 109/109/109 107/107/107 108/108/108
f 107/107/107 106/106/106 108/108/108
f 107/107/107 105/105/105 106/106/106
f 105/105/105 104/104/104 106/106/106
f 95/95/95 96/96/96 97/97/97
f 95/95/95 97/97/97 98/98/98
f 99/99/99 95/95/95 98/98/98
f 99/99/99 98/98/98 100/100/100
f 101/101/101 99/99/99 100/100/100
f 101/101/101 100/100/100 102/102/102
f 103/103/103 101/101/101 102/102/102
f 103/103/103 102/102/102 104/104/104
f 105/105/105 103/103/103 104/104/104

