#
# OBJECT NAME
#
o model_2566
mtllib 2566.mtl

#
# VERTEX BUFFER 000
#
v 0.368316 0.777726 -0.257897
v 0.378828 0.788752 -0.265258
v 0.461782 0.788752 0.0814246
v 0.449058 0.777718 0.0791811
v 0.378828 0.788752 -0.265258
v 0.368316 0.777726 -0.257897
v 0.0791811 0.777718 -0.449058
v 0.0814246 0.788752 -0.461782
v -0.257897 0.777726 -0.368316
v -0.265259 0.788752 -0.378828
v -0.449058 0.777718 -0.079181
v -0.461782 0.788752 -0.0814246
v -0.368316 0.777726 0.257897
v -0.378829 0.788752 0.265259
v -0.0791812 0.777718 0.449058
v -0.0814247 0.788752 0.461782
v 0.257897 0.777726 0.368316
v 0.265258 0.788752 0.378828
v -0.00312528 0.763296 0.00158243
v -0.00312528 0.763296 0.00158243
v -0.0791812 0.777718 0.449058
v -0.368316 0.777726 0.257897
v 0.449058 0.777718 0.0791811
v 0.257897 0.777726 0.368316
v -0.00312528 0.763296 0.00158243
v -0.00312528 0.763296 0.00158243
v 0.368316 0.777726 -0.257897
v -0.376192 0.84254 0.263412
v -0.403561 0.854989 0.282577
v -0.49193 0.854989 -0.0867406
v -0.458585 0.842547 -0.0808608
v -0.0808609 0.842547 0.458585
v -0.0867406 0.854989 0.49193
v -0.263412 0.84254 -0.376192
v -0.282576 0.854989 -0.403561
v 0.0867406 0.854989 -0.49193
v 0.0808609 0.842547 -0.458585
v 0.403561 0.854989 -0.282576
v 0.376192 0.84254 -0.263412
v 0.376192 0.84254 -0.263412
v 0.458585 0.842547 0.0808609
v 0.403561 0.854989 -0.282576
v 0.49193 0.854989 0.0867406
v 0.282576 0.854989 0.403561
v 0.263412 0.84254 0.376192
v -0.402316 0.984483 0.281705
v -0.490413 0.984483 -0.086473
v -0.281705 0.984483 -0.402316
v 0.086473 0.984483 -0.490413
v 0.402316 0.984483 -0.281704
v 0.402316 0.984483 -0.281704
v 0.490413 0.984483 0.086473
v 0.281704 0.984483 0.402316
v -0.086473 0.984483 0.490413
v -0.272294 0.997941 -0.388876
v 0.0836043 0.99794 -0.474143
v -0.474143 0.99794 -0.0836043
v 0.272294 0.997941 0.388876
v -0.0836043 0.99794 0.474143
v 0.474143 0.99794 0.0836043
v 0.388876 0.997941 -0.272294
v 0.388876 0.997941 -0.272294
v -0.388876 0.997941 0.272294
v 0 0.997941 0
v -0.272294 0.997941 -0.388876
v -0.474143 0.99794 -0.0836043
v 0.0836043 0.99794 -0.474143
v 0.272294 0.997941 0.388876
v 0.474143 0.99794 0.0836043
v -0.0836043 0.99794 0.474143
v 0.388876 0.997941 -0.272294
v -0.388876 0.997941 0.272294
v -0.332943 0 0.198191
v -0.386048 0 0
v 0 0.0227159 0
v 0.34641 0.281477 -0.2
v 0.2 0.281477 -0.336191
v 0.2 0.313117 -0.34641
v 0.34641 0.313117 -0.2
v 0.389417 0.281477 0
v 0.389417 0.313117 0
v 0 0.313117 -0.4
v 0 0.281477 -0.389781
v -0.2 0.281477 -0.336191
v -0.2 0.313117 -0.34641
v 0.34641 0.281477 0.2
v 0.34641 0.313117 0.2
v 0.2 0.281477 0.34641
v 0.2 0.313117 0.34641
v 0 0.281477 0.397963
v 0 0.313117 0.386276
v -0.2 0.281477 0.34641
v -0.2 0.313117 0.34641
v -0.34641 0.281477 0.2
v -0.34641 0.313117 0.2
v -0.4 0.281477 0
v -0.4 0.313117 0
v -0.34641 0.281477 -0.2
v -0.34641 0.313117 -0.2
v -0.34641 0.281477 -0.2
v -0.34641 0.313117 -0.2
v 0.2 0.578153 -0.336191
v 0.34641 0.578153 -0.2
v 0.34641 0.549499 -0.2
v 0.2 0.549499 -0.34641
v 0.389417 0.549499 0
v 0.389417 0.578153 0
v 0 0.549499 -0.4
v 0 0.578153 -0.389781
v 0.34641 0.549499 0.2
v 0.34641 0.578153 0.2
v 0.2 0.549499 0.34641
v 0.2 0.578153 0.350058
v 0 0.549499 0.386276
v 0 0.578153 0.398409
v -0.2 0.549499 0.34641
v -0.2 0.578153 0.350058
v -0.331572 0.549499 0.2
v -0.331572 0.578153 0.2
v -0.385162 0.549499 0
v -0.385162 0.578153 0
v -0.331572 0.549499 -0.2
v -0.331572 0.578153 -0.2
v -0.2 0.549499 -0.34641
v -0.331572 0.549499 -0.2
v -0.331572 0.578153 -0.2
v -0.2 0.578153 -0.336191
v 0.34641 0.778076 -0.2
v 0.4 0.778076 0
v 0.34641 0.778076 0.2
v 0.2 0.778076 0.34641
v 0 0.778076 0.4
v -0.2 0.778076 0.34641
v -0.34641 0.778076 0.2
v -0.4 0.778076 0
v -0.34641 0.778076 -0.2
v -0.34641 0.778076 -0.2
v -0.2 0.778076 -0.332517
v 0 0.778076 -0.386107
v 0.2 0.778076 -0.332517
v -0.343278 0 -0.198191
v -0.343278 0 -0.198191
v -0.34641 0.0114213 -0.2
v -0.2 0.0114213 -0.332517
v -0.198191 0 -0.329384
v -0.34641 0.0114213 -0.2
v -0.343278 0 -0.198191
v -0.386048 0 0
v -0.389665 0.0114213 0
v 0 0.0114213 -0.386107
v 0 0 -0.38249
v 0.2 0.0114213 -0.332517
v 0.1982 0 -0.329382
v 0.34641 0.0114213 -0.2
v 0.343278 0 -0.198191
v 0.4 0.0114213 0
v 0.396383 0 0
v 0.34641 0.0114213 0.2
v 0.343705 0 0.197731
v 0.2 0.0114213 0.34641
v 0.195897 0 0.34557
v 0 0.0114213 0.4
v 0 0 0.396383
v -0.2 0.0114213 0.34641
v -0.198191 0 0.343278
v -0.336075 0.0114213 0.2
v -0.332943 0 0.198191
v 0 0.0227159 0
v 0.343278 0 -0.198191
v 0.396383 0 0
v 0 0 0.396383
v 0 0.0227159 0
v 0.195897 0 0.34557
v -0.198191 0 -0.329384
v 0 0.0227159 0
v 0.343705 0 0.197731
v 0 0.0227159 0
v 0.1982 0 -0.329382
v 0 0.0227159 0
v 0 0.0227159 0
v 0 0 -0.38249
v -0.198191 0 0.343278
v 0 0.0227159 0
v 0 0.0227159 0
v 0 0.0227159 0

vn 0.0803223 -0.995117 -0.0562439
vn 0.812988 -0.118469 -0.569336
vn 0.977539 -0.117676 0.172363
vn 0.0978394 -0.994629 0.0171967
vn 0.812988 -0.118469 -0.569336
vn 0.0803223 -0.995117 -0.0562439
vn 0.017334 -0.994629 -0.0979614
vn 0.172363 -0.117676 -0.977539
vn -0.0566406 -0.994629 -0.0809937
vn -0.569336 -0.118469 -0.812988
vn -0.098938 -0.994629 -0.0174866
vn -0.977539 -0.117676 -0.172363
vn -0.0814819 -0.994629 0.0570679
vn -0.812988 -0.118469 0.569336
vn -0.0173492 -0.994629 0.0988159
vn -0.172363 -0.117676 0.977539
vn 0.0566406 -0.995117 0.0807495
vn 0.569336 -0.118469 0.812988
vn -0.000115752 -1 5.85914e-005
vn -0.000115752 -1 5.85914e-005
vn -0.0173492 -0.994629 0.0988159
vn -0.0814819 -0.994629 0.0570679
vn 0.0978394 -0.994629 0.0171967
vn 0.0566406 -0.995117 0.0807495
vn -0.000115752 -1 5.85914e-005
vn -0.000115752 -1 5.85914e-005
vn 0.0803223 -0.995117 -0.0562439
vn -0.716797 -0.483643 0.501953
vn -0.807129 -0.169312 0.564941
vn -0.970703 -0.16748 -0.171143
vn -0.855957 -0.493652 -0.151001
vn -0.151001 -0.493652 0.855957
vn -0.171143 -0.16748 0.970703
vn -0.501953 -0.483643 -0.716797
vn -0.564941 -0.169312 -0.807129
vn 0.171143 -0.16748 -0.970703
vn 0.151001 -0.493652 -0.855957
vn 0.807129 -0.169312 -0.564941
vn 0.716797 -0.483643 -0.501953
vn 0.716797 -0.483643 -0.501953
vn 0.855957 -0.493652 0.151001
vn 0.807129 -0.169312 -0.564941
vn 0.970703 -0.16748 0.171143
vn 0.564941 -0.169312 0.807129
vn 0.501953 -0.483643 0.716797
vn -0.814453 0.105408 0.570313
vn -0.979004 0.105286 -0.172607
vn -0.570313 0.105408 -0.814453
vn 0.172607 0.105286 -0.979004
vn 0.814453 0.105408 -0.570313
vn 0.814453 0.105408 -0.570313
vn 0.979004 0.105286 0.172607
vn 0.570313 0.105408 0.814453
vn -0.172607 0.105286 0.979004
vn -0.0455933 0.996582 -0.0650635
vn 0.0141296 0.996582 -0.0801392
vn -0.0801392 0.996582 -0.0141296
vn 0.0455933 0.996582 0.0650635
vn -0.0141296 0.996582 0.0801392
vn 0.0801392 0.996582 0.0141296
vn 0.0650635 0.996582 -0.0455933
vn 0.0650635 0.996582 -0.0455933
vn -0.0650635 0.996582 0.0455933
vn 0 1 0
vn -0.0455933 0.996582 -0.0650635
vn -0.0801392 0.996582 -0.0141296
vn 0.0141296 0.996582 -0.0801392
vn 0.0455933 0.996582 0.0650635
vn 0.0801392 0.996582 0.0141296
vn -0.0141296 0.996582 0.0801392
vn 0.0650635 0.996582 -0.0455933
vn -0.0650635 0.996582 0.0455933
vn -0.0131378 -0.999512 0.00673676
vn -0.0143433 -0.999512 0.00070715
vn 0.0587158 -0.998047 -0.00170994
vn 0.865234 0.000352383 -0.500977
vn 0.479492 -0.0317383 -0.876465
vn 0.49585 -0.0261841 -0.867676
vn 0.876953 -0.00707626 -0.480225
vn 0.999512 0.0175323 0
vn 1 0 0
vn 0 -0.0361633 -0.999023
vn 0 -0.047699 -0.998535
vn -0.479492 -0.0317383 -0.876465
vn -0.50293 -0.0162201 -0.86377
vn 0.87207 0.00882721 0.48877
vn 0.876953 0 0.479736
vn 0.496582 0.0113907 0.867676
vn 0.474854 0.0110703 0.879883
vn 0 0.0216675 0.999512
vn 0 0.0227051 0.999512
vn -0.501465 0.0051651 0.864746
vn -0.481689 0.0216827 0.875488
vn -0.87207 -0.0236511 0.488281
vn -0.874512 0.0384216 0.48291
vn -0.999512 -0.02565 0.0115433
vn -0.998047 0.0551758 0
vn -0.863281 -0.0175171 -0.503418
vn -0.874512 0.0313721 -0.483643
vn -0.863281 -0.0175171 -0.503418
vn -0.874512 0.0313721 -0.483643
vn 0.480225 0.0418396 -0.875977
vn 0.865234 -0.000464916 -0.500488
vn 0.876953 0.00715637 -0.480225
vn 0.49585 0.026474 -0.867676
vn 1 0 0
vn 0.999512 -0.0231628 0
vn 0 0.036377 -0.999023
vn 0 0.0630493 -0.997559
vn 0.877441 -0.00255013 0.479492
vn 0.873047 -0.0116119 0.486572
vn 0.47583 -0.0175323 0.878906
vn 0.494141 -0.0153198 0.869141
vn 0 -0.0311737 0.999512
vn 0 -0.0279541 0.999512
vn -0.484863 -0.00701141 0.874023
vn -0.502441 -0.0276794 0.86377
vn -0.87207 0.0359802 0.487793
vn -0.872559 -0.0440369 0.486328
vn -0.998047 0.0559387 0
vn -0.997559 -0.0648804 0
vn -0.871094 0.0446472 -0.488525
vn -0.864258 -0.033905 -0.500977
vn -0.504395 0.0367737 -0.862305
vn -0.871094 0.0446472 -0.488525
vn -0.864258 -0.033905 -0.500977
vn -0.489746 0.0304718 -0.871094
vn 0.86377 -0.0102005 -0.50293
vn 0.999512 -0.0264435 0
vn 0.872559 -0.00991821 0.487793
vn 0.5 0.00592041 0.865723
vn 0 0.00514603 0.999512
vn -0.507813 -0.00823212 0.86084
vn -0.876953 -0.0485535 0.477539
vn -0.99707 -0.0739746 0
vn -0.869141 -0.0487366 -0.491943
vn -0.869141 -0.0487366 -0.491943
vn -0.486084 -0.000201464 -0.873535
vn 0 0.0183716 -0.999512
vn 0.478027 0.0127029 -0.87793
vn -0.0166473 -0.999512 -0.00950623
vn -0.0166473 -0.999512 -0.00950623
vn -0.86377 -0.0240021 -0.50293
vn -0.477539 -0.0210724 -0.87793
vn -0.00637436 -0.999512 -0.0129852
vn -0.86377 -0.0240021 -0.50293
vn -0.0166473 -0.999512 -0.00950623
vn -0.0143433 -0.999512 0.00070715
vn -0.999023 -0.0395813 0.0135117
vn 0 -0.0251465 -0.999512
vn 0 -0.999512 -0.0161896
vn 0.477539 -0.0210724 -0.87793
vn 0.00637817 -0.999512 -0.0129776
vn 0.86377 -0.00488663 -0.503418
vn 0.0146408 -0.999512 -0.00930023
vn 0.999512 0.0069046 -2.06828e-005
vn 0.015625 -0.999512 1.06692e-005
vn 0.871094 -0.00255585 0.490723
vn 0.0135498 -0.999512 0.00704193
vn 0.499756 -0.00935364 0.865723
vn 0.00464249 -0.999512 0.0145645
vn -0.000110269 -0.00704956 0.999512
vn 5.9247e-005 -0.999512 0.0156097
vn -0.503906 -0.016983 0.863281
vn -0.00889587 -0.999512 0.0143661
vn -0.869141 -0.0370789 0.492188
vn -0.0131378 -0.999512 0.00673676
vn -0.0571899 -0.998047 8.39829e-005
vn 0.0146408 -0.999512 -0.00930023
vn 0.015625 -0.999512 1.06692e-005
vn 5.9247e-005 -0.999512 0.0156097
vn -0.0148315 -0.998047 -0.0571899
vn 0.00464249 -0.999512 0.0145645
vn -0.00637436 -0.999512 -0.0129852
vn 0.0403137 -0.998047 0.0445557
vn 0.0135498 -0.999512 0.00704193
vn -0.0403137 -0.998047 0.0445557
vn 0.00637817 -0.999512 -0.0129776
vn -0.0418701 -0.998047 -0.0418701
vn -0.0158691 -0.998047 0.0592651
vn 0 -0.999512 -0.0161896
vn -0.00889587 -0.999512 0.0143661
vn 0.0153275 -0.998047 -0.0571899
vn 0.0158691 -0.998047 0.0592651
vn 0.0438538 -0.998047 -0.0407104

vt 0.994427 0.6973
vt 0.995116 0.684192
vt 0.871337 0.684192
vt 0.871545 0.6973
vt 0.004884 0.684192
vt 0.004884 0.6973
vt 0.128719 0.6973
vt 0.128663 0.684192
vt 0.252523 0.6973
vt 0.252442 0.684192
vt 0.37627 0.6973
vt 0.376221 0.684192
vt 0.500133 0.6973
vt 0.5 0.684192
vt 0.62399 0.6973
vt 0.623779 0.684192
vt 0.747798 0.6973
vt 0.747558 0.684192
vt 0.346646 0.766221
vt 0.0983881 0.766221
vt 0.129035 0.6973
vt 0.004884 0.6973
vt 0.376591 0.6973
vt 0.252843 0.6973
vt 0.220973 0.766221
vt 0.468098 0.766221
vt 0.500133 0.6973
vt 0.5 0.628891
vt 0.5 0.603616
vt 0.376221 0.603616
vt 0.376221 0.628891
vt 0.623779 0.628891
vt 0.623779 0.603616
vt 0.252442 0.628891
vt 0.252442 0.603616
vt 0.128663 0.603616
vt 0.128663 0.628891
vt 0.004884 0.603616
vt 0.004884 0.628891
vt 0.995116 0.628891
vt 0.871337 0.628891
vt 0.995116 0.603616
vt 0.871337 0.603616
vt 0.747558 0.603616
vt 0.747558 0.628891
vt 0.5 0.5256
vt 0.376221 0.525601
vt 0.252442 0.52579
vt 0.128663 0.525599
vt 0.004884 0.52579
vt 0.995116 0.52579
vt 0.871337 0.525599
vt 0.747558 0.52579
vt 0.623779 0.525601
vt 0.252048 0.516451
vt 0.128663 0.516457
vt 0.376221 0.516457
vt 0.747163 0.516451
vt 0.623779 0.516457
vt 0.871337 0.516457
vt 0.994721 0.516451
vt 0.004884 0.516417
vt 0.499606 0.516451
vt 0.124098 0.888102
vt 0.0513795 0.815384
vt 0.019801 0.888102
vt 0.124098 0.783805
vt 0.196816 0.960821
vt 0.228395 0.888102
vt 0.124098 0.992399
vt 0.196816 0.815384
vt 0.0513795 0.960821
vt 0.664901 0.782816
vt 0.683897 0.853711
vt 0.542108 0.853711
vt 0.665407 0.152997
vt 0.748362 0.152997
vt 0.748404 0.164705
vt 0.665419 0.164705
vt 0.582636 0.152997
vt 0.582594 0.164705
vt 0.831936 0.164705
vt 0.83206 0.152997
vt 0.91406 0.152997
vt 0.913983 0.164705
vt 0.499278 0.152997
vt 0.499251 0.164705
vt 0.41552 0.152997
vt 0.415581 0.164705
vt 0.332574 0.152997
vt 0.332642 0.164705
vt 0.250563 0.152997
vt 0.250516 0.164705
vt 0.167763 0.152997
vt 0.16779 0.164705
vt 0.0853961 0.152997
vt 0.0853961 0.164705
vt 0 0.152997
vt 0 0.164705
vt 1 0.152997
vt 1 0.164705
vt 0.748388 0.341842
vt 0.665416 0.341842
vt 0.665424 0.330044
vt 0.748417 0.330044
vt 0.582556 0.330044
vt 0.582583 0.341842
vt 0.831819 0.330044
vt 0.831897 0.341842
vt 0.499234 0.330044
vt 0.499251 0.341842
vt 0.41564 0.330044
vt 0.415602 0.341842
vt 0.332705 0.330044
vt 0.332662 0.341842
vt 0.250493 0.330044
vt 0.250524 0.341842
vt 0.167807 0.330044
vt 0.16779 0.341842
vt 0.0853961 0.330044
vt 0.0853961 0.341842
vt 0 0.330044
vt 0 0.341842
vt 0.913895 0.330044
vt 1 0.330044
vt 1 0.341842
vt 0.913943 0.341842
vt 0.665255 0.5
vt 0.583144 0.5
vt 0.499602 0.5
vt 0.4148 0.5
vt 0.331768 0.5
vt 0.251164 0.5
vt 0.167426 0.5
vt 0.085396 0.5
vt 0 0.5
vt 1 0.5
vt 0.914951 0.5
vt 0.833532 0.5
vt 0.747815 0.5
vt 0.664901 0.924605
vt 1 0.00458121
vt 1 0.0104381
vt 0.914885 0.0104336
vt 0.914951 0.00458121
vt 0 0.0104381
vt 0 0.00458121
vt 0.0853961 0.00458121
vt 0.0854202 0.0104331
vt 0.833392 0.0104331
vt 0.833532 0.00458121
vt 0.747892 0.0104328
vt 0.747815 0.00458121
vt 0.66527 0.0104334
vt 0.665255 0.00458121
vt 0.583093 0.0104309
vt 0.583144 0.00458121
vt 0.499363 0.0102954
vt 0.499602 0.00458121
vt 0.415995 0.010239
vt 0.4148 0.00458121
vt 0.331863 0.01043
vt 0.331768 0.00458121
vt 0.251088 0.0104333
vt 0.251164 0.00458121
vt 0.167469 0.0104334
vt 0.167426 0.00458121
vt 0.542108 0.853711
vt 0.419316 0.924605
vt 0.40032 0.853711
vt 0.542108 0.711922
vt 0.542108 0.853711
vt 0.472035 0.730098
vt 0.613003 0.976503
vt 0.542108 0.853711
vt 0.419163 0.782981
vt 0.542108 0.853711
vt 0.471211 0.976502
vt 0.542108 0.853711
vt 0.542108 0.853711
vt 0.542108 0.995499
vt 0.613003 0.730918
vt 0.542108 0.853711
vt 0.542108 0.853711
vt 0.542108 0.853711


#
# MESH 000
#
g surface_000
usemtl surface_000
f 26/26/26 27/27/27 23/23/23
f 25/25/25 24/24/24 21/21/21
f 23/23/23 24/24/24 19/19/19
f 21/21/21 22/22/22 20/20/20
f 56/56/56 62/62/62 50/50/50
f 56/56/56 50/50/50 49/49/49
f 49/49/49 55/55/55 56/56/56
f 49/49/49 48/48/48 55/55/55
f 57/57/57 55/55/55 48/48/48
f 57/57/57 48/48/48 47/47/47
f 47/47/47 63/63/63 57/57/57
f 38/38/38 49/49/49 50/50/50
f 38/38/38 36/36/36 49/49/49
f 36/36/36 48/48/48 49/49/49
f 36/36/36 35/35/35 48/48/48
f 35/35/35 47/47/47 48/48/48
f 35/35/35 30/30/30 47/47/47
f 30/30/30 46/46/46 47/47/47
f 47/47/47 46/46/46 63/63/63
f 59/59/59 63/63/63 46/46/46
f 59/59/59 46/46/46 54/54/54
f 54/54/54 58/58/58 59/59/59
f 37/37/37 36/36/36 38/38/38
f 34/34/34 36/36/36 37/37/37
f 34/34/34 35/35/35 36/36/36
f 31/31/31 35/35/35 34/34/34
f 31/31/31 30/30/30 35/35/35
f 28/28/28 30/30/30 31/31/31
f 28/28/28 29/29/29 30/30/30
f 30/30/30 29/29/29 46/46/46
f 29/29/29 54/54/54 46/46/46
f 37/37/37 38/38/38 39/39/39
f 5/5/5 37/37/37 39/39/39
f 5/5/5 8/8/8 37/37/37
f 8/8/8 34/34/34 37/37/37
f 8/8/8 10/10/10 34/34/34
f 10/10/10 31/31/31 34/34/34
f 10/10/10 12/12/12 31/31/31
f 12/12/12 28/28/28 31/31/31
f 12/12/12 14/14/14 28/28/28
f 14/14/14 32/32/32 28/28/28
f 29/29/29 28/28/28 32/32/32
f 29/29/29 32/32/32 33/33/33
f 29/29/29 33/33/33 54/54/54
f 5/5/5 7/7/7 8/8/8
f 9/9/9 8/8/8 7/7/7
f 9/9/9 10/10/10 8/8/8
f 10/10/10 9/9/9 11/11/11
f 10/10/10 11/11/11 12/12/12
f 13/13/13 12/12/12 11/11/11
f 13/13/13 14/14/14 12/12/12
f 14/14/14 13/13/13 15/15/15
f 14/14/14 15/15/15 16/16/16
f 14/14/14 16/16/16 32/32/32
f 5/5/5 6/6/6 7/7/7
f 7/7/7 6/6/6 20/20/20
f 26/26/26 13/13/13 11/11/11
f 11/11/11 9/9/9 19/19/19
f 25/25/25 9/9/9 7/7/7
f 17/17/17 16/16/16 15/15/15
f 17/17/17 18/18/18 16/16/16
f 16/16/16 18/18/18 45/45/45
f 16/16/16 45/45/45 32/32/32
f 45/45/45 33/33/33 32/32/32
f 45/45/45 44/44/44 33/33/33
f 33/33/33 44/44/44 53/53/53
f 33/33/33 53/53/53 54/54/54
f 18/18/18 17/17/17 4/4/4
f 18/18/18 4/4/4 3/3/3
f 18/18/18 3/3/3 41/41/41
f 18/18/18 41/41/41 45/45/45
f 41/41/41 44/44/44 45/45/45
f 41/41/41 43/43/43 44/44/44
f 44/44/44 43/43/43 52/52/52
f 44/44/44 52/52/52 53/53/53
f 60/60/60 53/53/53 52/52/52
f 60/60/60 58/58/58 53/53/53
f 54/54/54 53/53/53 58/58/58
f 1/1/1 3/3/3 4/4/4
f 1/1/1 2/2/2 3/3/3
f 3/3/3 2/2/2 40/40/40
f 3/3/3 40/40/40 41/41/41
f 40/40/40 43/43/43 41/41/41
f 40/40/40 42/42/42 43/43/43
f 43/43/43 42/42/42 51/51/51
f 43/43/43 51/51/51 52/52/52
f 52/52/52 51/51/51 61/61/61
f 52/52/52 61/61/61 60/60/60
f 66/66/66 72/72/72 64/64/64
f 64/64/64 72/72/72 70/70/70
f 70/70/70 68/68/68 64/64/64
f 64/64/64 68/68/68 69/69/69
f 69/69/69 71/71/71 64/64/64
f 64/64/64 71/71/71 67/67/67
f 67/67/67 65/65/65 64/64/64
f 64/64/64 65/65/65 66/66/66
f 73/73/73 185/185/185 182/182/182
f 184/184/184 174/174/174 181/181/181
f 182/182/182 183/183/183 171/171/171
f 180/180/180 181/181/181 178/178/178
f 173/173/173 179/179/179 176/176/176
f 177/177/177 178/178/178 169/169/169
f 141/141/141 174/174/174 175/175/175
f 171/171/171 172/172/172 173/173/173
f 176/176/176 168/168/168 170/170/170
f 168/168/168 169/169/169 170/170/170
f 146/146/146 147/147/147 148/148/148
f 146/146/146 148/148/148 149/149/149
f 146/146/146 149/149/149 96/96/96
f 146/146/146 96/96/96 98/98/98
f 98/98/98 96/96/96 97/97/97
f 98/98/98 97/97/97 99/99/99
f 99/99/99 97/97/97 120/120/120
f 99/99/99 120/120/120 122/122/122
f 167/167/167 149/149/149 148/148/148
f 167/167/167 166/166/166 149/149/149
f 166/166/166 96/96/96 149/149/149
f 166/166/166 94/94/94 96/96/96
f 96/96/96 94/94/94 95/95/95
f 96/96/96 95/95/95 97/97/97
f 97/97/97 95/95/95 118/118/118
f 97/97/97 118/118/118 120/120/120
f 120/120/120 118/118/118 119/119/119
f 120/120/120 119/119/119 121/121/121
f 122/122/122 120/120/120 121/121/121
f 122/122/122 121/121/121 123/123/123
f 165/165/165 166/166/166 167/167/167
f 165/165/165 164/164/164 166/166/166
f 92/92/92 166/166/166 164/164/164
f 92/92/92 94/94/94 166/166/166
f 94/94/94 92/92/92 93/93/93
f 94/94/94 93/93/93 95/95/95
f 116/116/116 95/95/95 93/93/93
f 116/116/116 118/118/118 95/95/95
f 118/118/118 116/116/116 117/117/117
f 118/118/118 117/117/117 119/119/119
f 163/163/163 164/164/164 165/165/165
f 163/163/163 162/162/162 164/164/164
f 162/162/162 92/92/92 164/164/164
f 162/162/162 90/90/90 92/92/92
f 92/92/92 90/90/90 91/91/91
f 92/92/92 91/91/91 93/93/93
f 93/93/93 91/91/91 114/114/114
f 93/93/93 114/114/114 116/116/116
f 116/116/116 114/114/114 115/115/115
f 116/116/116 115/115/115 117/117/117
f 161/161/161 162/162/162 163/163/163
f 161/161/161 160/160/160 162/162/162
f 160/160/160 90/90/90 162/162/162
f 160/160/160 88/88/88 90/90/90
f 90/90/90 88/88/88 89/89/89
f 90/90/90 89/89/89 91/91/91
f 91/91/91 89/89/89 112/112/112
f 91/91/91 112/112/112 114/114/114
f 114/114/114 112/112/112 113/113/113
f 114/114/114 113/113/113 115/115/115
f 159/159/159 160/160/160 161/161/161
f 159/159/159 158/158/158 160/160/160
f 86/86/86 160/160/160 158/158/158
f 86/86/86 88/88/88 160/160/160
f 88/88/88 86/86/86 87/87/87
f 88/88/88 87/87/87 89/89/89
f 110/110/110 89/89/89 87/87/87
f 110/110/110 112/112/112 89/89/89
f 112/112/112 110/110/110 111/111/111
f 112/112/112 111/111/111 113/113/113
f 157/157/157 158/158/158 159/159/159
f 157/157/157 156/156/156 158/158/158
f 156/156/156 86/86/86 158/158/158
f 156/156/156 80/80/80 86/86/86
f 86/86/86 80/80/80 81/81/81
f 86/86/86 81/81/81 87/87/87
f 87/87/87 81/81/81 106/106/106
f 87/87/87 106/106/106 110/110/110
f 110/110/110 106/106/106 107/107/107
f 110/110/110 107/107/107 111/111/111
f 155/155/155 156/156/156 157/157/157
f 155/155/155 154/154/154 156/156/156
f 154/154/154 80/80/80 156/156/156
f 154/154/154 76/76/76 80/80/80
f 80/80/80 76/76/76 79/79/79
f 80/80/80 79/79/79 81/81/81
f 81/81/81 79/79/79 104/104/104
f 81/81/81 104/104/104 106/106/106
f 106/106/106 104/104/104 103/103/103
f 106/106/106 103/103/103 107/107/107
f 153/153/153 154/154/154 155/155/155
f 153/153/153 152/152/152 154/154/154
f 77/77/77 154/154/154 152/152/152
f 77/77/77 76/76/76 154/154/154
f 76/76/76 77/77/77 78/78/78
f 76/76/76 78/78/78 79/79/79
f 105/105/105 79/79/79 78/78/78
f 105/105/105 104/104/104 79/79/79
f 102/102/102 104/104/104 105/105/105
f 102/102/102 103/103/103 104/104/104
f 151/151/151 152/152/152 153/153/153
f 151/151/151 150/150/150 152/152/152
f 150/150/150 77/77/77 152/152/152
f 150/150/150 83/83/83 77/77/77
f 82/82/82 77/77/77 83/83/83
f 82/82/82 78/78/78 77/77/77
f 78/78/78 82/82/82 108/108/108
f 78/78/78 108/108/108 105/105/105
f 102/102/102 105/105/105 108/108/108
f 145/145/145 150/150/150 151/151/151
f 145/145/145 144/144/144 150/150/150
f 144/144/144 83/83/83 150/150/150
f 144/144/144 84/84/84 83/83/83
f 82/82/82 83/83/83 84/84/84
f 82/82/82 84/84/84 85/85/85
f 82/82/82 85/85/85 124/124/124
f 82/82/82 124/124/124 108/108/108
f 108/108/108 124/124/124 127/127/127
f 108/108/108 127/127/127 109/109/109
f 102/102/102 108/108/108 109/109/109
f 142/142/142 144/144/144 145/145/145
f 142/142/142 143/143/143 144/144/144
f 100/100/100 144/144/144 143/143/143
f 100/100/100 84/84/84 144/144/144
f 84/84/84 100/100/100 101/101/101
f 84/84/84 101/101/101 85/85/85
f 125/125/125 85/85/85 101/101/101
f 125/125/125 124/124/124 85/85/85
f 124/124/124 125/125/125 126/126/126
f 124/124/124 126/126/126 127/127/127
f 137/137/137 127/127/127 126/126/126
f 137/137/137 138/138/138 127/127/127
f 109/109/109 127/127/127 138/138/138
f 109/109/109 138/138/138 139/139/139
f 102/102/102 109/109/109 139/139/139
f 102/102/102 139/139/139 140/140/140
f 140/140/140 103/103/103 102/102/102
f 140/140/140 128/128/128 103/103/103
f 107/107/107 103/103/103 128/128/128
f 107/107/107 128/128/128 129/129/129
f 111/111/111 107/107/107 129/129/129
f 111/111/111 129/129/129 130/130/130
f 130/130/130 113/113/113 111/111/111
f 130/130/130 131/131/131 113/113/113
f 115/115/115 113/113/113 131/131/131
f 115/115/115 131/131/131 132/132/132
f 117/117/117 115/115/115 132/132/132
f 117/117/117 132/132/132 133/133/133
f 133/133/133 119/119/119 117/117/117
f 133/133/133 134/134/134 119/119/119
f 121/121/121 119/119/119 134/134/134
f 121/121/121 134/134/134 135/135/135
f 123/123/123 121/121/121 135/135/135
f 123/123/123 135/135/135 136/136/136
f 141/141/141 75/75/75 74/74/74
f 73/73/73 74/74/74 75/75/75

