#
# OBJECT NAME
#
o model_2561
mtllib 2561.mtl

#
# VERTEX BUFFER 000
#
v 0 0.964524 0
v 0.107829 0.990967 -0.0783421
v -0.0930853 0.989205 -0.0930853
v -0.133284 0.987443 0
v -0.106497 0.97736 0.0796301
v 0.0826124 0.995211 0.0888875
v 0.114624 0.990589 -5.84211e-005
v 0.203095 1 -0.203096
v 0.290801 1 0
v 0 1 -0.290801
v -0.203095 1 -0.203095
v -0.290801 1 0
v -0.202914 1 0.202799
v 0 1 0.290801
v 0.163973 1 0.220163
v -0.2 0.700142 -0.34641
v 0 0.700142 -0.4
v 0 0.678651 -0.382324
v -0.191162 0.678651 -0.331102
v -0.339194 0.700142 -0.2
v -0.331102 0.678651 -0.191162
v -0.392784 0.700142 0
v -0.382324 0.678651 0
v -0.2 0.65716 -0.34641
v -0.34641 0.65716 -0.2
v 0 0.65716 -0.4
v -0.4 0.65716 0
v 0.2 0.65716 -0.34641
v 0.191162 0.678651 -0.331102
v 0.2 0.700142 -0.34641
v -0.339194 0.700142 0.2
v -0.331102 0.678651 0.191162
v -0.34641 0.65716 0.2
v -0.2 0.700142 0.34641
v -0.191162 0.678651 0.331102
v -0.2 0.65716 0.34641
v 0 0.700142 0.4
v 0 0.678651 0.382324
v 0 0.65716 0.4
v 0.2 0.700142 0.34641
v 0.191162 0.678651 0.331102
v 0.2 0.65716 0.34641
v 0.34641 0.700142 0.2
v 0.2 0.700142 0.34641
v 0.191162 0.678651 0.331102
v 0.331102 0.678651 0.191162
v 0.2 0.65716 0.34641
v 0.335496 0.65716 0.2
v 0.4 0.700142 0
v 0.382324 0.678651 0
v 0.389085 0.65716 0
v 0.34641 0.700142 -0.2
v 0.331102 0.678651 -0.191162
v 0.335496 0.65716 -0.2
v -0.339194 0.314814 -0.2
v -0.392784 0.314814 0
v -0.382324 0.334277 0
v -0.331102 0.334277 -0.191162
v -0.2 0.314814 -0.335742
v -0.191162 0.334277 -0.320434
v 0 0.314814 -0.389332
v 0 0.334277 -0.371656
v -0.34641 0.35374 -0.2
v -0.2 0.35374 -0.335742
v -0.4 0.35374 0
v 0 0.35374 -0.389332
v -0.34641 0.35374 0.2
v -0.331102 0.334277 0.191162
v -0.339194 0.314814 0.2
v -0.2 0.35374 0.34641
v -0.191162 0.334277 0.331102
v -0.2 0.314814 0.34641
v 0 0.35374 0.4
v 0 0.334277 0.382324
v 0 0.314814 0.4
v 0.2 0.35374 0.34641
v 0.191162 0.334277 0.331102
v 0.2 0.314814 0.34641
v 0.335496 0.35374 0.2
v 0.2 0.35374 0.34641
v 0.191162 0.334277 0.331102
v 0.331102 0.334277 0.191162
v 0.2 0.314814 0.34641
v 0.34641 0.314814 0.2
v 0.389085 0.35374 0
v 0.382324 0.334277 0
v 0.4 0.314814 0
v 0.335496 0.35374 -0.2
v 0.331102 0.334277 -0.191162
v 0.34641 0.314814 -0.2
v 0.2 0.35374 -0.335742
v 0.191162 0.334277 -0.320434
v 0.2 0.314814 -0.335742
v 0.343278 1 -0.198191
v 0.198191 1 -0.343278
v 0.343278 1 -0.198191
v 0.34641 0.979868 -0.2
v 0.2 0.979868 -0.34641
v 0.198191 1 -0.343278
v 0.396383 1 0
v 0.4 0.979868 0
v 0.396383 1 0
v 0 1 -0.396383
v 0 0.979868 -0.4
v 0 1 -0.396383
v -0.196027 1 -0.339491
v -0.2 0.979868 -0.34641
v -0.196027 1 -0.339491
v -0.339194 0.979868 -0.2
v -0.343278 1 -0.198191
v -0.343278 1 -0.198191
v -0.396383 1 0
v -0.392784 0.979868 0
v -0.396383 1 0
v -0.343705 1 0.197731
v -0.339194 0.979868 0.2
v -0.343705 1 0.197731
v -0.195897 1 0.329434
v -0.2 0.979868 0.330274
v -0.195897 1 0.329434
v 0 1 0.380247
v 0 0.979868 0.383864
v 0 1 0.380247
v 0.196008 1 0.32336
v 0.2 0.979868 0.330274
v 0.196008 1 0.32336
v 0.343278 1 0.198191
v 0.196008 1 0.32336
v 0.2 0.979868 0.330274
v 0.34641 0.979868 0.2
v 0.343278 1 0.198191
v -0.2 0.0257484 -0.34641
v -0.339194 0.0257484 -0.2
v 0 0.0257484 -0.4
v 0.2 0.0257484 -0.34641
v 0.34641 0.0257484 -0.2
v 0.4 0.0257484 0
v 0.34641 0.0257484 -0.2
v 0.34641 0.0257484 0.2
v 0.4 0.0257484 0
v 0.2 0.0257485 0.34641
v 0.34641 0.0257484 0.2
v 0 0.0257484 0.4
v 0.2 0.0257485 0.34641
v -0.2 0.0257485 0.34641
v -0.339194 0.0257484 0.2
v -0.392784 0.0257484 0
v 0 0.028503 0
v 0.107829 0.00206011 0.078342
v -0.0930853 0.00382206 0.0930853
v -0.133284 0.00558413 0
v -0.107829 0.0164589 -0.078342
v 0.0792257 0 -0.0899879
v 0.203095 0 0.203096
v 0.114624 0 5.84548e-005
v 0.290801 0 1.39233e-007
v 0 0 0.290801
v -0.203095 0 0.203095
v -0.290801 0 1.39233e-007
v -0.202914 0.000809693 -0.202799
v 0 0 -0.290801
v 0.163973 0 -0.220163
v 0.343278 0 0.198192
v 0.198191 0 0.343278
v 0.343278 0 0.198192
v 0.34641 0.0257484 0.2
v 0.2 0.0257485 0.34641
v 0.198191 0 0.343278
v 0.34641 0.0257484 0.2
v 0.396383 0 1.37852e-007
v 0.4 0.0257484 0
v 0.396383 0 1.37852e-007
v 0 0 0.396383
v 0.198191 0 0.343278
v 0 0 0.396383
v -0.196027 0 0.339491
v -0.196027 0 0.339491
v -0.343278 0 0.198192
v -0.343278 0 0.198192
v -0.396383 0 1.37852e-007
v -0.396383 0 1.37852e-007
v -0.343705 0 -0.197731
v -0.343705 0 -0.197731
v -0.195897 0 -0.34557
v -0.195897 0 -0.34557
v 0 0 -0.396383
v 0 0 -0.396383
v 0.196008 0 -0.339496
v 0.196008 0 -0.339496
v 0.343278 0 -0.198191
v 0.343278 0 -0.198191
v 0.343278 0 -0.198191
v 0.34641 0.0257484 -0.2
v 0.4 0.0257484 0

vn -0.0388794 0.998535 0.0222473
vn -0.0484314 0.997559 0.0491638
vn 0.0445862 0.996582 0.0653687
vn 0.108643 0.993652 0.0210571
vn 0.0602722 0.996094 -0.0582581
vn -0.0593262 0.996094 -0.0587769
vn -0.0704346 0.99707 -0.0159912
vn -0.0161285 0.999512 0.0145645
vn -0.0154724 0.999512 -0.0022831
vn -0.00118256 0.999512 0.0169983
vn 0.0219727 0.999512 0.0200043
vn 0.0349121 0.999023 0.00387192
vn 0.0388794 0.998535 -0.030777
vn -0.00816345 0.999512 -0.0249329
vn -0.0111008 0.999512 -0.0131073
vn -0.506836 -0.0476379 -0.860352
vn 0 -0.0513306 -0.998535
vn 0 0 -1
vn -0.501465 0.0334167 -0.864258
vn -0.871582 -0.039032 -0.487793
vn -0.866211 0.129883 -0.481934
vn -0.999023 -0.0314636 0
vn -0.984375 0.174927 1.78814e-007
vn -0.487549 0.0252686 -0.872559
vn -0.861816 0.0419617 -0.504883
vn 0 0.014801 -0.999512
vn -0.998535 0.0475464 0
vn 0.498779 0.0199585 -0.866211
vn 0.501953 -0.0506287 -0.862793
vn 0.499268 -0.0513306 -0.864746
vn -0.867188 -0.0300751 0.496338
vn -0.866211 0.129883 0.481934
vn -0.864746 0.0475464 0.499268
vn -0.488525 -0.0108719 0.87207
vn -0.501465 0.0334167 0.864258
vn -0.499268 0.0475464 0.864746
vn 0 0.00212097 0.999512
vn 0 0 1
vn 0 0.0475464 0.998535
vn 0.481201 -0.0147171 0.875977
vn 0.501953 -0.0506287 0.862793
vn 0.510742 0.0423889 0.858398
vn 0.860352 -0.0421448 0.507813
vn 0.481201 -0.0147171 0.875977
vn 0.501953 -0.0506287 0.862793
vn 0.860352 -0.198975 0.46875
vn 0.510742 0.0423889 0.858398
vn 0.875488 0.0306091 0.481934
vn 0.998535 -0.0513306 0
vn 0.965332 -0.259766 0
vn 0.999512 0.0193176 0
vn 0.864746 -0.0513306 -0.499268
vn 0.860352 -0.198975 -0.46875
vn 0.872559 0.025238 -0.487305
vn -0.868164 0.0434875 -0.493896
vn -0.999512 0.0304871 0
vn -0.980957 -0.192383 0
vn -0.857422 -0.143311 -0.493408
vn -0.498535 0.0697632 -0.86377
vn -0.479004 -0.0345459 -0.876953
vn 0 0.0840454 -0.996094
vn 0 0 -1
vn -0.86084 -0.0529175 -0.504883
vn -0.490723 -0.0697632 -0.868164
vn -0.998535 -0.0475159 0
vn 0 -0.0803223 -0.996582
vn -0.864746 -0.0475159 0.499268
vn -0.864746 -0.143311 0.480469
vn -0.871582 0.0379028 0.487793
vn -0.499268 -0.0475159 0.864746
vn -0.501465 -0.0368958 0.864258
vn -0.506836 0.0461731 0.860352
vn 0 -0.0475159 0.998535
vn 0 0 1
vn 0 0.0497437 0.998535
vn 0.510742 -0.0423279 0.858398
vn 0.501953 0.0558777 0.862793
vn 0.499268 0.0497437 0.864746
vn 0.875488 -0.030777 0.481689
vn 0.510742 -0.0423279 0.858398
vn 0.501953 0.0558777 0.862793
vn 0.856934 0.219604 0.465332
vn 0.499268 0.0497437 0.864746
vn 0.864746 0.0497437 0.499268
vn 0.999512 -0.0193329 0
vn 0.958496 0.284668 0
vn 0.998535 0.0497437 0
vn 0.87207 -0.0360718 -0.487793
vn 0.850098 0.219971 -0.477783
vn 0.86084 0.0554199 -0.504883
vn 0.502441 -0.0650024 -0.861816
vn 0.479492 0.0523376 -0.875488
vn 0.490723 0.0730591 -0.868164
vn 0.197754 0.973145 -0.114197
vn 0.114197 0.973145 -0.197754
vn 0.197754 0.973145 -0.114197
vn 0.865723 0.0116425 -0.499756
vn 0.499756 0.0116425 -0.865723
vn 0.114197 0.973145 -0.197754
vn 0.17749 0.983887 0
vn 0.999512 0.0116425 0
vn 0.17749 0.983887 0
vn -0.000986099 0.980957 -0.193359
vn -0.000308037 0.0151367 -0.999512
vn -0.000986099 0.980957 -0.193359
vn -0.116882 0.972656 -0.200195
vn -0.507324 0.0140076 -0.861328
vn -0.116882 0.972656 -0.200195
vn -0.87207 0.000498772 -0.48877
vn -0.200928 0.973633 -0.106445
vn -0.200928 0.973633 -0.106445
vn -0.192871 0.980957 -9.90033e-005
vn -0.999512 -0.0125656 -3.69549e-005
vn -0.192871 0.980957 -9.90033e-005
vn -0.200317 0.973633 0.108093
vn -0.866699 0.00592804 0.498535
vn -0.200317 0.973633 0.108093
vn -0.113159 0.967773 0.224854
vn -0.496338 0.0428162 0.866699
vn -0.113159 0.967773 0.224854
vn 0.00187874 0.972656 0.231079
vn 0.000488281 0.0674438 0.997559
vn 0.00187874 0.972656 0.231079
vn 0.134155 0.95752 0.253906
vn 0.486816 0.054657 0.871582
vn 0.134155 0.95752 0.253906
vn 0.162109 0.981445 0.0996094
vn 0.134155 0.95752 0.253906
vn 0.486816 0.054657 0.871582
vn 0.859863 0.0249481 0.509277
vn 0.162109 0.981445 0.0996094
vn -0.496826 0.017807 -0.867188
vn -0.869141 0.00971222 -0.494141
vn 0.000610352 0.0206757 -0.999512
vn 0.487793 0.00592804 -0.872559
vn 0.862305 -0.00839233 -0.505371
vn 0.999512 -0.0111618 0
vn 0.862305 -0.00839233 -0.505371
vn 0.865723 -0.0111618 0.499756
vn 0.999512 -0.0111618 0
vn 0.499756 -0.0111618 0.865723
vn 0.865723 -0.0111618 0.499756
vn -0.000377893 -0.0145264 0.999512
vn 0.499756 -0.0111618 0.865723
vn -0.507324 -0.0135269 0.861328
vn -0.87207 -0.000206947 0.48877
vn -0.999512 0.0118866 4.47035e-005
vn -0.0408325 -0.998535 -0.0306091
vn -0.0208282 -0.999512 -0.0205994
vn 0.0222626 -0.998535 -0.0406494
vn 0.071228 -0.99707 -0.0229187
vn 0.0384827 -0.998535 0.0317078
vn -0.0375671 -0.998535 0.028183
vn -0.00291634 -0.999512 -0.00154495
vn -0.0357666 -0.999023 0.00797272
vn -0.00150871 -0.999512 0.000657558
vn -0.000911713 -0.999512 -0.00508499
vn 0.00832367 -0.999512 -0.00823212
vn 0.0206146 -0.999512 -0.0046196
vn 0.0256348 -0.999023 0.018692
vn -0.00773621 -0.999512 0.0142059
vn 0 -1 0
vn 0.247437 -0.958008 0.142822
vn 0.142822 -0.958008 0.247437
vn 0.247437 -0.958008 0.142822
vn 0.865723 -0.0111618 0.499756
vn 0.499756 -0.0111618 0.865723
vn 0.142822 -0.958008 0.247437
vn 0.865723 -0.0111618 0.499756
vn 0.223389 -0.974609 1.78814e-007
vn 0.999512 -0.0111618 0
vn 0.223389 -0.974609 1.78814e-007
vn -0.00122166 -0.969727 0.24292
vn 0.142822 -0.958008 0.247437
vn -0.00122166 -0.969727 0.24292
vn -0.145508 -0.957031 0.24939
vn -0.145508 -0.957031 0.24939
vn -0.252686 -0.95752 0.13623
vn -0.252686 -0.95752 0.13623
vn -0.244019 -0.969727 -0.000311852
vn -0.244019 -0.969727 -0.000311852
vn -0.252197 -0.958008 -0.135376
vn -0.252197 -0.958008 -0.135376
vn -0.138794 -0.958496 -0.247437
vn -0.138794 -0.958496 -0.247437
vn 0.00159359 -0.967285 -0.25293
vn 0.00159359 -0.967285 -0.25293
vn 0.161743 -0.945801 -0.280273
vn 0.161743 -0.945801 -0.280273
vn 0.208008 -0.970215 -0.12146
vn 0.208008 -0.970215 -0.12146
vn 0.208008 -0.970215 -0.12146
vn 0.862305 -0.00839233 -0.505371
vn 0.999512 -0.0111618 0

vt 0.83663 0.855594
vt 0.871363 0.881965
vt 0.806647 0.886928
vt 0.793699 0.855594
vt 0.802327 0.828789
vt 0.863241 0.825672
vt 0.873552 0.855613
vt 0.902049 0.92396
vt 0.9303 0.855594
vt 0.83663 0.953484
vt 0.771212 0.92396
vt 0.742961 0.855594
vt 0.77127 0.787327
vt 0.83663 0.757704
vt 0.889447 0.781482
vt 0.503564 0.342223
vt 0.419866 0.342223
vt 0.419947 0.336364
vt 0.503536 0.336364
vt 0.586519 0.342223
vt 0.586511 0.336364
vt 0.66929 0.342223
vt 0.669318 0.336364
vt 0.503522 0.330515
vt 0.586507 0.330515
vt 0.419989 0.330515
vt 0.669333 0.330515
vt 0.337943 0.330515
vt 0.337916 0.336364
vt 0.337866 0.342223
vt 0.752648 0.342223
vt 0.752666 0.336364
vt 0.752674 0.330515
vt 0.836406 0.342223
vt 0.836367 0.336364
vt 0.836345 0.330515
vt 0.919352 0.342223
vt 0.919308 0.336364
vt 0.919284 0.330515
vt 1 0.342223
vt 1 0.336364
vt 1 0.330515
vt 0.0830028 0.342223
vt 0.000202417 0.342223
vt 0.000234008 0.336364
vt 0.0829849 0.336364
vt 0.000249386 0.330515
vt 0.082976 0.330515
vt 0.16537 0.342223
vt 0.16537 0.336364
vt 0.16537 0.330515
vt 0.25 0.342223
vt 0.25 0.336364
vt 0.25 0.330515
vt 0.58651 0.152689
vt 0.669343 0.152689
vt 0.669363 0.15857
vt 0.586504 0.15857
vt 0.503538 0.152689
vt 0.503517 0.15857
vt 0.420029 0.152689
vt 0.420087 0.15857
vt 0.586502 0.164487
vt 0.503509 0.164487
vt 0.66937 0.164487
vt 0.420107 0.164487
vt 0.752692 0.164487
vt 0.752687 0.15857
vt 0.752675 0.152689
vt 0.836286 0.164487
vt 0.836296 0.15857
vt 0.836324 0.152689
vt 0.919221 0.164487
vt 0.919232 0.15857
vt 0.919264 0.152689
vt 1 0.164487
vt 1 0.15857
vt 1 0.152689
vt 0.0829583 0.164487
vt 0.000272751 0.164487
vt 0.000264168 0.15857
vt 0.082963 0.15857
vt 0.00024128 0.152689
vt 0.0829757 0.152689
vt 0.16537 0.164487
vt 0.16537 0.15857
vt 0.16537 0.152689
vt 0.25 0.164487
vt 0.25 0.15857
vt 0.25 0.152689
vt 0.338031 0.164487
vt 0.338019 0.15857
vt 0.337983 0.152689
vt 0.947203 0.92231
vt 0.90047 0.971149
vt 0.25 0.496693
vt 0.25 0.490836
vt 0.337041 0.490841
vt 0.336975 0.496693
vt 0.16537 0.496693
vt 0.165345 0.490841
vt 0.964309 0.855594
vt 0.83663 0.989025
vt 0.418534 0.490841
vt 0.418394 0.496693
vt 0.773489 0.969874
vt 0.504034 0.490842
vt 0.504111 0.496693
vt 0.586656 0.490841
vt 0.586671 0.496693
vt 0.726058 0.92231
vt 0.708952 0.855594
vt 0.668833 0.490843
vt 0.668782 0.496693
vt 0.72592 0.789033
vt 0.752563 0.490979
vt 0.752324 0.496693
vt 0.77353 0.739267
vt 0.835931 0.491035
vt 0.837126 0.496693
vt 0.83663 0.722163
vt 0.920063 0.490844
vt 0.920158 0.496693
vt 0.899766 0.741312
vt 1 0.490841
vt 1 0.496693
vt 0.947203 0.788878
vt -0.000398755 0.496693
vt -0.00032258 0.490841
vt 0.0832969 0.490841
vt 0.0833392 0.496693
vt 0.501143 0.0200738
vt 0.584294 0.0201024
vt 0.417044 0.0201434
vt 0.336416 0.0201474
vt 0.249426 0.0201655
vt 0.165468 0.020178
vt 0.249902 0.020178
vt 0.0833252 0.020178
vt 0.165354 0.020178
vt -0.000718077 0.0201758
vt 0.0827754 0.0201773
vt 0.918456 0.0201532
vt 0.999972 0.0201643
vt 0.833792 0.0201526
vt 0.75097 0.0201578
vt 0.667854 0.0201573
vt 0.54354 0.852117
vt 0.580132 0.8799
vt 0.511951 0.885129
vt 0.49831 0.852117
vt 0.506948 0.824333
vt 0.570425 0.820203
vt 0.612461 0.924143
vt 0.582438 0.852138
vt 0.642224 0.852117
vt 0.54354 0.955247
vt 0.474619 0.924143
vt 0.444855 0.852117
vt 0.47468 0.780196
vt 0.54354 0.748986
vt 0.599184 0.774038
vt 0.660032 0.922404
vt 0.610797 0.973858
vt 0.083324 0.00845754
vt 0.0835825 0.0161973
vt -0.00144557 0.0161957
vt -0.0017252 0.00845754
vt 0.0832451 0.0161965
vt 0.165345 0.00846255
vt 0.165456 0.0161989
vt 0.678054 0.852117
vt 0.54354 0.992691
vt 1 0.00845754
vt 0.918016 0.00845754
vt 0.477017 0.972515
vt 0.832299 0.00845754
vt 0.74974 0.00845754
vt 0.427047 0.922404
vt 0.409026 0.852117
vt 0.667628 0.00845754
vt 0.426902 0.781993
vt 0.584087 0.00845754
vt 0.477061 0.729563
vt 0.499284 0.00845754
vt 0.54354 0.711542
vt 0.416253 0.00845754
vt 0.610056 0.731717
vt 0.335649 0.00845754
vt 0.660032 0.78183
vt 0.25 0.00845754
vt 0.25 0.00846219
vt 0.250101 0.0161969
vt 0.165276 0.016197


#
# MESH 000
#
g surface_000
usemtl surface_000
f 192/192/192 194/194/194 170/170/170
f 192/192/192 193/193/193 194/194/194
f 189/189/189 136/136/136 191/191/191
f 189/189/189 135/135/135 136/136/136
f 136/136/136 135/135/135 93/93/93
f 136/136/136 93/93/93 90/90/90
f 187/187/187 135/135/135 189/189/189
f 187/187/187 134/134/134 135/135/135
f 61/61/61 135/135/135 134/134/134
f 61/61/61 93/93/93 135/135/135
f 93/93/93 61/61/61 62/62/62
f 93/93/93 62/62/62 92/92/92
f 90/90/90 93/93/93 92/92/92
f 185/185/185 134/134/134 187/187/187
f 185/185/185 132/132/132 134/134/134
f 59/59/59 134/134/134 132/132/132
f 59/59/59 61/61/61 134/134/134
f 61/61/61 59/59/59 60/60/60
f 61/61/61 60/60/60 62/62/62
f 64/64/64 62/62/62 60/60/60
f 64/64/64 66/66/66 62/62/62
f 66/66/66 92/92/92 62/62/62
f 183/183/183 132/132/132 185/185/185
f 183/183/183 133/133/133 132/132/132
f 132/132/132 133/133/133 55/55/55
f 132/132/132 55/55/55 59/59/59
f 59/59/59 55/55/55 58/58/58
f 59/59/59 58/58/58 60/60/60
f 63/63/63 60/60/60 58/58/58
f 63/63/63 64/64/64 60/60/60
f 64/64/64 63/63/63 25/25/25
f 64/64/64 25/25/25 24/24/24
f 24/24/24 66/66/66 64/64/64
f 181/181/181 133/133/133 183/183/183
f 181/181/181 147/147/147 133/133/133
f 56/56/56 133/133/133 147/147/147
f 56/56/56 55/55/55 133/133/133
f 55/55/55 56/56/56 57/57/57
f 55/55/55 57/57/57 58/58/58
f 65/65/65 58/58/58 57/57/57
f 65/65/65 63/63/63 58/58/58
f 27/27/27 63/63/63 65/65/65
f 27/27/27 25/25/25 63/63/63
f 178/178/178 147/147/147 181/181/181
f 178/178/178 146/146/146 147/147/147
f 69/69/69 147/147/147 146/146/146
f 69/69/69 56/56/56 147/147/147
f 56/56/56 69/69/69 68/68/68
f 56/56/56 68/68/68 57/57/57
f 67/67/67 57/57/57 68/68/68
f 67/67/67 65/65/65 57/57/57
f 33/33/33 65/65/65 67/67/67
f 33/33/33 27/27/27 65/65/65
f 177/177/177 146/146/146 178/178/178
f 177/177/177 145/145/145 146/146/146
f 146/146/146 145/145/145 72/72/72
f 146/146/146 72/72/72 69/69/69
f 69/69/69 72/72/72 71/71/71
f 69/69/69 71/71/71 68/68/68
f 70/70/70 68/68/68 71/71/71
f 70/70/70 67/67/67 68/68/68
f 67/67/67 70/70/70 36/36/36
f 67/67/67 36/36/36 33/33/33
f 175/175/175 145/145/145 177/177/177
f 175/175/175 143/143/143 145/145/145
f 75/75/75 145/145/145 143/143/143
f 75/75/75 72/72/72 145/145/145
f 72/72/72 75/75/75 74/74/74
f 72/72/72 74/74/74 71/71/71
f 73/73/73 71/71/71 74/74/74
f 73/73/73 70/70/70 71/71/71
f 39/39/39 70/70/70 73/73/73
f 39/39/39 36/36/36 70/70/70
f 174/174/174 143/143/143 175/175/175
f 174/174/174 144/144/144 143/143/143
f 78/78/78 143/143/143 144/144/144
f 78/78/78 75/75/75 143/143/143
f 75/75/75 78/78/78 77/77/77
f 75/75/75 77/77/77 74/74/74
f 76/76/76 74/74/74 77/77/77
f 76/76/76 73/73/73 74/74/74
f 42/42/42 73/73/73 76/76/76
f 42/42/42 39/39/39 73/73/73
f 39/39/39 42/42/42 41/41/41
f 39/39/39 41/41/41 38/38/38
f 36/36/36 39/39/39 38/38/38
f 36/36/36 38/38/38 35/35/35
f 33/33/33 36/36/36 35/35/35
f 33/33/33 35/35/35 32/32/32
f 27/27/27 33/33/33 32/32/32
f 40/40/40 38/38/38 41/41/41
f 40/40/40 37/37/37 38/38/38
f 37/37/37 35/35/35 38/38/38
f 37/37/37 34/34/34 35/35/35
f 34/34/34 32/32/32 35/35/35
f 34/34/34 31/31/31 32/32/32
f 31/31/31 23/23/23 32/32/32
f 27/27/27 32/32/32 23/23/23
f 25/25/25 27/27/27 23/23/23
f 25/25/25 23/23/23 21/21/21
f 24/24/24 25/25/25 21/21/21
f 122/122/122 37/37/37 40/40/40
f 119/119/119 37/37/37 122/122/122
f 119/119/119 34/34/34 37/37/37
f 31/31/31 34/34/34 119/119/119
f 31/31/31 119/119/119 116/116/116
f 113/113/113 31/31/31 116/116/116
f 113/113/113 22/22/22 31/31/31
f 31/31/31 22/22/22 23/23/23
f 22/22/22 21/21/21 23/23/23
f 122/122/122 40/40/40 125/125/125
f 123/123/123 122/122/122 125/125/125
f 120/120/120 122/122/122 123/123/123
f 120/120/120 119/119/119 122/122/122
f 117/117/117 119/119/119 120/120/120
f 117/117/117 116/116/116 119/119/119
f 114/114/114 116/116/116 117/117/117
f 114/114/114 113/113/113 116/116/116
f 110/110/110 113/113/113 114/114/114
f 110/110/110 109/109/109 113/113/113
f 109/109/109 22/22/22 113/113/113
f 123/123/123 125/125/125 126/126/126
f 108/108/108 109/109/109 110/110/110
f 108/108/108 107/107/107 109/109/109
f 16/16/16 109/109/109 107/107/107
f 16/16/16 20/20/20 109/109/109
f 109/109/109 20/20/20 22/22/22
f 22/22/22 20/20/20 21/21/21
f 20/20/20 19/19/19 21/21/21
f 24/24/24 21/21/21 19/19/19
f 105/105/105 107/107/107 108/108/108
f 105/105/105 104/104/104 107/107/107
f 104/104/104 16/16/16 107/107/107
f 104/104/104 17/17/17 16/16/16
f 16/16/16 17/17/17 18/18/18
f 16/16/16 18/18/18 19/19/19
f 20/20/20 16/16/16 19/19/19
f 99/99/99 104/104/104 105/105/105
f 99/99/99 98/98/98 104/104/104
f 98/98/98 17/17/17 104/104/104
f 98/98/98 30/30/30 17/17/17
f 17/17/17 30/30/30 29/29/29
f 17/17/17 29/29/29 18/18/18
f 28/28/28 18/18/18 29/29/29
f 28/28/28 26/26/26 18/18/18
f 26/26/26 19/19/19 18/18/18
f 26/26/26 24/24/24 19/19/19
f 24/24/24 26/26/26 66/66/66
f 96/96/96 98/98/98 99/99/99
f 96/96/96 97/97/97 98/98/98
f 52/52/52 98/98/98 97/97/97
f 52/52/52 30/30/30 98/98/98
f 30/30/30 52/52/52 53/53/53
f 30/30/30 53/53/53 29/29/29
f 54/54/54 29/29/29 53/53/53
f 54/54/54 28/28/28 29/29/29
f 88/88/88 28/28/28 54/54/54
f 88/88/88 91/91/91 28/28/28
f 26/26/26 28/28/28 91/91/91
f 26/26/26 91/91/91 66/66/66
f 66/66/66 91/91/91 92/92/92
f 97/97/97 96/96/96 100/100/100
f 97/97/97 100/100/100 101/101/101
f 97/97/97 101/101/101 49/49/49
f 97/97/97 49/49/49 52/52/52
f 52/52/52 49/49/49 50/50/50
f 52/52/52 50/50/50 53/53/53
f 51/51/51 53/53/53 50/50/50
f 51/51/51 54/54/54 53/53/53
f 54/54/54 51/51/51 85/85/85
f 54/54/54 85/85/85 88/88/88
f 131/131/131 101/101/101 100/100/100
f 131/131/131 130/130/130 101/101/101
f 130/130/130 49/49/49 101/101/101
f 130/130/130 43/43/43 49/49/49
f 49/49/49 43/43/43 46/46/46
f 49/49/49 46/46/46 50/50/50
f 48/48/48 50/50/50 46/46/46
f 48/48/48 51/51/51 50/50/50
f 51/51/51 48/48/48 79/79/79
f 51/51/51 79/79/79 85/85/85
f 128/128/128 130/130/130 131/131/131
f 128/128/128 129/129/129 130/130/130
f 44/44/44 130/130/130 129/129/129
f 44/44/44 43/43/43 130/130/130
f 43/43/43 44/44/44 45/45/45
f 43/43/43 45/45/45 46/46/46
f 47/47/47 46/46/46 45/45/45
f 47/47/47 48/48/48 46/46/46
f 80/80/80 48/48/48 47/47/47
f 80/80/80 79/79/79 48/48/48
f 79/79/79 80/80/80 81/81/81
f 79/79/79 81/81/81 82/82/82
f 85/85/85 79/79/79 82/82/82
f 85/85/85 82/82/82 86/86/86
f 88/88/88 85/85/85 86/86/86
f 88/88/88 86/86/86 89/89/89
f 91/91/91 88/88/88 89/89/89
f 91/91/91 89/89/89 92/92/92
f 83/83/83 82/82/82 81/81/81
f 83/83/83 84/84/84 82/82/82
f 84/84/84 86/86/86 82/82/82
f 84/84/84 87/87/87 86/86/86
f 87/87/87 89/89/89 86/86/86
f 87/87/87 90/90/90 89/89/89
f 90/90/90 92/92/92 89/89/89
f 141/141/141 84/84/84 83/83/83
f 141/141/141 142/142/142 84/84/84
f 90/90/90 87/87/87 137/137/137
f 90/90/90 137/137/137 138/138/138
f 87/87/87 84/84/84 139/139/139
f 87/87/87 139/139/139 140/140/140
f 169/169/169 170/170/170 171/171/171
f 169/169/169 165/165/165 170/170/170
f 165/165/165 167/167/167 168/168/168
f 165/165/165 166/166/166 167/167/167
f 158/158/158 176/176/176 179/179/179
f 173/173/173 176/176/176 158/158/158
f 173/173/173 158/158/158 157/157/157
f 164/164/164 173/173/173 157/157/157
f 164/164/164 157/157/157 154/154/154
f 163/163/163 164/164/164 154/154/154
f 172/172/172 163/163/163 154/154/154
f 179/179/179 159/159/159 158/158/158
f 150/150/150 158/158/158 159/159/159
f 157/157/157 158/158/158 150/150/150
f 149/149/149 157/157/157 150/150/150
f 154/154/154 157/157/157 149/149/149
f 154/154/154 149/149/149 155/155/155
f 154/154/154 155/155/155 156/156/156
f 172/172/172 154/154/154 156/156/156
f 190/190/190 172/172/172 156/156/156
f 179/179/179 180/180/180 159/159/159
f 180/180/180 160/160/160 159/159/159
f 160/160/160 151/151/151 159/159/159
f 150/150/150 159/159/159 151/151/151
f 148/148/148 150/150/150 151/151/151
f 148/148/148 149/149/149 150/150/150
f 155/155/155 149/149/149 148/148/148
f 155/155/155 148/148/148 153/153/153
f 153/153/153 156/156/156 155/155/155
f 153/153/153 162/162/162 156/156/156
f 190/190/190 156/156/156 162/162/162
f 188/188/188 190/190/190 162/162/162
f 186/186/186 188/188/188 162/162/162
f 180/180/180 182/182/182 160/160/160
f 182/182/182 184/184/184 160/160/160
f 184/184/184 161/161/161 160/160/160
f 152/152/152 160/160/160 161/161/161
f 160/160/160 152/152/152 151/151/151
f 148/148/148 151/151/151 152/152/152
f 148/148/148 152/152/152 153/153/153
f 153/153/153 152/152/152 161/161/161
f 153/153/153 161/161/161 162/162/162
f 186/186/186 162/162/162 161/161/161
f 184/184/184 186/186/186 161/161/161
f 11/11/11 106/106/106 111/111/111
f 103/103/103 106/106/106 11/11/11
f 103/103/103 11/11/11 10/10/10
f 95/95/95 103/103/103 10/10/10
f 95/95/95 10/10/10 8/8/8
f 94/94/94 95/95/95 8/8/8
f 102/102/102 94/94/94 8/8/8
f 111/111/111 12/12/12 11/11/11
f 3/3/3 11/11/11 12/12/12
f 10/10/10 11/11/11 3/3/3
f 2/2/2 10/10/10 3/3/3
f 8/8/8 10/10/10 2/2/2
f 8/8/8 2/2/2 7/7/7
f 8/8/8 7/7/7 9/9/9
f 102/102/102 8/8/8 9/9/9
f 127/127/127 102/102/102 9/9/9
f 111/111/111 112/112/112 12/12/12
f 112/112/112 13/13/13 12/12/12
f 13/13/13 4/4/4 12/12/12
f 3/3/3 12/12/12 4/4/4
f 1/1/1 3/3/3 4/4/4
f 1/1/1 2/2/2 3/3/3
f 1/1/1 7/7/7 2/2/2
f 1/1/1 6/6/6 7/7/7
f 6/6/6 9/9/9 7/7/7
f 6/6/6 15/15/15 9/9/9
f 127/127/127 9/9/9 15/15/15
f 124/124/124 127/127/127 15/15/15
f 121/121/121 124/124/124 15/15/15
f 112/112/112 115/115/115 13/13/13
f 115/115/115 118/118/118 13/13/13
f 118/118/118 14/14/14 13/13/13
f 5/5/5 13/13/13 14/14/14
f 13/13/13 5/5/5 4/4/4
f 1/1/1 4/4/4 5/5/5
f 5/5/5 6/6/6 1/1/1
f 6/6/6 5/5/5 14/14/14
f 6/6/6 14/14/14 15/15/15
f 121/121/121 15/15/15 14/14/14
f 118/118/118 121/121/121 14/14/14

