#
# OBJECT NAME
#
o model_1044
mtllib 1044.mtl

#
# VERTEX BUFFER 000
#
v -1.04348 0.0259685 0.107777
v -0.781368 0.0259685 0.523017
v -0.537691 0.033443 0.225104
v -0.77204 0.0250196 -0.171147
v -0.443088 0.0259685 0.0698746
v -0.491432 0.0259685 -0.0262722
v -1.11346 0.0259685 0.389264
v -1.02988 0.0259685 0.495331
v -0.135095 0.205258 -0.0498392
v -0.346458 0.182073 0.180622
v -0.205016 0.0299013 0.311276
v 0.00634646 0.0355881 0.0808144
v -0.505968 0.175326 -0.348834
v -0.63745 0.197753 -0.0684287
v -0.331209 0.251346 -0.232194
v -0.480583 0.243021 0.0447128
v -1.13442 0.0425164 -0.299433
v -1.00616 0.0243447 -0.574867
v -0.585083 0.0839033 -0.67062
v 0.0482052 0.12725 -0.436593
v -0.0721017 0.0220488 -0.655437
v -0.274156 0.0308487 -0.73438
v -0.816867 0.136945 -0.0783851
v -0.867482 0.115897 0.0139259
v -0.518094 0.207364 0.221793
v -0.443992 0.266148 0.0913951
v -0.785667 0.0791361 0.370175
v -0.666551 0.0525428 0.44737
v -0.585732 0.117469 0.342195
v -0.922116 0.107765 0.121273
v -0.646148 0.109392 -0.53902
v -0.263937 0.210775 -0.389311
v -0.202028 0.115404 0.464837
v 0.00759582 0.184256 0.242657
v -0.373347 0.302561 -0.098396
v 0.0549486 0.278074 0.056156
v 0.115071 0.123342 -0.27648
v -0.45898 0.059352 0.45367
v -0.749384 0.159609 -0.213463
v -0.764683 0.0267715 0.603939
v -0.846635 0.0483269 0.488034
v -0.589896 0.0472391 0.501636
v -0.698817 0.0415846 0.609605
v 0.502575 0.0259685 -0.28166
v 1.02739 0.0661502 -0.0819039
v 1.04435 0.0921341 -0.572657
v 0.516709 0.0259685 -0.388345
v 1.24363 0.14293 -0.275224
v 1.23421 0.14293 -0.40994
v -0.225448 0.0259685 0.547076
v 0.251633 0.0430408 0.431178
v 0.0470273 0.033443 0.105099
v -0.403264 0.0250196 0.200869
v -0.0699353 0.0259685 -0.0340625
v -0.176478 0.0259685 -0.018898
v 0.0190317 0.0259685 0.703161
v 0.146215 0.0259685 0.657758
v 0.117904 0.0259685 -0.634974
v -0.340629 0.0430408 -0.459514
v -0.096325 0.033443 -0.162013
v 0.338187 0.0250196 -0.314111
v 0.0373402 0.0259685 -0.0388069
v 0.1411 0.0259685 -0.0673594
v -0.144395 0.0259685 -0.758797
v -0.264793 0.0259685 -0.697633
v -0.439537 0.14526 -0.315536
v -0.564228 0.0430408 -0.793689
v -0.886496 0.033443 -0.583132
v -0.862269 0.112944 -0.0892458
v -0.886496 0.033443 -0.583132
v -1.04857 0.0259685 -0.471751
v -1.04029 0.0224372 -0.369251
v -0.288021 0.0259685 -0.56612
v -0.33575 0.0259685 -0.692448
v -0.439537 0.14526 -0.315536
v -0.825557 0.0425821 -0.33753
v -1.05259 0.137443 0.0926935
v -0.664226 0.157919 0.152667
v -0.449838 0.159208 -0.254814
v -0.483294 0.160732 0.151224
v -0.42717 0.1641 0.059462
v -1.09919 0.0231608 -0.248128
v -1.15153 0.0756128 -0.128893
v -0.325929 0.049601 0.36374
v -0.584718 0.0488997 0.477822
v -0.522511 0.021412 0.663153
v -0.271008 0.021412 0.59987
v -0.443437 0.0286217 -0.430434
v -0.787214 0.0221119 -0.343933
v -0.768475 0.0457447 -0.110855
v -0.446468 0.119177 -0.182951
v -0.404565 0.145572 -0.104015
v -0.748342 0.0628164 -0.0175138
v -0.70998 0.070069 0.186676
v -0.336632 0.163414 0.176776
v -0.646862 0.0625697 0.417334
v -0.333721 0.0815545 0.286087
v -0.404565 0.145572 -0.104015
v -0.70998 0.070069 0.186676
v -0.336632 0.163414 0.176776
v -0.40722 0.163224 0.00227981
v -0.647221 0.0620734 0.329077
v -0.768475 0.0457447 -0.110855
v -0.646862 0.0625697 0.417334
v -0.404565 0.145572 -0.104015
v 0.596405 0.026 0.366596
v 0.292399 0.026 -0.0190302
v 0.0391539 0.0344233 0.221209
v 0.313568 0.026 0.590846
v 0.00324575 0.026 0.466935
v 0.0613581 0.026 0.557513
v 0.636638 0.026 0.079343
v 0.542442 0.026 -0.0174245
v 0.536027 0.0832544 0.455986
v 0.824313 0.0310553 0.685928
v 1.13625 0.0367421 0.327575
v 0.830966 0.0680623 0.0881208
v 0.423863 0.169903 -0.2397
v 0.191811 0.19233 0.168597
v 0.751311 0.145067 0.0327218
v 0.420665 0.142146 0.376943
v 0.420665 0.142146 0.376943
v 0.830966 0.0680623 0.0881208
v 0.656047 0.20516 0.0027652
v 0.969688 0.0213834 -0.170437
v 0.820096 0.0279536 -0.499295
v 0.505017 0.220804 -0.329255
v 0.29517 0.218054 0.277013
v 0.597853 0.230408 0.0456202
v 0.366648 0.27185 -0.243584
v 0.0307148 0.201501 -0.0213875
v -0.723198 0.0059985 0.545743
v -0.482373 0.0059985 0.84926
v -0.231204 0.0172612 0.671714
v -0.488375 0.0172612 0.375222
v 0.392999 0.170386 0.28284
v 0.272252 0.170492 0.217303
v 0.264121 0.123356 0.270184
v 0.652283 0.158775 0.192906
v 0.768712 0.0754775 0.246821
v 0.721552 0.159137 0.0353743
v 0.169496 0.102616 0.259895
v 0.171279 0.125886 0.201394
v 0.493776 0.241625 -0.0969591
v 0.525361 0.214349 0.0497012
v 0.621041 0.195309 0.0409771
v 0.5898 0.210124 -0.110952
v 0.188437 0.172178 0.0780977
v 0.674739 0.124566 0.271713
v 0.725316 0.0733556 0.314945
v 0.380026 0.0871278 0.37051
v 0.398632 0.19995 0.197381
v 0.556947 0.178592 0.196361
v 0.557866 0.13531 0.282889
v 0.283563 0.208832 0.0538425
v 0.44243 0.0906192 0.377016
v 0.419286 0.23301 0.0322823
v 0.809467 0.0728024 0.113973
v 0.265182 0.184587 -0.149575
v 0.0782866 0.0175792 -0.596216
v -0.25822 0.0535468 -0.448966
v -0.118868 0.164837 -0.0239928
v -0.388913 0.171713 -0.240901
v -0.365666 0.171713 -0.135825
v 0.392177 0.060888 -0.411283
v 0.322701 0.0259256 -0.521976
v 0.621449 0.0157378 0.261741
v 1.36316 0.0553019 0.325642
v 1.31718 0.0553019 0.0100868
v 0.508147 0.0157378 -0.0363395
v 0.838693 0.102493 0.105959
v 0.796992 0.091262 -0.21019
v 0.769868 0.118284 -0.204911
v 0.807725 0.124627 0.111561
v 0.621449 0.0485041 0.261741
v 0.508147 0.0485041 -0.0363395
v 0.636265 0.0963721 -0.155459
v 0.710966 0.0963721 0.154556
v 0.838693 0.0702919 0.105959
v 0.796992 0.0590612 -0.21019
v 0.621449 0.0157378 0.261741
v 0.508147 0.0485041 -0.0363395
v 0.621449 0.0485041 0.261741
v 0.324473 0.0251701 0.165392
v 0.595393 0.14598 0.149966
v 0.583887 0.14598 -0.168714
v 0.181806 0.0757249 -0.119803
v 0.710966 0.0963721 0.154556
v 0.636265 0.0963721 -0.155459
v 0.838693 0.0702919 0.105959
v 0.034167 0.0109758 -0.0460912
v 0.176611 0.0109758 0.239214
v 0.641216 0.049601 0.36374
v 0.382428 0.0488997 0.477822
v 0.444634 0.021412 0.663153
v 0.696137 0.021412 0.59987
v 0.316276 0.0112537 -0.510605
v 0.00290209 0.00474393 -0.344888
v 0.121996 0.0930739 -0.112305
v 0.432936 0.0755851 -0.222771
v 0.506987 0.122313 -0.103225
v 0.162493 0.144192 -0.0204997
v 0.255001 0.168285 0.180348
v 0.557761 0.168285 -0.00404771
v 0.319925 0.12439 0.329077
v 0.364701 0.0628364 0.417334
v 0.633424 0.0815545 0.286087
v 0.630513 0.117739 0.176776
v 0.264345 0.146338 0.205903
v 0.200981 0.168108 0.283281
v -0.101021 0.147259 0.0879286
v -0.221973 0.0104158 0.273456
v 0.0800283 0.0155297 0.468808
v 0.616996 0.149772 -0.333609
v 0.845833 0.0403751 -0.474105
v 0.301839 0.0815946 -0.476322
v 0.444095 0.221202 -0.182071
v 0.0949773 0.161837 -0.233155
v 0.991293 0.00580334 -0.597145
v 0.553265 0.0814339 -0.742441
v 0.695092 0.081434 -0.874634

vn -0.012413 0.999512 -0.00134373
vn -0.0114517 0.999512 -0.00123978
vn -0.0103607 0.999512 -0.00483322
vn -0.0112228 0.999512 -0.00413513
vn 0.0166473 0.999023 -0.0266418
vn 0.0166473 0.999023 -0.0266418
vn 0 1 0
vn 0 1 0
vn 0.311279 0.892578 0.325195
vn 0.320557 0.885742 0.334229
vn 0.448242 0.766602 0.458984
vn 0.448242 0.766602 0.458984
vn -0.224976 0.958008 -0.176147
vn -0.220703 0.960938 -0.165039
vn 0.00449371 0.998535 0.0491638
vn 0.0613708 0.992188 0.106812
vn -0.216553 0.960938 -0.171387
vn -0.216553 0.960938 -0.171387
vn 0.0628662 0.893066 -0.44458
vn 0.13562 0.932129 -0.334961
vn 0.120789 0.898438 -0.421631
vn 0.120789 0.898438 -0.421631
vn -0.351318 0.933105 0.0736084
vn -0.321777 0.927734 0.188477
vn -0.152466 0.932129 0.327393
vn -0.125488 0.960938 0.24646
vn -0.103638 0.959473 0.260742
vn -0.0743408 0.963379 0.256836
vn -0.195801 0.900879 0.386963
vn -0.264648 0.931152 0.248901
vn -0.103027 0.928223 -0.357178
vn 0.0335083 0.937012 -0.346436
vn -0.0108643 0.916504 0.399658
vn 0.0128174 0.939453 0.342285
vn -0.0438232 0.991699 -0.117615
vn 0.137695 0.989746 -0.032074
vn 0.230957 0.930664 -0.282715
vn -0.155396 0.827637 0.538574
vn -0.260254 0.949707 -0.173096
vn -0.0134277 0.986816 0.15918
vn 0.0259857 0.975586 0.216187
vn -0.0570068 0.953125 0.296875
vn -0.0872803 0.994629 0.0498047
vn -0.101013 0.994141 0.0379639
vn -0.143921 0.98877 0.0376892
vn -0.149658 0.987793 0.0376282
vn -0.101013 0.994141 0.0379639
vn -0.296875 0.954102 0.0360413
vn -0.296875 0.954102 0.0360413
vn -0.0257416 0.999512 0.00688934
vn -0.0249023 0.999512 0.0102386
vn -0.0265045 0.999512 -0.00320244
vn -0.0267181 0.999512 -0.00252914
vn -0.0199432 0.999023 -0.0242767
vn -0.0199432 0.999023 -0.0242767
vn -0.0148773 0.998535 0.0499573
vn -0.0148773 0.998535 0.0499573
vn 0.0246582 0.999512 -0.0101013
vn 0.0233917 0.999512 -0.0133133
vn 0.0266876 0.999512 -0.000184894
vn 0.0268097 0.999512 -0.000878334
vn 0.0228729 0.999023 0.0215454
vn 0.0228729 0.999023 0.0215454
vn 0.00842285 0.998535 -0.0514221
vn 0.00842285 0.998535 -0.0514221
vn 0.0267639 0.979004 -0.200439
vn -0.00430298 0.980469 -0.195557
vn -0.141113 0.974609 -0.171509
vn -0.166748 0.975098 -0.142944
vn -0.177734 0.974121 -0.136841
vn -0.223755 0.968262 -0.111084
vn -0.223755 0.968262 -0.111084
vn 0.247437 0.940918 -0.229736
vn 0.247437 0.940918 -0.229736
vn -0.154663 0.976074 -0.149536
vn -0.134766 0.970215 -0.199707
vn -0.132324 0.969238 -0.207153
vn -0.126465 0.978516 -0.160522
vn -0.129639 0.977539 -0.165649
vn -0.0284576 0.999512 -0.00609589
vn -0.0284576 0.999512 -0.00609589
vn -0.0986938 0.947266 -0.304199
vn -0.0986938 0.947266 -0.304199
vn 0.056427 0.982422 0.176025
vn 0.0550537 0.983398 0.171265
vn 0.0402832 0.991699 0.119812
vn 0.0402832 0.991699 0.119812
vn -0.168335 0.959961 -0.222656
vn -0.168335 0.959961 -0.222656
vn -0.170776 0.959961 -0.221436
vn -0.182983 0.958984 -0.215942
vn -0.237671 0.971191 -0.0157776
vn -0.241211 0.969727 -0.0310516
vn -0.231812 0.972656 0.00901031
vn 0.197144 0.787109 0.583984
vn 0.107422 0.935059 0.337402
vn 0.150757 0.875977 0.457275
vn -0.256836 0.949219 -0.180908
vn -0.247681 0.961426 0.116211
vn -0.242188 0.964355 0.103455
vn -0.301758 0.953125 -0.0140305
vn -0.267334 0.958984 0.0925293
vn -0.260498 0.958008 -0.119019
vn -0.311768 0.949707 -0.00407028
vn -0.378418 0.911133 -0.160767
vn 0.0127792 0.999512 -0.000443459
vn 0.012413 0.999512 -0.000430822
vn 0.0121155 0.999512 0.00268936
vn 0.0117874 0.999512 0.00303268
vn -0.0102615 0.999512 0.0257111
vn -0.0102615 0.999512 0.0257111
vn 0 1 0
vn 0 1 0
vn 0.130981 0.986816 0.0900879
vn 0.0903931 0.993652 0.0625
vn 0.0903931 0.993652 0.0625
vn 0.098938 0.992676 0.0682983
vn 0.0822144 0.996094 -0.00799561
vn 0.0962524 0.993652 0.0506592
vn 0.194458 0.969727 0.145752
vn 0.320313 0.921387 0.218872
vn 0.13147 0.981934 0.134521
vn 0.44873 0.778809 0.4375
vn 0.402832 0.902344 -0.151123
vn 0.436768 0.883301 -0.168945
vn 0.436768 0.883301 -0.168945
vn 0.408447 0.899414 -0.154175
vn -0.16272 0.976074 0.141602
vn 0.0263977 0.998047 0.0484009
vn 0.0136032 0.998047 0.0550842
vn -0.172119 0.974121 0.145874
vn -0.0290375 0.999023 0.0241089
vn -0.0290375 0.999023 0.0241089
vn -0.170898 0.976563 0.130127
vn -0.162842 0.978516 0.124084
vn 0.0018816 0.868164 0.496094
vn -0.282471 0.900879 0.328369
vn -0.294189 0.727539 0.619141
vn 0.355957 0.907715 0.220093
vn 0.529297 0.817871 0.224365
vn 0.440918 0.884766 0.148804
vn -0.362305 0.822754 0.437012
vn -0.424316 0.858887 0.285889
vn 0.239746 0.96582 0.0945435
vn 0.200073 0.967285 0.153198
vn 0.27124 0.955078 0.118652
vn 0.274658 0.958496 0.0714111
vn -0.348633 0.910645 0.220947
vn 0.499756 0.828125 0.253662
vn 0.504395 0.790527 0.345947
vn -0.235229 0.72168 0.650391
vn 0.0189819 0.958008 0.285156
vn 0.175415 0.942383 0.284424
vn 0.16687 0.880859 0.442383
vn -0.211304 0.958008 0.193237
vn 0.0952759 0.783691 0.61377
vn 0.0321655 0.981934 0.184448
vn 0.60791 0.774902 0.170898
vn -0.0532837 0.95459 -0.292725
vn -0.0504761 0.954102 -0.294434
vn -0.0394897 0.959961 -0.275879
vn -0.0362244 0.960449 -0.275879
vn 0.240112 0.932129 -0.269287
vn 0.240112 0.932129 -0.269287
vn 0.0953979 0.920898 -0.377441
vn 0.0953979 0.920898 -0.377441
vn -0.0194397 0.999512 0.00112629
vn -0.0519104 0.998535 0.0134735
vn -0.0519104 0.998535 0.0134735
vn 0.00510788 0.999512 -0.0082016
vn 0.871582 0.473389 -0.125732
vn 0.885254 0.447266 -0.126831
vn 0.211548 0.976563 -0.033905
vn 0.199097 0.979004 -0.0319519
vn 0.538086 -0.821777 -0.185181
vn 0.451416 -0.878906 -0.150879
vn -0.00239563 -0.999512 -0.00348663
vn 0.106567 -0.993652 -0.0357666
vn -0.012001 -0.999023 0.030304
vn 0.0367126 -0.999023 0.0238495
vn -0.0194397 0.999512 0.00112629
vn 0.451416 -0.878906 -0.150879
vn 0.538086 -0.821777 -0.185181
vn -0.232422 0.959961 0.153687
vn -0.129028 0.987305 0.0900879
vn -0.106201 0.990723 0.0800781
vn -0.225952 0.961426 0.155762
vn 0.106567 -0.993652 -0.0357666
vn -0.00239563 -0.999512 -0.00348663
vn -0.012001 -0.999023 0.030304
vn -0.172974 0.969238 0.172363
vn -0.172974 0.969238 0.172363
vn 0.0605774 0.981934 0.177124
vn 0.0550842 0.984863 0.161499
vn 0.0402832 0.991699 0.119812
vn 0.0402832 0.991699 0.119812
vn -0.090271 0.96582 -0.242432
vn -0.090271 0.96582 -0.242432
vn -0.0820313 0.95459 -0.2854
vn -0.0806274 0.952637 -0.292725
vn -0.0545959 0.960938 -0.270752
vn -0.0558167 0.953613 -0.294678
vn 0.0315552 0.999023 0.0147018
vn 0.0170746 0.999512 -0.0238495
vn 0.143433 0.943359 0.298828
vn 0.148315 0.92041 0.360352
vn 0.158325 0.913574 0.374512
vn 0.146606 0.936035 0.319092
vn 0.119019 0.962891 0.241943
vn -0.208862 0.959961 0.185059
vn -0.20752 0.960938 0.182129
vn -0.322266 0.836426 0.442383
vn -0.322266 0.836426 0.442383
vn -0.0017767 0.882324 -0.470215
vn 0.126587 0.98584 -0.106628
vn -0.0139465 0.950195 -0.311035
vn -0.093689 0.974121 -0.204712
vn -0.112183 0.989258 -0.0899048
vn 0.168945 0.985352 0.00367737
vn 0.0979004 0.992188 0.074707
vn 0.125122 0.98291 0.134277

vt 0.540138 0.859604
vt 0.240568 0.858719
vt 0.240568 0.6159
vt 0.540138 0.633653
vt 0.244723 0.497205
vt 0.319751 0.496248
vt 0.420409 0.999436
vt 0.328097 0.99556
vt 0 0.770489
vt 0.25 0.770489
vt 0.25 1
vt 0 1
vt 0 0.490553
vt 0.25 0.480389
vt 0 0.693664
vt 0.25 0.692516
vt 0.25 0.0117828
vt 0 0.0117828
vt 0.87077 0.47417
vt 0.925671 0.119914
vt 0.995175 0.222113
vt 0.995175 0.348676
vt 0.531752 0.457891
vt 0.445679 0.457891
vt 0.466656 0.236829
vt 0.551156 0.250272
vt 0.333478 0.301111
vt 0.336695 0.222402
vt 0.397128 0.223291
vt 0.37843 0.457891
vt 0.799254 0.457891
vt 0.817425 0.257132
vt 0.454801 0.0335675
vt 0.57141 0.0335675
vt 0.651229 0.252024
vt 0.67332 0.046786
vt 0.842095 0.0635029
vt 0.397018 0.131364
vt 0.632256 0.457891
vt 0.251044 0.23604
vt 0.277912 0.301709
vt 0.338403 0.169169
vt 0.277093 0.191038
vt 0.319751 0.496248
vt 0.540138 0.859604
vt 0.240568 0.858719
vt 0.244723 0.497205
vt 0.420409 0.999436
vt 0.328097 0.99556
vt 0.540138 0.859604
vt 0.240568 0.858719
vt 0.240568 0.6159
vt 0.540138 0.633653
vt 0.244723 0.497205
vt 0.319751 0.496248
vt 0.420409 0.999436
vt 0.328097 0.99556
vt 0.540138 0.859604
vt 0.240568 0.858719
vt 0.240568 0.6159
vt 0.540138 0.633653
vt 0.244723 0.497205
vt 0.319751 0.496248
vt 0.420409 0.999436
vt 0.328097 0.99556
vt 0.88018 0.51024
vt 0.879347 0.996231
vt 0.650864 0.996231
vt 0.554512 0.51024
vt 0.650864 0.996231
vt 0.539177 0.989492
vt 0.538276 0.867774
vt 1.00195 0.704477
vt 0.998298 0.915056
vt 0.88018 0.51024
vt 0.540138 0.859604
vt 0.240568 0.858719
vt 0.240568 0.6159
vt 0.540138 0.633653
vt 0.244723 0.497205
vt 0.319751 0.496248
vt 0.420409 0.999436
vt 0.328097 0.99556
vt 0 0.781568
vt 0.25 0.788436
vt 0.25 1
vt 0 1
vt 0 0
vt 0.25 0
vt 0.25 0.25
vt 0 0.25
vt 0 0.375
vt 0.25 0.375
vt 0.25 0.505466
vt 0 0.6875
vt 0.25 0.725252
vt 0 0.731718
vt 0 0.375
vt 0.25 0.505466
vt 0 0.6875
vt 0 0.5
vt 0.25 0.629927
vt 0.25 0.25
vt 0.25 0.725252
vt 0 0.375
vt 0.870401 0.0320246
vt 0.845074 0.471513
vt 0.409165 0.438339
vt 0.45464 0.0346491
vt 0.262023 0.284021
vt 0.266165 0.185875
vt 0.997951 0.234679
vt 0.99921 0.370914
vt 0.632229 0.0350484
vt 0.995903 0.0350484
vt 0.995903 0.48185
vt 0.632229 0.48185
vt 0.253714 0.48185
vt 0.253356 0.0350484
vt 0.490686 0.48185
vt 0.489344 0.0350485
vt 0.489344 0.0350485
vt 0.632229 0.48185
vt 0.25 0.793132
vt 0.25 1
vt 0 1
vt 0 0.793132
vt 0.25 0.463664
vt 0.25 0.715159
vt 0 0.716308
vt 0 0.473828
vt 0 0
vt 0.25 0
vt 0.25 0.125
vt 0 0.125
vt 0.852536 0.875971
vt 0.927806 0.854223
vt 0.929303 0.932506
vt 0.670088 0.79366
vt 0.567739 0.922383
vt 0.631118 0.645322
vt 1.00332 0.891514
vt 1.00332 0.841146
vt 0.756138 0.512257
vt 0.745423 0.652798
vt 0.681562 0.651789
vt 0.693037 0.509918
vt 0.987876 0.731542
vt 0.652801 0.882702
vt 0.604676 0.958724
vt 0.855323 0.990133
vt 0.849439 0.798059
vt 0.734708 0.79334
vt 0.725066 0.878215
vt 0.908275 0.66833
vt 0.816846 0.990133
vt 0.807982 0.637059
vt 0.537737 0.763461
vt 0.883364 0.0320246
vt 0.858036 0.471513
vt 0.399083 0.438339
vt 0.444558 0.0346491
vt 0.257702 0.284021
vt 0.261845 0.185875
vt 0.997951 0.234679
vt 0.99777 0.355071
vt 0.25 0.494796
vt 0.25 1
vt 0 1
vt 0 0.494796
vt 0.25 0.461618
vt 0 0.461618
vt 0 0.447144
vt 0.25 0.447144
vt 0.25 0.472052
vt 0 0.472052
vt 0 0.586709
vt 0.25 0.586709
vt 0.25 0.484362
vt 0 0.484362
vt 0.25 0.494796
vt 0 0.472052
vt 0.25 0.472052
vt 0.25 0.113734
vt 0.25 0.347899
vt 0 0.347899
vt 0 0.113734
vt 0.25 0.586709
vt 0 0.586709
vt 0.25 0.484362
vt 0 0
vt 0.25 0
vt 0 0.781568
vt 0.25 0.788436
vt 0.25 1
vt 0 1
vt 0 0
vt 0.25 0
vt 0.25 0.25
vt 0 0.25
vt 0 0.375
vt 0.25 0.375
vt 0.25 0.5
vt 0 0.5
vt 0.25 0.629927
vt 0.25 0.725252
vt 0 0.731718
vt 0 0.6875
vt 0.25 0.510933
vt 0 0.793132
vt 0.25 0.793132
vt 0.25 1
vt 0 1
vt 0 0.34947
vt 0 0.155635
vt 0.25 0.333296
vt 0 0.511123
vt 0.25 0.500959
vt 0 0
vt 0.25 0.155635
vt 0.25 0


#
# MESH 000
#
g surface_000
usemtl surface_000
f 1/1/1 7/7/7 8/8/8
f 1/1/1 8/8/8 2/2/2
f 1/1/1 2/2/2 3/3/3
f 1/1/1 3/3/3 4/4/4
f 4/4/4 3/3/3 5/5/5
f 4/4/4 5/5/5 6/6/6
f 17/17/17 13/13/13 18/18/18
f 17/17/17 14/14/14 13/13/13
f 13/13/13 14/14/14 15/15/15
f 15/15/15 14/14/14 16/16/16
f 9/9/9 15/15/15 16/16/16
f 9/9/9 16/16/16 10/10/10
f 9/9/9 10/10/10 11/11/11
f 9/9/9 11/11/11 12/12/12
f 40/40/40 27/27/27 41/41/41
f 40/40/40 28/28/28 27/27/27
f 27/27/27 28/28/28 29/29/29
f 27/27/27 29/29/29 30/30/30
f 24/24/24 30/30/30 29/29/29
f 24/24/24 29/29/29 25/25/25
f 23/23/23 24/24/24 25/25/25
f 28/28/28 40/40/40 43/43/43
f 28/28/28 43/43/43 42/42/42
f 42/42/42 29/29/29 28/28/28
f 42/42/42 38/38/38 29/29/29
f 38/38/38 25/25/25 29/29/29
f 38/38/38 33/33/33 25/25/25
f 33/33/33 26/26/26 25/25/25
f 23/23/23 25/25/25 26/26/26
f 35/35/35 23/23/23 26/26/26
f 35/35/35 39/39/39 23/23/23
f 35/35/35 31/31/31 39/39/39
f 35/35/35 32/32/32 31/31/31
f 31/31/31 32/32/32 20/20/20
f 31/31/31 20/20/20 19/19/19
f 33/33/33 34/34/34 26/26/26
f 36/36/36 26/26/26 34/34/34
f 36/36/36 35/35/35 26/26/26
f 35/35/35 36/36/36 37/37/37
f 35/35/35 37/37/37 32/32/32
f 20/20/20 32/32/32 37/37/37
f 19/19/19 20/20/20 21/21/21
f 19/19/19 21/21/21 22/22/22
f 45/45/45 48/48/48 49/49/49
f 45/45/45 49/49/49 46/46/46
f 44/44/44 45/45/45 46/46/46
f 44/44/44 46/46/46 47/47/47
f 50/50/50 56/56/56 57/57/57
f 50/50/50 57/57/57 51/51/51
f 50/50/50 51/51/51 52/52/52
f 50/50/50 52/52/52 53/53/53
f 53/53/53 52/52/52 54/54/54
f 53/53/53 54/54/54 55/55/55
f 58/58/58 64/64/64 65/65/65
f 58/58/58 65/65/65 59/59/59
f 58/58/58 59/59/59 60/60/60
f 58/58/58 60/60/60 61/61/61
f 61/61/61 60/60/60 62/62/62
f 61/61/61 62/62/62 63/63/63
f 75/75/75 70/70/70 69/69/69
f 69/69/69 70/70/70 71/71/71
f 69/69/69 71/71/71 72/72/72
f 66/66/66 73/73/73 74/74/74
f 66/66/66 74/74/74 67/67/67
f 66/66/66 67/67/67 68/68/68
f 76/76/76 82/82/82 83/83/83
f 76/76/76 83/83/83 77/77/77
f 76/76/76 77/77/77 78/78/78
f 76/76/76 78/78/78 79/79/79
f 79/79/79 78/78/78 80/80/80
f 79/79/79 80/80/80 81/81/81
f 105/105/105 99/99/99 101/101/101
f 99/99/99 100/100/100 101/101/101
f 100/100/100 99/99/99 102/102/102
f 102/102/102 104/104/104 100/100/100
f 92/92/92 103/103/103 93/93/93
f 92/92/92 93/93/93 94/94/94
f 91/91/91 90/90/90 98/98/98
f 88/88/88 90/90/90 91/91/91
f 88/88/88 89/89/89 90/90/90
f 95/95/95 96/96/96 97/97/97
f 84/84/84 97/97/97 96/96/96
f 84/84/84 96/96/96 85/85/85
f 84/84/84 85/85/85 86/86/86
f 84/84/84 86/86/86 87/87/87
f 106/106/106 112/112/112 113/113/113
f 106/106/106 113/113/113 107/107/107
f 106/106/106 107/107/107 108/108/108
f 106/106/106 108/108/108 109/109/109
f 109/109/109 108/108/108 110/110/110
f 109/109/109 110/110/110 111/111/111
f 123/123/123 120/120/120 122/122/122
f 120/120/120 119/119/119 122/122/122
f 118/118/118 119/119/119 120/120/120
f 117/117/117 121/121/121 114/114/114
f 114/114/114 116/116/116 117/117/117
f 114/114/114 115/115/115 116/116/116
f 132/132/132 133/133/133 134/134/134
f 132/132/132 134/134/134 135/135/135
f 128/128/128 135/135/135 134/134/134
f 128/128/128 131/131/131 135/135/135
f 128/128/128 130/130/130 131/131/131
f 128/128/128 129/129/129 130/130/130
f 127/127/127 130/130/130 129/129/129
f 127/127/127 129/129/129 124/124/124
f 124/124/124 126/126/126 127/127/127
f 124/124/124 125/125/125 126/126/126
f 140/140/140 158/158/158 141/141/141
f 139/139/139 140/140/140 141/141/141
f 149/149/149 140/140/140 139/139/139
f 140/140/140 149/149/149 150/150/150
f 139/139/139 141/141/141 146/146/146
f 146/146/146 153/153/153 139/139/139
f 139/139/139 153/153/153 154/154/154
f 153/153/153 136/136/136 154/154/154
f 156/156/156 154/154/154 136/136/136
f 156/156/156 136/136/136 151/151/151
f 136/136/136 138/138/138 151/151/151
f 146/146/146 141/141/141 147/147/147
f 144/144/144 146/146/146 147/147/147
f 144/144/144 145/145/145 146/146/146
f 146/146/146 145/145/145 153/153/153
f 145/145/145 152/152/152 153/153/153
f 153/153/153 152/152/152 136/136/136
f 152/152/152 137/137/137 136/136/136
f 136/136/136 137/137/137 138/138/138
f 142/142/142 138/138/138 137/137/137
f 142/142/142 137/137/137 143/143/143
f 143/143/143 137/137/137 148/148/148
f 148/148/148 137/137/137 155/155/155
f 144/144/144 157/157/157 145/145/145
f 157/157/157 152/152/152 145/145/145
f 155/155/155 152/152/152 157/157/157
f 155/155/155 137/137/137 152/152/152
f 159/159/159 165/165/165 166/166/166
f 159/159/159 166/166/166 160/160/160
f 159/159/159 160/160/160 161/161/161
f 159/159/159 161/161/161 162/162/162
f 162/162/162 161/161/161 163/163/163
f 162/162/162 163/163/163 164/164/164
f 184/184/184 191/191/191 192/192/192
f 184/184/184 187/187/187 191/191/191
f 184/184/184 186/186/186 187/187/187
f 184/184/184 185/185/185 186/186/186
f 174/174/174 186/186/186 185/185/185
f 174/174/174 173/173/173 186/186/186
f 171/171/171 173/173/173 174/174/174
f 171/171/171 172/172/172 173/173/173
f 179/179/179 172/172/172 171/171/171
f 179/179/179 180/180/180 172/172/172
f 188/188/188 180/180/180 190/190/190
f 188/188/188 189/189/189 180/180/180
f 181/181/181 182/182/182 183/183/183
f 181/181/181 170/170/170 182/182/182
f 175/175/175 177/177/177 178/178/178
f 175/175/175 176/176/176 177/177/177
f 167/167/167 169/169/169 170/170/170
f 167/167/167 168/168/168 169/169/169
f 197/197/197 198/198/198 199/199/199
f 197/197/197 199/199/199 200/200/200
f 200/200/200 199/199/199 202/202/202
f 200/200/200 202/202/202 201/201/201
f 201/201/201 202/202/202 203/203/203
f 201/201/201 203/203/203 204/204/204
f 203/203/203 208/208/208 204/204/204
f 203/203/203 209/209/209 208/208/208
f 208/208/208 209/209/209 205/205/205
f 205/205/205 207/207/207 208/208/208
f 205/205/205 206/206/206 207/207/207
f 193/193/193 207/207/207 206/206/206
f 193/193/193 206/206/206 194/194/194
f 193/193/193 194/194/194 195/195/195
f 193/193/193 195/195/195 196/196/196
f 219/219/219 221/221/221 220/220/220
f 219/219/219 220/220/220 215/215/215
f 216/216/216 215/215/215 220/220/220
f 214/214/214 215/215/215 216/216/216
f 216/216/216 217/217/217 214/214/214
f 216/216/216 218/218/218 217/217/217
f 210/210/210 217/217/217 218/218/218
f 210/210/210 218/218/218 211/211/211
f 210/210/210 211/211/211 212/212/212
f 210/210/210 212/212/212 213/213/213

