#
# OBJECT NAME
#
o model_2409
mtllib 2409.mtl

#
# VERTEX BUFFER 000
#
v 0.656374 1.12739 -0.294846
v 1.00155 1.07656 -0.294846
v 0.916002 1.11404 -0.317099
v 0.972033 1.15486 -0.294846
v -0.117384 1.10737 -0.294846
v -0.922265 1.0979 -0.281263
v -0.925692 0.993009 -0.281263
v -0.6744 0.93212 -0.281263
v -0.922265 1.0979 -0.281263
v -0.925692 1.0979 -0.5
v -0.925692 0.993009 -0.5
v 0.972033 2.00135 -0.294846
v 0.112677 1.65764 -0.294846
v 0.394098 1.57065 -0.294846
v -0.967491 1.98417 -0.294846
v -0.331795 1.62988 -0.294846
v -0.117384 1.10737 -0.294846
v -0.117384 1.10737 -0.5
v -0.925692 1.0979 -0.5
v -0.922265 1.0979 -0.281263
v -0.117384 1.10737 -0.5
v -0.117384 1.10737 -0.294846
v -0.969458 1.29706 -0.294846
v -0.969458 1.29706 -0.5
v 0.972033 2.00135 -0.294846
v 0.972033 2.00135 -0.5
v -0.967491 1.98417 -0.5
v -0.967491 1.98417 -0.294846
v 0.972033 1.15486 -0.5
v 0.972033 2.00135 -0.5
v 0.972033 2.00135 -0.294846
v 0.972033 1.15486 -0.294846
v 0.972033 1.15486 -0.294846
v 0.916002 1.11404 -0.317099
v 0.916002 1.11404 -0.477747
v 1.00155 1.07656 -0.294846
v 1.00155 1.07656 -0.5
v 0.916002 1.11404 -0.317099
v 1.00155 1.07656 -0.294846
v 1.00155 0.0168335 -0.294846
v 1.00155 0.0168335 -0.5
v 1.00155 0.0168335 -0.5
v 1.00155 0.0168335 -0.294846
v -1.00155 0 -0.298764
v -1.00155 0 -0.5
v -0.6744 0.93212 -0.281263
v -0.6744 0.93212 -0.5
v -0.942629 0.875175 -0.5
v -0.942629 0.875175 -0.281263
v -0.925692 0.993009 -0.281263
v -0.6744 0.93212 -0.281263
v -0.942629 0.875175 -0.281263
v -1.00155 0 -0.5
v -1.00155 0 -0.298764
v -0.225755 1.57097 -0.294846
v -0.117384 1.10737 -0.294846
v -0.925692 0.993009 -0.281263
v -0.969458 1.29706 -0.294846
v -0.967491 1.98417 -0.294846
v -0.967491 1.98417 -0.5
v 0.737265 1.12225 -0.5
v 0.916002 1.11404 -0.477747
v 1.00155 1.07656 -0.5
v 0.972033 1.15486 -0.5
v 0.112677 1.65764 -0.294846
v -0.331795 1.62988 -0.294846
v -0.331795 1.62988 -0.5
v 0.112677 1.65764 -0.5
v -0.225755 1.57097 -0.294846
v -0.225755 1.57097 -0.5
v -0.331795 1.62988 -0.5
v -0.331795 1.62988 -0.294846
v 0.394098 1.57065 -0.294846
v 0.394098 1.57065 -0.5
v 0.394098 1.57065 -0.5
v 0.112677 1.65764 -0.5
v 0.394098 1.57065 -0.5
v 0.394098 1.57065 -0.294846
v -1.00155 0 -0.5
v -0.942629 0.875175 -0.5
v -0.6744 0.93212 -0.5
v 1.00155 0.0168335 -0.5
v -0.331795 1.62988 -0.5
v -0.969458 1.29706 -0.5
v -0.969458 1.29706 -0.294846
v 1.00155 0.0168335 -0.294846
v -0.117384 1.10737 -0.5
v -0.225755 1.57097 -0.5
v -0.925692 1.0979 -0.5
v -0.925692 0.993009 -0.5
v -1.00155 0 -0.298764
v -0.942629 0.875175 -0.281263
v -0.549414 1.36313 -0.352537
v -0.61919 1.39931 -0.269686
v -0.603868 1.41104 -0.259001
v -0.549414 1.36313 -0.352537
v -0.597324 1.4045 -0.240763
v -0.606102 1.38623 -0.23321
v -0.621423 1.3745 -0.243895
v -0.627968 1.38104 -0.262133
v -0.61919 1.39931 -0.269686

vn 6.12736e-005 -4.02927e-005 1
vn 0.000632286 0.00429153 0.999512
vn 0.0890503 0.0769653 0.992676
vn 0.000355244 -0.00408173 0.999512
vn 0.0130234 0.0134888 0.999512
vn 0.0138626 0.0207214 0.999512
vn 0.0138626 0.0207214 0.999512
vn 0.00358009 -0.00798798 0.999512
vn -0.999512 0.0233612 0.00445557
vn -0.0714111 0.897949 -0.433838
vn -0.222778 -0.49292 -0.84082
vn 0 0 1
vn 0 0 1
vn 0 0 1
vn 0 0 1
vn 0 0 1
vn -0.998535 -0.0488892 0.00040102
vn -0.0308685 -0.00289726 -0.999512
vn -0.0714111 0.897949 -0.433838
vn -0.0117416 0.999512 9.5129e-005
vn -0.0308685 -0.00289726 -0.999512
vn -0.998535 -0.0488892 0.00040102
vn -0.217285 -0.976074 0
vn -0.506836 -0.491699 -0.70752
vn -0.0088501 0.999512 0
vn 0.333252 0.779297 -0.530273
vn -0.301514 0.831543 -0.46582
vn -0.0088501 0.999512 0
vn 0.477295 -0.024353 -0.87793
vn 0.333252 0.779297 -0.530273
vn 1 0 0
vn 1 0 0
vn 0.588379 -0.808105 0
vn 0.588379 -0.808105 0
vn 0.819336 0.30249 -0.486572
vn 0.401123 0.915527 0
vn 0.818848 0.0511169 -0.571289
vn 0.401123 0.915527 0
vn 1 0 0
vn 1 0 0
vn 0.291504 -0.537109 -0.791016
vn 0.291504 -0.537109 -0.791016
vn 0.00839996 -0.999512 0
vn 0.00839996 -0.999512 0
vn -0.165894 -0.363037 -0.916504
vn -0.207642 0.978027 0
vn -0.0131378 0.00188828 -0.999512
vn -0.157104 0.0569153 -0.98584
vn -0.207642 0.978027 0
vn -0.235474 -0.97168 0
vn -0.235474 -0.97168 0
vn -0.997559 0.0671387 0
vn -0.165894 -0.363037 -0.916504
vn -0.997559 0.0671387 0
vn 0 0 1
vn 0 0 1
vn -0.999023 0.0326538 0
vn -0.999512 0.00286102 0
vn -0.999512 0.00286102 0
vn -0.301514 0.831543 -0.46582
vn 8.65459e-005 -3.09944e-005 -1
vn 0.819336 0.30249 -0.486572
vn 0.818848 0.0511169 -0.571289
vn 0.477295 -0.024353 -0.87793
vn -0.0812988 -0.996582 0
vn 0.248047 -0.968262 0
vn 0.248047 -0.968262 0
vn -0.0812988 -0.996582 0
vn 0.0812988 0.996582 0
vn 0.0812988 0.996582 0
vn 0.248047 -0.968262 0
vn 0.248047 -0.968262 0
vn -0.248047 0.968262 0
vn -0.248047 0.968262 0
vn 0 0 -1
vn 0 0 -1
vn -0.248047 0.968262 0
vn -0.248047 0.968262 0
vn -0.165894 -0.363037 -0.916504
vn -0.157104 0.0569153 -0.98584
vn -0.0131378 0.00188828 -0.999512
vn 0.291504 -0.537109 -0.791016
vn 0 0 -1
vn -0.506836 -0.491699 -0.70752
vn 0 0 1
vn 0.00136757 -0.00762939 0.999512
vn -0.0308685 -0.00289726 -0.999512
vn 0 0 -1
vn -0.0714111 0.897949 -0.433838
vn -0.222778 -0.49292 -0.84082
vn -0.00163937 -0.0181885 0.999512
vn 0.00430298 -0.0202789 0.999512
vn 0.651855 -0.420898 -0.629883
vn -0.550781 0.487549 -0.676758
vn 0.345703 0.901367 -0.260254
vn 0.651855 -0.420898 -0.629883
vn 0.92627 0.081604 0.366943
vn 0.666992 -0.60498 0.434082
vn 0.155151 -0.966309 0.203857
vn -0.644531 -0.62793 -0.435547
vn -0.550781 0.487549 -0.676758

vt 0.684053 0.487674
vt 0.780316 0.465358
vt 0.76209 0.481215
vt 0.780316 0.498481
vt 0.418164 0.483716
vt 0.0175042 0.481113
vt 0.0175042 0.430011
vt 0.121184 0.404251
vt 0.910009 0.592643
vt 0.872951 0.592643
vt 0.863687 0.543035
vt 0.780316 0.867542
vt 0.438933 0.724741
vt 0.547017 0.687941
vt 0.0240792 0.860275
vt 0.268227 0.712999
vt 0.838036 0.288085
vt 0.798418 0.288085
vt 0.798418 0.0167412
vt 0.838036 0.0167412
vt 0.798418 0.288085
vt 0.838036 0.288085
vt 0.838036 0.585032
vt 0.798418 0.585032
vt 0.780316 0.930424
vt 0.780316 0.867542
vt 0.0240792 0.860275
vt 0.0366325 0.923158
vt 0.995285 0.46276
vt 0.995285 0.80521
vt 0.95111 0.80521
vt 0.95111 0.460155
vt 0.95111 0.460155
vt 0.960583 0.444012
vt 0.995285 0.444012
vt 0.95111 0.429187
vt 0.995285 0.428993
vt 0.960583 0.444012
vt 0.95111 0.429187
vt 0.95111 0.0227003
vt 0.995285 0.0227003
vt 0.0121675 0.968201
vt 0.012167 0.933603
vt 0.582049 0.933603
vt 0.582049 0.968201
vt 0.910009 0.479619
vt 0.863687 0.47962
vt 0.863687 0.404197
vt 0.910009 0.398598
vt 0.910009 0.548634
vt 0.910009 0.479619
vt 0.910009 0.398598
vt 0.863687 0.0266036
vt 0.910009 0.0266036
vt 0.308953 0.688075
vt 0.418164 0.483716
vt 0.910009 0.548634
vt 0.838036 0.585032
vt 0.834476 0.855237
vt 0.798418 0.861973
vt 0.684053 0.487674
vt 0.76209 0.481215
vt 0.780316 0.465358
vt 0.780316 0.498481
vt 0.455222 0.603192
vt 0.27249 0.603192
vt 0.243783 0.661043
vt 0.455222 0.661043
vt 0.29218 0.574191
vt 0.292181 0.516696
vt 0.242047 0.516696
vt 0.270577 0.574191
vt 0.585239 0.574191
vt 0.585239 0.516696
vt 0.547017 0.687941
vt 0.438933 0.724741
vt 0.589097 0.661043
vt 0.589097 0.603192
vt 0.0109994 0.0234702
vt 0.0109994 0.380161
vt 0.121184 0.404251
vt 0.780316 0.0305917
vt 0.268227 0.712999
vt 0.0233234 0.568813
vt 0.0233234 0.568813
vt 0.780316 0.0305917
vt 0.418164 0.483716
vt 0.308953 0.688075
vt 0.0175042 0.481113
vt 0.0175042 0.430011
vt 0.0109994 0.0234702
vt 0.0109994 0.380161
vt 0.891434 0.695728
vt 0.844918 0.648371
vt 0.860424 0.648371
vt 0.891434 0.695728
vt 0.875929 0.648371
vt 0.891434 0.648371
vt 0.906939 0.648371
vt 0.922445 0.648371
vt 0.93795 0.648371


#
# MESH 000
#
g surface_000
usemtl surface_000
f 92/92/92 91/91/91 8/8/8
f 8/8/8 91/91/91 86/86/86
f 8/8/8 86/86/86 5/5/5
f 5/5/5 7/7/7 8/8/8
f 5/5/5 6/6/6 7/7/7
f 5/5/5 86/86/86 1/1/1
f 1/1/1 86/86/86 2/2/2
f 1/1/1 2/2/2 3/3/3
f 4/4/4 1/1/1 3/3/3
f 4/4/4 14/14/14 1/1/1
f 1/1/1 14/14/14 55/55/55
f 1/1/1 55/55/55 56/56/56
f 55/55/55 85/85/85 56/56/56
f 55/55/55 16/16/16 85/85/85
f 85/85/85 16/16/16 15/15/15
f 4/4/4 12/12/12 14/14/14
f 12/12/12 13/13/13 14/14/14
f 15/15/15 13/13/13 12/12/12
f 15/15/15 16/16/16 13/13/13
f 89/89/89 81/81/81 90/90/90
f 89/89/89 87/87/87 81/81/81
f 82/82/82 81/81/81 87/87/87
f 79/79/79 81/81/81 82/82/82
f 79/79/79 80/80/80 81/81/81
f 82/82/82 87/87/87 61/61/61
f 82/82/82 61/61/61 63/63/63
f 61/61/61 62/62/62 63/63/63
f 64/64/64 62/62/62 61/61/61
f 61/61/61 26/26/26 64/64/64
f 87/87/87 75/75/75 61/61/61
f 61/61/61 75/75/75 26/26/26
f 26/26/26 75/75/75 76/76/76
f 26/26/26 76/76/76 27/27/27
f 25/25/25 26/26/26 27/27/27
f 25/25/25 27/27/27 28/28/28
f 87/87/87 88/88/88 75/75/75
f 88/88/88 87/87/87 84/84/84
f 88/88/88 84/84/84 83/83/83
f 83/83/83 84/84/84 27/27/27
f 27/27/27 76/76/76 83/83/83
f 77/77/77 78/78/78 65/65/65
f 77/77/77 65/65/65 68/68/68
f 65/65/65 67/67/67 68/68/68
f 65/65/65 66/66/66 67/67/67
f 70/70/70 73/73/73 74/74/74
f 70/70/70 69/69/69 73/73/73
f 71/71/71 69/69/69 70/70/70
f 71/71/71 72/72/72 69/69/69
f 24/24/24 59/59/59 60/60/60
f 24/24/24 58/58/58 59/59/59
f 9/9/9 11/11/11 57/57/57
f 9/9/9 10/10/10 11/11/11
f 52/52/52 53/53/53 54/54/54
f 52/52/52 48/48/48 53/53/53
f 50/50/50 47/47/47 51/51/51
f 50/50/50 11/11/11 47/47/47
f 46/46/46 48/48/48 49/49/49
f 46/46/46 47/47/47 48/48/48
f 42/42/42 44/44/44 45/45/45
f 42/42/42 43/43/43 44/44/44
f 37/37/37 40/40/40 41/41/41
f 37/37/37 39/39/39 40/40/40
f 36/36/36 35/35/35 38/38/38
f 36/36/36 37/37/37 35/35/35
f 33/33/33 35/35/35 29/29/29
f 33/33/33 34/34/34 35/35/35
f 29/29/29 31/31/31 32/32/32
f 29/29/29 30/30/30 31/31/31
f 21/21/21 23/23/23 24/24/24
f 21/21/21 22/22/22 23/23/23
f 17/17/17 19/19/19 20/20/20
f 17/17/17 18/18/18 19/19/19
f 101/101/101 93/93/93 100/100/100
f 93/93/93 94/94/94 95/95/95
f 96/96/96 99/99/99 100/100/100
f 96/96/96 98/98/98 99/99/99
f 96/96/96 97/97/97 98/98/98
f 96/96/96 95/95/95 97/97/97

