#
# OBJECT NAME
#
o model_2665
mtllib 2665.mtl

#
# VERTEX BUFFER 000
#
v 0.101157 0.489296 -0.0290981
v 0.107323 0.489296 0
v 0.400364 0.489296 0
v 0.377363 0.489296 -0.10947
v 0.0788076 0.489296 -0.0543509
v 0.29399 0.489296 -0.205894
v 0.101157 0.489296 0.029098
v 0.377363 0.489296 0.10947
v 0.427597 0.356939 -0.124043
v 0.377363 0.489296 -0.10947
v 0.400364 0.489296 0
v 0.453668 0.356939 0
v 0.0417143 0.489296 -0.068934
v 0.155614 0.489296 -0.262868
v 0.332994 0.35741 -0.233211
v 0.29399 0.489296 -0.205894
v 0.0788076 0.489296 0.0543509
v 0.29399 0.489296 0.205894
v 0.427597 0.356939 0.124042
v 0.377363 0.489296 0.10947
v 0 0.489296 -0.0743598
v 0 0.489296 -0.277397
v 0.176194 0.357814 -0.297897
v 0.155614 0.489296 -0.262868
v 0.0417144 0.489296 0.068934
v 0.155614 0.489296 0.262868
v 0.29399 0.489296 0.205894
v 0.332994 0.35741 0.233211
v 0.455737 0.204287 0.132206
v 0.483524 0.204287 0
v 0.455737 0.204287 -0.132206
v 0.355019 0.204253 -0.248636
v -0.0417143 0.489296 -0.068934
v -0.155614 0.489296 -0.262868
v 0 0.358003 -0.313483
v 0 0.489296 -0.277397
v 0.187897 0.204225 -0.317691
v 0.176194 0.357814 -0.297897
v 0 0.489296 0.0743598
v 2.0602e-007 0.489296 0.277397
v 0.155614 0.489296 0.262868
v 0.176194 0.357814 0.297897
v 0.355019 0.204253 0.248636
v 0.466969 0 0.135464
v 0.495432 0 0
v -0.0788076 0.489296 -0.0543509
v -0.29399 0.489296 -0.205894
v -0.155614 0.489296 -0.262868
v 0 0.489296 -0.277397
v 0 0.358003 -0.313483
v -0.176194 0.357814 -0.297897
v 0.0588749 0.35062 -0.308835
v 0.11932 0.321292 -0.30913
v -0.0417143 0.489296 0.0689341
v -0.155614 0.489296 0.262868
v 2.0602e-007 0.489296 0.277397
v 2.42546e-007 0.358003 0.313483
v 0.176194 0.357814 0.297897
v 0.187897 0.204225 0.317691
v 0.363799 0 0.254784
v 0.466969 0 -0.135464
v 0.466969 0 0.135464
v 0.466969 0 -0.135464
v 0.495432 0 0
v 0.363799 0 -0.254785
v 0.187897 0.204225 -0.317691
v 0.19055 0.102113 -0.322177
v -0.101157 0.489296 -0.0290981
v -0.377363 0.489296 -0.10947
v -0.29399 0.489296 -0.205894
v -0.332994 0.35741 -0.233211
v 0 0.358003 -0.0744963
v 0 0.358003 -0.313483
v 0.0588749 0.35062 -0.308835
v 0.0791503 0.344776 -0.0546742
v 0.176194 0.357814 -0.297897
v 0.152961 0.262746 -0.314607
v -0.0788076 0.489296 0.0543509
v -0.29399 0.489296 0.205894
v 2.42546e-007 0.358003 0.313483
v 2.0602e-007 0.489296 0.277397
v -0.155614 0.489296 0.262868
v -0.176194 0.357814 0.297897
v 0.0588752 0.35062 0.308835
v 0.119321 0.321292 0.30913
v 0.19055 0.102113 0.322177
v 0.363799 0 0.254784
v 0.363799 0 -0.254785
v 0.172231 0.204224 -0.319859
v -0.107323 0.489296 0
v -0.101157 0.489296 -0.0290981
v -0.400364 0.489296 1.02078e-007
v -0.377363 0.489296 -0.10947
v -0.427597 0.356939 -0.124043
v -0.0588751 0.35062 -0.308835
v 0 0.358003 -0.313483
v 0 0.358003 -0.0744963
v -0.0791503 0.344776 -0.0546742
v -0.0588751 0.35062 -0.308835
v 0.11932 0.321292 -0.30913
v 0.108033 0.327775 0
v 0.152961 0.262746 -0.314607
v 0.152961 0.262746 0.314607
v 0.119321 0.321292 0.30913
v -0.101157 0.489296 0.0290981
v -0.377363 0.489296 0.10947
v -0.29399 0.489296 0.205894
v -0.332994 0.35741 0.233211
v 2.42546e-007 0.358003 0.313483
v 0 0.358003 0.0744963
v 0.0791503 0.344776 0.0546742
v 0.0588752 0.35062 0.308835
v 0.176194 0.357814 0.297897
v 0.152961 0.262746 0.314607
v 0.172231 0.204224 0.319858
v 0.192566 0 0.325585
v 0.192566 0 0.325585
v 0.192565 0 -0.325585
v 0.192565 0 -0.325585
v 0.19055 0.102113 -0.322177
v 0.19055 0.102113 0.322177
v 0.172231 0.204224 0.319858
v 0.172231 0.204224 -0.319859
v -0.453668 0.356939 1.10847e-007
v -0.400364 0.489296 1.02078e-007
v -0.119321 0.321292 -0.30913
v -0.108033 0.327775 0
v -0.11932 0.321292 0.30913
v -0.119321 0.321292 -0.30913
v -0.377363 0.489296 0.10947
v -0.427597 0.356939 0.124043
v -0.0588748 0.35062 0.308835
v 0 0.358003 0.0744963
v 2.42546e-007 0.358003 0.313483
v -0.0588748 0.35062 0.308835
v -0.0791503 0.344776 0.0546742
v 0.192565 0 -0.325585
v 0.192566 0 0.325585
v -0.455737 0.204287 -0.132206
v -0.483524 0.204287 1.14042e-007
v -0.355019 0.204253 -0.248636
v -0.11932 0.321292 0.30913
v -0.152961 0.262746 0.314607
v -0.152961 0.262746 -0.314607
v -0.455737 0.204287 0.132206
v -0.187897 0.204225 -0.317691
v -0.152961 0.262746 -0.314607
v -0.152961 0.262746 0.314607
v -0.187896 0.204225 0.317691
v -0.172231 0.204224 0.319859
v -0.172231 0.204224 -0.319859
v -0.355019 0.204253 0.248636
v -0.363799 0 -0.254785
v -0.466969 0 -0.135464
v -0.495432 0 1.25847e-007
v -0.466969 0 0.135464
v -0.19055 0.102113 -0.322177
v -0.172231 0.204224 -0.319859
v -0.172231 0.204224 0.319859
v -0.19055 0.102113 0.322177
v -0.19055 0.102113 -0.322177
v -0.466969 0 0.135464
v -0.466969 0 -0.135464
v -0.363799 0 -0.254785
v -0.363799 0 0.254785
v -0.495432 0 1.25847e-007
v -0.363799 0 0.254785
v -0.19055 0.102113 0.322177
v -0.192565 0 0.325585
v -0.192565 0 -0.325585
v -0.192565 0 -0.325585
v -0.192565 0 -0.325585
v -0.192565 0 0.325585
v -0.192565 0 0.325585
v 0.101157 0.489296 -0.0290981
v 0.108033 0.327775 0
v 0.107323 0.489296 0
v 0.0791503 0.344776 -0.0546742
v 0.0788076 0.489296 -0.0543509
v 0.107323 0.489296 0
v 0.108033 0.327775 0
v 0.101157 0.489296 0.029098
v 0.0417143 0.489296 -0.068934
v 0.0791503 0.344776 0.0546742
v 0.0788076 0.489296 0.0543509
v 0 0.358003 -0.0744963
v 0.0417144 0.489296 0.068934
v 0 0.358003 -0.0744963
v -0.0417143 0.489296 -0.068934
v -0.0791503 0.344776 -0.0546742
v 0 0.358003 0.0744963
v 0 0.489296 0.0743598
v -0.0788076 0.489296 -0.0543509
v -0.0417143 0.489296 0.0689341
v -0.101157 0.489296 -0.0290981
v -0.0791503 0.344776 0.0546742
v -0.0788076 0.489296 0.0543509
v -0.108033 0.327775 0
v -0.107323 0.489296 0
v -0.101157 0.489296 0.0290981
v -0.108033 0.327775 0
v -0.107323 0.489296 0
v 0 0.489296 -0.0743598
v 0 0.489296 -0.0743598

vn 0 1 0
vn 0 1 0
vn 0 1 0
vn 0 1 0
vn 0 1 0
vn 0 1 0
vn 0 1 0
vn 0 1 0
vn 0.85791 0.262207 -0.44165
vn 0.824219 0.36084 -0.435791
vn 0.927246 0.373535 -9.53674e-007
vn 0.961914 0.272461 -8.34465e-007
vn 0 1 0
vn 0 1 0
vn 0.555664 0.231934 -0.79834
vn 0.527344 0.319336 -0.787109
vn 0 1 -1.78814e-007
vn 0 1 -1.78814e-007
vn 0.85791 0.262207 0.44165
vn 0.824219 0.36084 0.435791
vn 0 1 0
vn 0 1 0
vn 0.281494 0.227295 -0.932129
vn 0.21875 0.28125 -0.934082
vn 0 1 -1.78814e-007
vn 0 1 -1.78814e-007
vn 0.527344 0.319336 0.787109
vn 0.555664 0.231934 0.79834
vn 0.883301 0.109436 0.455078
vn 0.993164 0.113708 -8.9407e-007
vn 0.883301 0.109436 -0.455078
vn 0.608398 0.10791 -0.785645
vn 0 1 0
vn 0 1 0
vn 0 0.26709 -0.963379
vn 0 0.267578 -0.963379
vn 0.363281 0.122009 -0.92334
vn 0.281494 0.227295 -0.932129
vn 0 1 0
vn 0 1 0
vn 0.218872 0.28125 0.934082
vn 0.281494 0.227295 0.932129
vn 0.608398 0.10791 0.785645
vn 0.887695 0.0561218 0.456787
vn 0.998047 0.058197 -9.53674e-007
vn 0 1 0
vn 0 1 0
vn -0.21875 0.28125 -0.934082
vn 0 0.267578 -0.963379
vn 0 0.26709 -0.963379
vn -0.281494 0.227295 -0.932129
vn 0.0854492 0.111145 -0.989746
vn 0.107117 0.154663 -0.981934
vn 0 1 -1.78814e-007
vn 0 1 -1.78814e-007
vn 1.78814e-007 0.267578 0.963379
vn 1.78814e-007 0.26709 0.963379
vn 0.281494 0.227295 0.932129
vn 0.363281 0.122009 0.92334
vn 0.649414 0.050293 0.758301
vn 0.887695 0.0561218 -0.456787
vn 0 -1 0
vn 0 -1 0
vn 0 -1 0
vn 0.649414 0.050293 -0.758301
vn 0.363281 0.122009 -0.92334
vn 0.382324 0.0443115 -0.922852
vn 0 1 -1.78814e-007
vn 0 1 -3.57628e-007
vn -0.527344 0.319336 -0.787109
vn -0.555664 0.231934 -0.79834
vn 0 -0.999512 -0.00575256
vn 0 -0.999512 -0.00575256
vn -0.282471 -0.958984 0.000171781
vn -0.354004 -0.935059 0.00335693
vn 0.281494 0.227295 -0.932129
vn 0.121521 0.142822 -0.981934
vn 0 1 -1.78814e-007
vn 0 1 0
vn 1.78814e-007 0.26709 0.963379
vn 1.78814e-007 0.267578 0.963379
vn -0.21875 0.28125 0.934082
vn -0.281494 0.227295 0.932129
vn 0.0854492 0.111084 0.989746
vn 0.107117 0.154663 0.981934
vn 0.382324 0.0443115 0.922852
vn 0 -1 0
vn 0 -1 0
vn 0.136475 0.0844727 -0.986816
vn 0 1 -3.57628e-007
vn 0 1 -3.57628e-007
vn 0 1 -3.57628e-007
vn -0.824219 0.36084 -0.435791
vn -0.85791 0.262207 -0.44165
vn -0.0854492 0.111145 -0.989746
vn 0 -0.999512 -0.00575256
vn 0 -0.999512 -0.00575256
vn 0.354004 -0.935059 0.00335693
vn 0.282471 -0.958984 0.000171542
vn -0.793945 -0.606934 0.00203705
vn -0.47876 -0.87793 1.19209e-007
vn -0.913574 -0.406006 2.98023e-007
vn -0.913574 -0.406006 2.98023e-007
vn -0.793945 -0.606934 -0.00203514
vn 0 1 0
vn 0 1 0
vn -0.527344 0.319336 0.787109
vn -0.555664 0.231934 0.79834
vn 1.19209e-007 -0.999512 0.00575256
vn 1.19209e-007 -0.999512 0.00575256
vn -0.354004 -0.935059 -0.00335693
vn -0.282471 -0.958984 -0.000171542
vn 0.281494 0.227295 0.932129
vn 0.121521 0.142822 0.981934
vn 0.136475 0.0844727 0.986816
vn 0.381592 0.0383301 0.92334
vn 0 -1 0
vn 0 -1 0
vn 0.381592 0.0383301 -0.92334
vn -0.995117 -0.09729 2.38419e-007
vn -0.995117 -0.09729 2.38419e-007
vn -0.974121 -0.22522 2.38419e-007
vn -0.974121 -0.22522 2.38419e-007
vn -0.961914 0.272461 4.17233e-007
vn -0.927246 0.373535 7.15256e-007
vn -0.107117 0.154663 -0.981934
vn 0.47876 -0.877441 -1.19209e-007
vn 0.793945 -0.606934 -0.00203705
vn 0.793945 -0.606934 0.00203514
vn -0.824219 0.36084 0.435791
vn -0.85791 0.262207 0.44165
vn -0.0854492 0.111084 0.989746
vn 1.19209e-007 -0.999512 0.00575256
vn 1.19209e-007 -0.999512 0.00575256
vn 0.282471 -0.958984 -0.000171661
vn 0.354004 -0.935059 -0.00335693
vn -0.999512 -0.0197296 2.38419e-007
vn -0.999512 -0.0197296 2.38419e-007
vn -0.883301 0.109436 -0.455078
vn -0.993164 0.113708 2.38419e-007
vn -0.608398 0.10791 -0.785645
vn -0.107117 0.154663 0.981934
vn 0.913574 -0.406006 -2.38419e-007
vn 0.913574 -0.406006 -2.38419e-007
vn -0.883301 0.109436 0.455078
vn -0.363281 0.122009 -0.92334
vn -0.121521 0.142822 -0.981934
vn -0.121521 0.142822 0.981934
vn -0.363281 0.122009 0.92334
vn 0.974121 -0.22522 -2.38419e-007
vn 0.974121 -0.22522 -2.38419e-007
vn -0.608398 0.10791 0.785645
vn -0.649414 0.050293 -0.758301
vn -0.887695 0.0561218 -0.456787
vn -0.998047 0.058197 2.38419e-007
vn -0.887695 0.0561218 0.456787
vn -0.382324 0.0443115 -0.922852
vn -0.136475 0.0844727 -0.986816
vn -0.136475 0.0844727 0.986816
vn 0.995117 -0.09729 -2.38419e-007
vn 0.995117 -0.09729 -2.38419e-007
vn 0 -1 0
vn 0 -1 0
vn 0 -1 0
vn 0 -1 0
vn 0 -1 0
vn -0.649414 0.050293 0.758301
vn -0.382324 0.0443115 0.922852
vn 0.999512 -0.0197296 -2.38419e-007
vn 0.999512 -0.0197296 -2.38419e-007
vn -0.381592 0.0383301 -0.92334
vn 0 -1 0
vn 0 -1 0
vn -0.381592 0.0383301 0.92334
vn -0.890137 0.00820923 0.45459
vn -0.998535 0.0505981 0
vn -0.999512 -0.00439835 1.07288e-006
vn -0.630371 0.041626 0.774902
vn -0.556152 -0.00317764 0.830566
vn -0.999512 -0.00439835 1.07288e-006
vn -0.998535 0.0505981 0
vn -0.890137 0.00820923 -0.45459
vn -0.248535 0.00928497 0.968262
vn -0.630371 0.041626 -0.774902
vn -0.556152 -0.00317764 -0.830566
vn 0 0.0317078 0.999023
vn -0.248535 0.00928497 -0.968262
vn 0 0.0317078 0.999023
vn 0.248535 0.00928497 0.968262
vn 0.630371 0.041626 0.774902
vn 0 0.0317078 -0.999023
vn -2.98023e-007 -0.00103951 -0.999512
vn 0.556152 -0.00317764 0.830566
vn 0.248535 0.00928497 -0.968262
vn 0.890137 0.00820923 0.45459
vn 0.630371 0.041626 -0.774902
vn 0.556152 -0.00317764 -0.830566
vn 0.998535 0.0505981 -1.78814e-007
vn 0.999512 -0.00439835 -5.96046e-007
vn 0.890137 0.00820923 -0.45459
vn 0.998535 0.0505981 -1.78814e-007
vn 0.999512 -0.00439835 -5.96046e-007
vn 0 -0.00103951 0.999512
vn 0 -0.00103951 0.999512

vt 0.831876 0.33578
vt 0.834951 0.306405
vt 0.981091 0.306405
vt 0.96962 0.416915
vt 0.82073 0.361272
vt 0.928042 0.514255
vt 0.831876 0.277031
vt 0.96962 0.195895
vt 0.413625 0.855918
vt 0.413625 0.984894
vt 0.34293 0.984894
vt 0.34293 0.855918
vt 0.802232 0.375994
vt 0.859034 0.571771
vt 0.491169 0.855918
vt 0.491169 0.984894
vt 0.82073 0.251537
vt 0.928042 0.0985546
vt 0.272235 0.855918
vt 0.272235 0.984894
vt 0.781429 0.381472
vt 0.781429 0.586438
vt 0.577785 0.855918
vt 0.577697 0.984894
vt 0.802232 0.236816
vt 0.859034 0.041039
vt 0.194691 0.984894
vt 0.194691 0.855918
vt 0.272235 0.705257
vt 0.34293 0.705257
vt 0.413625 0.705257
vt 0.491169 0.705257
vt 0.760626 0.375994
vt 0.703824 0.571771
vt 0.666733 0.856104
vt 0.666733 0.984894
vt 0.577788 0.705257
vt 0.577787 0.855918
vt 0.781429 0.231338
vt 0.781429 0.0263715
vt 0.108163 0.984894
vt 0.108075 0.855918
vt 0.194691 0.705257
vt 0.272235 0.504923
vt 0.34293 0.504923
vt 0.742127 0.361272
vt 0.634815 0.514255
vt 0.108163 0.984894
vt 0.0191275 0.984894
vt 0.0191275 0.856104
vt 0.108074 0.855918
vt 0.636969 0.848862
vt 0.607597 0.820093
vt 0.760626 0.236816
vt 0.703824 0.041039
vt 0.0191275 0.984894
vt 0.0191275 0.856104
vt 0.108074 0.855918
vt 0.108072 0.705257
vt 0.194691 0.504923
vt 0.413625 0.504923
vt 0.233033 0.152843
vt 0.233033 0.337888
vt 0.242579 0.245366
vt 0.491169 0.504923
vt 0.577788 0.705257
vt 0.577788 0.60509
vt 0.730982 0.33578
vt 0.593237 0.416915
vt 0.194691 0.984894
vt 0.194691 0.855918
vt 0.37395 0.451041
vt 0.259437 0.450759
vt 0.261828 0.394641
vt 0.383908 0.375272
vt 0.577788 0.855918
vt 0.593566 0.762662
vt 0.742127 0.251537
vt 0.634815 0.0985546
vt 0.666733 0.856104
vt 0.666733 0.984894
vt 0.577697 0.984894
vt 0.577787 0.855918
vt 0.0488918 0.848862
vt 0.0782636 0.820093
vt 0.108072 0.60509
vt 0.198427 0.0713464
vt 0.198427 0.419384
vt 0.586887 0.705256
vt 0.727907 0.306405
vt 0.730982 0.33578
vt 0.581766 0.306404
vt 0.272235 0.984894
vt 0.272235 0.855918
vt 0.0488918 0.848862
vt 0.560534 0.451041
vt 0.445618 0.451041
vt 0.436467 0.375272
vt 0.558548 0.394641
vt 0.261908 0.33136
vt 0.410188 0.345531
vt 0.259812 0.268948
vt 0.560563 0.268948
vt 0.558467 0.33136
vt 0.730982 0.277031
vt 0.593237 0.195895
vt 0.491169 0.984894
vt 0.491169 0.855918
vt 0.560534 0.451041
vt 0.445618 0.451041
vt 0.436467 0.375272
vt 0.558548 0.394641
vt 0.108072 0.855918
vt 0.0922938 0.762662
vt 0.0989732 0.705256
vt 0.108072 0.504923
vt 0.140993 0.0229893
vt 0.140993 0.467741
vt 0.577788 0.504923
vt 0.257294 0.114803
vt 0.563082 0.114803
vt 0.562534 0.212395
vt 0.257842 0.212395
vt 0.34293 0.855918
vt 0.34293 0.984894
vt 0.0782636 0.820093
vt 0.410188 0.345531
vt 0.261908 0.33136
vt 0.558467 0.33136
vt 0.413625 0.984894
vt 0.413626 0.855918
vt 0.636969 0.848862
vt 0.37395 0.451041
vt 0.259437 0.450759
vt 0.261828 0.394641
vt 0.383908 0.375272
vt 0.255706 0.0186683
vt 0.564669 0.0186683
vt 0.272235 0.705257
vt 0.34293 0.705257
vt 0.194691 0.705257
vt 0.607597 0.820093
vt 0.259812 0.268948
vt 0.560563 0.268948
vt 0.413625 0.705257
vt 0.108072 0.705257
vt 0.0922938 0.762662
vt 0.593567 0.762662
vt 0.577788 0.705257
vt 0.257842 0.212395
vt 0.562534 0.212395
vt 0.491169 0.705257
vt 0.194691 0.504923
vt 0.272235 0.504923
vt 0.34293 0.504923
vt 0.413625 0.504923
vt 0.108072 0.60509
vt 0.0989732 0.705256
vt 0.586887 0.705256
vt 0.257294 0.114803
vt 0.563082 0.114803
vt 0.0228767 0.152843
vt 0.0228766 0.337888
vt 0.0574817 0.419384
vt 0.0574818 0.0713464
vt 0.0133298 0.245365
vt 0.491169 0.504923
vt 0.577788 0.60509
vt 0.255706 0.0186683
vt 0.564669 0.0186683
vt 0.108072 0.504923
vt 0.114917 0.467741
vt 0.114916 0.0229892
vt 0.577788 0.504923
vt 0.893333 0.927582
vt 0.913473 0.748846
vt 0.913473 0.927582
vt 0.873547 0.768695
vt 0.873585 0.927582
vt 0.913473 0.927582
vt 0.913473 0.748846
vt 0.893333 0.927582
vt 0.849826 0.927582
vt 0.873547 0.768695
vt 0.873585 0.927582
vt 0.824316 0.783237
vt 0.849826 0.927582
vt 0.824316 0.783237
vt 0.798805 0.927582
vt 0.775085 0.768695
vt 0.824316 0.783237
vt 0.824316 0.927582
vt 0.775047 0.927582
vt 0.798805 0.927582
vt 0.755299 0.927582
vt 0.775085 0.768695
vt 0.775047 0.927582
vt 0.735159 0.748846
vt 0.735159 0.927582
vt 0.755299 0.927582
vt 0.735159 0.748846
vt 0.735159 0.927582
vt 0.824316 0.927582
vt 0.824316 0.927582


#
# MESH 000
#
g surface_000
usemtl surface_000
f 186/186/186 204/204/204 189/189/189
f 85/85/85 58/58/58 84/84/84
f 38/38/38 53/53/53 52/52/52
f 186/186/186 183/183/183 203/203/203
f 178/178/178 183/183/183 186/186/186
f 178/178/178 179/179/179 183/183/183
f 178/178/178 175/175/175 179/179/179
f 175/175/175 178/178/178 176/176/176
f 175/175/175 176/176/176 177/177/177
f 201/201/201 202/202/202 200/200/200
f 201/201/201 200/200/200 196/196/196
f 197/197/197 196/196/196 200/200/200
f 194/194/194 196/196/196 197/197/197
f 194/194/194 191/191/191 196/196/196
f 192/192/192 191/191/191 194/194/194
f 187/187/187 191/191/191 192/192/192
f 187/187/187 184/184/184 191/191/191
f 185/185/185 184/184/184 187/187/187
f 182/182/182 184/184/184 185/185/185
f 182/182/182 181/181/181 184/184/184
f 180/180/180 181/181/181 182/182/182
f 198/198/198 195/195/195 199/199/199
f 190/190/190 195/195/195 198/198/198
f 190/190/190 193/193/193 195/195/195
f 190/190/190 189/189/189 193/193/193
f 188/188/188 189/189/189 190/190/190
f 167/167/167 174/174/174 168/168/168
f 167/167/167 168/168/168 152/152/152
f 152/152/152 156/156/156 167/167/167
f 152/152/152 145/145/145 156/156/156
f 145/145/145 155/155/155 156/156/156
f 145/145/145 140/140/140 155/155/155
f 140/140/140 154/154/154 155/155/155
f 152/152/152 168/168/168 149/149/149
f 108/108/108 152/152/152 149/149/149
f 152/152/152 108/108/108 131/131/131
f 152/152/152 131/131/131 145/145/145
f 140/140/140 145/145/145 131/131/131
f 140/140/140 131/131/131 124/124/124
f 124/124/124 139/139/139 140/140/140
f 140/140/140 139/139/139 154/154/154
f 139/139/139 153/153/153 154/154/154
f 168/168/168 159/159/159 149/149/149
f 159/159/159 148/148/148 149/149/149
f 148/148/148 83/83/83 149/149/149
f 108/108/108 149/149/149 83/83/83
f 83/83/83 107/107/107 108/108/108
f 108/108/108 107/107/107 130/130/130
f 108/108/108 130/130/130 131/131/131
f 131/131/131 130/130/130 125/125/125
f 131/131/131 125/125/125 124/124/124
f 94/94/94 124/124/124 125/125/125
f 124/124/124 94/94/94 139/139/139
f 94/94/94 141/141/141 139/139/139
f 139/139/139 141/141/141 153/153/153
f 148/148/148 142/142/142 83/83/83
f 142/142/142 132/132/132 83/83/83
f 80/80/80 83/83/83 132/132/132
f 80/80/80 82/82/82 83/83/83
f 83/83/83 82/82/82 107/107/107
f 80/80/80 81/81/81 82/82/82
f 94/94/94 125/125/125 93/93/93
f 93/93/93 71/71/71 94/94/94
f 94/94/94 71/71/71 141/141/141
f 146/146/146 141/141/141 71/71/71
f 141/141/141 146/146/146 157/157/157
f 141/141/141 157/157/157 153/153/153
f 153/153/153 157/157/157 171/171/171
f 93/93/93 70/70/70 71/71/71
f 70/70/70 51/51/51 71/71/71
f 146/146/146 71/71/71 51/51/51
f 51/51/51 147/147/147 146/146/146
f 146/146/146 147/147/147 158/158/158
f 146/146/146 158/158/158 157/157/157
f 70/70/70 48/48/48 51/51/51
f 48/48/48 50/50/50 51/51/51
f 50/50/50 95/95/95 51/51/51
f 51/51/51 95/95/95 126/126/126
f 51/51/51 126/126/126 147/147/147
f 48/48/48 49/49/49 50/50/50
f 165/165/165 172/172/172 173/173/173
f 165/165/165 164/164/164 172/172/172
f 162/162/162 164/164/164 165/165/165
f 162/162/162 163/163/163 164/164/164
f 166/166/166 163/163/163 162/162/162
f 169/169/169 170/170/170 161/161/161
f 169/169/169 161/161/161 160/160/160
f 150/150/150 160/160/160 161/161/161
f 150/150/150 161/161/161 151/151/151
f 144/144/144 150/150/150 151/151/151
f 144/144/144 143/143/143 150/150/150
f 128/128/128 143/143/143 144/144/144
f 128/128/128 144/144/144 129/129/129
f 127/127/127 128/128/128 129/129/129
f 135/135/135 128/128/128 127/127/127
f 135/135/135 127/127/127 136/136/136
f 133/133/133 135/135/135 136/136/136
f 133/133/133 134/134/134 135/135/135
f 127/127/127 129/129/129 99/99/99
f 127/127/127 99/99/99 98/98/98
f 96/96/96 98/98/98 99/99/99
f 96/96/96 97/97/97 98/98/98
f 121/121/121 137/137/137 138/138/138
f 121/121/121 120/120/120 137/137/137
f 120/120/120 121/121/121 122/122/122
f 120/120/120 122/122/122 123/123/123
f 123/123/123 122/122/122 103/103/103
f 123/123/123 103/103/103 102/102/102
f 102/102/102 103/103/103 104/104/104
f 102/102/102 104/104/104 100/100/100
f 104/104/104 101/101/101 100/100/100
f 100/100/100 101/101/101 75/75/75
f 100/100/100 75/75/75 74/74/74
f 72/72/72 74/74/74 75/75/75
f 72/72/72 73/73/73 74/74/74
f 104/104/104 111/111/111 101/101/101
f 104/104/104 112/112/112 111/111/111
f 109/109/109 111/111/111 112/112/112
f 109/109/109 110/110/110 111/111/111
f 67/67/67 65/65/65 119/119/119
f 67/67/67 32/32/32 65/65/65
f 32/32/32 61/61/61 65/65/65
f 32/32/32 31/31/31 61/61/61
f 31/31/31 45/45/45 61/61/61
f 31/31/31 30/30/30 45/45/45
f 30/30/30 44/44/44 45/45/45
f 66/66/66 32/32/32 67/67/67
f 67/67/67 89/89/89 66/66/66
f 117/117/117 118/118/118 88/88/88
f 117/117/117 88/88/88 87/87/87
f 87/87/87 88/88/88 63/63/63
f 87/87/87 63/63/63 62/62/62
f 62/62/62 63/63/63 64/64/64
f 116/116/116 60/60/60 86/86/86
f 86/86/86 60/60/60 43/43/43
f 86/86/86 43/43/43 59/59/59
f 59/59/59 115/115/115 86/86/86
f 115/115/115 59/59/59 114/114/114
f 113/113/113 114/114/114 59/59/59
f 113/113/113 85/85/85 114/114/114
f 29/29/29 43/43/43 60/60/60
f 19/19/19 43/43/43 29/29/29
f 19/19/19 28/28/28 43/43/43
f 28/28/28 59/59/59 43/43/43
f 28/28/28 58/58/58 59/59/59
f 29/29/29 60/60/60 44/44/44
f 30/30/30 29/29/29 44/44/44
f 29/29/29 30/30/30 12/12/12
f 29/29/29 12/12/12 19/19/19
f 19/19/19 12/12/12 11/11/11
f 19/19/19 11/11/11 20/20/20
f 20/20/20 28/28/28 19/19/19
f 20/20/20 27/27/27 28/28/28
f 27/27/27 42/42/42 28/28/28
f 31/31/31 12/12/12 30/30/30
f 31/31/31 9/9/9 12/12/12
f 9/9/9 11/11/11 12/12/12
f 9/9/9 10/10/10 11/11/11
f 15/15/15 10/10/10 9/9/9
f 15/15/15 16/16/16 10/10/10
f 23/23/23 16/16/16 15/15/15
f 23/23/23 24/24/24 16/16/16
f 32/32/32 9/9/9 31/31/31
f 32/32/32 15/15/15 9/9/9
f 37/37/37 15/15/15 32/32/32
f 37/37/37 38/38/38 15/15/15
f 27/27/27 41/41/41 42/42/42
f 41/41/41 57/57/57 42/42/42
f 57/57/57 84/84/84 42/42/42
f 41/41/41 56/56/56 57/57/57
f 90/90/90 91/91/91 69/69/69
f 90/90/90 69/69/69 92/92/92
f 105/105/105 90/90/90 92/92/92
f 105/105/105 92/92/92 106/106/106
f 78/78/78 105/105/105 106/106/106
f 78/78/78 106/106/106 79/79/79
f 54/54/54 78/78/78 79/79/79
f 54/54/54 79/79/79 55/55/55
f 39/39/39 54/54/54 55/55/55
f 39/39/39 55/55/55 40/40/40
f 25/25/25 39/39/39 40/40/40
f 25/25/25 40/40/40 26/26/26
f 17/17/17 25/25/25 26/26/26
f 17/17/17 26/26/26 18/18/18
f 7/7/7 17/17/17 18/18/18
f 7/7/7 18/18/18 8/8/8
f 2/2/2 7/7/7 8/8/8
f 2/2/2 8/8/8 3/3/3
f 1/1/1 2/2/2 3/3/3
f 1/1/1 3/3/3 4/4/4
f 5/5/5 1/1/1 4/4/4
f 5/5/5 4/4/4 6/6/6
f 13/13/13 5/5/5 6/6/6
f 13/13/13 6/6/6 14/14/14
f 21/21/21 13/13/13 14/14/14
f 21/21/21 14/14/14 22/22/22
f 33/33/33 21/21/21 22/22/22
f 33/33/33 22/22/22 34/34/34
f 46/46/46 33/33/33 34/34/34
f 46/46/46 34/34/34 47/47/47
f 68/68/68 46/46/46 47/47/47
f 68/68/68 47/47/47 69/69/69
f 37/37/37 89/89/89 77/77/77
f 76/76/76 37/37/37 77/77/77
f 76/76/76 77/77/77 53/53/53
f 35/35/35 23/23/23 52/52/52
f 35/35/35 24/24/24 23/23/23
f 35/35/35 36/36/36 24/24/24

