#
# OBJECT NAME
#
o model_2666
mtllib 2666.mtl

#
# VERTEX BUFFER 000
#
v 0.335676 0.489296 0.157682
v 0.400364 0.489296 0
v 0.335676 0.489296 -0.157682
v 0.335676 0.489296 -0.157682
v 0.400364 0.489296 0
v 0.495432 0 0
v 0.415384 0 -0.195124
v 0.335676 0.489296 0.157682
v 0.415384 0 0.195124
v -0.155614 0.489296 -0.275711
v -0.069786 0.357338 -0.305381
v -0.148048 0.262758 -0.314494
v -0.155614 0.489296 -0.275711
v -0.155614 0.489296 0.275711
v 0.155614 0.489296 0.275711
v 0.155614 0.489296 -0.275711
v 0.148048 0.262758 0.314494
v 0.155614 0.489296 0.275711
v 0.415384 0 0.195124
v 0.415384 0 -0.195124
v 0.495432 0 0
v 0.192566 0 0.325585
v 0.192565 0 -0.325585
v 0.148048 0.262758 0.314494
v 0.148048 0.262758 -0.314495
v 0.192565 0 -0.325585
v 0.192566 0 0.325585
v -0.400364 0.489296 1.02078e-007
v -0.335676 0.489296 -0.157682
v -0.415384 0 -0.195124
v -0.495432 0 1.25847e-007
v -0.148048 0.262758 0.314495
v -0.148048 0.262758 -0.314494
v -0.069786 0.357338 -0.305381
v -0.0697857 0.357338 0.305381
v -0.335676 0.489296 0.157682
v -0.415384 0 0.195124
v -0.192565 0 0.325585
v -0.192565 0 -0.325585
v -0.495432 0 1.25847e-007
v -0.415384 0 -0.195124
v -0.415384 0 0.195124
v -0.192565 0 -0.325585
v -0.192565 0 0.325585
v 0.0697862 0.357338 0.305381
v 0.0697858 0.357338 -0.305381
v -0.155614 0.489296 -0.275711
v 0.155614 0.489296 -0.275711
v 0.0697858 0.357338 -0.305381
v -0.069786 0.357338 -0.305381
v 0.148048 0.262758 -0.314495
v 0.192565 0 -0.325585
v -0.148048 0.262758 0.314495
v -0.192565 0 0.325585
v -0.155614 0.489296 0.275711
v -0.192565 0 -0.325585
v 0.192566 0 0.325585
v -0.335676 0.489296 0.157682
v -0.335676 0.489296 -0.157682
v -0.400364 0.489296 1.02078e-007
v -0.0697857 0.357338 0.305381
v 0.0697862 0.357338 0.305381
v 0.0697858 0.357338 -0.305381
v 0.0697862 0.357338 0.305381
v -0.155614 0.489296 0.275711
v -0.0697857 0.357338 0.305381

vn 0 1 0
vn 0 1 -1.19209e-007
vn 0 1 0
vn 0.753906 0.167358 -0.634766
vn 0.981445 0.190674 -4.76837e-007
vn 0.981445 0.190674 -4.76837e-007
vn 0.797852 0.169067 -0.578125
vn 0.753906 0.167358 0.634766
vn 0.797852 0.169067 0.578125
vn -0.439697 0.159058 -0.883789
vn -0.0182343 0.208008 -0.977539
vn -0.513184 0.141235 -0.846191
vn 0 1 0
vn 0 1 0
vn 0 1 0
vn 0 1 0
vn 0.513184 0.141235 0.846191
vn 0.439697 0.159058 0.883789
vn 0 -1 0
vn 0 -1 0
vn 0 -1 0
vn 0 -1 0
vn 0 -1 0
vn -0.949219 -0.313477 2.98023e-007
vn -0.949219 -0.313477 2.98023e-007
vn -0.98584 -0.166992 2.38419e-007
vn -0.98584 -0.166992 2.38419e-007
vn -0.981445 0.190674 3.57628e-007
vn -0.753906 0.167358 -0.634766
vn -0.797852 0.169067 -0.578125
vn -0.981445 0.190674 3.57628e-007
vn 0.949219 -0.313477 -2.98023e-007
vn 0.949219 -0.313477 -2.98023e-007
vn 0.411133 -0.911133 -1.19209e-007
vn 0.411133 -0.911133 -1.19209e-007
vn -0.753906 0.167358 0.634766
vn -0.797852 0.169067 0.578125
vn 0.98584 -0.166992 -2.98023e-007
vn 0.98584 -0.166992 -2.98023e-007
vn 0 -1 0
vn 0 -1 0
vn 0 -1 0
vn 0 -1 0
vn 0 -1 0
vn -0.411133 -0.911133 1.78814e-007
vn -0.411133 -0.911133 1.78814e-007
vn -0.439697 0.159058 -0.883789
vn 0.439697 0.159058 -0.883789
vn 0.0182343 0.208008 -0.977539
vn -0.0182343 0.208008 -0.977539
vn 0.513184 0.141235 -0.846191
vn 0.501465 0.121094 -0.856445
vn -0.513184 0.141235 0.846191
vn -0.501465 0.121094 0.856445
vn -0.439697 0.159058 0.883789
vn -0.501465 0.121094 -0.856445
vn 0.501465 0.121094 0.856445
vn 0 1 0
vn 0 1 0
vn 0 1 3.57628e-007
vn -0.0182343 0.208008 0.977539
vn 0.0182343 0.208008 0.977539
vn -0.411133 -0.911133 1.78814e-007
vn -0.411133 -0.911133 1.78814e-007
vn -0.439697 0.159058 0.883789
vn -0.0182343 0.208008 0.977539

vt 0.948831 0.147225
vt 0.981091 0.306405
vt 0.948831 0.465585
vt 0.452397 0.984894
vt 0.34293 0.984894
vt 0.34293 0.504923
vt 0.452397 0.504923
vt 0.233463 0.984894
vt 0.233463 0.504923
vt 0.108163 0.984894
vt 0.0574768 0.847996
vt 0.0961782 0.762674
vt 0.703824 0.571771
vt 0.703824 0.041039
vt 0.859034 0.041039
vt 0.859034 0.571771
vt 0.0961782 0.762674
vt 0.108163 0.984894
vt 0.200735 0.0736713
vt 0.200735 0.410137
vt 0.242579 0.245366
vt 0.140993 0.0229893
vt 0.140993 0.467741
vt 0.560501 0.271877
vt 0.259875 0.271877
vt 0.255706 0.0186683
vt 0.564669 0.0186683
vt 0.34293 0.984894
vt 0.233463 0.984894
vt 0.233463 0.504923
vt 0.34293 0.504923
vt 0.259875 0.271877
vt 0.560501 0.271877
vt 0.56052 0.376516
vt 0.259619 0.376352
vt 0.452397 0.984894
vt 0.452397 0.504923
vt 0.255706 0.0186683
vt 0.564669 0.0186683
vt 0.0133298 0.245365
vt 0.0540243 0.413643
vt 0.0540244 0.0770874
vt 0.114917 0.467741
vt 0.114916 0.0229892
vt 0.56052 0.376516
vt 0.259619 0.376352
vt 0.670076 0.984894
vt 0.577697 0.984894
vt 0.634504 0.847996
vt 0.670118 0.85794
vt 0.589682 0.762674
vt 0.577788 0.504923
vt 0.589683 0.762674
vt 0.577788 0.504923
vt 0.577697 0.984894
vt 0.108072 0.504923
vt 0.108072 0.504923
vt 0.614026 0.147225
vt 0.614026 0.465585
vt 0.581766 0.306404
vt 0.634504 0.847996
vt 0.0574768 0.847996
vt 0.560534 0.451041
vt 0.259437 0.450759
vt 0.0157777 0.984894
vt 0.018252 0.856104


#
# MESH 000
#
g surface_000
usemtl surface_000
f 65/65/65 66/66/66 62/62/62
f 65/65/65 62/62/62 18/18/18
f 18/18/18 62/62/62 17/17/17
f 17/17/17 8/8/8 18/18/18
f 17/17/17 9/9/9 8/8/8
f 5/5/5 8/8/8 9/9/9
f 5/5/5 9/9/9 6/6/6
f 4/4/4 5/5/5 6/6/6
f 4/4/4 6/6/6 7/7/7
f 4/4/4 7/7/7 51/51/51
f 4/4/4 51/51/51 48/48/48
f 17/17/17 57/57/57 9/9/9
f 51/51/51 7/7/7 52/52/52
f 49/49/49 48/48/48 51/51/51
f 47/47/47 48/48/48 49/49/49
f 47/47/47 49/49/49 50/50/50
f 34/34/34 63/63/63 64/64/64
f 34/34/34 64/64/64 35/35/35
f 32/32/32 34/34/34 35/35/35
f 32/32/32 33/33/33 34/34/34
f 33/33/33 32/32/32 38/38/38
f 33/33/33 38/38/38 39/39/39
f 61/61/61 55/55/55 53/53/53
f 36/36/36 53/53/53 55/55/55
f 36/36/36 37/37/37 53/53/53
f 53/53/53 37/37/37 54/54/54
f 36/36/36 31/31/31 37/37/37
f 36/36/36 28/28/28 31/31/31
f 28/28/28 30/30/30 31/31/31
f 28/28/28 29/29/29 30/30/30
f 12/12/12 30/30/30 29/29/29
f 12/12/12 56/56/56 30/30/30
f 12/12/12 29/29/29 10/10/10
f 10/10/10 11/11/11 12/12/12
f 58/58/58 59/59/59 60/60/60
f 58/58/58 13/13/13 59/59/59
f 58/58/58 14/14/14 13/13/13
f 13/13/13 14/14/14 15/15/15
f 13/13/13 15/15/15 16/16/16
f 1/1/1 16/16/16 15/15/15
f 1/1/1 3/3/3 16/16/16
f 1/1/1 2/2/2 3/3/3
f 25/25/25 45/45/45 46/46/46
f 25/25/25 24/24/24 45/45/45
f 24/24/24 25/25/25 26/26/26
f 24/24/24 26/26/26 27/27/27
f 42/42/42 43/43/43 44/44/44
f 42/42/42 41/41/41 43/43/43
f 40/40/40 41/41/41 42/42/42
f 22/22/22 23/23/23 20/20/20
f 22/22/22 20/20/20 19/19/19
f 19/19/19 20/20/20 21/21/21

