g n004v002_l
v -0.5000002 0.07 0.5
v -0.5000002 0.07 0.375
v -0.4375002 0.07 0.375
v -0.4375002 0.07 0.5
v -0.3750002 0.07 0.4375
v -0.3750002 0.07 0.5
v -0.3750002 0.07 0.3125
v -0.4375002 0.07 0.3125
v -0.3125002 0.07 0.375
v -0.3125002 0.07 0.4375
v -0.3750002 0.06999999 0.1875
v -0.3750002 0.06999999 -0.3125
v -0.4375002 0.06999999 0.1875
v -0.4375002 0.06999999 -0.3125
v -0.3125002 0.06999999 -0.375
v -0.3750002 0.06999999 -0.375
v -0.1875002 0.07 0.375
v 0.3124998 0.06999999 -0.375
v -0.1250002 0.06999999 -0.4375
v -0.3125002 0.06999999 -0.4375
v 0.1249997 0.06999999 -0.4375
v -0.1250002 0.06999999 -0.5
v 0.1249997 0.06999999 -0.5
v 0.3124998 0.06999999 -0.4375
v 0.2499998 0.07 0.375
v 0.3124998 0.07 0.375
v 0.3124998 0.07 0.3125
v 0.3749998 0.06999999 -0.375
v -0.1250002 0.07 0.4375
v -0.1875002 0.07 0.4375
v 0.1875 0.07 0.4375
v 0.2499998 0.07 0.4375
v -0.1250002 0.07 0.5
v 0.1874998 0.07 0.5
v 0.3749998 0.06999999 0.25
v 0.3749998 0.07 0.3125
v 0.4374998 0.06999999 0.25
v 0.4374998 0.06999999 -0.4375
v 0.3749998 0.06999999 -0.4375
v -0.125 0.06999999 -0.4375
v 0.125 0.06999999 -0.5
v -0.125 0.06999999 -0.5
v 0.125 0.06999999 -0.4375
v 0.3125 0.06999999 -0.375
v 0.3125 0.06999999 -0.4375
v -0.3125 0.06999999 -0.375
v -0.3125 0.06999999 -0.4375
v 0.25 0.07 0.375
v 0.3125 0.07 0.3125
v 0.3125 0.07 0.375
v 0.375 0.06999999 0.25
v 0.375 0.07 0.3125
v 0.375 0.06999999 -0.375
v 0.4375 0.06999999 0.25
v 0.4375 0.06999999 -0.4375
v 0.375 0.06999999 -0.4375
v -0.1875 0.07 0.375
v -0.125 0.07 0.4375
v -0.1875 0.07 0.4375
v -0.3125 0.07 0.375
v 0.1875 0.07 0.4375
v 0.25 0.07 0.4375
v -0.125 0.07 0.5
v 0.1875 0.07 0.5
v -0.375 0.06999999 -0.3125
v -0.375 0.06999999 -0.375
v -0.375 0.06999999 0.1875
v -0.4375 0.06999999 -0.3125
v -0.4375 0.06999999 0.1875
v -0.375 0.07 0.3125
v -0.3125 0.07 0.4375
v -0.375 0.07 0.4375
v -0.4375 0.07 0.375
v -0.4375 0.07 0.3125
v -0.4375 0.07 0.5
v -0.375 0.07 0.5
v -0.5 0.07 0.375
v -0.5 0.07 0.5
vt 0.5 0
vt 0.5 0.0625
vt 0.53125 0.0625
vt 0.53125 0
vt 0.5625 0.03125
vt 0.5625 0
vt 0.5625 0.09375
vt 0.53125 0.09375
vt 0.59375 0.0625
vt 0.59375 0.03125
vt 0.5625 0.15625
vt 0.5625 0.40625
vt 0.53125 0.15625
vt 0.53125 0.40625
vt 0.59375 0.4375
vt 0.5625 0.4375
vt 0.65625 0.0625
vt 0.90625 0.4375
vt 0.6875 0.46875
vt 0.59375 0.46875
vt 0.8125 0.46875
vt 0.6875 0.5
vt 0.8125 0.5
vt 0.90625 0.46875
vt 0.875 0.0625
vt 0.90625 0.0625
vt 0.90625 0.09375
vt 0.9375 0.4375
vt 0.6875 0.03125
vt 0.65625 0.03125
vt 0.84375 0.03125
vt 0.875 0.03125
vt 0.6875 0
vt 0.84375 0
vt 0.9375 0.125
vt 0.9375 0.09375
vt 0.96875 0.125
vt 0.96875 0.46875
vt 0.9375 0.46875
vt 0.6875 0.46875
vt 0.8125 0.5
vt 0.6875 0.5
vt 0.8125 0.46875
vt 0.90625 0.4375
vt 0.90625 0.46875
vt 0.59375 0.4375
vt 0.59375 0.46875
vt 0.875 0.0625
vt 0.90625 0.09375
vt 0.90625 0.0625
vt 0.9375 0.125
vt 0.9375 0.09375
vt 0.9375 0.4375
vt 0.96875 0.125
vt 0.96875 0.46875
vt 0.9375 0.46875
vt 0.65625 0.0625
vt 0.6875 0.03125
vt 0.65625 0.03125
vt 0.59375 0.0625
vt 0.84375 0.03125
vt 0.875 0.03125
vt 0.6875 0
vt 0.84375 0
vt 0.5625 0.40625
vt 0.5625 0.4375
vt 0.5625 0.15625
vt 0.53125 0.40625
vt 0.53125 0.15625
vt 0.5625 0.09375
vt 0.59375 0.03125
vt 0.5625 0.03125
vt 0.53125 0.0625
vt 0.53125 0.09375
vt 0.53125 0
vt 0.5625 0
vt 0.5 0.0625
vt 0.5 0
vn 0 1 0
vn 0 1 0
vn 0 1 0
vn 0 1 0
vn 0 1 0
vn 0 1 0
vn 0 1 0
vn 0 1 0
vn 0 1 0
vn 0 1 0
vn 0 1 0
vn 0 1 0
vn 0 1 0
vn 0 1 0
vn 0 1 0
vn 0 1 0
vn 0 1 0
vn 0 1 0
vn 0 1 0
vn 0 1 0
vn 0 1 0
vn 0 1 0
vn 0 1 0
vn 0 1 0
vn 0 1 0
vn 0 1 0
vn 0 1 0
vn 0 1 0
vn 0 1 0
vn 0 1 0
vn 0 1 0
vn 0 1 0
vn 0 1 0
vn 0 1 0
vn 0 1 0
vn 0 1 0
vn 0 1 0
vn 0 1 0
vn 0 1 0
vn 0 -1 0
vn 0 -1 0
vn 0 -1 0
vn 0 -1 0
vn 0 -1 0
vn 0 -1 0
vn 0 -1 0
vn 0 -1 0
vn 0 -1 0
vn 0 -1 0
vn 0 -1 0
vn 0 -1 0
vn 0 -1 0
vn 0 -1 0
vn 0 -1 0
vn 0 -1 0
vn 0 -1 0
vn 0 -1 0
vn 0 -1 0
vn 0 -1 0
vn 0 -1 0
vn 0 -1 0
vn 0 -1 0
vn 0 -1 0
vn 0 -1 0
vn 0 -1 0
vn 0 -1 0
vn 0 -1 0
vn 0 -1 0
vn 0 -1 0
vn 0 -1 0
vn 0 -1 0
vn 0 -1 0
vn 0 -1 0
vn 0 -1 0
vn 0 -1 0
vn 0 -1 0
vn 0 -1 0
vn 0 -1 0
g n004v002_l_0
f 3/3/3 2/2/2 1/1/1
f 4/4/4 3/3/3 1/1/1
f 4/4/4 5/5/5 3/3/3
f 4/4/4 6/6/6 5/5/5
f 5/5/5 7/7/7 3/3/3
f 7/7/7 8/8/8 3/3/3
f 7/7/7 5/5/5 9/9/9
f 5/5/5 10/10/10 9/9/9
f 11/11/11 7/7/7 9/9/9
f 11/11/11 9/9/9 12/12/12
f 11/11/11 12/12/12 13/13/13
f 12/12/12 14/14/14 13/13/13
f 9/9/9 15/15/15 12/12/12
f 15/15/15 16/16/16 12/12/12
f 15/15/15 9/9/9 17/17/17
f 15/15/15 17/17/17 18/18/18
f 15/15/15 18/18/18 19/19/19
f 15/15/15 19/19/19 20/20/20
f 18/18/18 21/21/21 19/19/19
f 22/22/22 19/19/19 21/21/21
f 23/23/23 22/22/22 21/21/21
f 18/18/18 24/24/24 21/21/21
f 17/17/17 25/25/25 18/18/18
f 25/25/25 26/26/26 18/18/18
f 26/26/26 27/27/27 18/18/18
f 28/28/28 18/18/18 27/27/27
f 17/17/17 29/29/29 25/25/25
f 17/17/17 30/30/30 29/29/29
f 29/29/29 31/31/31 25/25/25
f 32/32/32 25/25/25 31/31/31
f 29/29/29 33/33/33 31/31/31
f 33/33/33 34/34/34 31/31/31
f 27/27/27 35/35/35 28/28/28
f 27/27/27 36/36/36 35/35/35
f 35/35/35 37/37/37 28/28/28
f 37/37/37 38/38/38 28/28/28
f 38/38/38 39/39/39 28/28/28
f 42/42/42 41/41/41 40/40/40
f 41/41/41 43/43/43 40/40/40
f 40/40/40 43/43/43 44/44/44
f 43/43/43 45/45/45 44/44/44
f 46/46/46 40/40/40 44/44/44
f 46/46/46 47/47/47 40/40/40
f 46/46/46 44/44/44 48/48/48
f 44/44/44 49/49/49 48/48/48
f 49/49/49 50/50/50 48/48/48
f 51/51/51 49/49/49 44/44/44
f 51/51/51 52/52/52 49/49/49
f 44/44/44 53/53/53 51/51/51
f 54/54/54 51/51/51 53/53/53
f 55/55/55 54/54/54 53/53/53
f 56/56/56 55/55/55 53/53/53
f 57/57/57 46/46/46 48/48/48
f 57/57/57 48/48/48 58/58/58
f 58/58/58 59/59/59 57/57/57
f 57/57/57 60/60/60 46/46/46
f 48/48/48 61/61/61 58/58/58
f 48/48/48 62/62/62 61/61/61
f 58/58/58 61/61/61 63/63/63
f 61/61/61 64/64/64 63/63/63
f 65/65/65 46/46/46 60/60/60
f 65/65/65 66/66/66 46/46/46
f 67/67/67 65/65/65 60/60/60
f 65/65/65 67/67/67 68/68/68
f 67/67/67 69/69/69 68/68/68
f 67/67/67 60/60/60 70/70/70
f 60/60/60 71/71/71 70/70/70
f 71/71/71 72/72/72 70/70/70
f 70/70/70 72/72/72 73/73/73
f 70/70/70 73/73/73 74/74/74
f 72/72/72 75/75/75 73/73/73
f 72/72/72 76/76/76 75/75/75
f 73/73/73 75/75/75 77/77/77
f 75/75/75 78/78/78 77/77/77
