g n004v001_l
v -0.5000002 1.000589E-14 -0.43
v -0.5000002 0.125 -0.43
v -0.4375002 0.125 -0.43
v -0.4375002 1.000589E-14 -0.43
v -0.3750002 0.0625 -0.43
v -0.3750002 1.001976E-14 -0.43
v -0.3750002 0.1875 -0.43
v -0.4375002 0.1875 -0.43
v -0.3125002 0.125 -0.43
v -0.3125002 0.0625 -0.43
v -0.3750002 0.3125 -0.43
v -0.3750002 0.8125 -0.43
v -0.4375002 0.3125 -0.43
v -0.4375002 0.8125 -0.43
v -0.3125002 0.875 -0.43
v -0.3750002 0.875 -0.43
v -0.1875002 0.125 -0.43
v 0.3124998 0.875 -0.43
v -0.1250002 0.9375 -0.43
v 0.2499998 0.125 -0.43
v -0.3125002 0.9375 -0.43
v 0.1249997 0.9375 -0.43
v -0.1250002 1 -0.43
v 0.1249997 1 -0.43
v 0.3124998 0.9375 -0.43
v -0.1250002 0.0625 -0.43
v -0.1875002 0.0625 -0.43
v 0.3124998 0.125 -0.43
v 0.3124998 0.1875 -0.43
v 0.3749998 0.1875 -0.43
v 0.3749998 0.25 -0.43
v 0.3749998 0.875 -0.43
v 0.4374998 0.25 -0.43
v 0.4374998 0.9375 -0.43
v 0.3749998 0.9375 -0.43
v 0.1875 0.0625 -0.43
v 0.2499998 0.0625 -0.43
v -0.1250002 1E-14 -0.43
v 0.1874998 0 -0.43
v -0.125 0.9375 -0.43
v 0.125 1 -0.43
v -0.125 1 -0.43
v 0.125 0.9375 -0.43
v 0.3125 0.875 -0.43
v 0.3125 0.9375 -0.43
v -0.3125 0.875 -0.43
v -0.3125 0.9375 -0.43
v 0.25 0.125 -0.43
v 0.3125 0.1875 -0.43
v 0.3125 0.125 -0.43
v 0.375 0.875 -0.43
v 0.375 0.25 -0.43
v 0.375 0.1875 -0.43
v 0.4375 0.25 -0.43
v 0.4375 0.9375 -0.43
v 0.375 0.9375 -0.43
v -0.1875 0.125 -0.43
v -0.125 0.0625 -0.43
v -0.1875 0.0625 -0.43
v -0.3125 0.125 -0.43
v 0.1875 0.0625 -0.43
v 0.25 0.0625 -0.43
v -0.125 -1E-14 -0.43
v 0.1875 -5E-15 -0.43
v -0.375 0.8125 -0.43
v -0.375 0.875 -0.43
v -0.375 0.3125 -0.43
v -0.4375 0.8125 -0.43
v -0.4375 0.3125 -0.43
v -0.375 0.1875 -0.43
v -0.3125 0.0625 -0.43
v -0.375 0.0625 -0.43
v -0.4375 0.125 -0.43
v -0.4375 0.1875 -0.43
v -0.4375 -1E-14 -0.43
v -0.375 -1E-14 -0.43
v -0.5 0.125 -0.43
v -0.5 -1E-14 -0.43
vt 0.5 0
vt 0.5 0.0625
vt 0.53125 0.0625
vt 0.53125 0
vt 0.5625 0.03125
vt 0.5625 0
vt 0.5625 0.09375
vt 0.53125 0.09375
vt 0.59375 0.0625
vt 0.59375 0.03125
vt 0.5625 0.15625
vt 0.5625 0.40625
vt 0.53125 0.15625
vt 0.53125 0.40625
vt 0.59375 0.4375
vt 0.5625 0.4375
vt 0.65625 0.0625
vt 0.90625 0.4375
vt 0.6875 0.46875
vt 0.875 0.0625
vt 0.59375 0.46875
vt 0.8125 0.46875
vt 0.6875 0.5
vt 0.8125 0.5
vt 0.90625 0.46875
vt 0.6875 0.03125
vt 0.65625 0.03125
vt 0.90625 0.0625
vt 0.90625 0.09375
vt 0.9375 0.09375
vt 0.9375 0.125
vt 0.9375 0.4375
vt 0.96875 0.125
vt 0.96875 0.46875
vt 0.9375 0.46875
vt 0.84375 0.03125
vt 0.875 0.03125
vt 0.6875 0
vt 0.84375 0
vt 0.6875 0.46875
vt 0.8125 0.5
vt 0.6875 0.5
vt 0.8125 0.46875
vt 0.90625 0.4375
vt 0.90625 0.46875
vt 0.59375 0.4375
vt 0.59375 0.46875
vt 0.875 0.0625
vt 0.90625 0.09375
vt 0.90625 0.0625
vt 0.9375 0.4375
vt 0.9375 0.125
vt 0.9375 0.09375
vt 0.96875 0.125
vt 0.96875 0.46875
vt 0.9375 0.46875
vt 0.65625 0.0625
vt 0.6875 0.03125
vt 0.65625 0.03125
vt 0.59375 0.0625
vt 0.84375 0.03125
vt 0.875 0.03125
vt 0.6875 0
vt 0.84375 0
vt 0.5625 0.40625
vt 0.5625 0.4375
vt 0.5625 0.15625
vt 0.53125 0.40625
vt 0.53125 0.15625
vt 0.5625 0.09375
vt 0.59375 0.03125
vt 0.5625 0.03125
vt 0.53125 0.0625
vt 0.53125 0.09375
vt 0.53125 0
vt 0.5625 0
vt 0.5 0.0625
vt 0.5 0
vn 0 0 1
vn 0 0 1
vn 0 0 1
vn 0 0 1
vn 0 0 1
vn 0 0 1
vn 0 0 1
vn 0 0 1
vn 0 0 1
vn 0 0 1
vn 0 0 1
vn 0 0 1
vn 0 0 1
vn 0 0 1
vn 0 0 1
vn 0 0 1
vn 0 0 1
vn 0 0 1
vn 0 0 1
vn 0 0 1
vn 0 0 1
vn 0 0 1
vn 0 0 1
vn 0 0 1
vn 0 0 1
vn 0 0 1
vn 0 0 1
vn 0 0 1
vn 0 0 1
vn 0 0 1
vn 0 0 1
vn 0 0 1
vn 0 0 1
vn 0 0 1
vn 0 0 1
vn 0 0 1
vn 0 0 1
vn 0 0 1
vn 0 0 1
vn 0 0 -1
vn 0 0 -1
vn 0 0 -1
vn 0 0 -1
vn 0 0 -1
vn 0 0 -1
vn 0 0 -1
vn 0 0 -1
vn 0 0 -1
vn 0 0 -1
vn 0 0 -1
vn 0 0 -1
vn 0 0 -1
vn 0 0 -1
vn 0 0 -1
vn 0 0 -1
vn 0 0 -1
vn 0 0 -1
vn 0 0 -1
vn 0 0 -1
vn 0 0 -1
vn 0 0 -1
vn 0 0 -1
vn 0 0 -1
vn 0 0 -1
vn 0 0 -1
vn 0 0 -1
vn 0 0 -1
vn 0 0 -1
vn 0 0 -1
vn 0 0 -1
vn 0 0 -1
vn 0 0 -1
vn 0 0 -1
vn 0 0 -1
vn 0 0 -1
vn 0 0 -1
vn 0 0 -1
vn 0 0 -1
g n004v001_l_0
f 3/3/3 2/2/2 1/1/1
f 4/4/4 3/3/3 1/1/1
f 4/4/4 5/5/5 3/3/3
f 4/4/4 6/6/6 5/5/5
f 5/5/5 7/7/7 3/3/3
f 7/7/7 8/8/8 3/3/3
f 7/7/7 5/5/5 9/9/9
f 5/5/5 10/10/10 9/9/9
f 11/11/11 7/7/7 9/9/9
f 11/11/11 9/9/9 12/12/12
f 11/11/11 12/12/12 13/13/13
f 12/12/12 14/14/14 13/13/13
f 9/9/9 15/15/15 12/12/12
f 15/15/15 16/16/16 12/12/12
f 15/15/15 9/9/9 17/17/17
f 15/15/15 17/17/17 18/18/18
f 15/15/15 18/18/18 19/19/19
f 17/17/17 20/20/20 18/18/18
f 15/15/15 19/19/19 21/21/21
f 18/18/18 22/22/22 19/19/19
f 23/23/23 19/19/19 22/22/22
f 24/24/24 23/23/23 22/22/22
f 18/18/18 25/25/25 22/22/22
f 17/17/17 26/26/26 20/20/20
f 17/17/17 27/27/27 26/26/26
f 20/20/20 28/28/28 18/18/18
f 28/28/28 29/29/29 18/18/18
f 18/18/18 29/29/29 30/30/30
f 18/18/18 30/30/30 31/31/31
f 31/31/31 32/32/32 18/18/18
f 31/31/31 33/33/33 32/32/32
f 33/33/33 34/34/34 32/32/32
f 34/34/34 35/35/35 32/32/32
f 26/26/26 36/36/36 20/20/20
f 37/37/37 20/20/20 36/36/36
f 26/26/26 38/38/38 36/36/36
f 38/38/38 39/39/39 36/36/36
f 42/42/42 41/41/41 40/40/40
f 41/41/41 43/43/43 40/40/40
f 40/40/40 43/43/43 44/44/44
f 43/43/43 45/45/45 44/44/44
f 46/46/46 40/40/40 44/44/44
f 46/46/46 47/47/47 40/40/40
f 46/46/46 44/44/44 48/48/48
f 44/44/44 49/49/49 48/48/48
f 49/49/49 50/50/50 48/48/48
f 49/49/49 44/44/44 51/51/51
f 49/49/49 51/51/51 52/52/52
f 52/52/52 53/53/53 49/49/49
f 54/54/54 52/52/52 51/51/51
f 55/55/55 54/54/54 51/51/51
f 56/56/56 55/55/55 51/51/51
f 57/57/57 46/46/46 48/48/48
f 57/57/57 48/48/48 58/58/58
f 58/58/58 59/59/59 57/57/57
f 57/57/57 60/60/60 46/46/46
f 48/48/48 61/61/61 58/58/58
f 48/48/48 62/62/62 61/61/61
f 58/58/58 61/61/61 63/63/63
f 61/61/61 64/64/64 63/63/63
f 65/65/65 46/46/46 60/60/60
f 65/65/65 66/66/66 46/46/46
f 67/67/67 65/65/65 60/60/60
f 65/65/65 67/67/67 68/68/68
f 67/67/67 69/69/69 68/68/68
f 67/67/67 60/60/60 70/70/70
f 60/60/60 71/71/71 70/70/70
f 71/71/71 72/72/72 70/70/70
f 70/70/70 72/72/72 73/73/73
f 70/70/70 73/73/73 74/74/74
f 72/72/72 75/75/75 73/73/73
f 72/72/72 76/76/76 75/75/75
f 73/73/73 75/75/75 77/77/77
f 75/75/75 78/78/78 77/77/77
