g n004v001_m
v -0.5 1E-14 0.044898
v -0.5 0.125 0.044898
v -0.4375 0.125 0.044898
v -0.4375 1E-14 0.044898
v -0.375 1E-14 0.044898
v -0.375 0.0625 0.044898
v -0.375 0.1875 0.044898
v -0.4375 0.1875 0.044898
v -0.3125 0.125 0.044898
v -0.3125 0.0625 0.044898
v -0.375 0.3125 0.044898
v -0.375 0.8125 0.044898
v -0.4375 0.3125 0.044898
v -0.4375 0.8125 0.044898
v -0.3125 0.875 0.044898
v -0.375 0.875 0.044898
v -0.1875 0.125 0.044898
v 0.3125 0.875 0.044898
v -0.125 0.9375 0.044898
v 0.25 0.125 0.044898
v -0.3125 0.9375 0.044898
v 0.125 0.9375 0.044898
v -0.125 1 0.044898
v 0.125 1 0.044898
v 0.3125 0.9375 0.044898
v -0.125 0.0625 0.044898
v -0.1875 0.0625 0.044898
v 0.3125 0.125 0.044898
v 0.3125 0.1875 0.044898
v 0.375 0.1875 0.044898
v 0.375 0.25 0.044898
v 0.375 0.875 0.044898
v 0.4375 0.25 0.044898
v 0.4375 0.9375 0.044898
v 0.375 0.9375 0.044898
v 0.1875 0.0625 0.044898
v 0.25 0.0625 0.044898
v -0.125 1E-14 0.044898
v 0.1875 5E-15 0.044898
v -0.3125 0.9375 -0.1
v -0.125 0.9375 -0.1
v -0.125 0.9375 0.044898
v -0.3125 0.9375 0.044898
v -0.125 1 -0.1
v 0.125 1 -0.1
v 0.125 1 0.044898
v -0.125 1 0.044898
v 0.125 1 0.044898
v 0.125 1 -0.1
v 0.125 0.9375 -0.1
v 0.125 0.9375 0.044898
v 0.3125 0.9375 0.044898
v 0.3125 0.9375 -0.1
v 0.3125 0.875 -0.1
v 0.3125 0.875 0.044898
v 0.375 0.9375 0.044898
v 0.375 0.9375 -0.1
v 0.4375 0.9375 -0.1
v 0.4375 0.9375 0.044898
v -0.125 0.9375 -0.1
v 0.125 1 -0.1
v -0.125 1 -0.1
v 0.125 0.9375 -0.1
v 0.3125 0.875 -0.1
v 0.3125 0.9375 -0.1
v -0.3125 0.875 -0.1
v -0.3125 0.9375 -0.1
v 0.25 0.125 -0.1
v 0.3125 0.1875 -0.1
v 0.3125 0.125 -0.1
v 0.375 0.875 -0.1
v 0.375 0.25 -0.1
v 0.375 0.1875 -0.1
v 0.4375 0.25 -0.1
v 0.4375 0.9375 -0.1
v 0.375 0.9375 -0.1
v -0.1875 0.125 -0.1
v -0.125 0.0625 -0.1
v -0.1875 0.0625 -0.1
v -0.3125 0.125 -0.1
v 0.1875 0.0625 -0.1
v 0.25 0.0625 -0.1
v -0.125 -1E-14 -0.1
v 0.1875 -5E-15 -0.1
v -0.375 0.8125 -0.1
v -0.375 0.875 -0.1
v -0.375 0.3125 -0.1
v -0.4375 0.8125 -0.1
v -0.4375 0.3125 -0.1
v -0.375 0.1875 -0.1
v -0.3125 0.0625 -0.1
v -0.375 0.0625 -0.1
v -0.4375 -1E-14 -0.1
v -0.375 -1E-14 -0.1
v -0.4375 0.125 -0.1
v -0.4375 0.1875 -0.1
v -0.5 0.125 -0.1
v -0.5 -1E-14 -0.1
v -0.5 -1E-14 -0.1
v -0.5 1E-14 0.044898
v -0.4375 1E-14 0.044898
v -0.4375 -1E-14 -0.1
v -0.375 1E-14 0.044898
v -0.375 -1E-14 -0.1
v -0.375 0.0625 -0.1
v -0.375 0.0625 0.044898
v -0.3125 0.0625 0.044898
v -0.3125 0.0625 -0.1
v -0.1875 0.125 0.044898
v -0.1875 0.125 -0.1
v -0.3125 0.125 -0.1
v -0.3125 0.125 0.044898
v -0.1875 0.125 -0.1
v -0.1875 0.125 0.044898
v -0.1875 0.0625 0.044898
v -0.1875 0.0625 -0.1
v -0.125 0.0625 -0.1
v -0.125 0.0625 0.044898
v -0.125 1E-14 0.044898
v -0.125 -1E-14 -0.1
v 0.1875 5E-15 0.044898
v 0.1875 -5E-15 -0.1
v -0.125 -1E-14 -0.1
v -0.125 1E-14 0.044898
v 0.1875 0.0625 0.044898
v 0.25 0.0625 0.044898
v 0.25 0.0625 -0.1
v 0.1875 0.0625 -0.1
v 0.25 0.125 0.044898
v 0.3125 0.125 0.044898
v 0.3125 0.125 -0.1
v 0.25 0.125 -0.1
v 0.3125 0.1875 0.044898
v 0.375 0.1875 0.044898
v 0.375 0.1875 -0.1
v 0.3125 0.1875 -0.1
v 0.375 0.25 0.044898
v 0.4375 0.25 0.044898
v 0.4375 0.25 -0.1
v 0.375 0.25 -0.1
v 0.4375 0.9375 0.044898
v 0.4375 0.9375 -0.1
v 0.4375 0.25 -0.1
v 0.4375 0.25 0.044898
v -0.5 0.125 -0.1
v -0.5 0.125 0.044898
v -0.5 1E-14 0.044898
v -0.5 -1E-14 -0.1
v -0.5 0.125 -0.1
v -0.4375 0.125 -0.1
v -0.4375 0.125 0.044898
v -0.5 0.125 0.044898
v -0.375 0.3125 -0.1
v -0.375 0.3125 0.044898
v -0.375 0.1875 0.044898
v -0.375 0.1875 -0.1
v -0.375 0.3125 -0.1
v -0.4375 0.3125 -0.1
v -0.4375 0.3125 0.044898
v -0.375 0.3125 0.044898
v -0.4375 0.8125 -0.1
v -0.4375 0.8125 0.044898
v -0.4375 0.3125 0.044898
v -0.4375 0.3125 -0.1
v -0.375 0.8125 -0.1
v -0.375 0.875 -0.1
v -0.375 0.875 0.044898
v -0.375 0.8125 0.044898
v -0.3125 0.875 -0.1
v -0.3125 0.9375 -0.1
v -0.3125 0.9375 0.044898
v -0.3125 0.875 0.044898
v 0.1875 5E-15 0.044898
v 0.1875 0.0625 0.044898
v 0.1875 0.0625 -0.1
v 0.1875 -5E-15 -0.1
v 0.25 0.0625 0.044898
v 0.25 0.125 0.044898
v 0.25 0.125 -0.1
v 0.25 0.0625 -0.1
v 0.3125 0.125 0.044898
v 0.3125 0.1875 0.044898
v 0.3125 0.1875 -0.1
v 0.3125 0.125 -0.1
v 0.375 0.1875 0.044898
v 0.375 0.25 0.044898
v 0.375 0.25 -0.1
v 0.375 0.1875 -0.1
v 0.125 0.9375 -0.1
v 0.3125 0.9375 -0.1
v 0.3125 0.9375 0.044898
v 0.125 0.9375 0.044898
v -0.125 0.9375 0.044898
v -0.125 0.9375 -0.1
v -0.125 1 -0.1
v -0.125 1 0.044898
v -0.375 0.875 -0.1
v -0.3125 0.875 -0.1
v -0.3125 0.875 0.044898
v -0.375 0.875 0.044898
v -0.4375 0.8125 -0.1
v -0.375 0.8125 -0.1
v -0.375 0.8125 0.044898
v -0.4375 0.8125 0.044898
v -0.4375 0.1875 -0.1
v -0.375 0.1875 -0.1
v -0.375 0.1875 0.044898
v -0.4375 0.1875 0.044898
v -0.4375 0.125 -0.1
v -0.4375 0.1875 -0.1
v -0.4375 0.1875 0.044898
v -0.4375 0.125 0.044898
v -0.375 -1E-14 -0.1
v -0.375 1E-14 0.044898
v -0.375 0.0625 0.044898
v -0.375 0.0625 -0.1
v -0.3125 0.0625 -0.1
v -0.3125 0.0625 0.044898
v -0.3125 0.125 0.044898
v -0.3125 0.125 -0.1
v -0.1875 0.0625 -0.1
v -0.1875 0.0625 0.044898
v -0.125 0.0625 0.044898
v -0.125 0.0625 -0.1
v 0.3125 0.875 0.044898
v 0.3125 0.875 -0.1
v 0.375 0.875 -0.1
v 0.375 0.875 0.044898
v 0.375 0.875 0.044898
v 0.375 0.875 -0.1
v 0.375 0.9375 -0.1
v 0.375 0.9375 0.044898
vt 0.5 0
vt 0.5 0.0625
vt 0.53125 0.0625
vt 0.53125 0
vt 0.5625 0
vt 0.5625 0.03125
vt 0.5625 0.09375
vt 0.53125 0.09375
vt 0.59375 0.0625
vt 0.59375 0.03125
vt 0.5625 0.15625
vt 0.5625 0.40625
vt 0.53125 0.15625
vt 0.53125 0.40625
vt 0.59375 0.4375
vt 0.5625 0.4375
vt 0.65625 0.0625
vt 0.90625 0.4375
vt 0.6875 0.46875
vt 0.875 0.0625
vt 0.59375 0.46875
vt 0.8125 0.46875
vt 0.6875 0.5
vt 0.8125 0.5
vt 0.90625 0.46875
vt 0.6875 0.03125
vt 0.65625 0.03125
vt 0.90625 0.0625
vt 0.90625 0.09375
vt 0.9375 0.09375
vt 0.9375 0.125
vt 0.9375 0.4375
vt 0.96875 0.125
vt 0.96875 0.46875
vt 0.9375 0.46875
vt 0.84375 0.03125
vt 0.875 0.03125
vt 0.6875 0
vt 0.84375 0
vt 0.59375 0.46875
vt 0.6875 0.46875
vt 0.6875 0.4375
vt 0.59375 0.4375
vt 0.6875 0.5
vt 0.8125 0.5
vt 0.8125 0.46875
vt 0.6875 0.46875
vt 0.78125 0.46875
vt 0.78125 0.5
vt 0.8125 0.5
vt 0.8125 0.46875
vt 0.875 0.4375
vt 0.875 0.46875
vt 0.90625 0.46875
vt 0.90625 0.4375
vt 0.9375 0.4375
vt 0.9375 0.46875
vt 0.96875 0.46875
vt 0.96875 0.4375
vt 0.6875 0.46875
vt 0.8125 0.5
vt 0.6875 0.5
vt 0.8125 0.46875
vt 0.90625 0.4375
vt 0.90625 0.46875
vt 0.59375 0.4375
vt 0.59375 0.46875
vt 0.875 0.0625
vt 0.90625 0.09375
vt 0.90625 0.0625
vt 0.9375 0.4375
vt 0.9375 0.125
vt 0.9375 0.09375
vt 0.96875 0.125
vt 0.96875 0.46875
vt 0.9375 0.46875
vt 0.65625 0.0625
vt 0.6875 0.03125
vt 0.65625 0.03125
vt 0.59375 0.0625
vt 0.84375 0.03125
vt 0.875 0.03125
vt 0.6875 0
vt 0.84375 0
vt 0.5625 0.40625
vt 0.5625 0.4375
vt 0.5625 0.15625
vt 0.53125 0.40625
vt 0.53125 0.15625
vt 0.5625 0.09375
vt 0.59375 0.03125
vt 0.5625 0.03125
vt 0.53125 0
vt 0.5625 0
vt 0.53125 0.0625
vt 0.53125 0.09375
vt 0.5 0.0625
vt 0.5 0
vt 0.5 0
vt 0.5 0.03125
vt 0.53125 0.03125
vt 0.53125 0
vt 0.5625 0.03125
vt 0.5625 0
vt 0.5625 0.03125
vt 0.5625 0.0625
vt 0.59375 0.0625
vt 0.59375 0.03125
vt 0.65625 0.09375
vt 0.65625 0.0625
vt 0.59375 0.0625
vt 0.59375 0.09375
vt 0.65625 0.03125
vt 0.65625 0.0625
vt 0.6875 0.0625
vt 0.6875 0.03125
vt 0.6875 0
vt 0.6875 0.03125
vt 0.71875 0.03125
vt 0.71875 0
vt 0.84375 0.03125
vt 0.84375 0
vt 0.6875 0
vt 0.6875 0.03125
vt 0.84375 0.03125
vt 0.84375 0.0625
vt 0.875 0.0625
vt 0.875 0.03125
vt 0.875 0.0625
vt 0.875 0.09375
vt 0.90625 0.09375
vt 0.90625 0.0625
vt 0.90625 0.09375
vt 0.90625 0.125
vt 0.9375 0.125
vt 0.9375 0.09375
vt 0.9375 0.125
vt 0.9375 0.15625
vt 0.96875 0.15625
vt 0.96875 0.125
vt 0.9375 0.46875
vt 0.96875 0.46875
vt 0.96875 0.125
vt 0.9375 0.125
vt 0.5 0.0625
vt 0.53125 0.0625
vt 0.53125 0
vt 0.5 0
vt 0.5 0.03125
vt 0.5 0.0625
vt 0.53125 0.0625
vt 0.53125 0.03125
vt 0.5625 0.15625
vt 0.59375 0.15625
vt 0.59375 0.09375
vt 0.5625 0.09375
vt 0.53125 0.15625
vt 0.53125 0.1875
vt 0.5625 0.1875
vt 0.5625 0.15625
vt 0.53125 0.40625
vt 0.5625 0.40625
vt 0.5625 0.15625
vt 0.53125 0.15625
vt 0.5625 0.40625
vt 0.5625 0.4375
vt 0.59375 0.4375
vt 0.59375 0.40625
vt 0.59375 0.4375
vt 0.59375 0.46875
vt 0.625 0.46875
vt 0.625 0.4375
vt 0.8125 0
vt 0.8125 0.03125
vt 0.84375 0.03125
vt 0.84375 0
vt 0.84375 0.03125
vt 0.84375 0.0625
vt 0.875 0.0625
vt 0.875 0.03125
vt 0.875 0.0625
vt 0.875 0.09375
vt 0.90625 0.09375
vt 0.90625 0.0625
vt 0.90625 0.09375
vt 0.90625 0.125
vt 0.9375 0.125
vt 0.9375 0.09375
vt 0.8125 0.46875
vt 0.90625 0.46875
vt 0.90625 0.4375
vt 0.8125 0.4375
vt 0.6875 0.46875
vt 0.6875 0.5
vt 0.71875 0.5
vt 0.71875 0.46875
vt 0.5625 0.40625
vt 0.5625 0.4375
vt 0.59375 0.4375
vt 0.59375 0.40625
vt 0.53125 0.375
vt 0.53125 0.40625
vt 0.5625 0.40625
vt 0.5625 0.375
vt 0.53125 0.0625
vt 0.53125 0.09375
vt 0.5625 0.09375
vt 0.5625 0.0625
vt 0.53125 0.0625
vt 0.53125 0.09375
vt 0.5625 0.09375
vt 0.5625 0.0625
vt 0.53125 0
vt 0.53125 0.03125
vt 0.5625 0.03125
vt 0.5625 0
vt 0.5625 0.03125
vt 0.5625 0.0625
vt 0.59375 0.0625
vt 0.59375 0.03125
vt 0.65625 0.03125
vt 0.65625 0.0625
vt 0.6875 0.0625
vt 0.6875 0.03125
vt 0.90625 0.40625
vt 0.90625 0.4375
vt 0.9375 0.4375
vt 0.9375 0.40625
vt 0.9375 0.4375
vt 0.9375 0.46875
vt 0.96875 0.46875
vt 0.96875 0.4375
vn 0 0 1
vn 0 0 1
vn 0 0 1
vn 0 0 1
vn 0 0 1
vn 0 0 1
vn 0 0 1
vn 0 0 1
vn 0 0 1
vn 0 0 1
vn 0 0 1
vn 0 0 1
vn 0 0 1
vn 0 0 1
vn 0 0 1
vn 0 0 1
vn 0 0 1
vn 0 0 1
vn 0 0 1
vn 0 0 1
vn 0 0 1
vn 0 0 1
vn 0 0 1
vn 0 0 1
vn 0 0 1
vn 0 0 1
vn 0 0 1
vn 0 0 1
vn 0 0 1
vn 0 0 1
vn 0 0 1
vn 0 0 1
vn 0 0 1
vn 0 0 1
vn 0 0 1
vn 0 0 1
vn 0 0 1
vn 0 0 1
vn 0 0 1
vn 0 1 0
vn 0 1 0
vn 0 1 0
vn 0 1 0
vn 0 1 0
vn 0 1 0
vn 0 1 0
vn 0 1 0
vn 1 0 0
vn 1 0 0
vn 1 0 0
vn 1 0 0
vn 1 0 0
vn 1 0 0
vn 1 0 0
vn 1 0 0
vn 0 1 0
vn 0 1 0
vn 0 1 0
vn 0 1 0
vn 0 0 -1
vn 0 0 -1
vn 0 0 -1
vn 0 0 -1
vn 0 0 -1
vn 0 0 -1
vn 0 0 -1
vn 0 0 -1
vn 0 0 -1
vn 0 0 -1
vn 0 0 -1
vn 0 0 -1
vn 0 0 -1
vn 0 0 -1
vn 0 0 -1
vn 0 0 -1
vn 0 0 -1
vn 0 0 -1
vn 0 0 -1
vn 0 0 -1
vn 0 0 -1
vn 0 0 -1
vn 0 0 -1
vn 0 0 -1
vn 0 0 -1
vn 0 0 -1
vn 0 0 -1
vn 0 0 -1
vn 0 0 -1
vn 0 0 -1
vn 0 0 -1
vn 0 0 -1
vn 0 0 -1
vn 0 0 -1
vn 0 0 -1
vn 0 0 -1
vn 0 0 -1
vn 0 0 -1
vn 0 0 -1
vn 0 -1 0
vn 0 -1 0
vn 0 -1 0
vn 0 -1 0
vn 0 -1 0
vn 0 -1 0
vn 0 -1 0
vn 0 -1 0
vn 0 -1 0
vn 0 -1 0
vn 0 -1 0
vn 0 -1 0
vn 0 -1 0
vn 0 -1 0
vn -1 0 0
vn -1 0 0
vn -1 0 0
vn -1 0 0
vn -1 0 0
vn -1 0 0
vn -1 0 0
vn -1 0 0
vn 0 -1 0
vn 0 -1 0
vn 0 -1 0
vn 0 -1 0
vn 0 -1 0
vn 0 -1 0
vn 0 -1 0
vn 0 -1 0
vn 0 -1 0
vn 0 -1 0
vn 0 -1 0
vn 0 -1 0
vn 0 -1 0
vn 0 -1 0
vn 0 -1 0
vn 0 -1 0
vn 0 -1 0
vn 0 -1 0
vn 0 -1 0
vn 0 -1 0
vn 1 0 0
vn 1 0 0
vn 1 0 0
vn 1 0 0
vn -1 0 0
vn -1 0 0
vn -1 0 0
vn -1 0 0
vn 0 1 0
vn 0 1 0
vn 0 1 0
vn 0 1 0
vn -1 0 0
vn -1 0 0
vn -1 0 0
vn -1 0 0
vn 0 -1 0
vn 0 -1 0
vn 0 -1 0
vn 0 -1 0
vn -1 0 0
vn -1 0 0
vn -1 0 0
vn -1 0 0
vn -1 0 0
vn -1 0 0
vn -1 0 0
vn -1 0 0
vn -1 0 0
vn -1 0 0
vn -1 0 0
vn -1 0 0
vn 1 0 0
vn 1 0 0
vn 1 0 0
vn 1 0 0
vn 1 0 0
vn 1 0 0
vn 1 0 0
vn 1 0 0
vn 1 0 0
vn 1 0 0
vn 1 0 0
vn 1 0 0
vn 1 0 0
vn 1 0 0
vn 1 0 0
vn 1 0 0
vn 0 1 0
vn 0 1 0
vn 0 1 0
vn 0 1 0
vn -1 0 0
vn -1 0 0
vn -1 0 0
vn -1 0 0
vn 0 1 0
vn 0 1 0
vn 0 1 0
vn 0 1 0
vn 0 1 0
vn 0 1 0
vn 0 1 0
vn 0 1 0
vn 0 1 0
vn 0 1 0
vn 0 1 0
vn 0 1 0
vn -1 0 0
vn -1 0 0
vn -1 0 0
vn -1 0 0
vn 1 0 0
vn 1 0 0
vn 1 0 0
vn 1 0 0
vn 1 0 0
vn 1 0 0
vn 1 0 0
vn 1 0 0
vn 0 -1 0
vn 0 -1 0
vn 0 -1 0
vn 0 -1 0
vn 0 1 0
vn 0 1 0
vn 0 1 0
vn 0 1 0
vn -1 0 0
vn -1 0 0
vn -1 0 0
vn -1 0 0
g n004v001_m_0
f 3/3/3 2/2/2 1/1/1
f 4/4/4 3/3/3 1/1/1
f 3/3/3 4/4/4 5/5/5
f 3/3/3 5/5/5 6/6/6
f 6/6/6 7/7/7 3/3/3
f 7/7/7 8/8/8 3/3/3
f 7/7/7 6/6/6 9/9/9
f 6/6/6 10/10/10 9/9/9
f 11/11/11 7/7/7 9/9/9
f 11/11/11 9/9/9 12/12/12
f 11/11/11 12/12/12 13/13/13
f 12/12/12 14/14/14 13/13/13
f 9/9/9 15/15/15 12/12/12
f 15/15/15 16/16/16 12/12/12
f 15/15/15 9/9/9 17/17/17
f 15/15/15 17/17/17 18/18/18
f 15/15/15 18/18/18 19/19/19
f 17/17/17 20/20/20 18/18/18
f 15/15/15 19/19/19 21/21/21
f 18/18/18 22/22/22 19/19/19
f 23/23/23 19/19/19 22/22/22
f 24/24/24 23/23/23 22/22/22
f 18/18/18 25/25/25 22/22/22
f 17/17/17 26/26/26 20/20/20
f 17/17/17 27/27/27 26/26/26
f 20/20/20 28/28/28 18/18/18
f 28/28/28 29/29/29 18/18/18
f 18/18/18 29/29/29 30/30/30
f 18/18/18 30/30/30 31/31/31
f 31/31/31 32/32/32 18/18/18
f 31/31/31 33/33/33 32/32/32
f 33/33/33 34/34/34 32/32/32
f 34/34/34 35/35/35 32/32/32
f 26/26/26 36/36/36 20/20/20
f 37/37/37 20/20/20 36/36/36
f 26/26/26 38/38/38 36/36/36
f 38/38/38 39/39/39 36/36/36
f 42/42/42 41/41/41 40/40/40
f 43/43/43 42/42/42 40/40/40
f 46/46/46 45/45/45 44/44/44
f 47/47/47 46/46/46 44/44/44
f 50/50/50 49/49/49 48/48/48
f 51/51/51 50/50/50 48/48/48
f 54/54/54 53/53/53 52/52/52
f 55/55/55 54/54/54 52/52/52
f 58/58/58 57/57/57 56/56/56
f 59/59/59 58/58/58 56/56/56
f 62/62/62 61/61/61 60/60/60
f 61/61/61 63/63/63 60/60/60
f 60/60/60 63/63/63 64/64/64
f 63/63/63 65/65/65 64/64/64
f 66/66/66 60/60/60 64/64/64
f 66/66/66 67/67/67 60/60/60
f 66/66/66 64/64/64 68/68/68
f 64/64/64 69/69/69 68/68/68
f 69/69/69 70/70/70 68/68/68
f 69/69/69 64/64/64 71/71/71
f 69/69/69 71/71/71 72/72/72
f 72/72/72 73/73/73 69/69/69
f 74/74/74 72/72/72 71/71/71
f 75/75/75 74/74/74 71/71/71
f 76/76/76 75/75/75 71/71/71
f 77/77/77 66/66/66 68/68/68
f 77/77/77 68/68/68 78/78/78
f 78/78/78 79/79/79 77/77/77
f 77/77/77 80/80/80 66/66/66
f 68/68/68 81/81/81 78/78/78
f 68/68/68 82/82/82 81/81/81
f 78/78/78 81/81/81 83/83/83
f 81/81/81 84/84/84 83/83/83
f 85/85/85 66/66/66 80/80/80
f 85/85/85 86/86/86 66/66/66
f 87/87/87 85/85/85 80/80/80
f 85/85/85 87/87/87 88/88/88
f 87/87/87 89/89/89 88/88/88
f 87/87/87 80/80/80 90/90/90
f 80/80/80 91/91/91 90/90/90
f 91/91/91 92/92/92 90/90/90
f 93/93/93 90/90/90 92/92/92
f 92/92/92 94/94/94 93/93/93
f 93/93/93 95/95/95 90/90/90
f 90/90/90 95/95/95 96/96/96
f 95/95/95 93/93/93 97/97/97
f 93/93/93 98/98/98 97/97/97
f 101/101/101 100/100/100 99/99/99
f 102/102/102 101/101/101 99/99/99
f 103/103/103 101/101/101 102/102/102
f 104/104/104 103/103/103 102/102/102
f 107/107/107 106/106/106 105/105/105
f 108/108/108 107/107/107 105/105/105
f 111/111/111 110/110/110 109/109/109
f 112/112/112 111/111/111 109/109/109
f 115/115/115 114/114/114 113/113/113
f 116/116/116 115/115/115 113/113/113
f 119/119/119 118/118/118 117/117/117
f 120/120/120 119/119/119 117/117/117
f 123/123/123 122/122/122 121/121/121
f 124/124/124 123/123/123 121/121/121
f 127/127/127 126/126/126 125/125/125
f 128/128/128 127/127/127 125/125/125
f 131/131/131 130/130/130 129/129/129
f 132/132/132 131/131/131 129/129/129
f 135/135/135 134/134/134 133/133/133
f 136/136/136 135/135/135 133/133/133
f 139/139/139 138/138/138 137/137/137
f 140/140/140 139/139/139 137/137/137
f 143/143/143 142/142/142 141/141/141
f 144/144/144 143/143/143 141/141/141
f 147/147/147 146/146/146 145/145/145
f 148/148/148 147/147/147 145/145/145
f 151/151/151 150/150/150 149/149/149
f 152/152/152 151/151/151 149/149/149
f 155/155/155 154/154/154 153/153/153
f 156/156/156 155/155/155 153/153/153
f 159/159/159 158/158/158 157/157/157
f 160/160/160 159/159/159 157/157/157
f 163/163/163 162/162/162 161/161/161
f 164/164/164 163/163/163 161/161/161
f 167/167/167 166/166/166 165/165/165
f 168/168/168 167/167/167 165/165/165
f 171/171/171 170/170/170 169/169/169
f 172/172/172 171/171/171 169/169/169
f 175/175/175 174/174/174 173/173/173
f 176/176/176 175/175/175 173/173/173
f 179/179/179 178/178/178 177/177/177
f 180/180/180 179/179/179 177/177/177
f 183/183/183 182/182/182 181/181/181
f 184/184/184 183/183/183 181/181/181
f 187/187/187 186/186/186 185/185/185
f 188/188/188 187/187/187 185/185/185
f 191/191/191 190/190/190 189/189/189
f 192/192/192 191/191/191 189/189/189
f 195/195/195 194/194/194 193/193/193
f 196/196/196 195/195/195 193/193/193
f 199/199/199 198/198/198 197/197/197
f 200/200/200 199/199/199 197/197/197
f 203/203/203 202/202/202 201/201/201
f 204/204/204 203/203/203 201/201/201
f 207/207/207 206/206/206 205/205/205
f 208/208/208 207/207/207 205/205/205
f 211/211/211 210/210/210 209/209/209
f 212/212/212 211/211/211 209/209/209
f 215/215/215 214/214/214 213/213/213
f 216/216/216 215/215/215 213/213/213
f 219/219/219 218/218/218 217/217/217
f 220/220/220 219/219/219 217/217/217
f 223/223/223 222/222/222 221/221/221
f 224/224/224 223/223/223 221/221/221
f 227/227/227 226/226/226 225/225/225
f 228/228/228 227/227/227 225/225/225
f 231/231/231 230/230/230 229/229/229
f 232/232/232 231/231/231 229/229/229
