g l003v001_l
v -0.286543 0.7533332 -0.2218316
v -0.286543 0.0795863 -0.4083743
v -0.286543 0.0795863 -0.0762375
v -0.286543 0.07994501 0.08930393
v -0.286543 0.07994501 0.3289867
v -0.286543 0.2876047 0.2247017
v -0.3769263 0.7533332 -0.2218316
v -0.3769263 0.0795863 -0.0762375
v -0.3769263 0.0795863 -0.4083743
v -0.3769263 0.07994501 0.08930393
v -0.3769263 0.2876047 0.2247017
v -0.3769263 0.07994501 0.3289867
v 0.4034982 1.041909 -0.5
v 0.3278208 1.123783 -0.5000038
v 0.2521415 1.041909 -0.5
v 0.2521415 0.04190934 0.5
v 0.3278208 0.1237828 0.4999962
v 0.4034982 0.04190934 0.5
v -0.4049258 1.041909 -0.5
v -0.253571 1.041909 -0.5
v -0.3292489 1.123783 -0.5
v -0.253571 0.04190934 0.5
v -0.4049258 0.04190934 0.5
v -0.3292489 0.1237828 0.5
v 0.3746732 0.7533332 -0.2218316
v 0.3746732 0.0795863 -0.4083743
v 0.3746732 0.0795863 -0.07651599
v 0.3746733 0.2935931 0.2118795
v 0.3746732 0.07994501 0.08930393
v 0.3746732 0.07994501 0.3289867
v 0.28429 0.7533332 -0.2218316
v 0.28429 0.0795863 -0.07651599
v 0.28429 0.0795863 -0.4083743
v 0.28429 0.07994501 0.3289867
v 0.28429 0.07994501 0.08930393
v 0.28429 0.2935931 0.2118795
v -0.3769263 0.7533332 -0.2218316
v -0.3769263 0.0795863 -0.4083743
v -0.286543 0.0795863 -0.4083743
v -0.286543 0.7533332 -0.2218316
v -0.286543 0.0795863 -0.0762375
v -0.3769263 0.0795863 -0.0762375
v -0.3769263 0.7533332 -0.2218316
v -0.286543 0.7533332 -0.2218316
v -0.3769263 0.07994501 0.08930393
v -0.286543 0.07994501 0.08930393
v -0.286543 0.2876047 0.2247017
v -0.3769263 0.2876047 0.2247017
v -0.3769263 0.2876047 0.2247017
v -0.286543 0.2876047 0.2247017
v -0.286543 0.07994501 0.3289867
v -0.3769263 0.07994501 0.3289867
v 0.2521415 0.04190934 0.5
v 0.4034982 0.04190934 0.5
v 0.4034982 1.041909 -0.5
v 0.2521415 1.041909 -0.5
v -0.253571 0.04190934 0.5
v -0.253571 1.041909 -0.5
v -0.4049258 1.041909 -0.5
v -0.4049258 0.04190934 0.5
v 0.4882245 0.2143025 0.3274231
v -0.4896579 0.2143025 0.3274231
v -0.4896579 0.3901736 0.1515503
v 0.4882245 0.3901735 0.1515503
v -0.4896579 0.2116904 0.3258482
v 0.4882245 0.2116903 0.3258482
v 0.4882245 0.3875614 0.1499754
v -0.4896579 0.3875614 0.1499754
v 0.488225 0.6868307 -0.1468964
v -0.4896579 0.6868307 -0.1468964
v -0.4896531 0.8627017 -0.3227615
v 0.488225 0.8627017 -0.3227615
v -0.4896579 0.6842185 -0.1484713
v 0.488225 0.6842185 -0.1484713
v 0.488225 0.8600896 -0.3243441
v -0.4896579 0.8600896 -0.3243441
v 0.4034982 0.04190934 0.5
v 0.3278208 0.1237828 0.4999962
v 0.3278208 1.123783 -0.5000038
v 0.4034982 1.041909 -0.5
v 0.3278208 0.1237828 0.4999962
v 0.2521415 0.04190934 0.5
v 0.2521415 1.041909 -0.5
v 0.3278208 1.123783 -0.5000038
v -0.4049258 0.04190934 0.5
v -0.4049258 1.041909 -0.5
v -0.3292489 1.123783 -0.5
v -0.3292489 0.1237828 0.5
v -0.3292489 0.1237828 0.5
v -0.3292489 1.123783 -0.5
v -0.253571 1.041909 -0.5
v -0.253571 0.04190934 0.5
v -0.4413893 0 0.4729654
v -0.4307864 0.08276215 0.4677424
v -0.2290511 0.08276215 0.4677424
v -0.2184482 0 0.4729654
v -0.4307864 0.08276215 0.4677424
v -0.4307864 0.08276215 -0.4677424
v -0.2290511 0.08276215 -0.4677424
v -0.2290511 0.08276215 0.4677424
v -0.4307864 0.08276215 -0.4677424
v -0.4413893 0 -0.4729654
v -0.2184482 0 -0.4729654
v -0.2290511 0.08276215 -0.4677424
v -0.4413893 0 -0.4729654
v -0.4413893 0 0.4729654
v -0.2184482 0 0.4729654
v -0.2184482 0 -0.4729654
v -0.2184482 0 0.4729654
v -0.2290511 0.08276215 0.4677424
v -0.2290511 0.08276215 -0.4677424
v -0.2184482 0 -0.4729654
v -0.4413893 0 -0.4729654
v -0.4307864 0.08276215 -0.4677424
v -0.4307864 0.08276215 0.4677424
v -0.4413893 0 0.4729654
v 0.2198269 0 0.4729654
v 0.2304299 0.08286078 0.4677424
v 0.4321651 0.08286078 0.4677424
v 0.4427682 0 0.4729654
v 0.2304299 0.08286078 0.4677424
v 0.2304299 0.08286078 -0.4677424
v 0.4321651 0.08286078 -0.4677424
v 0.4321651 0.08286078 0.4677424
v 0.2304299 0.08286078 -0.4677424
v 0.2198269 0 -0.4729654
v 0.4427682 0 -0.4729654
v 0.4321651 0.08286078 -0.4677424
v 0.2198269 0 -0.4729654
v 0.2198269 0 0.4729654
v 0.4427682 0 0.4729654
v 0.4427682 0 -0.4729654
v 0.4427682 0 0.4729654
v 0.4321651 0.08286078 0.4677424
v 0.4321651 0.08286078 -0.4677424
v 0.4427682 0 -0.4729654
v 0.2198269 0 -0.4729654
v 0.2304299 0.08286078 -0.4677424
v 0.2304299 0.08286078 0.4677424
v 0.2198269 0 0.4729654
v 0.28429 0.7533332 -0.2218316
v 0.28429 0.0795863 -0.4083743
v 0.3746732 0.0795863 -0.4083743
v 0.3746732 0.7533332 -0.2218316
v 0.3746732 0.0795863 -0.07651599
v 0.28429 0.0795863 -0.07651599
v 0.28429 0.7533332 -0.2218316
v 0.3746732 0.7533332 -0.2218316
v 0.28429 0.07994501 0.08930393
v 0.3746732 0.07994501 0.08930393
v 0.3746733 0.2935931 0.2118795
v 0.28429 0.2935931 0.2118795
v 0.28429 0.2935931 0.2118795
v 0.3746733 0.2935931 0.2118795
v 0.3746732 0.07994501 0.3289867
v 0.28429 0.07994501 0.3289867
vt 0.3803711 0.1726074
vt 0.01820374 0.1495361
vt 0.01824951 0.1960449
vt 0.01812744 0.0168457
vt 0.01812744 0.06161499
vt 0.1053467 0.03921509
vt 0.3798828 0.1726074
vt 0.01812744 0.1959229
vt 0.01812744 0.1494141
vt 0.01812744 0.06161499
vt 0.1047974 0.03921509
vt 0.01812744 0.0168457
vt 0.4099121 0.9458008
vt 0.4194336 0.9814453
vt 0.4289551 0.9458008
vt 0.4099121 0.9458008
vt 0.4194336 0.9814453
vt 0.4289551 0.9458008
vt 0.4289551 0.9458008
vt 0.4099121 0.9458008
vt 0.4194336 0.9814453
vt 0.4289551 0.9458008
vt 0.4099121 0.9458008
vt 0.4194336 0.9814453
vt 0.3803711 0.1726074
vt 0.01820374 0.1495361
vt 0.01824951 0.1960449
vt 0.1361084 0.03921509
vt 0.01812744 0.0168457
vt 0.01812744 0.06161499
vt 0.3798828 0.1726074
vt 0.01812744 0.1959229
vt 0.01812744 0.1494141
vt 0.01812744 0.0168457
vt 0.01812744 0.06161499
vt 0.1346436 0.03921509
vt 0.8408203 0.9790039
vt 0.4997559 0.9790039
vt 0.4997559 0.9213867
vt 0.8408203 0.9213867
vt 0.4997559 0.9790039
vt 0.4997559 0.9213867
vt 0.8710938 0.9213867
vt 0.8710938 0.9790039
vt 0.4997559 0.9213867
vt 0.4997559 0.9790039
vt 0.6308594 0.9790039
vt 0.6308594 0.9213867
vt 0.5756836 0.9790039
vt 0.5756836 0.9213867
vt 0.4997559 0.9213867
vt 0.4997559 0.9790039
vt 0.1036377 0.2954102
vt 0.02793884 0.2954102
vt 0.02793884 1
vt 0.1036377 1
vt 0.02793884 0.2954102
vt 0.02793884 1
vt 0.1036377 1
vt 0.1036377 0.2954102
vt 0.9916992 0.5107422
vt 0.4470215 0.5107422
vt 0.4470215 0.6494141
vt 0.9916992 0.6494141
vt 0.9916992 0.5107422
vt 0.4470215 0.5107422
vt 0.4470215 0.6494141
vt 0.9916992 0.6494141
vt 0.9916992 0.6694336
vt 0.4470215 0.6694336
vt 0.4470215 0.8076172
vt 0.9916992 0.8076172
vt 0.9916992 0.6694336
vt 0.4470215 0.6694336
vt 0.4470215 0.8076172
vt 0.9916992 0.8076172
vt 0.9921875 0.02328491
vt 0.9677734 0.0541687
vt 0.237915 0.0541687
vt 0.2631836 0.02328491
vt 0.9677734 0.0541687
vt 0.9921875 0.02328491
vt 0.2631836 0.02328491
vt 0.237915 0.0541687
vt 0.9921875 0.02328491
vt 0.2631836 0.02328491
vt 0.237915 0.0541687
vt 0.9677734 0.0541687
vt 0.9677734 0.0541687
vt 0.237915 0.0541687
vt 0.2631836 0.02328491
vt 0.9921875 0.02328491
vt 0.3493652 0.6464844
vt 0.3815918 0.6401367
vt 0.3815918 0.5205078
vt 0.3493652 0.5141602
vt 0.4267578 0.4829102
vt 0.9887695 0.4829102
vt 0.9887695 0.362793
vt 0.4267578 0.362793
vt 0.3815918 0.5205078
vt 0.3493652 0.5141602
vt 0.3493652 0.6464844
vt 0.3815918 0.6401367
vt 0.9887695 0.362793
vt 0.4267578 0.362793
vt 0.4267578 0.4829102
vt 0.9887695 0.4829102
vt 0.4321289 0.3103027
vt 0.4321289 0.3427734
vt 0.9887695 0.3427734
vt 0.9887695 0.3103027
vt 0.4321289 0.3103027
vt 0.4321289 0.3427734
vt 0.9887695 0.3427734
vt 0.9887695 0.3103027
vt 0.3493652 0.6464844
vt 0.3815918 0.6401367
vt 0.3815918 0.5205078
vt 0.3493652 0.5141602
vt 0.4267578 0.4829102
vt 0.9887695 0.4829102
vt 0.9887695 0.362793
vt 0.4267578 0.362793
vt 0.3815918 0.5205078
vt 0.3493652 0.5141602
vt 0.3493652 0.6464844
vt 0.3815918 0.6401367
vt 0.9887695 0.362793
vt 0.4267578 0.362793
vt 0.4267578 0.4829102
vt 0.9887695 0.4829102
vt 0.4321289 0.3103027
vt 0.4321289 0.3427734
vt 0.9887695 0.3427734
vt 0.9887695 0.3103027
vt 0.4321289 0.3103027
vt 0.4321289 0.3427734
vt 0.9887695 0.3427734
vt 0.9887695 0.3103027
vt 0.8408203 0.9790039
vt 0.4997559 0.9790039
vt 0.4997559 0.9213867
vt 0.8408203 0.9213867
vt 0.4997559 0.9790039
vt 0.4997559 0.9213867
vt 0.8710938 0.9213867
vt 0.8710938 0.9790039
vt 0.4997559 0.9213867
vt 0.4997559 0.9790039
vt 0.6308594 0.9790039
vt 0.6308594 0.9213867
vt 0.5756836 0.9790039
vt 0.5756836 0.9213867
vt 0.4997559 0.9213867
vt 0.4997559 0.9790039
vn 1 0 0
vn 1 0 0
vn 1 0 0
vn 1 0 0
vn 1 0 0
vn 1 0 0
vn -1 0 0
vn -1 0 0
vn -1 0 0
vn -1 0 0
vn -1 0 0
vn -1 0 0
vn 0 -4.661083E-05 -1
vn 0 -4.661083E-05 -1
vn 0 -4.661083E-05 -1
vn 0 4.661083E-05 1
vn 0 4.661083E-05 1
vn 0 4.661083E-05 1
vn 0 0 -1
vn 0 0 -1
vn 0 0 -1
vn 0 0 1
vn 0 0 1
vn 0 0 1
vn 1 0 0
vn 1 0 0
vn 1 0 0
vn 1 0 0
vn 1 0 0
vn 1 0 0
vn -1 0 0
vn -1 0 0
vn -1 0 0
vn -1 0 0
vn -1 0 0
vn -1 0 0
vn 0 0.2668457 -0.9638672
vn 0 0.2668457 -0.9638672
vn 0 0.2668457 -0.9638672
vn 0 0.2668457 -0.9638672
vn 0 0.2111816 0.9775391
vn 0 0.2111816 0.9775391
vn 0 0.2111816 0.9775391
vn 0 0.2111816 0.9775391
vn 0 0.5463867 -0.8378906
vn 0 0.5463867 -0.8378906
vn 0 0.5463867 -0.8378906
vn 0 0.5463867 -0.8378906
vn 0 0.4487305 0.8935547
vn 0 0.4487305 0.8935547
vn 0 0.4487305 0.8935547
vn 0 0.4487305 0.8935547
vn 0 -0.7070313 -0.7070313
vn 0 -0.7070313 -0.7070313
vn 0 -0.7070313 -0.7070313
vn 0 -0.7070313 -0.7070313
vn 0 -0.7070313 -0.7070313
vn 0 -0.7070313 -0.7070313
vn 0 -0.7070313 -0.7070313
vn 0 -0.7070313 -0.7070313
vn 0 0.7070313 0.7070313
vn 0 0.7070313 0.7070313
vn 0 0.7070313 0.7070313
vn 0 0.7070313 0.7070313
vn 0 -0.7070313 -0.7070313
vn 0 -0.7070313 -0.7070313
vn 0 -0.7070313 -0.7070313
vn 0 -0.7070313 -0.7070313
vn 0 0.7070313 0.7070313
vn 0 0.7070313 0.7070313
vn 0 0.7070313 0.7070313
vn 0 0.7070313 0.7070313
vn 0 -0.7070313 -0.7070313
vn 0 -0.7070313 -0.7070313
vn 0 -0.7070313 -0.7070313
vn 0 -0.7070313 -0.7070313
vn 0.6074219 0.5615234 0.5615234
vn 0.6074219 0.5615234 0.5615234
vn 0.6074219 0.5615234 0.5615234
vn 0.6074219 0.5615234 0.5615234
vn -0.6074219 0.5615234 0.5615234
vn -0.6074219 0.5615234 0.5615234
vn -0.6074219 0.5615234 0.5615234
vn -0.6074219 0.5615234 0.5615234
vn -0.6074219 0.5615234 0.5615234
vn -0.6074219 0.5615234 0.5615234
vn -0.6074219 0.5615234 0.5615234
vn -0.6074219 0.5615234 0.5615234
vn 0.6074219 0.5615234 0.5615234
vn 0.6074219 0.5615234 0.5615234
vn 0.6074219 0.5615234 0.5615234
vn 0.6074219 0.5615234 0.5615234
vn 0 0.06298828 0.9980469
vn 0 0.06298828 0.9980469
vn 0 0.06298828 0.9980469
vn 0 0.06298828 0.9980469
vn 0 1 0
vn 0 1 0
vn 0 1 0
vn 0 1 0
vn 0 0.06298828 -0.9980469
vn 0 0.06298828 -0.9980469
vn 0 0.06298828 -0.9980469
vn 0 0.06298828 -0.9980469
vn 0 -1 0
vn 0 -1 0
vn 0 -1 0
vn 0 -1 0
vn 0.9916992 0.1270752 0
vn 0.9916992 0.1270752 0
vn 0.9916992 0.1270752 0
vn 0.9916992 0.1270752 0
vn -0.9916992 0.1270752 0
vn -0.9916992 0.1270752 0
vn -0.9916992 0.1270752 0
vn -0.9916992 0.1270752 0
vn 0 0.06292725 0.9980469
vn 0 0.06292725 0.9980469
vn 0 0.06292725 0.9980469
vn 0 0.06292725 0.9980469
vn 0 1 0
vn 0 1 0
vn 0 1 0
vn 0 1 0
vn 0 0.06292725 -0.9980469
vn 0 0.06292725 -0.9980469
vn 0 0.06292725 -0.9980469
vn 0 0.06292725 -0.9980469
vn 0 -1 0
vn 0 -1 0
vn 0 -1 0
vn 0 -1 0
vn 0.9916992 0.1269531 0
vn 0.9916992 0.1269531 0
vn 0.9916992 0.1269531 0
vn 0.9916992 0.1269531 0
vn -0.9916992 0.1269531 0
vn -0.9916992 0.1269531 0
vn -0.9916992 0.1269531 0
vn -0.9916992 0.1269531 0
vn 0 0.2668457 -0.9638672
vn 0 0.2668457 -0.9638672
vn 0 0.2668457 -0.9638672
vn 0 0.2668457 -0.9638672
vn 0 0.2108154 0.9775391
vn 0 0.2108154 0.9775391
vn 0 0.2108154 0.9775391
vn 0 0.2108154 0.9775391
vn 0 0.4975586 -0.8671875
vn 0 0.4975586 -0.8671875
vn 0 0.4975586 -0.8671875
vn 0 0.4975586 -0.8671875
vn 0 0.4807129 0.8769531
vn 0 0.4807129 0.8769531
vn 0 0.4807129 0.8769531
vn 0 0.4807129 0.8769531
g l003v001_l_0
f 3/3/3 2/2/2 1/1/1
f 6/6/6 5/5/5 4/4/4
f 9/9/9 8/8/8 7/7/7
f 12/12/12 11/11/11 10/10/10
f 15/15/15 14/14/14 13/13/13
f 18/18/18 17/17/17 16/16/16
f 21/21/21 20/20/20 19/19/19
f 24/24/24 23/23/23 22/22/22
f 27/27/27 26/26/26 25/25/25
f 30/30/30 29/29/29 28/28/28
f 33/33/33 32/32/32 31/31/31
f 36/36/36 35/35/35 34/34/34
f 39/39/39 38/38/38 37/37/37
f 40/40/40 39/39/39 37/37/37
f 43/43/43 42/42/42 41/41/41
f 44/44/44 43/43/43 41/41/41
f 47/47/47 46/46/46 45/45/45
f 48/48/48 47/47/47 45/45/45
f 51/51/51 50/50/50 49/49/49
f 52/52/52 51/51/51 49/49/49
f 55/55/55 54/54/54 53/53/53
f 56/56/56 55/55/55 53/53/53
f 59/59/59 58/58/58 57/57/57
f 60/60/60 59/59/59 57/57/57
f 63/63/63 62/62/62 61/61/61
f 64/64/64 63/63/63 61/61/61
f 67/67/67 66/66/66 65/65/65
f 68/68/68 67/67/67 65/65/65
f 71/71/71 70/70/70 69/69/69
f 72/72/72 71/71/71 69/69/69
f 75/75/75 74/74/74 73/73/73
f 76/76/76 75/75/75 73/73/73
f 79/79/79 78/78/78 77/77/77
f 80/80/80 79/79/79 77/77/77
f 83/83/83 82/82/82 81/81/81
f 84/84/84 83/83/83 81/81/81
f 87/87/87 86/86/86 85/85/85
f 88/88/88 87/87/87 85/85/85
f 91/91/91 90/90/90 89/89/89
f 92/92/92 91/91/91 89/89/89
f 95/95/95 94/94/94 93/93/93
f 96/96/96 95/95/95 93/93/93
f 99/99/99 98/98/98 97/97/97
f 100/100/100 99/99/99 97/97/97
f 103/103/103 102/102/102 101/101/101
f 104/104/104 103/103/103 101/101/101
f 107/107/107 106/106/106 105/105/105
f 108/108/108 107/107/107 105/105/105
f 111/111/111 110/110/110 109/109/109
f 112/112/112 111/111/111 109/109/109
f 115/115/115 114/114/114 113/113/113
f 116/116/116 115/115/115 113/113/113
f 119/119/119 118/118/118 117/117/117
f 120/120/120 119/119/119 117/117/117
f 123/123/123 122/122/122 121/121/121
f 124/124/124 123/123/123 121/121/121
f 127/127/127 126/126/126 125/125/125
f 128/128/128 127/127/127 125/125/125
f 131/131/131 130/130/130 129/129/129
f 132/132/132 131/131/131 129/129/129
f 135/135/135 134/134/134 133/133/133
f 136/136/136 135/135/135 133/133/133
f 139/139/139 138/138/138 137/137/137
f 140/140/140 139/139/139 137/137/137
f 143/143/143 142/142/142 141/141/141
f 144/144/144 143/143/143 141/141/141
f 147/147/147 146/146/146 145/145/145
f 148/148/148 147/147/147 145/145/145
f 151/151/151 150/150/150 149/149/149
f 152/152/152 151/151/151 149/149/149
f 155/155/155 154/154/154 153/153/153
f 156/156/156 155/155/155 153/153/153
