#
# OBJECT NAME
#
o model_1682
mtllib 1682.mtl

#
# VERTEX BUFFER 000
#
v 0.499 0 -0.499
v -0.160339 0.0386106 -0.385035
v 0.385035 0.0386106 -0.160339
v -0.499 0 0.499
v 0.160339 0.0386106 0.385035
v -0.385035 0.0386106 0.160339
v 0.499 0 0.499
v -0.499 0 0.499
v -0.499 0 -0.499
v 0.499 0 -0.499
v -0.499 0 -0.499
v 0.499 0 0.499
v 0.0720869 0.187604 0.175178
v 0 0.231328 1.14125e-007
v -0.175178 0.187604 0.0720873
v -0.0720875 0.187604 -0.175178
v 0.175177 0.187604 -0.0720873

vn 0.078125 0.991211 -0.102783
vn -0.0889893 0.958008 -0.272461
vn 0.272461 0.958008 -0.0889893
vn -0.078125 0.991211 0.102783
vn 0.0889893 0.958008 0.272461
vn -0.272461 0.958008 0.0889893
vn 0 -1 0
vn 0 -1 0
vn 0 -1 0
vn 0 -1 0
vn -0.102783 0.991211 -0.078125
vn 0.102783 0.991211 0.078125
vn 0.200073 0.850586 0.485596
vn 2.38419e-007 1 1.19209e-007
vn -0.485596 0.850586 0.200073
vn -0.200073 0.850586 -0.485596
vn 0.485596 0.850586 -0.200073

vt 0.500208 0.499568
vt 0.665685 0.556262
vt 0.529073 0.668839
vt 0.749617 0.999568
vt 0.585361 0.942064
vt 0.721974 0.829487
vt 0.500208 0.999568
vt 0.749617 0.999568
vt 0.749617 0.499568
vt 0.500208 0.499568
vt 0.749617 0.499568
vt 0.500208 0.999568
vt 0.608245 0.83411
vt 0.625793 0.748818
vt 0.668439 0.783913
vt 0.64334 0.663525
vt 0.583146 0.713723


#
# MESH 000
#
g surface_000
usemtl surface_000
f 7/7/7 9/9/9 10/10/10
f 7/7/7 8/8/8 9/9/9
f 1/1/1 11/11/11 2/2/2
f 11/11/11 6/6/6 2/2/2
f 2/2/2 6/6/6 15/15/15
f 2/2/2 15/15/15 16/16/16
f 3/3/3 2/2/2 16/16/16
f 1/1/1 2/2/2 3/3/3
f 12/12/12 1/1/1 3/3/3
f 12/12/12 3/3/3 5/5/5
f 12/12/12 5/5/5 4/4/4
f 11/11/11 4/4/4 6/6/6
f 4/4/4 5/5/5 6/6/6
f 5/5/5 15/15/15 6/6/6
f 5/5/5 13/13/13 15/15/15
f 13/13/13 14/14/14 15/15/15
f 15/15/15 14/14/14 16/16/16
f 17/17/17 16/16/16 14/14/14
f 3/3/3 16/16/16 17/17/17
f 5/5/5 3/3/3 17/17/17
f 5/5/5 17/17/17 13/13/13
f 17/17/17 14/14/14 13/13/13

