#
# OBJECT NAME
#
o model_1687
mtllib 1687.mtl

#
# VERTEX BUFFER 000
#
v 0 0.01 -0.480053
v 0.342557 0.01 -0.342557
v 0.369728 0.002 -0.369728
v 0 0 -0.499
v 0.0883956 0.21773 -0.0883955
v 0 0.232012 1.14125e-007
v 0.131143 0.21773 1.14125e-007
v 0 0 0.499
v 0 0.01 0.480053
v -0.149314 0 0.499
v -0.499 0 0
v 0 -0.02 0
v -0.499 0 0.0633795
v -0.367931 0.002 0.367931
v -0.342557 0.01 0.342557
v -0.499 0 0.0633795
v 0.480053 0.01 0
v 0.499 0 0
v 0 0.21773 0.131143
v -0.0883956 0.21773 0.0883957
v 0 0.21773 -0.131143
v -0.0883956 0.21773 -0.0883955
v -0.131143 0.21773 1.14125e-007
v 0 0.182719 -0.236296
v -0.166386 0.182719 -0.166385
v 0.236296 0.182719 1.15047e-007
v 0.166386 0.182719 -0.166385
v 0.0883956 0.21773 0.0883957
v 0 0.182719 0.236296
v 0.166386 0.182719 0.166386
v -0.236296 0.182719 1.15047e-007
v -0.166386 0.182719 0.166386
v 0 0.142099 -0.321622
v 0 0.113369 -0.370706
v -0.264529 0.113369 -0.264529
v -0.229504 0.142099 -0.229504
v 0.321622 0.142099 1.15047e-007
v 0.370706 0.113369 1.15047e-007
v 0.264529 0.113369 -0.264529
v 0.229504 0.142099 -0.229504
v 0.229504 0.142099 0.229504
v 0 0.142099 0.321622
v 0 0.113369 0.370706
v 0.264529 0.113369 0.264529
v -0.321622 0.142099 1.15047e-007
v -0.370706 0.113369 1.15047e-007
v -0.264529 0.113369 0.264529
v -0.229504 0.142099 0.229504
v 0 0.0587644 -0.433685
v -0.342557 0.01 -0.342557
v -0.30947 0.0587644 -0.30947
v -0.433685 0.0587644 1.14747e-007
v -0.480053 0.02 0
v -0.30947 0.0587644 0.30947
v 0.30947 0.0587644 0.30947
v 0 0.0587644 0.433685
v 0 0.01 0.480053
v 0.342557 0.01 0.342557
v 0.433685 0.0587644 1.14747e-007
v 0.30947 0.0587644 -0.30947
v 0.216828 0 0.499
v 0.40008 0.002 0.40008
v 0 0 -0.499
v -0.420561 0.002 -0.420561
v -0.499 0 0
v -0.499 0 -0.0633989
v 0.499 0 0
v 0 -0.02 0
v -0.149314 0 0.499
v -0.36946 0 0.36946
v 0 0 -0.499
v 0.368103 0 -0.368103
v 0 -0.02 0
v 0.499 0 0
v 0 -0.02 0
v 0.368103 0 -0.368103
v 0.499 0 0.499
v 0.499 0 -0.499
v -0.499 0 -0.499
v -0.499 0 0.499
v -0.149314 0 0.499
v -0.499 0 0.499
v -0.499 0 0.0633795
v -0.36946 0 0.36946
v -0.499 0 0.499
v 0 0 -0.499
v -0.419827 0 -0.419827
v -0.499 0 -0.499
v 0.499 0 -0.499
v 0.499 0 -0.499
v 0.499 0 0.499
v 0.399128 0 0.399128
v 0.499 0 0
v 0.499 0 0.499
v 0.216828 0 0.499
v 0.399128 0 0.399128
v 0 -0.02 0
v 0.216828 0 0.499
v 0 0 0.499
v -0.149314 0 0.499
v 0 -0.02 0
v 0 -0.02 0
v 0 -0.02 0
v -0.499 0 -0.0633989
v 0.216828 0 0.499
v 0.216828 0 0.499
v -0.499 0 -0.499
v -0.419827 0 -0.419827
v -0.499 0 -0.0633989
v -0.499 0 0
v 0 -0.02 0
v 0 -0.02 0

vn 0.00418854 0.881836 -0.470703
vn 0.395508 0.828613 -0.395508
vn 0.0390625 0.998047 -0.0390625
vn 0.0623169 0.981934 -0.177368
vn 0.191895 0.962402 -0.191895
vn 0 1 0
vn 0.270508 0.962402 0
vn 0 0.884277 0.466553
vn 0 0.884277 0.466553
vn 0 0.884277 0.466553
vn -0.0400391 -0.999023 0
vn -0.0400391 -0.999023 0
vn -0.0400391 -0.999023 0
vn -0.0306702 0.998535 0.0368347
vn -0.322998 0.877441 0.35376
vn -0.247803 0.962402 0.110168
vn 0.506348 0.861816 -0.00270081
vn 0.177368 0.981934 -0.0623169
vn 0 0.962402 0.270508
vn -0.191895 0.962402 0.191895
vn 0 0.962402 -0.270508
vn -0.191895 0.962402 -0.191895
vn -0.270508 0.962402 0
vn 0 0.922363 -0.385742
vn -0.273193 0.921875 -0.273193
vn 0.385742 0.922363 0
vn 0.273193 0.921875 -0.273193
vn 0.191895 0.962402 0.191895
vn 0 0.922363 0.385742
vn 0.273193 0.921875 0.273193
vn -0.385742 0.922363 0
vn -0.273193 0.921875 0.273193
vn 0 0.883789 -0.467041
vn 0 0.788574 -0.614746
vn -0.432617 0.790527 -0.432617
vn -0.328857 0.884766 -0.328857
vn 0.467041 0.883789 0
vn 0.614746 0.788574 0
vn 0.432617 0.790527 -0.432617
vn 0.328857 0.884766 -0.328857
vn 0.328857 0.884766 0.328857
vn 0 0.883789 0.467041
vn 0 0.788574 0.614746
vn 0.432617 0.790527 0.432617
vn -0.467041 0.883789 0
vn -0.614746 0.788574 0
vn -0.432617 0.790527 0.432617
vn -0.328857 0.884766 0.328857
vn 0 0.718262 -0.694824
vn -0.250244 0.925293 -0.28418
vn -0.473633 0.731445 -0.490234
vn -0.671387 0.740723 1.19209e-007
vn -0.638672 0.769043 1.84774e-006
vn -0.473633 0.731445 0.490234
vn 0.489502 0.721191 0.489502
vn 0 0.718262 0.694824
vn -0.00392532 0.794434 0.606934
vn 0.339844 0.888184 0.307617
vn 0.694824 0.718262 1.78814e-007
vn 0.489502 0.721191 -0.489502
vn 0.0133133 0.998535 0.0448608
vn 0.0464478 0.998535 0.024292
vn -0.0361328 0.989258 -0.13855
vn -0.0282288 0.998535 -0.0396729
vn -0.725586 0.6875 0
vn -0.285156 0.950195 -0.123718
vn 0.155029 0.986816 0.0459595
vn -0.0200348 -0.999023 0.0340271
vn -0.0175629 -0.999023 0.0298615
vn -0.0134888 -0.999512 0.0229187
vn 0.0129547 -0.999023 -0.036438
vn 0.00870514 -0.999512 -0.0244904
vn 0.0142365 -0.999023 -0.0400391
vn 0.036438 -0.999023 -0.0129547
vn 0.0400391 -0.999023 -0.0142365
vn 0.0244904 -0.999512 -0.00870514
vn 0.0129089 0.999512 0.00730133
vn 0.00773239 0.999512 -0.00773239
vn -0.011879 0.999512 -0.0136108
vn -0.008461 0.999512 0.00679398
vn -0.051239 0.991699 0.11615
vn 0 -1 -5.36442e-007
vn -0.0342712 -0.999023 0.0145111
vn -0.0240784 -0.999512 0.0101929
vn 5.36442e-007 -1 0
vn -0.00736237 -0.999023 -0.039032
vn -0.00531387 -0.999512 -0.028183
vn 0 -1 7.15256e-007
vn 0 -1 4.17233e-007
vn -4.17233e-007 -1 0
vn -5.96046e-007 -1 0
vn 0.0264893 -0.999512 0.00662613
vn 0.038269 -0.999023 0.00957489
vn 0 -1 -5.36442e-007
vn 0.0163269 -0.999023 0.0298157
vn 0.0130234 -0.999512 0.0237732
vn 0 -0.999023 0.0400391
vn 0 -0.999023 0.0400391
vn 0 -0.999023 0.0400391
vn 0 -0.999023 0.0400391
vn -0.00754929 -0.999023 -0.0400391
vn 0.0400391 -0.999023 0.0100174
vn 0.0177155 -0.999023 0.0323486
vn -0.0400391 -0.999023 0
vn 0 0.884277 0.466553
vn 0.0376587 0.994629 0.0938721
vn 7.15256e-007 -1 0
vn -0.0278015 -0.999512 -0.00617599
vn -0.0378723 -0.999023 -0.00841522
vn -0.725586 0.6875 0
vn -0.0389404 -0.999023 -0.00865173
vn -0.0379944 -0.999023 0.0160828

vt 0.874635 0.517105
vt 0.789561 0.583689
vt 0.782816 0.570557
vt 0.874432 0.507597
vt 0.855966 0.714314
vt 0.875012 0.751976
vt 0.846752 0.751976
vt 0.874432 0.997827
vt 0.874635 0.987805
vt 0.911448 0.997827
vt 0.997894 0.752712
vt 0.874432 0.752712
vt 0.997894 0.784105
vt 0.966219 0.933215
vt 0.960039 0.920802
vt 0.997894 0.783845
vt 0.755617 0.752455
vt 0.749617 0.752712
vt 0.875012 0.807859
vt 0.894058 0.789639
vt 0.875012 0.696094
vt 0.894058 0.714314
vt 0.903272 0.751976
vt 0.875012 0.644284
vt 0.913396 0.676075
vt 0.820551 0.751976
vt 0.836628 0.676075
vt 0.855966 0.789639
vt 0.875012 0.859669
vt 0.836628 0.827878
vt 0.929472 0.751976
vt 0.913396 0.827878
vt 0.875012 0.604431
vt 0.875012 0.580305
vt 0.936973 0.629451
vt 0.928259 0.646682
vt 0.800398 0.751976
vt 0.788197 0.751976
vt 0.813051 0.629451
vt 0.821764 0.646682
vt 0.821764 0.857271
vt 0.875012 0.899522
vt 0.875012 0.923648
vt 0.813051 0.874502
vt 0.949626 0.751976
vt 0.961827 0.751976
vt 0.936973 0.874502
vt 0.928259 0.857271
vt 0.875012 0.54381
vt 0.960039 0.583689
vt 0.950136 0.603423
vt 0.980282 0.751976
vt 0.993652 0.752455
vt 0.950136 0.90053
vt 0.799888 0.90053
vt 0.875012 0.960143
vt 0.874635 0.987805
vt 0.789561 0.920802
vt 0.769742 0.751976
vt 0.799888 0.603423
vt 0.820678 0.997827
vt 0.775281 0.948943
vt 0.874432 0.507597
vt 0.979038 0.54599
vt 0.997894 0.752712
vt 0.997894 0.72157
vt 0.749617 0.752712
vt 0.874432 0.752712
vt 0.911758 0.999876
vt 0.96679 0.935346
vt 0.874432 0.505548
vt 0.782413 0.570748
vt 0.874432 0.752712
vt 0.749617 0.752712
vt 0.874432 0.752712
vt 0.782413 0.570748
vt 0.749617 0.997827
vt 0.749617 0.507597
vt 0.997894 0.507597
vt 0.997894 0.997827
vt 0.911448 0.997827
vt 0.997894 0.999876
vt 0.997894 0.784105
vt 0.96679 0.935346
vt 0.997894 0.999876
vt 0.874432 0.505548
vt 0.979381 0.54518
vt 0.997894 0.505548
vt 0.749617 0.505548
vt 0.749617 0.505548
vt 0.749617 0.999876
vt 0.774657 0.950012
vt 0.749617 0.752712
vt 0.749617 0.999876
vt 0.820229 0.999876
vt 0.774657 0.950012
vt 0.874432 0.752712
vt 0.820229 0.999876
vt 0.874432 0.999876
vt 0.911758 0.999876
vt 0.874432 0.752712
vt 0.874432 0.752712
vt 0.874432 0.752712
vt 0.997894 0.721309
vt 0.820678 0.997827
vt 0.820678 0.997827
vt 0.997894 0.505548
vt 0.979381 0.54518
vt 0.997894 0.721309
vt 0.997894 0.752712
vt 0.874432 0.752712
vt 0.874432 0.752712


#
# MESH 000
#
g surface_000
usemtl surface_000
f 83/83/83 112/112/112 84/84/84
f 83/83/83 84/84/84 85/85/85
f 108/108/108 111/111/111 109/109/109
f 107/107/107 108/108/108 109/109/109
f 16/16/16 53/53/53 110/110/110
f 16/16/16 15/15/15 53/53/53
f 52/52/52 53/53/53 15/15/15
f 50/50/50 53/53/53 52/52/52
f 66/66/66 53/53/53 50/50/50
f 65/65/65 53/53/53 66/66/66
f 14/14/14 15/15/15 16/16/16
f 81/81/81 15/15/15 14/14/14
f 81/81/81 57/57/57 15/15/15
f 57/57/57 54/54/54 15/15/15
f 52/52/52 15/15/15 54/54/54
f 46/46/46 52/52/52 54/54/54
f 51/51/51 52/52/52 46/46/46
f 50/50/50 52/52/52 51/51/51
f 14/14/14 16/16/16 80/80/80
f 81/81/81 14/14/14 80/80/80
f 106/106/106 58/58/58 57/57/57
f 55/55/55 57/57/57 58/58/58
f 55/55/55 56/56/56 57/57/57
f 57/57/57 56/56/56 54/54/54
f 56/56/56 47/47/47 54/54/54
f 46/46/46 54/54/54 47/47/47
f 45/45/45 46/46/46 47/47/47
f 35/35/35 46/46/46 45/45/45
f 51/51/51 46/46/46 35/35/35
f 58/58/58 59/59/59 55/55/55
f 55/55/55 59/59/59 38/38/38
f 55/55/55 38/38/38 44/44/44
f 44/44/44 56/56/56 55/55/55
f 44/44/44 43/43/43 56/56/56
f 56/56/56 43/43/43 47/47/47
f 43/43/43 48/48/48 47/47/47
f 45/45/45 47/47/47 48/48/48
f 58/58/58 17/17/17 59/59/59
f 59/59/59 17/17/17 2/2/2
f 59/59/59 2/2/2 60/60/60
f 38/38/38 59/59/59 60/60/60
f 38/38/38 60/60/60 39/39/39
f 37/37/37 38/38/38 39/39/39
f 44/44/44 38/38/38 37/37/37
f 44/44/44 37/37/37 41/41/41
f 41/41/41 43/43/43 44/44/44
f 67/67/67 17/17/17 58/58/58
f 67/67/67 58/58/58 62/62/62
f 67/67/67 62/62/62 77/77/77
f 77/77/77 62/62/62 61/61/61
f 61/61/61 62/62/62 58/58/58
f 105/105/105 9/9/9 8/8/8
f 8/8/8 9/9/9 10/10/10
f 104/104/104 12/12/12 11/11/11
f 11/11/11 12/12/12 13/13/13
f 96/96/96 95/95/95 103/103/103
f 94/94/94 95/95/95 96/96/96
f 93/93/93 92/92/92 102/102/102
f 91/91/91 92/92/92 93/93/93
f 86/86/86 101/101/101 87/87/87
f 86/86/86 87/87/87 88/88/88
f 97/97/97 99/99/99 100/100/100
f 97/97/97 98/98/98 99/99/99
f 74/74/74 76/76/76 90/90/90
f 74/74/74 75/75/75 76/76/76
f 89/89/89 72/72/72 71/71/71
f 71/71/71 72/72/72 73/73/73
f 70/70/70 69/69/69 82/82/82
f 68/68/68 69/69/69 70/70/70
f 41/41/41 42/42/42 43/43/43
f 30/30/30 42/42/42 41/41/41
f 30/30/30 29/29/29 42/42/42
f 42/42/42 29/29/29 32/32/32
f 42/42/42 32/32/32 48/48/48
f 43/43/43 42/42/42 48/48/48
f 41/41/41 26/26/26 30/30/30
f 30/30/30 26/26/26 7/7/7
f 30/30/30 7/7/7 28/28/28
f 28/28/28 29/29/29 30/30/30
f 28/28/28 19/19/19 29/29/29
f 32/32/32 29/29/29 19/19/19
f 41/41/41 37/37/37 26/26/26
f 27/27/27 26/26/26 37/37/37
f 7/7/7 26/26/26 27/27/27
f 7/7/7 27/27/27 5/5/5
f 5/5/5 6/6/6 7/7/7
f 7/7/7 6/6/6 28/28/28
f 28/28/28 6/6/6 19/19/19
f 19/19/19 6/6/6 20/20/20
f 32/32/32 19/19/19 20/20/20
f 27/27/27 37/37/37 40/40/40
f 40/40/40 24/24/24 27/27/27
f 27/27/27 24/24/24 21/21/21
f 27/27/27 21/21/21 5/5/5
f 5/5/5 21/21/21 6/6/6
f 6/6/6 21/21/21 22/22/22
f 23/23/23 6/6/6 22/22/22
f 20/20/20 6/6/6 23/23/23
f 23/23/23 32/32/32 20/20/20
f 37/37/37 39/39/39 40/40/40
f 39/39/39 33/33/33 40/40/40
f 40/40/40 33/33/33 24/24/24
f 25/25/25 24/24/24 33/33/33
f 21/21/21 24/24/24 25/25/25
f 21/21/21 25/25/25 22/22/22
f 25/25/25 23/23/23 22/22/22
f 25/25/25 31/31/31 23/23/23
f 23/23/23 31/31/31 32/32/32
f 32/32/32 31/31/31 45/45/45
f 32/32/32 45/45/45 48/48/48
f 39/39/39 34/34/34 33/33/33
f 33/33/33 34/34/34 35/35/35
f 33/33/33 35/35/35 36/36/36
f 25/25/25 33/33/33 36/36/36
f 36/36/36 31/31/31 25/25/25
f 36/36/36 45/45/45 31/31/31
f 35/35/35 45/45/45 36/36/36
f 60/60/60 34/34/34 39/39/39
f 60/60/60 49/49/49 34/34/34
f 34/34/34 49/49/49 51/51/51
f 34/34/34 51/51/51 35/35/35
f 2/2/2 49/49/49 60/60/60
f 2/2/2 1/1/1 49/49/49
f 49/49/49 1/1/1 50/50/50
f 49/49/49 50/50/50 51/51/51
f 1/1/1 2/2/2 3/3/3
f 1/1/1 3/3/3 4/4/4
f 4/4/4 3/3/3 78/78/78
f 3/3/3 18/18/18 78/78/78
f 17/17/17 18/18/18 3/3/3
f 17/17/17 3/3/3 2/2/2
f 63/63/63 50/50/50 1/1/1
f 63/63/63 64/64/64 50/50/50
f 66/66/66 50/50/50 64/64/64
f 66/66/66 64/64/64 79/79/79
f 79/79/79 64/64/64 63/63/63

