g n024v001_l
v 5.375E-14 0.8125 -0.355102
v 3.9375E-14 0.6875 -0.355102
v -0.0625 0.6875 -0.355102
v -0.0625 0.8125 -0.355102
v -0.4375 0.5625 -0.355102
v -0.0625 0.5625 -0.355102
v -0.125 0.875 -0.355102
v -0.0625 0.875 -0.355102
v -0.375 0.4375 -0.355102
v -0.25 0.375 -0.355102
v -0.4375 0.4375 -0.355102
v -0.375 0.375 -0.355102
v 3.3125E-14 0.5625 -0.355102
v -0.4375 0.875 -0.355102
v -0.5 0.5625 -0.355102
v -0.5 0.875 -0.355102
v 0.4375 0.375 -0.355102
v 0.0625 0.5625 -0.355102
v -0.25 0.9375 -0.355102
v -0.1875 0.9375 -0.355102
v -0.125 0.9375 -0.355102
v -0.125 1 -0.355102
v -0.1875 1 -0.355102
v -0.3125 0.9375 -0.355102
v -0.4375 0.9375 -0.355102
v -0.25 1 -0.355102
v -0.3125 1 -0.355102
v -0.0625 0.25 -0.355102
v -0.125 0.25 -0.355102
v -0.1875 0.25 -0.355102
v -0.25 0.25 -0.355102
v -0.1875 0.125 -0.355102
v -0.3125 0.125 -0.355102
v -0.3125 0.25 -0.355102
v 0.4375 0.1875 -0.355102
v 0.375 0.125 -0.355102
v 0.4375 0.125 -0.355102
v 8.125E-15 0.0625 -0.355102
v -0.0625 0.0625 -0.355102
v 0.25 1E-14 -0.355102
v 1E-14 1E-14 -0.355102
v 0.375 0.0625 -0.355102
v 0.375 1E-14 -0.355102
v 0.5 0.5625 -0.355102
v 0.5 0.375 -0.355102
v 0.4375 0.5625 -0.355102
v 0.375 0.625 -0.355102
v 0.4375 0.625 -0.355102
v 0.125 0.625 -0.355102
v 0.0625 0.625 -0.355102
v 0.375 0.6875 -0.355102
v 0.125 0.6875 -0.355102
v 0.4375 0.8125 -0.355102
v 0.4375 0.6875 -0.355102
v 0.0625 0.8125 -0.355102
v 0.0625 0.6875 -0.355102
v 0.4375 0.875 -0.355102
v 0.0625 0.875 -0.355102
v 4.875E-14 0.875 -0.355102
v 0.375 0.9375 -0.355102
v 0.4375 0.9375 -0.355102
v 0.5 0.875 -0.355102
v 0.5 0.9375 -0.355102
v 0.125 0.9375 -0.355102
v 0.0625 0.9375 -0.355102
v 0.25 1 -0.355102
v 0.125 1 -0.355102
v 0.375 1 -0.355102
v -0.25 0.25 -0.3580229
v -0.3125 0.25 -0.3580229
v -0.3125 0.125 -0.3580229
v -0.1875 0.125 -0.3580229
v -0.1875 0.25 -0.3580229
v -0.25 0.375 -0.3580229
v -0.125 0.25 -0.3580229
v -0.0625 0.25 -0.3580229
v 0.4375 0.375 -0.3580229
v 0.4375 0.1875 -0.3580229
v 0.375 0.125 -0.3580229
v 0.4375 0.125 -0.3580229
v -1.875E-15 0.0625 -0.3580229
v -0.0625 0.0625 -0.3580229
v 0.25 -1E-14 -0.3580229
v -1E-14 -1E-14 -0.3580229
v 0.375 0.0625 -0.3580229
v 0.375 -1E-14 -0.3580229
v 2.3125E-14 0.5625 -0.3580229
v -0.0625 0.5625 -0.3580229
v 0.0625 0.5625 -0.3580229
v -0.375 0.4375 -0.3580229
v -0.4375 0.5625 -0.3580229
v -0.375 0.375 -0.3580229
v -0.4375 0.4375 -0.3580229
v -0.0625 0.6875 -0.3580229
v 0.4375 0.5625 -0.3580229
v 0.5 0.375 -0.3580229
v 0.5 0.5625 -0.3580229
v 0.125 0.625 -0.3580229
v 0.0625 0.625 -0.3580229
v 0.375 0.625 -0.3580229
v 0.4375 0.625 -0.3580229
v 0.125 0.6875 -0.3580229
v 0.375 0.6875 -0.3580229
v 0.0625 0.8125 -0.3580229
v 0.0625 0.6875 -0.3580229
v 0.4375 0.8125 -0.3580229
v 0.4375 0.6875 -0.3580229
v 0.0625 0.875 -0.3580229
v 4.03125E-14 0.8125 -0.3580229
v 3.875E-14 0.875 -0.3580229
v 0.4375 0.875 -0.3580229
v 0.125 0.9375 -0.3580229
v 0.0625 0.9375 -0.3580229
v 0.375 0.9375 -0.3580229
v 0.4375 0.9375 -0.3580229
v 0.5 0.9375 -0.3580229
v 0.5 0.875 -0.3580229
v 0.25 1 -0.3580229
v 0.375 1 -0.3580229
v 0.125 1 -0.3580229
v 2.9375E-14 0.6875 -0.3580229
v -0.0625 0.8125 -0.3580229
v -0.125 0.875 -0.3580229
v -0.0625 0.875 -0.3580229
v -0.4375 0.875 -0.3580229
v -0.5 0.875 -0.3580229
v -0.5 0.5625 -0.3580229
v -0.25 0.9375 -0.3580229
v -0.3125 0.9375 -0.3580229
v -0.4375 0.9375 -0.3580229
v -0.3125 1 -0.3580229
v -0.25 1 -0.3580229
v -0.1875 0.9375 -0.3580229
v -0.125 0.9375 -0.3580229
v -0.1875 1 -0.3580229
v -0.125 1 -0.3580229
vt 0.75 0.40625
vt 0.75 0.34375
vt 0.71875 0.34375
vt 0.71875 0.40625
vt 0.53125 0.28125
vt 0.71875 0.28125
vt 0.6875 0.4375
vt 0.71875 0.4375
vt 0.5625 0.21875
vt 0.625 0.1875
vt 0.53125 0.21875
vt 0.5625 0.1875
vt 0.75 0.28125
vt 0.53125 0.4375
vt 0.5 0.28125
vt 0.5 0.4375
vt 0.96875 0.1875
vt 0.78125 0.28125
vt 0.625 0.46875
vt 0.65625 0.46875
vt 0.6875 0.46875
vt 0.6875 0.5
vt 0.65625 0.5
vt 0.59375 0.46875
vt 0.53125 0.46875
vt 0.625 0.5
vt 0.59375 0.5
vt 0.71875 0.125
vt 0.6875 0.125
vt 0.65625 0.125
vt 0.625 0.125
vt 0.65625 0.0625
vt 0.59375 0.0625
vt 0.59375 0.125
vt 0.96875 0.09375
vt 0.9375 0.0625
vt 0.96875 0.0625
vt 0.75 0.03125
vt 0.71875 0.03125
vt 0.875 0
vt 0.75 0
vt 0.9375 0.03125
vt 0.9375 0
vt 1 0.28125
vt 1 0.1875
vt 0.96875 0.28125
vt 0.9375 0.3125
vt 0.96875 0.3125
vt 0.8125 0.3125
vt 0.78125 0.3125
vt 0.9375 0.34375
vt 0.8125 0.34375
vt 0.96875 0.40625
vt 0.96875 0.34375
vt 0.78125 0.40625
vt 0.78125 0.34375
vt 0.96875 0.4375
vt 0.78125 0.4375
vt 0.75 0.4375
vt 0.9375 0.46875
vt 0.96875 0.46875
vt 1 0.4375
vt 1 0.46875
vt 0.8125 0.46875
vt 0.78125 0.46875
vt 0.875 0.5
vt 0.8125 0.5
vt 0.9375 0.5
vt 0.625 0.875
vt 0.59375 0.875
vt 0.59375 0.9375
vt 0.65625 0.9375
vt 0.65625 0.875
vt 0.625 0.8125
vt 0.6875 0.875
vt 0.71875 0.875
vt 0.96875 0.8125
vt 0.96875 0.90625
vt 0.9375 0.9375
vt 0.96875 0.9375
vt 0.75 0.96875
vt 0.71875 0.96875
vt 0.875 1
vt 0.75 1
vt 0.9375 0.96875
vt 0.9375 1
vt 0.75 0.71875
vt 0.71875 0.71875
vt 0.78125 0.71875
vt 0.5625 0.78125
vt 0.53125 0.71875
vt 0.5625 0.8125
vt 0.53125 0.78125
vt 0.71875 0.65625
vt 0.96875 0.71875
vt 1 0.8125
vt 1 0.71875
vt 0.8125 0.6875
vt 0.78125 0.6875
vt 0.9375 0.6875
vt 0.96875 0.6875
vt 0.8125 0.65625
vt 0.9375 0.65625
vt 0.78125 0.59375
vt 0.78125 0.65625
vt 0.96875 0.59375
vt 0.96875 0.65625
vt 0.78125 0.5625
vt 0.75 0.59375
vt 0.75 0.5625
vt 0.96875 0.5625
vt 0.8125 0.53125
vt 0.78125 0.53125
vt 0.9375 0.53125
vt 0.96875 0.53125
vt 1 0.53125
vt 1 0.5625
vt 0.875 0.5
vt 0.9375 0.5
vt 0.8125 0.5
vt 0.75 0.65625
vt 0.71875 0.59375
vt 0.6875 0.5625
vt 0.71875 0.5625
vt 0.53125 0.5625
vt 0.5 0.5625
vt 0.5 0.71875
vt 0.625 0.53125
vt 0.59375 0.53125
vt 0.53125 0.53125
vt 0.59375 0.5
vt 0.625 0.5
vt 0.65625 0.53125
vt 0.6875 0.53125
vt 0.65625 0.5
vt 0.6875 0.5
vn 0 0 1
vn 0 0 1
vn 0 0 1
vn 0 0 1
vn 0 0 1
vn 0 0 1
vn 0 0 1
vn 0 0 1
vn 0 0 1
vn 0 0 1
vn 0 0 1
vn 0 0 1
vn 0 0 1
vn 0 0 1
vn 0 0 1
vn 0 0 1
vn 0 0 1
vn 0 0 1
vn 0 0 1
vn 0 0 1
vn 0 0 1
vn 0 0 1
vn 0 0 1
vn 0 0 1
vn 0 0 1
vn 0 0 1
vn 0 0 1
vn 0 0 1
vn 0 0 1
vn 0 0 1
vn 0 0 1
vn 0 0 1
vn 0 0 1
vn 0 0 1
vn 0 0 1
vn 0 0 1
vn 0 0 1
vn 0 0 1
vn 0 0 1
vn 0 0 1
vn 0 0 1
vn 0 0 1
vn 0 0 1
vn 0 0 1
vn 0 0 1
vn 0 0 1
vn 0 0 1
vn 0 0 1
vn 0 0 1
vn 0 0 1
vn 0 0 1
vn 0 0 1
vn 0 0 1
vn 0 0 1
vn 0 0 1
vn 0 0 1
vn 0 0 1
vn 0 0 1
vn 0 0 1
vn 0 0 1
vn 0 0 1
vn 0 0 1
vn 0 0 1
vn 0 0 1
vn 0 0 1
vn 0 0 1
vn 0 0 1
vn 0 0 1
vn 0 0 -1
vn 0 0 -1
vn 0 0 -1
vn 0 0 -1
vn 0 0 -1
vn 0 0 -1
vn 0 0 -1
vn 0 0 -1
vn 0 0 -1
vn 0 0 -1
vn 0 0 -1
vn 0 0 -1
vn 0 0 -1
vn 0 0 -1
vn 0 0 -1
vn 0 0 -1
vn 0 0 -1
vn 0 0 -1
vn 0 0 -1
vn 0 0 -1
vn 0 0 -1
vn 0 0 -1
vn 0 0 -1
vn 0 0 -1
vn 0 0 -1
vn 0 0 -1
vn 0 0 -1
vn 0 0 -1
vn 0 0 -1
vn 0 0 -1
vn 0 0 -1
vn 0 0 -1
vn 0 0 -1
vn 0 0 -1
vn 0 0 -1
vn 0 0 -1
vn 0 0 -1
vn 0 0 -1
vn 0 0 -1
vn 0 0 -1
vn 0 0 -1
vn 0 0 -1
vn 0 0 -1
vn 0 0 -1
vn 0 0 -1
vn 0 0 -1
vn 0 0 -1
vn 0 0 -1
vn 0 0 -1
vn 0 0 -1
vn 0 0 -1
vn 0 0 -1
vn 0 0 -1
vn 0 0 -1
vn 0 0 -1
vn 0 0 -1
vn 0 0 -1
vn 0 0 -1
vn 0 0 -1
vn 0 0 -1
vn 0 0 -1
vn 0 0 -1
vn 0 0 -1
vn 0 0 -1
vn 0 0 -1
vn 0 0 -1
vn 0 0 -1
vn 0 0 -1
g n024v001_l_0
f 3/3/3 2/2/2 1/1/1
f 4/4/4 3/3/3 1/1/1
f 5/5/5 3/3/3 4/4/4
f 5/5/5 6/6/6 3/3/3
f 5/5/5 4/4/4 7/7/7
f 7/7/7 4/4/4 8/8/8
f 9/9/9 6/6/6 5/5/5
f 10/10/10 6/6/6 9/9/9
f 9/9/9 5/5/5 11/11/11
f 10/10/10 9/9/9 12/12/12
f 13/13/13 6/6/6 10/10/10
f 14/14/14 5/5/5 7/7/7
f 5/5/5 14/14/14 15/15/15
f 14/14/14 16/16/16 15/15/15
f 10/10/10 17/17/17 13/13/13
f 17/17/17 18/18/18 13/13/13
f 19/19/19 14/14/14 7/7/7
f 7/7/7 20/20/20 19/19/19
f 20/20/20 7/7/7 21/21/21
f 21/21/21 22/22/22 20/20/20
f 22/22/22 23/23/23 20/20/20
f 19/19/19 24/24/24 14/14/14
f 14/14/14 24/24/24 25/25/25
f 24/24/24 19/19/19 26/26/26
f 27/27/27 24/24/24 26/26/26
f 28/28/28 17/17/17 10/10/10
f 10/10/10 29/29/29 28/28/28
f 10/10/10 30/30/30 29/29/29
f 30/30/30 10/10/10 31/31/31
f 31/31/31 32/32/32 30/30/30
f 31/31/31 33/33/33 32/32/32
f 34/34/34 33/33/33 31/31/31
f 28/28/28 35/35/35 17/17/17
f 28/28/28 36/36/36 35/35/35
f 35/35/35 36/36/36 37/37/37
f 36/36/36 28/28/28 38/38/38
f 38/38/38 28/28/28 39/39/39
f 36/36/36 38/38/38 40/40/40
f 40/40/40 38/38/38 41/41/41
f 36/36/36 40/40/40 42/42/42
f 42/42/42 40/40/40 43/43/43
f 17/17/17 45/45/45 44/44/44
f 46/46/46 17/17/17 44/44/44
f 46/46/46 18/18/18 17/17/17
f 46/46/46 47/47/47 18/18/18
f 47/47/47 46/46/46 48/48/48
f 47/47/47 49/49/49 18/18/18
f 18/18/18 49/49/49 50/50/50
f 47/47/47 51/51/51 49/49/49
f 51/51/51 52/52/52 49/49/49
f 51/51/51 53/53/53 52/52/52
f 53/53/53 51/51/51 54/54/54
f 53/53/53 55/55/55 52/52/52
f 52/52/52 55/55/55 56/56/56
f 53/53/53 57/57/57 55/55/55
f 57/57/57 58/58/58 55/55/55
f 55/55/55 58/58/58 59/59/59
f 1/1/1 55/55/55 59/59/59
f 57/57/57 60/60/60 58/58/58
f 60/60/60 57/57/57 61/61/61
f 57/57/57 62/62/62 61/61/61
f 62/62/62 63/63/63 61/61/61
f 60/60/60 64/64/64 58/58/58
f 58/58/58 64/64/64 65/65/65
f 64/64/64 60/60/60 66/66/66
f 66/66/66 67/67/67 64/64/64
f 68/68/68 66/66/66 60/60/60
f 71/71/71 70/70/70 69/69/69
f 71/71/71 69/69/69 72/72/72
f 72/72/72 69/69/69 73/73/73
f 74/74/74 73/73/73 69/69/69
f 75/75/75 73/73/73 74/74/74
f 76/76/76 75/75/75 74/74/74
f 74/74/74 77/77/77 76/76/76
f 77/77/77 78/78/78 76/76/76
f 78/78/78 79/79/79 76/76/76
f 79/79/79 78/78/78 80/80/80
f 76/76/76 79/79/79 81/81/81
f 76/76/76 81/81/81 82/82/82
f 81/81/81 79/79/79 83/83/83
f 81/81/81 83/83/83 84/84/84
f 83/83/83 79/79/79 85/85/85
f 83/83/83 85/85/85 86/86/86
f 87/87/87 77/77/77 74/74/74
f 74/74/74 88/88/88 87/87/87
f 87/87/87 89/89/89 77/77/77
f 88/88/88 74/74/74 90/90/90
f 88/88/88 90/90/90 91/91/91
f 90/90/90 74/74/74 92/92/92
f 91/91/91 90/90/90 93/93/93
f 88/88/88 91/91/91 94/94/94
f 89/89/89 95/95/95 77/77/77
f 77/77/77 95/95/95 96/96/96
f 95/95/95 97/97/97 96/96/96
f 89/89/89 98/98/98 95/95/95
f 98/98/98 89/89/89 99/99/99
f 98/98/98 100/100/100 95/95/95
f 95/95/95 100/100/100 101/101/101
f 98/98/98 102/102/102 100/100/100
f 102/102/102 103/103/103 100/100/100
f 102/102/102 104/104/104 103/103/103
f 104/104/104 102/102/102 105/105/105
f 104/104/104 106/106/106 103/103/103
f 103/103/103 106/106/106 107/107/107
f 104/104/104 108/108/108 106/106/106
f 108/108/108 104/104/104 109/109/109
f 110/110/110 108/108/108 109/109/109
f 108/108/108 111/111/111 106/106/106
f 108/108/108 112/112/112 111/111/111
f 112/112/112 108/108/108 113/113/113
f 112/112/112 114/114/114 111/111/111
f 111/111/111 114/114/114 115/115/115
f 115/115/115 116/116/116 111/111/111
f 116/116/116 117/117/117 111/111/111
f 114/114/114 112/112/112 118/118/118
f 118/118/118 119/119/119 114/114/114
f 120/120/120 118/118/118 112/112/112
f 122/122/122 109/109/109 121/121/121
f 94/94/94 122/122/122 121/121/121
f 94/94/94 91/91/91 122/122/122
f 122/122/122 91/91/91 123/123/123
f 122/122/122 123/123/123 124/124/124
f 123/123/123 91/91/91 125/125/125
f 125/125/125 91/91/91 126/126/126
f 91/91/91 127/127/127 126/126/126
f 123/123/123 125/125/125 128/128/128
f 125/125/125 129/129/129 128/128/128
f 129/129/129 125/125/125 130/130/130
f 129/129/129 131/131/131 128/128/128
f 131/131/131 132/132/132 128/128/128
f 128/128/128 133/133/133 123/123/123
f 123/123/123 133/133/133 134/134/134
f 134/134/134 133/133/133 135/135/135
f 136/136/136 134/134/134 135/135/135
