#
# OBJECT NAME
#
o model_5072
mtllib 5072.mtl

#
# VERTEX BUFFER 000
#
v -0.656474 0.429115 -0.269517
v -0.677021 0.435429 -0.248969
v -0.670708 0.414881 -0.269517
v -0.670708 1.55781 -0.269517
v -0.677021 1.53727 -0.248969
v -0.656474 1.54358 -0.269517
v -1.7841 0.414881 -0.269517
v -1.7841 0.414881 -0.400255
v -0.670708 0.414881 -0.400255
v -1.79833 0.429115 -0.400255
v -1.79833 0.429115 -0.269517
v -1.79833 1.54358 -0.269517
v -1.79833 1.54358 -0.400255
v -0.656474 0.429115 -0.400255
v -0.656474 1.54358 -0.400255
v -1.7841 1.55781 -0.400255
v -1.7841 1.55781 -0.269517
v -0.670708 1.55781 -0.400255
v -1.77779 0.435429 -0.248969
v -1.77779 1.53727 -0.248969
v -0.656474 0.429115 -0.400255
v -0.656474 0.429115 -0.269517
v -1.79833 0.429115 -0.400255
v -1.79833 0.429115 -0.269517
v -1.7841 1.55781 -0.400255
v -1.7841 1.55781 -0.269517
v -0.670708 1.55781 -0.400255
v -0.670708 1.55781 -0.269517
v 0.556966 1.55781 -0.269517
v 0.550653 1.53727 -0.248969
v 0.571201 1.54358 -0.269517
v -0.556424 0.414881 -0.269517
v -0.556424 0.414881 -0.400255
v 0.556966 0.414881 -0.400255
v 0.556966 0.414881 -0.269517
v -0.570658 0.429115 -0.400255
v -0.570658 0.429115 -0.269517
v -0.570658 1.54358 -0.269517
v -0.570658 1.54358 -0.400255
v 0.571201 0.429115 -0.269517
v 0.571201 0.429115 -0.400255
v 0.571201 1.54358 -0.400255
v -0.556424 1.55781 -0.400255
v -0.556424 1.55781 -0.269517
v 0.556966 1.55781 -0.400255
v -0.550111 0.435429 -0.248969
v 0.550653 0.435429 -0.248969
v -0.550111 1.53727 -0.248969
v 0.571201 0.429115 -0.400255
v 0.571201 0.429115 -0.269517
v -0.570658 0.429115 -0.400255
v -0.570658 0.429115 -0.269517
v -0.556424 1.55781 -0.400255
v -0.556424 1.55781 -0.269517
v 0.556966 1.55781 -0.400255
v 0.556966 1.55781 -0.269517
v 1.77833 1.53727 -0.248969
v 1.77833 0.435429 -0.248969
v 1.79888 0.429115 -0.269517
v 1.79888 1.54358 -0.269517
v 0.671251 0.414881 -0.269517
v 0.671251 0.414881 -0.400255
v 1.78464 0.414881 -0.400255
v 1.78464 0.414881 -0.269517
v 0.657017 0.429115 -0.400255
v 0.657017 0.429115 -0.269517
v 0.657017 1.54358 -0.269517
v 0.657017 1.54358 -0.400255
v 1.79888 0.429115 -0.400255
v 1.79888 1.54358 -0.400255
v 0.671251 1.55781 -0.400255
v 0.671251 1.55781 -0.269517
v 1.78464 1.55781 -0.269517
v 1.78464 1.55781 -0.400255
v 0.677564 0.435429 -0.248969
v 0.677564 1.53727 -0.248969
v 1.79888 0.429115 -0.400255
v 1.79888 0.429115 -0.269517
v 0.657017 0.429115 -0.400255
v 0.657017 0.429115 -0.269517
v 0.671251 1.55781 -0.400255
v 0.671251 1.55781 -0.269517
v 1.78464 1.55781 -0.400255
v 1.78464 1.55781 -0.269517

vn 0.992676 -0.0117188 0.117554
vn 0.0204926 -0.0204773 0.999512
vn 0.0117264 -0.992676 0.117554
vn 0.0117264 0.992676 0.117554
vn 0.0204926 0.0204773 0.999512
vn 0.992676 0.0117188 0.117554
vn -0.0117264 -0.992676 0.117554
vn -0.012619 -0.999512 0
vn 0.012619 -0.999512 0
vn -0.999512 -0.0126038 0
vn -0.992676 -0.0117188 0.117554
vn -0.992676 0.0117188 0.117554
vn -0.999512 0.0126038 0
vn 0.999512 -0.0126038 0
vn 0.999512 0.0126038 0
vn -0.012619 0.999512 0
vn -0.0117264 0.992676 0.117554
vn 0.012619 0.999512 0
vn -0.0204926 -0.0204773 0.999512
vn -0.0204926 0.0204773 0.999512
vn 0.999512 -0.0126038 0
vn 0.992676 -0.0117188 0.117554
vn -0.999512 -0.0126038 0
vn -0.992676 -0.0117188 0.117554
vn -0.012619 0.999512 0
vn -0.0117264 0.992676 0.117554
vn 0.012619 0.999512 0
vn 0.0117264 0.992676 0.117554
vn 0.0117264 0.992676 0.117554
vn 0.0204926 0.0204773 0.999512
vn 0.992676 0.0117188 0.117554
vn -0.0117264 -0.992676 0.117554
vn -0.012619 -0.999512 0
vn 0.012619 -0.999512 0
vn 0.0117264 -0.992676 0.117554
vn -0.999512 -0.0126038 0
vn -0.992676 -0.0117188 0.117554
vn -0.992676 0.0117188 0.117554
vn -0.999512 0.0126038 0
vn 0.992676 -0.0117188 0.117554
vn 0.999512 -0.0126038 0
vn 0.999512 0.0126038 0
vn -0.012619 0.999512 0
vn -0.0117264 0.992676 0.117554
vn 0.012619 0.999512 0
vn -0.0204926 -0.0204773 0.999512
vn 0.0204926 -0.0204773 0.999512
vn -0.0204926 0.0204773 0.999512
vn 0.999512 -0.0126038 0
vn 0.992676 -0.0117188 0.117554
vn -0.999512 -0.0126038 0
vn -0.992676 -0.0117188 0.117554
vn -0.012619 0.999512 0
vn -0.0117264 0.992676 0.117554
vn 0.012619 0.999512 0
vn 0.0117264 0.992676 0.117554
vn 0.0204926 0.0204773 0.999512
vn 0.0204926 -0.0204773 0.999512
vn 0.992676 -0.0117188 0.117554
vn 0.992676 0.0117188 0.117554
vn -0.0117264 -0.992676 0.117554
vn -0.012619 -0.999512 0
vn 0.012619 -0.999512 0
vn 0.0117264 -0.992676 0.117554
vn -0.999512 -0.0126038 0
vn -0.992676 -0.0117188 0.117554
vn -0.992676 0.0117188 0.117554
vn -0.999512 0.0126038 0
vn 0.999512 -0.0126038 0
vn 0.999512 0.0126038 0
vn -0.012619 0.999512 0
vn -0.0117264 0.992676 0.117554
vn 0.0117264 0.992676 0.117554
vn 0.012619 0.999512 0
vn -0.0204926 -0.0204773 0.999512
vn -0.0204926 0.0204773 0.999512
vn 0.999512 -0.0126038 0
vn 0.992676 -0.0117188 0.117554
vn -0.999512 -0.0126038 0
vn -0.992676 -0.0117188 0.117554
vn -0.012619 0.999512 0
vn -0.0117264 0.992676 0.117554
vn 0.012619 0.999512 0
vn 0.0117264 0.992676 0.117554

vt 0.331682 0.203291
vt 0.323373 0.206716
vt 0.325079 0.187891
vt 0.325079 0.817315
vt 0.323373 0.799075
vt 0.331683 0.8025
vt 0.026693 0.187891
vt 0.026693 0.144378
vt 0.325079 0.144378
vt -0.000237528 0.203286
vt 0.0193853 0.203291
vt 0.0193853 0.8025
vt -0.000237528 0.8025
vt 0.347314 0.203291
vt 0.347314 0.8025
vt 0.0266902 0.857511
vt 0.026693 0.817315
vt 0.325079 0.857511
vt 0.0283985 0.206716
vt 0.0283985 0.799075
vt 0.328924 0.144378
vt 0.328924 0.187891
vt 0.0228477 0.144378
vt 0.0228477 0.187891
vt -0.000237528 0.810222
vt 0.0193853 0.810222
vt 0.347314 0.810222
vt 0.331682 0.810222
vt 0.649049 0.817315
vt 0.647346 0.799075
vt 0.655871 0.8025
vt 0.351153 0.187891
vt 0.351153 0.144378
vt 0.649049 0.144378
vt 0.649049 0.187891
vt 0.328924 0.203286
vt 0.344556 0.203291
vt 0.344556 0.8025
vt 0.328924 0.8025
vt 0.655871 0.203291
vt 0.672778 0.203291
vt 0.672778 0.8025
vt 0.351151 0.857511
vt 0.351153 0.817315
vt 0.649049 0.857511
vt 0.352856 0.206716
vt 0.647346 0.206716
vt 0.352856 0.799075
vt 0.652888 0.144378
vt 0.652888 0.187891
vt 0.347314 0.144378
vt 0.347314 0.187891
vt 0.328924 0.810222
vt 0.344556 0.810222
vt 0.672778 0.810222
vt 0.655871 0.810222
vt 0.973138 0.799075
vt 0.973138 0.206716
vt 0.981846 0.203291
vt 0.981846 0.8025
vt 0.676622 0.187883
vt 0.676622 0.144321
vt 0.974842 0.144321
vt 0.974842 0.187883
vt 0.652888 0.203286
vt 0.669795 0.203291
vt 0.669795 0.8025
vt 0.652888 0.8025
vt 0.999759 0.203291
vt 0.999759 0.8025
vt 0.676619 0.857453
vt 0.676622 0.817306
vt 0.974842 0.817306
vt 0.974842 0.857453
vt 0.678326 0.206716
vt 0.678326 0.799075
vt 0.978686 0.144321
vt 0.978686 0.187883
vt 0.672778 0.144321
vt 0.672778 0.187883
vt 0.652888 0.810222
vt 0.669795 0.810222
vt 0.999759 0.810222
vt 0.981846 0.810222


#
# MESH 000
#
g surface_000
usemtl surface_000
f 15/15/15 27/27/27 28/28/28
f 15/15/15 28/28/28 6/6/6
f 1/1/1 15/15/15 6/6/6
f 1/1/1 14/14/14 15/15/15
f 2/2/2 1/1/1 6/6/6
f 1/1/1 2/2/2 3/3/3
f 19/19/19 3/3/3 2/2/2
f 19/19/19 7/7/7 3/3/3
f 7/7/7 9/9/9 3/3/3
f 9/9/9 22/22/22 3/3/3
f 9/9/9 21/21/21 22/22/22
f 2/2/2 6/6/6 5/5/5
f 19/19/19 2/2/2 5/5/5
f 19/19/19 5/5/5 20/20/20
f 11/11/11 19/19/19 20/20/20
f 11/11/11 7/7/7 19/19/19
f 4/4/4 5/5/5 6/6/6
f 17/17/17 5/5/5 4/4/4
f 17/17/17 20/20/20 5/5/5
f 17/17/17 12/12/12 20/20/20
f 11/11/11 20/20/20 12/12/12
f 10/10/10 11/11/11 12/12/12
f 10/10/10 12/12/12 13/13/13
f 25/25/25 13/13/13 12/12/12
f 25/25/25 12/12/12 26/26/26
f 16/16/16 17/17/17 4/4/4
f 16/16/16 4/4/4 18/18/18
f 7/7/7 8/8/8 9/9/9
f 23/23/23 8/8/8 7/7/7
f 23/23/23 7/7/7 24/24/24
f 42/42/42 55/55/55 56/56/56
f 42/42/42 56/56/56 31/31/31
f 40/40/40 42/42/42 31/31/31
f 40/40/40 41/41/41 42/42/42
f 47/47/47 40/40/40 31/31/31
f 40/40/40 47/47/47 35/35/35
f 46/46/46 35/35/35 47/47/47
f 46/46/46 32/32/32 35/35/35
f 32/32/32 34/34/34 35/35/35
f 34/34/34 50/50/50 35/35/35
f 34/34/34 49/49/49 50/50/50
f 47/47/47 31/31/31 30/30/30
f 46/46/46 47/47/47 30/30/30
f 46/46/46 30/30/30 48/48/48
f 37/37/37 46/46/46 48/48/48
f 32/32/32 46/46/46 37/37/37
f 29/29/29 30/30/30 31/31/31
f 44/44/44 30/30/30 29/29/29
f 44/44/44 48/48/48 30/30/30
f 44/44/44 38/38/38 48/48/48
f 37/37/37 48/48/48 38/38/38
f 36/36/36 37/37/37 38/38/38
f 36/36/36 38/38/38 39/39/39
f 53/53/53 39/39/39 38/38/38
f 53/53/53 38/38/38 54/54/54
f 43/43/43 44/44/44 29/29/29
f 43/43/43 29/29/29 45/45/45
f 32/32/32 33/33/33 34/34/34
f 51/51/51 33/33/33 32/32/32
f 51/51/51 32/32/32 52/52/52
f 70/70/70 83/83/83 84/84/84
f 70/70/70 84/84/84 60/60/60
f 59/59/59 70/70/70 60/60/60
f 59/59/59 69/69/69 70/70/70
f 57/57/57 59/59/59 60/60/60
f 57/57/57 58/58/58 59/59/59
f 59/59/59 58/58/58 64/64/64
f 75/75/75 64/64/64 58/58/58
f 75/75/75 61/61/61 64/64/64
f 61/61/61 63/63/63 64/64/64
f 63/63/63 78/78/78 64/64/64
f 73/73/73 57/57/57 60/60/60
f 72/72/72 57/57/57 73/73/73
f 72/72/72 76/76/76 57/57/57
f 75/75/75 57/57/57 76/76/76
f 75/75/75 58/58/58 57/57/57
f 71/71/71 72/72/72 73/73/73
f 71/71/71 73/73/73 74/74/74
f 63/63/63 77/77/77 78/78/78
f 72/72/72 67/67/67 76/76/76
f 66/66/66 76/76/76 67/67/67
f 66/66/66 75/75/75 76/76/76
f 61/61/61 75/75/75 66/66/66
f 65/65/65 66/66/66 67/67/67
f 65/65/65 67/67/67 68/68/68
f 81/81/81 68/68/68 67/67/67
f 81/81/81 67/67/67 82/82/82
f 61/61/61 62/62/62 63/63/63
f 79/79/79 62/62/62 61/61/61
f 79/79/79 61/61/61 80/80/80

