#
# OBJECT NAME
#
o model_1159
mtllib 1159.mtl

#
# VERTEX BUFFER 000
#
v -0.073051 0.850038 0.996583
v 0.091825 0.850038 0.996583
v 0.091825 1.00722 0.996583
v -0.073051 1.00722 0.996583
v -0.133479 0.415732 0.645372
v 0.152253 0.415732 0.645372
v 0.091825 0.850038 0.996583
v -0.073051 0.850038 0.996583
v -0.226072 0.208306 0.161799
v 0.244846 0.208306 0.161799
v 0.273816 0 -0.0170987
v -0.267249 0 -0.0170987
v -0.380139 0 -0.436415
v 0.402007 0 -0.436415
v 0.273816 0 -0.0170987
v -0.267249 0 -0.0170987
v -0.284666 0 -0.733075
v 0.00328338 0 -0.826129
v 0.291233 0 -0.733075
v 0.091825 1.00722 0.996583
v 0.091825 0.850038 0.996583
v 0.152253 0.415732 0.645372
v 0.283996 0.451356 -0.00104916
v 0.244846 0.208306 0.161799
v 0.402007 0 -0.436415
v 0.273816 0 -0.0170987
v 0.244846 0.694406 -0.126129
v 0.291233 0 -0.733075
v 0.152253 0.794564 0.497032
v -0.133479 0.415732 0.645372
v -0.073051 1.00722 0.996583
v -0.133479 0.794564 0.497032
v -0.240095 0.451356 -0.0010491
v -0.380139 0 -0.436415
v -0.226072 0.694406 -0.126129
v -0.284666 0 -0.733075
v -0.226072 0.208306 0.161799
v -0.267249 0 -0.0170987
v -0.073051 0.850038 0.996583
v 0.152253 0.794564 0.497032
v -0.133479 0.794564 0.497032
v -0.073051 1.00722 0.996583
v 0.091825 1.00722 0.996583
v 0.244846 0.694406 -0.126129
v 0.00328338 0 -0.826129
v 0.291233 0 -0.733075
v -0.284666 0 -0.733075
v -0.226072 0.694406 -0.126129

vn 0 0 1
vn 0 0 1
vn 0 0 1
vn 0 0 1
vn -2.98023e-007 -0.840332 0.541016
vn -2.98023e-007 -0.840332 0.541016
vn -4.17233e-007 -0.628418 0.777344
vn -4.17233e-007 -0.628418 0.777344
vn 0 -0.815918 0.577148
vn 0 -0.817871 0.574707
vn 0 -0.651367 0.758301
vn 0 -0.651367 0.758301
vn 0 -1 0
vn 0 -1 0
vn 0 0 -1
vn 0 0 -1
vn 0 0 -1
vn 0 -1 0
vn 0 0 -1
vn 0.992676 0.0331421 0.114929
vn 0.985352 0 0.169556
vn 0.983887 0.0932007 0.152344
vn 0.98584 0.151855 0.0692749
vn 0.969727 -0.0289612 0.240967
vn 0.969727 0.229126 -0.0827026
vn 0.963867 -0.0311279 0.263916
vn 0.977539 0.210083 0.0096283
vn 0.942383 0.288574 -0.168579
vn 0.983398 0.103882 0.145508
vn -0.987793 0.053772 0.143188
vn -0.992676 0.0331421 0.114929
vn -0.989258 0.0589294 0.132568
vn -0.98584 0.15686 0.0582275
vn -0.975098 0.218506 -0.0332642
vn -0.975586 0.216675 -0.0290527
vn -0.960449 0.258057 -0.100647
vn -0.976074 0.0515137 0.209229
vn -0.971191 0.0501404 0.232666
vn -0.985352 0 0.169556
vn 0 0.958008 -0.2854
vn 1.19209e-007 0.961914 -0.271973
vn 0 0.919922 -0.391602
vn 0 0.919922 -0.391602
vn 0.0187836 0.841309 -0.539551
vn -0.000894547 0.679199 -0.733398
vn 0.234009 0.648438 -0.724121
vn -0.233398 0.650879 -0.722168
vn -0.0180359 0.850098 -0.525879

vt 0.53477 0.62133
vt 0.472709 0.62133
vt 0.472709 0.666751
vt 0.53477 0.666751
vt 0.554879 0.480719
vt 0.447327 0.48072
vt 0.472709 0.62133
vt 0.53477 0.62133
vt 0.589732 0.287117
vt 0.412475 0.287117
vt 0.40157 0.215494
vt 0.605231 0.215494
vt 0.616557 0.232546
vt 0.798395 0.232546
vt 0.791216 0.301734
vt 0.625044 0.301734
vt 0.630479 0.116921
vt 0.71086 0.0686725
vt 0.785695 0.116921
vt 0.872409 0.87849
vt 0.823633 0.87849
vt 0.752134 0.688125
vt 0.789729 0.502813
vt 0.709974 0.502814
vt 0.789729 0.256763
vt 0.710178 0.256763
vt 0.872409 0.502813
vt 0.872409 0.256763
vt 0.872409 0.688125
vt 0.955832 0.535165
vt 0.798876 0.824072
vt 0.789958 0.621596
vt 0.862024 0.367396
vt 0.862024 0.0345041
vt 0.789958 0.418469
vt 0.789958 0.0345042
vt 0.955832 0.32418
vt 0.955832 0.034504
vt 0.863604 0.824072
vt 0.827697 0.685921
vt 0.920646 0.685921
vt 0.897153 0.845565
vt 0.85119 0.845565
vt 0.792317 0.409273
vt 0.873793 0.0455378
vt 0.792317 0.0455379
vt 0.956026 0.0455378
vt 0.956026 0.409273


#
# MESH 000
#
g surface_000
usemtl surface_000
f 11/11/11 9/9/9 12/12/12
f 11/11/11 10/10/10 9/9/9
f 9/9/9 10/10/10 6/6/6
f 9/9/9 6/6/6 5/5/5
f 5/5/5 6/6/6 7/7/7
f 5/5/5 7/7/7 8/8/8
f 1/1/1 3/3/3 4/4/4
f 1/1/1 2/2/2 3/3/3
f 17/17/17 18/18/18 19/19/19
f 17/17/17 19/19/19 14/14/14
f 17/17/17 14/14/14 13/13/13
f 13/13/13 14/14/14 15/15/15
f 13/13/13 15/15/15 16/16/16
f 27/27/27 25/25/25 28/28/28
f 27/27/27 23/23/23 25/25/25
f 25/25/25 23/23/23 24/24/24
f 25/25/25 24/24/24 26/26/26
f 29/29/29 23/23/23 27/27/27
f 29/29/29 22/22/22 23/23/23
f 23/23/23 22/22/22 24/24/24
f 20/20/20 22/22/22 29/29/29
f 20/20/20 21/21/21 22/22/22
f 39/39/39 31/31/31 30/30/30
f 30/30/30 31/31/31 32/32/32
f 30/30/30 32/32/32 33/33/33
f 30/30/30 33/33/33 37/37/37
f 37/37/37 33/33/33 34/34/34
f 37/37/37 34/34/34 38/38/38
f 33/33/33 32/32/32 35/35/35
f 34/34/34 33/33/33 35/35/35
f 34/34/34 35/35/35 36/36/36
f 47/47/47 48/48/48 45/45/45
f 45/45/45 48/48/48 44/44/44
f 45/45/45 44/44/44 46/46/46
f 48/48/48 41/41/41 44/44/44
f 44/44/44 41/41/41 40/40/40
f 40/40/40 41/41/41 42/42/42
f 40/40/40 42/42/42 43/43/43

