#
# OBJECT NAME
#
o model_3114
mtllib 3114.mtl

#
# VERTEX BUFFER 000
#
v 1.15808 0.0897112 0.822634
v 1.07071 0.333343 0.842495
v 0.737759 0.167801 1.16341
v -1.04914 -0.0834808 -0.830319
v -0.455015 -0.104919 -1.27872
v -0.700757 -0.114365 -0.317064
v 0.467723 0.124372 1.32607
v 0.484612 -0.0383054 1.26526
v 0.877625 0.517208 0.556412
v 1.28791 0.339245 0.476732
v 1.17476 0.499428 -0.0114803
v 0.97855 -0.086525 0.929328
v 1.23044 -0.0852318 0.476168
v 0.461047 -0.113777 0.458814
v 1.40984 0.25 -0.0564134
v 1.32667 0.397552 -0.0203153
v -0.975228 0.108002 -1.07605
v 0.125378 -0.0853853 1.307
v -1.36598 0.0516968 -0.416812
v -1.20161 0.0798798 -0.764748
v 0.223867 -0.109604 -0.775517
v 0.735861 -0.121155 -0.258673
v 0.461047 -0.113777 0.458814
v -1.16974 0.504242 -0.526976
v -0.99478 0.280701 -1.05792
v -1.20113 0.297997 -0.753835
v -0.126522 -0.113953 0.731135
v -1.20113 0.297997 -0.753835
v -0.99478 0.280701 -1.05792
v 1.28791 0.339245 0.476732
v 0.461047 -0.113777 0.458814
v 0.492542 0.533201 0.911504
v 0.668539 0.356443 1.1832
v 1.07071 0.333343 0.842495
v 1.37527 0.187057 0.231671
v 1.34209 -0.0360413 -0.187426
v 0.735861 -0.121155 -0.258673
v 0.668539 0.356443 1.1832
v 0.217453 0.28002 1.35172
v -0.27195 0.25 1.35428
v -0.238079 -0.0890846 1.28493
v -0.696152 0.25 1.1984
v -0.126522 -0.113953 0.731135
v -0.0774682 -0.125 -0.298759
v 0.461047 -0.113777 0.458814
v -1.30623 -0.0998688 -0.37786
v -0.283835 0.56385 0.571388
v -0.0928487 0.522286 -0.292387
v -0.781286 0.560352 -0.15441
v 0.444911 0.603584 -0.598456
v 0.784976 0.61253 0.034528
v -0.27195 0.25 1.35428
v 0.0280817 0.56139 1.05484
v -0.391265 0.578934 1.08409
v 0.275688 0.600435 0.658512
v -0.69924 -0.115753 0.257366
v -0.700757 -0.114365 -0.317064
v -0.69924 -0.115753 0.257366
v -1.33871 -0.0917053 0.183159
v -1.14285 -0.0891418 0.738499
v -0.784551 -0.0884018 1.09378
v -1.14215 0.124374 0.869771
v -1.4147 0.109222 0.165157
v 0.217453 0.28002 1.35172
v 0.217453 0.28002 1.35172
v -0.696152 0.25 1.1984
v -0.882326 0.371128 1.02964
v -1.36886 0.25 -0.445364
v -1.07449 0.588723 -0.128381
v -0.670757 0.605858 0.513375
v -1.38843 0.392914 0.141282
v -1.04998 0.559601 0.520197
v -1.24437 0.361618 0.621898
v 0.885723 0.407562 -0.974464
v 0.835685 0.529053 -0.866214
v 1.1292 0.43045 -0.622046
v -1.34881 0.113419 0.461144
v -1.34881 0.113419 0.461144
v -1.14215 0.124374 0.869771
v 1.04121 0.514786 -0.472572
v 0.567408 0.59819 -0.866482
v 0.566627 0.506836 -1.12185
v -0.0955404 0.486069 -1.27248
v 0.209576 0.609589 -1.10157
v 0.0827286 0.34929 -1.38544
v -0.466 0.00799561 -1.34726
v -1.36886 0.25 -0.445364
v -1.4147 0.109222 0.165157
v -0.650261 0.388611 -1.21787
v -1.33894 0.380569 -0.40125
v -0.456346 0.25 -1.37464
v -0.0774682 -0.125 -0.298759
v 1.40984 0.25 -0.0564134
v -0.456346 0.25 -1.37464
v 0.217453 0.28002 1.35172
v 1.07071 0.333343 0.842495
v 0.516474 0.0594333 -1.31666
v 0.273648 0.25 -1.404
v 0.812628 0.25 -1.20556
v 0.877625 0.517208 0.556412
v 0.969058 -0.0954437 -0.604697
v 0.223867 -0.109604 -0.775517
v -0.548992 0.5 -1.10023
v 1.33555 0.117828 -0.466945
v 0.273648 0.25 -1.404
v 1.13465 0.0176849 -0.830752
v 1.25662 0.25 -0.691586
v 0.224525 -0.0936584 -1.33998
v 1.25662 0.25 -0.691586
v -0.813106 0.609589 -0.655181
v 0.812628 0.25 -1.20556
v 0.242848 0.0620144 -1.41747
v 0.242848 0.0620144 -1.41747
v 1.04121 0.514786 -0.472572

vn 0.743164 -0.232544 0.626465
vn 0.683594 0.164551 0.710938
vn 0.584961 -0.00630569 0.810547
vn -0.178345 -0.971191 -0.157227
vn -0.0825195 -0.981934 -0.168335
vn -0.0295715 -0.999023 -0.0125046
vn 0.36377 -0.0899048 0.926758
vn 0.209351 -0.890137 0.404053
vn 0.389648 0.879395 0.271973
vn 0.525391 0.794922 0.302979
vn 0.438965 0.898438 0.000498772
vn 0.234619 -0.931152 0.278564
vn 0.347412 -0.929199 0.122559
vn 0.0226593 -0.998535 0.0390015
vn 0.975586 0.190308 -0.10675
vn 0.754395 0.65332 -0.0593872
vn -0.657227 -0.265137 -0.705078
vn 0.0654297 -0.948242 0.309326
vn -0.945801 -0.192627 -0.26001
vn -0.833496 -0.196045 -0.515625
vn 0.015274 -0.999512 -0.0258484
vn 0.033783 -0.999023 -0.0152969
vn 0.0321045 -0.999023 0.0177307
vn -0.508301 0.819336 -0.26416
vn -0.702148 0.291504 -0.649414
vn -0.830078 0.275146 -0.484375
vn -0.00837708 -0.999023 0.0328674
vn -0.830078 0.275146 -0.484375
vn -0.702148 0.291504 -0.649414
vn 0.525391 0.794922 0.302979
vn 0.0321045 -0.999023 0.0177307
vn 0.212524 0.90332 0.371826
vn 0.294922 0.776855 0.555664
vn 0.449951 0.805176 0.385986
vn 0.96875 -0.157715 0.189453
vn 0.525391 -0.847168 -0.074707
vn 0.033783 -0.999023 -0.0152969
vn 0.294922 0.776855 0.555664
vn 0.161133 0.446045 0.879883
vn -0.110046 0.322021 0.939941
vn -0.0430908 -0.955566 0.290039
vn -0.466064 0.26709 0.843262
vn -0.00837708 -0.999023 0.0328674
vn -0.00306702 -0.999512 -0.0126114
vn 0.0226593 -0.998535 0.0390015
vn -0.227905 -0.972168 -0.0531921
vn -0.0385742 0.995605 -0.0807495
vn -0.0405884 0.996094 0.0736694
vn 0.144775 0.98877 0.0218353
vn -0.0563354 0.995605 0.0680542
vn 0.0692749 0.99707 -0.0179443
vn -0.110046 0.322021 0.939941
vn 0.147949 0.865723 0.478027
vn -0.128418 0.914063 0.383545
vn -0.000844002 0.999023 0.0365295
vn -0.0237122 -0.999512 0.0126648
vn -0.0295715 -0.999023 -0.0125046
vn -0.0237122 -0.999512 0.0126648
vn -0.296387 -0.95459 0.028183
vn -0.28125 -0.943359 0.173096
vn -0.189087 -0.943359 0.271484
vn -0.759277 -0.189331 0.62207
vn -0.994629 -0.0807495 0.0643311
vn 0.205078 0.674805 0.708496
vn 0.161133 0.446045 0.879883
vn -0.466064 0.26709 0.843262
vn -0.452148 0.73291 0.507324
vn -0.953613 0.0946655 -0.28418
vn -0.195801 0.979492 -0.0381165
vn 0.04599 0.998535 -0.0241089
vn -0.763184 0.644531 0.0372925
vn -0.344727 0.919922 0.186157
vn -0.703125 0.62793 0.332275
vn 0.527832 0.649902 -0.545898
vn 0.406494 0.855469 -0.319092
vn 0.550781 0.799805 -0.237793
vn -0.957031 -0.110107 0.26709
vn -0.957031 -0.110107 0.26709
vn -0.759277 -0.189331 0.62207
vn 0.526855 0.833984 -0.1604
vn 0.168945 0.974609 -0.146484
vn 0.348633 0.723633 -0.595215
vn -0.130371 0.752441 -0.64502
vn 0.0137024 0.977051 -0.21228
vn -0.00968933 0.443848 -0.895996
vn -0.262939 -0.265137 -0.927246
vn -0.953613 0.0946655 -0.28418
vn -0.994629 -0.0807495 0.0643311
vn -0.327881 0.697754 -0.63623
vn -0.833496 0.524414 -0.172607
vn -0.186279 0.238892 -0.952637
vn -0.00306702 -0.999512 -0.0126114
vn 0.975586 0.190308 -0.10675
vn -0.186279 0.238892 -0.952637
vn 0.205078 0.674805 0.708496
vn 0.449951 0.805176 0.385986
vn 0.427246 -0.549805 -0.717285
vn 0.125854 0.0167389 -0.991699
vn 0.603516 0.038208 -0.795898
vn 0.185425 0.972168 0.141235
vn 0.173218 -0.976563 -0.126221
vn 0.015274 -0.999512 -0.0258484
vn -0.238892 0.875 -0.419922
vn 0.9375 -0.207642 -0.277832
vn 0.125854 0.0167389 -0.991699
vn 0.484863 -0.779297 -0.396729
vn 0.881348 0.253174 -0.398438
vn 0.0834351 -0.951172 -0.296387
vn 0.881348 0.253174 -0.398438
vn -0.0818481 0.995605 -0.039093
vn 0.603516 0.038208 -0.795898
vn -0.0544739 -0.153076 -0.986328
vn 0.334717 -0.227173 -0.914063
vn 0.230835 0.970215 -0.0703735

vt 0.608319 0.34716
vt 0.586605 0.279385
vt 0.488698 0.289871
vt 0.279543 0.833745
vt 0.408897 0.862053
vt 0.293705 0.748882
vt 0.414432 0.283519
vt 0.431307 0.334709
vt 0.570594 0.39556
vt 0.691877 0.344289
vt 0.670057 0.485714
vt 0.553248 0.378077
vt 0.645455 0.42464
vt 0.48721 0.471141
vt 0.769646 0.459266
vt 0.715262 0.46717
vt 0.302769 0.934638
vt 0.351441 0.34976
vt 0.15532 0.799351
vt 0.221838 0.87375
vt 0.928106 0.323883
vt 0.999524 0.165799
vt 0.880684 0.0309365
vt 0.216017 0.80411
vt 0.2955 0.955543
vt 0.206172 0.886806
vt 0.33507 0.461306
vt 0.206172 0.886806
vt 0.2955 0.955543
vt 0.691877 0.344289
vt 0.48721 0.471141
vt 0.444596 0.368639
vt 0.481878 0.246522
vt 0.586605 0.279385
vt 0.712472 0.412321
vt 0.720987 0.542567
vt 0.606049 0.606003
vt 0.481878 0.246522
vt 0.397978 0.23457
vt 0.295264 0.254704
vt 0.218995 0.363588
vt 0.125409 0.390858
vt 0.728544 0.021102
vt 0.822984 0.24491
vt 0.880684 0.0309365
vt 0.195351 0.77108
vt 0.311016 0.511665
vt 0.427551 0.671966
vt 0.270869 0.707618
vt 0.569989 0.683451
vt 0.587541 0.517858
vt 0.295264 0.254704
vt 0.334463 0.381053
vt 0.244057 0.413669
vt 0.421032 0.440375
vt 0.640858 0.175123
vt 0.687179 0.308678
vt 0.247383 0.615328
vt 0.171951 0.669852
vt 0.129762 0.564704
vt 0.195157 0.470433
vt 0.0734254 0.524395
vt 0.0642173 0.695013
vt 0.397978 0.23457
vt 0.397978 0.23457
vt 0.125409 0.390858
vt 0.134376 0.469093
vt 0.125181 0.823976
vt 0.207998 0.727318
vt 0.234391 0.558512
vt 0.112267 0.678174
vt 0.151932 0.59323
vt 0.0977967 0.588412
vt 0.727717 0.712534
vt 0.679635 0.694924
vt 0.728129 0.612275
vt 0.0619267 0.622591
vt 0.0619267 0.622591
vt 0.0734254 0.524395
vt 0.691613 0.594177
vt 0.619974 0.724885
vt 0.663816 0.768555
vt 0.518339 0.864998
vt 0.564699 0.806612
vt 0.576849 0.910412
vt 0.426526 0.920915
vt 0.125181 0.823976
vt 0.0642173 0.695013
vt 0.38941 0.922529
vt 0.15295 0.786286
vt 0.463753 0.969107
vt 0.42951 0.685114
vt 0.769646 0.459266
vt 0.463753 0.969107
vt 0.397978 0.23457
vt 0.586605 0.279385
vt 0.632563 0.842135
vt 0.631052 0.910977
vt 0.767212 0.773564
vt 0.570594 0.39556
vt 0.659059 0.651167
vt 0.53463 0.764199
vt 0.405797 0.8753
vt 0.762881 0.594055
vt 0.631052 0.910977
vt 0.725353 0.683284
vt 0.785943 0.611063
vt 0.573093 0.855829
vt 0.785943 0.611063
vt 0.309461 0.811836
vt 0.767212 0.773564
vt 0.596354 0.881209
vt 0.596354 0.881209
vt 0.691613 0.594177


#
# MESH 000
#
g surface_000
usemtl surface_000
f 21/21/21 22/22/22 23/23/23
f 112/112/112 91/91/91 98/98/98
f 86/86/86 91/91/91 112/112/112
f 91/91/91 86/86/86 17/17/17
f 17/17/17 29/29/29 91/91/91
f 20/20/20 29/29/29 17/17/17
f 20/20/20 28/28/28 29/29/29
f 68/68/68 28/28/28 20/20/20
f 108/108/108 86/86/86 112/112/112
f 5/5/5 86/86/86 108/108/108
f 5/5/5 17/17/17 86/86/86
f 17/17/17 5/5/5 4/4/4
f 4/4/4 20/20/20 17/17/17
f 19/19/19 20/20/20 4/4/4
f 68/68/68 20/20/20 19/19/19
f 68/68/68 19/19/19 63/63/63
f 63/63/63 19/19/19 46/46/46
f 63/63/63 46/46/46 59/59/59
f 77/77/77 63/63/63 59/59/59
f 5/5/5 108/108/108 102/102/102
f 102/102/102 92/92/92 5/5/5
f 5/5/5 92/92/92 6/6/6
f 4/4/4 5/5/5 6/6/6
f 46/46/46 4/4/4 6/6/6
f 19/19/19 4/4/4 46/46/46
f 102/102/102 108/108/108 101/101/101
f 101/101/101 37/37/37 102/102/102
f 101/101/101 36/36/36 37/37/37
f 36/36/36 13/13/13 37/37/37
f 37/37/37 13/13/13 31/31/31
f 31/31/31 13/13/13 12/12/12
f 108/108/108 106/106/106 101/101/101
f 101/101/101 106/106/106 36/36/36
f 36/36/36 106/106/106 104/104/104
f 35/35/35 36/36/36 104/104/104
f 35/35/35 13/13/13 36/36/36
f 13/13/13 35/35/35 30/30/30
f 13/13/13 30/30/30 1/1/1
f 1/1/1 12/12/12 13/13/13
f 108/108/108 97/97/97 106/106/106
f 106/106/106 97/97/97 99/99/99
f 106/106/106 99/99/99 107/107/107
f 104/104/104 106/106/106 107/107/107
f 107/107/107 93/93/93 104/104/104
f 104/104/104 93/93/93 35/35/35
f 35/35/35 93/93/93 30/30/30
f 108/108/108 113/113/113 97/97/97
f 97/97/97 113/113/113 98/98/98
f 97/97/97 98/98/98 99/99/99
f 30/30/30 2/2/2 1/1/1
f 1/1/1 2/2/2 3/3/3
f 3/3/3 12/12/12 1/1/1
f 3/3/3 8/8/8 12/12/12
f 12/12/12 8/8/8 14/14/14
f 14/14/14 8/8/8 18/18/18
f 14/14/14 18/18/18 27/27/27
f 18/18/18 41/41/41 27/27/27
f 58/58/58 27/27/27 41/41/41
f 7/7/7 8/8/8 3/3/3
f 18/18/18 8/8/8 7/7/7
f 18/18/18 7/7/7 39/39/39
f 39/39/39 40/40/40 18/18/18
f 18/18/18 40/40/40 41/41/41
f 41/41/41 40/40/40 42/42/42
f 41/41/41 42/42/42 61/61/61
f 58/58/58 41/41/41 61/61/61
f 7/7/7 3/3/3 38/38/38
f 38/38/38 95/95/95 7/7/7
f 3/3/3 96/96/96 38/38/38
f 42/42/42 62/62/62 61/61/61
f 62/62/62 60/60/60 61/61/61
f 61/61/61 60/60/60 58/58/58
f 58/58/58 60/60/60 59/59/59
f 6/6/6 58/58/58 59/59/59
f 59/59/59 46/46/46 6/6/6
f 77/77/77 60/60/60 62/62/62
f 59/59/59 60/60/60 77/77/77
f 65/65/65 53/53/53 52/52/52
f 52/52/52 53/53/53 54/54/54
f 54/54/54 66/66/66 52/52/52
f 66/66/66 54/54/54 67/67/67
f 66/66/66 67/67/67 79/79/79
f 79/79/79 67/67/67 73/73/73
f 78/78/78 79/79/79 73/73/73
f 55/55/55 54/54/54 53/53/53
f 47/47/47 54/54/54 55/55/55
f 70/70/70 54/54/54 47/47/47
f 54/54/54 70/70/70 72/72/72
f 54/54/54 72/72/72 67/67/67
f 67/67/67 72/72/72 73/73/73
f 72/72/72 71/71/71 73/73/73
f 78/78/78 73/73/73 71/71/71
f 78/78/78 71/71/71 88/88/88
f 87/87/87 88/88/88 71/71/71
f 53/53/53 32/32/32 55/55/55
f 32/32/32 100/100/100 55/55/55
f 55/55/55 100/100/100 51/51/51
f 55/55/55 51/51/51 47/47/47
f 47/47/47 51/51/51 48/48/48
f 47/47/47 48/48/48 49/49/49
f 70/70/70 47/47/47 49/49/49
f 49/49/49 69/69/69 70/70/70
f 70/70/70 69/69/69 72/72/72
f 69/69/69 71/71/71 72/72/72
f 64/64/64 32/32/32 53/53/53
f 32/32/32 64/64/64 33/33/33
f 32/32/32 33/33/33 34/34/34
f 34/34/34 9/9/9 32/32/32
f 34/34/34 10/10/10 9/9/9
f 9/9/9 10/10/10 11/11/11
f 10/10/10 16/16/16 11/11/11
f 16/16/16 76/76/76 11/11/11
f 11/11/11 76/76/76 80/80/80
f 80/80/80 76/76/76 75/75/75
f 15/15/15 16/16/16 10/10/10
f 109/109/109 16/16/16 15/15/15
f 76/76/76 16/16/16 109/109/109
f 74/74/74 76/76/76 109/109/109
f 74/74/74 75/75/75 76/76/76
f 82/82/82 75/75/75 74/74/74
f 81/81/81 75/75/75 82/82/82
f 51/51/51 75/75/75 81/81/81
f 51/51/51 114/114/114 75/75/75
f 51/51/51 11/11/11 114/114/114
f 51/51/51 100/100/100 11/11/11
f 109/109/109 111/111/111 74/74/74
f 74/74/74 111/111/111 105/105/105
f 74/74/74 105/105/105 82/82/82
f 82/82/82 105/105/105 85/85/85
f 85/85/85 84/84/84 82/82/82
f 82/82/82 84/84/84 81/81/81
f 50/50/50 81/81/81 84/84/84
f 81/81/81 50/50/50 51/51/51
f 50/50/50 48/48/48 51/51/51
f 110/110/110 48/48/48 50/50/50
f 49/49/49 48/48/48 110/110/110
f 110/110/110 69/69/69 49/49/49
f 85/85/85 105/105/105 94/94/94
f 94/94/94 89/89/89 85/85/85
f 89/89/89 83/83/83 85/85/85
f 83/83/83 84/84/84 85/85/85
f 103/103/103 84/84/84 83/83/83
f 103/103/103 110/110/110 84/84/84
f 50/50/50 84/84/84 110/110/110
f 89/89/89 94/94/94 25/25/25
f 89/89/89 25/25/25 24/24/24
f 24/24/24 103/103/103 89/89/89
f 103/103/103 83/83/83 89/89/89
f 24/24/24 25/25/25 26/26/26
f 24/24/24 26/26/26 90/90/90
f 24/24/24 90/90/90 69/69/69
f 69/69/69 110/110/110 24/24/24
f 103/103/103 24/24/24 110/110/110
f 87/87/87 90/90/90 26/26/26
f 90/90/90 87/87/87 71/71/71
f 71/71/71 69/69/69 90/90/90
f 44/44/44 56/56/56 57/57/57
f 43/43/43 56/56/56 44/44/44
f 43/43/43 44/44/44 45/45/45
f 45/45/45 44/44/44 21/21/21

