#
# OBJECT NAME
#
o model_2287
mtllib 2287.mtl

#
# VERTEX BUFFER 000
#
v -0.0909427 0 -0.339403
v 0 0 0
v -0.339403 0 -0.0909427
v 0.0909427 0 0.339403
v -0.24846 0 0.24846
v 0.24846 0 -0.24846
v 0.339403 0 0.0909427
v 0 0 0
v -0.0909427 0 -0.339403
v 0.0909427 0 0.339403
v 0.603454 0.737972 -1.04521
v 0 0.906855 0
v 1.04521 0.737972 -0.603454
v 0 0.737972 -1.20691
v -0.603454 0.737972 -1.04521
v -1.04521 0.737972 -0.603454
v -1.20691 0.737972 0
v -1.04521 0.737972 0.603454
v -0.603454 0.737972 1.04521
v 0 0.737972 1.20691
v 0.603454 0.737972 1.04521
v 1.04521 0.737972 0.603454
v 1.20691 0.737972 0
v 0.783455 0.576178 -1.35698
v 1.35698 0.576178 -0.783455
v 1.41217 0.427886 -0.815317
v 0.815317 0.427886 -1.41217
v 1.56691 0.576178 0
v 1.63063 0.427886 0
v 0 0.576178 -1.56691
v 0 0.427886 -1.63063
v -0.783455 0.576178 -1.35698
v -0.815317 0.427886 -1.41217
v -1.35698 0.576178 -0.783455
v -1.41217 0.427886 -0.815317
v -1.56691 0.576178 0
v -1.63063 0.427886 0
v -1.35698 0.576178 0.783455
v -1.41217 0.427886 0.815317
v -0.783455 0.576178 1.35698
v -0.815317 0.427886 1.41217
v 0 0.576178 1.56691
v 0 0.427886 1.63063
v 0.783455 0.576178 1.35698
v 0.815317 0.427886 1.41217
v 1.35698 0.576178 0.783455
v 1.41217 0.427886 0.815317
v 1.41217 0.427886 -0.815317
v 1.63063 0.427886 0
v 1.30399 0.31604 0
v 1.12929 0.31604 -0.651994
v 1.41217 0.427886 0.815317
v 1.12929 0.31604 0.651994
v 0.815317 0.427886 1.41217
v 0.651994 0.31604 1.12929
v 0 0.427886 1.63063
v 0 0.31604 1.30399
v 0 0.427886 1.63063
v -0.815317 0.427886 1.41217
v -0.651994 0.31604 1.12929
v 0 0.31604 1.30399
v -1.41217 0.427886 0.815317
v -1.12929 0.31604 0.651994
v -1.63063 0.427886 0
v -1.30399 0.31604 0
v -1.41217 0.427886 -0.815317
v -1.12929 0.31604 -0.651994
v -0.815317 0.427886 -1.41217
v -0.651994 0.31604 -1.12929
v 0 0.427886 -1.63063
v 0 0.31604 -1.30399
v 0 0.427886 -1.63063
v 0.815317 0.427886 -1.41217
v 0.651994 0.31604 -1.12929
v 0 0.31604 -1.30399
v 0.24846 0 -0.24846
v 0.526337 0.290309 -0.303881
v 0.607762 0.290309 0
v 0.339403 0 0.0909427
v -0.0909427 0 -0.339403
v 0 0.290309 -0.607762
v 0.303881 0.290309 -0.526337
v -0.0909427 0 -0.339403
v -0.303881 0.290309 -0.526337
v 0 0.290309 -0.607762
v -0.339403 0 -0.0909427
v -0.526337 0.290309 -0.303881
v 0.0909427 0 0.339403
v 0 0.290309 0.607762
v -0.303881 0.290309 0.526337
v -0.24846 0 0.24846
v 0 0.290309 -0.607762
v -0.303881 0.290309 -0.526337
v -0.651994 0.31604 -1.12929
v 0 0.31604 -1.30399
v 0.303881 0.290309 -0.526337
v 0 0.290309 -0.607762
v 0 0.31604 -1.30399
v 0.651994 0.31604 -1.12929
v 1.12929 0.31604 -0.651994
v 0.526337 0.290309 -0.303881
v 0.607762 0.290309 0
v 1.30399 0.31604 0
v 0.526337 0.290309 0.303881
v 1.12929 0.31604 0.651994
v 0.303881 0.290309 0.526337
v 0.651994 0.31604 1.12929
v 0 0.290309 0.607762
v 0 0.31604 1.30399
v -0.303881 0.290309 0.526337
v 0 0.290309 0.607762
v 0 0.31604 1.30399
v -0.651994 0.31604 1.12929
v -0.526337 0.290309 0.303881
v -1.12929 0.31604 0.651994
v -0.607762 0.290309 0
v -1.30399 0.31604 0
v -0.526337 0.290309 -0.303881
v -1.12929 0.31604 -0.651994
v 0.303881 0.290309 -0.526337
v 0.526337 0.290309 0.303881
v 0.303881 0.290309 0.526337
v 0.526337 0.290309 0.303881
v 0 0.290309 0.607762
v -0.526337 0.290309 0.303881
v -0.607762 0.290309 0
v -0.526337 0.290309 0.303881
v -0.526337 0.290309 -0.303881

vn 0 -1 0
vn 0 -1 0
vn 0 -1 0
vn 0 -1 0
vn 0 -1 0
vn 0 -1 0
vn 0 -1 0
vn 0 -1 0
vn 0 -1 0
vn 0 -1 0
vn 0.139404 0.959961 -0.241455
vn 0 1 0
vn 0.241455 0.959961 -0.139404
vn 0 0.959961 -0.278809
vn -0.139404 0.959961 -0.241455
vn -0.241455 0.959961 -0.139404
vn -0.278809 0.959961 0
vn -0.241455 0.959961 0.139404
vn -0.139404 0.959961 0.241455
vn 0 0.959961 0.278809
vn 0.139404 0.959961 0.241455
vn 0.241455 0.959961 0.139404
vn 0.278809 0.959961 0
vn 0.319824 0.768555 -0.553711
vn 0.553711 0.768555 -0.319824
vn 0.657227 -0.650879 -0.379395
vn 0.379395 -0.650879 -0.657227
vn 0.639648 0.768555 0
vn 0.758789 -0.650879 0
vn 0 0.768555 -0.639648
vn 0 -0.650879 -0.758789
vn -0.319824 0.768555 -0.553711
vn -0.379395 -0.650879 -0.657227
vn -0.553711 0.768555 -0.319824
vn -0.657227 -0.650879 -0.379395
vn -0.639648 0.768555 0
vn -0.758789 -0.650879 0
vn -0.553711 0.768555 0.319824
vn -0.657227 -0.650879 0.379395
vn -0.319824 0.768555 0.553711
vn -0.379395 -0.650879 0.657227
vn 0 0.768555 0.639648
vn 0 -0.650879 0.758789
vn 0.319824 0.768555 0.553711
vn 0.379395 -0.650879 0.657227
vn 0.553711 0.768555 0.319824
vn 0.657227 -0.650879 0.379395
vn 0.657227 -0.650879 -0.379395
vn 0.758789 -0.650879 0
vn 0.32373 -0.945801 0
vn 0.280518 -0.945801 -0.161865
vn 0.657227 -0.650879 0.379395
vn 0.280518 -0.945801 0.161865
vn 0.379395 -0.650879 0.657227
vn 0.161865 -0.945801 0.280518
vn 0 -0.650879 0.758789
vn 0 -0.945801 0.32373
vn 0 -0.650879 0.758789
vn -0.379395 -0.650879 0.657227
vn -0.161865 -0.945801 0.280518
vn 0 -0.945801 0.32373
vn -0.657227 -0.650879 0.379395
vn -0.280518 -0.945801 0.161865
vn -0.758789 -0.650879 0
vn -0.32373 -0.945801 0
vn -0.657227 -0.650879 -0.379395
vn -0.280518 -0.945801 -0.161865
vn -0.379395 -0.650879 -0.657227
vn -0.161865 -0.945801 -0.280518
vn 0 -0.650879 -0.758789
vn 0 -0.945801 -0.32373
vn 0 -0.650879 -0.758789
vn 0.379395 -0.650879 -0.657227
vn 0.161865 -0.945801 -0.280518
vn 0 -0.945801 -0.32373
vn 0.707031 0 -0.707031
vn 0.725098 0 -0.687988
vn 0.972168 0 0.233276
vn 0.96582 0 0.258789
vn -0.258789 0 -0.96582
vn -0.233276 0 -0.972168
vn 0.687988 0 -0.725098
vn -0.258789 0 -0.96582
vn -0.283936 0 -0.958496
vn -0.258789 0 -0.96582
vn -0.96582 0 -0.258789
vn -0.958496 0 -0.283936
vn 0.258789 0 0.96582
vn 0.233276 0 0.972168
vn -0.687988 0 0.725098
vn -0.707031 0 0.707031
vn -0.258789 0 -0.96582
vn -0.283936 0 -0.958496
vn -0.258789 0 -0.96582
vn -0.258789 0 -0.96582
vn 0.687988 0 -0.725098
vn -0.258789 0 -0.96582
vn -0.258789 0 -0.96582
vn 0.707031 0 -0.707031
vn 0.707031 0 -0.707031
vn 0.725098 0 -0.687988
vn 0.972168 0 0.233276
vn 0.96582 0 0.258789
vn 0.96582 0 0.258789
vn 0.96582 0 0.258789
vn 0.283936 0 0.958496
vn 0.258789 0 0.96582
vn 0.258789 0 0.96582
vn 0.258789 0 0.96582
vn -0.687988 0 0.725098
vn 0.258789 0 0.96582
vn 0.258789 0 0.96582
vn -0.707031 0 0.707031
vn -0.707031 0 0.707031
vn -0.707031 0 0.707031
vn -0.972168 0 -0.233276
vn -0.96582 0 -0.258789
vn -0.96582 0 -0.258789
vn -0.96582 0 -0.258789
vn 0.707031 0 -0.707031
vn 0.958496 0 0.283936
vn 0.283936 0 0.958496
vn 0.96582 0 0.258789
vn 0.258789 0 0.96582
vn -0.725098 0 0.687988
vn -0.972168 0 -0.233276
vn -0.707031 0 0.707031
vn -0.96582 0 -0.258789

vt 0.795601 0.387364
vt 0.76964 0.205435
vt 0.969026 0.254002
vt 0.818279 0.0288389
vt 0.913175 0.0745683
vt 0.916829 0.333094
vt 0.969563 0.158626
vt 0.76964 0.205435
vt 0.795601 0.387364
vt 0.818279 0.0288389
vt 0.509121 0.786796
vt 0.399799 0.597446
vt 0.58915 0.706767
vt 0.399799 0.816089
vt 0.290477 0.786796
vt 0.210448 0.706767
vt 0.181156 0.597445
vt 0.210448 0.488124
vt 0.290477 0.408095
vt 0.399799 0.378802
vt 0.509121 0.408095
vt 0.58915 0.488124
vt 0.618442 0.597445
vt 0.555999 0.867992
vt 0.670345 0.753645
vt 0.724131 0.784699
vt 0.587052 0.921778
vt 0.712199 0.597445
vt 0.774306 0.597445
vt 0.399799 0.909845
vt 0.399799 0.971952
vt 0.243599 0.867992
vt 0.212546 0.921778
vt 0.129253 0.753645
vt 0.0754668 0.784699
vt 0.087399 0.597445
vt 0.0252925 0.597445
vt 0.129253 0.441245
vt 0.0754668 0.410192
vt 0.243599 0.326899
vt 0.212546 0.273113
vt 0.399799 0.285045
vt 0.399799 0.222939
vt 0.555999 0.326899
vt 0.587052 0.273113
vt 0.670345 0.441245
vt 0.724131 0.410192
vt 0.929627 0.935323
vt 0.980001 0.812677
vt 0.957063 0.812755
vt 0.914692 0.915786
vt 0.935158 0.706393
vt 0.919097 0.722244
vt 0.883542 0.666041
vt 0.873823 0.687251
vt 0.812609 0.657434
vt 0.8126 0.67947
vt 0.812609 0.657434
vt 0.883542 0.666041
vt 0.873823 0.687251
vt 0.8126 0.67947
vt 0.935158 0.706393
vt 0.919097 0.722244
vt 0.980001 0.812677
vt 0.957063 0.812755
vt 0.929627 0.935323
vt 0.914692 0.915786
vt 0.878203 0.964431
vt 0.86975 0.944392
vt 0.812609 0.968755
vt 0.8126 0.948553
vt 0.812609 0.968755
vt 0.878203 0.964431
vt 0.86975 0.944392
vt 0.8126 0.948553
vt 0.64619 0.00488317
vt 0.616679 0.0916749
vt 0.556306 0.0916749
vt 0.526249 0.00488234
vt 0.737431 0.00488371
vt 0.737425 0.0916749
vt 0.677368 0.0916749
vt 0.0275071 0.00488192
vt 0.0730068 0.0916749
vt 0.0129502 0.0916749
vt 0.162881 0.00488192
vt 0.133696 0.0916749
vt 0.402604 0.00488216
vt 0.375187 0.0916749
vt 0.314815 0.0916749
vt 0.286764 0.00488204
vt 0.812609 0.908172
vt 0.853072 0.90387
vt 0.86975 0.944392
vt 0.8126 0.948553
vt 0.853072 0.90387
vt 0.812609 0.908172
vt 0.8126 0.948553
vt 0.86975 0.944392
vt 0.914692 0.915786
vt 0.885363 0.872445
vt 0.910133 0.812677
vt 0.957063 0.812755
vt 0.887057 0.755796
vt 0.919097 0.722244
vt 0.853963 0.73159
vt 0.873823 0.687251
vt 0.812609 0.725111
vt 0.8126 0.67947
vt 0.853963 0.73159
vt 0.812609 0.725111
vt 0.8126 0.67947
vt 0.873823 0.687251
vt 0.887057 0.755796
vt 0.919097 0.722244
vt 0.910134 0.812677
vt 0.957063 0.812755
vt 0.885363 0.872445
vt 0.914692 0.915786
vt 0.677368 0.0916749
vt 0.495933 0.0916749
vt 0.43556 0.0916749
vt 0.495933 0.0916749
vt 0.375187 0.0916749
vt 0.254442 0.0916749
vt 0.194069 0.0916749
vt 0.254442 0.0916749
vt 0.133696 0.0916749


#
# MESH 000
#
g surface_000
usemtl surface_000
f 7/7/7 10/10/10 8/8/8
f 6/6/6 7/7/7 8/8/8
f 9/9/9 6/6/6 8/8/8
f 4/4/4 5/5/5 2/2/2
f 5/5/5 3/3/3 2/2/2
f 1/1/1 2/2/2 3/3/3
f 72/72/72 74/74/74 75/75/75
f 72/72/72 73/73/73 74/74/74
f 73/73/73 51/51/51 74/74/74
f 73/73/73 48/48/48 51/51/51
f 48/48/48 50/50/50 51/51/51
f 48/48/48 49/49/49 50/50/50
f 49/49/49 53/53/53 50/50/50
f 49/49/49 52/52/52 53/53/53
f 52/52/52 55/55/55 53/53/53
f 52/52/52 54/54/54 55/55/55
f 54/54/54 57/57/57 55/55/55
f 54/54/54 56/56/56 57/57/57
f 68/68/68 70/70/70 71/71/71
f 68/68/68 71/71/71 69/69/69
f 66/66/66 68/68/68 69/69/69
f 66/66/66 69/69/69 67/67/67
f 64/64/64 66/66/66 67/67/67
f 64/64/64 67/67/67 65/65/65
f 62/62/62 64/64/64 65/65/65
f 62/62/62 65/65/65 63/63/63
f 59/59/59 62/62/62 63/63/63
f 59/59/59 63/63/63 60/60/60
f 58/58/58 59/59/59 60/60/60
f 58/58/58 60/60/60 61/61/61
f 28/28/28 47/47/47 29/29/29
f 28/28/28 46/46/46 47/47/47
f 46/46/46 45/45/45 47/47/47
f 46/46/46 44/44/44 45/45/45
f 44/44/44 43/43/43 45/45/45
f 44/44/44 42/42/42 43/43/43
f 42/42/42 41/41/41 43/43/43
f 26/26/26 28/28/28 29/29/29
f 26/26/26 25/25/25 28/28/28
f 28/28/28 25/25/25 13/13/13
f 28/28/28 13/13/13 23/23/23
f 22/22/22 28/28/28 23/23/23
f 22/22/22 46/46/46 28/28/28
f 21/21/21 46/46/46 22/22/22
f 21/21/21 44/44/44 46/46/46
f 24/24/24 25/25/25 26/26/26
f 13/13/13 25/25/25 24/24/24
f 13/13/13 24/24/24 11/11/11
f 11/11/11 12/12/12 13/13/13
f 13/13/13 12/12/12 23/23/23
f 23/23/23 12/12/12 22/22/22
f 22/22/22 12/12/12 21/21/21
f 21/21/21 12/12/12 20/20/20
f 20/20/20 44/44/44 21/21/21
f 20/20/20 42/42/42 44/44/44
f 24/24/24 26/26/26 27/27/27
f 30/30/30 24/24/24 27/27/27
f 11/11/11 24/24/24 30/30/30
f 11/11/11 30/30/30 14/14/14
f 14/14/14 12/12/12 11/11/11
f 30/30/30 27/27/27 31/31/31
f 32/32/32 30/30/30 31/31/31
f 14/14/14 30/30/30 32/32/32
f 14/14/14 32/32/32 15/15/15
f 15/15/15 12/12/12 14/14/14
f 16/16/16 12/12/12 15/15/15
f 17/17/17 12/12/12 16/16/16
f 18/18/18 12/12/12 17/17/17
f 19/19/19 12/12/12 18/18/18
f 20/20/20 12/12/12 19/19/19
f 32/32/32 31/31/31 33/33/33
f 34/34/34 32/32/32 33/33/33
f 15/15/15 32/32/32 34/34/34
f 15/15/15 34/34/34 16/16/16
f 16/16/16 34/34/34 36/36/36
f 16/16/16 36/36/36 17/17/17
f 17/17/17 36/36/36 38/38/38
f 17/17/17 38/38/38 18/18/18
f 18/18/18 38/38/38 40/40/40
f 18/18/18 40/40/40 19/19/19
f 19/19/19 40/40/40 42/42/42
f 19/19/19 42/42/42 20/20/20
f 34/34/34 33/33/33 35/35/35
f 36/36/36 34/34/34 35/35/35
f 36/36/36 35/35/35 37/37/37
f 38/38/38 36/36/36 37/37/37
f 38/38/38 37/37/37 39/39/39
f 40/40/40 38/38/38 39/39/39
f 40/40/40 39/39/39 41/41/41
f 42/42/42 40/40/40 41/41/41
f 86/86/86 126/126/126 128/128/128
f 91/91/91 126/126/126 86/86/86
f 91/91/91 125/125/125 126/126/126
f 91/91/91 90/90/90 127/127/127
f 88/88/88 90/90/90 91/91/91
f 88/88/88 89/89/89 90/90/90
f 88/88/88 122/122/122 124/124/124
f 79/79/79 122/122/122 88/88/88
f 79/79/79 121/121/121 122/122/122
f 79/79/79 78/78/78 123/123/123
f 76/76/76 78/78/78 79/79/79
f 76/76/76 77/77/77 78/78/78
f 76/76/76 120/120/120 77/77/77
f 110/110/110 111/111/111 112/112/112
f 110/110/110 112/112/112 113/113/113
f 114/114/114 110/110/110 113/113/113
f 114/114/114 113/113/113 115/115/115
f 116/116/116 114/114/114 115/115/115
f 116/116/116 115/115/115 117/117/117
f 118/118/118 116/116/116 117/117/117
f 118/118/118 117/117/117 119/119/119
f 93/93/93 118/118/118 119/119/119
f 93/93/93 119/119/119 94/94/94
f 92/92/92 93/93/93 94/94/94
f 92/92/92 94/94/94 95/95/95
f 108/108/108 107/107/107 109/109/109
f 108/108/108 106/106/106 107/107/107
f 106/106/106 105/105/105 107/107/107
f 106/106/106 104/104/104 105/105/105
f 104/104/104 103/103/103 105/105/105
f 104/104/104 102/102/102 103/103/103
f 102/102/102 100/100/100 103/103/103
f 102/102/102 101/101/101 100/100/100
f 100/100/100 101/101/101 96/96/96
f 100/100/100 96/96/96 99/99/99
f 96/96/96 98/98/98 99/99/99
f 96/96/96 97/97/97 98/98/98
f 83/83/83 86/86/86 87/87/87
f 83/83/83 87/87/87 84/84/84
f 83/83/83 84/84/84 85/85/85
f 80/80/80 82/82/82 76/76/76
f 80/80/80 81/81/81 82/82/82

