#
# OBJECT NAME
#
o model_2844
mtllib 2844.mtl

#
# VERTEX BUFFER 000
#
v 0.430888 0.0260249 0.0295753
v 0.474904 0.0700408 0.0295753
v -0.431376 0.975427 0.0295753
v -0.475392 0.931412 0.0295753
v -0.431376 0.975427 0.0295753
v 0.474904 0.0700408 0.0295753
v 0.474904 0.0700408 -0.0295753
v -0.431376 0.975427 -0.0295753
v 0.474904 0.0700408 -0.0295753
v 0.430888 0.0260249 -0.0295753
v -0.475392 0.931412 -0.0295753
v -0.431376 0.975427 -0.0295753
v -0.475392 0.931412 -0.0295753
v 0.430888 0.0260249 -0.0295753
v 0.430888 0.0260249 0.0295753
v -0.475392 0.931412 0.0295753
v 0.4768 0.929868 0.0331275
v 0.432785 0.973884 0.0331275
v -0.474796 0.0692617 0.0331278
v -0.43078 0.0252458 0.0331278
v -0.474796 0.0692617 0.0331278
v 0.432785 0.973884 0.0331275
v 0.432785 0.973884 -0.0331275
v -0.474796 0.0692617 -0.0331273
v 0.432785 0.973884 -0.0331275
v 0.4768 0.929868 -0.0331275
v -0.43078 0.0252458 -0.0331273
v -0.474796 0.0692617 -0.0331273
v -0.43078 0.0252458 -0.0331273
v 0.4768 0.929868 -0.0331275
v 0.4768 0.929868 0.0331275
v -0.43078 0.0252458 0.0331278
v 0.467593 0.0312565 0.0636755
v 0.467593 0.968744 0.0636755
v 0.467593 0.968744 -0.0636755
v 0.467593 0.0312565 -0.0636755
v 0.5 1 0.0636755
v 0.467593 0.968744 0.0636755
v 0.467593 0.0312565 0.0636755
v 0.5 0 0.0636755
v 0.467593 0.968744 0.0636755
v -0.467593 0.968744 0.0636755
v -0.467593 0.968744 -0.0636755
v 0.467593 0.968744 -0.0636755
v -0.5 1 0.0636755
v -0.5 1 -0.0636755
v -0.5 0 -0.0636755
v -0.5 0 0.0636755
v 0.5 1 0.0636755
v 0.5 1 -0.0636755
v -0.5 1 -0.0636755
v -0.5 1 0.0636755
v 0.467593 0.968744 0.0636755
v -0.5 1 0.0636755
v -0.467593 0.968744 0.0636755
v -0.5 1 -0.0636755
v -0.467593 0.968744 -0.0636755
v -0.467593 0.0312565 -0.0636755
v -0.5 0 -0.0636755
v -0.467593 0.0312565 0.0636755
v 0.467593 0.0312565 0.0636755
v 0.467593 0.0312565 -0.0636755
v -0.467593 0.0312565 -0.0636755
v 0.5 1 0.0636755
v 0.5 0 0.0636755
v 0.5 0 -0.0636755
v 0.5 1 -0.0636755
v -0.5 0 -0.0636755
v 0.5 0 -0.0636755
v 0.5 0 0.0636755
v -0.5 0 0.0636755
v -0.5 0 0.0636755
v -0.467593 0.0312565 0.0636755
v -0.467593 0.0312565 0.0636755
v 0.467593 0.0312565 -0.0636755
v 0.467593 0.968744 -0.0636755
v 0.5 1 -0.0636755
v 0.5 0 -0.0636755
v -0.467593 0.968744 0.0636755
v -0.467593 0.0312565 0.0636755
v -0.467593 0.0312565 -0.0636755
v -0.467593 0.968744 -0.0636755
v 0.467593 0.0312565 -0.0636755
v -0.467593 0.968744 -0.0636755

vn 0 0 1
vn 0 0 1
vn 0 0 1
vn 0 0 1
vn 0.706543 0.707031 0
vn 0.706543 0.707031 0
vn 0.706543 0.707031 0
vn 0.706543 0.707031 0
vn 0 0 -1
vn 0 0 -1
vn 0 0 -1
vn 0 0 -1
vn -0.706543 -0.707031 0
vn -0.706543 -0.707031 0
vn -0.706543 -0.707031 0
vn -0.706543 -0.707031 0
vn 1.19209e-007 1.19209e-007 1
vn 1.19209e-007 1.19209e-007 1
vn 1.19209e-007 1.19209e-007 1
vn 1.19209e-007 1.19209e-007 1
vn -0.705566 0.708008 0
vn -0.705566 0.708008 0
vn -0.705566 0.708008 0
vn -0.705566 0.708008 0
vn -1.19209e-007 -1.19209e-007 -1
vn -1.19209e-007 -1.19209e-007 -1
vn -1.19209e-007 -1.19209e-007 -1
vn -1.19209e-007 -1.19209e-007 -1
vn 0.705566 -0.708008 0
vn 0.705566 -0.708008 0
vn 0.705566 -0.708008 0
vn 0.705566 -0.708008 0
vn -0.440186 0 0.897461
vn -0.440186 0 0.897461
vn -0.440186 0 -0.897461
vn -0.440186 0 -0.897461
vn -0.000967026 -0.0187836 0.999512
vn -0.0195465 0 0.999512
vn -0.00032568 0.0194244 0.999512
vn -0.000967026 0.0187836 0.999512
vn 0 -0.425781 0.904297
vn 0 -0.425781 0.904297
vn 0 -0.425781 -0.904297
vn 0 -0.425781 -0.904297
vn -1 0 0
vn -1 0 0
vn -1 0 0
vn -1 0 0
vn 0 1 0
vn 0 1 0
vn 0 1 0
vn 0 1 0
vn -0.00032568 -0.0194244 0.999512
vn 0.000967026 -0.0187836 0.999512
vn 0.00032568 -0.0194244 0.999512
vn 0.000967026 -0.0187683 -0.999512
vn 0.0195465 0 -0.999512
vn 0.00032568 0.0194244 -0.999512
vn 0.000967026 0.0187683 -0.999512
vn 0 0.425781 0.904297
vn 0 0.425781 0.904297
vn 0 0.425781 -0.904297
vn 0 0.425781 -0.904297
vn 1 0 0
vn 1 0 0
vn 1 0 0
vn 1 0 0
vn 0 -1 0
vn 0 -1 0
vn 0 -1 0
vn 0 -1 0
vn 0.000967026 0.0187836 0.999512
vn 0.0195465 0 0.999512
vn 0.00032568 0.0194244 0.999512
vn -0.0195465 0 -0.999512
vn -0.00032568 -0.0194244 -0.999512
vn -0.000967026 -0.0187683 -0.999512
vn -0.000967026 0.0187683 -0.999512
vn 0.440186 0 0.897461
vn 0.440186 0 0.897461
vn 0.440186 0 -0.897461
vn 0.440186 0 -0.897461
vn -0.00032568 0.0194244 -0.999512
vn 0.00032568 -0.0194244 -0.999512

vt 0.0285003 0.840152
vt 0.0285003 0.802335
vt 0.783186 0.802336
vt 0.783186 0.840152
vt 0.783186 0.985162
vt 0.0285003 0.985162
vt 0.0285003 0.861048
vt 0.783186 0.861048
vt 0.0285004 0.840152
vt 0.0285003 0.802336
vt 0.783186 0.802336
vt 0.783186 0.840151
vt 0.783186 0.985162
vt 0.0285003 0.985162
vt 0.0285003 0.861048
vt 0.783186 0.861048
vt 0.0285003 0.840152
vt 0.0285003 0.802335
vt 0.783186 0.802336
vt 0.783186 0.840152
vt 0.783186 0.985162
vt 0.0285003 0.985162
vt 0.0285003 0.861048
vt 0.783186 0.861048
vt 0.0285004 0.840152
vt 0.0285003 0.802336
vt 0.783186 0.802336
vt 0.783186 0.840151
vt 0.783186 0.985162
vt 0.0285003 0.985162
vt 0.0285003 0.861048
vt 0.783186 0.861048
vt 0.954106 0.782077
vt 0.509974 0.782077
vt 0.509974 0.631288
vt 0.954106 0.631288
vt 0.609083 0.607571
vt 0.566471 0.565582
vt 0.566471 0.0575383
vt 0.609083 0.0155494
vt 0.483277 0.782077
vt 0.0402353 0.782077
vt 0.0402353 0.631288
vt 0.483277 0.631288
vt 0.973455 0.607571
vt 0.822667 0.607571
vt 0.822667 0.0155494
vt 0.973455 0.0155494
vt 0.640679 0.0155495
vt 0.791468 0.0155495
vt 0.791468 0.607571
vt 0.640679 0.607571
vt 0.566471 0.565582
vt 0.0170622 0.607571
vt 0.0596744 0.565582
vt 0.609083 0.607571
vt 0.566471 0.565582
vt 0.566471 0.0575384
vt 0.609083 0.0155494
vt 0.0402353 0.631288
vt 0.483277 0.631288
vt 0.483277 0.782077
vt 0.0402353 0.782077
vt 0.822667 0.607571
vt 0.822667 0.0155494
vt 0.973455 0.0155494
vt 0.973455 0.607571
vt 0.640679 0.607571
vt 0.640679 0.0155495
vt 0.791468 0.0155495
vt 0.791468 0.607571
vt 0.0170622 0.0155494
vt 0.0596744 0.0575383
vt 0.0596744 0.0575383
vt 0.0596741 0.0575383
vt 0.0596741 0.565582
vt 0.0170622 0.607571
vt 0.0170618 0.0155495
vt 0.509974 0.631288
vt 0.954106 0.631288
vt 0.954106 0.782077
vt 0.509974 0.782077
vt 0.0596741 0.0575383
vt 0.566471 0.565582


#
# VERTEX BUFFER 001
#
v -0.482998 0.0169007 0
v 0.482998 0.0169007 0
v -0.482998 0.983099 0
v 0.482998 0.983099 0
v -0.482998 0.0169007 0
v 0.482998 0.0169007 0
v -0.482998 0.983099 0
v 0.482998 0.983099 0

vn 0 0 1
vn 0 0 1
vn 0 0 1
vn 0 0 1
vn 0 0 1
vn 0 0 1
vn 0 0 1
vn 0 0 1

vt 0.113802 0.110969
vt 0.512265 0.110969
vt 0.113802 0.509432
vt 0.512265 0.509432
vt 0.113802 0.110969
vt 0.512265 0.110969
vt 0.113802 0.509432
vt 0.512265 0.509432


#
# MESH 000
#
g surface_000
usemtl surface_000
f 13/13/13 15/15/15 16/16/16
f 13/13/13 14/14/14 15/15/15
f 9/9/9 11/11/11 12/12/12
f 9/9/9 10/10/10 11/11/11
f 5/5/5 7/7/7 8/8/8
f 5/5/5 6/6/6 7/7/7
f 1/1/1 3/3/3 4/4/4
f 1/1/1 2/2/2 3/3/3
f 29/29/29 31/31/31 32/32/32
f 29/29/29 30/30/30 31/31/31
f 25/25/25 27/27/27 28/28/28
f 25/25/25 26/26/26 27/27/27
f 21/21/21 23/23/23 24/24/24
f 21/21/21 22/22/22 23/23/23
f 17/17/17 19/19/19 20/20/20
f 17/17/17 18/18/18 19/19/19
f 84/84/84 56/56/56 77/77/77
f 84/84/84 77/77/77 76/76/76
f 75/75/75 76/76/76 77/77/77
f 75/75/75 77/77/77 78/78/78
f 83/83/83 78/78/78 59/59/59
f 83/83/83 59/59/59 58/58/58
f 56/56/56 58/58/58 59/59/59
f 56/56/56 57/57/57 58/58/58
f 79/79/79 81/81/81 82/82/82
f 79/79/79 80/80/80 81/81/81
f 72/72/72 39/39/39 74/74/74
f 72/72/72 40/40/40 39/39/39
f 37/37/37 39/39/39 40/40/40
f 37/37/37 38/38/38 39/39/39
f 54/54/54 72/72/72 73/73/73
f 54/54/54 73/73/73 55/55/55
f 53/53/53 54/54/54 55/55/55
f 53/53/53 37/37/37 54/54/54
f 68/68/68 70/70/70 71/71/71
f 68/68/68 69/69/69 70/70/70
f 64/64/64 66/66/66 67/67/67
f 64/64/64 65/65/65 66/66/66
f 60/60/60 62/62/62 63/63/63
f 60/60/60 61/61/61 62/62/62
f 49/49/49 51/51/51 52/52/52
f 49/49/49 50/50/50 51/51/51
f 45/45/45 47/47/47 48/48/48
f 45/45/45 46/46/46 47/47/47
f 41/41/41 43/43/43 44/44/44
f 41/41/41 42/42/42 43/43/43
f 33/33/33 35/35/35 36/36/36
f 33/33/33 34/34/34 35/35/35

#
# MESH 001
#
g surface_001
usemtl surface_001
f 87/87/87 86/86/86 88/88/88
f 85/85/85 86/86/86 87/87/87
f 91/91/91 90/90/90 92/92/92
f 89/89/89 90/90/90 91/91/91

