#
# OBJECT NAME
#
o model_1064
mtllib 1064.mtl

#
# VERTEX BUFFER 000
#
v 0.27616 0.205721 -0.443375
v 0.260981 0.202166 -0.168642
v -0.102622 0.240496 -0.188244
v -0.0872001 0.244118 -0.46735
v 0.151058 0.423003 -0.17118
v 0.260981 0.202166 -0.168642
v 0.27616 0.205721 -0.443375
v 0.199593 0.376469 -0.444824
v -0.0872001 0.244118 -0.46735
v -0.102622 0.240496 -0.188244
v -0.0732928 0.449316 -0.324822
v 0.199593 0.376469 -0.444824
v 0.27616 0.205721 -0.443375
v -0.0872001 0.244118 -0.46735
v -0.0732928 0.449316 -0.324822
v -0.0549243 0.210503 -0.483383
v -0.25879 0.235295 -0.479663
v -0.169843 0.210503 -0.242042
v 0.0450158 0.242165 -0.195125
v -0.0704786 0 -0.148075
v -0.304637 0 -0.456253
v -0.07486 0 -0.531911
v -0.0549243 0.210503 -0.483383
v -0.07486 0 -0.531911
v -0.304637 0 -0.456253
v -0.25879 0.235295 -0.479663
v -0.169843 0.210503 -0.242042
v -0.0704786 0 -0.148075
v 0.0450158 0.242165 -0.195125
v 0.0450158 0.242165 -0.195125
v -0.0704786 0 -0.148075
v -0.07486 0 -0.531911
v -0.0549243 0.210503 -0.483383
v 0.214574 0 0.221451
v 0.242895 0.136799 0.123526
v 0.255113 0 0.0828049
v 0.242895 0.136799 0.123526
v 0.457435 0.134332 0.320048
v 0.503778 0.136357 0.1597
v 0.503227 0 0.159443
v 0.503778 0.136357 0.1597
v 0.457435 0.134332 0.320048
v 0.458199 0 0.315242
v 0.255113 0 0.0828049
v 0.503227 0 0.159443
v 0.458199 0 0.315242
v 0.214574 0 0.221451
v 0.109614 0.131075 0.503861
v 0.0959191 0.133186 0.224173
v 0.0860559 0 0.228794
v 0.109459 0 0.503273
v 0.255113 0 0.0828049
v 0.242895 0.136799 0.123526
v 0.503778 0.136357 0.1597
v 0.503227 0 0.159443
v 0.0215418 0.257902 0.0196716
v -0.211184 -0.0315966 0.152361
v 0.0594126 0.290986 0.232165
v 0.135128 0.243017 -0.129197
v 0.0604184 -0.00197973 -0.205558
v -0.211184 -0.0315966 0.152361
v 0.0604184 -0.00197973 -0.205558
v 0.309481 -0.00233392 0.0484547
v 0.300521 0.290986 0.0413145
v 0.309481 -0.00233392 0.0484547
v 0.0604184 -0.00197973 -0.205558
v 0.135128 0.243017 -0.129197
v 0.0594126 0.290986 0.232165
v -0.211184 -0.0315966 0.152361
v 0.309481 -0.00233392 0.0484547
v 0.300521 0.290986 0.0413145
v 0.430586 0.109472 -0.185685
v 0.317718 0.109472 -0.112281
v 0.208167 0 -0.0648627
v 0.428725 0 -0.184715
v 0.317718 0.109472 -0.112281
v 0.430586 0.109472 -0.185685
v 0.231373 0.107376 -0.492722
v 0.0647672 0.107376 -0.373941
v 0.126722 0 -0.415147
v 0.0647672 0.107376 -0.373941
v 0.231373 0.107376 -0.492722
v 0.231158 0 -0.494042
v 0.208167 0 -0.0648627
v 0.126722 0 -0.415147
v 0.231158 0 -0.494042
v 0.428725 0 -0.184715
v 0.430586 0.109472 -0.185685
v 0.428725 0 -0.184715
v 0.231158 0 -0.494042
v 0.231373 0.107376 -0.492722
v 0.208167 0 -0.0648627
v 0.0647672 0.107376 -0.373941
v 0.126722 0 -0.415147
v 0.260981 0.202166 -0.168642
v 0.151058 0.423003 -0.17118
v -0.0732928 0.449316 -0.324822
v -0.102622 0.240496 -0.188244
v 0.0215418 0.257902 0.0196716
v 0.0594126 0.290986 0.232165
v 0.300521 0.290986 0.0413145
v 0.135128 0.243017 -0.129197
v -0.0704786 0 -0.148075
v -0.169843 0.210503 -0.242042
v -0.25879 0.235295 -0.479663
v -0.304637 0 -0.456253
v 0.317718 0.109472 -0.112281
v 0.0647672 0.107376 -0.373941
v 0.208167 0 -0.0648627
v 0.298918 0 0.420094
v 0.253743 0.133552 0.441176
v 0.109614 0.131075 0.503861
v 0.109459 0 0.503273
v 0.0860559 0 0.228794
v 0.298918 0 0.420094
v 0.109459 0 0.503273
v 0.253743 0.133552 0.441176
v 0.0959191 0.133186 0.224173
v 0.109614 0.131075 0.503861
v 0.214574 0 0.221451
v 0.458199 0 0.315242
v 0.457435 0.134332 0.320048
v 0.242895 0.136799 0.123526
v 0.298918 0 0.420094
v 0.0959191 0.133186 0.224173
v 0.253743 0.133552 0.441176
v 0.0860559 0 0.228794
v -0.0732928 0.449316 -0.324822
v 0.151058 0.423003 -0.17118
v 0.199593 0.376469 -0.444824
v -0.412872 -0.0394478 -0.0790649
v -0.226373 0.00903174 -0.102398
v -0.281813 0.154974 -0.152359
v -0.471301 0.116866 -0.111044
v -0.412872 -0.0394478 -0.0790649
v -0.471301 0.116866 -0.111044
v -0.403535 0.111236 -0.276052
v -0.344485 -0.0470624 -0.24375
v -0.226373 0.00903174 -0.102398
v -0.344485 -0.0470624 -0.24375
v -0.403535 0.111236 -0.276052
v -0.281813 0.154974 -0.152359
v -0.281813 0.154974 -0.152359
v -0.403535 0.111236 -0.276052
v -0.471301 0.116866 -0.111044
v -0.344485 -0.0470624 -0.24375
v -0.226373 0.00903174 -0.102398
v -0.412872 -0.0394478 -0.0790649
v 0.501134 0.12575 0.0143078
v 0.569315 0 0.105495
v 0.546884 0.00922522 -0.124301
v 0.399516 0 0.114845
v 0.569315 0 0.105495
v 0.501134 0.12575 0.0143078
v 0.404098 0.144114 0.0198748
v 0.404098 0.144114 0.0198748
v 0.37797 0.0239469 -0.114634
v 0.399516 0 0.114845
v 0.501134 0.12575 0.0143078
v 0.546884 0.00922522 -0.124301
v 0.37797 0.0239469 -0.114634
v 0.404098 0.144114 0.0198748
v 0.37797 0.0239469 -0.114634
v 0.546884 0.00922522 -0.124301
v 0.399516 0 0.114845
v 0.399516 0 0.114845
v 0.546884 0.00922522 -0.124301
v 0.569315 0 0.105495
v 0.325183 0.159523 0.350797
v 0.163055 0.357361 -0.0105871
v 0.0863086 0.510719 0.166763
v 0.245519 0.329916 0.470816
v 0.163055 0.357361 -0.0105871
v 0.325183 0.159523 0.350797
v 0.0636418 0.127566 0.45444
v -0.108627 0.326021 0.107372
v 0.245519 0.329916 0.470816
v 0.0636418 0.127566 0.45444
v 0.325183 0.159523 0.350797
v -0.108627 0.326021 0.107372
v 0.0863086 0.510719 0.166763
v 0.163055 0.357361 -0.0105871
v 0.0863086 0.510719 0.166763
v -0.108627 0.326021 0.107372
v 0.0636418 0.127566 0.45444
v 0.245519 0.329916 0.470816
v 0.197234 0.20635 -0.310182
v 0.181038 0.205751 -0.482683
v 0.218066 0.109675 -0.291381
v 0.218066 0.109675 -0.291381
v 0.181038 0.205751 -0.482683
v 0.190342 0.108175 -0.486641
v 0.35281 0.108175 -0.436359
v 0.190342 0.108175 -0.486641
v 0.181038 0.205751 -0.482683
v 0.346494 0.205751 -0.431364
v 0.197234 0.20635 -0.310182
v 0.346494 0.205751 -0.431364
v 0.181038 0.205751 -0.482683
v 0.218066 0.109675 -0.291381
v 0.190342 0.108175 -0.486641
v 0.35281 0.108175 -0.436359
v 0.218066 0.109675 -0.291381
v 0.35281 0.108175 -0.436359
v 0.346494 0.205751 -0.431364
v 0.197234 0.20635 -0.310182
v -0.331087 0.241546 0.192264
v -0.343667 -0.0314378 0.292913
v -0.0242205 -0.0314378 0.32485
v -0.00174081 0.221836 0.326608
v -0.343667 -0.0314378 0.292913
v -0.331087 0.241546 0.192264
v -0.222887 0.233462 -0.0572338
v -0.226554 -0.0157101 -0.0558867
v -0.343667 -0.0314378 0.292913
v -0.226554 -0.0157101 -0.0558867
v -0.0242205 -0.0314378 0.32485
v -0.226554 -0.0157101 -0.0558867
v -0.222887 0.233462 -0.0572338
v -0.00174081 0.221836 0.326608
v -0.0242205 -0.0314378 0.32485
v -0.222887 0.233462 -0.0572338
v -0.331087 0.241546 0.192264
v -0.00174081 0.221836 0.326608

vn -0.103821 -0.994141 -0.0186157
vn -0.103821 -0.994141 -0.0186157
vn -0.103821 -0.994141 -0.0186157
vn -0.103821 -0.994141 -0.0186157
vn 0.733887 0.678711 0.0033226
vn 0.899902 0.429443 0.0709229
vn 0.899902 0.429443 0.0709229
vn 0.792969 0.60791 0.0243225
vn -0.992676 0.104431 -0.0534973
vn -0.992676 0.104431 -0.0534973
vn -0.992676 0.104431 -0.0534973
vn -0.0823364 0.337891 -0.9375
vn -0.0823364 0.337891 -0.9375
vn -0.0823364 0.337891 -0.9375
vn -0.0823364 0.337891 -0.9375
vn -0.015625 0.999512 -0.00744247
vn -0.015625 0.999512 -0.00744247
vn -0.646973 0.583008 0.490234
vn -0.112671 0.921387 0.371094
vn 0 -1 0
vn 0 -1 0
vn 0 -1 0
vn -0.174927 0.0810547 -0.980957
vn -0.174927 0.0810547 -0.980957
vn -0.174927 0.0810547 -0.980957
vn -0.174927 0.0810547 -0.980957
vn -0.646973 0.583008 0.490234
vn -0.752441 0.102356 0.649902
vn -0.112671 0.921387 0.371094
vn 0.949219 -0.283447 -0.133911
vn 0.949219 -0.283447 -0.133911
vn 0.949219 -0.283447 -0.133911
vn 0.949219 -0.283447 -0.133911
vn -0.959473 -0.00218773 -0.280518
vn -0.959473 -0.00218773 -0.280518
vn -0.959473 -0.00218773 -0.280518
vn -5.56111e-005 0.999512 0.0126114
vn -5.56111e-005 0.999512 0.0126114
vn -5.56111e-005 0.999512 0.0126114
vn 0.960449 -0.00443268 0.277588
vn 0.960449 -0.00443268 0.277588
vn 0.960449 -0.00443268 0.277588
vn 0.960449 -0.00443268 0.277588
vn 0 -1 0
vn 0 -1 0
vn 0 -1 0
vn 0 -1 0
vn -0.996582 0.0388184 0.0668335
vn -0.996582 0.0388184 0.0668335
vn -0.996582 0.0388184 0.0668335
vn -0.996582 0.0388184 0.0668335
vn 0.213867 0.153809 -0.964355
vn 0.213867 0.153809 -0.964355
vn 0.213867 0.153809 -0.964355
vn 0.213867 0.153809 -0.964355
vn -0.781738 0.45166 -0.429443
vn -0.780273 0.448486 -0.434814
vn -0.77002 0.63623 0.0381165
vn 0.0372925 0.268799 -0.962402
vn -0.258545 0.335449 -0.905762
vn 0.0466614 -0.997559 -0.0471497
vn 0.0466614 -0.997559 -0.0471497
vn 0.0466614 -0.997559 -0.0471497
vn 0.715332 0.0024662 -0.698242
vn 0.715332 0.0024662 -0.698242
vn -0.258545 0.335449 -0.905762
vn 0.0372925 0.268799 -0.962402
vn 0.357178 -0.257568 0.897461
vn 0.357178 -0.257568 0.897461
vn 0.357178 -0.257568 0.897461
vn 0.357178 -0.257568 0.897461
vn 0.5 -0.0637817 0.863281
vn 0.5 -0.0637817 0.863281
vn 0.5 -0.0637817 0.863281
vn 0.5 -0.0637817 0.863281
vn -0.00327682 0.999512 -0.00476456
vn -0.00327682 0.999512 -0.00476456
vn -0.00327682 0.999512 -0.00476456
vn -0.00327682 0.999512 -0.00476456
vn -0.588867 -0.00940704 -0.807617
vn -0.588867 -0.00940704 -0.807617
vn -0.588867 -0.00940704 -0.807617
vn -0.588867 -0.00940704 -0.807617
vn 0 -1 0
vn 0 -1 0
vn 0 -1 0
vn 0 -1 0
vn 0.84082 -0.00717545 -0.541016
vn 0.84082 -0.00717545 -0.541016
vn 0.84082 -0.00717545 -0.541016
vn 0.84082 -0.00717545 -0.541016
vn -0.816895 -0.543945 0.189941
vn -0.816895 -0.543945 0.189941
vn -0.816895 -0.543945 0.189941
vn -0.24707 0.256104 0.934082
vn -0.24707 0.256104 0.934082
vn -0.24707 0.256104 0.934082
vn -0.24707 0.256104 0.934082
vn -0.104675 0.982422 -0.152344
vn -0.104675 0.982422 -0.152344
vn -0.104675 0.982422 -0.152344
vn -0.104675 0.982422 -0.152344
vn -0.752441 0.102356 0.649902
vn -0.646973 0.583008 0.490234
vn -0.859375 0.0311432 0.509766
vn -0.859375 0.0311432 0.509766
vn -0.505371 0.714844 0.48291
vn -0.505371 0.714844 0.48291
vn -0.505371 0.714844 0.48291
vn 0.400635 -0.00685883 0.916016
vn 0.400635 -0.00685883 0.916016
vn 0.400635 -0.00685883 0.916016
vn 0.400635 -0.00685883 0.916016
vn 0 -1 0
vn 0 -1 0
vn 0 -1 0
vn -0.0136108 0.999512 0.00820923
vn -0.0136108 0.999512 0.00820923
vn -0.0136108 0.999512 0.00820923
vn -0.504395 0.325684 0.799316
vn -0.504395 0.325684 0.799316
vn -0.504395 0.325684 0.799316
vn -0.504395 0.325684 0.799316
vn 0.748535 0.223267 -0.624023
vn 0.709473 0.0473022 -0.702637
vn 0.758789 0.343994 -0.552246
vn 0.666504 -0.0750732 -0.741211
vn 0.202271 0.970703 -0.12915
vn 0.733887 0.678711 0.0033226
vn 0.792969 0.60791 0.0243225
vn 0.0958252 0.293701 0.950684
vn 0.0958252 0.293701 0.950684
vn 0.0958252 0.293701 0.950684
vn 0.0958252 0.293701 0.950684
vn -0.856445 -0.388916 -0.338135
vn -0.856445 -0.388916 -0.338135
vn -0.856445 -0.388916 -0.338135
vn -0.856445 -0.388916 -0.338135
vn 0.722168 0.0862427 -0.686035
vn 0.722168 0.0862427 -0.686035
vn 0.722168 0.0862427 -0.686035
vn 0.722168 0.0862427 -0.686035
vn -0.221436 0.966797 -0.123962
vn -0.221436 0.966797 -0.123962
vn -0.221436 0.966797 -0.123962
vn 0.266602 -0.951172 0.154663
vn 0.266602 -0.951172 0.154663
vn 0.266602 -0.951172 0.154663
vn 0.896973 0.435547 -0.0700684
vn 0.476074 -0.875488 -0.081604
vn 0.838867 -0.533691 -0.103333
vn 0.085144 0.579102 0.810547
vn 0.085144 0.579102 0.810547
vn 0.085144 0.579102 0.810547
vn 0.085144 0.579102 0.810547
vn -0.989258 0.0994873 0.103271
vn -0.989258 0.0994873 0.103271
vn -0.989258 0.0994873 0.103271
vn 0.0567627 0.756348 -0.651367
vn 0.0567627 0.756348 -0.651367
vn 0.0567627 0.756348 -0.651367
vn 0.0567627 0.756348 -0.651367
vn -0.0917969 -0.991211 -0.0947876
vn -0.0917969 -0.991211 -0.0947876
vn -0.0917969 -0.991211 -0.0947876
vn -0.00219536 -0.999023 -0.0398865
vn 0.838867 -0.533691 -0.103333
vn 0.476074 -0.875488 -0.081604
vn 0.848145 0.516113 -0.115845
vn 0.848145 0.516113 -0.115845
vn 0.848145 0.516113 -0.115845
vn 0.848145 0.516113 -0.115845
vn -0.0842285 -0.885742 -0.455811
vn -0.0842285 -0.885742 -0.455811
vn -0.0842285 -0.885742 -0.455811
vn -0.0842285 -0.885742 -0.455811
vn 0.378906 -0.407715 0.830566
vn 0.378906 -0.407715 0.830566
vn 0.378906 -0.407715 0.830566
vn -0.372314 0.615723 -0.693848
vn -0.372314 0.615723 -0.693848
vn -0.372314 0.615723 -0.693848
vn -0.625977 0.491211 0.60498
vn -0.625977 0.491211 0.60498
vn -0.625977 0.491211 0.60498
vn -0.625977 0.491211 0.60498
vn -0.976563 -0.192505 0.0923462
vn -0.976563 -0.192505 0.0923462
vn -0.976563 -0.192505 0.0923462
vn -0.984863 -0.0996094 0.140625
vn -0.984863 -0.0996094 0.140625
vn -0.984863 -0.0996094 0.140625
vn 0.295166 0.0673218 -0.952637
vn 0.295166 0.0673218 -0.952637
vn 0.295166 0.0673218 -0.952637
vn 0.295166 0.0673218 -0.952637
vn 0.00110722 0.999512 -0.00357056
vn 0.00110722 0.999512 -0.00357056
vn 0.00110722 0.999512 -0.00357056
vn -0.00248528 -0.999512 0.00802612
vn -0.00248528 -0.999512 0.00802612
vn -0.00248528 -0.999512 0.00802612
vn 0.676758 0.145874 0.721191
vn 0.676758 0.145874 0.721191
vn 0.676758 0.145874 0.721191
vn 0.676758 0.145874 0.721191
vn -0.237915 0.19458 0.951172
vn -0.237915 0.19458 0.951172
vn -0.237915 0.19458 0.951172
vn -0.237915 0.19458 0.951172
vn -0.93457 -0.0397644 -0.352539
vn -0.93457 -0.0397644 -0.352539
vn -0.93457 -0.0397644 -0.352539
vn -0.93457 -0.0397644 -0.352539
vn 0.00435638 -0.999023 -0.0435791
vn 0.00435638 -0.999023 -0.0435791
vn 0.00435638 -0.999023 -0.0435791
vn 0.873047 -0.0450134 -0.485107
vn 0.873047 -0.0450134 -0.485107
vn 0.873047 -0.0450134 -0.485107
vn 0.873047 -0.0450134 -0.485107
vn 0.0619507 0.998047 -0.00546646
vn 0.0619507 0.998047 -0.00546646
vn 0.0619507 0.998047 -0.00546646

vt 0.74592 0.0158646
vt 0.74592 0.144771
vt 0.627496 0.144771
vt 0.627496 0.0158646
vt 0.614289 0.405358
vt 0.501686 0.405358
vt 0.501687 0.280468
vt 0.577088 0.287105
vt 0.691754 0.152583
vt 0.691754 0.277583
vt 0.627496 0.215083
vt 0.598915 0.292215
vt 0.61904 0.41332
vt 0.502119 0.41332
vt 0.502119 0.285579
vt 0.850654 0.922876
vt 0.837393 0.993813
vt 0.759676 0.948824
vt 0.755908 0.871079
vt 0.936914 0.863065
vt 0.998166 0.985487
vt 0.875662 0.992213
vt 0.879556 0.73835
vt 0.996486 0.73835
vt 0.996486 0.849795
vt 0.889102 0.845583
vt 0.916476 0.696214
vt 0.936914 0.601283
vt 0.998166 0.722341
vt 0.794827 0.855276
vt 0.794827 0.734644
vt 0.859281 0.734644
vt 0.846493 0.828928
vt 0.0720132 0.498665
vt 0.0969869 0.375243
vt 0.107371 0.498665
vt 0.0112798 0.375129
vt 0.0417244 0.498665
vt 0.000905037 0.498665
vt 0.497505 0.248811
vt 0.497505 0.374916
vt 0.457459 0.374916
vt 0.458595 0.248811
vt 0.434045 0.381862
vt 0.499362 0.381862
vt 0.499362 0.425279
vt 0.434045 0.420534
vt 0.499227 0.124238
vt 0.393197 0.124238
vt 0.393197 0.00237173
vt 0.499227 0.000571907
vt 0.142911 0.126783
vt 0.142912 0.00030148
vt 0.24858 0.00030154
vt 0.24858 0.126784
vt 0.351387 0.675549
vt 0.464672 0.556073
vt 0.408008 0.780186
vt 0.272171 0.653479
vt 0.307539 0.497563
vt 0.145541 0.257417
vt 0.0949098 0.0723783
vt 0.219244 0.00576878
vt 0.393197 0.11497
vt 0.393197 0.00237173
vt 0.465989 0.00237173
vt 0.430968 0.11497
vt 0.204441 0.126014
vt 0.16916 0.00237179
vt 0.249503 0.00237173
vt 0.249503 0.126014
vt 0.672186 0.577689
vt 0.578684 0.577689
vt 0.578684 0.445165
vt 0.672186 0.445165
vt 0.787081 0.847711
vt 0.686818 0.847711
vt 0.686818 0.703125
vt 0.787081 0.703125
vt 0.655015 0.858753
vt 0.655015 0.991276
vt 0.560835 0.991276
vt 0.560835 0.858753
vt 0.672186 0.703356
vt 0.672186 0.847942
vt 0.578684 0.847942
vt 0.578684 0.703356
vt 0.689449 0.687327
vt 0.689449 0.554803
vt 0.787081 0.554803
vt 0.787081 0.687327
vt 0.734863 0.858753
vt 0.663429 0.991276
vt 0.663429 0.858753
vt 0.622924 0.144954
vt 0.591398 0.277766
vt 0.504449 0.277766
vt 0.504449 0.144954
vt 0.131958 0.359579
vt 0.0883768 0.253478
vt 0.203128 0.253478
vt 0.203128 0.359579
vt 0.794827 0.722341
vt 0.835185 0.601283
vt 0.859281 0.601283
vt 0.859281 0.715615
vt 0.734862 0.991276
vt 0.663429 0.991276
vt 0.734863 0.858753
vt 0.4427 0.248811
vt 0.442035 0.374916
vt 0.393055 0.374916
vt 0.393055 0.248811
vt 0.434045 0.475874
vt 0.499362 0.443014
vt 0.499362 0.498409
vt 0.0574458 0.498665
vt 0.0841003 0.375129
vt 0.107371 0.498665
vt 0.485588 0.833196
vt 0.485588 0.718341
vt 0.564891 0.716634
vt 0.565893 0.851202
vt 0.429323 0.743347
vt 0.260871 0.716924
vt 0.388835 0.626438
vt 0.30896 0.835244
vt 0.504449 0.0726599
vt 0.591398 0.00818145
vt 0.580026 0.137141
vt 0.746215 0.863089
vt 0.867308 0.863089
vt 0.855127 0.963881
vt 0.746215 0.991995
vt 0.794827 0.601283
vt 0.859281 0.601283
vt 0.859281 0.722341
vt 0.794827 0.722341
vt 0.875662 0.863065
vt 0.998166 0.863065
vt 0.998166 0.992213
vt 0.875662 0.992213
vt 0.881746 0.781892
vt 0.998166 0.734644
vt 0.998166 0.855702
vt 0.875662 0.601283
vt 0.998166 0.661812
vt 0.875662 0.722341
vt 0.855739 0.798077
vt 0.805453 0.834541
vt 0.809142 0.742648
vt 0.746215 0.863089
vt 0.867308 0.863089
vt 0.842946 0.991995
vt 0.746215 0.991995
vt 0.859281 0.601283
vt 0.827054 0.722341
vt 0.794827 0.601283
vt 0.899999 0.855702
vt 0.875662 0.734644
vt 0.998166 0.734644
vt 0.998166 0.855702
vt 0.875662 0.601283
vt 0.998166 0.601283
vt 0.875662 0.722341
vt 0.875662 0.722341
vt 0.998166 0.601283
vt 0.998166 0.722341
vt 0.560835 0.858753
vt 0.655015 0.858753
vt 0.655015 0.991276
vt 0.560835 0.991276
vt 0.671796 0.704089
vt 0.671796 0.843028
vt 0.575548 0.843028
vt 0.575548 0.704089
vt 0.738265 0.687327
vt 0.689449 0.554803
vt 0.787081 0.593823
vt 0.734863 0.858753
vt 0.699812 0.991659
vt 0.663429 0.858753
vt 0.633641 0.574457
vt 0.576672 0.574457
vt 0.576672 0.441125
vt 0.633641 0.441125
vt 0.859281 0.601283
vt 0.859281 0.722341
vt 0.794827 0.601283
vt 0.794827 0.601283
vt 0.859281 0.722341
vt 0.794827 0.722341
vt 0.875662 0.863065
vt 0.998166 0.863065
vt 0.998166 0.992213
vt 0.875662 0.992213
vt 0.942998 0.842421
vt 0.875662 0.734644
vt 0.998166 0.734644
vt 0.936914 0.722341
vt 0.875662 0.601283
vt 0.998166 0.601283
vt 0.829109 0.803627
vt 0.829109 0.734217
vt 0.855733 0.734217
vt 0.855733 0.802152
vt 0.570091 0.829075
vt 0.489831 0.832773
vt 0.489831 0.738852
vt 0.564296 0.732243
vt 0.672256 0.290276
vt 0.664834 0.337462
vt 0.627496 0.337462
vt 0.627496 0.290276
vt 0.552735 0.295557
vt 0.621687 0.414485
vt 0.504449 0.414485
vt 0.744684 0.0158646
vt 0.744135 0.143888
vt 0.628617 0.143515
vt 0.627496 0.0158646
vt 0.621128 0.144954
vt 0.571779 0.277766
vt 0.505572 0.144954


#
# MESH 000
#
g surface_000
usemtl surface_000
f 128/128/128 129/129/129 130/130/130
f 117/117/117 118/118/118 119/119/119
f 114/114/114 115/115/115 116/116/116
f 107/107/107 108/108/108 109/109/109
f 92/92/92 93/93/93 94/94/94
f 61/61/61 62/62/62 63/63/63
f 37/37/37 38/38/38 39/39/39
f 34/34/34 35/35/35 36/36/36
f 27/27/27 28/28/28 29/29/29
f 20/20/20 21/21/21 22/22/22
f 9/9/9 10/10/10 11/11/11
f 124/124/124 127/127/127 125/125/125
f 124/124/124 125/125/125 126/126/126
f 120/120/120 122/122/122 123/123/123
f 120/120/120 121/121/121 122/122/122
f 110/110/110 112/112/112 113/113/113
f 110/110/110 111/111/111 112/112/112
f 103/103/103 105/105/105 106/106/106
f 103/103/103 104/104/104 105/105/105
f 99/99/99 101/101/101 102/102/102
f 99/99/99 100/100/100 101/101/101
f 95/95/95 97/97/97 98/98/98
f 95/95/95 96/96/96 97/97/97
f 88/88/88 90/90/90 91/91/91
f 88/88/88 89/89/89 90/90/90
f 84/84/84 86/86/86 87/87/87
f 84/84/84 85/85/85 86/86/86
f 80/80/80 82/82/82 83/83/83
f 80/80/80 81/81/81 82/82/82
f 76/76/76 78/78/78 79/79/79
f 76/76/76 77/77/77 78/78/78
f 72/72/72 74/74/74 75/75/75
f 72/72/72 73/73/73 74/74/74
f 68/68/68 70/70/70 71/71/71
f 68/68/68 69/69/69 70/70/70
f 64/64/64 66/66/66 67/67/67
f 64/64/64 65/65/65 66/66/66
f 56/56/56 59/59/59 60/60/60
f 56/56/56 60/60/60 57/57/57
f 56/56/56 57/57/57 58/58/58
f 52/52/52 54/54/54 55/55/55
f 52/52/52 53/53/53 54/54/54
f 48/48/48 50/50/50 51/51/51
f 48/48/48 49/49/49 50/50/50
f 44/44/44 46/46/46 47/47/47
f 44/44/44 45/45/45 46/46/46
f 40/40/40 42/42/42 43/43/43
f 40/40/40 41/41/41 42/42/42
f 30/30/30 32/32/32 33/33/33
f 30/30/30 31/31/31 32/32/32
f 23/23/23 25/25/25 26/26/26
f 23/23/23 24/24/24 25/25/25
f 16/16/16 18/18/18 19/19/19
f 16/16/16 17/17/17 18/18/18
f 12/12/12 14/14/14 15/15/15
f 12/12/12 13/13/13 14/14/14
f 5/5/5 7/7/7 8/8/8
f 5/5/5 6/6/6 7/7/7
f 1/1/1 3/3/3 4/4/4
f 1/1/1 2/2/2 3/3/3
f 146/146/146 147/147/147 148/148/148
f 143/143/143 144/144/144 145/145/145
f 139/139/139 141/141/141 142/142/142
f 139/139/139 140/140/140 141/141/141
f 135/135/135 137/137/137 138/138/138
f 135/135/135 136/136/136 137/137/137
f 131/131/131 133/133/133 134/134/134
f 131/131/131 132/132/132 133/133/133
f 166/166/166 167/167/167 168/168/168
f 163/163/163 164/164/164 165/165/165
f 156/156/156 157/157/157 158/158/158
f 149/149/149 150/150/150 151/151/151
f 159/159/159 161/161/161 162/162/162
f 159/159/159 160/160/160 161/161/161
f 152/152/152 154/154/154 155/155/155
f 152/152/152 153/153/153 154/154/154
f 180/180/180 181/181/181 182/182/182
f 177/177/177 178/178/178 179/179/179
f 183/183/183 185/185/185 186/186/186
f 183/183/183 184/184/184 185/185/185
f 173/173/173 175/175/175 176/176/176
f 173/173/173 174/174/174 175/175/175
f 169/169/169 171/171/171 172/172/172
f 169/169/169 170/170/170 171/171/171
f 200/200/200 201/201/201 202/202/202
f 197/197/197 198/198/198 199/199/199
f 190/190/190 191/191/191 192/192/192
f 187/187/187 188/188/188 189/189/189
f 203/203/203 205/205/205 206/206/206
f 203/203/203 204/204/204 205/205/205
f 193/193/193 195/195/195 196/196/196
f 193/193/193 194/194/194 195/195/195
f 222/222/222 223/223/223 224/224/224
f 215/215/215 216/216/216 217/217/217
f 218/218/218 220/220/220 221/221/221
f 218/218/218 219/219/219 220/220/220
f 211/211/211 213/213/213 214/214/214
f 211/211/211 212/212/212 213/213/213
f 207/207/207 209/209/209 210/210/210
f 207/207/207 208/208/208 209/209/209

