#
# OBJECT NAME
#
o model_2553
mtllib 2553.mtl

#
# VERTEX BUFFER 000
#
v 0.27616 0.205721 -0.443375
v 0.260981 0.202166 -0.168642
v -0.102622 0.240496 -0.188244
v -0.0872001 0.244118 -0.46735
v 0.151058 0.423003 -0.17118
v 0.260981 0.202166 -0.168642
v 0.27616 0.205721 -0.443375
v 0.199593 0.376469 -0.444824
v -0.0872001 0.244118 -0.46735
v -0.102622 0.240496 -0.188244
v -0.0732928 0.449316 -0.324822
v 0.199593 0.376469 -0.444824
v 0.27616 0.205721 -0.443375
v -0.0872001 0.244118 -0.46735
v -0.0732928 0.449316 -0.324822
v -0.0549243 0.210503 -0.483383
v -0.25879 0.235295 -0.479663
v -0.169843 0.210503 -0.242042
v 0.0450158 0.242165 -0.195125
v -0.0704786 0 -0.148075
v -0.304637 0 -0.456253
v -0.07486 0 -0.531911
v -0.0549243 0.210503 -0.483383
v -0.07486 0 -0.531911
v -0.304637 0 -0.456253
v -0.25879 0.235295 -0.479663
v -0.169843 0.210503 -0.242042
v -0.0704786 0 -0.148075
v 0.0450158 0.242165 -0.195125
v 0.0450158 0.242165 -0.195125
v -0.0704786 0 -0.148075
v -0.07486 0 -0.531911
v -0.0549243 0.210503 -0.483383
v 0.109614 0.131075 0.503861
v 0.0959191 0.133186 0.224173
v 0.0860559 0 0.228794
v 0.109459 0 0.503273
v 0.0215418 0.257902 0.0196716
v -0.211184 -0.0315966 0.152361
v 0.0594126 0.290986 0.232165
v 0.135128 0.243017 -0.129197
v 0.0604184 -0.00197973 -0.205558
v -0.211184 -0.0315966 0.152361
v 0.0604184 -0.00197973 -0.205558
v 0.309481 -0.00233392 0.0484547
v 0.300521 0.290986 0.0413145
v 0.309481 -0.00233392 0.0484547
v 0.0604184 -0.00197973 -0.205558
v 0.135128 0.243017 -0.129197
v 0.0594126 0.290986 0.232165
v -0.211184 -0.0315966 0.152361
v 0.309481 -0.00233392 0.0484547
v 0.300521 0.290986 0.0413145
v 0.430586 0.201755 -0.185685
v 0.317718 0.201755 -0.112281
v 0.208167 0 -0.0648627
v 0.428725 0 -0.184715
v 0.317718 0.201755 -0.112281
v 0.430586 0.201755 -0.185685
v 0.231373 0.199659 -0.492722
v 0.0647672 0.199659 -0.373941
v 0.126722 0 -0.415147
v 0.0647672 0.199659 -0.373941
v 0.231373 0.199659 -0.492722
v 0.231158 0 -0.494042
v 0.208167 0 -0.0648627
v 0.126722 0 -0.415147
v 0.231158 0 -0.494042
v 0.428725 0 -0.184715
v 0.430586 0.201755 -0.185685
v 0.428725 0 -0.184715
v 0.231158 0 -0.494042
v 0.231373 0.199659 -0.492722
v 0.208167 0 -0.0648627
v 0.0647672 0.199659 -0.373941
v 0.126722 0 -0.415147
v 0.260981 0.202166 -0.168642
v 0.151058 0.423003 -0.17118
v -0.0732928 0.449316 -0.324822
v -0.102622 0.240496 -0.188244
v 0.0215418 0.257902 0.0196716
v 0.0594126 0.290986 0.232165
v 0.300521 0.290986 0.0413145
v 0.135128 0.243017 -0.129197
v -0.0704786 0 -0.148075
v -0.169843 0.210503 -0.242042
v -0.25879 0.235295 -0.479663
v -0.304637 0 -0.456253
v 0.317718 0.201755 -0.112281
v 0.0647672 0.199659 -0.373941
v 0.208167 0 -0.0648627
v 0.298918 0 0.420094
v 0.253743 0.133552 0.441176
v 0.109614 0.131075 0.503861
v 0.109459 0 0.503273
v 0.0860559 0 0.228794
v 0.298918 0 0.420094
v 0.109459 0 0.503273
v 0.253743 0.133552 0.441176
v 0.0959191 0.133186 0.224173
v 0.109614 0.131075 0.503861
v 0.298918 0 0.420094
v 0.0959191 0.133186 0.224173
v 0.253743 0.133552 0.441176
v 0.0860559 0 0.228794
v -0.0732928 0.449316 -0.324822
v 0.151058 0.423003 -0.17118
v 0.199593 0.376469 -0.444824
v 0.325183 0.159523 0.350797
v 0.163055 0.357361 -0.0105871
v 0.0863086 0.510719 0.166763
v 0.245519 0.329916 0.470816
v 0.163055 0.357361 -0.0105871
v 0.325183 0.159523 0.350797
v 0.0636418 0.127566 0.45444
v -0.108627 0.326021 0.107372
v 0.245519 0.329916 0.470816
v 0.0636418 0.127566 0.45444
v 0.325183 0.159523 0.350797
v -0.108627 0.326021 0.107372
v 0.0863086 0.510719 0.166763
v 0.163055 0.357361 -0.0105871
v 0.0863086 0.510719 0.166763
v -0.108627 0.326021 0.107372
v 0.0636418 0.127566 0.45444
v 0.245519 0.329916 0.470816
v -0.331087 0.241546 0.192264
v -0.343667 -0.0314378 0.292913
v -0.0242205 -0.0314378 0.32485
v -0.00174081 0.221836 0.326608
v -0.343667 -0.0314378 0.292913
v -0.331087 0.241546 0.192264
v -0.222887 0.233462 -0.0572338
v -0.226554 -0.0157101 -0.0558867
v -0.343667 -0.0314378 0.292913
v -0.226554 -0.0157101 -0.0558867
v -0.0242205 -0.0314378 0.32485
v -0.226554 -0.0157101 -0.0558867
v -0.222887 0.233462 -0.0572338
v -0.00174081 0.221836 0.326608
v -0.0242205 -0.0314378 0.32485
v -0.222887 0.233462 -0.0572338
v -0.331087 0.241546 0.192264
v -0.00174081 0.221836 0.326608

vn -0.103821 -0.994141 -0.0186157
vn -0.103821 -0.994141 -0.0186157
vn -0.103821 -0.994141 -0.0186157
vn -0.103821 -0.994141 -0.0186157
vn 0.733887 0.678711 0.0033226
vn 0.899902 0.429443 0.0709229
vn 0.899902 0.429443 0.0709229
vn 0.792969 0.60791 0.0243225
vn -0.992676 0.104431 -0.0534973
vn -0.992676 0.104431 -0.0534973
vn -0.992676 0.104431 -0.0534973
vn -0.0823364 0.337891 -0.9375
vn -0.0823364 0.337891 -0.9375
vn -0.0823364 0.337891 -0.9375
vn -0.0823364 0.337891 -0.9375
vn -0.015625 0.999512 -0.00744247
vn -0.015625 0.999512 -0.00744247
vn -0.646973 0.583008 0.490234
vn -0.112671 0.921387 0.371094
vn 0 -1 0
vn 0 -1 0
vn 0 -1 0
vn -0.174927 0.0810547 -0.980957
vn -0.174927 0.0810547 -0.980957
vn -0.174927 0.0810547 -0.980957
vn -0.174927 0.0810547 -0.980957
vn -0.646973 0.583008 0.490234
vn -0.752441 0.102356 0.649902
vn -0.112671 0.921387 0.371094
vn 0.949219 -0.283447 -0.133911
vn 0.949219 -0.283447 -0.133911
vn 0.949219 -0.283447 -0.133911
vn 0.949219 -0.283447 -0.133911
vn -0.996582 0.0388184 0.0668335
vn -0.996582 0.0388184 0.0668335
vn -0.996582 0.0388184 0.0668335
vn -0.996582 0.0388184 0.0668335
vn -0.781738 0.45166 -0.429443
vn -0.780273 0.448486 -0.434814
vn -0.77002 0.63623 0.0381165
vn 0.0372925 0.268799 -0.962402
vn -0.258545 0.335449 -0.905762
vn 0.0466614 -0.997559 -0.0471497
vn 0.0466614 -0.997559 -0.0471497
vn 0.0466614 -0.997559 -0.0471497
vn 0.715332 0.0024662 -0.698242
vn 0.715332 0.0024662 -0.698242
vn -0.258545 0.335449 -0.905762
vn 0.0372925 0.268799 -0.962402
vn 0.357178 -0.257568 0.897461
vn 0.357178 -0.257568 0.897461
vn 0.357178 -0.257568 0.897461
vn 0.357178 -0.257568 0.897461
vn 0.500977 -0.034668 0.864258
vn 0.500977 -0.034668 0.864258
vn 0.500977 -0.034668 0.864258
vn 0.500977 -0.034668 0.864258
vn -0.00327682 0.999512 -0.00476456
vn -0.00327682 0.999512 -0.00476456
vn -0.00327682 0.999512 -0.00476456
vn -0.00327682 0.999512 -0.00476456
vn -0.588867 -0.0050621 -0.807617
vn -0.588867 -0.0050621 -0.807617
vn -0.588867 -0.0050621 -0.807617
vn -0.588867 -0.0050621 -0.807617
vn 0 -1 0
vn 0 -1 0
vn 0 -1 0
vn 0 -1 0
vn 0.84082 -0.00387573 -0.541016
vn 0.84082 -0.00387573 -0.541016
vn 0.84082 -0.00387573 -0.541016
vn 0.84082 -0.00387573 -0.541016
vn -0.919434 -0.329346 0.213745
vn -0.919434 -0.329346 0.213745
vn -0.919434 -0.329346 0.213745
vn -0.24707 0.256104 0.934082
vn -0.24707 0.256104 0.934082
vn -0.24707 0.256104 0.934082
vn -0.24707 0.256104 0.934082
vn -0.104675 0.982422 -0.152344
vn -0.104675 0.982422 -0.152344
vn -0.104675 0.982422 -0.152344
vn -0.104675 0.982422 -0.152344
vn -0.752441 0.102356 0.649902
vn -0.646973 0.583008 0.490234
vn -0.859375 0.0311432 0.509766
vn -0.859375 0.0311432 0.509766
vn -0.630371 0.484863 0.605469
vn -0.630371 0.484863 0.605469
vn -0.630371 0.484863 0.605469
vn 0.400635 -0.00685883 0.916016
vn 0.400635 -0.00685883 0.916016
vn 0.400635 -0.00685883 0.916016
vn 0.400635 -0.00685883 0.916016
vn 0 -1 0
vn 0 -1 0
vn 0 -1 0
vn -0.0136108 0.999512 0.00820923
vn -0.0136108 0.999512 0.00820923
vn -0.0136108 0.999512 0.00820923
vn 0.748535 0.223267 -0.624023
vn 0.709473 0.0473022 -0.702637
vn 0.758789 0.343994 -0.552246
vn 0.666504 -0.0750732 -0.741211
vn 0.202271 0.970703 -0.12915
vn 0.733887 0.678711 0.0033226
vn 0.792969 0.60791 0.0243225
vn 0.848145 0.516113 -0.115845
vn 0.848145 0.516113 -0.115845
vn 0.848145 0.516113 -0.115845
vn 0.848145 0.516113 -0.115845
vn -0.0842285 -0.885742 -0.455811
vn -0.0842285 -0.885742 -0.455811
vn -0.0842285 -0.885742 -0.455811
vn -0.0842285 -0.885742 -0.455811
vn 0.378906 -0.407715 0.830566
vn 0.378906 -0.407715 0.830566
vn 0.378906 -0.407715 0.830566
vn -0.372314 0.615723 -0.693848
vn -0.372314 0.615723 -0.693848
vn -0.372314 0.615723 -0.693848
vn -0.625977 0.491211 0.60498
vn -0.625977 0.491211 0.60498
vn -0.625977 0.491211 0.60498
vn -0.625977 0.491211 0.60498
vn -0.237915 0.19458 0.951172
vn -0.237915 0.19458 0.951172
vn -0.237915 0.19458 0.951172
vn -0.237915 0.19458 0.951172
vn -0.93457 -0.0397644 -0.352539
vn -0.93457 -0.0397644 -0.352539
vn -0.93457 -0.0397644 -0.352539
vn -0.93457 -0.0397644 -0.352539
vn 0.00435638 -0.999023 -0.0435791
vn 0.00435638 -0.999023 -0.0435791
vn 0.00435638 -0.999023 -0.0435791
vn 0.873047 -0.0450134 -0.485107
vn 0.873047 -0.0450134 -0.485107
vn 0.873047 -0.0450134 -0.485107
vn 0.873047 -0.0450134 -0.485107
vn 0.0619507 0.998047 -0.00546646
vn 0.0619507 0.998047 -0.00546646
vn 0.0619507 0.998047 -0.00546646

vt 0.74592 0.0158646
vt 0.74592 0.144771
vt 0.627496 0.144771
vt 0.627496 0.0158646
vt 0.614289 0.405358
vt 0.501686 0.405358
vt 0.501687 0.280468
vt 0.577088 0.287105
vt 0.691754 0.152583
vt 0.691754 0.277583
vt 0.627496 0.215083
vt 0.598915 0.292215
vt 0.61904 0.41332
vt 0.502119 0.41332
vt 0.502119 0.285579
vt 0.850654 0.922876
vt 0.837393 0.993813
vt 0.759676 0.948824
vt 0.755908 0.871079
vt 0.936914 0.863065
vt 0.998166 0.985487
vt 0.875662 0.992213
vt 0.879556 0.73835
vt 0.996486 0.73835
vt 0.996486 0.849795
vt 0.889102 0.845583
vt 0.916476 0.696214
vt 0.936914 0.601283
vt 0.998166 0.722341
vt 0.794827 0.855276
vt 0.794827 0.734644
vt 0.859281 0.734644
vt 0.846493 0.828928
vt 0.499227 0.124238
vt 0.393197 0.124238
vt 0.393197 0.00237173
vt 0.499227 0.000571907
vt 0.351387 0.675549
vt 0.464672 0.556073
vt 0.408008 0.780186
vt 0.272171 0.653479
vt 0.307539 0.497563
vt 0.145331 0.111059
vt 0.14502 0.00482821
vt 0.237679 0.00310904
vt 0.393197 0.11497
vt 0.393197 0.00237173
vt 0.465989 0.00237173
vt 0.430968 0.11497
vt 0.204441 0.126014
vt 0.16916 0.00237179
vt 0.249503 0.00237173
vt 0.249503 0.126014
vt 0.644784 0.687498
vt 0.574893 0.687681
vt 0.578684 0.445165
vt 0.672186 0.445165
vt 0.775184 0.84708
vt 0.699292 0.848694
vt 0.679592 0.702907
vt 0.795287 0.70394
vt 0.655015 0.858753
vt 0.64554 1.10373
vt 0.537051 1.10341
vt 0.560835 0.858753
vt 0.672186 0.703356
vt 0.672186 0.847942
vt 0.578684 0.847942
vt 0.578684 0.703356
vt 0.689711 0.799235
vt 0.689449 0.554803
vt 0.787081 0.554803
vt 0.787133 0.797969
vt 0.734863 0.858753
vt 0.662017 1.10324
vt 0.663429 0.858753
vt 0.622924 0.144954
vt 0.591398 0.277766
vt 0.504449 0.277766
vt 0.504449 0.144954
vt 0.131958 0.359579
vt 0.0883768 0.253478
vt 0.203128 0.253478
vt 0.203128 0.359579
vt 0.794827 0.722341
vt 0.835185 0.601283
vt 0.859281 0.601283
vt 0.859281 0.715615
vt 0.731493 1.04512
vt 0.662017 1.10324
vt 0.734863 0.858753
vt 0.4427 0.248811
vt 0.442035 0.374916
vt 0.393055 0.374916
vt 0.393055 0.248811
vt 0.434045 0.475874
vt 0.499362 0.443014
vt 0.499362 0.498409
vt 0.0574458 0.498665
vt 0.0841003 0.375129
vt 0.107371 0.498665
vt 0.429323 0.743347
vt 0.260871 0.716924
vt 0.388835 0.626438
vt 0.30896 0.835244
vt 0.504449 0.0726599
vt 0.591398 0.00818145
vt 0.580026 0.137141
vt 0.560835 0.858753
vt 0.655015 0.858753
vt 0.655015 0.991276
vt 0.560835 0.991276
vt 0.671796 0.704089
vt 0.671796 0.843028
vt 0.575548 0.843028
vt 0.575548 0.704089
vt 0.738265 0.687327
vt 0.689449 0.554803
vt 0.787081 0.593823
vt 0.734863 0.858753
vt 0.699812 0.991659
vt 0.663429 0.858753
vt 0.633641 0.574457
vt 0.576672 0.574457
vt 0.576672 0.441125
vt 0.633641 0.441125
vt 0.570091 0.829075
vt 0.489831 0.832773
vt 0.489831 0.738852
vt 0.564296 0.732243
vt 0.672256 0.290276
vt 0.664834 0.337462
vt 0.627496 0.337462
vt 0.627496 0.290276
vt 0.552735 0.295557
vt 0.621687 0.414485
vt 0.504449 0.414485
vt 0.744684 0.0158646
vt 0.744135 0.143888
vt 0.628617 0.143515
vt 0.627496 0.0158646
vt 0.621128 0.144954
vt 0.571779 0.277766
vt 0.505572 0.144954


#
# MESH 000
#
g surface_000
usemtl surface_000
f 106/106/106 107/107/107 108/108/108
f 99/99/99 100/100/100 101/101/101
f 96/96/96 97/97/97 98/98/98
f 89/89/89 90/90/90 91/91/91
f 74/74/74 75/75/75 76/76/76
f 43/43/43 44/44/44 45/45/45
f 27/27/27 28/28/28 29/29/29
f 20/20/20 21/21/21 22/22/22
f 9/9/9 10/10/10 11/11/11
f 102/102/102 105/105/105 103/103/103
f 102/102/102 103/103/103 104/104/104
f 92/92/92 94/94/94 95/95/95
f 92/92/92 93/93/93 94/94/94
f 85/85/85 87/87/87 88/88/88
f 85/85/85 86/86/86 87/87/87
f 81/81/81 83/83/83 84/84/84
f 81/81/81 82/82/82 83/83/83
f 77/77/77 79/79/79 80/80/80
f 77/77/77 78/78/78 79/79/79
f 70/70/70 72/72/72 73/73/73
f 70/70/70 71/71/71 72/72/72
f 66/66/66 68/68/68 69/69/69
f 66/66/66 67/67/67 68/68/68
f 62/62/62 64/64/64 65/65/65
f 62/62/62 63/63/63 64/64/64
f 58/58/58 60/60/60 61/61/61
f 58/58/58 59/59/59 60/60/60
f 54/54/54 56/56/56 57/57/57
f 54/54/54 55/55/55 56/56/56
f 50/50/50 52/52/52 53/53/53
f 50/50/50 51/51/51 52/52/52
f 46/46/46 48/48/48 49/49/49
f 46/46/46 47/47/47 48/48/48
f 38/38/38 41/41/41 42/42/42
f 38/38/38 42/42/42 39/39/39
f 38/38/38 39/39/39 40/40/40
f 34/34/34 36/36/36 37/37/37
f 34/34/34 35/35/35 36/36/36
f 30/30/30 32/32/32 33/33/33
f 30/30/30 31/31/31 32/32/32
f 23/23/23 25/25/25 26/26/26
f 23/23/23 24/24/24 25/25/25
f 16/16/16 18/18/18 19/19/19
f 16/16/16 17/17/17 18/18/18
f 12/12/12 14/14/14 15/15/15
f 12/12/12 13/13/13 14/14/14
f 5/5/5 7/7/7 8/8/8
f 5/5/5 6/6/6 7/7/7
f 1/1/1 3/3/3 4/4/4
f 1/1/1 2/2/2 3/3/3
f 120/120/120 121/121/121 122/122/122
f 117/117/117 118/118/118 119/119/119
f 123/123/123 125/125/125 126/126/126
f 123/123/123 124/124/124 125/125/125
f 113/113/113 115/115/115 116/116/116
f 113/113/113 114/114/114 115/115/115
f 109/109/109 111/111/111 112/112/112
f 109/109/109 110/110/110 111/111/111
f 142/142/142 143/143/143 144/144/144
f 135/135/135 136/136/136 137/137/137
f 138/138/138 140/140/140 141/141/141
f 138/138/138 139/139/139 140/140/140
f 131/131/131 133/133/133 134/134/134
f 131/131/131 132/132/132 133/133/133
f 127/127/127 129/129/129 130/130/130
f 127/127/127 128/128/128 129/129/129

