#
# OBJECT NAME
#
o model_2551
mtllib 2551.mtl

#
# VERTEX BUFFER 000
#
v 0.181031 0 0.254473
v 0 0.333288 0.155528
v 0.271741 0.25412 0.18962
v -0.181612 0 0.254473
v -0.271741 0.25412 0.18962
v 0.181031 0 0.331346
v 0.271741 0.25412 0.266492
v 0 0.333288 0.232401
v -0.181612 0 0.331346
v -0.271741 0.25412 0.266492
v 0.181031 0 0.331346
v 0.181031 0 0.254473
v 0.271741 0.25412 0.18962
v 0.271741 0.25412 0.266492
v 0.271741 0.25412 0.18962
v 0 0.333288 0.155528
v 0 0.333288 0.232401
v 0.271741 0.25412 0.266492
v -0.271741 0.25412 0.18962
v -0.271741 0.25412 0.266492
v -0.271741 0.25412 0.266492
v -0.271741 0.25412 0.18962
v -0.181612 0 0.254473
v -0.181612 0 0.331346
v -0.181612 0 0.331346
v -0.181612 0 0.254473
v 0.181031 0 0.254473
v 0.181031 0 0.331346
v -0.17339 0.0531004 0.239308
v 0.17339 0.0531004 0.239308
v 0.17339 0.0531004 0.0769283
v -0.17339 0.0531004 0.0769283
v -0.17339 0.0531004 0.0769283
v 0.17339 0.0531004 0.0769283
v 0.17339 0 0.0769283
v -0.17339 0 0.0769283
v -0.17339 0 0.0769283
v 0.17339 0 0.0769283
v 0.17339 0 0.255056
v -0.17339 0 0.255056
v 0.17339 0 0.255056
v 0.17339 0 0.0769283
v 0.17339 0.0531004 0.0769283
v 0.17339 0.0531004 0.239308
v -0.17339 0 0.0769283
v -0.17339 0 0.255056
v -0.17339 0.0531004 0.239308
v -0.17339 0.0531004 0.0769283
v 0.17339 0.0577422 0.316193
v -0.17339 0.0577422 0.316193
v -0.17339 0.0577422 0.332071
v 0.17339 0.0577422 0.332071
v 0.17339 0.0342121 0.3635
v -0.17339 0.0342121 0.3635
v -0.17339 0.0342121 0.319729
v 0.17339 0.0342121 0.319729
v -0.17339 0.0342121 0.319729
v -0.17339 0.0342121 0.3635
v -0.17339 0.0577422 0.332071
v -0.17339 0.0577422 0.316193
v 0.17339 0.0342121 0.3635
v 0.17339 0.0342121 0.319729
v 0.17339 0.0577422 0.316193
v 0.17339 0.0577422 0.332071
v 0.17339 0.0577422 0.332071
v -0.17339 0.0577422 0.332071
v -0.17339 0.0897417 0.331876
v 0.17339 0.0897417 0.331876
v 0.17339 0.0897417 0.331876
v -0.17339 0.0897417 0.331876
v -0.17339 0.0897417 0.3635
v 0.17339 0.0897417 0.3635
v 0.17339 0.0897417 0.3635
v -0.17339 0.0897417 0.3635
v -0.17339 0.0342121 0.3635
v 0.17339 0.0342121 0.3635
v -0.17339 0.0342121 0.3635
v -0.17339 0.0897417 0.3635
v -0.17339 0.0897417 0.331876
v -0.17339 0.0577422 0.332071
v 0.17339 0.0897417 0.3635
v 0.17339 0.0342121 0.3635
v 0.17339 0.0577422 0.332071
v 0.17339 0.0897417 0.331876
v 0.150834 0.0352575 0.331876
v 0.226413 0.253823 0.277639
v 0 0.313836 0.249234
v -0.151318 0.0352575 0.331876
v -0.226413 0.253823 0.277639
v 0.150834 0.0352575 0.331876
v 0.150834 0.0352575 0.320702
v 0.226413 0.250727 0.267269
v 0.226413 0.253823 0.277639
v 0.226413 0.250727 0.267269
v 0 0.31074 0.238865
v 0 0.313836 0.249234
v 0.226413 0.253823 0.277639
v -0.226413 0.250727 0.267269
v -0.226413 0.253823 0.277639
v -0.226413 0.253823 0.277639
v -0.226413 0.250727 0.267269
v -0.151318 0.0352575 0.320702
v -0.151318 0.0352575 0.331876

vn 0.0142288 -0.277344 -0.960449
vn 1.88947e-005 -0.273193 -0.961914
vn 0.0446167 -0.261719 -0.963867
vn -0.0142365 -0.277344 -0.960449
vn -0.0446472 -0.261719 -0.963867
vn -0.0142288 0.277344 0.960449
vn -0.0446167 0.261719 0.963867
vn -1.88351e-005 0.273193 0.961914
vn 0.0142365 0.277344 0.960449
vn 0.0446472 0.261719 0.963867
vn 0.941406 -0.336182 0
vn 0.941406 -0.336182 0
vn 0.941406 -0.336182 0
vn 0.941406 -0.336182 0
vn 0.279541 0.959961 0
vn 0 1 -1.19209e-007
vn 0 1 -1.19209e-007
vn 0.279541 0.959961 0
vn -0.279541 0.959961 -2.38419e-007
vn -0.279541 0.959961 -2.38419e-007
vn -0.942383 -0.334229 0
vn -0.942383 -0.334229 0
vn -0.942383 -0.334229 0
vn -0.942383 -0.334229 0
vn 0 -1 0
vn 0 -1 0
vn 0 -1 0
vn 0 -1 0
vn 0 1 0
vn 0 1 0
vn 0 1 0
vn 0 1 0
vn 0 0 -1
vn 0 0 -1
vn 0 0 -1
vn 0 0 -1
vn 0 -1 0
vn 0 -1 0
vn 0 -1 0
vn 0 -1 0
vn 1 -2.98023e-007 0
vn 1 -2.98023e-007 0
vn 1 -2.98023e-007 0
vn 1 -2.98023e-007 0
vn -1 -2.98023e-007 0
vn -1 -2.98023e-007 0
vn -1 -2.98023e-007 0
vn -1 -2.98023e-007 0
vn 0 1 0
vn 0 1 0
vn 0 1 0
vn 0 1 0
vn 0 -1 0
vn 0 -1 0
vn 0 -1 0
vn 0 -1 0
vn -1 -2.98023e-007 0
vn -1 -2.98023e-007 0
vn -1 -2.98023e-007 0
vn -1 -2.98023e-007 0
vn 1 -1.07288e-006 0
vn 1 -1.07288e-006 0
vn 1 -1.07288e-006 0
vn 1 -1.07288e-006 0
vn 0 -0.00609207 -0.999512
vn 0 -0.00609207 -0.999512
vn 0 -0.00609207 -0.999512
vn 0 -0.00609207 -0.999512
vn 0 1 0
vn 0 1 0
vn 0 1 0
vn 0 1 0
vn 0 0 1
vn 0 0 1
vn 0 0 1
vn 0 0 1
vn -1 0 0
vn -1 0 0
vn -1 0 0
vn -1 0 0
vn 1 0 0
vn 1 0 0
vn 1 0 0
vn 1 0 0
vn -0.0168457 0.275879 0.960938
vn -0.0527344 0.257568 0.964355
vn -2.21133e-005 0.270508 0.962402
vn 0.016861 0.275879 0.960938
vn 0.0527649 0.257324 0.964355
vn 0.946777 -0.318359 0.0457458
vn 0.946777 -0.318359 0.0457458
vn 0.946777 -0.318359 0.0457458
vn 0.946777 -0.318359 0.0457458
vn 0.27832 0.919922 -0.274658
vn -1.78814e-007 0.958008 -0.285889
vn -1.78814e-007 0.958008 -0.285889
vn 0.27832 0.919922 -0.274658
vn -0.27832 0.919922 -0.274658
vn -0.27832 0.919922 -0.274658
vn -0.947266 -0.316406 0.0454712
vn -0.947266 -0.316406 0.0454712
vn -0.947266 -0.316406 0.0454712
vn -0.947266 -0.316406 0.0454712

vt 0.551056 0.657447
vt 0.72096 0.974461
vt 0.465921 0.864921
vt 0.891409 0.657447
vt 0.975999 0.864921
vt 0.855335 0.306089
vt 0.937084 0.509551
vt 0.691497 0.619973
vt 0.524795 0.306089
vt 0.443601 0.509551
vt 0.698054 0.0892992
vt 0.698054 0.0222458
vt 0.909146 0.0222459
vt 0.909146 0.0892993
vt 0.94072 0.184077
vt 0.692995 0.184077
vt 0.692995 0.116479
vt 0.94072 0.116479
vt 0.435415 0.184077
vt 0.435415 0.116479
vt 0.468574 0.0892992
vt 0.468574 0.0222458
vt 0.679666 0.0222458
vt 0.679666 0.0892992
vt 0.517651 0.284463
vt 0.517651 0.208152
vt 0.864786 0.208152
vt 0.864786 0.284462
vt 0.38879 0.518189
vt 0.0559601 0.518189
vt 0.0559601 0.360569
vt 0.38879 0.360569
vt 0.38879 0.345627
vt 0.0559601 0.345627
vt 0.0559601 0.294117
vt 0.38879 0.294117
vt 0.38879 0.704272
vt 0.0559601 0.704271
vt 0.0559601 0.525358
vt 0.38879 0.525358
vt 0.2254 0.284952
vt 0.0464859 0.284952
vt 0.0464859 0.231617
vt 0.209582 0.231617
vt 0.412448 0.284952
vt 0.233534 0.284951
vt 0.249352 0.231617
vt 0.412448 0.231617
vt 0.360652 0.0484029
vt 0.0457333 0.0484028
vt 0.0457333 0.0371926
vt 0.360652 0.0371926
vt 0.360652 0.0314673
vt 0.0457333 0.0314673
vt 0.0457333 0.00492114
vt 0.360652 0.00492114
vt 0.234921 0.0698682
vt 0.208375 0.0698682
vt 0.227294 0.0576315
vt 0.238504 0.0576315
vt 0.272346 0.0698682
vt 0.2458 0.0698682
vt 0.242218 0.0576315
vt 0.253428 0.0576315
vt 0.35474 0.201897
vt 0.0499496 0.201897
vt 0.0499496 0.149436
vt 0.35474 0.149436
vt 0.35474 0.219053
vt 0.0499496 0.219053
vt 0.0499496 0.212716
vt 0.35474 0.212716
vt 0.35474 0.136379
vt 0.0499496 0.136379
vt 0.0499496 0.0807071
vt 0.35474 0.0807071
vt 0.115615 0.0752109
vt 0.0501777 0.0752109
vt 0.0459709 0.06093
vt 0.0984325 0.06093
vt 0.184772 0.0752109
vt 0.119334 0.0752109
vt 0.136517 0.06093
vt 0.188979 0.06093
vt 0.352876 0.726282
vt 0.420635 0.880233
vt 0.234614 0.95758
vt 0.109668 0.726282
vt 0.0477008 0.880233
vt 0.352876 0.726282
vt 0.363265 0.726282
vt 0.431024 0.880233
vt 0.420635 0.880233
vt 0.42668 0.992771
vt 0.23146 0.992771
vt 0.23146 0.981663
vt 0.42668 0.981663
vt 0.0284736 0.992771
vt 0.0284736 0.981663
vt 0.0477008 0.880233
vt 0.0373122 0.880233
vt 0.0992798 0.726282
vt 0.109668 0.726282


#
# MESH 000
#
g surface_000
usemtl surface_000
f 100/100/100 102/102/102 103/103/103
f 100/100/100 101/101/101 102/102/102
f 95/95/95 98/98/98 99/99/99
f 95/95/95 99/99/99 96/96/96
f 94/94/94 95/95/95 96/96/96
f 94/94/94 96/96/96 97/97/97
f 90/90/90 92/92/92 93/93/93
f 90/90/90 91/91/91 92/92/92
f 88/88/88 87/87/87 89/89/89
f 88/88/88 85/85/85 87/87/87
f 85/85/85 86/86/86 87/87/87
f 81/81/81 83/83/83 84/84/84
f 81/81/81 82/82/82 83/83/83
f 77/77/77 79/79/79 80/80/80
f 77/77/77 78/78/78 79/79/79
f 73/73/73 75/75/75 76/76/76
f 73/73/73 74/74/74 75/75/75
f 69/69/69 71/71/71 72/72/72
f 69/69/69 70/70/70 71/71/71
f 65/65/65 67/67/67 68/68/68
f 65/65/65 66/66/66 67/67/67
f 61/61/61 63/63/63 64/64/64
f 61/61/61 62/62/62 63/63/63
f 57/57/57 59/59/59 60/60/60
f 57/57/57 58/58/58 59/59/59
f 53/53/53 55/55/55 56/56/56
f 53/53/53 54/54/54 55/55/55
f 49/49/49 51/51/51 52/52/52
f 49/49/49 50/50/50 51/51/51
f 45/45/45 47/47/47 48/48/48
f 45/45/45 46/46/46 47/47/47
f 41/41/41 43/43/43 44/44/44
f 41/41/41 42/42/42 43/43/43
f 37/37/37 39/39/39 40/40/40
f 37/37/37 38/38/38 39/39/39
f 33/33/33 35/35/35 36/36/36
f 33/33/33 34/34/34 35/35/35
f 29/29/29 31/31/31 32/32/32
f 29/29/29 30/30/30 31/31/31
f 25/25/25 27/27/27 28/28/28
f 25/25/25 26/26/26 27/27/27
f 21/21/21 23/23/23 24/24/24
f 21/21/21 22/22/22 23/23/23
f 19/19/19 20/20/20 17/17/17
f 19/19/19 17/17/17 16/16/16
f 15/15/15 16/16/16 17/17/17
f 15/15/15 17/17/17 18/18/18
f 11/11/11 13/13/13 14/14/14
f 11/11/11 12/12/12 13/13/13
f 9/9/9 8/8/8 10/10/10
f 9/9/9 6/6/6 8/8/8
f 6/6/6 7/7/7 8/8/8
f 4/4/4 5/5/5 2/2/2
f 4/4/4 2/2/2 1/1/1
f 1/1/1 2/2/2 3/3/3

