g e005v002_m
v 0.1600981 0.5706485 0.02782363
v 0.02022147 -2.793968E-09 0.03626072
v -0.01770401 2.095476E-08 0.04575966
v 0.1201384 0.5794841 0.03853011
v 0.3038468 0.9480337 0.2080922
v 0.1127617 0.5937314 -0.0005356148
v -0.02443457 1.564622E-07 0.007716004
v 0.2636025 0.9593346 0.2191322
v 0.2921526 0.9874512 0.2075488
v 0.261899 0.9869658 0.1834187
v 0.1527207 0.5848957 -0.01124211
v 0.01349068 5.16884E-08 -0.001782844
v 0.02022147 -2.793968E-09 0.03626072
v 0.1600981 0.5706485 0.02782363
v 0.3021433 0.9756647 0.172379
v 0.2921526 0.9874512 0.2075488
v 0.3038468 0.9480337 0.2080922
v -0.02049494 0.770015 -0.1126212
v 0.02314973 1.614848 -0.2480019
v 0.07189846 1.604014 -0.2538598
v -0.06719136 0.7717936 -0.1055506
v 0.01710939 -0.001391398 0.02681644
v -0.02454352 0.004298859 0.03313579
v -0.03064752 0.001391378 -0.00898503
v 0.01532578 1.606069 -0.2968872
v -0.0744431 0.7651491 -0.1517764
v 0.01100492 -0.004298886 -0.01530433
v -0.0277493 0.763371 -0.1588467
v 0.01710939 -0.001391398 0.02681644
v 0.06407404 1.595236 -0.302746
v -0.02049494 0.770015 -0.1126212
v 0.07189846 1.604014 -0.2538598
v 0.1773775 1.73795 -0.2191894
v 0.07189846 1.604014 -0.2538598
v 0.02314973 1.614848 -0.2480019
v -0.01119375 1.779421 -0.1965535
v 0.1391656 2.088888 -0.3735899
v 0.01532578 1.606069 -0.2968872
v -0.04147696 1.744824 -0.3854385
v 0.06407404 1.595236 -0.302746
v -0.04147696 1.744824 -0.3854385
v 0.01532578 1.606069 -0.2968872
v 0.147095 1.703354 -0.4080755
v 0.07189846 1.604014 -0.2538598
v 0.1391656 2.088888 -0.3735899
v 0.1773775 1.73795 -0.2191894
v 0.01349068 5.16884E-08 -0.001782844
v -0.02443457 1.564622E-07 0.007716004
v -0.01770401 2.095476E-08 0.04575966
v 0.02022147 -2.793968E-09 0.03626072
v -0.01973772 -0.03605277 -0.03614237
v 0.007976055 -0.01168819 -0.01257651
v 0.03246284 -0.005029818 -0.04825723
v 0.004748821 -0.02939457 -0.0718229
v -0.03064752 0.001391378 -0.00898503
v -0.02454352 0.004298859 0.03313579
v 0.01710939 -0.001391398 0.02681644
v 0.01100492 -0.004298886 -0.01530433
v -0.4755542 1.232353 -0.4422427
v -0.428297 1.199028 -0.4327103
v -0.4694736 1.211691 -0.3908119
v -0.2917228 0.545848 -0.1648642
v -0.5126364 1.194543 -0.4277035
v -0.3224344 0.544261 -0.1279037
v 0.03246284 -0.005029818 -0.04825723
v 0.007976055 -0.01168819 -0.01257651
v -0.353477 0.5191739 -0.1548581
v -0.01973772 -0.03605277 -0.03614237
v 0.004748821 -0.02939457 -0.0718229
v -0.3227654 0.520761 -0.1918188
v 0.03246284 -0.005029818 -0.04825723
v -0.2917228 0.545848 -0.1648642
v -0.4714601 1.181881 -0.4696022
v -0.4755542 1.232353 -0.4422427
v -0.428297 1.199028 -0.4327103
v 0.302649 1.968145 -0.2697659
v 0.07101703 2.056041 -0.162403
v 0.175977 2.449209 -0.2442265
v -0.161608 1.731659 -0.1755028
v 0.3815446 2.316828 -0.6166307
v 0.04395962 1.599279 -0.5479071
v 0.2765846 1.92366 -0.5348072
v 0.09811449 1.907351 -0.5932148
v 0.315681 1.915506 -0.4543017
v 0.391609 2.282572 -0.5851494
v 0.2580149 1.645494 -0.1903006
v -0.02596092 2.367337 -0.5896649
v -0.159555 1.730258 -0.1948158
v -0.1018884 2.000271 -0.4588168
v -0.06643248 2.039924 -0.340746
v 0.05446935 1.977876 -0.5725488
v 0.1283689 2.377367 -0.6471812
v 0.1504323 1.595446 -0.522514
v 0.1841187 2.448148 -0.2130987
v 0.206182 1.666228 -0.08843176
v 0.110219 2.048658 -0.1384664
v -0.1448882 1.808475 -0.4987622
v 0.07688975 1.787707 -0.6024577
v 0.03607273 2.124333 -0.7688413
v 0.2409155 1.539797 -0.393368
v -0.1716175 2.258033 -0.4473909
v 0.0332253 1.673496 -0.07191754
v -0.1308005 1.921406 -0.281007
v 0.04365182 1.88068 -0.05412937
v -0.1167631 1.927958 -0.2341333
v -0.06317306 2.299361 -0.1910605
v -0.1271832 1.614331 -0.4174677
v 0.3258908 2.232528 -0.09884322
v 0.2618806 1.547498 -0.3252504
v 0.2723007 1.861125 -0.1419163
v 0.3291385 1.727137 -0.4522469
v 0.3438823 1.815771 -0.2235631
v 0.5313661 2.11916 -0.3479486
v 0.07661676 1.63974 -0.05132898
v 0.3149705 2.112367 -0.690685
v -0.1397786 1.632947 -0.3940653
v 0.1274869 1.808978 -0.5662993
v 0.1205275 1.636255 -0.5610681
v 0.2811329 1.69377 -0.4409593
v 0.3679268 1.915431 -0.6559019
v 0.1990287 1.589783 -0.1622475
v 0.03694725 1.970355 -0.7329109
v -0.1319506 1.644707 -0.2392564
v -0.04984689 1.748695 -0.5179684
v 0.3169613 1.725068 -0.1221602
v 0.131938 1.836201 -0.04043097
v 0.3252494 2.129028 0.01208028
v -0.1277866 1.653756 -0.1661001
v 0.5318041 2.048172 -0.2974275
v 0.07876778 1.572901 -0.4756083
v 0.3384926 1.755345 -0.349939
v -0.1613934 1.792435 -0.1696223
v -0.1579599 1.80615 -0.3777767
v -0.2443836 2.114665 -0.3630641
v 0.0207274 1.568102 -0.4592536
v -0.06277251 2.151706 -0.07299581
v 0.2023387 1.605143 -0.1691851
v 0.02365112 1.843192 -0.0877085
v -0.466841 1.169834 -0.4123334
v -0.6992455 1.54879 -0.0429959
v -1.058213 1.386538 -0.1348203
v -1.032051 1.239647 -0.5107904
v -0.3274434 1.649947 0.08007295
v -0.9930534 1.031659 -0.8555169
v -0.07545972 1.584454 -0.2294921
v -0.6139498 1.084248 -0.9864001
v 0.1893578 1.457864 -0.5078128
v -0.2220118 1.075741 -1.086039
v -0.02274394 1.29735 -0.812548
v 0.2751648 0.9569723 0.1848466
v 0.2170396 0.911764 0.6856952
v -0.1106567 1.038751 0.6407838
v -0.1059356 1.244859 0.352643
v 0.523865 0.7352974 0.7013603
v -0.1220851 1.401487 0.03525564
v 0.7246652 0.8476325 0.4319386
v 0.2020807 1.386591 -0.1069515
v 0.9045939 0.9104886 0.1332703
v 0.5053749 1.322217 -0.2784049
v 0.7154198 1.141092 -0.05794412
vt 0.6425781 0.9907227
vt 0.8613281 0.9907227
vt 0.8652344 0.9609375
vt 0.6425781 0.9609375
vt 0.4885254 0.9907227
vt 0.6411133 0.9316406
vt 0.8642578 0.9316406
vt 0.4885254 0.9609375
vt 0.4780273 0.9609375
vt 0.4885254 0.9316406
vt 0.6411133 0.9008789
vt 0.8608398 0.9008789
vt 0.8618164 0.8720703
vt 0.6420898 0.8720703
vt 0.4885254 0.9008789
vt 0.4768066 0.9008789
vt 0.4885254 0.8720703
vt 0.6269531 0.9907227
vt 0.3728027 0.9609375
vt 0.3728027 0.9907227
vt 0.6269531 0.9609375
vt 0.8793945 0.9907227
vt 0.8769531 0.9609375
vt 0.875 0.9316406
vt 0.3728027 0.9316406
vt 0.6264648 0.9316406
vt 0.8779297 0.9008789
vt 0.6264648 0.9008789
vt 0.8793945 0.8720703
vt 0.3728027 0.9008789
vt 0.6269531 0.8720703
vt 0.3728027 0.8720703
vt 0.05218506 0.7788086
vt 0.005844116 0.8422852
vt 0.005844116 0.8774414
vt 0.05218506 0.8774414
vt 0.1606445 0.8774414
vt 0.005844116 0.9121094
vt 0.05218506 0.9794922
vt 0.005844116 0.8774414
vt 0.05218506 0.7788086
vt 0.005844116 0.8422852
vt 0.05218506 0.8774414
vt 0.005844116 0.9121094
vt 0.1606445 0.8774414
vt 0.05218506 0.9794922
vt 0.8442383 0.9428711
vt 0.8491211 0.9384766
vt 0.8476563 0.9291992
vt 0.8432617 0.9335938
vt 0.8500977 0.9667969
vt 0.8457031 0.9609375
vt 0.8427734 0.9697266
vt 0.847168 0.9755859
vt 0.8486328 0.9467773
vt 0.8481445 0.9365234
vt 0.8427734 0.9384766
vt 0.84375 0.9487305
vt 0.4780273 0.9609375
vt 0.4885254 0.9907227
vt 0.4885254 0.9609375
vt 0.6943359 0.9907227
vt 0.4885254 0.9316406
vt 0.6943359 0.9609375
vt 0.9013672 0.9907227
vt 0.9003906 0.9609375
vt 0.6953125 0.9316406
vt 0.9008789 0.9316406
vt 0.9018555 0.9008789
vt 0.6953125 0.9008789
vt 0.9013672 0.8720703
vt 0.6943359 0.8720703
vt 0.4885254 0.9008789
vt 0.4768066 0.9008789
vt 0.4885254 0.8720703
vt 0.800293 0.2386475
vt 0.793457 0.4455566
vt 0.9921875 0.4455566
vt 0.6201172 0.4455566
vt 0.9921875 0.03167725
vt 0.6201172 0.03167725
vt 0.793457 0.03167725
vt 0.800293 0.2386475
vt 0.793457 0.4455566
vt 0.9921875 0.4455566
vt 0.6201172 0.4455566
vt 0.9921875 0.03167725
vt 0.6201172 0.03167725
vt 0.793457 0.03167725
vt 0.800293 0.2386475
vt 0.793457 0.4455566
vt 0.9921875 0.4455566
vt 0.6201172 0.4455566
vt 0.9921875 0.03167725
vt 0.6201172 0.03167725
vt 0.793457 0.03167725
vt 0.800293 0.2386475
vt 0.793457 0.4455566
vt 0.9921875 0.4455566
vt 0.6201172 0.4455566
vt 0.9921875 0.03167725
vt 0.6201172 0.03167725
vt 0.793457 0.03167725
vt 0.800293 0.2386475
vt 0.793457 0.4455566
vt 0.9921875 0.4455566
vt 0.6201172 0.4455566
vt 0.9921875 0.03167725
vt 0.6201172 0.03167725
vt 0.793457 0.03167725
vt 0.800293 0.2386475
vt 0.793457 0.4455566
vt 0.9921875 0.4455566
vt 0.6201172 0.4455566
vt 0.9921875 0.03167725
vt 0.6201172 0.03167725
vt 0.793457 0.03167725
vt 0.800293 0.2386475
vt 0.793457 0.4455566
vt 0.9921875 0.4455566
vt 0.6201172 0.4455566
vt 0.9921875 0.03167725
vt 0.6201172 0.03167725
vt 0.793457 0.03167725
vt 0.800293 0.2386475
vt 0.793457 0.4455566
vt 0.9921875 0.4455566
vt 0.6201172 0.4455566
vt 0.9921875 0.03167725
vt 0.6201172 0.03167725
vt 0.793457 0.03167725
vt 0.800293 0.2386475
vt 0.793457 0.4455566
vt 0.9921875 0.4455566
vt 0.6201172 0.4455566
vt 0.9921875 0.03167725
vt 0.6201172 0.03167725
vt 0.793457 0.03167725
vt 0.2675781 0.4543457
vt 0.4760742 0.3308105
vt 0.4274902 0.02436829
vt 0.2675781 0.02436829
vt 0.5244141 0.6352539
vt 0.1074219 0.02436829
vt 0.3918457 0.8232422
vt 0.05700684 0.3308105
vt 0.2675781 1.011719
vt 0.006591797 0.6352539
vt 0.137085 0.8232422
vt 0.2675781 0.4543457
vt 0.4760742 0.3308105
vt 0.4274902 0.02436829
vt 0.2675781 0.02436829
vt 0.5244141 0.6352539
vt 0.1074219 0.02436829
vt 0.3918457 0.8232422
vt 0.05700684 0.3308105
vt 0.2675781 1.011719
vt 0.006591797 0.6352539
vt 0.137085 0.8232422
vn 0.8374023 -0.3322754 0.4338379
vn 0.7949219 -0.1844482 0.578125
vn -0.5795898 0.1456299 0.8017578
vn -0.6040039 0.02630615 0.7963867
vn 0.7832031 -0.4709473 0.4060059
vn -0.7587891 0.3239746 -0.5649414
vn -0.8579102 0.1936035 -0.4763184
vn -0.6279297 -0.1060791 0.7709961
vn 0.3652344 0.7573242 0.5410156
vn -0.7055664 0.5209961 -0.4799805
vn 0.467041 0.02832031 -0.8837891
vn 0.4211426 -0.1166992 -0.8994141
vn 0.7949219 -0.1844482 0.578125
vn 0.8374023 -0.3322754 0.4338379
vn 0.5302734 0.2111816 -0.8212891
vn 0.3652344 0.7573242 0.5410156
vn 0.7832031 -0.4709473 0.4060059
vn 0.7949219 0.07647705 0.6015625
vn -0.6152344 -0.02755737 0.7875977
vn 0.7241211 -0.2270508 0.6513672
vn -0.6147461 0.1542969 0.7734375
vn 0.8154297 0.1418457 0.5610352
vn -0.5161133 0.1238403 0.8476563
vn -0.8012695 -0.1534424 -0.5786133
vn -0.8300781 -0.2322998 -0.5068359
vn -0.8208008 -0.07421875 -0.5668945
vn 0.6621094 -0.105896 -0.7416992
vn 0.5654297 -0.1669922 -0.8076172
vn 0.8154297 0.1418457 0.5610352
vn 0.5209961 -0.4470215 -0.7275391
vn 0.7949219 0.07647705 0.6015625
vn 0.7241211 -0.2270508 0.6513672
vn 0.8012695 0.016922 0.5976563
vn 0.7241211 -0.2270508 0.6513672
vn -0.6152344 -0.02755737 0.7875977
vn -0.5708008 0.3200684 0.7558594
vn 0.1911621 0.9604492 -0.2019043
vn -0.8300781 -0.2322998 -0.5068359
vn -0.7856445 0.08148193 -0.6132813
vn 0.5209961 -0.4470215 -0.7275391
vn -0.7856445 0.08148193 -0.6132813
vn -0.8300781 -0.2322998 -0.5068359
vn 0.5810547 -0.2227783 -0.7827148
vn 0.7241211 -0.2270508 0.6513672
vn 0.1911621 0.9604492 -0.2019043
vn 0.8012695 0.016922 0.5976563
vn 0 -1 0
vn 0 -1 0
vn 0 -1 0
vn 0 -1 0
vn 0.5351563 -0.8168945 0.2149658
vn 0.5351563 -0.8168945 0.2149658
vn 0.5351563 -0.8168945 0.2149658
vn 0.5351563 -0.8168945 0.2149658
vn -0.1220703 -0.9887695 0.0859375
vn -0.1220703 -0.9887695 0.0859375
vn -0.1220703 -0.9887695 0.0859375
vn -0.1220703 -0.9887695 0.0859375
vn -0.08636475 0.9350586 -0.3432617
vn 0.9780273 0.1843262 -0.09942627
vn -0.04971313 0.3742676 0.9257813
vn 0.9462891 0.3100586 -0.09387207
vn -0.9819336 -0.1776123 0.06842041
vn -0.04559326 0.2919922 0.9550781
vn 0.8623047 0.465332 -0.1993408
vn 0.05038452 0.2314453 0.9716797
vn -0.9345703 -0.3139648 0.1665039
vn -0.8603516 -0.4812012 0.1676025
vn -0.07897949 -0.2570801 -0.9633789
vn -0.1115112 -0.3476563 -0.9311523
vn 0.8623047 0.465332 -0.1993408
vn 0.9462891 0.3100586 -0.09387207
vn -0.08093262 -0.3813477 -0.9208984
vn -0.08636475 0.9350586 -0.3432617
vn 0.9780273 0.1843262 -0.09942627
vn 0.7871094 -0.2973633 0.5400391
vn 0.3847656 -0.1057129 0.9169922
vn 0.8178711 0.1864014 0.5444336
vn 0.4555664 -0.6533203 0.6044922
vn 0.940918 0.1073608 0.3217773
vn 0.5488281 -0.7133789 0.435791
vn 0.8994141 -0.4370117 -0.01508331
vn -0.09094238 -0.4938965 -0.8647461
vn 0.4660645 -0.5439453 -0.6977539
vn 0.130127 -0.08056641 -0.9882813
vn -0.06359863 -0.8481445 -0.5258789
vn -0.1307373 -0.02760315 -0.9912109
vn -0.2612305 -0.8081055 -0.5283203
vn -0.6264648 -0.3220215 -0.7099609
vn -0.9921875 0.01148224 0.1254883
vn -0.8930664 -0.1063232 -0.4372559
vn -0.8959961 0.434082 -0.09161377
vn -0.8808594 -0.4650879 0.08605957
vn -0.862793 0.4765625 0.1690674
vn -0.855957 -0.4328613 0.2834473
vn -0.7529297 0.07165527 0.6542969
vn -0.8164063 -0.4743652 -0.3300781
vn -0.3842773 -0.5996094 -0.7021484
vn -0.7724609 -0.09423828 -0.6279297
vn -0.5419922 -0.8300781 -0.1320801
vn -0.9091797 -0.006420135 -0.416748
vn -0.6450195 -0.7636719 0.02780151
vn -0.9555664 -0.2318115 0.1820068
vn -0.2648926 -0.2617188 0.9282227
vn -0.7573242 -0.151123 0.6352539
vn -0.3193359 0.2199707 0.921875
vn -0.373291 -0.6557617 0.65625
vn -0.06390381 0.1761475 0.9824219
vn -0.1796875 -0.6889648 0.7021484
vn 0.3127441 -0.3349609 0.8886719
vn 0.5786133 -0.7363281 -0.3505859
vn 0.7607422 -0.6201172 0.1912842
vn 0.8598633 -0.3427734 -0.3786621
vn 0.2756348 -0.9604492 -0.0357666
vn 0.7177734 -0.347168 -0.6035156
vn 0.1680908 -0.9638672 -0.2061768
vn 0.1656494 -0.6386719 -0.7514648
vn -0.004341125 -0.8227539 -0.5683594
vn 0.5249023 -0.7866211 -0.3251953
vn 0.2480469 -0.5014648 -0.8291016
vn -0.03466797 -0.9936523 -0.1089478
vn -0.007865906 -0.4589844 -0.8886719
vn -0.2285156 -0.9614258 -0.1540527
vn -0.546875 -0.6088867 -0.574707
vn 0.5249023 -0.6699219 0.5253906
vn 0.1152954 -0.4567871 0.8823242
vn 0.6870117 -0.2418213 0.6855469
vn 0.1019287 -0.8984375 0.4267578
vn 0.8310547 -0.2983398 0.4689941
vn 0.2113037 -0.9414063 0.2629395
vn 0.7202148 -0.6933594 -0.02410889
vn -0.7402344 -0.4287109 0.5180664
vn -0.8969727 -0.4399414 -0.04379272
vn -0.9116211 0.01209259 0.4111328
vn -0.5102539 -0.8051758 0.3027344
vn -0.7709961 0.04074097 0.6352539
vn -0.4038086 -0.7832031 0.4726563
vn -0.3085938 -0.3200684 0.8955078
vn -0.180542 0.875 -0.449707
vn -0.03308105 0.6870117 -0.7255859
vn 0.034729 0.8222656 -0.5678711
vn 0.1831055 0.8881836 -0.421875
vn -0.2412109 0.7280273 -0.6416016
vn 0.00202179 0.9541016 -0.2998047
vn -0.4313965 0.6723633 -0.6010742
vn -0.09179688 0.9882813 -0.1237793
vn -0.4147949 0.8032227 -0.4279785
vn -0.2739258 0.934082 -0.2299805
vn -0.4599609 0.8554688 -0.2380371
vn 0.3442383 0.8095703 0.4755859
vn 0.4187012 0.8989258 0.1297607
vn 0.5200195 0.8007813 0.2966309
vn 0.6582031 0.6518555 0.376709
vn 0.2481689 0.9277344 0.2785645
vn 0.5175781 0.6499023 0.5566406
vn 0.05172729 0.9448242 0.3239746
vn 0.4282227 0.5566406 0.7119141
vn 0.1049805 0.8515625 0.5131836
vn 0.2612305 0.690918 0.6743164
vn 0.06396484 0.7358398 0.6738281
g e005v002_m_0
f 3/3/3 2/2/2 1/1/1
f 4/4/4 3/3/3 1/1/1
f 4/4/4 1/1/1 5/5/5
f 4/4/4 6/6/6 3/3/3
f 6/6/6 7/7/7 3/3/3
f 8/8/8 4/4/4 5/5/5
f 5/5/5 9/9/9 8/8/8
f 10/10/10 8/8/8 9/9/9
f 8/8/8 10/10/10 4/4/4
f 10/10/10 6/6/6 4/4/4
f 6/6/6 11/11/11 7/7/7
f 11/11/11 12/12/12 7/7/7
f 13/13/13 12/12/12 11/11/11
f 14/14/14 13/13/13 11/11/11
f 10/10/10 15/15/15 6/6/6
f 15/15/15 11/11/11 6/6/6
f 14/14/14 11/11/11 15/15/15
f 10/10/10 16/16/16 15/15/15
f 17/17/17 14/14/14 15/15/15
f 15/15/15 16/16/16 17/17/17
f 20/20/20 19/19/19 18/18/18
f 19/19/19 21/21/21 18/18/18
f 18/18/18 21/21/21 22/22/22
f 21/21/21 23/23/23 22/22/22
f 24/24/24 23/23/23 21/21/21
f 19/19/19 25/25/25 21/21/21
f 26/26/26 24/24/24 21/21/21
f 25/25/25 26/26/26 21/21/21
f 27/27/27 24/24/24 26/26/26
f 28/28/28 26/26/26 25/25/25
f 28/28/28 27/27/27 26/26/26
f 29/29/29 27/27/27 28/28/28
f 30/30/30 28/28/28 25/25/25
f 31/31/31 29/29/29 28/28/28
f 31/31/31 28/28/28 30/30/30
f 32/32/32 31/31/31 30/30/30
f 35/35/35 34/34/34 33/33/33
f 36/36/36 35/35/35 33/33/33
f 36/36/36 33/33/33 37/37/37
f 35/35/35 36/36/36 38/38/38
f 36/36/36 37/37/37 39/39/39
f 36/36/36 39/39/39 38/38/38
f 42/42/42 41/41/41 40/40/40
f 41/41/41 43/43/43 40/40/40
f 40/40/40 43/43/43 44/44/44
f 41/41/41 45/45/45 43/43/43
f 43/43/43 46/46/46 44/44/44
f 43/43/43 45/45/45 46/46/46
f 49/49/49 48/48/48 47/47/47
f 50/50/50 49/49/49 47/47/47
f 53/53/53 52/52/52 51/51/51
f 54/54/54 53/53/53 51/51/51
f 57/57/57 56/56/56 55/55/55
f 58/58/58 57/57/57 55/55/55
f 61/61/61 60/60/60 59/59/59
f 60/60/60 61/61/61 62/62/62
f 61/61/61 59/59/59 63/63/63
f 61/61/61 64/64/64 62/62/62
f 61/61/61 63/63/63 64/64/64
f 62/62/62 64/64/64 65/65/65
f 64/64/64 66/66/66 65/65/65
f 64/64/64 67/67/67 66/66/66
f 63/63/63 67/67/67 64/64/64
f 67/67/67 68/68/68 66/66/66
f 69/69/69 68/68/68 67/67/67
f 70/70/70 69/69/69 67/67/67
f 70/70/70 67/67/67 63/63/63
f 71/71/71 69/69/69 70/70/70
f 72/72/72 71/71/71 70/70/70
f 73/73/73 70/70/70 63/63/63
f 72/72/72 70/70/70 73/73/73
f 63/63/63 74/74/74 73/73/73
f 75/75/75 72/72/72 73/73/73
f 73/73/73 74/74/74 75/75/75
f 78/78/78 77/77/77 76/76/76
f 77/77/77 79/79/79 76/76/76
f 80/80/80 78/78/78 76/76/76
f 79/79/79 81/81/81 76/76/76
f 82/82/82 80/80/80 76/76/76
f 81/81/81 82/82/82 76/76/76
f 85/85/85 84/84/84 83/83/83
f 84/84/84 86/86/86 83/83/83
f 87/87/87 85/85/85 83/83/83
f 86/86/86 88/88/88 83/83/83
f 89/89/89 87/87/87 83/83/83
f 88/88/88 89/89/89 83/83/83
f 92/92/92 91/91/91 90/90/90
f 91/91/91 93/93/93 90/90/90
f 94/94/94 92/92/92 90/90/90
f 93/93/93 95/95/95 90/90/90
f 96/96/96 94/94/94 90/90/90
f 95/95/95 96/96/96 90/90/90
f 99/99/99 98/98/98 97/97/97
f 98/98/98 100/100/100 97/97/97
f 101/101/101 99/99/99 97/97/97
f 100/100/100 102/102/102 97/97/97
f 103/103/103 101/101/101 97/97/97
f 102/102/102 103/103/103 97/97/97
f 106/106/106 105/105/105 104/104/104
f 105/105/105 107/107/107 104/104/104
f 108/108/108 106/106/106 104/104/104
f 107/107/107 109/109/109 104/104/104
f 110/110/110 108/108/108 104/104/104
f 109/109/109 110/110/110 104/104/104
f 113/113/113 112/112/112 111/111/111
f 112/112/112 114/114/114 111/111/111
f 115/115/115 113/113/113 111/111/111
f 114/114/114 116/116/116 111/111/111
f 117/117/117 115/115/115 111/111/111
f 116/116/116 117/117/117 111/111/111
f 120/120/120 119/119/119 118/118/118
f 119/119/119 121/121/121 118/118/118
f 122/122/122 120/120/120 118/118/118
f 121/121/121 123/123/123 118/118/118
f 124/124/124 122/122/122 118/118/118
f 123/123/123 124/124/124 118/118/118
f 127/127/127 126/126/126 125/125/125
f 126/126/126 128/128/128 125/125/125
f 129/129/129 127/127/127 125/125/125
f 128/128/128 130/130/130 125/125/125
f 131/131/131 129/129/129 125/125/125
f 130/130/130 131/131/131 125/125/125
f 134/134/134 133/133/133 132/132/132
f 133/133/133 135/135/135 132/132/132
f 136/136/136 134/134/134 132/132/132
f 135/135/135 137/137/137 132/132/132
f 138/138/138 136/136/136 132/132/132
f 137/137/137 138/138/138 132/132/132
f 141/141/141 140/140/140 139/139/139
f 141/141/141 139/139/139 142/142/142
f 143/143/143 139/139/139 140/140/140
f 144/144/144 142/142/142 139/139/139
f 145/145/145 139/139/139 143/143/143
f 144/144/144 139/139/139 146/146/146
f 147/147/147 139/139/139 145/145/145
f 148/148/148 146/146/146 139/139/139
f 147/147/147 149/149/149 139/139/139
f 148/148/148 139/139/139 149/149/149
f 152/152/152 151/151/151 150/150/150
f 152/152/152 150/150/150 153/153/153
f 154/154/154 150/150/150 151/151/151
f 155/155/155 153/153/153 150/150/150
f 156/156/156 150/150/150 154/154/154
f 155/155/155 150/150/150 157/157/157
f 158/158/158 150/150/150 156/156/156
f 159/159/159 157/157/157 150/150/150
f 158/158/158 160/160/160 150/150/150
f 159/159/159 150/150/150 160/160/160
