g n011v002_m
v -0.375 0.144898 -0.25
v -0.375 0.144898 -0.3125
v -0.1875 0.144898 -0.3125
v 0.25 0.144898 -0.3125
v -0.1875 0.144898 -0.375
v 0.25 0.144898 -0.375
v 0.375 0.144898 -0.25
v 0.375 0.144898 -0.3125
v -0.4375 0.144898 -0.125
v -0.4375 0.144898 -0.25
v 0.4375 0.144898 -0.125
v 0.4375 0.144898 -0.25
v -0.5 0.144898 0.5
v -0.5 0.144898 -0.125
v 0.5 0.144898 0.5
v 0.5 0.144898 -0.125
v -0.4375 0.144898 -0.25
v -0.4375 0 -0.25
v -0.375 0 -0.25
v -0.375 0.144898 -0.25
v -0.375 0 -0.3125
v -0.1875 0 -0.3125
v -0.1875 0.144898 -0.3125
v -0.375 0.144898 -0.3125
v -0.1875 0 -0.375
v 0.25 0 -0.375
v 0.25 0.144898 -0.375
v -0.1875 0.144898 -0.375
v 0.25 0.144898 -0.375
v 0.25 0 -0.375
v 0.25 0 -0.3125
v 0.25 0.144898 -0.3125
v 0.375 0.144898 -0.3125
v 0.375 0 -0.3125
v 0.375 0 -0.25
v 0.375 0.144898 -0.25
v -0.1875 0 -0.3125
v 0.25 0 -0.375
v -0.1875 0 -0.375
v 0.25 0 -0.3125
v -0.375 0 -0.25
v -0.375 0 -0.3125
v 0.375 0 -0.25
v 0.375 0 -0.3125
v -0.4375 0 -0.125
v -0.4375 0 -0.25
v 0.4375 0 -0.125
v 0.4375 0 -0.25
v -0.5 -1.110223E-16 0.5
v -0.5 0 -0.125
v 0.5 -1.110223E-16 0.5
v 0.5 0 -0.125
v 0.5 0.144898 0.5
v 0.5 -1.110223E-16 0.5
v -0.5 -1.110223E-16 0.5
v -0.5 0.144898 0.5
v 0.5 0.144898 -0.125
v 0.5 0 -0.125
v 0.5 -1.110223E-16 0.5
v 0.5 0.144898 0.5
v 0.4375 0.144898 -0.25
v 0.4375 0 -0.25
v 0.4375 0 -0.125
v 0.4375 0.144898 -0.125
v -0.5 0 -0.125
v -0.5 0.144898 -0.125
v -0.5 0.144898 0.5
v -0.5 -1.110223E-16 0.5
v -0.5 0 -0.125
v -0.4375 0 -0.125
v -0.4375 0.144898 -0.125
v -0.5 0.144898 -0.125
v 0.375 0.144898 -0.25
v 0.375 0 -0.25
v 0.4375 0 -0.25
v 0.4375 0.144898 -0.25
v 0.5 0.144898 -0.125
v 0.4375 0.144898 -0.125
v 0.4375 0 -0.125
v 0.5 0 -0.125
v 0.25 0 -0.3125
v 0.375 0 -0.3125
v 0.375 0.144898 -0.3125
v 0.25 0.144898 -0.3125
v -0.1875 0.144898 -0.3125
v -0.1875 0 -0.3125
v -0.1875 0 -0.375
v -0.1875 0.144898 -0.375
v -0.375 0.144898 -0.25
v -0.375 0 -0.25
v -0.375 0 -0.3125
v -0.375 0.144898 -0.3125
v -0.4375 0 -0.25
v -0.4375 0.144898 -0.25
v -0.4375 0.144898 -0.125
v -0.4375 0 -0.125
vt 0.5625 0.375
vt 0.5625 0.40625
vt 0.65625 0.40625
vt 0.875 0.40625
vt 0.65625 0.4375
vt 0.875 0.4375
vt 0.9375 0.375
vt 0.9375 0.40625
vt 0.53125 0.3125
vt 0.53125 0.375
vt 0.96875 0.3125
vt 0.96875 0.375
vt 0.5 0
vt 0.5 0.3125
vt 1 0
vt 1 0.3125
vt 0.53125 0.3439941
vt 0.53125 0.3752441
vt 0.5625 0.3752441
vt 0.5625 0.3439941
vt 0.5625 0.4064941
vt 0.65625 0.4064941
vt 0.65625 0.3752441
vt 0.5625 0.3752441
vt 0.65625 0.4377441
vt 0.875 0.4377441
vt 0.875 0.4064941
vt 0.65625 0.4064941
vt 0.84375 0.4064941
vt 0.84375 0.4377441
vt 0.875 0.4377441
vt 0.875 0.4064941
vt 0.90625 0.3752441
vt 0.90625 0.4064941
vt 0.9375 0.4064941
vt 0.9375 0.3752441
vt 0.65625 0.40625
vt 0.875 0.4375
vt 0.65625 0.4375
vt 0.875 0.40625
vt 0.5625 0.375
vt 0.5625 0.40625
vt 0.9375 0.375
vt 0.9375 0.40625
vt 0.53125 0.3125
vt 0.53125 0.375
vt 0.96875 0.3125
vt 0.96875 0.375
vt 0.5 0
vt 0.5 0.3125
vt 1 0
vt 1 0.3125
vt 1 0.03140259
vt 1 0.0001468658
vt 0.5 0.0001468658
vt 0.5 0.03140259
vt 0.96875 0.3127441
vt 1 0.3127441
vt 1 0.0001468658
vt 0.96875 0.0001468658
vt 0.9375 0.3752441
vt 0.96875 0.3752441
vt 0.96875 0.3127441
vt 0.9375 0.3127441
vt 0.5 0.3127441
vt 0.53125 0.3127441
vt 0.53125 0.0001468658
vt 0.5 0.0001468658
vt 0.5 0.2814941
vt 0.5 0.3127441
vt 0.53125 0.3127441
vt 0.53125 0.2814941
vt 0.9375 0.3439941
vt 0.9375 0.3752441
vt 0.96875 0.3752441
vt 0.96875 0.3439941
vt 0.96875 0.2814941
vt 0.96875 0.3127441
vt 1 0.3127441
vt 1 0.2814941
vt 0.875 0.4064941
vt 0.9375 0.4064941
vt 0.9375 0.3752441
vt 0.875 0.3752441
vt 0.65625 0.4064941
vt 0.65625 0.4377441
vt 0.6875 0.4377441
vt 0.6875 0.4064941
vt 0.5625 0.3752441
vt 0.5625 0.4064941
vt 0.59375 0.4064941
vt 0.59375 0.3752441
vt 0.53125 0.3752441
vt 0.5625 0.3752441
vt 0.5625 0.3127441
vt 0.53125 0.3127441
vn 0 1 0
vn 0 1 0
vn 0 1 0
vn 0 1 0
vn 0 1 0
vn 0 1 0
vn 0 1 0
vn 0 1 0
vn 0 1 0
vn 0 1 0
vn 0 1 0
vn 0 1 0
vn 0 1 0
vn 0 1 0
vn 0 1 0
vn 0 1 0
vn 0 0 -1
vn 0 0 -1
vn 0 0 -1
vn 0 0 -1
vn 0 0 -1
vn 0 0 -1
vn 0 0 -1
vn 0 0 -1
vn 0 0 -1
vn 0 0 -1
vn 0 0 -1
vn 0 0 -1
vn 1 0 0
vn 1 0 0
vn 1 0 0
vn 1 0 0
vn 1 0 0
vn 1 0 0
vn 1 0 0
vn 1 0 0
vn 0 -1 0
vn 0 -1 0
vn 0 -1 0
vn 0 -1 0
vn 0 -1 0
vn 0 -1 0
vn 0 -1 0
vn 0 -1 0
vn 0 -1 0
vn 0 -1 0
vn 0 -1 0
vn 0 -1 0
vn 0 -1 0
vn 0 -1 0
vn 0 -1 0
vn 0 -1 0
vn 0 0 1
vn 0 0 1
vn 0 0 1
vn 0 0 1
vn 1 0 0
vn 1 0 0
vn 1 0 0
vn 1 0 0
vn 1 0 0
vn 1 0 0
vn 1 0 0
vn 1 0 0
vn -1 0 0
vn -1 0 0
vn -1 0 0
vn -1 0 0
vn 0 0 -1
vn 0 0 -1
vn 0 0 -1
vn 0 0 -1
vn 0 0 -1
vn 0 0 -1
vn 0 0 -1
vn 0 0 -1
vn 0 0 -1
vn 0 0 -1
vn 0 0 -1
vn 0 0 -1
vn 0 0 -1
vn 0 0 -1
vn 0 0 -1
vn 0 0 -1
vn -1 0 0
vn -1 0 0
vn -1 0 0
vn -1 0 0
vn -1 0 0
vn -1 0 0
vn -1 0 0
vn -1 0 0
vn -1 0 0
vn -1 0 0
vn -1 0 0
vn -1 0 0
g n011v002_m_0
f 3/3/3 2/2/2 1/1/1
f 3/3/3 1/1/1 4/4/4
f 3/3/3 4/4/4 5/5/5
f 4/4/4 6/6/6 5/5/5
f 1/1/1 7/7/7 4/4/4
f 7/7/7 8/8/8 4/4/4
f 1/1/1 9/9/9 7/7/7
f 1/1/1 10/10/10 9/9/9
f 9/9/9 11/11/11 7/7/7
f 11/11/11 12/12/12 7/7/7
f 9/9/9 13/13/13 11/11/11
f 9/9/9 14/14/14 13/13/13
f 13/13/13 15/15/15 11/11/11
f 15/15/15 16/16/16 11/11/11
f 19/19/19 18/18/18 17/17/17
f 20/20/20 19/19/19 17/17/17
f 23/23/23 22/22/22 21/21/21
f 24/24/24 23/23/23 21/21/21
f 27/27/27 26/26/26 25/25/25
f 28/28/28 27/27/27 25/25/25
f 31/31/31 30/30/30 29/29/29
f 32/32/32 31/31/31 29/29/29
f 35/35/35 34/34/34 33/33/33
f 36/36/36 35/35/35 33/33/33
f 39/39/39 38/38/38 37/37/37
f 38/38/38 40/40/40 37/37/37
f 37/37/37 40/40/40 41/41/41
f 42/42/42 37/37/37 41/41/41
f 40/40/40 43/43/43 41/41/41
f 40/40/40 44/44/44 43/43/43
f 41/41/41 43/43/43 45/45/45
f 46/46/46 41/41/41 45/45/45
f 43/43/43 47/47/47 45/45/45
f 43/43/43 48/48/48 47/47/47
f 45/45/45 47/47/47 49/49/49
f 50/50/50 45/45/45 49/49/49
f 47/47/47 51/51/51 49/49/49
f 47/47/47 52/52/52 51/51/51
f 55/55/55 54/54/54 53/53/53
f 56/56/56 55/55/55 53/53/53
f 59/59/59 58/58/58 57/57/57
f 60/60/60 59/59/59 57/57/57
f 63/63/63 62/62/62 61/61/61
f 64/64/64 63/63/63 61/61/61
f 67/67/67 66/66/66 65/65/65
f 68/68/68 67/67/67 65/65/65
f 71/71/71 70/70/70 69/69/69
f 72/72/72 71/71/71 69/69/69
f 75/75/75 74/74/74 73/73/73
f 76/76/76 75/75/75 73/73/73
f 79/79/79 78/78/78 77/77/77
f 80/80/80 79/79/79 77/77/77
f 83/83/83 82/82/82 81/81/81
f 84/84/84 83/83/83 81/81/81
f 87/87/87 86/86/86 85/85/85
f 88/88/88 87/87/87 85/85/85
f 91/91/91 90/90/90 89/89/89
f 92/92/92 91/91/91 89/89/89
f 95/95/95 94/94/94 93/93/93
f 96/96/96 95/95/95 93/93/93
