#
# OBJECT NAME
#
o model_1817
mtllib 1817.mtl

#
# VERTEX BUFFER 000
#
v -0.0340459 -1.85835e-005 -0.0316013
v -0.0363816 1.40846e-005 0.0210023
v -0.0291011 0.125885 0.0164142
v -0.0273759 0.126015 -0.0249654
v 0.00773003 2.36421e-006 0.0505975
v 0.00348138 0.12589 0.0396196
v 0.0551448 1.85835e-005 0.0282467
v 0.0385036 0.125868 0.021932
v 0.0574804 -1.40846e-005 -0.024357
v 0.0402288 0.125998 -0.0194476
v 0.0133688 -2.36421e-006 -0.0539523
v 0.00764638 0.125993 -0.0426529
v -0.0340459 -1.85835e-005 -0.0316013
v -0.0273759 0.126015 -0.0249654
v -0.0248697 0.403043 0.0104558
v -0.0235445 0.401349 -0.0209551
v -0.000243487 0.403458 0.0272857
v 0.0262568 0.40229 0.0146619
v 0.027582 0.400596 -0.0167491
v 0.00295579 0.400182 -0.0335789
v -0.0235445 0.401349 -0.0209551
v -0.0183499 0.498766 0.0116358
v -0.0178696 0.49758 -0.0155109
v 0.00240593 0.498447 0.026219
v 0.0247254 0.496374 0.0151986
v 0.0258311 0.495139 -0.0108332
v 0.00510326 0.495492 -0.0259615
v -0.0178696 0.49758 -0.0155109
v -0.0125227 0.558974 0.0142795
v -0.0110028 0.561298 -0.00693428
v 0.00497767 0.554538 0.0268143
v 0.0246277 0.55342 0.0167502
v 0.0261476 0.555744 -0.0044636
v 0.00864724 0.56018 -0.0169984
v -0.0110028 0.561298 -0.00693428
v -0.00303724 0.606631 0.00733675
v -0.00481712 0.600781 0.0229549
v 0.00682369 0.632814 0.0422478
v 0.00930631 0.641883 0.0317631
v 0.00949363 0.593129 0.0330006
v 0.017548 0.62235 0.0465069
v 0.0263215 0.592869 0.0245431
v 0.0317832 0.622728 0.0401753
v 0.0281014 0.598719 0.00892485
v 0.0342658 0.631798 0.0296907
v 0.0137906 0.606371 -0.00112076
v 0.0235416 0.642262 0.0254315
v -0.00303724 0.606631 0.00733675
v 0.00930631 0.641883 0.0317631
v 0.0435711 0.653978 0.110978
v 0.0395997 0.64646 0.1116
v 0.0555231 0.641658 0.122502
v 0.0444451 0.638702 0.109162
v 0.0544331 0.639566 0.105125
v 0.0555231 0.641658 0.122502
v 0.0578986 0.648836 0.103784
v 0.0555231 0.641658 0.122502
v 0.0535592 0.654842 0.106941
v 0.0435711 0.653978 0.110978
v 0.0555231 0.641658 0.122502
v 0.0395814 0.660962 0.0684138
v 0.0281131 0.659842 0.0734127
v 0.04591 0.65152 0.0676937
v 0.0428044 0.639642 0.0714372
v 0.0313362 0.638523 0.0764361
v 0.0245016 0.649716 0.0764376
v 0.0281131 0.659842 0.0734127
v 0.00773003 2.36421e-006 0.0505975
v 0.0133688 -2.36421e-006 -0.0539523
v 0.0574804 -1.40846e-005 -0.024357
v 0.0551448 1.85835e-005 0.0282467
v -0.0363816 1.40846e-005 0.0210023
v -0.0340459 -1.85835e-005 -0.0316013
v 0.0102601 0.303262 0.0112758
v 0.0597933 0.34269 -0.00255394
v 0.0566953 0.353419 0.00369679
v 0.00190524 0.315183 0.0218804
v 0.00371344 0.306333 -0.00529392
v 0.0539858 0.344095 -0.015563
v -0.00599724 0.32131 -0.00402641
v 0.0491993 0.356362 -0.0155562
v -0.00755125 0.326443 0.0125449
v 0.0509354 0.361933 -0.00401165
v 0.00190524 0.315183 0.0218804
v 0.0566953 0.353419 0.00369679
v 0.105614 0.362777 -0.019598
v 0.105928 0.369356 -0.0166025
v 0.102258 0.363573 -0.0269387
v 0.101876 0.371082 -0.0277232
v 0.103882 0.374512 -0.0214891
v 0.105928 0.369356 -0.0166025
v 0.117061 0.36932 -0.0272581
v 0.117061 0.36932 -0.0272581
v -0.00398697 0.362057 -0.0183423
v -0.0151807 0.346885 -0.0125914
v -0.0479635 0.380915 -0.004966
v -0.0367777 0.391405 -0.00884779
v -0.0115969 0.345473 0.00954003
v -0.045335 0.380307 0.0123814
v 0.000631796 0.360605 0.0129856
v -0.0340898 0.390039 0.0152247
v 0.00546503 0.37057 -0.00330328
v -0.0287602 0.396678 0.00278126
v -0.00398697 0.362057 -0.0183423
v -0.0367777 0.391405 -0.00884779
v -0.0874546 0.413002 0.00358809
v -0.0812952 0.42112 0.00073365
v -0.0859542 0.412131 0.0154952
v -0.0793847 0.420149 0.017844
v -0.0764609 0.425552 0.00913479
v -0.0812952 0.42112 0.00073365
v -0.0983295 0.422886 0.0123065
v -0.0983295 0.422886 0.0123065
v -0.412651 0.225923 0.111742
v -0.375153 0.155244 0.198905
v -0.19764 0.243254 0.209865
v -0.225702 0.330064 0.13023
v 0.00212961 0.265052 0.17086
v -0.0198324 0.350346 0.0905568
v -0.438652 0.280151 0.0108978
v -0.24944 0.393101 0.0346511
v -0.0976225 0.423173 0.0120585
v -0.0427402 0.413692 0.00376559
v -0.47149 0.354457 -0.0751704
v -0.275969 0.468386 -0.052929
v -0.0646792 0.51887 -0.0642451
v -0.299801 0.536756 -0.145292
v -0.507797 0.431803 -0.158352
v -0.0875993 0.594947 -0.15823
v 0.393518 0.186133 -0.176678
v 0.356948 0.112086 -0.251691
v 0.178995 0.225594 -0.246239
v 0.216869 0.296578 -0.166621
v -0.00986132 0.264645 -0.186463
v 0.0280512 0.345703 -0.112422
v 0.431559 0.261427 -0.103357
v 0.256485 0.347389 -0.0758451
v 0.117309 0.369104 -0.027566
v 0.0681348 0.371448 -0.00743785
v 0.469234 0.335015 -0.0284415
v 0.295444 0.41788 0.00362795
v 0.106733 0.46536 0.058938
v 0.333975 0.469183 0.0945493
v 0.50617 0.410769 0.0449778
v 0.145335 0.504949 0.156552
v 0.316942 0.492519 0.385583
v 0.418959 0.547782 0.362396
v 0.322699 0.675785 0.219261
v 0.213491 0.632246 0.242641
v 0.240942 0.773785 0.0524679
v 0.13322 0.729904 0.072601
v 0.226729 0.41517 0.384416
v 0.121107 0.558932 0.245725
v 0.0569395 0.640651 0.126886
v 0.0394929 0.659004 0.0774287
v 0.120358 0.36682 0.406156
v 0.00861544 0.521123 0.272384
v -0.0762421 0.630669 0.106825
v -0.0936476 0.465083 0.285619
v 0.0144608 0.318102 0.431295
v -0.191721 0.598606 0.133706

vn -0.994629 0.0805054 -0.0612793
vn -0.994629 0.0805054 -0.0612793
vn -0.99707 0.0414429 -0.061554
vn -0.997559 0.0299835 -0.0614624
vn -0.0612793 0.0805054 0.994629
vn -0.0617065 -0.015007 0.997559
vn 0.659668 0.0805054 0.746582
vn 0.661621 -0.0213165 0.749023
vn 0.994629 0.0805054 0.0612793
vn 0.998047 -0.00419998 0.0614014
vn 0.0612793 0.0805054 -0.994629
vn 0.0620728 0.0519409 -0.996582
vn -0.994629 0.0805054 -0.0612793
vn -0.997559 0.0299835 -0.0614624
vn -0.994629 0.081665 -0.0610657
vn -0.994629 0.0776367 -0.0611572
vn -0.0634766 -0.0351257 0.99707
vn 0.660156 -0.0456543 0.749512
vn 0.998047 -0.00968933 0.0613098
vn 0.065979 0.103455 -0.992188
vn -0.994629 0.0776367 -0.0611572
vn -0.987305 0.145142 -0.0606079
vn -0.988281 0.139771 -0.0604248
vn -0.0668335 -0.0800171 0.994141
vn 0.65332 -0.10083 0.749512
vn 0.99707 -0.0325317 0.0635986
vn 0.0743408 0.189209 -0.979004
vn -0.988281 0.139771 -0.0604248
vn -0.959473 0.280029 -0.0282745
vn -0.959473 0.278809 -0.0288544
vn -0.0933228 -0.282227 0.95459
vn 0.611816 -0.326416 0.719727
vn 0.986328 -0.144775 0.0782471
vn 0.120178 0.401611 -0.907715
vn -0.959473 0.278809 -0.0288544
vn -0.822266 0.391357 -0.412109
vn -0.94873 0.120422 0.29126
vn -0.891113 0.443604 0.0928345
vn -0.89209 0.442139 0.0908203
vn 0.273438 -0.346191 0.896973
vn -0.178589 -0.583496 0.791504
vn 0.870605 -0.267578 0.412354
vn 0.521973 -0.654297 0.546387
vn 0.945801 0.00683594 -0.323486
vn 0.949707 -0.312256 0.00813293
vn -0.251465 0.462158 -0.850098
vn 0.21875 0.696289 -0.683105
vn -0.822266 0.391357 -0.412109
vn -0.89209 0.442139 0.0908203
vn -0.853027 0.497314 0.156616
vn -0.842773 0.509277 0.171021
vn -0.688477 0.640625 0.339111
vn -0.758301 -0.116455 0.641113
vn 0.505371 -0.688965 0.519043
vn -0.688477 0.640625 0.339111
vn 0.949219 -0.313721 0.0190887
vn -0.688477 0.640625 0.339111
vn 0.835938 0.317627 -0.447266
vn -0.853027 0.497314 0.156616
vn -0.688477 0.640625 0.339111
vn 0.00160122 0.985352 -0.17041
vn -0.611816 0.782715 0.111267
vn 0.950684 -0.00156593 -0.308838
vn 0.700195 -0.712402 -0.0327454
vn 0.0417786 -0.958496 0.28125
vn -0.91748 0.127319 0.375732
vn -0.611816 0.782715 0.111267
vn 3.016e-005 -1 0.000239491
vn 3.016e-005 -1 0.000239491
vn 3.016e-005 -1 0.000239491
vn 3.016e-005 -1 0.000239491
vn 3.016e-005 -1 0.000239491
vn 3.016e-005 -1 0.000239491
vn 0.643555 -0.701172 0.305664
vn 0.586914 -0.733887 0.340576
vn 0.217285 0.224365 0.949707
vn 0.201782 0.172485 0.963867
vn 0.231323 -0.529785 -0.81543
vn 0.165405 -0.548828 -0.818848
vn -0.453613 0.469971 -0.756836
vn -0.421875 0.506348 -0.751465
vn -0.412354 0.838379 0.355957
vn -0.33374 0.898438 0.283936
vn 0.201782 0.172485 0.963867
vn 0.217285 0.224365 0.949707
vn 0.493164 -0.787598 0.368408
vn 0.317627 0.285645 0.903809
vn 0.0765381 -0.624023 -0.777344
vn -0.299561 0.553223 -0.776855
vn -0.118713 0.973633 0.193848
vn 0.317627 0.285645 0.903809
vn 0.926758 0.0199432 -0.374023
vn 0.926758 0.0199432 -0.374023
vn 0.0232697 0.322754 -0.945801
vn -0.688965 -0.541992 -0.480713
vn -0.637695 -0.550781 -0.537598
vn 0.0589294 0.378418 -0.92334
vn -0.538086 -0.577148 0.61377
vn -0.498047 -0.600098 0.625488
vn 0.257568 0.233643 0.9375
vn 0.268555 0.284424 0.919922
vn 0.603516 0.795898 -0.0354614
vn 0.566895 0.823242 -0.0193634
vn 0.0232697 0.322754 -0.945801
vn 0.0589294 0.378418 -0.92334
vn -0.609863 -0.567383 -0.552246
vn 0.00397491 0.41333 -0.910156
vn -0.482666 -0.636719 0.601074
vn 0.203003 0.320801 0.924805
vn 0.458984 0.888184 -0.00601196
vn 0.00397491 0.41333 -0.910156
vn -0.891113 0.427246 0.150757
vn -0.891113 0.427246 0.150757
vn -0.423828 0.65625 0.623535
vn -0.372314 0.597168 0.709961
vn -0.158081 0.659668 0.734375
vn -0.207153 0.71582 0.666016
vn 0.0682373 0.689453 0.720703
vn 0.0439148 0.731934 0.679199
vn -0.45166 0.65332 0.606934
vn -0.273682 0.708984 0.649414
vn -0.0246582 0.736816 0.675293
vn 0.223511 0.708008 0.669434
vn -0.418213 0.617676 0.665527
vn -0.284424 0.679688 0.675293
vn -0.125 0.733887 0.666992
vn -0.282959 0.703125 0.651855
vn -0.400879 0.632324 0.662109
vn -0.159058 0.760254 0.629395
vn 0.328125 0.634277 -0.699219
vn 0.344727 0.595703 -0.725098
vn 0.162109 0.669922 -0.724121
vn 0.172485 0.738281 -0.651367
vn -0.0408325 0.720215 -0.692383
vn -0.00273705 0.806152 -0.591309
vn 0.25708 0.67334 -0.692871
vn 0.134399 0.749512 -0.647461
vn -0.0193939 0.821289 -0.569824
vn -0.168091 0.84375 -0.508789
vn 0.177734 0.703613 -0.6875
vn 0.0859375 0.766602 -0.635742
vn -0.000277042 0.827148 -0.561523
vn 0.102539 0.829102 -0.549316
vn 0.152222 0.746582 -0.646973
vn 0.0558472 0.890137 -0.451904
vn -0.278809 0.580078 0.764648
vn -0.151001 0.666504 0.729492
vn -0.179443 0.733887 0.654785
vn -0.29541 0.662598 0.687988
vn -0.208618 0.79834 0.563965
vn -0.299805 0.750488 0.588379
vn -0.238647 0.572266 0.78418
vn -0.257813 0.646484 0.717285
vn -0.283691 0.743652 0.60498
vn -0.327393 0.842285 0.427979
vn -0.120728 0.623047 0.772461
vn -0.140137 0.689941 0.709473
vn -0.160156 0.755859 0.634277
vn -0.168091 0.669922 0.722656
vn -0.160889 0.60498 0.779297
vn -0.174072 0.730469 0.659668

vt 0.531615 0.0155452
vt 0.606805 0.0155452
vt 0.606805 0.151087
vt 0.531615 0.151087
vt 0.678113 0.0155452
vt 0.678113 0.151087
vt 0.750222 0.0155452
vt 0.750222 0.151087
vt 0.825262 0.0155452
vt 0.825262 0.151087
vt 0.896571 0.0155452
vt 0.896571 0.151087
vt 0.969061 0.0155452
vt 0.969061 0.151087
vt 0.606805 0.444568
vt 0.531615 0.444568
vt 0.678113 0.444568
vt 0.750222 0.444568
vt 0.825262 0.444568
vt 0.896571 0.444568
vt 0.969061 0.444568
vt 0.606805 0.561062
vt 0.531615 0.561062
vt 0.678113 0.561062
vt 0.750222 0.561062
vt 0.825262 0.561062
vt 0.896571 0.561062
vt 0.969061 0.561062
vt 0.606805 0.666577
vt 0.531615 0.666577
vt 0.678113 0.666577
vt 0.750222 0.666577
vt 0.825262 0.666577
vt 0.896571 0.666577
vt 0.969061 0.666577
vt 0.531615 0.741574
vt 0.606805 0.741574
vt 0.606805 0.808457
vt 0.531615 0.808457
vt 0.678113 0.741574
vt 0.678113 0.808457
vt 0.750222 0.741574
vt 0.750222 0.808457
vt 0.825262 0.741574
vt 0.825262 0.808457
vt 0.896571 0.741574
vt 0.896571 0.808457
vt 0.969061 0.741574
vt 0.969061 0.808457
vt 0.531615 0.944455
vt 0.606805 0.944455
vt 0.640976 0.99284
vt 0.678113 0.944455
vt 0.750222 0.944455
vt 0.640976 0.99284
vt 0.825262 0.944455
vt 0.859699 0.99284
vt 0.896571 0.944455
vt 0.969061 0.944455
vt 0.859699 0.99284
vt 0.896571 0.885841
vt 0.969061 0.885841
vt 0.825262 0.885841
vt 0.750222 0.885841
vt 0.678113 0.885841
vt 0.606805 0.885841
vt 0.531615 0.885841
vt 0.687545 0.239789
vt 0.697784 0.0499434
vt 0.777884 0.103684
vt 0.773643 0.199204
vt 0.607445 0.186049
vt 0.611687 0.0905292
vt 0.640976 0.459384
vt 0.640976 0.681304
vt 0.558955 0.681304
vt 0.558955 0.459384
vt 0.726312 0.459384
vt 0.726312 0.681304
vt 0.808333 0.459384
vt 0.808333 0.681304
vt 0.890354 0.459384
vt 0.890354 0.681304
vt 0.969061 0.459384
vt 0.969061 0.681304
vt 0.640976 0.911387
vt 0.558955 0.911387
vt 0.726312 0.911387
vt 0.808333 0.911387
vt 0.890354 0.911387
vt 0.969061 0.911387
vt 0.640976 0.99284
vt 0.845284 0.99284
vt 0.558955 0.63692
vt 0.640976 0.63692
vt 0.640976 0.771655
vt 0.558955 0.771655
vt 0.726315 0.63692
vt 0.726315 0.771655
vt 0.808337 0.63692
vt 0.808337 0.771655
vt 0.890358 0.63692
vt 0.890358 0.771655
vt 0.969061 0.63692
vt 0.969061 0.771655
vt 0.640976 0.911387
vt 0.558955 0.911387
vt 0.726315 0.911387
vt 0.808337 0.911387
vt 0.890358 0.911387
vt 0.969061 0.911387
vt 0.640976 0.99284
vt 0.845286 0.99284
vt 0.369038 0.0292556
vt 0.490051 0.0289149
vt 0.490697 0.502092
vt 0.369684 0.502433
vt 0.491343 0.93849
vt 0.37033 0.938778
vt 0.248025 0.0295963
vt 0.248671 0.502774
vt 0.249148 0.83454
vt 0.249317 0.939065
vt 0.127012 0.0299371
vt 0.127658 0.503115
vt 0.128304 0.939353
vt 0.00664479 0.503455
vt 0.00599892 0.0302779
vt 0.00729074 0.939641
vt 0.368299 0.0147378
vt 0.488569 0.0144059
vt 0.489211 0.475341
vt 0.368941 0.475673
vt 0.489853 0.936276
vt 0.369583 0.936609
vt 0.248029 0.0150697
vt 0.248671 0.476005
vt 0.249145 0.816313
vt 0.249313 0.936941
vt 0.127759 0.0154017
vt 0.1284 0.476337
vt 0.129042 0.937272
vt 0.00813016 0.476669
vt 0.00748827 0.0157337
vt 0.00877215 0.937605
vt 0.369038 0.0292556
vt 0.490051 0.0289149
vt 0.490697 0.502092
vt 0.369684 0.502433
vt 0.491343 0.93849
vt 0.37033 0.938778
vt 0.248025 0.0295963
vt 0.248671 0.502774
vt 0.249148 0.83454
vt 0.249317 0.939065
vt 0.127012 0.0299371
vt 0.127658 0.503115
vt 0.128304 0.939353
vt 0.00664479 0.503455
vt 0.00599892 0.0302779
vt 0.00729074 0.939641


#
# MESH 000
#
g surface_000
usemtl surface_000
f 72/72/72 73/73/73 69/69/69
f 72/72/72 69/69/69 68/68/68
f 68/68/68 69/69/69 70/70/70
f 68/68/68 70/70/70 71/71/71
f 58/58/58 59/59/59 60/60/60
f 61/61/61 59/59/59 58/58/58
f 61/61/61 62/62/62 59/59/59
f 47/47/47 62/62/62 61/61/61
f 47/47/47 49/49/49 62/62/62
f 46/46/46 49/49/49 47/47/47
f 46/46/46 48/48/48 49/49/49
f 63/63/63 61/61/61 58/58/58
f 45/45/45 61/61/61 63/63/63
f 45/45/45 47/47/47 61/61/61
f 44/44/44 47/47/47 45/45/45
f 44/44/44 46/46/46 47/47/47
f 33/33/33 46/46/46 44/44/44
f 33/33/33 34/34/34 46/46/46
f 34/34/34 48/48/48 46/46/46
f 34/34/34 35/35/35 48/48/48
f 63/63/63 58/58/58 56/56/56
f 64/64/64 63/63/63 56/56/56
f 43/43/43 63/63/63 64/64/64
f 43/43/43 45/45/45 63/63/63
f 42/42/42 45/45/45 43/43/43
f 42/42/42 44/44/44 45/45/45
f 32/32/32 44/44/44 42/42/42
f 32/32/32 33/33/33 44/44/44
f 56/56/56 58/58/58 57/57/57
f 54/54/54 56/56/56 57/57/57
f 64/64/64 56/56/56 54/54/54
f 65/65/65 64/64/64 54/54/54
f 41/41/41 64/64/64 65/65/65
f 41/41/41 43/43/43 64/64/64
f 40/40/40 43/43/43 41/41/41
f 40/40/40 42/42/42 43/43/43
f 31/31/31 42/42/42 40/40/40
f 31/31/31 32/32/32 42/42/42
f 24/24/24 32/32/32 31/31/31
f 24/24/24 25/25/25 32/32/32
f 25/25/25 33/33/33 32/32/32
f 65/65/65 54/54/54 53/53/53
f 66/66/66 65/65/65 53/53/53
f 38/38/38 65/65/65 66/66/66
f 38/38/38 41/41/41 65/65/65
f 37/37/37 41/41/41 38/38/38
f 37/37/37 40/40/40 41/41/41
f 29/29/29 40/40/40 37/37/37
f 29/29/29 31/31/31 40/40/40
f 22/22/22 31/31/31 29/29/29
f 22/22/22 24/24/24 31/31/31
f 53/53/53 54/54/54 55/55/55
f 11/11/11 13/13/13 14/14/14
f 11/11/11 14/14/14 12/12/12
f 9/9/9 11/11/11 12/12/12
f 9/9/9 12/12/12 10/10/10
f 7/7/7 9/9/9 10/10/10
f 7/7/7 10/10/10 8/8/8
f 5/5/5 7/7/7 8/8/8
f 14/14/14 20/20/20 12/12/12
f 12/12/12 20/20/20 19/19/19
f 12/12/12 19/19/19 10/10/10
f 10/10/10 19/19/19 18/18/18
f 10/10/10 18/18/18 8/8/8
f 8/8/8 18/18/18 17/17/17
f 8/8/8 17/17/17 6/6/6
f 5/5/5 8/8/8 6/6/6
f 2/2/2 5/5/5 6/6/6
f 14/14/14 21/21/21 20/20/20
f 20/20/20 21/21/21 28/28/28
f 20/20/20 28/28/28 27/27/27
f 19/19/19 20/20/20 27/27/27
f 19/19/19 27/27/27 26/26/26
f 18/18/18 19/19/19 26/26/26
f 18/18/18 26/26/26 25/25/25
f 17/17/17 18/18/18 25/25/25
f 17/17/17 25/25/25 24/24/24
f 15/15/15 17/17/17 24/24/24
f 6/6/6 17/17/17 15/15/15
f 6/6/6 15/15/15 3/3/3
f 2/2/2 6/6/6 3/3/3
f 1/1/1 2/2/2 3/3/3
f 27/27/27 28/28/28 35/35/35
f 27/27/27 35/35/35 34/34/34
f 26/26/26 27/27/27 34/34/34
f 26/26/26 34/34/34 33/33/33
f 25/25/25 26/26/26 33/33/33
f 1/1/1 3/3/3 4/4/4
f 3/3/3 16/16/16 4/4/4
f 3/3/3 15/15/15 16/16/16
f 16/16/16 15/15/15 22/22/22
f 16/16/16 22/22/22 23/23/23
f 23/23/23 22/22/22 29/29/29
f 23/23/23 29/29/29 30/30/30
f 30/30/30 29/29/29 37/37/37
f 30/30/30 37/37/37 36/36/36
f 15/15/15 24/24/24 22/22/22
f 36/36/36 37/37/37 38/38/38
f 36/36/36 38/38/38 39/39/39
f 39/39/39 38/38/38 66/66/66
f 39/39/39 66/66/66 67/67/67
f 67/67/67 66/66/66 51/51/51
f 67/67/67 51/51/51 50/50/50
f 50/50/50 51/51/51 52/52/52
f 51/51/51 53/53/53 52/52/52
f 66/66/66 53/53/53 51/51/51
f 74/74/74 76/76/76 77/77/77
f 74/74/74 75/75/75 76/76/76
f 86/86/86 76/76/76 75/75/75
f 86/86/86 87/87/87 76/76/76
f 87/87/87 86/86/86 92/92/92
f 92/92/92 86/86/86 88/88/88
f 75/75/75 74/74/74 78/78/78
f 75/75/75 78/78/78 79/79/79
f 86/86/86 75/75/75 79/79/79
f 86/86/86 79/79/79 88/88/88
f 89/89/89 88/88/88 79/79/79
f 88/88/88 89/89/89 93/93/93
f 89/89/89 90/90/90 93/93/93
f 90/90/90 91/91/91 93/93/93
f 85/85/85 91/91/91 90/90/90
f 80/80/80 79/79/79 78/78/78
f 80/80/80 81/81/81 79/79/79
f 89/89/89 79/79/79 81/81/81
f 90/90/90 89/89/89 81/81/81
f 90/90/90 81/81/81 83/83/83
f 85/85/85 90/90/90 83/83/83
f 84/84/84 85/85/85 83/83/83
f 84/84/84 83/83/83 82/82/82
f 82/82/82 83/83/83 81/81/81
f 82/82/82 81/81/81 80/80/80
f 102/102/102 104/104/104 105/105/105
f 102/102/102 105/105/105 103/103/103
f 100/100/100 102/102/102 103/103/103
f 100/100/100 103/103/103 101/101/101
f 98/98/98 100/100/100 101/101/101
f 98/98/98 101/101/101 99/99/99
f 96/96/96 98/98/98 99/99/99
f 96/96/96 95/95/95 98/98/98
f 103/103/103 105/105/105 111/111/111
f 103/103/103 111/111/111 110/110/110
f 101/101/101 103/103/103 110/110/110
f 101/101/101 110/110/110 109/109/109
f 99/99/99 101/101/101 109/109/109
f 99/99/99 109/109/109 108/108/108
f 108/108/108 96/96/96 99/99/99
f 108/108/108 106/106/106 96/96/96
f 97/97/97 96/96/96 106/106/106
f 94/94/94 96/96/96 97/97/97
f 94/94/94 95/95/95 96/96/96
f 110/110/110 111/111/111 113/113/113
f 109/109/109 110/110/110 113/113/113
f 108/108/108 109/109/109 113/113/113
f 97/97/97 106/106/106 107/107/107
f 107/107/107 106/106/106 112/112/112
f 112/112/112 106/106/106 108/108/108
f 127/127/127 128/128/128 124/124/124
f 127/127/127 124/124/124 125/125/125
f 129/129/129 127/127/127 125/125/125
f 129/129/129 125/125/125 126/126/126
f 125/125/125 122/122/122 126/126/126
f 126/126/126 122/122/122 123/123/123
f 122/122/122 119/119/119 123/123/123
f 124/124/124 121/121/121 125/125/125
f 125/125/125 121/121/121 122/122/122
f 121/121/121 119/119/119 122/122/122
f 121/121/121 117/117/117 119/119/119
f 117/117/117 118/118/118 119/119/119
f 117/117/117 116/116/116 118/118/118
f 114/114/114 116/116/116 117/117/117
f 114/114/114 115/115/115 116/116/116
f 124/124/124 120/120/120 121/121/121
f 120/120/120 117/117/117 121/121/121
f 120/120/120 114/114/114 117/117/117
f 143/143/143 144/144/144 140/140/140
f 143/143/143 140/140/140 141/141/141
f 145/145/145 143/143/143 141/141/141
f 145/145/145 141/141/141 142/142/142
f 141/141/141 138/138/138 142/142/142
f 142/142/142 138/138/138 139/139/139
f 138/138/138 135/135/135 139/139/139
f 140/140/140 137/137/137 141/141/141
f 141/141/141 137/137/137 138/138/138
f 137/137/137 135/135/135 138/138/138
f 137/137/137 133/133/133 135/135/135
f 133/133/133 134/134/134 135/135/135
f 133/133/133 132/132/132 134/134/134
f 130/130/130 132/132/132 133/133/133
f 130/130/130 131/131/131 132/132/132
f 140/140/140 136/136/136 137/137/137
f 136/136/136 133/133/133 137/137/137
f 136/136/136 130/130/130 133/133/133
f 159/159/159 160/160/160 156/156/156
f 159/159/159 156/156/156 157/157/157
f 161/161/161 159/159/159 157/157/157
f 161/161/161 157/157/157 158/158/158
f 157/157/157 154/154/154 158/158/158
f 158/158/158 154/154/154 155/155/155
f 154/154/154 151/151/151 155/155/155
f 156/156/156 153/153/153 157/157/157
f 157/157/157 153/153/153 154/154/154
f 153/153/153 151/151/151 154/154/154
f 153/153/153 149/149/149 151/151/151
f 149/149/149 150/150/150 151/151/151
f 149/149/149 148/148/148 150/150/150
f 146/146/146 148/148/148 149/149/149
f 146/146/146 147/147/147 148/148/148
f 156/156/156 152/152/152 153/153/153
f 152/152/152 149/149/149 153/153/153
f 152/152/152 146/146/146 149/149/149

