#
# OBJECT NAME
#
o model_1819
mtllib 1819.mtl

#
# VERTEX BUFFER 000
#
v 0.0102601 0.303262 0.0112758
v 0.0597933 0.34269 -0.00255394
v 0.0566953 0.353419 0.00369679
v 0.00190524 0.315183 0.0218804
v 0.00371344 0.306333 -0.00529392
v 0.0539858 0.344095 -0.015563
v -0.00599724 0.32131 -0.00402641
v 0.0491993 0.356362 -0.0155562
v -0.00755125 0.326443 0.0125449
v 0.0509354 0.361933 -0.00401165
v 0.00190524 0.315183 0.0218804
v 0.0566953 0.353419 0.00369679
v 0.105614 0.362777 -0.019598
v 0.105928 0.369356 -0.0166025
v 0.102258 0.363573 -0.0269387
v 0.101876 0.371082 -0.0277232
v 0.103882 0.374512 -0.0214891
v 0.105928 0.369356 -0.0166025
v 0.117061 0.36932 -0.0272581
v 0.117061 0.36932 -0.0272581
v -0.00398697 0.362057 -0.0183423
v -0.0151807 0.346885 -0.0125914
v -0.0479635 0.380915 -0.004966
v -0.0367777 0.391405 -0.00884779
v -0.0115969 0.345473 0.00954003
v -0.045335 0.380307 0.0123814
v 0.000631796 0.360605 0.0129856
v -0.0340898 0.390039 0.0152247
v 0.00546503 0.37057 -0.00330328
v -0.0287602 0.396678 0.00278126
v -0.00398697 0.362057 -0.0183423
v -0.0367777 0.391405 -0.00884779
v -0.0874546 0.413002 0.00358809
v -0.0812952 0.42112 0.00073365
v -0.0859542 0.412131 0.0154952
v -0.0793847 0.420149 0.017844
v -0.0764609 0.425552 0.00913479
v -0.0812952 0.42112 0.00073365
v -0.0983295 0.422886 0.0123065
v -0.0983295 0.422886 0.0123065
v -0.24944 0.393101 0.0346511
v -0.438652 0.280151 0.0108978
v -0.375153 0.155244 0.198905
v -0.19764 0.243254 0.209865
v 0.00212961 0.265052 0.17086
v -0.0427402 0.413692 0.00376559
v -0.0875993 0.594947 -0.15823
v -0.299801 0.536756 -0.145292
v -0.507797 0.431803 -0.158352
v 0.256485 0.347389 -0.0758451
v 0.431559 0.261427 -0.103357
v 0.356948 0.112086 -0.251691
v 0.178995 0.225594 -0.246239
v -0.00986132 0.264645 -0.186463
v 0.0681348 0.371448 -0.00743785
v 0.145335 0.504949 0.156552
v 0.333975 0.469183 0.0945493
v 0.50617 0.410769 0.0449778
v 0.121107 0.558932 0.245725
v 0.226729 0.41517 0.384416
v 0.418959 0.547782 0.362396
v 0.322699 0.675785 0.219261
v 0.240942 0.773785 0.0524679
v 0.0394929 0.659004 0.0774287
v -0.191721 0.598606 0.133706
v -0.0936476 0.465083 0.285619
v 0.0144608 0.318102 0.431295

vn 0.643555 -0.701172 0.305664
vn 0.586914 -0.733887 0.340576
vn 0.217285 0.224365 0.949707
vn 0.201782 0.172485 0.963867
vn 0.231323 -0.529785 -0.81543
vn 0.165405 -0.548828 -0.818848
vn -0.453613 0.469971 -0.756836
vn -0.421875 0.506348 -0.751465
vn -0.412354 0.838379 0.355957
vn -0.33374 0.898438 0.283936
vn 0.201782 0.172485 0.963867
vn 0.217285 0.224365 0.949707
vn 0.493164 -0.787598 0.368408
vn 0.317627 0.285645 0.903809
vn 0.0765381 -0.624023 -0.777344
vn -0.299561 0.553223 -0.776855
vn -0.118713 0.973633 0.193848
vn 0.317627 0.285645 0.903809
vn 0.926758 0.0199432 -0.374023
vn 0.926758 0.0199432 -0.374023
vn 0.0232697 0.322754 -0.945801
vn -0.688965 -0.541992 -0.480713
vn -0.637695 -0.550781 -0.537598
vn 0.0589294 0.378418 -0.92334
vn -0.538086 -0.577148 0.61377
vn -0.498047 -0.600098 0.625488
vn 0.257568 0.233643 0.9375
vn 0.268555 0.284424 0.919922
vn 0.603516 0.795898 -0.0354614
vn 0.566895 0.823242 -0.0193634
vn 0.0232697 0.322754 -0.945801
vn 0.0589294 0.378418 -0.92334
vn -0.609863 -0.567383 -0.552246
vn 0.00397491 0.41333 -0.910156
vn -0.482666 -0.636719 0.601074
vn 0.203003 0.320801 0.924805
vn 0.458984 0.888184 -0.00601196
vn 0.00397491 0.41333 -0.910156
vn -0.891113 0.427246 0.150757
vn -0.891113 0.427246 0.150757
vn -0.222168 0.70166 0.676758
vn -0.411377 0.63916 0.648926
vn -0.418457 0.655273 0.628418
vn -0.203735 0.725098 0.657715
vn 0.0329895 0.757813 0.651367
vn -0.0154572 0.736816 0.675293
vn -0.0615845 0.714844 0.696289
vn -0.238159 0.680176 0.692383
vn -0.404785 0.625 0.666992
vn 0.0836182 0.768555 -0.633789
vn 0.232056 0.683105 -0.691895
vn 0.302002 0.649902 -0.696777
vn 0.135986 0.763184 -0.630859
vn -0.0403137 0.844238 -0.53418
vn -0.0569763 0.82666 -0.559082
vn -0.0734863 0.808594 -0.583008
vn 0.0317993 0.771484 -0.634766
vn 0.147217 0.717285 -0.680664
vn -0.218628 0.68457 0.694824
vn -0.203491 0.615723 0.760742
vn -0.276611 0.584961 0.762207
vn -0.310059 0.657715 0.686035
vn -0.341553 0.726563 0.595703
vn -0.230713 0.751465 0.617676
vn -0.128662 0.765137 0.630371
vn -0.131348 0.706543 0.694824
vn -0.133057 0.641113 0.755371

vt 0.640976 0.459384
vt 0.640976 0.681304
vt 0.558955 0.681304
vt 0.558955 0.459384
vt 0.726312 0.459384
vt 0.726312 0.681304
vt 0.808333 0.459384
vt 0.808333 0.681304
vt 0.890354 0.459384
vt 0.890354 0.681304
vt 0.969061 0.459384
vt 0.969061 0.681304
vt 0.640976 0.911387
vt 0.558955 0.911387
vt 0.726312 0.911387
vt 0.808333 0.911387
vt 0.890354 0.911387
vt 0.969061 0.911387
vt 0.640976 0.99284
vt 0.845284 0.99284
vt 0.558955 0.63692
vt 0.640976 0.63692
vt 0.640976 0.771655
vt 0.558955 0.771655
vt 0.726315 0.63692
vt 0.726315 0.771655
vt 0.808337 0.63692
vt 0.808337 0.771655
vt 0.890358 0.63692
vt 0.890358 0.771655
vt 0.969061 0.63692
vt 0.969061 0.771655
vt 0.640976 0.911387
vt 0.558955 0.911387
vt 0.726315 0.911387
vt 0.808337 0.911387
vt 0.890358 0.911387
vt 0.969061 0.911387
vt 0.640976 0.99284
vt 0.845286 0.99284
vt 0.248671 0.502774
vt 0.248025 0.0295963
vt 0.490051 0.0289149
vt 0.490697 0.502092
vt 0.491343 0.93849
vt 0.249317 0.939065
vt 0.00729074 0.939641
vt 0.00664479 0.503455
vt 0.00599892 0.0302779
vt 0.248671 0.476005
vt 0.248029 0.0150697
vt 0.488569 0.0144059
vt 0.489211 0.475341
vt 0.489853 0.936276
vt 0.249313 0.936941
vt 0.00877215 0.937605
vt 0.00813016 0.476669
vt 0.00748827 0.0157337
vt 0.248671 0.502774
vt 0.248025 0.0295963
vt 0.490051 0.0289149
vt 0.490697 0.502092
vt 0.491343 0.93849
vt 0.249317 0.939065
vt 0.00729074 0.939641
vt 0.00664479 0.503455
vt 0.00599892 0.0302779


#
# VERTEX BUFFER 001
#
v -0.0273759 0.126015 -0.0249654
v -0.0340459 -1.85835e-005 -0.0316013
v 0.00773003 2.36421e-006 0.0505975
v 0.00348138 0.12589 0.0396196
v 0.0551448 1.85835e-005 0.0282467
v 0.0385036 0.125868 0.021932
v 0.0133688 -2.36421e-006 -0.0539523
v 0.00764638 0.125993 -0.0426529
v -0.0340459 -1.85835e-005 -0.0316013
v -0.0273759 0.126015 -0.0249654
v -0.0235445 0.401349 -0.0209551
v -0.000243487 0.403458 0.0272857
v 0.0262568 0.40229 0.0146619
v 0.00295579 0.400182 -0.0335789
v -0.0235445 0.401349 -0.0209551
v 0.00497767 0.554538 0.0268143
v -0.0110028 0.561298 -0.00693428
v 0.0246277 0.55342 0.0167502
v 0.00864724 0.56018 -0.0169984
v -0.0110028 0.561298 -0.00693428
v 0.017548 0.62235 0.0465069
v 0.00930631 0.641883 0.0317631
v 0.0317832 0.622728 0.0401753
v 0.0235416 0.642262 0.0254315
v 0.00930631 0.641883 0.0317631
v 0.0555231 0.641658 0.122502
v 0.0435711 0.653978 0.110978
v 0.0444451 0.638702 0.109162
v 0.0544331 0.639566 0.105125
v 0.0555231 0.641658 0.122502
v 0.0555231 0.641658 0.122502
v 0.0535592 0.654842 0.106941
v 0.0435711 0.653978 0.110978
v 0.0555231 0.641658 0.122502
v 0.0395814 0.660962 0.0684138
v 0.0281131 0.659842 0.0734127
v 0.0428044 0.639642 0.0714372
v 0.0313362 0.638523 0.0764361
v 0.0281131 0.659842 0.0734127
v 0.00773003 2.36421e-006 0.0505975
v 0.0133688 -2.36421e-006 -0.0539523
v 0.0551448 1.85835e-005 0.0282467
v -0.0340459 -1.85835e-005 -0.0316013

vn -0.997559 0.0299835 -0.0614624
vn -0.994629 0.0805054 -0.0612793
vn -0.0612793 0.0805054 0.994629
vn -0.0617065 -0.015007 0.997559
vn 0.659668 0.0805054 0.746582
vn 0.661621 -0.0213165 0.749023
vn 0.0612793 0.0805054 -0.994629
vn 0.0620728 0.0519409 -0.996582
vn -0.994629 0.0805054 -0.0612793
vn -0.997559 0.0299835 -0.0614624
vn -0.994629 0.0776367 -0.0611572
vn -0.0634766 -0.0351257 0.99707
vn 0.660156 -0.0456543 0.749512
vn 0.065979 0.103455 -0.992188
vn -0.994629 0.0776367 -0.0611572
vn -0.0933228 -0.282227 0.95459
vn -0.959473 0.278809 -0.0288544
vn 0.611816 -0.326416 0.719727
vn 0.120178 0.401611 -0.907715
vn -0.959473 0.278809 -0.0288544
vn -0.178589 -0.583496 0.791504
vn -0.89209 0.442139 0.0908203
vn 0.521973 -0.654297 0.546387
vn 0.21875 0.696289 -0.683105
vn -0.89209 0.442139 0.0908203
vn -0.688477 0.640625 0.339111
vn -0.853027 0.497314 0.156616
vn -0.758301 -0.116455 0.641113
vn 0.505371 -0.688965 0.519043
vn -0.688477 0.640625 0.339111
vn -0.688477 0.640625 0.339111
vn 0.835938 0.317627 -0.447266
vn -0.853027 0.497314 0.156616
vn -0.688477 0.640625 0.339111
vn 0.00160122 0.985352 -0.17041
vn -0.611816 0.782715 0.111267
vn 0.700195 -0.712402 -0.0327454
vn 0.0417786 -0.958496 0.28125
vn -0.611816 0.782715 0.111267
vn 0.000372648 -0.999512 6.53267e-005
vn 0.000372648 -0.999512 6.53267e-005
vn 0.000372648 -0.999512 6.53267e-005
vn 0.000372648 -0.999512 6.53267e-005

vt 0.531615 0.151087
vt 0.531615 0.0155452
vt 0.678113 0.0155452
vt 0.678113 0.151087
vt 0.750222 0.0155452
vt 0.750222 0.151087
vt 0.896571 0.0155452
vt 0.896571 0.151087
vt 0.969061 0.0155452
vt 0.969061 0.151087
vt 0.531615 0.444568
vt 0.678113 0.444568
vt 0.750222 0.444568
vt 0.896571 0.444568
vt 0.969061 0.444568
vt 0.678113 0.666577
vt 0.531615 0.666577
vt 0.750222 0.666577
vt 0.896571 0.666577
vt 0.969061 0.666577
vt 0.678113 0.808457
vt 0.531615 0.808457
vt 0.750222 0.808457
vt 0.896571 0.808457
vt 0.969061 0.808457
vt 0.640976 0.99284
vt 0.531615 0.944455
vt 0.678113 0.944455
vt 0.750222 0.944455
vt 0.640976 0.99284
vt 0.859699 0.99284
vt 0.896571 0.944455
vt 0.969061 0.944455
vt 0.859699 0.99284
vt 0.896571 0.885841
vt 0.969061 0.885841
vt 0.750222 0.885841
vt 0.678113 0.885841
vt 0.531615 0.885841
vt 0.687545 0.239789
vt 0.697784 0.0499434
vt 0.773643 0.199204
vt 0.611687 0.0905292


#
# MESH 000
#
g surface_000
usemtl surface_000
f 1/1/1 3/3/3 4/4/4
f 1/1/1 2/2/2 3/3/3
f 13/13/13 3/3/3 2/2/2
f 13/13/13 14/14/14 3/3/3
f 14/14/14 13/13/13 19/19/19
f 19/19/19 13/13/13 15/15/15
f 2/2/2 1/1/1 5/5/5
f 2/2/2 5/5/5 6/6/6
f 13/13/13 2/2/2 6/6/6
f 13/13/13 6/6/6 15/15/15
f 16/16/16 15/15/15 6/6/6
f 15/15/15 16/16/16 20/20/20
f 16/16/16 17/17/17 20/20/20
f 17/17/17 18/18/18 20/20/20
f 12/12/12 18/18/18 17/17/17
f 7/7/7 6/6/6 5/5/5
f 7/7/7 8/8/8 6/6/6
f 16/16/16 6/6/6 8/8/8
f 17/17/17 16/16/16 8/8/8
f 17/17/17 8/8/8 10/10/10
f 12/12/12 17/17/17 10/10/10
f 11/11/11 12/12/12 10/10/10
f 11/11/11 10/10/10 9/9/9
f 9/9/9 10/10/10 8/8/8
f 9/9/9 8/8/8 7/7/7
f 29/29/29 31/31/31 32/32/32
f 29/29/29 32/32/32 30/30/30
f 27/27/27 29/29/29 30/30/30
f 27/27/27 30/30/30 28/28/28
f 25/25/25 27/27/27 28/28/28
f 25/25/25 28/28/28 26/26/26
f 23/23/23 25/25/25 26/26/26
f 23/23/23 22/22/22 25/25/25
f 30/30/30 32/32/32 38/38/38
f 30/30/30 38/38/38 37/37/37
f 28/28/28 30/30/30 37/37/37
f 28/28/28 37/37/37 36/36/36
f 26/26/26 28/28/28 36/36/36
f 26/26/26 36/36/36 35/35/35
f 35/35/35 23/23/23 26/26/26
f 35/35/35 33/33/33 23/23/23
f 24/24/24 23/23/23 33/33/33
f 21/21/21 23/23/23 24/24/24
f 21/21/21 22/22/22 23/23/23
f 37/37/37 38/38/38 40/40/40
f 36/36/36 37/37/37 40/40/40
f 35/35/35 36/36/36 40/40/40
f 24/24/24 33/33/33 34/34/34
f 34/34/34 33/33/33 39/39/39
f 39/39/39 33/33/33 35/35/35
f 48/48/48 49/49/49 42/42/42
f 48/48/48 42/42/42 41/41/41
f 46/46/46 48/48/48 41/41/41
f 46/46/46 47/47/47 48/48/48
f 41/41/41 42/42/42 43/43/43
f 41/41/41 43/43/43 44/44/44
f 45/45/45 41/41/41 44/44/44
f 45/45/45 46/46/46 41/41/41
f 57/57/57 58/58/58 51/51/51
f 57/57/57 51/51/51 50/50/50
f 55/55/55 57/57/57 50/50/50
f 55/55/55 56/56/56 57/57/57
f 50/50/50 51/51/51 52/52/52
f 50/50/50 52/52/52 53/53/53
f 54/54/54 50/50/50 53/53/53
f 54/54/54 55/55/55 50/50/50
f 66/66/66 67/67/67 60/60/60
f 66/66/66 60/60/60 59/59/59
f 64/64/64 66/66/66 59/59/59
f 64/64/64 65/65/65 66/66/66
f 59/59/59 60/60/60 61/61/61
f 59/59/59 61/61/61 62/62/62
f 63/63/63 59/59/59 62/62/62
f 63/63/63 64/64/64 59/59/59

#
# MESH 001
#
g surface_001
usemtl surface_001
f 110/110/110 108/108/108 107/107/107
f 107/107/107 108/108/108 109/109/109
f 99/99/99 100/100/100 101/101/101
f 102/102/102 100/100/100 99/99/99
f 102/102/102 103/103/103 100/100/100
f 91/91/91 103/103/103 102/102/102
f 91/91/91 92/92/92 103/103/103
f 87/87/87 92/92/92 91/91/91
f 87/87/87 91/91/91 86/86/86
f 82/82/82 87/87/87 86/86/86
f 99/99/99 104/104/104 102/102/102
f 104/104/104 91/91/91 102/102/102
f 104/104/104 90/90/90 91/91/91
f 91/91/91 90/90/90 85/85/85
f 91/91/91 85/85/85 86/86/86
f 81/81/81 86/86/86 85/85/85
f 82/82/82 86/86/86 81/81/81
f 77/77/77 82/82/82 81/81/81
f 99/99/99 96/96/96 104/104/104
f 105/105/105 104/104/104 96/96/96
f 88/88/88 104/104/104 105/105/105
f 88/88/88 90/90/90 104/104/104
f 90/90/90 88/88/88 83/83/83
f 90/90/90 83/83/83 85/85/85
f 80/80/80 85/85/85 83/83/83
f 81/81/81 85/85/85 80/80/80
f 80/80/80 75/75/75 81/81/81
f 77/77/77 81/81/81 75/75/75
f 98/98/98 96/96/96 99/99/99
f 95/95/95 96/96/96 97/97/97
f 105/105/105 96/96/96 95/95/95
f 95/95/95 106/106/106 105/105/105
f 106/106/106 88/88/88 105/105/105
f 106/106/106 89/89/89 88/88/88
f 88/88/88 89/89/89 84/84/84
f 88/88/88 84/84/84 83/83/83
f 79/79/79 83/83/83 84/84/84
f 80/80/80 83/83/83 79/79/79
f 73/73/73 80/80/80 79/79/79
f 80/80/80 73/73/73 75/75/75
f 73/73/73 74/74/74 75/75/75
f 74/74/74 77/77/77 75/75/75
f 95/95/95 94/94/94 106/106/106
f 93/93/93 94/94/94 95/95/95
f 74/74/74 76/76/76 77/77/77
f 73/73/73 72/72/72 74/74/74
f 70/70/70 72/72/72 73/73/73
f 70/70/70 73/73/73 71/71/71
f 68/68/68 70/70/70 71/71/71
f 68/68/68 69/69/69 70/70/70
f 73/73/73 79/79/79 71/71/71
f 78/78/78 71/71/71 79/79/79
f 78/78/78 68/68/68 71/71/71
f 79/79/79 84/84/84 78/78/78

