#
# OBJECT NAME
#
o model_1255
mtllib 1255.mtl

#
# VERTEX BUFFER 000
#
v -0.260577 0.543641 -1.13184
v -0.209276 0.47581 -1.13141
v -0.132994 0.625258 -0.895286
v -0.219515 0.717044 -0.89516
v -0.209276 0.47581 -1.13141
v -0.151995 0.509786 -1.17916
v -0.0439116 0.700304 -0.923156
v -0.132994 0.625258 -0.895286
v -0.203127 0.577808 -1.17927
v -0.130421 0.789383 -0.92303
v -0.336775 0.470104 -1.36627
v -0.336775 0.470104 -1.36627
v -0.29347 0.960402 0.13184
v -0.24217 1.02823 0.131415
v -0.120632 0.856894 -0.162441
v -0.207152 0.763755 -0.162567
v -0.184888 0.994258 0.179159
v -0.0315493 0.784554 -0.134571
v -0.23602 0.926235 0.17927
v -0.118058 0.691416 -0.134697
v -0.23602 0.926235 0.17927
v -0.118058 0.691416 -0.134697
v -0.369668 0.996087 0.366271
v -0.369668 0.996087 0.366271
v -0.105915 0.668265 -0.520947
v -0.221755 0.765241 -0.520947
v -0.112951 0.878016 -0.520947
v 0.000829406 0.78302 -0.520947
v -0.105915 0.668265 -0.520947
v -0.221755 0.765241 -0.520947
v -0.105915 0.668265 -0.520947
v -0.105915 0.668265 -0.520947
v 0.000829406 0.78302 -0.520947
v -0.112951 0.878016 -0.520947
v -0.0821438 0.31614 -1.0683
v -0.176761 0.274585 -0.651576
v -0.316227 0.171881 -0.654254
v -0.173694 0.276069 -1.11368
v -0.151389 0.408196 -1.04136
v -0.262071 0.409117 -0.64986
v -0.316227 0.171881 -0.654254
v -0.402061 0.319103 -0.652392
v -0.243026 0.368054 -1.08669
v -0.173694 0.276069 -1.11368
v 0.0560412 0.637374 -1.25647
v 0.0560412 0.637374 -1.25647
v -0.320518 0.366091 0.186542
v -0.155685 0.493191 -0.217607
v -0.239842 0.625042 -0.213249
v -0.38985 0.458075 0.218127
v -0.412156 0.325948 0.1335
v -0.28992 0.414746 -0.223532
v -0.481401 0.418005 0.165026
v -0.374032 0.546644 -0.219517
v -0.28992 0.414746 -0.223532
v -0.412156 0.325948 0.1335
v -0.619586 0.0967707 0.385221
v -0.481401 0.418005 0.165026
v -0.412156 0.325948 0.1335
v -0.316227 0.171881 -0.654254
v -0.176761 0.274585 -0.651576
v -0.402061 0.319103 -0.652392
v -0.316227 0.171881 -0.654254
v -0.262071 0.409117 -0.64986
v -0.173694 0.276069 -1.11368
v 0.0560412 0.637374 -1.25647
v -0.0821438 0.31614 -1.0683
v 0.0677498 0.20987 0.117264
v 0.0108452 0.266784 0.100125
v 0.00339826 0.330338 0.359123
v 0.00760567 0.15295 0.117056
v 0.00339826 0.330338 0.359123
v -0.0492989 0.209864 0.099917
v 0.00760567 0.15295 0.117056
v 0.08778 0.183921 -1.34218
v -0.0287483 0.343634 -1.01552
v 0.0426263 0.416003 -1.01667
v 0.08778 0.183921 -1.34218
v 0.0423903 0.276008 -0.991851
v 0.113765 0.348377 -0.992992
v 0.08778 0.183921 -1.34218
v 0.0423903 0.276008 -0.991851
v -0.0939797 0.279669 -0.569708
v 0.0148268 0.180242 -0.573147
v 0.00564586 0.388089 -0.565958
v 0.114452 0.288663 -0.569397
v 0.0148268 0.180242 -0.573147
v 0.0481423 0.212677 -0.264812
v -0.0531563 0.305433 -0.260401
v -0.0939797 0.279669 -0.569708
v 0.0148268 0.180242 -0.573147
v 0.114452 0.288663 -0.569397
v 0.140853 0.313356 -0.255664
v 0.0481423 0.212677 -0.264812
v 0.0148268 0.180242 -0.573147
v 0.00564586 0.388089 -0.565958
v 0.0395561 0.406112 -0.251253
v 0.418607 0.580981 0.541712
v 0.290233 0.630792 0.193016
v 0.235652 0.548029 0.195927
v 0.317637 0.491342 0.181902
v 0.317637 0.491342 0.181902
v 0.372237 0.573906 0.179298
v 0.2781 0.844445 -0.243169
v 0.187169 0.724954 -0.243473
v 0.318362 0.644109 -0.246911
v 0.318362 0.644109 -0.246911
v 0.408062 0.7636 -0.246607
v 0.454292 0.780409 -1.43074
v 0.286228 0.831553 -1.1265
v 0.341284 0.91384 -1.11928
v 0.454292 0.780409 -1.43074
v 0.424314 0.858291 -1.10871
v 0.366863 0.775776 -1.11569
v 0.366863 0.775776 -1.11569
v 0.184127 0.656058 -0.715282
v 0.264811 0.775156 -0.712881
v 0.398302 0.687762 -0.71087
v 0.316441 0.568667 -0.713271
v 0.316441 0.568667 -0.713271
v 0.2781 0.844445 -0.243169
v 0.264811 0.775156 -0.712881
v 0.184127 0.656058 -0.715282
v 0.408062 0.7636 -0.246607
v 0.398302 0.687762 -0.71087
v 0.318362 0.644109 -0.246911
v 0.316441 0.568667 -0.713271
v 0.187169 0.724954 -0.243473
v 0.316441 0.568667 -0.713271
v 0.307666 0.232983 -0.5
v 0.382755 0.259536 -0.150061
v 0.379861 0.167206 -0.5
v 0.382755 0.259536 -0.150061
v 0.31376 0.0951672 -0.5
v 0.241579 0.161158 -0.5
v 0.31376 0.0951672 -0.5
v 0.258137 0.252445 -0.755312
v 0.304596 0.311882 -0.739727
v 0.245741 0.385032 -0.916281
v 0.320219 0.210834 -0.772454
v 0.245741 0.385032 -0.916281
v 0.366678 0.270271 -0.756869
v 0.320219 0.210834 -0.772454
v 0.379861 0.167206 -0.5
v 0.307666 0.232983 -0.5
v 0.31376 0.0951672 -0.5
v 0.241579 0.161158 -0.5
v 0.31376 0.0951672 -0.5
v 0.540235 0.491585 -0.181089
v 0.521242 0.319134 -0.202157
v 0.522789 0.324618 -0.282391
v 0.547331 0.497936 -0.288329
v 0.483511 0.13547 -0.209752
v 0.380649 0.711536 -0.212162
v 0.394104 0.603891 -0.14131
v 0.479941 0.62635 -0.190986
v 0.496325 0.630463 -0.27673
v 0.441889 0.471941 -0.116785
v 0.472856 0.312946 -0.156613
v -0.286438 1.03799 -0.242545
v -0.42616 1.0707 -0.325543
v -0.458722 1.02571 -0.290549
v -0.355278 0.964007 -0.197348
v -0.578227 1.05655 -0.41478
v -0.127311 0.812804 -0.175605
v -0.142979 0.940525 -0.247459
v -0.188322 0.944889 -0.186882
v -0.249436 0.887113 -0.155645
v -0.243372 1.04124 -0.322279
v -0.39711 1.07384 -0.379798
v -0.540673 0.752013 -0.139108
v -0.699004 0.769019 -0.166327
v -0.717337 0.726088 -0.120334
v -0.570002 0.690648 -0.0541452
v -0.879194 0.739998 -0.221004
v -0.335862 0.540929 -0.10714
v -0.383106 0.635802 -0.196153
v -0.399514 0.651365 -0.112282
v -0.433691 0.611555 -0.0492649
v -0.511015 0.719283 -0.237543
v -0.679949 0.749613 -0.225271

vn -0.97998 0.0515442 0.192139
vn 0.0376282 -0.907715 0.417725
vn 0.0668335 -0.958496 0.276611
vn -0.993164 0.112244 -0.00992584
vn 0.0376282 -0.907715 0.417725
vn 0.905273 -0.239136 -0.350098
vn 0.97168 0.0404358 -0.232666
vn 0.0668335 -0.958496 0.276611
vn 0.083252 0.768555 -0.633789
vn 0.0453186 0.928711 -0.367188
vn -0.48999 -0.294922 -0.819824
vn -0.48999 -0.294922 -0.819824
vn -0.962891 -0.0616455 -0.261719
vn -0.00506973 0.91748 -0.396973
vn 0.00786591 0.981934 -0.188843
vn -0.981934 -0.185913 -0.0193787
vn 0.88623 0.241943 0.394043
vn 0.965332 -0.0684204 0.250732
vn 0.0958252 -0.80127 0.590332
vn 0.13855 -0.943848 0.299316
vn 0.0958252 -0.80127 0.590332
vn 0.13855 -0.943848 0.299316
vn -0.502441 0.234985 0.831543
vn -0.502441 0.234985 0.831543
vn 0.0927124 -0.991699 0.0869141
vn -0.999512 0.0144653 0.0120773
vn -0.0206757 0.996094 -0.0835571
vn 0.997559 0.0628662 -0.0249176
vn 0.0927124 -0.991699 0.0869141
vn -0.999512 0.0144653 0.0120773
vn 0.0927124 -0.991699 0.0869141
vn 0.0927124 -0.991699 0.0869141
vn 0.997559 0.0628662 -0.0249176
vn -0.0206757 0.996094 -0.0835571
vn 0.902344 -0.421387 0.0894775
vn 0.908203 -0.381104 0.170898
vn -0.275146 -0.955078 0.109131
vn -0.180176 -0.866211 -0.465088
vn 0.221802 0.932617 0.283936
vn 0.182129 0.948242 -0.258545
vn -0.275146 -0.955078 0.109131
vn -0.991211 0.0620422 -0.113525
vn -0.888184 0.129028 -0.440674
vn -0.180176 -0.866211 -0.465088
vn 0.426025 0.541504 -0.724121
vn 0.426025 0.541504 -0.724121
vn 0.888672 -0.18811 0.417725
vn 0.989746 -0.0360413 0.137207
vn 0.273682 0.960938 -0.0355225
vn 0.18457 0.793457 0.57959
vn -0.201538 -0.875977 -0.437988
vn -0.194824 -0.961914 0.190186
vn -0.916504 0.389404 -0.0905151
vn -0.888672 0.437256 -0.136841
vn -0.194824 -0.961914 0.190186
vn -0.201538 -0.875977 -0.437988
vn -0.415039 -0.57959 0.701172
vn -0.916504 0.389404 -0.0905151
vn -0.201538 -0.875977 -0.437988
vn -0.275146 -0.955078 0.109131
vn 0.908203 -0.381104 0.170898
vn -0.991211 0.0620422 -0.113525
vn -0.275146 -0.955078 0.109131
vn 0.182129 0.948242 -0.258545
vn -0.180176 -0.866211 -0.465088
vn 0.426025 0.541504 -0.724121
vn 0.902344 -0.421387 0.0894775
vn 0.968262 -0.167603 0.184082
vn -0.0151367 0.966309 0.256348
vn -0.0828857 0.278564 0.956543
vn 0.0259705 -0.999512 0.00398254
vn -0.0828857 0.278564 0.956543
vn -0.982422 -0.183716 0.014061
vn 0.0259705 -0.999512 0.00398254
vn 0.140991 -0.291504 -0.945801
vn -0.975098 0.112854 -0.188965
vn -0.052948 0.992676 -0.104187
vn 0.140991 -0.291504 -0.945801
vn 0.00614929 -0.993652 -0.109253
vn 0.986328 0.162231 -0.0137329
vn 0.140991 -0.291504 -0.945801
vn 0.00614929 -0.993652 -0.109253
vn -0.996094 -0.0789795 -0.0254974
vn -0.0026207 -0.99707 -0.0707397
vn -0.0900269 0.995605 0.0101318
vn 0.999023 0.00271225 -0.0429077
vn -0.0026207 -0.99707 -0.0707397
vn 0.0934448 -0.995117 -0.0241241
vn -0.995605 0.0303345 0.0856323
vn -0.996094 -0.0789795 -0.0254974
vn -0.0026207 -0.99707 -0.0707397
vn 0.999023 0.00271225 -0.0429077
vn 0.992188 0.108765 0.0580139
vn 0.0934448 -0.995117 -0.0241241
vn -0.0026207 -0.99707 -0.0707397
vn -0.0900269 0.995605 0.0101318
vn 0.0120392 0.990234 0.138062
vn 0.21106 0.00307655 0.977051
vn -0.210327 0.88916 0.405273
vn -0.943359 -0.321289 0.0790405
vn 0.0735474 -0.977051 -0.198853
vn 0.0735474 -0.977051 -0.198853
vn 0.994629 0.0881958 0.0444946
vn -0.134033 0.984375 0.110413
vn -0.993652 -0.0952148 0.0593872
vn 0.170898 -0.98291 -0.065979
vn 0.170898 -0.98291 -0.065979
vn 0.943359 0.325684 0.0604858
vn 0.249878 -0.0847168 -0.964355
vn -0.948242 -0.0634155 -0.310303
vn -0.147461 0.97998 0.132813
vn 0.249878 -0.0847168 -0.964355
vn 0.913574 0.365479 0.175903
vn 0.181519 -0.919434 -0.348633
vn 0.181519 -0.919434 -0.348633
vn -0.937988 -0.32373 -0.122192
vn -0.229248 0.972656 0.03479
vn 0.993164 0.113159 0.016983
vn 0.111328 -0.98877 -0.0975952
vn 0.111328 -0.98877 -0.0975952
vn -0.134033 0.984375 0.110413
vn -0.229248 0.972656 0.03479
vn -0.937988 -0.32373 -0.122192
vn 0.943359 0.325684 0.0604858
vn 0.993164 0.113159 0.016983
vn 0.170898 -0.98291 -0.065979
vn 0.111328 -0.98877 -0.0975952
vn -0.993652 -0.0952148 0.0593872
vn 0.111328 -0.98877 -0.0975952
vn -0.108337 0.979492 0.168213
vn 0.0981445 0.121033 0.987305
vn 0.994629 -0.0913086 -0.043457
vn 0.0981445 0.121033 0.987305
vn 0.0137558 -0.998535 -0.0421753
vn -0.970215 -0.228027 0.0787354
vn 0.0137558 -0.998535 -0.0421753
vn -0.98291 -0.144897 -0.110596
vn -0.0603027 0.940918 0.33252
vn -0.192505 0.427002 -0.883301
vn 0.143677 -0.861328 -0.486816
vn -0.192505 0.427002 -0.883301
vn 0.984863 0.100403 -0.138184
vn 0.143677 -0.861328 -0.486816
vn 0.994629 -0.0913086 -0.043457
vn -0.108337 0.979492 0.168213
vn 0.0137558 -0.998535 -0.0421753
vn -0.970215 -0.228027 0.0787354
vn 0.0137558 -0.998535 -0.0421753
vn 0.855469 0.111755 0.505371
vn 0.898438 -0.156128 0.410156
vn 0.98877 -0.144409 0.029953
vn 0.989258 0.11615 0.085022
vn 0.92334 -0.203125 0.324463
vn 0.46875 0.685059 0.557129
vn 0.423828 0.353516 0.833496
vn 0.692383 0.462402 0.553223
vn 0.873535 0.466309 0.139404
vn 0.539551 0.100586 0.835449
vn 0.62793 -0.133667 0.766602
vn 0.133423 0.814453 0.563965
vn -0.11084 0.90332 0.41333
vn -0.280273 0.689941 0.666504
vn -0.115295 0.591797 0.797363
vn -0.273926 0.905273 0.323486
vn 0.503418 0.301514 0.80957
vn 0.606934 0.689453 0.394043
vn 0.35498 0.607422 0.710449
vn 0.0748901 0.432373 0.898438
vn 0.356934 0.902832 0.238403
vn 0.0946655 0.990234 0.100708
vn 0.293213 0.925293 0.239624
vn -0.0260773 0.978027 0.205933
vn -0.115784 0.785645 0.607422
vn 0.19519 0.74707 0.634766
vn -0.203125 0.966309 0.156494
vn 0.804199 0.479736 0.350098
vn 0.641113 0.765625 -0.0427246
vn 0.584473 0.749512 0.309326
vn 0.431396 0.641602 0.633789
vn 0.43042 0.890137 -0.147827
vn 0.105103 0.953125 -0.282959

vt 0.391438 0.783849
vt 0.391438 0.710513
vt 0.177108 0.710513
vt 0.177108 0.783849
vt 0.391438 0.991656
vt 0.391438 0.937997
vt 0.177108 0.937997
vt 0.177108 0.991656
vt 0.391438 0.861746
vt 0.177108 0.861746
vt 0.521507 0.76712
vt 0.520045 0.932361
vt 0.391438 0.783849
vt 0.391438 0.861746
vt 0.177108 0.861746
vt 0.177108 0.783849
vt 0.391438 0.937997
vt 0.177108 0.937997
vt 0.391438 0.991656
vt 0.177108 0.991656
vt 0.391438 0.710513
vt 0.177108 0.710513
vt 0.520045 0.786046
vt 0.521507 0.950015
vt 0.0506857 0.710513
vt 0.0506857 0.783849
vt 0.0506857 0.861746
vt 0.0506857 0.937997
vt 0.0506857 0.991656
vt 0.0506857 0.783849
vt 0.0506857 0.710513
vt 0.0506857 0.991656
vt 0.0506857 0.937997
vt 0.0506857 0.861746
vt 0.308429 0.582548
vt 0.0566208 0.582548
vt 0.0566208 0.656824
vt 0.308429 0.656824
vt 0.308429 0.505658
vt 0.0566208 0.505658
vt 0.0566208 0.356476
vt 0.0566208 0.426801
vt 0.308429 0.426801
vt 0.308429 0.356476
vt 0.521911 0.422993
vt 0.523091 0.590092
vt 0.308429 0.582548
vt 0.0907253 0.582548
vt 0.0907252 0.505658
vt 0.308429 0.505658
vt 0.308429 0.656824
vt 0.0907253 0.656824
vt 0.308429 0.426801
vt 0.0907252 0.426801
vt 0.0907253 0.356476
vt 0.308429 0.356476
vt 0.523091 0.495846
vt 0.308429 0.426801
vt 0.308429 0.656824
vt 0.0566208 0.656824
vt 0.0566208 0.582548
vt 0.0566208 0.426801
vt 0.0566208 0.356476
vt 0.0566208 0.505658
vt 0.308429 0.356476
vt 0.523091 0.590092
vt 0.308429 0.582548
vt 0.382307 0.899314
vt 0.382307 0.821902
vt 0.517661 0.775176
vt 0.382307 0.973904
vt 0.517661 0.775176
vt 0.382307 0.744628
vt 0.382307 0.689677
vt 0.521058 0.841279
vt 0.288359 0.744628
vt 0.288359 0.821902
vt 0.521058 0.728161
vt 0.288359 0.689677
vt 0.288359 0.899314
vt 0.521058 0.95383
vt 0.288359 0.973904
vt 0.0418095 0.744628
vt 0.0418095 0.689677
vt 0.0418095 0.821902
vt 0.0418095 0.899314
vt 0.0418095 0.973904
vt 0.113935 0.689677
vt 0.113935 0.744628
vt 0.0418095 0.744628
vt 0.0418095 0.689677
vt 0.0418095 0.899314
vt 0.113935 0.899314
vt 0.113935 0.973904
vt 0.0418095 0.973904
vt 0.0418095 0.821902
vt 0.113935 0.821902
vt 0.516174 0.498145
vt 0.321961 0.508349
vt 0.321961 0.427284
vt 0.321961 0.354056
vt 0.321961 0.662046
vt 0.321961 0.587392
vt 0.0948491 0.508349
vt 0.0948491 0.427284
vt 0.0948491 0.354056
vt 0.0948491 0.662046
vt 0.0948491 0.587392
vt 0.513351 0.423182
vt 0.321961 0.427284
vt 0.321961 0.508349
vt 0.516174 0.594723
vt 0.321961 0.587392
vt 0.321961 0.662046
vt 0.321961 0.354056
vt 0.0948491 0.427284
vt 0.0948491 0.508349
vt 0.0948491 0.587392
vt 0.0948491 0.662046
vt 0.0948491 0.354056
vt 0.0948491 0.508349
vt 0.0948491 0.508349
vt 0.0948491 0.427284
vt 0.0948491 0.587392
vt 0.0948491 0.587392
vt 0.0948491 0.662046
vt 0.0948491 0.662046
vt 0.0948491 0.427284
vt 0.0948491 0.354056
vt 0.0262125 0.487515
vt 0.513025 0.438171
vt 0.0262125 0.566341
vt 0.513025 0.438171
vt 0.0262125 0.642295
vt 0.0262125 0.408829
vt 0.0262125 0.352875
vt 0.195994 0.408829
vt 0.195994 0.487515
vt 0.512388 0.509878
vt 0.195994 0.352875
vt 0.512388 0.509878
vt 0.195994 0.566341
vt 0.195994 0.642295
vt 0.0262125 0.566341
vt 0.0262125 0.487515
vt 0.0262125 0.642295
vt 0.0262125 0.408829
vt 0.0262125 0.352875
vt 0.690483 0.906195
vt 0.624309 0.901357
vt 0.62187 0.973019
vt 0.692612 0.996349
vt 0.550511 0.880053
vt 0.812654 0.908011
vt 0.764764 0.841914
vt 0.751831 0.907743
vt 0.753976 0.976192
vt 0.69319 0.817548
vt 0.624314 0.84594
vt 0.874571 0.560816
vt 0.799709 0.569651
vt 0.804151 0.618555
vt 0.876424 0.635988
vt 0.72533 0.628077
vt 0.988754 0.593628
vt 0.939002 0.506285
vt 0.93331 0.574332
vt 0.935284 0.639074
vt 0.868757 0.469393
vt 0.794026 0.513317
vt 0.720963 0.434479
vt 0.794122 0.420853
vt 0.77749 0.357204
vt 0.691462 0.339612
vt 0.891697 0.449076
vt 0.609695 0.453858
vt 0.673143 0.523099
vt 0.658732 0.446423
vt 0.637619 0.376397
vt 0.742896 0.526403
vt 0.808537 0.474578


#
# MESH 000
#
g surface_000
usemtl surface_000
f 22/22/22 30/30/30 31/31/31
f 22/22/22 16/16/16 30/30/30
f 16/16/16 34/34/34 30/30/30
f 16/16/16 15/15/15 34/34/34
f 34/34/34 15/15/15 18/18/18
f 34/34/34 18/18/18 33/33/33
f 18/18/18 32/32/32 33/33/33
f 18/18/18 20/20/20 32/32/32
f 21/21/21 16/16/16 22/22/22
f 21/21/21 13/13/13 16/16/16
f 13/13/13 15/15/15 16/16/16
f 13/13/13 14/14/14 15/15/15
f 14/14/14 18/18/18 15/15/15
f 14/14/14 17/17/17 18/18/18
f 17/17/17 20/20/20 18/18/18
f 17/17/17 19/19/19 20/20/20
f 24/24/24 19/19/19 17/17/17
f 23/23/23 13/13/13 21/21/21
f 14/14/14 13/13/13 23/23/23
f 23/23/23 17/17/17 14/14/14
f 28/28/28 29/29/29 8/8/8
f 28/28/28 8/8/8 7/7/7
f 10/10/10 28/28/28 7/7/7
f 10/10/10 27/27/27 28/28/28
f 4/4/4 27/27/27 10/10/10
f 4/4/4 26/26/26 27/27/27
f 25/25/25 26/26/26 4/4/4
f 25/25/25 4/4/4 3/3/3
f 5/5/5 7/7/7 8/8/8
f 5/5/5 6/6/6 7/7/7
f 6/6/6 10/10/10 7/7/7
f 6/6/6 9/9/9 10/10/10
f 9/9/9 4/4/4 10/10/10
f 9/9/9 1/1/1 4/4/4
f 1/1/1 3/3/3 4/4/4
f 1/1/1 2/2/2 3/3/3
f 2/2/2 1/1/1 11/11/11
f 12/12/12 6/6/6 5/5/5
f 12/12/12 9/9/9 6/6/6
f 12/12/12 1/1/1 9/9/9
f 65/65/65 66/66/66 67/67/67
f 57/57/57 58/58/58 59/59/59
f 52/52/52 60/60/60 61/61/61
f 52/52/52 61/61/61 48/48/48
f 51/51/51 52/52/52 48/48/48
f 51/51/51 48/48/48 47/47/47
f 57/57/57 51/51/51 47/47/47
f 57/57/57 47/47/47 50/50/50
f 57/57/57 50/50/50 53/53/53
f 61/61/61 49/49/49 48/48/48
f 47/47/47 48/48/48 49/49/49
f 47/47/47 49/49/49 50/50/50
f 49/49/49 53/53/53 50/50/50
f 49/49/49 54/54/54 53/53/53
f 53/53/53 54/54/54 55/55/55
f 53/53/53 55/55/55 56/56/56
f 61/61/61 64/64/64 49/49/49
f 64/64/64 54/54/54 49/49/49
f 64/64/64 62/62/62 54/54/54
f 54/54/54 62/62/62 63/63/63
f 54/54/54 63/63/63 55/55/55
f 44/44/44 43/43/43 46/46/46
f 41/41/41 43/43/43 44/44/44
f 41/41/41 42/42/42 43/43/43
f 42/42/42 39/39/39 43/43/43
f 45/45/45 43/43/43 39/39/39
f 45/45/45 39/39/39 35/35/35
f 39/39/39 36/36/36 35/35/35
f 35/35/35 36/36/36 37/37/37
f 35/35/35 37/37/37 38/38/38
f 42/42/42 40/40/40 39/39/39
f 39/39/39 40/40/40 36/36/36
f 92/92/92 94/94/94 95/95/95
f 92/92/92 93/93/93 94/94/94
f 93/93/93 71/71/71 94/94/94
f 93/93/93 68/68/68 71/71/71
f 71/71/71 68/68/68 72/72/72
f 96/96/96 93/93/93 92/92/92
f 96/96/96 97/97/97 93/93/93
f 97/97/97 68/68/68 93/93/93
f 97/97/97 69/69/69 68/68/68
f 68/68/68 69/69/69 70/70/70
f 89/89/89 97/97/97 96/96/96
f 73/73/73 97/97/97 89/89/89
f 73/73/73 69/69/69 97/97/97
f 72/72/72 69/69/69 73/73/73
f 73/73/73 74/74/74 72/72/72
f 74/74/74 73/73/73 89/89/89
f 74/74/74 89/89/89 88/88/88
f 88/88/88 89/89/89 90/90/90
f 88/88/88 90/90/90 91/91/91
f 89/89/89 96/96/96 90/90/90
f 83/83/83 79/79/79 84/84/84
f 83/83/83 76/76/76 79/79/79
f 78/78/78 79/79/79 76/76/76
f 85/85/85 76/76/76 83/83/83
f 85/85/85 77/77/77 76/76/76
f 75/75/75 76/76/76 77/77/77
f 75/75/75 77/77/77 80/80/80
f 86/86/86 80/80/80 77/77/77
f 87/87/87 80/80/80 86/86/86
f 87/87/87 82/82/82 80/80/80
f 81/81/81 80/80/80 82/82/82
f 86/86/86 77/77/77 85/85/85
f 128/128/128 129/129/129 106/106/106
f 128/128/128 123/123/123 129/129/129
f 126/126/126 125/125/125 108/108/108
f 126/126/126 127/127/127 125/125/125
f 124/124/124 122/122/122 104/104/104
f 124/124/124 125/125/125 122/122/122
f 121/121/121 123/123/123 105/105/105
f 121/121/121 122/122/122 123/123/123
f 115/115/115 120/120/120 116/116/116
f 115/115/115 116/116/116 110/110/110
f 109/109/109 115/115/115 110/110/110
f 109/109/109 110/110/110 111/111/111
f 116/116/116 111/111/111 110/110/110
f 116/116/116 117/117/117 111/111/111
f 111/111/111 117/117/117 118/118/118
f 111/111/111 118/118/118 113/113/113
f 112/112/112 111/111/111 113/113/113
f 112/112/112 113/113/113 114/114/114
f 113/113/113 119/119/119 114/114/114
f 113/113/113 118/118/118 119/119/119
f 102/102/102 107/107/107 108/108/108
f 102/102/102 108/108/108 103/103/103
f 98/98/98 102/102/102 103/103/103
f 98/98/98 103/103/103 99/99/99
f 98/98/98 99/99/99 100/100/100
f 98/98/98 100/100/100 101/101/101
f 100/100/100 106/106/106 101/101/101
f 100/100/100 105/105/105 106/106/106
f 103/103/103 108/108/108 104/104/104
f 103/103/103 104/104/104 99/99/99
f 99/99/99 104/104/104 105/105/105
f 99/99/99 105/105/105 100/100/100
f 133/133/133 134/134/134 132/132/132
f 130/130/130 131/131/131 132/132/132
f 147/147/147 140/140/140 148/148/148
f 147/147/147 137/137/137 140/140/140
f 140/140/140 137/137/137 141/141/141
f 145/145/145 137/137/137 147/147/147
f 145/145/145 138/138/138 137/137/137
f 137/137/137 138/138/138 139/139/139
f 144/144/144 138/138/138 145/145/145
f 144/144/144 142/142/142 138/138/138
f 141/141/141 138/138/138 142/142/142
f 142/142/142 143/143/143 141/141/141
f 146/146/146 143/143/143 142/142/142
f 146/146/146 142/142/142 144/144/144
f 133/133/133 130/130/130 135/135/135
f 133/133/133 135/135/135 136/136/136
f 153/153/153 150/150/150 159/159/159
f 153/153/153 151/151/151 150/150/150
f 149/149/149 150/150/150 151/151/151
f 149/149/149 159/159/159 150/150/150
f 149/149/149 158/158/158 159/159/159
f 158/158/158 149/149/149 156/156/156
f 158/158/158 156/156/156 155/155/155
f 154/154/154 155/155/155 156/156/156
f 154/154/154 156/156/156 157/157/157
f 152/152/152 157/157/157 156/156/156
f 149/149/149 151/151/151 152/152/152
f 152/152/152 156/156/156 149/149/149
f 176/176/176 178/178/178 179/179/179
f 176/176/176 177/177/177 178/178/178
f 180/180/180 178/178/178 177/177/177
f 180/180/180 171/171/171 178/178/178
f 174/174/174 178/178/178 171/171/171
f 174/174/174 179/179/179 178/178/178
f 180/180/180 172/172/172 171/171/171
f 171/171/171 172/172/172 173/173/173
f 171/171/171 173/173/173 174/174/174
f 180/180/180 181/181/181 172/172/172
f 175/175/175 172/172/172 181/181/181
f 175/175/175 173/173/173 172/172/172
f 165/165/165 167/167/167 168/168/168
f 165/165/165 166/166/166 167/167/167
f 169/169/169 167/167/167 166/166/166
f 169/169/169 160/160/160 167/167/167
f 163/163/163 167/167/167 160/160/160
f 163/163/163 168/168/168 167/167/167
f 169/169/169 161/161/161 160/160/160
f 160/160/160 161/161/161 162/162/162
f 160/160/160 162/162/162 163/163/163
f 169/169/169 170/170/170 161/161/161
f 164/164/164 161/161/161 170/170/170
f 164/164/164 162/162/162 161/161/161

