#
# OBJECT NAME
#
o model_1264
mtllib 1264.mtl

#
# VERTEX BUFFER 000
#
v -0.260577 1.6343 0.0460985
v -0.209276 1.63387 -0.0217323
v -0.132994 1.39774 0.127715
v -0.219515 1.39762 0.219501
v -0.209276 1.63387 -0.0217323
v -0.151995 1.68162 0.0122433
v -0.0439116 1.42561 0.202761
v -0.132994 1.39774 0.127715
v -0.203127 1.68173 0.0802656
v -0.130421 1.42549 0.29184
v -0.336775 1.86873 -0.0274385
v -0.336775 1.86873 -0.0274385
v -0.29347 0.370617 0.46286
v -0.24217 0.371043 0.53069
v -0.120632 0.664898 0.359351
v -0.207152 0.665024 0.266212
v -0.184888 0.323298 0.496715
v -0.0315493 0.637029 0.287011
v -0.23602 0.323188 0.428692
v -0.118058 0.637155 0.193873
v -0.23602 0.323188 0.428692
v -0.118058 0.637155 0.193873
v -0.369668 0.136186 0.498544
v -0.369668 0.136186 0.498544
v -0.105915 1.0234 0.170722
v -0.221755 1.0234 0.267699
v -0.112951 1.0234 0.380474
v 0.000829406 1.0234 0.285477
v -0.105915 1.0234 0.170722
v -0.221755 1.0234 0.267699
v -0.105915 1.0234 0.170722
v -0.105915 1.0234 0.170722
v 0.000829406 1.0234 0.285477
v -0.112951 1.0234 0.380474
v -0.0821438 1.57076 -0.181402
v -0.176761 1.15403 -0.222958
v -0.316227 1.15671 -0.325662
v -0.173694 1.61613 -0.221473
v -0.151389 1.54382 -0.0893464
v -0.262071 1.15232 -0.0884256
v -0.316227 1.15671 -0.325662
v -0.402061 1.15485 -0.17844
v -0.243026 1.58914 -0.129489
v -0.173694 1.61613 -0.221473
v 0.0560412 1.75892 0.139831
v 0.0560412 1.75892 0.139831
v -0.320518 0.315915 -0.131452
v -0.155685 0.720064 -0.00435215
v -0.239842 0.715706 0.127499
v -0.38985 0.28433 -0.0394673
v -0.412156 0.368957 -0.171594
v -0.28992 0.72599 -0.0827972
v -0.481401 0.337431 -0.0795383
v -0.374032 0.721974 0.049101
v -0.28992 0.72599 -0.0827972
v -0.412156 0.368957 -0.171594
v -0.619586 0.117237 -0.400772
v -0.481401 0.337431 -0.0795383
v -0.412156 0.368957 -0.171594
v -0.316227 1.15671 -0.325662
v -0.176761 1.15403 -0.222958
v -0.402061 1.15485 -0.17844
v -0.316227 1.15671 -0.325662
v -0.262071 1.15232 -0.0884256
v -0.173694 1.61613 -0.221473
v 0.0560412 1.75892 0.139831
v -0.0821438 1.57076 -0.181402
v 0.0677498 0.385193 -0.287673
v 0.0108452 0.402332 -0.230759
v 0.00339826 0.143334 -0.167204
v 0.00760567 0.385402 -0.344593
v 0.00339826 0.143334 -0.167204
v -0.0492989 0.40254 -0.287679
v 0.00760567 0.385402 -0.344593
v 0.08778 1.84464 -0.313621
v -0.0287483 1.51798 -0.153909
v 0.0426263 1.51912 -0.0815402
v 0.08778 1.84464 -0.313621
v 0.0423903 1.49431 -0.221535
v 0.113765 1.49545 -0.149166
v 0.08778 1.84464 -0.313621
v 0.0423903 1.49431 -0.221535
v -0.0939797 1.07217 -0.217874
v 0.0148268 1.0756 -0.317301
v 0.00564586 1.06841 -0.109453
v 0.114452 1.07185 -0.20888
v 0.0148268 1.0756 -0.317301
v 0.0481423 0.76727 -0.284866
v -0.0531563 0.762859 -0.19211
v -0.0939797 1.07217 -0.217874
v 0.0148268 1.0756 -0.317301
v 0.114452 1.07185 -0.20888
v 0.140853 0.758122 -0.184187
v 0.0481423 0.76727 -0.284866
v 0.0148268 1.0756 -0.317301
v 0.00564586 1.06841 -0.109453
v 0.0395561 0.753711 -0.0914308
v 0.418607 -0.039255 0.0834379
v 0.290233 0.309441 0.133249
v 0.235652 0.30653 0.0504865
v 0.317637 0.320556 -0.006201
v 0.317637 0.320556 -0.006201
v 0.372237 0.32316 0.0763631
v 0.2781 0.745626 0.346903
v 0.187169 0.74593 0.227411
v 0.318362 0.749368 0.146566
v 0.318362 0.749368 0.146566
v 0.408062 0.749065 0.266057
v 0.454292 1.9332 0.282866
v 0.286228 1.62896 0.33401
v 0.341284 1.62173 0.416298
v 0.454292 1.9332 0.282866
v 0.424314 1.61117 0.360748
v 0.366863 1.61815 0.278233
v 0.366863 1.61815 0.278233
v 0.184127 1.21774 0.158515
v 0.264811 1.21534 0.277614
v 0.398302 1.21333 0.19022
v 0.316441 1.21573 0.0711247
v 0.316441 1.21573 0.0711247
v 0.2781 0.745626 0.346903
v 0.264811 1.21534 0.277614
v 0.184127 1.21774 0.158515
v 0.408062 0.749065 0.266057
v 0.398302 1.21333 0.19022
v 0.318362 0.749368 0.146566
v 0.316441 1.21573 0.0711247
v 0.187169 0.74593 0.227411
v 0.316441 1.21573 0.0711247
v 0.307666 1.00246 -0.26456
v 0.382755 0.652518 -0.238007
v 0.379861 1.00246 -0.330336
v 0.382755 0.652518 -0.238007
v 0.31376 1.00246 -0.402376
v 0.241579 1.00246 -0.336385
v 0.31376 1.00246 -0.402376
v 0.258137 1.25777 -0.245098
v 0.304596 1.24218 -0.185661
v 0.245741 1.41874 -0.112511
v 0.320219 1.27491 -0.286709
v 0.245741 1.41874 -0.112511
v 0.366678 1.25933 -0.227272
v 0.320219 1.27491 -0.286709
v 0.379861 1.00246 -0.330336
v 0.307666 1.00246 -0.26456
v 0.31376 1.00246 -0.402376
v 0.241579 1.00246 -0.336385
v 0.31376 1.00246 -0.402376
v 0.540235 0.683546 -0.00595731
v 0.521242 0.704614 -0.178409
v 0.522789 0.784848 -0.172925
v 0.547331 0.790786 0.00039342
v 0.483511 0.712209 -0.362072
v 0.380649 0.714619 0.213993
v 0.394104 0.643767 0.106349
v 0.479941 0.693443 0.128807
v 0.496325 0.779187 0.13292
v 0.441889 0.619243 -0.0256017
v 0.472856 0.65907 -0.184597
v -0.286438 0.745002 0.540444
v -0.42616 0.828001 0.573157
v -0.458722 0.793006 0.528171
v -0.355278 0.699805 0.466464
v -0.578227 0.917237 0.559002
v -0.127311 0.678062 0.315261
v -0.142979 0.749917 0.442982
v -0.188322 0.689339 0.447346
v -0.249436 0.658102 0.389571
v -0.243372 0.824736 0.5437
v -0.39711 0.882255 0.576292
v -0.540673 0.641565 0.25447
v -0.699004 0.668784 0.271476
v -0.717337 0.622791 0.228545
v -0.570002 0.556602 0.193105
v -0.879194 0.723461 0.242455
v -0.335862 0.609597 0.0433863
v -0.383106 0.69861 0.13826
v -0.399514 0.614739 0.153822
v -0.433691 0.551722 0.114012
v -0.511015 0.74 0.22174
v -0.679949 0.727729 0.25207

vn -0.97998 -0.192139 0.0515442
vn 0.0376282 -0.417725 -0.907715
vn 0.0668335 -0.276611 -0.958496
vn -0.993164 0.00992584 0.112244
vn 0.0376282 -0.417725 -0.907715
vn 0.905273 0.350098 -0.239136
vn 0.97168 0.232666 0.0404358
vn 0.0668335 -0.276611 -0.958496
vn 0.083252 0.633789 0.768555
vn 0.0453186 0.367188 0.928711
vn -0.48999 0.819824 -0.294922
vn -0.48999 0.819824 -0.294922
vn -0.962891 0.261719 -0.0616455
vn -0.00506973 0.396973 0.91748
vn 0.00786591 0.188843 0.981934
vn -0.981934 0.0193787 -0.185913
vn 0.88623 -0.394043 0.241943
vn 0.965332 -0.250732 -0.0684204
vn 0.0958252 -0.590332 -0.80127
vn 0.13855 -0.299316 -0.943848
vn 0.0958252 -0.590332 -0.80127
vn 0.13855 -0.299316 -0.943848
vn -0.502441 -0.831543 0.234985
vn -0.502441 -0.831543 0.234985
vn 0.0927124 -0.0869141 -0.991699
vn -0.999512 -0.0120773 0.0144577
vn -0.0206757 0.0835571 0.996094
vn 0.997559 0.0249176 0.0628662
vn 0.0927124 -0.0869141 -0.991699
vn -0.999512 -0.0120773 0.0144577
vn 0.0927124 -0.0869141 -0.991699
vn 0.0927124 -0.0869141 -0.991699
vn 0.997559 0.0249176 0.0628662
vn -0.0206757 0.0835571 0.996094
vn 0.902344 -0.0894775 -0.421387
vn 0.908203 -0.170898 -0.381104
vn -0.275146 -0.109131 -0.955078
vn -0.180176 0.465088 -0.866211
vn 0.221802 -0.283936 0.932617
vn 0.182129 0.258545 0.948242
vn -0.275146 -0.109131 -0.955078
vn -0.991211 0.113525 0.0620422
vn -0.888184 0.440674 0.129028
vn -0.180176 0.465088 -0.866211
vn 0.426025 0.724121 0.541504
vn 0.426025 0.724121 0.541504
vn 0.888672 -0.417725 -0.18811
vn 0.989746 -0.137207 -0.0360413
vn 0.273682 0.0355225 0.960938
vn 0.18457 -0.57959 0.793457
vn -0.201538 0.437988 -0.875977
vn -0.194824 -0.190186 -0.961914
vn -0.916504 0.0905151 0.389404
vn -0.888672 0.136841 0.437256
vn -0.194824 -0.190186 -0.961914
vn -0.201538 0.437988 -0.875977
vn -0.415039 -0.701172 -0.57959
vn -0.916504 0.0905151 0.389404
vn -0.201538 0.437988 -0.875977
vn -0.275146 -0.109131 -0.955078
vn 0.908203 -0.170898 -0.381104
vn -0.991211 0.113525 0.0620422
vn -0.275146 -0.109131 -0.955078
vn 0.182129 0.258545 0.948242
vn -0.180176 0.465088 -0.866211
vn 0.426025 0.724121 0.541504
vn 0.902344 -0.0894775 -0.421387
vn 0.968262 -0.184082 -0.167603
vn -0.0151367 -0.256348 0.966309
vn -0.0828857 -0.956543 0.278564
vn 0.0259705 -0.00397873 -0.999512
vn -0.0828857 -0.956543 0.278564
vn -0.982422 -0.014061 -0.183716
vn 0.0259705 -0.00397873 -0.999512
vn 0.140991 0.945801 -0.291504
vn -0.975098 0.188965 0.112854
vn -0.052948 0.104187 0.992676
vn 0.140991 0.945801 -0.291504
vn 0.00614929 0.109253 -0.993652
vn 0.986328 0.0137329 0.162231
vn 0.140991 0.945801 -0.291504
vn 0.00614929 0.109253 -0.993652
vn -0.996094 0.0254974 -0.0789795
vn -0.0026207 0.0707397 -0.99707
vn -0.0900269 -0.0101318 0.995605
vn 0.999023 0.0429077 0.00271225
vn -0.0026207 0.0707397 -0.99707
vn 0.0934448 0.0241241 -0.995117
vn -0.995605 -0.0856323 0.0303345
vn -0.996094 0.0254974 -0.0789795
vn -0.0026207 0.0707397 -0.99707
vn 0.999023 0.0429077 0.00271225
vn 0.992188 -0.0580139 0.108765
vn 0.0934448 0.0241241 -0.995117
vn -0.0026207 0.0707397 -0.99707
vn -0.0900269 -0.0101318 0.995605
vn 0.0120392 -0.138062 0.990234
vn 0.21106 -0.977051 0.00306892
vn -0.210327 -0.405273 0.88916
vn -0.943359 -0.0790405 -0.321289
vn 0.0735474 0.198853 -0.977051
vn 0.0735474 0.198853 -0.977051
vn 0.994629 -0.0444946 0.0881958
vn -0.134033 -0.110413 0.984375
vn -0.993652 -0.0593872 -0.0952148
vn 0.170898 0.065979 -0.98291
vn 0.170898 0.065979 -0.98291
vn 0.943359 -0.0604858 0.325684
vn 0.249878 0.964355 -0.0847168
vn -0.948242 0.310303 -0.0634155
vn -0.147461 -0.132813 0.97998
vn 0.249878 0.964355 -0.0847168
vn 0.913574 -0.175903 0.365479
vn 0.181519 0.348633 -0.919434
vn 0.181519 0.348633 -0.919434
vn -0.937988 0.122192 -0.32373
vn -0.229248 -0.03479 0.972656
vn 0.993164 -0.016983 0.113159
vn 0.111328 0.0975952 -0.98877
vn 0.111328 0.0975952 -0.98877
vn -0.134033 -0.110413 0.984375
vn -0.229248 -0.03479 0.972656
vn -0.937988 0.122192 -0.32373
vn 0.943359 -0.0604858 0.325684
vn 0.993164 -0.016983 0.113159
vn 0.170898 0.065979 -0.98291
vn 0.111328 0.0975952 -0.98877
vn -0.993652 -0.0593872 -0.0952148
vn 0.111328 0.0975952 -0.98877
vn -0.108337 -0.168213 0.979492
vn 0.0981445 -0.987305 0.121033
vn 0.994629 0.043457 -0.0913086
vn 0.0981445 -0.987305 0.121033
vn 0.0137558 0.0421753 -0.998535
vn -0.970215 -0.0787354 -0.228027
vn 0.0137558 0.0421753 -0.998535
vn -0.98291 0.110596 -0.144897
vn -0.0603027 -0.33252 0.940918
vn -0.192505 0.883301 0.427002
vn 0.143677 0.486816 -0.861328
vn -0.192505 0.883301 0.427002
vn 0.984863 0.138184 0.100403
vn 0.143677 0.486816 -0.861328
vn 0.994629 0.043457 -0.0913086
vn -0.108337 -0.168213 0.979492
vn 0.0137558 0.0421753 -0.998535
vn -0.970215 -0.0787354 -0.228027
vn 0.0137558 0.0421753 -0.998535
vn 0.855469 -0.505371 0.111755
vn 0.898438 -0.410156 -0.156128
vn 0.98877 -0.029953 -0.144409
vn 0.989258 -0.085022 0.11615
vn 0.92334 -0.324463 -0.203125
vn 0.46875 -0.557129 0.685059
vn 0.423828 -0.833496 0.353516
vn 0.692383 -0.553223 0.462402
vn 0.873535 -0.139404 0.466309
vn 0.539551 -0.835449 0.100586
vn 0.62793 -0.766602 -0.133667
vn 0.133423 -0.563965 0.814453
vn -0.11084 -0.41333 0.90332
vn -0.280273 -0.666504 0.689941
vn -0.115295 -0.797363 0.591797
vn -0.273926 -0.323486 0.905273
vn 0.503418 -0.80957 0.301514
vn 0.606934 -0.394043 0.689453
vn 0.35498 -0.710449 0.607422
vn 0.0748901 -0.898438 0.432373
vn 0.356934 -0.238403 0.902832
vn 0.0946655 -0.100708 0.990234
vn 0.293213 -0.239624 0.925293
vn -0.0260773 -0.205933 0.978027
vn -0.115784 -0.607422 0.785645
vn 0.19519 -0.634766 0.74707
vn -0.203125 -0.156494 0.966309
vn 0.804199 -0.350098 0.479736
vn 0.641113 0.0427246 0.765625
vn 0.584473 -0.309326 0.749512
vn 0.431396 -0.633789 0.641602
vn 0.43042 0.147827 0.890137
vn 0.105103 0.282959 0.953125

vt 0.391438 0.783849
vt 0.391438 0.710513
vt 0.177108 0.710513
vt 0.177108 0.783849
vt 0.391438 0.991656
vt 0.391438 0.937997
vt 0.177108 0.937997
vt 0.177108 0.991656
vt 0.391438 0.861746
vt 0.177108 0.861746
vt 0.521507 0.76712
vt 0.520045 0.932361
vt 0.391438 0.783849
vt 0.391438 0.861746
vt 0.177108 0.861746
vt 0.177108 0.783849
vt 0.391438 0.937997
vt 0.177108 0.937997
vt 0.391438 0.991656
vt 0.177108 0.991656
vt 0.391438 0.710513
vt 0.177108 0.710513
vt 0.520045 0.786046
vt 0.521507 0.950015
vt 0.0506857 0.710513
vt 0.0506857 0.783849
vt 0.0506857 0.861746
vt 0.0506857 0.937997
vt 0.0506857 0.991656
vt 0.0506857 0.783849
vt 0.0506857 0.710513
vt 0.0506857 0.991656
vt 0.0506857 0.937997
vt 0.0506857 0.861746
vt 0.308429 0.582548
vt 0.0566208 0.582548
vt 0.0566208 0.656824
vt 0.308429 0.656824
vt 0.308429 0.505658
vt 0.0566208 0.505658
vt 0.0566208 0.356476
vt 0.0566208 0.426801
vt 0.308429 0.426801
vt 0.308429 0.356476
vt 0.521911 0.422993
vt 0.523091 0.590092
vt 0.308429 0.582548
vt 0.0907253 0.582548
vt 0.0907252 0.505658
vt 0.308429 0.505658
vt 0.308429 0.656824
vt 0.0907253 0.656824
vt 0.308429 0.426801
vt 0.0907252 0.426801
vt 0.0907253 0.356476
vt 0.308429 0.356476
vt 0.523091 0.495846
vt 0.308429 0.426801
vt 0.308429 0.656824
vt 0.0566208 0.656824
vt 0.0566208 0.582548
vt 0.0566208 0.426801
vt 0.0566208 0.356476
vt 0.0566208 0.505658
vt 0.308429 0.356476
vt 0.523091 0.590092
vt 0.308429 0.582548
vt 0.382307 0.899314
vt 0.382307 0.821902
vt 0.517661 0.775176
vt 0.382307 0.973904
vt 0.517661 0.775176
vt 0.382307 0.744628
vt 0.382307 0.689677
vt 0.521058 0.841279
vt 0.288359 0.744628
vt 0.288359 0.821902
vt 0.521058 0.728161
vt 0.288359 0.689677
vt 0.288359 0.899314
vt 0.521058 0.95383
vt 0.288359 0.973904
vt 0.0418095 0.744628
vt 0.0418095 0.689677
vt 0.0418095 0.821902
vt 0.0418095 0.899314
vt 0.0418095 0.973904
vt 0.113935 0.689677
vt 0.113935 0.744628
vt 0.0418095 0.744628
vt 0.0418095 0.689677
vt 0.0418095 0.899314
vt 0.113935 0.899314
vt 0.113935 0.973904
vt 0.0418095 0.973904
vt 0.0418095 0.821902
vt 0.113935 0.821902
vt 0.516174 0.498145
vt 0.321961 0.508349
vt 0.321961 0.427284
vt 0.321961 0.354056
vt 0.321961 0.662046
vt 0.321961 0.587392
vt 0.0948491 0.508349
vt 0.0948491 0.427284
vt 0.0948491 0.354056
vt 0.0948491 0.662046
vt 0.0948491 0.587392
vt 0.513351 0.423182
vt 0.321961 0.427284
vt 0.321961 0.508349
vt 0.516174 0.594723
vt 0.321961 0.587392
vt 0.321961 0.662046
vt 0.321961 0.354056
vt 0.0948491 0.427284
vt 0.0948491 0.508349
vt 0.0948491 0.587392
vt 0.0948491 0.662046
vt 0.0948491 0.354056
vt 0.0948491 0.508349
vt 0.0948491 0.508349
vt 0.0948491 0.427284
vt 0.0948491 0.587392
vt 0.0948491 0.587392
vt 0.0948491 0.662046
vt 0.0948491 0.662046
vt 0.0948491 0.427284
vt 0.0948491 0.354056
vt 0.0262125 0.487515
vt 0.513025 0.438171
vt 0.0262125 0.566341
vt 0.513025 0.438171
vt 0.0262125 0.642295
vt 0.0262125 0.408829
vt 0.0262125 0.352875
vt 0.195994 0.408829
vt 0.195994 0.487515
vt 0.512388 0.509878
vt 0.195994 0.352875
vt 0.512388 0.509878
vt 0.195994 0.566341
vt 0.195994 0.642295
vt 0.0262125 0.566341
vt 0.0262125 0.487515
vt 0.0262125 0.642295
vt 0.0262125 0.408829
vt 0.0262125 0.352875
vt 0.690483 0.906195
vt 0.624309 0.901357
vt 0.62187 0.973019
vt 0.692612 0.996349
vt 0.550511 0.880053
vt 0.812654 0.908011
vt 0.764764 0.841914
vt 0.751831 0.907743
vt 0.753976 0.976192
vt 0.69319 0.817548
vt 0.624314 0.84594
vt 0.874571 0.560816
vt 0.799709 0.569651
vt 0.804151 0.618555
vt 0.876424 0.635988
vt 0.72533 0.628077
vt 0.988754 0.593628
vt 0.939002 0.506285
vt 0.93331 0.574332
vt 0.935284 0.639074
vt 0.868757 0.469393
vt 0.794026 0.513317
vt 0.720963 0.434479
vt 0.794122 0.420853
vt 0.77749 0.357204
vt 0.691462 0.339612
vt 0.891697 0.449076
vt 0.609695 0.453858
vt 0.673143 0.523099
vt 0.658732 0.446423
vt 0.637619 0.376397
vt 0.742896 0.526403
vt 0.808537 0.474578


#
# MESH 000
#
g surface_000
usemtl surface_000
f 22/22/22 30/30/30 31/31/31
f 22/22/22 16/16/16 30/30/30
f 16/16/16 34/34/34 30/30/30
f 16/16/16 15/15/15 34/34/34
f 34/34/34 15/15/15 18/18/18
f 34/34/34 18/18/18 33/33/33
f 18/18/18 32/32/32 33/33/33
f 18/18/18 20/20/20 32/32/32
f 21/21/21 16/16/16 22/22/22
f 21/21/21 13/13/13 16/16/16
f 13/13/13 15/15/15 16/16/16
f 13/13/13 14/14/14 15/15/15
f 14/14/14 18/18/18 15/15/15
f 14/14/14 17/17/17 18/18/18
f 17/17/17 20/20/20 18/18/18
f 17/17/17 19/19/19 20/20/20
f 24/24/24 19/19/19 17/17/17
f 23/23/23 13/13/13 21/21/21
f 14/14/14 13/13/13 23/23/23
f 23/23/23 17/17/17 14/14/14
f 28/28/28 29/29/29 8/8/8
f 28/28/28 8/8/8 7/7/7
f 10/10/10 28/28/28 7/7/7
f 10/10/10 27/27/27 28/28/28
f 4/4/4 27/27/27 10/10/10
f 4/4/4 26/26/26 27/27/27
f 25/25/25 26/26/26 4/4/4
f 25/25/25 4/4/4 3/3/3
f 5/5/5 7/7/7 8/8/8
f 5/5/5 6/6/6 7/7/7
f 6/6/6 10/10/10 7/7/7
f 6/6/6 9/9/9 10/10/10
f 9/9/9 4/4/4 10/10/10
f 9/9/9 1/1/1 4/4/4
f 1/1/1 3/3/3 4/4/4
f 1/1/1 2/2/2 3/3/3
f 2/2/2 1/1/1 11/11/11
f 12/12/12 6/6/6 5/5/5
f 12/12/12 9/9/9 6/6/6
f 12/12/12 1/1/1 9/9/9
f 65/65/65 66/66/66 67/67/67
f 57/57/57 58/58/58 59/59/59
f 52/52/52 60/60/60 61/61/61
f 52/52/52 61/61/61 48/48/48
f 51/51/51 52/52/52 48/48/48
f 51/51/51 48/48/48 47/47/47
f 57/57/57 51/51/51 47/47/47
f 57/57/57 47/47/47 50/50/50
f 57/57/57 50/50/50 53/53/53
f 61/61/61 49/49/49 48/48/48
f 47/47/47 48/48/48 49/49/49
f 47/47/47 49/49/49 50/50/50
f 49/49/49 53/53/53 50/50/50
f 49/49/49 54/54/54 53/53/53
f 53/53/53 54/54/54 55/55/55
f 53/53/53 55/55/55 56/56/56
f 61/61/61 64/64/64 49/49/49
f 64/64/64 54/54/54 49/49/49
f 64/64/64 62/62/62 54/54/54
f 54/54/54 62/62/62 63/63/63
f 54/54/54 63/63/63 55/55/55
f 44/44/44 43/43/43 46/46/46
f 41/41/41 43/43/43 44/44/44
f 41/41/41 42/42/42 43/43/43
f 42/42/42 39/39/39 43/43/43
f 45/45/45 43/43/43 39/39/39
f 45/45/45 39/39/39 35/35/35
f 39/39/39 36/36/36 35/35/35
f 35/35/35 36/36/36 37/37/37
f 35/35/35 37/37/37 38/38/38
f 42/42/42 40/40/40 39/39/39
f 39/39/39 40/40/40 36/36/36
f 92/92/92 94/94/94 95/95/95
f 92/92/92 93/93/93 94/94/94
f 93/93/93 71/71/71 94/94/94
f 93/93/93 68/68/68 71/71/71
f 71/71/71 68/68/68 72/72/72
f 96/96/96 93/93/93 92/92/92
f 96/96/96 97/97/97 93/93/93
f 97/97/97 68/68/68 93/93/93
f 97/97/97 69/69/69 68/68/68
f 68/68/68 69/69/69 70/70/70
f 89/89/89 97/97/97 96/96/96
f 73/73/73 97/97/97 89/89/89
f 73/73/73 69/69/69 97/97/97
f 72/72/72 69/69/69 73/73/73
f 73/73/73 74/74/74 72/72/72
f 74/74/74 73/73/73 89/89/89
f 74/74/74 89/89/89 88/88/88
f 88/88/88 89/89/89 90/90/90
f 88/88/88 90/90/90 91/91/91
f 89/89/89 96/96/96 90/90/90
f 83/83/83 79/79/79 84/84/84
f 83/83/83 76/76/76 79/79/79
f 78/78/78 79/79/79 76/76/76
f 85/85/85 76/76/76 83/83/83
f 85/85/85 77/77/77 76/76/76
f 75/75/75 76/76/76 77/77/77
f 75/75/75 77/77/77 80/80/80
f 86/86/86 80/80/80 77/77/77
f 87/87/87 80/80/80 86/86/86
f 87/87/87 82/82/82 80/80/80
f 81/81/81 80/80/80 82/82/82
f 86/86/86 77/77/77 85/85/85
f 128/128/128 129/129/129 106/106/106
f 128/128/128 123/123/123 129/129/129
f 126/126/126 125/125/125 108/108/108
f 126/126/126 127/127/127 125/125/125
f 124/124/124 122/122/122 104/104/104
f 124/124/124 125/125/125 122/122/122
f 121/121/121 123/123/123 105/105/105
f 121/121/121 122/122/122 123/123/123
f 115/115/115 120/120/120 116/116/116
f 115/115/115 116/116/116 110/110/110
f 109/109/109 115/115/115 110/110/110
f 109/109/109 110/110/110 111/111/111
f 116/116/116 111/111/111 110/110/110
f 116/116/116 117/117/117 111/111/111
f 111/111/111 117/117/117 118/118/118
f 111/111/111 118/118/118 113/113/113
f 112/112/112 111/111/111 113/113/113
f 112/112/112 113/113/113 114/114/114
f 113/113/113 119/119/119 114/114/114
f 113/113/113 118/118/118 119/119/119
f 102/102/102 107/107/107 108/108/108
f 102/102/102 108/108/108 103/103/103
f 98/98/98 102/102/102 103/103/103
f 98/98/98 103/103/103 99/99/99
f 98/98/98 99/99/99 100/100/100
f 98/98/98 100/100/100 101/101/101
f 100/100/100 106/106/106 101/101/101
f 100/100/100 105/105/105 106/106/106
f 103/103/103 108/108/108 104/104/104
f 103/103/103 104/104/104 99/99/99
f 99/99/99 104/104/104 105/105/105
f 99/99/99 105/105/105 100/100/100
f 133/133/133 134/134/134 132/132/132
f 130/130/130 131/131/131 132/132/132
f 147/147/147 140/140/140 148/148/148
f 147/147/147 137/137/137 140/140/140
f 140/140/140 137/137/137 141/141/141
f 145/145/145 137/137/137 147/147/147
f 145/145/145 138/138/138 137/137/137
f 137/137/137 138/138/138 139/139/139
f 144/144/144 138/138/138 145/145/145
f 144/144/144 142/142/142 138/138/138
f 141/141/141 138/138/138 142/142/142
f 142/142/142 143/143/143 141/141/141
f 146/146/146 143/143/143 142/142/142
f 146/146/146 142/142/142 144/144/144
f 133/133/133 130/130/130 135/135/135
f 133/133/133 135/135/135 136/136/136
f 153/153/153 150/150/150 159/159/159
f 153/153/153 151/151/151 150/150/150
f 149/149/149 150/150/150 151/151/151
f 149/149/149 159/159/159 150/150/150
f 149/149/149 158/158/158 159/159/159
f 158/158/158 149/149/149 156/156/156
f 158/158/158 156/156/156 155/155/155
f 154/154/154 155/155/155 156/156/156
f 154/154/154 156/156/156 157/157/157
f 152/152/152 157/157/157 156/156/156
f 149/149/149 151/151/151 152/152/152
f 152/152/152 156/156/156 149/149/149
f 176/176/176 178/178/178 179/179/179
f 176/176/176 177/177/177 178/178/178
f 180/180/180 178/178/178 177/177/177
f 180/180/180 171/171/171 178/178/178
f 174/174/174 178/178/178 171/171/171
f 174/174/174 179/179/179 178/178/178
f 180/180/180 172/172/172 171/171/171
f 171/171/171 172/172/172 173/173/173
f 171/171/171 173/173/173 174/174/174
f 180/180/180 181/181/181 172/172/172
f 175/175/175 172/172/172 181/181/181
f 175/175/175 173/173/173 172/172/172
f 165/165/165 167/167/167 168/168/168
f 165/165/165 166/166/166 167/167/167
f 169/169/169 167/167/167 166/166/166
f 169/169/169 160/160/160 167/167/167
f 163/163/163 167/167/167 160/160/160
f 163/163/163 168/168/168 167/167/167
f 169/169/169 161/161/161 160/160/160
f 160/160/160 161/161/161 162/162/162
f 160/160/160 162/162/162 163/163/163
f 169/169/169 170/170/170 161/161/161
f 164/164/164 161/161/161 170/170/170
f 164/164/164 162/162/162 161/161/161

