#
# OBJECT NAME
#
o model_3276
mtllib 3276.mtl

#
# VERTEX BUFFER 000
#
v 0.5 0.25 -0.5
v 0.5 0 -0.5
v 0.25 0.25 -0.5
v 0.25 0.5 -0.5
v 0.5 0.25 -0.5
v 0.25 0.5 -0.5
v 0.25 0.5 0.165148
v 0.5 0.25 0.386864
v 0.5 0 0.386864
v 0.5 0 -0.5
v 0.5 0.25 -0.5
v 0.5 0.25 0.386864
v 0.386862 0.25 0.5
v 0.165147 0.5 0.25
v -0.5 0.5 0.25
v -0.5 0.25 0.5
v -0.5 0.5 0.25
v -0.5 0.25 0.25
v -0.5 0 0.5
v -0.5 0.25 0.5
v 0.25 0.5 -0.5
v 0.25 0.25 -0.5
v -0.5 1 -0.5
v -0.386864 1.13686 -0.5
v 0.25 0.5 -0.5
v -0.386864 1.13686 -0.5
v -0.25 1 -0.278284
v 0.25 0.5 0.165148
v -0.5 1.13686 -0.386862
v -0.5 0.5 0.25
v 0.165147 0.5 0.25
v -0.278284 1 -0.25
v -0.5 1 -0.5
v -0.5 0.25 0.25
v -0.5 0.5 0.25
v -0.5 1.13686 -0.386862
v -0.5 0 0.5
v 0.386862 0 0.5
v 0.386862 0.25 0.5
v -0.5 0.25 0.5
v -0.563225 1.0089 -0.449546
v -0.505885 1.21537 -0.392205
v -0.392206 1.21537 -0.505885
v -0.449547 1.0089 -0.563224
v -0.563225 1.0089 -0.449546
v -0.449547 1.0089 -0.563224
v 0.537445 -0.0413408 0.424565
v 0.424564 -0.0413408 0.537445
v -0.392206 1.21537 -0.505885
v -0.505885 1.21537 -0.392205
v 0.518232 0.193754 0.631114
v 0.631113 0.193754 0.518232
v 0.537445 -0.0413408 0.424565
v -0.449547 1.0089 -0.563224
v -0.392206 1.21537 -0.505885
v 0.631113 0.193754 0.518232
v 0.537445 -0.0413408 0.424565
v 0.631113 0.193754 0.518232
v 0.518232 0.193754 0.631114
v 0.424564 -0.0413408 0.537445
v -0.563225 1.0089 -0.449546
v 0.424564 -0.0413408 0.537445
v 0.518232 0.193754 0.631114
v -0.505885 1.21537 -0.392205
v 0.5 0 -0.5
v 0.5 0 0.386864
v -0.5 0 -0.5
v 0.386862 0 0.5
v -0.5 0 0.5
v -0.5 0 -0.5
v -0.5 0 0.5
v -0.5 1 -0.5
v -0.5 0 -0.5
v -0.5 1 -0.5
v 0.5 0 -0.5

vn 0 0 -1
vn 0 0 -1
vn 0 0 -1
vn 0 0 -1
vn 0.707031 0.707031 0
vn 0.707031 0.707031 0
vn 0.707031 0.707031 0
vn 0.707031 0.707031 0
vn 1 0 0
vn 1 0 0
vn 1 0 0
vn 1 0 0
vn 0 0.707031 0.707031
vn 0 0.707031 0.707031
vn 0 0.707031 0.707031
vn 0 0.707031 0.707031
vn -1 0 0
vn -1 0 0
vn -1 0 0
vn -1 0 0
vn 0 0 -1
vn 0 0 -1
vn 0 0 -1
vn 0 0 -1
vn 0.707031 0.707031 0
vn 0.707031 0.707031 0
vn 0.707031 0.707031 0
vn 0.707031 0.707031 0
vn 0 0.707031 0.707031
vn 0 0.707031 0.707031
vn 0 0.707031 0.707031
vn 0 0.707031 0.707031
vn -1 0 0
vn -1 0 0
vn -1 0 0
vn -1 0 0
vn 0 0 1
vn 0 0 1
vn 0 0 1
vn 0 0 1
vn -0.657715 0.365479 -0.657715
vn -0.657715 0.365479 -0.657715
vn -0.657715 0.365479 -0.657715
vn -0.657715 0.365479 -0.657715
vn -0.424805 -0.798828 -0.424805
vn -0.424805 -0.798828 -0.424805
vn -0.424805 -0.798828 -0.424805
vn -0.424805 -0.798828 -0.424805
vn 0.407471 0.816895 0.407471
vn 0.407471 0.816895 0.407471
vn 0.407471 0.816895 0.407471
vn 0.407471 0.816895 0.407471
vn 0.707031 -0.000143528 -0.706543
vn 0.707031 -0.000143528 -0.706543
vn 0.707031 -0.000143528 -0.706543
vn 0.707031 -0.000143528 -0.706543
vn 0.615723 -0.490723 0.615723
vn 0.615723 -0.490723 0.615723
vn 0.615723 -0.490723 0.615723
vn 0.615723 -0.490723 0.615723
vn -0.706543 -0.000143409 0.707031
vn -0.706543 -0.000143409 0.707031
vn -0.706543 -0.000143409 0.707031
vn -0.706543 -0.000143409 0.707031
vn 0 -1 0
vn 0 -1 0
vn 0 -1 0
vn 0 -1 0
vn 0 -1 0
vn -1 0 0
vn -1 0 0
vn -1 0 0
vn 0 0 -1
vn 0 0 -1
vn 0 0 -1

vt 0.458192 0.610077
vt 0.577963 0.610077
vt 0.577963 0.801707
vt 0.458192 0.801707
vt 0.556834 0.610077
vt 0.556834 0.801274
vt 0.291348 0.801274
vt 0.206949 0.610077
vt 0.206982 0.610077
vt 0.556834 0.610077
vt 0.556834 0.801274
vt 0.206982 0.801274
vt 0.206949 0.610077
vt 0.291348 0.801274
vt 0.556834 0.801274
vt 0.556834 0.610077
vt 0.577963 0.801707
vt 0.458192 0.801707
vt 0.458192 0.610077
vt 0.577963 0.610077
vt 0.458192 0.403371
vt 0.577963 0.403371
vt 0.577963 0.981174
vt 0.458192 0.896631
vt 0.556834 0.403371
vt 0.556834 0.896631
vt 0.457859 0.79051
vt 0.277605 0.403371
vt 0.556834 0.896631
vt 0.556834 0.403371
vt 0.277605 0.403371
vt 0.457859 0.79051
vt 0.577963 0.981174
vt 0.577963 0.403371
vt 0.458192 0.403371
vt 0.458192 0.896631
vt 0.556834 0.610077
vt 0.206982 0.610077
vt 0.206982 0.801274
vt 0.556834 0.801274
vt 0.141856 0.0243268
vt 0.142024 0.155013
vt 0.0540041 0.155013
vt 0.0541724 0.024327
vt 0.686358 0.961968
vt 0.618135 0.961968
vt 0.618135 0.270619
vt 0.686358 0.270619
vt 0.876219 0.993024
vt 0.810789 0.993024
vt 0.810789 0.306115
vt 0.876219 0.306115
vt 0.965087 0.277729
vt 0.985252 0.968087
vt 0.894127 0.987436
vt 0.894127 0.308691
vt 0.140414 0.0257115
vt 0.140414 0.153474
vt 0.055614 0.153474
vt 0.055614 0.0257115
vt 0.704503 0.966367
vt 0.704503 0.277138
vt 0.792312 0.308107
vt 0.792312 0.987436
vt 0.983779 0.252993
vt 0.983779 0.0432451
vt 0.747274 0.252993
vt 0.957022 0.0182362
vt 0.747274 0.0182362
vt 0.597947 0.00831485
vt 0.216081 0.00831485
vt 0.597947 0.390182
vt 0.597947 0.00831485
vt 0.597947 0.390182
vt 0.216081 0.00831485


#
# MESH 000
#
g surface_000
usemtl surface_000
f 37/37/37 39/39/39 40/40/40
f 37/37/37 38/38/38 39/39/39
f 33/33/33 35/35/35 36/36/36
f 33/33/33 34/34/34 35/35/35
f 29/29/29 31/31/31 32/32/32
f 29/29/29 30/30/30 31/31/31
f 25/25/25 27/27/27 28/28/28
f 25/25/25 26/26/26 27/27/27
f 21/21/21 23/23/23 24/24/24
f 21/21/21 22/22/22 23/23/23
f 17/17/17 19/19/19 20/20/20
f 17/17/17 18/18/18 19/19/19
f 13/13/13 15/15/15 16/16/16
f 13/13/13 14/14/14 15/15/15
f 9/9/9 11/11/11 12/12/12
f 9/9/9 10/10/10 11/11/11
f 5/5/5 7/7/7 8/8/8
f 5/5/5 6/6/6 7/7/7
f 1/1/1 3/3/3 4/4/4
f 1/1/1 2/2/2 3/3/3
f 61/61/61 63/63/63 64/64/64
f 61/61/61 62/62/62 63/63/63
f 57/57/57 59/59/59 60/60/60
f 57/57/57 58/58/58 59/59/59
f 53/53/53 55/55/55 56/56/56
f 53/53/53 54/54/54 55/55/55
f 49/49/49 51/51/51 52/52/52
f 49/49/49 50/50/50 51/51/51
f 45/45/45 47/47/47 48/48/48
f 45/45/45 46/46/46 47/47/47
f 41/41/41 43/43/43 44/44/44
f 41/41/41 42/42/42 43/43/43
f 73/73/73 74/74/74 75/75/75
f 70/70/70 71/71/71 72/72/72
f 69/69/69 67/67/67 68/68/68
f 68/68/68 67/67/67 66/66/66
f 65/65/65 66/66/66 67/67/67

