#
# OBJECT NAME
#
o model_3285
mtllib 3285.mtl

#
# VERTEX BUFFER 000
#
v 0 0.863212 -0.494444
v -0.206778 0.66703 -0.494444
v -0.206778 0.66703 0.494444
v 0 0.863212 0.494444
v 0.206778 0.66703 -0.494444
v 0 0.863212 -0.494444
v 0 0.863212 0.494444
v 0.206778 0.66703 0.494444
v 0.206778 0.66703 -0.494444
v -0.206778 0.66703 -0.494444
v 0 0.863212 -0.494444
v -0.206778 0.66703 -0.494444
v 0.206778 0.66703 -0.494444
v 0.206778 0.66703 0.494444
v -0.206778 0.66703 0.494444
v 0 0.863212 0.494444
v -0.206778 0.66703 0.494444
v 0.206778 0.66703 0.494444
v -0.5 0.25 0.5
v -0.5 0.25 -0.5
v -0.5 0 -0.5
v -0.5 0 0.5
v -0.5 0.25 -0.5
v 0 0.788216 -0.5
v 0 0.538216 -0.5
v -0.5 0 -0.5
v -0.5 0.25 0.5
v 0 0.788216 0.5
v 0 0.788216 -0.5
v -0.5 0.25 -0.5
v -0.5 0 0.5
v 0 0.538216 0.5
v 0 0.788216 0.5
v -0.5 0.25 0.5
v 0.5 0.25 0.5
v 0.5 0 0.5
v 0.5 0 -0.5
v 0.5 0.25 -0.5
v 0 0.538216 0.5
v 0.5 0 0.5
v 0.5 0.25 0.5
v 0 0.788216 0.5
v 0.5 0.25 0.5
v 0.5 0.25 -0.5
v 0 0.788216 -0.5
v 0 0.788216 0.5
v 0.5 0.25 -0.5
v 0.5 0 -0.5
v 0 0.538216 -0.5
v 0 0.788216 -0.5
v 0.5 0 -0.5
v 0.5 0 0.5
v -0.5 0 0.5
v -0.5 0 -0.5
v -0.5 0 -0.5
v -0.311335 0.203085 -0.5
v 0.311335 0.203085 -0.5
v 0.5 0 -0.5
v -0.311335 0.203085 -0.5
v 0 0.538216 -0.5
v 0.311335 0.203085 -0.5
v -0.311335 0.203085 0.5
v 0.311335 0.203085 0.5
v 0 0.538216 0.5
v -0.5 0 0.5
v 0.5 0 0.5
v 0.311335 0.203085 0.5
v -0.311335 0.203085 0.5

vn 0 1 0
vn -0.687988 0.725098 0
vn -0.687988 0.725098 0
vn 0 1 0
vn 0.687988 0.725098 0
vn 0 1 0
vn 0 1 0
vn 0.687988 0.725098 0
vn 0 0 -1
vn 0 0 -1
vn 0 0 -1
vn 0 -1 0
vn 0 -1 0
vn 0 -1 0
vn 0 -1 0
vn 0 0 1
vn 0 0 1
vn 0 0 1
vn -1 0 0
vn -1 0 0
vn -1 0 0
vn -1 0 0
vn 0 0 -1
vn 0 0 -1
vn 0 0 -1
vn 0 0 -1
vn -0.732422 0.680176 0
vn -0.732422 0.680176 0
vn -0.732422 0.680176 0
vn -0.732422 0.680176 0
vn 0 0 1
vn 0 0 1
vn 0 0 1
vn 0 0 1
vn 1 0 0
vn 1 0 0
vn 1 0 0
vn 1 0 0
vn 0 0 1
vn 0 0 1
vn 0 0 1
vn 0 0 1
vn 0.732422 0.680176 0
vn 0.732422 0.680176 0
vn 0.732422 0.680176 0
vn 0.732422 0.680176 0
vn 0 0 -1
vn 0 0 -1
vn 0 0 -1
vn 0 0 -1
vn 0 -1 0
vn 0 -1 0
vn 0 -1 0
vn 0 -1 0
vn 0 0 -1
vn 0 0 -1
vn 0 0 -1
vn 0 0 -1
vn 0 0 -1
vn 0 0 -1
vn 0 0 -1
vn 0 2.98023e-007 1
vn 0 2.98023e-007 1
vn 0 2.98023e-007 1
vn 0 0 1
vn 0 0 1
vn 0 0 1
vn 0 0 1

vt 0.787892 0.496841
vt 0.982977 0.496743
vt 0.982977 0.987101
vt 0.787892 0.987001
vt 0.603224 0.496743
vt 0.798308 0.496841
vt 0.798309 0.987001
vt 0.603224 0.987101
vt 0.204083 0.0432218
vt 0.42714 0.0425964
vt 0.315221 0.150565
vt 0.502345 0.011948
vt 0.460411 0.011948
vt 0.460411 0.502836
vt 0.502345 0.502836
vt 0.315221 0.150565
vt 0.204083 0.0432218
vt 0.42714 0.0425964
vt 0.432394 0.585961
vt 0.0115174 0.585961
vt 0.0115174 0.462814
vt 0.432394 0.462814
vt 0.577962 0.612049
vt 0.577962 0.985844
vt 0.458192 0.985844
vt 0.458192 0.612049
vt 0.432394 0.611516
vt 0.432394 0.985844
vt 0.0115174 0.985844
vt 0.0115174 0.611516
vt 0.577962 0.612049
vt 0.577962 0.985844
vt 0.458192 0.985844
vt 0.458192 0.612049
vt 0.432394 0.585961
vt 0.432394 0.462814
vt 0.0115174 0.462814
vt 0.0115174 0.585961
vt 0.577962 0.985844
vt 0.577962 0.612049
vt 0.458192 0.612049
vt 0.458192 0.985844
vt 0.432394 0.611516
vt 0.0115174 0.611516
vt 0.0115174 0.985844
vt 0.432394 0.985844
vt 0.577962 0.612049
vt 0.458192 0.612049
vt 0.458192 0.985844
vt 0.577962 0.985844
vt 0.987204 0.472261
vt 0.987204 0.0113209
vt 0.526264 0.0113209
vt 0.526264 0.472261
vt 0.417478 0.313556
vt 0.352446 0.376502
vt 0.0892003 0.376503
vt 0.0264127 0.313556
vt 0.40247 0.185761
vt 0.32262 0.269629
vt 0.243014 0.18576
vt 0.40247 0.185761
vt 0.243014 0.18576
vt 0.32262 0.269629
vt 0.417478 0.313556
vt 0.0264127 0.313556
vt 0.0892003 0.376503
vt 0.352446 0.376502


#
# MESH 000
#
g surface_000
usemtl surface_000
f 16/16/16 17/17/17 18/18/18
f 9/9/9 10/10/10 11/11/11
f 12/12/12 14/14/14 15/15/15
f 12/12/12 13/13/13 14/14/14
f 5/5/5 7/7/7 8/8/8
f 5/5/5 6/6/6 7/7/7
f 1/1/1 3/3/3 4/4/4
f 1/1/1 2/2/2 3/3/3
f 47/47/47 49/49/49 50/50/50
f 47/47/47 48/48/48 49/49/49
f 43/43/43 45/45/45 46/46/46
f 43/43/43 44/44/44 45/45/45
f 39/39/39 41/41/41 42/42/42
f 39/39/39 40/40/40 41/41/41
f 35/35/35 37/37/37 38/38/38
f 35/35/35 36/36/36 37/37/37
f 31/31/31 33/33/33 34/34/34
f 31/31/31 32/32/32 33/33/33
f 27/27/27 29/29/29 30/30/30
f 27/27/27 28/28/28 29/29/29
f 23/23/23 25/25/25 26/26/26
f 23/23/23 24/24/24 25/25/25
f 19/19/19 21/21/21 22/22/22
f 19/19/19 20/20/20 21/21/21
f 51/51/51 53/53/53 54/54/54
f 51/51/51 52/52/52 53/53/53
f 55/55/55 57/57/57 58/58/58
f 55/55/55 56/56/56 57/57/57
f 59/59/59 60/60/60 61/61/61
f 62/62/62 63/63/63 64/64/64
f 65/65/65 67/67/67 68/68/68
f 65/65/65 66/66/66 67/67/67

