#
# OBJECT NAME
#
o model_4815
mtllib 4815.mtl

#
# VERTEX BUFFER 000
#
v 0.184327 1.02745 -0.225486
v -0.106096 0.94355 -0.22311
v 0.0294675 0.836516 -0.2311
v 0.118846 0.854293 -0.231653
v -0.106703 0.728761 -0.179585
v -0.0680332 0.530692 -0.0923421
v 0.00609628 0.708292 -0.183186
v -0.106321 0.943047 -0.225111
v 0.184102 1.02695 -0.227487
v 0.118548 0.853625 -0.234308
v 0.0291694 0.835848 -0.233755
v -0.0682578 0.530189 -0.0943434
v -0.106927 0.728258 -0.181586
v 0.00587164 0.707788 -0.185187
v 0.118548 0.853625 -0.23431
v 0.0291693 0.835848 -0.233757
v 0.0588345 0.484037 -0.0229545
v 0.0380193 0.225643 0.0207453
v -0.0676874 0.167079 0.0311981
v 0.200347 0.414489 -0.101351
v 0.14761 0.54016 -0.136187
v 0.017112 0.144143 0.0365356
v -0.0682578 0.530189 -0.0943434
v -0.0357005 0.409329 -0.0965352
v 0.0380193 0.225643 0.0207453
v 0.0249272 0.184506 -0.0457051
v 0.017112 0.144143 0.0365356
v 0.0433529 0.44137 -0.185922
v -0.0682578 0.530189 -0.0943434
v 0.0291693 0.835848 -0.233757
v 0.118548 0.853625 -0.23431
v -0.0676874 0.167079 0.0311981
v 0.0249272 0.184506 -0.0457051
v 0.0249272 0.184506 -0.0457051
v 0.0380193 0.225643 0.0207453
v -0.0676874 0.167079 0.0311981
v 0.200347 0.414489 -0.101351
v 0.14761 0.54016 -0.136187
v -0.0357005 0.409329 -0.0965352
v 0.017112 0.144143 0.0365356
v 0.096987 0.942497 -0.269964
v 0.0877085 0.930228 -0.300146
v -0.031977 -0.008424 0.0633515
v -0.02247 0.001223 0.094164
v 0.000784 -0.006835 0.074986
v -0.031977 -0.008424 0.0633515
v 0.0877085 0.930228 -0.300146
v 0.119941 0.93241 -0.288361
v 0.000784 -0.006835 0.074986
v 0.119941 0.93241 -0.288361
v 0.096987 0.942497 -0.269964
v -0.02247 0.001223 0.094164
v 0.000784 -0.006835 0.074986
v -0.02247 0.001223 0.094164
v -0.031977 -0.008424 0.0633515
v 0.096987 0.942497 -0.269964
v 0.119941 0.93241 -0.288361
v 0.0877085 0.930228 -0.300146

vn 0.0198669 -0.0454712 0.998535
vn 0.0198669 -0.0454712 0.998535
vn 0.0198669 -0.0454712 0.998535
vn 0.0198669 -0.0454712 0.998535
vn 0.104614 0.417725 0.902344
vn 0.104614 0.417725 0.902344
vn 0.104614 0.417725 0.902344
vn -0.0210266 0.0498047 -0.998535
vn -0.0210266 0.0498047 -0.998535
vn -0.0210266 0.0498047 -0.998535
vn -0.0210266 0.0498047 -0.998535
vn -0.104614 -0.417725 -0.902344
vn -0.104614 -0.417725 -0.902344
vn -0.104614 -0.417725 -0.902344
vn 0.0866699 0.483887 0.870605
vn -0.143066 0.499756 0.854004
vn 0.0869141 0.341309 0.935547
vn 0.279297 0.0480347 0.958496
vn -0.947754 -0.250488 0.195435
vn 0.960449 -0.244019 -0.132935
vn 0.666504 0.311523 0.676758
vn 0.730469 -0.682129 -0.0125809
vn -0.961914 0.245361 0.119263
vn -0.999023 0.0290833 -0.0128479
vn 0.279297 0.0480347 0.958496
vn 0.0950317 -0.682617 -0.724121
vn 0.730469 -0.682129 -0.0125809
vn -0.0957031 -0.30127 -0.948242
vn -0.961914 0.245361 0.119263
vn -0.201538 -0.125 -0.971191
vn 0.162354 -0.144165 -0.976074
vn -0.947754 -0.250488 0.195435
vn 0.0950317 -0.682617 -0.724121
vn 0.0950317 -0.682617 -0.724121
vn 0.279297 0.0480347 0.958496
vn -0.947754 -0.250488 0.195435
vn 0.960449 -0.244019 -0.132935
vn 0.546387 -0.163452 -0.820801
vn -0.999023 0.0290833 -0.0128479
vn 0.730469 -0.682129 -0.0125809
vn -0.733398 0.324219 0.59668
vn -0.733398 0.324219 0.59668
vn -0.733398 0.324219 0.59668
vn -0.733398 0.324219 0.59668
vn 0.703613 -0.33252 -0.627441
vn 0.703613 -0.33252 -0.627441
vn 0.703613 -0.33252 -0.627441
vn 0.703613 -0.33252 -0.627441
vn 0.663574 0.195068 0.72168
vn 0.663574 0.195068 0.72168
vn 0.663574 0.195068 0.72168
vn 0.663574 0.195068 0.72168
vn -0.0675659 -0.946289 0.315674
vn -0.0653687 -0.946289 0.315674
vn -0.0653687 -0.946289 0.315674
vn 0.0823364 0.914063 -0.39624
vn 0.0841064 0.914063 -0.39624
vn 0.0823364 0.914063 -0.39624

vt 0.999618 0.585702
vt 0.999618 0.887714
vt 0.848118 0.799688
vt 0.853722 0.693951
vt 0.779137 0.815676
vt 0.6331 0.996759
vt 0.939068 0.996759
vt 0.999618 0.887714
vt 0.999618 0.585702
vt 0.853722 0.693951
vt 0.848118 0.799688
vt 0.658991 0.996759
vt 0.800096 0.809512
vt 0.939068 0.996759
vt 0.853722 0.693951
vt 0.848118 0.799688
vt 0.384508 0.734007
vt 0.110793 0.680245
vt 0.020022 0.730214
vt 0.398309 0.556575
vt 0.529752 0.596225
vt 0.039244 0.660902
vt 0.447003 0.906471
vt 0.322012 0.88982
vt 0.096462 0.912278
vt 0.096462 0.991761
vt 0.164829 0.936789
vt 0.384508 0.734007
vt 0.447003 0.906471
vt 0.848118 0.799688
vt 0.853722 0.693951
vt 0.019826 0.765189
vt 0.110793 0.680245
vt 0.096462 0.991761
vt 0.096462 0.912278
vt 0.004489 0.936789
vt 0.398309 0.556575
vt 0.529752 0.596225
vt 0.322012 0.88982
vt 0.039244 0.660902
vt 0.967669 0.133623
vt 0.967669 0.219405
vt 0.00965 0.219405
vt 0.00965 0.133623
vt 0.009651 0.31466
vt 0.00965 0.219405
vt 0.967669 0.219405
vt 0.967671 0.31466
vt 0.009651 0.31466
vt 0.967671 0.31466
vt 0.967669 0.369183
vt 0.00965 0.369183
vt 0.021243 0.255055
vt 0.045596 0.287141
vt 0.065736 0.248644
vt 0.959211 0.313511
vt 0.932889 0.278632
vt 0.980639 0.271016


#
# MESH 000
#
g surface_000
usemtl surface_000
f 5/5/5 6/6/6 7/7/7
f 1/1/1 3/3/3 4/4/4
f 1/1/1 2/2/2 3/3/3
f 12/12/12 13/13/13 14/14/14
f 8/8/8 10/10/10 11/11/11
f 8/8/8 9/9/9 10/10/10
f 34/34/34 35/35/35 36/36/36
f 25/25/25 26/26/26 27/27/27
f 33/33/33 37/37/37 40/40/40
f 33/33/33 28/28/28 37/37/37
f 37/37/37 28/28/28 38/38/38
f 38/38/38 28/28/28 31/31/31
f 28/28/28 30/30/30 31/31/31
f 28/28/28 29/29/29 30/30/30
f 29/29/29 28/28/28 39/39/39
f 32/32/32 39/39/39 28/28/28
f 32/32/32 28/28/28 33/33/33
f 20/20/20 18/18/18 22/22/22
f 20/20/20 17/17/17 18/18/18
f 18/18/18 17/17/17 19/19/19
f 19/19/19 17/17/17 24/24/24
f 17/17/17 23/23/23 24/24/24
f 17/17/17 16/16/16 23/23/23
f 15/15/15 16/16/16 17/17/17
f 17/17/17 21/21/21 15/15/15
f 20/20/20 21/21/21 17/17/17
f 56/56/56 57/57/57 58/58/58
f 53/53/53 54/54/54 55/55/55
f 49/49/49 51/51/51 52/52/52
f 49/49/49 50/50/50 51/51/51
f 45/45/45 47/47/47 48/48/48
f 45/45/45 46/46/46 47/47/47
f 41/41/41 43/43/43 44/44/44
f 41/41/41 42/42/42 43/43/43

