#
# OBJECT NAME
#
o model_1119
mtllib 1119.mtl

#
# VERTEX BUFFER 000
#
v -0.0243286 0.0894413 -0.0369108
v -0.0912312 0.0825541 -0.0199866
v -0.045026 0.103124 0.0289381
v -0.110526 0.0844336 0.0466018
v -0.062919 0.0932002 0.096266
v 0.00398364 0.100087 0.0793418
v 0.0232788 0.0982079 0.0127533
v -0.0912312 0.0825541 -0.0199866
v -0.0950589 0.0451699 -0.0268891
v -0.118192 0.0474229 0.0529435
v -0.110526 0.0844336 0.0466018
v -0.0243286 0.0894413 -0.0369108
v -0.0148486 0.053427 -0.0471798
v 0.0232788 0.0982079 0.0127533
v 0.0422283 0.0639378 0.0123622
v 0.00398364 0.100087 0.0793418
v 0.0190947 0.0661909 0.0921948
v -0.041127 0.0187135 0.0309943
v -0.0950589 0.0451699 -0.0268891
v -0.0148486 0.053427 -0.0471798
v 0.0190947 0.0661909 0.0921948
v -0.0611156 0.0579338 0.112485
v 0.0422283 0.0639378 0.0123622
v -0.118192 0.0474229 0.0529435
v -0.062919 0.0932002 0.096266
v -0.0611156 0.0579338 0.112485
v 0.181711 0.148701 -0.0970413
v 0.222122 0.135067 0.0779947
v 0.278836 0.220711 0.083485
v -0.0082751 0.0172348 -0.132939
v -0.0382991 -0.0102033 0.0314598
v -0.0574891 0.019539 0.178027
v 0.122288 0.148487 0.210639
v -0.041127 0.00686106 0.0309943
v -0.111847 0.0978074 0.217206
v 0.0155623 0.0654515 0.169821
v 0.0404953 0.150256 0.230106
v -0.0869136 0.182612 0.27749
v 0.0467337 0.275101 0.252533
v 0.150995 0.237658 0.158372
v 0.120601 0.134338 0.088919
v -0.041127 0.00686106 0.0309943
v -0.174661 0.0109699 -0.0320535
v -0.239054 0.0699497 0.0543577
v -0.136159 0.0749656 0.161758
v 0.054479 0.0403222 0.0598902
v -0.0190213 0.0976247 0.19525
v -0.206048 0.214826 0.213263
v -0.288627 0.20137 0.0993851
v -0.17342 0.357831 0.167537
v -0.0627756 0.230531 0.255547
v -0.041127 0.00686103 0.0309943
v -0.047495 0.0287887 -0.101789
v -0.115992 0.109085 -0.104157
v -0.202337 0.064318 0.0152668
v -0.063917 0.0297756 0.0677844
v -0.201938 0.130678 0.148301
v -0.260431 0.237758 -0.0281191
v -0.200606 0.258296 -0.157449
v -0.280381 0.383585 -0.0816843
v -0.270638 0.286513 0.101676
v -0.041127 0.0123182 0.0309943
v 0.0811771 0.0555938 -0.0252956
v 0.0525726 0.10804 -0.0763659
v -0.0788926 0.0510014 -0.0914837
v -0.0873299 0.0153252 0.0230678
v -0.214075 0.0839448 -0.0478107
v -0.0980638 0.213925 -0.16022
v 0.0346642 0.256607 -0.145575
v -0.100718 0.329332 -0.132266
v -0.2298 0.224663 -0.111263
v -0.234736 0.0627668 0.189434
v -0.332536 0.0610977 -0.00407158
v -0.312081 0.192529 0.25889
v -0.0814526 0.087387 0.30097
v 0.0520645 0.0342801 0.19991
v -0.0416699 -0.0218945 0.0328561
v -0.14577 -0.0119297 -0.14679
v -0.0866161 0.0312093 -0.101538
v -0.041208 -0.0085125 0.0305972
v 0.137037 0.147079 -0.0196931
v 0.0508718 0.128634 -0.130284
v -0.014571 0.0830607 0.166539
v 0.123481 0.178847 0.131753
v 0.135084 0.345786 -0.0424422
v 0.128564 0.0770209 -0.152833
v 0.23613 0.108243 0.0296992
v 0.195498 0.206784 -0.232371
v 0.00895601 0.144005 -0.278033
v -0.159095 0.0443811 -0.124045
v -0.0403259 -0.00313124 0.0292627
v 0.0872253 0.00232455 0.192497
v 0.128556 0.166486 0.26966
v -0.027417 0.0686194 0.237023
v -0.027917 0.23157 0.359514
v 0.116664 0.0549609 0.126108
v -0.207915 0.0467536 0.156069
v -0.200784 0.195364 0.290629
v -0.041127 0.00686103 0.0309943
v 0.00806189 0.0472718 -0.0924774
v -0.201564 0.0764715 -0.184377
v -0.289348 0.0415159 -0.0428749
v -0.041127 0.00686106 0.0309943
v -0.346989 0.102682 0.107809
v -0.102316 0.0643966 0.151274
v -0.424101 0.146965 -0.105465
v -0.12435 0.0718961 -0.188687
v 0.0327125 0.137395 -0.211538
v -0.176073 0.221366 -0.285478
v -0.273598 0.0972885 -0.113046
v -0.234384 0.0578513 -0.0223051
v -0.041127 0.00686097 0.0309943
v 0.111201 0.0491118 -0.0235221

vn 0.131836 0.608398 -0.782227
vn -0.611816 0.519043 -0.596191
vn -0.117676 0.990723 -0.0620728
vn -0.826172 0.543457 0.145508
vn -0.296387 0.65625 0.693359
vn 0.439941 0.744141 0.501953
vn 0.653809 0.720215 -0.230713
vn -0.611816 0.519043 -0.596191
vn -0.593262 -0.472412 -0.651367
vn -0.850586 -0.453369 0.264893
vn -0.826172 0.543457 0.145508
vn 0.131836 0.608398 -0.782227
vn 0.323486 -0.403564 -0.855469
vn 0.653809 0.720215 -0.230713
vn 0.929688 -0.31958 -0.182007
vn 0.439941 0.744141 0.501953
vn 0.676758 -0.302246 0.670898
vn 0.0999756 -0.993164 0.0527344
vn -0.593262 -0.472412 -0.651367
vn 0.323486 -0.403564 -0.855469
vn 0.676758 -0.302246 0.670898
vn -0.187134 -0.366943 0.911133
vn 0.929688 -0.31958 -0.182007
vn -0.850586 -0.453369 0.264893
vn -0.296387 0.65625 0.693359
vn -0.187134 -0.366943 0.911133
vn -0.551758 0.824219 0.123779
vn -0.586914 0.802246 -0.106079
vn -0.822266 0.552734 -0.132446
vn -0.535156 0.835938 0.117554
vn -0.512695 0.854004 -0.086731
vn -0.457764 0.828125 -0.322998
vn -0.471436 0.814941 -0.336914
vn -0.312012 0.914063 -0.258301
vn -0.0849609 0.701172 -0.707031
vn -0.397217 0.769043 -0.500488
vn -0.490723 0.493408 -0.717773
vn -0.186035 0.50293 -0.84375
vn -0.492676 0.177612 -0.851563
vn -0.704102 0.442383 -0.554688
vn -0.697266 0.607422 -0.380127
vn 0.0699463 0.904785 -0.419678
vn 0.247192 0.904297 -0.347656
vn 0.462158 0.742188 -0.484863
vn 0.294189 0.70752 -0.64209
vn -0.0928345 0.876465 -0.471924
vn 0.0539246 0.693848 -0.717773
vn 0.541504 0.217407 -0.811523
vn 0.712891 0.351318 -0.606445
vn 0.541504 -0.365479 -0.756836
vn 0.228394 0.2771 -0.933105
vn 0.454346 0.88623 0.0854492
vn 0.458496 0.812012 0.360107
vn 0.620117 0.62207 0.477783
vn 0.748535 0.650391 0.126953
vn 0.36084 0.84375 -0.395996
vn 0.858398 0.477539 -0.186768
vn 0.896973 0.376221 0.230957
vn 0.740723 0.428955 0.516602
vn 0.939941 0.223022 0.25708
vn 0.951172 0.29541 -0.0841064
vn -0.0545654 0.88916 0.453369
vn -0.239136 0.818848 0.521484
vn -0.25 0.554688 0.792969
vn 0.0411072 0.623535 0.780273
vn 0.242554 0.920898 0.304688
vn 0.352295 0.519531 0.777832
vn 0.0774536 0.276611 0.95752
vn -0.213013 0.280273 0.935547
vn 0.145752 -0.229614 0.961914
vn 0.362305 0.322998 0.874023
vn 0.332275 0.881836 -0.333252
vn 0.334717 0.928223 -0.15979
vn 0.572754 0.625 -0.529785
vn 0.145874 0.899902 -0.4104
vn 0.105164 0.925781 -0.361816
vn 0.220825 0.949219 -0.222778
vn 0.287598 0.947754 -0.134521
vn -0.528809 0.770508 0.354248
vn -0.618652 0.78418 0.0400391
vn -0.822754 0.558594 0.101929
vn -0.608398 0.670898 0.422852
vn -0.64209 0.714355 -0.277344
vn -0.763672 0.594238 -0.251709
vn -0.971191 0.0175934 0.237061
vn -0.311035 0.880371 0.357666
vn -0.414307 0.892578 0.175659
vn -0.57666 0.621582 0.529297
vn -0.111267 0.874023 0.472656
vn -0.0602112 0.903809 0.423096
vn -0.244507 0.930176 0.272705
vn -0.369385 0.916016 0.153931
vn -0.276123 0.669922 -0.688477
vn -0.0297699 0.800293 -0.598633
vn 0.0210571 0.600586 -0.798828
vn -0.230103 0.883301 -0.407715
vn 0.138306 0.833984 -0.533691
vn 0.217773 0.617188 -0.755371
vn -0.0488281 0.95752 -0.283691
vn 0.0294189 0.957031 0.287354
vn 0.0952759 0.942383 0.31958
vn 0.260498 0.964844 0.0180206
vn 0.121033 0.992188 0.00582886
vn 0.30542 0.913086 -0.268311
vn 0.211426 0.925781 -0.312744
vn 0.549805 0.813477 0.186646
vn 0.0420837 0.862793 0.50293
vn -0.189453 0.841309 0.505859
vn 0.179688 0.577637 0.795898
vn 0.287109 0.892578 0.346924
vn 0.226074 0.946289 0.22937
vn -0.0753174 0.926758 0.366943
vn -0.204956 0.88623 0.414551

vt 0.627265 0.201759
vt 0.734905 0.201759
vt 0.680576 0.379016
vt 0.789541 0.379016
vt 0.734905 0.556272
vt 0.627265 0.556272
vt 0.572166 0.379016
vt 0.734994 0.201106
vt 0.770376 0.129112
vt 0.835386 0.404006
vt 0.789698 0.379016
vt 0.627303 0.201106
vt 0.616795 0.104121
vt 0.572073 0.379016
vt 0.527814 0.354025
vt 0.627303 0.556925
vt 0.594695 0.62892
vt 0.896095 0.779577
vt 0.944227 0.924156
vt 0.845118 0.940128
vt 0.830873 0.605336
vt 0.929981 0.589282
vt 0.788447 0.780754
vt 0.986664 0.748689
vt 0.734994 0.556925
vt 0.748544 0.65391
vt 0.0938928 0.639322
vt 0.236696 0.639322
vt 0.236696 0.925631
vt 0.0938928 0.162142
vt 0.236696 0.162142
vt 0.379498 0.162142
vt 0.379498 0.639322
vt 0.24135 0.156859
vt 0.378188 0.546018
vt 0.24474 0.498904
vt 0.243954 0.729777
vt 0.377477 0.759018
vt 0.241738 0.928393
vt 0.105281 0.755706
vt 0.10597 0.515036
vt 0.25945 0.138722
vt 0.359483 0.148589
vt 0.401028 0.444231
vt 0.261639 0.443984
vt 0.140252 0.143014
vt 0.110246 0.452927
vt 0.250161 0.736499
vt 0.388982 0.727502
vt 0.237536 0.973893
vt 0.102732 0.747367
vt 0.243099 0.126056
vt 0.383503 0.19767
vt 0.369979 0.43978
vt 0.228037 0.461151
vt 0.160675 0.193921
vt 0.0937235 0.514816
vt 0.233058 0.721775
vt 0.383638 0.707907
vt 0.242864 1.0495
vt 0.0798165 0.787506
vt 0.226822 0.141984
vt 0.41112 0.19767
vt 0.377053 0.43978
vt 0.233429 0.461151
vt 0.171183 0.195691
vt 0.0763691 0.514816
vt 0.245457 0.788823
vt 0.404737 0.773653
vt 0.229554 0.9993
vt 0.0761911 0.829517
vt 0.250422 0.516539
vt 0.426611 0.452219
vt 0.238467 0.942039
vt 0.100172 0.571946
vt 0.0851362 0.209761
vt 0.257308 0.146632
vt 0.42948 0.0835025
vt 0.0862185 0.162142
vt 0.23733 0.162142
vt 0.236876 0.653685
vt 0.0747669 0.633827
vt 0.388441 0.162142
vt 0.403478 0.6326
vt 0.23995 1.01919
vt 0.251091 0.440482
vt 0.426611 0.452219
vt 0.238467 0.942039
vt 0.100172 0.571946
vt 0.0851362 0.209761
vt 0.257308 0.146632
vt 0.42948 0.0835025
vt 0.105907 0.734758
vt 0.248398 0.543886
vt 0.248398 0.925631
vt 0.105907 0.353014
vt 0.390889 0.353014
vt 0.390889 0.734758
vt 0.248398 0.162142
vt 0.394697 0.0963726
vt 0.382628 0.612654
vt 0.242332 0.642049
vt 0.254401 0.125768
vt 0.0972294 0.653219
vt 0.109298 0.136938
vt 0.246568 1.05861
vt 0.241645 0.649091
vt 0.379767 0.639719
vt 0.241264 0.979357
vt 0.103989 0.639719
vt 0.10392 0.394532
vt 0.241527 0.28131
vt 0.379663 0.271938


#
# MESH 000
#
g surface_000
usemtl surface_000
f 11/11/11 26/26/26 25/25/25
f 11/11/11 10/10/10 26/26/26
f 8/8/8 10/10/10 11/11/11
f 8/8/8 9/9/9 10/10/10
f 12/12/12 9/9/9 8/8/8
f 12/12/12 13/13/13 9/9/9
f 14/14/14 13/13/13 12/12/12
f 14/14/14 15/15/15 13/13/13
f 16/16/16 15/15/15 14/14/14
f 16/16/16 17/17/17 15/15/15
f 25/25/25 17/17/17 16/16/16
f 25/25/25 26/26/26 17/17/17
f 18/18/18 23/23/23 21/21/21
f 18/18/18 20/20/20 23/23/23
f 18/18/18 19/19/19 20/20/20
f 18/18/18 24/24/24 19/19/19
f 18/18/18 22/22/22 24/24/24
f 18/18/18 21/21/21 22/22/22
f 7/7/7 1/1/1 3/3/3
f 1/1/1 2/2/2 3/3/3
f 2/2/2 4/4/4 3/3/3
f 4/4/4 5/5/5 3/3/3
f 5/5/5 6/6/6 3/3/3
f 6/6/6 7/7/7 3/3/3
f 31/31/31 32/32/32 33/33/33
f 31/31/31 33/33/33 28/28/28
f 30/30/30 31/31/31 28/28/28
f 30/30/30 28/28/28 27/27/27
f 27/27/27 28/28/28 29/29/29
f 28/28/28 33/33/33 29/29/29
f 41/41/41 34/34/34 36/36/36
f 34/34/34 35/35/35 36/36/36
f 36/36/36 35/35/35 38/38/38
f 36/36/36 38/38/38 37/37/37
f 41/41/41 36/36/36 37/37/37
f 41/41/41 37/37/37 40/40/40
f 40/40/40 37/37/37 39/39/39
f 37/37/37 38/38/38 39/39/39
f 42/42/42 43/43/43 44/44/44
f 42/42/42 44/44/44 45/45/45
f 46/46/46 42/42/42 45/45/45
f 46/46/46 45/45/45 47/47/47
f 47/47/47 45/45/45 48/48/48
f 47/47/47 48/48/48 51/51/51
f 51/51/51 48/48/48 50/50/50
f 48/48/48 49/49/49 50/50/50
f 45/45/45 44/44/44 49/49/49
f 45/45/45 49/49/49 48/48/48
f 52/52/52 53/53/53 54/54/54
f 52/52/52 54/54/54 55/55/55
f 56/56/56 52/52/52 55/55/55
f 56/56/56 55/55/55 57/57/57
f 58/58/58 57/57/57 55/55/55
f 58/58/58 61/61/61 57/57/57
f 61/61/61 58/58/58 60/60/60
f 58/58/58 59/59/59 60/60/60
f 54/54/54 58/58/58 55/55/55
f 54/54/54 59/59/59 58/58/58
f 62/62/62 63/63/63 64/64/64
f 62/62/62 64/64/64 65/65/65
f 66/66/66 62/62/62 65/65/65
f 66/66/66 65/65/65 67/67/67
f 71/71/71 67/67/67 65/65/65
f 71/71/71 65/65/65 68/68/68
f 71/71/71 68/68/68 70/70/70
f 68/68/68 69/69/69 70/70/70
f 68/68/68 65/65/65 64/64/64
f 68/68/68 64/64/64 69/69/69
f 77/77/77 78/78/78 73/73/73
f 77/77/77 73/73/73 72/72/72
f 75/75/75 77/77/77 72/72/72
f 75/75/75 76/76/76 77/77/77
f 72/72/72 73/73/73 74/74/74
f 75/75/75 72/72/72 74/74/74
f 80/80/80 83/83/83 84/84/84
f 80/80/80 84/84/84 81/81/81
f 79/79/79 80/80/80 81/81/81
f 79/79/79 81/81/81 82/82/82
f 81/81/81 85/85/85 82/82/82
f 84/84/84 85/85/85 81/81/81
f 91/91/91 92/92/92 87/87/87
f 91/91/91 87/87/87 86/86/86
f 89/89/89 91/91/91 86/86/86
f 89/89/89 90/90/90 91/91/91
f 86/86/86 87/87/87 88/88/88
f 89/89/89 86/86/86 88/88/88
f 96/96/96 99/99/99 94/94/94
f 99/99/99 97/97/97 94/94/94
f 97/97/97 98/98/98 94/94/94
f 94/94/94 98/98/98 95/95/95
f 93/93/93 94/94/94 95/95/95
f 94/94/94 93/93/93 96/96/96
f 104/104/104 102/102/102 106/106/106
f 102/102/102 104/104/104 105/105/105
f 102/102/102 105/105/105 103/103/103
f 100/100/100 102/102/102 103/103/103
f 100/100/100 101/101/101 102/102/102
f 102/102/102 101/101/101 106/106/106
f 112/112/112 113/113/113 108/108/108
f 112/112/112 108/108/108 107/107/107
f 111/111/111 112/112/112 107/107/107
f 111/111/111 107/107/107 110/110/110
f 110/110/110 107/107/107 109/109/109
f 107/107/107 108/108/108 109/109/109

