g t068v001_m
v -0.5000017 0 0.5
v -0.5000017 0 -0.5
v -0.5000017 0.3020907 -0.5
v -0.5000017 0.3020907 0.5000002
v -0.5000017 0 0.5
v -0.5000017 0.3020907 0.5000002
v 0.4999982 0.3020907 0.5000002
v 0.4999982 0 0.5
v -0.5000017 0 -0.5
v 0.4999982 0 -0.5
v 0.4999982 0.3020907 -0.5
v -0.5000017 0.3020907 -0.5
v 0.4999982 0 -0.5
v 0.4999982 0 0.5
v 0.4999982 0.3020907 0.5000002
v 0.4999982 0.3020907 -0.5
v -0.5000017 0 0.5
v 0.4999982 0 0.5
v 0.4999982 0 -0.5
v -0.5000017 0 -0.5
v -0.5000017 0.3020907 0.5000002
v -0.5000017 0.3020907 -0.5
v 0.4999982 0.3020907 -0.5
v 0.4999982 0.3020907 0.5000002
v -0.4999998 0.3020907 0.3246994
v -0.4999998 0.3020907 -0.3246994
v -0.4999998 0.5481049 -0.3246994
v -0.4999998 0.5481049 0.3246994
v -0.4999998 0.7115265 -0.1987343
v -0.4999998 0.7115265 0.1987343
v -0.4999998 0.7688374 0
v -0.4999998 0.3020907 0.3246994
v -0.3189906 0.4789462 0.3246994
v -0.3189906 0.3020907 0.3246994
v -0.4999998 0.5481049 0.3246994
v -0.2581862 0.5481049 0.3246994
v -0.4999998 0.7115265 0.1987343
v 0.2581865 0.5481049 0.3246994
v 0.5000001 0.7115265 0.1987343
v 0.5000001 0.5481049 0.3246994
v 0.3189908 0.4789462 0.3246994
v 0.5000001 0.3020907 0.3246994
v 0.3189908 0.3020907 0.3246994
v 0.5000001 0.7688374 0
v -0.4999998 0.7688374 0
v -0.4999998 0.7115265 -0.1987343
v 0.5000001 0.7115265 -0.1987343
v 0.2581865 0.5481049 -0.3246994
v 0.5000001 0.5481049 -0.3246994
v -0.2581862 0.5481049 -0.3246994
v 0.3189908 0.4789462 -0.3246994
v 0.5000001 0.3020907 -0.3246994
v 0.3189908 0.3020907 -0.3246994
v -0.4999998 0.5481049 -0.3246994
v -0.3189906 0.4789462 -0.3246994
v -0.4999998 0.3020907 -0.3246994
v -0.3189906 0.3020907 -0.3246994
v -0.3189906 0.4789462 0.3246994
v -0.2581862 0.5481049 0.3246994
v 0.2581865 0.5481049 0.3246994
v 0.3189908 0.4789462 0.3246994
v -0.3189906 0.3020907 0.3246994
v 0.3189908 0.3020907 0.3246994
v -0.3189906 0.3020907 -0.3246994
v 0.3189908 0.3020907 -0.3246994
v 0.3189908 0.4789462 -0.3246994
v -0.3189906 0.4789462 -0.3246994
v -0.2581862 0.5481049 -0.3246994
v 0.2581865 0.5481049 -0.3246994
v 0.5000001 0.7115265 0.1987343
v 0.5000001 0.7688374 0
v 0.5000001 0.7115265 -0.1987343
v 0.5000001 0.5481049 0.3246994
v 0.5000001 0.5481049 -0.3246994
v 0.5000001 0.3020907 0.3246994
v 0.5000001 0.3020907 -0.3246994
vt 0.5170898 0.01844788
vt 0.01687622 0.01844788
vt 0.01687622 0.1695557
vt 0.5170898 0.1695557
vt 0.01687622 0.01844788
vt 0.01687622 0.1695557
vt 0.5170898 0.1695557
vt 0.5170898 0.01844788
vt 0.5170898 0.01844788
vt 0.01687622 0.01844788
vt 0.01687622 0.1695557
vt 0.5170898 0.1695557
vt 0.5170898 0.01844788
vt 0.01687622 0.01844788
vt 0.01687622 0.1695557
vt 0.5170898 0.1695557
vt 0.9125977 0.06573486
vt 0.5385742 0.06573486
vt 0.5385742 0.4396973
vt 0.9125977 0.4396973
vt 0.5390625 0.06616211
vt 0.5390625 0.4387207
vt 0.9116211 0.4387207
vt 0.9116211 0.06616211
vt 0.4313965 0.1850586
vt 0.1052856 0.1850586
vt 0.1052856 0.3081055
vt 0.4313965 0.3081055
vt 0.1706543 0.3898926
vt 0.3693848 0.3898926
vt 0.2700195 0.418457
vt 0.01687622 0.333252
vt 0.1073608 0.4216309
vt 0.1073608 0.333252
vt 0.01687622 0.4562988
vt 0.1378174 0.4562988
vt 0.01687622 0.5595703
vt 0.3959961 0.4562988
vt 0.5170898 0.5595703
vt 0.5170898 0.4562988
vt 0.4262695 0.4216309
vt 0.5170898 0.333252
vt 0.4262695 0.333252
vt 0.5170898 0.6630859
vt 0.01687622 0.6630859
vt 0.01687622 0.7661133
vt 0.5170898 0.7661133
vt 0.3959961 0.8696289
vt 0.5170898 0.8696289
vt 0.1378174 0.8696289
vt 0.4262695 0.9042969
vt 0.5170898 0.9926758
vt 0.4262695 0.9926758
vt 0.01687622 0.8696289
vt 0.1073608 0.9042969
vt 0.01687622 0.9926758
vt 0.1073608 0.9926758
vt 0.8959961 0.6821289
vt 0.8720703 0.7021484
vt 0.8720703 0.9609375
vt 0.8959961 0.980957
vt 0.9819336 0.6821289
vt 0.9819336 0.980957
vt 0.9819336 0.980957
vt 0.9819336 0.6821289
vt 0.8959961 0.6821289
vt 0.8959961 0.9814453
vt 0.8720703 0.9609375
vt 0.8720703 0.7021484
vt 0.1706543 0.3898926
vt 0.2700195 0.418457
vt 0.3693848 0.3898926
vt 0.1052856 0.3081055
vt 0.4313965 0.3081055
vt 0.1052856 0.1850586
vt 0.4313965 0.1850586
vn -1 0 0
vn -1 0 0
vn -1 0 0
vn -1 0 0
vn 0 0 1
vn 0 0 1
vn 0 0 1
vn 0 0 1
vn 0 0 -1
vn 0 0 -1
vn 0 0 -1
vn 0 0 -1
vn 1 0 0
vn 1 0 0
vn 1 0 0
vn 1 0 0
vn 0 -1 0
vn 0 -1 0
vn 0 -1 0
vn 0 -1 0
vn 0 1 0
vn 0 1 0
vn 0 1 0
vn 0 1 0
vn -1 0 0
vn -1 0 0
vn -1 0 0
vn -1 0 0
vn -1 0 0
vn -1 0 0
vn -1 0 0
vn 0 0 1
vn 0 0 1
vn 0 0 1
vn 0 0.2856445 0.9584961
vn 0 0.6020508 0.7983398
vn 0 0.8959961 0.4440918
vn 0 0.6020508 0.7983398
vn 0 0.8959961 0.4440918
vn 0 0.2856445 0.9584961
vn 0 0 1
vn 0 0 1
vn 0 0 1
vn 0 1 0
vn 0 1 0
vn 0 0.8959961 -0.4440918
vn 0 0.8959961 -0.4440918
vn 0 0.6020508 -0.7983398
vn 0 0.2856445 -0.9584961
vn 0 0.6020508 -0.7983398
vn 0 0 -1
vn 0 0 -1
vn 0 0 -1
vn 0 0.2856445 -0.9584961
vn 0 0 -1
vn 0 0 -1
vn 0 0 -1
vn 0 0 1
vn 0 0 1
vn 0 0 1
vn 0 0 1
vn 0 0 1
vn 0 0 1
vn 0 0 -1
vn 0 0 -1
vn 0 0 -1
vn 0 0 -1
vn 0 0 -1
vn 0 0 -1
vn 1 0 0
vn 1 0 0
vn 1 0 0
vn 1 0 0
vn 1 0 0
vn 1 0 0
vn 1 0 0
g t068v001_m_0
f 3/3/3 2/2/2 1/1/1
f 4/4/4 3/3/3 1/1/1
f 7/7/7 6/6/6 5/5/5
f 8/8/8 7/7/7 5/5/5
f 11/11/11 10/10/10 9/9/9
f 12/12/12 11/11/11 9/9/9
f 15/15/15 14/14/14 13/13/13
f 16/16/16 15/15/15 13/13/13
f 19/19/19 18/18/18 17/17/17
f 20/20/20 19/19/19 17/17/17
f 23/23/23 22/22/22 21/21/21
f 24/24/24 23/23/23 21/21/21
f 27/27/27 26/26/26 25/25/25
f 28/28/28 27/27/27 25/25/25
f 29/29/29 27/27/27 28/28/28
f 30/30/30 29/29/29 28/28/28
f 31/31/31 29/29/29 30/30/30
f 34/34/34 33/33/33 32/32/32
f 33/33/33 35/35/35 32/32/32
f 33/33/33 36/36/36 35/35/35
f 35/35/35 36/36/36 37/37/37
f 36/36/36 38/38/38 37/37/37
f 38/38/38 39/39/39 37/37/37
f 38/38/38 40/40/40 39/39/39
f 38/38/38 41/41/41 40/40/40
f 40/40/40 41/41/41 42/42/42
f 41/41/41 43/43/43 42/42/42
f 39/39/39 44/44/44 37/37/37
f 44/44/44 45/45/45 37/37/37
f 45/45/45 44/44/44 46/46/46
f 44/44/44 47/47/47 46/46/46
f 47/47/47 48/48/48 46/46/46
f 47/47/47 49/49/49 48/48/48
f 48/48/48 50/50/50 46/46/46
f 51/51/51 48/48/48 49/49/49
f 51/51/51 49/49/49 52/52/52
f 53/53/53 51/51/51 52/52/52
f 50/50/50 54/54/54 46/46/46
f 50/50/50 55/55/55 54/54/54
f 54/54/54 55/55/55 56/56/56
f 55/55/55 57/57/57 56/56/56
f 60/60/60 59/59/59 58/58/58
f 61/61/61 60/60/60 58/58/58
f 61/61/61 58/58/58 62/62/62
f 63/63/63 61/61/61 62/62/62
f 66/66/66 65/65/65 64/64/64
f 67/67/67 66/66/66 64/64/64
f 67/67/67 68/68/68 66/66/66
f 68/68/68 69/69/69 66/66/66
f 72/72/72 71/71/71 70/70/70
f 72/72/72 70/70/70 73/73/73
f 74/74/74 72/72/72 73/73/73
f 74/74/74 73/73/73 75/75/75
f 76/76/76 74/74/74 75/75/75
