#
# OBJECT NAME
#
o model_3267
mtllib 3267.mtl

#
# VERTEX BUFFER 000
#
v -0.11512 0.697896 0.0361213
v -0.23024 0.697896 -0.163272
v -0.294719 0.697896 -0.163272
v -0.147359 0.697896 0.0919617
v 0.11512 0.697896 0.0361213
v 0.147359 0.697896 0.0919618
v 0.23024 0.697896 -0.163272
v 0.294719 0.697896 -0.163272
v 0.11512 0.697896 -0.362665
v 0.147359 0.697896 -0.418506
v -0.11512 0.697896 -0.362665
v -0.147359 0.697896 -0.418506
v -0.11512 0.697896 -0.362665
v -0.147359 0.697896 -0.418506
v -0.147359 0.697896 0.0919617
v -0.294719 0.697896 -0.163272
v -0.281746 0.539135 -0.163272
v -0.140873 0.539135 0.0807271
v 0.147359 0.697896 0.0919618
v 0.140873 0.539135 0.0807276
v 0.294719 0.697896 -0.163272
v 0.281746 0.539135 -0.163272
v 0.147359 0.697896 -0.418506
v 0.140873 0.539135 -0.407271
v -0.147359 0.697896 -0.418506
v 0.147359 0.697896 -0.418506
v -0.140873 0.539135 -0.407272
v -0.147359 0.697896 -0.418506
v -0.140873 0.539135 -0.407272
v -0.140873 0.539135 0.0807271
v -0.281746 0.539135 -0.163272
v -5.80478e-006 0.0729546 -0.16327
v 0.140873 0.539135 0.0807276
v 0.281746 0.539135 -0.163272
v 0.140873 0.539135 -0.407271
v -0.140873 0.539135 -0.407272
v -0.140873 0.539135 -0.407272
v 0.077287 0.42653 -0.421839
v -0.077287 0.42653 -0.421839
v -0.077287 0.790423 -0.501232
v 0.077287 0.790423 -0.501232
v 0.077287 0.790423 -0.501232
v -0.077287 0.790423 -0.501232
v -0.077287 0.790423 -0.422429
v 0.077287 0.790423 -0.422429
v 0.077287 0.790423 -0.422429
v -0.077287 0.790423 -0.422429
v -0.077287 0.42653 -0.421839
v 0.077287 0.42653 -0.421839
v -0.077287 0.42653 -0.421839
v -0.077287 0.790423 -0.422429
v -0.077287 0.790423 -0.501232
v 0.077287 0.42653 -0.421839
v 0.077287 0.790423 -0.501232
v 0.077287 0.790423 -0.422429
v -0.0424779 0.667461 -0.18981
v 0.00690344 0.667461 -0.112447
v 0.00691531 0.730016 -0.112432
v -0.0424661 0.730016 -0.189795
v 0.00690344 0.667461 -0.112447
v 0.0508166 0.667461 -0.18981
v 0.0508285 0.730016 -0.189795
v 0.00691531 0.730016 -0.112432
v 0.0508166 0.667461 -0.18981
v -0.0424779 0.667461 -0.18981
v -0.0424661 0.730016 -0.189795
v 0.0508285 0.730016 -0.189795
v 0.00691531 0.730016 -0.112432
v 0.0508285 0.730016 -0.189795
v -0.0424661 0.730016 -0.189795
v -0.11512 0.697896 0.0361213
v 0.11512 0.697896 0.0361213
v 0.23024 0.697896 -0.163272
v -0.23024 0.697896 -0.163272
v 0.11512 0.697896 -0.362665
v -0.11512 0.697896 -0.362665

vn 0 1 0
vn 0 1 0
vn 0 1 0
vn 0 1 0
vn 0 1 0
vn 0 1 0
vn 0 1 0
vn 0 1 0
vn 0 1 0
vn 0 1 0
vn 0 1 0
vn 0 1 0
vn 0 1 0
vn 0 1 0
vn -0.861328 -0.0998535 0.497314
vn -0.994629 -0.0998535 0
vn -0.994629 -0.0998535 0
vn -0.861328 -0.0998535 0.497314
vn 0 -0.0998535 0.994629
vn 0 -0.0998535 0.994629
vn 0.861328 -0.0998535 0.497314
vn 0.861328 -0.0998535 0.497314
vn 0.861328 -0.0998535 -0.497314
vn 0.861328 -0.0998535 -0.497314
vn 0 -0.0998535 -0.994629
vn 0.861328 -0.0998535 -0.497314
vn 0 -0.0998535 -0.994629
vn 0 -0.0998535 -0.994629
vn 0 -0.0998535 -0.994629
vn -0.815918 -0.334961 0.470947
vn -0.941895 -0.334961 0
vn 0.00173473 -0.999512 0
vn 0 -0.334961 0.941895
vn 0.815918 -0.334961 0.470947
vn 0.815918 -0.334961 -0.470947
vn 0 -0.334961 -0.941895
vn 0 -0.334961 -0.941895
vn 0 0 -1
vn 0 0 -1
vn 0 0 -1
vn 0 0 -1
vn 0 1 0
vn 0 1 0
vn 0 1 0
vn 0 1 0
vn 0 0 1
vn 0 0 1
vn 0 0 1
vn 0 0 1
vn -1 0 0
vn -1 0 0
vn -1 0 0
vn 1 0 0
vn 1 0 0
vn 1 0 0
vn -0.707031 0 0.707031
vn 0 0 1
vn 0 0 1
vn -0.707031 0 0.707031
vn 0.707031 0 0.707031
vn 1 0 0
vn 1 0 0
vn 0.707031 0 0.707031
vn 0.707031 0 -0.707031
vn 0 0 -1
vn 0 0 -1
vn 0.707031 0 -0.707031
vn 0 1 0
vn 0 1 0
vn 0 1 0
vn 0 1 0
vn 0 1 0
vn 0 1 0
vn 0 1 0
vn 0 1 0
vn 0 1 0

vt 0.377479 0.935019
vt 0.213975 0.935019
vt 0.21444 0.892673
vt 0.377814 0.892673
vt 0.541173 0.935019
vt 0.54098 0.892673
vt 0.704641 0.935019
vt 0.704296 0.892673
vt 0.868145 0.935019
vt 0.86767 0.892673
vt 0.990064 0.935019
vt 0.990064 0.892673
vt 0.0509116 0.935019
vt 0.0511237 0.892673
vt 0.377018 0.878554
vt 0.215886 0.878554
vt 0.215886 0.784534
vt 0.377018 0.784534
vt 0.541076 0.878554
vt 0.541076 0.784534
vt 0.704322 0.878554
vt 0.704322 0.784534
vt 0.868555 0.878554
vt 0.86843 0.784534
vt 0.990064 0.878554
vt 0.868341 0.878554
vt 0.990064 0.784534
vt 0.0517217 0.878554
vt 0.0516332 0.784534
vt 0.355332 0.752281
vt 0.181733 0.669487
vt 0.500018 0.332298
vt 0.549563 0.770613
vt 0.736591 0.717528
vt 0.891309 0.608004
vt 0.981489 0.501295
vt 0.0471769 0.539254
vt 0.251182 0.0753796
vt 0.34236 0.0753796
vt 0.34236 0.291909
vt 0.251182 0.291909
vt 0.170833 0.358096
vt 0.0792296 0.358096
vt 0.0792296 0.308279
vt 0.170833 0.308279
vt 0.170833 0.291909
vt 0.0792296 0.291909
vt 0.0792296 0.0753796
vt 0.170833 0.0753796
vt 0.0354069 0.0753796
vt 0.0580967 0.291909
vt 0.0127171 0.291909
vt 0.207153 0.0753796
vt 0.229706 0.291909
vt 0.184601 0.291909
vt 0.933583 0.767776
vt 0.849105 0.767776
vt 0.849105 0.726603
vt 0.933583 0.726603
vt 0.849105 0.767776
vt 0.792786 0.767776
vt 0.792786 0.726603
vt 0.849105 0.726603
vt 0.792786 0.767776
vt 0.750547 0.767776
vt 0.750547 0.726603
vt 0.792786 0.726603
vt 0.0962371 0.645457
vt 0.127935 0.725426
vt 0.0351705 0.717166
vt 0.453468 0.0493857
vt 0.577176 0.0493857
vt 0.63744 0.16518
vt 0.379613 0.160648
vt 0.570825 0.274989
vt 0.446502 0.274989


#
# MESH 000
#
g surface_000
usemtl surface_000
f 16/16/16 28/28/28 29/29/29
f 16/16/16 29/29/29 17/17/17
f 15/15/15 16/16/16 17/17/17
f 15/15/15 17/17/17 18/18/18
f 19/19/19 15/15/15 18/18/18
f 19/19/19 18/18/18 20/20/20
f 21/21/21 19/19/19 20/20/20
f 21/21/21 20/20/20 22/22/22
f 23/23/23 21/21/21 22/22/22
f 23/23/23 22/22/22 24/24/24
f 25/25/25 24/24/24 27/27/27
f 25/25/25 26/26/26 24/24/24
f 2/2/2 13/13/13 14/14/14
f 2/2/2 14/14/14 3/3/3
f 1/1/1 2/2/2 3/3/3
f 1/1/1 3/3/3 4/4/4
f 5/5/5 1/1/1 4/4/4
f 5/5/5 4/4/4 6/6/6
f 7/7/7 5/5/5 6/6/6
f 7/7/7 6/6/6 8/8/8
f 9/9/9 7/7/7 8/8/8
f 9/9/9 8/8/8 10/10/10
f 11/11/11 9/9/9 10/10/10
f 11/11/11 10/10/10 12/12/12
f 31/31/31 37/37/37 32/32/32
f 30/30/30 31/31/31 32/32/32
f 33/33/33 30/30/30 32/32/32
f 34/34/34 33/33/33 32/32/32
f 35/35/35 34/34/34 32/32/32
f 36/36/36 35/35/35 32/32/32
f 68/68/68 69/69/69 70/70/70
f 53/53/53 54/54/54 55/55/55
f 50/50/50 51/51/51 52/52/52
f 75/75/75 76/76/76 74/74/74
f 75/75/75 74/74/74 73/73/73
f 71/71/71 73/73/73 74/74/74
f 71/71/71 72/72/72 73/73/73
f 64/64/64 66/66/66 67/67/67
f 64/64/64 65/65/65 66/66/66
f 60/60/60 62/62/62 63/63/63
f 60/60/60 61/61/61 62/62/62
f 56/56/56 58/58/58 59/59/59
f 56/56/56 57/57/57 58/58/58
f 46/46/46 48/48/48 49/49/49
f 46/46/46 47/47/47 48/48/48
f 42/42/42 44/44/44 45/45/45
f 42/42/42 43/43/43 44/44/44
f 38/38/38 40/40/40 41/41/41
f 38/38/38 39/39/39 40/40/40

