g t050v001_h
v -0.3959846 0.4238536 0.390049
v -0.01568125 0.4238536 0.390049
v -0.01568125 0.1035622 0.390049
v -0.3959846 0.1035622 0.390049
v -0.3959846 0.4238536 0.390049
v -0.3959846 0.4238536 0.09924507
v -0.01568125 0.4238536 0.09924507
v -0.01568125 0.4238536 0.390049
v -0.01568125 0.4238536 0.09924507
v -0.01568125 0.1035622 0.09924507
v -0.01568125 0.1035622 0.390049
v -0.01568125 0.4238536 0.390049
v 0.397768 0.4238566 0.390049
v 0.2145905 0.4238566 0.390049
v 0.2145905 0.4238566 0.09924507
v 0.397768 0.4238566 0.09924507
v 0.397768 0.4238566 0.390049
v 0.397768 0.1035652 0.390049
v 0.2145905 0.1035652 0.390049
v 0.2145905 0.4238566 0.390049
v 0.2145905 0.4238566 0.390049
v 0.2145905 0.1035652 0.390049
v 0.2145905 0.1035652 0.09924507
v 0.2145905 0.4238566 0.09924507
v -0.01562212 0.3976659 0.1305408
v 0.08715917 0.4368695 0.1305408
v 0.08715917 0.4368695 0.4213448
v -0.01562212 0.3976659 0.4213448
v 0.2013064 0.1376075 0.1305408
v 0.09852506 0.09840381 0.1305408
v 0.09852506 0.09840381 0.4213448
v 0.2013064 0.1376075 0.4213448
v 0.09852506 0.09840381 0.4213448
v -0.01562212 0.3976659 0.4213448
v 0.08715917 0.4368695 0.4213448
v 0.2013064 0.1376075 0.4213448
v -0.01562212 0.3976659 0.4213448
v 0.09852506 0.09840381 0.4213448
v 0.09852506 0.09840381 0.1305408
v -0.01562212 0.3976659 0.1305408
v 0.08715917 0.4368695 0.1305408
v 0.2013064 0.1376075 0.1305408
v 0.2013064 0.1376075 0.4213448
v 0.08715917 0.4368695 0.4213448
v -0.01769699 0.8733357 0.3876484
v -0.01769699 0.5530443 0.3876484
v -0.01769699 0.5530443 0.09684452
v -0.01769699 0.8733357 0.09684452
v 0.3947144 0.8733357 0.3876484
v -0.01769699 0.8733357 0.3876484
v -0.01769699 0.8733357 0.09684452
v 0.3947144 0.8733357 0.09684452
v 0.3947144 0.8733357 0.3876484
v 0.3947144 0.5530443 0.3876484
v -0.01769699 0.5530443 0.3876484
v -0.01769699 0.8733357 0.3876484
v -0.1199652 0.8903846 0.1234722
v -0.01835883 0.8482283 0.1234722
v -0.01835883 0.8482283 0.4142761
v -0.1199652 0.8903846 0.4142761
v -0.1411024 0.552389 0.1234722
v -0.2427088 0.5945452 0.1234722
v -0.2427088 0.5945452 0.4142761
v -0.1411024 0.552389 0.4142761
v -0.2427088 0.5945452 0.4142761
v -0.1199652 0.8903846 0.4142761
v -0.01835883 0.8482283 0.4142761
v -0.1411024 0.552389 0.4142761
v -0.1199652 0.8903846 0.4142761
v -0.2427088 0.5945452 0.4142761
v -0.2427088 0.5945452 0.1234722
v -0.1199652 0.8903846 0.1234722
v -0.01835883 0.8482283 0.1234722
v -0.1411024 0.552389 0.1234722
v -0.1411024 0.552389 0.4142761
v -0.01835883 0.8482283 0.4142761
v -0.5 0 -0.5
v -0.5 0.9001966 -0.5
v -0.5 0.9001966 0.5
v -0.5 0 0.5
v -0.5 0.9999999 -0.5
v 0.5 0.9999999 -0.5
v 0.5 1 0.5
v -0.5 1 0.5
v 0.5 0 0.5
v 0.5 0.9001966 0.5
v 0.5 0.9001966 -0.5
v 0.5 0 -0.5
v 0.5 0 -0.5
v 0.3929958 0 0.5
v 0.5 0 0.5
v 0.379537 0 -0.5
v -0.3929958 0 0.5
v -0.3929958 0 -0.5
v -0.5 0 0.5
v -0.5 0 -0.5
v -0.3929958 0.1028837 0.1013336
v -0.3929958 0.9001966 0.1013336
v 0.3929958 0.9001966 0.1013336
v 0.3929958 0.1028837 0.1013336
v 0.5 0 -0.5
v 0.5 0.9001966 -0.5
v 0.3929958 0.9001966 -0.5
v 0.379537 0 -0.5
v -0.3929958 0 -0.5
v -0.3929958 0.9001966 -0.5
v -0.5 0 -0.5
v -0.5 0.9001966 -0.5
v 0.3929958 0.1028837 0.5
v 0.3929958 0.9001966 0.5
v 0.5 0.9001966 0.5
v 0.5 0 0.5
v 0.3929958 0 0.5
v -0.3929958 0 0.5
v -0.3929958 0.1028837 0.5
v -0.5 0 0.5
v -0.3929958 0.9001966 0.5
v -0.5 0.9001966 0.5
v -0.3929958 0.1028837 0.5
v -0.3929958 0.1028837 0.1013336
v 0.3929958 0.1028837 0.1013336
v 0.3929958 0.1028837 0.5
v 0.3929958 0.1028837 0.5
v 0.3929958 0.1028837 0.1013336
v 0.3929958 0.9001966 0.1013336
v 0.3929958 0.9001966 0.5
v 0.3929958 0.9001966 0.5
v 0.3929958 0.9001966 0.1013336
v -0.3929958 0.9001966 0.1013336
v -0.3929958 0.9001966 0.5
v -0.3929958 0.9001966 0.5
v -0.3929958 0.9001966 0.1013336
v -0.3929958 0.1028837 0.1013336
v -0.3929958 0.1028837 0.5
v -0.5 1 0.5
v -0.3929958 0.9001966 0.5
v -0.5 0.9001966 0.5
v 0.5 1 0.5
v 0.3929958 0.9001966 0.5
v 0.5 0.9001966 0.5
v -0.5 0.9001966 -0.5
v -0.5 0.9999999 -0.5
v -0.5 1 0.5
v -0.5 0.9001966 0.5
v 0.5 0.9001966 -0.5
v 0.5 0.9999999 -0.5
v 0.3929958 0.9001966 -0.5
v -0.3929958 0.9001966 -0.5
v -0.5 0.9999999 -0.5
v -0.5 0.9001966 -0.5
v 0.5 0.9999999 -0.5
v 0.5 0.9001966 -0.5
v 0.5 0.9001966 0.5
v 0.5 1 0.5
v -0.4071083 0.5559772 0.1013336
v 0.4071083 0.5559772 0.1013336
v 0.4071083 0.5559772 0.454071
v -0.4071083 0.5559772 0.454071
v 0.4071083 0.4435689 0.1013336
v -0.4071083 0.4435689 0.1013336
v -0.4071083 0.4435689 0.454071
v 0.4071083 0.4435689 0.454071
v -0.4071083 0.4435689 0.454071
v -0.4071083 0.5559772 0.454071
v 0.4071083 0.5559772 0.454071
v 0.4071083 0.4435689 0.454071
vt 0.01116943 0.7114258
vt 0.2939453 0.7114258
vt 0.2939453 0.4987793
vt 0.01116943 0.4987793
vt 0.0109024 0.7314453
vt 0.0109024 0.9145508
vt 0.2939453 0.9145508
vt 0.2939453 0.7314453
vt 0.489502 0.7158203
vt 0.489502 0.4929199
vt 0.3027344 0.4929199
vt 0.3027344 0.7158203
vt 0.2119141 0.7314453
vt 0.07208252 0.7314453
vt 0.07208252 0.9145508
vt 0.2119141 0.9145508
vt 0.2155762 0.7114258
vt 0.2155762 0.4987793
vt 0.07189941 0.4987793
vt 0.07189941 0.7114258
vt 0.489502 0.7158203
vt 0.489502 0.4929199
vt 0.3027344 0.4929199
vt 0.3027344 0.7158203
vt 0.3154297 0.9145508
vt 0.3813477 0.9145508
vt 0.3813477 0.7314453
vt 0.3154297 0.7314453
vt 0.3154297 0.9145508
vt 0.3813477 0.9145508
vt 0.3813477 0.7314453
vt 0.3154297 0.7314453
vt 0.3984375 0.71875
vt 0.3984375 0.9194336
vt 0.4736328 0.9194336
vt 0.4736328 0.71875
vt 0.489502 0.7158203
vt 0.489502 0.4929199
vt 0.3027344 0.4929199
vt 0.3027344 0.7158203
vt 0.489502 0.7158203
vt 0.489502 0.4929199
vt 0.3027344 0.4929199
vt 0.3027344 0.7158203
vt 0.489502 0.7158203
vt 0.489502 0.4929199
vt 0.3027344 0.4929199
vt 0.3027344 0.7158203
vt 0.01084137 0.7314453
vt 0.2939453 0.7314453
vt 0.2939453 0.9145508
vt 0.01084137 0.9145508
vt 0.01084137 0.7114258
vt 0.01084137 0.4987793
vt 0.2939453 0.4987793
vt 0.2939453 0.7114258
vt 0.3154297 0.9145508
vt 0.3813477 0.9145508
vt 0.3813477 0.7314453
vt 0.3154297 0.7314453
vt 0.3154297 0.9145508
vt 0.3813477 0.9145508
vt 0.3813477 0.7314453
vt 0.3154297 0.7314453
vt 0.3984375 0.71875
vt 0.3984375 0.9194336
vt 0.4736328 0.9194336
vt 0.4736328 0.71875
vt 0.489502 0.7158203
vt 0.489502 0.4929199
vt 0.3027344 0.4929199
vt 0.3027344 0.7158203
vt 0.489502 0.7158203
vt 0.489502 0.4929199
vt 0.3027344 0.4929199
vt 0.3027344 0.7158203
vt 0.01508331 0.007904053
vt 0.01508331 0.442627
vt 0.4870605 0.442627
vt 0.4870605 0.007904053
vt 0.5097656 0.9912109
vt 0.9931641 0.9912109
vt 0.9931641 0.5117188
vt 0.5097656 0.5117188
vt 0.01508331 0.007904053
vt 0.01508331 0.442627
vt 0.4870605 0.442627
vt 0.4870605 0.007904053
vt 0.5097656 0.9912109
vt 0.559082 0.5117188
vt 0.5097656 0.5117188
vt 0.559082 0.9912109
vt 0.9404297 0.5117188
vt 0.9404297 0.9912109
vt 0.9931641 0.5117188
vt 0.9931641 0.9912109
vt 0.0625 0.06756592
vt 0.0625 0.435791
vt 0.4436035 0.435791
vt 0.4436035 0.06756592
vt 0.5097656 0.007904053
vt 0.5097656 0.442627
vt 0.5615234 0.442627
vt 0.5615234 0.007904053
vt 0.9414063 0.007904053
vt 0.9414063 0.442627
vt 0.9931641 0.007904053
vt 0.9931641 0.442627
vt 0.9414063 0.05761719
vt 0.9414063 0.442627
vt 0.9931641 0.442627
vt 0.9931641 0.007904053
vt 0.9414063 0.007904053
vt 0.5615234 0.008476257
vt 0.5615234 0.05761719
vt 0.5097656 0.008476257
vt 0.5615234 0.442627
vt 0.5097656 0.442627
vt 0.9516602 0.9912109
vt 0.9516602 0.7856445
vt 0.5463867 0.7856445
vt 0.5463867 0.9912109
vt 0.4870605 0.06744385
vt 0.2907715 0.06744385
vt 0.2907715 0.435791
vt 0.4870605 0.435791
vt 0.5483398 0.5117188
vt 0.5483398 0.715332
vt 0.9516602 0.715332
vt 0.9516602 0.5117188
vt 0.01508331 0.435791
vt 0.2166748 0.435791
vt 0.2166748 0.06744385
vt 0.01508331 0.06744385
vt 0.5097656 0.498291
vt 0.5615234 0.4501953
vt 0.5097656 0.4501953
vt 0.9931641 0.498291
vt 0.9414063 0.4501953
vt 0.9931641 0.4501953
vt 0.5097656 0.4501953
vt 0.5097656 0.498291
vt 0.9931641 0.498291
vt 0.9931641 0.4501953
vt 0.5097656 0.4501953
vt 0.5097656 0.498291
vt 0.5615234 0.4501953
vt 0.9414063 0.4501953
vt 0.9931641 0.498291
vt 0.9931641 0.4501953
vt 0.9931641 0.498291
vt 0.9931641 0.4501953
vt 0.5097656 0.4501953
vt 0.5097656 0.498291
vt 0.5097656 0.715332
vt 0.9931641 0.715332
vt 0.9931641 0.5117188
vt 0.5097656 0.5117188
vt 0.9931641 0.7856445
vt 0.5097656 0.7856445
vt 0.5097656 0.9912109
vt 0.9931641 0.9912109
vt 0.01203156 0.9316406
vt 0.01203156 0.9907227
vt 0.4553223 0.9907227
vt 0.4553223 0.9316406
vn 0 0 1
vn 0 0 1
vn 0 0 1
vn 0 0 1
vn 0 1 0
vn 0 1 0
vn 0 1 0
vn 0 1 0
vn 1 0 0
vn 1 0 0
vn 1 0 0
vn 1 0 0
vn 0 1 0
vn 0 1 0
vn 0 1 0
vn 0 1 0
vn 0 0 1
vn 0 0 1
vn 0 0 1
vn 0 0 1
vn -1 0 0
vn -1 0 0
vn -1 0 0
vn -1 0 0
vn -0.3564453 0.9345703 0
vn -0.3564453 0.9345703 0
vn -0.3564453 0.9345703 0
vn -0.3564453 0.9345703 0
vn 0.3564453 -0.9345703 0
vn 0.3564453 -0.9345703 0
vn 0.3564453 -0.9345703 0
vn 0.3564453 -0.9345703 0
vn 0 0 1
vn 0 0 1
vn 0 0 1
vn 0 0 1
vn -0.9345703 -0.3564453 0
vn -0.9345703 -0.3564453 0
vn -0.9345703 -0.3564453 0
vn -0.9345703 -0.3564453 0
vn 0.9345703 0.3564453 0
vn 0.9345703 0.3564453 0
vn 0.9345703 0.3564453 0
vn 0.9345703 0.3564453 0
vn -1 0 0
vn -1 0 0
vn -1 0 0
vn -1 0 0
vn 0 1 0
vn 0 1 0
vn 0 1 0
vn 0 1 0
vn 0 0 1
vn 0 0 1
vn 0 0 1
vn 0 0 1
vn 0.3833008 0.9238281 0
vn 0.3833008 0.9238281 0
vn 0.3833008 0.9238281 0
vn 0.3833008 0.9238281 0
vn -0.3833008 -0.9238281 0
vn -0.3833008 -0.9238281 0
vn -0.3833008 -0.9238281 0
vn -0.3833008 -0.9238281 0
vn 0 0 1
vn 0 0 1
vn 0 0 1
vn 0 0 1
vn -0.9238281 0.3833008 0
vn -0.9238281 0.3833008 0
vn -0.9238281 0.3833008 0
vn -0.9238281 0.3833008 0
vn 0.9238281 -0.3833008 0
vn 0.9238281 -0.3833008 0
vn 0.9238281 -0.3833008 0
vn 0.9238281 -0.3833008 0
vn -1 0 0
vn -1 0 0
vn -1 0 0
vn -1 0 0
vn 0 1 0
vn 0 1 0
vn 0 1 0
vn 0 1 0
vn 1 0 0
vn 1 0 0
vn 1 0 0
vn 1 0 0
vn 0 -1 0
vn 0 -1 0
vn 0 -1 0
vn 0 -1 0
vn 0 -1 0
vn 0 -1 0
vn 0 -1 0
vn 0 -1 0
vn 0 0 1
vn 0 0 1
vn 0 0 1
vn 0 0 1
vn 0 0 -1
vn 0 0 -1
vn 0 0 -1
vn 0 0 -1
vn 0 0 -1
vn 0 0 -1
vn 0 0 -1
vn 0 0 -1
vn 0 0 1
vn 0 0 1
vn 0 0 1
vn 0 0 1
vn 0 0 1
vn 0 0 1
vn 0 0 1
vn 0 0 1
vn 0 0 1
vn 0 0 1
vn 0 1 0
vn 0 1 0
vn 0 1 0
vn 0 1 0
vn -1 0 0
vn -1 0 0
vn -1 0 0
vn -1 0 0
vn 0 -1 0
vn 0 -1 0
vn 0 -1 0
vn 0 -1 0
vn 1 0 0
vn 1 0 0
vn 1 0 0
vn 1 0 0
vn 0 0 1
vn 0 0 1
vn 0 0 1
vn 0 0 1
vn 0 0 1
vn 0 0 1
vn -1 0 0
vn -1 0 0
vn -1 0 0
vn -1 0 0
vn 0 0 -1
vn 0 0 -1
vn 0 0 -1
vn 0 0 -1
vn 0 0 -1
vn 0 0 -1
vn 1 0 0
vn 1 0 0
vn 1 0 0
vn 1 0 0
vn 0 1 0
vn 0 1 0
vn 0 1 0
vn 0 1 0
vn 0 -1 0
vn 0 -1 0
vn 0 -1 0
vn 0 -1 0
vn 0 0 1
vn 0 0 1
vn 0 0 1
vn 0 0 1
g t050v001_h_0
f 3/3/3 2/2/2 1/1/1
f 4/4/4 3/3/3 1/1/1
f 7/7/7 6/6/6 5/5/5
f 8/8/8 7/7/7 5/5/5
f 11/11/11 10/10/10 9/9/9
f 12/12/12 11/11/11 9/9/9
f 15/15/15 14/14/14 13/13/13
f 16/16/16 15/15/15 13/13/13
f 19/19/19 18/18/18 17/17/17
f 20/20/20 19/19/19 17/17/17
f 23/23/23 22/22/22 21/21/21
f 24/24/24 23/23/23 21/21/21
f 27/27/27 26/26/26 25/25/25
f 28/28/28 27/27/27 25/25/25
f 31/31/31 30/30/30 29/29/29
f 32/32/32 31/31/31 29/29/29
f 35/35/35 34/34/34 33/33/33
f 36/36/36 35/35/35 33/33/33
f 39/39/39 38/38/38 37/37/37
f 40/40/40 39/39/39 37/37/37
f 43/43/43 42/42/42 41/41/41
f 44/44/44 43/43/43 41/41/41
f 47/47/47 46/46/46 45/45/45
f 48/48/48 47/47/47 45/45/45
f 51/51/51 50/50/50 49/49/49
f 52/52/52 51/51/51 49/49/49
f 55/55/55 54/54/54 53/53/53
f 56/56/56 55/55/55 53/53/53
f 59/59/59 58/58/58 57/57/57
f 60/60/60 59/59/59 57/57/57
f 63/63/63 62/62/62 61/61/61
f 64/64/64 63/63/63 61/61/61
f 67/67/67 66/66/66 65/65/65
f 68/68/68 67/67/67 65/65/65
f 71/71/71 70/70/70 69/69/69
f 72/72/72 71/71/71 69/69/69
f 75/75/75 74/74/74 73/73/73
f 76/76/76 75/75/75 73/73/73
f 79/79/79 78/78/78 77/77/77
f 80/80/80 79/79/79 77/77/77
f 83/83/83 82/82/82 81/81/81
f 84/84/84 83/83/83 81/81/81
f 87/87/87 86/86/86 85/85/85
f 88/88/88 87/87/87 85/85/85
f 91/91/91 90/90/90 89/89/89
f 90/90/90 92/92/92 89/89/89
f 90/90/90 93/93/93 92/92/92
f 93/93/93 94/94/94 92/92/92
f 93/93/93 95/95/95 94/94/94
f 95/95/95 96/96/96 94/94/94
f 99/99/99 98/98/98 97/97/97
f 100/100/100 99/99/99 97/97/97
f 103/103/103 102/102/102 101/101/101
f 104/104/104 103/103/103 101/101/101
f 104/104/104 105/105/105 103/103/103
f 105/105/105 106/106/106 103/103/103
f 105/105/105 107/107/107 106/106/106
f 107/107/107 108/108/108 106/106/106
f 111/111/111 110/110/110 109/109/109
f 112/112/112 111/111/111 109/109/109
f 112/112/112 109/109/109 113/113/113
f 113/113/113 109/109/109 114/114/114
f 109/109/109 115/115/115 114/114/114
f 114/114/114 115/115/115 116/116/116
f 115/115/115 117/117/117 116/116/116
f 117/117/117 118/118/118 116/116/116
f 121/121/121 120/120/120 119/119/119
f 122/122/122 121/121/121 119/119/119
f 125/125/125 124/124/124 123/123/123
f 126/126/126 125/125/125 123/123/123
f 129/129/129 128/128/128 127/127/127
f 130/130/130 129/129/129 127/127/127
f 133/133/133 132/132/132 131/131/131
f 134/134/134 133/133/133 131/131/131
f 137/137/137 136/136/136 135/135/135
f 135/135/135 136/136/136 138/138/138
f 136/136/136 139/139/139 138/138/138
f 140/140/140 138/138/138 139/139/139
f 143/143/143 142/142/142 141/141/141
f 144/144/144 143/143/143 141/141/141
f 147/147/147 146/146/146 145/145/145
f 147/147/147 148/148/148 146/146/146
f 148/148/148 149/149/149 146/146/146
f 148/148/148 150/150/150 149/149/149
f 153/153/153 152/152/152 151/151/151
f 154/154/154 153/153/153 151/151/151
f 157/157/157 156/156/156 155/155/155
f 158/158/158 157/157/157 155/155/155
f 161/161/161 160/160/160 159/159/159
f 162/162/162 161/161/161 159/159/159
f 165/165/165 164/164/164 163/163/163
f 166/166/166 165/165/165 163/163/163
