g t012v001_h
v 0.4730592 0.02694064 -0.3546867
v 0.4730592 0.9730594 -0.3546867
v 0.5 1 -0.5
v 0.5 0 -0.5
v 0.30196 0.9730594 -0.3546867
v 0.5 1 -0.5
v 0.4730592 0.9730594 -0.3546867
v 0.30196 1 -0.5
v 0.2600589 0.9290718 -0.3546867
v 0.2600589 0.9560125 -0.5
v 0.2047114 0.9290718 -0.3546867
v 0.2047114 0.9560125 -0.5
v 0.1619344 0.9730594 -0.3546867
v 0.1619344 1 -0.5
v -0.1619339 0.9730594 -0.3546867
v -0.1619339 1 -0.5
v -0.2047119 0.9560125 -0.5
v -0.2047119 0.9290718 -0.3546867
v -0.2600594 0.9560125 -0.5
v -0.2600594 0.9290718 -0.3546867
v -0.30196 1 -0.5
v -0.30196 0.9730594 -0.3546867
v -0.5 1 -0.5
v -0.4730587 0.9730594 -0.3546867
v 0.5 0 -0.5
v 0.5 1 -0.5
v 0.30196 1 -0.5
v 0.2600589 0.9560125 -0.5
v 0.2047114 0.9560125 -0.5
v -0.2047119 0.9560125 -0.5
v -0.5 0 -0.5
v -0.1619339 1 -0.5
v 0.1619344 1 -0.5
v -0.2600594 0.9560125 -0.5
v -0.30196 1 -0.5
v -0.5 1 -0.5
v 0.3978724 0.1021278 -0.3546867
v 0.3746138 0.1244099 -0.3743362
v 0.3746138 0.8421777 -0.3743362
v 0.3978724 0.8644599 -0.3546867
v 0.3746138 0.8421777 -0.3743362
v -0.3746138 0.8421777 -0.3743362
v -0.3978729 0.8644599 -0.3546867
v 0.3978724 0.8644599 -0.3546867
v -0.4730587 0.02694064 -0.3546867
v -0.5 0 -0.5
v -0.5 1 -0.5
v -0.4730587 0.9730594 -0.3546867
v 0.4730592 0.02694064 -0.3546867
v 0.5 0 -0.5
v -0.5 0 -0.5
v -0.4730587 0.02694064 -0.3546867
v 0.3746138 0.8421777 -0.3743362
v 0.3746138 0.1244099 -0.3743362
v -0.3746138 0.1244099 -0.3743362
v -0.3746138 0.8421777 -0.3743362
v 0.2600589 0.9290718 -0.3546867
v 0.30196 0.9730594 -0.3546867
v 0.4730592 0.9730594 -0.3546867
v 0.3978724 0.8644599 -0.3546867
v 0.4730592 0.02694064 -0.3546867
v 0.2047114 0.9290718 -0.3546867
v 0.3978724 0.1021278 -0.3546867
v -0.4730587 0.02694064 -0.3546867
v -0.3978729 0.1021278 -0.3546867
v -0.3978729 0.8644599 -0.3546867
v -0.4730587 0.9730594 -0.3546867
v -0.30196 0.9730594 -0.3546867
v -0.2600594 0.9290718 -0.3546867
v -0.2047119 0.9290718 -0.3546867
v 0.1619344 0.9730594 -0.3546867
v -0.1619339 0.9730594 -0.3546867
v 0.3746138 0.1244099 -0.3743362
v 0.3978724 0.1021278 -0.3546867
v -0.3978729 0.1021278 -0.3546867
v -0.3746138 0.1244099 -0.3743362
v -0.3978729 0.1021278 -0.3546867
v -0.3978729 0.8644599 -0.3546867
v -0.3746138 0.8421777 -0.3743362
v -0.3746138 0.1244099 -0.3743362
v -0.39779 0.2676733 -0.3424492
v -0.3979425 0.2676733 -0.3786392
v -0.02993011 0.8644599 -0.3786392
v -0.02977753 0.8644599 -0.3424492
v -0.3979425 0.1020043 -0.3424492
v -0.3979425 0.1018808 -0.3786392
v -0.3979425 0.2676733 -0.3786392
v -0.39779 0.2676733 -0.3424492
v -0.02977753 0.8644599 -0.3424492
v -0.02993011 0.8644599 -0.3786392
v 0.3970275 0.8644599 -0.3786392
v 0.3971801 0.8644599 -0.3424492
v 0.3971801 0.8644599 -0.3424492
v 0.3970275 0.8644599 -0.3786392
v 0.3970275 0.6919257 -0.3786392
v 0.3971801 0.6919257 -0.3424492
v -0.3173485 0.1020044 -0.3424492
v -0.3173485 0.101881 -0.3786392
v -0.3979425 0.1018808 -0.3786392
v -0.3979425 0.1020043 -0.3424492
v -0.1923816 0.2390224 -0.3424492
v -0.3173485 0.101881 -0.3786392
v -0.3173485 0.1020044 -0.3424492
v -0.1923816 0.2390224 -0.3786392
v -0.01689172 0.2510652 -0.3424492
v -0.01689172 0.2510652 -0.3786392
v 0.06670237 0.3292513 -0.3424492
v 0.06670237 0.3292513 -0.3786392
v 0.1521659 0.3868934 -0.3424492
v 0.1521659 0.3868934 -0.3786392
v 0.2087419 0.4677431 -0.3424492
v 0.2087419 0.4677431 -0.3786392
v 0.2747834 0.5302064 -0.3424492
v 0.2747834 0.5302064 -0.3786392
v 0.3314271 0.6227289 -0.3424492
v 0.3314271 0.6227289 -0.3786392
v 0.3971801 0.6919257 -0.3424492
v 0.3970275 0.6919257 -0.3786392
v 0.3971801 0.8644599 -0.3424492
v 0.3971801 0.6919257 -0.3424492
v -0.02977753 0.8644599 -0.3424492
v 0.3314271 0.6227289 -0.3424492
v -0.39779 0.2676733 -0.3424492
v 0.2747834 0.5302064 -0.3424492
v 0.2087419 0.4677431 -0.3424492
v 0.1521659 0.3868934 -0.3424492
v 0.06670237 0.3292513 -0.3424492
v -0.01689172 0.2510652 -0.3424492
v -0.1923816 0.2390224 -0.3424492
v -0.3173485 0.1020044 -0.3424492
v -0.3979425 0.1020043 -0.3424492
vt 0.6791992 0.1876221
vt 0.3718262 0.1876221
vt 0.3632813 0.2836914
vt 0.6879883 0.2836914
vt 0.3034668 0.0418396
vt 0.3693848 0.1395264
vt 0.3601074 0.0418396
vt 0.3049316 0.1395264
vt 0.2839355 0.0418396
vt 0.2849121 0.1395264
vt 0.2666016 0.0418396
vt 0.2658691 0.1395264
vt 0.246582 0.0418396
vt 0.2458496 0.1395264
vt 0.1387939 0.0418396
vt 0.1396484 0.1395264
vt 0.1195068 0.1395264
vt 0.1188965 0.0418396
vt 0.1005859 0.1395264
vt 0.1015625 0.0418396
vt 0.08062744 0.1395264
vt 0.08190918 0.0418396
vt 0.01602173 0.1395264
vt 0.0252533 0.0418396
vt 0.3640137 0.3222656
vt 0.3640137 0.972168
vt 0.4284668 0.972168
vt 0.4421387 0.9433594
vt 0.4599609 0.9433594
vt 0.5932617 0.9433594
vt 0.6889648 0.3222656
vt 0.5791016 0.972168
vt 0.473877 0.972168
vt 0.6113281 0.9433594
vt 0.6245117 0.972168
vt 0.6889648 0.972168
vt 0.6987305 -0.8125
vt 0.7070313 -0.7910156
vt 0.9780273 -0.7910156
vt 0.9863281 -0.8125
vt 0.7070313 0.2091064
vt 0.9780273 0.2091064
vt 0.9863281 0.1876221
vt 0.6987305 0.1876221
vt 0.02610779 -0.8125
vt 0.01734924 -0.7163086
vt 0.3422852 -0.7163086
vt 0.3334961 -0.8125
vt 0.02610779 0.1876221
vt 0.01734924 0.2836914
vt 0.3422852 0.2836914
vt 0.3334961 0.1876221
vt 0.3059082 0.8823242
vt 0.3059082 0.3903809
vt 0.0491333 0.3903809
vt 0.0491333 0.8823242
vt 0.2666016 0.9418945
vt 0.2810059 0.972168
vt 0.3398438 0.972168
vt 0.3139648 0.8979492
vt 0.3398438 0.3222656
vt 0.2476807 0.9418945
vt 0.3139648 0.375
vt 0.0153656 0.3222656
vt 0.0411377 0.375
vt 0.0411377 0.8979492
vt 0.0153656 0.972168
vt 0.07403564 0.972168
vt 0.08837891 0.9418945
vt 0.1073608 0.9418945
vt 0.2330322 0.972168
vt 0.1220093 0.972168
vt 0.9780273 -0.7910156
vt 0.9863281 -0.8125
vt 0.6987305 -0.8125
vt 0.7070313 -0.7910156
vt 0.9863281 -0.8125
vt 0.6987305 -0.8125
vt 0.7070313 -0.7910156
vt 0.9780273 -0.7910156
vt 0.8359375 0.06719971
vt 0.8359375 0.03723145
vt 0.5825195 0.03723145
vt 0.5825195 0.06719971
vt 0.9082031 0.06719971
vt 0.9082031 0.03723145
vt 0.8359375 0.03723145
vt 0.8359375 0.06719971
vt 0.5825195 0.06719971
vt 0.5825195 0.03723145
vt 0.418457 0.03723145
vt 0.418457 0.06719971
vt 0.8642578 0.1368408
vt 0.8642578 0.1109009
vt 0.7958984 0.1109009
vt 0.7958984 0.1368408
vt 0.4472656 0.1368408
vt 0.4472656 0.1109009
vt 0.4206543 0.1109009
vt 0.4206543 0.1368408
vt 0.4956055 0.1368408
vt 0.4472656 0.1109009
vt 0.4472656 0.1368408
vt 0.4956055 0.1109009
vt 0.5556641 0.1368408
vt 0.5556641 0.1109009
vt 0.59375 0.1368408
vt 0.59375 0.1109009
vt 0.6303711 0.1368408
vt 0.6303711 0.1109009
vt 0.6704102 0.1368408
vt 0.6704102 0.1109009
vt 0.7099609 0.1368408
vt 0.7099609 0.1109009
vt 0.7490234 0.1368408
vt 0.7490234 0.1109009
vt 0.7958984 0.1368408
vt 0.7958984 0.1109009
vt 0.9907227 0.9790039
vt 0.9907227 0.8554688
vt 0.8383789 0.9790039
vt 0.9672852 0.8061523
vt 0.706543 0.5522461
vt 0.9472656 0.7397461
vt 0.9233398 0.6953125
vt 0.9033203 0.637207
vt 0.8725586 0.5961914
vt 0.8427734 0.5400391
vt 0.7802734 0.5317383
vt 0.7353516 0.4335938
vt 0.706543 0.4335938
vn 0.9833984 0 0.182251
vn 0.9833984 0 0.182251
vn 0.9833984 0 0.182251
vn 0.9833984 0 0.182251
vn 0 0.9833984 0.182251
vn 0 0.9833984 0.182251
vn 0 0.9833984 0.182251
vn 0 0.9833984 0.182251
vn -0.3891602 0.9057617 0.1679688
vn -0.421875 0.8916016 0.1652832
vn 0.3867188 0.9067383 0.1680908
vn 0.418457 0.8930664 0.1655273
vn 0.7109375 0.6914063 0.1281738
vn 0.7109375 0.6914063 0.1281738
vn -0.7109375 0.6914063 0.1281738
vn -0.7109375 0.6914063 0.1281738
vn -0.418457 0.8930664 0.1655273
vn -0.3867188 0.9067383 0.1680908
vn 0.421875 0.8916016 0.1652832
vn 0.3891602 0.9057617 0.1679688
vn 0 0.9833984 0.182251
vn 0 0.9833984 0.182251
vn 0 0.9833984 0.182251
vn 0 0.9833984 0.182251
vn 0 0 -1
vn 0 0 -1
vn 0 0 -1
vn 0 0 -1
vn 0 0 -1
vn 0 0 -1
vn 0 0 -1
vn 0 0 -1
vn 0 0 -1
vn 0 0 -1
vn 0 0 -1
vn 0 0 -1
vn -0.6455078 0 0.7636719
vn -0.6455078 0 0.7636719
vn -0.6455078 0 0.7636719
vn -0.6455078 0 0.7636719
vn 0 -0.6616211 0.75
vn 0 -0.6616211 0.75
vn 0 -0.6616211 0.75
vn 0 -0.6616211 0.75
vn -0.9833984 0 0.182251
vn -0.9833984 0 0.182251
vn -0.9833984 0 0.182251
vn -0.9833984 0 0.182251
vn 0 -0.9833984 0.182251
vn 0 -0.9833984 0.182251
vn 0 -0.9833984 0.182251
vn 0 -0.9833984 0.182251
vn 0 0 1
vn 0 0 1
vn 0 0 1
vn 0 0 1
vn 0 0 1
vn 0 0 1
vn 0 0 1
vn 0 0 1
vn 0 0 1
vn 0 0 1
vn 0 0 1
vn 0 0 1
vn 0 0 1
vn 0 0 1
vn 0 0 1
vn 0 0 1
vn 0 0 1
vn 0 0 1
vn 0 0 1
vn 0 0 1
vn 0 0.6616211 0.75
vn 0 0.6616211 0.75
vn 0 0.6616211 0.75
vn 0 0.6616211 0.75
vn 0.6455078 0 0.7636719
vn 0.6455078 0 0.7636719
vn 0.6455078 0 0.7636719
vn 0.6455078 0 0.7636719
vn -0.8510742 0.5249023 0
vn -0.8510742 0.5249023 0
vn -0.8510742 0.5249023 0
vn -0.8510742 0.5249023 0
vn -1 0 0
vn -1 0 0
vn -1 0 0
vn -1 0 0
vn 0 1 0
vn 0 1 0
vn 0 1 0
vn 0 1 0
vn 1 0 0
vn 1 0 0
vn 1 0 0
vn 1 0 0
vn 0 -1 0
vn 0 -1 0
vn 0 -1 0
vn 0 -1 0
vn 0.4785156 -0.8779297 0
vn 0.8251953 -0.5649414 0
vn 0.8251953 -0.5649414 0
vn 0.4785156 -0.8779297 0
vn 0.3791504 -0.925293 0
vn 0.3791504 -0.925293 0
vn 0.5415039 -0.8408203 0
vn 0.5415039 -0.8408203 0
vn 0.6479492 -0.7617188 0
vn 0.6479492 -0.7617188 0
vn 0.6992188 -0.7148438 0
vn 0.6992188 -0.7148438 0
vn 0.6713867 -0.7412109 0
vn 0.6713867 -0.7412109 0
vn 0.7587891 -0.6513672 0
vn 0.7587891 -0.6513672 0
vn 0.6904297 -0.7231445 0
vn 0.6904297 -0.7231445 0
vn 0 0 1
vn 0 0 1
vn 0 0 1
vn 0 0 1
vn 0 0 1
vn 0 0 1
vn 0 0 1
vn 0 0 1
vn 0 0 1
vn 0 0 1
vn 0 0 1
vn 0 0 1
vn 0 0 1
g t012v001_h_0
f 3/3/3 2/2/2 1/1/1
f 4/4/4 3/3/3 1/1/1
f 7/7/7 6/6/6 5/5/5
f 6/6/6 8/8/8 5/5/5
f 5/5/5 8/8/8 9/9/9
f 8/8/8 10/10/10 9/9/9
f 9/9/9 10/10/10 11/11/11
f 10/10/10 12/12/12 11/11/11
f 11/11/11 12/12/12 13/13/13
f 12/12/12 14/14/14 13/13/13
f 15/15/15 13/13/13 14/14/14
f 16/16/16 15/15/15 14/14/14
f 16/16/16 17/17/17 15/15/15
f 17/17/17 18/18/18 15/15/15
f 17/17/17 19/19/19 18/18/18
f 19/19/19 20/20/20 18/18/18
f 19/19/19 21/21/21 20/20/20
f 21/21/21 22/22/22 20/20/20
f 21/21/21 23/23/23 22/22/22
f 23/23/23 24/24/24 22/22/22
f 27/27/27 26/26/26 25/25/25
f 28/28/28 27/27/27 25/25/25
f 29/29/29 28/28/28 25/25/25
f 29/29/29 25/25/25 30/30/30
f 25/25/25 31/31/31 30/30/30
f 30/30/30 32/32/32 29/29/29
f 32/32/32 33/33/33 29/29/29
f 31/31/31 34/34/34 30/30/30
f 35/35/35 34/34/34 31/31/31
f 36/36/36 35/35/35 31/31/31
f 39/39/39 38/38/38 37/37/37
f 40/40/40 39/39/39 37/37/37
f 43/43/43 42/42/42 41/41/41
f 44/44/44 43/43/43 41/41/41
f 47/47/47 46/46/46 45/45/45
f 48/48/48 47/47/47 45/45/45
f 51/51/51 50/50/50 49/49/49
f 52/52/52 51/51/51 49/49/49
f 55/55/55 54/54/54 53/53/53
f 56/56/56 55/55/55 53/53/53
f 59/59/59 58/58/58 57/57/57
f 60/60/60 59/59/59 57/57/57
f 59/59/59 60/60/60 61/61/61
f 60/60/60 57/57/57 62/62/62
f 60/60/60 63/63/63 61/61/61
f 64/64/64 61/61/61 63/63/63
f 65/65/65 64/64/64 63/63/63
f 65/65/65 66/66/66 64/64/64
f 66/66/66 60/60/60 62/62/62
f 66/66/66 67/67/67 64/64/64
f 68/68/68 67/67/67 66/66/66
f 69/69/69 68/68/68 66/66/66
f 70/70/70 69/69/69 66/66/66
f 70/70/70 66/66/66 62/62/62
f 70/70/70 62/62/62 71/71/71
f 72/72/72 70/70/70 71/71/71
f 75/75/75 74/74/74 73/73/73
f 76/76/76 75/75/75 73/73/73
f 79/79/79 78/78/78 77/77/77
f 80/80/80 79/79/79 77/77/77
f 83/83/83 82/82/82 81/81/81
f 84/84/84 83/83/83 81/81/81
f 87/87/87 86/86/86 85/85/85
f 88/88/88 87/87/87 85/85/85
f 91/91/91 90/90/90 89/89/89
f 92/92/92 91/91/91 89/89/89
f 95/95/95 94/94/94 93/93/93
f 96/96/96 95/95/95 93/93/93
f 99/99/99 98/98/98 97/97/97
f 100/100/100 99/99/99 97/97/97
f 103/103/103 102/102/102 101/101/101
f 102/102/102 104/104/104 101/101/101
f 101/101/101 104/104/104 105/105/105
f 104/104/104 106/106/106 105/105/105
f 105/105/105 106/106/106 107/107/107
f 106/106/106 108/108/108 107/107/107
f 107/107/107 108/108/108 109/109/109
f 108/108/108 110/110/110 109/109/109
f 109/109/109 110/110/110 111/111/111
f 110/110/110 112/112/112 111/111/111
f 111/111/111 112/112/112 113/113/113
f 112/112/112 114/114/114 113/113/113
f 113/113/113 114/114/114 115/115/115
f 114/114/114 116/116/116 115/115/115
f 117/117/117 115/115/115 116/116/116
f 118/118/118 117/117/117 116/116/116
f 121/121/121 120/120/120 119/119/119
f 121/121/121 122/122/122 120/120/120
f 123/123/123 122/122/122 121/121/121
f 123/123/123 124/124/124 122/122/122
f 123/123/123 125/125/125 124/124/124
f 123/123/123 126/126/126 125/125/125
f 123/123/123 127/127/127 126/126/126
f 123/123/123 128/128/128 127/127/127
f 123/123/123 129/129/129 128/128/128
f 123/123/123 130/130/130 129/129/129
f 131/131/131 130/130/130 123/123/123
