#
# OBJECT NAME
#
o model_2088
mtllib 2088.mtl

#
# VERTEX BUFFER 000
#
v 0.499 0 -0.499
v 0 0.019111 -0.449392
v 0.320678 0.019111 -0.320678
v 0.0883954 0.210515 -0.0883954
v 0 0.227783 1.14125e-007
v 0.131143 0.210515 1.14125e-007
v -0.499 0 0.499
v 0 0.019111 0.449392
v -0.320678 0.019111 0.320678
v 0.499 0 0.499
v -0.499 0 0.499
v -0.499 0 -0.499
v 0.499 0 -0.499
v -0.499 0 -0.499
v -0.449392 0.019111 0
v -0.320678 0.019111 -0.320678
v 0.499 0 0.499
v 0.449392 0.019111 0
v 0 0.210515 0.131143
v -0.0883961 0.210515 0.0883957
v 0 0.210515 -0.131143
v -0.0883961 0.210515 -0.0883954
v -0.131143 0.210515 1.14125e-007
v 0 0.150797 -0.29123
v -0.206702 0.150797 -0.206701
v 0.29123 0.150797 1.15047e-007
v 0.206701 0.150797 -0.206701
v 0.0883954 0.210515 0.0883957
v 0 0.150797 0.29123
v 0.206701 0.150797 0.206701
v -0.291231 0.150797 1.15047e-007
v -0.206702 0.150797 0.206701
v 0.320678 0.019111 0.320678

vn 0.0654297 0.995605 -0.0654297
vn 0 0.876465 -0.480469
vn 0.248169 0.936035 -0.248169
vn 0.225098 0.947754 -0.225098
vn 0 1 0
vn 0.317627 0.947754 0
vn -0.0654297 0.995605 0.0654297
vn 0 0.876465 0.480469
vn -0.248169 0.936035 0.248169
vn 0 -1 0
vn 0 -1 0
vn 0 -1 0
vn 0 -1 0
vn -0.0654297 0.995605 -0.0654297
vn -0.480469 0.876465 0
vn -0.248169 0.936035 -0.248169
vn 0.0654297 0.995605 0.0654297
vn 0.480469 0.876465 0
vn 0 0.947754 0.317627
vn -0.225098 0.947754 0.225098
vn 0 0.947754 -0.317627
vn -0.225098 0.947754 -0.225098
vn -0.317627 0.947754 0
vn 0 0.818848 -0.57373
vn -0.405029 0.819336 -0.405029
vn 0.57373 0.818848 0
vn 0.405029 0.819336 -0.405029
vn 0.225098 0.947754 0.225098
vn 0 0.818848 0.57373
vn 0.405029 0.819336 0.405029
vn -0.57373 0.818848 0
vn -0.405029 0.819336 0.405029
vn 0.248169 0.936035 0.248169

vt 0.503294 0.00361943
vt 0.626114 0.0283191
vt 0.547347 0.0907284
vt 0.60755 0.210826
vt 0.626477 0.248787
vt 0.59843 0.248787
vt 0.749617 0.495431
vt 0.626114 0.47019
vt 0.705216 0.40735
vt 0.503294 0.495431
vt 0.749617 0.495431
vt 0.749617 0.00361943
vt 0.503294 0.00361943
vt 0.749617 0.00361943
vt 0.736273 0.249254
vt 0.705216 0.0907284
vt 0.503294 0.495431
vt 0.515955 0.249254
vt 0.626477 0.305039
vt 0.645405 0.286749
vt 0.626477 0.192536
vt 0.645405 0.210826
vt 0.654525 0.248787
vt 0.626477 0.113551
vt 0.674405 0.152663
vt 0.559048 0.248787
vt 0.578549 0.152663
vt 0.60755 0.286749
vt 0.626477 0.384024
vt 0.578549 0.344912
vt 0.693906 0.248787
vt 0.674405 0.344912
vt 0.547347 0.40735


#
# MESH 000
#
g surface_000
usemtl surface_000
f 10/10/10 12/12/12 13/13/13
f 10/10/10 11/11/11 12/12/12
f 1/1/1 14/14/14 2/2/2
f 2/2/2 14/14/14 16/16/16
f 24/24/24 2/2/2 16/16/16
f 3/3/3 2/2/2 24/24/24
f 1/1/1 2/2/2 3/3/3
f 18/18/18 1/1/1 3/3/3
f 17/17/17 1/1/1 18/18/18
f 14/14/14 15/15/15 16/16/16
f 16/16/16 15/15/15 31/31/31
f 16/16/16 31/31/31 25/25/25
f 24/24/24 16/16/16 25/25/25
f 21/21/21 24/24/24 25/25/25
f 27/27/27 24/24/24 21/21/21
f 3/3/3 24/24/24 27/27/27
f 26/26/26 3/3/3 27/27/27
f 26/26/26 18/18/18 3/3/3
f 14/14/14 7/7/7 15/15/15
f 15/15/15 7/7/7 9/9/9
f 31/31/31 15/15/15 9/9/9
f 31/31/31 9/9/9 32/32/32
f 23/23/23 31/31/31 32/32/32
f 25/25/25 31/31/31 23/23/23
f 25/25/25 23/23/23 22/22/22
f 21/21/21 25/25/25 22/22/22
f 5/5/5 21/21/21 22/22/22
f 4/4/4 21/21/21 5/5/5
f 27/27/27 21/21/21 4/4/4
f 7/7/7 8/8/8 9/9/9
f 8/8/8 32/32/32 9/9/9
f 8/8/8 29/29/29 32/32/32
f 32/32/32 29/29/29 19/19/19
f 32/32/32 19/19/19 20/20/20
f 23/23/23 32/32/32 20/20/20
f 20/20/20 5/5/5 23/23/23
f 23/23/23 5/5/5 22/22/22
f 17/17/17 8/8/8 7/7/7
f 33/33/33 8/8/8 17/17/17
f 30/30/30 8/8/8 33/33/33
f 30/30/30 29/29/29 8/8/8
f 28/28/28 29/29/29 30/30/30
f 28/28/28 19/19/19 29/29/29
f 28/28/28 5/5/5 19/19/19
f 19/19/19 5/5/5 20/20/20
f 17/17/17 18/18/18 33/33/33
f 33/33/33 18/18/18 26/26/26
f 33/33/33 26/26/26 30/30/30
f 30/30/30 26/26/26 6/6/6
f 30/30/30 6/6/6 28/28/28
f 6/6/6 5/5/5 28/28/28
f 4/4/4 5/5/5 6/6/6
f 6/6/6 27/27/27 4/4/4
f 6/6/6 26/26/26 27/27/27

