#
# OBJECT NAME
#
o model_2093
mtllib 2093.mtl

#
# VERTEX BUFFER 000
#
v 0.499 0 -0.499
v -0.160339 0.0386106 -0.385035
v 0.385035 0.0386106 -0.160339
v -0.499 0 0.499
v 0.160339 0.0386106 0.385035
v -0.385035 0.0386106 0.160339
v 0.499 0 0.499
v -0.499 0 0.499
v -0.499 0 -0.499
v 0.499 0 -0.499
v -0.499 0 -0.499
v 0.499 0 0.499
v 0.0720869 0.187604 0.175178
v 0 0.231328 1.14125e-007
v -0.175178 0.187604 0.0720873
v -0.0720875 0.187604 -0.175178
v 0.175177 0.187604 -0.0720873

vn 0.078125 0.991211 -0.102783
vn -0.0889893 0.958008 -0.272461
vn 0.272461 0.958008 -0.0889893
vn -0.078125 0.991211 0.102783
vn 0.0889893 0.958008 0.272461
vn -0.272461 0.958008 0.0889893
vn 0 -1 0
vn 0 -1 0
vn 0 -1 0
vn 0 -1 0
vn -0.102783 0.991211 -0.078125
vn 0.102783 0.991211 0.078125
vn 0.200073 0.850586 0.485596
vn 2.38419e-007 1 1.19209e-007
vn -0.485596 0.850586 0.200073
vn -0.200073 0.850586 -0.485596
vn 0.485596 0.850586 -0.200073

vt 0.749617 0.000669122
vt 0.915773 0.057363
vt 0.77916 0.16994
vt 0.995 0.500669
vt 0.835449 0.443166
vt 0.972062 0.330589
vt 0.749617 0.500669
vt 0.995 0.500669
vt 0.995 0.000669122
vt 0.749617 0.000669122
vt 0.995 0.000669122
vt 0.749617 0.500669
vt 0.858333 0.335212
vt 0.87588 0.249919
vt 0.918527 0.285014
vt 0.893428 0.164626
vt 0.833234 0.214824


#
# MESH 000
#
g surface_000
usemtl surface_000
f 7/7/7 9/9/9 10/10/10
f 7/7/7 8/8/8 9/9/9
f 1/1/1 11/11/11 2/2/2
f 11/11/11 6/6/6 2/2/2
f 2/2/2 6/6/6 15/15/15
f 2/2/2 15/15/15 16/16/16
f 3/3/3 2/2/2 16/16/16
f 1/1/1 2/2/2 3/3/3
f 12/12/12 1/1/1 3/3/3
f 12/12/12 3/3/3 5/5/5
f 12/12/12 5/5/5 4/4/4
f 11/11/11 4/4/4 6/6/6
f 4/4/4 5/5/5 6/6/6
f 5/5/5 15/15/15 6/6/6
f 5/5/5 13/13/13 15/15/15
f 13/13/13 14/14/14 15/15/15
f 15/15/15 14/14/14 16/16/16
f 17/17/17 16/16/16 14/14/14
f 3/3/3 16/16/16 17/17/17
f 5/5/5 3/3/3 17/17/17
f 5/5/5 17/17/17 13/13/13
f 17/17/17 14/14/14 13/13/13

