#
# OBJECT NAME
#
o model_1206
mtllib 1206.mtl

#
# VERTEX BUFFER 000
#
v 0.120624 0.0928858 -0.282759
v 0.205725 0.580715 -0.447259
v -0.0244675 0.50335 -0.408767
v 0.546461 0.18519 -0.458853
v 0.401368 0.595653 -0.523528
v -0.0787659 0.625778 -0.263567
v 0.160933 1.01497 -0.39995
v -0.0654144 1.02127 -0.405473
v 0.330179 0.559712 -0.380519
v 0.343529 0.955202 -0.522426
v 0.193652 1 -0.5
v 0.00825691 1 -0.41241
v 0.193652 0 -0.5
v 0.00825691 0 -0.41241
v -0.177138 1 -0.5
v -0.177138 0 -0.5
v -0.313606 -0.0595722 -0.39986
v -0.152736 0.343885 -0.458252
v -0.343455 0.312874 -0.505173
v 0.074605 -0.0168901 -0.325973
v 0.044755 0.355555 -0.431287
v 0.00958497 0.437258 -0.352963
v 0.0257867 0.522754 -0.395888
v 0.0343845 0.426742 -0.419834
v 0.0125088 0.489853 -0.302422
v 0.0414437 0.553718 -0.297816
v 0.0794397 0.591442 -0.341844
v 0.100197 0.359649 -0.399653
v 0.0651245 0.374521 -0.305084
v 0.0692596 0.448902 -0.233608
v 0.11018 0.539221 -0.227095
v 0.163914 0.592571 -0.289358
v 0.184671 0.360778 -0.347168
v 0.159871 0.371293 -0.280298
v 0.162795 0.423889 -0.229756
v 0.19173 0.487754 -0.225151
v 0.229726 0.525478 -0.269178
v 0.238324 0.429466 -0.293123
v 0.0723805 0.464466 -0.463861
v 0.0343845 0.426742 -0.419834
v 0.0257867 0.522754 -0.395888
v 0.101315 0.528331 -0.459255
v 0.104239 0.580927 -0.408714
v 0.0794397 0.591442 -0.341844
v 0.153931 0.412999 -0.461917
v 0.100197 0.359649 -0.399653
v 0.194851 0.503318 -0.455403
v 0.198986 0.577699 -0.383927
v 0.163914 0.592571 -0.289358
v 0.222667 0.398502 -0.391195
v 0.184671 0.360778 -0.347168
v 0.251602 0.462367 -0.386589
v 0.254526 0.514962 -0.336048
v 0.229726 0.525478 -0.269178
v 0.238324 0.429466 -0.293123
v -0.0310718 0.719793 -0.43827
v -0.0182613 0.699539 -0.449343
v -0.0407486 0.695141 -0.460517
v -0.0102375 0.698273 -0.424799
v -0.0199142 0.673622 -0.447046
v -0.0932375 0.67365 -0.413645
v -0.0835606 0.698301 -0.391399
v -0.0310718 0.719793 -0.43827
v -0.0407486 0.695141 -0.460517
v -0.0627263 0.676782 -0.377927
v -0.0102375 0.698273 -0.424799
v -0.0724031 0.652131 -0.400174
v -0.0199142 0.673622 -0.447046
v -0.0724031 0.652131 -0.400174
v -0.0199142 0.673622 -0.447046
v -0.0232288 0.4131 -0.433566
v -0.0146014 0.391915 -0.454955
v -0.0441658 0.388857 -0.460358
v 0.0052873 0.385565 -0.432522
v -0.0156497 0.361322 -0.459315
v -0.0800428 0.353956 -0.400531
v -0.0591057 0.378199 -0.373738
v -0.0232288 0.4131 -0.433566
v -0.0441658 0.388857 -0.460358
v -0.0305897 0.350664 -0.372695
v 0.0052873 0.385565 -0.432522
v -0.0515267 0.326421 -0.399487
v -0.0156497 0.361322 -0.459315
v -0.0515267 0.326421 -0.399487
v -0.0156497 0.361322 -0.459315
v 0.0156503 0.556151 -0.417482
v 0.0199766 0.541685 -0.431907
v 0.00744383 0.529561 -0.42185
v 0.0383138 0.550574 -0.430546
v 0.0301073 0.523985 -0.434914
v 0.0282301 0.51638 -0.380174
v 0.0364366 0.542969 -0.375806
v 0.0156503 0.556151 -0.417482
v 0.00744383 0.529561 -0.42185
v 0.0591001 0.537393 -0.38887
v 0.0383138 0.550574 -0.430546
v 0.0508936 0.510803 -0.393238
v 0.0301073 0.523985 -0.434914
v 0.0508936 0.510803 -0.393238
v 0.0301073 0.523985 -0.434914
v -0.0922951 0.276558 -0.428111
v -0.032796 0.364285 -0.40187
v -0.0190726 0.253346 -0.401985
v -0.141645 0.341629 -0.419137
v -0.138213 0.410441 -0.38032
v -0.0840102 0.442684 -0.334398
v -0.0508791 0.174852 -0.334676
v -0.154431 0.20768 -0.371624
v -0.224222 0.299704 -0.358932
v -0.219369 0.397018 -0.304036
v -0.142715 0.442617 -0.239093
v -0.109584 0.174785 -0.239371
v -0.182806 0.197997 -0.265497
v -0.232156 0.263068 -0.256522
v -0.228724 0.33188 -0.217705
v -0.174521 0.364123 -0.171783
v -0.160798 0.253183 -0.171898
v 0.03513 0.285589 -0.356064
v -0.0190726 0.253346 -0.401985
v -0.032796 0.364285 -0.40187
v 0.0385618 0.3544 -0.317246
v -0.0107878 0.419471 -0.308272
v -0.0840102 0.442684 -0.334398
v 0.0257751 0.220451 -0.269733
v -0.0508791 0.174852 -0.334676
v 0.0306282 0.317765 -0.214836
v -0.0391625 0.409789 -0.202145
v -0.142715 0.442617 -0.239093
v -0.0553809 0.207028 -0.193449
v -0.109584 0.174785 -0.239371
v -0.0519491 0.275839 -0.154631
v -0.101299 0.34091 -0.145657
v -0.174521 0.364123 -0.171783
v -0.160798 0.253183 -0.171898
v -0.117261 0.610409 -0.458941
v -0.0534288 0.682765 -0.422879
v -0.0615821 0.577757 -0.417818
v -0.151543 0.679781 -0.463239
v -0.144345 0.745236 -0.428194
v -0.0998853 0.768431 -0.374334
v -0.119569 0.514921 -0.362117
v -0.198311 0.561097 -0.420274
v -0.246792 0.659203 -0.426352
v -0.236614 0.751771 -0.37679
v -0.173738 0.784575 -0.300622
v -0.193422 0.531064 -0.288404
v -0.249101 0.563715 -0.329527
v -0.283382 0.633087 -0.333825
v -0.276185 0.698542 -0.29878
v -0.231725 0.721738 -0.244921
v -0.239878 0.61673 -0.23986
v -0.0171221 0.600953 -0.363959
v -0.0615821 0.577757 -0.417818
v -0.0534288 0.682765 -0.422879
v -0.00992492 0.666408 -0.328913
v -0.0442066 0.73578 -0.333211
v -0.0998853 0.768431 -0.374334
v -0.0566932 0.547725 -0.285948
v -0.119569 0.514921 -0.362117
v -0.0465148 0.640292 -0.236387
v -0.0949962 0.738398 -0.242465
v -0.173738 0.784575 -0.300622
v -0.148962 0.554259 -0.234545
v -0.193422 0.531064 -0.288404
v -0.141765 0.619714 -0.199499
v -0.176046 0.689086 -0.203797
v -0.231725 0.721738 -0.244921
v -0.239878 0.61673 -0.23986

vn 0.274902 0.263672 0.924316
vn 0.303223 0.314941 0.898926
vn 0.0542908 0.310303 0.94873
vn 0.356689 0.281006 0.890625
vn 0.50293 0.411133 0.759766
vn 0.239746 0.186157 0.952637
vn 0.299316 0.236572 0.923828
vn -0.0135574 0.337891 0.940918
vn 0.354004 0.170898 0.918945
vn 0.594238 0.253418 0.762695
vn 0.427002 0 0.903809
vn 0 0 1
vn 0.427002 0 0.903809
vn 0 0 1
vn -0.427002 0 0.903809
vn -0.427002 0 0.903809
vn -0.255371 0.106445 0.960449
vn -0.205322 0.172607 0.962891
vn -0.508789 0.196045 0.837891
vn -0.13855 0.122559 0.982422
vn 0.114258 0.278564 0.953125
vn -0.885742 -0.457764 0.074585
vn -0.834473 0.402344 -0.375244
vn -0.662598 -0.547363 -0.510254
vn -0.875488 0.00161552 0.482666
vn -0.624023 0.600098 0.499512
vn -0.258057 0.961914 0.085083
vn -0.229248 -0.904785 -0.357666
vn -0.510254 -0.793945 0.329834
vn -0.505859 -0.24707 0.825684
vn -0.203857 0.469727 0.858887
vn 0.229248 0.904785 0.357666
vn 0.258057 -0.961914 -0.085083
vn 0.0179749 -0.875977 0.481689
vn 0.0282593 -0.429443 0.902344
vn 0.296875 0.171997 0.938965
vn 0.662598 0.547363 0.510254
vn 0.834473 -0.402344 0.375244
vn -0.296875 -0.171997 -0.938965
vn -0.662598 -0.547363 -0.510254
vn -0.834473 0.402344 -0.375244
vn -0.0282593 0.429443 -0.902344
vn -0.0179749 0.875977 -0.481689
vn -0.258057 0.961914 0.085083
vn 0.203857 -0.469727 -0.858887
vn -0.229248 -0.904785 -0.357666
vn 0.505859 0.24707 -0.825684
vn 0.510254 0.793945 -0.329834
vn 0.229248 0.904785 0.357666
vn 0.624023 -0.600098 -0.499512
vn 0.258057 -0.961914 -0.085083
vn 0.875488 -0.00161648 -0.482666
vn 0.885742 0.457764 -0.074585
vn 0.662598 0.547363 0.510254
vn 0.834473 -0.402344 0.375244
vn -0.201416 0.975586 0.0872192
vn 0.712891 0.291748 -0.636719
vn -0.598633 0.00628281 -0.800781
vn 0.720215 0.0433044 0.691895
vn 0.322754 -0.925781 -0.196167
vn -0.661621 -0.016983 -0.749023
vn -0.263428 0.953613 0.142334
vn -0.201416 0.975586 0.0872192
vn -0.598633 0.00628281 -0.800781
vn 0.661621 0.0180817 0.749023
vn 0.720215 0.0433044 0.691895
vn 0.264404 -0.953613 -0.141235
vn 0.322754 -0.925781 -0.196167
vn 0.264404 -0.953613 -0.141235
vn 0.322754 -0.925781 -0.196167
vn -0.129028 0.931152 0.34082
vn 0.459717 0.447021 -0.76709
vn -0.830566 0.144409 -0.537598
vn 0.918457 -0.0591125 0.390869
vn 0.216431 -0.845703 -0.487061
vn -0.878418 0.103821 -0.466064
vn -0.174072 0.89209 0.416016
vn -0.129028 0.931152 0.34082
vn -0.830566 0.144409 -0.537598
vn 0.87793 -0.102905 0.466553
vn 0.918457 -0.0591125 0.390869
vn 0.175171 -0.89209 -0.415527
vn 0.216431 -0.845703 -0.487061
vn 0.175171 -0.89209 -0.415527
vn 0.216431 -0.845703 -0.487061
vn -0.451416 0.814453 0.363281
vn -0.429443 0.271973 -0.86084
vn -0.86377 -0.477051 0.161377
vn 0.775391 0.532715 -0.338135
vn 0.363281 -0.759277 -0.539551
vn -0.824707 -0.506348 0.251221
vn -0.409668 0.790527 0.454346
vn -0.451416 0.814453 0.363281
vn -0.86377 -0.477051 0.161377
vn 0.824219 0.506836 -0.250732
vn 0.775391 0.532715 -0.338135
vn 0.4104 -0.790039 -0.45459
vn 0.363281 -0.759277 -0.539551
vn 0.4104 -0.790039 -0.45459
vn 0.363281 -0.759277 -0.539551
vn -0.127075 -0.365479 -0.921875
vn 0.423096 0.426514 -0.798828
vn 0.442383 -0.543945 -0.712402
vn -0.477051 0.137085 -0.867676
vn -0.422119 0.708984 -0.564453
vn 0.0319519 0.984375 -0.171509
vn 0.246826 -0.91748 -0.311035
vn -0.421875 -0.700195 -0.575195
vn -0.848633 -0.100342 -0.519043
vn -0.79541 0.585449 -0.154419
vn -0.246826 0.91748 0.311035
vn -0.0319519 -0.984375 0.171509
vn -0.583496 -0.80957 -0.0552673
vn -0.947754 -0.318604 -0.00213814
vn -0.912109 0.256592 0.318848
vn -0.442383 0.543945 0.712402
vn -0.423096 -0.426514 0.798828
vn 0.912109 -0.256592 -0.318848
vn 0.442383 -0.543945 -0.712402
vn 0.423096 0.426514 -0.798828
vn 0.947754 0.318604 0.00213623
vn 0.583496 0.80957 0.0552673
vn 0.0319519 0.984375 -0.171509
vn 0.79541 -0.585449 0.154419
vn 0.246826 -0.91748 -0.311035
vn 0.848633 0.100342 0.519043
vn 0.421875 0.700195 0.575195
vn -0.246826 0.91748 0.311035
vn 0.422119 -0.708984 0.564453
vn -0.0319519 -0.984375 0.171509
vn 0.477051 -0.137085 0.867676
vn 0.127075 0.365479 0.921875
vn -0.442383 0.543945 0.712402
vn -0.423096 -0.426514 0.798828
vn 0.0239563 -0.395508 -0.917969
vn 0.673828 0.287109 -0.680176
vn 0.481934 -0.662109 -0.572754
vn -0.223267 0.165527 -0.960449
vn -0.130371 0.73584 -0.663574
vn 0.263428 0.947754 -0.17749
vn 0.128296 -0.96582 -0.223999
vn -0.403809 -0.645996 -0.646973
vn -0.705566 0.0247498 -0.708008
vn -0.605957 0.711426 -0.354492
vn -0.128296 0.96582 0.223999
vn -0.263428 -0.947754 0.17749
vn -0.701172 -0.689453 -0.179932
vn -0.963867 -0.136841 -0.22644
vn -0.893066 0.441895 0.0823975
vn -0.481934 0.662109 0.572754
vn -0.673828 -0.287109 0.680176
vn 0.893066 -0.441895 -0.0823975
vn 0.481934 -0.662109 -0.572754
vn 0.673828 0.287109 -0.680176
vn 0.963867 0.136841 0.22644
vn 0.701172 0.689453 0.179932
vn 0.263428 0.947754 -0.17749
vn 0.605957 -0.711426 0.354492
vn 0.128296 -0.96582 -0.223999
vn 0.705566 -0.0247498 0.708008
vn 0.403809 0.645996 0.646973
vn -0.128296 0.96582 0.223999
vn 0.130371 -0.73584 0.663574
vn -0.263428 -0.947754 0.17749
vn 0.223267 -0.165527 0.960449
vn -0.0239563 0.395508 0.917969
vn -0.481934 0.662109 0.572754
vn -0.673828 -0.287109 0.680176

vt 0.220617 0.00172496
vt 0.352699 0.493871
vt 0.220617 0.493871
vt 0.486432 0.00172496
vt 0.486432 0.493871
vt 0.220617 0.500432
vt 0.352699 0.992578
vt 0.220617 0.992578
vt 0.486432 0.500432
vt 0.486432 0.992578
vt 0.179661 1
vt 0.0902644 1
vt 0.179661 0
vt 0.0902644 0
vt 0.000867678 1
vt 0.000867678 0
vt 0.220617 0.500432
vt 0.352699 0.992578
vt 0.220617 0.992578
vt 0.486432 0.500432
vt 0.486432 0.992578
vt 0.583616 0.108554
vt 0.62633 0.0282536
vt 0.539242 0.105771
vt 0.62633 0.108554
vt 0.669045 0.108554
vt 0.713517 0.105771
vt 0.507833 0.237323
vt 0.565923 0.237323
vt 0.62633 0.237323
vt 0.686738 0.237323
vt 0.744828 0.237323
vt 0.537585 0.379775
vt 0.583616 0.366536
vt 0.62633 0.366536
vt 0.669045 0.366536
vt 0.711348 0.382982
vt 0.62633 0.467776
vt 0.583616 0.108554
vt 0.539242 0.105771
vt 0.62633 0.0282536
vt 0.62633 0.108554
vt 0.669045 0.108554
vt 0.713517 0.105771
vt 0.565923 0.237323
vt 0.507833 0.237323
vt 0.62633 0.237323
vt 0.686738 0.237323
vt 0.744828 0.237323
vt 0.583616 0.366536
vt 0.537585 0.379775
vt 0.62633 0.366536
vt 0.669045 0.366536
vt 0.711348 0.382982
vt 0.62633 0.467776
vt 0.770368 0.473225
vt 0.78642 0.479627
vt 0.779957 0.495153
vt 0.793054 0.464055
vt 0.802472 0.486172
vt 0.843549 0.453417
vt 0.815713 0.453417
vt 0.815713 0.409473
vt 0.843549 0.409473
vt 0.789058 0.453417
vt 0.789058 0.409473
vt 0.864462 0.453417
vt 0.864462 0.409473
vt 0.76222 0.453417
vt 0.76222 0.409473
vt 0.802472 0.486172
vt 0.78642 0.479627
vt 0.793054 0.464055
vt 0.779957 0.495153
vt 0.770368 0.473225
vt 0.775636 0.409473
vt 0.802379 0.409473
vt 0.802379 0.453417
vt 0.775636 0.453417
vt 0.828726 0.409473
vt 0.828726 0.453417
vt 0.755657 0.409473
vt 0.755657 0.453417
vt 0.858201 0.409473
vt 0.858201 0.453417
vt 0.770368 0.473225
vt 0.78642 0.479627
vt 0.779957 0.495153
vt 0.793054 0.464055
vt 0.802472 0.486172
vt 0.775636 0.409473
vt 0.802379 0.409473
vt 0.802379 0.453417
vt 0.775636 0.453417
vt 0.828726 0.409473
vt 0.828726 0.453417
vt 0.755657 0.409473
vt 0.755657 0.453417
vt 0.858201 0.409473
vt 0.858201 0.453417
vt 0.582285 0.609173
vt 0.625 0.528872
vt 0.537911 0.60639
vt 0.625 0.609173
vt 0.667715 0.609173
vt 0.712186 0.60639
vt 0.506503 0.737941
vt 0.564592 0.737941
vt 0.625 0.737941
vt 0.685408 0.737941
vt 0.743497 0.737941
vt 0.536255 0.880394
vt 0.582285 0.867155
vt 0.625 0.867155
vt 0.667715 0.867155
vt 0.710018 0.883601
vt 0.625 0.968395
vt 0.582285 0.609173
vt 0.537911 0.60639
vt 0.625 0.528872
vt 0.625 0.609173
vt 0.667715 0.609173
vt 0.712186 0.60639
vt 0.564592 0.737941
vt 0.506503 0.737941
vt 0.625 0.737941
vt 0.685408 0.737941
vt 0.743497 0.737941
vt 0.582285 0.867155
vt 0.536255 0.880394
vt 0.625 0.867155
vt 0.667715 0.867155
vt 0.710018 0.883601
vt 0.625 0.968395
vt 0.832285 0.609173
vt 0.875 0.528872
vt 0.787911 0.60639
vt 0.875 0.609173
vt 0.917715 0.609173
vt 0.962186 0.60639
vt 0.756503 0.737941
vt 0.814592 0.737941
vt 0.875 0.737941
vt 0.935408 0.737941
vt 0.993497 0.737941
vt 0.786255 0.880394
vt 0.832285 0.867155
vt 0.875 0.867155
vt 0.917715 0.867155
vt 0.960018 0.883601
vt 0.875 0.968395
vt 0.832285 0.609173
vt 0.787911 0.60639
vt 0.875 0.528872
vt 0.875 0.609173
vt 0.917715 0.609173
vt 0.962186 0.60639
vt 0.814592 0.737941
vt 0.756503 0.737941
vt 0.875 0.737941
vt 0.935408 0.737941
vt 0.993497 0.737941
vt 0.832285 0.867155
vt 0.786255 0.880394
vt 0.875 0.867155
vt 0.917715 0.867155
vt 0.960018 0.883601
vt 0.875 0.968395


#
# MESH 000
#
g surface_000
usemtl surface_000
f 20/20/20 21/21/21 18/18/18
f 20/20/20 18/18/18 17/17/17
f 17/17/17 18/18/18 19/19/19
f 14/14/14 15/15/15 16/16/16
f 12/12/12 15/15/15 14/14/14
f 13/13/13 12/12/12 14/14/14
f 11/11/11 12/12/12 13/13/13
f 9/9/9 10/10/10 7/7/7
f 9/9/9 7/7/7 6/6/6
f 6/6/6 7/7/7 8/8/8
f 4/4/4 5/5/5 2/2/2
f 4/4/4 2/2/2 1/1/1
f 1/1/1 2/2/2 3/3/3
f 54/54/54 55/55/55 53/53/53
f 53/53/53 55/55/55 52/52/52
f 48/48/48 53/53/53 52/52/52
f 49/49/49 53/53/53 48/48/48
f 49/49/49 54/54/54 53/53/53
f 52/52/52 55/55/55 50/50/50
f 47/47/47 52/52/52 50/50/50
f 48/48/48 52/52/52 47/47/47
f 43/43/43 48/48/48 47/47/47
f 44/44/44 48/48/48 43/43/43
f 44/44/44 49/49/49 48/48/48
f 50/50/50 55/55/55 51/51/51
f 45/45/45 50/50/50 51/51/51
f 47/47/47 50/50/50 45/45/45
f 42/42/42 47/47/47 45/45/45
f 43/43/43 47/47/47 42/42/42
f 43/43/43 42/42/42 41/41/41
f 41/41/41 44/44/44 43/43/43
f 45/45/45 51/51/51 46/46/46
f 39/39/39 45/45/45 46/46/46
f 42/42/42 45/45/45 39/39/39
f 42/42/42 39/39/39 41/41/41
f 39/39/39 40/40/40 41/41/41
f 39/39/39 46/46/46 40/40/40
f 37/37/37 36/36/36 38/38/38
f 32/32/32 36/36/36 37/37/37
f 32/32/32 31/31/31 36/36/36
f 31/31/31 35/35/35 36/36/36
f 36/36/36 35/35/35 38/38/38
f 35/35/35 34/34/34 38/38/38
f 34/34/34 33/33/33 38/38/38
f 29/29/29 33/33/33 34/34/34
f 29/29/29 28/28/28 33/33/33
f 27/27/27 31/31/31 32/32/32
f 27/27/27 26/26/26 31/31/31
f 26/26/26 30/30/30 31/31/31
f 31/31/31 30/30/30 35/35/35
f 30/30/30 34/34/34 35/35/35
f 30/30/30 29/29/29 34/34/34
f 25/25/25 29/29/29 30/30/30
f 25/25/25 22/22/22 29/29/29
f 22/22/22 28/28/28 29/29/29
f 22/22/22 24/24/24 28/28/28
f 22/22/22 23/23/23 24/24/24
f 23/23/23 26/26/26 27/27/27
f 26/26/26 23/23/23 25/25/25
f 26/26/26 25/25/25 30/30/30
f 25/25/25 23/23/23 22/22/22
f 65/65/65 69/69/69 70/70/70
f 65/65/65 70/70/70 66/66/66
f 62/62/62 65/65/65 66/66/66
f 62/62/62 66/66/66 63/63/63
f 61/61/61 62/62/62 63/63/63
f 61/61/61 63/63/63 64/64/64
f 67/67/67 61/61/61 64/64/64
f 67/67/67 64/64/64 68/68/68
f 60/60/60 57/57/57 59/59/59
f 58/58/58 57/57/57 60/60/60
f 56/56/56 57/57/57 58/58/58
f 59/59/59 57/57/57 56/56/56
f 80/80/80 84/84/84 85/85/85
f 80/80/80 85/85/85 81/81/81
f 77/77/77 80/80/80 81/81/81
f 77/77/77 81/81/81 78/78/78
f 76/76/76 77/77/77 78/78/78
f 76/76/76 78/78/78 79/79/79
f 82/82/82 76/76/76 79/79/79
f 82/82/82 79/79/79 83/83/83
f 75/75/75 72/72/72 74/74/74
f 73/73/73 72/72/72 75/75/75
f 71/71/71 72/72/72 73/73/73
f 74/74/74 72/72/72 71/71/71
f 95/95/95 99/99/99 100/100/100
f 95/95/95 100/100/100 96/96/96
f 92/92/92 95/95/95 96/96/96
f 92/92/92 96/96/96 93/93/93
f 91/91/91 92/92/92 93/93/93
f 91/91/91 93/93/93 94/94/94
f 97/97/97 91/91/91 94/94/94
f 97/97/97 94/94/94 98/98/98
f 90/90/90 87/87/87 89/89/89
f 88/88/88 87/87/87 90/90/90
f 86/86/86 87/87/87 88/88/88
f 89/89/89 87/87/87 86/86/86
f 133/133/133 134/134/134 132/132/132
f 132/132/132 134/134/134 131/131/131
f 127/127/127 132/132/132 131/131/131
f 128/128/128 132/132/132 127/127/127
f 128/128/128 133/133/133 132/132/132
f 131/131/131 134/134/134 129/129/129
f 126/126/126 131/131/131 129/129/129
f 127/127/127 131/131/131 126/126/126
f 122/122/122 127/127/127 126/126/126
f 123/123/123 127/127/127 122/122/122
f 123/123/123 128/128/128 127/127/127
f 129/129/129 134/134/134 130/130/130
f 124/124/124 129/129/129 130/130/130
f 126/126/126 129/129/129 124/124/124
f 121/121/121 126/126/126 124/124/124
f 122/122/122 126/126/126 121/121/121
f 122/122/122 121/121/121 120/120/120
f 120/120/120 123/123/123 122/122/122
f 124/124/124 130/130/130 125/125/125
f 118/118/118 124/124/124 125/125/125
f 121/121/121 124/124/124 118/118/118
f 121/121/121 118/118/118 120/120/120
f 118/118/118 119/119/119 120/120/120
f 118/118/118 125/125/125 119/119/119
f 116/116/116 115/115/115 117/117/117
f 111/111/111 115/115/115 116/116/116
f 111/111/111 110/110/110 115/115/115
f 110/110/110 114/114/114 115/115/115
f 115/115/115 114/114/114 117/117/117
f 114/114/114 113/113/113 117/117/117
f 113/113/113 112/112/112 117/117/117
f 108/108/108 112/112/112 113/113/113
f 108/108/108 107/107/107 112/112/112
f 106/106/106 110/110/110 111/111/111
f 106/106/106 105/105/105 110/110/110
f 105/105/105 109/109/109 110/110/110
f 110/110/110 109/109/109 114/114/114
f 109/109/109 113/113/113 114/114/114
f 109/109/109 108/108/108 113/113/113
f 104/104/104 108/108/108 109/109/109
f 104/104/104 101/101/101 108/108/108
f 101/101/101 107/107/107 108/108/108
f 101/101/101 103/103/103 107/107/107
f 101/101/101 102/102/102 103/103/103
f 102/102/102 105/105/105 106/106/106
f 105/105/105 102/102/102 104/104/104
f 105/105/105 104/104/104 109/109/109
f 104/104/104 102/102/102 101/101/101
f 167/167/167 168/168/168 166/166/166
f 166/166/166 168/168/168 165/165/165
f 161/161/161 166/166/166 165/165/165
f 162/162/162 166/166/166 161/161/161
f 162/162/162 167/167/167 166/166/166
f 165/165/165 168/168/168 163/163/163
f 160/160/160 165/165/165 163/163/163
f 161/161/161 165/165/165 160/160/160
f 156/156/156 161/161/161 160/160/160
f 157/157/157 161/161/161 156/156/156
f 157/157/157 162/162/162 161/161/161
f 163/163/163 168/168/168 164/164/164
f 158/158/158 163/163/163 164/164/164
f 160/160/160 163/163/163 158/158/158
f 155/155/155 160/160/160 158/158/158
f 156/156/156 160/160/160 155/155/155
f 156/156/156 155/155/155 154/154/154
f 154/154/154 157/157/157 156/156/156
f 158/158/158 164/164/164 159/159/159
f 152/152/152 158/158/158 159/159/159
f 155/155/155 158/158/158 152/152/152
f 155/155/155 152/152/152 154/154/154
f 152/152/152 153/153/153 154/154/154
f 152/152/152 159/159/159 153/153/153
f 150/150/150 149/149/149 151/151/151
f 145/145/145 149/149/149 150/150/150
f 145/145/145 144/144/144 149/149/149
f 144/144/144 148/148/148 149/149/149
f 149/149/149 148/148/148 151/151/151
f 148/148/148 147/147/147 151/151/151
f 147/147/147 146/146/146 151/151/151
f 142/142/142 146/146/146 147/147/147
f 142/142/142 141/141/141 146/146/146
f 140/140/140 144/144/144 145/145/145
f 140/140/140 139/139/139 144/144/144
f 139/139/139 143/143/143 144/144/144
f 144/144/144 143/143/143 148/148/148
f 143/143/143 147/147/147 148/148/148
f 143/143/143 142/142/142 147/147/147
f 138/138/138 142/142/142 143/143/143
f 138/138/138 135/135/135 142/142/142
f 135/135/135 141/141/141 142/142/142
f 135/135/135 137/137/137 141/141/141
f 135/135/135 136/136/136 137/137/137
f 136/136/136 139/139/139 140/140/140
f 139/139/139 136/136/136 138/138/138
f 139/139/139 138/138/138 143/143/143
f 138/138/138 136/136/136 135/135/135

