#
# OBJECT NAME
#
o model_1365
mtllib 1365.mtl

#
# VERTEX BUFFER 000
#
v 0.774717 0 0.511924
v 0 0 0
v 0.909792 0 -0.185823
v 0.511923 0 -0.774717
v -0.185823 0 -0.909792
v -0.774717 0 -0.511923
v -0.909792 0 0.185823
v -0.511923 0 0.774717
v 0.185823 0 0.909792
v 0.234938 6.48553 0.347737
v 0.323782 5.75576 0.312897
v 0.360653 5.78197 0.132233
v 0.258476 5.81903 -0.0190018
v 0.0771038 5.84524 -0.052216
v -0.0772179 5.84524 0.0520468
v -0.11409 5.81903 0.232711
v -0.0119121 5.78197 0.383946
v 0.16946 5.75576 0.41716
v 0.323782 5.75576 0.312897
v -0.909792 0 0.185823
v -0.87837 1.16045 0.0875383
v -0.755591 1.13292 -0.54359
v -0.774717 0 -0.511923
v -0.222339 1.13292 -0.903865
v -0.185823 0 -0.909792
v 0.409013 1.16045 -0.782244
v 0.511923 0 -0.774717
v 0.768628 1.19939 -0.24997
v 0.909792 0 -0.185823
v 0.645848 1.22692 0.381158
v 0.774717 0 0.511924
v 0.774717 0 0.511924
v 0.645848 1.22692 0.381158
v 0.112597 1.22692 0.741433
v 0.185823 0 0.909792
v -0.518755 1.19939 0.619812
v -0.511923 0 0.774717
v -0.684314 3.2932 0.0179036
v -0.593171 3.30562 -0.451005
v -0.705393 2.2074 -0.533994
v -0.814162 2.22129 0.0263664
v -0.197057 3.30562 -0.718627
v -0.23217 2.2074 -0.853713
v 0.271989 3.2932 -0.628194
v 0.328299 2.22129 -0.745503
v 0.539207 3.27564 -0.23268
v 0.647698 2.24092 -0.272752
v 0.448063 3.26322 0.236229
v 0.538929 2.2548 0.287608
v 0.448063 3.26322 0.236229
v 0.0519496 3.26322 0.503851
v 0.0657069 2.2548 0.607327
v 0.538929 2.2548 0.287608
v -0.417096 3.27564 0.413418
v -0.494762 2.24092 0.499117
v -0.310459 4.22685 0.386659
v -0.163659 5.0835 0.366841
v -0.319312 5.13278 0.136456
v -0.528496 4.27283 0.063937
v -0.26387 5.16763 -0.138271
v -0.452738 4.30534 -0.31961
v -0.0298084 5.16763 -0.296408
v -0.127562 4.30534 -0.539305
v 0.245761 5.13278 -0.24532
v 0.256547 4.27283 -0.466454
v 0.401415 5.0835 -0.0149338
v 0.474585 4.22685 -0.143732
v 0.345972 5.04865 0.259793
v 0.398826 4.19434 0.239814
v 0.398826 4.19434 0.239814
v 0.345972 5.04865 0.259793
v 0.111911 5.04865 0.417929
v 0.0736509 4.19434 0.459509
v -0.417096 3.27564 0.413418
v -0.684314 3.2932 0.0179036
v 0.0519496 3.26322 0.503851
v 0.448063 3.26322 0.236229
v 0.539207 3.27564 -0.23268
v 0.448063 3.26322 0.236229
v 0.271989 3.2932 -0.628194
v -0.197057 3.30562 -0.718627
v -0.593171 3.30562 -0.451005

vn 0 -1 0
vn 0 -1 0
vn 0 -1 0
vn 0 -1 0
vn 0 -1 0
vn 0 -1 0
vn 0 -1 0
vn 0 -1 0
vn 0 -1 0
vn 0.131714 0.97168 0.194946
vn 0.831055 0.00858307 0.555176
vn 0.976074 0.128906 -0.17395
vn 0.561035 0.29541 -0.772949
vn -0.160645 0.410645 -0.896973
vn -0.772461 0.410645 -0.483887
vn -0.92627 0.29541 0.231934
vn -0.525391 0.128906 0.840332
vn 0.205078 0.00858307 0.978516
vn 0.831055 0.00858307 0.555176
vn -0.973633 0.0447693 0.223022
vn -0.979004 0.0550232 0.195557
vn -0.833008 0.0188599 -0.552246
vn -0.839844 -0.00121784 -0.54248
vn -0.201538 0.0188599 -0.979004
vn -0.189941 -0.00121784 -0.981445
vn 0.546875 0.0550232 -0.834961
vn 0.570313 0.0447693 -0.819824
vn 0.973145 0.105713 -0.203735
vn 0.978027 0.10553 -0.177124
vn 0.827148 0.141113 0.543945
vn 0.820313 0.14563 0.552734
vn 0.820313 0.14563 0.552734
vn 0.827148 0.141113 0.543945
vn 0.195923 0.141113 0.970215
vn 0.206543 0.14563 0.967285
vn -0.552246 0.105713 0.82666
vn -0.529297 0.10553 0.841309
vn -0.973145 0.130615 0.188599
vn -0.822266 0.151978 -0.547852
vn -0.828125 0.081665 -0.553711
vn -0.978027 0.0928345 0.185913
vn -0.201782 0.151978 -0.967285
vn -0.204834 0.081665 -0.975098
vn 0.538086 0.130615 -0.83252
vn 0.537109 0.0928345 -0.837891
vn 0.972656 0.0994263 -0.208862
vn 0.970703 0.108826 -0.212158
vn 0.833984 0.0765381 0.545898
vn 0.831055 0.120422 0.54248
vn 0.833984 0.0765381 0.545898
vn 0.195313 0.0765381 0.977539
vn 0.192993 0.120422 0.973633
vn 0.831055 0.120422 0.54248
vn -0.556641 0.0994263 0.824219
vn -0.559082 0.108826 0.821289
vn -0.548828 0.09552 0.830078
vn -0.540039 0.106384 0.834473
vn -0.950195 0.227173 0.212769
vn -0.964355 0.172729 0.199829
vn -0.79834 0.311035 -0.515137
vn -0.813477 0.226196 -0.535156
vn -0.180176 0.311035 -0.933105
vn -0.192871 0.226196 -0.95459
vn 0.551758 0.227173 -0.802246
vn 0.544922 0.172729 -0.819824
vn 0.975586 0.106384 -0.189575
vn 0.975098 0.09552 -0.199219
vn 0.833008 0.0194702 0.552246
vn 0.833984 0.0399475 0.549805
vn 0.833984 0.0399475 0.549805
vn 0.833008 0.0194702 0.552246
vn 0.201294 0.0194702 0.979004
vn 0.198975 0.0399475 0.979004
vn -0.556641 0.0994263 0.824219
vn -0.973145 0.130615 0.188599
vn 0.195313 0.0765381 0.977539
vn 0.833984 0.0765381 0.545898
vn 0.972656 0.0994263 -0.208862
vn 0.833984 0.0765381 0.545898
vn 0.538086 0.130615 -0.83252
vn -0.201782 0.151978 -0.967285
vn -0.822266 0.151978 -0.547852

vt 0.636415 0.606083
vt 0.595799 0.635566
vt 0.612623 0.559521
vt 0.578976 0.559521
vt 0.555184 0.606083
vt 0.555184 0.671931
vt 0.578976 0.718493
vt 0.612623 0.718493
vt 0.636415 0.671931
vt 0.785775 0.945889
vt 0.700715 0.735741
vt 0.721439 0.735741
vt 0.742163 0.735741
vt 0.762887 0.735741
vt 0.783611 0.735741
vt 0.804335 0.735741
vt 0.825059 0.735741
vt 0.845783 0.735741
vt 0.866508 0.735741
vt 0.372814 0.102324
vt 0.37247 0.299945
vt 0.317497 0.299945
vt 0.314156 0.102324
vt 0.262523 0.299945
vt 0.255498 0.102324
vt 0.20755 0.299945
vt 0.19684 0.102324
vt 0.152577 0.299945
vt 0.138183 0.102324
vt 0.0976033 0.299945
vt 0.0795248 0.102324
vt 0.548787 0.102324
vt 0.537391 0.299945
vt 0.482417 0.299945
vt 0.490129 0.102324
vt 0.427444 0.299945
vt 0.431471 0.102324
vt 0.364429 0.699083
vt 0.31739 0.699083
vt 0.319064 0.500733
vt 0.3697 0.500733
vt 0.27035 0.699083
vt 0.268428 0.500733
vt 0.22331 0.699083
vt 0.217792 0.500733
vt 0.176271 0.699083
vt 0.167156 0.500733
vt 0.129231 0.699083
vt 0.116521 0.500733
vt 0.505548 0.699083
vt 0.458508 0.699083
vt 0.470972 0.500733
vt 0.521607 0.500733
vt 0.411469 0.699083
vt 0.420336 0.500733
vt 0.858073 0.334931
vt 0.842578 0.55402
vt 0.811172 0.55402
vt 0.816561 0.334931
vt 0.779765 0.55402
vt 0.775049 0.334931
vt 0.748359 0.55402
vt 0.733537 0.334931
vt 0.716953 0.55402
vt 0.692025 0.334931
vt 0.685546 0.55402
vt 0.650513 0.334931
vt 0.65414 0.55402
vt 0.609002 0.334931
vt 0.941097 0.334931
vt 0.905391 0.55402
vt 0.873984 0.55402
vt 0.899585 0.334931
vt 0.867172 0.0906107
vt 0.82042 0.0906107
vt 0.913924 0.0906107
vt 0.960676 0.0906107
vt 0.633412 0.0906107
vt 0.58666 0.0906107
vt 0.680164 0.0906107
vt 0.726915 0.0906107
vt 0.773668 0.0906107


#
# MESH 000
#
g surface_000
usemtl surface_000
f 78/78/78 69/69/69 79/79/79
f 78/78/78 67/67/67 69/69/69
f 67/67/67 68/68/68 69/69/69
f 67/67/67 66/66/66 68/68/68
f 66/66/66 11/11/11 68/68/68
f 66/66/66 12/12/12 11/11/11
f 10/10/10 11/11/11 12/12/12
f 80/80/80 67/67/67 78/78/78
f 80/80/80 65/65/65 67/67/67
f 65/65/65 66/66/66 67/67/67
f 65/65/65 64/64/64 66/66/66
f 64/64/64 12/12/12 66/66/66
f 64/64/64 13/13/13 12/12/12
f 10/10/10 12/12/12 13/13/13
f 81/81/81 65/65/65 80/80/80
f 81/81/81 63/63/63 65/65/65
f 63/63/63 64/64/64 65/65/65
f 63/63/63 62/62/62 64/64/64
f 62/62/62 13/13/13 64/64/64
f 62/62/62 14/14/14 13/13/13
f 10/10/10 13/13/13 14/14/14
f 82/82/82 63/63/63 81/81/81
f 82/82/82 61/61/61 63/63/63
f 61/61/61 62/62/62 63/63/63
f 61/61/61 60/60/60 62/62/62
f 60/60/60 14/14/14 62/62/62
f 60/60/60 15/15/15 14/14/14
f 10/10/10 14/14/14 15/15/15
f 59/59/59 61/61/61 82/82/82
f 59/59/59 60/60/60 61/61/61
f 59/59/59 58/58/58 60/60/60
f 58/58/58 15/15/15 60/60/60
f 58/58/58 16/16/16 15/15/15
f 10/10/10 15/15/15 16/16/16
f 10/10/10 16/16/16 17/17/17
f 10/10/10 17/17/17 18/18/18
f 10/10/10 18/18/18 19/19/19
f 71/71/71 19/19/19 18/18/18
f 59/59/59 82/82/82 75/75/75
f 74/74/74 59/59/59 75/75/75
f 74/74/74 56/56/56 59/59/59
f 56/56/56 58/58/58 59/59/59
f 56/56/56 57/57/57 58/58/58
f 17/17/17 58/58/58 57/57/57
f 17/17/17 16/16/16 58/58/58
f 76/76/76 56/56/56 74/74/74
f 76/76/76 73/73/73 56/56/56
f 73/73/73 57/57/57 56/56/56
f 73/73/73 72/72/72 57/57/57
f 72/72/72 17/17/17 57/57/57
f 72/72/72 18/18/18 17/17/17
f 71/71/71 18/18/18 72/72/72
f 70/70/70 71/71/71 72/72/72
f 70/70/70 72/72/72 73/73/73
f 77/77/77 70/70/70 73/73/73
f 77/77/77 73/73/73 76/76/76
f 46/46/46 48/48/48 49/49/49
f 46/46/46 49/49/49 47/47/47
f 44/44/44 46/46/46 47/47/47
f 44/44/44 47/47/47 45/45/45
f 42/42/42 44/44/44 45/45/45
f 42/42/42 45/45/45 43/43/43
f 39/39/39 42/42/42 43/43/43
f 28/28/28 47/47/47 49/49/49
f 26/26/26 47/47/47 28/28/28
f 26/26/26 45/45/45 47/47/47
f 24/24/24 45/45/45 26/26/26
f 24/24/24 43/43/43 45/45/45
f 40/40/40 43/43/43 24/24/24
f 39/39/39 43/43/43 40/40/40
f 38/38/38 39/39/39 40/40/40
f 38/38/38 40/40/40 41/41/41
f 54/54/54 38/38/38 41/41/41
f 28/28/28 49/49/49 30/30/30
f 29/29/29 28/28/28 30/30/30
f 27/27/27 28/28/28 29/29/29
f 27/27/27 26/26/26 28/28/28
f 25/25/25 26/26/26 27/27/27
f 25/25/25 24/24/24 26/26/26
f 23/23/23 24/24/24 25/25/25
f 23/23/23 22/22/22 24/24/24
f 40/40/40 24/24/24 22/22/22
f 21/21/21 40/40/40 22/22/22
f 21/21/21 41/41/41 40/40/40
f 29/29/29 30/30/30 31/31/31
f 20/20/20 22/22/22 23/23/23
f 20/20/20 21/21/21 22/22/22
f 37/37/37 21/21/21 20/20/20
f 37/37/37 36/36/36 21/21/21
f 36/36/36 41/41/41 21/21/21
f 36/36/36 55/55/55 41/41/41
f 54/54/54 41/41/41 55/55/55
f 51/51/51 54/54/54 55/55/55
f 51/51/51 55/55/55 52/52/52
f 50/50/50 51/51/51 52/52/52
f 35/35/35 36/36/36 37/37/37
f 35/35/35 34/34/34 36/36/36
f 34/34/34 55/55/55 36/36/36
f 34/34/34 52/52/52 55/55/55
f 33/33/33 52/52/52 34/34/34
f 33/33/33 53/53/53 52/52/52
f 50/50/50 52/52/52 53/53/53
f 32/32/32 34/34/34 35/35/35
f 32/32/32 33/33/33 34/34/34
f 9/9/9 2/2/2 1/1/1
f 8/8/8 2/2/2 9/9/9
f 7/7/7 2/2/2 8/8/8
f 6/6/6 2/2/2 7/7/7
f 5/5/5 2/2/2 6/6/6
f 4/4/4 2/2/2 5/5/5
f 3/3/3 2/2/2 4/4/4
f 1/1/1 2/2/2 3/3/3

