g l004v001_h
v 0.3601161 0.5815775 0.1909637
v 0.5128585 0.7225275 0.1547699
v 0.37313 0.5638318 0.1547699
v 0.3601161 0.5815775 0.1909637
v 0.4993011 0.7255493 0.1909637
v 0.5128585 0.7225275 0.1547699
v 0.4345641 0.8464839 0.06456757
v 0.4361749 0.686515 0.06456757
v 0.4274216 0.686447 0.1179199
v 0.4135618 0.8463215 0.1179199
v 0.4135618 0.8463215 0.1179199
v -0.4354463 0.8263875 0.1179886
v -0.4493465 0.8336742 0.06463623
v 0.4345641 0.8464839 0.06456757
v -0.4354463 0.8263875 0.1179886
v -0.4272451 0.6738641 0.1179886
v -0.4493465 0.8336742 0.06463623
v -0.4272451 0.6738641 0.06463623
v -0.4272451 0.6738641 0.1179886
v 0.4274216 0.686447 0.1179199
v 0.4361749 0.686515 0.06456757
v -0.4272451 0.6738641 0.06463623
v 0.4361749 0.686515 0.06456757
v 0.4345641 0.8464839 0.06456757
v -0.4493465 0.8336742 0.06463623
v -0.4272451 0.6738641 0.06463623
v -0.4272451 0.6738641 0.1179886
v -0.4354463 0.8263875 0.1179886
v 0.4135618 0.8463215 0.1179199
v 0.4274216 0.686447 0.1179199
v -0.0419755 -0.0320016 -0.07263184
v -0.08395052 1.450072 7.629395E-05
v -0.08395052 -0.0320016 7.629395E-05
v -0.0419755 1.44901 -0.07263184
v 0.04197836 -0.0320016 -0.07263184
v 0.04197836 1.455355 -0.07263184
v 0.08395147 -0.0320016 9.155273E-05
v 0.08395147 1.461907 9.155273E-05
v -0.08395052 -0.0320016 7.629395E-05
v -0.08395052 1.450072 7.629395E-05
v -0.0419755 1.446038 0.07279205
v -0.0419755 -0.0320016 0.07279205
v 0.04197836 1.452384 0.07279205
v 0.04197836 -0.0320016 0.07279205
v 0.08395147 1.461907 9.155273E-05
v 0.08395147 -0.0320016 9.155273E-05
v 0.04197836 -0.0320016 0.07279205
v -0.08395052 -0.0320016 7.629395E-05
v -0.0419755 -0.0320016 0.07279205
v 0.08395147 -0.0320016 9.155273E-05
v -0.0419755 -0.0320016 -0.07263184
v 0.04197836 -0.0320016 -0.07263184
v -0.08395052 1.450072 7.629395E-05
v 0.04197836 1.452384 0.07279205
v -0.0419755 1.446038 0.07279205
v 0.08395147 1.461907 9.155273E-05
v 0.04197836 1.455355 -0.07263184
v -0.0419755 1.44901 -0.07263184
v 0.4492698 1.433777 0.1157227
v 0.4425249 1.420345 0.06237033
v 0.4555144 1.273645 0.06237033
v 0.4528956 1.280654 0.1157227
v 0.4492698 1.433777 0.1157227
v -0.4476423 1.451283 0.1158066
v -0.4476423 1.451283 0.06244662
v 0.4425249 1.420345 0.06237033
v -0.4476423 1.451283 0.1158066
v -0.4625039 1.291563 0.06244662
v -0.4476423 1.451283 0.06244662
v -0.4532886 1.291384 0.1158066
v -0.4532886 1.291384 0.1158066
v 0.4528956 1.280654 0.1157227
v 0.4555144 1.273645 0.06237033
v -0.4625039 1.291563 0.06244662
v 0.4555144 1.273645 0.06237033
v 0.4425249 1.420345 0.06237033
v -0.4476423 1.451283 0.06244662
v -0.4625039 1.291563 0.06244662
v -0.4532886 1.291384 0.1158066
v -0.4476423 1.451283 0.1158066
v 0.4492698 1.433777 0.1157227
v 0.4528956 1.280654 0.1157227
v -0.3642035 0.6137229 0.07043457
v -0.2190967 0.6042053 0.07043457
v -0.3790798 0.6042053 0.01708221
v -0.2190967 0.6238548 0.01708221
v -0.2190967 0.6042053 0.07043457
v -0.2322516 1.487545 0.07043457
v -0.2322516 1.478467 0.01708221
v -0.2190967 0.6238548 0.01708221
v -0.2322516 1.487545 0.07043457
v -0.3877325 1.49402 0.05978394
v -0.3922319 1.49402 0.01708221
v -0.2322516 1.478467 0.01708221
v -0.3877325 1.49402 0.05978394
v -0.3642035 0.6137229 0.07043457
v -0.3790798 0.6042053 0.01708221
v -0.3922319 1.49402 0.01708221
v -0.3790798 0.6042053 0.01708221
v -0.2190967 0.6238548 0.01708221
v -0.2322516 1.478467 0.01708221
v -0.3922319 1.49402 0.01708221
v -0.3877325 1.49402 0.05978394
v -0.2322516 1.487545 0.07043457
v -0.2190967 0.6042053 0.07043457
v -0.3642035 0.6137229 0.07043457
v -0.358604 0.5805709 0.154541
v -0.3753757 0.5638318 0.1183472
v -0.5237265 0.7298253 0.1183472
v -0.5115995 0.7312059 0.154541
v -0.358604 0.5805709 0.154541
v 0.493731 1.438488 0.15448
v 0.5032296 1.44244 0.1182785
v -0.3753757 0.5638318 0.1183472
v 0.3443623 1.587993 0.15448
v 0.3360014 1.573662 0.1182785
v 0.5032296 1.44244 0.1182785
v 0.493731 1.438488 0.15448
v 0.3443623 1.587993 0.15448
v -0.5115995 0.7312059 0.154541
v -0.5237265 0.7298253 0.1183472
v 0.3360014 1.573662 0.1182785
v -0.5237265 0.7298253 0.1183472
v -0.3753757 0.5638318 0.1183472
v 0.5032296 1.44244 0.1182785
v 0.3360014 1.573662 0.1182785
v 0.3443623 1.587993 0.15448
v 0.493731 1.438488 0.15448
v -0.358604 0.5805709 0.154541
v -0.5115995 0.7312059 0.154541
v -0.4837536 1.42103 0.1910324
v -0.4837536 1.42103 0.1548538
v -0.3483247 1.599599 0.1548538
v -0.3406848 1.584743 0.1910324
v -0.4837536 1.42103 0.1910324
v 0.3601161 0.5815775 0.1909637
v 0.37313 0.5638318 0.1547699
v -0.4837536 1.42103 0.1548538
v 0.4993011 0.7255493 0.1909637
v -0.3406848 1.584743 0.1910324
v -0.3483247 1.599599 0.1548538
v 0.5128585 0.7225275 0.1547699
v -0.3483247 1.599599 0.1548538
v -0.4837536 1.42103 0.1548538
v 0.37313 0.5638318 0.1547699
v 0.5128585 0.7225275 0.1547699
v 0.4993011 0.7255493 0.1909637
v 0.3601161 0.5815775 0.1909637
v -0.4837536 1.42103 0.1910324
v -0.3406848 1.584743 0.1910324
v 0.2195115 0.643175 0.07043457
v 0.3729205 0.6328421 0.07036591
v 0.2195115 0.6245081 0.01708221
v 0.3702989 0.6433309 0.01701355
v 0.3729205 0.6328421 0.07036591
v 0.3794909 1.471827 0.07036591
v 0.3794909 1.471827 0.01701355
v 0.3702989 0.6433309 0.01701355
v 0.2195115 1.476085 0.07043457
v 0.2195115 1.462205 0.01708221
v 0.3794909 1.471827 0.01701355
v 0.3794909 1.471827 0.07036591
v 0.2195115 1.476085 0.07043457
v 0.2195115 0.643175 0.07043457
v 0.2195115 0.6245081 0.01708221
v 0.2195115 1.462205 0.01708221
v 0.2195115 0.6245081 0.01708221
v 0.3702989 0.6433309 0.01701355
v 0.3794909 1.471827 0.01701355
v 0.2195115 1.462205 0.01708221
v 0.2195115 1.476085 0.07043457
v 0.3794909 1.471827 0.07036591
v 0.3729205 0.6328421 0.07036591
v 0.2195115 0.643175 0.07043457
vt 0.9516602 0.7011719
vt 0.9755859 0.8271484
vt 0.9755859 0.7011719
vt 0.9516602 0.7011719
vt 0.9516602 0.8271484
vt 0.9755859 0.8271484
vt 0.7685547 0.3251953
vt 0.7685547 0.2310791
vt 0.7368164 0.2310791
vt 0.7368164 0.3251953
vt 0.7075195 0.3674316
vt 0.1922607 0.3674316
vt 0.1922607 0.3989258
vt 0.7075195 0.3989258
vt 0.7368164 0.0894165
vt 0.7368164 0.1837158
vt 0.7685547 0.0894165
vt 0.7685547 0.1837158
vt 0.7075195 0.4465332
vt 0.1922607 0.4465332
vt 0.1922607 0.4780273
vt 0.7075195 0.4780273
vt 0.1922607 0.0894165
vt 0.1922607 0.1837158
vt 0.7075195 0.1837158
vt 0.7075195 0.0894165
vt 0.1922607 0.2310791
vt 0.1922607 0.3251953
vt 0.7075195 0.3251953
vt 0.7075195 0.2310791
vt 0.1112061 0.1777344
vt 0.1621094 0.9448242
vt 0.1621094 0.1777344
vt 0.1112061 0.9448242
vt 0.06088257 0.1777344
vt 0.06088257 0.9448242
vt 0.01158142 0.1777344
vt 0.01158142 0.9448242
vt 0.01158142 0.1777344
vt 0.01158142 0.9448242
vt 0.06088257 0.9448242
vt 0.06088257 0.1777344
vt 0.1112061 0.9448242
vt 0.1112061 0.1777344
vt 0.1621094 0.9448242
vt 0.1621094 0.1777344
vt 0.8310547 0.4692383
vt 0.7568359 0.4262695
vt 0.7817383 0.4692383
vt 0.855957 0.4262695
vt 0.7817383 0.3835449
vt 0.8310547 0.3835449
vt 0.7568359 0.4262695
vt 0.8310547 0.3835449
vt 0.7817383 0.3835449
vt 0.855957 0.4262695
vt 0.8310547 0.4692383
vt 0.7817383 0.4692383
vt 0.7368164 0.1837158
vt 0.7685547 0.1837158
vt 0.7685547 0.0894165
vt 0.7368164 0.0894165
vt 0.7075195 0.4465332
vt 0.1922607 0.4465332
vt 0.1922607 0.4780273
vt 0.7075195 0.4780273
vt 0.7368164 0.2310791
vt 0.7685547 0.3251953
vt 0.7685547 0.2310791
vt 0.7368164 0.3251953
vt 0.7075195 0.3674316
vt 0.1922607 0.3674316
vt 0.1922607 0.3989258
vt 0.7075195 0.3989258
vt 0.1922607 0.0894165
vt 0.1922607 0.1837158
vt 0.7075195 0.1837158
vt 0.7075195 0.0894165
vt 0.1922607 0.2310791
vt 0.1922607 0.3251953
vt 0.7075195 0.3251953
vt 0.7075195 0.2310791
vt 0.7368164 0.0894165
vt 0.7368164 0.1837158
vt 0.7685547 0.0894165
vt 0.7685547 0.1837158
vt 0.1922607 0.3989258
vt 0.7075195 0.3989258
vt 0.7075195 0.3674316
vt 0.1922607 0.3674316
vt 0.7368164 0.2310791
vt 0.7368164 0.3251953
vt 0.7685547 0.3251953
vt 0.7685547 0.2310791
vt 0.1922607 0.4780273
vt 0.7075195 0.4780273
vt 0.7075195 0.4465332
vt 0.1922607 0.4465332
vt 0.7075195 0.3251953
vt 0.7075195 0.2310791
vt 0.1922607 0.2310791
vt 0.1922607 0.3251953
vt 0.1922607 0.0894165
vt 0.1922607 0.1837158
vt 0.7075195 0.1837158
vt 0.7075195 0.0894165
vt 0.9516602 0.6660156
vt 0.9755859 0.6660156
vt 0.9755859 0.5268555
vt 0.9516602 0.5268555
vt 0.9116211 0.9370117
vt 0.2008057 0.9370117
vt 0.1951904 0.9580078
vt 0.9257813 0.9580078
vt 0.9516602 0.6660156
vt 0.9755859 0.6660156
vt 0.9755859 0.5268555
vt 0.9516602 0.5268555
vt 0.8154297 0.8720703
vt 0.2834473 0.8720703
vt 0.2792969 0.8945313
vt 0.8081055 0.8945313
vt 0.9248047 0.8271484
vt 0.9248047 0.7011719
vt 0.1928711 0.7011719
vt 0.1928711 0.8271484
vt 0.9248047 0.6660156
vt 0.9248047 0.5268555
vt 0.1928711 0.5268555
vt 0.1928711 0.6660156
vt 0.9516602 0.8271484
vt 0.9755859 0.8271484
vt 0.9755859 0.7011719
vt 0.9516602 0.7011719
vt 0.9130859 0.8720703
vt 0.2126465 0.8720703
vt 0.1998291 0.8945313
vt 0.9130859 0.8945313
vt 0.8139648 0.9370117
vt 0.2939453 0.9370117
vt 0.2871094 0.9580078
vt 0.8188477 0.9580078
vt 0.9248047 0.6660156
vt 0.9248047 0.5268555
vt 0.1928711 0.5268555
vt 0.1928711 0.6660156
vt 0.9248047 0.8271484
vt 0.9248047 0.7011719
vt 0.1928711 0.7011719
vt 0.1928711 0.8271484
vt 0.7368164 0.2310791
vt 0.7368164 0.3251953
vt 0.7685547 0.2310791
vt 0.7685547 0.3251953
vt 0.1922607 0.4780273
vt 0.7075195 0.4780273
vt 0.7075195 0.4465332
vt 0.1922607 0.4465332
vt 0.7368164 0.1837158
vt 0.7685547 0.1837158
vt 0.7685547 0.0894165
vt 0.7368164 0.0894165
vt 0.1922607 0.3989258
vt 0.7075195 0.3989258
vt 0.7075195 0.3674316
vt 0.1922607 0.3674316
vt 0.7075195 0.3251953
vt 0.7075195 0.2310791
vt 0.1922607 0.2310791
vt 0.1922607 0.3251953
vt 0.1922607 0.0894165
vt 0.1922607 0.1837158
vt 0.7075195 0.1837158
vt 0.7075195 0.0894165
vn 0.6455078 -0.5683594 0.5107422
vn 0.6455078 -0.5683594 0.5107422
vn 0.6455078 -0.5683594 0.5107422
vn 0.6831055 -0.6606445 0.3110352
vn 0.6831055 -0.6606445 0.3110352
vn 0.6831055 -0.6606445 0.3110352
vn 0.9428711 0.0668335 0.3266602
vn 0.9868164 0.009933472 0.1618652
vn 0.9775391 0.02613831 0.2092285
vn 0.9272461 0.0803833 0.3652344
vn -0.0188446 0.9975586 0.06835938
vn -0.0188446 0.9975586 0.06835938
vn -0.0188446 0.9975586 0.06835938
vn -0.0188446 0.9975586 0.06835938
vn -0.9682617 -0.05206299 0.2451172
vn -0.9916992 -0.1203003 0.05044556
vn -0.9790039 -0.07202148 0.1899414
vn -0.9907227 -0.1369629 0
vn 0.01468658 -1 0.0005674362
vn 0.01468658 -1 0.0005674362
vn 0.01468658 -1 0.0005674362
vn 0.01468658 -1 0.0005674362
vn -7.849932E-05 0 -1
vn -7.849932E-05 0 -1
vn -7.849932E-05 0 -1
vn -7.849932E-05 0 -1
vn 8.052588E-05 0 1
vn 8.052588E-05 0 1
vn 8.052588E-05 0 1
vn 8.052588E-05 0 1
vn -0.4995117 0 -0.8662109
vn -1 0 -0.006954193
vn -1 0 -0.0003302097
vn -0.4897461 0 -0.8720703
vn 0.5014648 0 -0.8652344
vn 0.5253906 0 -0.8505859
vn 1 0 -0.0003278255
vn 1 0 -0.007194519
vn -1 0 -0.0003302097
vn -1 0 -0.006954193
vn -0.4956055 0 0.8686523
vn -0.4997559 0 0.8662109
vn 0.5307617 0 0.8476563
vn 0.5014648 0 0.8652344
vn 1 0 -0.007194519
vn 1 0 -0.0003278255
vn 0 -1 0
vn 0 -1 0
vn 0 -1 0
vn 0 -1 0
vn 0 -1 0
vn 0 -1 0
vn -0.07196045 0.9970703 0.02049255
vn -0.07171631 0.9931641 0.09259033
vn -0.07171631 0.9931641 0.09259033
vn -0.07196045 0.9970703 0.02035522
vn -0.07189941 0.9960938 -0.05215454
vn -0.07189941 0.9960938 -0.05215454
vn 0.9853516 0.08721924 -0.1464844
vn 0.9853516 0.08721924 -0.1464844
vn 0.9853516 0.08721924 -0.1464844
vn 0.9985352 0.02365112 0.04589844
vn 0.02687073 0.9916992 -0.1264648
vn 0.02687073 0.9916992 -0.1264648
vn 0.02687073 0.9916992 -0.1264648
vn 0.02687073 0.9916992 -0.1264648
vn -0.9960938 0.08074951 0.03564453
vn -0.9897461 0.04666138 0.1358643
vn -0.9956055 0.09265137 0
vn -0.9848633 0.03475952 0.170166
vn -0.01567078 -0.9975586 0.06481934
vn -0.01567078 -0.9975586 0.06481934
vn -0.01567078 -0.9975586 0.06481934
vn -0.01567078 -0.9975586 0.06481934
vn -8.440018E-05 0 -1
vn -8.440018E-05 0 -1
vn -8.440018E-05 0 -1
vn -8.440018E-05 0 -1
vn 9.304285E-05 0 1
vn 9.304285E-05 0 1
vn 9.304285E-05 0 1
vn 9.304285E-05 0 1
vn -0.06420898 -0.9790039 0.192627
vn 0.08392334 -0.9643555 -0.251709
vn -0.01331329 -0.9990234 0.03991699
vn 0.114502 -0.9321289 -0.3432617
vn 1 0.01513672 0.001499176
vn 1 0.01513672 0.001499176
vn 1 0.01513672 0.001499176
vn 1 0.01513672 0.001499176
vn 0.08850098 0.9853516 -0.145752
vn 0.04190063 0.9990234 -0.004417419
vn 0.05670166 0.9970703 -0.04898071
vn 0.09539795 0.9814453 -0.1669922
vn -0.9794922 -0.019104 0.1994629
vn -0.9794922 -0.019104 0.1994629
vn -0.9794922 -0.019104 0.1994629
vn -0.9794922 -0.019104 0.1994629
vn 0 0 -1
vn 0 0 -1
vn 0 0 -1
vn 0 0 -1
vn -0.03512573 0.005306244 0.9995117
vn -0.03512573 0.005306244 0.9995117
vn -0.03512573 0.005306244 0.9995117
vn -0.03512573 0.005306244 0.9995117
vn -0.6318359 -0.5722656 0.5229492
vn -0.6240234 -0.5576172 0.5473633
vn -0.6748047 -0.6728516 0.3032227
vn -0.6787109 -0.6894531 0.2536621
vn 0.7070313 -0.7050781 0.0534668
vn 0.7070313 -0.7050781 0.0534668
vn 0.7070313 -0.7050781 0.0534668
vn 0.7070313 -0.7050781 0.0534668
vn 0.5883789 0.7290039 -0.3491211
vn 0.5620117 0.7163086 -0.4133301
vn 0.6865234 0.706543 0.1711426
vn 0.684082 0.6835938 0.2541504
vn -0.703125 0.7094727 0.04504395
vn -0.703125 0.7094727 0.04504395
vn -0.703125 0.7094727 0.04504395
vn -0.703125 0.7094727 0.04504395
vn -3.85046E-05 -4.088879E-05 -1
vn -3.85046E-05 -4.088879E-05 -1
vn -3.85046E-05 -4.088879E-05 -1
vn -3.85046E-05 -4.088879E-05 -1
vn 3.546476E-05 3.582239E-05 1
vn 3.546476E-05 3.582239E-05 1
vn 3.546476E-05 3.582239E-05 1
vn 3.546476E-05 3.582239E-05 1
vn -0.7915039 0.609375 0.04589844
vn -0.796875 0.6044922 0
vn -0.7089844 0.609375 0.3544922
vn -0.6918945 0.6044922 0.3945313
vn -0.7055664 -0.7070313 0.04653931
vn -0.7055664 -0.7070313 0.04653931
vn -0.7055664 -0.7070313 0.04653931
vn -0.7055664 -0.7070313 0.04653931
vn 0.7041016 0.6894531 0.1702881
vn 0.7041016 0.6894531 0.1702881
vn 0.7041016 0.6894531 0.1702881
vn 0.7041016 0.6894531 0.1702881
vn -5.352497E-05 4.36902E-05 -1
vn -5.352497E-05 4.36902E-05 -1
vn -5.352497E-05 4.36902E-05 -1
vn -5.352497E-05 4.36902E-05 -1
vn 4.23789E-05 -3.886223E-05 1
vn 4.23789E-05 -3.886223E-05 1
vn 4.23789E-05 -3.886223E-05 1
vn 4.23789E-05 -3.886223E-05 1
vn -0.06329346 -0.9418945 0.3295898
vn 0.08001709 -0.9941406 -0.07495117
vn -0.02560425 -0.9736328 0.2260742
vn 0.1213379 -0.9726563 -0.1972656
vn 0.9995117 -0.00945282 -0.02548218
vn 0.9995117 -0.00945282 -0.02548218
vn 0.9995117 -0.00945282 -0.02548218
vn 0.9995117 -0.00945282 -0.02548218
vn -0.04159546 0.9785156 -0.2025146
vn -0.05819702 0.9663086 -0.2514648
vn 0.008323669 0.9985352 -0.05465698
vn 0.02661133 0.9995117 0
vn -1 0 0
vn -1 0 0
vn -1 0 0
vn -1 0 0
vn -0.000442028 0 -1
vn -0.000442028 0 -1
vn -0.000442028 0 -1
vn -0.000442028 0 -1
vn 0.0004382133 0 1
vn 0.0004382133 0 1
vn 0.0004382133 0 1
vn 0.0004382133 0 1
g l004v001_h_0
f 3/3/3 2/2/2 1/1/1
f 6/6/6 5/5/5 4/4/4
f 9/9/9 8/8/8 7/7/7
f 9/9/9 7/7/7 10/10/10
f 13/13/13 12/12/12 11/11/11
f 14/14/14 13/13/13 11/11/11
f 17/17/17 16/16/16 15/15/15
f 17/17/17 18/18/18 16/16/16
f 21/21/21 20/20/20 19/19/19
f 22/22/22 21/21/21 19/19/19
f 25/25/25 24/24/24 23/23/23
f 26/26/26 25/25/25 23/23/23
f 29/29/29 28/28/28 27/27/27
f 30/30/30 29/29/29 27/27/27
f 33/33/33 32/32/32 31/31/31
f 32/32/32 34/34/34 31/31/31
f 31/31/31 34/34/34 35/35/35
f 34/34/34 36/36/36 35/35/35
f 35/35/35 36/36/36 37/37/37
f 36/36/36 38/38/38 37/37/37
f 41/41/41 40/40/40 39/39/39
f 42/42/42 41/41/41 39/39/39
f 43/43/43 41/41/41 42/42/42
f 44/44/44 43/43/43 42/42/42
f 45/45/45 43/43/43 44/44/44
f 46/46/46 45/45/45 44/44/44
f 49/49/49 48/48/48 47/47/47
f 48/48/48 50/50/50 47/47/47
f 50/50/50 48/48/48 51/51/51
f 52/52/52 50/50/50 51/51/51
f 55/55/55 54/54/54 53/53/53
f 54/54/54 56/56/56 53/53/53
f 56/56/56 57/57/57 53/53/53
f 57/57/57 58/58/58 53/53/53
f 61/61/61 60/60/60 59/59/59
f 61/61/61 59/59/59 62/62/62
f 65/65/65 64/64/64 63/63/63
f 66/66/66 65/65/65 63/63/63
f 69/69/69 68/68/68 67/67/67
f 68/68/68 70/70/70 67/67/67
f 73/73/73 72/72/72 71/71/71
f 74/74/74 73/73/73 71/71/71
f 77/77/77 76/76/76 75/75/75
f 78/78/78 77/77/77 75/75/75
f 81/81/81 80/80/80 79/79/79
f 82/82/82 81/81/81 79/79/79
f 85/85/85 84/84/84 83/83/83
f 85/85/85 86/86/86 84/84/84
f 89/89/89 88/88/88 87/87/87
f 90/90/90 89/89/89 87/87/87
f 93/93/93 92/92/92 91/91/91
f 94/94/94 93/93/93 91/91/91
f 97/97/97 96/96/96 95/95/95
f 98/98/98 97/97/97 95/95/95
f 101/101/101 100/100/100 99/99/99
f 102/102/102 101/101/101 99/99/99
f 105/105/105 104/104/104 103/103/103
f 106/106/106 105/105/105 103/103/103
f 109/109/109 108/108/108 107/107/107
f 109/109/109 107/107/107 110/110/110
f 113/113/113 112/112/112 111/111/111
f 114/114/114 113/113/113 111/111/111
f 117/117/117 116/116/116 115/115/115
f 118/118/118 117/117/117 115/115/115
f 121/121/121 120/120/120 119/119/119
f 122/122/122 121/121/121 119/119/119
f 125/125/125 124/124/124 123/123/123
f 126/126/126 125/125/125 123/123/123
f 129/129/129 128/128/128 127/127/127
f 130/130/130 129/129/129 127/127/127
f 133/133/133 132/132/132 131/131/131
f 133/133/133 131/131/131 134/134/134
f 137/137/137 136/136/136 135/135/135
f 138/138/138 137/137/137 135/135/135
f 141/141/141 140/140/140 139/139/139
f 142/142/142 141/141/141 139/139/139
f 145/145/145 144/144/144 143/143/143
f 146/146/146 145/145/145 143/143/143
f 149/149/149 148/148/148 147/147/147
f 150/150/150 149/149/149 147/147/147
f 153/153/153 152/152/152 151/151/151
f 153/153/153 154/154/154 152/152/152
f 157/157/157 156/156/156 155/155/155
f 158/158/158 157/157/157 155/155/155
f 161/161/161 160/160/160 159/159/159
f 161/161/161 159/159/159 162/162/162
f 165/165/165 164/164/164 163/163/163
f 166/166/166 165/165/165 163/163/163
f 169/169/169 168/168/168 167/167/167
f 170/170/170 169/169/169 167/167/167
f 173/173/173 172/172/172 171/171/171
f 174/174/174 173/173/173 171/171/171
