g l004v001_l
v -0.4354463 0.8263875 0.1179886
v -0.4272451 0.6738641 0.09131241
v -0.4493465 0.8336742 0.06463623
v 0.4135618 0.8463215 0.1179199
v 0.4345641 0.8464839 0.06456757
v 0.4317982 0.686481 0.09124374
v 0.08395147 -0.0320016 0.06149241
v 1.430511E-06 -0.0320016 -0.07263184
v -0.08395052 -0.0320016 0.06147715
v -0.08395052 1.450072 0.06147715
v 1.430511E-06 1.452183 -0.07263184
v 0.08395147 1.461907 0.06149241
v 0.4492698 1.433777 0.1157227
v 0.4425249 1.420345 0.06237033
v 0.454205 1.27715 0.08904651
v -0.4476423 1.451283 0.1158066
v -0.4578962 1.291473 0.08912662
v -0.4476423 1.451283 0.06244662
v 0.3443623 1.587993 0.15448
v 0.3360014 1.573662 0.1182785
v 0.4984803 1.440464 0.1363792
v -0.5115995 0.7312059 0.154541
v -0.3669899 0.5722014 0.1364441
v -0.5237265 0.7298253 0.1183472
v 0.366623 0.5727047 0.1728668
v 0.4993011 0.7255493 0.1909637
v 0.5128585 0.7225275 0.1547699
v -0.3406848 1.584743 0.1910324
v -0.4837536 1.42103 0.1729431
v -0.3483247 1.599599 0.1548538
v 0.4135618 0.8463215 0.1179199
v -0.4354463 0.8263875 0.1179886
v -0.4493465 0.8336742 0.06463623
v 0.4345641 0.8464839 0.06456757
v 0.4317982 0.686481 0.09124374
v 0.4345641 0.8464839 0.06456757
v -0.4493465 0.8336742 0.06463623
v -0.4272451 0.6738641 0.09131241
v -0.4272451 0.6738641 0.09131241
v -0.4354463 0.8263875 0.1179886
v 0.4135618 0.8463215 0.1179199
v 0.4317982 0.686481 0.09124374
v 1.430511E-06 -0.0320016 -0.07263184
v -0.08395052 1.450072 0.06147715
v -0.08395052 -0.0320016 0.06147715
v 1.430511E-06 1.452183 -0.07263184
v 0.08395147 -0.0320016 0.06149241
v 0.08395147 1.461907 0.06149241
v -0.08395052 1.450072 0.06147715
v 0.08395147 1.461907 0.06149241
v 0.08395147 -0.0320016 0.06149241
v -0.08395052 -0.0320016 0.06147715
v 0.4492698 1.433777 0.1157227
v -0.4476423 1.451283 0.1158066
v -0.4476423 1.451283 0.06244662
v 0.4425249 1.420345 0.06237033
v 0.454205 1.27715 0.08904651
v 0.4425249 1.420345 0.06237033
v -0.4476423 1.451283 0.06244662
v -0.4578962 1.291473 0.08912662
v -0.4578962 1.291473 0.08912662
v -0.4476423 1.451283 0.1158066
v 0.4492698 1.433777 0.1157227
v 0.454205 1.27715 0.08904651
v -0.3716416 0.6089641 0.04375839
v -0.2190967 0.61403 0.04375839
v -0.2322516 1.483006 0.04375839
v -0.3899822 1.49402 0.03843307
v -0.3899822 1.49402 0.03843307
v -0.2322516 1.483006 0.04375839
v -0.2190967 0.61403 0.04375839
v -0.3716416 0.6089641 0.04375839
v 0.3443623 1.587993 0.15448
v -0.5115995 0.7312059 0.154541
v -0.5237265 0.7298253 0.1183472
v 0.3360014 1.573662 0.1182785
v -0.5237265 0.7298253 0.1183472
v -0.3669899 0.5722014 0.1364441
v 0.4984803 1.440464 0.1363792
v 0.3360014 1.573662 0.1182785
v 0.3443623 1.587993 0.15448
v 0.4984803 1.440464 0.1363792
v -0.3669899 0.5722014 0.1364441
v -0.5115995 0.7312059 0.154541
v 0.4993011 0.7255493 0.1909637
v -0.3406848 1.584743 0.1910324
v -0.3483247 1.599599 0.1548538
v 0.5128585 0.7225275 0.1547699
v -0.3483247 1.599599 0.1548538
v -0.4837536 1.42103 0.1729431
v 0.366623 0.5727047 0.1728668
v 0.5128585 0.7225275 0.1547699
v 0.4993011 0.7255493 0.1909637
v 0.366623 0.5727047 0.1728668
v -0.4837536 1.42103 0.1729431
v -0.3406848 1.584743 0.1910324
v 0.2195115 0.6338416 0.04375839
v 0.3716097 0.6380865 0.04368973
v 0.3794909 1.471827 0.04368973
v 0.2195115 1.469145 0.04375839
v 0.2195115 1.469145 0.04375839
v 0.3794909 1.471827 0.04368973
v 0.3716097 0.6380865 0.04368973
v 0.2195115 0.6338416 0.04375839
vt 0.7368164 0.0894165
vt 0.7524414 0.1837158
vt 0.7685547 0.0894165
vt 0.7368164 0.3251953
vt 0.7685547 0.3251953
vt 0.7524414 0.2310791
vt 0.855957 0.4262695
vt 0.8066406 0.3835449
vt 0.7568359 0.4262695
vt 0.7568359 0.4262695
vt 0.8066406 0.4692383
vt 0.855957 0.4262695
vt 0.7368164 0.1837158
vt 0.7685547 0.1837158
vt 0.7524414 0.0894165
vt 0.7368164 0.2310791
vt 0.7524414 0.3251953
vt 0.7685547 0.2310791
vt 0.9516602 0.6660156
vt 0.9755859 0.6660156
vt 0.9638672 0.5268555
vt 0.9516602 0.5268555
vt 0.9638672 0.6660156
vt 0.9755859 0.5268555
vt 0.9638672 0.7011719
vt 0.9516602 0.8271484
vt 0.9755859 0.8271484
vt 0.9516602 0.7011719
vt 0.9638672 0.8271484
vt 0.9755859 0.7011719
vt 0.7075195 0.3674316
vt 0.1922607 0.3674316
vt 0.1922607 0.3989258
vt 0.7075195 0.3989258
vt 0.1922607 0.0894165
vt 0.1922607 0.1837158
vt 0.7075195 0.1837158
vt 0.7075195 0.0894165
vt 0.1922607 0.2310791
vt 0.1922607 0.3251953
vt 0.7075195 0.3251953
vt 0.7075195 0.2310791
vt 0.08605957 0.1777344
vt 0.1621094 0.9448242
vt 0.1621094 0.1777344
vt 0.08605957 0.9448242
vt 0.01158142 0.1777344
vt 0.01158142 0.9448242
vt 0.01158142 0.9448242
vt 0.1621094 0.9448242
vt 0.1621094 0.1777344
vt 0.01158142 0.1777344
vt 0.7075195 0.4465332
vt 0.1922607 0.4465332
vt 0.1922607 0.4780273
vt 0.7075195 0.4780273
vt 0.1922607 0.0894165
vt 0.1922607 0.1837158
vt 0.7075195 0.1837158
vt 0.7075195 0.0894165
vt 0.1922607 0.2310791
vt 0.1922607 0.3251953
vt 0.7075195 0.3251953
vt 0.7075195 0.2310791
vt 0.7075195 0.3251953
vt 0.7075195 0.2310791
vt 0.1922607 0.2310791
vt 0.1922607 0.3251953
vt 0.1922607 0.0894165
vt 0.1922607 0.1837158
vt 0.7075195 0.1837158
vt 0.7075195 0.0894165
vt 0.8154297 0.8720703
vt 0.2834473 0.8720703
vt 0.2792969 0.8945313
vt 0.8081055 0.8945313
vt 0.9248047 0.8271484
vt 0.9248047 0.7011719
vt 0.1928711 0.7011719
vt 0.1928711 0.8271484
vt 0.9248047 0.6660156
vt 0.9248047 0.5268555
vt 0.1928711 0.5268555
vt 0.1928711 0.6660156
vt 0.8139648 0.9370117
vt 0.2939453 0.9370117
vt 0.2871094 0.9580078
vt 0.8188477 0.9580078
vt 0.9248047 0.6660156
vt 0.9248047 0.5268555
vt 0.1928711 0.5268555
vt 0.1928711 0.6660156
vt 0.9248047 0.8271484
vt 0.9248047 0.7011719
vt 0.1928711 0.7011719
vt 0.1928711 0.8271484
vt 0.7075195 0.3251953
vt 0.7075195 0.2310791
vt 0.1922607 0.2310791
vt 0.1922607 0.3251953
vt 0.1922607 0.0894165
vt 0.1922607 0.1837158
vt 0.7075195 0.1837158
vt 0.7075195 0.0894165
vn -0.9663086 -0.09375 0.2390137
vn -0.9663086 -0.09375 0.2390137
vn -0.9663086 -0.09375 0.2390137
vn 0.9296875 0.04495239 0.3659668
vn 0.9296875 0.04495239 0.3659668
vn 0.9296875 0.04495239 0.3659668
vn 0 -1 0
vn 0 -1 0
vn 0 -1 0
vn -0.0703125 0.9970703 -0.02830505
vn -0.0703125 0.9970703 -0.02830505
vn -0.0703125 0.9970703 -0.02830505
vn 0.9887695 0.05480957 -0.1387939
vn 0.9887695 0.05480957 -0.1387939
vn 0.9887695 0.05480957 -0.1387939
vn -0.9980469 0.06402588 0
vn -0.9980469 0.06402588 0
vn -0.9980469 0.06402588 0
vn 0.6049805 0.6826172 -0.4099121
vn 0.6049805 0.6826172 -0.4099121
vn 0.6049805 0.6826172 -0.4099121
vn -0.699707 -0.6655273 0.2597656
vn -0.699707 -0.6655273 0.2597656
vn -0.699707 -0.6655273 0.2597656
vn 0.6977539 -0.6430664 0.3151855
vn 0.6977539 -0.6430664 0.3151855
vn 0.6977539 -0.6430664 0.3151855
vn -0.7143555 0.5810547 0.3896484
vn -0.7143555 0.5810547 0.3896484
vn -0.7143555 0.5810547 0.3896484
vn -0.0188446 0.9975586 0.06835938
vn -0.0188446 0.9975586 0.06835938
vn -0.0188446 0.9975586 0.06835938
vn -0.0188446 0.9975586 0.06835938
vn 0.002321243 -0.1644287 -0.9863281
vn 0.002321243 -0.1644287 -0.9863281
vn 0.002321243 -0.1644287 -0.9863281
vn 0.002321243 -0.1644287 -0.9863281
vn 0.003282547 -0.1680908 0.9858398
vn 0.003282547 -0.1680908 0.9858398
vn 0.003282547 -0.1680908 0.9858398
vn 0.003282547 -0.1680908 0.9858398
vn 0.003271103 0 -1
vn -0.8286133 0 0.5595703
vn -0.8461914 0 0.5332031
vn 0.04064941 0 -0.9990234
vn 0.8481445 0 0.5302734
vn 0.8505859 0 0.5253906
vn -0.8286133 0 0.5595703
vn 0.8505859 0 0.5253906
vn 0.8481445 0 0.5302734
vn -0.8461914 0 0.5332031
vn 0.02687073 0.9916992 -0.1264648
vn 0.02687073 0.9916992 -0.1264648
vn 0.02687073 0.9916992 -0.1264648
vn 0.02687073 0.9916992 -0.1264648
vn -0.004440308 -0.1734619 -0.9848633
vn -0.004440308 -0.1734619 -0.9848633
vn -0.004440308 -0.1734619 -0.9848633
vn -0.004440308 -0.1734619 -0.9848633
vn -0.002836227 -0.1662598 0.9863281
vn -0.002836227 -0.1662598 0.9863281
vn -0.002836227 -0.1662598 0.9863281
vn -0.002836227 -0.1662598 0.9863281
vn 0.0171051 -0.002727509 -1
vn 0.0171051 -0.002727509 -1
vn 0.0171051 -0.002727509 -1
vn 0.0171051 -0.002727509 -1
vn -0.0171051 0.002727509 1
vn -0.0171051 0.002727509 1
vn -0.0171051 0.002727509 1
vn -0.0171051 0.002727509 1
vn -0.703125 0.7094727 0.04504395
vn -0.703125 0.7094727 0.04504395
vn -0.703125 0.7094727 0.04504395
vn -0.703125 0.7094727 0.04504395
vn 0.05886841 -0.05941772 -0.996582
vn 0.05886841 -0.05941772 -0.996582
vn 0.05886841 -0.05941772 -0.996582
vn 0.05886841 -0.05941772 -0.996582
vn 0.05969238 -0.05950928 0.996582
vn 0.05969238 -0.05950928 0.996582
vn 0.05969238 -0.05950928 0.996582
vn 0.05969238 -0.05950928 0.996582
vn 0.7041016 0.6894531 0.1702881
vn 0.7041016 0.6894531 0.1702881
vn 0.7041016 0.6894531 0.1702881
vn 0.7041016 0.6894531 0.1702881
vn -0.05941772 -0.05883789 -0.996582
vn -0.05941772 -0.05883789 -0.996582
vn -0.05941772 -0.05883789 -0.996582
vn -0.05941772 -0.05883789 -0.996582
vn -0.06115723 -0.06060791 0.9960938
vn -0.06115723 -0.06060791 0.9960938
vn -0.06115723 -0.06060791 0.9960938
vn -0.06115723 -0.06060791 0.9960938
vn -0.0004401207 0 -1
vn -0.0004401207 0 -1
vn -0.0004401207 0 -1
vn -0.0004401207 0 -1
vn 0.0004401207 0 1
vn 0.0004401207 0 1
vn 0.0004401207 0 1
vn 0.0004401207 0 1
g l004v001_l_0
f 3/3/3 2/2/2 1/1/1
f 6/6/6 5/5/5 4/4/4
f 9/9/9 8/8/8 7/7/7
f 12/12/12 11/11/11 10/10/10
f 15/15/15 14/14/14 13/13/13
f 18/18/18 17/17/17 16/16/16
f 21/21/21 20/20/20 19/19/19
f 24/24/24 23/23/23 22/22/22
f 27/27/27 26/26/26 25/25/25
f 30/30/30 29/29/29 28/28/28
f 33/33/33 32/32/32 31/31/31
f 34/34/34 33/33/33 31/31/31
f 37/37/37 36/36/36 35/35/35
f 38/38/38 37/37/37 35/35/35
f 41/41/41 40/40/40 39/39/39
f 42/42/42 41/41/41 39/39/39
f 45/45/45 44/44/44 43/43/43
f 44/44/44 46/46/46 43/43/43
f 43/43/43 46/46/46 47/47/47
f 46/46/46 48/48/48 47/47/47
f 51/51/51 50/50/50 49/49/49
f 52/52/52 51/51/51 49/49/49
f 55/55/55 54/54/54 53/53/53
f 56/56/56 55/55/55 53/53/53
f 59/59/59 58/58/58 57/57/57
f 60/60/60 59/59/59 57/57/57
f 63/63/63 62/62/62 61/61/61
f 64/64/64 63/63/63 61/61/61
f 67/67/67 66/66/66 65/65/65
f 68/68/68 67/67/67 65/65/65
f 71/71/71 70/70/70 69/69/69
f 72/72/72 71/71/71 69/69/69
f 75/75/75 74/74/74 73/73/73
f 76/76/76 75/75/75 73/73/73
f 79/79/79 78/78/78 77/77/77
f 80/80/80 79/79/79 77/77/77
f 83/83/83 82/82/82 81/81/81
f 84/84/84 83/83/83 81/81/81
f 87/87/87 86/86/86 85/85/85
f 88/88/88 87/87/87 85/85/85
f 91/91/91 90/90/90 89/89/89
f 92/92/92 91/91/91 89/89/89
f 95/95/95 94/94/94 93/93/93
f 96/96/96 95/95/95 93/93/93
f 99/99/99 98/98/98 97/97/97
f 100/100/100 99/99/99 97/97/97
f 103/103/103 102/102/102 101/101/101
f 104/104/104 103/103/103 101/101/101
