#
# OBJECT NAME
#
o model_1051
mtllib 1051.mtl

#
# VERTEX BUFFER 000
#
v -1.43709 0.599576 1.51824
v 1.43709 0.599576 1.51824
v 1.33428 0.664123 1.36704
v -1.33428 0.664123 1.36704
v 1.33428 0.664123 1.36704
v 1.5 0.60686 1.45628
v 1.5 0.939589 -1.37422
v 1.33428 0.973049 -1.26099
v 1.33428 0.973049 -1.26099
v 1.43709 0.946873 -1.43618
v -1.43709 0.946873 -1.43618
v -1.33428 0.973049 -1.26099
v 1.33428 0.664123 1.36704
v 1.33428 0.973049 -1.26099
v -1.33428 0.973049 -1.26099
v -1.33428 0.664123 1.36704
v -1.13868 5.96046e-007 1.06136
v -1.21758 0.0391725 1.08674
v -1.21748 0.0411525 -1.1415
v -1.13868 -7.15256e-007 -1.12821
v -1.15456 0.0412084 -1.20442
v 1.15456 0.0412084 -1.20442
v 1.13868 -7.15256e-007 -1.12821
v 1.13868 5.96046e-007 1.06136
v -1.5 0.60686 1.45628
v -1.33428 0.664123 1.36704
v -1.33428 0.973049 -1.26099
v -1.5 0.939589 -1.37422
v -1.15467 0.0391167 1.14965
v 1.15467 0.0391167 1.14965
v 1.21758 0.0391725 1.08674
v 1.21748 0.0411525 -1.1415
v -1.42635 0.3583 1.44355
v -1.4888 0.365583 1.38206
v -1.4033 0.377078 1.29468
v -1.33552 0.369642 1.35794
v -1.42635 0.519151 1.48578
v -1.4888 0.526434 1.42428
v 1.4888 0.365583 1.38206
v 1.42635 0.3583 1.44355
v 1.33552 0.369642 1.35794
v 1.4033 0.377078 1.29468
v 1.4888 0.365583 1.38206
v 1.4888 0.526434 1.42428
v 1.42635 0.519151 1.48578
v 1.42635 0.705596 -1.48881
v 1.4888 0.698313 -1.42731
v 1.40069 0.686437 -1.33701
v 1.33805 0.694254 -1.40352
v 1.4888 0.698313 -1.42731
v 1.42635 0.705596 -1.48881
v 1.42635 0.866447 -1.44658
v 1.4888 0.859164 -1.38509
v -1.4888 0.698313 -1.42731
v -1.42635 0.705596 -1.48881
v -1.33805 0.694254 -1.40352
v -1.40069 0.686437 -1.33701
v -1.42635 0.705596 -1.48881
v -1.4888 0.859164 -1.38509
v -1.42635 0.866447 -1.44658
v -1.33552 0.369642 1.35794
v -1.4033 0.377078 1.29468
v -1.21758 0.0391725 1.08674
v -1.15467 0.0391167 1.14965
v 1.4033 0.377078 1.29468
v 1.33552 0.369642 1.35794
v 1.15467 0.0391167 1.14965
v 1.21758 0.0391725 1.08674
v -1.40069 0.686437 -1.33701
v -1.33805 0.694254 -1.40352
v -1.15456 0.0412084 -1.20442
v -1.21748 0.0411525 -1.1415
v 1.33805 0.694254 -1.40352
v 1.40069 0.686437 -1.33701
v 1.21748 0.0411525 -1.1415
v 1.15456 0.0412084 -1.20442
v 1.4888 0.526434 1.42428
v 1.4888 0.365583 1.38206
v -1.42635 0.705596 -1.48881
v -1.42635 0.866447 -1.44658
v 1.42635 0.866447 -1.44658
v -1.4033 0.377078 1.29468
v -1.33805 0.694254 -1.40352
v 1.4033 0.377078 1.29468
v 1.40069 0.686437 -1.33701
v -1.4033 0.377078 1.29468
v -1.33805 0.694254 -1.40352
v -1.15456 0.0412084 -1.20442
v 1.40069 0.686437 -1.33701
v 1.4033 0.377078 1.29468
v -1.5 0.60686 1.45628
v 1.5 0.60686 1.45628
v 1.43709 0.946873 -1.43618
v -1.5 0.939589 -1.37422
v -1.5 0.553243 1.4421
v -1.43709 0.545959 1.50406
v -1.5 0.885972 -1.38841
v -1.43709 0.893256 -1.45036
v -1.43709 0.946873 -1.43618
v 1.43709 0.893256 -1.45036
v -1.43709 0.893256 -1.45036
v 1.5 0.885972 -1.38841
v 1.43709 0.893256 -1.45036
v 1.43709 0.946873 -1.43618
v 1.5 0.553243 1.4421
v 1.43709 0.545959 1.50406
v 1.5 0.553243 1.4421
v 1.5 0.60686 1.45628
v -1.4888 0.526434 1.42428
v -1.42635 0.519151 1.48578
v -1.43709 0.545959 1.50406
v -1.5 0.553243 1.4421
v 1.42635 0.519151 1.48578
v 1.43709 0.545959 1.50406
v 1.4888 0.526434 1.42428
v 1.5 0.553243 1.4421
v 1.4888 0.526434 1.42428
v 1.4888 0.859164 -1.38509
v 1.5 0.885972 -1.38841
v 1.5 0.553243 1.4421
v 1.42635 0.866447 -1.44658
v 1.43709 0.893256 -1.45036
v 1.42635 0.866447 -1.44658
v -1.42635 0.866447 -1.44658
v -1.43709 0.893256 -1.45036
v 1.43709 0.893256 -1.45036
v -1.42635 0.866447 -1.44658
v -1.4888 0.859164 -1.38509
v -1.5 0.885972 -1.38841
v -1.43709 0.893256 -1.45036

vn -0.0123672 0.650391 0.759277
vn 0.0123672 0.650391 0.759277
vn 0.020462 0.990234 0.137695
vn -0.020462 0.990234 0.137695
vn 0.020462 0.990234 0.137695
vn 0.595703 0.795898 0.106079
vn 0.649902 0.755371 0.0773315
vn 0.0208893 0.995117 0.0961304
vn 0.0208893 0.995117 0.0961304
vn 0.0114517 0.874023 -0.484863
vn -0.0114517 0.874023 -0.484863
vn -0.0208893 0.995117 0.0961304
vn 0.020462 0.990234 0.137695
vn 0.0208893 0.995117 0.0961304
vn -0.0208893 0.995117 0.0961304
vn -0.020462 0.990234 0.137695
vn -0.0194244 -0.999512 0.0184021
vn -0.909668 -0.414551 -0.00933838
vn -0.905762 -0.420898 -0.0453186
vn -0.018219 -0.999512 -0.0197754
vn -0.0196381 -0.351074 -0.936035
vn 0.0196381 -0.351074 -0.936035
vn 0.018219 -0.999512 -0.0197754
vn 0.0194244 -0.999512 0.0184021
vn -0.595703 0.795898 0.106079
vn -0.020462 0.990234 0.137695
vn -0.0208893 0.995117 0.0961304
vn -0.649902 0.755371 0.0773315
vn -0.016098 -0.602539 0.797363
vn 0.016098 -0.602539 0.797363
vn 0.909668 -0.414551 -0.00933838
vn 0.905762 -0.420898 -0.0453186
vn -0.0207977 -0.481445 0.875977
vn -0.969727 -0.243042 -0.0105972
vn -0.782715 -0.620605 -0.0383606
vn -0.0233002 -0.804199 0.593262
vn -0.0197449 -0.253662 0.966797
vn -0.999512 -0.00642395 0.0244751
vn 0.969727 -0.243042 -0.0105972
vn 0.0207977 -0.481445 0.875977
vn 0.0233002 -0.804199 0.593262
vn 0.782715 -0.620605 -0.0383606
vn 0.969727 -0.243042 -0.0105972
vn 0.999512 -0.00642395 0.0244751
vn 0.0197449 -0.253662 0.966797
vn 0.0198669 -0.00880432 -0.999512
vn 0.959961 -0.273193 -0.0566406
vn 0.786133 -0.610352 -0.0918579
vn 0.0233154 -0.48584 -0.873535
vn 0.959961 -0.273193 -0.0566406
vn 0.0198669 -0.00880432 -0.999512
vn 0.0223083 0.253662 -0.966797
vn 0.999512 0.00478363 -0.018219
vn -0.959961 -0.273193 -0.0566406
vn -0.0198669 -0.00880432 -0.999512
vn -0.0233154 -0.48584 -0.873535
vn -0.786133 -0.610352 -0.0918579
vn -0.0198669 -0.00880432 -0.999512
vn -0.999512 0.00478363 -0.018219
vn -0.0223083 0.253662 -0.966797
vn -0.0233002 -0.804199 0.593262
vn -0.782715 -0.620605 -0.0383606
vn -0.909668 -0.414551 -0.00933838
vn -0.016098 -0.602539 0.797363
vn 0.782715 -0.620605 -0.0383606
vn 0.0233002 -0.804199 0.593262
vn 0.016098 -0.602539 0.797363
vn 0.909668 -0.414551 -0.00933838
vn -0.786133 -0.610352 -0.0918579
vn -0.0233154 -0.48584 -0.873535
vn -0.0196381 -0.351074 -0.936035
vn -0.905762 -0.420898 -0.0453186
vn 0.0233154 -0.48584 -0.873535
vn 0.786133 -0.610352 -0.0918579
vn 0.905762 -0.420898 -0.0453186
vn 0.0196381 -0.351074 -0.936035
vn 0.999512 -0.00642395 0.0244751
vn 0.969727 -0.243042 -0.0105972
vn -0.0198669 -0.00880432 -0.999512
vn -0.0223083 0.253662 -0.966797
vn 0.0223083 0.253662 -0.966797
vn -0.782715 -0.620605 -0.0383606
vn -0.0233154 -0.48584 -0.873535
vn 0.782715 -0.620605 -0.0383606
vn 0.786133 -0.610352 -0.0918579
vn -0.782715 -0.620605 -0.0383606
vn -0.0233154 -0.48584 -0.873535
vn -0.0196381 -0.351074 -0.936035
vn 0.786133 -0.610352 -0.0918579
vn 0.782715 -0.620605 -0.0383606
vn -0.595703 0.795898 0.106079
vn 0.595703 0.795898 0.106079
vn 0.0114517 0.874023 -0.484863
vn -0.649902 0.755371 0.0773315
vn -0.999512 -0.00480652 0.0181732
vn -0.0223236 -0.255615 0.966309
vn -0.999512 0.00649261 -0.0245514
vn -0.0197144 0.255615 -0.966309
vn -0.0114517 0.874023 -0.484863
vn 0.0197144 0.255615 -0.966309
vn -0.0197144 0.255615 -0.966309
vn 0.999512 0.00649261 -0.0245514
vn 0.0197144 0.255615 -0.966309
vn 0.0114517 0.874023 -0.484863
vn 0.999512 -0.00480652 0.0181732
vn 0.0223236 -0.255615 0.966309
vn 0.999512 -0.00480652 0.0181732
vn 0.595703 0.795898 0.106079
vn -0.922852 -0.383057 -0.0294342
vn -0.0164795 -0.567383 0.822754
vn -0.0221252 -0.568848 0.821777
vn -0.919922 -0.390625 -0.016037
vn 0.0164795 -0.567383 0.822754
vn 0.0221252 -0.568848 0.821777
vn 0.922852 -0.383057 -0.0294342
vn 0.919922 -0.390625 -0.016037
vn 0.922852 -0.383057 -0.0294342
vn 0.923828 -0.376709 -0.0625
vn 0.923828 -0.376953 -0.0651245
vn 0.919922 -0.390625 -0.016037
vn 0.015625 -0.145752 -0.98877
vn 0.0283661 -0.150635 -0.987793
vn 0.015625 -0.145752 -0.98877
vn -0.015625 -0.145752 -0.98877
vn -0.0283661 -0.150635 -0.987793
vn 0.0283661 -0.150635 -0.987793
vn -0.015625 -0.145752 -0.98877
vn -0.923828 -0.376709 -0.0625
vn -0.923828 -0.376953 -0.0651245
vn -0.0283661 -0.150635 -0.987793

vt 0.508139 0.225036
vt 0.926399 0.22498
vt 0.920393 0.257653
vt 0.514148 0.257653
vt 0.911437 0.257653
vt 0.926399 0.224977
vt 0.508141 0.224922
vt 0.514147 0.257653
vt 0.483823 0.257653
vt 0.48983 0.22492
vt 0.0715735 0.2249
vt 0.0775794 0.257653
vt 0.946176 0.268715
vt 0.946176 0.955433
vt 0.236846 0.955433
vt 0.236846 0.268715
vt 0.226217 0.97714
vt 0.224765 0.981829
vt 0.0117357 0.981829
vt 0.0103573 0.977064
vt 0.00572082 0.975626
vt 0.00572082 0.747932
vt 0.0103573 0.746494
vt 0.226217 0.746419
vt 0.489828 0.225037
vt 0.483816 0.257653
vt 0.0775751 0.257653
vt 0.0715681 0.225037
vt 0.230779 0.975628
vt 0.23078 0.747932
vt 0.224774 0.741729
vt 0.0117358 0.741729
vt 0.508136 0.160722
vt 0.489825 0.160723
vt 0.513236 0.143575
vt 0.522915 0.143574
vt 0.508138 0.203598
vt 0.489827 0.203599
vt 0.926581 0.149881
vt 0.926393 0.160666
vt 0.911611 0.143522
vt 0.92129 0.14352
vt 0.935549 0.160664
vt 0.935552 0.20354
vt 0.926397 0.203542
vt 0.489834 0.160606
vt 0.489723 0.149461
vt 0.484733 0.14346
vt 0.475423 0.14346
vt 0.508145 0.160608
vt 0.49899 0.160606
vt 0.498987 0.203483
vt 0.508143 0.203484
vt 0.0715674 0.160723
vt 0.0716791 0.149578
vt 0.0766688 0.143577
vt 0.0861714 0.143577
vt 0.0624118 0.160723
vt 0.0715679 0.203599
vt 0.0624123 0.203599
vt 0.729004 0.0715374
vt 0.734574 0.0697895
vt 0.742657 0.0110272
vt 0.729913 0.0110103
vt 0.501477 0.0699037
vt 0.507045 0.0715007
vt 0.506068 0.0110064
vt 0.493878 0.0110387
vt 0.978671 0.126006
vt 0.984687 0.125863
vt 0.984665 0.0116377
vt 0.978019 0.0116209
vt 0.26579 0.124994
vt 0.271633 0.122127
vt 0.278126 0.012186
vt 0.265419 0.012215
vt 0.926401 0.203539
vt 0.926404 0.160663
vt 0.0715752 0.160585
vt 0.071574 0.203462
vt 0.489832 0.203482
vt 0.475376 0.1438
vt 0.0859883 0.143441
vt 0.911956 0.143738
vt 0.522246 0.143829
vt 0.740318 0.07283
vt 0.0218523 0.121988
vt 0.0226354 0.012091
vt 0.27715 0.123746
vt 0.496201 0.0727388
vt 0.501011 0.225036
vt 0.933314 0.22498
vt 0.502258 0.225036
vt 0.0663062 0.225037
vt 0.489827 0.210745
vt 0.508138 0.210744
vt 0.071568 0.210745
vt 0.0624124 0.210745
vt 0.0624125 0.225037
vt 0.489831 0.210628
vt 0.0715739 0.210608
vt 0.508142 0.21063
vt 0.498987 0.210629
vt 0.498986 0.224921
vt 0.9264 0.210685
vt 0.926397 0.210688
vt 0.935553 0.210686
vt 0.935554 0.224978
vt 0.489827 0.203599
vt 0.508138 0.203598
vt 0.508138 0.210744
vt 0.489827 0.210745
vt 0.926397 0.203542
vt 0.926397 0.210688
vt 0.935552 0.20354
vt 0.935553 0.210686
vt 0.926401 0.203539
vt 0.508143 0.203484
vt 0.508142 0.21063
vt 0.9264 0.210685
vt 0.498987 0.203483
vt 0.498987 0.210629
vt 0.489832 0.203482
vt 0.071574 0.203462
vt 0.0715739 0.210608
vt 0.489831 0.210628
vt 0.0624123 0.203599
vt 0.0715679 0.203599
vt 0.071568 0.210745
vt 0.0624124 0.210745


#
# MESH 000
#
g surface_000
usemtl surface_000
f 127/127/127 129/129/129 130/130/130
f 127/127/127 128/128/128 129/129/129
f 128/128/128 112/112/112 129/129/129
f 128/128/128 109/109/109 112/112/112
f 109/109/109 111/111/111 112/112/112
f 109/109/109 110/110/110 111/111/111
f 110/110/110 114/114/114 111/111/111
f 110/110/110 113/113/113 114/114/114
f 113/113/113 116/116/116 114/114/114
f 113/113/113 115/115/115 116/116/116
f 123/123/123 125/125/125 126/126/126
f 123/123/123 124/124/124 125/125/125
f 118/118/118 121/121/121 122/122/122
f 118/118/118 122/122/122 119/119/119
f 117/117/117 118/118/118 119/119/119
f 117/117/117 119/119/119 120/120/120
f 106/106/106 107/107/107 108/108/108
f 106/106/106 108/108/108 2/2/2
f 96/96/96 106/106/106 2/2/2
f 96/96/96 2/2/2 1/1/1
f 95/95/95 96/96/96 1/1/1
f 95/95/95 1/1/1 25/25/25
f 97/97/97 95/95/95 25/25/25
f 97/97/97 25/25/25 28/28/28
f 98/98/98 97/97/97 28/28/28
f 98/98/98 28/28/28 99/99/99
f 1/1/1 2/2/2 3/3/3
f 1/1/1 3/3/3 4/4/4
f 1/1/1 4/4/4 91/91/91
f 92/92/92 3/3/3 2/2/2
f 25/25/25 27/27/27 28/28/28
f 25/25/25 26/26/26 27/27/27
f 102/102/102 103/103/103 104/104/104
f 102/102/102 104/104/104 7/7/7
f 105/105/105 102/102/102 7/7/7
f 105/105/105 7/7/7 6/6/6
f 5/5/5 6/6/6 7/7/7
f 5/5/5 7/7/7 8/8/8
f 93/93/93 8/8/8 7/7/7
f 100/100/100 101/101/101 11/11/11
f 100/100/100 11/11/11 10/10/10
f 9/9/9 10/10/10 11/11/11
f 9/9/9 11/11/11 12/12/12
f 94/94/94 12/12/12 11/11/11
f 89/89/89 68/68/68 75/75/75
f 89/89/89 90/90/90 68/68/68
f 87/87/87 76/76/76 88/88/88
f 87/87/87 73/73/73 76/76/76
f 73/73/73 75/75/75 76/76/76
f 73/73/73 74/74/74 75/75/75
f 86/86/86 72/72/72 63/63/63
f 86/86/86 69/69/69 72/72/72
f 69/69/69 71/71/71 72/72/72
f 69/69/69 70/70/70 71/71/71
f 50/50/50 84/84/84 85/85/85
f 50/50/50 78/78/78 84/84/84
f 50/50/50 77/77/77 78/78/78
f 50/50/50 53/53/53 77/77/77
f 50/50/50 52/52/52 53/53/53
f 50/50/50 51/51/51 52/52/52
f 79/79/79 49/49/49 83/83/83
f 79/79/79 46/46/46 49/49/49
f 46/46/46 48/48/48 49/49/49
f 46/46/46 47/47/47 48/48/48
f 79/79/79 81/81/81 46/46/46
f 79/79/79 80/80/80 81/81/81
f 34/34/34 57/57/57 82/82/82
f 34/34/34 54/54/54 57/57/57
f 54/54/54 56/56/56 57/57/57
f 54/54/54 55/55/55 56/56/56
f 34/34/34 59/59/59 54/54/54
f 58/58/58 54/54/54 59/59/59
f 58/58/58 59/59/59 60/60/60
f 34/34/34 38/38/38 59/59/59
f 34/34/34 37/37/37 38/38/38
f 34/34/34 33/33/33 37/37/37
f 40/40/40 37/37/37 33/33/33
f 40/40/40 45/45/45 37/37/37
f 40/40/40 44/44/44 45/45/45
f 40/40/40 43/43/43 44/44/44
f 33/33/33 34/34/34 35/35/35
f 33/33/33 35/35/35 36/36/36
f 40/40/40 33/33/33 36/36/36
f 40/40/40 36/36/36 41/41/41
f 39/39/39 40/40/40 41/41/41
f 39/39/39 41/41/41 42/42/42
f 65/65/65 67/67/67 68/68/68
f 65/65/65 66/66/66 67/67/67
f 66/66/66 64/64/64 67/67/67
f 66/66/66 61/61/61 64/64/64
f 61/61/61 63/63/63 64/64/64
f 61/61/61 62/62/62 63/63/63
f 13/13/13 15/15/15 16/16/16
f 13/13/13 14/14/14 15/15/15
f 32/32/32 23/23/23 22/22/22
f 31/31/31 23/23/23 32/32/32
f 31/31/31 24/24/24 23/23/23
f 24/24/24 20/20/20 23/23/23
f 20/20/20 22/22/22 23/23/23
f 20/20/20 21/21/21 22/22/22
f 21/21/21 20/20/20 19/19/19
f 17/17/17 19/19/19 20/20/20
f 17/17/17 18/18/18 19/19/19
f 18/18/18 17/17/17 29/29/29
f 30/30/30 24/24/24 31/31/31
f 29/29/29 24/24/24 30/30/30
f 29/29/29 17/17/17 24/24/24
f 24/24/24 17/17/17 20/20/20

