#
# OBJECT NAME
#
o model_2441
mtllib 2441.mtl

#
# VERTEX BUFFER 000
#
v 0.0237626 0.758053 0.0237626
v 0.0237626 0.780248 0.0237626
v 0 0.780248 0.0336055
v 0 0.758053 0.0336055
v -0.0237626 0.780248 0.0237626
v -0.0237626 0.758053 0.0237626
v -0.0336053 0.780248 0
v -0.0336053 0.758053 0
v -0.0237626 0.780248 -0.0237626
v -0.0237626 0.758053 -0.0237626
v 0 0.780248 -0.0336054
v 0 0.758053 -0.0336054
v 0.0237626 0.780248 -0.0237626
v 0.0237626 0.758053 -0.0237626
v 0.0336054 0.780248 0
v 0.0336054 0.758053 0
v 0.0237626 0.780248 0.0237626
v 0.0237626 0.758053 0.0237626
v 0.0531568 0.716636 0.0531568
v 0.0531568 0.766285 0.0531568
v 0 0.766285 0.075175
v 0 0.716636 0.075175
v -0.0531569 0.766285 0.0531568
v -0.0531569 0.716636 0.0531568
v -0.075175 0.766285 0
v -0.075175 0.716636 0
v -0.0531569 0.766285 -0.0531568
v -0.0531569 0.716636 -0.0531568
v 0 0.766285 -0.0751751
v 0 0.716636 -0.0751751
v 0.0531568 0.766285 -0.0531568
v 0.0531568 0.716636 -0.0531568
v 0.0751751 0.766285 0
v 0.0751751 0.716636 0
v 0.0531568 0.766285 0.0531568
v 0.0531568 0.716636 0.0531568
v 0 0.716636 0.075175
v 0 0.716636 0
v 0.0531568 0.716636 0.0531568
v -0.0531569 0.716636 0.0531568
v -0.075175 0.716636 0
v -0.0531569 0.716636 -0.0531568
v 0 0.716636 -0.0751751
v 0.0531568 0.716636 -0.0531568
v 0.0751751 0.716636 0
v 0.0531568 0.766285 0.0531568
v 0 0.766285 0
v 0 0.766285 0.075175
v -0.0531569 0.766285 0.0531568
v -0.075175 0.766285 0
v -0.0531569 0.766285 -0.0531568
v 0 0.766285 -0.0751751
v 0.0531568 0.766285 -0.0531568
v 0.0751751 0.766285 0
v 0.0412512 0.163155 0.0412512
v 0.0412512 0.716636 0.0412512
v 0 0.716636 0.058338
v 0 0.163155 0.0583381
v -0.0412512 0.716636 0.0412512
v -0.0412512 0.163155 0.0412512
v -0.0583379 0.716636 0
v -0.0583379 0.163155 0
v -0.0412512 0.716636 -0.0412513
v -0.0412512 0.163155 -0.0412513
v 0 0.716636 -0.0583381
v 0 0.163155 -0.0583381
v 0.0412512 0.716636 -0.0412512
v 0.0412512 0.163155 -0.0412512
v 0.0583381 0.716636 0
v 0.0583381 0.163155 0
v 0.0412512 0.716636 0.0412512
v 0.0412512 0.163155 0.0412512
v 0.137856 0 0.137856
v 0.137856 0.0540383 0.137856
v 0 0.0540383 0.194957
v 0 0 0.194957
v -0.137856 0.0540383 0.137856
v -0.137856 0 0.137856
v -0.194957 0.0540383 0
v -0.194957 0 0
v -0.137856 0.0540383 -0.137856
v -0.137856 0 -0.137856
v 0 0.0540383 -0.194957
v 0 0 -0.194957
v 0.137856 0.0540383 -0.137856
v 0.137856 0 -0.137856
v 0.194957 0.0540383 0
v 0.194957 0 0
v 0.137856 0.0540383 0.137856
v 0.137856 0 0.137856
v 0 0 0.194957
v 0 0 0
v 0.137856 0 0.137856
v -0.137856 0 0.137856
v -0.194957 0 0
v -0.137856 0 -0.137856
v 0 0 -0.194957
v 0.137856 0 -0.137856
v 0.194957 0 0
v 0.0905993 0.10481 0
v 0.058338 0.163156 0
v 0.0412512 0.163156 0.0412512
v 0.0640634 0.10481 0.0640633
v 0 0.163156 0.058338
v 0 0.10481 0.0905993
v -0.0412512 0.163156 0.0412512
v -0.0640633 0.10481 0.0640633
v -0.058338 0.163156 0
v -0.0905993 0.10481 0
v -0.0412512 0.163156 -0.0412512
v -0.0640633 0.10481 -0.0640633
v 0 0.163156 -0.0583381
v 0 0.10481 -0.0905993
v 0.0412512 0.163156 -0.0412512
v 0.0640634 0.10481 -0.0640634
v 0.152453 0.0540383 0
v 0.1078 0.0540383 -0.1078
v 0.1078 0.0540383 0.1078
v 0 0.0540383 0.152453
v -0.1078 0.0540383 0.1078
v -0.152453 0.0540383 0
v -0.1078 0.0540383 -0.1078
v 0 0.0540383 -0.152453
v -0.194957 0.0540383 0
v -0.137856 0.0540383 -0.137856
v -0.137856 0.0540383 0.137856
v 0 0.0540383 0.194957
v 0.137856 0.0540383 0.137856
v 0.194957 0.0540383 0
v 0.137856 0.0540383 -0.137856
v 0 0.0540383 -0.194957
v 0.0269333 0.780025 0.0466498
v 0.0466498 0.819458 0.0807997
v -0.0466497 0.819458 0.0807998
v -0.0269332 0.780025 0.0466498
v -0.0932995 0.819458 0
v -0.0538665 0.780025 0
v -0.0466497 0.819458 -0.0807997
v -0.0269333 0.780025 -0.0466498
v 0.0466497 0.819458 -0.0807998
v 0.0269332 0.780025 -0.0466498
v 0.0932994 0.819458 0
v 0.0538665 0.780025 0
v 0.0466498 0.819458 0.0807997
v 0.0269333 0.780025 0.0466498
v 0.0538665 0.873325 0.0932995
v -0.0538664 0.873325 0.0932995
v -0.107733 0.873325 0
v -0.0538665 0.873325 -0.0932995
v 0.0538665 0.873325 -0.0932995
v 0.107733 0.873325 0
v 0.0538665 0.873325 0.0932995
v 0.0466498 0.927191 0.0807997
v -0.0466497 0.927191 0.0807998
v -0.0932995 0.927191 0
v -0.0466497 0.927191 -0.0807997
v 0.0466497 0.927191 -0.0807998
v 0.0932994 0.927191 0
v 0.0466498 0.927191 0.0807997
v 0.0269333 0.966624 0.0466498
v -0.0269332 0.966624 0.0466498
v -0.0538665 0.966624 0
v -0.0269333 0.966624 -0.0466498
v 0.0269332 0.966624 -0.0466498
v 0.0538665 0.966624 0
v 0.0269333 0.966624 0.0466498
v 0 0.765592 0
v 0 0.765592 0
v 0 0.765592 0
v 0 0.765592 0
v 0 0.765592 0
v 0 0.765592 0
v 0 0.981058 0
v 0 0.981058 0
v 0 0.981058 0
v 0 0.981058 0
v 0 0.981058 0
v 0 0.981058 0

vn 0.707031 0 0.707031
vn 0.707031 0 0.707031
vn 0 0 1
vn 0 0 1
vn -0.707031 0 0.707031
vn -0.707031 0 0.707031
vn -1 0 0
vn -1 0 0
vn -0.707031 0 -0.707031
vn -0.707031 0 -0.707031
vn 0 0 -1
vn 0 0 -1
vn 0.707031 0 -0.707031
vn 0.707031 0 -0.707031
vn 1 0 0
vn 1 0 0
vn 0.707031 0 0.707031
vn 0.707031 0 0.707031
vn 0.707031 0 0.707031
vn 0.707031 0 0.707031
vn 0 0 1
vn 0 0 1
vn -0.707031 0 0.707031
vn -0.707031 0 0.707031
vn -1 0 0
vn -1 0 0
vn -0.707031 0 -0.707031
vn -0.707031 0 -0.707031
vn 0 0 -1
vn 0 0 -1
vn 0.707031 0 -0.707031
vn 0.707031 0 -0.707031
vn 1 0 0
vn 1 0 0
vn 0.707031 0 0.707031
vn 0.707031 0 0.707031
vn 0 -1 0
vn 0 -1 0
vn 0 -1 -4.17233e-007
vn 0 -1 4.17233e-007
vn 0 -1 0
vn 0 -1 -4.17233e-007
vn 0 -1 0
vn 0 -1 4.17233e-007
vn 0 -1 0
vn 0 1 0
vn 0 1 0
vn 0 1 0
vn 0 1 -4.17233e-007
vn 0 1 0
vn 0 1 4.17233e-007
vn 0 1 0
vn 0 1 0
vn 0 1 0
vn 0.707031 0 0.707031
vn 0.707031 0 0.707031
vn 0 0 1
vn 0 0 1
vn -0.707031 0 0.707031
vn -0.707031 0 0.707031
vn -1 0 0
vn -1 0 0
vn -0.707031 0 -0.707031
vn -0.707031 0 -0.707031
vn 7.15256e-007 0 -1
vn 7.15256e-007 0 -1
vn 0.707031 0 -0.707031
vn 0.707031 0 -0.707031
vn 1 0 0
vn 1 0 0
vn 0.707031 0 0.707031
vn 0.707031 0 0.707031
vn 0.707031 0 0.707031
vn 0.707031 0 0.707031
vn 0 0 1
vn 0 0 1
vn -0.707031 0 0.707031
vn -0.707031 0 0.707031
vn -1 0 0
vn -1 0 0
vn -0.707031 0 -0.707031
vn -0.707031 0 -0.707031
vn 0 0 -1
vn 0 0 -1
vn 0.707031 0 -0.707031
vn 0.707031 0 -0.707031
vn 1 0 0
vn 1 0 0
vn 0.707031 0 0.707031
vn 0.707031 0 0.707031
vn 0 -1 0
vn 0 -1 0
vn 0 -1 0
vn 0 -1 0
vn 0 -1 0
vn 0 -1 0
vn 0 -1 0
vn 0 -1 0
vn 0 -1 0
vn 0.710449 0.703613 0
vn 0.875 0.483643 0
vn 0.618652 0.483643 0.618652
vn 0.501953 0.703613 0.501953
vn 0 0.483643 0.875
vn 0 0.703613 0.710449
vn -0.618652 0.483643 0.618652
vn -0.501953 0.703613 0.501953
vn -0.875 0.483643 0
vn -0.710449 0.703613 0
vn -0.618652 0.483643 -0.618652
vn -0.501953 0.703613 -0.501953
vn 0 0.483643 -0.875
vn 0 0.703613 -0.710449
vn 0.618652 0.483643 -0.618652
vn 0.501953 0.703613 -0.501953
vn 0.309814 0.950684 0
vn 0.219116 0.950684 -0.219116
vn 0.219116 0.950684 0.219116
vn 0 0.950684 0.309814
vn -0.219116 0.950684 0.219116
vn -0.309814 0.950684 0
vn -0.219116 0.950684 -0.219116
vn 0 0.950684 -0.309814
vn 0 1 0
vn 0 1 0
vn 0 1 0
vn 0 1 0
vn 0 1 0
vn 0 1 0
vn 0 1 0
vn 0 1 0
vn 0.321777 -0.764648 0.557617
vn 0.452393 -0.425293 0.783691
vn -0.452393 -0.425293 0.783691
vn -0.321777 -0.764648 0.557617
vn -0.904785 -0.425293 5.96046e-007
vn -0.643555 -0.764648 2.98023e-007
vn -0.452393 -0.425293 -0.783691
vn -0.321777 -0.764648 -0.557617
vn 0.452393 -0.425293 -0.783691
vn 0.321777 -0.764648 -0.557617
vn 0.904785 -0.425293 -2.98023e-007
vn 0.643555 -0.764648 -2.98023e-007
vn 0.452393 -0.425293 0.783691
vn 0.321777 -0.764648 0.557617
vn 0.499756 0 0.865723
vn -0.499756 0 0.865723
vn -1 0 7.15256e-007
vn -0.5 0 -0.865723
vn 0.5 0 -0.865723
vn 1 0 -1.78814e-007
vn 0.499756 0 0.865723
vn 0.452393 0.425293 0.783691
vn -0.452393 0.425293 0.783691
vn -0.904785 0.425293 4.76837e-007
vn -0.452393 0.425293 -0.783691
vn 0.452393 0.425293 -0.783691
vn 0.904785 0.425293 -3.57628e-007
vn 0.452393 0.425293 0.783691
vn 0.321777 0.764648 0.557617
vn -0.321777 0.764648 0.557617
vn -0.643555 0.764648 1.78814e-007
vn -0.321777 0.764648 -0.557617
vn 0.321777 0.764648 -0.557617
vn 0.643555 0.764648 -9.53674e-007
vn 0.321777 0.764648 0.557617
vn 0 -1 1.78814e-007
vn 0 -1 1.78814e-007
vn 0 -1 1.78814e-007
vn 0 -1 1.78814e-007
vn 0 -1 1.78814e-007
vn 0 -1 1.78814e-007
vn 0 1 0
vn 0 1 0
vn 0 1 0
vn 0 1 0
vn 0 1 0
vn 0 1 0

vt 0.325236 0.599874
vt 0.325236 0.637143
vt 0.287998 0.637143
vt 0.287998 0.599874
vt 0.25076 0.637143
vt 0.25076 0.599874
vt 0.213522 0.637143
vt 0.213522 0.599874
vt 0.176284 0.637143
vt 0.176284 0.599874
vt 0.139046 0.637143
vt 0.139046 0.599874
vt 0.101808 0.637143
vt 0.101808 0.599874
vt 0.0645696 0.637143
vt 0.0645696 0.599874
vt 0.0273315 0.637143
vt 0.0273315 0.599874
vt 0.847811 0.0213813
vt 0.895837 0.0213813
vt 0.895837 0.0747771
vt 0.847811 0.0747771
vt 0.895837 0.128173
vt 0.847811 0.128173
vt 0.895837 0.181569
vt 0.847811 0.181569
vt 0.895837 0.234965
vt 0.847811 0.234965
vt 0.895837 0.288361
vt 0.847812 0.288361
vt 0.895837 0.341757
vt 0.847811 0.341757
vt 0.895837 0.395152
vt 0.847811 0.395152
vt 0.895837 0.448548
vt 0.847812 0.448548
vt 0.450418 0.603855
vt 0.450418 0.687068
vt 0.389125 0.629243
vt 0.51171 0.629243
vt 0.537098 0.690535
vt 0.51171 0.751828
vt 0.450418 0.777216
vt 0.389125 0.751828
vt 0.363737 0.690535
vt 0.389125 0.95235
vt 0.450418 0.887591
vt 0.450418 0.977738
vt 0.51171 0.95235
vt 0.537098 0.891058
vt 0.51171 0.829765
vt 0.450418 0.804377
vt 0.389125 0.829765
vt 0.363737 0.891058
vt 0.413752 0.0263448
vt 0.413752 0.573807
vt 0.365143 0.573807
vt 0.365143 0.0263448
vt 0.316533 0.573807
vt 0.316533 0.0263448
vt 0.267923 0.573807
vt 0.267923 0.0263448
vt 0.219313 0.573807
vt 0.219313 0.0263448
vt 0.170703 0.573807
vt 0.170703 0.0263448
vt 0.122093 0.573807
vt 0.122093 0.0263448
vt 0.0734828 0.573807
vt 0.0734828 0.0263448
vt 0.0248729 0.573807
vt 0.0248729 0.0263448
vt 0.940761 0.0296879
vt 0.972027 0.0296879
vt 0.972027 0.103469
vt 0.940761 0.103469
vt 0.972027 0.177251
vt 0.940761 0.177251
vt 0.972027 0.251032
vt 0.940761 0.251032
vt 0.972027 0.324813
vt 0.940761 0.324813
vt 0.972027 0.398595
vt 0.940761 0.398595
vt 0.972027 0.472376
vt 0.940761 0.472376
vt 0.972027 0.546158
vt 0.940761 0.546158
vt 0.972027 0.619939
vt 0.940761 0.619939
vt 0.636768 0.3758
vt 0.717427 0.3758
vt 0.661377 0.435212
vt 0.661377 0.316389
vt 0.720788 0.29178
vt 0.7802 0.316389
vt 0.804809 0.3758
vt 0.7802 0.435212
vt 0.720788 0.459821
vt 0.695818 0.0732566
vt 0.695818 0.104458
vt 0.66925 0.115462
vt 0.647188 0.0933998
vt 0.658246 0.14203
vt 0.627045 0.14203
vt 0.66925 0.168597
vt 0.647188 0.190659
vt 0.695818 0.179601
vt 0.695818 0.210803
vt 0.722385 0.168597
vt 0.744448 0.19066
vt 0.73339 0.14203
vt 0.764591 0.14203
vt 0.722385 0.115462
vt 0.744448 0.0933998
vt 0.695818 0.0415547
vt 0.766864 0.0709831
vt 0.624771 0.0709831
vt 0.595343 0.14203
vt 0.624771 0.213076
vt 0.695818 0.242504
vt 0.766864 0.213076
vt 0.796293 0.14203
vt 0.695818 0.270517
vt 0.786672 0.232884
vt 0.604963 0.232884
vt 0.56733 0.14203
vt 0.604963 0.0511749
vt 0.695818 0.0135418
vt 0.786672 0.051175
vt 0.824306 0.14203
vt 0.326431 0.720897
vt 0.326431 0.770752
vt 0.276576 0.770752
vt 0.276576 0.720897
vt 0.22672 0.770752
vt 0.22672 0.720897
vt 0.176865 0.770752
vt 0.176865 0.720897
vt 0.127009 0.770752
vt 0.127009 0.720897
vt 0.0771539 0.770752
vt 0.0771539 0.720897
vt 0.0272984 0.770752
vt 0.0272984 0.720897
vt 0.326431 0.820608
vt 0.276576 0.820608
vt 0.22672 0.820608
vt 0.176865 0.820608
vt 0.127009 0.820608
vt 0.0771539 0.820608
vt 0.0272984 0.820608
vt 0.326431 0.870463
vt 0.276576 0.870463
vt 0.22672 0.870463
vt 0.176865 0.870463
vt 0.127009 0.870463
vt 0.0771539 0.870463
vt 0.0272984 0.870463
vt 0.326431 0.920319
vt 0.276576 0.920319
vt 0.22672 0.920319
vt 0.176865 0.920319
vt 0.127009 0.920319
vt 0.0771539 0.920319
vt 0.0272984 0.920319
vt 0.301504 0.671041
vt 0.251648 0.671041
vt 0.201793 0.671041
vt 0.151937 0.671041
vt 0.102082 0.671041
vt 0.0522262 0.671041
vt 0.301504 0.970174
vt 0.251648 0.970174
vt 0.201793 0.970174
vt 0.151937 0.970174
vt 0.102082 0.970174
vt 0.0522262 0.970174


#
# MESH 000
#
g surface_000
usemtl surface_000
f 16/16/16 17/17/17 18/18/18
f 16/16/16 15/15/15 17/17/17
f 14/14/14 15/15/15 16/16/16
f 14/14/14 13/13/13 15/15/15
f 12/12/12 13/13/13 14/14/14
f 12/12/12 11/11/11 13/13/13
f 10/10/10 11/11/11 12/12/12
f 10/10/10 9/9/9 11/11/11
f 8/8/8 9/9/9 10/10/10
f 8/8/8 7/7/7 9/9/9
f 6/6/6 7/7/7 8/8/8
f 6/6/6 5/5/5 7/7/7
f 4/4/4 5/5/5 6/6/6
f 4/4/4 3/3/3 5/5/5
f 1/1/1 3/3/3 4/4/4
f 1/1/1 2/2/2 3/3/3
f 34/34/34 35/35/35 36/36/36
f 34/34/34 33/33/33 35/35/35
f 32/32/32 33/33/33 34/34/34
f 32/32/32 31/31/31 33/33/33
f 30/30/30 31/31/31 32/32/32
f 30/30/30 29/29/29 31/31/31
f 28/28/28 29/29/29 30/30/30
f 28/28/28 27/27/27 29/29/29
f 26/26/26 27/27/27 28/28/28
f 26/26/26 25/25/25 27/27/27
f 24/24/24 25/25/25 26/26/26
f 24/24/24 23/23/23 25/25/25
f 22/22/22 23/23/23 24/24/24
f 22/22/22 21/21/21 23/23/23
f 19/19/19 21/21/21 22/22/22
f 19/19/19 20/20/20 21/21/21
f 54/54/54 47/47/47 46/46/46
f 53/53/53 47/47/47 54/54/54
f 52/52/52 47/47/47 53/53/53
f 51/51/51 47/47/47 52/52/52
f 50/50/50 47/47/47 51/51/51
f 49/49/49 47/47/47 50/50/50
f 48/48/48 47/47/47 49/49/49
f 46/46/46 47/47/47 48/48/48
f 39/39/39 38/38/38 45/45/45
f 37/37/37 38/38/38 39/39/39
f 40/40/40 38/38/38 37/37/37
f 41/41/41 38/38/38 40/40/40
f 42/42/42 38/38/38 41/41/41
f 43/43/43 38/38/38 42/42/42
f 44/44/44 38/38/38 43/43/43
f 45/45/45 38/38/38 44/44/44
f 70/70/70 71/71/71 72/72/72
f 70/70/70 69/69/69 71/71/71
f 68/68/68 69/69/69 70/70/70
f 68/68/68 67/67/67 69/69/69
f 66/66/66 67/67/67 68/68/68
f 66/66/66 65/65/65 67/67/67
f 64/64/64 65/65/65 66/66/66
f 64/64/64 63/63/63 65/65/65
f 62/62/62 63/63/63 64/64/64
f 62/62/62 61/61/61 63/63/63
f 60/60/60 61/61/61 62/62/62
f 60/60/60 59/59/59 61/61/61
f 58/58/58 59/59/59 60/60/60
f 58/58/58 57/57/57 59/59/59
f 55/55/55 57/57/57 58/58/58
f 55/55/55 56/56/56 57/57/57
f 88/88/88 89/89/89 90/90/90
f 88/88/88 87/87/87 89/89/89
f 86/86/86 87/87/87 88/88/88
f 86/86/86 85/85/85 87/87/87
f 84/84/84 85/85/85 86/86/86
f 84/84/84 83/83/83 85/85/85
f 82/82/82 83/83/83 84/84/84
f 82/82/82 81/81/81 83/83/83
f 80/80/80 81/81/81 82/82/82
f 80/80/80 79/79/79 81/81/81
f 78/78/78 79/79/79 80/80/80
f 78/78/78 77/77/77 79/79/79
f 76/76/76 77/77/77 78/78/78
f 76/76/76 75/75/75 77/77/77
f 73/73/73 75/75/75 76/76/76
f 73/73/73 74/74/74 75/75/75
f 125/125/125 123/123/123 131/131/131
f 125/125/125 122/122/122 123/123/123
f 123/123/123 122/122/122 111/111/111
f 123/123/123 111/111/111 113/113/113
f 117/117/117 123/123/123 113/113/113
f 131/131/131 123/123/123 117/117/117
f 131/131/131 117/117/117 130/130/130
f 130/130/130 117/117/117 116/116/116
f 130/130/130 116/116/116 129/129/129
f 124/124/124 122/122/122 125/125/125
f 124/124/124 121/121/121 122/122/122
f 122/122/122 121/121/121 109/109/109
f 122/122/122 109/109/109 111/111/111
f 109/109/109 110/110/110 111/111/111
f 111/111/111 110/110/110 112/112/112
f 111/111/111 112/112/112 113/113/113
f 113/113/113 112/112/112 114/114/114
f 113/113/113 114/114/114 115/115/115
f 117/117/117 113/113/113 115/115/115
f 116/116/116 117/117/117 115/115/115
f 126/126/126 121/121/121 124/124/124
f 126/126/126 120/120/120 121/121/121
f 121/121/121 120/120/120 107/107/107
f 121/121/121 107/107/107 109/109/109
f 107/107/107 108/108/108 109/109/109
f 109/109/109 108/108/108 110/110/110
f 127/127/127 120/120/120 126/126/126
f 127/127/127 119/119/119 120/120/120
f 120/120/120 119/119/119 105/105/105
f 120/120/120 105/105/105 107/107/107
f 105/105/105 106/106/106 107/107/107
f 107/107/107 106/106/106 108/108/108
f 128/128/128 119/119/119 127/127/127
f 128/128/128 118/118/118 119/119/119
f 119/119/119 118/118/118 103/103/103
f 119/119/119 103/103/103 105/105/105
f 103/103/103 104/104/104 105/105/105
f 105/105/105 104/104/104 106/106/106
f 129/129/129 118/118/118 128/128/128
f 129/129/129 116/116/116 118/118/118
f 118/118/118 116/116/116 100/100/100
f 118/118/118 100/100/100 103/103/103
f 100/100/100 102/102/102 103/103/103
f 103/103/103 102/102/102 104/104/104
f 116/116/116 115/115/115 100/100/100
f 115/115/115 101/101/101 100/100/100
f 100/100/100 101/101/101 102/102/102
f 115/115/115 114/114/114 101/101/101
f 93/93/93 92/92/92 99/99/99
f 91/91/91 92/92/92 93/93/93
f 94/94/94 92/92/92 91/91/91
f 95/95/95 92/92/92 94/94/94
f 96/96/96 92/92/92 95/95/95
f 97/97/97 92/92/92 96/96/96
f 98/98/98 92/92/92 97/97/97
f 99/99/99 92/92/92 98/98/98
f 165/165/165 178/178/178 166/166/166
f 158/158/158 165/165/165 166/166/166
f 157/157/157 165/165/165 158/158/158
f 157/157/157 164/164/164 165/165/165
f 164/164/164 177/177/177 165/165/165
f 158/158/158 166/166/166 159/159/159
f 151/151/151 158/158/158 159/159/159
f 150/150/150 158/158/158 151/151/151
f 150/150/150 157/157/157 158/158/158
f 149/149/149 157/157/157 150/150/150
f 149/149/149 156/156/156 157/157/157
f 156/156/156 164/164/164 157/157/157
f 156/156/156 163/163/163 164/164/164
f 163/163/163 176/176/176 164/164/164
f 151/151/151 159/159/159 152/152/152
f 142/142/142 151/151/151 152/152/152
f 140/140/140 151/151/151 142/142/142
f 140/140/140 150/150/150 151/151/151
f 138/138/138 150/150/150 140/140/140
f 138/138/138 149/149/149 150/150/150
f 136/136/136 149/149/149 138/138/138
f 136/136/136 148/148/148 149/149/149
f 148/148/148 156/156/156 149/149/149
f 148/148/148 155/155/155 156/156/156
f 155/155/155 163/163/163 156/156/156
f 142/142/142 152/152/152 144/144/144
f 143/143/143 142/142/142 144/144/144
f 141/141/141 142/142/142 143/143/143
f 141/141/141 140/140/140 142/142/142
f 139/139/139 140/140/140 141/141/141
f 139/139/139 138/138/138 140/140/140
f 137/137/137 138/138/138 139/139/139
f 137/137/137 136/136/136 138/138/138
f 135/135/135 136/136/136 137/137/137
f 135/135/135 134/134/134 136/136/136
f 134/134/134 148/148/148 136/136/136
f 143/143/143 144/144/144 145/145/145
f 145/145/145 172/172/172 143/143/143
f 137/137/137 168/168/168 135/135/135
f 139/139/139 169/169/169 137/137/137
f 141/141/141 170/170/170 139/139/139
f 143/143/143 171/171/171 141/141/141
f 162/162/162 175/175/175 163/163/163
f 155/155/155 162/162/162 163/163/163
f 154/154/154 162/162/162 155/155/155
f 154/154/154 161/161/161 162/162/162
f 161/161/161 174/174/174 162/162/162
f 147/147/147 154/154/154 155/155/155
f 146/146/146 154/154/154 147/147/147
f 146/146/146 153/153/153 154/154/154
f 153/153/153 161/161/161 154/154/154
f 153/153/153 160/160/160 161/161/161
f 160/160/160 173/173/173 161/161/161
f 147/147/147 155/155/155 148/148/148
f 134/134/134 147/147/147 148/148/148
f 133/133/133 147/147/147 134/134/134
f 133/133/133 146/146/146 147/147/147
f 132/132/132 133/133/133 134/134/134
f 132/132/132 134/134/134 135/135/135
f 135/135/135 167/167/167 132/132/132

