#
# OBJECT NAME
#
o model_2448
mtllib 2448.mtl

#
# VERTEX BUFFER 000
#
v 0 0.745965 -0.058338
v 0 0.163155 -0.0583381
v -0.0583381 0.163155 0
v -0.0583381 0.745965 0
v 0.0583379 0.163155 0
v 0 0.163155 -0.0583381
v 0 0.745965 -0.058338
v 0.0583379 0.745965 0
v 0 0.163155 0.0583381
v 0 0.745965 0.0583381
v -0.0583381 0.163155 0
v -0.0583381 0.745965 0
v 0 0.745965 -0.058338
v -0.0583381 0.745965 0
v 0 0.745965 0.0583381
v 0.0583379 0.745965 0
v -0.194957 0 0
v 0.194957 0 0
v 0 0 0.194957
v 0 0 -0.194957
v -0.058338 0.163156 0
v 0 0.163156 -0.058338
v 0 0 -0.194957
v -0.194957 0 0
v 0 0.163156 -0.058338
v 0.058338 0.163156 0
v 0.194957 0 0
v 0 0 -0.194957
v 0.058338 0.163156 0
v 0 0.163156 0.0583381
v 0 0 0.194957
v 0.194957 0 0
v 0 0.163156 0.0583381
v -0.058338 0.163156 0
v -0.194957 0 0
v 0 0 0.194957
v 0 0.91819 0.0782916
v -0.0904034 0.91819 0
v -0.08758 0.805676 0
v 0 0.805676 0.0758465
v 0 0.91819 -0.0782916
v 0 0.805676 -0.0758465
v 0.0904033 0.91819 0
v 0.08758 0.805676 0
v 0 0.91819 0.0782916
v 0 0.805676 0.0758465
v 0 0.727329 0
v 0 0.727329 0
v 0 0.727329 0
v 0 0.727329 0
v 0 0.981058 0
v 0 0.981058 0
v 0 0.981058 0
v 0 0.981058 0
v 0.269788 0.41144 -0.0142719
v 0.0979141 0.563324 -0.014133
v 0.137264 0.604655 -0.0341486
v 0.28969 0.465473 -0.0346824
v 0.133882 0.602283 0.0241408
v 0.288016 0.461999 0.0244771
v 0.288016 0.461999 0.0244771
v 0.133882 0.602283 0.0241408
v 0.5 0.39965 0.0241406
v 0.5 0.349638 -0.0141348
v 0.5 0.40373 -0.0341464
v 0.5 0.40373 -0.0341464
v 0.5 0.349638 -0.0141348
v 0.5 0.39965 0.0241406
v 0.5 0.39965 0.0241406
v 0.164404 0.579238 0.034431
v 0.120178 0.663162 0.034431
v 0.0537763 0.627684 -0.0157604
v 0.0980025 0.54376 -0.0157604
v 0.12312 0.666627 -0.0455442
v 0.167346 0.582703 -0.0455442
v 0.120178 0.663162 0.034431
v 0.164404 0.579238 0.034431
v 0.167346 0.582703 -0.0455442
v 0.164404 0.579238 0.034431
v 0.0980025 0.54376 -0.0157604
v 0.0537763 0.627684 -0.0157604
v 0.120178 0.663162 0.034431
v 0.12312 0.666627 -0.0455442
v 0.0957622 0.646592 0.0137951
v 0.0279749 0.655506 -0.00289543
v 0.0957622 0.646592 -0.0205382
v 0.106448 0.713154 0.0112834
v 0.117338 0.678095 0.0125392
v 0.117338 0.678095 -0.0217941
v 0.106448 0.713154 -0.02305
v 0.0301403 0.743395 -0.0028979
v 0.106448 0.713154 0.0112834
v 0.078898 0.685432 -0.00289558
v 0.0279749 0.655506 -0.00289543
v 0.117338 0.678095 0.0125392
v 0.078898 0.685432 -0.00289558
v 0.0301403 0.743395 -0.0028979
v 0.106448 0.713154 -0.02305
v -0.27177 0.41144 -0.0142719
v -0.291672 0.465473 -0.0346824
v -0.139246 0.604655 -0.0341486
v -0.0998958 0.563324 -0.014133
v -0.289998 0.461999 0.0244771
v -0.135864 0.602283 0.0241408
v -0.135864 0.602283 0.0241408
v -0.289998 0.461999 0.0244771
v -0.501982 0.39965 0.0241406
v -0.501982 0.40373 -0.0341464
v -0.501982 0.349638 -0.0141348
v -0.501982 0.349638 -0.0141348
v -0.501982 0.40373 -0.0341464
v -0.501982 0.39965 0.0241406
v -0.501982 0.39965 0.0241406
v -0.166386 0.579238 0.034431
v -0.0999842 0.54376 -0.0157604
v -0.055758 0.627684 -0.0157604
v -0.12216 0.663162 0.034431
v -0.169328 0.582703 -0.0455442
v -0.125101 0.666627 -0.0455442
v -0.166386 0.579238 0.034431
v -0.12216 0.663162 0.034431
v -0.169328 0.582703 -0.0455442
v -0.0999842 0.54376 -0.0157604
v -0.166386 0.579238 0.034431
v -0.055758 0.627684 -0.0157604
v -0.125101 0.666627 -0.0455442
v -0.12216 0.663162 0.034431
v -0.0977439 0.646592 0.0137951
v -0.0977439 0.646592 -0.0205382
v -0.0299566 0.655506 -0.00289543
v -0.118322 0.677478 0.0125392
v -0.118322 0.677478 -0.0217941
v -0.0977439 0.646592 -0.0205382
v -0.032122 0.743395 -0.0028979
v -0.108429 0.713154 -0.02305
v -0.108429 0.713154 0.0112834
v -0.0808797 0.685432 -0.00289558
v -0.108429 0.713154 0.0112834
v -0.118322 0.677478 0.0125392
v -0.032122 0.743395 -0.0028979
v -0.0808797 0.685432 -0.00289558
v -0.0299566 0.655506 -0.00289543
v -0.108429 0.713154 -0.02305
v 0.117338 0.678095 -0.0217941
v 0.0957622 0.646592 0.0137951
v -0.118322 0.677478 -0.0217941

vn 0 0 -1
vn 0 0 -1
vn -1 0 0
vn -1 0 0
vn 1 0 0
vn 0 0 -1
vn 0 0 -1
vn 1 0 0
vn 0 0 1
vn 0 0 1
vn -1 0 0
vn -1 0 0
vn 0 1 0
vn 0 1 0
vn 0 1 0
vn 0 1 0
vn 0 -1 0
vn 0 -1 0
vn 0 -1 0
vn 0 -1 0
vn -0.766602 0.641602 0
vn 0 0.641602 -0.766602
vn 0 0.641602 -0.766602
vn -0.766602 0.641602 0
vn 0 0.641602 -0.766602
vn 0.766602 0.641602 0
vn 0.766602 0.641602 0
vn 0 0.641602 -0.766602
vn 0.766602 0.641602 0
vn 0 0.641602 0.766602
vn 0 0.641602 0.766602
vn 0.766602 0.641602 0
vn 0 0.641602 0.766602
vn -0.766602 0.641602 0
vn -0.766602 0.641602 0
vn 0 0.641602 0.766602
vn 0 0.176514 0.983887
vn -0.983398 0.178955 5.96046e-007
vn -0.977539 -0.209595 2.98023e-007
vn 0 -0.199097 0.979492
vn -1.78814e-007 0.176514 -0.983887
vn -1.19209e-007 -0.199097 -0.979492
vn 0.983398 0.178955 -6.55651e-007
vn 0.977539 -0.209595 -5.36442e-007
vn 0 0.176514 0.983887
vn 0 -0.199097 0.979492
vn 0 -1 -1.19209e-007
vn 0 -1 -1.19209e-007
vn 0 -1 -1.19209e-007
vn 0 -1 -1.19209e-007
vn -2.98023e-007 1 1.19209e-007
vn -2.98023e-007 1 1.19209e-007
vn -2.98023e-007 1 1.19209e-007
vn -2.98023e-007 1 1.19209e-007
vn -0.45752 -0.887695 -0.0428772
vn -0.667969 -0.742188 -0.0507507
vn 0.383301 0.418701 -0.822754
vn 0.234131 0.429688 -0.87207
vn 0.196289 0.20752 0.958008
vn 0.0901489 0.176025 0.97998
vn 0.0901489 0.176025 0.97998
vn 0.196289 0.20752 0.958008
vn 1 -1.19209e-006 0
vn 1 -1.19209e-006 0
vn 1 -1.19209e-006 0
vn 0.142578 0.465576 -0.873047
vn -0.268311 -0.962402 -0.0361328
vn 0.0602112 0.173462 0.98291
vn 0.0602112 0.173462 0.98291
vn 0.29834 0.157227 0.940918
vn 0.322021 0.169678 0.931152
vn -0.882324 -0.465088 -0.0650635
vn -0.883789 -0.46582 -0.0400085
vn 0.491943 0.259277 -0.830566
vn 0.489258 0.257813 -0.833008
vn 0.322021 0.169678 0.931152
vn 0.29834 0.157227 0.940918
vn 0.48291 -0.875 -0.0201569
vn 0.48291 -0.875 -0.0201569
vn 0.48291 -0.875 -0.0201569
vn -0.48291 0.875 0.0201569
vn -0.48291 0.875 0.0201569
vn -0.48291 0.875 0.0201569
vn 0.322266 -0.691406 0.645996
vn -0.995605 0.0899658 -0.0111008
vn 0.315186 -0.692871 -0.647949
vn 0.520996 0.543457 0.657227
vn 0.883789 -0.132446 0.448242
vn 0.870117 -0.144043 -0.470703
vn 0.469238 0.504395 -0.724121
vn -0.955078 0.274658 -0.109192
vn 0.520996 0.543457 0.657227
vn -0.265381 0.0412598 0.962891
vn -0.995605 0.0899658 -0.0111008
vn 0.883789 -0.132446 0.448242
vn -0.331299 -0.00535202 -0.943359
vn -0.955078 0.274658 -0.109192
vn 0.469238 0.504395 -0.724121
vn 0.45752 -0.887695 -0.0428772
vn -0.234131 0.429688 -0.87207
vn -0.383301 0.418701 -0.822754
vn 0.667969 -0.742188 -0.0507507
vn -0.0901489 0.176025 0.97998
vn -0.196289 0.20752 0.958008
vn -0.196289 0.20752 0.958008
vn -0.0901489 0.176025 0.97998
vn -1 -1.19209e-006 0
vn -1 -1.19209e-006 0
vn -1 -1.19209e-006 0
vn 0.268311 -0.962402 -0.0361328
vn -0.142578 0.465576 -0.873047
vn -0.0602112 0.173462 0.98291
vn -0.0602112 0.173462 0.98291
vn -0.29834 0.157227 0.940918
vn 0.883789 -0.46582 -0.0400085
vn 0.882324 -0.465088 -0.0650635
vn -0.322021 0.169678 0.931152
vn -0.489258 0.257813 -0.833008
vn -0.491943 0.259277 -0.830566
vn -0.29834 0.157227 0.940918
vn -0.322021 0.169678 0.931152
vn -0.48291 -0.875 -0.0201569
vn -0.48291 -0.875 -0.0201569
vn -0.48291 -0.875 -0.0201569
vn 0.48291 0.875 0.0201569
vn 0.48291 0.875 0.0201569
vn 0.48291 0.875 0.0201569
vn -0.320068 -0.690918 0.647949
vn -0.313232 -0.692383 -0.649414
vn 0.995605 0.0899658 -0.0111008
vn -0.884277 -0.13147 0.44751
vn -0.870117 -0.143677 -0.470459
vn -0.313232 -0.692383 -0.649414
vn 0.955078 0.274658 -0.109192
vn -0.48291 0.495605 -0.72168
vn -0.53418 0.53418 0.654785
vn 0.266602 0.0404053 0.962891
vn -0.53418 0.53418 0.654785
vn -0.884277 -0.13147 0.44751
vn 0.955078 0.274658 -0.109192
vn 0.333008 -0.00616074 -0.942383
vn 0.995605 0.0899658 -0.0111008
vn -0.48291 0.495605 -0.72168
vn 0.870117 -0.144043 -0.470703
vn 0.322266 -0.691406 0.645996
vn -0.870117 -0.143677 -0.470459

vt 0.365143 0.573807
vt 0.365143 0.0263448
vt 0.0734828 0.0263448
vt 0.0734828 0.573807
vt 0.267923 0.0263448
vt 0.365143 0.0263448
vt 0.365143 0.573807
vt 0.267923 0.573807
vt 0.170703 0.0263448
vt 0.170703 0.573807
vt 0.0734828 0.0263448
vt 0.0734828 0.573807
vt 0.452039 0.817316
vt 0.527326 0.892602
vt 0.452039 0.967888
vt 0.376754 0.892602
vt 0.750494 0.447516
vt 0.690242 0.303991
vt 0.792504 0.346095
vt 0.649072 0.405506
vt 0.696535 0.113435
vt 0.676243 0.122028
vt 0.605672 0.0385865
vt 0.696617 0.00211692
vt 0.666581 0.139568
vt 0.675963 0.164576
vt 0.591643 0.230665
vt 0.555673 0.14221
vt 0.696342 0.171566
vt 0.716659 0.162225
vt 0.786128 0.244372
vt 0.696931 0.280547
vt 0.724818 0.143948
vt 0.717031 0.121581
vt 0.796873 0.0435546
vt 0.835967 0.140575
vt 0.301504 0.863786
vt 0.22672 0.863786
vt 0.22672 0.758288
vt 0.301504 0.758288
vt 0.151937 0.863786
vt 0.151937 0.758288
vt 0.0771539 0.863786
vt 0.0771539 0.758288
vt 0.0272984 0.863786
vt 0.0272984 0.758288
vt 0.251648 0.671041
vt 0.201793 0.671041
vt 0.102082 0.671041
vt 0.0522262 0.671041
vt 0.251648 0.970174
vt 0.201793 0.970174
vt 0.102082 0.970174
vt 0.0522262 0.970174
vt 0.679902 0.824018
vt 0.679902 0.998683
vt 0.638974 0.998684
vt 0.638974 0.824018
vt 0.607842 0.998697
vt 0.607842 0.824018
vt 0.741142 0.824018
vt 0.741142 0.998684
vt 0.474667 0.563502
vt 0.550821 0.557138
vt 0.507246 0.491612
vt 0.638974 0.644976
vt 0.679902 0.644976
vt 0.741142 0.644976
vt 0.607842 0.644976
vt 0.864571 0.486444
vt 0.864571 0.60567
vt 0.757394 0.60567
vt 0.757394 0.486444
vt 0.679446 0.60567
vt 0.679446 0.486444
vt 0.601499 0.60567
vt 0.601499 0.486444
vt 0.824002 0.68335
vt 0.950476 0.69209
vt 0.867414 0.785436
vt 0.930773 0.973086
vt 0.86786 0.824725
vt 0.975422 0.868092
vt 0.483608 0.201149
vt 0.549708 0.197401
vt 0.483608 0.201149
vt 0.472075 0.124092
vt 0.477842 0.16262
vt 0.477842 0.16262
vt 0.472075 0.124092
vt 0.549708 0.102154
vt 0.472075 0.124092
vt 0.499387 0.156199
vt 0.549708 0.197401
vt 0.477842 0.16262
vt 0.499387 0.156199
vt 0.549708 0.102154
vt 0.472075 0.124092
vt 0.679902 0.824018
vt 0.638974 0.824018
vt 0.638974 0.998684
vt 0.679902 0.998683
vt 0.607842 0.824018
vt 0.607842 0.998697
vt 0.741142 0.998684
vt 0.741142 0.824018
vt 0.474667 0.563502
vt 0.507246 0.491612
vt 0.550821 0.557138
vt 0.679902 0.644976
vt 0.638974 0.644976
vt 0.741142 0.644976
vt 0.607842 0.644976
vt 0.864571 0.486444
vt 0.757394 0.486444
vt 0.757394 0.60567
vt 0.864571 0.60567
vt 0.679446 0.486444
vt 0.679446 0.60567
vt 0.601499 0.486444
vt 0.601499 0.60567
vt 0.824002 0.68335
vt 0.867414 0.785436
vt 0.950476 0.69209
vt 0.930773 0.973086
vt 0.975422 0.868092
vt 0.86786 0.824725
vt 0.483608 0.201149
vt 0.483608 0.201149
vt 0.549708 0.197401
vt 0.477842 0.16262
vt 0.477842 0.16262
vt 0.483608 0.201149
vt 0.549708 0.102154
vt 0.472075 0.124092
vt 0.472075 0.124092
vt 0.499387 0.156199
vt 0.472075 0.124092
vt 0.477842 0.16262
vt 0.549708 0.102154
vt 0.499387 0.156199
vt 0.549708 0.197401
vt 0.472075 0.124092
vt 0.477842 0.16262
vt 0.483608 0.201149
vt 0.477842 0.16262


#
# MESH 000
#
g surface_000
usemtl surface_000
f 13/13/13 15/15/15 16/16/16
f 13/13/13 14/14/14 15/15/15
f 11/11/11 10/10/10 12/12/12
f 11/11/11 9/9/9 10/10/10
f 9/9/9 8/8/8 10/10/10
f 9/9/9 5/5/5 8/8/8
f 5/5/5 7/7/7 8/8/8
f 5/5/5 6/6/6 7/7/7
f 1/1/1 3/3/3 4/4/4
f 1/1/1 2/2/2 3/3/3
f 33/33/33 35/35/35 36/36/36
f 33/33/33 34/34/34 35/35/35
f 29/29/29 31/31/31 32/32/32
f 29/29/29 30/30/30 31/31/31
f 25/25/25 27/27/27 28/28/28
f 25/25/25 26/26/26 27/27/27
f 21/21/21 23/23/23 24/24/24
f 21/21/21 22/22/22 23/23/23
f 20/20/20 18/18/18 17/17/17
f 17/17/17 18/18/18 19/19/19
f 54/54/54 45/45/45 43/43/43
f 43/43/43 45/45/45 46/46/46
f 43/43/43 46/46/46 44/44/44
f 41/41/41 43/43/43 44/44/44
f 53/53/53 43/43/43 41/41/41
f 46/46/46 50/50/50 44/44/44
f 52/52/52 41/41/41 38/38/38
f 38/38/38 41/41/41 42/42/42
f 38/38/38 42/42/42 39/39/39
f 37/37/37 38/38/38 39/39/39
f 51/51/51 38/38/38 37/37/37
f 41/41/41 44/44/44 42/42/42
f 44/44/44 49/49/49 42/42/42
f 42/42/42 48/48/48 39/39/39
f 37/37/37 39/39/39 40/40/40
f 39/39/39 47/47/47 40/40/40
f 134/134/134 135/135/135 136/136/136
f 125/125/125 126/126/126 127/127/127
f 122/122/122 123/123/123 124/124/124
f 107/107/107 108/108/108 109/109/109
f 91/91/91 92/92/92 90/90/90
f 81/81/81 82/82/82 83/83/83
f 78/78/78 79/79/79 80/80/80
f 63/63/63 64/64/64 65/65/65
f 136/136/136 146/146/146 139/139/139
f 136/136/136 143/143/143 146/146/146
f 144/144/144 145/145/145 86/86/86
f 144/144/144 95/95/95 145/145/145
f 134/134/134 141/141/141 143/143/143
f 143/143/143 141/141/141 132/132/132
f 132/132/132 141/141/141 129/129/129
f 129/129/129 141/141/141 142/142/142
f 140/140/140 138/138/138 137/137/137
f 138/138/138 139/139/139 137/137/137
f 137/137/137 139/139/139 128/128/128
f 128/128/128 130/130/130 137/137/137
f 128/128/128 129/129/129 130/130/130
f 131/131/131 133/133/133 128/128/128
f 131/131/131 132/132/132 133/133/133
f 118/118/118 120/120/120 121/121/121
f 118/118/118 121/121/121 119/119/119
f 115/115/115 118/118/118 119/119/119
f 115/115/115 119/119/119 116/116/116
f 114/114/114 115/115/115 116/116/116
f 114/114/114 116/116/116 117/117/117
f 106/106/106 112/112/112 110/110/110
f 106/106/106 110/110/110 99/99/99
f 99/99/99 105/105/105 106/106/106
f 99/99/99 102/102/102 105/105/105
f 99/99/99 101/101/101 102/102/102
f 99/99/99 100/100/100 101/101/101
f 100/100/100 104/104/104 101/101/101
f 100/100/100 103/103/103 104/104/104
f 99/99/99 110/110/110 111/111/111
f 99/99/99 111/111/111 100/100/100
f 100/100/100 111/111/111 113/113/113
f 100/100/100 113/113/113 103/103/103
f 97/97/97 98/98/98 96/96/96
f 98/98/98 89/89/89 96/96/96
f 96/96/96 89/89/89 86/86/86
f 86/86/86 85/85/85 96/96/96
f 84/84/84 85/85/85 86/86/86
f 91/91/91 93/93/93 87/87/87
f 87/87/87 93/93/93 95/95/95
f 95/95/95 93/93/93 84/84/84
f 84/84/84 93/93/93 94/94/94
f 87/87/87 89/89/89 90/90/90
f 87/87/87 88/88/88 89/89/89
f 75/75/75 76/76/76 77/77/77
f 75/75/75 74/74/74 76/76/76
f 73/73/73 74/74/74 75/75/75
f 73/73/73 72/72/72 74/74/74
f 70/70/70 72/72/72 73/73/73
f 70/70/70 71/71/71 72/72/72
f 61/61/61 67/67/67 68/68/68
f 61/61/61 55/55/55 67/67/67
f 55/55/55 66/66/66 67/67/67
f 55/55/55 58/58/58 66/66/66
f 58/58/58 69/69/69 66/66/66
f 58/58/58 60/60/60 69/69/69
f 58/58/58 59/59/59 60/60/60
f 58/58/58 57/57/57 59/59/59
f 55/55/55 61/61/61 62/62/62
f 55/55/55 62/62/62 56/56/56
f 55/55/55 56/56/56 57/57/57
f 55/55/55 57/57/57 58/58/58

