g p015v001_h
v 0.0538342 0.2497971 -0.3200397
v 0.2387412 0.256696 -0.5021763
v 0.206758 0.2497246 -0.2456875
v -0.0507679 0.1026232 -0.1071177
v 0.1021554 0.1025507 -0.03277016
v -0.009010315 -0.004932731 0.0013237
v 0.3402205 0.2245971 -0.1662893
v 0.6185029 0.2053663 -0.1368227
v 0.3833103 0.2274934 0.01226425
v 0.07629442 0.09380829 -0.1014872
v 0.1193838 0.09670556 0.07706547
v 0.002829552 -0.01151314 0.01253891
v 0.07252383 0.247633 0.3646526
v -0.02840543 0.2321634 0.6259069
v -0.1110153 0.2421465 0.3592453
v 0.0855391 0.1087265 0.09726238
v -0.09800005 0.10324 0.09185505
v -7.152557E-07 -0.003683597 9.536743E-07
v -0.2600365 0.2790461 0.2312727
v -0.5364943 0.2830429 0.2785435
v -0.3497438 0.2685566 0.07130814
v -0.03251648 0.1185637 0.1153345
v -0.1222248 0.1080732 -0.04463005
v -9.536743E-07 -0.003684551 -9.536743E-07
v -0.319633 0.2806624 -0.154438
v -0.4602468 0.292796 -0.3968439
v -0.2007635 0.277954 -0.2944708
v -0.1292768 0.1158971 0.0116291
v -0.01040792 0.1131886 -0.1284027
v -0.00787878 -0.003967881 -0.003387451
v -0.0510869 0.3628591 -0.1768942
v 0.04265094 0.4676727 -0.3951597
v 0.1187833 0.3555244 -0.1749697
v 0.02766025 0.2568305 -0.06025887
v -0.06378949 0.130195 -0.02313328
v 0.106081 0.1228593 -0.02120686
v 0.01500571 -0.003658503 0.002458572
v -0.1097002 0.3810836 0.1894255
v -0.3593386 0.4985447 0.2400532
v -0.2121178 0.375506 0.03702736
v -0.05612445 0.2660855 0.04750824
v 0.03049433 0.127522 0.1056767
v -0.07192326 0.1219444 -0.04672337
v 0.002385855 -0.01675087 0.01933193
v 0.2803755 0.3395135 0.09993172
v 0.4323702 0.4027335 0.3270435
v 0.1720743 0.338865 0.248311
v 0.1087914 0.2580363 0.08744335
v 0.1064477 0.1296374 -0.02915478
v -0.001853466 0.1289889 0.1192265
v 0.005983829 -0.002711147 0.01063061
v 0.005965531 0.2402511 -0.9237108
v 1.549721E-06 -0.0005460829 -1.907349E-06
v -0.9237025 0.2402511 -0.005965233
v 0.9237046 0.2402511 0.005966187
v -0.005965471 0.2402511 0.9237127
vt 0.59375 0.411377
vt 0.6347656 0.6142578
vt 0.6757813 0.411377
vt 0.59375 0.1314697
vt 0.6757813 0.1314697
vt 0.6347656 0
vt 0.5102539 0.411377
vt 0.5512695 0.6142578
vt 0.5922852 0.411377
vt 0.5102539 0.1314697
vt 0.5922852 0.1314697
vt 0.5512695 0
vt 0.5102539 0.411377
vt 0.5512695 0.6142578
vt 0.5922852 0.411377
vt 0.5102539 0.1314697
vt 0.5922852 0.1314697
vt 0.5512695 0
vt 0.59375 0.411377
vt 0.6347656 0.6142578
vt 0.6757813 0.411377
vt 0.59375 0.1314697
vt 0.6757813 0.1314697
vt 0.6347656 0
vt 0.5102539 0.411377
vt 0.5512695 0.6142578
vt 0.5922852 0.411377
vt 0.5102539 0.1314697
vt 0.5922852 0.1314697
vt 0.5512695 0
vt 0.5102539 0.411377
vt 0.5512695 0.6142578
vt 0.5922852 0.411377
vt 0.5512695 0.2714844
vt 0.5102539 0.1314697
vt 0.5922852 0.1314697
vt 0.5512695 0
vt 0.59375 0.411377
vt 0.6347656 0.6142578
vt 0.6757813 0.411377
vt 0.6347656 0.2714844
vt 0.59375 0.1314697
vt 0.6757813 0.1314697
vt 0.6347656 0
vt 0.59375 0.411377
vt 0.6347656 0.6142578
vt 0.6757813 0.411377
vt 0.6347656 0.2714844
vt 0.59375 0.1314697
vt 0.6757813 0.1314697
vt 0.6347656 0
vt 0 0
vt 0.25 0.5
vt 0.5 0
vt 0 1
vt 0.5 1
vn 0.08166504 0.8706055 -0.4853516
vn 0.296875 0.722168 -0.6245117
vn 0.3144531 0.8725586 -0.3735352
vn -0.114624 0.9633789 -0.2418213
vn 0.2321777 0.9697266 -0.07446289
vn -0.02871704 0.9995117 0.00422287
vn 0.5102539 0.8232422 -0.2493896
vn 0.7490234 0.6411133 -0.1657715
vn 0.5703125 0.8212891 0.01824951
vn 0.1746826 0.9570313 -0.2322998
vn 0.2687988 0.9472656 0.1734619
vn 0.009208679 0.9990234 0.040802
vn 0.1063232 0.8383789 0.534668
vn -0.03390503 0.6640625 0.7470703
vn -0.1633301 0.8330078 0.5283203
vn 0.1893311 0.9580078 0.215332
vn -0.21875 0.9541016 0.2050781
vn 0 1 0
vn -0.3735352 0.8662109 0.3320313
vn -0.6259766 0.7084961 0.3251953
vn -0.5053711 0.8564453 0.1030884
vn -0.07092285 0.965332 0.2514648
vn -0.270752 0.9575195 -0.09887695
vn 0 1 0
vn -0.4558105 0.8623047 -0.2202148
vn -0.53125 0.7124023 -0.458252
vn -0.2868652 0.8603516 -0.4208984
vn -0.2817383 0.9589844 0.02534485
vn -0.02282715 0.9594727 -0.2817383
vn -0.02503967 0.9995117 -0.01076508
vn -0.07183838 0.9658203 -0.2486572
vn 0.04812622 0.8935547 -0.4460449
vn 0.1668701 0.9550781 -0.2458496
vn 0.04730225 0.9936523 -0.1030273
vn -0.138916 0.9892578 -0.050354
vn 0.2307129 0.972168 -0.04611206
vn 0.04760742 0.9990234 0.007801056
vn -0.1485596 0.9550781 0.2565918
vn -0.3867188 0.8852539 0.2583008
vn -0.2897949 0.9555664 0.05056763
vn -0.09436035 0.9921875 0.07989502
vn 0.06561279 0.9716797 0.2272949
vn -0.1583252 0.9819336 -0.1028442
vn 0.007888794 0.9980469 0.06390381
vn 0.385498 0.9125977 0.1374512
vn 0.4768066 0.8017578 0.3605957
vn 0.2362061 0.9101563 0.3408203
vn 0.1817627 0.9726563 0.1461182
vn 0.2279053 0.9716797 -0.06243896
vn -0.003955841 0.9672852 0.2543945
vn 0.01893616 0.9990234 0.03363037
vn 0.005512238 0.5214844 -0.8535156
vn 0 1 0
vn -0.8535156 0.5214844 -0.005508423
vn 0.8535156 0.5214844 0.005512238
vn -0.005512238 0.5214844 0.8535156
g p015v001_h_0
f 3/3/3 2/2/2 1/1/1
f 3/3/3 1/1/1 4/4/4
f 5/5/5 3/3/3 4/4/4
f 5/5/5 4/4/4 6/6/6
f 9/9/9 8/8/8 7/7/7
f 9/9/9 7/7/7 10/10/10
f 11/11/11 9/9/9 10/10/10
f 11/11/11 10/10/10 12/12/12
f 15/15/15 14/14/14 13/13/13
f 15/15/15 13/13/13 16/16/16
f 17/17/17 15/15/15 16/16/16
f 17/17/17 16/16/16 18/18/18
f 21/21/21 20/20/20 19/19/19
f 21/21/21 19/19/19 22/22/22
f 23/23/23 21/21/21 22/22/22
f 23/23/23 22/22/22 24/24/24
f 27/27/27 26/26/26 25/25/25
f 27/27/27 25/25/25 28/28/28
f 29/29/29 27/27/27 28/28/28
f 29/29/29 28/28/28 30/30/30
f 33/33/33 32/32/32 31/31/31
f 34/34/34 33/33/33 31/31/31
f 34/34/34 31/31/31 35/35/35
f 36/36/36 33/33/33 34/34/34
f 36/36/36 34/34/34 35/35/35
f 36/36/36 35/35/35 37/37/37
f 40/40/40 39/39/39 38/38/38
f 41/41/41 40/40/40 38/38/38
f 41/41/41 38/38/38 42/42/42
f 43/43/43 40/40/40 41/41/41
f 43/43/43 41/41/41 42/42/42
f 43/43/43 42/42/42 44/44/44
f 47/47/47 46/46/46 45/45/45
f 48/48/48 47/47/47 45/45/45
f 48/48/48 45/45/45 49/49/49
f 50/50/50 47/47/47 48/48/48
f 50/50/50 48/48/48 49/49/49
f 50/50/50 49/49/49 51/51/51
f 54/54/54 53/53/53 52/52/52
f 55/55/55 52/52/52 53/53/53
f 54/54/54 56/56/56 53/53/53
f 56/56/56 55/55/55 53/53/53
