g t046v001_l
v 0.447148 0.01353749 -0.7809617
v -0.447148 0.1189649 -0.4749498
v 0.4471442 0.1189649 -0.4749472
v -0.447148 0.01353749 -0.7742598
v 0.4471443 0.2121298 -0.9470494
v -0.447148 0.2121298 -0.9470482
v 0.4471443 0.3533068 -0.691438
v -0.447148 0.2121298 -0.9470482
v 0.4471443 0.2121298 -0.9470494
v -0.447148 0.3533068 -0.6914368
v 0.4471442 0.1189649 -0.4749472
v -0.447148 0.1189649 -0.4749498
v -0.469646 0.0257934 -0.7242975
v 0.469646 0.02579339 -0.7309971
v 0.469646 0.02579339 0.9014974
v -0.4633386 0.02579339 0.9014986
v 0.447148 0.01353749 -0.7809617
v 0.4123952 0.1630396 -0.724552
v 0.4471443 0.2121298 -0.9470494
v 0.4471442 0.1189649 -0.4749472
v 0.4471443 0.3533068 -0.691438
v -0.4123953 0.1630396 -0.7245523
v -0.447148 0.2121298 -0.9470482
v -0.447148 0.3533068 -0.6914368
v -0.447148 0.1189649 -0.4749498
v -0.447148 0.01353749 -0.7742599
vt 0.4453125 0.7338867
vt 0.9614258 0.5698242
vt 0.4458008 0.5698242
vt 0.9619141 0.7338867
vt 0.4458008 0.9853516
vt 0.9614258 0.9853516
vt 0.4453125 0.7338867
vt 0.9614258 0.5698242
vt 0.4458008 0.5698242
vt 0.9619141 0.7338867
vt 0.4458008 0.9853516
vt 0.9614258 0.9853516
vt 0.09698486 0.008338928
vt 0.09698486 0.5458984
vt 0.9858398 0.5458984
vt 0.9858398 0.008338928
vt 0.2111816 0.5800781
vt 0.2077637 0.6879883
vt 0.3991699 0.6879883
vt 0.01687622 0.6879883
vt 0.2073975 0.8393555
vt 0.2077637 0.6879883
vt 0.01687622 0.6879883
vt 0.2061768 0.8408203
vt 0.3991699 0.6879883
vt 0.2115479 0.5810547
vn -0.00148201 -0.9926758 0.1226807
vn 0.01847839 0.0004897118 1
vn -0.01847839 0.0004897118 1
vn 0.00148201 -0.9926758 0.1226807
vn -0.01847839 0.0004897118 -1
vn 0.01847839 0.0004897118 -1
vn -0.01742554 0.9648438 -0.2614746
vn 0.01847839 0.0004897118 -1
vn -0.01847839 0.0004897118 -1
vn 0.01742554 0.9648438 -0.2614746
vn -0.01847839 0.0004897118 1
vn 0.01847839 0.0004897118 1
vn 0 1 0
vn 0 1 0
vn 0 1 0
vn 0 1 0
vn 0.9736328 0.2260742 -0.0355835
vn 1 0.004005432 0
vn 0.9907227 -0.001814842 0.1341553
vn 0.9907227 -0.001814842 -0.1341553
vn 0.9873047 -0.1513672 0.04443359
vn -1 0.004005432 0
vn -0.9907227 -0.001814842 0.1341553
vn -0.9873047 -0.1513672 0.04443359
vn -0.9907227 -0.001814842 -0.1341553
vn -0.9736328 0.2260742 -0.0355835
g t046v001_l_0
f 3/3/3 2/2/2 1/1/1
f 2/2/2 4/4/4 1/1/1
f 1/1/1 4/4/4 5/5/5
f 4/4/4 6/6/6 5/5/5
f 9/9/9 8/8/8 7/7/7
f 8/8/8 10/10/10 7/7/7
f 7/7/7 10/10/10 11/11/11
f 10/10/10 12/12/12 11/11/11
f 15/15/15 14/14/14 13/13/13
f 16/16/16 15/15/15 13/13/13
f 19/19/19 18/18/18 17/17/17
f 17/17/17 18/18/18 20/20/20
f 21/21/21 18/18/18 19/19/19
f 21/21/21 20/20/20 18/18/18
f 24/24/24 23/23/23 22/22/22
f 24/24/24 22/22/22 25/25/25
f 23/23/23 26/26/26 22/22/22
f 26/26/26 25/25/25 22/22/22
