#
# OBJECT NAME
#
o model_2224
mtllib 2224.mtl

#
# VERTEX BUFFER 000
#
v -0.159121 0.749579 0.159121
v -0.159121 0 0.159121
v 0.159121 0 0.159121
v 0.159121 0.749579 0.159121
v -0.121587 0.848685 -0.121587
v -0.121587 0.848685 0.121587
v 0.121587 0.848685 0.121587
v 0.121587 0.848685 -0.121587
v -0.159121 0 -0.159121
v -0.159121 0.749579 -0.159121
v 0.159121 0.749579 -0.159121
v 0.159121 0 -0.159121
v 0.159121 0 0.159121
v -0.159121 0 0.159121
v -0.159121 0 -0.159121
v 0.159121 0 -0.159121
v 0.159121 0.749579 0.159121
v 0.159121 0 0.159121
v -0.121587 0.848685 0.121587
v 0.121587 0.848685 0.121587
v 0.121587 0.848685 0.121587
v 0.121587 0.848685 -0.121587
v -0.121587 0.848685 -0.121587
v 0.121587 0.848685 -0.121587
v -0.121587 0.848685 0.121587
v -0.121587 0.848685 -0.121587
v 0.122314 0.708602 -0.097145
v 0.50056 0.708602 -0.097145
v 0.50056 0.514312 -0.097145
v 0.122314 0.514312 -0.097145
v 0.50056 0.473336 0
v 0.122314 0.473336 0
v 0.122314 0.749579 0
v 0.50056 0.749579 0
v 0.50056 0.708602 -0.097145
v 0.50056 0.749579 0
v 0.50056 0.473336 0
v 0.50056 0.514312 -0.097145
v 0.122314 0.708602 0.097145
v 0.122314 0.514312 0.097145
v 0.50056 0.514312 0.097145
v 0.50056 0.708602 0.097145
v 0.122314 0.473336 0
v 0.50056 0.473336 0
v 0.122314 0.749579 0
v 0.50056 0.749579 0
v 0.50056 0.708602 0.097145
v 0.50056 0.514312 0.097145
v 0.50056 0.473336 0
v 0.50056 0.749579 0
v 0.122314 0.221564 -0.097145
v 0.122314 0.415854 -0.097145
v 0.50056 0.415854 -0.097145
v 0.50056 0.221564 -0.097145
v 0.122314 0.456831 0
v 0.50056 0.456831 0
v 0.122314 0.180588 0
v 0.50056 0.180588 0
v 0.50056 0.221564 -0.097145
v 0.50056 0.415854 -0.097145
v 0.50056 0.456831 0
v 0.50056 0.180588 0
v 0.122314 0.221564 0.097145
v 0.50056 0.221564 0.097145
v 0.50056 0.415854 0.097145
v 0.122314 0.415854 0.097145
v 0.50056 0.456831 0
v 0.122314 0.456831 0
v 0.122314 0.180588 0
v 0.50056 0.180588 0
v 0.50056 0.221564 0.097145
v 0.50056 0.180588 0
v 0.50056 0.456831 0
v 0.50056 0.415854 0.097145

vn -0.706055 0.0447693 0.706055
vn -0.707031 0 0.707031
vn 0 0 1
vn 0 0.0316772 0.999023
vn 0 1 0
vn 0 1 0
vn 0 1 0
vn 0 1 0
vn -0.707031 0 -0.707031
vn -0.706055 0.0447693 -0.706055
vn 0.706055 0.0447693 -0.706055
vn 0.707031 0 -0.707031
vn 0 -1 0
vn 0 -1 0
vn 0 -1 0
vn 0 -1 0
vn 0.999023 0.0316772 0
vn 1 0 0
vn 0 0.354004 0.935059
vn 0 0.354004 0.935059
vn 0.935059 0.354004 0
vn 0.935059 0.354004 0
vn 0 0.354004 -0.935059
vn 0 0.354004 -0.935059
vn -0.935059 0.354004 0
vn -0.935059 0.354004 0
vn 0 0.381592 -0.923828
vn 0 0.381592 -0.923828
vn 0 -0.381592 -0.923828
vn 0 -0.381592 -0.923828
vn 0 -0.920898 -0.388428
vn 0 -0.920898 -0.388428
vn 0 0.920898 -0.388428
vn 0 0.920898 -0.388428
vn 1 0 0
vn 1 0 0
vn 1 0 0
vn 1 0 0
vn 0 0.381592 0.923828
vn 0 -0.381592 0.923828
vn 0 -0.381592 0.923828
vn 0 0.381592 0.923828
vn 0 -0.920898 0.388428
vn 0 -0.920898 0.388428
vn 0 0.920898 0.388428
vn 0 0.920898 0.388428
vn 1 0 0
vn 1 0 0
vn 1 0 0
vn 1 0 0
vn 0 -0.381592 -0.923828
vn 0 0.381592 -0.923828
vn 0 0.381592 -0.923828
vn 0 -0.381592 -0.923828
vn 0 0.920898 -0.388428
vn 0 0.920898 -0.388428
vn 0 -0.920898 -0.388428
vn 0 -0.920898 -0.388428
vn 1 0 0
vn 1 0 0
vn 1 0 0
vn 1 0 0
vn 0 -0.381592 0.923828
vn 0 -0.381592 0.923828
vn 0 0.381592 0.923828
vn 0 0.381592 0.923828
vn 0 0.920898 0.388428
vn 0 0.920898 0.388428
vn 0 -0.920898 0.388428
vn 0 -0.920898 0.388428
vn 1 0 0
vn 1 0 0
vn 1 0 0
vn 1 0 0

vt 0.745286 0.537395
vt 0.745286 0.266682
vt 0.988993 0.266682
vt 0.988993 0.537395
vt 0.0429067 0.777683
vt 0.0429067 0.590979
vt 0.232783 0.590979
vt 0.232783 0.777683
vt 0.501578 0.266682
vt 0.501578 0.537395
vt 0.257871 0.537395
vt 0.257871 0.266682
vt 0.257871 0.255563
vt 0.0147278 0.255563
vt 0.0147278 0.0124196
vt 0.257871 0.0124196
vt 0.0141631 0.537395
vt 0.0141631 0.266682
vt 0.774029 0.573188
vt 0.96025 0.573188
vt 0.0429066 0.573188
vt 0.229127 0.573188
vt 0.472835 0.573188
vt 0.286614 0.573188
vt 0.716542 0.573188
vt 0.530322 0.573188
vt 0.982743 0.783796
vt 0.747909 0.783796
vt 0.747909 0.663171
vt 0.982743 0.663171
vt 0.747909 0.602608
vt 0.982743 0.602608
vt 0.982743 0.844359
vt 0.747909 0.844359
vt 0.0874347 0.826664
vt 0.0238422 0.803187
vt 0.0238422 0.974465
vt 0.0874347 0.947641
vt 0.982743 0.783796
vt 0.982743 0.663171
vt 0.747909 0.663171
vt 0.747909 0.783796
vt 0.982743 0.602608
vt 0.747909 0.602608
vt 0.982743 0.844359
vt 0.747909 0.844359
vt 0.0874347 0.826664
vt 0.0874347 0.947641
vt 0.0238422 0.974465
vt 0.0238422 0.803187
vt 0.865629 0.0758681
vt 0.865629 0.196493
vt 0.630795 0.196493
vt 0.630795 0.0758681
vt 0.865629 0.257056
vt 0.630795 0.257056
vt 0.865629 0.0153049
vt 0.630795 0.0153049
vt 0.36549 0.947641
vt 0.36549 0.826664
vt 0.309831 0.803187
vt 0.309831 0.974465
vt 0.865629 0.0758681
vt 0.630795 0.0758681
vt 0.630795 0.196493
vt 0.865629 0.196493
vt 0.630795 0.257056
vt 0.865629 0.257056
vt 0.865629 0.0153049
vt 0.630795 0.0153049
vt 0.36549 0.947641
vt 0.309831 0.974465
vt 0.309831 0.803187
vt 0.36549 0.826664


#
# MESH 000
#
g surface_000
usemtl surface_000
f 1/1/1 25/25/25 26/26/26
f 1/1/1 26/26/26 10/10/10
f 2/2/2 1/1/1 10/10/10
f 1/1/1 2/2/2 3/3/3
f 1/1/1 3/3/3 4/4/4
f 19/19/19 1/1/1 4/4/4
f 19/19/19 4/4/4 20/20/20
f 2/2/2 10/10/10 9/9/9
f 9/9/9 10/10/10 11/11/11
f 9/9/9 11/11/11 12/12/12
f 17/17/17 12/12/12 11/11/11
f 17/17/17 18/18/18 12/12/12
f 10/10/10 24/24/24 11/11/11
f 10/10/10 23/23/23 24/24/24
f 21/21/21 17/17/17 11/11/11
f 21/21/21 11/11/11 22/22/22
f 13/13/13 15/15/15 16/16/16
f 13/13/13 14/14/14 15/15/15
f 5/5/5 7/7/7 8/8/8
f 5/5/5 6/6/6 7/7/7
f 47/47/47 49/49/49 50/50/50
f 47/47/47 48/48/48 49/49/49
f 45/45/45 42/42/42 46/46/46
f 45/45/45 39/39/39 42/42/42
f 39/39/39 41/41/41 42/42/42
f 39/39/39 40/40/40 41/41/41
f 40/40/40 44/44/44 41/41/41
f 40/40/40 43/43/43 44/44/44
f 35/35/35 37/37/37 38/38/38
f 35/35/35 36/36/36 37/37/37
f 33/33/33 34/34/34 28/28/28
f 33/33/33 28/28/28 27/27/27
f 27/27/27 28/28/28 29/29/29
f 27/27/27 29/29/29 30/30/30
f 30/30/30 29/29/29 31/31/31
f 30/30/30 31/31/31 32/32/32
f 71/71/71 73/73/73 74/74/74
f 71/71/71 72/72/72 73/73/73
f 69/69/69 70/70/70 64/64/64
f 69/69/69 64/64/64 63/63/63
f 63/63/63 64/64/64 65/65/65
f 63/63/63 65/65/65 66/66/66
f 66/66/66 65/65/65 67/67/67
f 66/66/66 67/67/67 68/68/68
f 59/59/59 61/61/61 62/62/62
f 59/59/59 60/60/60 61/61/61
f 57/57/57 54/54/54 58/58/58
f 57/57/57 51/51/51 54/54/54
f 51/51/51 53/53/53 54/54/54
f 51/51/51 52/52/52 53/53/53
f 52/52/52 56/56/56 53/53/53
f 52/52/52 55/55/55 56/56/56

