#
# OBJECT NAME
#
o model_2235
mtllib 2235.mtl

#
# VERTEX BUFFER 000
#
v -0.122314 0.611457 0.097145
v -0.50056 0.611457 0.097145
v -0.50056 0.473336 0
v -0.122314 0.473336 0
v -0.50056 0.473336 0
v -0.50056 0.611457 0.097145
v -0.50056 0.749579 0
v -0.50056 0.611457 -0.097145
v -0.122314 0.611457 -0.097145
v -0.122314 0.473336 0
v -0.50056 0.473336 0
v -0.50056 0.749579 0
v -0.122314 0.749579 0
v -0.50056 0.611457 -0.097145
v -0.50056 0.473336 0
v -0.50056 0.749579 0
v -0.122314 0.749579 0
v -0.50056 0.749579 0
v -0.122314 0.180588 0
v -0.122314 0.318709 0.097145
v -0.50056 0.318709 0.097145
v -0.50056 0.180588 0
v -0.50056 0.180588 0
v -0.50056 0.318709 0.097145
v -0.50056 0.456831 0
v -0.122314 0.180588 0
v -0.50056 0.180588 0
v -0.50056 0.318709 -0.097145
v -0.122314 0.318709 -0.097145
v -0.50056 0.456831 0
v -0.122314 0.456831 0
v -0.50056 0.318709 -0.097145
v -0.50056 0.180588 0
v -0.50056 0.456831 0
v -0.50056 0.456831 0
v -0.122314 0.456831 0
v 0.122314 0.611457 -0.097145
v 0.50056 0.611457 -0.097145
v 0.50056 0.473336 0
v 0.122314 0.473336 0
v 0.50056 0.473336 0
v 0.50056 0.611457 -0.097145
v 0.50056 0.749579 0
v 0.50056 0.611457 0.097145
v 0.122314 0.611457 0.097145
v 0.122314 0.473336 0
v 0.50056 0.473336 0
v 0.50056 0.749579 0
v 0.122314 0.749579 0
v 0.50056 0.611457 0.097145
v 0.50056 0.473336 0
v 0.50056 0.749579 0
v 0.122314 0.749579 0
v 0.50056 0.749579 0
v 0.122314 0.180588 0
v 0.122314 0.318709 -0.097145
v 0.50056 0.318709 -0.097145
v 0.50056 0.180588 0
v 0.50056 0.180588 0
v 0.50056 0.318709 -0.097145
v 0.50056 0.456831 0
v 0.122314 0.180588 0
v 0.50056 0.180588 0
v 0.50056 0.318709 0.097145
v 0.122314 0.318709 0.097145
v 0.50056 0.456831 0
v 0.122314 0.456831 0
v 0.50056 0.318709 0.097145
v 0.50056 0.180588 0
v 0.50056 0.456831 0
v 0.50056 0.456831 0
v 0.122314 0.456831 0
v -0.159681 0.848685 0.159121
v -0.159681 0 0.159121
v 0.158562 0 0.159121
v 0.158562 0.848685 0.159121
v -0.159681 0.848685 -0.159121
v -0.159681 0.848685 0.159121
v 0.158562 0.848685 0.159121
v 0.158562 0.848685 -0.159121
v -0.159681 0 -0.159121
v -0.159681 0.848685 -0.159121
v 0.158562 0.848685 -0.159121
v 0.158562 0 -0.159121
v 0.158562 0 0.159121
v -0.159681 0 0.159121
v -0.159681 0 -0.159121
v 0.158562 0 -0.159121
v 0.158562 0.848685 0.159121
v 0.158562 0 0.159121
v 0.158562 0.848685 -0.159121
v -0.159681 0.848685 0.159121
v -0.159681 0.848685 -0.159121

vn 0 0 1
vn -0.154663 0 0.987793
vn -0.140991 -0.989746 0
vn 0 -1 0
vn -0.140991 -0.989746 0
vn -0.154663 0 0.987793
vn -0.140991 0.989746 0
vn -0.154663 0 -0.987793
vn 0 0 -1
vn 0 -1 0
vn -0.140991 -0.989746 0
vn -0.140991 0.989746 0
vn 0 1 0
vn -0.154663 0 -0.987793
vn -0.140991 -0.989746 0
vn -0.140991 0.989746 0
vn 0 1 0
vn -0.140991 0.989746 0
vn 0 -1 0
vn 0 0 1
vn -0.154663 0 0.987793
vn -0.140991 -0.989746 0
vn -0.140991 -0.989746 0
vn -0.154663 0 0.987793
vn -0.140991 0.989746 0
vn 0 -1 0
vn -0.140991 -0.989746 0
vn -0.154663 0 -0.987793
vn 0 0 -1
vn -0.140991 0.989746 0
vn 0 1 0
vn -0.154663 0 -0.987793
vn -0.140991 -0.989746 0
vn -0.140991 0.989746 0
vn -0.140991 0.989746 0
vn 0 1 0
vn 0 0 -1
vn 0.154663 0 -0.987793
vn 0.140991 -0.989746 0
vn 0 -1 0
vn 0.140991 -0.989746 0
vn 0.154663 0 -0.987793
vn 0.140991 0.989746 0
vn 0.154663 0 0.987793
vn 0 0 1
vn 0 -1 0
vn 0.140991 -0.989746 0
vn 0.140991 0.989746 0
vn 0 1 0
vn 0.154663 0 0.987793
vn 0.140991 -0.989746 0
vn 0.140991 0.989746 0
vn 0 1 0
vn 0.140991 0.989746 0
vn 0 -1 0
vn 0 0 -1
vn 0.154663 0 -0.987793
vn 0.140991 -0.989746 0
vn 0.140991 -0.989746 0
vn 0.154663 0 -0.987793
vn 0.140991 0.989746 0
vn 0 -1 0
vn 0.140991 -0.989746 0
vn 0.154663 0 0.987793
vn 0 0 1
vn 0.140991 0.989746 0
vn 0 1 0
vn 0.154663 0 0.987793
vn 0.140991 -0.989746 0
vn 0.140991 0.989746 0
vn 0.140991 0.989746 0
vn 0 1 0
vn -0.683105 0.256104 0.683105
vn -0.683105 -0.256104 0.683105
vn 0.683105 -0.256104 0.683105
vn 0.683105 0.256104 0.683105
vn -0.683105 0.256104 -0.683105
vn -0.683105 0.256104 0.683105
vn 0.683105 0.256104 0.683105
vn 0.683105 0.256104 -0.683105
vn -0.683105 -0.256104 -0.683105
vn -0.683105 0.256104 -0.683105
vn 0.683105 0.256104 -0.683105
vn 0.683105 -0.256104 -0.683105
vn 0.683105 -0.256104 0.683105
vn -0.683105 -0.256104 0.683105
vn -0.683105 -0.256104 -0.683105
vn 0.683105 -0.256104 -0.683105
vn 0.683105 0.256104 0.683105
vn 0.683105 -0.256104 0.683105
vn 0.683105 0.256104 -0.683105
vn -0.683105 0.256104 0.683105
vn -0.683105 0.256104 -0.683105

vt 0.982743 0.723484
vt 0.747909 0.723484
vt 0.747909 0.663171
vt 0.982743 0.663171
vt 0.0556385 0.961053
vt 0.0874347 0.887152
vt 0.0238422 0.803187
vt 0.747909 0.723484
vt 0.982743 0.723484
vt 0.982743 0.663171
vt 0.747909 0.663171
vt 0.747909 0.844359
vt 0.982743 0.844359
vt 0.0874347 0.887152
vt 0.0556385 0.961053
vt 0.0238422 0.803187
vt 0.982743 0.844359
vt 0.747909 0.844359
vt 0.865629 0.0758681
vt 0.865629 0.136181
vt 0.630795 0.136181
vt 0.630795 0.0758681
vt 0.337661 0.961053
vt 0.36549 0.887152
vt 0.309831 0.803187
vt 0.865629 0.0758681
vt 0.630795 0.0758681
vt 0.630795 0.136181
vt 0.865629 0.136181
vt 0.630795 0.257056
vt 0.865629 0.257056
vt 0.36549 0.887152
vt 0.337661 0.961053
vt 0.309831 0.803187
vt 0.630795 0.257056
vt 0.865629 0.257056
vt 0.982743 0.723484
vt 0.747909 0.723484
vt 0.747909 0.663171
vt 0.982743 0.663171
vt 0.0556385 0.961053
vt 0.0874347 0.887152
vt 0.0238422 0.803187
vt 0.747909 0.723484
vt 0.982743 0.723484
vt 0.982743 0.663171
vt 0.747909 0.663171
vt 0.747909 0.844359
vt 0.982743 0.844359
vt 0.0874347 0.887152
vt 0.0556385 0.961053
vt 0.0238422 0.803187
vt 0.982743 0.844359
vt 0.747909 0.844359
vt 0.865629 0.0758681
vt 0.865629 0.136181
vt 0.630795 0.136181
vt 0.630795 0.0758681
vt 0.337661 0.961053
vt 0.36549 0.887152
vt 0.309831 0.803187
vt 0.865629 0.0758681
vt 0.630795 0.0758681
vt 0.630795 0.136181
vt 0.865629 0.136181
vt 0.630795 0.257056
vt 0.865629 0.257056
vt 0.36549 0.887152
vt 0.337661 0.961053
vt 0.309831 0.803187
vt 0.630795 0.257056
vt 0.865629 0.257056
vt 0.759657 0.555292
vt 0.745286 0.266682
vt 0.988993 0.266682
vt 0.974621 0.555292
vt 0.0429067 0.777683
vt 0.0429067 0.590979
vt 0.232783 0.590979
vt 0.232783 0.777683
vt 0.501578 0.266682
vt 0.487206 0.555292
vt 0.272242 0.555292
vt 0.257871 0.266682
vt 0.257871 0.255563
vt 0.0147278 0.255563
vt 0.0147278 0.0124196
vt 0.257871 0.0124196
vt 0.0285349 0.555292
vt 0.0141631 0.266682
vt 0.243499 0.555292
vt 0.730914 0.555292
vt 0.51595 0.555292


#
# MESH 000
#
g surface_000
usemtl surface_000
f 14/14/14 15/15/15 16/16/16
f 5/5/5 6/6/6 7/7/7
f 2/2/2 17/17/17 18/18/18
f 2/2/2 1/1/1 17/17/17
f 1/1/1 2/2/2 3/3/3
f 1/1/1 3/3/3 4/4/4
f 8/8/8 12/12/12 13/13/13
f 8/8/8 13/13/13 9/9/9
f 8/8/8 9/9/9 10/10/10
f 8/8/8 10/10/10 11/11/11
f 32/32/32 33/33/33 34/34/34
f 23/23/23 24/24/24 25/25/25
f 35/35/35 20/20/20 36/36/36
f 35/35/35 21/21/21 20/20/20
f 19/19/19 20/20/20 21/21/21
f 19/19/19 21/21/21 22/22/22
f 30/30/30 31/31/31 29/29/29
f 30/30/30 29/29/29 28/28/28
f 26/26/26 28/28/28 29/29/29
f 26/26/26 27/27/27 28/28/28
f 50/50/50 51/51/51 52/52/52
f 41/41/41 42/42/42 43/43/43
f 38/38/38 53/53/53 54/54/54
f 38/38/38 37/37/37 53/53/53
f 37/37/37 38/38/38 39/39/39
f 37/37/37 39/39/39 40/40/40
f 44/44/44 48/48/48 49/49/49
f 44/44/44 49/49/49 45/45/45
f 44/44/44 45/45/45 46/46/46
f 44/44/44 46/46/46 47/47/47
f 68/68/68 69/69/69 70/70/70
f 59/59/59 60/60/60 61/61/61
f 71/71/71 56/56/56 72/72/72
f 71/71/71 57/57/57 56/56/56
f 55/55/55 56/56/56 57/57/57
f 55/55/55 57/57/57 58/58/58
f 66/66/66 67/67/67 65/65/65
f 66/66/66 65/65/65 64/64/64
f 62/62/62 64/64/64 65/65/65
f 62/62/62 63/63/63 64/64/64
f 74/74/74 93/93/93 81/81/81
f 74/74/74 92/92/92 93/93/93
f 89/89/89 84/84/84 91/91/91
f 89/89/89 90/90/90 84/84/84
f 85/85/85 87/87/87 88/88/88
f 85/85/85 86/86/86 87/87/87
f 81/81/81 83/83/83 84/84/84
f 81/81/81 82/82/82 83/83/83
f 77/77/77 79/79/79 80/80/80
f 77/77/77 78/78/78 79/79/79
f 73/73/73 75/75/75 76/76/76
f 73/73/73 74/74/74 75/75/75

