#
# OBJECT NAME
#
o model_1130
mtllib 1130.mtl

#
# VERTEX BUFFER 000
#
v -0.181424 1.02542 0.0520669
v -0.0797755 0.670621 0.0225176
v -0.0725361 0.63501 0.161456
v -0.0725361 0.63501 0.161456
v 0.0230986 0.725762 0.156911
v 0.0316201 0.761374 0.0191261
v 0.376596 0.997835 -0.0264457
v 0.249412 0.694668 0.0741157
v 0.303089 0.668926 -0.0255197
v 0.303089 0.668926 -0.0255197
v 0.209742 0.724611 -0.0676372
v 0.15402 0.750353 0.0158748
v 0.376596 0.997835 -0.0264457
v 0.249412 0.694668 0.0741157
v 0.367072 0.305247 0.0471927
v 0.36686 0.208756 -0.0414726
v 0.692405 0.385394 0.0642686
v 0.36686 0.208756 -0.0414726
v 0.407009 0.353424 -0.100147
v 0.342863 0.465151 -0.0230374
v -0.328634 0.21393 0.180553
v -0.345819 0.142583 0.294178
v -0.580102 0.450998 0.442179
v -0.345819 0.142583 0.294178
v -0.256361 0.221247 0.336094
v -0.580102 0.450998 0.442179
v -0.224978 0.295297 0.222985
v -0.311651 0.267577 -0.426394
v -0.299929 0.116163 -0.388188
v -0.64692 0.352019 -0.551195
v -0.299929 0.116163 -0.388188
v -0.355888 0.212729 -0.26177
v -0.64692 0.352019 -0.551195
v -0.355888 0.212729 -0.26177
v -0.340863 0.337463 -0.334732
v 0.383911 -0.00192818 -0.150015
v 0.268749 -0.0116254 0.0250496
v 0.234244 0.487085 -0.0264204
v 0.331849 0.530916 -0.17874
v 0.476163 0.577825 -0.070615
v 0.514765 -0.0116918 -0.0195937
v -0.444292 -0.0146978 0.213212
v -0.48565 -0.0113062 0.422911
v -0.186856 0.709109 0.22359
v -0.152463 0.619373 0.026219
v 0.115224 0.797978 -0.0902374
v 0.172812 0.928166 0.0492519
v 0.145176 0.592331 0.0322601
v -0.23833 -0.0180894 0.28305
v -0.0263747 0.50326 0.120886
v -0.292757 -0.0180894 0.43054
v -0.23833 -0.0180894 0.28305
v -0.0263747 0.50326 0.120886
v -0.0449903 0.576144 0.261274
v 0.195421 0.774323 0.135639
v 0.145176 0.592331 0.0322601
v 0.234244 0.487085 -0.0264204
v 0.359045 0.52793 0.0471595
v 0.268749 -0.0116254 0.0250496
v 0.383843 -0.0168704 0.0928666
v 0.268749 -0.0116254 0.0250496
v 0.383911 -0.00192818 -0.150015
v 0.514765 -0.0116918 -0.0195937
v 0.383843 -0.0168704 0.0928666
v -0.444292 -0.0146978 0.213212
v -0.23833 -0.0180894 0.28305
v -0.292757 -0.0180894 0.43054
v -0.48565 -0.0113062 0.422911
v 0.264906 -0.014516 0.301763
v 0.124234 -0.014516 0.251495
v 0.107649 0.308003 0.105354
v 0.275609 0.369748 0.112664
v -0.122333 0.43617 -0.410007
v 0.14675 0.524332 -0.277489
v 0.0255543 0.462406 -0.194458
v -0.180689 0.367452 -0.282837
v -0.256917 0.000758852 -0.279372
v -0.214418 -0.00932858 -0.419265
v 0.0100773 0.406934 0.206163
v 0.107649 0.308003 0.105354
v 0.124234 -0.014516 0.251495
v -0.00426358 -0.0115859 0.383595
v -0.180689 0.367452 -0.282837
v 0.0255543 0.462406 -0.194458
v -0.0928353 0.618935 -0.1261
v -0.320494 0.502609 -0.237031
v -0.256917 0.000758852 -0.279372
v -0.46949 -0.00597755 -0.258065
v -0.446914 -0.00411723 -0.461646
v -0.277435 0.611036 -0.411175
v 0.0736354 0.743938 -0.226665
v 0.170121 -0.0084155 0.472799
v 0.198195 0.509252 0.250142
v 0.124234 -0.014516 0.251495
v 0.264906 -0.014516 0.301763
v 0.170121 -0.0084155 0.472799
v -0.00426358 -0.0115859 0.383595
v -0.214418 -0.00932858 -0.419265
v -0.256917 0.000758852 -0.279372
v -0.46949 -0.00597755 -0.258065
v -0.446914 -0.00411723 -0.461646
v 0.0532079 0.345287 0.207543
v 0.105442 0.178118 0.288964
v 0.155547 0.46717 0.628019
v 0.155547 0.46717 0.628019
v 0.105442 0.178118 0.288964
v 0.227632 0.261687 0.270952
v 0.227632 0.261687 0.270952
v 0.184847 0.416865 0.225909
v 0.128655 0.585699 -0.174143
v 0.0806645 0.512446 -0.232941
v 0.262735 0.677632 -0.433961
v 0.0806645 0.512446 -0.232941
v -0.0160453 0.594853 -0.260922
v 0.044422 0.655245 -0.197943
v 0.262735 0.677632 -0.433961
v -0.0962599 0.838953 -0.463578
v -0.240983 0.510482 -0.316058
v -0.193937 0.553042 -0.216242
v -0.0452736 0.576627 -0.248997
v -0.0980827 0.537664 -0.368515
v -0.0962599 0.838953 -0.463578
v -0.0980827 0.537664 -0.368515
v -0.240983 0.510482 -0.316058

vn -0.531738 0.841797 -0.0854492
vn -0.827637 -0.193115 -0.526855
vn -0.773926 -0.039032 0.631348
vn -0.773926 -0.039032 0.631348
vn 0.254395 0.469482 0.845215
vn 0.568359 0.536133 -0.623535
vn 0.519043 0.837402 0.169922
vn 0.351074 0.158691 0.922363
vn 0.949219 -0.212769 -0.22998
vn 0.949219 -0.212769 -0.22998
vn -0.145264 0.233643 -0.960938
vn -0.651855 0.652344 0.38623
vn 0.519043 0.837402 0.169922
vn 0.351074 0.158691 0.922363
vn -0.0206604 -0.127319 0.991211
vn 0.507324 -0.849609 -0.142212
vn 0.88916 0.289795 0.354004
vn 0.507324 -0.849609 -0.142212
vn 0.489258 0.09198 -0.867188
vn 0.12262 0.92627 0.355469
vn -0.603027 0.208984 -0.769043
vn -0.692383 -0.662598 0.284424
vn -0.686035 0.683594 0.247681
vn -0.692383 -0.662598 0.284424
vn 0.411377 0.166138 0.895996
vn -0.686035 0.683594 0.247681
vn 0.257324 0.934082 -0.24646
vn 0.385498 0.200195 -0.900391
vn -0.492188 -0.850586 -0.18335
vn -0.94873 -0.272217 -0.157959
vn -0.492188 -0.850586 -0.18335
vn -0.733398 -0.415039 0.537598
vn -0.94873 -0.272217 -0.157959
vn -0.733398 -0.415039 0.537598
vn -0.237549 0.886719 0.395508
vn -0.0747681 -0.0811768 -0.993652
vn -0.98877 -0.0543823 0.136108
vn -0.964844 -0.26123 0.00896454
vn 0.0343628 0.104919 -0.993652
vn 0.92627 0.328613 -0.183228
vn 0.996582 0.0773315 0.0217743
vn -0.723633 0.114014 -0.680176
vn -0.767578 0.45874 0.446777
vn -0.707031 0.612305 0.353271
vn -0.655273 0.173462 -0.734863
vn -0.235107 0.489746 -0.839355
vn 0.088562 0.995605 -0.010437
vn -0.162598 -0.972168 -0.167603
vn 0.758301 -0.458496 -0.462891
vn 0.649414 -0.584473 -0.48584
vn 0.330566 0.127686 0.93457
vn 0.758301 -0.458496 -0.462891
vn 0.649414 -0.584473 -0.48584
vn 0.383057 0.0986938 0.917969
vn 0.447021 0.220581 0.866699
vn -0.162598 -0.972168 -0.167603
vn -0.964844 -0.26123 0.00896454
vn 0.37207 0.0905762 0.92334
vn -0.98877 -0.0543823 0.136108
vn 0.207153 0.0977783 0.973145
vn -0.0114059 -0.998047 -0.0614014
vn -0.0114059 -0.998047 -0.0614014
vn -0.0114059 -0.998047 -0.0614014
vn -0.0114059 -0.998047 -0.0614014
vn -0.0259857 -0.999512 0.00252151
vn -0.0259857 -0.999512 0.00252151
vn -0.0259857 -0.999512 0.00252151
vn -0.0259857 -0.999512 0.00252151
vn 0.998535 -0.0455627 -0.00265503
vn -0.332275 -0.392578 -0.857422
vn -0.372314 -0.65918 -0.652832
vn 0.991699 0.00469971 -0.126221
vn 0.404297 -0.0323486 -0.913574
vn 0.817383 0.0777588 -0.570313
vn -0.139282 -0.987793 -0.0689087
vn 0.433594 -0.368164 0.822266
vn 0.518066 -0.128662 0.845215
vn 0.530762 -0.0605774 -0.844727
vn -0.807617 0.305176 0.503906
vn -0.372314 -0.65918 -0.652832
vn -0.332275 -0.392578 -0.857422
vn -0.8125 0.241455 0.529785
vn 0.433594 -0.368164 0.822266
vn -0.139282 -0.987793 -0.0689087
vn -0.653809 0.489746 0.576172
vn -0.813477 0.321289 0.484375
vn 0.518066 -0.128662 0.845215
vn -0.833984 0.232422 0.5
vn -0.645996 0.227539 -0.728027
vn -0.442139 0.573242 -0.688965
vn 0.354248 0.921875 -0.156372
vn 0.225586 0.381592 0.895996
vn 0.390869 0.677246 0.623047
vn -0.00235367 -0.999512 0.0280304
vn -0.00235367 -0.999512 0.0280304
vn -0.00235367 -0.999512 0.0280304
vn -0.00235367 -0.999512 0.0280304
vn 0.00226974 -0.999512 0.0243683
vn 0.00226974 -0.999512 0.0243683
vn 0.00226974 -0.999512 0.0243683
vn 0.00226974 -0.999512 0.0243683
vn -0.947754 0.280762 0.149292
vn -0.574219 -0.578613 0.578125
vn -0.317871 0.265625 0.909668
vn -0.317871 0.265625 0.909668
vn -0.574219 -0.578613 0.578125
vn 0.894531 -0.284424 0.344238
vn 0.894531 -0.284424 0.344238
vn 0.364258 0.926758 -0.0894165
vn 0.872559 0.0844727 0.480225
vn 0.17395 -0.832031 -0.525879
vn 0.44751 0.182251 -0.875
vn 0.17395 -0.832031 -0.525879
vn -0.537598 0.0513306 -0.841309
vn -0.0533447 0.99707 0.0452576
vn 0.44751 0.182251 -0.875
vn 0.0420532 0.944336 -0.325684
vn -0.907715 0.248413 -0.337158
vn -0.509277 0.655762 0.556641
vn 0.599609 0.573242 0.558105
vn 0.324219 -0.286377 -0.901367
vn 0.0420532 0.944336 -0.325684
vn 0.324219 -0.286377 -0.901367
vn -0.907715 0.248413 -0.337158

vt 0.87255 0.679492
vt 0.872865 0.375097
vt 0.940419 0.36421
vt 0.674269 0.407102
vt 0.738018 0.396829
vt 0.80518 0.386005
vt 0.87255 0.679492
vt 0.924825 0.366723
vt 0.678964 0.406346
vt 0.678964 0.406346
vt 0.759043 0.39344
vt 0.841478 0.380155
vt 0.87255 0.679492
vt 0.924825 0.366723
vt 0.905755 0.369796
vt 0.989198 0.356349
vt 0.87255 0.679492
vt 0.672522 0.407384
vt 0.777284 0.390501
vt 0.842367 0.380012
vt 0.856025 0.377811
vt 0.923429 0.366948
vt 0.87255 0.679492
vt 0.674269 0.407102
vt 0.721123 0.399552
vt 0.87255 0.679492
vt 0.788437 0.388703
vt 0.839186 0.380525
vt 0.90644 0.369686
vt 0.87255 0.679492
vt 0.90644 0.369686
vt 0.704228 0.402274
vt 0.87255 0.679492
vt 0.704228 0.402274
vt 0.771694 0.391402
vt 0.0371275 0.138858
vt 0.0664318 0.0445405
vt 0.280743 0.0615734
vt 0.264459 0.147789
vt 0.252616 0.232479
vt 0.0119917 0.236416
vt 0.921315 0.117313
vt 0.948285 0.20654
vt 0.624766 0.239994
vt 0.60196 0.143983
vt 0.421737 0.147582
vt 0.431199 0.237858
vt 0.414561 0.0617958
vt 0.900864 0.0250045
vt 0.59725 0.0513815
vt 0.946025 0.284637
vt 0.943299 0.332305
vt 0.606641 0.368948
vt 0.61692 0.310868
vt 0.419122 0.3069
vt 0.411525 0.361472
vt 0.267502 0.35658
vt 0.263137 0.303708
vt 0.0394294 0.366845
vt 0.0279577 0.316732
vt 0.638494 0.123327
vt 0.775024 0.21314
vt 0.673311 0.315191
vt 0.585604 0.213087
vt 0.753668 0.155207
vt 0.699202 0.315834
vt 0.584177 0.273387
vt 0.590127 0.122952
vt 0.822188 0.927992
vt 0.812993 0.97114
vt 0.641903 0.968298
vt 0.63594 0.929744
vt 0.265289 0.937612
vt 0.459013 0.932856
vt 0.463098 0.972301
vt 0.267432 0.978023
vt 0.0688016 0.985044
vt 0.0569078 0.94729
vt 0.640823 0.759791
vt 0.635163 0.686973
vt 0.7884 0.658182
vt 0.830827 0.733743
vt 0.292299 0.675873
vt 0.472153 0.687468
vt 0.470336 0.762843
vt 0.281391 0.756677
vt 0.105635 0.632387
vt 0.0618988 0.726249
vt 0.0352958 0.839894
vt 0.268769 0.847448
vt 0.462986 0.847878
vt 0.851081 0.830148
vt 0.638896 0.844949
vt 0.746581 0.217297
vt 0.709674 0.320579
vt 0.584098 0.250987
vt 0.649593 0.122952
vt 0.704585 0.315191
vt 0.601873 0.283987
vt 0.586229 0.127914
vt 0.7357 0.14449
vt 0.871415 0.375331
vt 0.953184 0.362153
vt 0.87255 0.679492
vt 0.87255 0.679492
vt 0.953184 0.362153
vt 0.707028 0.401823
vt 0.707028 0.401823
vt 0.790551 0.388363
vt 0.587209 0.420993
vt 0.638195 0.453419
vt 0.52714 0.578538
vt 0.418863 0.451802
vt 0.469288 0.418324
vt 0.528568 0.406037
vt 0.52714 0.578538
vt 0.278854 0.619988
vt 0.208608 0.470436
vt 0.257058 0.440793
vt 0.313402 0.448876
vt 0.359212 0.484643
vt 0.278854 0.619988
vt 0.359212 0.484643
vt 0.208608 0.470436


#
# MESH 000
#
g surface_000
usemtl surface_000
f 1/1/1 4/4/4 5/5/5
f 1/1/1 5/5/5 6/6/6
f 1/1/1 6/6/6 2/2/2
f 1/1/1 2/2/2 3/3/3
f 13/13/13 12/12/12 14/14/14
f 7/7/7 8/8/8 9/9/9
f 7/7/7 11/11/11 12/12/12
f 7/7/7 10/10/10 11/11/11
f 17/17/17 18/18/18 19/19/19
f 17/17/17 19/19/19 20/20/20
f 17/17/17 20/20/20 15/15/15
f 15/15/15 16/16/16 17/17/17
f 24/24/24 25/25/25 26/26/26
f 25/25/25 27/27/27 23/23/23
f 27/27/27 21/21/21 23/23/23
f 21/21/21 22/22/22 23/23/23
f 33/33/33 34/34/34 35/35/35
f 30/30/30 31/31/31 32/32/32
f 30/30/30 35/35/35 28/28/28
f 28/28/28 29/29/29 30/30/30
f 65/65/65 67/67/67 68/68/68
f 65/65/65 66/66/66 67/67/67
f 61/61/61 63/63/63 64/64/64
f 61/61/61 62/62/62 63/63/63
f 51/51/51 52/52/52 53/53/53
f 51/51/51 53/53/53 54/54/54
f 43/43/43 51/51/51 54/54/54
f 43/43/43 54/54/54 44/44/44
f 42/42/42 43/43/43 44/44/44
f 42/42/42 44/44/44 45/45/45
f 49/49/49 42/42/42 45/45/45
f 49/49/49 45/45/45 50/50/50
f 55/55/55 54/54/54 53/53/53
f 47/47/47 54/54/54 55/55/55
f 47/47/47 44/44/44 54/54/54
f 44/44/44 47/47/47 46/46/46
f 44/44/44 46/46/46 45/45/45
f 50/50/50 45/45/45 46/46/46
f 50/50/50 46/46/46 48/48/48
f 38/38/38 48/48/48 46/46/46
f 55/55/55 53/53/53 56/56/56
f 55/55/55 56/56/56 57/57/57
f 55/55/55 57/57/57 58/58/58
f 40/40/40 55/55/55 58/58/58
f 40/40/40 47/47/47 55/55/55
f 46/46/46 47/47/47 40/40/40
f 46/46/46 40/40/40 39/39/39
f 38/38/38 46/46/46 39/39/39
f 36/36/36 38/38/38 39/39/39
f 36/36/36 37/37/37 38/38/38
f 59/59/59 58/58/58 57/57/57
f 59/59/59 60/60/60 58/58/58
f 60/60/60 40/40/40 58/58/58
f 60/60/60 41/41/41 40/40/40
f 40/40/40 41/41/41 36/36/36
f 40/40/40 36/36/36 39/39/39
f 98/98/98 100/100/100 101/101/101
f 98/98/98 99/99/99 100/100/100
f 94/94/94 96/96/96 97/97/97
f 94/94/94 95/95/95 96/96/96
f 69/69/69 70/70/70 71/71/71
f 69/69/69 71/71/71 72/72/72
f 92/92/92 69/69/69 72/72/72
f 92/92/92 72/72/72 93/93/93
f 82/82/82 92/92/92 93/93/93
f 82/82/82 93/93/93 79/79/79
f 79/79/79 81/81/81 82/82/82
f 79/79/79 80/80/80 81/81/81
f 75/75/75 72/72/72 71/71/71
f 75/75/75 74/74/74 72/72/72
f 72/72/72 74/74/74 91/91/91
f 72/72/72 91/91/91 93/93/93
f 91/91/91 79/79/79 93/93/93
f 91/91/91 85/85/85 79/79/79
f 85/85/85 80/80/80 79/79/79
f 85/85/85 84/84/84 80/80/80
f 83/83/83 84/84/84 85/85/85
f 83/83/83 85/85/85 86/86/86
f 87/87/87 83/83/83 86/86/86
f 73/73/73 74/74/74 75/75/75
f 74/74/74 73/73/73 90/90/90
f 74/74/74 90/90/90 91/91/91
f 90/90/90 85/85/85 91/91/91
f 90/90/90 86/86/86 85/85/85
f 89/89/89 86/86/86 90/90/90
f 89/89/89 88/88/88 86/86/86
f 87/87/87 86/86/86 88/88/88
f 73/73/73 75/75/75 76/76/76
f 73/73/73 76/76/76 77/77/77
f 73/73/73 77/77/77 78/78/78
f 73/73/73 78/78/78 89/89/89
f 73/73/73 89/89/89 90/90/90
f 105/105/105 108/108/108 109/109/109
f 105/105/105 106/106/106 107/107/107
f 104/104/104 109/109/109 102/102/102
f 102/102/102 103/103/103 104/104/104
f 116/116/116 115/115/115 110/110/110
f 110/110/110 111/111/111 112/112/112
f 112/112/112 114/114/114 115/115/115
f 112/112/112 113/113/113 114/114/114
f 122/122/122 123/123/123 124/124/124
f 117/117/117 120/120/120 121/121/121
f 117/117/117 119/119/119 120/120/120
f 117/117/117 118/118/118 119/119/119

