g t049v001_l
v 0.4543667 0.8360915 -0.4443569
v -0.4553022 0.8360915 -0.4443569
v -0.4553022 0.8360915 -0.301239
v 0.4412203 0.8360915 -0.301239
v -0.4553022 0.9552743 -0.4437909
v 0.4412203 0.8360915 -0.301239
v -0.4553022 0.8360915 -0.301239
v 0.4412203 0.9552743 -0.4437909
v -0.4553022 0.8360915 -0.4443569
v 0.4543667 0.8360915 -0.4443569
v -0.4799385 0.9951469 -0.2542935
v -0.4681508 0.9951469 -0.5
v -0.3832121 0.9951469 -0.2542935
v -0.4799385 0.7722759 -0.2542935
v -0.3832121 0.7722759 -0.2542935
v -0.4681508 0.7722759 -0.5
v -0.3832121 0.7722759 -0.2542935
v -0.3832121 0.9951469 -0.2542935
v -0.4681508 0.9951469 -0.5
v -0.4681508 0.7722759 -0.5
v -0.4799385 0.9951469 -0.2542935
v -0.4799385 0.7722759 -0.2542935
v -0.4681508 0.7722759 -0.5
v -0.4681508 0.9951469 -0.5
v 0.4799385 0.9951469 -0.2542935
v 0.3832121 0.9951469 -0.2542935
v 0.4671015 0.9951469 -0.5
v 0.3832121 0.7722759 -0.2542935
v 0.4799385 0.7722759 -0.2542935
v 0.4671015 0.7722759 -0.5
v 0.3832121 0.9951469 -0.2542935
v 0.3832121 0.7722759 -0.2542935
v 0.4671015 0.7722759 -0.5
v 0.4671015 0.9951469 -0.5
v 0.4799385 0.7722759 -0.2542935
v 0.4799385 0.9951469 -0.2542935
v 0.4671015 0.9951469 -0.5
v 0.4671015 0.7722759 -0.5
v 0.3530149 0.1007766 -0.3018284
v -0.3530149 0.1007766 -0.3018284
v -0.3525352 0.8914058 -0.2946808
v 0.3525352 0.8914058 -0.2946808
v -0.350832 0.9619333 -0.4533741
v 0.350832 0.9619333 -0.4533741
v -0.3530149 0.4636971 -0.4437733
v 0.3530149 0.4636971 -0.4437733
v -0.3530149 0.4636971 -0.4437733
v -0.350832 0.9619333 -0.4533741
v 0.350832 0.9619333 -0.4533741
v 0.3530149 0.4636971 -0.4437733
v 0.3530149 0.1007766 -0.3018284
v 0.3525352 0.8914058 -0.2946808
v -0.3525352 0.8914058 -0.2946808
v -0.3530149 0.1007766 -0.3018284
vt 0.9799805 0.9213867
vt 0.5410156 0.9213867
vt 0.5410156 0.8125
vt 0.9799805 0.8125
vt 0.5410156 0.8671875
vt 0.9799805 0.8125
vt 0.5410156 0.8125
vt 0.9799805 0.8671875
vt 0.5410156 0.9213867
vt 0.9799805 0.9213867
vt 1.560547 0.5151367
vt 1.606445 0.7094727
vt 1.651367 0.5151367
vt 1.560547 0.2893066
vt 1.651367 0.2893066
vt 1.606445 0.09893799
vt 1.868164 0.4782715
vt 1.868164 0.310791
vt 1.708008 0.310791
vt 1.708008 0.4782715
vt 1.868164 0.7089844
vt 1.868164 0.5415039
vt 1.708008 0.5415039
vt 1.708008 0.7089844
vt 0.6518555 0.5151367
vt 0.5605469 0.5151367
vt 0.605957 0.7094727
vt 0.5605469 0.2893066
vt 0.6518555 0.2893066
vt 0.605957 0.09893799
vt 0.8676758 0.4782715
vt 0.8676758 0.310791
vt 0.7075195 0.310791
vt 0.7075195 0.4782715
vt 0.8676758 0.7089844
vt 0.8676758 0.5415039
vt 0.7075195 0.5415039
vt 0.7075195 0.7089844
vt 0.5126953 0.02583313
vt 0.0209198 0.02583313
vt 0.0209198 0.5449219
vt 0.5126953 0.5449219
vt 0.0209198 0.659668
vt 0.5126953 0.659668
vt 0.0209198 0.9770508
vt 0.5126953 0.9770508
vt 1.511719 0.9770508
vt 1.511719 0.7001953
vt 1.020508 0.7001953
vt 1.020508 0.9770508
vt 1.020508 0.02583313
vt 1.020508 0.5356445
vt 1.512695 0.5341797
vt 1.512695 0.02583313
vn 0 -0.7709961 -0.6367188
vn 0 -0.7670898 -0.6416016
vn 0 -0.0135498 1
vn 0 -0.08380127 0.996582
vn 0 0.7670898 0.6416016
vn 0 -0.08380127 0.996582
vn 0 -0.0135498 1
vn 0 0.7670898 0.6416016
vn 0 -0.7670898 -0.6416016
vn 0 -0.7709961 -0.6367188
vn 0 0.4714355 0.8818359
vn 0 1 0
vn 0 0.3984375 0.9169922
vn 0 -0.4714355 0.8818359
vn 0 -0.3984375 0.9169922
vn 0 -1 0
vn 0.9453125 0 -0.3266602
vn 0.9453125 0 -0.3266602
vn 0.9453125 0 -0.3266602
vn 0.9453125 0 -0.3266602
vn -0.9990234 0 -0.0479126
vn -0.9990234 0 -0.0479126
vn -0.9990234 0 -0.0479126
vn -0.9990234 0 -0.0479126
vn 0 0.4702148 0.8823242
vn 0 0.3994141 0.9165039
vn 0 1 0
vn 0 -0.3994141 0.9165039
vn 0 -0.4702148 0.8823242
vn 0 -1 0
vn -0.9462891 0 -0.322998
vn -0.9462891 0 -0.322998
vn -0.9462891 0 -0.322998
vn -0.9462891 0 -0.322998
vn 0.9985352 0 -0.05218506
vn 0.9985352 0 -0.05218506
vn 0.9985352 0 -0.05218506
vn 0.9985352 0 -0.05218506
vn 0 -0.009040833 1
vn 0 -0.009040833 1
vn 0 0.1717529 0.9853516
vn 0 0.1717529 0.9853516
vn 0 0.9135742 0.4060059
vn 0 0.9135742 0.4060059
vn 0 -0.01927185 -1
vn 0 -0.01927185 -1
vn 0 0.01927185 1
vn 0 0.9135742 0.4060059
vn 0 0.9135742 0.4060059
vn 0 0.01927185 1
vn 0 0.009040833 -1
vn 0 0.009040833 -1
vn 0 0.009040833 -1
vn 0 0.009040833 -1
g t049v001_l_0
f 3/3/3 2/2/2 1/1/1
f 4/4/4 3/3/3 1/1/1
f 7/7/7 6/6/6 5/5/5
f 6/6/6 8/8/8 5/5/5
f 5/5/5 8/8/8 9/9/9
f 8/8/8 10/10/10 9/9/9
f 13/13/13 12/12/12 11/11/11
f 11/11/11 14/14/14 13/13/13
f 14/14/14 15/15/15 13/13/13
f 15/15/15 14/14/14 16/16/16
f 19/19/19 18/18/18 17/17/17
f 20/20/20 19/19/19 17/17/17
f 23/23/23 22/22/22 21/21/21
f 24/24/24 23/23/23 21/21/21
f 27/27/27 26/26/26 25/25/25
f 26/26/26 28/28/28 25/25/25
f 28/28/28 29/29/29 25/25/25
f 29/29/29 28/28/28 30/30/30
f 33/33/33 32/32/32 31/31/31
f 34/34/34 33/33/33 31/31/31
f 37/37/37 36/36/36 35/35/35
f 38/38/38 37/37/37 35/35/35
f 41/41/41 40/40/40 39/39/39
f 42/42/42 41/41/41 39/39/39
f 43/43/43 41/41/41 42/42/42
f 44/44/44 43/43/43 42/42/42
f 43/43/43 44/44/44 45/45/45
f 44/44/44 46/46/46 45/45/45
f 49/49/49 48/48/48 47/47/47
f 50/50/50 49/49/49 47/47/47
f 53/53/53 52/52/52 51/51/51
f 54/54/54 53/53/53 51/51/51
