#
# OBJECT NAME
#
o model_1849
mtllib 1849.mtl

#
# VERTEX BUFFER 000
#
v -0.5 0.167005 0.5
v -0.5 0 0.5
v 0.5 0 0.5
v 0.5 0.167005 0.5
v -0.5 0 -0.5
v -0.5 0.167005 -0.5
v 0.5 0.167005 -0.5
v 0.5 0 -0.5
v -0.5 0 0.5
v -0.5 0 -0.5
v 0.5 0 -0.5
v 0.5 0 0.5
v 0.5 0.167005 0.5
v 0.5 0 0.5
v 0.5 0 -0.5
v 0.5 0.167005 -0.5
v -0.5 0.167005 -0.5
v -0.5 0 -0.5
v -0.5 0 0.5
v -0.5 0.167005 0.5
v -0.5 0.167005 0.5
v 0.5 0.167005 0.5
v 0.5 0.167005 -0.5
v -0.5 0.167005 -0.5
v 0.362157 0.502725 0.48
v 0.339274 0.480278 0.5
v 0.464 0.167 0.5
v 0.5 0.167 0.48
v 0 0.651107 0.48
v 0 0.619 0.5
v -0.36264 0.502725 0.48
v -0.339274 0.480278 0.5
v -0.5 0.167 0.48
v -0.464 0.167 0.5
v 0 0.167 0.5
v 0.339274 0.480278 0.5
v 0 0.619 0.5
v -0.339274 0.480278 0.5
v -0.464 0.167 0.5
v -0.36264 0.502725 -0.48
v -0.339274 0.480278 -0.5
v -0.464 0.167 -0.5
v -0.5 0.167 -0.48
v 0 0.651107 -0.48
v 0 0.619 -0.5
v 0.36264 0.502725 -0.48
v 0.339274 0.48 -0.5
v 0.5 0.167 -0.48
v 0.464 0.167 -0.5
v 0 0.167 -0.5
v -0.339274 0.480278 -0.5
v 0 0.619 -0.5
v 0.339274 0.48 -0.5
v 0.464 0.167 -0.5
v -0.464 0.167 -0.5
v 0.464 0.167 0.5
v 0.5 0.167 0.48
v 0.464 0.167 0.5
v 0 0.167 0.5
v -0.464 0.167 0.5
v -0.5 0.167 0.48
v -0.5 0.167 -0.48
v -0.464 0.167 -0.5
v 0 0.167 -0.5
v 0.464 0.167 -0.5
v 0.5 0.167 -0.48

vn 0 0 1
vn 0 0 1
vn 0 0 1
vn 0 0 1
vn 0 0 -1
vn 0 0 -1
vn 0 0 -1
vn 0 0 -1
vn 0 -1 0
vn 0 -1 0
vn 0 -1 0
vn 0 -1 0
vn 1 0 0
vn 1 0 0
vn 1 0 0
vn 1 0 0
vn -1 0 0
vn -1 0 0
vn -1 0 0
vn -1 0 0
vn 0 1 0
vn 0 1 0
vn 0 1 0
vn 0 1 0
vn 0.695313 0.717773 0.0259552
vn 0.0817261 0.0842896 0.992676
vn 0.113708 0.0460205 0.992188
vn 0.924805 0.378906 0.0246735
vn -9.53674e-007 0.999512 0.025177
vn 0 0.118042 0.992676
vn -0.695313 0.717773 0.0258942
vn -0.081543 0.0844116 0.992676
vn -0.924805 0.378418 0.0246277
vn -0.113586 0.0458679 0.992188
vn 0 0 1
vn 0.0817261 0.0842896 0.992676
vn 0 0.118042 0.992676
vn -0.081543 0.0844116 0.992676
vn -0.113586 0.0458679 0.992188
vn -0.695313 0.717773 -0.0258942
vn -0.081543 0.0844116 -0.992676
vn -0.113586 0.0458679 -0.992188
vn -0.924805 0.378418 -0.0246277
vn 3.09944e-006 0.999512 -0.025177
vn 3.06964e-005 0.118042 -0.992676
vn 0.695313 0.717773 -0.0257874
vn 0.081604 0.0842896 -0.992676
vn 0.924805 0.378906 -0.0244293
vn 0.113647 0.0458984 -0.992188
vn 0 1.78814e-007 -1
vn -0.081543 0.0844116 -0.992676
vn 3.06964e-005 0.118042 -0.992676
vn 0.081604 0.0842896 -0.992676
vn 0.113647 0.0458984 -0.992188
vn -0.113586 0.0458679 -0.992188
vn 0.113708 0.0460205 0.992188
vn 0 -1 0
vn 0 -1 0
vn 0 -1 0
vn 0 -1 0
vn 0 -1 0
vn 0 -1 0
vn 0 -1 0
vn 0 -1 0
vn 0 -1 0
vn 0 -1 0

vt 0.619507 0.989018
vt 0.619507 0.913577
vt 0.98811 0.913577
vt 0.98811 0.989018
vt 0.98811 0.913577
vt 0.98811 0.989018
vt 0.619507 0.989018
vt 0.619507 0.913577
vt 0.98811 0.528691
vt 0.98811 0.901278
vt 0.617555 0.901278
vt 0.617555 0.528691
vt 0.619507 0.989018
vt 0.619507 0.913577
vt 0.98811 0.913577
vt 0.98811 0.989018
vt 0.98811 0.913577
vt 0.98811 0.989018
vt 0.619507 0.989018
vt 0.619507 0.913577
vt 0.617555 0.528691
vt 0.98811 0.528691
vt 0.98811 0.901278
vt 0.617555 0.901278
vt 0.0196827 0.401834
vt 0.00385054 0.401834
vt 0.00385054 0.195965
vt 0.0196827 0.195965
vt 0.0196828 0.595481
vt 0.00385057 0.595481
vt 0.0196828 0.789127
vt 0.00385057 0.789127
vt 0.0196828 0.994996
vt 0.00385057 0.994996
vt 0.75989 0.0147201
vt 0.926972 0.169
vt 0.75989 0.237316
vt 0.592808 0.169
vt 0.531384 0.0147201
vt 0.482705 0.789127
vt 0.500332 0.789127
vt 0.500332 0.994996
vt 0.482705 0.994996
vt 0.482705 0.595481
vt 0.500332 0.595481
vt 0.482705 0.401834
vt 0.500332 0.401834
vt 0.482705 0.195965
vt 0.500332 0.195965
vt 0.75989 0.271882
vt 0.592808 0.426162
vt 0.75989 0.494479
vt 0.926972 0.426025
vt 0.988396 0.271882
vt 0.531384 0.271882
vt 0.988396 0.0147201
vt 0.994773 0.525306
vt 0.977561 0.515744
vt 0.755719 0.515744
vt 0.533876 0.515744
vt 0.516664 0.525306
vt 0.516664 0.984525
vt 0.533876 0.994087
vt 0.755719 0.994087
vt 0.977561 0.994087
vt 0.994773 0.984525


#
# MESH 000
#
g surface_000
usemtl surface_000
f 21/21/21 23/23/23 24/24/24
f 21/21/21 22/22/22 23/23/23
f 17/17/17 19/19/19 20/20/20
f 17/17/17 18/18/18 19/19/19
f 13/13/13 15/15/15 16/16/16
f 13/13/13 14/14/14 15/15/15
f 9/9/9 11/11/11 12/12/12
f 9/9/9 10/10/10 11/11/11
f 5/5/5 7/7/7 8/8/8
f 5/5/5 6/6/6 7/7/7
f 1/1/1 3/3/3 4/4/4
f 1/1/1 2/2/2 3/3/3
f 57/57/57 65/65/65 66/66/66
f 57/57/57 64/64/64 65/65/65
f 57/57/57 63/63/63 64/64/64
f 57/57/57 62/62/62 63/63/63
f 57/57/57 61/61/61 62/62/62
f 57/57/57 60/60/60 61/61/61
f 57/57/57 59/59/59 60/60/60
f 57/57/57 58/58/58 59/59/59
f 35/35/35 56/56/56 36/36/36
f 35/35/35 36/36/36 37/37/37
f 37/37/37 38/38/38 35/35/35
f 38/38/38 39/39/39 35/35/35
f 50/50/50 55/55/55 51/51/51
f 50/50/50 51/51/51 52/52/52
f 52/52/52 53/53/53 50/50/50
f 53/53/53 54/54/54 50/50/50
f 48/48/48 49/49/49 47/47/47
f 48/48/48 47/47/47 46/46/46
f 25/25/25 48/48/48 46/46/46
f 25/25/25 28/28/28 48/48/48
f 25/25/25 27/27/27 28/28/28
f 25/25/25 26/26/26 27/27/27
f 29/29/29 26/26/26 25/25/25
f 29/29/29 30/30/30 26/26/26
f 45/45/45 46/46/46 47/47/47
f 45/45/45 44/44/44 46/46/46
f 44/44/44 25/25/25 46/46/46
f 44/44/44 29/29/29 25/25/25
f 31/31/31 29/29/29 44/44/44
f 30/30/30 29/29/29 31/31/31
f 30/30/30 31/31/31 32/32/32
f 33/33/33 32/32/32 31/31/31
f 33/33/33 34/34/34 32/32/32
f 40/40/40 44/44/44 45/45/45
f 31/31/31 44/44/44 40/40/40
f 40/40/40 33/33/33 31/31/31
f 40/40/40 43/43/43 33/33/33
f 40/40/40 42/42/42 43/43/43
f 40/40/40 41/41/41 42/42/42
f 40/40/40 45/45/45 41/41/41

