#
# OBJECT NAME
#
o model_1851
mtllib 1851.mtl

#
# VERTEX BUFFER 000
#
v -0.5 0 -0.5
v -0.5 0 0.5
v -0.5 1 0.5
v -0.5 1.19479 -0.5
v 0.5 0.167005 0.5
v -0.5 0 0.5
v 0.5 0 0.5
v -0.5 1.19479 0.5
v -0.5 1.19479 -0.5
v -0.5 1 0.5
v -0.5 1 0.5
v 0.5 0.167005 0.5
v 0.5 0.340891 0.5
v -0.5 1.19479 0.5
v 0.5 0.340891 0.5
v -0.5 1.19479 -0.5
v -0.5 1.19479 0.5
v -0.5 0 0.5
v -0.5 0 -0.5
v 0.5 0 0.5
v -0.5 0 -0.5
v -0.5 1.19479 -0.5
v 0.5 1 -0.5
v 0.5 0 -0.5
v -0.5 0 -0.5
v 0.5 0 -0.5
v 0.5 0 0.5
v 0.5 0.167005 0.5
v 0.5 0 -0.5
v 0.5 1 -0.5
v -0.5 1.19479 -0.5
v 0.5 1.19479 -0.5
v -0.196112 1.19479 -0.5
v 0.5 0.340891 0.5
v 0.5 0.167005 0.5
v 0.5 1 -0.5
v 0.5 1.19479 -0.5
v 0.5 0.340891 0.5
v 0.5 1.19479 -0.5
v -0.5 1.19479 -0.5
v -0.196112 1.19479 -0.5
v 0.5 1.19479 -0.5
v 0.5 1 -0.5
v -0.5 1.19479 -0.5
v 0.5 0 0.5
v 0.5 0 -0.5
v 0.5 0.167005 0.5
v -0.5 1 0.5
v -0.5 0 0.5
v 0.5 0.167005 0.5

vn -1 0 0
vn -1 0 0
vn -1 0 0
vn -1 0 0
vn 0 0 1
vn 0 0 1
vn 0 0 1
vn -1 -5.96046e-007 0
vn -1 0 0
vn -1 0 0
vn 0 0 1
vn 0 0 1
vn 0 0 1
vn 0 0 1
vn 0.365479 0.855957 0.365479
vn 0.365479 0.855957 0.365479
vn 0.648926 0.760254 -1.78814e-007
vn 0 -1 0
vn 0 -1 0
vn 0 -1 0
vn 0 0 -1
vn 0 0 -1
vn 0 0 -1
vn 0 0 -1
vn 0 -1 0
vn 0 -1 0
vn 0 -1 0
vn 1 0 0
vn 1 0 0
vn 1 0 0
vn 0.365479 0.855957 0.365479
vn 0 0.760254 0.648926
vn 0 0.420898 0.906738
vn 1 0 0
vn 1 0 0
vn 1 0 0
vn 1 0 0
vn 0.365479 0.855957 0.365479
vn 0 0.760254 0.648926
vn 0.365479 0.855957 0.365479
vn -1.19209e-007 -1.01328e-006 -1
vn -1.19209e-007 -1.01328e-006 -1
vn 0 0 -1
vn 0 0 -1
vn 1 0 0
vn 1 0 0
vn 1 0 0
vn 0 0 1
vn 0 0 1
vn 0 0 1

vt 0.681575 0.0189217
vt 0.832829 0.0189217
vt 0.832835 0.268911
vt 0.681571 0.268911
vt 0.664448 0.672126
vt 0.412923 0.605806
vt 0.664448 0.539486
vt 0.00461262 0.92249
vt 0.400824 0.957793
vt 0.00461262 0.993095
vt 0.347917 0.911079
vt 0.347917 0.109278
vt 0.392127 0.171277
vt 0.392127 0.973597
vt 0.00461262 0.0959975
vt 0.400824 0.957793
vt 0.00461262 0.92249
vt 0.664189 0.516492
vt 0.414101 0.516492
vt 0.664189 0.0156564
vt 0.829833 0.0189217
vt 0.832835 0.268911
vt 0.681571 0.268911
vt 0.681548 0.0189217
vt 0.664189 0.516492
vt 0.414101 0.516492
vt 0.414101 0.0156564
vt 0.938623 0.10318
vt 0.682359 0.10318
vt 0.682351 0.518776
vt 0.00461262 0.957793
vt 0.400825 0.92249
vt 0.125017 0.92249
vt 0.348123 0.171277
vt 0.392332 0.109278
vt 0.392332 0.911079
vt 0.348123 0.973597
vt 0.400825 0.0959975
vt 0.400825 0.92249
vt 0.00461262 0.957793
vt 0.125017 0.92249
vt 0.400825 0.92249
vt 0.400824 0.993095
vt 0.00461262 0.957793
vt 0.664448 0.539486
vt 0.41292 0.605806
vt 0.664448 0.672126
vt 0.682351 0.518776
vt 0.682364 0.10318
vt 0.938623 0.10318


#
# MESH 000
#
g surface_000
usemtl surface_000
f 48/48/48 49/49/49 50/50/50
f 45/45/45 46/46/46 47/47/47
f 38/38/38 39/39/39 40/40/40
f 31/31/31 32/32/32 33/33/33
f 28/28/28 29/29/29 30/30/30
f 25/25/25 26/26/26 27/27/27
f 18/18/18 19/19/19 20/20/20
f 15/15/15 16/16/16 17/17/17
f 8/8/8 9/9/9 10/10/10
f 5/5/5 6/6/6 7/7/7
f 41/41/41 43/43/43 44/44/44
f 41/41/41 42/42/42 43/43/43
f 34/34/34 36/36/36 37/37/37
f 34/34/34 35/35/35 36/36/36
f 21/21/21 23/23/23 24/24/24
f 21/21/21 22/22/22 23/23/23
f 11/11/11 13/13/13 14/14/14
f 11/11/11 12/12/12 13/13/13
f 1/1/1 3/3/3 4/4/4
f 1/1/1 2/2/2 3/3/3

