#
# OBJECT NAME
#
o model_1860
mtllib 1860.mtl

#
# VERTEX BUFFER 000
#
v -0.112754 1.13179 0.242738
v 0.0931633 1.13179 0.242738
v 0.5 0.427095 0.249344
v 0.388013 0.169 0.242738
v -0.00420189 1.13179 0.412571
v -0.112754 1.13179 0.242738
v 0.388013 0.169 0.242738
v 0.5 0.170234 0.5
v 0.5 0.170234 0.5
v 0.112754 1.13179 0.242738
v -0.388013 0.169 0.242738
v -0.5 0.427095 0.249344
v -0.0931633 1.13179 0.242738
v 0.00420189 1.13179 0.412571
v -0.5 0.170234 0.5
v -0.388013 0.169 0.242738
v 0.112754 1.13179 0.242738
v -0.5 0.170234 0.5
v -0.128629 1.1504 0.52683
v 0.0124214 1.00475 0.52599
v 0.153464 1.1504 0.526961
v 0.012983 1.30351 0.527808
v 0.00124538 1.19168 -0.499564
v -0.121574 1.08164 -0.491475
v -0.128629 1.1504 0.52683
v 0.012983 1.30351 0.527808
v 0.137065 1.07906 -0.491475
v 0.153464 1.1504 0.526961
v 0.00036542 0.946952 -0.491475
v 0.0124214 1.00475 0.52599
v 0.00036542 0.946952 -0.491475
v 0.0124214 1.00475 0.52599

vn -0.871582 -0.436768 -0.22168
vn 0.740234 0.425049 -0.520508
vn 0.791504 0.454834 -0.407715
vn -0.893555 -0.446777 0.0412903
vn -0.399414 -0.147949 0.904297
vn -0.871582 -0.436768 -0.22168
vn -0.893555 -0.446777 0.0412903
vn -0.503906 -0.208984 0.837402
vn -0.503906 -0.208984 0.837402
vn 0.871582 -0.436768 -0.22168
vn 0.893555 -0.446777 0.0412903
vn -0.791504 0.454834 -0.407715
vn -0.740234 0.425049 -0.520508
vn 0.399414 -0.147949 0.904297
vn 0.503906 -0.208984 0.837402
vn 0.893555 -0.446777 0.0412903
vn 0.871582 -0.436768 -0.22168
vn 0.503906 -0.208984 0.837402
vn -0.000467062 -0.00608063 0.999512
vn -0.000467062 -0.00621033 0.999512
vn -0.0004673 -0.00608063 0.999512
vn -0.0004673 -0.00595474 0.999512
vn -0.000426054 0.995117 -0.0941162
vn -0.999512 -0.0087204 -0.00961304
vn -0.999023 0.0380859 -0.0131531
vn 0.00999451 0.995117 -0.0941772
vn 0.999512 -0.0150986 -0.0259857
vn 0.998535 0.0358276 -0.0298615
vn -0.00939941 -0.998047 0.0568237
vn 0.000711441 -0.998047 0.0567627
vn -0.00939941 -0.998047 0.0568237
vn 0.000711441 -0.998047 0.0567627

vt 0.00754333 0.00358999
vt 0.00754309 0.0435331
vt 0.389386 0.043533
vt 0.260762 0.00358999
vt 0.00754356 0.10335
vt 0.00754309 0.163952
vt 0.440797 0.163953
vt 0.472953 0.10335
vt 0.472953 0.10335
vt 0.993735 0.00358999
vt 0.740517 0.00358999
vt 0.611892 0.043533
vt 0.993736 0.0435331
vt 0.993735 0.10335
vt 0.528325 0.10335
vt 0.560482 0.163953
vt 0.993736 0.163952
vt 0.528325 0.10335
vt 0.74747 0.768129
vt 0.807531 0.706648
vt 0.867591 0.768129
vt 0.807531 0.827202
vt 0.697006 0.335935
vt 0.697006 0.418227
vt 0.00330017 0.418227
vt 0.00330017 0.335935
vt 0.697006 0.260802
vt 0.00330017 0.260802
vt 0.697006 0.181115
vt 0.00330017 0.181115
vt 0.697007 0.49608
vt 0.00330017 0.49608


#
# VERTEX BUFFER 001
#
v 0.5 0.170234 0.5
v 0.5 1.19479 -0.5
v -0.5 1.19479 -0.5
v -0.5 0.170234 0.5
v -0.5 0 -0.5
v 0.5 0 -0.5
v 0.5 0 0.5
v -0.5 0 0.5
v -0.5 0 0.5
v 0.5 0 0.5
v 0.5 0.170234 0.5
v -0.5 0.170234 0.5
v 0.5 0.170234 0.5
v 0.5 0 -0.5
v 0.5 1.19479 -0.5
v -0.5 0 -0.5
v -0.5 0 0.5
v -0.5 0.170234 0.5
v -0.5 1.19479 -0.5
v 0.5 0 0.5
v -0.5 0 -0.5
v -0.5 1.19479 -0.5
v 0.5 1.19479 -0.5
v 0.5 0 -0.5
v 0.0231736 1.16972 0.320246
v 0.458804 0.35587 0.320246
v 0.0757169 1.11452 -0.464769
v -0.472028 0.332194 0.320246
v -0.0231736 1.16972 0.320246
v -0.0757169 1.11452 -0.464769

vn 0 0.698242 0.715332
vn 0.000299931 0.707031 0.707031
vn -0.000299931 0.707031 0.707031
vn 0 0.698242 0.715332
vn 0 -1 0
vn 0 -1 0
vn 0 -1 0
vn 0 -1 0
vn 0 0 1
vn 0 0 1
vn 0 0 1
vn 0 0 1
vn 1 0 0
vn 1 0 0
vn 1 0 0
vn -1 0 0
vn -1 0 0
vn -1 0 0
vn -1 0 0
vn 1 0 0
vn 0 0 -1
vn 0 0 -1
vn 0 0 -1
vn 0 0 -1
vn 0.881348 0.47168 0.0258026
vn 0.881348 0.47168 0.0258026
vn 0.820313 0.571289 0
vn -0.880859 0.472168 0.0257568
vn -0.880859 0.472168 0.0257568
vn -0.820313 0.571289 0

vt 0.263475 0.848274
vt 0.263475 0.993874
vt 0.0129961 0.993874
vt 0.0129961 0.848292
vt 0.988631 0.854654
vt 0.738152 0.854654
vt 0.738152 0.604174
vt 0.988631 0.604174
vt 0.00817418 0.490567
vt 0.261362 0.490567
vt 0.261362 0.553187
vt 0.00817418 0.553187
vt 0.178796 0.0674413
vt 0.37083 0.0133587
vt 0.37083 0.263838
vt 0.399785 0.0133587
vt 0.588736 0.0133588
vt 0.588736 0.0674413
vt 0.399785 0.263838
vt 0.178796 0.0133587
vt 0.689454 0.0138372
vt 0.689453 0.27528
vt 0.940276 0.27528
vt 0.940276 0.0138372
vt 0.552632 0.941268
vt 0.340759 0.931103
vt 0.552632 0.74972
vt 0.808534 0.934153
vt 0.590563 0.941268
vt 0.590563 0.749721


#
# MESH 000
#
g surface_000
usemtl surface_000
f 9/9/9 2/2/2 5/5/5
f 9/9/9 3/3/3 2/2/2
f 4/4/4 2/2/2 3/3/3
f 4/4/4 1/1/1 2/2/2
f 5/5/5 7/7/7 8/8/8
f 5/5/5 6/6/6 7/7/7
f 18/18/18 14/14/14 13/13/13
f 18/18/18 13/13/13 12/12/12
f 11/11/11 12/12/12 13/13/13
f 11/11/11 13/13/13 10/10/10
f 14/14/14 16/16/16 17/17/17
f 14/14/14 15/15/15 16/16/16
f 24/24/24 31/31/31 32/32/32
f 24/24/24 32/32/32 25/25/25
f 23/23/23 24/24/24 25/25/25
f 23/23/23 25/25/25 26/26/26
f 27/27/27 23/23/23 26/26/26
f 27/27/27 26/26/26 28/28/28
f 29/29/29 27/27/27 28/28/28
f 29/29/29 28/28/28 30/30/30
f 22/22/22 19/19/19 21/21/21
f 19/19/19 20/20/20 21/21/21

#
# MESH 001
#
g surface_001
usemtl surface_001
f 53/53/53 55/55/55 56/56/56
f 53/53/53 54/54/54 55/55/55
f 46/46/46 45/45/45 52/52/52
f 45/45/45 46/46/46 47/47/47
f 48/48/48 50/50/50 51/51/51
f 48/48/48 49/49/49 50/50/50
f 41/41/41 43/43/43 44/44/44
f 41/41/41 42/42/42 43/43/43
f 37/37/37 39/39/39 40/40/40
f 37/37/37 38/38/38 39/39/39
f 33/33/33 35/35/35 36/36/36
f 33/33/33 34/34/34 35/35/35
f 60/60/60 61/61/61 62/62/62
f 57/57/57 58/58/58 59/59/59

