#
# OBJECT NAME
#
o model_3104
mtllib 3104.mtl

#
# VERTEX BUFFER 000
#
v 0.51786 1.06011 -0.206747
v 0.281129 0.736346 -0.230392
v 0.0928009 0.880755 -0.0660503
v 0.348345 1.18304 -0.0660503
v 0.657755 1.36091 -0.0660503
v 0.651976 1.31356 -0.118834
v 0.588811 1.36055 -0.0660503
v 0.348345 1.18304 -0.0660503
v 0.0928009 0.880755 -0.0660503
v 0.281129 0.736346 0.0982917
v 0.51786 1.06011 0.0746467
v 0.657755 1.36091 -0.0660503
v 0.588811 1.36055 -0.0660503
v 0.651976 1.31356 -0.0132663
v 0.51786 1.06011 0.0746467
v 0.281129 0.736346 0.0982917
v 0.367553 0.669421 -0.0660503
v 0.596241 1.00174 -0.0660503
v 0.681323 1.29167 -0.0660503
v 0.657755 1.36091 -0.0660503
v 0.651976 1.31356 -0.0132663
v 0.367553 0.669421 -0.0660503
v 0.281129 0.736346 -0.230392
v 0.51786 1.06011 -0.206747
v 0.596241 1.00174 -0.0660503
v 0.657755 1.36091 -0.0660503
v 0.681323 1.29167 -0.0660503
v 0.651976 1.31356 -0.118834
v -0.251056 0.204161 -0.519085
v -0.080083 0.204161 -0.360314
v -0.080083 0.300319 -0.519261
v 0.0908888 0.204161 -0.519085
v -0.080083 0.204161 -0.642286
v -0.251056 0.204161 -0.519085
v -0.080083 0.300319 -0.519261
v 0.0908888 0.204161 -0.519085
v -0.251056 0.0283214 -0.519085
v -0.080083 0.0283214 -0.363399
v 0.0908888 0.0283214 -0.519085
v -0.080083 0.0283214 -0.639891
v -0.251056 0.0283214 -0.519085
v 0.0908888 0.0283214 -0.519085
v -0.251056 0.0283214 -0.519085
v -0.080083 0 -0.519085
v -0.080083 0.0283214 -0.363399
v 0.0908888 0.0283214 -0.519085
v -0.080083 0.0283214 -0.639891
v -0.080083 0.300319 0.38716
v -0.080083 0.204161 0.228213
v -0.251056 0.204161 0.386984
v 0.0908887 0.204161 0.386984
v -0.080083 0.300319 0.38716
v -0.251056 0.204161 0.386984
v -0.0800831 0.204161 0.510185
v 0.0908887 0.204161 0.386984
v -0.080083 0.0283214 0.231299
v -0.251056 0.0283214 0.386984
v 0.0908887 0.0283214 0.386984
v -0.251056 0.0283214 0.386984
v -0.080083 0.0283214 0.507791
v 0.0908887 0.0283214 0.386984
v -0.080083 0.0283214 0.231299
v -0.080083 0 0.386984
v -0.251056 0.0283214 0.386984
v 0.0908887 0.0283214 0.386984
v -0.080083 0.0283214 0.507791
v 0.0474431 0.829546 0.359175
v -0.0800832 0.882961 0.332328
v -0.207611 0.829546 0.359175
v -0.266796 0.662471 0.307444
v -0.266796 0.714452 0.417022
v -0.207611 0.777564 0.249596
v -0.207611 0.547377 0.365291
v -0.207611 0.599359 0.47487
v -0.0800832 0.493963 0.392138
v -0.0800832 0.545944 0.501717
v 0.0474431 0.547377 0.365291
v 0.0474431 0.599359 0.47487
v 0.106629 0.662471 0.307444
v 0.106629 0.714452 0.417022
v 0.0474431 0.777564 0.249596
v -0.0800832 0.83098 0.222749
v 0.0474431 0.829546 -0.491276
v -0.207611 0.829546 -0.491276
v -0.0800832 0.882961 -0.464429
v -0.266796 0.662471 -0.439545
v -0.207611 0.777564 -0.381697
v -0.266796 0.714452 -0.549123
v -0.207611 0.547377 -0.497392
v -0.207611 0.599359 -0.606971
v -0.0800832 0.493963 -0.524239
v -0.0800832 0.545944 -0.633817
v 0.0474431 0.547377 -0.497392
v 0.0474431 0.599359 -0.606971
v 0.106629 0.662471 -0.439545
v 0.106629 0.714452 -0.549123
v 0.0474431 0.777564 -0.381697
v -0.0800832 0.83098 -0.35485
v -0.0800837 0.415739 0.485355
v -0.0800837 0.184949 0.348367
v 0.203166 0.224973 0.285971
v 0.203166 0.394447 0.394983
v -0.368617 0.213319 0.302746
v -0.368617 0.389609 0.416494
v -0.563648 0.345133 0.233212
v -0.563648 0.204418 -0.0660503
v -0.368617 0.0981329 -0.0660503
v -0.563648 0.537126 0.239023
v -0.563648 0.345133 0.233212
v -0.368617 0.389609 0.416494
v -0.368617 0.588019 0.398682
v -0.0800837 0.415739 0.485355
v -0.0800837 0.612022 0.456643
v -0.563648 0.778446 -0.0660503
v -0.563648 0.720427 0.12739
v -0.368617 0.859976 0.230476
v -0.368617 0.948463 -0.0660503
v -0.0800837 0.920099 0.268371
v -0.0800837 1.02118 -0.0660503
v 0.40348 0.345133 0.139469
v 0.42634 0.454687 -0.0660503
v 0.40348 0.490274 0.143482
v 0.203166 0.394447 0.394983
v 0.203166 0.564059 0.377985
v 0.40348 0.24795 -0.0660503
v 0.40348 0.645941 -0.0660503
v 0.40348 0.605871 0.0663841
v 0.203166 0.813809 0.216504
v 0.203166 0.898459 -0.0660503
v 0.40348 0.345133 0.139469
v 0.203166 0.116138 -0.0660503
v 0.40348 0.24795 -0.0660503
v -0.0800837 0.184949 -0.480468
v -0.0800837 0.415739 -0.617455
v 0.203166 0.394447 -0.527083
v 0.203166 0.224973 -0.418071
v -0.368617 0.213319 -0.434847
v -0.368617 0.389609 -0.548594
v -0.563648 0.345133 -0.365312
v -0.563648 0.345133 -0.365312
v -0.563648 0.537126 -0.371124
v -0.368617 0.588019 -0.530782
v -0.368617 0.389609 -0.548594
v -0.0800837 0.612022 -0.588744
v -0.0800837 0.415739 -0.617455
v -0.563648 0.720427 -0.259491
v -0.563648 0.778446 -0.0660503
v -0.368617 0.948463 -0.0660503
v -0.368617 0.859976 -0.362577
v -0.0800837 0.920099 -0.400471
v -0.0800837 1.02118 -0.0660503
v -0.0800837 0.061414 -0.0660503
v 0.42634 0.454687 -0.0660503
v 0.40348 0.345133 -0.271569
v 0.40348 0.490274 -0.275583
v 0.203166 0.564059 -0.510086
v 0.203166 0.394447 -0.527083
v 0.40348 0.24795 -0.0660503
v 0.40348 0.605871 -0.198485
v 0.40348 0.645941 -0.0660503
v 0.203166 0.898459 -0.0660503
v 0.203166 0.813809 -0.348605
v 0.40348 0.345133 -0.271569
v -0.563648 0.778446 -0.0660503
v -0.563648 0.720427 -0.259491
v -0.594266 0.345133 -0.0660502
v -0.563648 0.345133 -0.365312
v -0.563648 0.204418 -0.0660503
v -0.563648 0.204418 -0.0660503
v -0.563648 0.345133 0.233212
v -0.594266 0.345133 -0.0660502
v -0.563648 0.720427 0.12739
v -0.563648 0.537126 0.239023
v -0.563648 0.537126 -0.371124
v -0.563648 0.778446 -0.0660503

vn 0.381592 -0.15918 -0.910156
vn 0.340332 -0.219727 -0.914063
vn -0.77832 0.627441 0
vn -0.706055 0.70752 0
vn 0.595703 0.802734 0
vn 0.669922 0.514648 -0.534668
vn -0.457764 0.888672 0
vn -0.706055 0.70752 0
vn -0.77832 0.627441 0
vn 0.340332 -0.219727 0.914063
vn 0.381592 -0.15918 0.910156
vn 0.595703 0.802734 0
vn -0.457764 0.888672 0
vn 0.669922 0.514648 0.534668
vn 0.381592 -0.15918 0.910156
vn 0.340332 -0.219727 0.914063
vn 0.829102 -0.558594 0
vn 0.88916 -0.457031 0
vn 0.992188 -0.122498 0
vn 0.595703 0.802734 0
vn 0.669922 0.514648 0.534668
vn 0.829102 -0.558594 0
vn 0.340332 -0.219727 -0.914063
vn 0.381592 -0.15918 -0.910156
vn 0.88916 -0.457031 0
vn 0.595703 0.802734 0
vn 0.992188 -0.122498 0
vn 0.669922 0.514648 -0.534668
vn -0.976563 0.214722 0.00854492
vn -1.78814e-007 0.222656 0.974609
vn -2.98023e-007 0.999512 0.0128174
vn 0.976563 0.214722 0.00854492
vn -1.19209e-007 0.195557 -0.980469
vn -0.976563 0.214722 0.00854492
vn -2.98023e-007 0.999512 0.0128174
vn 0.976563 0.214722 0.00854492
vn -0.977051 -0.21167 0.00353622
vn 0 -0.229126 0.973145
vn 0.977051 -0.21167 0.00353622
vn 0 -0.203979 -0.978516
vn -0.977051 -0.21167 0.00353622
vn 0.977051 -0.21167 0.00353622
vn -0.977051 -0.21167 0.00353622
vn 0 -0.999512 0.000536442
vn 0 -0.229126 0.973145
vn 0.977051 -0.21167 0.00353622
vn 0 -0.203979 -0.978516
vn -2.98023e-007 0.999512 -0.0128174
vn -4.17233e-007 0.222656 -0.974609
vn -0.976563 0.214722 -0.00854492
vn 0.976563 0.214722 -0.00854492
vn -2.98023e-007 0.999512 -0.0128174
vn -0.976563 0.214722 -0.00854492
vn 0 0.195557 0.980469
vn 0.976563 0.214722 -0.00854492
vn -2.98023e-007 -0.229126 -0.973145
vn -0.977051 -0.21167 -0.00353622
vn 0.977051 -0.21167 -0.00353432
vn -0.977051 -0.21167 -0.00353622
vn 2.38419e-007 -0.203979 0.978516
vn 0.977051 -0.21167 -0.00353432
vn -2.98023e-007 -0.229126 -0.973145
vn 0 -0.999512 -0.000536442
vn -0.977051 -0.21167 -0.00353622
vn 0.977051 -0.21167 -0.00353432
vn 2.38419e-007 -0.203979 0.978516
vn 0.364746 0.706055 0.606445
vn 1.19209e-007 0.994141 -0.105774
vn -0.364746 0.706055 0.606445
vn -0.999512 0.00547409 -0.0025959
vn -0.469238 0.393799 0.790039
vn -0.708008 0.637695 -0.30249
vn -0.712891 -0.633301 0.300293
vn -0.365479 0.0588684 0.928711
vn 0 -0.90332 0.428467
vn 0 -0.70459 0.709473
vn 0.712891 -0.633301 0.300293
vn 0.365479 0.0588684 0.928711
vn 0.999512 0.00547409 -0.0025959
vn 0.469238 0.393799 0.790039
vn 0.708008 0.637695 -0.30249
vn 1.19209e-007 0.90332 -0.428467
vn 0.364746 0.706055 -0.606445
vn -0.364746 0.706055 -0.606445
vn 0 0.994141 0.105774
vn -0.999512 0.00547409 0.0025959
vn -0.708008 0.637695 0.30249
vn -0.469238 0.393799 -0.790039
vn -0.712891 -0.633301 -0.300293
vn -0.365479 0.0588684 -0.928711
vn 0 -0.90332 -0.428467
vn 0 -0.70459 -0.709473
vn 0.712891 -0.633301 -0.300293
vn 0.365479 0.0588684 -0.928711
vn 0.999512 0.00547409 0.0025959
vn 0.469238 0.393799 -0.790039
vn 0.708008 0.637695 0.30249
vn 0 0.90332 0.428467
vn 0.0313416 -0.221558 0.974609
vn 0.0301971 -0.838867 0.542969
vn 0.35083 -0.802246 0.48291
vn 0.470459 -0.210571 0.856445
vn -0.29248 -0.825195 0.482178
vn -0.37085 -0.211792 0.903809
vn -0.754395 -0.466553 0.460938
vn -0.646484 -0.762207 0
vn -0.304932 -0.952148 0
vn -0.812988 0.187622 0.550781
vn -0.754395 -0.466553 0.460938
vn -0.37085 -0.211792 0.903809
vn -0.407715 0.330322 0.851074
vn 0.0313416 -0.221558 0.974609
vn 0.0455322 0.391357 0.918945
vn -0.822266 0.568848 0
vn -0.813477 0.45752 0.358154
vn -0.400391 0.720703 0.564941
vn -0.40332 0.914551 0
vn 0.0666504 0.795898 0.601074
vn 0.0785522 0.996582 0
vn 0.777832 -0.475098 0.410156
vn 0.999512 -0.0171661 0
vn 0.829102 0.190674 0.524902
vn 0.470459 -0.210571 0.856445
vn 0.522949 0.317871 0.790527
vn 0.698242 -0.715332 0
vn 0.821289 0.569824 0
vn 0.82373 0.452393 0.34082
vn 0.53418 0.666016 0.519531
vn 0.550781 0.834473 0
vn 0.777832 -0.475098 0.410156
vn 0.350342 -0.936523 0
vn 0.698242 -0.715332 0
vn 0.0301971 -0.838867 -0.542969
vn 0.0313416 -0.221558 -0.974609
vn 0.470459 -0.210571 -0.856445
vn 0.35083 -0.802246 -0.48291
vn -0.29248 -0.825195 -0.482178
vn -0.37085 -0.211792 -0.903809
vn -0.754395 -0.466553 -0.460938
vn -0.754395 -0.466553 -0.460938
vn -0.812988 0.187622 -0.550781
vn -0.407715 0.330322 -0.851074
vn -0.37085 -0.211792 -0.903809
vn 0.0455322 0.391357 -0.918945
vn 0.0313416 -0.221558 -0.974609
vn -0.813477 0.45752 -0.358154
vn -0.822266 0.568848 0
vn -0.40332 0.914551 0
vn -0.400391 0.720703 -0.564941
vn 0.0666504 0.795898 -0.601074
vn 0.0785522 0.996582 0
vn 0.0274658 -0.999512 0
vn 0.999512 -0.0171661 0
vn 0.777832 -0.475098 -0.410156
vn 0.829102 0.190674 -0.524902
vn 0.522949 0.317871 -0.790527
vn 0.470459 -0.210571 -0.856445
vn 0.698242 -0.715332 0
vn 0.82373 0.452393 -0.34082
vn 0.821289 0.569824 0
vn 0.550781 0.834473 0
vn 0.53418 0.666016 -0.519531
vn 0.777832 -0.475098 -0.410156
vn -0.822266 0.568848 0
vn -0.813477 0.45752 -0.358154
vn -0.998047 -0.0541077 0
vn -0.754395 -0.466553 -0.460938
vn -0.646484 -0.762207 0
vn -0.646484 -0.762207 0
vn -0.754395 -0.466553 0.460938
vn -0.998047 -0.0541077 0
vn -0.813477 0.45752 0.358154
vn -0.812988 0.187622 0.550781
vn -0.812988 0.187622 -0.550781
vn -0.822266 0.568848 0

vt 0.77625 0.390756
vt 0.763584 0.257573
vt 0.870205 0.257573
vt 0.867771 0.385795
vt 0.828067 0.500043
vt 0.810668 0.482987
vt 0.843729 0.482104
vt 0.867762 0.385797
vt 0.870205 0.257573
vt 0.763578 0.257573
vt 0.776242 0.390756
vt 0.828067 0.500043
vt 0.843725 0.482102
vt 0.810663 0.48299
vt 0.70043 0.391055
vt 0.689872 0.257573
vt 0.75663 0.257573
vt 0.756629 0.38522
vt 0.756629 0.479163
vt 0.756631 0.502109
vt 0.737231 0.48622
vt 0.756633 0.257573
vt 0.689874 0.257573
vt 0.700434 0.391054
vt 0.756634 0.38522
vt 0.756631 0.502109
vt 0.756634 0.479163
vt 0.737235 0.486218
vt 0.493122 0.0795776
vt 0.426555 0.0657446
vt 0.426555 0.121975
vt 0.360352 0.0798556
vt 0.491162 0.201078
vt 0.429716 0.210098
vt 0.491162 0.250428
vt 0.552793 0.210275
vt 0.500311 0.0247809
vt 0.426555 0.0221198
vt 0.352332 0.0248404
vt 0.491162 0.156939
vt 0.425114 0.158446
vt 0.557073 0.158504
vt 0.18963 0.0456305
vt 0.230181 0.0456294
vt 0.230181 0.0087592
vt 0.270731 0.0456316
vt 0.23018 0.0742602
vt 0.426555 0.121975
vt 0.426555 0.0657446
vt 0.493122 0.0795776
vt 0.360352 0.0798556
vt 0.491162 0.250428
vt 0.429716 0.210098
vt 0.491162 0.201078
vt 0.552793 0.210275
vt 0.426555 0.0221198
vt 0.500311 0.0247809
vt 0.352332 0.0248404
vt 0.425114 0.158446
vt 0.491162 0.156939
vt 0.557073 0.158504
vt 0.230181 0.0087592
vt 0.230181 0.0456294
vt 0.18963 0.0456305
vt 0.270731 0.0456316
vt 0.23018 0.0742602
vt 0.048037 0.124056
vt 0.090237 0.144019
vt 0.132457 0.124048
vt 0.167578 0.0819786
vt 0.151872 0.0819786
vt 0.143043 0.134855
vt 0.143177 0.029228
vt 0.132276 0.0397657
vt 0.090237 0.00394493
vt 0.090237 0.0205349
vt 0.0373063 0.0292304
vt 0.0482079 0.0397718
vt 0.0128432 0.0819786
vt 0.0285366 0.0819786
vt 0.0374535 0.134868
vt 0.090237 0.15886
vt 0.048037 0.124056
vt 0.132457 0.124048
vt 0.090237 0.144019
vt 0.167578 0.0819786
vt 0.143043 0.134855
vt 0.151872 0.0819786
vt 0.143177 0.029228
vt 0.132276 0.0397657
vt 0.090237 0.00394493
vt 0.090237 0.0205349
vt 0.0373063 0.0292304
vt 0.0482079 0.0397718
vt 0.0128432 0.0819786
vt 0.0285366 0.0819786
vt 0.0374535 0.134868
vt 0.090237 0.15886
vt 0.166905 0.994013
vt 0.16279 0.907176
vt 0.244503 0.891634
vt 0.258995 0.957178
vt 0.0804522 0.899123
vt 0.0729438 0.968879
vt 0.00833994 0.903949
vt 0.019279 0.776919
vt 0.0794398 0.776919
vt 0.189438 0.544492
vt 0.248445 0.571031
vt 0.271055 0.491126
vt 0.210594 0.472543
vt 0.291318 0.396066
vt 0.227748 0.389761
vt 0.0389905 0.534837
vt 0.106461 0.52945
vt 0.110905 0.454817
vt 0.0170056 0.453063
vt 0.11675 0.374879
vt 0.0161706 0.355744
vt 0.257855 0.185569
vt 0.195311 0.145652
vt 0.218864 0.207345
vt 0.287928 0.295716
vt 0.234075 0.303974
vt 0.256339 0.113827
vt 0.138772 0.179675
vt 0.173561 0.2048
vt 0.141734 0.295327
vt 0.0585467 0.261348
vt 0.316515 0.862905
vt 0.241344 0.776919
vt 0.302982 0.776919
vt 0.162776 0.646701
vt 0.166894 0.559864
vt 0.258188 0.59627
vt 0.244448 0.662217
vt 0.0804681 0.65474
vt 0.0729937 0.584914
vt 0.00796732 0.649892
vt 0.248447 0.571032
vt 0.18944 0.544493
vt 0.210595 0.472543
vt 0.271057 0.491126
vt 0.227749 0.389761
vt 0.29132 0.396066
vt 0.106462 0.529452
vt 0.0389905 0.534837
vt 0.0170067 0.453062
vt 0.110906 0.454818
vt 0.116752 0.37488
vt 0.0161731 0.355744
vt 0.160428 0.776919
vt 0.195313 0.145652
vt 0.257857 0.185571
vt 0.218865 0.207345
vt 0.234076 0.303974
vt 0.287929 0.295717
vt 0.256344 0.113829
vt 0.173562 0.2048
vt 0.138773 0.179675
vt 0.0585483 0.261349
vt 0.141735 0.295328
vt 0.317212 0.691081
vt 0.886043 0.483702
vt 0.949445 0.465081
vt 0.886043 0.334582
vt 0.984811 0.334582
vt 0.886043 0.288478
vt 0.886043 0.288478
vt 0.984811 0.334582
vt 0.886043 0.334582
vt 0.949445 0.465081
vt 0.986881 0.401823
vt 0.986881 0.401823
vt 0.886043 0.483702


#
# MESH 000
#
g surface_000
usemtl surface_000
f 26/26/26 27/27/27 28/28/28
f 25/25/25 28/28/28 27/27/27
f 25/25/25 24/24/24 28/28/28
f 22/22/22 24/24/24 25/25/25
f 22/22/22 23/23/23 24/24/24
f 19/19/19 20/20/20 21/21/21
f 21/21/21 18/18/18 19/19/19
f 21/21/21 15/15/15 18/18/18
f 15/15/15 17/17/17 18/18/18
f 15/15/15 16/16/16 17/17/17
f 12/12/12 13/13/13 14/14/14
f 13/13/13 11/11/11 14/14/14
f 13/13/13 8/8/8 11/11/11
f 8/8/8 10/10/10 11/11/11
f 8/8/8 9/9/9 10/10/10
f 5/5/5 6/6/6 7/7/7
f 6/6/6 4/4/4 7/7/7
f 6/6/6 1/1/1 4/4/4
f 1/1/1 3/3/3 4/4/4
f 1/1/1 2/2/2 3/3/3
f 56/56/56 51/51/51 58/58/58
f 56/56/56 49/49/49 51/51/51
f 51/51/51 49/49/49 48/48/48
f 48/48/48 49/49/49 50/50/50
f 50/50/50 49/49/49 56/56/56
f 50/50/50 56/56/56 57/57/57
f 40/40/40 36/36/36 42/42/42
f 40/40/40 33/33/33 36/36/36
f 33/33/33 35/35/35 36/36/36
f 33/33/33 34/34/34 35/35/35
f 34/34/34 33/33/33 40/40/40
f 34/34/34 40/40/40 41/41/41
f 63/63/63 65/65/65 66/66/66
f 63/63/63 62/62/62 65/65/65
f 62/62/62 63/63/63 64/64/64
f 64/64/64 63/63/63 66/66/66
f 61/61/61 54/54/54 60/60/60
f 61/61/61 55/55/55 54/54/54
f 52/52/52 54/54/54 55/55/55
f 52/52/52 53/53/53 54/54/54
f 54/54/54 53/53/53 59/59/59
f 54/54/54 59/59/59 60/60/60
f 44/44/44 47/47/47 46/46/46
f 47/47/47 44/44/44 43/43/43
f 43/43/43 44/44/44 45/45/45
f 44/44/44 46/46/46 45/45/45
f 39/39/39 30/30/30 38/38/38
f 39/39/39 32/32/32 30/30/30
f 31/31/31 30/30/30 32/32/32
f 29/29/29 30/30/30 31/31/31
f 30/30/30 29/29/29 37/37/37
f 30/30/30 37/37/37 38/38/38
f 87/87/87 98/98/98 85/85/85
f 98/98/98 83/83/83 85/85/85
f 83/83/83 84/84/84 85/85/85
f 87/87/87 85/85/85 84/84/84
f 86/86/86 87/87/87 84/84/84
f 86/86/86 84/84/84 88/88/88
f 89/89/89 86/86/86 88/88/88
f 89/89/89 88/88/88 90/90/90
f 91/91/91 89/89/89 90/90/90
f 98/98/98 97/97/97 83/83/83
f 97/97/97 96/96/96 83/83/83
f 96/96/96 84/84/84 83/83/83
f 96/96/96 88/88/88 84/84/84
f 96/96/96 90/90/90 88/88/88
f 96/96/96 94/94/94 90/90/90
f 90/90/90 94/94/94 92/92/92
f 91/91/91 90/90/90 92/92/92
f 93/93/93 91/91/91 92/92/92
f 93/93/93 92/92/92 94/94/94
f 95/95/95 93/93/93 94/94/94
f 95/95/95 94/94/94 96/96/96
f 97/97/97 95/95/95 96/96/96
f 72/72/72 68/68/68 82/82/82
f 72/72/72 69/69/69 68/68/68
f 67/67/67 68/68/68 69/69/69
f 82/82/82 68/68/68 67/67/67
f 82/82/82 67/67/67 81/81/81
f 81/81/81 67/67/67 80/80/80
f 81/81/81 80/80/80 79/79/79
f 79/79/79 80/80/80 78/78/78
f 79/79/79 78/78/78 77/77/77
f 70/70/70 69/69/69 72/72/72
f 70/70/70 71/71/71 69/69/69
f 80/80/80 69/69/69 71/71/71
f 80/80/80 67/67/67 69/69/69
f 73/73/73 71/71/71 70/70/70
f 73/73/73 74/74/74 71/71/71
f 80/80/80 71/71/71 74/74/74
f 80/80/80 74/74/74 78/78/78
f 74/74/74 76/76/76 78/78/78
f 77/77/77 78/78/78 76/76/76
f 77/77/77 76/76/76 75/75/75
f 75/75/75 76/76/76 74/74/74
f 75/75/75 74/74/74 73/73/73
f 172/172/172 175/175/175 171/171/171
f 172/172/172 171/171/171 173/173/173
f 173/173/173 171/171/171 170/170/170
f 169/169/169 170/170/170 171/171/171
f 166/166/166 167/167/167 168/168/168
f 166/166/166 174/174/174 167/167/167
f 166/166/166 165/165/165 174/174/174
f 164/164/164 165/165/165 166/166/166
f 153/153/153 158/158/158 154/154/154
f 153/153/153 154/154/154 155/155/155
f 155/155/155 159/159/159 153/153/153
f 153/153/153 159/159/159 160/160/160
f 159/159/159 161/161/161 160/160/160
f 159/159/159 162/162/162 161/161/161
f 150/150/150 161/161/161 162/162/162
f 150/150/150 151/151/151 161/161/161
f 157/157/157 155/155/155 154/154/154
f 157/157/157 156/156/156 155/155/155
f 155/155/155 156/156/156 162/162/162
f 155/155/155 162/162/162 159/159/159
f 145/145/145 156/156/156 157/157/157
f 145/145/145 144/144/144 156/156/156
f 156/156/156 144/144/144 150/150/150
f 156/156/156 150/150/150 162/162/162
f 144/144/144 145/145/145 143/143/143
f 144/144/144 143/143/143 142/142/142
f 150/150/150 144/144/144 142/142/142
f 150/150/150 142/142/142 149/149/149
f 148/148/148 150/150/150 149/149/149
f 148/148/148 151/151/151 150/150/150
f 140/140/140 142/142/142 143/143/143
f 140/140/140 141/141/141 142/142/142
f 142/142/142 141/141/141 146/146/146
f 142/142/142 146/146/146 149/149/149
f 146/146/146 148/148/148 149/149/149
f 146/146/146 147/147/147 148/148/148
f 120/120/120 125/125/125 121/121/121
f 120/120/120 121/121/121 122/122/122
f 124/124/124 120/120/120 122/122/122
f 124/124/124 123/123/123 120/120/120
f 113/113/113 123/123/123 124/124/124
f 113/113/113 112/112/112 123/123/123
f 112/112/112 113/113/113 111/111/111
f 112/112/112 111/111/111 110/110/110
f 121/121/121 127/127/127 122/122/122
f 127/127/127 124/124/124 122/122/122
f 127/127/127 128/128/128 124/124/124
f 118/118/118 124/124/124 128/128/128
f 118/118/118 113/113/113 124/124/124
f 111/111/111 113/113/113 118/118/118
f 111/111/111 118/118/118 116/116/116
f 115/115/115 111/111/111 116/116/116
f 115/115/115 108/108/108 111/111/111
f 108/108/108 110/110/110 111/111/111
f 108/108/108 109/109/109 110/110/110
f 121/121/121 126/126/126 127/127/127
f 126/126/126 128/128/128 127/127/127
f 126/126/126 129/129/129 128/128/128
f 119/119/119 128/128/128 129/129/129
f 119/119/119 118/118/118 128/128/128
f 118/118/118 119/119/119 117/117/117
f 118/118/118 117/117/117 116/116/116
f 114/114/114 116/116/116 117/117/117
f 114/114/114 115/115/115 116/116/116
f 163/163/163 136/136/136 135/135/135
f 132/132/132 136/136/136 163/163/163
f 132/132/132 131/131/131 136/136/136
f 152/152/152 136/136/136 131/131/131
f 152/152/152 133/133/133 136/136/136
f 133/133/133 135/135/135 136/136/136
f 133/133/133 134/134/134 135/135/135
f 134/134/134 133/133/133 137/137/137
f 134/134/134 137/137/137 138/138/138
f 139/139/139 138/138/138 137/137/137
f 130/130/130 131/131/131 132/132/132
f 130/130/130 101/101/101 131/131/131
f 131/131/131 101/101/101 100/100/100
f 131/131/131 100/100/100 152/152/152
f 152/152/152 100/100/100 103/103/103
f 152/152/152 103/103/103 107/107/107
f 107/107/107 133/133/133 152/152/152
f 107/107/107 137/137/137 133/133/133
f 137/137/137 107/107/107 106/106/106
f 137/137/137 106/106/106 139/139/139
f 130/130/130 102/102/102 101/101/101
f 99/99/99 101/101/101 102/102/102
f 99/99/99 100/100/100 101/101/101
f 103/103/103 100/100/100 99/99/99
f 103/103/103 99/99/99 104/104/104
f 105/105/105 103/103/103 104/104/104
f 103/103/103 105/105/105 106/106/106
f 103/103/103 106/106/106 107/107/107

