#
# OBJECT NAME
#
o model_5237
mtllib 5237.mtl

#
# VERTEX BUFFER 000
#
v -0.0843875 1.52826 3.01e-005
v -0.90773 1.52826 -0.00243335
v -0.90773 1.57768 -0.00243335
v -0.0843875 1.57768 3.01e-005
v -0.90773 1.52826 0.0327549
v -0.0843875 1.52826 0.0310301
v -0.0843875 1.57768 0.0310301
v -0.90773 1.57768 0.0327549
v -0.0843875 1.52826 0.0155301
v -0.90773 1.52826 0.0151608
v -0.90773 1.52826 -0.00243335
v -0.0843875 1.52826 3.01e-005
v -0.90773 1.57768 0.0151608
v -0.0843875 1.57768 0.0155301
v -0.0843875 1.57768 3.01e-005
v -0.90773 1.57768 -0.00243335
v -0.0843875 1.15971 3.01056e-005
v -0.90773 1.15971 -0.00243336
v -0.90773 1.20913 -0.00243336
v -0.0843875 1.20913 3.01056e-005
v -0.90773 1.15971 0.0327549
v -0.0843875 1.15971 0.0310301
v -0.0843875 1.20913 0.0310301
v -0.90773 1.20913 0.0327549
v -0.0843875 0.791161 3.01056e-005
v -0.90773 0.791161 -0.00243336
v -0.90773 0.840583 -0.00243336
v -0.0843875 0.840583 3.01056e-005
v -0.90773 0.791161 0.0327549
v -0.0843875 0.791161 0.0310301
v -0.0843875 0.840583 0.0310301
v -0.90773 0.840583 0.0327549
v -0.0843875 0.422611 3.01056e-005
v -0.90773 0.422611 -0.00243336
v -0.90773 0.472033 -0.00243336
v -0.0843875 0.472033 3.01056e-005
v -0.90773 0.422611 0.0327549
v -0.0843875 0.422611 0.0310301
v -0.0843875 0.472033 0.0310301
v -0.90773 0.472033 0.0327549
v -0.620057 1.90004 -0.0129699
v -0.620057 0.118965 -0.0129699
v -0.665978 0.118965 -0.0129699
v -0.665978 1.90004 -0.0129699
v -0.620057 0.118965 0.0430301
v -0.620057 1.90004 0.0430301
v -0.665978 1.90004 0.0430301
v -0.665978 0.118965 0.0430301
v -1 2.0061 0.0672915
v -1 2.0061 -0.0369698
v -1 1.88869 -0.0369698
v -1 1.88869 0.0672915
v -0.00196652 1.88869 0.0635301
v -0.00196652 1.88869 -0.0332199
v -0.00196651 2.0061 -0.0332199
v -0.00196652 2.0061 0.0635301
v -1 1.88869 0.0672915
v -1 1.88869 -0.0369698
v -0.00196652 1.88869 -0.0332199
v -0.00196652 1.88869 0.0635301
v -0.00196652 1.88869 -0.0332199
v -1 1.88869 -0.0369698
v -1 2.0061 -0.0369698
v -0.00196651 2.0061 -0.0332199
v -1 2.0061 -0.0369698
v -1 2.0061 0.0672915
v -0.00196652 2.0061 0.0635301
v -0.00196651 2.0061 -0.0332199
v -1 2.0061 0.0672915
v -1 1.88869 0.0672915
v -0.00196652 1.88869 0.0635301
v -0.00196652 2.0061 0.0635301
v -0.90773 1.88869 -0.0369701
v -0.90773 1.88869 0.0151606
v -0.90773 0.13189 0.0151606
v -0.90773 0.13189 -0.0369701
v -0.90773 1.88869 0.0672912
v -1 1.88869 0.0672912
v -1 0.13189 0.0672912
v -0.90773 0.13189 0.0672912
v -0.90773 0.13189 -0.0369701
v -1 0.13189 -0.0369701
v -1 1.88869 -0.0369701
v -0.90773 1.88869 -0.0369701
v -1 1.88869 0.0672912
v -1 1.88869 0.0151606
v -1 0.13189 0.0151606
v -1 0.13189 0.0672912
v -0.90773 1.88869 0.0672912
v -0.90773 0.13189 0.0672912
v -1 1.88869 -0.0369701
v -1 0.13189 -0.0369701
v -0.0019667 1.88869 -0.0332199
v -0.0019667 1.88869 0.0635301
v -0.0019667 0.13189 0.0635301
v -0.0019667 0.13189 -0.0332199
v -0.0019667 1.88869 0.0635301
v -0.0843875 1.88869 0.0672915
v -0.0843875 0.13189 0.0672915
v -0.0019667 0.13189 0.0635301
v -0.0019667 0.13189 -0.0332199
v -0.0843875 0.13189 -0.0369698
v -0.0843875 1.88869 -0.0369698
v -0.0019667 1.88869 -0.0332199
v -0.0843875 1.88869 0.0672915
v -0.0843875 1.88869 -0.0369698
v -0.0843875 0.13189 -0.0369698
v -0.0843875 0.13189 0.0672915
v -1 0.13189 0.0672912
v -1 0.13189 -0.0369701
v -1 0.00410424 -0.0369701
v -1 0.00410424 0.0672912
v -0.00196642 0.00410424 0.0635301
v -0.00196642 0.00410424 -0.0332199
v -0.00196642 0.13189 -0.0332199
v -0.00196642 0.13189 0.0635301
v -1 0.00410424 0.0672912
v -1 0.00410424 -0.0369701
v -0.00196642 0.00410424 -0.0332199
v -0.00196642 0.00410424 0.0635301
v -0.00196642 0.00410424 -0.0332199
v -1 0.00410424 -0.0369701
v -1 0.13189 -0.0369701
v -0.00196642 0.13189 -0.0332199
v -1 0.13189 -0.0369701
v -1 0.13189 0.0672912
v -0.00196642 0.13189 0.0635301
v -0.00196642 0.13189 -0.0332199
v -1 0.13189 0.0672912
v -1 0.00410424 0.0672912
v -0.00196642 0.00410424 0.0635301
v -0.00196642 0.13189 0.0635301
v -0.333064 1.90004 -0.0129699
v -0.333064 0.118965 -0.0129699
v -0.378985 0.118965 -0.0129699
v -0.378985 1.90004 -0.0129699
v -0.333064 0.118965 0.0430301
v -0.333064 1.90004 0.0430301
v -0.378985 1.90004 0.0430301
v -0.378985 0.118965 0.0430301

vn 0 0 -1
vn 0 0 -1
vn 0 0 -1
vn 0 0 -1
vn 0 0 1
vn 0 0 1
vn 0 0 1
vn 0 0 1
vn 0 -1 0
vn 0 -1 0
vn 0 -1 0
vn 0 -1 0
vn 0 1 0
vn 0 1 0
vn 0 1 0
vn 0 1 0
vn 0 0 -1
vn 0 0 -1
vn 0 0 -1
vn 0 0 -1
vn 0 0 1
vn 0 0 1
vn 0 0 1
vn 0 0 1
vn 0 0 -1
vn 0 0 -1
vn 0 0 -1
vn 0 0 -1
vn 0 0 1
vn 0 0 1
vn 0 0 1
vn 0 0 1
vn 0 0 -1
vn 0 0 -1
vn 0 0 -1
vn 0 0 -1
vn 0 0 1
vn 0 0 1
vn 0 0 1
vn 0 0 1
vn 0 0 -1
vn 0 0 -1
vn 0 0 -1
vn 0 0 -1
vn 0 0 1
vn 0 0 1
vn 0 0 1
vn 0 0 1
vn -1 0 0
vn -1 0 0
vn -1 0 0
vn -1 0 0
vn 1 0 0
vn 1 0 0
vn 1 0 0
vn 1 0 0
vn 0 -1 0
vn 0 -1 0
vn 0 -1 0
vn 0 -1 0
vn 0 0 -1
vn 0 0 -1
vn 0 0 -1
vn 0 0 -1
vn 0 1 0
vn 0 1 0
vn 0 1 0
vn 0 1 0
vn 0 0 1
vn 0 0 1
vn 0 0 1
vn 0 0 1
vn 1 0 0
vn 1 0 0
vn 1 0 0
vn 1 0 0
vn 0 0 1
vn 0 0 1
vn 0 0 1
vn 0 0 1
vn 0 0 -1
vn 0 0 -1
vn 0 0 -1
vn 0 0 -1
vn -1 0 0
vn -1 0 0
vn -1 0 0
vn -1 0 0
vn 1 0 0
vn 1 0 0
vn -1 0 0
vn -1 0 0
vn 1 0 0
vn 1 0 0
vn 1 0 0
vn 1 0 0
vn 0 0 1
vn 0 0 1
vn 0 0 1
vn 0 0 1
vn 0 0 -1
vn 0 0 -1
vn 0 0 -1
vn 0 0 -1
vn -1 0 0
vn -1 0 0
vn -1 0 0
vn -1 0 0
vn -1 0 0
vn -1 0 0
vn -1 0 0
vn -1 0 0
vn 1 0 0
vn 1 0 0
vn 1 0 0
vn 1 0 0
vn 0 -1 0
vn 0 -1 0
vn 0 -1 0
vn 0 -1 0
vn 0 0 -1
vn 0 0 -1
vn 0 0 -1
vn 0 0 -1
vn 0 1 0
vn 0 1 0
vn 0 1 0
vn 0 1 0
vn 0 0 1
vn 0 0 1
vn 0 0 1
vn 0 0 1
vn 0 0 -1
vn 0 0 -1
vn 0 0 -1
vn 0 0 -1
vn 0 0 1
vn 0 0 1
vn 0 0 1
vn 0 0 1

vt 0.565993 0.295952
vt 0.973309 0.295952
vt 0.973309 0.346452
vt 0.565993 0.346452
vt 0.973309 0.346452
vt 0.565993 0.346452
vt 0.565993 0.295952
vt 0.973309 0.295952
vt 0.565993 0.235442
vt 0.973308 0.235442
vt 0.973308 0.256582
vt 0.565993 0.256582
vt 0.973308 0.235442
vt 0.565993 0.235442
vt 0.565993 0.214301
vt 0.973308 0.214301
vt 0.565993 0.295952
vt 0.973309 0.295952
vt 0.973309 0.346452
vt 0.565993 0.346452
vt 0.973309 0.346452
vt 0.565993 0.346452
vt 0.565993 0.295952
vt 0.973309 0.295952
vt 0.565993 0.295952
vt 0.973309 0.295952
vt 0.973309 0.346452
vt 0.565993 0.346452
vt 0.973309 0.346452
vt 0.565993 0.346452
vt 0.565993 0.295952
vt 0.973309 0.295952
vt 0.565993 0.295952
vt 0.973309 0.295952
vt 0.973309 0.346452
vt 0.565993 0.346452
vt 0.973309 0.346452
vt 0.565993 0.346452
vt 0.565993 0.295952
vt 0.973309 0.295952
vt 0.565993 0.0407475
vt 0.973308 0.0407475
vt 0.973308 0.0830283
vt 0.565993 0.0830283
vt 0.973308 0.0830283
vt 0.565993 0.0830283
vt 0.565993 0.0407475
vt 0.973308 0.0407475
vt 0.411015 0.683676
vt 0.476235 0.683676
vt 0.476235 0.756937
vt 0.411015 0.756937
vt 0.476235 0.756937
vt 0.411015 0.756937
vt 0.411015 0.683676
vt 0.476235 0.683676
vt 0.97003 0.974
vt 0.97003 0.905374
vt 0.41102 0.905374
vt 0.411022 0.974
vt 0.41102 0.872546
vt 0.97003 0.872546
vt 0.97003 0.795809
vt 0.411015 0.795809
vt 0.411015 0.974
vt 0.411015 0.905995
vt 0.97003 0.905995
vt 0.97003 0.974
vt 0.411015 0.872546
vt 0.411015 0.795809
vt 0.97003 0.795809
vt 0.97003 0.872546
vt 0.2088 0.974
vt 0.244952 0.974
vt 0.244952 0.0277268
vt 0.2088 0.0277268
vt 0.0218225 0.974
vt 0.0900418 0.974
vt 0.0900418 0.0277268
vt 0.0218225 0.0277268
vt 0.090042 0.0277268
vt 0.0218225 0.0277268
vt 0.0218225 0.974
vt 0.090042 0.974
vt 0.208799 0.974
vt 0.244952 0.974
vt 0.244952 0.0277268
vt 0.208799 0.0277268
vt 0.281105 0.974
vt 0.281105 0.0277268
vt 0.281105 0.974
vt 0.281105 0.0277268
vt 0.302169 0.974
vt 0.374474 0.974
vt 0.374474 0.0277268
vt 0.302169 0.0277268
vt 0.214255 0.974
vt 0.274918 0.974
vt 0.274918 0.0277268
vt 0.214255 0.0277268
vt 0.274919 0.0277268
vt 0.214255 0.0277268
vt 0.214255 0.974
vt 0.274919 0.974
vt 0.302168 0.974
vt 0.374474 0.974
vt 0.374474 0.0277268
vt 0.302168 0.0277268
vt 0.411015 0.683676
vt 0.476235 0.683676
vt 0.476235 0.756937
vt 0.411015 0.756937
vt 0.476235 0.756937
vt 0.411015 0.756937
vt 0.411015 0.683676
vt 0.476235 0.683676
vt 0.97003 0.974
vt 0.97003 0.905374
vt 0.41102 0.905374
vt 0.411022 0.974
vt 0.41102 0.872546
vt 0.97003 0.872546
vt 0.97003 0.795809
vt 0.411015 0.795809
vt 0.411015 0.974
vt 0.411015 0.905995
vt 0.97003 0.905995
vt 0.97003 0.974
vt 0.411015 0.872546
vt 0.411015 0.795809
vt 0.97003 0.795809
vt 0.97003 0.872546
vt 0.565993 0.0407475
vt 0.973308 0.0407475
vt 0.973308 0.0830283
vt 0.565993 0.0830283
vt 0.973308 0.0830283
vt 0.565993 0.0830283
vt 0.565993 0.0407475
vt 0.973308 0.0407475


#
# VERTEX BUFFER 001
#
v -0.961485 1.96116 0.0275981
v -0.961485 0.0594245 0.0275981
v -0.0319055 0.0594245 0.0267004
v -0.0319055 1.96116 0.0267004
v -0.0319055 1.96116 0.00361841
v -0.0319055 0.0594245 0.00361841
v -0.961485 0.0594245 0.00272369
v -0.961485 1.96116 0.00272369

vn 0.000965595 0 0.999512
vn 0 0 1
vn 0 0 1
vn 0 0 1
vn 0.000962257 0 -0.999512
vn 0 0 -1
vn 0 0 -1
vn 0 0 -1

vt 0.811624 0.535451
vt 0.811624 0.599778
vt 0.739638 0.599778
vt 0.739638 0.535451
vt 0.739638 0.599778
vt 0.739638 0.535451
vt 0.811624 0.535451
vt 0.811624 0.599778


#
# MESH 000
#
g surface_000
usemtl surface_000
f 13/13/13 15/15/15 16/16/16
f 13/13/13 14/14/14 15/15/15
f 9/9/9 11/11/11 12/12/12
f 9/9/9 10/10/10 11/11/11
f 5/5/5 7/7/7 8/8/8
f 5/5/5 6/6/6 7/7/7
f 1/1/1 3/3/3 4/4/4
f 1/1/1 2/2/2 3/3/3
f 21/21/21 23/23/23 24/24/24
f 21/21/21 22/22/22 23/23/23
f 17/17/17 19/19/19 20/20/20
f 17/17/17 18/18/18 19/19/19
f 29/29/29 31/31/31 32/32/32
f 29/29/29 30/30/30 31/31/31
f 25/25/25 27/27/27 28/28/28
f 25/25/25 26/26/26 27/27/27
f 37/37/37 39/39/39 40/40/40
f 37/37/37 38/38/38 39/39/39
f 33/33/33 35/35/35 36/36/36
f 33/33/33 34/34/34 35/35/35
f 45/45/45 47/47/47 48/48/48
f 45/45/45 46/46/46 47/47/47
f 41/41/41 43/43/43 44/44/44
f 41/41/41 42/42/42 43/43/43
f 69/69/69 71/71/71 72/72/72
f 69/69/69 70/70/70 71/71/71
f 65/65/65 67/67/67 68/68/68
f 65/65/65 66/66/66 67/67/67
f 61/61/61 63/63/63 64/64/64
f 61/61/61 62/62/62 63/63/63
f 57/57/57 59/59/59 60/60/60
f 57/57/57 58/58/58 59/59/59
f 53/53/53 55/55/55 56/56/56
f 53/53/53 54/54/54 55/55/55
f 49/49/49 51/51/51 52/52/52
f 49/49/49 50/50/50 51/51/51
f 87/87/87 91/91/91 92/92/92
f 87/87/87 86/86/86 91/91/91
f 85/85/85 86/86/86 87/87/87
f 85/85/85 87/87/87 88/88/88
f 75/75/75 89/89/89 90/90/90
f 75/75/75 74/74/74 89/89/89
f 73/73/73 74/74/74 75/75/75
f 73/73/73 75/75/75 76/76/76
f 81/81/81 83/83/83 84/84/84
f 81/81/81 82/82/82 83/83/83
f 77/77/77 79/79/79 80/80/80
f 77/77/77 78/78/78 79/79/79
f 105/105/105 107/107/107 108/108/108
f 105/105/105 106/106/106 107/107/107
f 101/101/101 103/103/103 104/104/104
f 101/101/101 102/102/102 103/103/103
f 97/97/97 99/99/99 100/100/100
f 97/97/97 98/98/98 99/99/99
f 93/93/93 95/95/95 96/96/96
f 93/93/93 94/94/94 95/95/95
f 129/129/129 131/131/131 132/132/132
f 129/129/129 130/130/130 131/131/131
f 125/125/125 127/127/127 128/128/128
f 125/125/125 126/126/126 127/127/127
f 121/121/121 123/123/123 124/124/124
f 121/121/121 122/122/122 123/123/123
f 117/117/117 119/119/119 120/120/120
f 117/117/117 118/118/118 119/119/119
f 113/113/113 115/115/115 116/116/116
f 113/113/113 114/114/114 115/115/115
f 109/109/109 111/111/111 112/112/112
f 109/109/109 110/110/110 111/111/111
f 137/137/137 139/139/139 140/140/140
f 137/137/137 138/138/138 139/139/139
f 133/133/133 135/135/135 136/136/136
f 133/133/133 134/134/134 135/135/135

#
# MESH 001
#
g surface_001
usemtl surface_001
f 145/145/145 147/147/147 148/148/148
f 145/145/145 146/146/146 147/147/147
f 141/141/141 143/143/143 144/144/144
f 141/141/141 142/142/142 143/143/143

