#
# OBJECT NAME
#
o model_3229
mtllib 3229.mtl

#
# VERTEX BUFFER 000
#
v -0.5 0 0.5
v 0.5 0 0.5
v 0.408381 0.140869 0.408381
v -0.408381 0.140869 0.408381
v -0.408381 0.140869 0.408381
v 0.408381 0.140869 0.408381
v 0.408381 0.140869 -0.408381
v -0.408381 0.140869 -0.408381
v -0.408381 0.140869 -0.408381
v 0.408381 0.140869 -0.408381
v 0.5 0 -0.5
v -0.5 0 -0.5
v -0.5 0 -0.5
v 0.5 0 -0.5
v 0.5 0 0.5
v -0.5 0 0.5
v 0.5 0 0.5
v 0.5 0 -0.5
v 0.408381 0.140869 -0.408381
v 0.408381 0.140869 0.408381
v -0.5 0 -0.5
v -0.5 0 0.5
v -0.408381 0.140869 0.408381
v -0.408381 0.140869 -0.408381

vn 0 0.544922 0.837891
vn 0 0.544922 0.837891
vn 0 0.544922 0.837891
vn 0 0.544922 0.837891
vn 0 1 0
vn 0 1 0
vn 0 1 0
vn 0 1 0
vn 0 0.544922 -0.837891
vn 0 0.544922 -0.837891
vn 0 0.544922 -0.837891
vn 0 0.544922 -0.837891
vn 0 -1 0
vn 0 -1 0
vn 0 -1 0
vn 0 -1 0
vn 0.837891 0.544922 0
vn 0.837891 0.544922 0
vn 0.837891 0.544922 0
vn 0.837891 0.544922 0
vn -0.837891 0.544922 0
vn -0.837891 0.544922 0
vn -0.837891 0.544922 0
vn -0.837891 0.544922 0

vt 0.0484136 0.0240893
vt 0.953863 0.0240893
vt 0.876372 0.101883
vt 0.12249 0.101883
vt 0.143835 0.143966
vt 0.85275 0.143966
vt 0.85275 0.853123
vt 0.143835 0.853123
vt 0.128377 0.897549
vt 0.871623 0.897549
vt 0.954995 0.975719
vt 0.0450047 0.975719
vt 0.635418 0.364576
vt 0.837843 0.364576
vt 0.837843 0.162081
vt 0.635418 0.162081
vt 0.975911 0.0450686
vt 0.975911 0.952655
vt 0.896978 0.867626
vt 0.896978 0.130098
vt 0.022951 0.954931
vt 0.022951 0.0450686
vt 0.100745 0.130098
vt 0.100745 0.869902


#
# MESH 000
#
g surface_000
usemtl surface_000
f 21/21/21 23/23/23 24/24/24
f 21/21/21 22/22/22 23/23/23
f 17/17/17 19/19/19 20/20/20
f 17/17/17 18/18/18 19/19/19
f 13/13/13 15/15/15 16/16/16
f 13/13/13 14/14/14 15/15/15
f 9/9/9 11/11/11 12/12/12
f 9/9/9 10/10/10 11/11/11
f 5/5/5 7/7/7 8/8/8
f 5/5/5 6/6/6 7/7/7
f 1/1/1 3/3/3 4/4/4
f 1/1/1 2/2/2 3/3/3

