#
# OBJECT NAME
#
o model_1832
mtllib 1832.mtl

#
# VERTEX BUFFER 000
#
v 0.170225 0.273736 -0.0293264
v 0.0561936 0.285434 -0.0198815
v 0.0447122 0.304146 0.0262661
v 0.147262 0.31116 0.0629687
v 0.0192819 0.286237 0.0667719
v 0.0964018 0.275343 0.14398
v 0.212616 0.250029 0.143662
v 0.238046 0.267937 0.103156
v 0.249527 0.249225 0.0570088
v -0.0705469 0.159744 -0.130929
v -0.0406963 0.138378 -0.0567218
v -0.0031931 0.156505 -0.0498493
v 0.00445949 0.195999 -0.117184
v 0.03621 0.142076 -0.0454683
v 0.0832657 0.167141 -0.108422
v 0.0515889 0.183324 -0.198776
v 0.0121858 0.197753 -0.203157
v -0.0253174 0.179626 -0.21003
v 0.0242449 0.158671 0.152455
v 0.00905122 0.133959 0.0761879
v -0.0291287 0.147125 0.0638879
v -0.0521149 0.185003 0.127855
v -0.0649453 0.127697 0.0529455
v -0.123748 0.146148 0.105971
v -0.112352 0.161941 0.196991
v -0.0765349 0.181368 0.207934
v -0.038355 0.168202 0.220234
v -0.00356111 0 0.0222318
v 0.0186707 0 0
v 0.00894403 0.133732 0.00620169
v -0.0129823 0.133665 0.0281126
v -0.025793 0 0
v -0.0348933 0.133674 0.00618611
v -0.012967 0.133741 -0.0157248
v -0.00356111 0 -0.0222318
v -0.00356111 0 0.0222318
v -0.0129823 0.133665 0.0281126
v -0.0348933 0.133674 0.00618611
v 0.0186707 0 0
v -0.00356111 0 0.0222318
v -0.00356111 0 -0.0222318
v -0.025793 0 0
v -0.0129823 0.133665 0.0281126
v 0.00894403 0.133732 0.00620169
v 0.0277306 0.279483 0.0124463
v 0.00721598 0.271574 0.0304064
v -0.0348933 0.133674 0.00618611
v -0.0129823 0.133665 0.0281126
v 0.00721598 0.271574 0.0304064
v -0.0144131 0.265556 0.0122945
v -0.012967 0.133741 -0.0157248
v -0.0348933 0.133674 0.00618611
v 0.00812285 0.273813 0.00153741
v 0.00721598 0.271574 0.0304064
v 0.0277306 0.279483 0.0124463
v 0.00812285 0.273813 0.00153741
v -0.0144131 0.265556 0.0122945
v 0.317669 0.197046 0.138796
v -0.0144131 0.265556 0.0122945
v 0.0328018 0.181531 -0.2875
v -0.0069674 0.0946583 -0.00175523
v -0.0088315 0.0916314 0.0132574
v -0.0990633 0.161887 0.28626

vn 0.227295 0.92041 -0.31665
vn 0.0124512 0.927246 -0.373047
vn -0.120361 0.991211 -0.0530396
vn 0.126831 0.990723 0.0428467
vn -0.223145 0.935547 0.273438
vn -0.0657959 0.926758 0.368408
vn 0.223633 0.831543 0.507813
vn 0.424072 0.888672 0.173706
vn 0.532227 0.822266 -0.200928
vn -0.456543 0.862793 0.214966
vn -0.452393 0.758301 0.468994
vn -0.120361 0.822754 0.555176
vn -0.0864258 0.962891 0.254639
vn 0.226929 0.791992 0.566406
vn 0.292725 0.898438 0.326416
vn 0.341309 0.939453 0.0248871
vn -0.0581055 0.997559 -0.0362244
vn -0.425049 0.902832 -0.0610962
vn 0.361328 0.922363 -0.134766
vn 0.410889 0.819824 -0.397705
vn 0.095459 0.84082 -0.531738
vn -0.0113297 0.973633 -0.227173
vn -0.233154 0.766602 -0.597656
vn -0.357666 0.861816 -0.359131
vn -0.458984 0.885254 -0.0697021
vn -0.102478 0.992676 0.0609131
vn 0.276123 0.947754 0.157471
vn 0.0307922 -0.041748 0.998535
vn 0.99707 0.0734863 -0.0211334
vn 0.99707 0.0715942 0.0194702
vn -0.0316162 -0.0461426 0.998047
vn -0.99707 -0.0668945 -0.0207214
vn -0.706543 -0.0153503 -0.707031
vn -0.030014 0.0464478 -0.998047
vn 0.0325928 0.0508423 -0.998047
vn 0.0307922 -0.041748 0.998535
vn -0.0316162 -0.0461426 0.998047
vn -0.70459 -0.0806274 0.70459
vn 0 -1 0
vn 0 -1 0
vn 0 -1 0
vn 0 -1 0
vn -0.0354309 -0.019165 0.999023
vn 0.993652 -0.107239 -0.0154343
vn 0.998535 0.0226593 0.0394592
vn -0.0426331 0.0003829 0.999023
vn -0.680664 0.079895 0.728027
vn -0.0354309 -0.019165 0.999023
vn -0.0426331 0.0003829 0.999023
vn -0.999023 -0.0209045 0.0270538
vn -0.0482178 0.0959473 -0.994141
vn -0.603516 0.159302 -0.780762
vn -0.0299377 -0.00299072 -0.999512
vn -0.313232 0.947266 0.0635986
vn -0.313232 0.947266 0.0635986
vn -0.313232 0.947266 0.0635986
vn -0.313232 0.947266 0.0635986
vn 0.369629 0.916504 0.150513
vn -0.220581 0.969727 -0.102661
vn -0.0325317 0.995117 -0.0899658
vn -0.130493 0.750977 0.646484
vn 0.120911 0.791016 -0.599121
vn -0.116943 0.986816 0.109314

vt 0.010916 0.261379
vt 0.170243 0.129609
vt 0.32957 0.141122
vt 0.32957 0.284405
vt 0.486636 0.129609
vt 0.643701 0.261379
vt 0.486636 0.461953
vt 0.32957 0.473465
vt 0.170243 0.461953
vt 0.316185 0.688216
vt 0.435381 0.584301
vt 0.554576 0.591508
vt 0.554576 0.70263
vt 0.674669 0.584301
vt 0.794763 0.688216
vt 0.674669 0.841485
vt 0.554576 0.848692
vt 0.435381 0.841485
vt 0.316185 0.688216
vt 0.435381 0.584301
vt 0.554576 0.591508
vt 0.554576 0.70263
vt 0.674669 0.584301
vt 0.794763 0.688216
vt 0.674669 0.841485
vt 0.554576 0.848692
vt 0.435381 0.841485
vt 0.0100645 0.455862
vt 0.0427154 0.455862
vt 0.0427154 0.605332
vt 0.0100645 0.605332
vt 0.106543 0.455862
vt 0.106543 0.605332
vt 0.0745174 0.605332
vt 0.0745174 0.455862
vt 0.142935 0.455862
vt 0.142935 0.605332
vt 0.106543 0.605332
vt 0.10166 0.505884
vt 0.0813471 0.485571
vt 0.0813471 0.526197
vt 0.0610341 0.505884
vt 0.0100645 0.605332
vt 0.0427154 0.605332
vt 0.0427154 0.754802
vt 0.0100645 0.754802
vt 0.106543 0.605332
vt 0.142935 0.605332
vt 0.142935 0.754802
vt 0.106543 0.754802
vt 0.0745174 0.605332
vt 0.106543 0.605332
vt 0.0745174 0.754802
vt 0.0590366 0.570381
vt 0.0814977 0.547887
vt 0.103991 0.570349
vt 0.0815301 0.592842
vt 0.32957 0.662526
vt 0.32957 -0.00216079
vt 0.554576 0.994755
vt 0.554576 0.480386
vt 0.554576 0.480386
vt 0.554576 0.994755


#
# MESH 000
#
g surface_000
usemtl surface_000
f 54/54/54 56/56/56 57/57/57
f 54/54/54 55/55/55 56/56/56
f 51/51/51 52/52/52 50/50/50
f 51/51/51 50/50/50 53/53/53
f 45/45/45 51/51/51 53/53/53
f 45/45/45 44/44/44 51/51/51
f 43/43/43 44/44/44 45/45/45
f 43/43/43 45/45/45 46/46/46
f 47/47/47 49/49/49 50/50/50
f 47/47/47 48/48/48 49/49/49
f 41/41/41 40/40/40 42/42/42
f 39/39/39 40/40/40 41/41/41
f 32/32/32 37/37/37 38/38/38
f 32/32/32 36/36/36 37/37/37
f 32/32/32 33/33/33 34/34/34
f 32/32/32 34/34/34 35/35/35
f 34/34/34 29/29/29 35/35/35
f 34/34/34 30/30/30 29/29/29
f 28/28/28 29/29/29 30/30/30
f 28/28/28 30/30/30 31/31/31
f 63/63/63 27/27/27 26/26/26
f 26/26/26 27/27/27 19/19/19
f 26/26/26 19/19/19 22/22/22
f 24/24/24 26/26/26 22/22/22
f 24/24/24 25/25/25 26/26/26
f 26/26/26 25/25/25 63/63/63
f 19/19/19 21/21/21 22/22/22
f 21/21/21 24/24/24 22/22/22
f 21/21/21 23/23/23 24/24/24
f 62/62/62 23/23/23 21/21/21
f 21/21/21 20/20/20 62/62/62
f 19/19/19 20/20/20 21/21/21
f 61/61/61 14/14/14 12/12/12
f 12/12/12 14/14/14 15/15/15
f 12/12/12 15/15/15 13/13/13
f 10/10/10 12/12/12 13/13/13
f 10/10/10 11/11/11 12/12/12
f 12/12/12 11/11/11 61/61/61
f 15/15/15 17/17/17 13/13/13
f 17/17/17 10/10/10 13/13/13
f 17/17/17 18/18/18 10/10/10
f 60/60/60 18/18/18 17/17/17
f 17/17/17 16/16/16 60/60/60
f 15/15/15 16/16/16 17/17/17
f 59/59/59 5/5/5 3/3/3
f 3/3/3 5/5/5 6/6/6
f 3/3/3 6/6/6 4/4/4
f 1/1/1 3/3/3 4/4/4
f 1/1/1 2/2/2 3/3/3
f 3/3/3 2/2/2 59/59/59
f 6/6/6 8/8/8 4/4/4
f 8/8/8 1/1/1 4/4/4
f 8/8/8 9/9/9 1/1/1
f 58/58/58 9/9/9 8/8/8
f 8/8/8 7/7/7 58/58/58
f 6/6/6 7/7/7 8/8/8

