#
# OBJECT NAME
#
o model_1840
mtllib 1840.mtl

#
# VERTEX BUFFER 000
#
v -0.0248419 0.948624 -0.13709
v 0.0729128 0.8586 -0.272613
v -0.0446551 0.753936 -0.154974
v -0.198889 0.873195 -0.130381
v -0.2087 0.736553 -0.261757
v -0.0407188 0.727533 -0.349661
v 0.179897 0.863345 -0.275834
v -0.000461489 0.646444 -0.406954
v -0.278373 0.655367 -0.267492
v -0.26978 0.877785 -0.0501817
v 0.0134486 1.00632 -0.055338
v 0.13469 0.844756 0.0480535
v 0.171829 0.741503 0.187263
v 0.127643 0.662033 0.027256
v 0.209372 0.772228 -0.0954115
v 0.292667 0.624149 -0.0448671
v 0.269465 0.60516 0.129834
v 0.106018 0.740013 0.267477
v 0.265219 0.51526 0.181482
v 0.307266 0.539407 -0.102947
v 0.174056 0.779085 -0.192743
v 0.0496774 0.903065 0.0361939
v 0.206767 0.716755 0.000694248
v 0.154059 0.676286 0.00966751
v 0.134434 0.69774 0.0353051
v 0.171945 0.74878 0.0445088
v 0.171945 0.74878 0.0445088
v 0.134434 0.69774 0.0353051
v 0.148645 0.671351 0.0598918
v 0.195905 0.704294 0.0859549
v 0.195905 0.704294 0.0859549
v 0.148645 0.671351 0.0598918
v 0.16827 0.649897 0.0342528
v 0.22899 0.668127 0.0427305
v 0.22899 0.668127 0.0427305
v 0.16827 0.649897 0.0342528
v 0.154059 0.676286 0.00966751
v 0.206767 0.716755 0.000694248
v 0.247502 0.741446 0.0517877
v -0.018575 0.725264 -0.105312
v -0.0251981 0.703662 -0.131392
v -0.0144557 0.807022 -0.161057
v -0.0344665 0.748207 -0.217246
v -0.103116 0.743815 -0.195967
v -0.0554521 0.700032 -0.120467
v -0.0921915 0.795082 -0.146344
v -0.0511947 0.720015 -0.0953592
v -0.0144557 0.807022 -0.161057
v -0.018575 0.725264 -0.105312
v -0.0554521 0.700032 -0.120467
v -0.103116 0.743815 -0.195967
v -0.0314618 0.456225 -0.0141821
v -0.0143613 0.458715 -0.0206113
v -0.00953664 0.466742 -0.00369262
v -0.0280434 0.463578 0.00206362
v -0.00953664 0.466742 -0.00369262
v -0.0314618 0.456225 -0.0141821
v -0.25341 0.524691 -0.140154
v -0.0225521 0.383534 0.0169164
v 0.0382366 0.515197 -0.252261
v -0.220591 0.504726 -0.45533
v 0.261401 0.479762 0.0322448
v -0.0311009 0.397684 -0.0138948
v 0.0256429 0.507743 0.269017
v 0.360587 0.489982 0.350912
v -0.0821027 0.427214 0.227542
v -0.014246 0.412777 -0.00775695
v -0.266574 0.431291 0.0414393
v -0.34626 0.323695 0.254176
v 0.0143272 0.410693 -0.26107
v -0.0357746 0.366194 0.0141639
v 0.218331 0.388362 -0.0776479
v 0.238807 0.288493 -0.32802
v 0.20178 0.33033 -0.0265388
v -0.0380842 0.28218 0.00180793
v 0.108471 0.332243 0.192514
v 0.40225 0.232353 0.19171
v -0.253942 0.349822 0.0126438
v -0.0205724 0.271726 0.00884924
v -0.137843 0.33951 -0.194952
v -0.378025 0.305625 -0.219751
v -0.0877728 0.222033 -0.171289
v -0.00741085 0.112797 -0.00801803
v 0.10664 0.231003 -0.142841
v 0.0428558 0.217681 -0.369188
v 0.0320402 0.222398 0.186898
v -0.00976701 0.10919 0.0109573
v -0.155017 0.207211 0.128143
v -0.123816 0.193859 0.356022
v 0.0249947 0 -0.00579949
v 0.000406392 0.32114 0.00987788
v -0.00310545 0 0.0223007
v -0.0269216 0.320981 0.0371666
v 0.0146158 0.457473 -0.00487153
v -0.0105 0.496287 -0.00818628
v -0.0145358 0.463682 0.0216306
v -0.0145358 0.463682 0.0216306
v -0.0105 0.496287 -0.00818628
v -0.0416542 0.461896 -0.00769055
v -0.0542106 0.321001 0.00983849
v -0.0268827 0.321161 -0.0174503
v -0.0312056 0 -0.00579949
v -0.00310545 0 -0.0338996
v -0.00310545 0 0.0223007
v -0.0269216 0.320981 0.0371666
v -0.0125025 0.455687 -0.0341927
v 0.0249947 0 -0.00579949
v -0.00310545 0 0.0223007
v -0.00310545 0 -0.0338996
v -0.0312056 0 -0.00579949
v 0.0830476 0.642624 0.039856
v 0.100139 0.619814 0.0445955
v 0.132358 0.703726 0.0655236
v 0.162388 0.65697 0.0766422
v 0.180588 0.64545 0.00930746
v 0.103981 0.617329 0.0178786
v 0.140469 0.704272 0.000479028
v 0.0882322 0.638517 0.0117292
v 0.132358 0.703726 0.0655236
v 0.0830476 0.642624 0.039856
v 0.103981 0.617329 0.0178786
v 0.180588 0.64545 0.00930746
v -0.00403998 0.429172 -0.00316138
v -0.00368788 0.431337 0.0121326
v -0.0183944 0.438145 0.0112667
v -0.0178256 0.435496 -0.00495264
v -0.0183944 0.438145 0.0112667
v -0.00403998 0.429172 -0.00316138
v -0.107069 0.878391 0.0669963
v -0.259938 0.778987 0.0525768
v -0.0958388 0.690096 0.0858174
v -0.00733072 0.80917 0.203813
v -0.0985587 0.666985 0.273949
v -0.254678 0.648331 0.180481
v -0.312555 0.775886 -0.0392433
v -0.31079 0.559471 0.167667
v -0.0572252 0.583952 0.325
v 0.0977233 0.815501 0.215331
v -0.060081 0.934121 -0.00978502
v -0.104097 0.749109 0.191279
v -0.0890319 0.693396 0.127593
v -0.0840286 0.725868 0.0903956
v -0.103257 0.789726 0.131383
v -0.103257 0.789726 0.131383
v -0.0840286 0.725868 0.0903956
v -0.133664 0.714824 0.0752444
v -0.173418 0.772618 0.106892
v -0.173418 0.772618 0.106892
v -0.133664 0.714824 0.0752444
v -0.132439 0.682352 0.110089
v -0.178257 0.72231 0.160871
v -0.178257 0.72231 0.160871
v -0.132439 0.682352 0.110089
v -0.0890319 0.693396 0.127593
v -0.104097 0.749109 0.191279
v -0.165791 0.797364 0.187564
v -0.0929285 0.669744 0.0361073
v -0.105437 0.6489 0.0517256
v -0.12608 0.734066 0.0657106
v -0.15856 0.687587 0.0945014
v -0.103409 0.675288 0.136485
v -0.0827125 0.646378 0.0662847
v -0.0717615 0.732467 0.108749
v -0.0695487 0.665723 0.0526023
v -0.12608 0.734066 0.0657106
v -0.0929285 0.669744 0.0361073
v -0.0827125 0.646378 0.0662847
v -0.103409 0.675288 0.136485
v -0.0268594 0.445049 0.00742199
v -0.0395988 0.447533 -0.000959439
v -0.0302344 0.45214 -0.0133879
v -0.0172701 0.44929 -0.00368141
v -0.0302344 0.45214 -0.0133879
v -0.0268594 0.445049 0.00742199
v -0.127685 0.810942 -0.21366
v -0.0797925 0.761369 -0.170435
v -0.051933 0.790423 -0.147775
v -0.0846652 0.855803 -0.18079
v -0.0846652 0.855803 -0.18079
v -0.051933 0.790423 -0.147775
v -0.0170241 0.782982 -0.178242
v -0.0307679 0.844316 -0.225716
v -0.0307679 0.844316 -0.225716
v -0.0170241 0.782982 -0.178242
v -0.0448874 0.753929 -0.198297
v -0.0737877 0.799455 -0.255827
v -0.0737877 0.799455 -0.255827
v -0.0448874 0.753929 -0.198297
v -0.0797925 0.761369 -0.170435
v -0.127685 0.810942 -0.21366
v -0.097619 0.867996 -0.255723

vn -0.294922 0.710449 -0.638672
vn -0.26123 0.677734 -0.687012
vn -0.315918 0.668945 -0.672363
vn -0.356689 0.684082 -0.635254
vn -0.361328 0.635742 -0.681641
vn -0.302246 0.631836 -0.713379
vn -0.0521545 0.702148 -0.709473
vn -0.229004 0.48291 -0.844727
vn -0.510254 0.487549 -0.708008
vn -0.506836 0.709961 -0.488281
vn -0.223999 0.842773 -0.489258
vn 0.725586 0.666504 0.170166
vn 0.769531 0.544434 0.332031
vn 0.833496 0.525879 0.167847
vn 0.812012 0.583008 0.00146484
vn 0.910156 0.409424 0.059021
vn 0.883789 0.385742 0.263428
vn 0.634277 0.560547 0.531738
vn 0.898926 0.184937 0.396973
vn 0.972656 0.217896 -0.0744629
vn 0.754395 0.61377 -0.231201
vn 0.54541 0.825195 0.143555
vn 0.154541 0.147827 -0.976563
vn -0.111633 -0.0734863 -0.990723
vn -0.806152 0.590332 -0.0341492
vn -0.549805 0.834473 0.0274506
vn -0.549805 0.834473 0.0274506
vn -0.806152 0.590332 -0.0341492
vn -0.32666 -0.251709 0.910645
vn -0.0610352 -0.0643921 0.995605
vn -0.0610352 -0.0643921 0.995605
vn -0.32666 -0.251709 0.910645
vn 0.304443 -0.947266 -0.0981445
vn 0.614258 -0.787598 -0.0400696
vn 0.614258 -0.787598 -0.0400696
vn 0.304443 -0.947266 -0.0981445
vn -0.111633 -0.0734863 -0.990723
vn 0.154541 0.147827 -0.976563
vn 0.816895 0.552246 0.164917
vn 0.810547 0.260742 0.523926
vn 0.725586 -0.384033 -0.570313
vn 0.818359 0.321533 0.475586
vn 0.640625 -0.648438 -0.410645
vn -0.634766 -0.770996 -0.0464783
vn -0.831543 -0.46582 -0.302246
vn -0.476318 0.286865 0.830566
vn -0.373779 0.321289 0.869629
vn 0.818359 0.321533 0.475586
vn 0.810547 0.260742 0.523926
vn -0.831543 -0.46582 -0.302246
vn -0.634766 -0.770996 -0.0464783
vn -0.875488 -0.262695 -0.405029
vn 0.445068 -0.352539 -0.822754
vn 0.818848 0.231812 0.524902
vn -0.590332 0.241699 0.77002
vn 0.818848 0.231812 0.524902
vn -0.875488 -0.262695 -0.405029
vn 0.106079 0.975098 0.193359
vn 0.20752 0.859375 0.467041
vn 0.111206 0.97168 0.207031
vn 0.00852203 0.997559 -0.0623169
vn -0.0582581 0.98291 -0.174072
vn -0.209351 0.924316 -0.317627
vn -0.061615 0.981934 -0.177368
vn 0.0656128 0.996094 -0.0523682
vn -0.126709 0.980957 0.147095
vn 0.0648193 0.996582 -0.04245
vn -0.155151 0.972168 0.175049
vn -0.314941 0.88916 0.331543
vn 0.182373 0.979492 -0.0836182
vn -0.0304565 0.987305 0.154053
vn 0.17041 0.982422 -0.0699463
vn 0.37915 0.869629 -0.315674
vn 0.111023 0.992676 0.0386047
vn -0.206787 0.973145 -0.0965576
vn 0.112061 0.992676 0.0390625
vn 0.31958 0.938477 0.12793
vn 0.0992432 0.994629 0.0060997
vn 0.316406 0.939453 0.130249
vn 0.0820923 0.996582 -0.00358963
vn -0.126465 0.984375 -0.11969
vn -0.0824585 0.961914 0.260254
vn -0.123474 0.79541 0.592773
vn -0.0821533 0.962402 0.257813
vn -0.0390625 0.998047 -0.0477295
vn -0.00604248 0.972168 -0.232056
vn 0.107666 0.824219 -0.555664
vn -0.00548172 0.972168 -0.233765
vn -0.10321 0.991699 0.0722046
vn 0.999512 -0.0129318 -0.0226898
vn 0.998535 0.0236664 0.0387573
vn 0.0315247 -0.128662 0.990723
vn -0.0376892 0.00184155 0.999023
vn 0.998535 0.028183 0.0363464
vn 0.0836792 0.990234 -0.109253
vn -0.0456543 0.221436 0.973633
vn -0.0456543 0.221436 0.973633
vn 0.0836792 0.990234 -0.109253
vn -0.978027 0.203735 -0.0404358
vn -0.999023 -0.0214233 0.0318909
vn -0.0415955 -0.00488663 -0.999023
vn -0.987793 -0.153687 -0.0213013
vn 0.0328979 -0.0358887 -0.998535
vn 0.0315247 -0.128662 0.990723
vn -0.0376892 0.00184155 0.999023
vn 0.0567017 0.00769806 -0.998047
vn 0.999512 -0.0129318 -0.0226898
vn 0.0315247 -0.128662 0.990723
vn 0.0328979 -0.0358887 -0.998535
vn -0.987793 -0.153687 -0.0213013
vn -0.820801 0.384033 0.422363
vn 0.171753 -0.394775 0.902344
vn -0.796387 0.396484 0.455811
vn -0.0509033 -0.631348 0.773438
vn 0.222656 -0.783203 -0.580078
vn 0.583496 -0.541016 -0.60498
vn -0.619141 0.344971 -0.705078
vn -0.608887 0.384521 -0.693359
vn -0.796387 0.396484 0.455811
vn -0.820801 0.384033 0.422363
vn 0.583496 -0.541016 -0.60498
vn 0.222656 -0.783203 -0.580078
vn 0.630371 -0.28125 -0.723145
vn 0.558594 -0.439941 0.702637
vn -0.783691 0.311035 0.537109
vn -0.500488 0.34082 -0.79541
vn -0.783691 0.311035 0.537109
vn 0.630371 -0.28125 -0.723145
vn -0.424316 0.707031 0.564941
vn -0.549316 0.624512 0.554199
vn -0.45874 0.611816 0.644043
vn -0.341309 0.650879 0.677246
vn -0.415283 0.53418 0.73584
vn -0.543945 0.517578 0.660156
vn -0.678711 0.635742 0.366943
vn -0.682617 0.336914 0.647949
vn -0.337158 0.36499 0.867676
vn -0.119751 0.681152 0.722168
vn -0.330811 0.848145 0.412598
vn 0.581055 -0.233398 0.779297
vn 0.63623 -0.494141 0.591797
vn 0.762695 0.470947 -0.442627
vn 0.657227 0.694336 -0.291504
vn 0.657227 0.694336 -0.291504
vn 0.762695 0.470947 -0.442627
vn -0.471924 0.134766 -0.871094
vn -0.604004 0.371338 -0.70459
vn -0.604004 0.371338 -0.70459
vn -0.471924 0.134766 -0.871094
vn -0.530273 -0.817383 0.2229
vn -0.679688 -0.636719 0.363281
vn -0.679688 -0.636719 0.363281
vn -0.530273 -0.817383 0.2229
vn 0.63623 -0.494141 0.591797
vn 0.581055 -0.233398 0.779297
vn -0.437256 0.658203 0.612305
vn -0.0344849 0.270264 -0.961914
vn -0.901855 -0.357666 -0.242065
vn 0.000813007 0.390869 -0.92041
vn -0.70752 -0.595215 -0.380127
vn 0.383301 -0.808594 0.446045
vn 0.270508 -0.487305 0.830078
vn 0.945313 0.224609 -0.234863
vn 0.893555 0.307373 -0.326416
vn 0.000813007 0.390869 -0.92041
vn -0.0344849 0.270264 -0.961914
vn 0.270508 -0.487305 0.830078
vn 0.383301 -0.808594 0.446045
vn 0.229492 -0.213867 0.949219
vn -0.934082 -0.334229 0.12207
vn -0.00595474 0.211914 -0.977051
vn 0.969238 0.244141 -0.0246429
vn -0.00595474 0.211914 -0.977051
vn 0.229492 -0.213867 0.949219
vn -0.943359 -0.310547 0.114319
vn -0.805176 -0.522949 0.279297
vn -0.00906372 0.437744 0.898926
vn -0.150757 0.631348 0.760254
vn -0.150757 0.631348 0.760254
vn -0.00906372 0.437744 0.898926
vn 0.975586 0.217896 -0.0112457
vn 0.896484 0.411621 -0.161255
vn 0.896484 0.411621 -0.161255
vn 0.975586 0.217896 -0.0112457
vn 0.195679 -0.720703 -0.664551
vn 0.0681152 -0.569336 -0.818848
vn 0.0681152 -0.569336 -0.818848
vn 0.195679 -0.720703 -0.664551
vn -0.805176 -0.522949 0.279297
vn -0.943359 -0.310547 0.114319
vn -0.324219 0.730469 -0.600586

vt 0.751819 0.430249
vt 0.593523 0.301907
vt 0.751819 0.237862
vt 0.905877 0.302458
vt 0.846509 0.0951369
vt 0.653464 0.0947965
vt 0.498545 0.340334
vt 0.594451 0.00895715
vt 0.903324 0.0095017
vt 0.998312 0.341215
vt 0.751819 0.545681
vt 0.751819 0.430249
vt 0.593523 0.301907
vt 0.751819 0.237862
vt 0.905877 0.302458
vt 0.846509 0.0951369
vt 0.653464 0.0947965
vt 0.498545 0.340334
vt 0.594451 0.00895715
vt 0.903324 0.0095017
vt 0.998312 0.341215
vt 0.751819 0.545681
vt 0.527092 0.784653
vt 0.527092 0.724102
vt 0.594772 0.724104
vt 0.594772 0.784642
vt 0.527092 0.784653
vt 0.527092 0.724102
vt 0.594772 0.724104
vt 0.594772 0.784642
vt 0.527092 0.784653
vt 0.527092 0.724102
vt 0.594772 0.724104
vt 0.594772 0.784642
vt 0.527092 0.784653
vt 0.527092 0.724102
vt 0.594772 0.724104
vt 0.594772 0.784642
vt 0.560561 0.857906
vt 0.386495 0.303542
vt 0.423672 0.303542
vt 0.349136 0.395098
vt 0.423672 0.395098
vt 0.349136 0.395098
vt 0.386495 0.303542
vt 0.423672 0.395098
vt 0.423672 0.303542
vt 0.497666 0.395098
vt 0.460751 0.303542
vt 0.460751 0.303542
vt 0.497666 0.395098
vt 0.448659 0.0659595
vt 0.423672 0.0659595
vt 0.398376 0.0659595
vt 0.423672 0.0659595
vt 0.448659 0.0659595
vt 0.398376 0.0659595
vt 0.000542358 0.261379
vt 0.161977 -0.00216079
vt 0.32112 0.261379
vt 0.161977 0.662526
vt 0.000542358 0.261379
vt 0.161977 -0.00216079
vt 0.32112 0.261379
vt 0.161977 0.662526
vt 0.000542358 0.261379
vt 0.161977 -0.00216079
vt 0.32112 0.261379
vt 0.161977 0.662526
vt 0.000542358 0.261379
vt 0.161977 -0.00216079
vt 0.32112 0.261379
vt 0.161977 0.662526
vt 0.000542358 0.261379
vt 0.161977 -0.00216079
vt 0.32112 0.261379
vt 0.161977 0.662526
vt 0.000542358 0.261379
vt 0.161977 -0.00216079
vt 0.32112 0.261379
vt 0.161977 0.662526
vt 0.155196 0.688216
vt 0.275968 0.480386
vt 0.397649 0.688216
vt 0.275968 0.994755
vt 0.155196 0.688216
vt 0.275968 0.480386
vt 0.397649 0.688216
vt 0.275968 0.994755
vt 0.020039 0.455862
vt 0.020039 0.754802
vt 0.0034976 0.455862
vt 0.0034976 0.754802
vt 0.020039 0.886132
vt 0.020039 0.991829
vt 0.0034976 0.886132
vt 0.0708117 0.886132
vt 0.0525098 0.991829
vt 0.0523748 0.886132
vt 0.0523748 0.754802
vt 0.0361502 0.754802
vt 0.0523748 0.455862
vt 0.0361502 0.455862
vt 0.0708117 0.455862
vt 0.0708117 0.754802
vt 0.0361502 0.886132
vt 0.0499011 0.505884
vt 0.0396103 0.485571
vt 0.0396103 0.526197
vt 0.0293194 0.505884
vt 0.386495 0.303542
vt 0.423672 0.303542
vt 0.349136 0.395098
vt 0.423672 0.395098
vt 0.349136 0.395098
vt 0.386495 0.303542
vt 0.423672 0.395098
vt 0.423672 0.303542
vt 0.497666 0.395098
vt 0.460751 0.303542
vt 0.460751 0.303542
vt 0.497666 0.395098
vt 0.448659 0.0659595
vt 0.423672 0.0659595
vt 0.398376 0.0659595
vt 0.423672 0.0659595
vt 0.448659 0.0659595
vt 0.398376 0.0659595
vt 0.751819 0.430249
vt 0.593523 0.301907
vt 0.751819 0.237862
vt 0.905877 0.302458
vt 0.846509 0.0951369
vt 0.653464 0.0947965
vt 0.498545 0.340334
vt 0.594451 0.00895715
vt 0.903324 0.0095017
vt 0.998312 0.341215
vt 0.751819 0.545681
vt 0.527092 0.784653
vt 0.527092 0.724102
vt 0.594772 0.724104
vt 0.594772 0.784642
vt 0.527092 0.784653
vt 0.527092 0.724102
vt 0.594772 0.724104
vt 0.594772 0.784642
vt 0.527092 0.784653
vt 0.527092 0.724102
vt 0.594772 0.724104
vt 0.594772 0.784642
vt 0.527092 0.784653
vt 0.527092 0.724102
vt 0.594772 0.724104
vt 0.594772 0.784642
vt 0.560561 0.857906
vt 0.386495 0.303542
vt 0.423672 0.303542
vt 0.349136 0.395098
vt 0.423672 0.395098
vt 0.349136 0.395098
vt 0.386495 0.303542
vt 0.423672 0.395098
vt 0.423672 0.303542
vt 0.497666 0.395098
vt 0.460751 0.303542
vt 0.460751 0.303542
vt 0.497666 0.395098
vt 0.448659 0.0659595
vt 0.423672 0.0659595
vt 0.398376 0.0659595
vt 0.423672 0.0659595
vt 0.448659 0.0659595
vt 0.398376 0.0659595
vt 0.527092 0.784653
vt 0.527092 0.724102
vt 0.594772 0.724104
vt 0.594772 0.784642
vt 0.527092 0.784653
vt 0.527092 0.724102
vt 0.594772 0.724104
vt 0.594772 0.784642
vt 0.527092 0.784653
vt 0.527092 0.724102
vt 0.594772 0.724104
vt 0.594772 0.784642
vt 0.527092 0.784653
vt 0.527092 0.724102
vt 0.594772 0.724104
vt 0.594772 0.784642
vt 0.560561 0.855648


#
# MESH 000
#
g surface_000
usemtl surface_000
f 187/187/187 190/190/190 191/191/191
f 187/187/187 189/189/189 190/190/190
f 187/187/187 188/188/188 189/189/189
f 183/183/183 186/186/186 191/191/191
f 183/183/183 185/185/185 186/186/186
f 183/183/183 184/184/184 185/185/185
f 179/179/179 182/182/182 191/191/191
f 179/179/179 181/181/181 182/182/182
f 179/179/179 180/180/180 181/181/181
f 175/175/175 178/178/178 191/191/191
f 175/175/175 177/177/177 178/178/178
f 175/175/175 176/176/176 177/177/177
f 174/174/174 172/172/172 162/162/162
f 162/162/162 172/172/172 164/164/164
f 163/163/163 162/162/162 164/164/164
f 161/161/161 162/162/162 163/163/163
f 172/172/172 173/173/173 164/164/164
f 164/164/164 173/173/173 166/166/166
f 165/165/165 164/164/164 166/166/166
f 163/163/163 164/164/164 165/165/165
f 169/169/169 167/167/167 170/170/170
f 170/170/170 167/167/167 158/158/158
f 158/158/158 171/171/171 170/170/170
f 157/157/157 171/171/171 158/158/158
f 157/157/157 158/158/158 159/159/159
f 159/159/159 158/158/158 160/160/160
f 158/158/158 167/167/167 160/160/160
f 160/160/160 167/167/167 168/168/168
f 152/152/152 155/155/155 156/156/156
f 152/152/152 154/154/154 155/155/155
f 152/152/152 153/153/153 154/154/154
f 148/148/148 151/151/151 156/156/156
f 148/148/148 150/150/150 151/151/151
f 148/148/148 149/149/149 150/150/150
f 144/144/144 147/147/147 156/156/156
f 144/144/144 146/146/146 147/147/147
f 144/144/144 145/145/145 146/146/146
f 140/140/140 143/143/143 156/156/156
f 140/140/140 142/142/142 143/143/143
f 140/140/140 141/141/141 142/142/142
f 128/128/128 126/126/126 116/116/116
f 116/116/116 126/126/126 118/118/118
f 117/117/117 116/116/116 118/118/118
f 115/115/115 116/116/116 117/117/117
f 126/126/126 127/127/127 118/118/118
f 118/118/118 127/127/127 120/120/120
f 119/119/119 118/118/118 120/120/120
f 117/117/117 118/118/118 119/119/119
f 123/123/123 121/121/121 124/124/124
f 124/124/124 121/121/121 112/112/112
f 112/112/112 125/125/125 124/124/124
f 111/111/111 125/125/125 112/112/112
f 111/111/111 112/112/112 113/113/113
f 113/113/113 112/112/112 114/114/114
f 112/112/112 121/121/121 114/114/114
f 114/114/114 121/121/121 122/122/122
f 109/109/109 108/108/108 110/110/110
f 107/107/107 108/108/108 109/109/109
f 104/104/104 105/105/105 102/102/102
f 102/102/102 105/105/105 100/100/100
f 100/100/100 101/101/101 102/102/102
f 102/102/102 101/101/101 103/103/103
f 91/91/91 103/103/103 101/101/101
f 90/90/90 103/103/103 91/91/91
f 90/90/90 91/91/91 92/92/92
f 92/92/92 91/91/91 93/93/93
f 100/100/100 105/105/105 99/99/99
f 100/100/100 99/99/99 101/101/101
f 101/101/101 99/99/99 106/106/106
f 106/106/106 91/91/91 101/101/101
f 94/94/94 91/91/91 106/106/106
f 96/96/96 91/91/91 94/94/94
f 93/93/93 91/91/91 96/96/96
f 99/99/99 105/105/105 97/97/97
f 97/97/97 98/98/98 99/99/99
f 99/99/99 98/98/98 106/106/106
f 94/94/94 95/95/95 96/96/96
f 106/106/106 95/95/95 94/94/94
f 86/86/86 88/88/88 89/89/89
f 86/86/86 87/87/87 88/88/88
f 82/82/82 84/84/84 85/85/85
f 82/82/82 83/83/83 84/84/84
f 78/78/78 80/80/80 81/81/81
f 78/78/78 79/79/79 80/80/80
f 74/74/74 76/76/76 77/77/77
f 74/74/74 75/75/75 76/76/76
f 70/70/70 72/72/72 73/73/73
f 70/70/70 71/71/71 72/72/72
f 66/66/66 68/68/68 69/69/69
f 66/66/66 67/67/67 68/68/68
f 62/62/62 64/64/64 65/65/65
f 62/62/62 63/63/63 64/64/64
f 58/58/58 60/60/60 61/61/61
f 58/58/58 59/59/59 60/60/60
f 57/57/57 55/55/55 45/45/45
f 45/45/45 55/55/55 47/47/47
f 46/46/46 45/45/45 47/47/47
f 44/44/44 45/45/45 46/46/46
f 55/55/55 56/56/56 47/47/47
f 47/47/47 56/56/56 49/49/49
f 48/48/48 47/47/47 49/49/49
f 46/46/46 47/47/47 48/48/48
f 52/52/52 50/50/50 53/53/53
f 53/53/53 50/50/50 41/41/41
f 41/41/41 54/54/54 53/53/53
f 40/40/40 54/54/54 41/41/41
f 40/40/40 41/41/41 42/42/42
f 42/42/42 41/41/41 43/43/43
f 41/41/41 50/50/50 43/43/43
f 43/43/43 50/50/50 51/51/51
f 35/35/35 38/38/38 39/39/39
f 35/35/35 37/37/37 38/38/38
f 35/35/35 36/36/36 37/37/37
f 31/31/31 34/34/34 39/39/39
f 31/31/31 33/33/33 34/34/34
f 31/31/31 32/32/32 33/33/33
f 27/27/27 30/30/30 39/39/39
f 27/27/27 29/29/29 30/30/30
f 27/27/27 28/28/28 29/29/29
f 23/23/23 26/26/26 39/39/39
f 23/23/23 25/25/25 26/26/26
f 23/23/23 24/24/24 25/25/25
f 139/139/139 135/135/135 130/130/130
f 135/135/135 134/134/134 130/130/130
f 130/130/130 134/134/134 131/131/131
f 129/129/129 130/130/130 131/131/131
f 139/139/139 130/130/130 129/129/129
f 138/138/138 139/139/139 129/129/129
f 138/138/138 129/129/129 132/132/132
f 137/137/137 138/138/138 132/132/132
f 135/135/135 136/136/136 134/134/134
f 136/136/136 133/133/133 134/134/134
f 134/134/134 133/133/133 131/131/131
f 133/133/133 132/132/132 131/131/131
f 132/132/132 129/129/129 131/131/131
f 136/136/136 137/137/137 133/133/133
f 137/137/137 132/132/132 133/133/133
f 22/22/22 18/18/18 13/13/13
f 18/18/18 17/17/17 13/13/13
f 13/13/13 17/17/17 14/14/14
f 12/12/12 13/13/13 14/14/14
f 22/22/22 13/13/13 12/12/12
f 21/21/21 22/22/22 12/12/12
f 21/21/21 12/12/12 15/15/15
f 20/20/20 21/21/21 15/15/15
f 18/18/18 19/19/19 17/17/17
f 19/19/19 16/16/16 17/17/17
f 17/17/17 16/16/16 14/14/14
f 16/16/16 15/15/15 14/14/14
f 15/15/15 12/12/12 14/14/14
f 19/19/19 20/20/20 16/16/16
f 20/20/20 15/15/15 16/16/16
f 11/11/11 7/7/7 2/2/2
f 7/7/7 6/6/6 2/2/2
f 2/2/2 6/6/6 3/3/3
f 1/1/1 2/2/2 3/3/3
f 11/11/11 2/2/2 1/1/1
f 10/10/10 11/11/11 1/1/1
f 10/10/10 1/1/1 4/4/4
f 9/9/9 10/10/10 4/4/4
f 7/7/7 8/8/8 6/6/6
f 8/8/8 5/5/5 6/6/6
f 6/6/6 5/5/5 3/3/3
f 5/5/5 4/4/4 3/3/3
f 4/4/4 1/1/1 3/3/3
f 8/8/8 9/9/9 5/5/5
f 9/9/9 4/4/4 5/5/5

