g g007v001_l
v -1 0.6048908 -0.794448
v -1 0.7067437 -0.794448
v -1 0.7067437 0.5915433
v -1 0.6048908 0.5915433
v -1 0.6048908 -0.794448
v 1 0.6048908 -0.794448
v 1 0.7067437 -0.794448
v -1 0.7067437 -0.794448
v -1 0.7067437 0.5915433
v 1 0.7067437 0.5915433
v 1 0.6048908 0.5915433
v -1 0.6048908 0.5915433
v -1 0.7067437 -0.794448
v 1 0.7067437 -0.794448
v 1 0.7067437 0.5915433
v -1 0.7067437 0.5915433
v -1 0.6048908 0.5915433
v 1 0.6048908 0.5915433
v 1 0.6048908 -0.794448
v -1 0.6048908 -0.794448
v 1 0.6048908 -0.794448
v 1 0.6048908 0.5915433
v 1 0.7067437 0.5915433
v 1 0.7067437 -0.794448
v 0.9614351 0.6157947 0.3931072
v 0.9614351 -1.79146E-32 0.5153816
v 0.9614351 -1.79146E-32 0.7347224
v 0.9614351 0.6157947 0.5564495
v 0.7834482 -1.79146E-32 0.5153816
v 0.7834482 -1.79146E-32 0.7347224
v 0.9614351 -1.79146E-32 0.7347224
v 0.9614351 -1.79146E-32 0.5153816
v 0.9614351 0.6157947 0.5564495
v 0.9614351 -1.79146E-32 0.7347224
v 0.7834482 -1.79146E-32 0.7347224
v 0.7834482 0.6157947 0.5564495
v 0.7834482 0.6157947 0.5564495
v 0.7834482 -1.79146E-32 0.7347224
v 0.7834482 -1.79146E-32 0.5153816
v 0.7834482 0.6157947 0.3931072
v 0.7834482 0.6157947 0.3931072
v 0.7834482 -1.79146E-32 0.5153816
v 0.9614351 -1.79146E-32 0.5153816
v 0.9614351 0.6157947 0.3931072
v -0.7834483 0.6157947 0.3931072
v -0.7834483 -1.79146E-32 0.5153816
v -0.7834483 -1.79146E-32 0.7347224
v -0.7834483 0.6157947 0.5564495
v -0.9614345 -1.79146E-32 0.5153816
v -0.9614345 -1.79146E-32 0.7347224
v -0.7834483 -1.79146E-32 0.7347224
v -0.7834483 -1.79146E-32 0.5153816
v -0.7834483 0.6157947 0.5564495
v -0.7834483 -1.79146E-32 0.7347224
v -0.9614345 -1.79146E-32 0.7347224
v -0.9614345 0.6157947 0.5564495
v -0.9614345 0.6157947 0.5564495
v -0.9614345 -1.79146E-32 0.7347224
v -0.9614345 -1.79146E-32 0.5153816
v -0.9614345 0.6157947 0.3931072
v -0.9614345 0.6157947 0.3931072
v -0.9614345 -1.79146E-32 0.5153816
v -0.7834483 -1.79146E-32 0.5153816
v -0.7834483 0.6157947 0.3931072
v 0.7834482 0.6157947 -0.5916913
v 0.7834482 -1.79146E-32 -0.7139657
v 0.7834482 -1.79146E-32 -0.9333067
v 0.7834482 0.6157947 -0.7550338
v 0.9614351 -1.79146E-32 -0.7139657
v 0.9614351 -1.79146E-32 -0.9333067
v 0.7834482 -1.79146E-32 -0.9333067
v 0.7834482 -1.79146E-32 -0.7139657
v 0.7834482 0.6157947 -0.7550338
v 0.7834482 -1.79146E-32 -0.9333067
v 0.9614351 -1.79146E-32 -0.9333067
v 0.9614351 0.6157947 -0.7550338
v 0.9614351 0.6157947 -0.7550338
v 0.9614351 -1.79146E-32 -0.9333067
v 0.9614351 -1.79146E-32 -0.7139657
v 0.9614351 0.6157947 -0.5916913
v 0.9614351 0.6157947 -0.5916913
v 0.9614351 -1.79146E-32 -0.7139657
v 0.7834482 -1.79146E-32 -0.7139657
v 0.7834482 0.6157947 -0.5916913
v -0.9614345 0.6157947 -0.5916913
v -0.9614345 -1.79146E-32 -0.7139657
v -0.9614345 -1.79146E-32 -0.9333067
v -0.9614345 0.6157947 -0.7550338
v -0.7834483 -1.79146E-32 -0.7139657
v -0.7834483 -1.79146E-32 -0.9333067
v -0.9614345 -1.79146E-32 -0.9333067
v -0.9614345 -1.79146E-32 -0.7139657
v -0.9614345 0.6157947 -0.7550338
v -0.9614345 -1.79146E-32 -0.9333067
v -0.7834483 -1.79146E-32 -0.9333067
v -0.7834483 0.6157947 -0.7550338
v -0.7834483 0.6157947 -0.7550338
v -0.7834483 -1.79146E-32 -0.9333067
v -0.7834483 -1.79146E-32 -0.7139657
v -0.7834483 0.6157947 -0.5916913
v -0.7834483 0.6157947 -0.5916913
v -0.7834483 -1.79146E-32 -0.7139657
v -0.9614345 -1.79146E-32 -0.7139657
v -0.9614345 0.6157947 -0.5916913
v 0.9402048 0.6129757 0.5153815
v 0.9402048 0.0002812046 0.5153815
v -0.9402021 0.0002812046 0.5153815
v -0.9402021 0.6129757 0.5153815
v -0.9402021 0.0002812046 -0.7139658
v 0.9402048 0.0002812046 -0.7139658
v 0.9402048 0.6129757 -0.7139658
v -0.9402021 0.6129757 -0.7139658
v -0.9402021 0.0002812046 -0.7139658
v -0.9402021 0.0002812046 0.5153815
v 0.9402048 0.0002812046 0.5153815
v 0.9402048 0.0002812046 -0.7139658
v 0.9402048 0.6129757 -0.7139658
v 0.9402048 0.0002812046 -0.7139658
v 0.9402048 0.0002812046 0.5153815
v 0.9402048 0.6129757 0.5153815
v -0.9402021 0.6129757 -0.7139658
v -0.9402021 0.6129757 0.5153815
v -0.9402021 0.0002812046 0.5153815
v -0.9402021 0.0002812046 -0.7139658
v -1 2 0.5475885
v -1 2 -0.8565312
v 1 2 -0.856531
v 1 2 0.5475886
v -0.9903529 1.911004 -0.844133
v -1 2 -0.8565312
v -1 2 0.5475885
v -0.9903529 1.911004 0.5351912
v 0.9865496 1.911004 -0.8441329
v 1 2 -0.856531
v -1 2 -0.8565312
v -0.9903529 1.911004 -0.844133
v 1 2 0.5475886
v 1 2 -0.856531
v 0.9865496 1.911004 -0.8441329
v 0.9865496 1.911004 0.5351914
v -1 2 0.5475885
v 1 2 0.5475886
v 0.9865496 1.911004 0.5351914
v -0.9903529 1.911004 0.5351912
v -0.9903529 1.911004 0.5351912
v 0.9865496 1.911004 0.5351914
v 0.9865496 1.911004 -0.8441329
v -0.9903529 1.911004 -0.844133
v 0.03625387 0.7026231 0.4169503
v 0.03625387 1.911004 0.4169503
v 0.9240745 1.911004 0.4169495
v 0.9240745 0.7026231 0.4169495
v -0.9240738 1.911004 0.416951
v -0.9240738 0.7026231 0.416951
v -0.9240738 0.7026231 -0.7201865
v -0.9240738 1.911004 -0.7201865
v -0.9240738 0.7026231 -0.7201865
v 0.04424316 0.7026231 -0.7201865
v 0.04424316 1.911004 -0.7201865
v -0.9240738 1.911004 -0.7201865
v 0.9240745 1.911004 0.4169495
v 0.9240745 1.911004 -0.7201865
v 0.9240745 0.7026231 -0.7201865
v 0.9240745 0.7026231 0.4169495
v 0.04424316 0.7026231 -0.7201865
v 0.9240745 0.7026231 -0.7201865
v 0.9240745 1.911004 -0.7201865
v 0.04424316 1.911004 -0.7201865
v -0.9240738 0.7026231 0.416951
v -0.9240738 1.911004 0.416951
v 0.03625387 1.911004 0.4169503
v 0.03625387 0.7026231 0.4169503
vt 0.9516602 0.9648438
vt 0.987793 0.9648438
vt 0.987793 0.7167969
vt 0.9516602 0.7167969
vt 0.9345703 0.9765625
vt 0.2176514 0.9765625
vt 0.2176514 0.9946289
vt 0.9345703 0.9946289
vt 0.2176514 0.9946289
vt 0.9345703 0.9946289
vt 0.9345703 0.9765625
vt 0.2176514 0.9765625
vt 0.2176514 0.9682617
vt 0.9345703 0.9682617
vt 0.9345703 0.7202148
vt 0.2176514 0.7202148
vt 0.9345703 0.7202148
vt 0.2176514 0.7202148
vt 0.2176514 0.9682617
vt 0.9345703 0.9682617
vt 0.9516602 0.7167969
vt 0.9516602 0.9648438
vt 0.987793 0.9648438
vt 0.987793 0.7167969
vt 0.1964111 0.6977539
vt 0.1525879 0.5874023
vt 0.07415771 0.5874023
vt 0.1379395 0.6977539
vt 0.07318115 0.6904297
vt 0.07318115 0.6508789
vt 0.01155853 0.6508789
vt 0.01155853 0.6904297
vt 0.07318115 0.8168945
vt 0.07318115 0.6972656
vt 0.01155853 0.6972656
vt 0.01155853 0.8168945
vt 0.1407471 0.8178711
vt 0.2047119 0.7075195
vt 0.1259766 0.7075195
vt 0.08221436 0.8178711
vt 0.07318115 0.8168945
vt 0.07318115 0.6972656
vt 0.01155853 0.6972656
vt 0.01155853 0.8168945
vt 0.1964111 0.6977539
vt 0.1525879 0.5874023
vt 0.07415771 0.5874023
vt 0.1379395 0.6977539
vt 0.07318115 0.6904297
vt 0.07318115 0.6508789
vt 0.01155853 0.6508789
vt 0.01155853 0.6904297
vt 0.07318115 0.8168945
vt 0.07318115 0.6972656
vt 0.01155853 0.6972656
vt 0.01155853 0.8168945
vt 0.1407471 0.8178711
vt 0.2047119 0.7075195
vt 0.1259766 0.7075195
vt 0.08221436 0.8178711
vt 0.07318115 0.8168945
vt 0.07318115 0.6972656
vt 0.01155853 0.6972656
vt 0.01155853 0.8168945
vt 0.1964111 0.6977539
vt 0.1525879 0.5874023
vt 0.07415771 0.5874023
vt 0.1379395 0.6977539
vt 0.07318115 0.6904297
vt 0.07318115 0.6508789
vt 0.01155853 0.6508789
vt 0.01155853 0.6904297
vt 0.07318115 0.8168945
vt 0.07318115 0.6972656
vt 0.01155853 0.6972656
vt 0.01155853 0.8168945
vt 0.1407471 0.8178711
vt 0.2047119 0.7075195
vt 0.1259766 0.7075195
vt 0.08221436 0.8178711
vt 0.07318115 0.8168945
vt 0.07318115 0.6972656
vt 0.01155853 0.6972656
vt 0.01155853 0.8168945
vt 0.1964111 0.6977539
vt 0.1525879 0.5874023
vt 0.07415771 0.5874023
vt 0.1379395 0.6977539
vt 0.07318115 0.6904297
vt 0.07318115 0.6508789
vt 0.01155853 0.6508789
vt 0.01155853 0.6904297
vt 0.07318115 0.8168945
vt 0.07318115 0.6972656
vt 0.01155853 0.6972656
vt 0.01155853 0.8168945
vt 0.1407471 0.8178711
vt 0.2047119 0.7075195
vt 0.1259766 0.7075195
vt 0.08221436 0.8178711
vt 0.07318115 0.8168945
vt 0.07318115 0.6972656
vt 0.01155853 0.6972656
vt 0.01155853 0.8168945
vt 0.2005615 0.9047852
vt 0.199585 0.8256836
vt 0.03839111 0.8256836
vt 0.03640747 0.9047852
vt 0.996582 0.5742188
vt 0.458252 0.5742188
vt 0.458252 0.6865234
vt 0.996582 0.6865234
vt 0.8789063 0.9682617
vt 0.8789063 0.7182617
vt 0.2680664 0.7182617
vt 0.2680664 0.9682617
vt 0.987793 0.6875
vt 0.987793 0.574707
vt 0.4665527 0.574707
vt 0.4665527 0.6875
vt 0.4665527 0.6875
vt 0.987793 0.6875
vt 0.987793 0.574707
vt 0.4665527 0.574707
vt 0.6240234 0.007175446
vt 0.6240234 0.2583008
vt 0.987793 0.2583008
vt 0.987793 0.007175446
vt 0.5795898 0.2583008
vt 0.6123047 0.2583008
vt 0.6123047 0.007175446
vt 0.5795898 0.007175446
vt 0.5688477 0.007175446
vt 0.5366211 0.007175446
vt 0.5366211 0.1849365
vt 0.5688477 0.1849365
vt 0.6123047 0.2583008
vt 0.6123047 0.007175446
vt 0.5795898 0.007175446
vt 0.5795898 0.2583008
vt 0.5688477 0.1849365
vt 0.5688477 0.007175446
vt 0.5366211 0.007175446
vt 0.5366211 0.1849365
vt 0.987793 0.007175446
vt 0.6240234 0.007175446
vt 0.6240234 0.2583008
vt 0.987793 0.2583008
vt 0.3037109 0.1508789
vt 0.3034668 0.3310547
vt 0.007640839 0.3305664
vt 0.008773804 0.1507568
vt 0.3037109 0.3378906
vt 0.3037109 0.1414795
vt 0.006088257 0.1414795
vt 0.006088257 0.3378906
vt 0.2946777 0.3615723
vt 0.009712219 0.3615723
vt 0.009712219 0.5454102
vt 0.2946777 0.5454102
vt 0.006088257 0.3378906
vt 0.3037109 0.3378906
vt 0.3037109 0.1414795
vt 0.006088257 0.1414795
vt 0.009712219 0.3615723
vt 0.2961426 0.3615723
vt 0.2961426 0.5454102
vt 0.009712219 0.5454102
vt 0.005962372 0.151001
vt 0.006389618 0.3312988
vt 0.3034668 0.3310547
vt 0.3037109 0.1508789
vn -1 0 0
vn -1 0 0
vn -1 0 0
vn -1 0 0
vn 0 0 -1
vn 0 0 -1
vn 0 0 -1
vn 0 0 -1
vn 0 0 1
vn 0 0 1
vn 0 0 1
vn 0 0 1
vn 0 1 0
vn 0 1 0
vn 0 1 0
vn 0 1 0
vn 0 -1 0
vn 0 -1 0
vn 0 -1 0
vn 0 -1 0
vn 1 0 0
vn 1 0 0
vn 1 0 0
vn 1 0 0
vn 1 0 0
vn 1 0 0
vn 1 0 0
vn 1 0 0
vn 0 -0.4851074 -0.8745117
vn 0 -1 0
vn 0 -1 0
vn 0 -0.4851074 -0.8745117
vn 0 0.2780762 0.9604492
vn 0 0.2780762 0.9604492
vn 0 0.2780762 0.9604492
vn 0 0.2780762 0.9604492
vn -1 0 0
vn -1 0 0
vn -1 0 0
vn -1 0 0
vn 0 -0.1947021 -0.980957
vn 0 -0.4851074 -0.8745117
vn 0 -0.4851074 -0.8745117
vn 0 -0.1947021 -0.980957
vn 1 0 0
vn 1 0 0
vn 1 0 0
vn 1 0 0
vn 0 -0.4851074 -0.8745117
vn 0 -1 0
vn 0 -1 0
vn 0 -0.4851074 -0.8745117
vn 0 0.2780762 0.9604492
vn 0 0.2780762 0.9604492
vn 0 0.2780762 0.9604492
vn 0 0.2780762 0.9604492
vn -1 0 0
vn -1 0 0
vn -1 0 0
vn -1 0 0
vn 0 -0.1947021 -0.980957
vn 0 -0.4851074 -0.8745117
vn 0 -0.4851074 -0.8745117
vn 0 -0.1947021 -0.980957
vn -1 0 0
vn -1 0 0
vn -1 0 0
vn -1 0 0
vn 0 -0.4851074 0.8745117
vn 0 -1 0
vn 0 -1 0
vn 0 -0.4851074 0.8745117
vn 0 0.2780762 -0.9604492
vn 0 0.2780762 -0.9604492
vn 0 0.2780762 -0.9604492
vn 0 0.2780762 -0.9604492
vn 1 0 0
vn 1 0 0
vn 1 0 0
vn 1 0 0
vn 0 -0.1947021 0.980957
vn 0 -0.4851074 0.8745117
vn 0 -0.4851074 0.8745117
vn 0 -0.1947021 0.980957
vn -1 0 0
vn -1 0 0
vn -1 0 0
vn -1 0 0
vn 0 -0.4851074 0.8745117
vn 0 -1 0
vn 0 -1 0
vn 0 -0.4851074 0.8745117
vn 0 0.2780762 -0.9604492
vn 0 0.2780762 -0.9604492
vn 0 0.2780762 -0.9604492
vn 0 0.2780762 -0.9604492
vn 1 0 0
vn 1 0 0
vn 1 0 0
vn 1 0 0
vn 0 -0.1947021 0.980957
vn 0 -0.4851074 0.8745117
vn 0 -0.4851074 0.8745117
vn 0 -0.1947021 0.980957
vn 0 0 1
vn 0 0 1
vn 0 0 1
vn 0 0 1
vn 0 0 -1
vn 0 0 -1
vn 0 0 -1
vn 0 0 -1
vn 0 -1 0
vn 0 -1 0
vn 0 -1 0
vn 0 -1 0
vn 1 0 0
vn 1 0 0
vn 1 0 0
vn 1 0 0
vn -1 0 0
vn -1 0 0
vn -1 0 0
vn -1 0 0
vn 0 1 0
vn 0 1 0
vn 0 1 0
vn 0 1 0
vn -0.9941406 -0.1077881 0
vn -0.9941406 -0.1077881 0
vn -0.9941406 -0.1077881 0
vn -0.9941406 -0.1077881 0
vn 0 -0.1379395 -0.9902344
vn 0 -0.1379395 -0.9902344
vn 0 -0.1379395 -0.9902344
vn 0 -0.1379395 -0.9902344
vn 0.9887695 -0.1494141 0
vn 0.9887695 -0.1494141 0
vn 0.9887695 -0.1494141 0
vn 0.9887695 -0.1494141 0
vn 0 -0.1379395 0.9902344
vn 0 -0.1379395 0.9902344
vn 0 -0.1379395 0.9902344
vn 0 -0.1379395 0.9902344
vn 0 -1 0
vn 0 -1 0
vn 0 -1 0
vn 0 -1 0
vn 0 0 1
vn 0 0 1
vn 0 0 1
vn 0 0 1
vn -1 0 0
vn -1 0 0
vn -1 0 0
vn -1 0 0
vn 0 0 -1
vn 0 0 -1
vn 0 0 -1
vn 0 0 -1
vn 1 0 0
vn 1 0 0
vn 1 0 0
vn 1 0 0
vn 0 0 -1
vn 0 0 -1
vn 0 0 -1
vn 0 0 -1
vn 0 0 1
vn 0 0 1
vn 0 0 1
vn 0 0 1
g g007v001_l_0
f 3/3/3 2/2/2 1/1/1
f 4/4/4 3/3/3 1/1/1
f 7/7/7 6/6/6 5/5/5
f 8/8/8 7/7/7 5/5/5
f 11/11/11 10/10/10 9/9/9
f 12/12/12 11/11/11 9/9/9
f 15/15/15 14/14/14 13/13/13
f 16/16/16 15/15/15 13/13/13
f 19/19/19 18/18/18 17/17/17
f 20/20/20 19/19/19 17/17/17
f 23/23/23 22/22/22 21/21/21
f 24/24/24 23/23/23 21/21/21
f 27/27/27 26/26/26 25/25/25
f 28/28/28 27/27/27 25/25/25
f 31/31/31 30/30/30 29/29/29
f 32/32/32 31/31/31 29/29/29
f 35/35/35 34/34/34 33/33/33
f 36/36/36 35/35/35 33/33/33
f 39/39/39 38/38/38 37/37/37
f 40/40/40 39/39/39 37/37/37
f 43/43/43 42/42/42 41/41/41
f 44/44/44 43/43/43 41/41/41
f 47/47/47 46/46/46 45/45/45
f 48/48/48 47/47/47 45/45/45
f 51/51/51 50/50/50 49/49/49
f 52/52/52 51/51/51 49/49/49
f 55/55/55 54/54/54 53/53/53
f 56/56/56 55/55/55 53/53/53
f 59/59/59 58/58/58 57/57/57
f 60/60/60 59/59/59 57/57/57
f 63/63/63 62/62/62 61/61/61
f 64/64/64 63/63/63 61/61/61
f 67/67/67 66/66/66 65/65/65
f 68/68/68 67/67/67 65/65/65
f 71/71/71 70/70/70 69/69/69
f 72/72/72 71/71/71 69/69/69
f 75/75/75 74/74/74 73/73/73
f 76/76/76 75/75/75 73/73/73
f 79/79/79 78/78/78 77/77/77
f 80/80/80 79/79/79 77/77/77
f 83/83/83 82/82/82 81/81/81
f 84/84/84 83/83/83 81/81/81
f 87/87/87 86/86/86 85/85/85
f 88/88/88 87/87/87 85/85/85
f 91/91/91 90/90/90 89/89/89
f 92/92/92 91/91/91 89/89/89
f 95/95/95 94/94/94 93/93/93
f 96/96/96 95/95/95 93/93/93
f 99/99/99 98/98/98 97/97/97
f 100/100/100 99/99/99 97/97/97
f 103/103/103 102/102/102 101/101/101
f 104/104/104 103/103/103 101/101/101
f 107/107/107 106/106/106 105/105/105
f 108/108/108 107/107/107 105/105/105
f 111/111/111 110/110/110 109/109/109
f 112/112/112 111/111/111 109/109/109
f 115/115/115 114/114/114 113/113/113
f 116/116/116 115/115/115 113/113/113
f 119/119/119 118/118/118 117/117/117
f 120/120/120 119/119/119 117/117/117
f 123/123/123 122/122/122 121/121/121
f 124/124/124 123/123/123 121/121/121
f 127/127/127 126/126/126 125/125/125
f 128/128/128 127/127/127 125/125/125
f 131/131/131 130/130/130 129/129/129
f 132/132/132 131/131/131 129/129/129
f 135/135/135 134/134/134 133/133/133
f 136/136/136 135/135/135 133/133/133
f 139/139/139 138/138/138 137/137/137
f 140/140/140 139/139/139 137/137/137
f 143/143/143 142/142/142 141/141/141
f 144/144/144 143/143/143 141/141/141
f 147/147/147 146/146/146 145/145/145
f 148/148/148 147/147/147 145/145/145
f 151/151/151 150/150/150 149/149/149
f 152/152/152 151/151/151 149/149/149
f 155/155/155 154/154/154 153/153/153
f 156/156/156 155/155/155 153/153/153
f 159/159/159 158/158/158 157/157/157
f 160/160/160 159/159/159 157/157/157
f 163/163/163 162/162/162 161/161/161
f 164/164/164 163/163/163 161/161/161
f 167/167/167 166/166/166 165/165/165
f 168/168/168 167/167/167 165/165/165
f 171/171/171 170/170/170 169/169/169
f 172/172/172 171/171/171 169/169/169
