#
# OBJECT NAME
#
o model_1145
mtllib 1145.mtl

#
# VERTEX BUFFER 000
#
v 0.5 1.25 -0.5
v 0 1.25 -0.5
v 0.5 0.25 0.5
v 0 1.25 -0.5
v 0 1.25 0.5
v 0.5 0.25 0.5
v 0 1.25 0.5
v 0 0.957393 0.5
v 0.5 0.25 0.5
v 0.351143 0.25 0.5
v 0.5 0 0.5
v 0.5 0.25 0.5
v 0.351143 0.25 0.5
v 0.351143 0.25 -0.5
v 0.5 1.25 -0.5
v 0.5 0 -0.5
v 0.5 0 -0.5
v 0.5 0 0.5
v -0.5 0 -0.5
v -0.5 0 0.5
v -0.5 0 0.5
v -0.351143 0.25 0.5
v 0.351143 0.25 0.5
v 0.351143 0.25 -0.5
v -0.351143 0.25 0.5
v -0.351143 0.25 -0.5
v -0.351143 0.25 -0.5
v -0.5 0 -0.5
v 0.351143 0.25 0.5
v 0 0.957393 0.5
v 0.351143 0.25 -0.5
v 0 1 -0.5
v 0.5 0 0.5
v 0.5 0 -0.5
v 0.5 0.25 0.5
v 0.5 1.25 -0.5
v -0.5 1.25 -0.5
v -0.5 0.25 0.5
v -0.5 0.25 0.5
v -0.5 0.25 0.5
v -0.351143 0.25 0.5
v -0.5 0.25 0.5
v -0.5 1.25 -0.5
v 0 1.25 -0.5
v 0 1 -0.5
v 0 1 -0.5
v 0 0.957393 0.5
v -0.351143 0.25 -0.5
v -0.351143 0.25 0.5
v -0.5 1.25 -0.5
v -0.5 0 -0.5
v -0.5 0.25 0.5
v -0.5 0 0.5
v -0.0688193 0.243542 0.236501
v 0.0688184 0.243542 0.236501
v -0.0688193 0.962014 0.236501
v 0.0688184 0.962014 0.236501
v -0.0688193 0.962014 0.0640268
v 0.0688184 0.962014 0.0640268
v -0.0688193 0.243542 0.0640268
v 0.0688184 0.243542 0.0640268
v -0.265878 0.438281 0.21225
v 0.265877 0.438281 0.21225
v -0.265878 0.567382 0.21225
v 0.265877 0.567382 0.21225
v -0.265878 0.567382 0.089335
v 0.265877 0.567382 0.089335
v -0.265878 0.438281 0.089335
v 0.265877 0.438281 0.089335
v 0 1 -0.5

vn 0 0.707031 0.707031
vn 0 0.707031 0.707031
vn 0 0.707031 0.707031
vn 0 1 0
vn 0 1 0
vn 0.894043 0.447021 0
vn 0 0 1
vn 0 0 1
vn 0 0 1
vn 0 0 1
vn 0 0 1
vn 0 0 1
vn 0 0 1
vn 0 0 -1
vn 0 0 -1
vn 0 0 -1
vn 0 -1 0
vn 0 -1 0
vn 0 -1 0
vn 0 -1 0
vn 0 0 1
vn 0 0 1
vn 0 1 0
vn 0 1 0
vn 0 1 0
vn 0 1 0
vn 0 0 -1
vn 0 0 -1
vn -0.900391 -0.434082 -0.00924683
vn 0 -0.999512 -0.021286
vn -0.900391 -0.434082 -0.00924683
vn 0 -0.999512 -0.021286
vn 1 0 0
vn 1 0 0
vn 1 0 0
vn 1 0 0
vn 0 0.707031 0.707031
vn 0 0.707031 0.707031
vn -0.894043 0.447021 0
vn 0 0 1
vn 0 0 1
vn 0 0 1
vn 0 0 -1
vn 0 0 -1
vn 0 0 -1
vn 0 -0.999512 -0.021286
vn 0 -0.999512 -0.021286
vn 0.900391 -0.434082 -0.00924683
vn 0.900391 -0.434082 -0.00924683
vn -1 0 0
vn -1 0 0
vn -1 0 0
vn -1 0 0
vn 0 0 1
vn 0 0 1
vn 0 0 1
vn 0 0 1
vn 0 0 -1
vn 0 0 -1
vn 0 0 -1
vn 0 0 -1
vn 0 0 1
vn 0 0 1
vn 0 0 1
vn 0 0 1
vn 0 0 -1
vn 0 0 -1
vn 0 0 -1
vn 0 0 -1
vn 0 0 -1

vt 0.263475 0.98168
vt 0.138236 0.98168
vt 0.263475 0.627449
vt 0.571597 0.740896
vt 0.571597 0.991374
vt 0.288599 0.991375
vt 0.135039 0.826937
vt 0.135039 0.753645
vt 0.260279 0.576457
vt 0.222993 0.576457
vt 0.260279 0.490567
vt 0.260279 0.553187
vt 0.222993 0.553187
vt 0.726589 0.0760484
vt 0.689303 0.351096
vt 0.689303 0.0134284
vt 0.738152 0.854654
vt 0.738152 0.604174
vt 0.988631 0.854654
vt 0.988631 0.604174
vt 0.00979931 0.490567
vt 0.0470849 0.553187
vt 0.20089 0.212428
vt 0.20089 0.462907
vt 0.0249814 0.212428
vt 0.0249814 0.462907
vt 0.902497 0.0760484
vt 0.939783 0.0134284
vt 0.551441 0.38379
vt 0.551441 0.582029
vt 0.300961 0.38379
vt 0.300961 0.582029
vt 0.12035 0.0133587
vt 0.37083 0.0133587
vt 0.12035 0.100506
vt 0.37083 0.350986
vt 0.0129961 0.98168
vt 0.0129957 0.627449
vt 0.854595 0.991375
vt 0.0097993 0.576457
vt 0.0470849 0.576457
vt 0.0097993 0.553187
vt 0.939783 0.351096
vt 0.814543 0.351096
vt 0.814543 0.282382
vt 0.823067 0.582029
vt 0.572587 0.582029
vt 0.823066 0.38379
vt 0.572587 0.38379
vt 0.399785 0.350986
vt 0.399785 0.0133587
vt 0.650264 0.100506
vt 0.650264 0.0378864
vt 0.286492 0.611697
vt 0.320968 0.611697
vt 0.286492 0.791659
vt 0.320968 0.791659
vt 0.367557 0.791659
vt 0.333081 0.791659
vt 0.367557 0.611697
vt 0.333081 0.611697
vt 0.856478 0.450644
vt 0.989671 0.450644
vt 0.856478 0.482981
vt 0.989671 0.482981
vt 0.856478 0.407592
vt 0.989671 0.407592
vt 0.856478 0.439929
vt 0.989671 0.439929
vt 0.814543 0.281918


#
# MESH 000
#
g surface_000
usemtl surface_000
f 2/2/2 37/37/37 38/38/38
f 1/1/1 2/2/2 3/3/3
f 15/15/15 70/70/70 44/44/44
f 14/14/14 70/70/70 15/15/15
f 14/14/14 15/15/15 16/16/16
f 14/14/14 16/16/16 27/27/27
f 27/27/27 16/16/16 28/28/28
f 43/43/43 27/27/27 28/28/28
f 43/43/43 45/45/45 27/27/27
f 43/43/43 44/44/44 45/45/45
f 68/68/68 67/67/67 69/69/69
f 66/66/66 67/67/67 68/68/68
f 64/64/64 63/63/63 65/65/65
f 62/62/62 63/63/63 64/64/64
f 60/60/60 59/59/59 61/61/61
f 58/58/58 59/59/59 60/60/60
f 56/56/56 55/55/55 57/57/57
f 54/54/54 55/55/55 56/56/56
f 52/52/52 51/51/51 53/53/53
f 50/50/50 51/51/51 52/52/52
f 48/48/48 47/47/47 49/49/49
f 46/46/46 47/47/47 48/48/48
f 21/21/21 22/22/22 42/42/42
f 21/21/21 13/13/13 22/22/22
f 11/11/11 13/13/13 21/21/21
f 11/11/11 12/12/12 13/13/13
f 8/8/8 40/40/40 41/41/41
f 7/7/7 40/40/40 8/8/8
f 7/7/7 8/8/8 9/9/9
f 9/9/9 8/8/8 10/10/10
f 5/5/5 4/4/4 39/39/39
f 4/4/4 5/5/5 6/6/6
f 35/35/35 34/34/34 36/36/36
f 33/33/33 34/34/34 35/35/35
f 31/31/31 30/30/30 32/32/32
f 29/29/29 30/30/30 31/31/31
f 25/25/25 24/24/24 26/26/26
f 23/23/23 24/24/24 25/25/25
f 19/19/19 18/18/18 20/20/20
f 17/17/17 18/18/18 19/19/19

