#
# OBJECT NAME
#
o model_1147
mtllib 1147.mtl

#
# VERTEX BUFFER 000
#
v 0.5 1.25 -0.5
v 0 1.25 -0.5
v 0.0757169 1.21495 -0.464769
v 0 1.25 -0.5
v 0 1.25 0.5
v 0.0757169 1.21495 -0.464769
v 0.0757169 1.21495 0.5
v 0.0413644 0.933119 0.5
v 0.0757169 1.21495 0.5
v 0 0.957393 0.5
v 0 1.25 0.5
v 0.5 0 0.5
v 0.5 0.25 0.5
v 0.351143 0.25 0.5
v 0.5 0.25 0.5
v 0.5 1.25 -0.5
v 0.0757169 1.21495 -0.464769
v 0 1.25 -0.5
v 0.5 1.25 -0.5
v 0.5 1 -0.5
v 0.5 1 -0.5
v 0.351143 0.25 -0.5
v 0.0413644 0.933119 -0.5
v 0.5 0 -0.5
v 0.5 0 0.5
v -0.5 0 -0.5
v -0.5 0 0.5
v -0.5 0 0.5
v -0.351143 0.25 0.5
v 0.351143 0.25 0.5
v 0.351143 0.25 -0.5
v -0.351143 0.25 0.5
v -0.351143 0.25 -0.5
v 0.5 0 -0.5
v -0.351143 0.25 -0.5
v -0.5 0 -0.5
v 0.5 0.25 0.5
v 0 1 -0.5
v 0 0.957393 -0.5
v 0.0413644 0.933119 -0.5
v 0 0.957393 0.5
v 0.0413644 0.933119 0.5
v 0.351143 0.25 0.5
v 0.5 0.25 0.5
v 0.5 0 -0.5
v 0.5 1 -0.5
v 0.5 0 0.5
v 0.5 1.25 -0.5
v 0.5 0.25 0.5
v 0.5 1 -0.5
v 0.5 0 0.5
v 0.351143 0.25 -0.5
v 0.351143 0.25 0.5
v -0.5 1.25 -0.5
v -0.0757169 1.21495 -0.464769
v -0.0757169 1.21495 -0.464769
v -0.0757169 1.21495 0.5
v -0.0757169 1.21495 0.5
v -0.0413644 0.933119 0.5
v -0.5 0.25 0.5
v -0.5 0.25 0.5
v -0.0757169 1.21495 -0.464769
v -0.5 1.25 -0.5
v -0.5 1 -0.5
v -0.5 1.25 -0.5
v -0.5 1 -0.5
v -0.0413644 0.933119 -0.5
v -0.5 0.25 0.5
v 0 0.957393 -0.5
v 0 0.957393 0.5
v -0.0413644 0.933119 -0.5
v -0.0413644 0.933119 0.5
v -0.5 0.25 0.5
v -0.351143 0.25 0.5
v -0.5 0 -0.5
v -0.5 0 0.5
v -0.5 1 -0.5
v -0.5 0 0.5
v -0.5 0.25 0.5
v -0.5 1 -0.5
v -0.5 1.25 -0.5
v -0.351143 0.25 -0.5
v -0.351143 0.25 0.5
v -0.0688193 0.243542 0.236501
v 0.0688184 0.243542 0.236501
v -0.0688193 0.962014 0.236501
v 0.0688184 0.962014 0.236501
v -0.0688193 0.962014 0.0640268
v 0.0688184 0.962014 0.0640268
v -0.0688193 0.243542 0.0640268
v 0.0688184 0.243542 0.0640268
v -0.0688193 0.243542 0.0640268
v -0.0688193 0.243542 0.236501
v -0.0688193 0.962014 0.0640268
v -0.0688193 0.962014 0.236501
v 0.0688184 0.962014 0.236501
v 0.0688184 0.243542 0.236501
v 0.0688184 0.962014 0.0640268
v 0.0688184 0.243542 0.0640268
v -0.265878 0.438281 0.21225
v 0.265877 0.438281 0.21225
v -0.265878 0.567382 0.21225
v 0.265877 0.567382 0.21225
v -0.265878 0.567382 0.21225
v 0.265877 0.567382 0.21225
v -0.265878 0.567382 0.089335
v 0.265877 0.567382 0.089335
v -0.265878 0.567382 0.089335
v 0.265877 0.567382 0.089335
v -0.265878 0.438281 0.089335
v 0.265877 0.438281 0.089335
v -0.265878 0.438281 0.089335
v 0.265877 0.438281 0.089335
v -0.265878 0.438281 0.21225
v 0.265877 0.438281 0.21225
v 0 1 -0.5
v 0 0.957393 -0.5

vn 0 0.708496 0.705078
vn 0 0.708496 0.705078
vn 0 0.708496 0.705078
vn 0 1 0
vn 0 1 0
vn 0.820313 0.571289 0
vn 0.873047 0.487305 0
vn 0 0 1
vn 0 0 1
vn 0 0 1
vn 0 0 1
vn 0 0 1
vn 0 0 1
vn 0 0 1
vn 0.000299931 0.707031 0.707031
vn 0.000299931 0.707031 0.707031
vn 0.000299931 0.707031 0.707031
vn 0 0 -1
vn 0 0 -1
vn 0 0 -1
vn 0 0 -1
vn 0 0 -1
vn 0 0 -1
vn 0 -1 0
vn 0 -1 0
vn 0 -1 0
vn 0 -1 0
vn 0 0 1
vn 0 0 1
vn 0 1 0
vn 0 1 0
vn 0 1 0
vn 0 1 0
vn 0 0 -1
vn 0 0 -1
vn 0 0 -1
vn 0.915039 0.402344 0
vn 0 0 -1
vn 0 -1 0
vn -0.895508 -0.44458 0
vn 0 -1 0
vn -0.895508 -0.44458 0
vn 0 0 1
vn 0 0 1
vn 1 0 0
vn 1 0 0
vn 1 0 0
vn 1 0 0
vn 1 0 0
vn 1 0 0
vn 1 0 0
vn -0.910645 -0.412842 0
vn -0.910645 -0.412842 0
vn 0 0.708496 0.705078
vn 0 0.708496 0.705078
vn -0.820313 0.571289 0
vn -0.873047 0.487305 0
vn 0 0 1
vn 0 0 1
vn 0 0 1
vn -0.000299931 0.707031 0.707031
vn -0.000299931 0.707031 0.707031
vn -0.000299931 0.707031 0.707031
vn 0 0 -1
vn 0 0 -1
vn 0 0 -1
vn 0 0 -1
vn -0.915039 0.402344 0
vn 0 -1 0
vn 0 -1 0
vn 0.895508 -0.44458 0
vn 0.895508 -0.44458 0
vn 0 0 1
vn 0 0 1
vn -1 0 0
vn -1 0 0
vn -1 0 0
vn -1 0 0
vn -1 0 0
vn -1 0 0
vn -1 0 0
vn 0.910645 -0.412842 0
vn 0.910645 -0.412842 0
vn 0 0 1
vn 0 0 1
vn 0 0 1
vn 0 0 1
vn 0 0 -1
vn 0 0 -1
vn 0 0 -1
vn 0 0 -1
vn -1 0 0
vn -1 0 0
vn -1 0 0
vn -1 0 0
vn 1 0 0
vn 1 0 0
vn 1 0 0
vn 1 0 0
vn 0 0 1
vn 0 0 1
vn 0 0 1
vn 0 0 1
vn 0 1 0
vn 0 1 0
vn 0 1 0
vn 0 1 0
vn 0 0 -1
vn 0 0 -1
vn 0 0 -1
vn 0 0 -1
vn 0 -1 0
vn 0 -1 0
vn 0 -1 0
vn 0 -1 0
vn 0 0 -1
vn 0 0 -1

vt 0.263475 0.98168
vt 0.138236 0.98168
vt 0.157201 0.969232
vt 0.571597 0.740896
vt 0.571597 0.991374
vt 0.552632 0.74972
vt 0.552631 0.991375
vt 0.1454 0.747564
vt 0.154005 0.818157
vt 0.135039 0.753645
vt 0.135039 0.826937
vt 0.260279 0.490567
vt 0.260279 0.553187
vt 0.222993 0.553187
vt 0.263475 0.627449
vt 0.263475 0.98168
vt 0.157201 0.969232
vt 0.814543 0.351096
vt 0.689303 0.351096
vt 0.689303 0.288476
vt 0.689303 0.263908
vt 0.726589 0.0760484
vt 0.804182 0.247156
vt 0.738152 0.854654
vt 0.738152 0.604174
vt 0.988631 0.854654
vt 0.988631 0.604174
vt 0.00979931 0.490567
vt 0.0470849 0.553187
vt 0.20089 0.212428
vt 0.20089 0.462907
vt 0.0249814 0.212428
vt 0.0249814 0.462907
vt 0.689303 0.0134284
vt 0.902497 0.0760484
vt 0.939783 0.0134284
vt 0.288599 0.991375
vt 0.814543 0.288485
vt 0.300961 0.582029
vt 0.300961 0.571668
vt 0.551441 0.582029
vt 0.551441 0.571668
vt 0.222993 0.576457
vt 0.260279 0.576457
vt 0.37083 0.0133587
vt 0.37083 0.263838
vt 0.12035 0.0133587
vt 0.37083 0.350986
vt 0.12035 0.100506
vt 0.37083 0.288366
vt 0.12035 0.0378863
vt 0.300961 0.38379
vt 0.551441 0.38379
vt 0.0129961 0.98168
vt 0.11927 0.969232
vt 0.590563 0.749721
vt 0.590563 0.991375
vt 0.116073 0.818157
vt 0.124678 0.747564
vt 0.0097993 0.553187
vt 0.0129957 0.627449
vt 0.11927 0.969232
vt 0.0129961 0.98168
vt 0.939783 0.288476
vt 0.939783 0.351096
vt 0.939783 0.263908
vt 0.824904 0.247156
vt 0.854595 0.991375
vt 0.823067 0.582029
vt 0.572587 0.582029
vt 0.823066 0.571668
vt 0.572587 0.571668
vt 0.0097993 0.576457
vt 0.0470849 0.576457
vt 0.399785 0.0133587
vt 0.650264 0.0133588
vt 0.399785 0.263838
vt 0.650264 0.0378864
vt 0.650264 0.100506
vt 0.399785 0.288366
vt 0.399785 0.350986
vt 0.823066 0.38379
vt 0.572587 0.38379
vt 0.286492 0.611697
vt 0.320968 0.611697
vt 0.286492 0.791659
vt 0.320968 0.791659
vt 0.367557 0.791659
vt 0.333081 0.791659
vt 0.367557 0.611697
vt 0.333081 0.611697
vt 0.380073 0.611697
vt 0.423274 0.611697
vt 0.380073 0.791659
vt 0.423274 0.791659
vt 0.435388 0.791659
vt 0.435388 0.611697
vt 0.478589 0.791659
vt 0.478589 0.611697
vt 0.856478 0.450644
vt 0.989671 0.450644
vt 0.856478 0.482981
vt 0.989671 0.482981
vt 0.856478 0.542362
vt 0.989671 0.542362
vt 0.856478 0.57315
vt 0.989671 0.57315
vt 0.856478 0.407592
vt 0.989671 0.407592
vt 0.856478 0.439929
vt 0.989671 0.439929
vt 0.856478 0.499309
vt 0.989671 0.499309
vt 0.856478 0.530097
vt 0.989671 0.530097
vt 0.814543 0.263917
vt 0.814543 0.253236


#
# MESH 000
#
g surface_000
usemtl surface_000
f 75/75/75 76/76/76 77/77/77
f 61/61/61 62/62/62 63/63/63
f 54/54/54 55/55/55 2/2/2
f 45/45/45 46/46/46 47/47/47
f 15/15/15 16/16/16 17/17/17
f 1/1/1 2/2/2 3/3/3
f 114/114/114 113/113/113 115/115/115
f 112/112/112 113/113/113 114/114/114
f 110/110/110 109/109/109 111/111/111
f 108/108/108 109/109/109 110/110/110
f 106/106/106 105/105/105 107/107/107
f 104/104/104 105/105/105 106/106/106
f 102/102/102 101/101/101 103/103/103
f 100/100/100 101/101/101 102/102/102
f 98/98/98 97/97/97 99/99/99
f 96/96/96 97/97/97 98/98/98
f 94/94/94 93/93/93 95/95/95
f 92/92/92 93/93/93 94/94/94
f 90/90/90 89/89/89 91/91/91
f 88/88/88 89/89/89 90/90/90
f 86/86/86 85/85/85 87/87/87
f 84/84/84 85/85/85 86/86/86
f 82/82/82 72/72/72 83/83/83
f 71/71/71 72/72/72 82/82/82
f 71/71/71 70/70/70 72/72/72
f 69/69/69 70/70/70 71/71/71
f 80/80/80 79/79/79 81/81/81
f 78/78/78 79/79/79 80/80/80
f 59/59/59 73/73/73 74/74/74
f 58/58/58 73/73/73 59/59/59
f 10/10/10 58/58/58 59/59/59
f 11/11/11 58/58/58 10/10/10
f 10/10/10 9/9/9 11/11/11
f 8/8/8 9/9/9 10/10/10
f 8/8/8 44/44/44 9/9/9
f 43/43/43 44/44/44 8/8/8
f 57/57/57 56/56/56 68/68/68
f 5/5/5 56/56/56 57/57/57
f 4/4/4 56/56/56 5/5/5
f 4/4/4 5/5/5 6/6/6
f 6/6/6 5/5/5 7/7/7
f 37/37/37 6/6/6 7/7/7
f 18/18/18 64/64/64 65/65/65
f 64/64/64 18/18/18 38/38/38
f 20/20/20 38/38/38 18/18/18
f 18/18/18 19/19/19 20/20/20
f 28/28/28 29/29/29 60/60/60
f 28/28/28 14/14/14 29/29/29
f 12/12/12 14/14/14 28/28/28
f 12/12/12 13/13/13 14/14/14
f 42/42/42 52/52/52 53/53/53
f 40/40/40 52/52/52 42/42/42
f 41/41/41 40/40/40 42/42/42
f 39/39/39 40/40/40 41/41/41
f 50/50/50 49/49/49 51/51/51
f 48/48/48 49/49/49 50/50/50
f 32/32/32 31/31/31 33/33/33
f 30/30/30 31/31/31 32/32/32
f 26/26/26 25/25/25 27/27/27
f 24/24/24 25/25/25 26/26/26
f 66/66/66 117/117/117 67/67/67
f 116/116/116 117/117/117 66/66/66
f 116/116/116 21/21/21 117/117/117
f 21/21/21 23/23/23 117/117/117
f 21/21/21 22/22/22 23/23/23
f 21/21/21 34/34/34 22/22/22
f 22/22/22 34/34/34 35/35/35
f 66/66/66 67/67/67 35/35/35
f 66/66/66 35/35/35 36/36/36
f 35/35/35 34/34/34 36/36/36

