g b005v001_l
v 0.5 1.25 -0.5
v 0.5 0.25 0.5
v 0 1.25 -0.5
v -0.5 0.25 0.5
v -0.5 1.25 -0.5
v 0 1.25 -0.5
v 0.5 0.25 0.5
v 0 1.25 0.5
v -0.5 0.25 0.5
v 0 1.25 0.5
v 0.5 0.25 0.5
v 0.3511426 0.25 0.5
v 0 0.9573932 0.5
v -0.5 0.25 0.5
v -0.3511426 0.25 0.5
v 0.5 0 0.5
v 0.3511426 0.25 0.5
v 0.5 0.25 0.5
v -0.3511426 0.25 0.5
v -0.5 0 0.5
v -0.5 0.25 0.5
v 0.3511426 0.25 -0.5
v 0.5 0 -0.5
v 0.5 1.25 -0.5
v 0 1 -0.5
v 0 1.25 -0.5
v -0.5 1.25 -0.5
v -0.3511426 0.25 -0.5
v -0.5 0 -0.5
v 0.5 0 -0.5
v -0.5 0 -0.5
v -0.5 0 0.5
v 0.5 0 0.5
v 0.3511426 0.25 0.5
v -0.3511426 0.25 0.5
v -0.3511426 0.25 -0.5
v 0.3511426 0.25 -0.5
v 0.3511426 0.25 -0.5
v -0.3511426 0.25 -0.5
v -0.5 0 -0.5
v 0.5 0 -0.5
v 0.3511426 0.25 0.5
v 0.3511426 0.25 -0.5
v 0 1 -0.5
v 0 0.9573932 0.5
v 0.5 0 0.5
v 0.5 0.25 0.5
v 0.5 1.25 -0.5
v 0.5 0 -0.5
v -0.3511426 0.25 -0.5
v -0.3511426 0.25 0.5
v 0 0.9573932 0.5
v 0 1 -0.5
v -0.5 1.25 -0.5
v -0.5 0.25 0.5
v -0.5 0 0.5
v -0.5 0 -0.5
v -0.06881934 0.2435424 0.2365011
v -0.06881934 0.9620137 0.2365011
v 0.06881839 0.9620137 0.2365011
v 0.06881839 0.2435424 0.2365011
v -0.06881934 0.9620137 0.06402677
v -0.06881934 0.2435424 0.06402677
v 0.06881839 0.2435424 0.06402677
v 0.06881839 0.9620137 0.06402677
v -0.265878 0.4382808 0.2122501
v -0.265878 0.5673819 0.2122501
v 0.265877 0.5673819 0.2122501
v 0.265877 0.4382808 0.2122501
v -0.265878 0.5673819 0.08933504
v -0.265878 0.4382808 0.08933504
v 0.265877 0.4382808 0.08933504
v 0.265877 0.5673819 0.08933504
vt 0.2634277 0.9814453
vt 0.2634277 0.6274414
vt 0.1381836 0.9814453
vt 0.01299286 0.6274414
vt 0.01299286 0.9814453
vt 0.5717773 0.7407227
vt 0.2885742 0.9912109
vt 0.5717773 0.9912109
vt 0.8544922 0.9912109
vt 0.1350098 0.8271484
vt 0.2602539 0.5766602
vt 0.2230225 0.5766602
vt 0.1350098 0.753418
vt 0.009796143 0.5766602
vt 0.04708862 0.5766602
vt 0.2602539 0.4904785
vt 0.2230225 0.5532227
vt 0.2602539 0.5532227
vt 0.04708862 0.5532227
vt 0.009796143 0.4904785
vt 0.009796143 0.5532227
vt 0.7265625 0.0760498
vt 0.6894531 0.01342773
vt 0.6894531 0.3510742
vt 0.8144531 0.2824707
vt 0.8144531 0.3510742
vt 0.9399414 0.3510742
vt 0.9023438 0.0760498
vt 0.9399414 0.01342773
vt 0.7382813 0.8544922
vt 0.9887695 0.8544922
vt 0.9887695 0.6040039
vt 0.7382813 0.6040039
vt 0.2009277 0.2124023
vt 0.02497864 0.2124023
vt 0.02497864 0.4628906
vt 0.2009277 0.4628906
vt 0.7265625 0.0760498
vt 0.9023438 0.0760498
vt 0.9399414 0.01342773
vt 0.6894531 0.01342773
vt 0.5512695 0.3837891
vt 0.3010254 0.3837891
vt 0.3010254 0.5820313
vt 0.5512695 0.5820313
vt 0.1203613 0.01335907
vt 0.1203613 0.1005249
vt 0.3708496 0.3510742
vt 0.3708496 0.01335907
vt 0.8232422 0.3837891
vt 0.5727539 0.3837891
vt 0.5727539 0.5820313
vt 0.8232422 0.5820313
vt 0.3999023 0.3510742
vt 0.6503906 0.1005249
vt 0.6503906 0.03787231
vt 0.3999023 0.01335907
vt 0.286377 0.6118164
vt 0.286377 0.7915039
vt 0.3210449 0.7915039
vt 0.3210449 0.6118164
vt 0.3676758 0.7915039
vt 0.3676758 0.6118164
vt 0.3330078 0.6118164
vt 0.3330078 0.7915039
vt 0.8564453 0.4506836
vt 0.8564453 0.4829102
vt 0.9897461 0.4829102
vt 0.9897461 0.4506836
vt 0.8564453 0.4074707
vt 0.8564453 0.4399414
vt 0.9897461 0.4399414
vt 0.9897461 0.4074707
vn 0 0.7070313 0.7070313
vn 0 0.7070313 0.7070313
vn 0 0.7070313 0.7070313
vn 0 0.7070313 0.7070313
vn 0 0.7070313 0.7070313
vn 0 1 0
vn 0.8945313 0.4472656 0
vn 0 1 0
vn -0.8945313 0.4472656 0
vn 0 0 1
vn 0 0 1
vn 0 0 1
vn 0 0 1
vn 0 0 1
vn 0 0 1
vn 0 0 1
vn 0 0 1
vn 0 0 1
vn 0 0 1
vn 0 0 1
vn 0 0 1
vn 0 0 -1
vn 0 0 -1
vn 0 0 -1
vn 0 0 -1
vn 0 0 -1
vn 0 0 -1
vn 0 0 -1
vn 0 0 -1
vn 0 -1 0
vn 0 -1 0
vn 0 -1 0
vn 0 -1 0
vn 0 1 0
vn 0 1 0
vn 0 1 0
vn 0 1 0
vn 0 0 -1
vn 0 0 -1
vn 0 0 -1
vn 0 0 -1
vn -0.9008789 -0.434082 -0.009246826
vn -0.9008789 -0.434082 -0.009246826
vn 0 -1 -0.02130127
vn 0 -1 -0.02130127
vn 1 0 0
vn 1 0 0
vn 1 0 0
vn 1 0 0
vn 0.9008789 -0.434082 -0.009246826
vn 0.9008789 -0.434082 -0.009246826
vn 0 -1 -0.02130127
vn 0 -1 -0.02130127
vn -1 0 0
vn -1 0 0
vn -1 0 0
vn -1 0 0
vn 0 0 1
vn 0 0 1
vn 0 0 1
vn 0 0 1
vn 0 0 -1
vn 0 0 -1
vn 0 0 -1
vn 0 0 -1
vn 0 0 1
vn 0 0 1
vn 0 0 1
vn 0 0 1
vn 0 0 -1
vn 0 0 -1
vn 0 0 -1
vn 0 0 -1
g b005v001_l_0
f 3/3/3 2/2/2 1/1/1
f 5/5/5 4/4/4 3/3/3
f 8/8/8 7/7/7 6/6/6
f 6/6/6 9/9/9 8/8/8
f 12/12/12 11/11/11 10/10/10
f 13/13/13 12/12/12 10/10/10
f 10/10/10 14/14/14 13/13/13
f 14/14/14 15/15/15 13/13/13
f 18/18/18 17/17/17 16/16/16
f 17/17/17 19/19/19 16/16/16
f 19/19/19 20/20/20 16/16/16
f 19/19/19 21/21/21 20/20/20
f 24/24/24 23/23/23 22/22/22
f 25/25/25 24/24/24 22/22/22
f 25/25/25 26/26/26 24/24/24
f 26/26/26 25/25/25 27/27/27
f 25/25/25 28/28/28 27/27/27
f 28/28/28 29/29/29 27/27/27
f 32/32/32 31/31/31 30/30/30
f 33/33/33 32/32/32 30/30/30
f 36/36/36 35/35/35 34/34/34
f 37/37/37 36/36/36 34/34/34
f 40/40/40 39/39/39 38/38/38
f 41/41/41 40/40/40 38/38/38
f 44/44/44 43/43/43 42/42/42
f 45/45/45 44/44/44 42/42/42
f 48/48/48 47/47/47 46/46/46
f 49/49/49 48/48/48 46/46/46
f 52/52/52 51/51/51 50/50/50
f 53/53/53 52/52/52 50/50/50
f 56/56/56 55/55/55 54/54/54
f 57/57/57 56/56/56 54/54/54
f 60/60/60 59/59/59 58/58/58
f 61/61/61 60/60/60 58/58/58
f 64/64/64 63/63/63 62/62/62
f 65/65/65 64/64/64 62/62/62
f 68/68/68 67/67/67 66/66/66
f 69/69/69 68/68/68 66/66/66
f 72/72/72 71/71/71 70/70/70
f 73/73/73 72/72/72 70/70/70
