#
# OBJECT NAME
#
o model_1015
mtllib 1015.mtl

#
# VERTEX BUFFER 000
#
v -0.776704 0.55 0.9
v -0.776704 0 0.9
v -0.590308 0 0.9
v -0.590308 0.55 0.9
v 0.590308 0.55 0.9
v 0.590308 0 0.9
v 0.776702 0 0.9
v 0.776702 0.55 0.9
v -0.590308 0.55 -0.9
v -0.590308 0 -0.9
v -0.776704 0 -0.9
v -0.776704 0.55 -0.9
v 0.776702 0.55 -0.9
v 0.776702 0 -0.9
v 0.590308 0 -0.9
v 0.590308 0.55 -0.9
v 0.567012 0 0.876704
v 0.567012 0.55 0.876704
v 0.567012 0.55 -0.876704
v 0.567012 0 -0.876704
v 0.799998 0.55 0.876704
v 0.799998 0 0.876704
v 0.799998 0 -0.876704
v 0.799998 0.55 -0.876704
v -0.567012 0 -0.876704
v -0.567012 0.55 -0.876704
v -0.567012 0.55 0.876704
v -0.567012 0 0.876704
v -0.8 0.55 -0.876704
v -0.8 0 -0.876704
v -0.8 0 0.876704
v -0.8 0.55 0.876704
v -0.977594 0.525913 -0.977594
v 0.977594 0.525913 -0.977594
v 0.977594 0.525913 0.977594
v -0.977594 0.525913 0.977594
v 0.977594 0.54832 1
v 0.977594 0.727594 1
v -0.977594 0.727594 1
v -0.977594 0.54832 1
v -1 0.727594 0.977594
v -1 0.727594 -0.977594
v -1 0.54832 -0.977594
v -1 0.54832 0.977594
v 0.977594 0.75 0.977594
v 0.977594 0.75 -0.977594
v -0.977594 0.75 -0.977594
v -0.977594 0.75 0.977594
v 1 0.54832 0.977594
v 1 0.54832 -0.977594
v 1 0.727594 -0.977594
v 1 0.727594 0.977594
v 0.977594 0.727594 -1
v 0.977594 0.54832 -1
v -0.977594 0.54832 -1
v -0.977594 0.727594 -1
v -0.977594 0.525913 0.977594
v -0.977594 0.525913 -0.977594
v -0.977594 0.525913 0.977594
v 0.977594 0.525913 0.977594
v -1 0.54832 0.977594
v -1 0.727594 0.977594
v 1 0.727594 0.977594
v 1 0.54832 0.977594
v 0.977594 0.525913 0.977594
v 0.977594 0.525913 -0.977594
v -1 0.54832 -0.977594
v 1 0.727594 -0.977594
v 1 0.54832 -0.977594
v -0.977594 0.525913 -0.977594
v 0.977594 0.525913 -0.977594
v 0.776702 0.55 0.9
v 0.799998 0.55 0.876704
v 0.799998 0.55 -0.876704
v 0.776702 0.55 -0.9
v 0.590308 0.55 -0.9
v 0.567012 0.55 -0.876704
v 0.567012 0.55 0.876704
v 0.590308 0.55 0.9
v 0.590308 0 0.9
v 0.567012 0 0.876704
v 0.567012 0 -0.876704
v 0.590308 0 -0.9
v 0.776702 0 -0.9
v 0.799998 0 -0.876704
v 0.799998 0 0.876704
v 0.776702 0 0.9
v -0.776704 0.55 -0.9
v -0.8 0.55 -0.876704
v -0.8 0.55 0.876704
v -0.776704 0.55 0.9
v -0.590308 0.55 0.9
v -0.567012 0.55 0.876704
v -0.567012 0.55 -0.876704
v -0.590308 0.55 -0.9
v -0.590308 0 -0.9
v -0.567012 0 -0.876704
v -0.567012 0 0.876704
v -0.590308 0 0.9
v -0.776704 0 0.9
v -0.8 0 0.876704
v -0.8 0 -0.876704
v -0.776704 0 -0.9
v -0.8 0 0.876704
v -0.8 0.55 0.876704
v -0.567012 0 0.876704
v -0.567012 0.55 0.876704
v 0.799998 0 0.876704
v 0.799998 0.55 0.876704
v 0.567012 0 0.876704
v 0.567012 0.55 0.876704
v -0.8 0 -0.876704
v -0.8 0.55 -0.876704
v -0.567012 0 -0.876704
v -0.567012 0.55 -0.876704
v 0.799998 0 -0.876704
v 0.799998 0.55 -0.876704
v 0.567012 0.55 -0.876704
v 0.567012 0 -0.876704
v 0.487547 0.95106 -0.678252
v 0.472809 0.838729 -0.691842
v 0.147729 0.951061 -0.309821
v 0.132992 0.83873 -0.323411
v 0.520778 0.745124 -0.647599
v 0.18096 0.745125 -0.279169
v 0.60335 0.725079 -0.57144
v 0.263532 0.725081 -0.203009
v 0.672157 0.790336 -0.507978
v 0.332339 0.790336 -0.139547
v 0.686894 0.902668 -0.494387
v 0.347076 0.902668 -0.125957
v 0.638923 0.996272 -0.538631
v 0.299105 0.996272 -0.1702
v 0.556351 1.01632 -0.614789
v 0.216531 1.01632 -0.246359
v 0.487547 0.95106 -0.678252
v 0.147729 0.951061 -0.309821
v 0.472809 0.838729 -0.691842
v 0.487547 0.95106 -0.678252
v 0.591186 0.8707 -0.605405
v 0.520778 0.745124 -0.647599
v 0.60335 0.725079 -0.57144
v 0.672157 0.790336 -0.507978
v 0.686894 0.902668 -0.494387
v 0.638923 0.996272 -0.538631
v 0.556351 1.01632 -0.614789
v 0.147729 0.951061 -0.309821
v 0.132992 0.83873 -0.323411
v 0.228698 0.870698 -0.212391
v 0.18096 0.745125 -0.279169
v 0.263532 0.725081 -0.203009
v 0.332339 0.790336 -0.139547
v 0.347076 0.902668 -0.125957
v 0.299105 0.996272 -0.1702
v 0.216531 1.01632 -0.246359
v 0.82638 0.727703 0.0458801
v 0.896836 0.727704 -0.0305023
v 0.83486 0.792346 0.0537028
v 0.905311 0.792346 -0.022682
v 0.83486 0.792346 0.0537028
v 0.905311 0.792346 -0.022682
v 0.216119 0.961978 -0.516987
v 0.28657 0.961977 -0.593373
v 0.216119 0.961978 -0.516987
v 0.28657 0.961977 -0.593373
v 0.2027 0.859679 -0.529365
v 0.27315 0.85968 -0.60575
v 0.2027 0.859679 -0.529365
v 0.27315 0.85968 -0.60575
v 0.82638 0.727703 0.0458801
v 0.896836 0.727704 -0.0305023
v 0.896836 0.727704 -0.0305023
v 0.27315 0.85968 -0.60575
v 0.905311 0.792346 -0.022682
v 0.28657 0.961977 -0.593373
v 0.2027 0.859679 -0.529365
v 0.82638 0.727703 0.0458801
v 0.216119 0.961978 -0.516987
v 0.83486 0.792346 0.0537028

vn -0.110413 0 0.993652
vn -0.110413 0 0.993652
vn 0.110413 0 0.993652
vn 0.110413 0 0.993652
vn -0.110413 0 0.993652
vn -0.110413 0 0.993652
vn 0.110413 0 0.993652
vn 0.110413 0 0.993652
vn 0.110413 0 -0.993652
vn 0.110413 0 -0.993652
vn -0.110413 0 -0.993652
vn -0.110413 0 -0.993652
vn 0.110413 0 -0.993652
vn 0.110413 0 -0.993652
vn -0.110413 0 -0.993652
vn -0.110413 0 -0.993652
vn -0.999512 0 0.0131073
vn -0.999512 0 0.0131073
vn -0.999512 0 -0.0131073
vn -0.999512 0 -0.0131073
vn 0.999512 0 0.0131073
vn 0.999512 0 0.0131073
vn 0.999512 0 -0.0131073
vn 0.999512 0 -0.0131073
vn 0.999512 0 -0.0131073
vn 0.999512 0 -0.0131073
vn 0.999512 0 0.0131073
vn 0.999512 0 0.0131073
vn -0.999512 0 -0.0131073
vn -0.999512 0 -0.0131073
vn -0.999512 0 0.0131073
vn -0.999512 0 0.0131073
vn -0.0112381 -0.999512 -0.0112381
vn 0.0112381 -0.999512 -0.0112381
vn 0.0112381 -0.999512 0.0112381
vn -0.0112381 -0.999512 0.0112381
vn 0.0104294 -0.10968 0.993652
vn 0.0104294 0.10968 0.993652
vn -0.0104294 0.10968 0.993652
vn -0.0104294 -0.10968 0.993652
vn -0.993652 0.10968 0.0104294
vn -0.993652 0.10968 -0.0104294
vn -0.993652 -0.10968 -0.0104294
vn -0.993652 -0.10968 0.0104294
vn 0.0112381 0.999512 0.0112381
vn 0.0112381 0.999512 -0.0112381
vn -0.0112381 0.999512 -0.0112381
vn -0.0112381 0.999512 0.0112381
vn 0.993652 -0.10968 0.0104294
vn 0.993652 -0.10968 -0.0104294
vn 0.993652 0.10968 -0.0104294
vn 0.993652 0.10968 0.0104294
vn 0.0104294 0.10968 -0.993652
vn 0.0104294 -0.10968 -0.993652
vn -0.0104294 -0.10968 -0.993652
vn -0.0104294 0.10968 -0.993652
vn -0.0112381 -0.999512 0.0112381
vn -0.0112381 -0.999512 -0.0112381
vn -0.0112381 -0.999512 0.0112381
vn 0.0112381 -0.999512 0.0112381
vn -0.993652 -0.10968 0.0104294
vn -0.993652 0.10968 0.0104294
vn 0.993652 0.10968 0.0104294
vn 0.993652 -0.10968 0.0104294
vn 0.0112381 -0.999512 0.0112381
vn 0.0112381 -0.999512 -0.0112381
vn -0.993652 -0.10968 -0.0104294
vn 0.993652 0.10968 -0.0104294
vn 0.993652 -0.10968 -0.0104294
vn -0.0112381 -0.999512 -0.0112381
vn 0.0112381 -0.999512 -0.0112381
vn 0 1 0
vn 0 1 0
vn 0 1 0
vn 0 1 0
vn 0 1 0
vn 0 1 0
vn 0 1 0
vn 0 1 0
vn 0 -1 0
vn 0 -1 0
vn 0 -1 0
vn 0 -1 0
vn 0 -1 0
vn 0 -1 0
vn 0 -1 0
vn 0 -1 0
vn 0 1 0
vn 0 1 0
vn 0 1 0
vn 0 1 0
vn 0 1 0
vn 0 1 0
vn 0 1 0
vn 0 1 0
vn 0 -1 0
vn 0 -1 0
vn 0 -1 0
vn 0 -1 0
vn 0 -1 0
vn 0 -1 0
vn 0 -1 0
vn 0 -1 0
vn -0.999512 0 0.0131073
vn -0.999512 0 0.0131073
vn 0.999512 0 0.0131073
vn 0.999512 0 0.0131073
vn 0.999512 0 0.0131073
vn 0.999512 0 0.0131073
vn -0.999512 0 0.0131073
vn -0.999512 0 0.0131073
vn -0.999512 0 -0.0131073
vn -0.999512 0 -0.0131073
vn 0.999512 0 -0.0131073
vn 0.999512 0 -0.0131073
vn 0.999512 0 -0.0131073
vn 0.999512 0 -0.0131073
vn -0.999512 0 -0.0131073
vn -0.999512 0 -0.0131073
vn -0.619141 0.538574 -0.570801
vn -0.717773 -0.214355 -0.662109
vn -0.619141 0.538574 -0.570801
vn -0.717773 -0.214355 -0.662109
vn -0.395996 -0.842285 -0.365234
vn -0.395996 -0.842285 -0.365234
vn 0.157593 -0.976563 0.145264
vn 0.157593 -0.976563 0.145264
vn 0.618652 -0.538574 0.570801
vn 0.618652 -0.538574 0.570801
vn 0.717773 0.214355 0.662109
vn 0.717773 0.214355 0.662109
vn 0.395996 0.842285 0.365234
vn 0.395996 0.842285 0.365234
vn -0.157593 0.976563 -0.145386
vn -0.157593 0.976563 -0.145386
vn -0.619141 0.538574 -0.570801
vn -0.619141 0.538574 -0.570801
vn 0.593262 -0.0238953 -0.804199
vn 0.604492 0.0600586 -0.793945
vn 0.677734 -3.45707e-006 -0.734863
vn 0.629395 -0.093811 -0.770996
vn 0.690918 -0.108826 -0.713867
vn 0.742676 -0.0600586 -0.666504
vn 0.753418 0.02388 -0.65625
vn 0.717773 0.093811 -0.689453
vn 0.655762 0.108826 -0.746582
vn -0.742676 0.0600586 0.666504
vn -0.753418 -0.02388 0.65625
vn -0.677734 2.08616e-006 0.734863
vn -0.717773 -0.0938721 0.689453
vn -0.655762 -0.108826 0.746582
vn -0.604492 -0.0600586 0.793945
vn -0.593262 0.0238953 0.804199
vn -0.629395 0.0938721 0.770996
vn -0.690918 0.108826 0.713867
vn 0.723633 -0.175537 0.666992
vn 0.723633 -0.175537 0.666992
vn 0.723633 -0.175537 0.666992
vn 0.723633 -0.175537 0.666992
vn 0.145142 0.97998 0.133911
vn 0.145142 0.97998 0.133911
vn 0.145142 0.97998 0.133911
vn 0.145142 0.97998 0.133911
vn -0.723633 0.175659 -0.666992
vn -0.723633 0.175659 -0.666992
vn -0.723633 0.175659 -0.666992
vn -0.723633 0.175659 -0.666992
vn -0.112915 -0.987793 -0.104187
vn -0.112915 -0.987793 -0.104187
vn -0.112915 -0.987793 -0.104187
vn -0.112915 -0.987793 -0.104187
vn 0.677734 1.21593e-005 -0.734863
vn 0.677734 1.21593e-005 -0.734863
vn 0.677734 1.21593e-005 -0.734863
vn 0.677734 1.21593e-005 -0.734863
vn -0.677734 -1.11461e-005 0.734863
vn -0.677734 -1.11461e-005 0.734863
vn -0.677734 -1.11461e-005 0.734863
vn -0.677734 -1.11461e-005 0.734863

vt 0.149822 0.0649292
vt 0.00773856 0.0649292
vt 0.0077385 0.0150769
vt 0.149822 0.0150769
vt 0.149822 0.146725
vt 0.0077385 0.146725
vt 0.00773856 0.0953971
vt 0.149822 0.0953971
vt 0.149822 0.146725
vt 0.0077385 0.146725
vt 0.00773856 0.0953971
vt 0.149822 0.0953971
vt 0.149822 0.0649292
vt 0.00773856 0.0649292
vt 0.0077385 0.0150769
vt 0.149822 0.015077
vt 0.53253 0.724566
vt 0.53253 0.877149
vt 0.988833 0.877149
vt 0.988833 0.724566
vt 0.317019 0.464371
vt 0.164436 0.464371
vt 0.164436 0.00806838
vt 0.317019 0.00806838
vt 0.988833 0.724566
vt 0.988833 0.877149
vt 0.53253 0.877149
vt 0.53253 0.724566
vt 0.317019 0.00806838
vt 0.164436 0.00806838
vt 0.164436 0.464371
vt 0.317019 0.464371
vt 0.00259194 0.99654
vt 0.371131 0.99654
vt 0.371131 0.628001
vt 0.00259194 0.628001
vt 0.927992 0.0211084
vt 0.927992 0.069103
vt 0.399654 0.069103
vt 0.399654 0.0211083
vt 0.393599 0.0754336
vt 0.393599 0.60579
vt 0.34828 0.603772
vt 0.34828 0.0754336
vt 0.927992 0.0754339
vt 0.927992 0.603772
vt 0.399654 0.603772
vt 0.399654 0.0754339
vt 0.979373 0.0754336
vt 0.979372 0.603772
vt 0.934047 0.603772
vt 0.934047 0.0754336
vt 0.927993 0.611063
vt 0.927993 0.658074
vt 0.399654 0.658074
vt 0.399654 0.611063
vt 0.341261 0.0754339
vt 0.341261 0.603772
vt 0.399654 0.0146173
vt 0.927992 0.0146173
vt 0.393599 0.0211083
vt 0.393599 0.069103
vt 0.934047 0.069103
vt 0.934047 0.0211083
vt 0.986251 0.075434
vt 0.98625 0.603772
vt 0.393599 0.658074
vt 0.934047 0.60579
vt 0.934047 0.658075
vt 0.399654 0.664071
vt 0.927992 0.664071
vt 0.890942 0.98227
vt 0.884496 0.989522
vt 0.399318 0.989522
vt 0.392872 0.98227
vt 0.392872 0.924247
vt 0.399318 0.916994
vt 0.884496 0.916994
vt 0.890942 0.924247
vt 0.891869 0.923594
vt 0.885358 0.916269
vt 0.395326 0.916269
vt 0.388815 0.923594
vt 0.388815 0.982198
vt 0.395326 0.989522
vt 0.885358 0.989522
vt 0.891869 0.982198
vt 0.392872 0.924247
vt 0.399318 0.916995
vt 0.884496 0.916995
vt 0.890942 0.924247
vt 0.890942 0.982271
vt 0.884496 0.989523
vt 0.399318 0.989523
vt 0.392872 0.982271
vt 0.388815 0.982198
vt 0.395326 0.989523
vt 0.885358 0.989523
vt 0.891869 0.982198
vt 0.891869 0.923594
vt 0.885358 0.916269
vt 0.395326 0.916269
vt 0.388815 0.923594
vt 0.00773856 0.07116
vt 0.149822 0.07116
vt 0.00773856 0.00884622
vt 0.149822 0.0088461
vt 0.00773856 0.0889818
vt 0.149822 0.0889817
vt 0.00773856 0.15314
vt 0.149822 0.15314
vt 0.00773856 0.0889818
vt 0.149822 0.0889817
vt 0.00773856 0.15314
vt 0.149822 0.15314
vt 0.00773856 0.07116
vt 0.149822 0.07116
vt 0.149822 0.0088461
vt 0.00773856 0.00884622
vt 0.145269 0.187112
vt 0.145269 0.218698
vt 0.00827128 0.187112
vt 0.00827938 0.218742
vt 0.145269 0.249899
vt 0.00825244 0.249899
vt 0.145269 0.281093
vt 0.00820595 0.281094
vt 0.145217 0.312112
vt 0.00816756 0.312112
vt 0.145166 0.343698
vt 0.00817567 0.343742
vt 0.145166 0.374899
vt 0.00814849 0.374899
vt 0.145166 0.406093
vt 0.00810224 0.406094
vt 0.145166 0.437112
vt 0.00806385 0.437112
vt 0.0920387 0.576015
vt 0.0632106 0.587941
vt 0.0629168 0.547171
vt 0.10388 0.547171
vt 0.0919329 0.518305
vt 0.0631329 0.506325
vt 0.0339884 0.51825
vt 0.0219544 0.547171
vt 0.034122 0.575961
vt 0.0219544 0.547171
vt 0.0339884 0.51825
vt 0.0629178 0.547171
vt 0.0631329 0.506325
vt 0.0919324 0.518305
vt 0.10388 0.547171
vt 0.0920387 0.576015
vt 0.0632101 0.58794
vt 0.0341217 0.575961
vt 0.128605 0.520689
vt 0.158776 0.520689
vt 0.128605 0.539695
vt 0.158776 0.539694
vt 0.458622 0.681294
vt 0.488838 0.681294
vt 0.458667 0.898008
vt 0.488838 0.898008
vt 0.15644 0.584437
vt 0.126364 0.584437
vt 0.15644 0.55087
vt 0.126364 0.55087
vt 0.488838 0.898008
vt 0.458667 0.898008
vt 0.488838 0.681294
vt 0.458622 0.681294
vt 0.441231 0.681294
vt 0.447266 0.898008
vt 0.422136 0.681294
vt 0.41719 0.898008
vt 0.41719 0.898008
vt 0.422137 0.681294
vt 0.447266 0.898008
vt 0.441231 0.681294


#
# MESH 000
#
g surface_000
usemtl surface_000
f 118/118/118 15/15/15 119/119/119
f 118/118/118 16/16/16 15/15/15
f 13/13/13 15/15/15 16/16/16
f 13/13/13 14/14/14 15/15/15
f 116/116/116 14/14/14 13/13/13
f 116/116/116 13/13/13 117/117/117
f 114/114/114 9/9/9 115/115/115
f 114/114/114 10/10/10 9/9/9
f 9/9/9 10/10/10 11/11/11
f 9/9/9 11/11/11 12/12/12
f 11/11/11 113/113/113 12/12/12
f 11/11/11 112/112/112 113/113/113
f 110/110/110 5/5/5 111/111/111
f 110/110/110 6/6/6 5/5/5
f 5/5/5 6/6/6 7/7/7
f 5/5/5 7/7/7 8/8/8
f 7/7/7 109/109/109 8/8/8
f 7/7/7 108/108/108 109/109/109
f 3/3/3 106/106/106 107/107/107
f 3/3/3 107/107/107 4/4/4
f 1/1/1 3/3/3 4/4/4
f 1/1/1 2/2/2 3/3/3
f 104/104/104 2/2/2 1/1/1
f 104/104/104 1/1/1 105/105/105
f 96/96/96 102/102/102 103/103/103
f 96/96/96 101/101/101 102/102/102
f 96/96/96 100/100/100 101/101/101
f 96/96/96 99/99/99 100/100/100
f 96/96/96 98/98/98 99/99/99
f 96/96/96 97/97/97 98/98/98
f 88/88/88 94/94/94 95/95/95
f 88/88/88 93/93/93 94/94/94
f 88/88/88 92/92/92 93/93/93
f 88/88/88 91/91/91 92/92/92
f 88/88/88 90/90/90 91/91/91
f 88/88/88 89/89/89 90/90/90
f 80/80/80 86/86/86 87/87/87
f 80/80/80 85/85/85 86/86/86
f 80/80/80 84/84/84 85/85/85
f 80/80/80 83/83/83 84/84/84
f 80/80/80 82/82/82 83/83/83
f 80/80/80 81/81/81 82/82/82
f 72/72/72 78/78/78 79/79/79
f 72/72/72 77/77/77 78/78/78
f 72/72/72 76/76/76 77/77/77
f 72/72/72 75/75/75 76/76/76
f 72/72/72 74/74/74 75/75/75
f 72/72/72 73/73/73 74/74/74
f 49/49/49 65/65/65 66/66/66
f 49/49/49 66/66/66 50/50/50
f 49/49/49 50/50/50 51/51/51
f 49/49/49 51/51/51 52/52/52
f 45/45/45 52/52/52 51/51/51
f 45/45/45 51/51/51 46/46/46
f 45/45/45 46/46/46 47/47/47
f 45/45/45 47/47/47 48/48/48
f 48/48/48 38/38/38 45/45/45
f 63/63/63 45/45/45 38/38/38
f 63/63/63 38/38/38 37/37/37
f 63/63/63 37/37/37 64/64/64
f 60/60/60 64/64/64 37/37/37
f 56/56/56 47/47/47 46/46/46
f 56/56/56 42/42/42 47/47/47
f 41/41/41 47/47/47 42/42/42
f 41/41/41 48/48/48 47/47/47
f 56/56/56 46/46/46 53/53/53
f 53/53/53 55/55/55 56/56/56
f 42/42/42 56/56/56 55/55/55
f 42/42/42 55/55/55 67/67/67
f 70/70/70 67/67/67 55/55/55
f 70/70/70 55/55/55 54/54/54
f 70/70/70 54/54/54 71/71/71
f 69/69/69 71/71/71 54/54/54
f 68/68/68 53/53/53 46/46/46
f 53/53/53 68/68/68 69/69/69
f 53/53/53 69/69/69 54/54/54
f 53/53/53 54/54/54 55/55/55
f 41/41/41 42/42/42 43/43/43
f 41/41/41 43/43/43 44/44/44
f 57/57/57 44/44/44 43/43/43
f 57/57/57 43/43/43 58/58/58
f 33/33/33 35/35/35 36/36/36
f 33/33/33 34/34/34 35/35/35
f 29/29/29 31/31/31 32/32/32
f 29/29/29 30/30/30 31/31/31
f 25/25/25 27/27/27 28/28/28
f 25/25/25 26/26/26 27/27/27
f 21/21/21 23/23/23 24/24/24
f 21/21/21 22/22/22 23/23/23
f 17/17/17 19/19/19 20/20/20
f 17/17/17 18/18/18 19/19/19
f 40/40/40 60/60/60 37/37/37
f 40/40/40 59/59/59 60/60/60
f 61/61/61 59/59/59 40/40/40
f 61/61/61 40/40/40 39/39/39
f 61/61/61 39/39/39 62/62/62
f 48/48/48 62/62/62 39/39/39
f 48/48/48 39/39/39 38/38/38
f 37/37/37 39/39/39 40/40/40
f 37/37/37 38/38/38 39/39/39
f 178/178/178 177/177/177 179/179/179
f 176/176/176 177/177/177 178/178/178
f 174/174/174 173/173/173 175/175/175
f 172/172/172 173/173/173 174/174/174
f 170/170/170 169/169/169 171/171/171
f 168/168/168 169/169/169 170/170/170
f 166/166/166 165/165/165 167/167/167
f 164/164/164 165/165/165 166/166/166
f 162/162/162 161/161/161 163/163/163
f 160/160/160 161/161/161 162/162/162
f 158/158/158 157/157/157 159/159/159
f 156/156/156 157/157/157 158/158/158
f 135/135/135 136/136/136 137/137/137
f 134/134/134 136/136/136 135/135/135
f 133/133/133 134/134/134 135/135/135
f 132/132/132 134/134/134 133/133/133
f 131/131/131 132/132/132 133/133/133
f 130/130/130 132/132/132 131/131/131
f 129/129/129 130/130/130 131/131/131
f 128/128/128 130/130/130 129/129/129
f 127/127/127 128/128/128 129/129/129
f 126/126/126 128/128/128 127/127/127
f 125/125/125 126/126/126 127/127/127
f 124/124/124 126/126/126 125/125/125
f 123/123/123 124/124/124 125/125/125
f 121/121/121 124/124/124 123/123/123
f 122/122/122 121/121/121 123/123/123
f 120/120/120 121/121/121 122/122/122
f 155/155/155 147/147/147 149/149/149
f 147/147/147 148/148/148 149/149/149
f 148/148/148 150/150/150 149/149/149
f 150/150/150 151/151/151 149/149/149
f 151/151/151 152/152/152 149/149/149
f 152/152/152 153/153/153 149/149/149
f 153/153/153 154/154/154 149/149/149
f 154/154/154 155/155/155 149/149/149
f 139/139/139 146/146/146 140/140/140
f 146/146/146 145/145/145 140/140/140
f 145/145/145 144/144/144 140/140/140
f 144/144/144 143/143/143 140/140/140
f 143/143/143 142/142/142 140/140/140
f 142/142/142 141/141/141 140/140/140
f 141/141/141 138/138/138 140/140/140
f 138/138/138 139/139/139 140/140/140

