#
# OBJECT NAME
#
o model_1017
mtllib 1017.mtl

#
# VERTEX BUFFER 000
#
v -0.788352 0.55 0.888352
v -0.776704 0 0.9
v -0.57866 0 0.888352
v -0.57866 0.55 0.888352
v 0.57866 0.55 0.888352
v 0.57866 0 0.888352
v 0.776702 0 0.9
v 0.78835 0.55 0.888352
v -0.57866 0.55 -0.888352
v -0.57866 0 -0.888352
v -0.776704 0 -0.9
v -0.788352 0.55 -0.888352
v 0.78835 0.55 -0.888352
v 0.776702 0 -0.9
v 0.57866 0 -0.888352
v 0.57866 0.55 -0.888352
v 0.57866 0 0.888352
v 0.57866 0.55 0.888352
v 0.57866 0.55 -0.888352
v 0.57866 0 -0.888352
v 0.78835 0.55 0.888352
v 0.799998 0 0.876704
v 0.799998 0 -0.876704
v 0.78835 0.55 -0.888352
v -0.57866 0 -0.888352
v -0.57866 0.55 -0.888352
v -0.57866 0.55 0.888352
v -0.57866 0 0.888352
v -0.788352 0.55 -0.888352
v -0.8 0 -0.876704
v -0.8 0 0.876704
v -0.788352 0.55 0.888352
v -0.977594 0.525913 -0.977594
v 0.977594 0.525913 -0.977594
v 0.977594 0.525913 0.977594
v -0.977594 0.525913 0.977594
v 0.988797 0.54832 0.988797
v 0.988797 0.727594 0.988797
v -0.988797 0.727594 0.988797
v -0.988797 0.54832 0.988797
v -0.988797 0.727594 0.988797
v -0.988797 0.727594 -0.988797
v -0.988797 0.54832 -0.988797
v -0.988797 0.54832 0.988797
v 0.977594 0.75 0.977594
v 0.977594 0.75 -0.977594
v -0.977594 0.75 -0.977594
v -0.977594 0.75 0.977594
v 0.988797 0.54832 0.988797
v 0.988797 0.54832 -0.988797
v 0.988797 0.727594 -0.988797
v 0.988797 0.727594 0.988797
v 0.988797 0.727594 -0.988797
v 0.988797 0.54832 -0.988797
v -0.988797 0.54832 -0.988797
v -0.988797 0.727594 -0.988797
v -0.977594 0.525913 0.977594
v -0.977594 0.525913 -0.977594
v -0.977594 0.525913 0.977594
v 0.977594 0.525913 0.977594
v 0.977594 0.525913 0.977594
v 0.977594 0.525913 -0.977594
v -0.977594 0.525913 -0.977594
v 0.977594 0.525913 -0.977594
v 0.57866 0 0.888352
v 0.57866 0 -0.888352
v 0.776702 0 -0.9
v 0.799998 0 -0.876704
v 0.799998 0 0.876704
v 0.776702 0 0.9
v -0.57866 0 -0.888352
v -0.57866 0 0.888352
v -0.776704 0 0.9
v -0.8 0 0.876704
v -0.8 0 -0.876704
v -0.776704 0 -0.9
v -0.8 0 0.876704
v 0.799998 0 0.876704
v -0.8 0 -0.876704
v 0.799998 0 -0.876704
v 0.487547 0.95106 -0.678252
v 0.47281 0.838729 -0.691842
v 0.147729 0.951061 -0.309821
v 0.132992 0.83873 -0.323412
v 0.520778 0.745124 -0.647599
v 0.18096 0.745125 -0.279169
v 0.60335 0.72508 -0.57144
v 0.263532 0.725081 -0.20301
v 0.672157 0.790336 -0.507978
v 0.332339 0.790336 -0.139547
v 0.686894 0.902668 -0.494387
v 0.347076 0.902668 -0.125957
v 0.638923 0.996272 -0.538631
v 0.299105 0.996272 -0.170201
v 0.556351 1.01632 -0.614789
v 0.216532 1.01632 -0.246359
v 0.487547 0.95106 -0.678252
v 0.147729 0.951061 -0.309821
v 0.47281 0.838729 -0.691842
v 0.487547 0.95106 -0.678252
v 0.59612 0.8707 -0.610756
v 0.520778 0.745124 -0.647599
v 0.60335 0.72508 -0.57144
v 0.672157 0.790336 -0.507978
v 0.686894 0.902668 -0.494387
v 0.638923 0.996272 -0.538631
v 0.556351 1.01632 -0.614789
v 0.147729 0.951061 -0.309821
v 0.132992 0.83873 -0.323412
v 0.223763 0.870698 -0.207041
v 0.18096 0.745125 -0.279169
v 0.263532 0.725081 -0.20301
v 0.332339 0.790336 -0.139547
v 0.347076 0.902668 -0.125957
v 0.299105 0.996272 -0.170201
v 0.216532 1.01632 -0.246359
v 0.82638 0.727703 0.04588
v 0.896836 0.727704 -0.0305024
v 0.83486 0.792346 0.0537027
v 0.905311 0.792346 -0.0226821
v 0.83486 0.792346 0.0537027
v 0.905311 0.792346 -0.0226821
v 0.216119 0.961978 -0.516987
v 0.28657 0.961977 -0.593373
v 0.216119 0.961978 -0.516987
v 0.28657 0.961977 -0.593373
v 0.2027 0.859679 -0.529365
v 0.273149 0.85968 -0.60575
v 0.2027 0.859679 -0.529365
v 0.273149 0.85968 -0.60575
v 0.82638 0.727703 0.04588
v 0.896836 0.727704 -0.0305024
v 0.896836 0.727704 -0.0305024
v 0.273149 0.85968 -0.60575
v 0.905311 0.792346 -0.0226821
v 0.28657 0.961977 -0.593373
v 0.2027 0.859679 -0.529365
v 0.82638 0.727703 0.04588
v 0.216119 0.961978 -0.516987
v 0.83486 0.792346 0.0537027

vn -0.992676 0.0223389 0.115295
vn -0.0253601 0.0103149 0.999512
vn 0.0285492 0.0108795 0.999512
vn 0.0285492 0.0108795 0.999512
vn -0.0285492 0.0108795 0.999512
vn -0.0285492 0.0108795 0.999512
vn 0.0253601 0.0103149 0.999512
vn 0.992676 0.0223389 0.115295
vn 0.0285492 0.0108795 -0.999512
vn 0.0285492 0.0108795 -0.999512
vn -0.0253601 0.0103149 -0.999512
vn -0.992676 0.0223389 -0.115295
vn 0.992676 0.0223389 -0.115295
vn 0.0253601 0.0103149 -0.999512
vn -0.0285492 0.0108795 -0.999512
vn -0.0285492 0.0108795 -0.999512
vn -1 0 0
vn -1 0 0
vn -1 0 0
vn -1 0 0
vn 0.992676 0.0223389 0.115295
vn 0.999512 0.0210266 0.00634384
vn 0.999512 0.0210266 -0.00634384
vn 0.992676 0.0223389 -0.115295
vn 1 0 0
vn 1 0 0
vn 1 0 0
vn 1 0 0
vn -0.992676 0.0223389 -0.115295
vn -0.999512 0.0210266 -0.00634384
vn -0.999512 0.0210266 0.00634384
vn -0.992676 0.0223389 0.115295
vn 0 -1 0
vn 0 -1 0
vn 0 -1 0
vn 0 -1 0
vn 0 -0.0416565 0.999023
vn 0 0.0416565 0.999023
vn 0 0.0416565 0.999023
vn 0 -0.0416565 0.999023
vn -0.999023 0.0416565 0
vn -0.999023 0.0416565 0
vn -0.999023 -0.0416565 0
vn -0.999023 -0.0416565 0
vn 0.0143967 0.999512 0.0143967
vn 0.0143967 0.999512 -0.0143967
vn -0.0143967 0.999512 -0.0143967
vn -0.0143967 0.999512 0.0143967
vn 0.999023 -0.0416565 0
vn 0.999023 -0.0416565 0
vn 0.999023 0.0416565 0
vn 0.999023 0.0416565 0
vn 0 0.0416565 -0.999023
vn 0 -0.0416565 -0.999023
vn 0 -0.0416565 -0.999023
vn 0 0.0416565 -0.999023
vn -0.894043 -0.447021 0
vn -0.894043 -0.447021 0
vn 0 -0.447021 0.894043
vn 0 -0.447021 0.894043
vn 0.894043 -0.447021 0
vn 0.894043 -0.447021 0
vn 0 -0.447021 -0.894043
vn 0 -0.447021 -0.894043
vn 0 -1 0
vn 0 -1 0
vn 0 -1 0
vn 0 -1 0
vn 0 -1 0
vn 0 -1 0
vn 0 -1 0
vn 0 -1 0
vn 0 -1 0
vn 0 -1 0
vn 0 -1 0
vn 0 -1 0
vn -0.999512 0.0210266 0.00634384
vn 0.999512 0.0210266 0.00634384
vn -0.999512 0.0210266 -0.00634384
vn 0.999512 0.0210266 -0.00634384
vn -0.618652 0.538574 -0.570801
vn -0.717773 -0.214355 -0.662109
vn -0.618652 0.538574 -0.570801
vn -0.717773 -0.214355 -0.662109
vn -0.395996 -0.842285 -0.365234
vn -0.395996 -0.842285 -0.365234
vn 0.157593 -0.976563 0.145264
vn 0.157593 -0.976563 0.145264
vn 0.618652 -0.538574 0.570801
vn 0.618652 -0.538574 0.570801
vn 0.717773 0.214355 0.662109
vn 0.717773 0.214355 0.662109
vn 0.395996 0.842285 0.365234
vn 0.395996 0.842285 0.365234
vn -0.157593 0.976563 -0.145386
vn -0.157593 0.976563 -0.145386
vn -0.618652 0.538574 -0.570801
vn -0.618652 0.538574 -0.570801
vn 0.555176 -0.0340576 -0.830566
vn 0.570801 0.0856323 -0.816406
vn 0.677734 -3.09944e-006 -0.734863
vn 0.605957 -0.133789 -0.783691
vn 0.694336 -0.155151 -0.702148
vn 0.767578 -0.0856323 -0.634766
vn 0.783203 0.0340576 -0.620117
vn 0.731934 0.133789 -0.66748
vn 0.644043 0.155151 -0.748535
vn -0.767578 0.0856323 0.634766
vn -0.783203 -0.0340576 0.620117
vn -0.677734 1.60933e-006 0.734863
vn -0.731934 -0.133789 0.66748
vn -0.644043 -0.155151 0.748535
vn -0.570801 -0.0856323 0.816406
vn -0.555176 0.0340576 0.830566
vn -0.605957 0.133789 0.783691
vn -0.694336 0.155151 0.702148
vn 0.723633 -0.175537 0.666992
vn 0.723633 -0.175537 0.666992
vn 0.723633 -0.175537 0.666992
vn 0.723633 -0.175537 0.666992
vn 0.145142 0.97998 0.133911
vn 0.145142 0.97998 0.133911
vn 0.145142 0.97998 0.133911
vn 0.145142 0.97998 0.133911
vn -0.723633 0.175659 -0.666992
vn -0.723633 0.175659 -0.666992
vn -0.723633 0.175659 -0.666992
vn -0.723633 0.175659 -0.666992
vn -0.112976 -0.987793 -0.104187
vn -0.112976 -0.987793 -0.104187
vn -0.112976 -0.987793 -0.104187
vn -0.112976 -0.987793 -0.104187
vn 0.677734 1.17421e-005 -0.734863
vn 0.677734 1.17421e-005 -0.734863
vn 0.677734 1.17421e-005 -0.734863
vn 0.677734 1.17421e-005 -0.734863
vn -0.677734 -1.00732e-005 0.734863
vn -0.677734 -1.00732e-005 0.734863
vn -0.677734 -1.00732e-005 0.734863
vn -0.677734 -1.00732e-005 0.734863

vt 0.149822 0.0680445
vt 0.00773856 0.0649292
vt 0.00773853 0.0119616
vt 0.149822 0.0119615
vt 0.149822 0.149933
vt 0.00773853 0.149932
vt 0.00773856 0.0953971
vt 0.149822 0.0921894
vt 0.149822 0.149933
vt 0.00773853 0.149932
vt 0.00773856 0.0953971
vt 0.149822 0.0921894
vt 0.149822 0.0680445
vt 0.00773856 0.0649292
vt 0.00773853 0.0119616
vt 0.149822 0.0119616
vt 0.53253 0.724566
vt 0.53253 0.877149
vt 0.988833 0.877149
vt 0.988833 0.724566
vt 0.317019 0.464371
vt 0.164436 0.464371
vt 0.164436 0.00806838
vt 0.317019 0.00806838
vt 0.988833 0.724566
vt 0.988833 0.877149
vt 0.53253 0.877149
vt 0.53253 0.724566
vt 0.317019 0.00806838
vt 0.164436 0.00806838
vt 0.164436 0.464371
vt 0.317019 0.464371
vt 0.00259194 0.99654
vt 0.371131 0.99654
vt 0.371131 0.628001
vt 0.00259194 0.628001
vt 0.93102 0.0211084
vt 0.93102 0.069103
vt 0.396627 0.069103
vt 0.396627 0.0211083
vt 0.393599 0.0754336
vt 0.393599 0.60579
vt 0.34828 0.603772
vt 0.34828 0.0754336
vt 0.927992 0.0754339
vt 0.927992 0.603772
vt 0.399654 0.603772
vt 0.399654 0.0754339
vt 0.979373 0.0754336
vt 0.979372 0.603772
vt 0.934047 0.603772
vt 0.934047 0.0754336
vt 0.93102 0.608427
vt 0.93102 0.658075
vt 0.396626 0.658074
vt 0.396626 0.608427
vt 0.341261 0.0754339
vt 0.341261 0.603772
vt 0.399654 0.0146173
vt 0.927992 0.0146173
vt 0.986251 0.075434
vt 0.98625 0.603772
vt 0.399654 0.664071
vt 0.927992 0.664071
vt 0.888613 0.919931
vt 0.39207 0.919931
vt 0.388815 0.982198
vt 0.395326 0.989522
vt 0.885358 0.989522
vt 0.891869 0.982198
vt 0.39207 0.98586
vt 0.888613 0.98586
vt 0.891869 0.923594
vt 0.885358 0.916269
vt 0.395326 0.916269
vt 0.388815 0.923594
vt 0.00773856 0.07116
vt 0.00773856 0.0889818
vt 0.00773856 0.0889818
vt 0.00773856 0.07116
vt 0.145487 0.187257
vt 0.145487 0.218843
vt 0.00848888 0.187257
vt 0.00849699 0.218887
vt 0.145487 0.250044
vt 0.00847004 0.250044
vt 0.145487 0.281238
vt 0.00842355 0.281239
vt 0.145435 0.312257
vt 0.00838517 0.312257
vt 0.145383 0.343843
vt 0.00839327 0.343887
vt 0.145383 0.375044
vt 0.00836609 0.375044
vt 0.145383 0.406238
vt 0.00831984 0.406239
vt 0.145383 0.437257
vt 0.00828146 0.437257
vt 0.0919734 0.576068
vt 0.0631453 0.587993
vt 0.0628515 0.547223
vt 0.103814 0.547223
vt 0.0918676 0.518357
vt 0.0630676 0.506378
vt 0.0339231 0.518303
vt 0.0218891 0.547223
vt 0.0340567 0.576013
vt 0.0218891 0.547223
vt 0.0339231 0.518302
vt 0.0628525 0.547223
vt 0.0630676 0.506378
vt 0.0918671 0.518357
vt 0.103814 0.547223
vt 0.0919734 0.576068
vt 0.0631448 0.587992
vt 0.0340564 0.576013
vt 0.12854 0.520742
vt 0.158711 0.520742
vt 0.12854 0.539748
vt 0.158711 0.539746
vt 0.458474 0.681144
vt 0.48869 0.681144
vt 0.458519 0.897983
vt 0.48869 0.897983
vt 0.156375 0.58449
vt 0.126298 0.58449
vt 0.156375 0.550923
vt 0.126298 0.550923
vt 0.48869 0.897983
vt 0.458519 0.897983
vt 0.48869 0.681144
vt 0.458474 0.681144
vt 0.441083 0.681144
vt 0.447118 0.897983
vt 0.421988 0.681144
vt 0.417042 0.897983
vt 0.417042 0.897983
vt 0.421989 0.681144
vt 0.447118 0.897983
vt 0.441083 0.681144


#
# MESH 000
#
g surface_000
usemtl surface_000
f 80/80/80 14/14/14 13/13/13
f 13/13/13 14/14/14 15/15/15
f 13/13/13 15/15/15 16/16/16
f 11/11/11 79/79/79 12/12/12
f 9/9/9 11/11/11 12/12/12
f 9/9/9 10/10/10 11/11/11
f 7/7/7 78/78/78 8/8/8
f 5/5/5 7/7/7 8/8/8
f 5/5/5 6/6/6 7/7/7
f 77/77/77 2/2/2 1/1/1
f 1/1/1 2/2/2 3/3/3
f 1/1/1 3/3/3 4/4/4
f 71/71/71 75/75/75 76/76/76
f 71/71/71 74/74/74 75/75/75
f 71/71/71 73/73/73 74/74/74
f 71/71/71 72/72/72 73/73/73
f 65/65/65 69/69/69 70/70/70
f 65/65/65 68/68/68 69/69/69
f 65/65/65 67/67/67 68/68/68
f 65/65/65 66/66/66 67/67/67
f 63/63/63 54/54/54 64/64/64
f 63/63/63 55/55/55 54/54/54
f 53/53/53 54/54/54 55/55/55
f 53/53/53 55/55/55 56/56/56
f 56/56/56 46/46/46 53/53/53
f 56/56/56 47/47/47 46/46/46
f 45/45/45 46/46/46 47/47/47
f 45/45/45 51/51/51 46/46/46
f 45/45/45 52/52/52 51/51/51
f 49/49/49 51/51/51 52/52/52
f 49/49/49 50/50/50 51/51/51
f 49/49/49 62/62/62 50/50/50
f 49/49/49 61/61/61 62/62/62
f 45/45/45 47/47/47 48/48/48
f 48/48/48 38/38/38 45/45/45
f 48/48/48 39/39/39 38/38/38
f 37/37/37 38/38/38 39/39/39
f 37/37/37 39/39/39 40/40/40
f 40/40/40 60/60/60 37/37/37
f 40/40/40 59/59/59 60/60/60
f 41/41/41 48/48/48 47/47/47
f 41/41/41 47/47/47 42/42/42
f 41/41/41 42/42/42 43/43/43
f 41/41/41 43/43/43 44/44/44
f 57/57/57 44/44/44 43/43/43
f 57/57/57 43/43/43 58/58/58
f 33/33/33 35/35/35 36/36/36
f 33/33/33 34/34/34 35/35/35
f 29/29/29 31/31/31 32/32/32
f 29/29/29 30/30/30 31/31/31
f 25/25/25 27/27/27 28/28/28
f 25/25/25 26/26/26 27/27/27
f 21/21/21 23/23/23 24/24/24
f 21/21/21 22/22/22 23/23/23
f 17/17/17 19/19/19 20/20/20
f 17/17/17 18/18/18 19/19/19
f 139/139/139 138/138/138 140/140/140
f 137/137/137 138/138/138 139/139/139
f 135/135/135 134/134/134 136/136/136
f 133/133/133 134/134/134 135/135/135
f 131/131/131 130/130/130 132/132/132
f 129/129/129 130/130/130 131/131/131
f 127/127/127 126/126/126 128/128/128
f 125/125/125 126/126/126 127/127/127
f 123/123/123 122/122/122 124/124/124
f 121/121/121 122/122/122 123/123/123
f 119/119/119 118/118/118 120/120/120
f 117/117/117 118/118/118 119/119/119
f 96/96/96 97/97/97 98/98/98
f 95/95/95 97/97/97 96/96/96
f 94/94/94 95/95/95 96/96/96
f 93/93/93 95/95/95 94/94/94
f 92/92/92 93/93/93 94/94/94
f 91/91/91 93/93/93 92/92/92
f 90/90/90 91/91/91 92/92/92
f 89/89/89 91/91/91 90/90/90
f 88/88/88 89/89/89 90/90/90
f 87/87/87 89/89/89 88/88/88
f 86/86/86 87/87/87 88/88/88
f 85/85/85 87/87/87 86/86/86
f 84/84/84 85/85/85 86/86/86
f 82/82/82 85/85/85 84/84/84
f 83/83/83 82/82/82 84/84/84
f 81/81/81 82/82/82 83/83/83
f 116/116/116 108/108/108 110/110/110
f 108/108/108 109/109/109 110/110/110
f 109/109/109 111/111/111 110/110/110
f 111/111/111 112/112/112 110/110/110
f 112/112/112 113/113/113 110/110/110
f 113/113/113 114/114/114 110/110/110
f 114/114/114 115/115/115 110/110/110
f 115/115/115 116/116/116 110/110/110
f 100/100/100 107/107/107 101/101/101
f 107/107/107 106/106/106 101/101/101
f 106/106/106 105/105/105 101/101/101
f 105/105/105 104/104/104 101/101/101
f 104/104/104 103/103/103 101/101/101
f 103/103/103 102/102/102 101/101/101
f 102/102/102 99/99/99 101/101/101
f 99/99/99 100/100/100 101/101/101

