g r007v001_l
v 0.1503034 0.2007453 0.06496815
v 0.3118706 0.4359239 0.3768385
v 0.3118706 0.4359239 -0.2469029
v 0.3937364 0.7597147 0.4587043
v 0.3937364 0.7597147 -0.3287685
v 0.3937364 0.7597147 0.4587043
v 0.3937364 0.8410839 0.3592474
v 0.3937364 0.8410839 -0.2293119
v 0.3937364 0.7597147 -0.3287685
v 0 0.2007453 -0.08533547
v 0.3118706 0.4359239 -0.2469029
v -0.3118706 0.4359239 -0.2469029
v 0.3937364 0.7597147 -0.3287685
v -0.3937364 0.7597147 -0.3287685
v -0.1503034 0.2007453 0.06496815
v -0.3118706 0.4359239 -0.2469029
v -0.3118706 0.4359239 0.3768385
v -0.3937364 0.7597147 -0.3287685
v -0.3937364 0.7597147 0.4587043
v -0.3937364 0.7597147 -0.3287685
v -0.3937364 0.8410839 -0.2293119
v -0.3937364 0.8410839 0.3592474
v -0.3937364 0.7597147 0.4587043
v 0 0.2007453 0.2152717
v -0.3118706 0.4359239 0.3768385
v 0.3118706 0.4359239 0.3768385
v 0.3937364 0.7597147 0.4587043
v -0.3937364 0.7597147 0.4587043
v 0.2942796 0.8410839 0.4587043
v 0.3937364 0.7597147 0.4587043
v -0.3937364 0.7597147 0.4587043
v -0.2942796 0.8410839 0.4587043
v 0.2808709 0.489872 -0.5
v 0 0.3137526 -0.3661315
v 0.1761193 0.489872 -0.3661315
v 0 0.2090013 -0.5
v -0.1761193 0.489872 -0.3661315
v -0.2808709 0.489872 -0.5
v -0.2808709 0.489872 -0.5
v 0 0.6659917 -0.3661315
v -0.1761193 0.489872 -0.3661315
v 0 0.7707431 -0.5
v 0.1761193 0.489872 -0.3661315
v 0.2808709 0.489872 -0.5
v -0.1761193 0.489872 -0.3661315
v 0.1761193 0.489872 -0.3661315
v 0 0.3137526 -0.3661315
v 0 0.6659917 -0.3661315
v 0 0.2090013 -0.5
v 0.2808709 0.489872 -0.5
v -0.2808709 0.489872 -0.5
v 0 0.7707431 -0.5
v -0.07466269 0.4197726 -0.3661315
v -0.07466269 0.5599717 -0.3661315
v -0.07466269 0.5599717 0.06496815
v -0.07466269 0.4197726 0.06496815
v -0.07466269 0.5599717 -0.3661315
v 0.07466269 0.5599717 -0.3661315
v 0.07466269 0.5599717 0.06496815
v -0.07466269 0.5599717 0.06496815
v 0.07466269 0.5599717 -0.3661315
v 0.07466269 0.4197726 -0.3661315
v 0.07466269 0.4197726 0.06496815
v 0.07466269 0.5599717 0.06496815
v 0.07466269 0.4197726 -0.3661315
v -0.07466269 0.4197726 -0.3661315
v -0.07466269 0.4197726 0.06496815
v 0.07466269 0.4197726 0.06496815
v 0.3937364 0.7597147 -0.3287685
v 0.2942796 0.8410839 -0.3287685
v -0.2942796 0.8410839 -0.3287685
v -0.3937364 0.7597147 -0.3287685
v 0.1503034 0.2007453 0.06496815
v 0.3118706 0.4359239 -0.2469029
v 0.3118706 0.4359239 0.3768385
v 0.3937364 0.7597147 0.4587043
v 0.3937364 0.7597147 -0.3287685
v 0.3937364 0.7597147 0.4587043
v 0.3937364 0.7597147 -0.3287685
v 0.3937364 0.8410839 -0.2293119
v 0.3937364 0.8410839 0.3592474
v 0 0.2007453 -0.08533547
v -0.3118706 0.4359239 -0.2469029
v 0.3118706 0.4359239 -0.2469029
v 0.3937364 0.7597147 -0.3287685
v -0.3937364 0.7597147 -0.3287685
v -0.1503034 0.2007453 0.06496815
v -0.3118706 0.4359239 0.3768385
v -0.3118706 0.4359239 -0.2469029
v -0.3937364 0.7597147 -0.3287685
v -0.3937364 0.7597147 0.4587043
v -0.3937364 0.7597147 -0.3287685
v -0.3937364 0.7597147 0.4587043
v -0.3937364 0.8410839 0.3592474
v -0.3937364 0.8410839 -0.2293119
v 0 0.2007453 0.2152717
v 0.3118706 0.4359239 0.3768385
v -0.3118706 0.4359239 0.3768385
v 0.3937364 0.7597147 0.4587043
v -0.3937364 0.7597147 0.4587043
v 0.2942796 0.8410839 0.4587043
v -0.2942796 0.8410839 0.4587043
v -0.3937364 0.7597147 0.4587043
v 0.3937364 0.7597147 0.4587043
v 0.3937364 0.7597147 -0.3287685
v -0.3937364 0.7597147 -0.3287685
v -0.2942796 0.8410839 -0.3287685
v 0.2942796 0.8410839 -0.3287685
v 0 0.6826918 0.06496815
v 0 0.489872 0.2577875
v -0.1928196 0.489872 0.06496815
v 0 0.489872 -0.1278519
v 0.1928196 0.489872 0.06496815
v -0.1928196 0.489872 0.06496815
v 0 0.489872 0.2577875
v 0 0.2970525 0.06496815
v 0 0.489872 -0.1278519
v 0.1928196 0.489872 0.06496815
vt 0.6152344 0.02474976
vt 0.3215332 0.2937012
vt 0.9086914 0.2937012
vt 0.2446289 0.6083984
vt 0.9858398 0.6083984
vt 0.2446289 0.6083984
vt 0.3381348 0.6845703
vt 0.8920898 0.6845703
vt 0.9858398 0.6083984
vt 0.6152344 0.02474976
vt 0.3215332 0.2937012
vt 0.9086914 0.2937012
vt 0.2446289 0.6083984
vt 0.9858398 0.6083984
vt 0.6152344 0.02476501
vt 0.3215332 0.2937012
vt 0.9086914 0.2937012
vt 0.2446289 0.6083984
vt 0.9858398 0.6083984
vt 0.2446289 0.6083984
vt 0.3381348 0.6845703
vt 0.8920898 0.6845703
vt 0.9858398 0.6083984
vt 0.6152344 0.02474976
vt 0.3215332 0.2937012
vt 0.9086914 0.2937012
vt 0.9858398 0.6083984
vt 0.2446289 0.6083984
vt 0.8920898 0.6845703
vt 0.9858398 0.6083984
vt 0.2446289 0.6083984
vt 0.3381348 0.6845703
vt 0.01942444 0.9775391
vt 0.2666016 0.8608398
vt 0.05712891 0.8608398
vt 0.2666016 0.9775391
vt 0.4760742 0.8608398
vt 0.5136719 0.9775391
vt 0.01942444 0.9775391
vt 0.2666016 0.8608398
vt 0.05712891 0.8608398
vt 0.2666016 0.9775391
vt 0.4760742 0.8608398
vt 0.5136719 0.9775391
vt 0.01698303 0.4797363
vt 0.2325439 0.4797363
vt 0.1247559 0.3718262
vt 0.1247559 0.5874023
vt 0.1781006 0.01384735
vt 0.01696777 0.1749268
vt 0.3393555 0.1749268
vt 0.1781006 0.3361816
vt 0.338623 0.8222656
vt 0.338623 0.7172852
vt 0.01547241 0.7172852
vt 0.01547241 0.8222656
vt 0.6782227 0.8222656
vt 0.6782227 0.7172852
vt 0.3552246 0.7172852
vt 0.3552246 0.8222656
vt 0.338623 0.8222656
vt 0.338623 0.7172852
vt 0.01547241 0.7172852
vt 0.01547241 0.8222656
vt 0.6782227 0.8222656
vt 0.6782227 0.7172852
vt 0.3552246 0.7172852
vt 0.3552246 0.8222656
vt 0.2446289 0.6083984
vt 0.3381348 0.6845703
vt 0.8920898 0.6845703
vt 0.9858398 0.6083984
vt 0.6152344 0.02474976
vt 0.9086914 0.2937012
vt 0.3215332 0.2937012
vt 0.2446289 0.6083984
vt 0.9858398 0.6083984
vt 0.2446289 0.6083984
vt 0.9858398 0.6083984
vt 0.8920898 0.6845703
vt 0.3381348 0.6845703
vt 0.6152344 0.02474976
vt 0.9086914 0.2937012
vt 0.3215332 0.2937012
vt 0.2446289 0.6083984
vt 0.9858398 0.6083984
vt 0.6152344 0.02476501
vt 0.9086914 0.2937012
vt 0.3215332 0.2937012
vt 0.2446289 0.6083984
vt 0.9858398 0.6083984
vt 0.2446289 0.6083984
vt 0.9858398 0.6083984
vt 0.8920898 0.6845703
vt 0.3381348 0.6845703
vt 0.6152344 0.02474976
vt 0.9086914 0.2937012
vt 0.3215332 0.2937012
vt 0.9858398 0.6083984
vt 0.2446289 0.6083984
vt 0.8920898 0.6845703
vt 0.3381348 0.6845703
vt 0.2446289 0.6083984
vt 0.9858398 0.6083984
vt 0.2446289 0.6083984
vt 0.9858398 0.6083984
vt 0.8920898 0.6845703
vt 0.3381348 0.6845703
vt 0.8447266 0.8520508
vt 0.8447266 0.7138672
vt 0.699707 0.8520508
vt 0.8447266 0.9902344
vt 0.9897461 0.8520508
vt 0.9897461 0.8520508
vt 0.8447266 0.7138672
vt 0.8447266 0.8520508
vt 0.8447266 0.9902344
vt 0.699707 0.8520508
vn 0.8242188 -0.5664063 0
vn 0.9570313 -0.2902832 0
vn 0.9570313 -0.2902832 0
vn 0.9697266 -0.2451172 0
vn 0.9697266 -0.2451172 0
vn 1 0 0
vn 1 0 0
vn 1 0 0
vn 1 0 0
vn 0 -0.5664063 -0.8242188
vn 0 -0.2902832 -0.9570313
vn 0 -0.2902832 -0.9570313
vn 0 -0.2451172 -0.9697266
vn 0 -0.2451172 -0.9697266
vn -0.8242188 -0.5664063 0
vn -0.9570313 -0.2902832 0
vn -0.9570313 -0.2902832 0
vn -0.9697266 -0.2451172 0
vn -0.9697266 -0.2451172 0
vn -1 0 0
vn -1 0 0
vn -1 0 0
vn -1 0 0
vn 0 -0.5664063 0.8242188
vn 0 -0.2902832 0.9570313
vn 0 -0.2902832 0.9570313
vn 0 -0.2451172 0.9697266
vn 0 -0.2451172 0.9697266
vn 0 0 1
vn 0 0 1
vn 0 0 1
vn 0 0 1
vn 0.7875977 0 0.6162109
vn 0 -0.7875977 0.6162109
vn 0.7875977 0 0.6162109
vn 0 -0.7875977 0.6162109
vn -0.7875977 0 0.6162109
vn -0.7875977 0 0.6162109
vn -0.7875977 0 0.6162109
vn 0 0.7875977 0.6162109
vn -0.7875977 0 0.6162109
vn 0 0.7875977 0.6162109
vn 0.7875977 0 0.6162109
vn 0.7875977 0 0.6162109
vn 0 0 1
vn 0 0 1
vn 0 0 1
vn 0 0 1
vn 0 0 -1
vn 0 0 -1
vn 0 0 -1
vn 0 0 -1
vn -1 0 0
vn -1 0 0
vn -1 0 0
vn -1 0 0
vn 0 1 0
vn 0 1 0
vn 0 1 0
vn 0 1 0
vn 1 0 0
vn 1 0 0
vn 1 0 0
vn 1 0 0
vn 0 -1 0
vn 0 -1 0
vn 0 -1 0
vn 0 -1 0
vn 0 0 -1
vn 0 0 -1
vn 0 0 -1
vn 0 0 -1
vn -0.8242188 0.5664063 0
vn -0.9570313 0.2902832 0
vn -0.9570313 0.2902832 0
vn -0.9697266 0.2451172 0
vn -0.9697266 0.2451172 0
vn -1 0 0
vn -1 0 0
vn -1 0 0
vn -1 0 0
vn 0 0.5664063 0.8242188
vn 0 0.2902832 0.9570313
vn 0 0.2902832 0.9570313
vn 0 0.2451172 0.9697266
vn 0 0.2451172 0.9697266
vn 0.8242188 0.5664063 0
vn 0.9570313 0.2902832 0
vn 0.9570313 0.2902832 0
vn 0.9697266 0.2451172 0
vn 0.9697266 0.2451172 0
vn 1 0 0
vn 1 0 0
vn 1 0 0
vn 1 0 0
vn 0 0.5664063 -0.8242188
vn 0 0.2902832 -0.9570313
vn 0 0.2902832 -0.9570313
vn 0 0.2451172 -0.9697266
vn 0 0.2451172 -0.9697266
vn 0 0 -1
vn 0 0 -1
vn 0 0 -1
vn 0 0 -1
vn 0 0 1
vn 0 0 1
vn 0 0 1
vn 0 0 1
vn 0 1 0
vn 0 0 1
vn -1 0 0
vn 0 0 -1
vn 1 0 0
vn -1 0 0
vn 0 0 1
vn 0 -1 0
vn 0 0 -1
vn 1 0 0
g r007v001_l_0
f 3/3/3 2/2/2 1/1/1
f 4/4/4 2/2/2 3/3/3
f 5/5/5 4/4/4 3/3/3
f 8/8/8 7/7/7 6/6/6
f 9/9/9 8/8/8 6/6/6
f 12/12/12 11/11/11 10/10/10
f 13/13/13 11/11/11 12/12/12
f 14/14/14 13/13/13 12/12/12
f 17/17/17 16/16/16 15/15/15
f 18/18/18 16/16/16 17/17/17
f 19/19/19 18/18/18 17/17/17
f 22/22/22 21/21/21 20/20/20
f 23/23/23 22/22/22 20/20/20
f 26/26/26 25/25/25 24/24/24
f 25/25/25 26/26/26 27/27/27
f 28/28/28 25/25/25 27/27/27
f 31/31/31 30/30/30 29/29/29
f 32/32/32 31/31/31 29/29/29
f 35/35/35 34/34/34 33/33/33
f 34/34/34 36/36/36 33/33/33
f 34/34/34 37/37/37 36/36/36
f 37/37/37 38/38/38 36/36/36
f 41/41/41 40/40/40 39/39/39
f 40/40/40 42/42/42 39/39/39
f 40/40/40 43/43/43 42/42/42
f 43/43/43 44/44/44 42/42/42
f 47/47/47 46/46/46 45/45/45
f 48/48/48 45/45/45 46/46/46
f 51/51/51 50/50/50 49/49/49
f 50/50/50 51/51/51 52/52/52
f 55/55/55 54/54/54 53/53/53
f 56/56/56 55/55/55 53/53/53
f 59/59/59 58/58/58 57/57/57
f 60/60/60 59/59/59 57/57/57
f 63/63/63 62/62/62 61/61/61
f 64/64/64 63/63/63 61/61/61
f 67/67/67 66/66/66 65/65/65
f 68/68/68 67/67/67 65/65/65
f 71/71/71 70/70/70 69/69/69
f 72/72/72 71/71/71 69/69/69
f 75/75/75 74/74/74 73/73/73
f 75/75/75 76/76/76 74/74/74
f 76/76/76 77/77/77 74/74/74
f 80/80/80 79/79/79 78/78/78
f 81/81/81 80/80/80 78/78/78
f 84/84/84 83/83/83 82/82/82
f 84/84/84 85/85/85 83/83/83
f 85/85/85 86/86/86 83/83/83
f 89/89/89 88/88/88 87/87/87
f 89/89/89 90/90/90 88/88/88
f 90/90/90 91/91/91 88/88/88
f 94/94/94 93/93/93 92/92/92
f 95/95/95 94/94/94 92/92/92
f 98/98/98 97/97/97 96/96/96
f 97/97/97 98/98/98 99/99/99
f 98/98/98 100/100/100 99/99/99
f 103/103/103 102/102/102 101/101/101
f 104/104/104 103/103/103 101/101/101
f 107/107/107 106/106/106 105/105/105
f 108/108/108 107/107/107 105/105/105
f 111/111/111 110/110/110 109/109/109
f 111/111/111 109/109/109 112/112/112
f 113/113/113 109/109/109 110/110/110
f 112/112/112 109/109/109 113/113/113
f 116/116/116 115/115/115 114/114/114
f 114/114/114 117/117/117 116/116/116
f 118/118/118 115/115/115 116/116/116
f 117/117/117 118/118/118 116/116/116
