#
# OBJECT NAME
#
o model_2574
mtllib 2574.mtl

#
# VERTEX BUFFER 000
#
v -0.5 0.752228 0
v 0.5 0.752228 0
v 0.5 1.01 0.114
v -0.5 1.01 0.114
v -0.5 1.01 0.114
v 0.5 1.01 0.114
v 0.5 1.01 -0.114
v -0.5 1.01 -0.114
v -0.5 1.01 -0.114
v 0.5 1.01 -0.114
v 0.5 0.752228 0
v -0.5 0.752228 0
v 0.5 0.752228 0
v 0.5 1.01 -0.114
v 0.5 1.01 0.114
v -0.5 0.752228 0
v -0.5 1.01 0.114
v -0.5 1.01 -0.114
v 0.5 0.752228 -0.366114
v -0.5 0.752228 -0.366114
v -0.5 1.01 -0.48
v 0.5 1.01 -0.48
v 0.5 1.01 -0.48
v -0.5 1.01 -0.48
v -0.5 1.01 -0.252228
v 0.5 1.01 -0.252228
v 0.5 1.01 -0.252228
v -0.5 1.01 -0.252228
v -0.5 0.752228 -0.366114
v 0.5 0.752228 -0.366114
v -0.5 0.752228 -0.366114
v -0.5 1.01 -0.252228
v -0.5 1.01 -0.48
v 0.5 0.752228 -0.366114
v 0.5 1.01 -0.48
v 0.5 1.01 -0.252228
v -0.5 0.752228 0.366114
v 0.5 0.752228 0.366114
v 0.5 1.01 0.48
v -0.5 1.01 0.48
v -0.5 1.01 0.48
v 0.5 1.01 0.48
v 0.5 1.01 0.252228
v -0.5 1.01 0.252228
v -0.5 1.01 0.252228
v 0.5 1.01 0.252228
v 0.5 0.752228 0.366114
v -0.5 0.752228 0.366114
v 0.5 0.752228 0.366114
v 0.5 1.01 0.252228
v 0.5 1.01 0.48
v -0.5 0.752228 0.366114
v -0.5 1.01 0.48
v -0.5 1.01 0.252228

vn 0 -0.404297 0.914551
vn 0 -0.404297 0.914551
vn 0 -0.404297 0.914551
vn 0 -0.404297 0.914551
vn 0 1 0
vn 0 1 0
vn 0 1 0
vn 0 1 0
vn 0 -0.404297 -0.914551
vn 0 -0.404297 -0.914551
vn 0 -0.404297 -0.914551
vn 0 -0.404297 -0.914551
vn 1 0 0
vn 1 0 0
vn 1 0 0
vn -1 0 0
vn -1 0 0
vn -1 0 0
vn 0 -0.404053 -0.914551
vn 0 -0.404053 -0.914551
vn 0 -0.404053 -0.914551
vn 0 -0.404053 -0.914551
vn 0 1 0
vn 0 1 0
vn 0 1 0
vn 0 1 0
vn 0 -0.404053 0.914551
vn 0 -0.404053 0.914551
vn 0 -0.404053 0.914551
vn 0 -0.404053 0.914551
vn -1 0 0
vn -1 0 0
vn -1 0 0
vn 1 0 0
vn 1 0 0
vn 1 0 0
vn 0 -0.404053 0.914551
vn 0 -0.404053 0.914551
vn 0 -0.404053 0.914551
vn 0 -0.404053 0.914551
vn 0 1 0
vn 0 1 0
vn 0 1 0
vn 0 1 0
vn 0 -0.404053 -0.914551
vn 0 -0.404053 -0.914551
vn 0 -0.404053 -0.914551
vn 0 -0.404053 -0.914551
vn 1 0 0
vn 1 0 0
vn 1 0 0
vn -1 0 0
vn -1 0 0
vn -1 0 0

vt 0.37782 0.655699
vt 0.97393 0.655699
vt 0.97393 0.803398
vt 0.37782 0.803398
vt 0.37782 0.828573
vt 0.97393 0.828573
vt 0.97393 0.976272
vt 0.37782 0.976272
vt 0.672623 0.618294
vt 0.672623 0.0221842
vt 0.820322 0.0221842
vt 0.820322 0.618294
vt 0.26939 0.655176
vt 0.34324 0.802875
vt 0.195541 0.802875
vt 0.26939 0.828573
vt 0.34324 0.976272
vt 0.195541 0.976272
vt 0.0110766 0.618294
vt 0.0110766 0.0221842
vt 0.158776 0.0221842
vt 0.158776 0.618294
vt 0.176433 0.618294
vt 0.176433 0.0221842
vt 0.324132 0.0221842
vt 0.324132 0.618294
vt 0.340277 0.618294
vt 0.340277 0.0221842
vt 0.487976 0.0221842
vt 0.487976 0.618294
vt 0.0884765 0.655176
vt 0.162326 0.802875
vt 0.014627 0.802875
vt 0.0884766 0.828573
vt 0.162326 0.976272
vt 0.014627 0.976272
vt 0.0110766 0.618294
vt 0.0110766 0.0221843
vt 0.158776 0.0221843
vt 0.158776 0.618294
vt 0.176433 0.618294
vt 0.176433 0.0221843
vt 0.324132 0.0221843
vt 0.324132 0.618294
vt 0.340277 0.618294
vt 0.340277 0.0221842
vt 0.487976 0.0221842
vt 0.487976 0.618294
vt 0.0884765 0.655176
vt 0.162326 0.802875
vt 0.014627 0.802875
vt 0.0884766 0.828573
vt 0.162326 0.976272
vt 0.014627 0.976272


#
# MESH 000
#
g surface_000
usemtl surface_000
f 16/16/16 17/17/17 18/18/18
f 13/13/13 14/14/14 15/15/15
f 9/9/9 11/11/11 12/12/12
f 9/9/9 10/10/10 11/11/11
f 5/5/5 7/7/7 8/8/8
f 5/5/5 6/6/6 7/7/7
f 1/1/1 3/3/3 4/4/4
f 1/1/1 2/2/2 3/3/3
f 34/34/34 35/35/35 36/36/36
f 31/31/31 32/32/32 33/33/33
f 27/27/27 29/29/29 30/30/30
f 27/27/27 28/28/28 29/29/29
f 23/23/23 25/25/25 26/26/26
f 23/23/23 24/24/24 25/25/25
f 19/19/19 21/21/21 22/22/22
f 19/19/19 20/20/20 21/21/21
f 52/52/52 53/53/53 54/54/54
f 49/49/49 50/50/50 51/51/51
f 45/45/45 47/47/47 48/48/48
f 45/45/45 46/46/46 47/47/47
f 41/41/41 43/43/43 44/44/44
f 41/41/41 42/42/42 43/43/43
f 37/37/37 39/39/39 40/40/40
f 37/37/37 38/38/38 39/39/39

