#
# OBJECT NAME
#
o model_1384
mtllib 1384.mtl

#
# VERTEX BUFFER 000
#
v 0.350135 0.0826465 0.0713719
v 0.492506 0.0826465 0.0713719
v 0.350135 0.91678 0.0713719
v 0.492506 0.91678 0.0713719
v 0.350135 0.91678 -0.0676433
v 0.492506 0.91678 -0.0676433
v 0.35763 0.0826465 -0.0676433
v 0.492506 0.0826465 -0.0676433
v 0.492506 0.0826465 0.0713719
v 0.492506 0.0826465 -0.0676433
v 0.492506 0.91678 0.0713719
v 0.492506 0.91678 -0.0676433
v 0.35763 0.0826465 -0.0676433
v 0.350135 0.0826465 0.0713719
v 0.350135 0.91678 -0.0676433
v 0.350135 0.91678 0.0713719
v -0.487543 0.0826465 0.0713719
v -0.345665 0.0826465 0.0713719
v -0.487543 0.91678 0.0713719
v -0.345665 0.91678 0.0713719
v -0.487543 0.91678 -0.0676433
v -0.345665 0.91678 -0.0676433
v -0.487543 0.0826465 -0.0676433
v -0.345665 0.0826465 -0.0676433
v -0.345665 0.0826465 0.0713719
v -0.345665 0.0826465 -0.0676433
v -0.345665 0.91678 0.0713719
v -0.345665 0.91678 -0.0676433
v -0.487543 0.0826465 -0.0676433
v -0.487543 0.0826465 0.0713719
v -0.487543 0.91678 -0.0676433
v -0.487543 0.91678 0.0713719
v -0.176086 0.0826465 0.0317944
v -0.0778294 0.0826465 0.0317944
v -0.176086 0.91678 0.0317944
v -0.0778294 0.91678 0.0317944
v -0.176086 0.91678 -0.0280658
v -0.0778294 0.91678 -0.0280658
v -0.176086 0.0826465 -0.0280658
v -0.0778294 0.0826465 -0.0280658
v -0.0778294 0.0826465 0.0317944
v -0.0778294 0.0826465 -0.0280658
v -0.0778294 0.91678 0.0317944
v -0.0778294 0.91678 -0.0280658
v -0.176086 0.0826465 -0.0280658
v -0.176086 0.0826465 0.0317944
v -0.176086 0.91678 -0.0280658
v -0.176086 0.91678 0.0317944
v 0.0804577 0.0826465 0.0317944
v 0.178715 0.0826465 0.0317944
v 0.0804577 0.91678 0.0317944
v 0.178715 0.91678 0.0317944
v 0.0804577 0.91678 -0.0280658
v 0.178715 0.91678 -0.0280658
v 0.0804577 0.0826465 -0.0280658
v 0.178715 0.0826465 -0.0280658
v 0.178715 0.0826465 0.0317944
v 0.178715 0.0826465 -0.0280658
v 0.178715 0.91678 0.0317944
v 0.178715 0.91678 -0.0280658
v 0.0804577 0.0826465 -0.0280658
v 0.0804577 0.0826465 0.0317944
v 0.0804577 0.91678 -0.0280658
v 0.0804577 0.91678 0.0317944
v -0.5 0.91678 0.16136
v 0.5 0.91678 0.16136
v -0.5 1 0.16136
v 0.5 1 0.16136
v -0.5 1 0.16136
v 0.5 1 0.16136
v -0.5 1 -0.157631
v 0.5 1 -0.157631
v -0.5 1 -0.157631
v 0.5 1 -0.157631
v -0.5 0.91678 -0.157631
v 0.5 0.91678 -0.157631
v -0.5 0.91678 -0.157631
v 0.5 0.91678 -0.157631
v -0.5 0.91678 0.16136
v 0.5 0.91678 0.16136
v 0.5 0.91678 0.16136
v 0.5 0.91678 -0.157631
v 0.5 1 0.16136
v 0.5 1 -0.157631
v -0.5 0.91678 -0.157631
v -0.5 0.91678 0.16136
v -0.5 1 -0.157631
v -0.5 1 0.16136
v -0.5 0 0.16136
v 0.5 0 0.16136
v -0.5 0.0826465 0.16136
v 0.5 0.0826465 0.16136
v -0.5 0.0826465 0.16136
v 0.5 0.0826465 0.16136
v -0.5 0.0826465 -0.157631
v 0.5 0.0826465 -0.157631
v -0.5 0.0826465 -0.157631
v 0.5 0.0826465 -0.157631
v -0.5 0 -0.157631
v 0.5 0 -0.157631
v -0.5 0 -0.157631
v 0.5 0 -0.157631
v -0.5 0 0.16136
v 0.5 0 0.16136
v 0.5 0 0.16136
v 0.5 0 -0.157631
v 0.5 0.0826465 0.16136
v 0.5 0.0826465 -0.157631
v -0.5 0 -0.157631
v -0.5 0 0.16136
v -0.5 0.0826465 -0.157631
v -0.5 0.0826465 0.16136

vn 0 0 1
vn 0 0 1
vn 0 0 1
vn 0 0 1
vn 0 0 -1
vn 0 0 -1
vn 0 0 -1
vn 0 0 -1
vn 1 0 0
vn 1 0 0
vn 1 0 0
vn 1 0 0
vn -1 0 0
vn -1 0 0
vn -1 0 0
vn -1 0 0
vn 0 0 1
vn 0 0 1
vn 0 0 1
vn 0 0 1
vn 0 0 -1
vn 0 0 -1
vn 0 0 -1
vn 0 0 -1
vn 1 0 0
vn 1 0 0
vn 1 0 0
vn 1 0 0
vn -1 0 0
vn -1 0 0
vn -1 0 0
vn -1 0 0
vn 0 0 1
vn 0 0 1
vn 0 0 1
vn 0 0 1
vn 0 0 -1
vn 0 0 -1
vn 0 0 -1
vn 0 0 -1
vn 1 0 0
vn 1 0 0
vn 1 0 0
vn 1 0 0
vn -1 0 0
vn -1 0 0
vn -1 0 0
vn -1 0 0
vn 0 0 1
vn 0 0 1
vn 0 0 1
vn 0 0 1
vn 0 0 -1
vn 0 0 -1
vn 0 0 -1
vn 0 0 -1
vn 1 0 0
vn 1 0 0
vn 1 0 0
vn 1 0 0
vn -1 0 0
vn -1 0 0
vn -1 0 0
vn -1 0 0
vn 0 0 1
vn 0 0 1
vn 0 0 1
vn 0 0 1
vn 0 1 0
vn 0 1 0
vn 0 1 0
vn 0 1 0
vn 0 0 -1
vn 0 0 -1
vn 0 0 -1
vn 0 0 -1
vn 0 -1 0
vn 0 -1 0
vn 0 -1 0
vn 0 -1 0
vn 1 0 0
vn 1 0 0
vn 1 0 0
vn 1 0 0
vn -1 0 0
vn -1 0 0
vn -1 0 0
vn -1 0 0
vn 0 0 1
vn 0 0 1
vn 0 0 1
vn 0 0 1
vn 0 1 0
vn 0 1 0
vn 0 1 0
vn 0 1 0
vn 0 0 -1
vn 0 0 -1
vn 0 0 -1
vn 0 0 -1
vn 0 -1 0
vn 0 -1 0
vn 0 -1 0
vn 0 -1 0
vn 1 0 0
vn 1 0 0
vn 1 0 0
vn 1 0 0
vn -1 0 0
vn -1 0 0
vn -1 0 0
vn -1 0 0

vt 0.012904 0.292005
vt 0.0905843 0.292005
vt 0.012904 1
vt 0.0905843 1
vt 0.090584 1
vt 0.012904 1
vt 0.090584 0.292005
vt 0.012904 0.292005
vt 0.111488 0.292005
vt 0.1876 0.292005
vt 0.111488 1
vt 0.1876 1
vt 0.111488 0.292005
vt 0.1876 0.292005
vt 0.111488 1
vt 0.1876 1
vt 0.0129042 0.292005
vt 0.0905837 0.292005
vt 0.0129042 1
vt 0.0905837 1
vt 0.090584 1
vt 0.012904 1
vt 0.090584 0.292005
vt 0.012904 0.292005
vt 0.111488 0.292005
vt 0.1876 0.292005
vt 0.111488 1
vt 0.1876 1
vt 0.111488 0.292005
vt 0.1876 0.292005
vt 0.111488 1
vt 0.1876 1
vt 0.209614 0.292005
vt 0.26341 0.292005
vt 0.209614 1
vt 0.26341 1
vt 0.26341 1
vt 0.209614 1
vt 0.26341 0.292005
vt 0.209614 0.292005
vt 0.287966 0.292005
vt 0.32074 0.292005
vt 0.287966 1
vt 0.32074 1
vt 0.287966 0.292005
vt 0.32074 0.292005
vt 0.287966 1
vt 0.32074 1
vt 0.209614 0.292005
vt 0.26341 0.292005
vt 0.209614 1
vt 0.26341 1
vt 0.26341 1
vt 0.209614 1
vt 0.26341 0.292005
vt 0.209614 0.292005
vt 0.287966 0.292005
vt 0.32074 0.292005
vt 0.287966 1
vt 0.32074 1
vt 0.287966 0.292005
vt 0.32074 0.292005
vt 0.287966 1
vt 0.32074 1
vt 0.439107 0.17329
vt 0.988805 0.17329
vt 0.439107 0.21872
vt 0.988805 0.219662
vt 0.439107 0.519848
vt 0.988805 0.519848
vt 0.439107 0.67298
vt 0.988805 0.67298
vt 0.988805 0.219662
vt 0.439107 0.21872
vt 0.988805 0.17329
vt 0.439107 0.17329
vt 0.439107 0.519848
vt 0.988805 0.519848
vt 0.439107 0.67298
vt 0.988805 0.67298
vt 0.554072 0.89361
vt 0.706715 0.89361
vt 0.554072 0.938484
vt 0.706715 0.938484
vt 0.554072 0.89361
vt 0.706715 0.89361
vt 0.554072 0.938484
vt 0.706715 0.938484
vt 0.439107 0.17329
vt 0.988805 0.17329
vt 0.439107 0.21872
vt 0.988805 0.219662
vt 0.439107 0.519848
vt 0.988805 0.519848
vt 0.439107 0.67298
vt 0.988805 0.67298
vt 0.988805 0.219662
vt 0.439107 0.21872
vt 0.988805 0.17329
vt 0.439107 0.17329
vt 0.439107 0.519848
vt 0.988805 0.519848
vt 0.439107 0.67298
vt 0.988805 0.67298
vt 0.554072 0.89361
vt 0.706715 0.89361
vt 0.554072 0.938484
vt 0.706715 0.938484
vt 0.554072 0.89361
vt 0.706715 0.89361
vt 0.554072 0.938484
vt 0.706715 0.938484


#
# MESH 000
#
g surface_000
usemtl surface_000
f 87/87/87 86/86/86 88/88/88
f 85/85/85 86/86/86 87/87/87
f 83/83/83 82/82/82 84/84/84
f 81/81/81 82/82/82 83/83/83
f 79/79/79 78/78/78 80/80/80
f 77/77/77 78/78/78 79/79/79
f 75/75/75 74/74/74 76/76/76
f 73/73/73 74/74/74 75/75/75
f 71/71/71 70/70/70 72/72/72
f 69/69/69 70/70/70 71/71/71
f 67/67/67 66/66/66 68/68/68
f 65/65/65 66/66/66 67/67/67
f 63/63/63 62/62/62 64/64/64
f 61/61/61 62/62/62 63/63/63
f 59/59/59 58/58/58 60/60/60
f 57/57/57 58/58/58 59/59/59
f 55/55/55 54/54/54 56/56/56
f 53/53/53 54/54/54 55/55/55
f 51/51/51 50/50/50 52/52/52
f 49/49/49 50/50/50 51/51/51
f 47/47/47 46/46/46 48/48/48
f 45/45/45 46/46/46 47/47/47
f 43/43/43 42/42/42 44/44/44
f 41/41/41 42/42/42 43/43/43
f 39/39/39 38/38/38 40/40/40
f 37/37/37 38/38/38 39/39/39
f 35/35/35 34/34/34 36/36/36
f 33/33/33 34/34/34 35/35/35
f 31/31/31 30/30/30 32/32/32
f 29/29/29 30/30/30 31/31/31
f 27/27/27 26/26/26 28/28/28
f 25/25/25 26/26/26 27/27/27
f 23/23/23 22/22/22 24/24/24
f 21/21/21 22/22/22 23/23/23
f 19/19/19 18/18/18 20/20/20
f 17/17/17 18/18/18 19/19/19
f 15/15/15 14/14/14 16/16/16
f 13/13/13 14/14/14 15/15/15
f 11/11/11 10/10/10 12/12/12
f 9/9/9 10/10/10 11/11/11
f 7/7/7 6/6/6 8/8/8
f 5/5/5 6/6/6 7/7/7
f 3/3/3 2/2/2 4/4/4
f 1/1/1 2/2/2 3/3/3
f 111/111/111 110/110/110 112/112/112
f 109/109/109 110/110/110 111/111/111
f 107/107/107 106/106/106 108/108/108
f 105/105/105 106/106/106 107/107/107
f 103/103/103 102/102/102 104/104/104
f 101/101/101 102/102/102 103/103/103
f 99/99/99 98/98/98 100/100/100
f 97/97/97 98/98/98 99/99/99
f 95/95/95 94/94/94 96/96/96
f 93/93/93 94/94/94 95/95/95
f 91/91/91 90/90/90 92/92/92
f 89/89/89 90/90/90 91/91/91

