#
# OBJECT NAME
#
o model_4301
mtllib 4301.mtl

#
# VERTEX BUFFER 000
#
v 0 1.51771 0.1447
v 1 1.51771 0.1447
v 0 1.9 0.156711
v 1 1.9 0.156711
v 0 1.9 0.156711
v 1 1.9 0.156711
v 0 1.9 -0.156712
v 1 1.9 -0.156712
v 0 1.9 -0.156712
v 1 1.9 -0.156712
v 0 1.51771 -0.1447
v 1 1.51771 -0.1447
v 0 1.51771 -0.1447
v 1 1.51771 -0.1447
v 0 1.51771 0.1447
v 1 1.51771 0.1447
v 1 1.51771 0.1447
v 1 1.51771 -0.1447
v 1 1.9 0.156711
v 1 1.9 -0.156712
v 0 1.51771 -0.1447
v 0 1.51771 0.1447
v 0 1.9 -0.156712
v 0 1.9 0.156711
v 0 0 0.121864
v 1 0 0.121864
v 0 0.239553 0.121864
v 1 0.239553 0.121864
v 0 0.239553 0.121864
v 1 0.239553 0.121864
v 0 0.239553 -0.121864
v 1 0.239553 -0.121864
v 0 0.239553 -0.121864
v 1 0.239553 -0.121864
v 0 0 -0.121864
v 1 0 -0.121864
v 0 0 -0.121864
v 1 0 -0.121864
v 0 0 0.121864
v 1 0 0.121864
v 1 0 0.121864
v 1 0 -0.121864
v 1 0.239553 0.121864
v 1 0.239553 -0.121864
v 0 0 -0.121864
v 0 0 0.121864
v 0 0.239553 -0.121864
v 0 0.239553 0.121864
v 0.85763 0.239553 0.0695074
v 1 0.239553 0.0695074
v 0.85763 1.51917 0.0695074
v 1 1.51917 0.0695074
v 0.85763 1.51917 -0.0695078
v 1 1.51917 -0.0695078
v 0.85763 0.239553 -0.0695078
v 1 0.239553 -0.0695078
v 1 0.239553 0.0695074
v 1 0.239553 -0.0695078
v 1 1.51917 0.0695074
v 1 1.51917 -0.0695078
v 0.85763 0.239553 -0.0695078
v 0.85763 0.239553 0.0695074
v 0.85763 1.51917 -0.0695078
v 0.85763 1.51917 0.0695074
v 0.0124569 0.228631 0.0695074
v 0.154335 0.228631 0.0695074
v 0.0124569 1.52625 0.0695074
v 0.154335 1.52625 0.0695074
v 0.0124569 1.52625 -0.0695078
v 0.154335 1.52625 -0.0695078
v 0.0124569 0.228631 -0.0695078
v 0.154335 0.228631 -0.0695078
v 0.154335 0.228631 0.0695074
v 0.154335 0.228631 -0.0695078
v 0.154335 1.52625 0.0695074
v 0.154335 1.52625 -0.0695078
v 0.0124569 0.228631 -0.0695078
v 0.0124569 0.228631 0.0695074
v 0.0124569 1.52625 -0.0695078
v 0.0124569 1.52625 0.0695074
v 0.323914 0.228631 0.0299299
v 0.422171 0.228631 0.0299299
v 0.323914 1.52625 0.0299299
v 0.422171 1.52625 0.0299299
v 0.323914 1.52625 0.0299299
v 0.422171 1.52625 0.0299299
v 0.323914 0.228631 0.0299299
v 0.422171 0.228631 0.0299299
v 0.580458 0.228631 0.0299299
v 0.678715 0.228631 0.0299299
v 0.580458 1.52625 0.0299299
v 0.678715 1.52625 0.0299299
v 0.580458 1.52625 0.0299299
v 0.678715 1.52625 0.0299299
v 0.580458 0.228631 0.0299299
v 0.678715 0.228631 0.0299299
v 0.865725 1.06353 0.0483969
v 0.865725 1.20738 0.0483969
v 0.145166 1.06353 0.0483969
v 0.145166 1.20738 0.0483969
v 0.865725 1.20738 0.0483969
v 0.865725 1.13545 -0.0483972
v 0.145166 1.20738 0.0483969
v 0.145166 1.13545 -0.0483972
v 0.865725 1.13545 -0.0483972
v 0.865725 1.06353 0.0483969
v 0.145166 1.13545 -0.0483972
v 0.145166 1.06353 0.0483969
v 0.865725 0.587962 0.0483969
v 0.865725 0.731813 0.0483969
v 0.145166 0.587962 0.0483969
v 0.145166 0.731813 0.0483969
v 0.865725 0.731813 0.0483969
v 0.865725 0.659887 -0.0483972
v 0.145166 0.731813 0.0483969
v 0.145166 0.659887 -0.0483972
v 0.865725 0.659887 -0.0483972
v 0.865725 0.587962 0.0483969
v 0.145166 0.659887 -0.0483972
v 0.145166 0.587962 0.0483969
v 0.379562 0.512377 0.09531
v 0.379562 0.752542 0.09531
v 0 0.512377 0.09531
v 0 0.752542 0.09531
v 0 0.512377 -0.0953104
v 0 0.752542 -0.0953104
v 0.379562 0.512377 -0.0953104
v 0.379562 0.752542 -0.0953104
v 0 1.51771 -0.1447
v -1 1.51771 -0.1447
v 0 1.9 -0.156712
v -1 1.9 -0.156712
v 0 1.9 -0.156712
v -1 1.9 -0.156712
v 0 1.9 0.156711
v -1 1.9 0.156711
v 0 1.9 0.156711
v -1 1.9 0.156711
v 0 1.51771 0.1447
v -1 1.51771 0.1447
v 0 1.51771 0.1447
v -1 1.51771 0.1447
v 0 1.51771 -0.1447
v -1 1.51771 -0.1447
v -1 1.51771 -0.1447
v -1 1.51771 0.1447
v -1 1.9 -0.156712
v -1 1.9 0.156711
v 0 1.51771 0.1447
v 0 1.51771 -0.1447
v 0 1.9 0.156711
v 0 1.9 -0.156712
v 0 0 -0.121864
v -1 0 -0.121864
v 0 0.239553 -0.121864
v -1 0.239553 -0.121864
v 0 0.239553 -0.121864
v -1 0.239553 -0.121864
v 0 0.239553 0.121864
v -1 0.239553 0.121864
v 0 0.239553 0.121864
v -1 0.239553 0.121864
v 0 0 0.121864
v -1 0 0.121864
v 0 0 0.121864
v -1 0 0.121864
v 0 0 -0.121864
v -1 0 -0.121864
v -1 0 -0.121864
v -1 0 0.121864
v -1 0.239553 -0.121864
v -1 0.239553 0.121864
v 0 0 0.121864
v 0 0 -0.121864
v 0 0.239553 0.121864
v 0 0.239553 -0.121864
v -0.85763 0.239553 -0.0695078
v -1 0.239553 -0.0695078
v -0.85763 1.51917 -0.0695078
v -1 1.51917 -0.0695078
v -0.85763 1.51917 0.0695074
v -1 1.51917 0.0695074
v -0.85763 0.239553 0.0695074
v -1 0.239553 0.0695074
v -1 0.239553 -0.0695078
v -1 0.239553 0.0695074
v -1 1.51917 -0.0695078
v -1 1.51917 0.0695074
v -0.85763 0.239553 0.0695074
v -0.85763 0.239553 -0.0695078
v -0.85763 1.51917 0.0695074
v -0.85763 1.51917 -0.0695078
v -0.0124569 0.228631 -0.0695078
v -0.154335 0.228631 -0.0695078
v -0.0124569 1.52625 -0.0695078
v -0.154335 1.52625 -0.0695078
v -0.0124569 1.52625 0.0695074
v -0.154335 1.52625 0.0695074
v -0.0124569 0.228631 0.0695074
v -0.154335 0.228631 0.0695074
v -0.154335 0.228631 -0.0695078
v -0.154335 0.228631 0.0695074
v -0.154335 1.52625 -0.0695078
v -0.154335 1.52625 0.0695074
v -0.0124569 0.228631 0.0695074
v -0.0124569 0.228631 -0.0695078
v -0.0124569 1.52625 0.0695074
v -0.0124569 1.52625 -0.0695078
v -0.323914 0.228631 -0.0299303
v -0.422171 0.228631 -0.0299303
v -0.323914 1.52625 -0.0299303
v -0.422171 1.52625 -0.0299303
v -0.323914 1.52625 -0.0299303
v -0.422171 1.52625 -0.0299303
v -0.323914 0.228631 -0.0299303
v -0.422171 0.228631 -0.0299303
v -0.580458 0.228631 -0.0299303
v -0.678715 0.228631 -0.0299303
v -0.580458 1.52625 -0.0299303
v -0.678715 1.52625 -0.0299303
v -0.580458 1.52625 -0.0299303
v -0.678715 1.52625 -0.0299303
v -0.580458 0.228631 -0.0299303
v -0.678715 0.228631 -0.0299303
v -0.865725 1.06353 -0.0483972
v -0.865725 1.20738 -0.0483972
v -0.145166 1.06353 -0.0483972
v -0.145166 1.20738 -0.0483972
v -0.865725 1.20738 -0.0483972
v -0.865725 1.13545 0.0483969
v -0.145166 1.20738 -0.0483972
v -0.145166 1.13545 0.0483969
v -0.865725 1.13545 0.0483969
v -0.865725 1.06353 -0.0483972
v -0.145166 1.13545 0.0483969
v -0.145166 1.06353 -0.0483972
v -0.865725 0.587962 -0.0483972
v -0.865725 0.731813 -0.0483972
v -0.145166 0.587962 -0.0483972
v -0.145166 0.731813 -0.0483972
v -0.865725 0.731813 -0.0483972
v -0.865725 0.659887 0.0483969
v -0.145166 0.731813 -0.0483972
v -0.145166 0.659887 0.0483969
v -0.865725 0.659887 0.0483969
v -0.865725 0.587962 -0.0483972
v -0.145166 0.659887 0.0483969
v -0.145166 0.587962 -0.0483972
v -0.379562 0.512377 -0.0953104
v -0.379562 0.752542 -0.0953104
v 0 0.512377 -0.0953104
v 0 0.752542 -0.0953104
v 0 0.512377 0.09531
v 0 0.752542 0.09531
v -0.379562 0.512377 0.09531
v -0.379562 0.752542 0.09531

vn 0 -0.0265198 0.999512
vn 0 -0.0265198 0.999512
vn 0 -0.0265198 0.999512
vn 0 -0.0265198 0.999512
vn 0 1 0
vn 0 1 0
vn 0 1 0
vn 0 1 0
vn 0 -0.0265198 -0.999512
vn 0 -0.0265198 -0.999512
vn 0 -0.0265198 -0.999512
vn 0 -0.0265198 -0.999512
vn 0 -1 0
vn 0 -1 0
vn 0 -1 0
vn 0 -1 0
vn 1 0 0
vn 1 0 0
vn 1 0 0
vn 1 0 0
vn -1 0 0
vn -1 0 0
vn -1 0 0
vn -1 0 0
vn 0 0 1
vn 0 0 1
vn 0 0 1
vn 0 0 1
vn 0 1 0
vn 0 1 0
vn 0 1 0
vn 0 1 0
vn 0 0 -1
vn 0 0 -1
vn 0 0 -1
vn 0 0 -1
vn 0 -1 0
vn 0 -1 0
vn 0 -1 0
vn 0 -1 0
vn 1 0 0
vn 1 0 0
vn 1 0 0
vn 1 0 0
vn -1 0 0
vn -1 0 0
vn -1 0 0
vn -1 0 0
vn 0 0 1
vn 0 0 1
vn 0 0 1
vn 0 0 1
vn 0 0 -1
vn 0 0 -1
vn 0 0 -1
vn 0 0 -1
vn 1 0 0
vn 1 0 0
vn 1 0 0
vn 1 0 0
vn -1 0 0
vn -1 0 0
vn -1 0 0
vn -1 0 0
vn 0 0 1
vn 0 0 1
vn 0 0 1
vn 0 0 1
vn 0 0 -1
vn 0 0 -1
vn 0 0 -1
vn 0 0 -1
vn 1 0 0
vn 1 0 0
vn 1 0 0
vn 1 0 0
vn -1 0 0
vn -1 0 0
vn -1 0 0
vn -1 0 0
vn 0 0 1
vn 0 0 1
vn 0 0 1
vn 0 0 1
vn 0 0 -1
vn 0 0 -1
vn 0 0 -1
vn 0 0 -1
vn 0 0 1
vn 0 0 1
vn 0 0 1
vn 0 0 1
vn 0 0 -1
vn 0 0 -1
vn 0 0 -1
vn 0 0 -1
vn 0 0 1
vn 0 0 1
vn 0 0 1
vn 0 0 1
vn 0 0.802246 -0.596191
vn 0 0.802246 -0.596191
vn 0 0.802246 -0.596191
vn 0 0.802246 -0.596191
vn 0 -0.802246 -0.596191
vn 0 -0.802246 -0.596191
vn 0 -0.802246 -0.596191
vn 0 -0.802246 -0.596191
vn 0 0 1
vn 0 0 1
vn 0 0 1
vn 0 0 1
vn 0 0.802246 -0.596191
vn 0 0.802246 -0.596191
vn 0 0.802246 -0.596191
vn 0 0.802246 -0.596191
vn 0 -0.802246 -0.596191
vn 0 -0.802246 -0.596191
vn 0 -0.802246 -0.596191
vn 0 -0.802246 -0.596191
vn 0 0 1
vn 0 0 1
vn 0 0 1
vn 0 0 1
vn 0 0 -1
vn 0 0 -1
vn 0 0 -1
vn 0 0 -1
vn 0 -0.0265198 -0.999512
vn 0 -0.0265198 -0.999512
vn 0 -0.0265198 -0.999512
vn 0 -0.0265198 -0.999512
vn 0 1 0
vn 0 1 0
vn 0 1 0
vn 0 1 0
vn 0 -0.0265198 0.999512
vn 0 -0.0265198 0.999512
vn 0 -0.0265198 0.999512
vn 0 -0.0265198 0.999512
vn 0 -1 0
vn 0 -1 0
vn 0 -1 0
vn 0 -1 0
vn -1 0 0
vn -1 0 0
vn -1 0 0
vn -1 0 0
vn 1 0 0
vn 1 0 0
vn 1 0 0
vn 1 0 0
vn 0 0 -1
vn 0 0 -1
vn 0 0 -1
vn 0 0 -1
vn 0 1 0
vn 0 1 0
vn 0 1 0
vn 0 1 0
vn 0 0 1
vn 0 0 1
vn 0 0 1
vn 0 0 1
vn 0 -1 0
vn 0 -1 0
vn 0 -1 0
vn 0 -1 0
vn -1 0 0
vn -1 0 0
vn -1 0 0
vn -1 0 0
vn 1 0 0
vn 1 0 0
vn 1 0 0
vn 1 0 0
vn 0 0 -1
vn 0 0 -1
vn 0 0 -1
vn 0 0 -1
vn 0 0 1
vn 0 0 1
vn 0 0 1
vn 0 0 1
vn -1 0 0
vn -1 0 0
vn -1 0 0
vn -1 0 0
vn 1 0 0
vn 1 0 0
vn 1 0 0
vn 1 0 0
vn 0 0 -1
vn 0 0 -1
vn 0 0 -1
vn 0 0 -1
vn 0 0 1
vn 0 0 1
vn 0 0 1
vn 0 0 1
vn -1 0 0
vn -1 0 0
vn -1 0 0
vn -1 0 0
vn 1 0 0
vn 1 0 0
vn 1 0 0
vn 1 0 0
vn 0 0 -1
vn 0 0 -1
vn 0 0 -1
vn 0 0 -1
vn 0 0 1
vn 0 0 1
vn 0 0 1
vn 0 0 1
vn 0 0 -1
vn 0 0 -1
vn 0 0 -1
vn 0 0 -1
vn 0 0 1
vn 0 0 1
vn 0 0 1
vn 0 0 1
vn 0 0 -1
vn 0 0 -1
vn 0 0 -1
vn 0 0 -1
vn 0 0.802246 0.596191
vn 0 0.802246 0.596191
vn 0 0.802246 0.596191
vn 0 0.802246 0.596191
vn 0 -0.802246 0.596191
vn 0 -0.802246 0.596191
vn 0 -0.802246 0.596191
vn 0 -0.802246 0.596191
vn 0 0 -1
vn 0 0 -1
vn 0 0 -1
vn 0 0 -1
vn 0 0.802246 0.596191
vn 0 0.802246 0.596191
vn 0 0.802246 0.596191
vn 0 0.802246 0.596191
vn 0 -0.802246 0.596191
vn 0 -0.802246 0.596191
vn 0 -0.802246 0.596191
vn 0 -0.802246 0.596191
vn 0 0 -1
vn 0 0 -1
vn 0 0 -1
vn 0 0 -1
vn 0 0 1
vn 0 0 1
vn 0 0 1
vn 0 0 1

vt 0.43745 0.174245
vt 0.991064 0.174245
vt 0.43745 0.492554
vt 0.991064 0.492554
vt 0.439107 0.519848
vt 0.988805 0.519848
vt 0.439107 0.67298
vt 0.988805 0.67298
vt 0.991064 0.492554
vt 0.43745 0.492554
vt 0.991064 0.174245
vt 0.43745 0.174245
vt 0.439107 0.519848
vt 0.988805 0.519848
vt 0.439107 0.67298
vt 0.988805 0.67298
vt 0.43745 0.174245
vt 0.991064 0.174245
vt 0.43745 0.492554
vt 0.991064 0.492554
vt 0.43745 0.174245
vt 0.991064 0.174245
vt 0.43745 0.492554
vt 0.991064 0.492554
vt 0.439107 0.0132282
vt 0.988805 0.0132282
vt 0.439107 0.14491
vt 0.988805 0.14491
vt 0.439107 0.519848
vt 0.988805 0.519848
vt 0.439107 0.67298
vt 0.988805 0.67298
vt 0.988805 0.14491
vt 0.439107 0.14491
vt 0.988805 0.0132282
vt 0.439107 0.0132282
vt 0.439107 0.519848
vt 0.988805 0.519848
vt 0.439107 0.67298
vt 0.988805 0.67298
vt 0.344003 0.699205
vt 0.482654 0.699205
vt 0.344003 0.833307
vt 0.482654 0.833307
vt 0.344003 0.699205
vt 0.482654 0.699205
vt 0.344003 0.833307
vt 0.482654 0.833307
vt 0.012904 0.292005
vt 0.0905843 0.292005
vt 0.012904 1
vt 0.0905843 1
vt 0.090584 1
vt 0.012904 1
vt 0.090584 0.292005
vt 0.012904 0.292005
vt 0.111488 0.292005
vt 0.1876 0.292005
vt 0.111488 1
vt 0.1876 1
vt 0.111488 0.292005
vt 0.1876 0.292005
vt 0.111488 1
vt 0.1876 1
vt 0.0129042 0.292005
vt 0.0905837 0.292005
vt 0.0129042 1
vt 0.0905837 1
vt 0.090584 1
vt 0.012904 1
vt 0.090584 0.292005
vt 0.012904 0.292005
vt 0.111488 0.292005
vt 0.1876 0.292005
vt 0.111488 1
vt 0.1876 1
vt 0.111488 0.292005
vt 0.1876 0.292005
vt 0.111488 1
vt 0.1876 1
vt 0.209614 0.292005
vt 0.26341 0.292005
vt 0.209614 1
vt 0.26341 1
vt 0.32074 1
vt 0.287966 1
vt 0.32074 0.292005
vt 0.287966 0.292005
vt 0.209614 0.292005
vt 0.26341 0.292005
vt 0.209614 1
vt 0.26341 1
vt 0.32074 1
vt 0.287966 1
vt 0.32074 0.292005
vt 0.287966 0.292005
vt 0.988805 0.704161
vt 0.988805 0.783236
vt 0.584577 0.704161
vt 0.584577 0.783236
vt 0.988805 0.807508
vt 0.988805 0.861514
vt 0.584577 0.807508
vt 0.584577 0.861514
vt 0.584577 0.861514
vt 0.584577 0.807508
vt 0.988805 0.861514
vt 0.988805 0.807508
vt 0.988805 0.704161
vt 0.988805 0.783236
vt 0.584577 0.704161
vt 0.584577 0.783236
vt 0.988805 0.807508
vt 0.988805 0.861514
vt 0.584577 0.807508
vt 0.584577 0.861514
vt 0.584577 0.861514
vt 0.584577 0.807508
vt 0.988805 0.861514
vt 0.988805 0.807508
vt 0.216267 0.14428
vt 0.216267 0.273371
vt 0.012247 0.14428
vt 0.012247 0.273371
vt 0.216267 0.14428
vt 0.216267 0.273371
vt 0.0122475 0.14428
vt 0.0122475 0.273371
vt 0.43745 0.174245
vt 0.991064 0.174245
vt 0.43745 0.492554
vt 0.991064 0.492554
vt 0.439107 0.519848
vt 0.988805 0.519848
vt 0.439107 0.67298
vt 0.988805 0.67298
vt 0.991064 0.492554
vt 0.43745 0.492554
vt 0.991064 0.174245
vt 0.43745 0.174245
vt 0.439107 0.519848
vt 0.988805 0.519848
vt 0.439107 0.67298
vt 0.988805 0.67298
vt 0.43745 0.174245
vt 0.991064 0.174245
vt 0.43745 0.492554
vt 0.991064 0.492554
vt 0.43745 0.174245
vt 0.991064 0.174245
vt 0.43745 0.492554
vt 0.991064 0.492554
vt 0.439107 0.0132282
vt 0.988805 0.0132282
vt 0.439107 0.14491
vt 0.988805 0.14491
vt 0.439107 0.519848
vt 0.988805 0.519848
vt 0.439107 0.67298
vt 0.988805 0.67298
vt 0.988805 0.14491
vt 0.439107 0.14491
vt 0.988805 0.0132282
vt 0.439107 0.0132282
vt 0.439107 0.519848
vt 0.988805 0.519848
vt 0.439107 0.67298
vt 0.988805 0.67298
vt 0.344003 0.699205
vt 0.482654 0.699205
vt 0.344003 0.833307
vt 0.482654 0.833307
vt 0.344003 0.699205
vt 0.482654 0.699205
vt 0.344003 0.833307
vt 0.482654 0.833307
vt 0.012904 0.292005
vt 0.0905843 0.292005
vt 0.012904 1
vt 0.0905843 1
vt 0.090584 1
vt 0.012904 1
vt 0.090584 0.292005
vt 0.012904 0.292005
vt 0.111488 0.292005
vt 0.1876 0.292005
vt 0.111488 1
vt 0.1876 1
vt 0.111488 0.292005
vt 0.1876 0.292005
vt 0.111488 1
vt 0.1876 1
vt 0.0129042 0.292005
vt 0.0905837 0.292005
vt 0.0129042 1
vt 0.0905837 1
vt 0.090584 1
vt 0.012904 1
vt 0.090584 0.292005
vt 0.012904 0.292005
vt 0.111488 0.292005
vt 0.1876 0.292005
vt 0.111488 1
vt 0.1876 1
vt 0.111488 0.292005
vt 0.1876 0.292005
vt 0.111488 1
vt 0.1876 1
vt 0.209614 0.292005
vt 0.26341 0.292005
vt 0.209614 1
vt 0.26341 1
vt 0.32074 1
vt 0.287966 1
vt 0.32074 0.292005
vt 0.287966 0.292005
vt 0.209614 0.292005
vt 0.26341 0.292005
vt 0.209614 1
vt 0.26341 1
vt 0.32074 1
vt 0.287966 1
vt 0.32074 0.292005
vt 0.287966 0.292005
vt 0.988805 0.704161
vt 0.988805 0.783236
vt 0.584577 0.704161
vt 0.584577 0.783236
vt 0.988805 0.807508
vt 0.988805 0.861514
vt 0.584577 0.807508
vt 0.584577 0.861514
vt 0.584577 0.861514
vt 0.584577 0.807508
vt 0.988805 0.861514
vt 0.988805 0.807508
vt 0.988805 0.704161
vt 0.988805 0.783236
vt 0.584577 0.704161
vt 0.584577 0.783236
vt 0.988805 0.807508
vt 0.988805 0.861514
vt 0.584577 0.807508
vt 0.584577 0.861514
vt 0.584577 0.861514
vt 0.584577 0.807508
vt 0.988805 0.861514
vt 0.988805 0.807508
vt 0.216267 0.14428
vt 0.216267 0.273371
vt 0.012247 0.14428
vt 0.012247 0.273371
vt 0.216267 0.14428
vt 0.216267 0.273371
vt 0.0122475 0.14428
vt 0.0122475 0.273371


#
# MESH 000
#
g surface_000
usemtl surface_000
f 127/127/127 126/126/126 128/128/128
f 125/125/125 126/126/126 127/127/127
f 123/123/123 122/122/122 124/124/124
f 121/121/121 122/122/122 123/123/123
f 119/119/119 118/118/118 120/120/120
f 117/117/117 118/118/118 119/119/119
f 115/115/115 114/114/114 116/116/116
f 113/113/113 114/114/114 115/115/115
f 111/111/111 110/110/110 112/112/112
f 109/109/109 110/110/110 111/111/111
f 107/107/107 106/106/106 108/108/108
f 105/105/105 106/106/106 107/107/107
f 103/103/103 102/102/102 104/104/104
f 101/101/101 102/102/102 103/103/103
f 99/99/99 98/98/98 100/100/100
f 97/97/97 98/98/98 99/99/99
f 95/95/95 94/94/94 96/96/96
f 93/93/93 94/94/94 95/95/95
f 91/91/91 90/90/90 92/92/92
f 89/89/89 90/90/90 91/91/91
f 87/87/87 86/86/86 88/88/88
f 85/85/85 86/86/86 87/87/87
f 83/83/83 82/82/82 84/84/84
f 81/81/81 82/82/82 83/83/83
f 79/79/79 78/78/78 80/80/80
f 77/77/77 78/78/78 79/79/79
f 75/75/75 74/74/74 76/76/76
f 73/73/73 74/74/74 75/75/75
f 71/71/71 70/70/70 72/72/72
f 69/69/69 70/70/70 71/71/71
f 67/67/67 66/66/66 68/68/68
f 65/65/65 66/66/66 67/67/67
f 63/63/63 62/62/62 64/64/64
f 61/61/61 62/62/62 63/63/63
f 59/59/59 58/58/58 60/60/60
f 57/57/57 58/58/58 59/59/59
f 55/55/55 54/54/54 56/56/56
f 53/53/53 54/54/54 55/55/55
f 51/51/51 50/50/50 52/52/52
f 49/49/49 50/50/50 51/51/51
f 47/47/47 46/46/46 48/48/48
f 45/45/45 46/46/46 47/47/47
f 43/43/43 42/42/42 44/44/44
f 41/41/41 42/42/42 43/43/43
f 39/39/39 38/38/38 40/40/40
f 37/37/37 38/38/38 39/39/39
f 35/35/35 34/34/34 36/36/36
f 33/33/33 34/34/34 35/35/35
f 31/31/31 30/30/30 32/32/32
f 29/29/29 30/30/30 31/31/31
f 27/27/27 26/26/26 28/28/28
f 25/25/25 26/26/26 27/27/27
f 23/23/23 22/22/22 24/24/24
f 21/21/21 22/22/22 23/23/23
f 19/19/19 18/18/18 20/20/20
f 17/17/17 18/18/18 19/19/19
f 15/15/15 14/14/14 16/16/16
f 13/13/13 14/14/14 15/15/15
f 11/11/11 10/10/10 12/12/12
f 9/9/9 10/10/10 11/11/11
f 7/7/7 6/6/6 8/8/8
f 5/5/5 6/6/6 7/7/7
f 3/3/3 2/2/2 4/4/4
f 1/1/1 2/2/2 3/3/3
f 255/255/255 254/254/254 256/256/256
f 253/253/253 254/254/254 255/255/255
f 251/251/251 250/250/250 252/252/252
f 249/249/249 250/250/250 251/251/251
f 247/247/247 246/246/246 248/248/248
f 245/245/245 246/246/246 247/247/247
f 243/243/243 242/242/242 244/244/244
f 241/241/241 242/242/242 243/243/243
f 239/239/239 238/238/238 240/240/240
f 237/237/237 238/238/238 239/239/239
f 235/235/235 234/234/234 236/236/236
f 233/233/233 234/234/234 235/235/235
f 231/231/231 230/230/230 232/232/232
f 229/229/229 230/230/230 231/231/231
f 227/227/227 226/226/226 228/228/228
f 225/225/225 226/226/226 227/227/227
f 223/223/223 222/222/222 224/224/224
f 221/221/221 222/222/222 223/223/223
f 219/219/219 218/218/218 220/220/220
f 217/217/217 218/218/218 219/219/219
f 215/215/215 214/214/214 216/216/216
f 213/213/213 214/214/214 215/215/215
f 211/211/211 210/210/210 212/212/212
f 209/209/209 210/210/210 211/211/211
f 207/207/207 206/206/206 208/208/208
f 205/205/205 206/206/206 207/207/207
f 203/203/203 202/202/202 204/204/204
f 201/201/201 202/202/202 203/203/203
f 199/199/199 198/198/198 200/200/200
f 197/197/197 198/198/198 199/199/199
f 195/195/195 194/194/194 196/196/196
f 193/193/193 194/194/194 195/195/195
f 191/191/191 190/190/190 192/192/192
f 189/189/189 190/190/190 191/191/191
f 187/187/187 186/186/186 188/188/188
f 185/185/185 186/186/186 187/187/187
f 183/183/183 182/182/182 184/184/184
f 181/181/181 182/182/182 183/183/183
f 179/179/179 178/178/178 180/180/180
f 177/177/177 178/178/178 179/179/179
f 175/175/175 174/174/174 176/176/176
f 173/173/173 174/174/174 175/175/175
f 171/171/171 170/170/170 172/172/172
f 169/169/169 170/170/170 171/171/171
f 167/167/167 166/166/166 168/168/168
f 165/165/165 166/166/166 167/167/167
f 163/163/163 162/162/162 164/164/164
f 161/161/161 162/162/162 163/163/163
f 159/159/159 158/158/158 160/160/160
f 157/157/157 158/158/158 159/159/159
f 155/155/155 154/154/154 156/156/156
f 153/153/153 154/154/154 155/155/155
f 151/151/151 150/150/150 152/152/152
f 149/149/149 150/150/150 151/151/151
f 147/147/147 146/146/146 148/148/148
f 145/145/145 146/146/146 147/147/147
f 143/143/143 142/142/142 144/144/144
f 141/141/141 142/142/142 143/143/143
f 139/139/139 138/138/138 140/140/140
f 137/137/137 138/138/138 139/139/139
f 135/135/135 134/134/134 136/136/136
f 133/133/133 134/134/134 135/135/135
f 131/131/131 130/130/130 132/132/132
f 129/129/129 130/130/130 131/131/131

