#
# OBJECT NAME
#
o model_1378
mtllib 1378.mtl

#
# VERTEX BUFFER 000
#
v 0.340186 0.777698 -0.0908542
v 0.340186 0.777698 0.0885705
v -0.340187 0.777698 -0.0908542
v -0.340187 0.777698 0.0885705
v -0.340187 0.956628 -0.0908542
v -0.340187 0.956628 0.0885705
v 0.340186 0.956628 -0.0908542
v 0.340186 0.956628 0.0885705
v 0.340186 0.777698 0.0885705
v 0.340186 0.956628 0.0885705
v -0.340187 0.777698 0.0885705
v -0.340187 0.956628 0.0885705
v 0.340186 0.956628 -0.0908542
v 0.340186 0.777698 -0.0908542
v -0.340187 0.956628 -0.0908542
v -0.340187 0.777698 -0.0908542
v -0.106357 0.806536 -0.340187
v 0.0920391 0.806536 -0.340187
v -0.106357 0.806536 0.340187
v 0.092039 0.806536 0.340187
v -0.106357 0.934272 0.340187
v 0.092039 0.934272 0.340187
v -0.106357 0.934272 -0.340187
v 0.0920391 0.934272 -0.340187
v 0.0920391 0.806536 -0.340187
v 0.0920391 0.934272 -0.340187
v 0.092039 0.806536 0.340187
v 0.092039 0.934272 0.340187
v -0.106357 0.934272 -0.340187
v -0.106357 0.806536 -0.340187
v -0.106357 0.934272 0.340187
v -0.106357 0.806536 0.340187
v 0.5 0.700446 -0.5
v 0.5 0.700446 0.5
v 0.340186 0.700446 0.340187
v 0.340186 0.700446 -0.340187
v -0.340187 0.700446 -0.340187
v -0.5 0.700446 -0.5
v 0.5 0.700446 -0.5
v 0.340186 0.700446 -0.340187
v -0.5 0.700446 0.5
v -0.340187 0.700446 0.340187
v 0.340186 0.700446 0.340187
v 0.5 0.700446 0.5
v -0.340187 0.700446 -0.340187
v -0.340187 0.700446 0.340187
v -0.5 0.700446 0.5
v -0.5 0.700446 -0.5
v 0.5 0.700446 0.5
v 0.5 1 0.5
v -0.5 1 0.5
v -0.5 0.700446 0.5
v 0.5 1 -0.5
v 0.5 1 0.5
v 0.5 0.700446 0.5
v 0.5 0.700446 -0.5
v 0.5 1 -0.5
v 0.5 0.700446 -0.5
v -0.5 0.700446 -0.5
v -0.5 1 -0.5
v -0.5 1 0.5
v -0.5 1 -0.5
v -0.5 0.700446 -0.5
v -0.5 0.700446 0.5
v 0.5 1 -0.5
v 0.340186 1 -0.340187
v 0.340186 1 0.340187
v 0.5 1 0.5
v -0.340187 1 -0.340187
v -0.5 1 -0.5
v -0.5 1 0.5
v -0.340187 1 0.340187
v -0.5 1 -0.5
v -0.5 1 0.5
v -0.340187 1 0.340187
v -0.340187 0.700446 0.340187
v -0.340187 0.700446 -0.340187
v -0.340187 1 -0.340187
v 0.340186 1 -0.340187
v 0.340186 0.700446 -0.340187
v 0.340186 0.700446 0.340187
v 0.340186 1 0.340187
v 0.340186 1 0.340187
v 0.340186 0.700446 0.340187
v -0.340187 0.700446 0.340187
v -0.340187 1 0.340187
v -0.340187 1 -0.340187
v -0.340187 0.700446 -0.340187
v 0.340186 0.700446 -0.340187
v 0.340186 1 -0.340187

vn 0 -1 0
vn 0 -1 0
vn 0 -1 0
vn 0 -1 0
vn 0 1 0
vn 0 1 0
vn 0 1 0
vn 0 1 0
vn 0 0 1
vn 0 0 1
vn 0 0 1
vn 0 0 1
vn 0 0 -1
vn 0 0 -1
vn 0 0 -1
vn 0 0 -1
vn 0 -1 0
vn 0 -1 0
vn 0 -1 0
vn 0 -1 0
vn 0 1 0
vn 0 1 0
vn 0 1 0
vn 0 1 0
vn 1 0 0
vn 1 0 0
vn 1 0 0
vn 1 0 0
vn -1 0 0
vn -1 0 0
vn -1 0 0
vn -1 0 0
vn 0 -1 0
vn 0 -1 0
vn 0 -1 0
vn 0 -1 0
vn 0 -1 -6.55651e-007
vn 0 -1 -6.55651e-007
vn 0 -1 -6.55651e-007
vn 0 -1 -6.55651e-007
vn 0 -1 -4.17233e-007
vn 0 -1 -4.17233e-007
vn 0 -1 -4.17233e-007
vn 0 -1 -4.17233e-007
vn 0 -1 0
vn 0 -1 0
vn 0 -1 0
vn 0 -1 0
vn 0 0 1
vn 0 0 1
vn 0 0 1
vn 0 0 1
vn 1 0 0
vn 1 0 0
vn 1 0 0
vn 1 0 0
vn 0 0 -1
vn 0 0 -1
vn 0 0 -1
vn 0 0 -1
vn -1 0 0
vn -1 0 0
vn -1 0 0
vn -1 0 0
vn 0 1 0
vn 0 1 0
vn 0 1 0
vn 0 1 0
vn 0 1 0
vn 0 1 0
vn 0 1 0
vn 0 1 0
vn 0 1 0
vn 0 1 0
vn 1 0 0
vn 1 0 0
vn 1 0 0
vn 1 0 0
vn -1 0 0
vn -1 0 0
vn -1 0 0
vn -1 0 0
vn 0 0 -1
vn 0 0 -1
vn 0 0 -1
vn 0 0 -1
vn 0 0 1
vn 0 0 1
vn 0 0 1
vn 0 0 1

vt 0.99008 0.0149786
vt 0.99008 0.188854
vt 0.51008 0.0149786
vt 0.51008 0.188854
vt 0.99008 0.0149786
vt 0.99008 0.188854
vt 0.51008 0.0149786
vt 0.51008 0.188854
vt 0.99008 0.0149786
vt 0.99008 0.188854
vt 0.51008 0.0149786
vt 0.51008 0.188854
vt 0.51008 0.188854
vt 0.51008 0.0149786
vt 0.99008 0.188854
vt 0.99008 0.0149786
vt 0.401332 0.405545
vt 0.401332 0.570084
vt 0.09865 0.405545
vt 0.09865 0.570084
vt 0.401332 0.405545
vt 0.401332 0.570084
vt 0.09865 0.405545
vt 0.09865 0.570084
vt 0.401332 0.405545
vt 0.401332 0.570084
vt 0.09865 0.405545
vt 0.09865 0.570084
vt 0.09865 0.570084
vt 0.09865 0.405545
vt 0.401332 0.570084
vt 0.401332 0.405545
vt 0.49008 0.983819
vt 0.49008 0.0155979
vt 0.425186 0.151594
vt 0.42519 0.846589
vt 0.0749698 0.846589
vt 0.0100801 0.983819
vt 0.49008 0.983819
vt 0.42519 0.846589
vt 0.0100801 0.0155979
vt 0.0749733 0.151594
vt 0.425186 0.151594
vt 0.49008 0.0155979
vt 0.0749698 0.846589
vt 0.0749733 0.151594
vt 0.0100801 0.0155979
vt 0.0100801 0.983819
vt 0.99008 0.808423
vt 0.99008 0.974692
vt 0.51008 0.974692
vt 0.51008 0.808423
vt 0.99008 0.975257
vt 0.51008 0.975257
vt 0.51008 0.808988
vt 0.99008 0.808988
vt 0.51008 0.974692
vt 0.51008 0.808423
vt 0.99008 0.808423
vt 0.99008 0.974692
vt 0.99008 0.975257
vt 0.51008 0.975257
vt 0.51008 0.808988
vt 0.99008 0.808988
vt 0.49008 0.983819
vt 0.42519 0.846589
vt 0.425186 0.151594
vt 0.49008 0.0155979
vt 0.0749698 0.846589
vt 0.0100801 0.983819
vt 0.0100801 0.0155979
vt 0.0749733 0.151594
vt 0.0100801 0.983819
vt 0.0100801 0.0155979
vt 0.99008 0.808423
vt 0.99008 0.974692
vt 0.51008 0.974692
vt 0.51008 0.808423
vt 0.99008 0.808423
vt 0.99008 0.974692
vt 0.51008 0.974692
vt 0.51008 0.808423
vt 0.51008 0.808422
vt 0.51008 0.975257
vt 0.99008 0.975258
vt 0.99008 0.808423
vt 0.99008 0.808422
vt 0.99008 0.975257
vt 0.51008 0.975258
vt 0.51008 0.808423


#
# MESH 000
#
g surface_000
usemtl surface_000
f 15/15/15 14/14/14 16/16/16
f 13/13/13 14/14/14 15/15/15
f 11/11/11 10/10/10 12/12/12
f 9/9/9 10/10/10 11/11/11
f 7/7/7 6/6/6 8/8/8
f 5/5/5 6/6/6 7/7/7
f 3/3/3 2/2/2 4/4/4
f 1/1/1 2/2/2 3/3/3
f 31/31/31 30/30/30 32/32/32
f 29/29/29 30/30/30 31/31/31
f 27/27/27 26/26/26 28/28/28
f 25/25/25 26/26/26 27/27/27
f 23/23/23 22/22/22 24/24/24
f 21/21/21 22/22/22 23/23/23
f 19/19/19 18/18/18 20/20/20
f 17/17/17 18/18/18 19/19/19
f 87/87/87 89/89/89 90/90/90
f 87/87/87 88/88/88 89/89/89
f 83/83/83 85/85/85 86/86/86
f 83/83/83 84/84/84 85/85/85
f 79/79/79 81/81/81 82/82/82
f 79/79/79 80/80/80 81/81/81
f 75/75/75 77/77/77 78/78/78
f 75/75/75 76/76/76 77/77/77
f 69/69/69 74/74/74 72/72/72
f 69/69/69 73/73/73 74/74/74
f 71/71/71 67/67/67 72/72/72
f 71/71/71 68/68/68 67/67/67
f 65/65/65 67/67/67 68/68/68
f 65/65/65 66/66/66 67/67/67
f 69/69/69 66/66/66 65/65/65
f 69/69/69 65/65/65 70/70/70
f 61/61/61 63/63/63 64/64/64
f 61/61/61 62/62/62 63/63/63
f 57/57/57 59/59/59 60/60/60
f 57/57/57 58/58/58 59/59/59
f 53/53/53 55/55/55 56/56/56
f 53/53/53 54/54/54 55/55/55
f 49/49/49 51/51/51 52/52/52
f 49/49/49 50/50/50 51/51/51
f 45/45/45 47/47/47 48/48/48
f 45/45/45 46/46/46 47/47/47
f 41/41/41 43/43/43 44/44/44
f 41/41/41 42/42/42 43/43/43
f 37/37/37 39/39/39 40/40/40
f 37/37/37 38/38/38 39/39/39
f 33/33/33 35/35/35 36/36/36
f 33/33/33 34/34/34 35/35/35

