#
# OBJECT NAME
#
o model_4610
mtllib 4610.mtl

#
# VERTEX BUFFER 000
#
v -1.00136e-005 0.417513 0.172264
v -0.152209 0.458798 0.254078
v -1.19209e-005 0.812712 0.213657
v -0.0402045 0.812712 0.254077
v 0.152187 0.373916 0.254078
v 0.0401807 0.812712 0.254077
v -0.152209 0.458798 0.254078
v -1.00136e-005 0.417513 0.172264
v -1.00136e-005 0.402987 0.385886
v 0.152187 0.373916 0.254078
v -1.09673e-005 0.864636 0.199256
v -0.0545259 0.859874 0.254077
v -1.09673e-005 0.924803 0.254077
v -0.0545259 0.859874 0.254077
v -1.09673e-005 0.864636 0.308906
v -1.09673e-005 0.924803 0.254077
v 0.0545039 0.859874 0.254077
v 0.0545039 0.859874 0.254077
v -0.0402045 0.812712 0.254077
v -1.19209e-005 0.812712 0.294497
v -0.0402045 0.812712 0.254077
v -1.19209e-005 0.812712 0.213657
v 0.0401807 0.812712 0.254077
v 0.0401807 0.812712 0.254077
v 0.531267 1.55353 0.246024
v -4.29153e-006 0.854385 0.246024
v -4.29153e-006 2.66087 0.246024
v -4.29153e-006 2.66087 0.255635
v -4.29153e-006 0.854385 0.255635
v 0.540621 1.57204 0.255635
v 0.766624 2.66087 0.255635
v -4.29153e-006 2.66087 0.246024
v -4.29153e-006 0.854385 0.246024
v -0.526715 1.54296 0.246024
v -0.52941 1.54829 0.255635
v -4.29153e-006 0.854385 0.255635
v -4.29153e-006 2.66087 0.255635
v -0.0402045 0.812712 0.254077
v -0.152209 0.458798 0.254078
v -1.19209e-005 0.812712 0.294497
v -1.00136e-005 0.402987 0.385886
v 0.0401807 0.812712 0.254077
v 0.1 0 1.19209e-007
v 1.19209e-007 0 -0.0999999
v 0.100076 3.05232 -0.00410078
v -4.76837e-007 3.06572 -0.0999999
v -0.1 0 1.19209e-007
v -0.0984516 3.06173 0.000820665
v 1.19209e-007 0 0.1
v -4.76837e-007 3.05075 0.1
v 0.1 0 1.19209e-007
v 0.100076 3.05232 -0.00410078
v -4.76837e-007 3.06572 -0.0999999
v -0.0984516 3.06173 0.000820665
v -4.76837e-007 3.05075 0.1
v 0.100076 3.05232 -0.00410078
v 1.03833 2.7033 0.177438
v 0.845642 2.5764 0.177438
v 0.845642 2.7033 0.0623433
v 1.03833 2.7033 0.177438
v 0.845642 2.7033 0.292534
v 0.845642 2.8302 0.177438
v 0.845642 2.8302 0.177438
v 0.800791 2.7033 0.0947619
v 0.845642 2.7033 0.0623433
v 0.800791 2.61212 0.177439
v 0.845642 2.5764 0.177438
v 0.800791 2.7033 0.260115
v 0.845642 2.7033 0.292534
v 0.800791 2.79444 0.177439
v 0.845642 2.8302 0.177438
v 0.800791 2.79444 0.177439
v 0.845642 2.8302 0.177438
v -1.03833 2.7033 0.177439
v -0.845642 2.5764 0.177439
v -0.845642 2.7033 0.292534
v -1.03833 2.7033 0.177439
v -0.845642 2.7033 0.0623433
v -0.845642 2.8302 0.177439
v -0.845642 2.8302 0.177439
v -0.800792 2.70331 0.260139
v -0.845642 2.7033 0.292534
v -0.800792 2.61212 0.177458
v -0.845642 2.5764 0.177439
v -0.800792 2.70329 0.0947858
v -0.845642 2.7033 0.0623433
v -0.800792 2.79444 0.177458
v -0.845642 2.8302 0.177439
v -0.800792 2.79444 0.177458
v -0.845642 2.8302 0.177439
v -0.377355 2.54589 0.258684
v -0.315906 2.70623 0.261805
v -0.471904 2.54589 0.258684
v -0.533354 2.70623 0.261813
v -0.315906 2.79645 0.177451
v -0.350526 2.70864 0.0967631
v -0.533354 2.79645 0.177455
v -0.498734 2.70864 0.0967637
v 0.350518 2.70864 0.0967631
v 0.315897 2.79645 0.177451
v 0.498725 2.70864 0.0967637
v 0.533346 2.79645 0.177455
v 0.533346 2.70623 0.261813
v 0.315897 2.70623 0.261805
v 0.377346 2.54589 0.258684
v 0.471896 2.54589 0.258684
v -0.800792 2.70331 0.260139
v -0.800792 2.61212 0.177458
v 0.800791 2.7033 0.260115
v 0.800791 2.61212 0.177439
v -0.800792 2.61212 0.177458
v -0.800792 2.70329 0.0985167
v 0.800791 2.61212 0.177439
v 0.800791 2.7033 0.0984938
v -0.800792 2.79444 0.177458
v 0.800791 2.79444 0.177439
v -0.800792 2.79444 0.177458
v 0.800791 2.79444 0.177439
v -0.766639 2.66087 0.255635
v 0.766624 2.66087 0.246024
v -0.766639 2.66087 0.246024
v 0.1 0 1.19209e-007
v 1.19209e-007 0 0.1
v -0.1 0 1.19209e-007
v 1.19209e-007 0 -0.0999999

vn 0.0224609 0.140869 -0.989746
vn -0.962402 0.258789 -0.0769653
vn 0.0224609 0.140869 -0.989746
vn -0.962402 0.258789 -0.0769653
vn 0.970703 0.223511 -0.0828857
vn 0.970703 0.223511 -0.0828857
vn -0.293457 -0.953613 -0.0648193
vn -0.267822 -0.960938 -0.0653076
vn -0.267822 -0.960938 -0.0653076
vn -0.241821 -0.967773 -0.0657959
vn -1.54972e-006 0.24707 -0.96875
vn -0.970703 0.239502 -2.8789e-005
vn 0 1 -4.60744e-005
vn -0.970703 0.239502 -2.8789e-005
vn -1.37091e-006 0.24707 0.96875
vn 0 1 -4.60744e-005
vn 0.970703 0.239502 -2.89679e-005
vn 0.970703 0.239502 -2.89679e-005
vn -0.959961 -0.279541 -2.06828e-005
vn -2.68221e-006 -0.277344 0.960449
vn -0.959961 -0.279541 -2.06828e-005
vn -2.80142e-006 -0.2771 -0.960449
vn 0.959961 -0.279541 -2.09212e-005
vn 0.959961 -0.279541 -2.09212e-005
vn 0 0 -1
vn 0 0 -1
vn 0 0 -1
vn 0 0 1
vn 0 0 1
vn 0 0 1
vn 0 0 1
vn 0 0 -1
vn 0 0 -1
vn 0 0 -1
vn 0 0 1
vn 0 0 1
vn 0 0 1
vn -0.962402 0.258789 -0.0769653
vn -0.962402 0.258789 -0.0769653
vn 0.030014 0.229248 0.972656
vn 0.030014 0.229248 0.972656
vn 0.970703 0.223511 -0.0828857
vn 0.999512 -1.87755e-005 -0.0102615
vn -0.008255 -0.000154853 -0.999512
vn 0.999512 -1.87755e-005 -0.0102615
vn -0.008255 -0.000154853 -0.999512
vn -0.999512 0.000259399 0.00205421
vn -0.999512 0.000259399 0.00205421
vn 0.00406265 0.000399351 0.999512
vn 0.00406265 0.000399351 0.999512
vn 0.999512 -1.87755e-005 -0.0102615
vn 0.999512 -1.87755e-005 -0.0102615
vn 0.0489197 0.995605 0.074585
vn 0.0360413 0.996094 0.074585
vn 0.0489197 0.995605 0.074585
vn 0.0618286 0.995117 0.0745239
vn 1 1.78814e-007 -3.99351e-006
vn 0.549805 -0.834961 -2.14577e-006
vn 0.512695 0 -0.858398
vn 1 1.78814e-007 -3.99351e-006
vn 0.512695 0 0.858398
vn 0.549805 0.834961 -2.20537e-006
vn 0.549805 0.834961 -2.20537e-006
vn -0.585449 -1.055e-005 -0.810059
vn -0.585449 -1.055e-005 -0.810059
vn -0.623047 -0.781738 4.76837e-007
vn -0.623047 -0.781738 4.76837e-007
vn -0.585449 -1.04308e-005 0.810059
vn -0.585449 -1.04308e-005 0.810059
vn -0.623047 0.781738 4.17233e-007
vn -0.623047 0.781738 4.17233e-007
vn -0.623047 0.781738 4.17233e-007
vn -0.623047 0.781738 4.17233e-007
vn -1 1.78814e-007 3.99351e-006
vn -0.549805 -0.834961 2.14577e-006
vn -0.512695 0 0.858398
vn -1 1.78814e-007 3.99351e-006
vn -0.512695 0 -0.858398
vn -0.549805 0.834961 2.26498e-006
vn -0.549805 0.834961 2.26498e-006
vn 0.585449 3.60608e-005 0.810547
vn 0.585449 3.60608e-005 0.810547
vn 0.623047 -0.781738 0.000107765
vn 0.623047 -0.781738 0.000107765
vn 0.585938 -5.73993e-005 -0.810059
vn 0.585938 -5.73993e-005 -0.810059
vn 0.623047 0.781738 0.000128269
vn 0.623047 0.781738 0.000128269
vn 0.623047 0.781738 0.000128269
vn 0.623047 0.781738 0.000128269
vn 2.41399e-005 -0.0194855 0.999512
vn 2.45571e-005 0.35791 0.933594
vn 2.41399e-005 -0.0194855 0.999512
vn 2.45571e-005 0.35791 0.933594
vn 7.33137e-006 0.999512 -0.00432587
vn -1.14441e-005 0.67627 -0.73584
vn 7.33137e-006 0.999512 -0.00432587
vn -1.14441e-005 0.67627 -0.73584
vn 1.13845e-005 0.67627 -0.73584
vn -7.33137e-006 0.999512 -0.00432587
vn 1.13845e-005 0.67627 -0.73584
vn -7.33137e-006 0.999512 -0.00432587
vn -2.45571e-005 0.35791 0.933594
vn -2.45571e-005 0.35791 0.933594
vn -2.41399e-005 -0.0194855 0.999512
vn -2.41399e-005 -0.0194855 0.999512
vn 1.3411e-005 0.00015676 1
vn 0 -0.999512 -0.0114365
vn 1.3411e-005 0.00015676 1
vn 0 -0.999512 -0.0114365
vn 0 -0.999512 -0.0114365
vn -1.3113e-005 9.4533e-005 -1
vn 0 -0.999512 -0.0114365
vn -1.3113e-005 9.4533e-005 -1
vn 0 0.999512 -0.0115051
vn 0 0.999512 -0.0115051
vn 0 0.999512 -0.0115051
vn 0 0.999512 -0.0115051
vn 0 0 1
vn 0 0 -1
vn 0 0 -1
vn 0 -1 0
vn 0 -1 0
vn 0 -1 0
vn 0 -1 0

vt 0.832679 0.0128298
vt 0.87489 0.0225162
vt 0.831541 0.115277
vt 0.854204 0.115277
vt 0.790176 0.00380516
vt 0.8092 0.115277
vt 0.786206 0.165613
vt 0.758246 0.143478
vt 0.814539 0.141865
vt 0.786814 0.118829
vt 0.672268 0.037932
vt 0.692519 0.037932
vt 0.67224 0.0545356
vt 0.652141 0.037932
vt 0.672268 0.037932
vt 0.67224 0.0545355
vt 0.692518 0.037932
vt 0.652141 0.037932
vt 0.64984 0.0068869
vt 0.67231 0.0068869
vt 0.694772 0.0068869
vt 0.67231 0.0068869
vt 0.64984 0.0068869
vt 0.694771 0.0068869
vt 0.921794 0.169952
vt 0.997212 0.274925
vt 0.997212 0.00333798
vt 0.871782 0.468504
vt 0.87179 0.148292
vt 0.961605 0.275713
vt 1.0079 0.468504
vt 0.997212 0.00333798
vt 0.997212 0.274925
vt 0.922544 0.171539
vt 0.959612 0.271497
vt 0.87179 0.148292
vt 0.871782 0.468504
vt 0.730062 0.115277
vt 0.712241 0.0267166
vt 0.751504 0.115277
vt 0.750524 0.0127548
vt 0.772653 0.115277
vt 0.604492 0.0698472
vt 0.628707 0.0698472
vt 0.604492 0.497636
vt 0.628284 0.497636
vt 0.653608 0.0698472
vt 0.653078 0.497636
vt 0.678506 0.0698472
vt 0.677795 0.497636
vt 0.703409 0.0698472
vt 0.703409 0.497636
vt 0.801209 0.458716
vt 0.779646 0.426185
vt 0.801279 0.40338
vt 0.820822 0.431033
vt 0.809664 0.387966
vt 0.78041 0.328371
vt 0.809379 0.328371
vt 0.751495 0.388597
vt 0.751441 0.328371
vt 0.721777 0.328371
vt 0.839042 0.328371
vt 0.809379 0.292063
vt 0.809379 0.298864
vt 0.78041 0.292063
vt 0.78041 0.298864
vt 0.751441 0.292063
vt 0.751441 0.298864
vt 0.721777 0.292063
vt 0.721777 0.298864
vt 0.839042 0.292063
vt 0.839042 0.298864
vt 0.809665 0.387965
vt 0.78041 0.328371
vt 0.809379 0.328371
vt 0.751495 0.388598
vt 0.751441 0.328371
vt 0.721777 0.328371
vt 0.839042 0.328371
vt 0.809379 0.292063
vt 0.809379 0.298864
vt 0.78041 0.292063
vt 0.78041 0.298864
vt 0.751441 0.292063
vt 0.751441 0.298864
vt 0.721777 0.292063
vt 0.721777 0.298864
vt 0.839042 0.292063
vt 0.839042 0.298864
vt 0.728848 0.191021
vt 0.764284 0.180087
vt 0.728848 0.207394
vt 0.764428 0.218034
vt 0.780593 0.180087
vt 0.809507 0.186082
vt 0.780593 0.218034
vt 0.809606 0.211746
vt 0.809606 0.211746
vt 0.780593 0.218034
vt 0.809507 0.186082
vt 0.780593 0.180087
vt 0.764284 0.180087
vt 0.764428 0.218034
vt 0.728848 0.207394
vt 0.728848 0.191021
vt 0.571648 0.288342
vt 0.59345 0.288342
vt 0.571648 0.495662
vt 0.59345 0.495662
vt 0.550426 0.288342
vt 0.571648 0.288342
vt 0.550426 0.495662
vt 0.571648 0.495662
vt 0.59345 0.288342
vt 0.59345 0.495662
vt 0.550426 0.288342
vt 0.550426 0.495662
vt 1.0079 0.468504
vt 0.881331 0.00333798
vt 0.881331 0.00333798
vt 0.82892 0.431026
vt 0.801209 0.458716
vt 0.773533 0.431055
vt 0.801279 0.40338


#
# MESH 000
#
g surface_000
usemtl surface_000
f 122/122/122 124/124/124 125/125/125
f 122/122/122 123/123/123 124/124/124
f 32/32/32 34/34/34 121/121/121
f 32/32/32 33/33/33 34/34/34
f 120/120/120 25/25/25 27/27/27
f 25/25/25 26/26/26 27/27/27
f 119/119/119 35/35/35 37/37/37
f 35/35/35 36/36/36 37/37/37
f 117/117/117 107/107/107 118/118/118
f 118/118/118 107/107/107 109/109/109
f 107/107/107 108/108/108 109/109/109
f 109/109/109 108/108/108 110/110/110
f 114/114/114 115/115/115 116/116/116
f 112/112/112 115/115/115 114/114/114
f 113/113/113 112/112/112 114/114/114
f 111/111/111 112/112/112 113/113/113
f 103/103/103 105/105/105 106/106/106
f 104/104/104 105/105/105 103/103/103
f 103/103/103 100/100/100 104/104/104
f 102/102/102 100/100/100 103/103/103
f 101/101/101 100/100/100 102/102/102
f 99/99/99 100/100/100 101/101/101
f 97/97/97 96/96/96 98/98/98
f 95/95/95 96/96/96 97/97/97
f 97/97/97 94/94/94 95/95/95
f 95/95/95 94/94/94 92/92/92
f 93/93/93 92/92/92 94/94/94
f 91/91/91 92/92/92 93/93/93
f 82/82/82 89/89/89 90/90/90
f 81/81/81 89/89/89 82/82/82
f 81/81/81 82/82/82 83/83/83
f 83/83/83 82/82/82 84/84/84
f 86/86/86 83/83/83 84/84/84
f 85/85/85 83/83/83 86/86/86
f 85/85/85 86/86/86 87/87/87
f 87/87/87 86/86/86 88/88/88
f 74/74/74 76/76/76 80/80/80
f 74/74/74 75/75/75 76/76/76
f 77/77/77 79/79/79 78/78/78
f 77/77/77 78/78/78 75/75/75
f 65/65/65 72/72/72 73/73/73
f 64/64/64 72/72/72 65/65/65
f 64/64/64 65/65/65 66/66/66
f 66/66/66 65/65/65 67/67/67
f 69/69/69 66/66/66 67/67/67
f 68/68/68 66/66/66 69/69/69
f 68/68/68 69/69/69 70/70/70
f 70/70/70 69/69/69 71/71/71
f 57/57/57 59/59/59 63/63/63
f 57/57/57 58/58/58 59/59/59
f 60/60/60 62/62/62 61/61/61
f 60/60/60 61/61/61 58/58/58
f 53/53/53 55/55/55 56/56/56
f 53/53/53 54/54/54 55/55/55
f 50/50/50 51/51/51 52/52/52
f 49/49/49 51/51/51 50/50/50
f 49/49/49 50/50/50 47/47/47
f 47/47/47 50/50/50 48/48/48
f 47/47/47 48/48/48 44/44/44
f 44/44/44 48/48/48 46/46/46
f 45/45/45 44/44/44 46/46/46
f 43/43/43 44/44/44 45/45/45
f 5/5/5 42/42/42 41/41/41
f 41/41/41 42/42/42 40/40/40
f 40/40/40 39/39/39 41/41/41
f 38/38/38 39/39/39 40/40/40
f 28/28/28 30/30/30 31/31/31
f 28/28/28 29/29/29 30/30/30
f 24/24/24 17/17/17 20/20/20
f 20/20/20 17/17/17 15/15/15
f 14/14/14 20/20/20 15/15/15
f 19/19/19 20/20/20 14/14/14
f 15/15/15 17/17/17 16/16/16
f 14/14/14 15/15/15 16/16/16
f 23/23/23 22/22/22 18/18/18
f 18/18/18 22/22/22 11/11/11
f 18/18/18 11/11/11 13/13/13
f 11/11/11 12/12/12 13/13/13
f 22/22/22 12/12/12 11/11/11
f 21/21/21 12/12/12 22/22/22
f 10/10/10 9/9/9 8/8/8
f 7/7/7 8/8/8 9/9/9
f 5/5/5 1/1/1 6/6/6
f 6/6/6 1/1/1 3/3/3
f 1/1/1 2/2/2 3/3/3
f 3/3/3 2/2/2 4/4/4

