#
# OBJECT NAME
#
o model_1462
mtllib 1462.mtl

#
# VERTEX BUFFER 000
#
v -1.10692 1.64904 -0.442998
v -1.10798 1.64904 -0.461947
v -1.30955 0.971193 -0.285471
v -1.29775 0.978698 -0.268477
v -1.14197 0.0102186 -0.388217
v -1.14197 0.0102186 -0.369958
v -1.32292 0.51283 -0.441168
v -1.33878 0.51283 -0.455893
v -1.18387 0.763005 -0.340007
v -1.15992 0.757735 -0.338213
v -1.12266 0.859135 -0.280949
v -1.15817 0.860607 -0.292391
v -1.09308 0.545143 -0.390607
v -1.01931 0.570677 -0.466744
v -1.02715 1.01391 -0.461276
v -1.07616 0.993336 -0.42399
v -1.03362 0.0487974 -0.362177
v -0.996428 0.14168 -0.451783
v 0 0.0680726 -0.3709
v 0 0.0680726 -0.352641
v -0.725016 0.132183 -0.447064
v -0.725016 0.132183 -0.465404
v -1.18813 0.541753 -0.497743
v 0 0.570677 -0.445608
v 0 0.0680726 -0.3709
v -0.725016 0.132183 -0.465404
v -1.25397 0.953088 -0.478319
v -1.33878 0.51283 -0.455893
v -0.725016 0.132183 -0.465404
v -0.725016 0.132183 -0.447064
v -0.996428 0.14168 -0.451783
v -1.01745 0.150388 -0.478114
v -1.02228 1.67886 -0.47474
v 0 1.533 -0.460016
v 0 1.01391 -0.466665
v -1.01745 0.150388 -0.478114
v -0.996428 0.14168 -0.451783
v -1.03362 0.0487974 -0.362177
v -1.03362 0.0487974 -0.387177
v -1.02228 1.67886 -0.456481
v -1.10798 1.64904 -0.461947
v -1.10692 1.64904 -0.442998
v -1.15817 0.860607 -0.292391
v -1.23455 1.08424 -0.403424
v -1.18387 0.763005 -0.340007
v -1.2928 0.655188 -0.395845
v -1.1923 0.959041 -0.459131
v -1.15992 0.757735 -0.338213
v -1.15817 0.860607 -0.292391
v -1.12266 0.859135 -0.280949
v -1.29775 0.978698 -0.268477
v -1.30955 0.971193 -0.285471
v -1.12266 0.859135 -0.280949
v -1.10535 1.08683 -0.329509
v -1.29775 0.978698 -0.268477
v -1.30955 0.971193 -0.285471
v -1.31149 0.661479 -0.396047
v -1.32292 0.51283 -0.441168
v -1.2928 0.655188 -0.395845
v -1.31149 0.661479 -0.396047
v -1.33878 0.51283 -0.455893
v -1.32292 0.51283 -0.441168
v -1.1923 0.959041 -0.459131
v -1.02228 1.67886 -0.456481
v -1.10535 1.08683 -0.329509
v -1.10798 1.64904 -0.461947
v -1.01745 0.150388 -0.478114
v -0.725016 0.132183 -0.447064
v 0 0.0680726 -0.352641
v 0 0.534026 -0.355639
v -0.793129 0.570677 -0.405399
v -1.10692 1.64904 -0.442998
v -1.02228 1.67886 -0.456481
v -1.02228 1.67886 -0.456481
v -1.02228 1.67886 -0.47474
v -1.31149 0.661479 -0.396047
v -1.2928 0.655188 -0.395845
v -1.15992 0.757735 -0.338213
v -1.18387 0.763005 -0.340007
v 0 0.534026 -0.355639
v 0 1.01391 -0.384948
v -0.90922 1.01391 -0.443121
v -1.32292 0.51283 -0.441168
v -1.14197 0.0102186 -0.369958
v 0 1.533 -0.441757
v -1.03362 0.0487974 -0.387177
v -1.03362 0.0487974 -0.362177
v -1.14197 0.0102186 -0.369958
v -1.14197 0.0102186 -0.388217
v -1.14197 0.0102186 -0.388217
v 0 1.533 -0.441757
v 0 1.533 -0.460016
v -1.03362 0.0487974 -0.387177
v 1.10692 1.64904 -0.442998
v 1.29775 0.978698 -0.268477
v 1.30955 0.971193 -0.285471
v 1.10798 1.64904 -0.461947
v 1.14197 0.0102186 -0.388217
v 1.33878 0.51283 -0.455893
v 1.32292 0.51283 -0.441168
v 1.14197 0.0102186 -0.369958
v 1.18387 0.763005 -0.340007
v 1.15817 0.860607 -0.292391
v 1.12266 0.859135 -0.280949
v 1.15992 0.757735 -0.338213
v 1.09308 0.545143 -0.390607
v 1.07616 0.993336 -0.42399
v 1.02715 1.01391 -0.461276
v 1.01931 0.570677 -0.466744
v 0.996428 0.14168 -0.451783
v 1.03362 0.0487974 -0.362177
v 0 0.0680726 -0.3709
v 0.725016 0.132183 -0.465404
v 0.725016 0.132183 -0.447064
v 0 0.0680726 -0.352641
v 1.18813 0.541753 -0.497743
v 0.725016 0.132183 -0.465404
v 0 0.0680726 -0.3709
v 0 0.570677 -0.445608
v 1.25397 0.953088 -0.478319
v 1.33878 0.51283 -0.455893
v 0.725016 0.132183 -0.465404
v 1.01745 0.150388 -0.478114
v 0.996428 0.14168 -0.451783
v 0.725016 0.132183 -0.447064
v 1.02228 1.67886 -0.47474
v 0 1.01391 -0.466665
v 0 1.533 -0.460016
v 1.01745 0.150388 -0.478114
v 1.03362 0.0487974 -0.387177
v 1.03362 0.0487974 -0.362177
v 0.996428 0.14168 -0.451783
v 1.02228 1.67886 -0.456481
v 1.10692 1.64904 -0.442998
v 1.10798 1.64904 -0.461947
v 1.15817 0.860607 -0.292391
v 1.18387 0.763005 -0.340007
v 1.23455 1.08424 -0.403424
v 1.2928 0.655188 -0.395845
v 1.15992 0.757735 -0.338213
v 1.1923 0.959041 -0.459131
v 1.15817 0.860607 -0.292391
v 1.30955 0.971193 -0.285471
v 1.29775 0.978698 -0.268477
v 1.12266 0.859135 -0.280949
v 1.12266 0.859135 -0.280949
v 1.29775 0.978698 -0.268477
v 1.10535 1.08683 -0.329509
v 1.30955 0.971193 -0.285471
v 1.31149 0.661479 -0.396047
v 1.32292 0.51283 -0.441168
v 1.33878 0.51283 -0.455893
v 1.31149 0.661479 -0.396047
v 1.2928 0.655188 -0.395845
v 1.32292 0.51283 -0.441168
v 1.1923 0.959041 -0.459131
v 1.02228 1.67886 -0.456481
v 1.10535 1.08683 -0.329509
v 1.10798 1.64904 -0.461947
v 1.01745 0.150388 -0.478114
v 0.725016 0.132183 -0.447064
v 0.793129 0.570677 -0.405399
v 0 0.534026 -0.355639
v 0 0.0680726 -0.352641
v 1.10692 1.64904 -0.442998
v 1.02228 1.67886 -0.456481
v 1.02228 1.67886 -0.456481
v 1.02228 1.67886 -0.47474
v 1.31149 0.661479 -0.396047
v 1.18387 0.763005 -0.340007
v 1.15992 0.757735 -0.338213
v 1.2928 0.655188 -0.395845
v 0.90922 1.01391 -0.443121
v 0 1.01391 -0.384948
v 0 0.534026 -0.355639
v 1.32292 0.51283 -0.441168
v 1.14197 0.0102186 -0.369958
v 0 1.533 -0.441757
v 1.03362 0.0487974 -0.387177
v 1.14197 0.0102186 -0.388217
v 1.14197 0.0102186 -0.369958
v 1.03362 0.0487974 -0.362177
v 1.14197 0.0102186 -0.388217
v 0 1.533 -0.460016
v 0 1.533 -0.441757
v 1.03362 0.0487974 -0.387177

vn -0.908203 0.330811 0.255615
vn -0.908203 0.330811 0.255615
vn -0.908203 0.330811 0.255615
vn -0.908203 0.330811 0.255615
vn -0.867676 -0.268311 0.41748
vn -0.867676 -0.268311 0.41748
vn -0.867676 -0.268311 0.41748
vn -0.867676 -0.268311 0.41748
vn -0.241943 -0.391357 0.887695
vn -0.241943 -0.391357 0.887695
vn -0.241943 -0.391357 0.887695
vn -0.241943 -0.391357 0.887695
vn 0.140015 0.0889893 0.98584
vn 0.120239 0.00132656 0.992676
vn 0.0749512 0.0019455 0.99707
vn 0.0567627 0.06604 0.996094
vn 0.329346 0.0783691 0.94043
vn 0.249268 0.0111313 0.968262
vn -0.0880737 -0.996094 0
vn -0.0880737 -0.996094 0
vn -0.0880737 -0.996094 0
vn -0.0880737 -0.996094 0
vn 0.0115585 -0.0324097 -0.999023
vn 0.0479126 -0.0351868 -0.998047
vn 0.074707 -0.0786743 -0.993652
vn 0.0736084 -0.0771484 -0.994141
vn -0.0167236 0.00951385 -0.999512
vn -0.300293 -0.116455 -0.946289
vn -0.0430298 -0.983887 -0.171509
vn -0.0430298 -0.983887 -0.171509
vn -0.0430298 -0.983887 -0.171509
vn -0.0430298 -0.983887 -0.171509
vn 0.0110626 0.0309143 -0.999023
vn 0.0152588 0.0302124 -0.999023
vn 0.0176392 0.00360107 -0.999512
vn 0.726074 -0.563965 -0.392822
vn 0.726074 -0.563965 -0.392822
vn 0.726074 -0.563965 -0.392822
vn 0.726074 -0.563965 -0.392822
vn -0.32959 0.943848 0.0182648
vn -0.32959 0.943848 0.0182648
vn -0.32959 0.943848 0.0182648
vn -0.956055 -0.254883 0.144043
vn -0.958984 0.131714 -0.250732
vn -0.535156 0.0814209 0.840332
vn 0.93457 -0.333984 -0.11969
vn 0.153931 0.00449753 0.987793
vn 0.711426 -0.279785 -0.644043
vn -0.364502 -0.578613 0.729004
vn -0.364502 -0.578613 0.729004
vn -0.364502 -0.578613 0.729004
vn -0.364502 -0.578613 0.729004
vn 0.874023 0.0367737 0.483887
vn 0.727051 0.0637817 0.683105
vn 0.172729 0.19397 0.965332
vn -0.67334 -0.270508 -0.6875
vn -0.931152 0.181763 0.314941
vn -0.420898 -0.233643 0.875977
vn -0.420898 -0.233643 0.875977
vn -0.420898 -0.233643 0.875977
vn -0.420898 -0.233643 0.875977
vn -0.217773 0.0721436 0.973145
vn 0.153931 0.00449753 0.987793
vn 0.0234222 0.130615 0.990723
vn 0.727051 0.0637817 0.683105
vn -0.280518 0.0802002 -0.956055
vn -0.132324 -0.165283 -0.977051
vn -0.104492 -0.0487671 0.993164
vn -0.0976563 -0.0498352 0.993652
vn -0.0791626 0.00947571 0.996582
vn -0.0931396 0.0109024 0.995117
vn 0.162598 0.195557 0.966797
vn 0.0234222 0.130615 0.990723
vn 0.0234222 0.130615 0.990723
vn 0.0110626 0.0309143 -0.999023
vn -0.136475 -0.343262 0.929199
vn -0.136475 -0.343262 0.929199
vn -0.136475 -0.343262 0.929199
vn -0.136475 -0.343262 0.929199
vn -0.0791626 0.00947571 0.996582
vn -0.0463867 0.0665283 0.996582
vn -0.0856934 0.0309448 0.995605
vn -0.217773 0.0721436 0.973145
vn -0.150391 0.0518494 0.986816
vn 0.0101776 0.170776 0.984863
vn 0.335205 -0.941895 0
vn 0.335205 -0.941895 0
vn 0.335205 -0.941895 0
vn 0.335205 -0.941895 0
vn -0.297607 -0.285889 -0.910645
vn 0.0101776 0.170776 0.984863
vn 0.0152588 0.0302124 -0.999023
vn -0.3125 -0.300049 -0.900879
vn 0.908203 0.330811 0.255615
vn 0.908203 0.330811 0.255615
vn 0.908203 0.330811 0.255615
vn 0.908203 0.330811 0.255615
vn 0.867676 -0.268311 0.41748
vn 0.867676 -0.268311 0.41748
vn 0.867676 -0.268311 0.41748
vn 0.867676 -0.268311 0.41748
vn 0.241943 -0.391357 0.887695
vn 0.241943 -0.391357 0.887695
vn 0.241943 -0.391357 0.887695
vn 0.241943 -0.391357 0.887695
vn -0.140015 0.0889893 0.98584
vn -0.0567627 0.06604 0.996094
vn -0.0749512 0.0019455 0.99707
vn -0.120239 0.00132656 0.992676
vn -0.249268 0.0111313 0.968262
vn -0.329346 0.0783691 0.94043
vn 0.0880737 -0.996094 0
vn 0.0880737 -0.996094 0
vn 0.0880737 -0.996094 0
vn 0.0880737 -0.996094 0
vn -0.0115585 -0.0324097 -0.999023
vn -0.0736084 -0.0771484 -0.994141
vn -0.074707 -0.0786743 -0.993652
vn -0.0479126 -0.0351868 -0.998047
vn 0.0167236 0.00951385 -0.999512
vn 0.300293 -0.116455 -0.946289
vn 0.0430298 -0.983887 -0.171509
vn 0.0430298 -0.983887 -0.171509
vn 0.0430298 -0.983887 -0.171509
vn 0.0430298 -0.983887 -0.171509
vn -0.0110626 0.0309143 -0.999023
vn -0.0176392 0.00360107 -0.999512
vn -0.0152588 0.0302124 -0.999023
vn -0.726074 -0.563965 -0.392822
vn -0.726074 -0.563965 -0.392822
vn -0.726074 -0.563965 -0.392822
vn -0.726074 -0.563965 -0.392822
vn 0.32959 0.943848 0.0182648
vn 0.32959 0.943848 0.0182648
vn 0.32959 0.943848 0.0182648
vn 0.956055 -0.254883 0.144043
vn 0.535156 0.0814209 0.840332
vn 0.958984 0.131714 -0.250732
vn -0.93457 -0.333984 -0.11969
vn -0.711426 -0.279785 -0.644043
vn -0.153931 0.00449753 0.987793
vn 0.364502 -0.578613 0.729004
vn 0.364502 -0.578613 0.729004
vn 0.364502 -0.578613 0.729004
vn 0.364502 -0.578613 0.729004
vn -0.874023 0.0367737 0.483887
vn -0.172729 0.19397 0.965332
vn -0.727051 0.0637817 0.683105
vn 0.67334 -0.270508 -0.6875
vn 0.931152 0.181763 0.314941
vn 0.420898 -0.233643 0.875977
vn 0.420898 -0.233643 0.875977
vn 0.420898 -0.233643 0.875977
vn 0.420898 -0.233643 0.875977
vn 0.217773 0.0721436 0.973145
vn -0.153931 0.00449753 0.987793
vn -0.0234222 0.130615 0.990723
vn -0.727051 0.0637817 0.683105
vn 0.280518 0.0802002 -0.956055
vn 0.132324 -0.165283 -0.977051
vn 0.104492 -0.0487671 0.993164
vn 0.0931396 0.0109024 0.995117
vn 0.0791626 0.00947571 0.996582
vn 0.0976563 -0.0498352 0.993652
vn -0.162598 0.195557 0.966797
vn -0.0234222 0.130615 0.990723
vn -0.0234222 0.130615 0.990723
vn -0.0110626 0.0309143 -0.999023
vn 0.136475 -0.343262 0.929199
vn 0.136475 -0.343262 0.929199
vn 0.136475 -0.343262 0.929199
vn 0.136475 -0.343262 0.929199
vn 0.0856934 0.0309448 0.995605
vn 0.0463867 0.0665283 0.996582
vn 0.0791626 0.00947571 0.996582
vn 0.217773 0.0721436 0.973145
vn 0.150391 0.0518494 0.986816
vn -0.0101776 0.170776 0.984863
vn -0.335205 -0.941895 0
vn -0.335205 -0.941895 0
vn -0.335205 -0.941895 0
vn -0.335205 -0.941895 0
vn 0.297607 -0.285889 -0.910645
vn -0.0152588 0.0302124 -0.999023
vn -0.0101776 0.170776 0.984863
vn 0.3125 -0.300049 -0.900879

vt 0.903198 0.353401
vt 0.892638 0.352142
vt 0.9756 0.227238
vt 0.987821 0.232427
vt 0.888763 0.016237
vt 0.897173 0.0125409
vt 0.943302 0.116958
vt 0.936965 0.122054
vt 0.960914 0.169691
vt 0.970459 0.166215
vt 0.987662 0.188985
vt 0.976885 0.189484
vt 0.185801 0.504217
vt 0.229212 0.515915
vt 0.214406 0.69969
vt 0.188844 0.691498
vt 0.201548 0.305448
vt 0.239242 0.350433
vt 0.659287 0.0338584
vt 0.659637 0.0247547
vt 0.803885 0.0394126
vt 0.803885 0.0508189
vt 0.897053 0.130163
vt 0.659655 0.137273
vt 0.659287 0.0338584
vt 0.803885 0.0508189
vt 0.912303 0.213148
vt 0.936965 0.122054
vt 0.803885 0.0508189
vt 0.803885 0.0394126
vt 0.845002 0.0395082
vt 0.848668 0.0498837
vt 0.863025 0.357413
vt 0.659589 0.340572
vt 0.659589 0.225254
vt 0.848668 0.0498837
vt 0.845002 0.0395082
vt 0.869704 0.0145838
vt 0.873913 0.0247056
vt 0.863228 0.369914
vt 0.892638 0.352142
vt 0.888503 0.364705
vt 0.976885 0.189484
vt 0.929693 0.23925
vt 0.960914 0.169691
vt 0.0671736 0.560151
vt 0.140745 0.678404
vt 0.0533274 0.60841
vt 0.976885 0.189484
vt 0.987662 0.188985
vt 0.987821 0.232427
vt 0.9756 0.227238
vt 0.0332 0.667259
vt 0.0875467 0.742349
vt 0.0120428 0.742061
vt 0.9756 0.227238
vt 0.949966 0.148665
vt 0.943302 0.116958
vt 0.958095 0.145046
vt 0.949966 0.148665
vt 0.936965 0.122054
vt 0.0806229 0.489856
vt 0.140745 0.678404
vt 0.216993 0.968715
vt 0.0875468 0.742349
vt 0.892638 0.352142
vt 0.848668 0.0498837
vt 0.336712 0.358719
vt 0.640152 0.317114
vt 0.640721 0.501531
vt 0.310669 0.514612
vt 0.16083 0.961535
vt 0.216993 0.968715
vt 0.863228 0.369914
vt 0.862882 0.357364
vt 0.949966 0.148665
vt 0.958095 0.145046
vt 0.970459 0.166215
vt 0.960914 0.169691
vt 0.63936 0.499369
vt 0.640206 0.700179
vt 0.25924 0.700272
vt 0.0806229 0.489856
vt 0.163561 0.280233
vt 0.640206 0.923324
vt 0.873913 0.0247056
vt 0.869704 0.0145838
vt 0.888014 0.00598377
vt 0.888763 0.016237
vt 0.888763 0.016237
vt 0.65959 0.352993
vt 0.65959 0.340572
vt 0.873913 0.0247056
vt 0.903198 0.353401
vt 0.987821 0.232427
vt 0.9756 0.227238
vt 0.892638 0.352142
vt 0.888763 0.016237
vt 0.936965 0.122054
vt 0.943302 0.116958
vt 0.897173 0.0125409
vt 0.960914 0.169691
vt 0.976885 0.189484
vt 0.987662 0.188985
vt 0.970459 0.166215
vt 0.185801 0.504217
vt 0.188844 0.691498
vt 0.214406 0.69969
vt 0.229212 0.515915
vt 0.239242 0.350433
vt 0.201548 0.305448
vt 0.659287 0.0338584
vt 0.803885 0.0508189
vt 0.803885 0.0394126
vt 0.659637 0.0247547
vt 0.897053 0.130163
vt 0.803885 0.0508189
vt 0.659287 0.0338584
vt 0.659655 0.137273
vt 0.912303 0.213148
vt 0.936965 0.122054
vt 0.803885 0.0508189
vt 0.848668 0.0498837
vt 0.845002 0.0395082
vt 0.803885 0.0394126
vt 0.863025 0.357413
vt 0.659589 0.225254
vt 0.659589 0.340572
vt 0.848668 0.0498837
vt 0.873913 0.0247056
vt 0.869704 0.0145838
vt 0.845002 0.0395082
vt 0.863228 0.369914
vt 0.888503 0.364705
vt 0.892638 0.352142
vt 0.976885 0.189484
vt 0.960914 0.169691
vt 0.929693 0.23925
vt 0.0671736 0.560151
vt 0.0533274 0.60841
vt 0.140745 0.678404
vt 0.976885 0.189484
vt 0.9756 0.227238
vt 0.987821 0.232427
vt 0.987662 0.188985
vt 0.0332 0.667259
vt 0.0120428 0.742061
vt 0.0875467 0.742349
vt 0.9756 0.227238
vt 0.949966 0.148665
vt 0.943302 0.116958
vt 0.936965 0.122054
vt 0.949966 0.148665
vt 0.958095 0.145046
vt 0.0806229 0.489856
vt 0.140745 0.678404
vt 0.216993 0.968715
vt 0.0875468 0.742349
vt 0.892638 0.352142
vt 0.848668 0.0498837
vt 0.336712 0.358719
vt 0.310669 0.514612
vt 0.640721 0.501531
vt 0.640152 0.317114
vt 0.16083 0.961535
vt 0.216993 0.968715
vt 0.863228 0.369914
vt 0.862882 0.357364
vt 0.949966 0.148665
vt 0.960914 0.169691
vt 0.970459 0.166215
vt 0.958095 0.145046
vt 0.25924 0.700272
vt 0.640206 0.700179
vt 0.63936 0.499369
vt 0.0806229 0.489856
vt 0.163561 0.280233
vt 0.640206 0.923324
vt 0.873913 0.0247056
vt 0.888763 0.016237
vt 0.888014 0.00598377
vt 0.869704 0.0145838
vt 0.888763 0.016237
vt 0.65959 0.340572
vt 0.65959 0.352993
vt 0.873913 0.0247056


#
# MESH 000
#
g surface_000
usemtl surface_000
f 155/155/155 139/139/139 156/156/156
f 133/133/133 134/134/134 135/135/135
f 62/62/62 63/63/63 46/46/46
f 40/40/40 41/41/41 42/42/42
f 167/167/167 184/184/184 185/185/185
f 167/167/167 168/168/168 184/184/184
f 167/167/167 159/159/159 168/168/168
f 179/179/179 181/181/181 182/182/182
f 179/179/179 180/180/180 181/181/181
f 166/166/166 178/178/178 174/174/174
f 166/166/166 174/174/174 173/173/173
f 108/108/108 166/166/166 173/173/173
f 166/166/166 108/108/108 107/107/107
f 166/166/166 107/107/107 156/156/156
f 176/176/176 156/156/156 107/107/107
f 176/176/176 107/107/107 106/106/106
f 176/176/176 106/106/106 177/177/177
f 162/162/162 173/173/173 174/174/174
f 162/162/162 108/108/108 173/173/173
f 162/162/162 109/109/109 108/108/108
f 106/106/106 108/108/108 109/109/109
f 106/106/106 107/107/107 108/108/108
f 162/162/162 174/174/174 175/175/175
f 177/177/177 106/106/106 111/111/111
f 106/106/106 110/110/110 111/111/111
f 106/106/106 109/109/109 110/110/110
f 110/110/110 109/109/109 162/162/162
f 110/110/110 162/162/162 161/161/161
f 161/161/161 162/162/162 163/163/163
f 161/161/161 163/163/163 164/164/164
f 146/146/146 158/158/158 140/140/140
f 158/158/158 141/141/141 140/140/140
f 139/139/139 140/140/140 141/141/141
f 157/157/157 141/141/141 158/158/158
f 169/169/169 171/171/171 172/172/172
f 169/169/169 170/170/170 171/171/171
f 165/165/165 166/166/166 148/148/148
f 165/165/165 148/148/148 147/147/147
f 146/146/146 147/147/147 148/148/148
f 151/151/151 153/153/153 154/154/154
f 151/151/151 152/152/152 153/153/153
f 142/142/142 144/144/144 145/145/145
f 142/142/142 143/143/143 144/144/144
f 129/129/129 131/131/131 132/132/132
f 129/129/129 130/130/130 131/131/131
f 126/126/126 127/127/127 128/128/128
f 126/126/126 120/120/120 127/127/127
f 116/116/116 127/127/127 120/120/120
f 116/116/116 119/119/119 127/127/127
f 116/116/116 118/118/118 119/119/119
f 116/116/116 117/117/117 118/118/118
f 116/116/116 160/160/160 117/117/117
f 116/116/116 186/186/186 160/160/160
f 126/126/126 159/159/159 120/120/120
f 120/120/120 159/159/159 138/138/138
f 150/150/150 120/120/120 138/138/138
f 120/120/120 150/150/150 121/121/121
f 120/120/120 121/121/121 116/116/116
f 116/116/116 121/121/121 183/183/183
f 116/116/116 183/183/183 186/186/186
f 159/159/159 149/149/149 138/138/138
f 149/149/149 136/136/136 138/138/138
f 136/136/136 137/137/137 138/138/138
f 137/137/137 150/150/150 138/138/138
f 122/122/122 124/124/124 125/125/125
f 122/122/122 123/123/123 124/124/124
f 112/112/112 114/114/114 115/115/115
f 112/112/112 113/113/113 114/114/114
f 102/102/102 104/104/104 105/105/105
f 102/102/102 103/103/103 104/104/104
f 98/98/98 100/100/100 101/101/101
f 98/98/98 99/99/99 100/100/100
f 94/94/94 96/96/96 97/97/97
f 94/94/94 95/95/95 96/96/96
f 74/74/74 91/91/91 92/92/92
f 74/74/74 92/92/92 75/75/75
f 74/74/74 75/75/75 66/66/66
f 86/86/86 88/88/88 89/89/89
f 86/86/86 87/87/87 88/88/88
f 73/73/73 81/81/81 85/85/85
f 73/73/73 82/82/82 81/81/81
f 71/71/71 81/81/81 82/82/82
f 71/71/71 80/80/80 81/81/81
f 15/15/15 82/82/82 73/73/73
f 71/71/71 82/82/82 15/15/15
f 71/71/71 15/15/15 14/14/14
f 18/18/18 71/71/71 14/14/14
f 18/18/18 68/68/68 71/71/71
f 68/68/68 70/70/70 71/71/71
f 68/68/68 69/69/69 70/70/70
f 73/73/73 16/16/16 15/15/15
f 13/13/13 15/15/15 16/16/16
f 13/13/13 14/14/14 15/15/15
f 13/13/13 18/18/18 14/14/14
f 13/13/13 17/17/17 18/18/18
f 84/84/84 17/17/17 13/13/13
f 83/83/83 84/84/84 13/13/13
f 83/83/83 13/13/13 16/16/16
f 83/83/83 16/16/16 63/63/63
f 73/73/73 63/63/63 16/16/16
f 53/53/53 48/48/48 65/65/65
f 65/65/65 48/48/48 47/47/47
f 64/64/64 65/65/65 47/47/47
f 46/46/46 47/47/47 48/48/48
f 76/76/76 78/78/78 79/79/79
f 76/76/76 77/77/77 78/78/78
f 72/72/72 54/54/54 73/73/73
f 72/72/72 55/55/55 54/54/54
f 53/53/53 54/54/54 55/55/55
f 58/58/58 60/60/60 61/61/61
f 58/58/58 59/59/59 60/60/60
f 49/49/49 51/51/51 52/52/52
f 49/49/49 50/50/50 51/51/51
f 36/36/36 38/38/38 39/39/39
f 36/36/36 37/37/37 38/38/38
f 33/33/33 34/34/34 35/35/35
f 33/33/33 35/35/35 27/27/27
f 33/33/33 27/27/27 66/66/66
f 27/27/27 44/44/44 66/66/66
f 66/66/66 44/44/44 56/56/56
f 56/56/56 44/44/44 43/43/43
f 43/43/43 44/44/44 45/45/45
f 45/45/45 44/44/44 57/57/57
f 23/23/23 27/27/27 35/35/35
f 27/27/27 23/23/23 28/28/28
f 27/27/27 28/28/28 57/57/57
f 57/57/57 44/44/44 27/27/27
f 23/23/23 35/35/35 24/24/24
f 23/23/23 24/24/24 25/25/25
f 23/23/23 25/25/25 26/26/26
f 23/23/23 26/26/26 67/67/67
f 23/23/23 67/67/67 93/93/93
f 23/23/23 93/93/93 90/90/90
f 23/23/23 90/90/90 28/28/28
f 29/29/29 31/31/31 32/32/32
f 29/29/29 30/30/30 31/31/31
f 19/19/19 21/21/21 22/22/22
f 19/19/19 20/20/20 21/21/21
f 9/9/9 11/11/11 12/12/12
f 9/9/9 10/10/10 11/11/11
f 5/5/5 7/7/7 8/8/8
f 5/5/5 6/6/6 7/7/7
f 1/1/1 3/3/3 4/4/4
f 1/1/1 2/2/2 3/3/3

