g t003v001_h
v 0.2485275 0 0.143486
v 0.4171734 0.1357996 0
v 0.286974 0 0
v 0.3612823 0.1357996 0.2085876
v 0.143486 0 0.2485275
v 0.4589677 0.3487105 0
v 0.2085857 0.1357996 0.3612823
v 0 0 0.2869759
v 0.3974771 0.3487105 0.2294846
v 0.3889694 0.5602312 0
v 0 0.1357996 0.4171715
v -0.143486 0 0.2485275
v 0.2294836 0.3487105 0.39748
v 0.3368568 0.5602312 0.1944847
v 0.230114 0.7203023 0
v -0.2085857 0.1357996 0.3612823
v -0.2485275 0 0.143486
v 0 0.3487105 0.4589691
v 0.1992855 0.7203023 0.1150589
v 0.3192902 0.8111069 0
v 0.1944847 0.5602312 0.3368568
v -0.3612823 0.1357996 0.2085876
v -0.286974 0 0
v -0.4171734 0.1357996 0
v 0.2765121 0.8111069 0.1596451
v 0.2417774 0.8464026 0
v 0.2093849 0.8464026 0.1208916
v -0.2294836 0.3487105 0.39748
v -0.3974771 0.3487105 0.2294846
v -0.4589677 0.3487105 0
v 0.115057 0.7203023 0.1992874
v 0.1596451 0.8111069 0.2765121
v 0.1208878 0.8464026 0.2093849
v 0 0.5602312 0.3889694
v -0.3368568 0.5602312 0.1944847
v -0.3889694 0.5602312 0
v -0.1944847 0.5602312 0.3368568
v 0 0.7203023 0.2301178
v 0 0.8111069 0.3192902
v 0 0.8464026 0.2417755
v -0.1150589 0.7203023 0.1992874
v -0.1992855 0.7203023 0.1150589
v -0.230114 0.7203023 0
v -0.1596451 0.8111069 0.2765121
v -0.1208878 0.8464026 0.2093849
v -0.2765141 0.8111069 0.1596451
v -0.3192902 0.8111069 0
v -0.2093868 0.8464026 0.1208916
v -0.2417774 0.8464026 0
v 0.143486 0 -0.2485275
v 0 0 -0.2869759
v -0.143486 0 -0.2485275
v -0.2485275 0 -0.143486
v 0.2485275 0 -0.143486
v 0.286974 0 0
v -0.286974 0 0
v 0.2485275 0 0.143486
v -0.2485275 0 0.143486
v -0.143486 0 0.2485275
v 0.143486 0 0.2485275
v 0 0 0.2869759
v -0.2485275 0 -0.143486
v -0.4171734 0.1357996 0
v -0.286974 0 0
v -0.3612823 0.1357996 -0.2085876
v -0.143486 0 -0.2485275
v -0.4589677 0.3487105 0
v -0.2085857 0.1357996 -0.3612823
v 0 0 -0.2869759
v -0.3974771 0.3487105 -0.2294846
v -0.3889694 0.5602312 0
v 0 0.1357996 -0.4171715
v 0.143486 0 -0.2485275
v -0.2294836 0.3487105 -0.39748
v -0.3368568 0.5602312 -0.1944847
v -0.230114 0.7203023 0
v 0.2085857 0.1357996 -0.3612823
v 0.2485275 0 -0.143486
v 0 0.3487105 -0.4589691
v -0.1992855 0.7203023 -0.1150589
v -0.3192902 0.8111069 0
v -0.1944847 0.5602312 -0.3368568
v 0.3612823 0.1357996 -0.2085876
v 0.286974 0 0
v 0.4171734 0.1357996 0
v -0.2765121 0.8111069 -0.1596451
v -0.2417774 0.8464026 0
v -0.2093849 0.8464026 -0.1208916
v 0.2294836 0.3487105 -0.39748
v 0.3974771 0.3487105 -0.2294846
v 0.4589677 0.3487105 0
v -0.115057 0.7203023 -0.1992874
v -0.1596451 0.8111069 -0.2765121
v -0.1208878 0.8464026 -0.2093849
v 0 0.5602312 -0.3889694
v 0.3368568 0.5602312 -0.1944847
v 0.3889694 0.5602312 0
v 0.1944847 0.5602312 -0.3368568
v 0 0.7203023 -0.2301178
v 0 0.8111069 -0.3192902
v 0 0.8464026 -0.2417755
v 0.1150589 0.7203023 -0.1992874
v 0.1992855 0.7203023 -0.1150589
v 0.230114 0.7203023 0
v 0.1596451 0.8111069 -0.2765121
v 0.1208878 0.8464026 -0.2093849
v 0.2765141 0.8111069 -0.1596451
v 0.3192902 0.8111069 0
v 0.2093849 0.8464026 -0.1208916
v 0.2417774 0.8464026 0
v 0.2093849 0.8464026 0.1208916
v 0 0.5962853 0
v 0.2417774 0.8464026 0
v 0.1208878 0.8464026 0.2093849
v 0.2093849 0.8464026 -0.1208916
v 0 0.8464026 0.2417755
v 0.1208878 0.8464026 -0.2093849
v -0.1208878 0.8464026 0.2093849
v 0 0.8464026 -0.2417755
v -0.2093868 0.8464026 0.1208916
v -0.1208878 0.8464026 -0.2093849
v -0.2417774 0.8464026 0
v -0.2093849 0.8464026 -0.1208916
vt 0.5830078 0.2512207
vt 0.6826172 0.3879395
vt 0.6826172 0.2512207
vt 0.5830078 0.3879395
vt 0.4724121 0.2512207
vt 0.6826172 0.5307617
vt 0.4724121 0.3879395
vt 0.3579102 0.2512207
vt 0.5830078 0.5307617
vt 0.6826172 0.6713867
vt 0.3579102 0.3879395
vt 0.2435303 0.2512207
vt 0.4724121 0.5307617
vt 0.5830078 0.6713867
vt 0.6826172 0.8168945
vt 0.2435303 0.3879395
vt 0.1329346 0.2512207
vt 0.3579102 0.5307617
vt 0.5830078 0.8168945
vt 0.6826172 0.8984375
vt 0.4724121 0.6713867
vt 0.1329346 0.3879395
vt 0.03353882 0.2512207
vt 0.03353882 0.3879395
vt 0.5830078 0.8984375
vt 0.6826172 0.9477539
vt 0.5830078 0.9477539
vt 0.2435303 0.5307617
vt 0.1329346 0.5307617
vt 0.03353882 0.5307617
vt 0.4724121 0.8168945
vt 0.4724121 0.8984375
vt 0.4724121 0.9477539
vt 0.3579102 0.6713867
vt 0.1329346 0.6713867
vt 0.03353882 0.6713867
vt 0.2435303 0.6713867
vt 0.3579102 0.8168945
vt 0.3579102 0.8984375
vt 0.3579102 0.9477539
vt 0.2435303 0.8168945
vt 0.1329346 0.8168945
vt 0.03353882 0.8168945
vt 0.2435303 0.8984375
vt 0.2435303 0.9477539
vt 0.1329346 0.8984375
vt 0.03353882 0.8984375
vt 0.1329346 0.9477539
vt 0.03353882 0.9477539
vt 0.7924805 0.2512207
vt 0.8549805 0.2678223
vt 0.9174805 0.2512207
vt 0.9633789 0.2054443
vt 0.746582 0.2054443
vt 0.7299805 0.1429443
vt 0.9799805 0.1429443
vt 0.746582 0.0803833
vt 0.9633789 0.0803833
vt 0.9174805 0.03457642
vt 0.7924805 0.03457642
vt 0.8549805 0.01783752
vt 0.5830078 0.2512207
vt 0.6826172 0.3879395
vt 0.6826172 0.2512207
vt 0.5830078 0.3879395
vt 0.4724121 0.2512207
vt 0.6826172 0.5307617
vt 0.4724121 0.3879395
vt 0.3579102 0.2512207
vt 0.5830078 0.5307617
vt 0.6826172 0.6713867
vt 0.3579102 0.3879395
vt 0.2435303 0.2512207
vt 0.4724121 0.5307617
vt 0.5830078 0.6713867
vt 0.6826172 0.8168945
vt 0.2435303 0.3879395
vt 0.1329346 0.2512207
vt 0.3579102 0.5307617
vt 0.5830078 0.8168945
vt 0.6826172 0.8984375
vt 0.4724121 0.6713867
vt 0.1329346 0.3879395
vt 0.03353882 0.2512207
vt 0.03353882 0.3879395
vt 0.5830078 0.8984375
vt 0.6826172 0.9477539
vt 0.5830078 0.9477539
vt 0.2435303 0.5307617
vt 0.1329346 0.5307617
vt 0.03353882 0.5307617
vt 0.4724121 0.8168945
vt 0.4724121 0.8984375
vt 0.4724121 0.9477539
vt 0.3579102 0.6713867
vt 0.1329346 0.6713867
vt 0.03353882 0.6713867
vt 0.2435303 0.6713867
vt 0.3579102 0.8168945
vt 0.3579102 0.8984375
vt 0.3579102 0.9477539
vt 0.2435303 0.8168945
vt 0.1329346 0.8168945
vt 0.03353882 0.8168945
vt 0.2435303 0.8984375
vt 0.2435303 0.9477539
vt 0.1329346 0.8984375
vt 0.03353882 0.8984375
vt 0.1329346 0.9477539
vt 0.03353882 0.9477539
vt 0.9658203 0.78125
vt 0.8510742 0.8486328
vt 0.9833984 0.8486328
vt 0.9174805 0.7319336
vt 0.9658203 0.9160156
vt 0.8510742 0.7138672
vt 0.9174805 0.965332
vt 0.7851563 0.7319336
vt 0.8510742 0.9833984
vt 0.7368164 0.78125
vt 0.7851563 0.9658203
vt 0.7192383 0.8486328
vt 0.7368164 0.9160156
vn 0.625 -0.6918945 0.3608398
vn 0.9189453 -0.3945313 0
vn 0.7216797 -0.6918945 0
vn 0.7958984 -0.3945313 0.4594727
vn 0.3608398 -0.6918945 0.625
vn 0.9980469 0.05926514 0
vn 0.4594727 -0.3945313 0.7958984
vn 0 -0.6918945 0.7216797
vn 0.8647461 0.05926514 0.4990234
vn 0.8798828 0.4755859 0
vn 0 -0.3945313 0.9189453
vn -0.3608398 -0.6918945 0.625
vn 0.4990234 0.05926514 0.8647461
vn 0.7617188 0.4755859 0.4399414
vn 0.9492188 0.3146973 0
vn -0.4594727 -0.3945313 0.7958984
vn -0.625 -0.6918945 0.3608398
vn 0 0.05926514 0.9980469
vn 0.8222656 0.3146973 0.4746094
vn 0.9946289 -0.1044922 0
vn 0.4399414 0.4755859 0.7617188
vn -0.7958984 -0.3945313 0.4594727
vn -0.7216797 -0.6918945 0
vn -0.9189453 -0.3945313 0
vn 0.8613281 -0.1044922 0.4973145
vn -0.2888184 0.9575195 0
vn -0.25 0.9575195 -0.1444092
vn -0.4990234 0.05926514 0.8647461
vn -0.8647461 0.05926514 0.4990234
vn -0.9980469 0.05926514 0
vn 0.4746094 0.3146973 0.8222656
vn 0.4973145 -0.1044922 0.8613281
vn -0.1444092 0.9575195 -0.25
vn 0 0.4755859 0.8798828
vn -0.7617188 0.4755859 0.4399414
vn -0.8798828 0.4755859 0
vn -0.4399414 0.4755859 0.7617188
vn 0 0.3146973 0.9492188
vn 0 -0.1044922 0.9946289
vn 0 0.9575195 -0.2888184
vn -0.4746094 0.3146973 0.8222656
vn -0.8222656 0.3146973 0.4746094
vn -0.9492188 0.3146973 0
vn -0.4973145 -0.1044922 0.8613281
vn 0.1444092 0.9575195 -0.25
vn -0.8613281 -0.1044922 0.4973145
vn -0.9946289 -0.1044922 0
vn 0.25 0.9575195 -0.1444092
vn 0.2888184 0.9575195 0
vn 0 -1 0
vn 0 -1 0
vn 0 -1 0
vn 0 -1 0
vn 0 -1 0
vn 0 -1 0
vn 0 -1 0
vn 0 -1 0
vn 0 -1 0
vn 0 -1 0
vn 0 -1 0
vn 0 -1 0
vn -0.625 -0.6918945 -0.3608398
vn -0.9189453 -0.3945313 0
vn -0.7216797 -0.6918945 0
vn -0.7958984 -0.3945313 -0.4594727
vn -0.3608398 -0.6918945 -0.625
vn -0.9980469 0.05926514 0
vn -0.4594727 -0.3945313 -0.7958984
vn 0 -0.6918945 -0.7216797
vn -0.8647461 0.05926514 -0.4990234
vn -0.8798828 0.4755859 0
vn 0 -0.3945313 -0.9189453
vn 0.3608398 -0.6918945 -0.625
vn -0.4990234 0.05926514 -0.8647461
vn -0.7617188 0.4755859 -0.4399414
vn -0.9492188 0.3146973 0
vn 0.4594727 -0.3945313 -0.7958984
vn 0.625 -0.6918945 -0.3608398
vn 0 0.05926514 -0.9980469
vn -0.8222656 0.3146973 -0.4746094
vn -0.9946289 -0.1044922 0
vn -0.4399414 0.4755859 -0.7617188
vn 0.7958984 -0.3945313 -0.4594727
vn 0.7216797 -0.6918945 0
vn 0.9189453 -0.3945313 0
vn -0.8613281 -0.1044922 -0.4973145
vn 0.2888184 0.9575195 0
vn 0.25 0.9575195 0.1444092
vn 0.4990234 0.05926514 -0.8647461
vn 0.8647461 0.05926514 -0.4990234
vn 0.9980469 0.05926514 0
vn -0.4746094 0.3146973 -0.8222656
vn -0.4973145 -0.1044922 -0.8613281
vn 0.1444092 0.9575195 0.25
vn 0 0.4755859 -0.8798828
vn 0.7617188 0.4755859 -0.4399414
vn 0.8798828 0.4755859 0
vn 0.4399414 0.4755859 -0.7617188
vn 0 0.3146973 -0.9492188
vn 0 -0.1044922 -0.9946289
vn 0 0.9575195 0.2888184
vn 0.4746094 0.3146973 -0.8222656
vn 0.8222656 0.3146973 -0.4746094
vn 0.9492188 0.3146973 0
vn 0.4973145 -0.1044922 -0.8613281
vn -0.1444092 0.9575195 0.25
vn 0.8613281 -0.1044922 -0.4973145
vn 0.9946289 -0.1044922 0
vn -0.25 0.9575195 0.1444092
vn -0.2888184 0.9575195 0
vn -0.25 0.9575195 -0.1444092
vn 0 1 0
vn -0.2888184 0.9575195 0
vn -0.1444092 0.9575195 -0.25
vn -0.25 0.9575195 0.1444092
vn 0 0.9575195 -0.2888184
vn -0.1444092 0.9575195 0.25
vn 0.1444092 0.9575195 -0.25
vn 0 0.9575195 0.2888184
vn 0.25 0.9575195 -0.1444092
vn 0.1444092 0.9575195 0.25
vn 0.2888184 0.9575195 0
vn 0.25 0.9575195 0.1444092
g t003v001_h_0
f 3/3/3 2/2/2 1/1/1
f 2/2/2 4/4/4 1/1/1
f 1/1/1 4/4/4 5/5/5
f 2/2/2 6/6/6 4/4/4
f 4/4/4 7/7/7 5/5/5
f 5/5/5 7/7/7 8/8/8
f 6/6/6 9/9/9 4/4/4
f 4/4/4 9/9/9 7/7/7
f 6/6/6 10/10/10 9/9/9
f 7/7/7 11/11/11 8/8/8
f 8/8/8 11/11/11 12/12/12
f 9/9/9 13/13/13 7/7/7
f 7/7/7 13/13/13 11/11/11
f 10/10/10 14/14/14 9/9/9
f 9/9/9 14/14/14 13/13/13
f 10/10/10 15/15/15 14/14/14
f 11/11/11 16/16/16 12/12/12
f 12/12/12 16/16/16 17/17/17
f 13/13/13 18/18/18 11/11/11
f 11/11/11 18/18/18 16/16/16
f 15/15/15 19/19/19 14/14/14
f 15/15/15 20/20/20 19/19/19
f 14/14/14 21/21/21 13/13/13
f 13/13/13 21/21/21 18/18/18
f 14/14/14 19/19/19 21/21/21
f 16/16/16 22/22/22 17/17/17
f 17/17/17 22/22/22 23/23/23
f 22/22/22 24/24/24 23/23/23
f 20/20/20 25/25/25 19/19/19
f 20/20/20 26/26/26 25/25/25
f 26/26/26 27/27/27 25/25/25
f 18/18/18 28/28/28 16/16/16
f 16/16/16 28/28/28 22/22/22
f 22/22/22 29/29/29 24/24/24
f 28/28/28 29/29/29 22/22/22
f 29/29/29 30/30/30 24/24/24
f 19/19/19 31/31/31 21/21/21
f 19/19/19 25/25/25 31/31/31
f 25/25/25 27/27/27 32/32/32
f 25/25/25 32/32/32 31/31/31
f 27/27/27 33/33/33 32/32/32
f 21/21/21 34/34/34 18/18/18
f 18/18/18 34/34/34 28/28/28
f 21/21/21 31/31/31 34/34/34
f 29/29/29 35/35/35 30/30/30
f 35/35/35 36/36/36 30/30/30
f 28/28/28 37/37/37 29/29/29
f 34/34/34 37/37/37 28/28/28
f 37/37/37 35/35/35 29/29/29
f 31/31/31 38/38/38 34/34/34
f 31/31/31 32/32/32 38/38/38
f 34/34/34 38/38/38 37/37/37
f 32/32/32 33/33/33 39/39/39
f 32/32/32 39/39/39 38/38/38
f 33/33/33 40/40/40 39/39/39
f 38/38/38 41/41/41 37/37/37
f 37/37/37 41/41/41 35/35/35
f 38/38/38 39/39/39 41/41/41
f 35/35/35 42/42/42 36/36/36
f 41/41/41 42/42/42 35/35/35
f 42/42/42 43/43/43 36/36/36
f 39/39/39 40/40/40 44/44/44
f 39/39/39 44/44/44 41/41/41
f 41/41/41 44/44/44 42/42/42
f 40/40/40 45/45/45 44/44/44
f 42/42/42 46/46/46 43/43/43
f 44/44/44 46/46/46 42/42/42
f 44/44/44 45/45/45 46/46/46
f 46/46/46 47/47/47 43/43/43
f 45/45/45 48/48/48 46/46/46
f 46/46/46 48/48/48 47/47/47
f 48/48/48 49/49/49 47/47/47
f 52/52/52 51/51/51 50/50/50
f 52/52/52 50/50/50 53/53/53
f 50/50/50 54/54/54 53/53/53
f 54/54/54 55/55/55 53/53/53
f 55/55/55 56/56/56 53/53/53
f 56/56/56 55/55/55 57/57/57
f 58/58/58 56/56/56 57/57/57
f 59/59/59 58/58/58 57/57/57
f 60/60/60 59/59/59 57/57/57
f 60/60/60 61/61/61 59/59/59
f 64/64/64 63/63/63 62/62/62
f 63/63/63 65/65/65 62/62/62
f 62/62/62 65/65/65 66/66/66
f 63/63/63 67/67/67 65/65/65
f 65/65/65 68/68/68 66/66/66
f 66/66/66 68/68/68 69/69/69
f 67/67/67 70/70/70 65/65/65
f 65/65/65 70/70/70 68/68/68
f 67/67/67 71/71/71 70/70/70
f 68/68/68 72/72/72 69/69/69
f 69/69/69 72/72/72 73/73/73
f 70/70/70 74/74/74 68/68/68
f 68/68/68 74/74/74 72/72/72
f 71/71/71 75/75/75 70/70/70
f 70/70/70 75/75/75 74/74/74
f 71/71/71 76/76/76 75/75/75
f 72/72/72 77/77/77 73/73/73
f 73/73/73 77/77/77 78/78/78
f 74/74/74 79/79/79 72/72/72
f 72/72/72 79/79/79 77/77/77
f 76/76/76 80/80/80 75/75/75
f 76/76/76 81/81/81 80/80/80
f 75/75/75 82/82/82 74/74/74
f 74/74/74 82/82/82 79/79/79
f 75/75/75 80/80/80 82/82/82
f 77/77/77 83/83/83 78/78/78
f 78/78/78 83/83/83 84/84/84
f 83/83/83 85/85/85 84/84/84
f 81/81/81 86/86/86 80/80/80
f 81/81/81 87/87/87 86/86/86
f 87/87/87 88/88/88 86/86/86
f 79/79/79 89/89/89 77/77/77
f 77/77/77 89/89/89 83/83/83
f 83/83/83 90/90/90 85/85/85
f 89/89/89 90/90/90 83/83/83
f 90/90/90 91/91/91 85/85/85
f 80/80/80 92/92/92 82/82/82
f 80/80/80 86/86/86 92/92/92
f 86/86/86 88/88/88 93/93/93
f 86/86/86 93/93/93 92/92/92
f 88/88/88 94/94/94 93/93/93
f 82/82/82 95/95/95 79/79/79
f 79/79/79 95/95/95 89/89/89
f 82/82/82 92/92/92 95/95/95
f 90/90/90 96/96/96 91/91/91
f 96/96/96 97/97/97 91/91/91
f 89/89/89 98/98/98 90/90/90
f 95/95/95 98/98/98 89/89/89
f 98/98/98 96/96/96 90/90/90
f 92/92/92 99/99/99 95/95/95
f 92/92/92 93/93/93 99/99/99
f 95/95/95 99/99/99 98/98/98
f 93/93/93 94/94/94 100/100/100
f 93/93/93 100/100/100 99/99/99
f 94/94/94 101/101/101 100/100/100
f 99/99/99 102/102/102 98/98/98
f 98/98/98 102/102/102 96/96/96
f 99/99/99 100/100/100 102/102/102
f 96/96/96 103/103/103 97/97/97
f 102/102/102 103/103/103 96/96/96
f 103/103/103 104/104/104 97/97/97
f 100/100/100 101/101/101 105/105/105
f 100/100/100 105/105/105 102/102/102
f 102/102/102 105/105/105 103/103/103
f 101/101/101 106/106/106 105/105/105
f 103/103/103 107/107/107 104/104/104
f 105/105/105 107/107/107 103/103/103
f 105/105/105 106/106/106 107/107/107
f 107/107/107 108/108/108 104/104/104
f 106/106/106 109/109/109 107/107/107
f 107/107/107 109/109/109 108/108/108
f 109/109/109 110/110/110 108/108/108
f 113/113/113 112/112/112 111/111/111
f 111/111/111 112/112/112 114/114/114
f 115/115/115 112/112/112 113/113/113
f 114/114/114 112/112/112 116/116/116
f 117/117/117 112/112/112 115/115/115
f 116/116/116 112/112/112 118/118/118
f 119/119/119 112/112/112 117/117/117
f 118/118/118 112/112/112 120/120/120
f 121/121/121 112/112/112 119/119/119
f 120/120/120 112/112/112 122/122/122
f 123/123/123 112/112/112 121/121/121
f 122/122/122 112/112/112 123/123/123
