#
# OBJECT NAME
#
o model_5038
mtllib 5038.mtl

#
# VERTEX BUFFER 000
#
v -1 -0.0176982 -0.283231
v 1 -0.0176982 -0.283231
v 1 0.199416 -0.324691
v -1 0.199416 -0.324691
v -1 0.197936 -0.32606
v 1 0.197936 -0.32606
v 1 -0.0193449 -0.28457
v -1 -0.0193449 -0.28457
v -1 0.193091 -0.284322
v 1 0.193091 -0.284322
v 1 0.398107 -0.32357
v -1 0.398107 -0.32357
v -1 0.396627 -0.324939
v 1 0.396627 -0.324939
v 1 0.19161 -0.285691
v -1 0.19161 -0.285691
v -1 0.391567 -0.284322
v 1 0.391567 -0.284322
v 1 0.596584 -0.32357
v -1 0.596584 -0.32357
v -1 0.595104 -0.324939
v 1 0.595104 -0.324939
v 1 0.390087 -0.285691
v -1 0.390087 -0.285691
v -1 0.590045 -0.284322
v 1 0.590045 -0.284322
v 1 0.795061 -0.32357
v -1 0.795061 -0.32357
v -1 0.793582 -0.324939
v 1 0.793582 -0.324939
v 1 0.588564 -0.285691
v -1 0.588564 -0.285691
v -1 0.772566 -0.160791
v 1 0.772566 -0.160791
v 1 1.00063 -0.160791
v -1 1.00063 -0.160791
v -1 1.00063 -0.160791
v 1 1.00063 -0.160791
v 1 1.00063 -0.451185
v -1 1.00063 -0.451185
v -1 1.00063 -0.451185
v 1 1.00063 -0.451185
v 1 0.772566 -0.451185
v -1 0.772566 -0.451185
v 1 0.772566 -0.451185
v 1 1.00063 -0.451185
v 1 1.00063 -0.160791
v 1 0.772566 -0.160791
v -1 0.772566 -0.451185
v -1 0.772566 -0.160791
v -1 1.00063 -0.160791
v -1 1.00063 -0.451185
v 1 0.772566 -0.451185
v 1 0.772566 -0.160791
v -1 0.772566 -0.160791
v -1 0.772566 -0.451185
v -0.610627 0.974378 -0.240769
v -0.663727 0.974378 -0.240769
v -0.663727 -0.0324299 -0.240769
v -0.610627 -0.0324299 -0.240769
v -0.663727 0.974378 -0.369998
v -0.610627 0.974378 -0.369997
v -0.610627 -0.0324299 -0.369998
v -0.663727 -0.0324299 -0.369998
v 0.666223 0.974378 -0.240769
v 0.613123 0.974378 -0.240769
v 0.613123 -0.0324299 -0.240769
v 0.666223 -0.0324299 -0.240769
v 0.613123 0.974378 -0.369998
v 0.666223 0.974378 -0.369997
v 0.666223 -0.0324299 -0.369998
v 0.613123 -0.0324299 -0.369998

vn 0 0.1875 0.981934
vn 0 0.1875 0.981934
vn 0 0.1875 0.981934
vn 0 0.1875 0.981934
vn 0 -0.1875 -0.981934
vn 0 -0.1875 -0.981934
vn 0 -0.1875 -0.981934
vn 0 -0.1875 -0.981934
vn 0 0.187988 0.981934
vn 0 0.187988 0.981934
vn 0 0.187988 0.981934
vn 0 0.187988 0.981934
vn 0 -0.187988 -0.981934
vn 0 -0.187988 -0.981934
vn 0 -0.187988 -0.981934
vn 0 -0.187988 -0.981934
vn 0 0.187988 0.981934
vn 0 0.187988 0.981934
vn 0 0.187988 0.981934
vn 0 0.187988 0.981934
vn 0 -0.187988 -0.981934
vn 0 -0.187988 -0.981934
vn 0 -0.187988 -0.981934
vn 0 -0.187988 -0.981934
vn 0 0.187988 0.981934
vn 0 0.187988 0.981934
vn 0 0.187988 0.981934
vn 0 0.187988 0.981934
vn 0 -0.187988 -0.981934
vn 0 -0.187988 -0.981934
vn 0 -0.187988 -0.981934
vn 0 -0.187988 -0.981934
vn 0 0 1
vn 0 0 1
vn 0 0 1
vn 0 0 1
vn 0 1 0
vn 0 1 0
vn 0 1 0
vn 0 1 0
vn 0 0 -1
vn 0 0 -1
vn 0 0 -1
vn 0 0 -1
vn 1 0 0
vn 1 0 0
vn 1 0 0
vn 1 0 0
vn -1 0 0
vn -1 0 0
vn -1 0 0
vn -1 0 0
vn 0 -1 0
vn 0 -1 0
vn 0 -1 0
vn 0 -1 0
vn 2.5034e-006 0 1
vn 2.5034e-006 0 1
vn 2.5034e-006 0 1
vn 2.5034e-006 0 1
vn 1.07288e-006 0 -1
vn 1.07288e-006 0 -1
vn 1.07288e-006 0 -1
vn 1.07288e-006 0 -1
vn 2.5034e-006 0 1
vn 2.5034e-006 0 1
vn 2.5034e-006 0 1
vn 2.5034e-006 0 1
vn 1.07288e-006 0 -1
vn 1.07288e-006 0 -1
vn 1.07288e-006 0 -1
vn 1.07288e-006 0 -1

vt 0.538728 0.999309
vt 0.538653 0.000815749
vt 0.629574 0.000815749
vt 0.629499 0.999309
vt 0.539119 0.985998
vt 0.539043 0.0158636
vt 0.629966 0.0158636
vt 0.629891 0.985998
vt 0.894093 0.999279
vt 0.894009 0.00286549
vt 0.984871 0.00286549
vt 0.984787 0.999279
vt 0.786643 0.985998
vt 0.786558 0.0160741
vt 0.877421 0.0160741
vt 0.877337 0.985998
vt 0.648713 0.999309
vt 0.648629 0.000815749
vt 0.739491 0.000815749
vt 0.739406 0.999309
vt 0.649104 0.985998
vt 0.649019 0.0158636
vt 0.739882 0.0158636
vt 0.739797 0.985998
vt 0.786643 0.999279
vt 0.786558 0.00286549
vt 0.877421 0.00286549
vt 0.877336 0.999279
vt 0.89402 0.985998
vt 0.893936 0.0160741
vt 0.984798 0.0160741
vt 0.984714 0.985998
vt 0.0136268 0.990711
vt 0.0136268 0.00928891
vt 0.110151 0.00928891
vt 0.110151 0.990711
vt 0.124573 0.990711
vt 0.124573 0.00928891
vt 0.257529 0.00928891
vt 0.257529 0.990711
vt 0.0136268 0.990711
vt 0.0136268 0.00928891
vt 0.110151 0.00928891
vt 0.110151 0.990711
vt 0.297057 0.0376757
vt 0.377934 0.0376757
vt 0.377934 0.138556
vt 0.297057 0.138556
vt 0.297056 0.138556
vt 0.297056 0.0376757
vt 0.377933 0.0376757
vt 0.377933 0.138556
vt 0.0136268 0.00928891
vt 0.110151 0.00928891
vt 0.110151 0.990711
vt 0.0136268 0.990711
vt 0.350438 0.718573
vt 0.321862 0.718573
vt 0.321862 0.269131
vt 0.350438 0.269131
vt 0.321862 0.718573
vt 0.350438 0.718573
vt 0.350438 0.269131
vt 0.321862 0.269131
vt 0.350438 0.718573
vt 0.321862 0.718573
vt 0.321862 0.269131
vt 0.350438 0.269131
vt 0.321862 0.718573
vt 0.350438 0.718573
vt 0.350438 0.269131
vt 0.321862 0.269131


#
# MESH 000
#
g surface_000
usemtl surface_000
f 5/5/5 7/7/7 8/8/8
f 5/5/5 6/6/6 7/7/7
f 1/1/1 3/3/3 4/4/4
f 1/1/1 2/2/2 3/3/3
f 13/13/13 15/15/15 16/16/16
f 13/13/13 14/14/14 15/15/15
f 9/9/9 11/11/11 12/12/12
f 9/9/9 10/10/10 11/11/11
f 21/21/21 23/23/23 24/24/24
f 21/21/21 22/22/22 23/23/23
f 17/17/17 19/19/19 20/20/20
f 17/17/17 18/18/18 19/19/19
f 29/29/29 31/31/31 32/32/32
f 29/29/29 30/30/30 31/31/31
f 25/25/25 27/27/27 28/28/28
f 25/25/25 26/26/26 27/27/27
f 53/53/53 55/55/55 56/56/56
f 53/53/53 54/54/54 55/55/55
f 49/49/49 51/51/51 52/52/52
f 49/49/49 50/50/50 51/51/51
f 45/45/45 47/47/47 48/48/48
f 45/45/45 46/46/46 47/47/47
f 41/41/41 43/43/43 44/44/44
f 41/41/41 42/42/42 43/43/43
f 37/37/37 39/39/39 40/40/40
f 37/37/37 38/38/38 39/39/39
f 33/33/33 35/35/35 36/36/36
f 33/33/33 34/34/34 35/35/35
f 69/69/69 71/71/71 72/72/72
f 69/69/69 70/70/70 71/71/71
f 65/65/65 67/67/67 68/68/68
f 65/65/65 66/66/66 67/67/67
f 61/61/61 63/63/63 64/64/64
f 61/61/61 62/62/62 63/63/63
f 57/57/57 59/59/59 60/60/60
f 57/57/57 58/58/58 59/59/59

