#
# OBJECT NAME
#
o model_5050
mtllib 5050.mtl

#
# VERTEX BUFFER 000
#
v -0.998306 0.875189 -0.204852
v 0.999245 0.875189 -0.204852
v 0.999245 0.9083 -0.404409
v -0.998306 0.9083 -0.404409
v -0.998306 0.906191 -0.404409
v 0.999245 0.906191 -0.404409
v 0.999245 0.87308 -0.204851
v -0.998306 0.87308 -0.204851
v -0.998306 0.676712 -0.204852
v 0.999245 0.676712 -0.204852
v 0.999245 0.709822 -0.404409
v -0.998306 0.709822 -0.404409
v -0.998306 0.707713 -0.404409
v 0.999245 0.707713 -0.404409
v 0.999245 0.674602 -0.204851
v -0.998306 0.674602 -0.204851
v -0.998306 0.478234 -0.204852
v 0.999245 0.478234 -0.204852
v 0.999245 0.511345 -0.404409
v -0.998306 0.511345 -0.404409
v -0.998306 0.509236 -0.404409
v 0.999245 0.509236 -0.404409
v 0.999245 0.476125 -0.204851
v -0.998306 0.476125 -0.204851
v -0.998306 0.279757 -0.204852
v 0.999245 0.279757 -0.204852
v 0.999245 0.312868 -0.404409
v -0.998306 0.312868 -0.404409
v -0.998306 0.310759 -0.404409
v 0.999245 0.310759 -0.404409
v 0.999245 0.277648 -0.204851
v -0.998306 0.277648 -0.204851
v -0.998306 0.0812803 -0.204852
v 0.999245 0.0812803 -0.204852
v 0.999245 0.114391 -0.404409
v -0.998306 0.114391 -0.404409
v -0.998306 0.112282 -0.404409
v 0.999245 0.112282 -0.404409
v 0.999245 0.0791712 -0.204851
v -0.998306 0.0791712 -0.204851
v -0.663727 0.974378 -0.186805
v -0.663727 -0.0324299 -0.186805
v -0.610627 -0.0324299 -0.186805
v -0.610627 0.974378 -0.186805
v -0.610605 0.974378 -0.420207
v -0.610605 -0.0324299 -0.420207
v -0.663705 -0.0324299 -0.420207
v -0.663705 0.974378 -0.420207
v 0.613123 0.974378 -0.186805
v 0.613123 -0.0324299 -0.186805
v 0.666223 -0.0324299 -0.186805
v 0.666223 0.974378 -0.186805
v 0.666244 0.974378 -0.420207
v 0.666244 -0.0324299 -0.420207
v 0.613144 -0.0324299 -0.420207
v 0.613144 0.974378 -0.420207

vn 0 0.986328 0.163574
vn 0 0.986328 0.163574
vn 0 0.986328 0.163574
vn 0 0.986328 0.163574
vn 0 -0.986328 -0.163574
vn 0 -0.986328 -0.163574
vn 0 -0.986328 -0.163574
vn 0 -0.986328 -0.163574
vn 0 0.986328 0.163574
vn 0 0.986328 0.163574
vn 0 0.986328 0.163574
vn 0 0.986328 0.163574
vn 0 -0.986328 -0.163574
vn 0 -0.986328 -0.163574
vn 0 -0.986328 -0.163574
vn 0 -0.986328 -0.163574
vn 0 0.986328 0.163574
vn 0 0.986328 0.163574
vn 0 0.986328 0.163574
vn 0 0.986328 0.163574
vn 0 -0.986328 -0.163574
vn 0 -0.986328 -0.163574
vn 0 -0.986328 -0.163574
vn 0 -0.986328 -0.163574
vn 0 0.986328 0.163574
vn 0 0.986328 0.163574
vn 0 0.986328 0.163574
vn 0 0.986328 0.163574
vn 0 -0.986328 -0.163574
vn 0 -0.986328 -0.163574
vn 0 -0.986328 -0.163574
vn 0 -0.986328 -0.163574
vn 0 0.986328 0.163574
vn 0 0.986328 0.163574
vn 0 0.986328 0.163574
vn 0 0.986328 0.163574
vn 0 -0.986328 -0.163574
vn 0 -0.986328 -0.163574
vn 0 -0.986328 -0.163574
vn 0 -0.986328 -0.163574
vn 1.90735e-006 0 1
vn 1.90735e-006 0 1
vn 1.90735e-006 0 1
vn 1.90735e-006 0 1
vn 1.66893e-006 0 -1
vn 1.66893e-006 0 -1
vn 1.66893e-006 0 -1
vn 1.66893e-006 0 -1
vn 1.90735e-006 0 1
vn 1.90735e-006 0 1
vn 1.90735e-006 0 1
vn 1.90735e-006 0 1
vn 1.66893e-006 0 -1
vn 1.66893e-006 0 -1
vn 1.66893e-006 0 -1
vn 1.66893e-006 0 -1

vt 0.648354 0.987152
vt 0.648354 0.0146873
vt 0.739765 0.0146873
vt 0.739765 0.987152
vt 0.647156 0.987152
vt 0.647156 0.0146873
vt 0.738567 0.0146873
vt 0.738567 0.987152
vt 0.893735 0.987152
vt 0.893735 0.0146873
vt 0.985145 0.0146873
vt 0.985145 0.987152
vt 0.786284 0.987152
vt 0.786284 0.0146873
vt 0.877695 0.0146873
vt 0.877695 0.987152
vt 0.538626 0.987152
vt 0.538626 0.0146873
vt 0.630037 0.0146873
vt 0.630037 0.987152
vt 0.538799 0.987152
vt 0.538799 0.0146873
vt 0.63021 0.0146873
vt 0.63021 0.987152
vt 0.648424 0.987152
vt 0.648424 0.0146873
vt 0.739835 0.0146873
vt 0.739835 0.987152
vt 0.648297 0.987152
vt 0.648297 0.0146873
vt 0.739708 0.0146873
vt 0.739708 0.987152
vt 0.894374 0.987152
vt 0.894374 0.0146873
vt 0.985785 0.0146873
vt 0.985785 0.987152
vt 0.893175 0.987152
vt 0.893175 0.0146873
vt 0.984586 0.0146873
vt 0.984586 0.987152
vt 0.321862 0.718573
vt 0.321862 0.269131
vt 0.350438 0.269131
vt 0.350438 0.718573
vt 0.350438 0.718573
vt 0.350438 0.269131
vt 0.321862 0.269131
vt 0.321862 0.718573
vt 0.321862 0.718573
vt 0.321862 0.269131
vt 0.350438 0.269131
vt 0.350438 0.718573
vt 0.350438 0.718573
vt 0.350438 0.269131
vt 0.321862 0.269131
vt 0.321862 0.718573


#
# MESH 000
#
g surface_000
usemtl surface_000
f 5/5/5 7/7/7 8/8/8
f 5/5/5 6/6/6 7/7/7
f 1/1/1 3/3/3 4/4/4
f 1/1/1 2/2/2 3/3/3
f 13/13/13 15/15/15 16/16/16
f 13/13/13 14/14/14 15/15/15
f 9/9/9 11/11/11 12/12/12
f 9/9/9 10/10/10 11/11/11
f 21/21/21 23/23/23 24/24/24
f 21/21/21 22/22/22 23/23/23
f 17/17/17 19/19/19 20/20/20
f 17/17/17 18/18/18 19/19/19
f 29/29/29 31/31/31 32/32/32
f 29/29/29 30/30/30 31/31/31
f 25/25/25 27/27/27 28/28/28
f 25/25/25 26/26/26 27/27/27
f 37/37/37 39/39/39 40/40/40
f 37/37/37 38/38/38 39/39/39
f 33/33/33 35/35/35 36/36/36
f 33/33/33 34/34/34 35/35/35
f 53/53/53 55/55/55 56/56/56
f 53/53/53 54/54/54 55/55/55
f 49/49/49 51/51/51 52/52/52
f 49/49/49 50/50/50 51/51/51
f 45/45/45 47/47/47 48/48/48
f 45/45/45 46/46/46 47/47/47
f 41/41/41 43/43/43 44/44/44
f 41/41/41 42/42/42 43/43/43

