g t028v001_m
v -0.03119908 0.272826 -0.4968796
v 0.01201391 0.2396207 -0.4575729
v 0.06734446 0.2708452 -0.4979019
v -0.3604719 0.4690382 -0.4689367
v -0.2305167 0.4679167 -0.2244398
v -0.1300135 0.08436507 -0.5
v 0 0.008006752 -0.5
v 3.208231E-06 0.4633263 -0.126337
v 0.2306203 0.4679994 -0.2243395
v 0 0.247268 -0.5
v 0.3603899 0.4687662 -0.4689367
v 3.208231E-06 0.4633263 -0.126337
v 0.1300135 0.08436507 -0.5
v 0.3603899 0.4687662 -0.4689367
v 0 0.247268 -0.5
v 0 0.008006752 -0.5
v 0 0.247268 -0.5
v -0.2305167 0.4679167 -0.2244398
v -0.3604719 0.4690382 -0.4689367
v 3.208231E-06 0.4633263 -0.126337
v -0.3604719 0.4690382 -0.4689367
v -0.1300135 0.08436507 -0.5
v 0 0.247268 -0.5
v 0 0.008006752 -0.5
v 0.3679428 0.602437 -0.4450684
v 0.2554684 0.6700568 -0.2218132
v 0.3679428 0.6700568 -0.4450684
v 0.2554684 0.602437 -0.2218132
v 0 0.602437 -0.1114883
v 0 0.6700568 -0.1114883
v -0.2554693 0.6700568 -0.2218132
v -0.2554693 0.602437 -0.2218132
v -0.3679428 0.602437 -0.4450684
v -0.3679428 0.6700568 -0.4450684
v 0.3679428 0.6700568 -0.4450684
v 0.2089663 0.6570102 -0.2709045
v 0.2978058 0.6570102 -0.4450684
v 0.2554684 0.6700568 -0.2218132
v 0 0.6700568 -0.1114883
v 0 0.6570102 -0.1791077
v -0.2089663 0.6570102 -0.2709045
v -0.2554693 0.6700568 -0.2218132
v -0.3679428 0.6700568 -0.4450684
v -0.2978058 0.6570102 -0.4450684
v 0.2978058 0.6570102 -0.4450684
v 0.2554684 0.602437 -0.2218132
v 0.3679428 0.602437 -0.4450684
v 0.2089663 0.6570102 -0.2709045
v 0 0.6570102 -0.1791077
v 0 0.602437 -0.1114883
v -0.2554693 0.602437 -0.2218132
v -0.2089663 0.6570102 -0.2709045
v -0.2978058 0.6570102 -0.4450684
v -0.3679428 0.602437 -0.4450684
v 0.3679428 0.4362004 -0.4450684
v 0.2554684 0.5038203 -0.2218132
v 0.3679428 0.5038202 -0.4450684
v 0.2554684 0.4362007 -0.2218132
v 0 0.4362007 -0.1114883
v 0 0.5038203 -0.1114883
v -0.2554693 0.5038203 -0.2218132
v -0.2554693 0.4362007 -0.2218132
v -0.3679438 0.4362004 -0.4450684
v -0.3679438 0.5038202 -0.4450684
v 0.3679428 0.5038202 -0.4450684
v 0.2089663 0.5038203 -0.2709007
v 0.2978058 0.5038204 -0.4450684
v 0.2554684 0.5038203 -0.2218132
v 0 0.5038203 -0.1114883
v 0 0.5038203 -0.1791077
v -0.2089663 0.5038203 -0.2709007
v -0.2554693 0.5038203 -0.2218132
v -0.3679438 0.5038202 -0.4450684
v -0.2978058 0.5038204 -0.4450684
v 0.2978058 0.5038204 -0.4450684
v 0.2089663 0.5027285 -0.2709007
v 0.2978058 0.5027286 -0.4450684
v 0.2089663 0.5038203 -0.2709007
v 0 0.5027285 -0.1791077
v 0 0.5038203 -0.1791077
v -0.2089663 0.5038203 -0.2709007
v -0.2089663 0.5027285 -0.2709007
v -0.2978058 0.5038204 -0.4450684
v -0.2978058 0.5027286 -0.4450684
v 0.2978058 0.5027286 -0.4450684
v 0.2554684 0.4362007 -0.2218132
v 0.3679428 0.4362004 -0.4450684
v 0.2089663 0.5027285 -0.2709007
v 0 0.5027285 -0.1791077
v 0 0.4362007 -0.1114883
v -0.2554693 0.4362007 -0.2218132
v -0.2089663 0.5027285 -0.2709007
v -0.2978058 0.5027286 -0.4450684
v -0.3679438 0.4362004 -0.4450684
v -0.2612591 0.5025028 -0.2497406
v -0.2612591 0.6361602 -0.2497406
v -0.2264853 0.6361602 -0.2195702
v -0.2264853 0.5025028 -0.2195702
v -0.2151699 0.6537307 -0.2641907
v -0.2151699 0.5025028 -0.2641907
v -0.2264853 0.5025028 -0.2195702
v -0.2264853 0.6361602 -0.2195702
v -0.2151699 0.5025028 -0.2641907
v -0.2151699 0.6537307 -0.2641907
v -0.2612591 0.6361602 -0.2497406
v -0.2612591 0.5025028 -0.2497406
v 0.2612591 0.5025028 -0.2497406
v 0.2264862 0.5025028 -0.2195702
v 0.2264862 0.6361602 -0.2195702
v 0.2612591 0.6361602 -0.2497406
v 0.2151699 0.6537307 -0.2641907
v 0.2264862 0.6361602 -0.2195702
v 0.2264862 0.5025028 -0.2195702
v 0.2151699 0.5025028 -0.2641907
v 0.2151699 0.5025028 -0.2641907
v 0.2612591 0.5025028 -0.2497406
v 0.2612591 0.6361602 -0.2497406
v 0.2151699 0.6537307 -0.2641907
v -0.02378273 0.5025027 -0.1298485
v -0.02378273 0.6361601 -0.1298485
v 0.02225494 0.6361601 -0.1297913
v 0.02225494 0.5025027 -0.1297913
v 0 0.6537306 -0.1709366
v 0 0.5025027 -0.1709366
v 0.02225494 0.5025027 -0.1297913
v 0.02225494 0.6361601 -0.1297913
v 0 0.5025027 -0.1709366
v 0 0.6537306 -0.1709366
v -0.02378273 0.6361601 -0.1298485
v -0.02378273 0.5025027 -0.1298485
v 0.2788429 0.4068043 -0.4423485
v 0.2788429 0.7009068 -0.4423485
v 0.3798656 0.7009068 -0.4423485
v 0.3798656 0.4068043 -0.4423485
v 0.2788429 0.7009068 -0.4423485
v 0.266078 0.7155823 -0.5
v 0.3926296 0.7155823 -0.5
v 0.3798656 0.7009068 -0.4423485
v 0.266078 0.3921286 -0.5
v 0.2788429 0.4068043 -0.4423485
v 0.3798656 0.4068043 -0.4423485
v 0.3926296 0.3921286 -0.5
v 0.3798656 0.4068043 -0.4423485
v 0.3798656 0.7009068 -0.4423485
v 0.3926296 0.7155823 -0.5
v 0.3926296 0.3921286 -0.5
v 0.266078 0.3921286 -0.5
v 0.266078 0.7155823 -0.5
v 0.2788429 0.7009068 -0.4423485
v 0.2788429 0.4068043 -0.4423485
v -0.2683296 0.4068043 -0.4423485
v -0.390379 0.4068043 -0.4423485
v -0.390379 0.7009068 -0.4423485
v -0.2683296 0.7009068 -0.4423485
v -0.2683296 0.7009068 -0.4423485
v -0.390379 0.7009068 -0.4423485
v -0.4058008 0.7155823 -0.5
v -0.2529078 0.7155823 -0.5
v -0.2529078 0.3921286 -0.5
v -0.4058008 0.3921286 -0.5
v -0.390379 0.4068043 -0.4423485
v -0.2683296 0.4068043 -0.4423485
v -0.390379 0.4068043 -0.4423485
v -0.4058008 0.3921286 -0.5
v -0.4058008 0.7155823 -0.5
v -0.390379 0.7009068 -0.4423485
v -0.2529078 0.3921286 -0.5
v -0.2683296 0.4068043 -0.4423485
v -0.2683296 0.7009068 -0.4423485
v -0.2529078 0.7155823 -0.5
v -0.03119908 0.272826 -0.4968796
v -0.1133017 0.811198 -0.1996059
v -0.03532124 0.7741544 -0.1261673
v 0.01201391 0.2396207 -0.4575729
v 0.04547412 0.8197733 -0.1949863
v 0.06734446 0.2708452 -0.4979019
v -0.03568554 0.8568168 -0.2684212
v -0.1133017 0.811198 -0.1996059
v -0.03119908 0.272826 -0.4968796
v 0.06734446 0.2708452 -0.4979019
v 0.04547412 0.8197733 -0.1949863
v -0.03532124 0.7741544 -0.1261673
v 0.06704034 0.9499637 -0.1131344
v 0.04547412 0.8197733 -0.1949863
v -0.04531527 0.8844728 -0.01651001
v -0.1133017 0.811198 -0.1996059
v 0.04684425 1.047959 -0.05714607
v -0.1574061 0.9378906 -0.1197605
v -0.05775166 0.9805528 0.03133011
v -0.1655352 1.031015 -0.06678963
v -0.03568554 0.8568168 -0.2684212
v -0.1574061 0.9378906 -0.1197605
v -0.1133017 0.811198 -0.1996059
v -0.04586983 1.003382 -0.2163887
v 0.04547412 0.8197733 -0.1949863
v -0.1655352 1.031015 -0.06678963
v 0.06704034 0.9499637 -0.1131344
v -0.05879307 1.098422 -0.1552658
v 0.04684425 1.047959 -0.05714607
v 0.1300135 0.08436507 -0.5
v 0 0.008006752 -0.5
v 3.208231E-06 0.4633263 -0.126337
v 0.2306203 0.4679994 -0.2243395
v 0.3603899 0.4687662 -0.4689367
v 0.3926296 0.7155823 -0.5
v 0.266078 0.7155823 -0.5
v 0.266078 0.3921286 -0.5
v 0.3926296 0.3921286 -0.5
v -0.2529078 0.7155823 -0.5
v -0.4058008 0.7155823 -0.5
v -0.4058008 0.3921286 -0.5
v -0.2529078 0.3921286 -0.5
v 0.04684425 1.047959 -0.05714607
v -0.06449413 1.090822 -0.02950287
v -0.05879307 1.098422 -0.1552658
v -0.05775166 0.9805528 0.03133011
v -0.1655352 1.031015 -0.06678963
vt 0.796875 0.765625
vt 0.7631836 0.6933594
vt 0.730957 0.7651367
vt 0.135498 0.5258789
vt 0.2432861 0.6582031
vt 0.2749023 0.2419434
vt 0.3522949 0.1712646
vt 0.3522949 0.7016602
vt 0.4890137 0.4350586
vt 0.3691406 0.6987305
vt 0.5551758 0.6987305
vt 0.3691406 0.3293457
vt 0.4318848 0.1002197
vt 0.5288086 0.416748
vt 0.3666992 0.2631836
vt 0.3666992 0.02383423
vt 0.3691406 0.6987305
vt 0.4890137 0.4353027
vt 0.5546875 0.6987305
vt 0.3691406 0.3293457
vt 0.5273438 0.4160156
vt 0.4318848 0.1002197
vt 0.3666992 0.2631836
vt 0.3666992 0.02383423
vt 0.7060547 0.7470703
vt 0.5424805 0.8359375
vt 0.7060547 0.8359375
vt 0.5424805 0.7470703
vt 0.3603516 0.7470703
vt 0.3603516 0.8359375
vt 0.1782227 0.8359375
vt 0.1782227 0.7470703
vt 0.01463318 0.7470703
vt 0.01463318 0.8359375
vt 0.7060547 0.8725586
vt 0.5424805 0.9667969
vt 0.7060547 0.9667969
vt 0.5424805 0.8725586
vt 0.3603516 0.8725586
vt 0.3603516 0.9667969
vt 0.1782227 0.9667969
vt 0.1782227 0.8725586
vt 0.01463318 0.8725586
vt 0.01463318 0.9667969
vt 0.7060547 0.8725586
vt 0.5424805 0.9667969
vt 0.7060547 0.9667969
vt 0.5424805 0.8725586
vt 0.3603516 0.8725586
vt 0.3603516 0.9667969
vt 0.1782227 0.9667969
vt 0.1782227 0.8725586
vt 0.01463318 0.8725586
vt 0.01463318 0.9667969
vt 0.7060547 0.7470703
vt 0.5424805 0.8359375
vt 0.7060547 0.8359375
vt 0.5424805 0.7470703
vt 0.3603516 0.7470703
vt 0.3603516 0.8359375
vt 0.1782227 0.8359375
vt 0.1782227 0.7470703
vt 0.01463318 0.7470703
vt 0.01463318 0.8359375
vt 0.7060547 0.8725586
vt 0.5424805 0.9667969
vt 0.7060547 0.9667969
vt 0.5424805 0.8725586
vt 0.3603516 0.8725586
vt 0.3603516 0.9667969
vt 0.1782227 0.9667969
vt 0.1782227 0.8725586
vt 0.01463318 0.8725586
vt 0.01463318 0.9667969
vt 0.7060547 0.7470703
vt 0.5424805 0.8359375
vt 0.7060547 0.8359375
vt 0.5424805 0.7470703
vt 0.3603516 0.8359375
vt 0.3603516 0.7470703
vt 0.1782227 0.7470703
vt 0.1782227 0.8359375
vt 0.01463318 0.7470703
vt 0.01463318 0.8359375
vt 0.7060547 0.8725586
vt 0.5424805 0.9667969
vt 0.7060547 0.9667969
vt 0.5424805 0.8725586
vt 0.3603516 0.8725586
vt 0.3603516 0.9667969
vt 0.1782227 0.9667969
vt 0.1782227 0.8725586
vt 0.01463318 0.8725586
vt 0.01463318 0.9667969
vt 0.01768494 0.5561523
vt 0.01768494 0.6889648
vt 0.05041504 0.6889648
vt 0.05041504 0.5561523
vt 0.1056519 0.6889648
vt 0.1056519 0.5561523
vt 0.07293701 0.5561523
vt 0.07293701 0.6889648
vt 0.07293701 0.5561523
vt 0.07293701 0.6889648
vt 0.1056519 0.6889648
vt 0.1056519 0.5561523
vt 0.05041504 0.5561523
vt 0.01768494 0.5561523
vt 0.01768494 0.6889648
vt 0.05041504 0.6889648
vt 0.07293701 0.6889648
vt 0.1056519 0.6889648
vt 0.1056519 0.5561523
vt 0.07293701 0.5561523
vt 0.1056519 0.5561523
vt 0.07293701 0.5561523
vt 0.07293701 0.6889648
vt 0.1056519 0.6889648
vt 0.01768494 0.5561523
vt 0.01768494 0.6889648
vt 0.05041504 0.6889648
vt 0.05041504 0.5561523
vt 0.1056519 0.6889648
vt 0.1056519 0.5561523
vt 0.07293701 0.5561523
vt 0.07293701 0.6889648
vt 0.07293701 0.5561523
vt 0.07293701 0.6889648
vt 0.1056519 0.6889648
vt 0.1056519 0.5561523
vt 0.01340485 0.03808594
vt 0.01340485 0.4204102
vt 0.0927124 0.4204102
vt 0.0927124 0.03808594
vt 0.2354736 0.09423828
vt 0.1922607 0.0254364
vt 0.1922607 0.2944336
vt 0.2354736 0.2255859
vt 0.1922607 0.2944336
vt 0.2354736 0.2255859
vt 0.2354736 0.09423828
vt 0.1922607 0.0254364
vt 0.1582031 0.4182129
vt 0.1582031 0.05377197
vt 0.1192627 0.01270294
vt 0.1192627 0.4592285
vt 0.1192627 0.01270294
vt 0.1192627 0.4592285
vt 0.1582031 0.4182129
vt 0.1582031 0.05377197
vt 0.0927124 0.03808594
vt 0.01340485 0.03808594
vt 0.01340485 0.4204102
vt 0.0927124 0.4204102
vt 0.2354736 0.2255859
vt 0.2354736 0.09423828
vt 0.1922607 0.0254364
vt 0.1922607 0.2944336
vt 0.1922607 0.0254364
vt 0.1922607 0.2944336
vt 0.2354736 0.2255859
vt 0.2354736 0.09423828
vt 0.1582031 0.05377197
vt 0.1192627 0.01270294
vt 0.1192627 0.4592285
vt 0.1582031 0.4182129
vt 0.1192627 0.4592285
vt 0.1582031 0.4182129
vt 0.1582031 0.05377197
vt 0.1192627 0.01270294
vt 0.8237305 0.01117706
vt 0.8237305 0.9897461
vt 0.8798828 0.9897461
vt 0.8798828 0.01117706
vt 0.9628906 0.9897461
vt 0.9628906 0.01117706
vt 0.8798828 0.9897461
vt 0.9628906 0.9897461
vt 0.9628906 0.01117706
vt 0.8237305 0.01117706
vt 0.8237305 0.9897461
vt 0.637207 0.006557465
vt 0.7617188 0.300293
vt 0.7617188 0.006557465
vt 0.637207 0.300293
vt 0.5473633 0.006557465
vt 0.7617188 0.4313965
vt 0.5473633 0.300293
vt 0.637207 0.4313965
vt 0.5473633 0.4313965
vt 0.637207 0.006557465
vt 0.7617188 0.300293
vt 0.7617188 0.006557465
vt 0.637207 0.300293
vt 0.5473633 0.006557465
vt 0.7617188 0.4313965
vt 0.5473633 0.300293
vt 0.637207 0.4313965
vt 0.5473633 0.4313965
vt 0.2749023 0.2419434
vt 0.3522949 0.1712646
vt 0.3522949 0.7016602
vt 0.2432861 0.6582031
vt 0.1358643 0.5253906
vt 0.01343536 0.4206543
vt 0.09509277 0.4206543
vt 0.09509277 0.03842163
vt 0.01343536 0.03842163
vt 0.01343536 0.4206543
vt 0.09509277 0.4206543
vt 0.09509277 0.03842163
vt 0.01343536 0.03842163
vt 0.7387695 0.5771484
vt 0.6733398 0.5800781
vt 0.6748047 0.7231445
vt 0.6704102 0.4414063
vt 0.6035156 0.5864258
vn -0.9594727 -0.279541 0.03701782
vn 0.05563354 -0.5493164 0.8339844
vn 0.9501953 -0.2067871 0.2324219
vn -0.8173828 0.3769531 0.4360352
vn -0.5205078 -0.1571045 0.8393555
vn -0.4018555 -0.5976563 0.6938477
vn -2.020597E-05 -0.6381836 0.7700195
vn 1.364946E-05 -0.3857422 0.9223633
vn 0.5205078 -0.1572266 0.8393555
vn -0.3757324 0.8510742 -0.3671875
vn 0.8173828 0.3771973 0.4350586
vn 1.364946E-05 -0.3857422 0.9223633
vn 0.04071045 0.03250122 -0.9985352
vn 0.05767822 0.04602051 -0.9970703
vn 0 0.0395813 -0.9990234
vn 0 0 -1
vn 0.3759766 0.8510742 -0.3669434
vn -0.5205078 -0.1571045 0.8393555
vn -0.8173828 0.3769531 0.4360352
vn 1.364946E-05 -0.3857422 0.9223633
vn -0.05764771 0.04598999 -0.9970703
vn -0.04071045 0.03250122 -0.9985352
vn 0 0.0395813 -0.9990234
vn 0 0 -1
vn 0.8930664 0 0.4499512
vn 0.671875 0 0.7407227
vn 0.8930664 0 0.4499512
vn 0.671875 0 0.7407227
vn 0 0 1
vn 0 0 1
vn -0.671875 0 0.7407227
vn -0.671875 0 0.7407227
vn -0.8930664 0 0.4499512
vn -0.8930664 0 0.4499512
vn -0.180542 0.9794922 -0.0914917
vn -0.1280518 0.9814453 -0.142334
vn -0.180542 0.9794922 -0.0914917
vn -0.1281738 0.9814453 -0.1422119
vn 0 0.9824219 -0.1871338
vn 0 0.9824219 -0.1871338
vn 0.1280518 0.9814453 -0.142334
vn 0.1281738 0.9814453 -0.1422119
vn 0.180542 0.9794922 -0.0914917
vn 0.180542 0.9794922 -0.0914917
vn -0.5834961 -0.7563477 -0.2956543
vn -0.4233398 -0.7749023 -0.4694824
vn -0.5834961 -0.7563477 -0.2956543
vn -0.4228516 -0.7749023 -0.4699707
vn 0 -0.7822266 -0.6230469
vn 0 -0.7822266 -0.6230469
vn 0.4233398 -0.7749023 -0.4694824
vn 0.4228516 -0.7749023 -0.4699707
vn 0.5834961 -0.7563477 -0.2956543
vn 0.5834961 -0.7563477 -0.2956543
vn 0.8930664 0 0.4499512
vn 0.671875 0 0.7407227
vn 0.8930664 0 0.4499512
vn 0.671875 0 0.7407227
vn 0 0 1
vn 0 0 1
vn -0.671875 0 0.7407227
vn -0.671875 0 0.7407227
vn -0.8930664 0 0.4499512
vn -0.8930664 0 0.4499512
vn 0 1 0
vn 0 1 0
vn 0 1 0
vn 0 1 0
vn 0 1 0
vn 0 1 0
vn 0 1 0
vn 0 1 0
vn 0 1 0
vn 0 1 0
vn -0.890625 0 -0.4543457
vn -0.6660156 0 -0.7460938
vn -0.890625 0 -0.4543457
vn -0.6660156 0 -0.7460938
vn 0 0 -1
vn 0 0 -1
vn 0.6660156 0 -0.7460938
vn 0.6660156 0 -0.7460938
vn 0.890625 0 -0.4543457
vn 0.890625 0 -0.4543457
vn -0.6469727 -0.6884766 -0.3278809
vn -0.472168 -0.7089844 -0.5239258
vn -0.6469727 -0.6884766 -0.3278809
vn -0.4719238 -0.7089844 -0.5244141
vn 0 -0.7172852 -0.6967773
vn 0 -0.7172852 -0.6967773
vn 0.472168 -0.7089844 -0.5239258
vn 0.4719238 -0.7089844 -0.5244141
vn 0.6469727 -0.6884766 -0.3278809
vn 0.6469727 -0.6884766 -0.3278809
vn -0.6552734 0 0.7553711
vn -0.6552734 0 0.7553711
vn -0.6552734 0 0.7553711
vn -0.6552734 0 0.7553711
vn 0.9692383 0 0.2458496
vn 0.9692383 0 0.2458496
vn 0.9692383 0 0.2458496
vn 0.9692383 0 0.2458496
vn -0.2990723 0 -0.9541016
vn -0.2990723 0 -0.9541016
vn -0.2990723 0 -0.9541016
vn -0.2990723 0 -0.9541016
vn 0.6552734 0 0.7553711
vn 0.6552734 0 0.7553711
vn 0.6552734 0 0.7553711
vn 0.6552734 0 0.7553711
vn -0.9692383 0 0.2458496
vn -0.9692383 0 0.2458496
vn -0.9692383 0 0.2458496
vn -0.9692383 0 0.2458496
vn 0.2990723 0 -0.9541016
vn 0.2990723 0 -0.9541016
vn 0.2990723 0 -0.9541016
vn 0.2990723 0 -0.9541016
vn -0.001242638 0 1
vn -0.001242638 0 1
vn -0.001242638 0 1
vn -0.001242638 0 1
vn 0.8793945 0 -0.4758301
vn 0.8793945 0 -0.4758301
vn 0.8793945 0 -0.4758301
vn 0.8793945 0 -0.4758301
vn -0.8652344 0 -0.5009766
vn -0.8652344 0 -0.5009766
vn -0.8652344 0 -0.5009766
vn -0.8652344 0 -0.5009766
vn 0 0 1
vn 0 0 1
vn 0 0 1
vn 0 0 1
vn 0 0.9692383 0.2467041
vn 0 0.9692383 0.2467041
vn 0 0.9692383 0.2467041
vn 0 0.9692383 0.2467041
vn 0 -0.9692383 0.2467041
vn 0 -0.9692383 0.2467041
vn 0 -0.9692383 0.2467041
vn 0 -0.9692383 0.2467041
vn 0.9765625 0 0.2161865
vn 0.9765625 0 0.2161865
vn 0.9765625 0 0.2161865
vn 0.9765625 0 0.2161865
vn -0.9765625 0 0.2161865
vn -0.9765625 0 0.2161865
vn -0.9765625 0 0.2161865
vn -0.9765625 0 0.2161865
vn 0 0 1
vn 0 0 1
vn 0 0 1
vn 0 0 1
vn 0 0.9692383 0.2467041
vn 0 0.9692383 0.2467041
vn 0 0.9692383 0.2467041
vn 0 0.9692383 0.2467041
vn 0 -0.9692383 0.2467041
vn 0 -0.9692383 0.2467041
vn 0 -0.9692383 0.2467041
vn 0 -0.9692383 0.2467041
vn -0.9658203 0 0.2583008
vn -0.9658203 0 0.2583008
vn -0.9658203 0 0.2583008
vn -0.9658203 0 0.2583008
vn 0.9658203 0 0.2583008
vn 0.9658203 0 0.2583008
vn 0.9658203 0 0.2583008
vn 0.9658203 0 0.2583008
vn -0.9594727 -0.279541 0.03701782
vn -0.9770508 -0.2126465 0.01502991
vn 0.005081177 -0.5825195 0.8129883
vn 0.05563354 -0.5493164 0.8339844
vn 0.9873047 -0.09906006 0.1240234
vn 0.9501953 -0.2067871 0.2324219
vn 0.003170013 0.394043 -0.9189453
vn -0.9770508 -0.2126465 0.01502991
vn -0.9594727 -0.279541 0.03701782
vn 0.9501953 -0.2067871 0.2324219
vn 0.9873047 -0.09906006 0.1240234
vn 0.005081177 -0.5825195 0.8129883
vn 1 0.001184464 0.001953125
vn 0.9873047 -0.09906006 0.1240234
vn 0.02554321 -0.5898438 0.8071289
vn -0.9770508 -0.2126465 0.01502991
vn 0.9282227 0.3303223 0.1708984
vn -0.9833984 -0.157959 -0.08782959
vn -0.01806641 -0.2519531 0.9677734
vn -0.9868164 0.1485596 0.06561279
vn 0.003170013 0.394043 -0.9189453
vn -0.9833984 -0.157959 -0.08782959
vn -0.9770508 -0.2126465 0.01502991
vn 0.02053833 0.4362793 -0.8994141
vn 0.9873047 -0.09906006 0.1240234
vn -0.9868164 0.1485596 0.06561279
vn 1 0.001184464 0.001953125
vn -0.0209198 0.7172852 -0.6962891
vn 0.9282227 0.3303223 0.1708984
vn 0.4018555 -0.5976563 0.6938477
vn -2.020597E-05 -0.6381836 0.7700195
vn 1.364946E-05 -0.3857422 0.9223633
vn 0.5205078 -0.1572266 0.8393555
vn 0.8173828 0.3771973 0.4350586
vn 0 0 -1
vn 0 0 -1
vn 0 0 -1
vn 0 0 -1
vn 0 0 -1
vn 0 0 -1
vn 0 0 -1
vn 0 0 -1
vn 0.9282227 0.3303223 0.1708984
vn -0.09362793 0.8413086 0.5322266
vn -0.0209198 0.7172852 -0.6962891
vn -0.01806641 -0.2519531 0.9677734
vn -0.9868164 0.1485596 0.06561279
g t028v001_m_0
f 3/3/3 2/2/2 1/1/1
f 6/6/6 5/5/5 4/4/4
f 5/5/5 6/6/6 7/7/7
f 8/8/8 5/5/5 7/7/7
f 11/11/11 10/10/10 9/9/9
f 9/9/9 10/10/10 12/12/12
f 15/15/15 14/14/14 13/13/13
f 16/16/16 15/15/15 13/13/13
f 19/19/19 18/18/18 17/17/17
f 18/18/18 20/20/20 17/17/17
f 23/23/23 22/22/22 21/21/21
f 23/23/23 24/24/24 22/22/22
f 27/27/27 26/26/26 25/25/25
f 26/26/26 28/28/28 25/25/25
f 29/29/29 28/28/28 26/26/26
f 30/30/30 29/29/29 26/26/26
f 29/29/29 30/30/30 31/31/31
f 32/32/32 29/29/29 31/31/31
f 32/32/32 31/31/31 33/33/33
f 31/31/31 34/34/34 33/33/33
f 37/37/37 36/36/36 35/35/35
f 36/36/36 38/38/38 35/35/35
f 39/39/39 38/38/38 36/36/36
f 40/40/40 39/39/39 36/36/36
f 39/39/39 40/40/40 41/41/41
f 42/42/42 39/39/39 41/41/41
f 42/42/42 41/41/41 43/43/43
f 41/41/41 44/44/44 43/43/43
f 47/47/47 46/46/46 45/45/45
f 46/46/46 48/48/48 45/45/45
f 49/49/49 48/48/48 46/46/46
f 50/50/50 49/49/49 46/46/46
f 49/49/49 50/50/50 51/51/51
f 52/52/52 49/49/49 51/51/51
f 52/52/52 51/51/51 53/53/53
f 51/51/51 54/54/54 53/53/53
f 57/57/57 56/56/56 55/55/55
f 56/56/56 58/58/58 55/55/55
f 59/59/59 58/58/58 56/56/56
f 60/60/60 59/59/59 56/56/56
f 59/59/59 60/60/60 61/61/61
f 62/62/62 59/59/59 61/61/61
f 62/62/62 61/61/61 63/63/63
f 61/61/61 64/64/64 63/63/63
f 67/67/67 66/66/66 65/65/65
f 66/66/66 68/68/68 65/65/65
f 69/69/69 68/68/68 66/66/66
f 70/70/70 69/69/69 66/66/66
f 69/69/69 70/70/70 71/71/71
f 72/72/72 69/69/69 71/71/71
f 72/72/72 71/71/71 73/73/73
f 71/71/71 74/74/74 73/73/73
f 77/77/77 76/76/76 75/75/75
f 76/76/76 78/78/78 75/75/75
f 76/76/76 79/79/79 78/78/78
f 79/79/79 80/80/80 78/78/78
f 80/80/80 79/79/79 81/81/81
f 79/79/79 82/82/82 81/81/81
f 81/81/81 82/82/82 83/83/83
f 82/82/82 84/84/84 83/83/83
f 87/87/87 86/86/86 85/85/85
f 86/86/86 88/88/88 85/85/85
f 89/89/89 88/88/88 86/86/86
f 90/90/90 89/89/89 86/86/86
f 89/89/89 90/90/90 91/91/91
f 92/92/92 89/89/89 91/91/91
f 92/92/92 91/91/91 93/93/93
f 91/91/91 94/94/94 93/93/93
f 97/97/97 96/96/96 95/95/95
f 98/98/98 97/97/97 95/95/95
f 101/101/101 100/100/100 99/99/99
f 102/102/102 101/101/101 99/99/99
f 105/105/105 104/104/104 103/103/103
f 106/106/106 105/105/105 103/103/103
f 109/109/109 108/108/108 107/107/107
f 110/110/110 109/109/109 107/107/107
f 113/113/113 112/112/112 111/111/111
f 114/114/114 113/113/113 111/111/111
f 117/117/117 116/116/116 115/115/115
f 118/118/118 117/117/117 115/115/115
f 121/121/121 120/120/120 119/119/119
f 122/122/122 121/121/121 119/119/119
f 125/125/125 124/124/124 123/123/123
f 126/126/126 125/125/125 123/123/123
f 129/129/129 128/128/128 127/127/127
f 130/130/130 129/129/129 127/127/127
f 133/133/133 132/132/132 131/131/131
f 134/134/134 133/133/133 131/131/131
f 137/137/137 136/136/136 135/135/135
f 138/138/138 137/137/137 135/135/135
f 141/141/141 140/140/140 139/139/139
f 142/142/142 141/141/141 139/139/139
f 145/145/145 144/144/144 143/143/143
f 146/146/146 145/145/145 143/143/143
f 149/149/149 148/148/148 147/147/147
f 150/150/150 149/149/149 147/147/147
f 153/153/153 152/152/152 151/151/151
f 154/154/154 153/153/153 151/151/151
f 157/157/157 156/156/156 155/155/155
f 158/158/158 157/157/157 155/155/155
f 161/161/161 160/160/160 159/159/159
f 162/162/162 161/161/161 159/159/159
f 165/165/165 164/164/164 163/163/163
f 166/166/166 165/165/165 163/163/163
f 169/169/169 168/168/168 167/167/167
f 170/170/170 169/169/169 167/167/167
f 173/173/173 172/172/172 171/171/171
f 174/174/174 173/173/173 171/171/171
f 175/175/175 173/173/173 174/174/174
f 176/176/176 175/175/175 174/174/174
f 179/179/179 178/178/178 177/177/177
f 180/180/180 179/179/179 177/177/177
f 177/177/177 181/181/181 180/180/180
f 184/184/184 183/183/183 182/182/182
f 183/183/183 185/185/185 182/182/182
f 182/182/182 185/185/185 186/186/186
f 183/183/183 187/187/187 185/185/185
f 185/185/185 188/188/188 186/186/186
f 187/187/187 189/189/189 185/185/185
f 185/185/185 189/189/189 188/188/188
f 189/189/189 190/190/190 188/188/188
f 193/193/193 192/192/192 191/191/191
f 192/192/192 194/194/194 191/191/191
f 191/191/191 194/194/194 195/195/195
f 192/192/192 196/196/196 194/194/194
f 194/194/194 197/197/197 195/195/195
f 196/196/196 198/198/198 194/194/194
f 194/194/194 198/198/198 197/197/197
f 198/198/198 199/199/199 197/197/197
f 202/202/202 201/201/201 200/200/200
f 203/203/203 202/202/202 200/200/200
f 203/203/203 200/200/200 204/204/204
f 207/207/207 206/206/206 205/205/205
f 208/208/208 207/207/207 205/205/205
f 211/211/211 210/210/210 209/209/209
f 212/212/212 211/211/211 209/209/209
f 215/215/215 214/214/214 213/213/213
f 213/213/213 214/214/214 216/216/216
f 217/217/217 214/214/214 215/215/215
f 216/216/216 214/214/214 217/217/217
