#
# OBJECT NAME
#
o model_2584
mtllib 2584.mtl

#
# VERTEX BUFFER 000
#
v -0.387478 1.6396 -0.499818
v 0.387478 1.6396 -0.499818
v 0.387478 0.112303 -0.499818
v -0.387478 0.112303 -0.499818
v 0.387478 1.63982 -0.387296
v -0.387478 1.63982 -0.387296
v -0.387478 0.112741 -0.387296
v 0.387478 0.112741 -0.387296
v -0.387368 1.20725 0.38721
v -0.387588 1.09473 0.38721
v 0.387259 1.09473 0.38721
v 0.387697 1.20725 0.38721
v -0.387368 1.20725 -0.387296
v -0.387368 1.20725 0.38721
v 0.387697 1.20725 0.38721
v 0.387697 1.20725 -0.387296
v -0.387588 1.09473 0.38721
v -0.387588 1.09473 -0.387296
v 0.387259 1.09473 -0.387296
v 0.387259 1.09473 0.38721
v -0.387368 0.62919 0.38721
v -0.387588 0.516668 0.38721
v 0.387259 0.516668 0.38721
v 0.387697 0.62919 0.38721
v -0.387368 0.62919 -0.387296
v -0.387368 0.62919 0.38721
v 0.387697 0.62919 0.38721
v 0.387697 0.62919 -0.387296
v -0.387588 0.516668 0.38721
v -0.387588 0.516668 -0.387296
v 0.387259 0.516668 -0.387296
v 0.387259 0.516668 0.38721
v -0.387478 1.6396 0.499732
v -0.5 1.63982 0.499732
v -0.5 0.112741 0.499732
v -0.387478 0.112303 0.499732
v -0.387478 1.6396 -0.499818
v -0.387478 1.6396 0.499732
v -0.387478 0.112303 0.499732
v -0.387478 0.112303 -0.499818
v -0.5 1.63982 -0.499818
v -0.387478 1.6396 -0.499818
v -0.387478 0.112303 -0.499818
v -0.5 0.112741 -0.499818
v -0.5 1.63982 0.499732
v -0.5 1.63982 -0.499818
v -0.5 0.112522 -0.499818
v -0.5 0.112522 0.499732
v 0.5 1.6396 0.499732
v 0.387478 1.63982 0.499732
v 0.387478 0.112741 0.499732
v 0.5 0.112303 0.499732
v 0.387478 1.63982 0.499732
v 0.387478 1.63982 -0.499818
v 0.387478 0.112741 -0.499818
v 0.387478 0.112741 0.499732
v 0.387478 1.63982 -0.499818
v 0.5 1.6396 -0.499818
v 0.5 0.112303 -0.499818
v 0.387478 0.112741 -0.499818
v -0.387478 1.63971 -0.499818
v 0.387478 1.63971 -0.499818
v 0.387478 1.63971 0.499732
v -0.387478 1.63971 0.499732
v 0.387478 0.112522 -0.499818
v -0.387478 0.112522 -0.499818
v -0.387478 0.112522 0.499732
v 0.387478 0.112522 0.499732
v 0.494332 1.74656 0.499732
v 0.5 1.73288 0.499732
v 0.5 1.73288 -0.499818
v 0.494332 1.74656 -0.499818
v -0.5 1.63971 0.499732
v 0.5 1.63971 0.499732
v 0.5 1.73288 0.499732
v -0.5 1.73288 0.499732
v -0.480648 1.75223 -0.499818
v -0.480648 1.75223 0.499732
v 0.480648 1.75223 0.499732
v 0.480648 1.75223 -0.499818
v -0.5 1.73288 -0.499818
v -0.480648 1.75223 -0.499818
v 0.480648 1.75223 -0.499818
v 0.5 1.73288 -0.499818
v -0.5 1.73288 0.499732
v -0.494332 1.74656 0.499732
v -0.494332 1.74656 -0.499818
v -0.5 1.73288 -0.499818
v -0.494332 1.74656 0.499732
v -0.494332 1.74656 -0.499818
v 0.494332 1.74656 0.499732
v 0.494332 1.74656 -0.499818
v -0.494332 1.74656 0.499732
v -0.480648 1.75223 0.499732
v -0.494332 1.74656 -0.499818
v 0.494332 1.74656 0.499732
v 0.480648 1.75223 0.499732
v 0.494332 1.74656 -0.499818
v 0.5 1.63971 -0.499818
v -0.5 1.63971 -0.499818
v -0.5 1.63971 -0.499818
v -0.5 1.63971 0.499732
v 0.5 1.63971 0.499732
v 0.5 1.63971 -0.499818
v 0.5 0.0193518 0.499732
v 0.494332 0.00566804 0.499732
v 0.494332 0.00566804 -0.499818
v 0.5 0.0193518 -0.499818
v 0.5 0.112522 -0.499818
v 0.5 0.112522 0.499732
v 0.5 0.0193518 0.499732
v -0.5 0.0193518 0.499732
v -0.480648 0 0.499732
v 0.480648 0 0.499732
v 0.480648 0 -0.499818
v 0.480648 0 0.499732
v -0.480648 0 0.499732
v -0.480648 0 -0.499818
v 0.5 0.0193518 -0.499818
v 0.480648 0 -0.499818
v -0.480648 0 -0.499818
v -0.5 0.0193518 -0.499818
v 0.494332 0.00566804 0.499732
v 0.494332 0.00566804 -0.499818
v -0.494332 0.00566804 0.499732
v -0.494332 0.00566804 -0.499818
v -0.494332 0.00566804 0.499732
v -0.5 0.0193518 0.499732
v -0.5 0.0193518 -0.499818
v -0.494332 0.00566804 -0.499818
v 0.494332 0.00566804 0.499732
v 0.494332 0.00566804 -0.499818
v -0.494332 0.00566804 0.499732
v -0.494332 0.00566804 -0.499818
v -0.5 0.112522 -0.499818
v 0.5 0.112522 -0.499818
v 0.5 0.112522 0.499732
v -0.5 0.112522 0.499732
v -0.5 0.112522 -0.499818
v -0.5 0.0193518 -0.499818
v -0.5 0.0193518 0.499732
v -0.5 0.112522 0.499732
v 0.5 1.63971 -0.499818
v 0.5 1.63971 0.499732
v 0.5 0.112522 0.499732
v 0.5 0.112522 -0.499818

vn 0 0 -1
vn 0 0 -1
vn 0 0 -1
vn 0 0 -1
vn 0 0 1
vn 0 0 1
vn 0 0 1
vn 0 0 1
vn 0 0 1
vn 0 0 1
vn 0 0 1
vn 0 0 1
vn 0 1 0
vn 0 1 0
vn 0 1 0
vn 0 1 0
vn 0 -1 0
vn 0 -1 0
vn 0 -1 0
vn 0 -1 0
vn 0 0 1
vn 0 0 1
vn 0 0 1
vn 0 0 1
vn 0 1 0
vn 0 1 0
vn 0 1 0
vn 0 1 0
vn 0 -1 0
vn 0 -1 0
vn 0 -1 0
vn 0 -1 0
vn 0 0 1
vn 0 0 1
vn 0 0 1
vn 0 0 1
vn 1 0 0
vn 1 0 0
vn 1 0 0
vn 1 0 0
vn 2.98023e-007 0 -1
vn 2.98023e-007 0 -1
vn 2.98023e-007 0 -1
vn 2.98023e-007 0 -1
vn -1 0 0
vn -1 0 0
vn -1 0 0
vn -1 0 0
vn 0 0 1
vn 0 0 1
vn 0 0 1
vn 0 0 1
vn -1 0 0
vn -1 0 0
vn -1 0 0
vn -1 0 0
vn 2.98023e-007 0 -1
vn 2.98023e-007 0 -1
vn 2.98023e-007 0 -1
vn 2.98023e-007 0 -1
vn 0 -1 0
vn 0 -1 0
vn 0 -1 0
vn 0 -1 0
vn 0 1 0
vn 0 1 0
vn 0 1 0
vn 0 1 0
vn 0.923828 0.382568 0
vn 0.998535 0.052948 0
vn 0.998535 0.052948 0
vn 0.923828 0.382568 0
vn 0 0 1
vn 0 0 1
vn 0 0 1
vn 0 0 1
vn -0.00580978 0.999512 0
vn -0.00580978 0.999512 0
vn 0.00580978 0.999512 0
vn 0.00580978 0.999512 0
vn 0 0 -1
vn 0 0 -1
vn 0 0 -1
vn 0 0 -1
vn -0.998535 0.052948 0
vn -0.923828 0.382568 0
vn -0.923828 0.382568 0
vn -0.998535 0.052948 0
vn -0.382568 0.923828 0
vn -0.382568 0.923828 0
vn 0.382568 0.923828 0
vn 0.382568 0.923828 0
vn 2.98023e-006 0 1
vn 0 0 1
vn 0 0 -1
vn -5.96046e-006 0 1
vn 0 0 1
vn 0 0 -1
vn 0 0 -1
vn 0 0 -1
vn -1 0 0
vn -1 0 0
vn 1 0 0
vn 1 0 0
vn 0.998535 -0.052948 0
vn 0.923828 -0.382568 0
vn 0.923828 -0.382568 0
vn 0.998535 -0.052948 0
vn 1 0 0
vn 1 0 0
vn 0 0 1
vn 0 0 1
vn 0 0 1
vn 0 0 1
vn 0.00580978 -0.999512 0
vn 0.00580978 -0.999512 0
vn -0.00580978 -0.999512 0
vn -0.00580978 -0.999512 0
vn 0 0 -1
vn 0 0 -1
vn 0 0 -1
vn 0 0 -1
vn 0.382568 -0.923828 0
vn 0.382568 -0.923828 0
vn -0.382568 -0.923828 0
vn -0.382568 -0.923828 0
vn -0.923828 -0.382568 0
vn -0.923828 -0.382568 0
vn -0.923828 -0.382568 0
vn -0.923828 -0.382568 0
vn -2.98023e-006 0 1
vn 0 0 -1
vn 5.96046e-006 0 1
vn 0 0 -1
vn 0 0 -1
vn 0 0 -1
vn 0 0 1
vn 0 0 1
vn -1 0 0
vn -1 0 0
vn -1 0 0
vn -1 0 0
vn 1 0 0
vn 1 0 0
vn 1 0 0
vn 1 0 0

vt 0.697759 0.811046
vt 0.53338 0.811046
vt 0.53338 0.487293
vt 0.697759 0.487293
vt 0.175361 0.811046
vt 0.0136571 0.811046
vt 0.0136571 0.487293
vt 0.175361 0.487293
vt 0.639878 0.277456
vt 0.613371 0.277493
vt 0.613371 0.100245
vt 0.639878 0.100245
vt 0.872772 0.984742
vt 0.711067 0.984742
vt 0.711067 0.822485
vt 0.872772 0.822485
vt 0.697232 0.984742
vt 0.534975 0.984742
vt 0.534975 0.822485
vt 0.697232 0.822485
vt 0.604587 0.277456
vt 0.57808 0.277493
vt 0.57808 0.100245
vt 0.604587 0.100245
vt 0.522403 0.984742
vt 0.360699 0.984742
vt 0.360699 0.822485
vt 0.522403 0.822485
vt 0.697232 0.984742
vt 0.534975 0.984742
vt 0.534975 0.822485
vt 0.697232 0.822485
vt 0.910597 0.451283
vt 0.910597 0.475754
vt 0.578346 0.475754
vt 0.578346 0.451283
vt 0.872863 0.811046
vt 0.708916 0.811046
vt 0.708916 0.487293
vt 0.872863 0.487293
vt 0.910597 0.354307
vt 0.910597 0.378778
vt 0.578346 0.378778
vt 0.578346 0.354307
vt 0.569196 0.25477
vt 0.569197 0.47225
vt 0.242776 0.47225
vt 0.242776 0.25477
vt 0.910597 0.4187
vt 0.910597 0.443172
vt 0.578346 0.443172
vt 0.578346 0.4187
vt 0.34949 0.822202
vt 0.34949 0.984742
vt 0.0136571 0.984742
vt 0.0136572 0.822202
vt 0.910597 0.322839
vt 0.910597 0.34731
vt 0.578346 0.34731
vt 0.578346 0.322839
vt 0.651468 0.1154
vt 0.813725 0.1154
vt 0.813725 0.277658
vt 0.651468 0.277658
vt 0.534975 0.822485
vt 0.697232 0.822485
vt 0.697232 0.984742
vt 0.534975 0.984742
vt 0.939189 0.302952
vt 0.936241 0.302952
vt 0.936241 0.0880601
vt 0.939189 0.0880601
vt 0.92218 0.987674
vt 0.92218 0.746979
vt 0.942252 0.746979
vt 0.942252 0.987674
vt 0.0212213 0.236405
vt 0.0212213 0.0189023
vt 0.224614 0.0189023
vt 0.224614 0.236405
vt 0.977759 0.731128
vt 0.981928 0.72647
vt 0.981928 0.49509
vt 0.977759 0.490432
vt 0.904715 0.492244
vt 0.907664 0.492244
vt 0.907663 0.73294
vt 0.904715 0.73294
vt 0.0182732 0.0189023
vt 0.0182732 0.236405
vt 0.227562 0.0189023
vt 0.227562 0.236405
vt 0.9452 0.98631
vt 0.946422 0.983016
vt 0.980707 0.729763
vt 0.9452 0.748343
vt 0.946422 0.751637
vt 0.980707 0.491797
vt 0.957686 0.490432
vt 0.957686 0.731128
vt 0.886999 0.73294
vt 0.886999 0.492244
vt 0.91937 0.302952
vt 0.919369 0.0880601
vt 0.902982 0.985405
vt 0.907279 0.985406
vt 0.90728 0.74562
vt 0.902982 0.74562
vt 0.886915 0.74562
vt 0.886915 0.985405
vt 0.942252 0.73192
vt 0.942252 0.491224
vt 0.946422 0.495882
vt 0.946422 0.727262
vt 0.0212505 0.470572
vt 0.0212505 0.25513
vt 0.225014 0.25513
vt 0.225014 0.470572
vt 0.977759 0.987674
vt 0.981928 0.983016
vt 0.981928 0.751637
vt 0.977759 0.746979
vt 0.0183024 0.25513
vt 0.0183024 0.470572
vt 0.227962 0.25513
vt 0.227962 0.470572
vt 0.97579 0.303288
vt 0.972842 0.303288
vt 0.972842 0.0878462
vt 0.97579 0.087846
vt 0.945201 0.730556
vt 0.980707 0.98631
vt 0.9452 0.492589
vt 0.980707 0.748343
vt 0.957686 0.746979
vt 0.957686 0.987674
vt 0.92218 0.73192
vt 0.92218 0.491224
vt 0.955261 0.0878462
vt 0.972842 0.0878462
vt 0.972842 0.303288
vt 0.955261 0.303288
vt 0.567998 0.0189024
vt 0.567998 0.236382
vt 0.240759 0.236382
vt 0.240759 0.0189024


#
# MESH 000
#
g surface_000
usemtl surface_000
f 1/1/1 3/3/3 4/4/4
f 1/1/1 2/2/2 3/3/3
f 5/5/5 7/7/7 8/8/8
f 5/5/5 6/6/6 7/7/7
f 17/17/17 19/19/19 20/20/20
f 17/17/17 18/18/18 19/19/19
f 13/13/13 15/15/15 16/16/16
f 13/13/13 14/14/14 15/15/15
f 9/9/9 11/11/11 12/12/12
f 9/9/9 10/10/10 11/11/11
f 29/29/29 31/31/31 32/32/32
f 29/29/29 30/30/30 31/31/31
f 25/25/25 27/27/27 28/28/28
f 25/25/25 26/26/26 27/27/27
f 21/21/21 23/23/23 24/24/24
f 21/21/21 22/22/22 23/23/23
f 41/41/41 43/43/43 44/44/44
f 41/41/41 42/42/42 43/43/43
f 37/37/37 39/39/39 40/40/40
f 37/37/37 38/38/38 39/39/39
f 33/33/33 35/35/35 36/36/36
f 33/33/33 34/34/34 35/35/35
f 45/45/45 47/47/47 48/48/48
f 45/45/45 46/46/46 47/47/47
f 57/57/57 59/59/59 60/60/60
f 57/57/57 58/58/58 59/59/59
f 53/53/53 55/55/55 56/56/56
f 53/53/53 54/54/54 55/55/55
f 49/49/49 51/51/51 52/52/52
f 49/49/49 50/50/50 51/51/51
f 61/61/61 63/63/63 64/64/64
f 61/61/61 62/62/62 63/63/63
f 65/65/65 67/67/67 68/68/68
f 65/65/65 66/66/66 67/67/67
f 70/70/70 103/103/103 104/104/104
f 70/70/70 104/104/104 71/71/71
f 69/69/69 70/70/70 71/71/71
f 69/69/69 71/71/71 72/72/72
f 88/88/88 101/101/101 102/102/102
f 88/88/88 102/102/102 85/85/85
f 85/85/85 87/87/87 88/88/88
f 85/85/85 86/86/86 87/87/87
f 81/81/81 99/99/99 100/100/100
f 81/81/81 84/84/84 99/99/99
f 81/81/81 83/83/83 84/84/84
f 84/84/84 83/83/83 98/98/98
f 81/81/81 82/82/82 83/83/83
f 81/81/81 95/95/95 82/82/82
f 96/96/96 97/97/97 75/75/75
f 76/76/76 75/75/75 97/97/97
f 73/73/73 75/75/75 76/76/76
f 73/73/73 74/74/74 75/75/75
f 76/76/76 97/97/97 94/94/94
f 93/93/93 76/76/76 94/94/94
f 79/79/79 91/91/91 92/92/92
f 79/79/79 92/92/92 80/80/80
f 77/77/77 79/79/79 80/80/80
f 77/77/77 78/78/78 79/79/79
f 89/89/89 78/78/78 77/77/77
f 89/89/89 77/77/77 90/90/90
f 139/139/139 141/141/141 142/142/142
f 139/139/139 140/140/140 141/141/141
f 137/137/137 138/138/138 112/112/112
f 137/137/137 112/112/112 111/111/111
f 111/111/111 112/112/112 113/113/113
f 111/111/111 113/113/113 114/114/114
f 131/131/131 111/111/111 114/114/114
f 133/133/133 113/113/113 112/112/112
f 119/119/119 135/135/135 136/136/136
f 119/119/119 122/122/122 135/135/135
f 119/119/119 121/121/121 122/122/122
f 122/122/122 121/121/121 134/134/134
f 119/119/119 120/120/120 121/121/121
f 119/119/119 132/132/132 120/120/120
f 127/127/127 129/129/129 130/130/130
f 127/127/127 128/128/128 129/129/129
f 117/117/117 125/125/125 126/126/126
f 117/117/117 126/126/126 118/118/118
f 115/115/115 117/117/117 118/118/118
f 115/115/115 116/116/116 117/117/117
f 123/123/123 116/116/116 115/115/115
f 123/123/123 115/115/115 124/124/124
f 109/109/109 110/110/110 105/105/105
f 109/109/109 105/105/105 108/108/108
f 105/105/105 107/107/107 108/108/108
f 105/105/105 106/106/106 107/107/107
f 143/143/143 145/145/145 146/146/146
f 143/143/143 144/144/144 145/145/145

