#
# OBJECT NAME
#
o model_2589
mtllib 2589.mtl

#
# VERTEX BUFFER 000
#
v 0 1.52707 -0.0382611
v 0 1.52729 0.049261
v 0 0.000218853 0.049261
v 0 -0.000218876 -0.0382611
v -0.774956 1.52707 -0.0382611
v 0 1.52707 -0.0382611
v 0 -0.000218876 -0.0382611
v -0.774956 -0.000218876 -0.0382611
v 0 1.52729 0.049261
v -0.774956 1.52729 0.0492611
v -0.774956 0.000218853 0.0492611
v 0 0.000218853 0.049261
v -0.774956 1.52729 0.0492611
v -0.774956 1.52707 -0.0382611
v -0.774956 -0.000218876 -0.0382611
v -0.774956 0.000218853 0.0492611
v -0.774956 1.52729 0.0492611
v 0 1.52729 0.049261
v 0 1.52707 -0.0382611
v -0.774956 1.52707 -0.0382611
v 0 0.000218853 0.049261
v -0.774956 0.000218853 0.0492611
v -0.774956 -0.000218876 -0.0382611
v 0 -0.000218876 -0.0382611
v -0.573979 0.775763 0.119933
v -0.544291 0.711795 0.119933
v -0.541071 0.711795 0.049261
v -0.571779 0.777963 0.0492611
v -0.637946 0.80545 0.119933
v -0.637946 0.808671 0.049261
v -0.701914 0.775763 0.119933
v -0.704114 0.777963 0.0492611
v -0.731601 0.711795 0.119933
v -0.734822 0.711795 0.0492611
v -0.701914 0.647828 0.119933
v -0.704114 0.645628 0.0492611
v -0.637946 0.61814 0.119933
v -0.637946 0.61492 0.049261
v -0.573979 0.647828 0.119933
v -0.637946 0.61814 0.119933
v -0.637946 0.61492 0.049261
v -0.571779 0.645628 0.0492611
v -0.573979 0.775763 0.119933
v -0.637946 0.80545 0.119933
v -0.637946 0.711795 0.119933
v -0.701914 0.775763 0.119933
v -0.731601 0.711795 0.119933
v -0.701914 0.647828 0.119933
v -0.637946 0.61814 0.119933
v -0.573979 0.647828 0.119933
v -0.544291 0.711795 0.119933
v 0 1.34002 0.049261
v -0.00475359 1.33465 0.0573246
v -0.00475359 1.12344 0.0573246
v 0 1.11798 0.049261
v -0.00475359 1.33465 0.0573246
v -0.0921699 1.33465 0.0573246
v -0.0921699 1.12344 0.0573246
v -0.00475359 1.12344 0.0573246
v -0.0921699 1.33465 0.0573246
v -0.0969236 1.34002 0.049261
v -0.0969236 1.11798 0.049261
v -0.0921699 1.12344 0.0573246
v -0.0921699 1.33465 0.0573246
v -0.00475359 1.33465 0.0573246
v 0 1.34002 0.049261
v -0.0969236 1.34002 0.049261
v -0.00475359 1.12344 0.0573246
v -0.0921699 1.12344 0.0573246
v -0.0969236 1.11798 0.049261
v 0 1.11798 0.049261
v 0 0.48417 0.049261
v -0.00475359 0.478798 0.0573246
v -0.00475359 0.267584 0.0573246
v 0 0.262129 0.049261
v -0.00475359 0.478798 0.0573246
v -0.0921699 0.478798 0.0573246
v -0.0921699 0.267584 0.0573246
v -0.00475359 0.267584 0.0573246
v -0.0921699 0.478798 0.0573246
v -0.0969236 0.48417 0.049261
v -0.0969236 0.262129 0.049261
v -0.0921699 0.267584 0.0573246
v -0.0921699 0.478798 0.0573246
v -0.00475359 0.478798 0.0573246
v 0 0.48417 0.049261
v -0.0969236 0.48417 0.049261
v -0.00475359 0.267584 0.0573246
v -0.0921699 0.267584 0.0573246
v -0.0969236 0.262129 0.049261
v 0 0.262129 0.049261

vn 1 0 0
vn 1 0 0
vn 1 0 0
vn 1 0 0
vn 0 0 -1
vn 0 0 -1
vn 0 0 -1
vn 0 0 -1
vn 0 0 1
vn 0 0 1
vn 0 0 1
vn 0 0 1
vn -1 0 -1.3113e-006
vn -1 0 -1.3113e-006
vn -1 0 -1.3113e-006
vn -1 0 -1.3113e-006
vn 0 0.999512 -0.00251961
vn 0 0.999512 -0.00251961
vn 0 0.999512 -0.00251961
vn 0 0.999512 -0.00251961
vn 0 -0.999512 0.00500107
vn 0 -0.999512 0.00500107
vn 0 -0.999512 0.00500107
vn 0 -0.999512 0.00500107
vn 0.625 0.625 0.466797
vn 0.890137 -1.78814e-007 0.455078
vn 0.998535 2.38419e-007 0.0455017
vn 0.706055 0.706055 0.0439453
vn -4.17233e-007 0.890137 0.455078
vn 2.38419e-007 0.998535 0.0455017
vn -0.625 0.625 0.466797
vn -0.706055 0.706055 0.0439453
vn -0.890137 1.78814e-007 0.455078
vn -0.998535 -1.78814e-007 0.0455017
vn -0.625 -0.625 0.466797
vn -0.706055 -0.706055 0.0439453
vn -2.38419e-007 -0.890137 0.455078
vn 4.17233e-007 -0.998535 0.0455017
vn 0.625 -0.625 0.466797
vn -2.38419e-007 -0.890137 0.455078
vn 4.17233e-007 -0.998535 0.0455017
vn 0.706055 -0.706055 0.0439453
vn 0.625 0.625 0.466797
vn -4.17233e-007 0.890137 0.455078
vn 3.57628e-007 0 1
vn -0.625 0.625 0.466797
vn -0.890137 1.78814e-007 0.455078
vn -0.625 -0.625 0.466797
vn -2.38419e-007 -0.890137 0.455078
vn 0.625 -0.625 0.466797
vn 0.890137 -1.78814e-007 0.455078
vn 0.861328 0 0.507813
vn 0.861328 0 0.507813
vn 0.861328 0 0.507813
vn 0.861328 0 0.507813
vn 3.57628e-007 0 1
vn 3.57628e-007 0 1
vn 3.57628e-007 0 1
vn 3.57628e-007 0 1
vn -0.861328 0 0.507813
vn -0.861328 0 0.507813
vn -0.861328 0 0.507813
vn -0.861328 0 0.507813
vn 0 0.832031 0.554199
vn 0 0.832031 0.554199
vn 0 0.832031 0.554199
vn 0 0.832031 0.554199
vn 0 -0.828125 0.560059
vn 0 -0.828125 0.560059
vn 0 -0.828125 0.560059
vn 0 -0.828125 0.560059
vn 0.861328 0 0.507813
vn 0.861328 0 0.507813
vn 0.861328 0 0.507813
vn 0.861328 0 0.507813
vn 3.57628e-007 0 1
vn 3.57628e-007 0 1
vn 3.57628e-007 0 1
vn 3.57628e-007 0 1
vn -0.861328 0 0.507813
vn -0.861328 0 0.507813
vn -0.861328 0 0.507813
vn -0.861328 0 0.507813
vn 0 0.832031 0.554199
vn 0 0.832031 0.554199
vn 0 0.832031 0.554199
vn 0 0.832031 0.554199
vn 0 -0.828125 0.560059
vn 0 -0.828125 0.560059
vn 0 -0.828125 0.560059
vn 0 -0.828125 0.560059

vt 0.910597 0.386394
vt 0.910597 0.411871
vt 0.578346 0.411871
vt 0.578346 0.386394
vt 0.34949 0.811046
vt 0.185123 0.811046
vt 0.185123 0.487293
vt 0.34949 0.487293
vt 0.523618 0.811046
vt 0.359251 0.811046
vt 0.359251 0.487293
vt 0.523618 0.487293
vt 0.910597 0.287188
vt 0.910597 0.312666
vt 0.578346 0.312666
vt 0.578346 0.287188
vt 0.920525 0.475754
vt 0.920525 0.312145
vt 0.944506 0.312145
vt 0.944506 0.475754
vt 0.95329 0.475754
vt 0.95329 0.312145
vt 0.977271 0.312145
vt 0.977271 0.475754
vt 0.896533 0.163755
vt 0.896534 0.140601
vt 0.909288 0.140601
vt 0.909287 0.163756
vt 0.896532 0.18691
vt 0.909285 0.186912
vt 0.896531 0.210065
vt 0.909284 0.210067
vt 0.896531 0.233221
vt 0.909283 0.233221
vt 0.896531 0.255266
vt 0.909284 0.255265
vt 0.896532 0.273819
vt 0.909285 0.273817
vt 0.896534 0.117446
vt 0.896532 0.0958785
vt 0.909285 0.0958765
vt 0.909287 0.117445
vt 0.971809 0.0694645
vt 0.959945 0.0747633
vt 0.959945 0.058046
vt 0.948082 0.0694644
vt 0.942576 0.0580472
vt 0.948082 0.0466298
vt 0.959945 0.0413309
vt 0.971809 0.0466298
vt 0.977314 0.0580471
vt 0.852366 0.276625
vt 0.850887 0.274953
vt 0.850887 0.209229
vt 0.852366 0.207532
vt 0.850887 0.274953
vt 0.823686 0.274953
vt 0.823686 0.209229
vt 0.850887 0.209229
vt 0.823686 0.274953
vt 0.822206 0.276625
vt 0.822206 0.207532
vt 0.823686 0.209229
vt 0.823686 0.274953
vt 0.850887 0.274953
vt 0.852366 0.276625
vt 0.822206 0.276625
vt 0.850887 0.209229
vt 0.823686 0.209229
vt 0.822206 0.207532
vt 0.852366 0.207532
vt 0.852366 0.276625
vt 0.850887 0.274953
vt 0.850887 0.209229
vt 0.852366 0.207532
vt 0.850887 0.274953
vt 0.823686 0.274953
vt 0.823686 0.209229
vt 0.850887 0.209229
vt 0.823686 0.274953
vt 0.822206 0.276625
vt 0.822206 0.207532
vt 0.823686 0.209229
vt 0.823686 0.274953
vt 0.850887 0.274953
vt 0.852366 0.276625
vt 0.822206 0.276625
vt 0.850887 0.209229
vt 0.823686 0.209229
vt 0.822206 0.207532
vt 0.852366 0.207532


#
# MESH 000
#
g surface_000
usemtl surface_000
f 88/88/88 90/90/90 91/91/91
f 88/88/88 89/89/89 90/90/90
f 84/84/84 86/86/86 87/87/87
f 84/84/84 85/85/85 86/86/86
f 80/80/80 82/82/82 83/83/83
f 80/80/80 81/81/81 82/82/82
f 76/76/76 78/78/78 79/79/79
f 76/76/76 77/77/77 78/78/78
f 72/72/72 74/74/74 75/75/75
f 72/72/72 73/73/73 74/74/74
f 68/68/68 70/70/70 71/71/71
f 68/68/68 69/69/69 70/70/70
f 64/64/64 66/66/66 67/67/67
f 64/64/64 65/65/65 66/66/66
f 60/60/60 62/62/62 63/63/63
f 60/60/60 61/61/61 62/62/62
f 56/56/56 58/58/58 59/59/59
f 56/56/56 57/57/57 58/58/58
f 52/52/52 54/54/54 55/55/55
f 52/52/52 53/53/53 54/54/54
f 39/39/39 40/40/40 41/41/41
f 39/39/39 41/41/41 42/42/42
f 26/26/26 39/39/39 42/42/42
f 26/26/26 42/42/42 27/27/27
f 25/25/25 26/26/26 27/27/27
f 25/25/25 27/27/27 28/28/28
f 29/29/29 25/25/25 28/28/28
f 29/29/29 28/28/28 30/30/30
f 31/31/31 29/29/29 30/30/30
f 31/31/31 30/30/30 32/32/32
f 33/33/33 31/31/31 32/32/32
f 33/33/33 32/32/32 34/34/34
f 35/35/35 33/33/33 34/34/34
f 35/35/35 34/34/34 36/36/36
f 37/37/37 35/35/35 36/36/36
f 37/37/37 36/36/36 38/38/38
f 21/21/21 23/23/23 24/24/24
f 21/21/21 22/22/22 23/23/23
f 17/17/17 19/19/19 20/20/20
f 17/17/17 18/18/18 19/19/19
f 13/13/13 15/15/15 16/16/16
f 13/13/13 14/14/14 15/15/15
f 9/9/9 11/11/11 12/12/12
f 9/9/9 10/10/10 11/11/11
f 5/5/5 7/7/7 8/8/8
f 5/5/5 6/6/6 7/7/7
f 1/1/1 3/3/3 4/4/4
f 1/1/1 2/2/2 3/3/3
f 51/51/51 43/43/43 45/45/45
f 43/43/43 44/44/44 45/45/45
f 44/44/44 46/46/46 45/45/45
f 46/46/46 47/47/47 45/45/45
f 47/47/47 48/48/48 45/45/45
f 48/48/48 49/49/49 45/45/45
f 49/49/49 50/50/50 45/45/45
f 50/50/50 51/51/51 45/45/45

