#
# OBJECT NAME
#
o model_2590
mtllib 2590.mtl

#
# VERTEX BUFFER 000
#
v -0.387478 1.6396 -0.499818
v 0.387478 1.6396 -0.499818
v 0.387478 0.112303 -0.499818
v -0.387478 0.112303 -0.499818
v 0.387478 1.63982 -0.387296
v -0.387478 1.63982 -0.387296
v -0.387478 0.112741 -0.387296
v 0.387478 0.112741 -0.387296
v -0.387478 1.6396 0.499732
v -0.5 1.63982 0.499732
v -0.5 0.112741 0.499732
v -0.387478 0.112303 0.499732
v -0.387478 1.6396 -0.499818
v -0.387478 1.6396 0.499732
v -0.387478 0.112303 0.499732
v -0.387478 0.112303 -0.499818
v -0.5 1.63982 -0.499818
v -0.387478 1.6396 -0.499818
v -0.387478 0.112303 -0.499818
v -0.5 0.112741 -0.499818
v -0.5 1.63982 0.499732
v -0.5 1.63982 -0.499818
v -0.5 0.112522 -0.499818
v -0.5 0.112522 0.499732
v 0.5 1.6396 0.499732
v 0.387478 1.63982 0.499732
v 0.387478 0.112741 0.499732
v 0.5 0.112303 0.499732
v 0.387478 1.63982 0.499732
v 0.387478 1.63982 -0.499818
v 0.387478 0.112741 -0.499818
v 0.387478 0.112741 0.499732
v 0.387478 1.63982 -0.499818
v 0.5 1.6396 -0.499818
v 0.5 0.112303 -0.499818
v 0.387478 0.112741 -0.499818
v -0.387478 1.63971 -0.499818
v 0.387478 1.63971 -0.499818
v 0.387478 1.63971 0.499732
v -0.387478 1.63971 0.499732
v 0.387478 0.112522 -0.499818
v -0.387478 0.112522 -0.499818
v -0.387478 0.112522 0.499732
v 0.387478 0.112522 0.499732
v 0.387478 1.6396 0.38721
v 0.387478 1.63982 0.499732
v 0.387478 0.112741 0.499732
v 0.387478 0.112303 0.38721
v -0.387478 1.6396 0.38721
v 0.387478 1.6396 0.38721
v 0.387478 0.112303 0.38721
v -0.387478 0.112303 0.38721
v 0.387478 1.63982 0.499732
v -0.387478 1.63982 0.499732
v -0.387478 0.112741 0.499732
v 0.387478 0.112741 0.499732
v -0.387478 1.63982 0.499732
v -0.387478 1.6396 0.38721
v -0.387478 0.112303 0.38721
v -0.387478 0.112741 0.499732
v -0.387478 1.63982 0.499732
v 0.387478 1.63982 0.499732
v 0.387478 1.6396 0.38721
v -0.387478 1.6396 0.38721
v 0.387478 0.112741 0.499732
v -0.387478 0.112741 0.499732
v -0.387478 0.112303 0.38721
v 0.387478 0.112303 0.38721
v -0.160326 0.876361 0.5382
v -0.178369 0.865944 0.570404
v -0.167215 0.824317 0.570404
v -0.14638 0.824317 0.5382
v -0.198424 0.91446 0.5382
v -0.208842 0.896417 0.570404
v -0.250468 0.928405 0.5382
v -0.250468 0.907571 0.570404
v -0.302512 0.91446 0.5382
v -0.292095 0.896417 0.570404
v -0.340611 0.876361 0.5382
v -0.322568 0.865944 0.570404
v -0.354556 0.824317 0.5382
v -0.333722 0.824317 0.570404
v -0.340611 0.772273 0.5382
v -0.322568 0.782691 0.570404
v -0.302512 0.734175 0.5382
v -0.292095 0.752218 0.570404
v -0.250468 0.720229 0.5382
v -0.250468 0.741064 0.570404
v -0.250468 0.741064 0.570404
v -0.250468 0.720229 0.5382
v -0.198424 0.734175 0.5382
v -0.208842 0.752218 0.570404
v -0.160326 0.772273 0.5382
v -0.178369 0.782691 0.570404
v -0.166572 0.872755 0.499732
v -0.20203 0.908214 0.499732
v -0.250468 0.921193 0.499732
v -0.298906 0.908214 0.499732
v -0.334365 0.872755 0.499732
v -0.347344 0.824317 0.499732
v -0.334365 0.77588 0.499732
v -0.298906 0.740421 0.499732
v -0.250468 0.727442 0.499732
v -0.250468 0.727442 0.499732
v -0.20203 0.740421 0.499732
v -0.166572 0.77588 0.499732
v -0.153593 0.824317 0.499732
v -0.178369 0.865944 0.570404
v -0.208842 0.896417 0.570404
v -0.250468 0.824317 0.570404
v -0.250468 0.907571 0.570404
v -0.292095 0.896417 0.570404
v -0.322568 0.865944 0.570404
v -0.333722 0.824317 0.570404
v -0.322568 0.782691 0.570404
v -0.292095 0.752218 0.570404
v -0.250468 0.741064 0.570404
v -0.208842 0.752218 0.570404
v -0.178369 0.782691 0.570404
v -0.167215 0.824317 0.570404
v 0.387478 1.45254 0.499732
v 0.382724 1.44717 0.507795
v 0.382724 1.23596 0.507795
v 0.387478 1.2305 0.499732
v 0.382724 1.44717 0.507795
v 0.295308 1.44717 0.507795
v 0.295308 1.23596 0.507795
v 0.382724 1.23596 0.507795
v 0.295308 1.44717 0.507795
v 0.290554 1.45254 0.499732
v 0.290554 1.2305 0.499732
v 0.295308 1.23596 0.507795
v 0.295308 1.44717 0.507795
v 0.382724 1.44717 0.507795
v 0.387478 1.45254 0.499732
v 0.290554 1.45254 0.499732
v 0.382724 1.23596 0.507795
v 0.295308 1.23596 0.507795
v 0.290554 1.2305 0.499732
v 0.387478 1.2305 0.499732
v 0.387478 0.596692 0.499732
v 0.382724 0.59132 0.507795
v 0.382724 0.380106 0.507795
v 0.387478 0.374651 0.499732
v 0.382724 0.59132 0.507795
v 0.295308 0.59132 0.507795
v 0.295308 0.380106 0.507795
v 0.382724 0.380106 0.507795
v 0.295308 0.59132 0.507795
v 0.290554 0.596692 0.499732
v 0.290554 0.374651 0.499732
v 0.295308 0.380106 0.507795
v 0.295308 0.59132 0.507795
v 0.382724 0.59132 0.507795
v 0.387478 0.596692 0.499732
v 0.290554 0.596692 0.499732
v 0.382724 0.380106 0.507795
v 0.295308 0.380106 0.507795
v 0.290554 0.374651 0.499732
v 0.387478 0.374651 0.499732
v 0.494332 1.74656 0.499732
v 0.5 1.73288 0.499732
v 0.5 1.73288 -0.499818
v 0.494332 1.74656 -0.499818
v -0.5 1.63971 0.499732
v 0.5 1.63971 0.499732
v 0.5 1.73288 0.499732
v -0.5 1.73288 0.499732
v -0.480648 1.75223 -0.499818
v -0.480648 1.75223 0.499732
v 0.480648 1.75223 0.499732
v 0.480648 1.75223 -0.499818
v -0.5 1.73288 -0.499818
v -0.480648 1.75223 -0.499818
v 0.480648 1.75223 -0.499818
v 0.5 1.73288 -0.499818
v -0.5 1.73288 0.499732
v -0.494332 1.74656 0.499732
v -0.494332 1.74656 -0.499818
v -0.5 1.73288 -0.499818
v -0.494332 1.74656 0.499732
v -0.494332 1.74656 -0.499818
v 0.494332 1.74656 0.499732
v 0.494332 1.74656 -0.499818
v -0.494332 1.74656 0.499732
v -0.480648 1.75223 0.499732
v -0.494332 1.74656 -0.499818
v 0.494332 1.74656 0.499732
v 0.480648 1.75223 0.499732
v 0.494332 1.74656 -0.499818
v 0.5 1.63971 -0.499818
v -0.5 1.63971 -0.499818
v -0.5 1.63971 -0.499818
v -0.5 1.63971 0.499732
v 0.5 1.63971 0.499732
v 0.5 1.63971 -0.499818
v 0.5 0.0193518 0.499732
v 0.494332 0.00566804 0.499732
v 0.494332 0.00566804 -0.499818
v 0.5 0.0193518 -0.499818
v 0.5 0.112522 -0.499818
v 0.5 0.112522 0.499732
v 0.5 0.0193518 0.499732
v -0.5 0.0193518 0.499732
v -0.480648 0 0.499732
v 0.480648 0 0.499732
v 0.480648 0 -0.499818
v 0.480648 0 0.499732
v -0.480648 0 0.499732
v -0.480648 0 -0.499818
v 0.5 0.0193518 -0.499818
v 0.480648 0 -0.499818
v -0.480648 0 -0.499818
v -0.5 0.0193518 -0.499818
v 0.494332 0.00566804 0.499732
v 0.494332 0.00566804 -0.499818
v -0.494332 0.00566804 0.499732
v -0.494332 0.00566804 -0.499818
v -0.494332 0.00566804 0.499732
v -0.5 0.0193518 0.499732
v -0.5 0.0193518 -0.499818
v -0.494332 0.00566804 -0.499818
v 0.494332 0.00566804 0.499732
v 0.494332 0.00566804 -0.499818
v -0.494332 0.00566804 0.499732
v -0.494332 0.00566804 -0.499818
v -0.5 0.112522 -0.499818
v 0.5 0.112522 -0.499818
v 0.5 0.112522 0.499732
v -0.5 0.112522 0.499732
v -0.5 0.112522 -0.499818
v -0.5 0.0193518 -0.499818
v -0.5 0.0193518 0.499732
v -0.5 0.112522 0.499732
v 0.5 1.63971 -0.499818
v 0.5 1.63971 0.499732
v 0.5 0.112522 0.499732
v 0.5 0.112522 -0.499818

vn 0 0 -1
vn 0 0 -1
vn 0 0 -1
vn 0 0 -1
vn 0 0 1
vn 0 0 1
vn 0 0 1
vn 0 0 1
vn 0 0 1
vn 0 0 1
vn 0 0 1
vn 0 0 1
vn 1 0 0
vn 1 0 0
vn 1 0 0
vn 1 0 0
vn 2.98023e-007 0 -1
vn 2.98023e-007 0 -1
vn 2.98023e-007 0 -1
vn 2.98023e-007 0 -1
vn -1 0 0
vn -1 0 0
vn -1 0 0
vn -1 0 0
vn 0 0 1
vn 0 0 1
vn 0 0 1
vn 0 0 1
vn -1 0 0
vn -1 0 0
vn -1 0 0
vn -1 0 0
vn 2.98023e-007 0 -1
vn 2.98023e-007 0 -1
vn 2.98023e-007 0 -1
vn 2.98023e-007 0 -1
vn 0 -1 0
vn 0 -1 0
vn 0 -1 0
vn 0 -1 0
vn 0 1 0
vn 0 1 0
vn 0 1 0
vn 0 1 0
vn 1 0 0
vn 1 0 0
vn 1 0 0
vn 1 0 0
vn 0 0 -1
vn 0 0 -1
vn 0 0 -1
vn 0 0 -1
vn 0 0 1
vn 0 0 1
vn 0 0 1
vn 0 0 1
vn -1 0 0
vn -1 0 0
vn -1 0 0
vn -1 0 0
vn 0 0.999512 -0.00196075
vn 0 0.999512 -0.00196075
vn 0 0.999512 -0.00196075
vn 0 0.999512 -0.00196075
vn 0 -0.999512 0.00388908
vn 0 -0.999512 0.00388908
vn 0 -0.999512 0.00388908
vn 0 -0.999512 0.00388908
vn 0.854004 0.493164 0.163086
vn 0.474609 0.273926 0.835938
vn 0.547852 0 0.835938
vn 0.986328 -1.19209e-007 0.163086
vn 0.493164 0.854004 0.163086
vn 0.273926 0.474609 0.835938
vn 0 0.986328 0.163086
vn 0 0.547852 0.835938
vn -0.493164 0.854004 0.163086
vn -0.273926 0.474609 0.835938
vn -0.854004 0.493164 0.163086
vn -0.474609 0.273926 0.835938
vn -0.986328 1.78814e-007 0.163086
vn -0.547852 0 0.835938
vn -0.854004 -0.493164 0.163086
vn -0.474609 -0.273926 0.835938
vn -0.493164 -0.854004 0.163086
vn -0.273926 -0.474609 0.835938
vn 0 -0.986328 0.163086
vn 0 -0.547852 0.835938
vn 0 -0.547852 0.835938
vn 0 -0.986328 0.163086
vn 0.493164 -0.854004 0.163086
vn 0.273926 -0.474609 0.835938
vn 0.854004 -0.493164 0.163086
vn 0.474609 -0.273926 0.835938
vn 0.851074 0.491211 -0.184204
vn 0.491211 0.851074 -0.184204
vn 0 0.982422 -0.184204
vn -0.491211 0.851074 -0.184204
vn -0.851074 0.491211 -0.184204
vn -0.982422 -1.78814e-007 -0.184204
vn -0.851074 -0.491211 -0.184204
vn -0.491211 -0.851074 -0.184204
vn 0 -0.982422 -0.184204
vn 0 -0.982422 -0.184204
vn 0.491211 -0.851074 -0.184204
vn 0.851074 -0.491211 -0.184204
vn 0.982422 1.19209e-007 -0.184204
vn 0.474609 0.273926 0.835938
vn 0.273926 0.474609 0.835938
vn 0 0 1
vn 0 0.547852 0.835938
vn -0.273926 0.474609 0.835938
vn -0.474609 0.273926 0.835938
vn -0.547852 0 0.835938
vn -0.474609 -0.273926 0.835938
vn -0.273926 -0.474609 0.835938
vn 0 -0.547852 0.835938
vn 0.273926 -0.474609 0.835938
vn 0.474609 -0.273926 0.835938
vn 0.547852 0 0.835938
vn 0.861328 0 0.507813
vn 0.861328 0 0.507813
vn 0.861328 0 0.507813
vn 0.861328 0 0.507813
vn 0 0 1
vn 0 0 1
vn 0 0 1
vn 0 0 1
vn -0.861328 0 0.507813
vn -0.861328 0 0.507813
vn -0.861328 0 0.507813
vn -0.861328 0 0.507813
vn 0 0.832031 0.554199
vn 0 0.832031 0.554199
vn 0 0.832031 0.554199
vn 0 0.832031 0.554199
vn 0 -0.828125 0.560059
vn 0 -0.828125 0.560059
vn 0 -0.828125 0.560059
vn 0 -0.828125 0.560059
vn 0.861328 0 0.507813
vn 0.861328 0 0.507813
vn 0.861328 0 0.507813
vn 0.861328 0 0.507813
vn 0 0 1
vn 0 0 1
vn 0 0 1
vn 0 0 1
vn -0.861328 0 0.507813
vn -0.861328 0 0.507813
vn -0.861328 0 0.507813
vn -0.861328 0 0.507813
vn 0 0.832031 0.554199
vn 0 0.832031 0.554199
vn 0 0.832031 0.554199
vn 0 0.832031 0.554199
vn 0 -0.828125 0.560059
vn 0 -0.828125 0.560059
vn 0 -0.828125 0.560059
vn 0 -0.828125 0.560059
vn 0.923828 0.382568 0
vn 0.998535 0.052948 0
vn 0.998535 0.052948 0
vn 0.923828 0.382568 0
vn 0 0 1
vn 0 0 1
vn 0 0 1
vn 0 0 1
vn -0.00580978 0.999512 0
vn -0.00580978 0.999512 0
vn 0.00580978 0.999512 0
vn 0.00580978 0.999512 0
vn 0 0 -1
vn 0 0 -1
vn 0 0 -1
vn 0 0 -1
vn -0.998535 0.052948 0
vn -0.923828 0.382568 0
vn -0.923828 0.382568 0
vn -0.998535 0.052948 0
vn -0.382568 0.923828 0
vn -0.382568 0.923828 0
vn 0.382568 0.923828 0
vn 0.382568 0.923828 0
vn 2.98023e-006 0 1
vn 0 0 1
vn 0 0 -1
vn -5.96046e-006 0 1
vn 0 0 1
vn 0 0 -1
vn 0 0 -1
vn 0 0 -1
vn -1 0 0
vn -1 0 0
vn 1 0 0
vn 1 0 0
vn 0.998535 -0.052948 0
vn 0.923828 -0.382568 0
vn 0.923828 -0.382568 0
vn 0.998535 -0.052948 0
vn 1 0 0
vn 1 0 0
vn 0 0 1
vn 0 0 1
vn 0 0 1
vn 0 0 1
vn 0.00580978 -0.999512 0
vn 0.00580978 -0.999512 0
vn -0.00580978 -0.999512 0
vn -0.00580978 -0.999512 0
vn 0 0 -1
vn 0 0 -1
vn 0 0 -1
vn 0 0 -1
vn 0.382568 -0.923828 0
vn 0.382568 -0.923828 0
vn -0.382568 -0.923828 0
vn -0.382568 -0.923828 0
vn -0.923828 -0.382568 0
vn -0.923828 -0.382568 0
vn -0.923828 -0.382568 0
vn -0.923828 -0.382568 0
vn -2.98023e-006 0 1
vn 0 0 -1
vn 5.96046e-006 0 1
vn 0 0 -1
vn 0 0 -1
vn 0 0 -1
vn 0 0 1
vn 0 0 1
vn -1 0 0
vn -1 0 0
vn -1 0 0
vn -1 0 0
vn 1 0 0
vn 1 0 0
vn 1 0 0
vn 1 0 0

vt 0.697759 0.811046
vt 0.53338 0.811046
vt 0.53338 0.487293
vt 0.697759 0.487293
vt 0.175361 0.811046
vt 0.0136571 0.811046
vt 0.0136571 0.487293
vt 0.175361 0.487293
vt 0.910597 0.451283
vt 0.910597 0.475754
vt 0.578346 0.475754
vt 0.578346 0.451283
vt 0.872863 0.811046
vt 0.708916 0.811046
vt 0.708916 0.487293
vt 0.872863 0.487293
vt 0.910597 0.354307
vt 0.910597 0.378778
vt 0.578346 0.378778
vt 0.578346 0.354307
vt 0.569196 0.25477
vt 0.569197 0.47225
vt 0.242776 0.47225
vt 0.242776 0.25477
vt 0.910597 0.4187
vt 0.910597 0.443172
vt 0.578346 0.443172
vt 0.578346 0.4187
vt 0.34949 0.822202
vt 0.34949 0.984742
vt 0.0136571 0.984742
vt 0.0136572 0.822202
vt 0.910597 0.322839
vt 0.910597 0.34731
vt 0.578346 0.34731
vt 0.578346 0.322839
vt 0.651468 0.1154
vt 0.813725 0.1154
vt 0.813725 0.277658
vt 0.651468 0.277658
vt 0.534975 0.822485
vt 0.697232 0.822485
vt 0.697232 0.984742
vt 0.534975 0.984742
vt 0.910597 0.386394
vt 0.910597 0.411871
vt 0.578346 0.411871
vt 0.578346 0.386394
vt 0.34949 0.811046
vt 0.185123 0.811046
vt 0.185123 0.487293
vt 0.34949 0.487293
vt 0.523618 0.811046
vt 0.359251 0.811046
vt 0.359251 0.487293
vt 0.523618 0.487293
vt 0.910597 0.287188
vt 0.910597 0.312666
vt 0.578346 0.312666
vt 0.578346 0.287188
vt 0.920525 0.475754
vt 0.920525 0.312145
vt 0.944506 0.312145
vt 0.944506 0.475754
vt 0.95329 0.475754
vt 0.95329 0.312145
vt 0.977271 0.312145
vt 0.977271 0.475754
vt 0.902346 0.156037
vt 0.896534 0.156037
vt 0.896534 0.140601
vt 0.902346 0.140601
vt 0.902345 0.171474
vt 0.896533 0.171473
vt 0.902344 0.186911
vt 0.896532 0.18691
vt 0.902342 0.202348
vt 0.896531 0.202347
vt 0.902342 0.217785
vt 0.896531 0.217784
vt 0.902341 0.233221
vt 0.896531 0.233221
vt 0.902342 0.248658
vt 0.896531 0.248659
vt 0.902342 0.264095
vt 0.896531 0.264096
vt 0.902344 0.272065
vt 0.896532 0.272066
vt 0.896532 0.0942911
vt 0.902344 0.0942899
vt 0.902345 0.109727
vt 0.896533 0.109728
vt 0.902346 0.125164
vt 0.896534 0.125164
vt 0.909287 0.156038
vt 0.909286 0.171475
vt 0.909285 0.186912
vt 0.909284 0.202349
vt 0.909284 0.217785
vt 0.909283 0.233221
vt 0.909284 0.248658
vt 0.909284 0.264094
vt 0.909285 0.272064
vt 0.909285 0.0942892
vt 0.909286 0.109726
vt 0.909287 0.125163
vt 0.909288 0.140601
vt 0.974987 0.0664053
vt 0.96863 0.0725237
vt 0.959945 0.058046
vt 0.959945 0.0747633
vt 0.951261 0.0725237
vt 0.944903 0.0664052
vt 0.942576 0.0580472
vt 0.944903 0.0496891
vt 0.951261 0.0435706
vt 0.959945 0.0413309
vt 0.96863 0.0435706
vt 0.974987 0.0496891
vt 0.977314 0.0580471
vt 0.852366 0.276625
vt 0.850887 0.274953
vt 0.850887 0.209229
vt 0.852366 0.207532
vt 0.850887 0.274953
vt 0.823686 0.274953
vt 0.823686 0.209229
vt 0.850887 0.209229
vt 0.823686 0.274953
vt 0.822206 0.276625
vt 0.822206 0.207532
vt 0.823686 0.209229
vt 0.823686 0.274953
vt 0.850887 0.274953
vt 0.852366 0.276625
vt 0.822206 0.276625
vt 0.850887 0.209229
vt 0.823686 0.209229
vt 0.822206 0.207532
vt 0.852366 0.207532
vt 0.852366 0.276625
vt 0.850887 0.274953
vt 0.850887 0.209229
vt 0.852366 0.207532
vt 0.850887 0.274953
vt 0.823686 0.274953
vt 0.823686 0.209229
vt 0.850887 0.209229
vt 0.823686 0.274953
vt 0.822206 0.276625
vt 0.822206 0.207532
vt 0.823686 0.209229
vt 0.823686 0.274953
vt 0.850887 0.274953
vt 0.852366 0.276625
vt 0.822206 0.276625
vt 0.850887 0.209229
vt 0.823686 0.209229
vt 0.822206 0.207532
vt 0.852366 0.207532
vt 0.939189 0.302952
vt 0.936241 0.302952
vt 0.936241 0.0880601
vt 0.939189 0.0880601
vt 0.92218 0.987674
vt 0.92218 0.746979
vt 0.942252 0.746979
vt 0.942252 0.987674
vt 0.0212213 0.236405
vt 0.0212213 0.0189023
vt 0.224614 0.0189023
vt 0.224614 0.236405
vt 0.977759 0.731128
vt 0.981928 0.72647
vt 0.981928 0.49509
vt 0.977759 0.490432
vt 0.904715 0.492244
vt 0.907664 0.492244
vt 0.907663 0.73294
vt 0.904715 0.73294
vt 0.0182732 0.0189023
vt 0.0182732 0.236405
vt 0.227562 0.0189023
vt 0.227562 0.236405
vt 0.9452 0.98631
vt 0.946422 0.983016
vt 0.980707 0.729763
vt 0.9452 0.748343
vt 0.946422 0.751637
vt 0.980707 0.491797
vt 0.957686 0.490432
vt 0.957686 0.731128
vt 0.886999 0.73294
vt 0.886999 0.492244
vt 0.91937 0.302952
vt 0.919369 0.0880601
vt 0.902982 0.985405
vt 0.907279 0.985406
vt 0.90728 0.74562
vt 0.902982 0.74562
vt 0.886915 0.74562
vt 0.886915 0.985405
vt 0.942252 0.73192
vt 0.942252 0.491224
vt 0.946422 0.495882
vt 0.946422 0.727262
vt 0.0212505 0.470572
vt 0.0212505 0.25513
vt 0.225014 0.25513
vt 0.225014 0.470572
vt 0.977759 0.987674
vt 0.981928 0.983016
vt 0.981928 0.751637
vt 0.977759 0.746979
vt 0.0183024 0.25513
vt 0.0183024 0.470572
vt 0.227962 0.25513
vt 0.227962 0.470572
vt 0.97579 0.303288
vt 0.972842 0.303288
vt 0.972842 0.0878462
vt 0.97579 0.087846
vt 0.945201 0.730556
vt 0.980707 0.98631
vt 0.9452 0.492589
vt 0.980707 0.748343
vt 0.957686 0.746979
vt 0.957686 0.987674
vt 0.92218 0.73192
vt 0.92218 0.491224
vt 0.955261 0.0878462
vt 0.972842 0.0878462
vt 0.972842 0.303288
vt 0.955261 0.303288
vt 0.567998 0.0189024
vt 0.567998 0.236382
vt 0.240759 0.236382
vt 0.240759 0.0189024


#
# MESH 000
#
g surface_000
usemtl surface_000
f 1/1/1 3/3/3 4/4/4
f 1/1/1 2/2/2 3/3/3
f 5/5/5 7/7/7 8/8/8
f 5/5/5 6/6/6 7/7/7
f 17/17/17 19/19/19 20/20/20
f 17/17/17 18/18/18 19/19/19
f 13/13/13 15/15/15 16/16/16
f 13/13/13 14/14/14 15/15/15
f 9/9/9 11/11/11 12/12/12
f 9/9/9 10/10/10 11/11/11
f 21/21/21 23/23/23 24/24/24
f 21/21/21 22/22/22 23/23/23
f 33/33/33 35/35/35 36/36/36
f 33/33/33 34/34/34 35/35/35
f 29/29/29 31/31/31 32/32/32
f 29/29/29 30/30/30 31/31/31
f 25/25/25 27/27/27 28/28/28
f 25/25/25 26/26/26 27/27/27
f 37/37/37 39/39/39 40/40/40
f 37/37/37 38/38/38 39/39/39
f 41/41/41 43/43/43 44/44/44
f 41/41/41 42/42/42 43/43/43
f 157/157/157 159/159/159 160/160/160
f 157/157/157 158/158/158 159/159/159
f 153/153/153 155/155/155 156/156/156
f 153/153/153 154/154/154 155/155/155
f 149/149/149 151/151/151 152/152/152
f 149/149/149 150/150/150 151/151/151
f 145/145/145 147/147/147 148/148/148
f 145/145/145 146/146/146 147/147/147
f 141/141/141 143/143/143 144/144/144
f 141/141/141 142/142/142 143/143/143
f 137/137/137 139/139/139 140/140/140
f 137/137/137 138/138/138 139/139/139
f 133/133/133 135/135/135 136/136/136
f 133/133/133 134/134/134 135/135/135
f 129/129/129 131/131/131 132/132/132
f 129/129/129 130/130/130 131/131/131
f 125/125/125 127/127/127 128/128/128
f 125/125/125 126/126/126 127/127/127
f 121/121/121 123/123/123 124/124/124
f 121/121/121 122/122/122 123/123/123
f 102/102/102 103/103/103 87/87/87
f 102/102/102 87/87/87 85/85/85
f 101/101/101 102/102/102 85/85/85
f 101/101/101 85/85/85 83/83/83
f 100/100/100 101/101/101 83/83/83
f 100/100/100 83/83/83 81/81/81
f 99/99/99 100/100/100 81/81/81
f 86/86/86 85/85/85 87/87/87
f 84/84/84 85/85/85 86/86/86
f 84/84/84 83/83/83 85/85/85
f 82/82/82 83/83/83 84/84/84
f 82/82/82 81/81/81 83/83/83
f 80/80/80 81/81/81 82/82/82
f 80/80/80 79/79/79 81/81/81
f 99/99/99 81/81/81 79/79/79
f 98/98/98 99/99/99 79/79/79
f 86/86/86 87/87/87 88/88/88
f 78/78/78 79/79/79 80/80/80
f 78/78/78 77/77/77 79/79/79
f 98/98/98 79/79/79 77/77/77
f 97/97/97 98/98/98 77/77/77
f 97/97/97 77/77/77 75/75/75
f 96/96/96 97/97/97 75/75/75
f 96/96/96 75/75/75 73/73/73
f 95/95/95 96/96/96 73/73/73
f 76/76/76 77/77/77 78/78/78
f 76/76/76 75/75/75 77/77/77
f 74/74/74 75/75/75 76/76/76
f 74/74/74 73/73/73 75/75/75
f 70/70/70 73/73/73 74/74/74
f 70/70/70 69/69/69 73/73/73
f 95/95/95 73/73/73 69/69/69
f 107/107/107 95/95/95 69/69/69
f 107/107/107 69/69/69 72/72/72
f 106/106/106 107/107/107 72/72/72
f 106/106/106 72/72/72 93/93/93
f 105/105/105 106/106/106 93/93/93
f 69/69/69 70/70/70 71/71/71
f 69/69/69 71/71/71 72/72/72
f 94/94/94 72/72/72 71/71/71
f 94/94/94 93/93/93 72/72/72
f 92/92/92 93/93/93 94/94/94
f 92/92/92 91/91/91 93/93/93
f 105/105/105 93/93/93 91/91/91
f 104/104/104 105/105/105 91/91/91
f 104/104/104 91/91/91 90/90/90
f 89/89/89 90/90/90 91/91/91
f 89/89/89 91/91/91 92/92/92
f 65/65/65 67/67/67 68/68/68
f 65/65/65 66/66/66 67/67/67
f 61/61/61 63/63/63 64/64/64
f 61/61/61 62/62/62 63/63/63
f 57/57/57 59/59/59 60/60/60
f 57/57/57 58/58/58 59/59/59
f 53/53/53 55/55/55 56/56/56
f 53/53/53 54/54/54 55/55/55
f 49/49/49 51/51/51 52/52/52
f 49/49/49 50/50/50 51/51/51
f 45/45/45 47/47/47 48/48/48
f 45/45/45 46/46/46 47/47/47
f 120/120/120 108/108/108 110/110/110
f 108/108/108 109/109/109 110/110/110
f 109/109/109 111/111/111 110/110/110
f 111/111/111 112/112/112 110/110/110
f 112/112/112 113/113/113 110/110/110
f 113/113/113 114/114/114 110/110/110
f 114/114/114 115/115/115 110/110/110
f 115/115/115 116/116/116 110/110/110
f 116/116/116 117/117/117 110/110/110
f 117/117/117 118/118/118 110/110/110
f 118/118/118 119/119/119 110/110/110
f 119/119/119 120/120/120 110/110/110
f 162/162/162 195/195/195 196/196/196
f 162/162/162 196/196/196 163/163/163
f 161/161/161 162/162/162 163/163/163
f 161/161/161 163/163/163 164/164/164
f 180/180/180 193/193/193 194/194/194
f 180/180/180 194/194/194 177/177/177
f 177/177/177 179/179/179 180/180/180
f 177/177/177 178/178/178 179/179/179
f 173/173/173 191/191/191 192/192/192
f 173/173/173 176/176/176 191/191/191
f 173/173/173 175/175/175 176/176/176
f 176/176/176 175/175/175 190/190/190
f 173/173/173 174/174/174 175/175/175
f 173/173/173 187/187/187 174/174/174
f 188/188/188 189/189/189 167/167/167
f 168/168/168 167/167/167 189/189/189
f 165/165/165 167/167/167 168/168/168
f 165/165/165 166/166/166 167/167/167
f 168/168/168 189/189/189 186/186/186
f 185/185/185 168/168/168 186/186/186
f 171/171/171 183/183/183 184/184/184
f 171/171/171 184/184/184 172/172/172
f 169/169/169 171/171/171 172/172/172
f 169/169/169 170/170/170 171/171/171
f 181/181/181 170/170/170 169/169/169
f 181/181/181 169/169/169 182/182/182
f 231/231/231 233/233/233 234/234/234
f 231/231/231 232/232/232 233/233/233
f 229/229/229 230/230/230 204/204/204
f 229/229/229 204/204/204 203/203/203
f 203/203/203 204/204/204 205/205/205
f 203/203/203 205/205/205 206/206/206
f 223/223/223 203/203/203 206/206/206
f 225/225/225 205/205/205 204/204/204
f 211/211/211 227/227/227 228/228/228
f 211/211/211 214/214/214 227/227/227
f 211/211/211 213/213/213 214/214/214
f 214/214/214 213/213/213 226/226/226
f 211/211/211 212/212/212 213/213/213
f 211/211/211 224/224/224 212/212/212
f 219/219/219 221/221/221 222/222/222
f 219/219/219 220/220/220 221/221/221
f 209/209/209 217/217/217 218/218/218
f 209/209/209 218/218/218 210/210/210
f 207/207/207 209/209/209 210/210/210
f 207/207/207 208/208/208 209/209/209
f 215/215/215 208/208/208 207/207/207
f 215/215/215 207/207/207 216/216/216
f 201/201/201 202/202/202 197/197/197
f 201/201/201 197/197/197 200/200/200
f 197/197/197 199/199/199 200/200/200
f 197/197/197 198/198/198 199/199/199
f 235/235/235 237/237/237 238/238/238
f 235/235/235 236/236/236 237/237/237

