#
# OBJECT NAME
#
o model_1516
mtllib 1516.mtl

#
# VERTEX BUFFER 000
#
v 0.418237 0 -0.135893
v 0.355774 0 -0.258485
v 0.355774 0.0477315 -0.258485
v 0.418237 0.0477315 -0.135893
v 0.258485 0 -0.355774
v 0.258485 0.0477315 -0.355774
v 0.135893 0 -0.418237
v 0.135893 0.0477315 -0.418237
v 0 0 -0.439761
v 0 0.0477315 -0.439761
v 0 0 -0.439761
v -0.135893 0 -0.418237
v -0.135893 0.0477315 -0.418237
v 0 0.0477315 -0.439761
v -0.258485 0 -0.355774
v -0.258485 0.0477315 -0.355774
v -0.355774 0 -0.258485
v -0.355774 0.0477315 -0.258485
v -0.418237 0 -0.135893
v -0.418237 0.0477315 -0.135893
v -0.43976 0 0
v -0.43976 0.0477315 0
v -0.418237 0 0.135893
v -0.418237 0.0477315 0.135893
v -0.355774 0 0.258485
v -0.355774 0.0477315 0.258485
v -0.258485 0 0.355774
v -0.258485 0.0477315 0.355774
v -0.135893 0 0.418237
v -0.135893 0.0477315 0.418237
v 0 0 0.43976
v 0 0.0477315 0.43976
v 0.135893 0 0.418237
v 0.135893 0.0477315 0.418237
v 0.258485 0 0.355774
v 0.258485 0.0477315 0.355774
v 0.355774 0 0.258485
v 0.355774 0.0477315 0.258485
v 0.418237 0 0.135893
v 0.418237 0.0477315 0.135893
v 0.43976 0 0
v 0.43976 0.0477315 0
v 0.418237 0 -0.135893
v 0.418237 0.0477315 -0.135893
v 0.355774 0 -0.258485
v 0.418237 0 -0.135893
v 0 0 0
v 0.258485 0 -0.355774
v 0.135893 0 -0.418237
v 0 0 -0.439761
v -0.135893 0 -0.418237
v -0.258485 0 -0.355774
v -0.355774 0 -0.258485
v -0.418237 0 -0.135893
v -0.43976 0 0
v -0.418237 0 0.135893
v -0.355774 0 0.258485
v -0.258485 0 0.355774
v -0.135893 0 0.418237
v 0 0 0.43976
v 0.135893 0 0.418237
v 0.258485 0 0.355774
v 0.355774 0 0.258485
v 0.418237 0 0.135893
v 0.43976 0 0
v 0.418237 0.0477315 -0.135893
v 0.355774 0.0477315 -0.258485
v 0 0.0477315 0
v 0.258485 0.0477315 -0.355774
v 0.135893 0.0477315 -0.418237
v 0 0.0477315 -0.439761
v -0.135893 0.0477315 -0.418237
v -0.258485 0.0477315 -0.355774
v -0.355774 0.0477315 -0.258485
v -0.418237 0.0477315 -0.135893
v -0.43976 0.0477315 0
v -0.418237 0.0477315 0.135893
v -0.355774 0.0477315 0.258485
v -0.258485 0.0477315 0.355774
v -0.135893 0.0477315 0.418237
v 0 0.0477315 0.43976
v 0.135893 0.0477315 0.418237
v 0.258485 0.0477315 0.355774
v 0.355774 0.0477315 0.258485
v 0.418237 0.0477315 0.135893
v 0.43976 0.0477315 0
v 0.371625 0.045941 -0.120749
v 0.316123 0.045941 -0.229677
v 0.275804 0.23812 -0.200383
v 0.324226 0.23812 -0.105348
v 0.229677 0.045941 -0.316124
v 0.200383 0.23812 -0.275804
v 0.120748 0.045941 -0.371625
v 0.105347 0.23812 -0.324227
v 0 0.045941 -0.39075
v 0 0.23812 -0.340912
v 0 0.045941 -0.39075
v -0.120748 0.045941 -0.371625
v -0.105348 0.23812 -0.324227
v 0 0.23812 -0.340912
v -0.229677 0.045941 -0.316124
v -0.200383 0.23812 -0.275804
v -0.316123 0.045941 -0.229677
v -0.275804 0.23812 -0.200383
v -0.371625 0.045941 -0.120749
v -0.324227 0.23812 -0.105348
v -0.39075 0.045941 -1.5715e-007
v -0.340912 0.23812 -1.67516e-007
v -0.371625 0.045941 0.120748
v -0.324227 0.23812 0.105347
v -0.316123 0.045941 0.229677
v -0.275804 0.23812 0.200383
v -0.229677 0.045941 0.316123
v -0.200383 0.23812 0.275803
v -0.120748 0.045941 0.371625
v -0.105348 0.23812 0.324226
v 0 0.045941 0.39075
v -1.09596e-007 0.23812 0.340912
v 0.120748 0.045941 0.371625
v 0.105347 0.23812 0.324226
v 0.229677 0.045941 0.316123
v 0.200383 0.23812 0.275803
v 0.316123 0.045941 0.229677
v 0.275803 0.23812 0.200383
v 0.371625 0.045941 0.120748
v 0.324226 0.23812 0.105347
v 0.39075 0.045941 -1.5715e-007
v 0.340912 0.23812 -1.67516e-007
v 0.324226 0.23812 -0.105348
v 0.275804 0.23812 -0.200383
v 0.232384 0.23812 -0.168837
v 0.273183 0.23812 -0.0887629
v 0.200383 0.23812 -0.275804
v 0.168837 0.23812 -0.232384
v 0.105347 0.23812 -0.324227
v 0.0887626 0.23812 -0.273184
v 0.168837 0.23812 -0.232384
v 0 0.23812 -0.340912
v -1.07191e-007 0.23812 -0.287242
v -0.105348 0.23812 -0.324227
v -0.0887628 0.23812 -0.273184
v -0.200383 0.23812 -0.275804
v -0.168837 0.23812 -0.232384
v -0.275804 0.23812 -0.200383
v -0.232384 0.23812 -0.168837
v -0.324227 0.23812 -0.105348
v -0.273184 0.23812 -0.0887629
v -0.340912 0.23812 -1.67516e-007
v -0.287242 0.23812 -1.66439e-007
v -0.324227 0.23812 0.105347
v -0.273184 0.23812 0.0887625
v -0.275804 0.23812 0.200383
v -0.232384 0.23812 0.168837
v -0.200383 0.23812 0.275803
v -0.168837 0.23812 0.232384
v -0.105348 0.23812 0.324226
v -0.0887628 0.23812 0.273183
v -0.168837 0.23812 0.232384
v -1.09596e-007 0.23812 0.340912
v -1.15752e-007 0.23812 0.287242
v 0.105347 0.23812 0.324226
v 0.0887626 0.23812 0.273183
v 0.200383 0.23812 0.275803
v 0.168837 0.23812 0.232384
v 0.275803 0.23812 0.200383
v 0.232384 0.23812 0.168837
v 0.324226 0.23812 0.105347
v 0.273183 0.23812 0.0887625
v 0.340912 0.23812 -1.67516e-007
v 0.287242 0.23812 -1.66439e-007
v 0.273183 0.23812 -0.0887629
v 0.232384 0.23812 -0.168837
v 0.204344 0.0408108 -0.148465
v 0.240221 0.0408108 -0.0780527
v 0.168837 0.23812 -0.232384
v 0.148465 0.0408108 -0.204344
v 0.0887626 0.23812 -0.273184
v 0.0780524 0.0408108 -0.240221
v -1.07191e-007 0.23812 -0.287242
v -1.26083e-007 0.0408108 -0.252583
v -1.07191e-007 0.23812 -0.287242
v -0.0887628 0.23812 -0.273184
v -0.0780526 0.0408108 -0.240221
v -1.26083e-007 0.0408108 -0.252583
v -0.168837 0.23812 -0.232384
v -0.148465 0.0408108 -0.204344
v -0.232384 0.23812 -0.168837
v -0.204344 0.0408108 -0.148465
v -0.273184 0.23812 -0.0887629
v -0.240221 0.0408108 -0.0780524
v -0.287242 0.23812 -1.66439e-007
v -0.252583 0.0408108 -1.63291e-007
v -0.273184 0.23812 0.0887625
v -0.240221 0.0408108 0.0780519
v -0.232384 0.23812 0.168837
v -0.204344 0.0408108 0.148464
v -0.168837 0.23812 0.232384
v -0.148465 0.0408108 0.204344
v -0.0887628 0.23812 0.273183
v -0.0780526 0.0408108 0.240221
v -1.15752e-007 0.23812 0.287242
v -1.33611e-007 0.0408108 0.252583
v 0.0887626 0.23812 0.273183
v 0.0780523 0.0408108 0.240221
v 0.168837 0.23812 0.232384
v 0.148465 0.0408108 0.204344
v 0.232384 0.23812 0.168837
v 0.204344 0.0408108 0.148464
v 0.273183 0.23812 0.0887625
v 0.240221 0.0408108 0.0780523
v 0.287242 0.23812 -1.66439e-007
v 0.252583 0.0408108 -5.70379e-007

vn 0.950684 0 -0.308838
vn 0.808594 0 -0.587402
vn 0.808594 0 -0.587402
vn 0.950684 0 -0.308838
vn 0.587402 0 -0.808594
vn 0.587402 0 -0.808594
vn 0.308838 0 -0.950684
vn 0.308838 0 -0.950684
vn 4.17233e-007 0 -1
vn 4.17233e-007 0 -1
vn 4.17233e-007 0 -1
vn -0.308838 0 -0.950684
vn -0.308838 0 -0.950684
vn 4.17233e-007 0 -1
vn -0.587402 0 -0.808594
vn -0.587402 0 -0.808594
vn -0.808594 0 -0.587402
vn -0.808594 0 -0.587402
vn -0.950684 0 -0.308838
vn -0.950684 0 -0.308838
vn -1 0 0
vn -1 0 0
vn -0.950684 0 0.308838
vn -0.950684 0 0.308838
vn -0.808594 0 0.587402
vn -0.808594 0 0.587402
vn -0.587402 0 0.808594
vn -0.587402 0 0.808594
vn -0.308838 0 0.950684
vn -0.308838 0 0.950684
vn 0 0 1
vn 0 0 1
vn 0.308838 0 0.950684
vn 0.308838 0 0.950684
vn 0.587402 0 0.808594
vn 0.587402 0 0.808594
vn 0.808594 0 0.587402
vn 0.808594 0 0.587402
vn 0.950684 0 0.308838
vn 0.950684 0 0.308838
vn 1 0 8.34465e-007
vn 1 0 8.34465e-007
vn 0.950684 0 -0.308838
vn 0.950684 0 -0.308838
vn 0 -1 0
vn 0 -1 0
vn 0 -1 0
vn 0 -1 0
vn 0 -1 0
vn 0 -1 0
vn 0 -1 0
vn 0 -1 0
vn 0 -1 0
vn 0 -1 0
vn 0 -1 0
vn 0 -1 0
vn 0 -1 0
vn 0 -1 0
vn 0 -1 0
vn 0 -1 0
vn 0 -1 0
vn 0 -1 0
vn 0 -1 0
vn 0 -1 0
vn 0 -1 0
vn 0 1 0
vn 0 1 0
vn 0 1 0
vn 0 1 0
vn 0 1 0
vn 0 1 0
vn 0 1 0
vn 0 1 0
vn 0 1 0
vn 0 1 0
vn 0 1 0
vn 0 1 0
vn 0 1 0
vn 0 1 0
vn 0 1 0
vn 0 1 0
vn 0 1 0
vn 0 1 0
vn 0 1 0
vn 0 1 0
vn 0 1 0
vn 0.92041 0.250977 -0.299072
vn 0.782715 0.250977 -0.568848
vn 0.782715 0.250977 -0.568848
vn 0.92041 0.250977 -0.299072
vn 0.568848 0.250977 -0.782715
vn 0.568848 0.250977 -0.782715
vn 0.299072 0.250977 -0.92041
vn 0.299072 0.250977 -0.92041
vn 0 0.250977 -0.967773
vn 0 0.250977 -0.967773
vn 0 0.250977 -0.967773
vn -0.299072 0.250977 -0.92041
vn -0.299072 0.250977 -0.92041
vn 0 0.250977 -0.967773
vn -0.568848 0.250977 -0.782715
vn -0.568848 0.250977 -0.782715
vn -0.782715 0.250977 -0.568848
vn -0.782715 0.250977 -0.568848
vn -0.92041 0.250977 -0.299072
vn -0.92041 0.250977 -0.299072
vn -0.967773 0.250977 0
vn -0.967773 0.250977 0
vn -0.92041 0.250977 0.299072
vn -0.92041 0.250977 0.299072
vn -0.782715 0.250977 0.568848
vn -0.782715 0.250977 0.568848
vn -0.568848 0.250977 0.782715
vn -0.568848 0.250977 0.782715
vn -0.299072 0.250977 0.92041
vn -0.299072 0.250977 0.92041
vn 2.98023e-007 0.250977 0.967773
vn 2.98023e-007 0.250977 0.967773
vn 0.299072 0.250977 0.92041
vn 0.299072 0.250977 0.92041
vn 0.568848 0.250977 0.782715
vn 0.568848 0.250977 0.782715
vn 0.782715 0.250977 0.568848
vn 0.782715 0.250977 0.568848
vn 0.92041 0.250977 0.299072
vn 0.92041 0.250977 0.299072
vn 0.967773 0.250977 9.53674e-007
vn 0.967773 0.250977 9.53674e-007
vn 0 1 0
vn 0 1 0
vn 0 1 0
vn 0 1 0
vn 0 1 0
vn 0 1 0
vn 0 1 0
vn 0 1 0
vn 0 1 0
vn 0 1 0
vn 0 1 0
vn 0 1 0
vn 0 1 0
vn 0 1 0
vn 0 1 0
vn 0 1 0
vn 0 1 0
vn 0 1 0
vn 0 1 0
vn 0 1 0
vn 0 1 0
vn 0 1 0
vn 0 1 0
vn 0 1 0
vn 0 1 0
vn 0 1 0
vn 0 1 0
vn 0 1 -1.78814e-007
vn 0 1 -1.78814e-007
vn 0 1 -1.78814e-007
vn 0 1 0
vn 0 1 0
vn 0 1 0
vn 0 1 0
vn 0 1 0
vn 0 1 0
vn 0 1 0
vn 0 1 0
vn 0 1 0
vn 0 1 0
vn 0 1 -1.78814e-007
vn 0 1 -1.78814e-007
vn -0.936523 0.172974 0.304199
vn -0.796387 0.172974 0.578613
vn -0.796387 0.172974 0.578613
vn -0.936523 0.172974 0.304199
vn -0.578613 0.172974 0.796387
vn -0.578613 0.172974 0.796387
vn -0.304199 0.172974 0.936523
vn -0.304199 0.172974 0.936523
vn 0 0.172974 0.984863
vn 0 0.172974 0.984863
vn 0 0.172974 0.984863
vn 0.304199 0.172974 0.936523
vn 0.304199 0.172974 0.936523
vn 0 0.172974 0.984863
vn 0.578613 0.172974 0.796387
vn 0.578613 0.172974 0.796387
vn 0.796387 0.172974 0.578613
vn 0.796387 0.172974 0.578613
vn 0.936523 0.172974 0.304199
vn 0.936523 0.172974 0.304199
vn 0.984863 0.172974 0
vn 0.984863 0.172974 0
vn 0.936523 0.172974 -0.304199
vn 0.936523 0.172974 -0.304199
vn 0.796387 0.172974 -0.578613
vn 0.796387 0.172974 -0.578613
vn 0.578613 0.172974 -0.796387
vn 0.578613 0.172974 -0.796387
vn 0.304199 0.172974 -0.936523
vn 0.304199 0.172974 -0.936523
vn 0 0.172974 -0.984863
vn 0 0.172974 -0.984863
vn -0.304199 0.172974 -0.936523
vn -0.304199 0.172974 -0.936523
vn -0.578613 0.172974 -0.796387
vn -0.578613 0.172974 -0.796387
vn -0.796387 0.172974 -0.578613
vn -0.796387 0.172974 -0.578613
vn -0.936523 0.172974 -0.304199
vn -0.936523 0.172974 -0.304199
vn -0.984863 0.172974 -9.53674e-007
vn -0.984863 0.172974 -5.96046e-007

vt 0.787011 0.0220897
vt 0.829365 0.022058
vt 0.829365 0.0498042
vt 0.787011 0.0498277
vt 0.878722 0.0220479
vt 0.878722 0.0497967
vt 0.926357 0.0220464
vt 0.926357 0.0497956
vt 0.973942 0.0220464
vt 0.973942 0.0497956
vt 0.0290514 0.0220464
vt 0.0766369 0.0220464
vt 0.0766369 0.0497956
vt 0.0290514 0.0497956
vt 0.124223 0.0220464
vt 0.124223 0.0497956
vt 0.171808 0.0220464
vt 0.171808 0.0497956
vt 0.219394 0.0220464
vt 0.219394 0.0497956
vt 0.266979 0.0220464
vt 0.266979 0.0497956
vt 0.314565 0.0220464
vt 0.314565 0.0497956
vt 0.362151 0.0220464
vt 0.362151 0.0497956
vt 0.409736 0.0220464
vt 0.409736 0.0497956
vt 0.457322 0.0220464
vt 0.457322 0.0497956
vt 0.504908 0.0220464
vt 0.504908 0.0497956
vt 0.552493 0.0220464
vt 0.552493 0.0497956
vt 0.600079 0.0220464
vt 0.600079 0.0497956
vt 0.647665 0.0220464
vt 0.647665 0.0497956
vt 0.695299 0.0220479
vt 0.695299 0.0497967
vt 0.744657 0.022058
vt 0.744657 0.0498041
vt 0.78701 0.0220897
vt 0.78701 0.0498277
vt 0.325158 0.582419
vt 0.343151 0.653301
vt 0.222674 0.731572
vt 0.297132 0.526166
vt 0.261819 0.49005
vt 0.222674 0.477605
vt 0.183528 0.49005
vt 0.148215 0.526166
vt 0.12019 0.582419
vt 0.102197 0.653301
vt 0.0959967 0.731875
vt 0.102197 0.810449
vt 0.12019 0.881331
vt 0.148215 0.937584
vt 0.183528 0.973701
vt 0.222674 0.986145
vt 0.261819 0.973701
vt 0.297132 0.937584
vt 0.325158 0.881331
vt 0.343151 0.810449
vt 0.349351 0.731875
vt 0.633676 0.810752
vt 0.615683 0.881635
vt 0.513199 0.731875
vt 0.587658 0.937887
vt 0.552345 0.974004
vt 0.513199 0.986449
vt 0.474054 0.974004
vt 0.438741 0.937887
vt 0.410716 0.881635
vt 0.392722 0.810752
vt 0.386523 0.732178
vt 0.392722 0.653605
vt 0.410716 0.582722
vt 0.438741 0.526469
vt 0.474054 0.490353
vt 0.513199 0.477908
vt 0.552345 0.490353
vt 0.587658 0.526469
vt 0.615683 0.582722
vt 0.633676 0.653605
vt 0.639876 0.732178
vt 0.781551 0.0801272
vt 0.828448 0.0801272
vt 0.828448 0.259662
vt 0.781551 0.259662
vt 0.875345 0.0801272
vt 0.875345 0.259662
vt 0.922243 0.0801272
vt 0.922243 0.259662
vt 0.96914 0.0801272
vt 0.96914 0.259662
vt 0.0311911 0.0801272
vt 0.0780884 0.0801272
vt 0.0780884 0.259662
vt 0.0311911 0.259662
vt 0.124986 0.0801272
vt 0.124986 0.259662
vt 0.171883 0.0801272
vt 0.171883 0.259662
vt 0.218781 0.0801272
vt 0.218781 0.259662
vt 0.265678 0.0801272
vt 0.265678 0.259662
vt 0.312576 0.0801272
vt 0.312576 0.259662
vt 0.359473 0.0801272
vt 0.359473 0.259662
vt 0.406371 0.0801272
vt 0.406371 0.259662
vt 0.453268 0.0801272
vt 0.453268 0.259662
vt 0.500166 0.0801272
vt 0.500166 0.259662
vt 0.547063 0.0801272
vt 0.547063 0.259662
vt 0.593961 0.0801272
vt 0.593961 0.259662
vt 0.640858 0.0801272
vt 0.640858 0.259662
vt 0.687755 0.0801272
vt 0.687755 0.259662
vt 0.734653 0.0801272
vt 0.734653 0.259662
vt 0.910318 0.806912
vt 0.893425 0.873459
vt 0.878278 0.851369
vt 0.892511 0.795298
vt 0.867114 0.926272
vt 0.856109 0.895867
vt 0.83396 0.960179
vt 0.828174 0.924437
vt 0.856109 0.895867
vt 0.797209 0.971863
vt 0.797209 0.934281
vt 0.760457 0.960179
vt 0.766243 0.924437
vt 0.727303 0.926272
vt 0.738309 0.895867
vt 0.700992 0.873459
vt 0.71614 0.851369
vt 0.6841 0.806911
vt 0.701906 0.795298
vt 0.678279 0.733143
vt 0.697002 0.733143
vt 0.6841 0.659374
vt 0.701906 0.670988
vt 0.700992 0.592827
vt 0.71614 0.614917
vt 0.727303 0.540015
vt 0.738309 0.570419
vt 0.760457 0.506107
vt 0.766243 0.541849
vt 0.738309 0.570419
vt 0.797209 0.494423
vt 0.797209 0.532005
vt 0.83396 0.506107
vt 0.828174 0.541849
vt 0.867114 0.540015
vt 0.856109 0.570419
vt 0.893425 0.592827
vt 0.878278 0.614917
vt 0.910318 0.659374
vt 0.892511 0.670988
vt 0.916139 0.733143
vt 0.897415 0.733143
vt 0.750337 0.451279
vt 0.792286 0.451279
vt 0.792285 0.286406
vt 0.750338 0.286406
vt 0.834234 0.451279
vt 0.834234 0.286406
vt 0.876181 0.451279
vt 0.876181 0.286406
vt 0.918129 0.451279
vt 0.918129 0.286406
vt 0.0791718 0.451279
vt 0.12112 0.451279
vt 0.12112 0.286406
vt 0.0791718 0.286406
vt 0.163068 0.451279
vt 0.163068 0.286406
vt 0.205015 0.451279
vt 0.205016 0.286406
vt 0.246963 0.451279
vt 0.246964 0.286406
vt 0.288911 0.451279
vt 0.288911 0.286406
vt 0.330859 0.451279
vt 0.330859 0.286406
vt 0.372807 0.451279
vt 0.372807 0.286406
vt 0.414755 0.451279
vt 0.414755 0.286406
vt 0.456703 0.451279
vt 0.456702 0.286406
vt 0.49865 0.451279
vt 0.49865 0.286406
vt 0.540599 0.451279
vt 0.540599 0.286406
vt 0.582546 0.451279
vt 0.582546 0.286406
vt 0.624494 0.451279
vt 0.624494 0.286406
vt 0.666442 0.451279
vt 0.666442 0.286406
vt 0.70839 0.451279
vt 0.70839 0.286406


#
# MESH 000
#
g surface_000
usemtl surface_000
f 41/41/41 43/43/43 44/44/44
f 41/41/41 44/44/44 42/42/42
f 39/39/39 41/41/41 42/42/42
f 39/39/39 42/42/42 40/40/40
f 37/37/37 39/39/39 40/40/40
f 37/37/37 40/40/40 38/38/38
f 35/35/35 37/37/37 38/38/38
f 35/35/35 38/38/38 36/36/36
f 33/33/33 35/35/35 36/36/36
f 33/33/33 36/36/36 34/34/34
f 31/31/31 33/33/33 34/34/34
f 31/31/31 34/34/34 32/32/32
f 29/29/29 31/31/31 32/32/32
f 29/29/29 32/32/32 30/30/30
f 27/27/27 29/29/29 30/30/30
f 27/27/27 30/30/30 28/28/28
f 25/25/25 27/27/27 28/28/28
f 25/25/25 28/28/28 26/26/26
f 23/23/23 25/25/25 26/26/26
f 23/23/23 26/26/26 24/24/24
f 21/21/21 23/23/23 24/24/24
f 21/21/21 24/24/24 22/22/22
f 19/19/19 21/21/21 22/22/22
f 19/19/19 22/22/22 20/20/20
f 17/17/17 19/19/19 20/20/20
f 17/17/17 20/20/20 18/18/18
f 15/15/15 17/17/17 18/18/18
f 15/15/15 18/18/18 16/16/16
f 12/12/12 15/15/15 16/16/16
f 12/12/12 16/16/16 13/13/13
f 11/11/11 12/12/12 13/13/13
f 11/11/11 13/13/13 14/14/14
f 7/7/7 9/9/9 10/10/10
f 7/7/7 10/10/10 8/8/8
f 5/5/5 7/7/7 8/8/8
f 5/5/5 8/8/8 6/6/6
f 2/2/2 5/5/5 6/6/6
f 2/2/2 6/6/6 3/3/3
f 1/1/1 2/2/2 3/3/3
f 1/1/1 3/3/3 4/4/4
f 86/86/86 66/66/66 68/68/68
f 66/66/66 67/67/67 68/68/68
f 67/67/67 69/69/69 68/68/68
f 69/69/69 70/70/70 68/68/68
f 70/70/70 71/71/71 68/68/68
f 71/71/71 72/72/72 68/68/68
f 72/72/72 73/73/73 68/68/68
f 73/73/73 74/74/74 68/68/68
f 74/74/74 75/75/75 68/68/68
f 75/75/75 76/76/76 68/68/68
f 76/76/76 77/77/77 68/68/68
f 77/77/77 78/78/78 68/68/68
f 78/78/78 79/79/79 68/68/68
f 79/79/79 80/80/80 68/68/68
f 80/80/80 81/81/81 68/68/68
f 81/81/81 82/82/82 68/68/68
f 82/82/82 83/83/83 68/68/68
f 83/83/83 84/84/84 68/68/68
f 84/84/84 85/85/85 68/68/68
f 85/85/85 86/86/86 68/68/68
f 46/46/46 65/65/65 47/47/47
f 65/65/65 64/64/64 47/47/47
f 64/64/64 63/63/63 47/47/47
f 63/63/63 62/62/62 47/47/47
f 62/62/62 61/61/61 47/47/47
f 61/61/61 60/60/60 47/47/47
f 60/60/60 59/59/59 47/47/47
f 59/59/59 58/58/58 47/47/47
f 58/58/58 57/57/57 47/47/47
f 57/57/57 56/56/56 47/47/47
f 56/56/56 55/55/55 47/47/47
f 55/55/55 54/54/54 47/47/47
f 54/54/54 53/53/53 47/47/47
f 53/53/53 52/52/52 47/47/47
f 52/52/52 51/51/51 47/47/47
f 51/51/51 50/50/50 47/47/47
f 50/50/50 49/49/49 47/47/47
f 49/49/49 48/48/48 47/47/47
f 48/48/48 45/45/45 47/47/47
f 45/45/45 46/46/46 47/47/47
f 181/181/181 183/183/183 184/184/184
f 181/181/181 182/182/182 183/183/183
f 182/182/182 186/186/186 183/183/183
f 182/182/182 185/185/185 186/186/186
f 185/185/185 188/188/188 186/186/186
f 185/185/185 187/187/187 188/188/188
f 187/187/187 190/190/190 188/188/188
f 187/187/187 189/189/189 190/190/190
f 189/189/189 192/192/192 190/190/190
f 189/189/189 191/191/191 192/192/192
f 191/191/191 194/194/194 192/192/192
f 191/191/191 193/193/193 194/194/194
f 193/193/193 196/196/196 194/194/194
f 193/193/193 195/195/195 196/196/196
f 195/195/195 198/198/198 196/196/196
f 195/195/195 197/197/197 198/198/198
f 197/197/197 200/200/200 198/198/198
f 197/197/197 199/199/199 200/200/200
f 199/199/199 202/202/202 200/200/200
f 199/199/199 201/201/201 202/202/202
f 201/201/201 204/204/204 202/202/202
f 201/201/201 203/203/203 204/204/204
f 203/203/203 206/206/206 204/204/204
f 203/203/203 205/205/205 206/206/206
f 205/205/205 208/208/208 206/206/206
f 205/205/205 207/207/207 208/208/208
f 207/207/207 210/210/210 208/208/208
f 207/207/207 209/209/209 210/210/210
f 209/209/209 212/212/212 210/210/210
f 209/209/209 211/211/211 212/212/212
f 211/211/211 174/174/174 212/212/212
f 211/211/211 171/171/171 174/174/174
f 171/171/171 173/173/173 174/174/174
f 171/171/171 172/172/172 173/173/173
f 172/172/172 176/176/176 173/173/173
f 172/172/172 175/175/175 176/176/176
f 175/175/175 178/178/178 176/176/176
f 175/175/175 177/177/177 178/178/178
f 177/177/177 180/180/180 178/178/178
f 177/177/177 179/179/179 180/180/180
f 154/154/154 157/157/157 158/158/158
f 154/154/154 156/156/156 157/157/157
f 156/156/156 160/160/160 157/157/157
f 156/156/156 159/159/159 160/160/160
f 159/159/159 162/162/162 160/160/160
f 159/159/159 161/161/161 162/162/162
f 161/161/161 164/164/164 162/162/162
f 161/161/161 163/163/163 164/164/164
f 163/163/163 166/166/166 164/164/164
f 163/163/163 165/165/165 166/166/166
f 165/165/165 168/168/168 166/166/166
f 165/165/165 167/167/167 168/168/168
f 167/167/167 170/170/170 168/168/168
f 167/167/167 169/169/169 170/170/170
f 169/169/169 132/132/132 170/170/170
f 169/169/169 129/129/129 132/132/132
f 129/129/129 131/131/131 132/132/132
f 129/129/129 130/130/130 131/131/131
f 130/130/130 134/134/134 131/131/131
f 130/130/130 133/133/133 134/134/134
f 152/152/152 154/154/154 155/155/155
f 152/152/152 155/155/155 153/153/153
f 150/150/150 152/152/152 153/153/153
f 150/150/150 153/153/153 151/151/151
f 148/148/148 150/150/150 151/151/151
f 148/148/148 151/151/151 149/149/149
f 146/146/146 148/148/148 149/149/149
f 146/146/146 149/149/149 147/147/147
f 144/144/144 146/146/146 147/147/147
f 144/144/144 147/147/147 145/145/145
f 142/142/142 144/144/144 145/145/145
f 142/142/142 145/145/145 143/143/143
f 140/140/140 142/142/142 143/143/143
f 140/140/140 143/143/143 141/141/141
f 138/138/138 140/140/140 141/141/141
f 138/138/138 141/141/141 139/139/139
f 135/135/135 138/138/138 139/139/139
f 135/135/135 139/139/139 136/136/136
f 133/133/133 135/135/135 136/136/136
f 133/133/133 136/136/136 137/137/137
f 97/97/97 99/99/99 100/100/100
f 97/97/97 98/98/98 99/99/99
f 98/98/98 102/102/102 99/99/99
f 98/98/98 101/101/101 102/102/102
f 101/101/101 104/104/104 102/102/102
f 101/101/101 103/103/103 104/104/104
f 103/103/103 106/106/106 104/104/104
f 103/103/103 105/105/105 106/106/106
f 105/105/105 108/108/108 106/106/106
f 105/105/105 107/107/107 108/108/108
f 107/107/107 110/110/110 108/108/108
f 107/107/107 109/109/109 110/110/110
f 109/109/109 112/112/112 110/110/110
f 109/109/109 111/111/111 112/112/112
f 111/111/111 114/114/114 112/112/112
f 111/111/111 113/113/113 114/114/114
f 113/113/113 116/116/116 114/114/114
f 113/113/113 115/115/115 116/116/116
f 115/115/115 118/118/118 116/116/116
f 115/115/115 117/117/117 118/118/118
f 117/117/117 120/120/120 118/118/118
f 117/117/117 119/119/119 120/120/120
f 119/119/119 122/122/122 120/120/120
f 119/119/119 121/121/121 122/122/122
f 121/121/121 124/124/124 122/122/122
f 121/121/121 123/123/123 124/124/124
f 123/123/123 126/126/126 124/124/124
f 123/123/123 125/125/125 126/126/126
f 125/125/125 128/128/128 126/126/126
f 125/125/125 127/127/127 128/128/128
f 127/127/127 90/90/90 128/128/128
f 127/127/127 87/87/87 90/90/90
f 87/87/87 89/89/89 90/90/90
f 87/87/87 88/88/88 89/89/89
f 88/88/88 92/92/92 89/89/89
f 88/88/88 91/91/91 92/92/92
f 91/91/91 94/94/94 92/92/92
f 91/91/91 93/93/93 94/94/94
f 93/93/93 96/96/96 94/94/94
f 93/93/93 95/95/95 96/96/96

