#
# OBJECT NAME
#
o model_4775
mtllib 4775.mtl

#
# VERTEX BUFFER 000
#
v -0.148915 -0.543279 -0.549495
v -0.0966992 -0.601127 -0.501084
v -0.0799172 0.362041 0.631711
v -0.133107 0.363992 0.517557
v -0.0132767 -0.623138 -0.483604
v 0.00387727 0.361379 0.674299
v 0.0694896 -0.60091 -0.50373
v 0.0862715 0.362258 0.629064
v 0.119987 -0.542929 -0.553777
v 0.135795 0.364341 0.513276
v 0.118926 -0.471345 -0.614626
v 0.13353 0.366835 0.371168
v 0.0667095 -0.413497 -0.663038
v 0.0803397 0.368785 0.257015
v -0.016713 -0.391486 -0.680518
v -0.00345473 0.369447 0.214426
v -0.016713 -0.391486 -0.680518
v -0.0994792 -0.413714 -0.660392
v -0.0858489 0.368569 0.25966
v -0.00345473 0.369447 0.214426
v -0.149977 -0.471695 -0.610345
v -0.135373 0.366485 0.375449
v -0.103842 0.364304 0.501489
v -0.133107 0.363992 0.517557
v -0.0799172 0.362041 0.631711
v -0.0623277 0.362782 0.590585
v 0.00387727 0.361379 0.674299
v 0.00307283 0.362265 0.623824
v 0.0862715 0.362258 0.629064
v 0.0673806 0.36295 0.588519
v 0.135795 0.364341 0.513276
v 0.106033 0.364577 0.498148
v 0.13353 0.366835 0.371168
v 0.104265 0.366523 0.387234
v 0.0803397 0.368785 0.257015
v 0.0627508 0.368045 0.298139
v -0.00345473 0.369447 0.214426
v -0.0026497 0.368562 0.264899
v -0.0858489 0.368569 0.25966
v -0.0669573 0.367876 0.300204
v -0.135373 0.366485 0.375449
v -0.10561 0.36625 0.390576
v -0.103842 0.364304 0.501489
v -0.0623277 0.362782 0.590585
v -0.0757052 -0.404991 -0.312402
v -0.116459 -0.359841 -0.350187
v 0.00307283 0.362265 0.623824
v -0.0105947 -0.422171 -0.29876
v 0.00307283 0.362265 0.623824
v 0.0673806 0.36295 0.588519
v 0.0540037 -0.404822 -0.314468
v -0.0105947 -0.422171 -0.29876
v 0.106033 0.364577 0.498148
v 0.0934168 -0.359568 -0.353529
v 0.104265 0.366523 0.387234
v 0.0925882 -0.303697 -0.401021
v 0.0627508 0.368045 0.298139
v 0.0518338 -0.258548 -0.438806
v -0.0026497 0.368562 0.264899
v -0.0132766 -0.241368 -0.452449
v -0.0026497 0.368562 0.264899
v -0.0669573 0.367876 0.300204
v -0.0778749 -0.258717 -0.436741
v -0.0132766 -0.241368 -0.452449
v -0.10561 0.36625 0.390576
v -0.117288 -0.30397 -0.39768
v -0.308972 -0.0252113 -0.0475916
v 0.309705 -0.0252113 -0.0390235
v 0.309328 -0.0504511 0.00468996
v -0.309349 -0.0504511 -0.0038781
v 0.308951 -0.0252113 0.0484034
v -0.309727 -0.0252113 0.0398353
v 0.308951 0.0252684 0.0484034
v -0.309727 0.0252684 0.0398353
v 0.309328 0.0505082 0.00468998
v -0.309349 0.0505082 -0.0038781
v 0.309705 0.0252684 -0.0390235
v -0.308972 0.0252684 -0.0475916
v 0.309705 -0.0252113 -0.0390235
v -0.308972 -0.0252113 -0.0475916
v 0.309705 -0.0252113 -0.0390235
v 0.309705 0.0252684 -0.0390235
v 0.308951 0.0252684 0.0484034
v 0.308951 -0.0252113 0.0484034
v -0.309727 -0.0252113 0.0398353
v -0.309727 0.0252684 0.0398353
v -0.308972 0.0252684 -0.0475916
v -0.308972 -0.0252113 -0.0475916
v 0.309328 -0.0504511 0.00468996
v 0.309328 0.0505082 0.00468998
v -0.309349 0.0505082 -0.0038781
v -0.309349 -0.0504511 -0.0038781
v 0.0504025 -0.554283 -0.487208
v -0.0131553 -0.571352 -0.471753
v -0.0158731 -0.388122 -0.627506
v 0.0481881 -0.405025 -0.614083
v -0.077217 -0.554449 -0.485176
v -0.0794314 -0.405191 -0.612051
v 0.0903681 -0.508395 -0.526816
v 0.0895139 -0.450807 -0.575769
v -0.118542 -0.508667 -0.52349
v -0.119396 -0.451079 -0.572442
v 0.0694894 -0.60091 -0.50373
v -0.0132764 -0.623138 -0.483604
v -0.0135414 -0.593521 -0.497827
v 0.0500163 -0.576452 -0.513281
v -0.0167131 -0.391486 -0.680518
v 0.0667095 -0.413497 -0.663037
v 0.047802 -0.427194 -0.640156
v -0.0162593 -0.410291 -0.653579
v -0.0966995 -0.601127 -0.501083
v -0.077604 -0.576618 -0.511249
v -0.099479 -0.413714 -0.660392
v -0.0798171 -0.42736 -0.638125
v 0.119987 -0.542929 -0.553777
v 0.0899811 -0.530564 -0.55289
v 0.118926 -0.471345 -0.614626
v 0.0891268 -0.472976 -0.601842
v -0.148915 -0.543279 -0.549495
v -0.118929 -0.530836 -0.549563
v -0.149977 -0.471695 -0.610345
v -0.119783 -0.473248 -0.598516
v 0.0500163 -0.576452 -0.513281
v -0.0135414 -0.593521 -0.497827
v -0.0131553 -0.571352 -0.471753
v 0.0504025 -0.554283 -0.487208
v -0.0162593 -0.410291 -0.653579
v 0.047802 -0.427194 -0.640156
v 0.0481881 -0.405025 -0.614083
v -0.0158731 -0.388122 -0.627506
v -0.077604 -0.576618 -0.511249
v -0.077217 -0.554449 -0.485176
v -0.0798171 -0.42736 -0.638125
v -0.0794314 -0.405191 -0.612051
v 0.0899811 -0.530564 -0.55289
v 0.0903681 -0.508395 -0.526816
v 0.0891268 -0.472976 -0.601842
v 0.0895139 -0.450807 -0.575769
v -0.118929 -0.530836 -0.549563
v -0.118542 -0.508667 -0.52349
v -0.119783 -0.473248 -0.598516
v -0.119396 -0.451079 -0.572442

vn -0.950195 -0.229248 0.208984
vn -0.601074 -0.604004 0.522461
vn -0.489258 -0.660645 0.568848
vn -0.890137 -0.340332 0.30249
vn 0.0112991 -0.761719 0.647461
vn 0.0112991 -0.761719 0.647461
vn 0.619141 -0.602539 0.50293
vn 0.508789 -0.65918 0.552734
vn 0.957031 -0.226807 0.178589
vn 0.899902 -0.338135 0.27417
vn 0.957031 0.213257 -0.195557
vn 0.98877 0.10437 -0.103394
vn 0.612793 0.597168 -0.516602
vn 0.689941 0.545898 -0.474365
vn -0.0112991 0.761719 -0.647461
vn -0.0112991 0.761719 -0.647461
vn -0.0112991 0.761719 -0.647461
vn -0.630371 0.595703 -0.49707
vn -0.706543 0.543945 -0.452148
vn -0.0112991 0.761719 -0.647461
vn -0.963379 0.210815 -0.164917
vn -0.992188 0.101746 -0.0718384
vn -0.00102234 0.999512 0.0175476
vn -0.00102139 0.999512 0.0175476
vn -0.00102139 0.999512 0.0175476
vn -0.00102043 0.999512 0.0175476
vn -0.00102043 0.999512 0.0175476
vn -0.00102043 0.999512 0.0175476
vn -0.00101948 0.999512 0.0175476
vn -0.00101948 0.999512 0.0175476
vn -0.00102043 0.999512 0.0175476
vn -0.00102043 0.999512 0.0175476
vn -0.00101948 0.999512 0.0175476
vn -0.00102043 0.999512 0.0175476
vn -0.00101948 0.999512 0.0175476
vn -0.00101948 0.999512 0.0175476
vn -0.00102043 0.999512 0.0175476
vn -0.00102043 0.999512 0.0175476
vn -0.00102139 0.999512 0.0175476
vn -0.00102139 0.999512 0.0175476
vn -0.00102329 0.999512 0.0175476
vn -0.00102329 0.999512 0.0175476
vn 0.890137 0.340332 -0.30249
vn 0.489502 0.660645 -0.568848
vn 0.601074 0.604004 -0.522461
vn 0.950684 0.229126 -0.208862
vn -0.0112991 0.761719 -0.647461
vn -0.0112991 0.761719 -0.647461
vn -0.0112991 0.761719 -0.647461
vn -0.508789 0.65918 -0.552734
vn -0.619141 0.602539 -0.50293
vn -0.0112991 0.761719 -0.647461
vn -0.899902 0.337891 -0.273926
vn -0.957031 0.226563 -0.178467
vn -0.98877 -0.104492 0.103516
vn -0.957031 -0.213501 0.195679
vn -0.689941 -0.545898 0.474365
vn -0.612793 -0.597168 0.51709
vn 0.0112991 -0.761719 0.647461
vn 0.0112991 -0.761719 0.647461
vn 0.0112991 -0.761719 0.647461
vn 0.706055 -0.543945 0.452148
vn 0.630371 -0.595703 0.49707
vn 0.0112991 -0.761719 0.647461
vn 0.991699 -0.101929 0.0719604
vn 0.963379 -0.210938 0.165161
vn 0.0119934 -0.499023 -0.866211
vn 0.0119858 -0.500488 -0.865234
vn -2.30074e-005 -0.999512 0.0016613
vn 2.30074e-005 -0.999512 -0.0016613
vn -0.0119934 -0.499023 0.866211
vn -0.0119858 -0.500488 0.865234
vn -0.0119934 0.499023 0.866211
vn -0.0119858 0.500488 0.865234
vn -2.29478e-005 0.999512 0.0016613
vn 2.30074e-005 0.999512 -0.0016613
vn 0.0119858 0.500488 -0.865234
vn 0.0119934 0.499023 -0.866211
vn 0.0119858 -0.500488 -0.865234
vn 0.0119934 -0.499023 -0.866211
vn 0.999512 0 0.00862122
vn 0.999512 0 0.00862122
vn 0.999512 0 0.00862122
vn 0.999512 0 0.00862122
vn -0.999512 -1.19209e-007 -0.00862122
vn -0.999512 1.19209e-007 -0.00862122
vn -0.999512 1.19209e-007 -0.00862122
vn -0.999512 -1.19209e-007 -0.00862122
vn 0.999512 -8.34465e-007 0.00862122
vn 0.999512 0 0.00862122
vn -0.999512 1.66893e-006 -0.00862122
vn -0.999512 -1.66893e-006 -0.00862122
vn -0.0112839 -0.647461 -0.761719
vn -0.0112839 -0.647461 -0.761719
vn -0.0112839 -0.647461 -0.761719
vn -0.0112839 -0.647461 -0.761719
vn -0.0112839 -0.647461 -0.761719
vn -0.0112839 -0.647461 -0.761719
vn -0.0112839 -0.647461 -0.761719
vn -0.0112839 -0.647461 -0.761719
vn -0.0112839 -0.647461 -0.761719
vn -0.0112839 -0.647461 -0.761719
vn -0.170776 -0.473389 -0.86377
vn -0.0137863 -0.432861 -0.900879
vn -0.0137863 -0.432861 -0.900879
vn -0.170776 -0.473389 -0.86377
vn -0.00804138 -0.819824 -0.572266
vn -0.166138 -0.779297 -0.603516
vn -0.166138 -0.779297 -0.603516
vn -0.00804138 -0.819824 -0.572266
vn 0.144409 -0.4729 -0.868652
vn 0.144409 -0.4729 -0.868652
vn 0.148926 -0.778809 -0.608887
vn 0.148926 -0.778809 -0.608887
vn -0.257813 -0.569824 -0.779785
vn -0.257813 -0.569824 -0.779785
vn -0.256104 -0.682617 -0.684082
vn -0.256104 -0.682617 -0.684082
vn 0.234375 -0.568848 -0.788086
vn 0.234375 -0.568848 -0.788086
vn 0.235962 -0.681641 -0.691895
vn 0.235962 -0.681641 -0.691895
vn -0.62793 0.597168 -0.498291
vn -0.0112991 0.761719 -0.647461
vn -0.0112991 0.761719 -0.647461
vn -0.62793 0.597168 -0.498291
vn 0.0112991 -0.761719 0.647461
vn -0.610352 -0.598633 0.518066
vn -0.610352 -0.598633 0.518066
vn 0.0112991 -0.761719 0.647461
vn 0.610352 0.598633 -0.518066
vn 0.610352 0.598633 -0.518066
vn 0.62793 -0.597168 0.498291
vn 0.62793 -0.597168 0.498291
vn -0.960938 0.217285 -0.170532
vn -0.960938 0.217285 -0.170532
vn -0.95459 -0.219727 0.200928
vn -0.95459 -0.219727 0.200928
vn 0.95459 0.219727 -0.200928
vn 0.95459 0.219727 -0.200928
vn 0.960938 -0.217285 0.170532
vn 0.960938 -0.217285 0.170532

vt 0.0871756 0.00753063
vt 0.114998 0.00753063
vt 0.114998 0.535248
vt 0.0871756 0.501025
vt 0.142821 0.00753063
vt 0.142821 0.548319
vt 0.170644 0.00753063
vt 0.170644 0.535248
vt 0.198466 0.00753063
vt 0.198466 0.501025
vt 0.226289 0.00753063
vt 0.226289 0.458724
vt 0.254112 0.00753063
vt 0.254112 0.424501
vt 0.281934 0.00753063
vt 0.281934 0.41143
vt 0.00370752 0.00753063
vt 0.0315302 0.00753063
vt 0.0315302 0.424501
vt 0.00370752 0.41143
vt 0.0593529 0.00753063
vt 0.0593529 0.458724
vt 0.318439 0.164964
vt 0.294607 0.145763
vt 0.32011 0.0486969
vt 0.334592 0.0988165
vt 0.359633 0.0117357
vt 0.360635 0.077996
vt 0.399067 0.0489891
vt 0.386618 0.0990155
vt 0.424338 0.146235
vt 0.402619 0.165286
vt 0.424194 0.266323
vt 0.402526 0.247122
vt 0.396554 0.363388
vt 0.384789 0.308943
vt 0.359167 0.400349
vt 0.36033 0.33409
vt 0.321869 0.363096
vt 0.335932 0.308745
vt 0.294463 0.26585
vt 0.318346 0.2468
vt 0.512464 0.36982
vt 0.537464 0.395198
vt 0.537464 0.0050863
vt 0.512464 0.0050863
vt 0.562464 0.404891
vt 0.562464 0.0050863
vt 0.562464 0.404891
vt 0.537464 0.395198
vt 0.537464 0.0050863
vt 0.562464 0.0050863
vt 0.512464 0.36982
vt 0.512464 0.0050863
vt 0.487464 0.338451
vt 0.487464 0.0050863
vt 0.462464 0.313073
vt 0.462464 0.0050863
vt 0.437464 0.30338
vt 0.437464 0.0050863
vt 0.437464 0.30338
vt 0.462464 0.313073
vt 0.462464 0.0050863
vt 0.437464 0.0050863
vt 0.487464 0.338451
vt 0.487464 0.0050863
vt 0.761389 0.0132721
vt 0.761389 0.161679
vt 0.744443 0.161678
vt 0.744443 0.013272
vt 0.727496 0.161679
vt 0.727496 0.013272
vt 0.71055 0.161679
vt 0.71055 0.0132719
vt 0.693603 0.161679
vt 0.693603 0.0132719
vt 0.676657 0.161679
vt 0.676657 0.0132721
vt 0.65971 0.161678
vt 0.65971 0.0132725
vt 0.971846 0.886845
vt 0.971846 0.921618
vt 0.938811 0.921618
vt 0.938811 0.886845
vt 0.938811 0.921618
vt 0.938811 0.886844
vt 0.971846 0.886844
vt 0.971846 0.921618
vt 0.955329 0.869458
vt 0.955329 0.939004
vt 0.955329 0.869458
vt 0.955329 0.939004
vt 0.7852 0.47838
vt 0.76377 0.47248
vt 0.80694 0.406026
vt 0.821008 0.423632
vt 0.749797 0.455093
vt 0.785183 0.400583
vt 0.807418 0.468888
vt 0.821323 0.447924
vt 0.749177 0.431004
vt 0.762899 0.409831
vt 0.786649 0.503308
vt 0.749267 0.494379
vt 0.75569 0.484501
vt 0.785826 0.491683
vt 0.821087 0.384751
vt 0.84433 0.415011
vt 0.833355 0.418931
vt 0.814583 0.394594
vt 0.725734 0.463715
vt 0.736723 0.459862
vt 0.783959 0.375109
vt 0.784746 0.386727
vt 0.823949 0.489091
vt 0.816616 0.480152
vt 0.845927 0.454572
vt 0.834804 0.451552
vt 0.724655 0.423911
vt 0.735788 0.427128
vt 0.747016 0.38992
vt 0.754314 0.398836
vt 0.785826 0.491683
vt 0.75569 0.484501
vt 0.76377 0.47248
vt 0.7852 0.47838
vt 0.814583 0.394594
vt 0.833355 0.418931
vt 0.821008 0.423632
vt 0.80694 0.406026
vt 0.736723 0.459862
vt 0.749797 0.455093
vt 0.784746 0.386727
vt 0.785183 0.400583
vt 0.816616 0.480152
vt 0.807418 0.468888
vt 0.834804 0.451552
vt 0.821323 0.447924
vt 0.735788 0.427128
vt 0.749177 0.431004
vt 0.754314 0.398836
vt 0.762899 0.409831


#
# MESH 000
#
g surface_000
usemtl surface_000
f 61/61/61 63/63/63 64/64/64
f 61/61/61 62/62/62 63/63/63
f 62/62/62 66/66/66 63/63/63
f 62/62/62 65/65/65 66/66/66
f 65/65/65 46/46/46 66/66/66
f 65/65/65 43/43/43 46/46/46
f 43/43/43 45/45/45 46/46/46
f 43/43/43 44/44/44 45/45/45
f 44/44/44 48/48/48 45/45/45
f 44/44/44 47/47/47 48/48/48
f 57/57/57 59/59/59 60/60/60
f 57/57/57 60/60/60 58/58/58
f 55/55/55 57/57/57 58/58/58
f 55/55/55 58/58/58 56/56/56
f 53/53/53 55/55/55 56/56/56
f 53/53/53 56/56/56 54/54/54
f 50/50/50 53/53/53 54/54/54
f 50/50/50 54/54/54 51/51/51
f 49/49/49 50/50/50 51/51/51
f 49/49/49 51/51/51 52/52/52
f 17/17/17 19/19/19 20/20/20
f 17/17/17 18/18/18 19/19/19
f 18/18/18 22/22/22 19/19/19
f 18/18/18 21/21/21 22/22/22
f 21/21/21 4/4/4 22/22/22
f 21/21/21 1/1/1 4/4/4
f 1/1/1 3/3/3 4/4/4
f 1/1/1 2/2/2 3/3/3
f 2/2/2 6/6/6 3/3/3
f 2/2/2 5/5/5 6/6/6
f 5/5/5 8/8/8 6/6/6
f 5/5/5 7/7/7 8/8/8
f 7/7/7 10/10/10 8/8/8
f 7/7/7 9/9/9 10/10/10
f 9/9/9 12/12/12 10/10/10
f 9/9/9 11/11/11 12/12/12
f 11/11/11 14/14/14 12/12/12
f 11/11/11 13/13/13 14/14/14
f 13/13/13 16/16/16 14/14/14
f 13/13/13 15/15/15 16/16/16
f 42/42/42 24/24/24 23/23/23
f 42/42/42 41/41/41 24/24/24
f 40/40/40 41/41/41 42/42/42
f 40/40/40 39/39/39 41/41/41
f 38/38/38 39/39/39 40/40/40
f 38/38/38 37/37/37 39/39/39
f 36/36/36 37/37/37 38/38/38
f 36/36/36 35/35/35 37/37/37
f 34/34/34 35/35/35 36/36/36
f 34/34/34 33/33/33 35/35/35
f 32/32/32 33/33/33 34/34/34
f 32/32/32 31/31/31 33/33/33
f 30/30/30 31/31/31 32/32/32
f 30/30/30 29/29/29 31/31/31
f 28/28/28 29/29/29 30/30/30
f 28/28/28 27/27/27 29/29/29
f 26/26/26 27/27/27 28/28/28
f 26/26/26 25/25/25 27/27/27
f 23/23/23 25/25/25 26/26/26
f 23/23/23 24/24/24 25/25/25
f 88/88/88 92/92/92 85/85/85
f 85/85/85 87/87/87 88/88/88
f 85/85/85 86/86/86 87/87/87
f 86/86/86 91/91/91 87/87/87
f 82/82/82 90/90/90 83/83/83
f 81/81/81 82/82/82 83/83/83
f 81/81/81 83/83/83 84/84/84
f 89/89/89 81/81/81 84/84/84
f 78/78/78 79/79/79 80/80/80
f 78/78/78 77/77/77 79/79/79
f 76/76/76 77/77/77 78/78/78
f 76/76/76 75/75/75 77/77/77
f 74/74/74 75/75/75 76/76/76
f 74/74/74 73/73/73 75/75/75
f 72/72/72 73/73/73 74/74/74
f 72/72/72 71/71/71 73/73/73
f 70/70/70 71/71/71 72/72/72
f 70/70/70 69/69/69 71/71/71
f 67/67/67 69/69/69 70/70/70
f 67/67/67 68/68/68 69/69/69
f 97/97/97 101/101/101 102/102/102
f 97/97/97 102/102/102 98/98/98
f 94/94/94 97/97/97 98/98/98
f 94/94/94 98/98/98 95/95/95
f 93/93/93 94/94/94 95/95/95
f 93/93/93 95/95/95 96/96/96
f 99/99/99 93/93/93 96/96/96
f 99/99/99 96/96/96 100/100/100
f 141/141/141 134/134/134 142/142/142
f 141/141/141 133/133/133 134/134/134
f 133/133/133 130/130/130 134/134/134
f 133/133/133 127/127/127 130/130/130
f 127/127/127 129/129/129 130/130/130
f 127/127/127 128/128/128 129/129/129
f 128/128/128 138/138/138 129/129/129
f 139/139/139 141/141/141 142/142/142
f 139/139/139 142/142/142 140/140/140
f 131/131/131 139/139/139 140/140/140
f 131/131/131 140/140/140 132/132/132
f 124/124/124 131/131/131 132/132/132
f 124/124/124 132/132/132 125/125/125
f 123/123/123 124/124/124 125/125/125
f 123/123/123 125/125/125 126/126/126
f 135/135/135 123/123/123 126/126/126
f 135/135/135 126/126/126 136/136/136
f 137/137/137 135/135/135 136/136/136
f 137/137/137 136/136/136 138/138/138
f 128/128/128 137/137/137 138/138/138
f 121/121/121 114/114/114 122/122/122
f 121/121/121 113/113/113 114/114/114
f 113/113/113 110/110/110 114/114/114
f 113/113/113 107/107/107 110/110/110
f 107/107/107 109/109/109 110/110/110
f 107/107/107 108/108/108 109/109/109
f 108/108/108 118/118/118 109/109/109
f 119/119/119 121/121/121 122/122/122
f 119/119/119 122/122/122 120/120/120
f 111/111/111 119/119/119 120/120/120
f 111/111/111 120/120/120 112/112/112
f 104/104/104 111/111/111 112/112/112
f 104/104/104 112/112/112 105/105/105
f 103/103/103 104/104/104 105/105/105
f 103/103/103 105/105/105 106/106/106
f 115/115/115 103/103/103 106/106/106
f 115/115/115 106/106/106 116/116/116
f 117/117/117 115/115/115 116/116/116
f 117/117/117 116/116/116 118/118/118
f 108/108/108 117/117/117 118/118/118

