#
# OBJECT NAME
#
o model_4778
mtllib 4778.mtl

#
# VERTEX BUFFER 000
#
v -0.20931 0.44806 -0.214906
v -0.390937 0.44806 -0.037374
v -0.254181 0.44806 0.20511
v 0.00807095 0.44806 0.209324
v 0.109065 0.44806 0.0917701
v 0.0424787 0.44806 -0.206418

vn 0 1 0
vn 0 1 0
vn 0 1 0
vn 0 1 0
vn 0 1 0
vn 0 1 0

vt 0.757346 0.317504
vt 0.763969 0.251058
vt 0.846839 0.258621
vt 0.859198 0.317504
vt 0.852564 0.361802
vt 0.763969 0.361802


#
# MESH 000
#
g surface_000
usemtl surface_000
f 5/5/5 6/6/6 1/1/1
f 5/5/5 1/1/1 4/4/4
f 1/1/1 3/3/3 4/4/4
f 1/1/1 2/2/2 3/3/3

