#
# OBJECT NAME
#
o model_4780
mtllib 4780.mtl

#
# VERTEX BUFFER 000
#
v 0.421739 -0.00265819 -0.00243658
v 0.770301 -0.005 -0.121488
v 0.810766 -0.005 -0.00301407
v 0.462204 -0.00265819 0.116038
v 0.810766 -0.005 -0.00301407
v 0.770301 -0.005 -0.121488
v 0.670662 1.06032 -0.0731384
v 0.702368 1.06032 0.0196912
v 0.421739 -0.00265819 -0.00243658
v 0.462204 -0.00265819 0.116038
v 0.561843 1.06032 0.0676876
v 0.530137 1.06032 -0.0251419
v 0.670662 1.06032 -0.0731384
v 0.770301 -0.005 -0.121488
v 0.421739 -0.00265819 -0.00243658
v 0.530137 1.06032 -0.0251419
v 0.702368 1.06032 0.0196912
v 0.670662 1.06032 -0.0731384
v 0.702368 1.06032 0.0196912
v 0.561843 1.06032 0.0676876
v 0.462204 -0.00265819 0.116038
v 0.810766 -0.005 -0.00301407
v 0.262826 -0.00265819 -0.427213
v 0.611387 -0.005 -0.546265
v 0.651852 -0.005 -0.427791
v 0.303291 -0.00265819 -0.308739
v 0.651852 -0.005 -0.427791
v 0.611387 -0.005 -0.546265
v 0.511748 1.06032 -0.497915
v 0.543454 1.06032 -0.405086
v 0.262826 -0.00265819 -0.427213
v 0.303291 -0.00265819 -0.308739
v 0.40293 1.06032 -0.357089
v 0.371224 1.06032 -0.449919
v 0.511748 1.06032 -0.497915
v 0.611387 -0.005 -0.546265
v 0.262826 -0.00265819 -0.427213
v 0.371224 1.06032 -0.449919
v 0.543454 1.06032 -0.405086
v 0.511748 1.06032 -0.497915
v 0.543454 1.06032 -0.405086
v 0.40293 1.06032 -0.357089
v 0.303291 -0.00265819 -0.308739
v 0.651852 -0.005 -0.427791
v 0.585864 0.591896 -0.0109749
v 0.651435 0.591896 -0.0325981
v 0.514497 0.591896 -0.447855
v 0.448926 0.591896 -0.426232
v 0.483111 0.532906 -0.434465
v 0.514497 0.591896 -0.447855
v 0.651435 0.591896 -0.0325981
v 0.620049 0.532906 -0.0192078
v 0.483111 0.532906 -0.434465
v 0.620049 0.532906 -0.0192078
v 0.585864 0.591896 -0.0109749
v 0.448926 0.591896 -0.426232
v 0.868152 0.0971145 -0.564847
v 1.16779 0.0980018 -0.464372
v 1.20497 -0.003 -0.479355
v 0.867977 -0.003 -0.575197
v 0.791109 0.215719 -0.334741
v 0.732012 0.0086738 -0.389573
v 1.04451 -0.00777374 -0.0935243
v 1.03295 0.176925 -0.0986223
v 1.20465 0.121794 -0.242881
v 1.22943 -0.003 -0.237859
v 1.20497 -0.003 -0.479355
v 0.732012 0.0086738 -0.389573
v 1.20497 -0.003 -0.479355
v 1.04451 -0.00777374 -0.0935243
v 0.732012 0.0086738 -0.389573
v 0.867977 -0.003 -0.575197
v 1.20497 -0.003 -0.479355
v 1.22943 -0.003 -0.237859
v 1.04451 -0.00777374 -0.0935243
v -0.0825443 -0.5 -0.802508
v 0.0786758 -0.5 -0.802508
v 0.0786758 -0.5 -0.647039
v -0.0807315 -0.5 -0.647039
v 0.0674256 1.78023 -0.647039
v -0.0694813 1.78023 -0.647039
v -0.0807315 -0.5 -0.647039
v 0.0786758 -0.5 -0.647039
v 0.0786758 1.78023 -0.802508
v 0.0674256 1.78023 -0.647039
v 0.0786758 -0.5 -0.647039
v 0.0786758 -0.5 -0.802508
v -0.0807315 1.78023 -0.802508
v 0.0786758 1.78023 -0.802508
v 0.0786758 -0.5 -0.802508
v -0.0825443 -0.5 -0.802508
v -0.0531783 1.74862 -0.694403
v 0.070581 1.74862 -0.694403
v 0.070581 1.51942 -0.218306
v -0.0531783 1.51942 -0.218306
v 0.00870134 1.84372 -0.684666
v -0.0531783 1.74862 -0.694403
v 0.00870134 1.65082 -0.283976
v 0.070581 1.74862 -0.694403
v 0.00870134 1.65082 -0.283976
v -0.0531783 1.51942 -0.218306
v 0.070581 1.51942 -0.218306
v 0.178564 0.434877 0.284062
v -0.248895 0.440679 0.355555
v 0.19123 0.244053 0.389766
v -0.265351 0.00372253 -0.303814
v 0.17286 0.0488981 -0.264407
v 0.258586 0.0254662 0.0437435
v -0.456275 -0.000540061 0.101572
v 0.0869832 0.489885 0.16669
v -0.224041 0.478236 0.250484
v 0.304265 0.36579 0.0441877
v 0.187627 0.467724 -0.187207
v -0.265478 0.140448 0.453968
v -0.537695 0.220169 0.000901344
v -0.21054 0.455403 -0.330054
v -0.172447 0.483217 -0.247603
v -0.21054 0.455403 -0.330054
v -0.437057 0.47117 -0.0253218
v -0.332521 0.493453 -0.0765005
v -0.265351 0.00372253 -0.303814
v -0.278942 0.150387 -0.398366
v 0.21089 0.211676 -0.339686
v 0.17286 0.0488981 -0.264407
v -0.0580072 0.000358164 0.379944
v -0.1052 0.36442 0.0310976
v 0.121256 0.480322 -0.112131
v -0.172447 0.483217 -0.247603
v 0.121256 0.480322 -0.112131
v -0.224041 0.478236 0.250484
v -0.332521 0.493453 -0.0765005
v 0.0869832 0.489885 0.16669
v -0.172447 0.483217 -0.247603
v -0.0580072 0.000358164 0.379944
v 0.258586 0.0254662 0.0437435
v -0.456275 -0.000540061 0.101572
v -0.265351 0.00372253 -0.303814
v -0.456275 -0.000540061 0.101572
v -0.0580072 0.000358164 0.379944
v -0.278942 0.150387 -0.398366
v -0.316892 1.6477 -0.860034
v -0.316892 1.91275 -0.860034
v 0.326951 1.91275 -0.860028
v 0.326951 1.6477 -0.860028
v -0.316892 1.91275 -0.590724
v 0.327176 1.91275 -0.590718
v -0.316892 1.6477 -0.590724
v -0.316892 1.6477 -0.860034
v 0.326951 1.6477 -0.860028
v 0.327176 1.6477 -0.590718
v -0.316892 1.6477 -0.590724
v 0.327176 1.6477 -0.590718
v -0.316892 1.91275 -0.860034
v -0.316892 1.6477 -0.860034
v -0.316892 1.6477 -0.590724
v -0.316892 1.91275 -0.590724
v 0.326951 1.91275 -0.860028
v 0.327176 1.6477 -0.590718
v 0.326951 1.6477 -0.860028
v 0.327176 1.91275 -0.590718

vn -0.00601578 -0.999512 0.00205421
vn -0.00601578 -0.999512 0.00205421
vn -0.00601578 -0.999512 0.00205421
vn -0.00601578 -0.999512 0.00205421
vn 0.940918 0.1026 -0.321289
vn 0.940918 0.1026 -0.321289
vn 0.0621338 0.0971069 -0.993164
vn 0.656738 0.0971069 0.747559
vn -0.940918 0.102844 0.321289
vn -0.940918 0.102844 0.321289
vn -0.0612183 0.0971069 0.993164
vn -0.655762 0.0971069 -0.748047
vn 0.0621338 0.0971069 -0.993164
vn -0.322998 0.0127258 -0.945801
vn -0.322998 0.0127258 -0.945801
vn -0.655762 0.0971069 -0.748047
vn 0.656738 0.0971069 0.747559
vn 0.0621338 0.0971069 -0.993164
vn 0.656738 0.0971069 0.747559
vn -0.0612183 0.0971069 0.993164
vn 0.323242 0.0127258 0.945801
vn 0.323242 0.0127258 0.945801
vn -0.00601578 -0.999512 0.00205421
vn -0.00601578 -0.999512 0.00205421
vn -0.00601578 -0.999512 0.00205421
vn -0.00601578 -0.999512 0.00205421
vn 0.940918 0.1026 -0.321289
vn 0.940918 0.1026 -0.321289
vn 0.0621338 0.0971069 -0.993164
vn 0.656738 0.0971069 0.747559
vn -0.940918 0.102844 0.321289
vn -0.940918 0.102844 0.321289
vn -0.0612183 0.0971069 0.993164
vn -0.655762 0.0971069 -0.748047
vn 0.0621338 0.0971069 -0.993164
vn -0.322998 0.0127258 -0.945801
vn -0.322998 0.0127258 -0.945801
vn -0.655762 0.0971069 -0.748047
vn 0.656738 0.0971069 0.747559
vn 0.0621338 0.0971069 -0.993164
vn 0.656738 0.0971069 0.747559
vn -0.0612183 0.0971069 0.993164
vn 0.323242 0.0127258 0.945801
vn 0.323242 0.0127258 0.945801
vn 1.66893e-006 1 -7.15256e-007
vn 1.66893e-006 1 -7.15256e-007
vn 1.66893e-006 1 -7.15256e-007
vn 1.66893e-006 1 -7.15256e-007
vn 0.822754 -0.499268 -0.27124
vn 0.822754 -0.499268 -0.27124
vn 0.822754 -0.499268 -0.27124
vn 0.822754 -0.499268 -0.27124
vn -0.816406 -0.510254 0.269043
vn -0.816406 -0.510254 0.269043
vn -0.816406 -0.510254 0.269043
vn -0.816406 -0.510254 0.269043
vn -0.0406494 0.623047 -0.780762
vn 0.508301 0.676758 -0.531738
vn 0.713379 0.255371 -0.651855
vn 0.032074 0.167358 -0.985352
vn -0.67627 0.575684 0.458496
vn -0.877441 0.0991821 0.468506
vn -0.49292 0.0142517 0.869629
vn -0.418701 0.457275 0.78418
vn 0.629395 0.773926 0.0643311
vn 0.944824 0.258057 0.200562
vn 0.713379 0.255371 -0.651855
vn -0.877441 0.0991821 0.468506
vn -0.024826 -0.999512 -0.000807762
vn -0.024826 -0.999512 -0.000807762
vn -0.024826 -0.999512 -0.000807762
vn -0.024826 -0.999512 -0.000807762
vn 0.0239105 -0.999512 -0.00242233
vn 0.0239105 -0.999512 -0.00242233
vn 0.0239105 -0.999512 -0.00242233
vn -0.709961 -0.0475159 -0.702148
vn 0 -1 0
vn 0 -1 0
vn -0.708496 -0.0481567 0.703613
vn 0.709961 0.00175095 0.703613
vn -0.708008 0.00202751 0.706055
vn -0.708496 -0.0481567 0.703613
vn 0.711426 0.00175571 0.702148
vn 0.708496 0.00174809 -0.705078
vn 0.709961 0.00175095 0.703613
vn 0.711426 0.00175571 0.702148
vn 0.708496 0.00174809 -0.705078
vn -0.710449 0.00203514 -0.703125
vn 0.708496 0.00174809 -0.705078
vn 0.708496 0.00174809 -0.705078
vn -0.709961 -0.0475159 -0.702148
vn -0.887207 -0.415527 -0.200073
vn 0.887207 -0.415527 -0.200073
vn 0.302246 -0.858398 -0.41333
vn -0.302246 -0.858398 -0.41333
vn 5.96046e-007 0.900879 0.433594
vn -0.887207 -0.415527 -0.200073
vn 0 0.900879 0.433594
vn 0.887207 -0.415527 -0.200073
vn 0 0.447021 0.894043
vn 0 0.447021 0.894043
vn 0 0.447021 0.894043
vn 0.480225 0.650391 0.587891
vn -0.445801 0.45752 0.769043
vn 0.606445 -0.0939331 0.789063
vn -0.116821 -0.898926 -0.421875
vn 0.299072 -0.770996 -0.561523
vn 0.562988 -0.82373 0.0613708
vn -0.439697 -0.892578 0.0982056
vn 0.014473 0.999512 0.00209427
vn 0.0231934 0.999023 0.0331116
vn 0.975586 0.216187 0.0268707
vn 0.574707 0.611328 -0.543457
vn -0.453125 -0.112549 0.883789
vn -0.997559 0.0517578 -0.0363464
vn -0.260742 0.417969 -0.870117
vn 0.0385437 0.995605 0.0836182
vn -0.260742 0.417969 -0.870117
vn -0.855957 0.50293 -0.117859
vn 0.151611 0.988281 0.00899506
vn -0.116821 -0.898926 -0.421875
vn -0.283936 -0.136108 -0.94873
vn 0.529297 -0.057312 -0.846191
vn 0.299072 -0.770996 -0.561523
vn 0.129639 -0.905762 0.402588
vn 0.0135803 0.999023 -0.0385132
vn -0.161377 0.981445 0.0999756
vn 0.0385437 0.995605 0.0836182
vn -0.161377 0.981445 0.0999756
vn 0.0231934 0.999023 0.0331116
vn 0.151611 0.988281 0.00899506
vn 0.014473 0.999512 0.00209427
vn 0.0385437 0.995605 0.0836182
vn 0.129639 -0.905762 0.402588
vn 0.562988 -0.82373 0.0613708
vn -0.439697 -0.892578 0.0982056
vn -0.116821 -0.898926 -0.421875
vn -0.439697 -0.892578 0.0982056
vn 0.129639 -0.905762 0.402588
vn -0.283936 -0.136108 -0.94873
vn -0.14502 -0.705078 -0.693848
vn -0.14502 0.705078 -0.693848
vn 0.14502 0.705078 -0.693359
vn 0.14502 -0.705078 -0.693359
vn -0.14502 0.705078 0.693848
vn 0.145142 0.70459 0.693848
vn -0.14502 -0.705078 0.693848
vn -0.14502 -0.705078 -0.693848
vn 0.14502 -0.705078 -0.693359
vn 0.145142 -0.70459 0.693848
vn -0.14502 -0.705078 0.693848
vn 0.145142 -0.70459 0.693848
vn -0.14502 0.705078 -0.693848
vn -0.14502 -0.705078 -0.693848
vn -0.14502 -0.705078 0.693848
vn -0.14502 0.705078 0.693848
vn 0.14502 0.705078 -0.693359
vn 0.145142 -0.70459 0.693848
vn 0.14502 -0.705078 -0.693359
vn 0.145142 0.70459 0.693848

vt 0.431066 0.441922
vt 0.431066 0.363346
vt 0.471723 0.363346
vt 0.471723 0.441922
vt 0.689763 0.286621
vt 0.653836 0.286621
vt 0.657725 0.513123
vt 0.685874 0.513123
vt 0.398467 0.482513
vt 0.434393 0.482513
vt 0.430505 0.710838
vt 0.402355 0.710838
vt 0.227476 0.521664
vt 0.261165 0.749412
vt 0.176332 0.749412
vt 0.201294 0.527787
vt 0.430413 0.743414
vt 0.402446 0.743414
vt 0.308357 0.743165
vt 0.282175 0.738554
vt 0.256555 0.516941
vt 0.342705 0.516941
vt 0.645954 0.408485
vt 0.645954 0.485524
vt 0.606579 0.485524
vt 0.606579 0.408485
vt 0.689763 0.286621
vt 0.653836 0.286621
vt 0.657725 0.513123
vt 0.685874 0.513123
vt 0.356016 0.482513
vt 0.391942 0.482513
vt 0.388054 0.710839
vt 0.359904 0.710838
vt 0.227476 0.521664
vt 0.261165 0.749412
vt 0.176332 0.749412
vt 0.201294 0.527787
vt 0.387962 0.743414
vt 0.359995 0.743414
vt 0.308357 0.743165
vt 0.282175 0.738554
vt 0.256555 0.516941
vt 0.342705 0.516941
vt 0.574277 0.0094927
vt 0.590665 0.0094927
vt 0.590665 0.126607
vt 0.574277 0.126607
vt 0.600295 0.00949275
vt 0.616683 0.00949275
vt 0.616683 0.126607
vt 0.600295 0.126607
vt 0.642489 0.126607
vt 0.642489 0.0094927
vt 0.651587 0.0094927
vt 0.651587 0.126607
vt 0.504236 0.621204
vt 0.558427 0.638658
vt 0.555561 0.698499
vt 0.469211 0.662958
vt 0.518449 0.458481
vt 0.518436 0.411552
vt 0.572848 0.432573
vt 0.555097 0.488525
vt 0.574391 0.558379
vt 0.604364 0.55212
vt 0.589349 0.663118
vt 0.472918 0.514162
vt 0.637944 0.689665
vt 0.635392 0.593741
vt 0.607617 0.620125
vt 0.610259 0.689472
vt 0.637944 0.689665
vt 0.652136 0.629649
vt 0.635392 0.593741
vt 0.914531 0.759339
vt 0.957658 0.759339
vt 0.952567 0.797372
vt 0.919621 0.797372
vt 0.00829977 0.976607
vt 0.00829977 0.917513
vt 0.391241 0.917513
vt 0.391241 0.976607
vt 0.00829977 0.783139
vt 0.00829977 0.976607
vt 0.391241 0.976607
vt 0.391241 0.783139
vt 0.00829977 0.852156
vt 0.00829977 0.783139
vt 0.391241 0.783139
vt 0.391241 0.852156
vt 0.839554 0.0230616
vt 0.78732 0.0230616
vt 0.78732 0.207422
vt 0.839554 0.215792
vt 0.812943 0.014165
vt 0.839554 0.0230616
vt 0.812938 0.171004
vt 0.78732 0.0230616
vt 0.933963 0.833893
vt 0.887045 0.711762
vt 0.981893 0.711762
vt 0.639441 0.792343
vt 0.681207 0.732735
vt 0.684134 0.833241
vt 0.0934086 0.549317
vt 0.0619533 0.59475
vt 0.0128999 0.578439
vt 0.0592153 0.493666
vt 0.600768 0.767554
vt 0.661127 0.704318
vt 0.595688 0.831247
vt 0.527696 0.815607
vt 0.725818 0.795867
vt 0.746998 0.641597
vt 0.43334 0.811134
vt 0.45423 0.792285
vt 0.66505 0.531753
vt 0.69912 0.621441
vt 0.68329 0.60943
vt 0.429554 0.924908
vt 0.43075 0.888951
vt 0.524883 0.892415
vt 0.523002 0.943778
vt 0.00803465 0.511383
vt 0.828405 0.900618
vt 0.807873 0.837105
vt 0.893577 0.849491
vt 0.530481 0.792247
vt 0.804425 0.954474
vt 0.899671 0.921565
vt 0.761252 0.883532
vt 0.641887 0.543694
vt 0.744923 0.890259
vt 0.635742 0.901378
vt 0.861495 0.608901
vt 0.781735 0.522531
vt 0.852984 0.738176
vt 0.820845 0.800658
vt 0.744859 0.525446
vt 0.216337 0.771801
vt 0.216337 0.843866
vt 0.113468 0.843857
vt 0.113468 0.77181
vt 0.216332 0.917198
vt 0.113428 0.917189
vt 0.216332 0.989244
vt 0.216337 0.771801
vt 0.113468 0.77181
vt 0.113428 0.989254
vt 0.216332 0.989244
vt 0.113428 0.989254
vt 0.0532247 0.6503
vt 0.125552 0.626199
vt 0.125552 0.722622
vt 0.0291096 0.722622
vt 0.053187 0.698512
vt 0.125625 0.626089
vt 0.125625 0.722659
vt 0.0290354 0.626089


#
# VERTEX BUFFER 001
#
v -0.339711 0.535626 0.100698
v -0.251872 0.472805 -0.0188351
v -0.354549 0.552198 -0.119694
v -0.141763 0.509272 -0.136399
v -0.126572 0.495061 0.0836155

vn 0.389893 0.901367 -0.187012
vn 0.197754 0.978516 0.0527954
vn 0.416748 0.870605 0.260986
vn -0.0108719 0.95752 0.286865
vn -0.0521851 0.986816 -0.150513

vt 0.660761 0.270606
vt 0.70479 0.226963
vt 0.748878 0.270606
vt 0.748878 0.182395
vt 0.660761 0.182395


#
# MESH 000
#
g surface_000
usemtl surface_000
f 19/19/19 21/21/21 22/22/22
f 19/19/19 20/20/20 21/21/21
f 12/12/12 17/17/17 18/18/18
f 12/12/12 11/11/11 17/17/17
f 9/9/9 11/11/11 12/12/12
f 9/9/9 10/10/10 11/11/11
f 13/13/13 15/15/15 16/16/16
f 13/13/13 14/14/14 15/15/15
f 5/5/5 7/7/7 8/8/8
f 5/5/5 6/6/6 7/7/7
f 1/1/1 3/3/3 4/4/4
f 1/1/1 2/2/2 3/3/3
f 41/41/41 43/43/43 44/44/44
f 41/41/41 42/42/42 43/43/43
f 34/34/34 39/39/39 40/40/40
f 34/34/34 33/33/33 39/39/39
f 31/31/31 33/33/33 34/34/34
f 31/31/31 32/32/32 33/33/33
f 35/35/35 37/37/37 38/38/38
f 35/35/35 36/36/36 37/37/37
f 27/27/27 29/29/29 30/30/30
f 27/27/27 28/28/28 29/29/29
f 23/23/23 25/25/25 26/26/26
f 23/23/23 24/24/24 25/25/25
f 53/53/53 55/55/55 56/56/56
f 53/53/53 54/54/54 55/55/55
f 49/49/49 51/51/51 52/52/52
f 49/49/49 50/50/50 51/51/51
f 45/45/45 47/47/47 48/48/48
f 45/45/45 46/46/46 47/47/47
f 73/73/73 74/74/74 75/75/75
f 69/69/69 71/71/71 72/72/72
f 69/69/69 70/70/70 71/71/71
f 58/58/58 66/66/66 67/67/67
f 58/58/58 65/65/65 66/66/66
f 66/66/66 65/65/65 63/63/63
f 63/63/63 65/65/65 64/64/64
f 61/61/61 63/63/63 64/64/64
f 61/61/61 62/62/62 63/63/63
f 58/58/58 61/61/61 65/65/65
f 61/61/61 64/64/64 65/65/65
f 57/57/57 61/61/61 58/58/58
f 68/68/68 61/61/61 57/57/57
f 68/68/68 57/57/57 60/60/60
f 57/57/57 59/59/59 60/60/60
f 57/57/57 58/58/58 59/59/59
f 88/88/88 89/89/89 90/90/90
f 88/88/88 90/90/90 91/91/91
f 81/81/81 88/88/88 91/91/91
f 81/81/81 91/91/91 82/82/82
f 80/80/80 81/81/81 82/82/82
f 80/80/80 82/82/82 83/83/83
f 84/84/84 86/86/86 87/87/87
f 84/84/84 85/85/85 86/86/86
f 76/76/76 78/78/78 79/79/79
f 76/76/76 77/77/77 78/78/78
f 100/100/100 101/101/101 102/102/102
f 94/94/94 99/99/99 96/96/96
f 94/94/94 96/96/96 98/98/98
f 95/95/95 98/98/98 96/96/96
f 95/95/95 96/96/96 97/97/97
f 92/92/92 94/94/94 95/95/95
f 92/92/92 93/93/93 94/94/94
f 138/138/138 139/139/139 114/114/114
f 138/138/138 114/114/114 115/115/115
f 114/114/114 104/104/104 115/115/115
f 115/115/115 104/104/104 119/119/119
f 119/119/119 140/140/140 115/115/115
f 137/137/137 115/115/115 140/140/140
f 136/136/136 115/115/115 137/137/137
f 105/105/105 104/104/104 114/114/114
f 103/103/103 104/104/104 105/105/105
f 103/103/103 111/111/111 104/104/104
f 119/119/119 104/104/104 111/111/111
f 119/119/119 111/111/111 120/120/120
f 118/118/118 119/119/119 120/120/120
f 119/119/119 118/118/118 140/140/140
f 105/105/105 114/114/114 134/134/134
f 105/105/105 134/134/134 135/135/135
f 135/135/135 112/112/112 105/105/105
f 105/105/105 112/112/112 103/103/103
f 112/112/112 113/113/113 103/103/103
f 103/103/103 113/113/113 110/110/110
f 110/110/110 111/111/111 103/103/103
f 135/135/135 123/123/123 112/112/112
f 112/112/112 123/123/123 113/113/113
f 123/123/123 116/116/116 113/113/113
f 113/113/113 116/116/116 117/117/117
f 117/117/117 129/129/129 113/113/113
f 110/110/110 113/113/113 129/129/129
f 124/124/124 123/123/123 135/135/135
f 121/121/121 123/123/123 124/124/124
f 121/121/121 122/122/122 123/123/123
f 123/123/123 122/122/122 116/116/116
f 118/118/118 120/120/120 133/133/133
f 125/125/125 109/109/109 108/108/108
f 109/109/109 106/106/106 108/108/108
f 106/106/106 107/107/107 108/108/108
f 126/126/126 132/132/132 127/127/127
f 132/132/132 126/126/126 130/130/130
f 130/130/130 126/126/126 131/131/131
f 126/126/126 128/128/128 131/131/131
f 126/126/126 127/127/127 128/128/128
f 158/158/158 157/157/157 160/160/160
f 157/157/157 158/158/158 159/159/159
f 153/153/153 155/155/155 156/156/156
f 153/153/153 154/154/154 155/155/155
f 145/145/145 151/151/151 152/152/152
f 145/145/145 152/152/152 146/146/146
f 143/143/143 145/145/145 146/146/146
f 143/143/143 142/142/142 145/145/145
f 141/141/141 142/142/142 143/143/143
f 141/141/141 143/143/143 144/144/144
f 147/147/147 149/149/149 150/150/150
f 147/147/147 148/148/148 149/149/149

#
# MESH 001
#
g surface_001
usemtl surface_001
f 162/162/162 165/165/165 164/164/164
f 161/161/161 165/165/165 162/162/162
f 161/161/161 162/162/162 163/163/163
f 163/163/163 162/162/162 164/164/164

