#
# OBJECT NAME
#
o model_2841
mtllib 2841.mtl

#
# VERTEX BUFFER 000
#
v 0 0.282406 0
v 0.152395 0.249931 -0.0408892
v 0.111384 0.24999 -0.111589
v 0.0405613 0.250092 -0.152144
v -0.0408831 0.25021 -0.151811
v -0.111129 0.250311 -0.110923
v -0.151564 0.250369 -0.0405565
v -0.151564 0.250369 0.0405565
v -0.192393 0.178402 -0.0515515
v -0.192393 0.178402 0.0515515
v -0.111129 0.250311 0.110923
v -0.0408831 0.25021 0.151811
v 0.0405613 0.250092 0.152144
v 0.111384 0.24999 0.111589
v 0.152395 0.249931 0.0408892
v 0.140842 0.178402 -0.140842
v 0.192393 0.178402 -0.0515515
v 0.259251 0.182211 -0.0694658
v 0.189785 0.182211 -0.189785
v 0.0515515 0.178402 -0.192393
v 0.0694657 0.182211 -0.259251
v -0.0515515 0.178402 -0.192393
v -0.0694658 0.182211 -0.259251
v -0.140842 0.178402 -0.140842
v -0.189785 0.182211 -0.189785
v -0.192393 0.178402 -0.0515515
v -0.259251 0.182211 -0.0694658
v -0.192393 0.178402 0.0515515
v -0.259251 0.182211 0.0694657
v -0.140842 0.178402 0.140842
v -0.189785 0.182211 0.189785
v -0.0515515 0.178402 0.192393
v -0.0694658 0.182211 0.259251
v 0.0515515 0.178402 0.192393
v 0.0694657 0.182211 0.259251
v 0.140842 0.178402 0.140842
v 0.189785 0.182211 0.189785
v 0.192393 0.178402 0.0515515
v 0.259252 0.182211 0.0694657
v 0.259251 0.133405 -0.0694658
v 0.189785 0.133405 -0.189785
v 0.0694658 0.133405 -0.259251
v -0.0694658 0.133405 -0.259251
v -0.189785 0.133405 -0.189785
v -0.259251 0.133405 -0.0694658
v -0.259251 0.133405 0.0694658
v -0.189785 0.133405 0.189785
v -0.0694658 0.133405 0.259251
v 0.0694658 0.133405 0.259251
v 0.189785 0.133405 0.189785
v 0.259252 0.133405 0.0694658
v 0.192393 0.178402 -0.0515515
v 0.140842 0.178402 -0.140842
v 0.0515515 0.178402 -0.192393
v -0.0515515 0.178402 -0.192393
v -0.140842 0.178402 -0.140842
v -0.140842 0.178402 0.140842
v -0.0515515 0.178402 0.192393
v 0.0515515 0.178402 0.192393
v 0.140842 0.178402 0.140842
v 0.192393 0.178402 0.0515515
v 0.381474 0.106191 0.455414
v 0 0.106191 0.455414
v 0 0 0.5
v 0.354278 0 0.5
v 0.5 0 -0.5
v 0.354277 0 -0.5
v 0.381474 0.106191 -0.455414
v 0.410892 0.173306 -0.410892
v 0.5 0 -0.354277
v 0.354277 0 -0.5
v 0.5 0 -0.5
v 0.455414 0.106191 -0.381474
v 0.5 0 -0.354277
v 0.5 0 -0.5
v 0.410892 0.173306 -0.410892
v -0.455414 0.106191 0
v -0.455414 0.106191 -0.381474
v -0.5 0 -0.354277
v -0.5 0 0
v 0.455414 0.106191 0
v 0.455414 0.106191 0.381474
v 0.5 0 0.354278
v 0.5 0 0
v 0.354278 0 0.5
v 0 0 0
v 0.5 0 0.354278
v -0.455414 0.106191 0.381474
v -0.455414 0.106191 0
v -0.5 0 0
v -0.5 0 0.354277
v -0.5 0 0.354277
v -0.354277 0 0.5
v -0.5 0 0.5
v -0.5 0 -0.5
v -0.354277 0 -0.5
v -0.5 0 -0.354277
v -0.381474 0.106191 -0.455414
v -0.354277 0 -0.5
v -0.5 0 -0.5
v -0.410892 0.173306 -0.410892
v 0 0.106191 0.455414
v -0.381474 0.106191 0.455414
v -0.354277 0 0.5
v 0 0 0.5
v 0 0.106191 -0.455414
v 0 0 -0.5
v -0.5 0 -0.5
v -0.410892 0.173306 -0.410892
v 0.455414 0.106191 0
v 0.5 0 0
v 0.5 0 -0.354277
v 0 0 -0.5
v 0 0.106191 -0.455414
v 0.354277 0 -0.5
v -0.5 0 0.5
v -0.410892 0.173306 0.410892
v -0.5 0 0.5
v -0.410892 0.173306 0.410892
v 0.5 0 0.5
v 0.410892 0.173306 0.410892
v 0.5 0 0.5
v 0.410892 0.173306 0.410892
v -0.5 0 -0.354277
v -0.354277 0 -0.5
v -0.5 0 0.354277
v -0.354277 0 0.5
v 0.354277 0 -0.5
v 0.5 0 -0.354277
v 0.354278 0 0.5
v 0.5 0 0.354278
v 0.5 0 0.5
v -0.395461 0.133305 0
v 0 0.133305 -0.395461
v -0.395461 0.133305 -0.395461
v 0.395461 0.133305 0
v 0.395461 0.133305 -0.395461
v 0 0.133305 0.395461
v 0.395461 0.133305 0.395461
v -0.395461 0.133305 0.395461
v -0.5 0 0
v 0 0 0.5
v 0.5 0 0
v 0 0 -0.5
v 0 0.133305 0
v -0.395461 0.133305 0.395461
v -0.369628 0.106191 0.43
v 0 0.106191 0.43
v 0 0.133305 0.395461
v -0.395461 0.133305 0
v -0.43 0.106191 0
v -0.43 0.106191 0.369628
v -0.395461 0.133305 0.395461
v -0.395461 0.133305 -0.395461
v -0.43 0.106191 -0.369628
v -0.395461 0.133305 -0.395461
v 0 0.133305 -0.395461
v 0 0.106191 -0.43
v -0.369628 0.106191 -0.43
v 0.369628 0.106191 -0.43
v 0.395461 0.133305 -0.395461
v 0.395461 0.133305 0
v 0.43 0.106191 0
v 0.43 0.106191 -0.369628
v 0.395461 0.133305 -0.395461
v 0.395461 0.133305 0.395461
v 0.43 0.106191 0.369628
v 0.43 0.106191 0
v 0.395461 0.133305 0
v 0 0.133305 0.395461
v 0 0.106191 0.43
v 0.369628 0.106191 0.43
v 0.395461 0.133305 0.395461
v 0.369628 0.106191 0.43
v 0 0.106191 0.43
v 0 0.106191 0.455414
v 0.381474 0.106191 0.455414
v 0.369628 0.106191 -0.43
v 0.395461 0.133305 -0.395461
v 0.410892 0.173306 -0.410892
v 0.381474 0.106191 -0.455414
v 0.395461 0.133305 -0.395461
v 0.43 0.106191 -0.369628
v 0.455414 0.106191 -0.381474
v 0.410892 0.173306 -0.410892
v -0.43 0.106191 0
v -0.43 0.106191 -0.369628
v -0.455414 0.106191 -0.381474
v -0.455414 0.106191 0
v 0.43 0.106191 0
v 0.43 0.106191 0.369628
v 0.455414 0.106191 0.381474
v 0.455414 0.106191 0
v -0.43 0.106191 0.369628
v -0.455414 0.106191 0.381474
v -0.395461 0.133305 -0.395461
v -0.369628 0.106191 -0.43
v -0.381474 0.106191 -0.455414
v -0.410892 0.173306 -0.410892
v 0 0.106191 0.43
v -0.369628 0.106191 0.43
v -0.381474 0.106191 0.455414
v 0 0.106191 0.455414
v -0.369628 0.106191 -0.43
v 0 0.106191 -0.43
v 0 0.106191 -0.455414
v -0.381474 0.106191 -0.455414
v -0.43 0.106191 -0.369628
v -0.395461 0.133305 -0.395461
v -0.410892 0.173306 -0.410892
v -0.455414 0.106191 -0.381474
v 0.43 0.106191 -0.369628
v 0.455414 0.106191 -0.381474
v 0.369628 0.106191 -0.43
v 0.381474 0.106191 -0.455414
v -0.395461 0.133305 0.395461
v -0.43 0.106191 0.369628
v -0.455414 0.106191 0.381474
v -0.410892 0.173306 0.410892
v -0.369628 0.106191 0.43
v -0.395461 0.133305 0.395461
v -0.410892 0.173306 0.410892
v -0.381474 0.106191 0.455414
v 0.395461 0.133305 0.395461
v 0.369628 0.106191 0.43
v 0.381474 0.106191 0.455414
v 0.410892 0.173306 0.410892
v 0.43 0.106191 0.369628
v 0.395461 0.133305 0.395461
v 0.410892 0.173306 0.410892
v 0.455414 0.106191 0.381474

vn 0.00156021 0.999512 0
vn 0.632324 0.755371 -0.169678
vn 0.462402 0.755371 -0.463379
vn 0.168457 0.755371 -0.632324
vn -0.170288 0.755371 -0.631836
vn -0.463379 0.755859 -0.462402
vn -0.632324 0.755859 -0.169067
vn -0.632324 0.755859 0.169067
vn -0.833008 0.505859 -0.2229
vn -0.833008 0.505859 0.2229
vn -0.463379 0.755859 0.462402
vn -0.170288 0.755371 0.631836
vn 0.168457 0.755371 0.632324
vn 0.462402 0.755371 0.463379
vn 0.632324 0.755371 0.169678
vn -0.0388489 0.998047 0.0388489
vn -0.0530701 0.998047 0.0142212
vn 0.652344 0.737305 -0.174805
vn 0.477539 0.737305 -0.477539
vn -0.0142212 0.998047 0.0530701
vn 0.174805 0.737305 -0.652344
vn 0.0142212 0.998047 0.0530701
vn -0.174805 0.737305 -0.652344
vn 0.0388489 0.998047 0.0388489
vn -0.477539 0.737305 -0.477539
vn 0.0530701 0.998047 0.0142212
vn -0.652344 0.737305 -0.174805
vn 0.0530701 0.998047 -0.0142212
vn -0.652344 0.737305 0.174805
vn 0.0388489 0.998047 -0.0388489
vn -0.477539 0.737305 0.477539
vn 0.0142212 0.998047 -0.0530701
vn -0.174805 0.737305 0.652344
vn -0.0142212 0.998047 -0.0530701
vn 0.174805 0.737305 0.652344
vn -0.0388489 0.998047 -0.0388489
vn 0.477539 0.737305 0.477539
vn -0.0530701 0.998047 -0.0142212
vn 0.652344 0.737305 0.174805
vn 0.96582 1.78814e-007 -0.258789
vn 0.707031 3.57628e-007 -0.707031
vn 0.258789 1.19209e-007 -0.96582
vn -0.258789 0 -0.96582
vn -0.707031 -1.78814e-007 -0.707031
vn -0.96582 -6.55651e-007 -0.258789
vn -0.96582 -6.55651e-007 0.258789
vn -0.707031 -1.78814e-007 0.707031
vn -0.258789 0 0.96582
vn 0.258789 1.19209e-007 0.96582
vn 0.707031 3.57628e-007 0.707031
vn 0.96582 1.78814e-007 0.258789
vn 0.835449 0.500977 -0.224121
vn 0.61084 0.501465 -0.611816
vn 0.222778 0.50293 -0.834961
vn -0.224243 0.504395 -0.833496
vn -0.610352 0.505371 -0.609375
vn -0.610352 0.505371 0.609375
vn -0.224243 0.504395 0.833496
vn 0.222778 0.50293 0.834961
vn 0.61084 0.501465 0.611816
vn 0.835449 0.500977 0.224121
vn 0.0253754 0.410889 0.911133
vn 0 0.386963 0.921875
vn 0 0.386963 0.921875
vn 0.0120773 0.398438 0.916992
vn 0.0585022 0.441162 -0.89502
vn 0.0120773 0.398438 -0.916992
vn 0.0253754 0.410889 -0.911133
vn 0.0585022 0.441162 -0.89502
vn 0 -1 0
vn 0 -1 0
vn 0 -1 0
vn 0.911133 0.410889 -0.0253754
vn 0.916992 0.398438 -0.0120773
vn 0.89502 0.441162 -0.0585022
vn 0.89502 0.441162 -0.0585022
vn -0.921875 0.386963 0
vn -0.911133 0.410889 -0.0253754
vn -0.916992 0.398438 -0.0120773
vn -0.921875 0.386963 0
vn 0.921875 0.386963 0
vn 0.911133 0.410889 0.0253754
vn 0.916992 0.398438 0.0120773
vn 0.921875 0.386963 0
vn 0 -1 0
vn 0 -1 0
vn 0 -1 0
vn -0.911133 0.410889 0.0253754
vn -0.921875 0.386963 0
vn -0.921875 0.386963 0
vn -0.916992 0.398438 0.0120773
vn 0 -1 0
vn 0 -1 0
vn 0 -1 0
vn 0 -1 0
vn 0 -1 0
vn 0 -1 0
vn -0.0253754 0.410889 -0.911133
vn -0.0120773 0.398438 -0.916992
vn -0.0585022 0.441162 -0.89502
vn -0.0585022 0.441162 -0.89502
vn 0 0.386963 0.921875
vn -0.0253754 0.410889 0.911133
vn -0.0120773 0.398438 0.916992
vn 0 0.386963 0.921875
vn 0 0.386963 -0.921875
vn 0 0.386963 -0.921875
vn -0.89502 0.441162 -0.0585022
vn -0.89502 0.441162 -0.0585022
vn 0.921875 0.386963 0
vn 0.921875 0.386963 0
vn 0.916992 0.398438 -0.0120773
vn 0 0.386963 -0.921875
vn 0 0.386963 -0.921875
vn 0.0120773 0.398438 -0.916992
vn -0.89502 0.441162 0.0585022
vn -0.89502 0.441162 0.0585022
vn -0.0585022 0.441162 0.89502
vn -0.0585022 0.441162 0.89502
vn 0.0585022 0.441162 0.89502
vn 0.0585022 0.441162 0.89502
vn 0.89502 0.441162 0.0585022
vn 0.89502 0.441162 0.0585022
vn 0 -1 0
vn 0 -1 0
vn 0 -1 0
vn 0 -1 0
vn 0 -1 0
vn 0 -1 0
vn 0 -1 0
vn 0 -1 0
vn 0 -1 0
vn 0 1 0
vn 0 1 0
vn 0 1 0
vn 0 1 0
vn 0 1 0
vn 0 1 0
vn 0 1 0
vn 0 1 0
vn 0 -1 0
vn 0 -1 0
vn 0 -1 0
vn 0 -1 0
vn 0 1 0
vn 0 0.786133 0.617188
vn 0 0.786133 0.617188
vn 0 0.786133 0.617188
vn 0 0.786133 0.617188
vn -0.617188 0.786133 0
vn -0.617188 0.786133 0
vn -0.617188 0.786133 0
vn -0.617188 0.786133 0
vn -0.617188 0.786133 0
vn -0.617188 0.786133 0
vn 0 0.786133 -0.617188
vn 0 0.786133 -0.617188
vn 0 0.786133 -0.617188
vn 0 0.786133 -0.617188
vn 0 0.786133 -0.617188
vn 0 0.786133 -0.617188
vn 0.617188 0.786133 0
vn 0.617188 0.786133 0
vn 0.617188 0.786133 0
vn 0.617188 0.786133 0
vn 0.617188 0.786133 0
vn 0.617188 0.786133 0
vn 0.617188 0.786133 0
vn 0.617188 0.786133 0
vn 0 0.786133 0.617188
vn 0 0.786133 0.617188
vn 0 0.786133 0.617188
vn 0 0.786133 0.617188
vn 0 1 0
vn 0 1 0
vn 0 1 0
vn 0 1 0
vn -0.845215 0.531738 -0.0434265
vn -0.845215 0.531738 -0.0434265
vn -0.845215 0.531738 -0.0434265
vn -0.845215 0.531738 -0.0434265
vn 0.0434265 0.531738 0.845215
vn 0.0434265 0.531738 0.845215
vn 0.0434265 0.531738 0.845215
vn 0.0434265 0.531738 0.845215
vn 0 1 0
vn 0 1 0
vn 0 1 0
vn 0 1 0
vn 0 1 0
vn 0 1 0
vn 0 1 0
vn 0 1 0
vn 0 1 0
vn 0 1 0
vn 0.845215 0.531738 -0.0434265
vn 0.845215 0.531738 -0.0434265
vn 0.845215 0.531738 -0.0434265
vn 0.845215 0.531738 -0.0434265
vn 0 1 0
vn 0 1 0
vn 0 1 0
vn 0 1 0
vn 0 1 0
vn 0 1 0
vn 0 1 0
vn 0 1 0
vn -0.0434265 0.531738 0.845215
vn -0.0434265 0.531738 0.845215
vn -0.0434265 0.531738 0.845215
vn -0.0434265 0.531738 0.845215
vn 0 1 0
vn 0 1 0
vn 0 1 0
vn 0 1 0
vn -0.0434265 0.531738 -0.845215
vn -0.0434265 0.531738 -0.845215
vn -0.0434265 0.531738 -0.845215
vn -0.0434265 0.531738 -0.845215
vn 0.845215 0.531738 0.0434265
vn 0.845215 0.531738 0.0434265
vn 0.845215 0.531738 0.0434265
vn 0.845215 0.531738 0.0434265
vn -0.845215 0.531738 0.0434265
vn -0.845215 0.531738 0.0434265
vn -0.845215 0.531738 0.0434265
vn -0.845215 0.531738 0.0434265
vn 0.0434265 0.531738 -0.845215
vn 0.0434265 0.531738 -0.845215
vn 0.0434265 0.531738 -0.845215
vn 0.0434265 0.531738 -0.845215

vt 0.131441 0.869668
vt 0.0474416 0.892551
vt 0.0474878 0.847128
vt 0.0695879 0.807426
vt 0.109335 0.786181
vt 0.15356 0.78632
vt 0.192952 0.808148
vt 0.215382 0.847201
vt 0.212855 0.788181
vt 0.242664 0.839887
vt 0.213986 0.891654
vt 0.193532 0.931395
vt 0.15398 0.954431
vt 0.109209 0.952504
vt 0.0700524 0.931338
vt 0.73965 0.16529
vt 0.739806 0.205441
vt 0.688227 0.219135
vt 0.689151 0.151681
vt 0.75993 0.130642
vt 0.722291 0.0929004
vt 0.794666 0.110667
vt 0.780977 0.0590776
vt 0.834841 0.110496
vt 0.84844 0.0600037
vt 0.869467 0.130797
vt 0.907211 0.0931559
vt 0.889457 0.165537
vt 0.940997 0.151851
vt 0.889603 0.205687
vt 0.940143 0.219308
vt 0.869304 0.240337
vt 0.906959 0.278074
vt 0.834571 0.260332
vt 0.848266 0.311868
vt 0.794443 0.260462
vt 0.780808 0.311012
vt 0.759785 0.240177
vt 0.722043 0.27782
vt 0.650212 0.229483
vt 0.650881 0.141508
vt 0.694369 0.0650936
vt 0.770632 0.0210606
vt 0.858614 0.0217361
vt 0.935022 0.0652372
vt 0.979022 0.141505
vt 0.978404 0.229478
vt 0.934882 0.305881
vt 0.858617 0.349891
vt 0.770631 0.34927
vt 0.694222 0.305731
vt 0.0204989 0.899515
vt 0.0205137 0.839976
vt 0.050009 0.788183
vt 0.10178 0.758866
vt 0.161056 0.758831
vt 0.241953 0.899243
vt 0.212923 0.951081
vt 0.161219 0.980931
vt 0.101901 0.980116
vt 0.0503551 0.951013
vt 0.403507 0.584274
vt 0.0308414 0.584274
vt 0.0308414 0.515426
vt 0.403507 0.515426
vt 0.508229 0.515426
vt 0.403507 0.515426
vt 0.403507 0.584274
vt 0.403507 0.618017
vt 0.239003 0.735493
vt 0.1409 0.637391
vt 0.239003 0.637391
vt 0.403507 0.584274
vt 0.403507 0.515426
vt 0.508229 0.515426
vt 0.403507 0.618017
vt 0.0308414 0.584274
vt 0.403507 0.584274
vt 0.403507 0.515426
vt 0.0308414 0.515426
vt 0.0308414 0.584274
vt 0.403507 0.584274
vt 0.403507 0.515426
vt 0.0308414 0.515426
vt 0.943382 0.99246
vt 0.757721 0.758876
vt 0.99246 0.944537
vt 0.403507 0.584274
vt 0.0308414 0.584274
vt 0.0308414 0.515426
vt 0.403507 0.515426
vt 0.761547 0.396692
vt 0.859148 0.494871
vt 0.761547 0.494871
vt 0.0274346 0.63739
vt 0.125537 0.63739
vt 0.0274346 0.735493
vt 0.403507 0.584274
vt 0.403507 0.515426
vt 0.508229 0.515426
vt 0.403507 0.618017
vt 0.0308414 0.584274
vt 0.403507 0.584274
vt 0.403507 0.515426
vt 0.0308414 0.515426
vt 0.0308414 0.584274
vt 0.0308414 0.515426
vt 0.508229 0.515426
vt 0.403507 0.618017
vt 0.0308414 0.584274
vt 0.0308414 0.515426
vt 0.403507 0.515426
vt 0.0308414 0.515426
vt 0.0308414 0.584274
vt 0.403507 0.515426
vt 0.508229 0.515426
vt 0.403507 0.618017
vt 0.508229 0.515426
vt 0.403507 0.618017
vt 0.508229 0.515426
vt 0.403507 0.618017
vt 0.508229 0.515426
vt 0.403507 0.618018
vt 0.522982 0.573216
vt 0.57206 0.524714
vt 0.522982 0.944536
vt 0.57206 0.99246
vt 0.943381 0.524714
vt 0.99246 0.573216
vt 0.883825 0.494645
vt 0.980424 0.39747
vt 0.980424 0.494645
vt 0.00925842 0.238467
vt 0.235884 0.465092
vt 0.00925842 0.465092
vt 0.462509 0.238467
vt 0.462509 0.465092
vt 0.235884 0.0122902
vt 0.462509 0.0122902
vt 0.00925842 0.0122902
vt 0.522982 0.758876
vt 0.757721 0.99246
vt 0.99246 0.758876
vt 0.757721 0.524714
vt 0.235884 0.238467
vt 0.0126236 0.613351
vt 0.0126236 0.58629
vt 0.23787 0.58629
vt 0.23787 0.613351
vt 0.541128 0.23623
vt 0.509843 0.23623
vt 0.509843 0.00991213
vt 0.541128 0.00991213
vt 0.541128 0.462548
vt 0.509843 0.462548
vt 0.0126236 0.484559
vt 0.23787 0.484559
vt 0.23787 0.511664
vt 0.0126236 0.511664
vt 0.461935 0.511664
vt 0.461935 0.484559
vt 0.562158 0.23623
vt 0.59549 0.23623
vt 0.59549 0.462548
vt 0.562158 0.462548
vt 0.562158 0.00991213
vt 0.59549 0.00991184
vt 0.59549 0.23623
vt 0.562158 0.23623
vt 0.23787 0.613351
vt 0.23787 0.58629
vt 0.0146226 0.58629
vt 0.0146223 0.613351
vt 0.0146226 0.58629
vt 0.23787 0.58629
vt 0.23787 0.58177
vt 0.0146226 0.58177
vt 0.394783 0.939684
vt 0.394783 0.885862
vt 0.398416 0.891821
vt 0.398416 0.939684
vt 0.402491 0.859088
vt 0.455849 0.859088
vt 0.455849 0.865097
vt 0.407358 0.865097
vt 0.509843 0.23623
vt 0.509843 0.462548
vt 0.50506 0.462548
vt 0.50506 0.23623
vt 0.59549 0.23623
vt 0.59549 0.00991184
vt 0.599687 0.00991184
vt 0.599687 0.23623
vt 0.509843 0.00991213
vt 0.50506 0.00991213
vt 0.380165 0.887012
vt 0.380162 0.94037
vt 0.375848 0.94037
vt 0.375851 0.893193
vt 0.23787 0.58629
vt 0.0126236 0.58629
vt 0.0126236 0.58177
vt 0.23787 0.58177
vt 0.0126236 0.511664
vt 0.23787 0.511664
vt 0.23787 0.515751
vt 0.0126236 0.515751
vt 0.317316 0.861591
vt 0.369825 0.861591
vt 0.364957 0.866359
vt 0.317316 0.866359
vt 0.59549 0.462548
vt 0.599687 0.462548
vt 0.461935 0.511664
vt 0.461935 0.515751
vt 0.371764 0.848828
vt 0.319267 0.848828
vt 0.319267 0.84406
vt 0.367475 0.84406
vt 0.381951 0.769283
vt 0.381951 0.82402
vt 0.377637 0.818101
vt 0.377637 0.769283
vt 0.39554 0.822655
vt 0.39554 0.76847
vt 0.3994 0.76847
vt 0.3994 0.816475
vt 0.456143 0.848882
vt 0.401647 0.848883
vt 0.406263 0.844569
vt 0.456143 0.844568


#
# MESH 000
#
g surface_000
usemtl surface_000
f 2/2/2 61/61/61 52/52/52
f 2/2/2 15/15/15 61/61/61
f 15/15/15 60/60/60 61/61/61
f 15/15/15 14/14/14 60/60/60
f 14/14/14 59/59/59 60/60/60
f 14/14/14 13/13/13 59/59/59
f 13/13/13 58/58/58 59/59/59
f 3/3/3 2/2/2 52/52/52
f 1/1/1 2/2/2 3/3/3
f 1/1/1 15/15/15 2/2/2
f 1/1/1 14/14/14 15/15/15
f 1/1/1 13/13/13 14/14/14
f 1/1/1 12/12/12 13/13/13
f 13/13/13 12/12/12 58/58/58
f 12/12/12 57/57/57 58/58/58
f 12/12/12 11/11/11 57/57/57
f 11/11/11 10/10/10 57/57/57
f 3/3/3 52/52/52 53/53/53
f 4/4/4 3/3/3 53/53/53
f 1/1/1 3/3/3 4/4/4
f 1/1/1 4/4/4 5/5/5
f 1/1/1 5/5/5 6/6/6
f 1/1/1 6/6/6 7/7/7
f 1/1/1 7/7/7 8/8/8
f 1/1/1 8/8/8 11/11/11
f 1/1/1 11/11/11 12/12/12
f 4/4/4 53/53/53 54/54/54
f 5/5/5 4/4/4 54/54/54
f 5/5/5 54/54/54 55/55/55
f 6/6/6 5/5/5 55/55/55
f 6/6/6 55/55/55 56/56/56
f 7/7/7 6/6/6 56/56/56
f 7/7/7 56/56/56 9/9/9
f 8/8/8 7/7/7 9/9/9
f 8/8/8 9/9/9 10/10/10
f 11/11/11 8/8/8 10/10/10
f 39/39/39 51/51/51 40/40/40
f 37/37/37 51/51/51 39/39/39
f 37/37/37 50/50/50 51/51/51
f 35/35/35 50/50/50 37/37/37
f 35/35/35 49/49/49 50/50/50
f 33/33/33 49/49/49 35/35/35
f 33/33/33 48/48/48 49/49/49
f 39/39/39 40/40/40 18/18/18
f 17/17/17 39/39/39 18/18/18
f 17/17/17 38/38/38 39/39/39
f 38/38/38 37/37/37 39/39/39
f 38/38/38 36/36/36 37/37/37
f 36/36/36 35/35/35 37/37/37
f 36/36/36 34/34/34 35/35/35
f 34/34/34 33/33/33 35/35/35
f 18/18/18 40/40/40 41/41/41
f 18/18/18 41/41/41 19/19/19
f 16/16/16 18/18/18 19/19/19
f 16/16/16 17/17/17 18/18/18
f 19/19/19 41/41/41 42/42/42
f 19/19/19 42/42/42 21/21/21
f 20/20/20 19/19/19 21/21/21
f 20/20/20 16/16/16 19/19/19
f 21/21/21 42/42/42 43/43/43
f 21/21/21 43/43/43 23/23/23
f 22/22/22 21/21/21 23/23/23
f 22/22/22 20/20/20 21/21/21
f 23/23/23 43/43/43 44/44/44
f 23/23/23 44/44/44 25/25/25
f 24/24/24 23/23/23 25/25/25
f 24/24/24 22/22/22 23/23/23
f 25/25/25 44/44/44 45/45/45
f 25/25/25 45/45/45 27/27/27
f 26/26/26 25/25/25 27/27/27
f 26/26/26 24/24/24 25/25/25
f 27/27/27 45/45/45 46/46/46
f 27/27/27 46/46/46 29/29/29
f 28/28/28 27/27/27 29/29/29
f 28/28/28 26/26/26 27/27/27
f 29/29/29 46/46/46 47/47/47
f 29/29/29 47/47/47 31/31/31
f 30/30/30 29/29/29 31/31/31
f 30/30/30 28/28/28 29/29/29
f 31/31/31 47/47/47 48/48/48
f 31/31/31 48/48/48 33/33/33
f 32/32/32 31/31/31 33/33/33
f 32/32/32 30/30/30 31/31/31
f 34/34/34 32/32/32 33/33/33
f 130/130/130 131/131/131 132/132/132
f 95/95/95 96/96/96 97/97/97
f 92/92/92 93/93/93 94/94/94
f 70/70/70 71/71/71 72/72/72
f 228/228/228 230/230/230 231/231/231
f 228/228/228 229/229/229 230/230/230
f 224/224/224 226/226/226 227/227/227
f 224/224/224 225/225/225 226/226/226
f 220/220/220 222/222/222 223/223/223
f 220/220/220 221/221/221 222/222/222
f 216/216/216 218/218/218 219/219/219
f 216/216/216 217/217/217 218/218/218
f 205/205/205 214/214/214 215/215/215
f 205/205/205 215/215/215 206/206/206
f 204/204/204 205/205/205 206/206/206
f 204/204/204 206/206/206 207/207/207
f 212/212/212 193/193/193 213/213/213
f 212/212/212 190/190/190 193/193/193
f 190/190/190 192/192/192 193/193/193
f 190/190/190 191/191/191 192/192/192
f 208/208/208 210/210/210 211/211/211
f 208/208/208 209/209/209 210/210/210
f 200/200/200 202/202/202 203/203/203
f 200/200/200 201/201/201 202/202/202
f 196/196/196 198/198/198 199/199/199
f 196/196/196 197/197/197 198/198/198
f 194/194/194 189/189/189 195/195/195
f 194/194/194 186/186/186 189/189/189
f 186/186/186 188/188/188 189/189/189
f 186/186/186 187/187/187 188/188/188
f 182/182/182 184/184/184 185/185/185
f 182/182/182 183/183/183 184/184/184
f 178/178/178 180/180/180 181/181/181
f 178/178/178 179/179/179 180/180/180
f 174/174/174 176/176/176 177/177/177
f 174/174/174 175/175/175 176/176/176
f 170/170/170 172/172/172 173/173/173
f 170/170/170 171/171/171 172/172/172
f 166/166/166 168/168/168 169/169/169
f 166/166/166 167/167/167 168/168/168
f 162/162/162 164/164/164 165/165/165
f 162/162/162 163/163/163 164/164/164
f 160/160/160 157/157/157 161/161/161
f 160/160/160 158/158/158 157/157/157
f 156/156/156 157/157/157 158/158/158
f 156/156/156 158/158/158 159/159/159
f 154/154/154 155/155/155 151/151/151
f 154/154/154 151/151/151 150/150/150
f 150/150/150 151/151/151 152/152/152
f 150/150/150 152/152/152 153/153/153
f 146/146/146 148/148/148 149/149/149
f 146/146/146 147/147/147 148/148/148
f 138/138/138 133/133/133 140/140/140
f 138/138/138 145/145/145 133/133/133
f 145/145/145 134/134/134 133/133/133
f 133/133/133 134/134/134 135/135/135
f 145/145/145 138/138/138 136/136/136
f 145/145/145 136/136/136 134/134/134
f 134/134/134 136/136/136 137/137/137
f 136/136/136 138/138/138 139/139/139
f 122/122/122 82/82/82 123/123/123
f 122/122/122 83/83/83 82/82/82
f 81/81/81 82/82/82 83/83/83
f 81/81/81 83/83/83 84/84/84
f 62/62/62 120/120/120 121/121/121
f 62/62/62 65/65/65 120/120/120
f 62/62/62 64/64/64 65/65/65
f 62/62/62 63/63/63 64/64/64
f 118/118/118 103/103/103 119/119/119
f 118/118/118 104/104/104 103/103/103
f 102/102/102 103/103/103 104/104/104
f 102/102/102 104/104/104 105/105/105
f 88/88/88 116/116/116 117/117/117
f 88/88/88 91/91/91 116/116/116
f 88/88/88 90/90/90 91/91/91
f 88/88/88 89/89/89 90/90/90
f 113/113/113 68/68/68 115/115/115
f 113/113/113 114/114/114 68/68/68
f 73/73/73 111/111/111 112/112/112
f 73/73/73 110/110/110 111/111/111
f 108/108/108 78/78/78 109/109/109
f 108/108/108 79/79/79 78/78/78
f 77/77/77 78/78/78 79/79/79
f 77/77/77 79/79/79 80/80/80
f 98/98/98 106/106/106 107/107/107
f 98/98/98 107/107/107 99/99/99
f 98/98/98 99/99/99 100/100/100
f 98/98/98 100/100/100 101/101/101
f 73/73/73 75/75/75 76/76/76
f 73/73/73 74/74/74 75/75/75
f 66/66/66 68/68/68 69/69/69
f 66/66/66 67/67/67 68/68/68
f 124/124/124 86/86/86 141/141/141
f 124/124/124 125/125/125 86/86/86
f 86/86/86 125/125/125 144/144/144
f 86/86/86 144/144/144 128/128/128
f 86/86/86 128/128/128 129/129/129
f 86/86/86 129/129/129 143/143/143
f 87/87/87 86/86/86 143/143/143
f 85/85/85 86/86/86 87/87/87
f 142/142/142 86/86/86 85/85/85
f 127/127/127 86/86/86 142/142/142
f 126/126/126 86/86/86 127/127/127
f 141/141/141 86/86/86 126/126/126

