#
# OBJECT NAME
#
o model_2931
mtllib 2931.mtl

#
# VERTEX BUFFER 000
#
v 0.0481229 0.243542 0.0766956
v 0.100117 0.228535 0.0999342
v 0.0457501 0.243542 0.119722
v 0.0808952 0.243542 0.0471239
v 0.125009 0.243542 0.0487113
v 0.119338 0.243542 0.152744
v 0.100117 0.228535 0.0999342
v 0.15211 0.243542 0.123172
v 0.154483 0.243542 0.0801463
v 0.0752244 0.243542 0.151156
v 0.154483 0.243542 0.0801463
v 0.0457501 0.243542 0.119722
v 0.159348 0.48823 0.0783758
v 0.100117 0.501885 0.0999342
v 0.156763 0.48823 0.125251
v 0.143444 0.435153 0.218974
v 0.21697 0.435153 0.152629
v 0.121058 0.48823 0.157469
v -0.0218568 0.435153 0.144329
v 0.0444733 0.435153 0.215413
v 0.0729971 0.48823 0.15574
v 0.0408853 0.48823 0.121493
v -0.0220339 0.298318 0.144393
v -0.0169153 0.298318 0.0471385
v 0.0567177 0.298318 -0.0193032
v 0.155832 0.298318 -0.0157364
v 0.22209 0.435153 0.0555394
v 0.222267 0.298318 0.0554749
v 0.244227 0.366753 0.0474821
v 0.23821 0.366753 0.162282
v 0.217148 0.298318 0.152729
v 0.0408853 0.48823 0.121493
v 0.100117 0.501885 0.0999342
v 0.0434706 0.48823 0.0746164
v 0.0444012 0.298318 0.215604
v -0.0220339 0.298318 0.144393
v 0.0344071 0.366753 0.236461
v -0.0439943 0.366753 0.152386
v 0.143515 0.298318 0.219171
v 0.15134 0.366753 0.240669
v -0.016737 0.435153 0.0472388
v -0.0218568 0.435153 0.144329
v 0.222267 0.298318 0.0554749
v -0.0379776 0.366753 0.0375856
v -0.0439943 0.366753 0.152386
v 0.0791753 0.48823 0.0423987
v 0.0567892 0.435153 -0.0191066
v 0.0488932 0.366753 -0.0408008
v 0.22209 0.435153 0.0555394
v 0.244227 0.366753 0.0474821
v 0.165826 0.366753 -0.0365928
v 0.15576 0.435153 -0.0155449
v 0.159348 0.48823 0.0783758
v 0.127236 0.48823 0.0441282
v 0.164881 0.0020065 0.121069
v 0.125238 0.002007 0.117785
v 0.111973 0.0020065 0.0964229
v 0.190154 0.0020065 0.0679673
v 0.193118 0.0020045 0.0955559
v 0.110131 0.0020065 0.0728683
v 0.138611 0.0020065 0.0455518
v 0.173608 0.0020065 0.0470914
v 0.190154 0.0020065 0.0679673
v 0.111973 0.0020065 0.0964229
v 0.0920799 0.002007 0.129854
v 0.0638223 0.0020065 0.157851
v 0.0257923 0.0020045 0.156457
v 0.0103293 0.0020065 0.133418
v 0.0885103 0.0020065 0.104962
v 0.00958537 0.0020065 0.106791
v 0.0354047 0.0020065 0.0831159
v 0.0747806 0.0020065 0.0857347
v 0.0885103 0.0020065 0.104962
v 0.0103293 0.0020065 0.133418
v 0.264464 0.239717 0.0786865
v 0.266354 0.224924 0.0402161
v 0.228691 0.290911 0.0539245
v 0.245795 0.272985 0.0854523
v 0.228691 0.290911 0.0539245
v 0.266354 0.224924 0.0402161
v 0.238083 0.23972 0.00686763
v 0.219372 0.272978 0.013501
v -0.0200601 0.272985 0.182216
v -0.0272228 0.290911 0.147069
v -0.0648861 0.224924 0.160778
v -0.0387003 0.239717 0.189029
v -0.0460676 0.272978 0.110113
v -0.0646556 0.23972 0.117055
v 0.112065 0.269713 0.132545
v 0.0455065 0.232819 0.15841
v 0.085723 0.224796 0.163669
v -0.0200601 0.272985 0.182216
v 0.0141654 0.254332 0.172089
v 0.0068171 0.27219 0.134813
v -0.0272228 0.290911 0.147069
v 0.0832522 0.130243 0.19602
v -0.0387003 0.239717 0.189029
v -0.00560296 0.217592 0.17935
v 0.130693 0.130242 0.183897
v 0.123108 0.071774 0.163058
v 0.174865 0.130243 0.162676
v -0.0646556 0.23972 0.117055
v -0.0315876 0.218155 0.102671
v -0.0323314 0.203616 0.149058
v -0.0648861 0.224924 0.160778
v 0.0214549 0.232823 0.0857093
v -0.0122995 0.254331 0.0955354
v 0.038767 0.249716 0.12304
v 0.121287 0.223276 0.158054
v 0.0779141 0.0717745 0.0388883
v 0.138611 0.0020065 0.0455518
v 0.110131 0.0020065 0.0728683
v 0.00238029 0.185993 0.136276
v 0.00422269 0.199368 0.0920233
v -0.00648852 0.130243 0.139513
v 0.173608 0.0020065 0.0470914
v 0.121971 0.0717745 0.0095852
v 0.176084 0.071775 0.0228142
v 0.0917256 0.271187 0.0771863
v 0.0814055 0.224057 0.0484808
v 0.0505319 0.224778 0.0662942
v 0.193118 0.0020045 0.0955559
v 0.209114 0.0717745 0.111886
v 0.177065 0.071775 0.158443
v 0.00422269 0.199368 0.0920233
v 0.038767 0.249716 0.12304
v 0.0214549 0.232823 0.0857093
v 0.00238029 0.185993 0.136276
v 0.0274165 0.198305 0.165089
v -0.0323314 0.203616 0.149058
v 0.071214 0.130243 0.0204798
v 0.0275522 0.130243 0.040845
v 0.0788089 0.071775 0.194205
v 0.0103293 0.0020065 0.133418
v 0.0257923 0.0020045 0.156457
v -0.00632591 0.0717745 0.139446
v 0.164881 0.0020065 0.121069
v 0.0455065 0.232819 0.15841
v -0.0460676 0.272978 0.110113
v 0.190154 0.0020065 0.0679673
v 0.207083 0.0717745 0.0617715
v -0.00699868 0.130242 0.086456
v 0.0253297 0.0717745 0.0447596
v -0.00761897 0.071775 0.0896768
v 0.111973 0.0020065 0.0964229
v 0.100379 0.0717745 0.100609
v 0.0248743 0.130243 0.180474
v -0.00648852 0.130243 0.139513
v 0.0243335 0.0717745 0.179141
v 0.100379 0.0717745 0.100609
v 0.111973 0.0020065 0.0964229
v 0.0274165 0.198305 0.165089
v 0.038767 0.249716 0.12304
v -0.00632591 0.0717745 0.139446
v 0.0920799 0.002007 0.129854
v 0.0638223 0.0020065 0.157851
v 0.0885103 0.0020065 0.104962
v 0.00958537 0.0020065 0.106791
v 0.0103293 0.0020065 0.133418
v 0.0885103 0.0020065 0.104962
v 0.0747806 0.0020065 0.0857347
v 0.0354047 0.0020065 0.0831159
v 0.152103 0.224796 0.139508
v 0.209555 0.130243 0.113255
v 0.198431 0.198305 0.102845
v 0.207251 0.130243 0.0617181
v 0.173538 0.130242 0.020746
v 0.117714 0.130243 0.00802883
v 0.116543 0.224778 0.0422681
v 0.151965 0.232823 0.0382075
v 0.180271 0.232819 0.10936
v 0.162699 0.249716 0.0779328
v 0.162699 0.249716 0.0779328
v 0.180271 0.232819 0.10936
v 0.213073 0.254421 0.0998363
v 0.194679 0.272307 0.0664453
v 0.198431 0.198305 0.102845
v 0.23298 0.217503 0.0926564
v 0.19908 0.185993 0.0646827
v 0.169233 0.199368 0.0319643
v 0.203498 0.218069 0.0169595
v 0.233957 0.203501 0.0521449
v 0.228691 0.290911 0.0539245
v 0.219372 0.272978 0.013501
v 0.18404 0.25442 0.0239256
v 0.151965 0.232823 0.0382075
v 0.264464 0.239717 0.0786865
v 0.245795 0.272985 0.0854523
v 0.19908 0.185993 0.0646827
v 0.233957 0.203501 0.0521449
v 0.266354 0.224924 0.0402161
v 0.162699 0.249716 0.0779328
v 0.238083 0.23972 0.00686763
v 0.19908 0.185993 0.0646827
v 0.00238029 0.185993 0.136276
v 0.266354 0.224924 0.0402161
v 0.169233 0.199368 0.0319643
v 0.19908 0.185993 0.0646827
v -0.0648861 0.224924 0.160778
v 0.00238029 0.185993 0.136276
v 0.125238 0.002007 0.117785

vn -0.515625 -0.819336 -0.250244
vn -1.19209e-007 -1 2.98023e-007
vn -0.534668 -0.821777 0.19458
vn -0.197144 -0.816895 -0.541504
vn 0.234009 -0.819336 -0.522949
vn 0.197144 -0.816895 0.541504
vn -1.19209e-007 -1 2.98023e-007
vn 0.515625 -0.819336 0.250244
vn 0.534668 -0.821777 -0.19458
vn -0.234009 -0.819336 0.522949
vn 0.534668 -0.821777 -0.19458
vn -0.534668 -0.821777 0.19458
vn 0.539063 0.818359 -0.196289
vn -1.19209e-007 1 2.38419e-007
vn 0.519531 0.815918 0.252197
vn 0.294189 0.509766 0.808105
vn 0.773438 0.512207 0.37207
vn 0.198853 0.813477 0.545898
vn -0.804688 0.515137 0.292969
vn -0.353516 0.512207 0.782227
vn -0.235962 0.815918 0.527344
vn -0.539063 0.818359 0.196289
vn -0.799805 -0.524414 0.291016
vn -0.768555 -0.521484 -0.369629
vn -0.292236 -0.518555 -0.803223
vn 0.351318 -0.521484 -0.777344
vn 0.804688 0.515137 -0.292969
vn 0.799805 -0.524414 -0.291016
vn 0.939453 0.0011673 -0.341797
vn 0.901855 0.00122929 0.431885
vn 0.768555 -0.521484 0.369629
vn -0.539063 0.818359 0.196289
vn -1.19209e-007 1 2.38419e-007
vn -0.519531 0.815918 -0.252197
vn -0.351318 -0.521484 0.777344
vn -0.799805 -0.524414 0.291016
vn -0.413086 0.00122929 0.910645
vn -0.939453 0.0011673 0.341797
vn 0.292236 -0.518555 0.803223
vn 0.341797 0.001297 0.939453
vn -0.773438 0.512207 -0.37207
vn -0.804688 0.515137 0.292969
vn 0.799805 -0.524414 -0.291016
vn -0.901855 0.00122929 -0.431885
vn -0.939453 0.0011673 0.341797
vn -0.198853 0.813477 -0.545898
vn -0.294189 0.509766 -0.808105
vn -0.341797 0.001297 -0.939453
vn 0.804688 0.515137 -0.292969
vn 0.939453 0.0011673 -0.341797
vn 0.413086 0.00122929 -0.910645
vn 0.353516 0.512207 -0.782227
vn 0.539063 0.818359 -0.196289
vn 0.235962 0.815918 -0.527344
vn -2.32458e-005 -1 -4.70877e-006
vn -2.32458e-005 -1 -4.70877e-006
vn -2.32458e-005 -1 -4.70877e-006
vn -2.32458e-005 -1 -4.70877e-006
vn -2.32458e-005 -1 -4.70877e-006
vn 0 -1 0
vn 0 -1 0
vn 0 -1 0
vn 0 -1 0
vn 0 -1 0
vn 1.4782e-005 -1 -1.8537e-005
vn 1.4782e-005 -1 -1.8537e-005
vn 1.4782e-005 -1 -1.8537e-005
vn 1.4782e-005 -1 -1.8537e-005
vn 1.4782e-005 -1 -1.8537e-005
vn 0 -1 0
vn 0 -1 0
vn 0 -1 0
vn 0 -1 0
vn 0 -1 0
vn 0.84375 0.511719 -0.1604
vn 0.84375 0.511719 -0.1604
vn 0.84375 0.511719 -0.1604
vn 0.84375 0.511719 -0.1604
vn 0.755859 0.512695 -0.406738
vn 0.755859 0.512695 -0.406738
vn 0.755859 0.512695 -0.406738
vn 0.755859 0.512695 -0.406738
vn -0.749512 0.511719 0.419434
vn -0.806152 0.516602 0.287109
vn -0.806152 0.516602 0.287109
vn -0.749512 0.511719 0.419434
vn -0.840332 0.512695 0.17395
vn -0.840332 0.512695 0.17395
vn 0.237915 0.717285 0.654297
vn 0.176147 0.520508 0.834961
vn 0.100037 0.368408 0.923828
vn 0.489258 0.496094 0.716797
vn 0.541016 0.457031 0.705566
vn 0.468018 0.868164 -0.164429
vn 0.42041 0.894043 -0.15332
vn 0.0225983 0.121765 0.992188
vn -0.00969696 -0.432373 0.901367
vn 0.0499878 -0.45752 0.887695
vn 0.339111 0.129395 0.931641
vn 0.306396 -0.443604 0.841797
vn 0.620117 0.121216 0.774902
vn -0.591309 -0.488037 -0.641113
vn -0.535645 -0.504395 -0.676758
vn -0.467529 -0.870605 0.151611
vn -0.509277 -0.843262 0.169922
vn -0.296387 0.540039 -0.787598
vn 0.00118446 0.509277 -0.859863
vn 0.129761 0.990234 -0.0490112
vn 0.322266 0.334229 0.885254
vn -0.307373 -0.438721 -0.844238
vn -0.0891113 -0.460938 -0.882813
vn -0.773438 -0.527832 -0.350342
vn -0.791504 -0.55957 0.244385
vn -0.773438 -0.101746 -0.625
vn -0.943848 0.0577393 0.324463
vn 0.472168 -0.332031 -0.816406
vn -0.0672607 -0.244873 -0.966797
vn 0.483643 -0.17041 -0.85791
vn -0.227051 0.750488 -0.620605
vn -0.319092 0.358887 -0.876953
vn -0.428467 0.37085 -0.82373
vn 0.884766 -0.3396 0.317627
vn 0.945313 -0.110718 0.305908
vn 0.561523 -0.212524 0.799316
vn -0.773438 -0.101746 -0.625
vn 0.129761 0.990234 -0.0490112
vn -0.296387 0.540039 -0.787598
vn -0.791504 -0.55957 0.244385
vn -0.210693 -0.0461731 0.976074
vn -0.467529 -0.870605 0.151611
vn -0.337646 0.156494 -0.927734
vn -0.597168 0.126099 -0.791992
vn 0.0836792 -0.212402 0.973145
vn -0.955566 -0.242188 0.166992
vn -0.474854 -0.336426 0.812988
vn -0.949707 -0.0979614 0.295898
vn 0.277588 -0.518555 0.808594
vn 0.176147 0.520508 0.834961
vn -0.051239 0.54248 -0.838379
vn 0.838379 -0.246216 -0.48584
vn 0.917969 -0.0997314 -0.383789
vn -0.941406 0.0612793 -0.331299
vn -0.569336 -0.244629 -0.78418
vn -0.922363 -0.169067 -0.34668
vn -0.915039 -0.237915 0.324219
vn -1.19209e-006 -1 -3.57628e-006
vn -0.525391 0.0706787 0.847656
vn -0.943848 0.0577393 0.324463
vn -0.527344 -0.109497 0.842285
vn -1.19209e-006 -1 -3.57628e-006
vn -0.915039 -0.237915 0.324219
vn -0.210693 -0.0461731 0.976074
vn 0.129761 0.990234 -0.0490112
vn -0.949707 -0.0979614 0.295898
vn 0.803223 -0.505859 0.312744
vn 0.306152 -0.518066 0.797852
vn 0.908691 -0.242188 -0.339355
vn -0.887695 -0.328857 -0.321533
vn -0.955566 -0.242188 0.166992
vn 0.908691 -0.242188 -0.339355
vn 0.366211 -0.529785 -0.764648
vn -0.5 -0.459961 -0.733398
vn 0.515625 0.368164 0.772949
vn 0.947754 0.0675659 0.311523
vn 0.786621 -0.051239 0.614258
vn 0.931641 0.0539246 -0.358154
vn 0.507324 0.0583496 -0.859375
vn -0.0523376 0.125732 -0.990234
vn -0.202148 0.371094 -0.90625
vn -0.281006 0.539063 -0.793457
vn 0.399658 0.518555 0.755371
vn -0.13269 0.989746 0.04599
vn -0.13269 0.989746 0.04599
vn 0.399658 0.518555 0.755371
vn 0.0389404 0.457031 0.888184
vn -0.463867 0.868164 0.174805
vn 0.786621 -0.051239 0.614258
vn 0.531738 -0.45752 0.711914
vn 0.758301 -0.567871 -0.31958
vn 0.187988 -0.106628 -0.976074
vn -0.0245972 -0.504395 -0.862793
vn 0.455811 -0.870605 -0.184326
vn -0.417725 0.895508 0.151611
vn -0.496094 0.543945 -0.67627
vn -0.553711 0.509277 -0.658203
vn -0.281006 0.539063 -0.793457
vn 0.589844 -0.429932 0.683105
vn 0.0895386 0.497559 0.862305
vn 0.758301 -0.567871 -0.31958
vn 0.455811 -0.870605 -0.184326
vn 0.502441 -0.841309 -0.198486
vn -0.13269 0.989746 0.04599
vn 0.0436401 -0.485596 -0.872559
vn 0.758301 -0.567871 -0.31958
vn -0.791504 -0.55957 0.244385
vn 0.502441 -0.841309 -0.198486
vn 0.187988 -0.106628 -0.976074
vn 0.758301 -0.567871 -0.31958
vn -0.509277 -0.843262 0.169922
vn -0.791504 -0.55957 0.244385
vn -0.415527 -0.503906 0.756836

vt 0.784062 0.56062
vt 0.745935 0.515751
vt 0.809798 0.523005
vt 0.74641 0.573019
vt 0.708434 0.561469
vt 0.74641 0.573019
vt 0.745935 0.515751
vt 0.708434 0.561469
vt 0.682798 0.524113
vt 0.784062 0.56062
vt 0.682798 0.524113
vt 0.809798 0.523005
vt 0.688113 0.988835
vt 0.74698 0.996484
vt 0.703896 0.951739
vt 0.746449 0.838956
vt 0.66127 0.85041
vt 0.746967 0.940155
vt 0.920535 0.896484
vt 0.831529 0.850029
vt 0.789755 0.952056
vt 0.805918 0.988666
vt 0.951184 0.627909
vt 0.835826 0.674857
vt 0.746442 0.685679
vt 0.65732 0.67521
vt 0.572531 0.897146
vt 0.542679 0.628824
vt 0.499571 0.760706
vt 0.645503 0.757965
vt 0.65732 0.67521
vt 0.805918 0.988666
vt 0.74698 0.996484
vt 0.789755 0.952056
vt 0.835826 0.674857
vt 0.951184 0.627909
vt 0.847395 0.757942
vt 0.99077 0.760424
vt 0.746442 0.685679
vt 0.746611 0.757622
vt 0.831529 0.850029
vt 0.920535 0.896484
vt 0.542679 0.628824
vt 0.847395 0.757942
vt 0.99077 0.760424
vt 0.746967 0.940155
vt 0.746449 0.838956
vt 0.746611 0.757622
vt 0.572531 0.897146
vt 0.499571 0.760706
vt 0.645503 0.757965
vt 0.66127 0.85041
vt 0.688113 0.988835
vt 0.703896 0.951739
vt 0.462267 0.471002
vt 0.396388 0.493109
vt 0.381581 0.560268
vt 0.540917 0.560268
vt 0.524327 0.493174
vt 0.400729 0.623376
vt 0.461382 0.651479
vt 0.521234 0.623774
vt 0.540917 0.560268
vt 0.381581 0.560268
vt 0.396388 0.493109
vt 0.462267 0.471002
vt 0.524327 0.493174
vt 0.540917 0.560268
vt 0.381581 0.560268
vt 0.521234 0.623774
vt 0.461382 0.651479
vt 0.400729 0.623376
vt 0.381581 0.560268
vt 0.540917 0.560268
vt 0.235961 0.638394
vt 0.307591 0.601102
vt 0.306904 0.782728
vt 0.235069 0.748102
vt 0.306904 0.782728
vt 0.307591 0.601102
vt 0.389354 0.640198
vt 0.390053 0.746846
vt 0.0212711 0.751292
vt 0.0922867 0.786128
vt 0.0922867 0.602238
vt 0.0218998 0.642095
vt 0.178688 0.750907
vt 0.177721 0.641655
vt 0.251622 0.475979
vt 0.102644 0.41366
vt 0.176534 0.395293
vt 0.157786 0.989021
vt 0.157102 0.902541
vt 0.244845 0.902541
vt 0.244845 0.989021
vt 0.166433 0.217104
vt 0.0980136 0.989021
vt 0.0965844 0.902541
vt 0.249101 0.215026
vt 0.248886 0.125257
vt 0.332073 0.217106
vt 0.400706 0.989021
vt 0.401645 0.902541
vt 0.48614 0.902541
vt 0.48614 0.989021
vt 0.326263 0.821414
vt 0.325089 0.902541
vt 0.244845 0.821414
vt 0.248605 0.389394
vt 0.736315 0.125257
vt 0.660383 0.0133607
vt 0.706006 0.0133607
vt 0.991092 0.35012
vt 0.912902 0.352886
vt 0.991092 0.219837
vt 0.554716 0.0133607
vt 0.659046 0.125257
vt 0.554716 0.125257
vt 0.738737 0.476158
vt 0.735665 0.385675
vt 0.807669 0.391073
vt 0.4128 0.0133607
vt 0.4128 0.125257
vt 0.333436 0.125257
vt 0.401028 0.821414
vt 0.871017 0.45855
vt 0.881678 0.407124
vt 0.013755 0.821414
vt 0.0951 0.821414
vt 0.013755 0.902541
vt 0.736772 0.218662
vt 0.814798 0.219837
vt 0.165951 0.125257
vt 0.015839 0.0133607
vt 0.085029 0.0133607
vt 0.015839 0.125257
vt 0.33258 0.0133607
vt 0.157176 0.821414
vt 0.325904 0.989021
vt 0.481715 0.0133607
vt 0.481715 0.125257
vt 0.918053 0.219837
vt 0.815982 0.125257
vt 0.918053 0.125257
vt 0.257634 0.0133607
vt 0.24879 0.105925
vt 0.085029 0.21764
vt 0.015839 0.21845
vt 0.085029 0.125257
vt 0.736389 0.108502
vt 0.726046 0.0133607
vt 0.0810465 0.352398
vt 0.085711 0.455794
vt 0.991092 0.125257
vt 0.221543 0.0133607
vt 0.166037 0.0133607
vt 0.239396 0.0133607
vt 0.918053 0.0133607
vt 0.991092 0.0133607
vt 0.747275 0.0133607
vt 0.767224 0.0133607
vt 0.813169 0.0133607
vt 0.321263 0.395586
vt 0.4128 0.217643
vt 0.41768 0.354729
vt 0.481715 0.210988
vt 0.554716 0.219837
vt 0.659577 0.219837
vt 0.664872 0.39158
vt 0.587976 0.407903
vt 0.395671 0.414243
vt 0.413492 0.455827
vt 0.244882 0.821414
vt 0.157173 0.821414
vt 0.157082 0.902541
vt 0.244882 0.902541
vt 0.0951396 0.821414
vt 0.0966119 0.902541
vt 0.486185 0.821414
vt 0.401135 0.821414
vt 0.401809 0.902541
vt 0.486185 0.902541
vt 0.244882 0.989021
vt 0.325928 0.989021
vt 0.32505 0.902541
vt 0.326287 0.821414
vt 0.0980374 0.989021
vt 0.157785 0.989021
vt 0.0138 0.821414
vt 0.0138 0.902541
vt 0.0138 0.989021
vt 0.600472 0.458581
vt 0.400825 0.989021
vt 0.481715 0.345276
vt 0.015839 0.345224
vt 0.486185 0.989021
vt 0.557697 0.355754
vt 0.481715 0.350168
vt 0.013755 0.989021
vt 0.48614 0.821414
vt 0.275611 0.0133607


#
# MESH 000
#
g surface_000
usemtl surface_000
f 125/125/125 200/200/200 104/104/104
f 125/125/125 104/104/104 103/103/103
f 125/125/125 103/103/103 107/107/107
f 125/125/125 107/107/107 106/106/106
f 106/106/106 107/107/107 94/94/94
f 106/106/106 94/94/94 108/108/108
f 138/138/138 108/108/108 94/94/94
f 102/102/102 103/103/103 104/104/104
f 102/102/102 107/107/107 103/103/103
f 102/102/102 139/139/139 107/107/107
f 139/139/139 94/94/94 107/107/107
f 139/139/139 95/95/95 94/94/94
f 92/92/92 94/94/94 95/95/95
f 92/92/92 93/93/93 94/94/94
f 138/138/138 94/94/94 93/93/93
f 138/138/138 93/93/93 98/98/98
f 138/138/138 98/98/98 129/129/129
f 102/102/102 104/104/104 105/105/105
f 128/128/128 129/129/129 98/98/98
f 128/128/128 98/98/98 130/130/130
f 97/97/97 130/130/130 98/98/98
f 97/97/97 199/199/199 130/130/130
f 92/92/92 97/97/97 98/98/98
f 92/92/92 98/98/98 93/93/93
f 166/166/166 197/197/197 198/198/198
f 167/167/167 197/197/197 166/166/166
f 168/168/168 197/197/197 167/167/167
f 170/170/170 197/197/197 168/168/168
f 170/170/170 168/168/168 169/169/169
f 170/170/170 169/169/169 119/119/119
f 170/170/170 119/119/119 192/192/192
f 166/166/166 118/118/118 167/167/167
f 167/167/167 118/118/118 117/117/117
f 167/167/167 117/117/117 168/168/168
f 117/117/117 110/110/110 168/168/168
f 168/168/168 110/110/110 131/131/131
f 120/120/120 168/168/168 131/131/131
f 120/120/120 169/169/169 168/168/168
f 119/119/119 169/169/169 120/120/120
f 166/166/166 141/141/141 118/118/118
f 140/140/140 118/118/118 141/141/141
f 140/140/140 116/116/116 118/118/118
f 116/116/116 117/117/117 118/118/118
f 116/116/116 111/111/111 117/117/117
f 110/110/110 117/117/117 111/111/111
f 164/164/164 141/141/141 166/166/166
f 164/164/164 123/123/123 141/141/141
f 141/141/141 123/123/123 122/122/122
f 141/141/141 122/122/122 140/140/140
f 164/164/164 166/166/166 165/165/165
f 101/101/101 164/164/164 165/165/165
f 164/164/164 101/101/101 124/124/124
f 164/164/164 124/124/124 123/123/123
f 122/122/122 123/123/123 124/124/124
f 122/122/122 124/124/124 137/137/137
f 124/124/124 100/100/100 137/137/137
f 137/137/137 100/100/100 201/201/201
f 145/145/145 201/201/201 100/100/100
f 194/194/194 165/165/165 166/166/166
f 145/145/145 100/100/100 146/146/146
f 157/157/157 146/146/146 100/100/100
f 157/157/157 100/100/100 155/155/155
f 155/155/155 100/100/100 156/156/156
f 156/156/156 100/100/100 133/133/133
f 156/156/156 133/133/133 135/135/135
f 135/135/135 133/133/133 149/149/149
f 136/136/136 135/135/135 149/149/149
f 134/134/134 135/135/135 136/136/136
f 100/100/100 96/96/96 133/133/133
f 147/147/147 133/133/133 96/96/96
f 147/147/147 149/149/149 133/133/133
f 147/147/147 136/136/136 149/149/149
f 147/147/147 148/148/148 136/136/136
f 152/152/152 148/148/148 147/147/147
f 195/195/195 148/148/148 152/152/152
f 99/99/99 96/96/96 100/100/100
f 96/96/96 99/99/99 109/109/109
f 96/96/96 109/109/109 91/91/91
f 96/96/96 91/91/91 90/90/90
f 96/96/96 90/90/90 152/152/152
f 96/96/96 152/152/152 147/147/147
f 99/99/99 100/100/100 101/101/101
f 101/101/101 109/109/109 99/99/99
f 101/101/101 163/163/163 109/109/109
f 109/109/109 163/163/163 89/89/89
f 89/89/89 91/91/91 109/109/109
f 89/89/89 90/90/90 91/91/91
f 153/153/153 90/90/90 89/89/89
f 124/124/124 101/101/101 100/100/100
f 101/101/101 165/165/165 171/171/171
f 101/101/101 171/171/171 163/163/163
f 163/163/163 171/171/171 89/89/89
f 89/89/89 171/171/171 172/172/172
f 110/110/110 111/111/111 112/112/112
f 151/151/151 110/110/110 112/112/112
f 150/150/150 110/110/110 151/151/151
f 160/160/160 110/110/110 150/150/150
f 160/160/160 161/161/161 110/110/110
f 162/162/162 110/110/110 161/161/161
f 162/162/162 143/143/143 110/110/110
f 143/143/143 132/132/132 110/110/110
f 131/131/131 110/110/110 132/132/132
f 121/121/121 131/131/131 132/132/132
f 121/121/121 120/120/120 131/131/131
f 119/119/119 120/120/120 121/121/121
f 143/143/143 162/162/162 158/158/158
f 143/143/143 158/158/158 144/144/144
f 142/142/142 143/143/143 144/144/144
f 142/142/142 132/132/132 143/143/143
f 142/142/142 114/114/114 132/132/132
f 132/132/132 114/114/114 127/127/127
f 132/132/132 127/127/127 121/121/121
f 119/119/119 121/121/121 127/127/127
f 126/126/126 119/119/119 127/127/127
f 154/154/154 144/144/144 158/158/158
f 115/115/115 144/144/144 154/154/154
f 115/115/115 142/142/142 144/144/144
f 142/142/142 115/115/115 114/114/114
f 113/113/113 114/114/114 115/115/115
f 154/154/154 158/158/158 159/159/159
f 177/177/177 189/189/189 190/190/190
f 177/177/177 190/190/190 178/178/178
f 177/177/177 178/178/178 175/175/175
f 177/177/177 175/175/175 174/174/174
f 173/173/173 174/174/174 175/175/175
f 173/173/173 175/175/175 176/176/176
f 173/173/173 176/176/176 185/185/185
f 173/173/173 185/185/185 186/186/186
f 191/191/191 178/178/178 190/190/190
f 191/191/191 187/187/187 178/178/178
f 187/187/187 175/175/175 178/178/178
f 187/187/187 188/188/188 175/175/175
f 183/183/183 175/175/175 188/188/188
f 183/183/183 176/176/176 175/175/175
f 183/183/183 185/185/185 176/176/176
f 183/183/183 184/184/184 185/185/185
f 184/184/184 181/181/181 185/185/185
f 186/186/186 185/185/185 181/181/181
f 186/186/186 181/181/181 180/180/180
f 179/179/179 180/180/180 181/181/181
f 179/179/179 181/181/181 182/182/182
f 196/196/196 182/182/182 181/181/181
f 196/196/196 181/181/181 193/193/193
f 184/184/184 193/193/193 181/181/181
f 85/85/85 87/87/87 88/88/88
f 85/85/85 84/84/84 87/87/87
f 83/83/83 84/84/84 85/85/85
f 83/83/83 85/85/85 86/86/86
f 79/79/79 81/81/81 82/82/82
f 79/79/79 80/80/80 81/81/81
f 75/75/75 77/77/77 78/78/78
f 75/75/75 76/76/76 77/77/77
f 70/70/70 73/73/73 74/74/74
f 70/70/70 72/72/72 73/73/73
f 70/70/70 71/71/71 72/72/72
f 65/65/65 68/68/68 69/69/69
f 65/65/65 67/67/67 68/68/68
f 65/65/65 66/66/66 67/67/67
f 60/60/60 63/63/63 64/64/64
f 60/60/60 62/62/62 63/63/63
f 60/60/60 61/61/61 62/62/62
f 55/55/55 58/58/58 59/59/59
f 55/55/55 57/57/57 58/58/58
f 55/55/55 56/56/56 57/57/57
f 33/33/33 53/53/53 54/54/54
f 53/53/53 52/52/52 54/54/54
f 54/54/54 52/52/52 47/47/47
f 54/54/54 47/47/47 46/46/46
f 33/33/33 54/54/54 46/46/46
f 33/33/33 46/46/46 34/34/34
f 32/32/32 33/33/33 34/34/34
f 34/34/34 42/42/42 32/32/32
f 53/53/53 49/49/49 52/52/52
f 49/49/49 51/51/51 52/52/52
f 52/52/52 51/51/51 48/48/48
f 52/52/52 48/48/48 47/47/47
f 47/47/47 48/48/48 44/44/44
f 47/47/47 44/44/44 41/41/41
f 46/46/46 47/47/47 41/41/41
f 46/46/46 41/41/41 34/34/34
f 34/34/34 41/41/41 42/42/42
f 41/41/41 45/45/45 42/42/42
f 41/41/41 44/44/44 45/45/45
f 44/44/44 23/23/23 45/45/45
f 49/49/49 50/50/50 51/51/51
f 50/50/50 26/26/26 51/51/51
f 51/51/51 26/26/26 25/25/25
f 51/51/51 25/25/25 48/48/48
f 48/48/48 25/25/25 24/24/24
f 48/48/48 24/24/24 44/44/44
f 44/44/44 24/24/24 23/23/23
f 3/3/3 23/23/23 24/24/24
f 3/3/3 24/24/24 1/1/1
f 1/1/1 2/2/2 3/3/3
f 50/50/50 43/43/43 26/26/26
f 5/5/5 26/26/26 43/43/43
f 4/4/4 26/26/26 5/5/5
f 4/4/4 25/25/25 26/26/26
f 1/1/1 25/25/25 4/4/4
f 1/1/1 24/24/24 25/25/25
f 5/5/5 43/43/43 9/9/9
f 9/9/9 2/2/2 5/5/5
f 2/2/2 4/4/4 5/5/5
f 2/2/2 1/1/1 4/4/4
f 38/38/38 20/20/20 19/19/19
f 38/38/38 37/37/37 20/20/20
f 37/37/37 16/16/16 20/20/20
f 20/20/20 16/16/16 18/18/18
f 20/20/20 18/18/18 21/21/21
f 19/19/19 20/20/20 21/21/21
f 19/19/19 21/21/21 22/22/22
f 22/22/22 21/21/21 14/14/14
f 36/36/36 37/37/37 38/38/38
f 36/36/36 35/35/35 37/37/37
f 35/35/35 40/40/40 37/37/37
f 37/37/37 40/40/40 16/16/16
f 40/40/40 17/17/17 16/16/16
f 16/16/16 17/17/17 15/15/15
f 16/16/16 15/15/15 18/18/18
f 18/18/18 15/15/15 14/14/14
f 21/21/21 18/18/18 14/14/14
f 35/35/35 36/36/36 12/12/12
f 35/35/35 12/12/12 10/10/10
f 10/10/10 39/39/39 35/35/35
f 35/35/35 39/39/39 40/40/40
f 39/39/39 30/30/30 40/40/40
f 40/40/40 30/30/30 17/17/17
f 29/29/29 17/17/17 30/30/30
f 29/29/29 27/27/27 17/17/17
f 15/15/15 17/17/17 27/27/27
f 15/15/15 27/27/27 13/13/13
f 13/13/13 14/14/14 15/15/15
f 12/12/12 7/7/7 10/10/10
f 7/7/7 6/6/6 10/10/10
f 10/10/10 6/6/6 39/39/39
f 39/39/39 6/6/6 8/8/8
f 39/39/39 8/8/8 31/31/31
f 39/39/39 31/31/31 30/30/30
f 28/28/28 30/30/30 31/31/31
f 28/28/28 29/29/29 30/30/30
f 6/6/6 7/7/7 8/8/8
f 8/8/8 7/7/7 11/11/11
f 11/11/11 31/31/31 8/8/8
f 11/11/11 28/28/28 31/31/31

