#
# OBJECT NAME
#
o model_2936
mtllib 2936.mtl

#
# VERTEX BUFFER 000
#
v -0.169651 0.0342699 0.0181195
v -0.233366 0.0342699 -0.1
v -0.1 0.00327754 -0.1
v -0.0303494 0.0342699 0.0181196
v 0.0333657 0.0342699 -0.1
v -0.28469 0.124371 -0.1
v -0.196455 0.124371 0.0635767
v -0.00354503 0.124371 0.0635767
v 0.0846901 0.124371 -0.1
v -0.256573 0.199446 -0.1
v -0.181771 0.199446 0.0386736
v -0.0182294 0.199446 0.0386737
v 0.0565727 0.199446 -0.1
v -0.157788 0.267228 -0.1
v -0.13018 0.267228 -0.0488179
v -0.0698198 0.267228 -0.0488178
v -0.0422115 0.267228 -0.1
v -0.11358 0.352592 -0.1
v -0.1 0.352592 -0.0879728
v -0.0864204 0.352592 -0.1
v -0.1 0.361502 -0.1
v -0.28469 0.124371 -0.1
v -0.196455 0.124371 -0.263577
v -0.169651 0.0342699 -0.21812
v -0.233366 0.0342699 -0.1
v -0.00354503 0.124371 -0.263577
v -0.0303494 0.0342699 -0.21812
v 0.0846901 0.124371 -0.1
v 0.0333657 0.0342699 -0.1
v -0.256573 0.199446 -0.1
v -0.181771 0.199446 -0.238674
v -0.0182294 0.199446 -0.238674
v 0.0565727 0.199446 -0.1
v -0.157788 0.267228 -0.1
v -0.13018 0.267228 -0.151182
v -0.0698198 0.267228 -0.151182
v -0.0422115 0.267228 -0.1
v -0.1 0.00327754 -0.1
v -0.11358 0.352592 -0.1
v -0.1 0.352592 -0.112027
v -0.0864204 0.352592 -0.1
v -0.1 0.361502 -0.1

vn -0.378174 -0.659668 0.648926
vn -0.754883 -0.655273 0
vn 0 -1 0
vn 0.378174 -0.659668 0.648926
vn 0.754883 -0.655273 0
vn -0.993652 -0.111206 0
vn -0.498779 -0.112915 0.858887
vn 0.498779 -0.112915 0.858887
vn 0.993652 -0.111206 0
vn -0.829102 0.558105 0
vn -0.415039 0.563477 0.713867
vn 0.415039 0.563477 0.713867
vn 0.829102 0.558105 0
vn -0.615234 0.787598 0
vn -0.301758 0.798828 0.519531
vn 0.301758 0.798828 0.519531
vn 0.615234 0.787598 0
vn -0.833984 0.55127 -2.38419e-007
vn -1.78814e-007 0.545898 0.837402
vn 0.833984 0.55127 5.36442e-007
vn 3.57628e-007 1 6.55651e-007
vn -0.993652 -0.111206 0
vn -0.498779 -0.112915 -0.858887
vn -0.378174 -0.659668 -0.648926
vn -0.754883 -0.655273 0
vn 0.498779 -0.112915 -0.858887
vn 0.378174 -0.659668 -0.648926
vn 0.993652 -0.111206 0
vn 0.754883 -0.655273 0
vn -0.829102 0.558105 0
vn -0.415039 0.563477 -0.713867
vn 0.415039 0.563477 -0.713867
vn 0.829102 0.558105 0
vn -0.615234 0.787598 0
vn -0.301758 0.798828 -0.519531
vn 0.301758 0.798828 -0.519531
vn 0.615234 0.787598 0
vn 0 -1 0
vn -0.833984 0.55127 -2.38419e-007
vn 0 0.545898 -0.837402
vn 0.833984 0.55127 5.36442e-007
vn 3.57628e-007 1 6.55651e-007

vt 0.382983 0.152885
vt 0.262984 0.159479
vt 0.512137 0.0282337
vt 0.624266 0.152885
vt 0.734892 0.159479
vt 0.125265 0.371148
vt 0.35246 0.369811
vt 0.654647 0.369811
vt 0.876456 0.371148
vt 0.196807 0.521393
vt 0.372487 0.526896
vt 0.634175 0.526896
vt 0.816292 0.521393
vt 0.411672 0.715906
vt 0.459763 0.715906
vt 0.556343 0.715906
vt 0.613867 0.715906
vt 0.46272 0.921265
vt 0.510279 0.921265
vt 0.562316 0.921265
vt 0.509764 0.971829
vt 0.125265 0.371148
vt 0.35246 0.369811
vt 0.382983 0.152885
vt 0.262984 0.159479
vt 0.654647 0.369811
vt 0.624266 0.152885
vt 0.876456 0.371148
vt 0.734892 0.159479
vt 0.196807 0.521393
vt 0.372487 0.526896
vt 0.634175 0.526896
vt 0.816292 0.521393
vt 0.411672 0.715906
vt 0.459763 0.715906
vt 0.556343 0.715906
vt 0.613867 0.715906
vt 0.512137 0.0282337
vt 0.46272 0.921265
vt 0.510279 0.921265
vt 0.562316 0.921265
vt 0.509764 0.971829


#
# MESH 000
#
g surface_000
usemtl surface_000
f 18/18/18 14/14/14 15/15/15
f 14/14/14 11/11/11 15/15/15
f 15/15/15 11/11/11 12/12/12
f 15/15/15 12/12/12 16/16/16
f 19/19/19 15/15/15 16/16/16
f 18/18/18 15/15/15 19/19/19
f 21/21/21 18/18/18 19/19/19
f 21/21/21 19/19/19 20/20/20
f 14/14/14 10/10/10 11/11/11
f 10/10/10 7/7/7 11/11/11
f 11/11/11 7/7/7 8/8/8
f 11/11/11 8/8/8 12/12/12
f 12/12/12 8/8/8 9/9/9
f 12/12/12 9/9/9 13/13/13
f 16/16/16 12/12/12 13/13/13
f 16/16/16 13/13/13 17/17/17
f 20/20/20 16/16/16 17/17/17
f 19/19/19 16/16/16 20/20/20
f 10/10/10 6/6/6 7/7/7
f 6/6/6 1/1/1 7/7/7
f 7/7/7 1/1/1 4/4/4
f 7/7/7 4/4/4 8/8/8
f 8/8/8 4/4/4 5/5/5
f 8/8/8 5/5/5 9/9/9
f 6/6/6 2/2/2 1/1/1
f 1/1/1 2/2/2 3/3/3
f 4/4/4 1/1/1 3/3/3
f 5/5/5 4/4/4 3/3/3
f 39/39/39 35/35/35 34/34/34
f 39/39/39 40/40/40 35/35/35
f 40/40/40 36/36/36 35/35/35
f 36/36/36 31/31/31 35/35/35
f 34/34/34 35/35/35 31/31/31
f 34/34/34 31/31/31 30/30/30
f 30/30/30 31/31/31 23/23/23
f 30/30/30 23/23/23 22/22/22
f 42/42/42 40/40/40 39/39/39
f 42/42/42 41/41/41 40/40/40
f 40/40/40 41/41/41 36/36/36
f 36/36/36 41/41/41 37/37/37
f 36/36/36 37/37/37 33/33/33
f 36/36/36 33/33/33 32/32/32
f 36/36/36 32/32/32 31/31/31
f 32/32/32 23/23/23 31/31/31
f 32/32/32 26/26/26 23/23/23
f 26/26/26 24/24/24 23/23/23
f 22/22/22 23/23/23 24/24/24
f 22/22/22 24/24/24 25/25/25
f 24/24/24 38/38/38 25/25/25
f 24/24/24 27/27/27 38/38/38
f 29/29/29 38/38/38 27/27/27
f 32/32/32 33/33/33 28/28/28
f 32/32/32 28/28/28 26/26/26
f 26/26/26 28/28/28 29/29/29
f 26/26/26 29/29/29 27/27/27
f 26/26/26 27/27/27 24/24/24

