#
# OBJECT NAME
#
o model_2249
mtllib 2249.mtl

#
# VERTEX BUFFER 000
#
v 0.272276 0 0.242803
v 0.255754 0.13125 0.248705
v -0.0672587 0.13125 0.364102
v -0.0672587 0 0.364102
v -0.115923 0.13125 0.227883
v 0.202018 0.13125 0.12923
v -0.0764684 0.13125 0.0870696
v -0.129722 0.13125 0.135506
v -0.0764684 0 0.0870696
v -0.0764684 0.13125 0.0870696
v -0.0243599 0.13125 0.0192921
v -0.0183888 0 0.0171589
v 0.218753 0 0.111391
v -0.116263 0 0.226931
v -0.146903 0 0.141164
v -0.0764684 0 0.0870696
v 0.312147 0.114175 0.0675542
v 0.310176 0 0.0620371
v 0.344389 0 0.0310603
v 0.343826 0.13125 0.0183539
v -0.116263 0 0.226931
v -0.115923 0.13125 0.227883
v -0.129722 0.13125 0.135506
v -0.146903 0 0.141164
v 0.391212 0.13125 0.146307
v 0.398056 0 0.134945
v 0.385987 0 0.102105
v 0.376165 0.13125 0.105614
v 0.272276 0 0.242803
v -0.0672587 0 0.364102
v -0.0866288 0.13125 0.309882
v -0.0928801 0 0.292383
v -0.0672587 0 0.364102
v -0.0672587 0.13125 0.364102
v 0.337434 0.13125 -0.0504798
v 0.350798 0 -0.0552544
v 0.341125 0 -0.111278
v 0.341125 0.13125 -0.111278
v 0.312147 0.114175 0.0675542
v 0.352563 0 0.0644387
v 0.310176 0 0.0620371
v 0.344692 0 -0.012412
v 0.343128 0.13125 -0.0167885
v 0.0831226 0.13125 0.232934
v 0.255754 0.13125 0.248705
v 0.417956 0 0.190758
v 0.418166 0.13125 0.190684
v 0.418166 0.13125 0.190684
v 0.417956 0 0.190758
v 0.312147 0.114175 0.0675542
v 0.343826 0.13125 0.0183539
v 0.141606 0 -0.0399992
v 0.129401 0.13125 -0.035639
v 0.341125 0.13125 -0.111278
v 0.341125 0 -0.111278
v 0.344389 0 0.0310603
v 0.310176 0 0.0620371
v 0.398056 0 0.134945
v 0.417956 0 0.190758
v 0.129401 0.13125 -0.035639
v 0.170312 0.13125 0.0447307
v 0.337434 0.13125 -0.0504798
v 0.341125 0.13125 -0.111278
v 0.141606 0 -0.0399992
v 0.341125 0 -0.111278
v 0.350798 0 -0.0552544
v 0.347317 0.13125 0.0784791
v 0.312147 0.114175 0.0675542
v 0.352563 0 0.0644387
v 0.344692 0 -0.012412
v 0.391212 0.13125 0.146307
v 0.418166 0.13125 0.190684
v 0.352563 0 0.0644387
v 0.347317 0.13125 0.0784791
v 0.376165 0.13125 0.105614
v 0.385987 0 0.102105
v -0.0183888 0 0.0171589
v 0.343128 0.13125 -0.0167885
v 0.347317 0.13125 0.0784791
v -0.110628 0.13125 0.242703
v -0.0868546 0.13125 0.274508
v -0.0928801 0 0.292383
v -0.0764684 0.13125 0.0870696
v -0.0243599 0.13125 0.0192921
v -0.146903 0 0.141164
v -0.129722 0.13125 0.135506
v -0.0866288 0.13125 0.309882
v -0.0672587 0.13125 0.364102
v -0.110628 0.13125 0.242703
v -0.0868546 0.13125 0.274508
v -0.475545 0 -0.273888
v -0.13809 0 -0.0906058
v -0.204217 0.0993051 -0.126521
v -0.264362 0.0993051 -0.228222
v -0.157495 0.0801607 -0.173629
v -0.14498 0.0993051 -0.188541
v -0.342762 0.0993051 -0.460406
v -0.135291 0 -0.347722
v -0.342762 0 -0.460406
v -0.475545 0 -0.273888
v -0.0661924 0 -0.222982
v -0.116302 0 -0.144978
v -0.17247 0.0993051 -0.1569
v -0.113498 0.0381702 -0.15037
v -0.157495 0.0801607 -0.173629
v -0.400658 0.0760159 -0.38162
v -0.413989 0.0427142 -0.387223
v -0.43418 0.0993051 -0.350049
v -0.135291 0.0993051 -0.347722
v -0.0779007 0.0993051 -0.302957
v -0.0779007 0 -0.302957
v -0.135291 0 -0.347722
v -0.0779007 0.0993051 -0.302957
v -0.0661924 0 -0.222982
v -0.0779007 0 -0.302957
v -0.0779007 0.0993051 -0.302957
v -0.135291 0.0993051 -0.347722
v -0.0661924 0.0993051 -0.222982
v -0.135291 0 -0.347722
v -0.0779007 0 -0.302957
v -0.379109 0.0993051 -0.451443
v -0.342762 0.0993051 -0.460406
v -0.380165 0 -0.449499
v -0.17247 0.0993051 -0.1569
v -0.157495 0.0801607 -0.173629
v -0.157495 0.0801607 -0.173629
v -0.14498 0.0993051 -0.188541
v -0.475545 0.0993051 -0.273888
v -0.204217 0.0993051 -0.126521
v -0.0661924 0.0993051 -0.222982
v -0.342762 0 -0.460406
v -0.475545 0.0993051 -0.273888
v -0.13809 0 -0.0906058
v -0.116302 0 -0.144978
v -0.135291 0.0993051 -0.347722
v -0.204217 0.0993051 -0.126521
v -0.342762 0.0993051 -0.460406
v -0.342762 0 -0.460406
v -0.380165 0 -0.449499
v -0.379109 0.0993051 -0.451443
v -0.374319 0.0993051 -0.374325
v -0.13809 0 -0.0906058
v -0.394222 0.0993051 -0.423618
v -0.400658 0.0760159 -0.38162
v -0.394222 0.0993051 -0.423618
v -0.43418 0.0993051 -0.350049
v -0.475545 0.0993051 -0.273888
v -0.475545 0 -0.273888
v 0.254877 0.178585 -0.166038
v 0.262631 0.112462 -0.142634
v 0.295025 0.0370015 -0.376038
v 0.272685 0.081376 -0.357589
v 0.110165 0.141319 -0.225947
v 0.202215 0.23674 0.0233798
v 0.214126 0.0961258 -0.394859
v 0.0330371 0.204593 -0.0130256
v 0.0810898 0.151528 -0.185864
v 0.0998224 0.0732814 -0.201948
v 0.0408162 0.138442 0.0102886
v 0.0998224 0.0732814 -0.201948
v 0.209994 0.17059 0.046694
v 0.0408162 0.138442 0.0102886
v 0.183498 0.0769933 -0.440658
v 0.192689 0.00624733 -0.431364
v 0.165959 0.00024651 -0.43983
v 0.157809 0.0668068 -0.461811
v 0.202215 0.23674 0.0233798
v 0.0330371 0.204593 -0.0130256
v 0.0408162 0.138442 0.0102886
v 0.209994 0.17059 0.046694
v 0.254877 0.178585 -0.166038
v 0.246961 0.100374 -0.393658
v 0.246961 0.100374 -0.393658
v 0.261371 0.0246361 -0.400864
v 0.220112 0.0222584 -0.393655
v 0.214126 0.0961258 -0.394859
v 0.110495 0.119056 -0.291629
v 0.192689 0.00624733 -0.431364
v 0.128094 0.042061 -0.303636
v 0.165959 0.00024651 -0.43983
v 0.220112 0.0222584 -0.393655
v 0.261371 0.0246361 -0.400864
v 0.295025 0.0370015 -0.376038
v 0.272685 0.081376 -0.357589
v 0.262631 0.112462 -0.142634
v 0.209994 0.17059 0.046694
v 0.202215 0.23674 0.0233798
v 0.295025 0.0370015 -0.376038
v 0.272685 0.081376 -0.357589
v 0.129987 0.0578187 -0.257879
v 0.110165 0.141319 -0.225947
v 0.110495 0.119056 -0.291629
v 0.128094 0.042061 -0.303636
v 0.157809 0.0668068 -0.461811
v 0.165959 0.00024651 -0.43983
v 0.183498 0.0769933 -0.440658
v 0.129987 0.0578187 -0.257879
v 0.157809 0.0668068 -0.461811
v 0.0810898 0.151528 -0.185864
v 0.0330371 0.204593 -0.0130256

vn 0.336426 0 0.941406
vn 0.336426 0 0.941406
vn 0.336426 0 0.941406
vn 0.336426 0 0.941406
vn 0 1 0
vn 0.0014286 0.999512 -0.000432491
vn 0 1 0
vn 0 1 0
vn -0.716309 0.00539017 -0.697266
vn -0.716309 0.00539017 -0.697266
vn -0.514648 -0.00474548 -0.856934
vn -0.5 -0.00434113 -0.865723
vn 0 -1 0
vn 0 -1 0
vn 0 -1 0
vn 0 -1 0
vn 0.702637 0.288818 0.649414
vn 0.770996 0.0142212 0.63623
vn 0.92041 0.0122299 0.390381
vn 0.796875 0.530762 0.286865
vn -0.960938 0.0473328 0.271484
vn -0.960938 0.0469971 0.271973
vn -0.967773 0.0689087 0.241455
vn -0.967773 0.0689087 0.241455
vn 0.91748 0.0560913 -0.392578
vn 0.918945 0.0577087 -0.38916
vn 0.837891 0.085144 -0.538574
vn 0.834961 0.0852661 -0.542969
vn 0 -1 0
vn 0 -1 0
vn -0.959473 0.00836182 0.280029
vn -0.941406 0.00667953 0.33667
vn -0.941406 0 0.336426
vn -0.941406 0 0.336426
vn 0.998047 0.053772 -0.0281219
vn 0.998047 0.0536499 -0.0294342
vn 0.99707 0.0516968 -0.0510559
vn 0.99707 0.0516968 -0.0510559
vn 0.00485611 0.491211 -0.870605
vn 0.564941 0.0844116 -0.820313
vn 0.056488 0.0472107 -0.99707
vn 0.999023 0.0313721 -1.04904e-005
vn 0.999023 0.0325928 0.000247717
vn 0 1 0
vn 0 1 0
vn 0.904785 0.0410767 -0.423096
vn 0.904785 0.0410767 -0.423096
vn 0.336426 0 0.941406
vn 0.336426 0 0.941406
vn 0.702637 0.288818 0.649414
vn 0.796875 0.530762 0.286865
vn -0.336426 0 -0.941406
vn -0.336426 0 -0.941406
vn -0.336426 0 -0.941406
vn -0.336426 0 -0.941406
vn 0 -1 0
vn 0 -1 0
vn 0 -1 0
vn 0 -1 0
vn 0 1 0
vn 0 1 0
vn 0 1 0
vn 0 1 0
vn 0 -1 0
vn 0 -1 0
vn 0 -1 0
vn 0.488037 0.530273 -0.692871
vn 0.00485611 0.491211 -0.870605
vn 0 -1 0
vn 0 -1 0
vn 0 1 0
vn 1.19209e-007 1 3.57628e-007
vn 0.564941 0.0844116 -0.820313
vn 0.488037 0.530273 -0.692871
vn 0 1 0
vn 0 -1 0
vn 0 -1 0
vn 0 1 1.78814e-007
vn 0.488037 0.530273 -0.692871
vn 0 1 1.78814e-007
vn 0 1 -2.38419e-007
vn 0 -1 0
vn 0 1 0
vn 0 1 0
vn -0.637695 0.0251617 -0.769531
vn -0.637695 0.0251617 -0.769531
vn 0 1 -2.38419e-007
vn 0 1 0
vn -0.918457 0.0250397 0.394287
vn -0.928223 0.0916138 0.359863
vn -0.477051 -5.36442e-007 0.878418
vn -0.477051 -3.57628e-007 0.878418
vn -0.477051 -3.57628e-007 0.878418
vn 0.00120544 0.999512 0.000424147
vn -0.110779 0.654785 0.747559
vn 0.0723267 0.923828 0.374756
vn 0.313232 -0.00208092 -0.949219
vn 0.53125 0 -0.84668
vn 0.313232 -0.00208092 -0.949219
vn 0 -1 0
vn 0 -1 0
vn 0 -1 0
vn 0.440674 0.878906 0.180786
vn 0.685547 0.361328 0.631836
vn 0.554688 0.749512 -0.36084
vn -0.710449 0.570313 -0.411621
vn -0.877441 0.0243225 -0.478516
vn -0.669922 0.604492 -0.430664
vn 0.53125 0 -0.84668
vn 0.80127 0 -0.597656
vn 0.80127 0 -0.597656
vn 0.53125 0 -0.84668
vn 0.80127 0 -0.597656
vn 0.979492 0.000810623 0.200195
vn 0.80127 0 -0.597656
vn 1.78814e-007 1 0
vn 0 1 0
vn 0 1 0
vn 0 -1 0
vn 0 -1 0
vn 0 1 0
vn 0 1 0
vn 0 -1 0
vn 0.440674 0.878906 0.180786
vn 0.554688 0.749512 -0.36084
vn -0.110779 0.654785 0.747559
vn 0.0723267 0.923828 0.374756
vn 0 1 0
vn 0 1 0
vn 0.944824 0.13855 0.29541
vn 0 -1 0
vn -0.477051 -5.36442e-007 0.878418
vn 0.617676 0.525391 0.584473
vn 0.883789 0.00113583 0.467529
vn 0.53125 0 -0.84668
vn 0.560547 0.584961 0.585449
vn 0.313232 -0.00208092 -0.949219
vn 0.313232 -0.00208092 -0.949219
vn -0.623047 -0.00433731 -0.781738
vn -0.547363 -0.00527573 -0.836426
vn -0.0279694 0.999512 -0.0119476
vn 0 -1 0
vn -0.765137 0.598145 -0.236694
vn -0.710449 0.570313 -0.411621
vn -0.765137 0.598145 -0.236694
vn -0.669922 0.604492 -0.430664
vn -0.878418 0 -0.477051
vn -0.878418 0 -0.477051
vn 0.795898 0.604004 -0.0369873
vn 0.967285 0.223145 0.116882
vn 0.93457 0.30249 -0.186157
vn 0.924805 0.359131 -0.124329
vn -0.110046 0.940918 -0.319336
vn -0.110046 0.940918 -0.319336
vn -0.110046 0.940918 -0.319336
vn -0.959473 -0.186646 -0.209473
vn -0.953125 -0.170776 -0.249512
vn -0.93457 -0.138794 -0.326172
vn -0.959473 -0.186646 -0.209473
vn 0.110046 -0.940918 0.319336
vn 0.110046 -0.940918 0.319336
vn 0.110046 -0.940918 0.319336
vn 0.730469 -0.0128479 -0.682129
vn 0.709961 -0.025528 -0.703125
vn 0.51709 -0.127319 -0.845703
vn 0.51709 -0.127319 -0.845703
vn -0.25415 0.294678 0.920898
vn -0.25415 0.294678 0.920898
vn -0.25415 0.294678 0.920898
vn -0.25415 0.294678 0.920898
vn 0.795898 0.604004 -0.0369873
vn 0.184814 0.791992 -0.581543
vn 0.184814 0.791992 -0.581543
vn 0.323242 0.203613 -0.923828
vn 0.535156 0.0426636 -0.843262
vn 0.433594 0.0413208 -0.899902
vn -0.110046 0.940918 -0.319336
vn 0.110046 -0.940918 0.319336
vn 0.110046 -0.940918 0.319336
vn 0.110046 -0.940918 0.319336
vn 0.110046 -0.940918 0.319336
vn 0.110046 -0.940918 0.319336
vn 0.93457 0.30249 -0.186157
vn 0.924805 0.359131 -0.124329
vn 0.110046 -0.940918 0.319336
vn 0.959473 0.186646 0.209473
vn 0.959473 0.186646 0.209473
vn 0.110046 -0.940918 0.319336
vn 0.924805 0.359131 -0.124329
vn -0.975586 -0.203125 -0.0806274
vn -0.928711 -0.114929 -0.351318
vn -0.972656 -0.215698 -0.0845947
vn -0.966797 -0.198486 -0.160889
vn -0.959473 -0.186646 -0.209473
vn -0.959473 -0.186646 -0.209473
vn -0.110046 0.940918 -0.319336
vn 0.110046 -0.940918 0.319336
vn -0.110046 0.940918 -0.319336
vn -0.110046 0.940918 -0.319336
vn -0.110046 0.940918 -0.319336

vt 0.892839 0.0346066
vt 0.881688 0.0777699
vt 0.767553 0.0777699
vt 0.767553 0.0346066
vt 0.225726 0.337979
vt 0.243581 0.66213
vt 0.0844436 0.424277
vt 0.118956 0.338302
vt 0.543027 0.0346066
vt 0.543027 0.0777699
vt 0.46545 0.0777699
vt 0.461006 0.0346066
vt 0.626213 0.428656
vt 0.444502 0.426308
vt 0.444502 0.370492
vt 0.488444 0.351927
vt 0.115355 0.0777699
vt 0.115355 0.0346066
vt 0.139345 0.0346066
vt 0.139345 0.0777699
vt 0.64027 0.0346066
vt 0.641008 0.0777699
vt 0.593647 0.0777699
vt 0.593647 0.0346066
vt 0.0452399 0.0777699
vt 0.0463545 0.0346066
vt 0.0738624 0.0346066
vt 0.0738624 0.0777699
vt 0.630253 0.546703
vt 0.444502 0.546703
vt 0.712484 0.0777699
vt 0.697279 0.0346066
vt 0.755599 0.0346066
vt 0.755599 0.0777699
vt 0.201537 0.0777699
vt 0.201537 0.0346066
vt 0.222472 0.0346066
vt 0.222473 0.0777699
vt 0.115355 0.0777699
vt 0.0995416 0.0346066
vt 0.115355 0.0346066
vt 0.158705 0.0346066
vt 0.158705 0.0777699
vt 0.325514 0.519671
vt 0.429141 0.674105
vt 0.0116 0.0346066
vt 0.0116 0.0777699
vt 0.985767 0.0777699
vt 0.985767 0.0346066
vt 0.209687 0.854052
vt 0.164044 0.907578
vt 0.375379 0.0346066
vt 0.384463 0.0777699
vt 0.234264 0.0777699
vt 0.234263 0.0346066
vt 0.743497 0.405053
vt 0.712753 0.417788
vt 0.763024 0.4959
vt 0.76543 0.546703
vt 0.032106 0.64477
vt 0.123355 0.660207
vt 0.0915303 0.925461
vt 0.0316675 0.967085
vt 0.611202 0.325423
vt 0.776347 0.325423
vt 0.775775 0.352115
vt 0.240788 0.905882
vt 0.209687 0.854052
vt 0.740951 0.42482
vt 0.75749 0.38468
vt 0.355622 0.921576
vt 0.432054 0.921309
vt 0.0995418 0.0346066
vt 0.0995418 0.0777699
vt 0.292022 0.934739
vt 0.763232 0.456678
vt 0.526059 0.325423
vt 0.128057 0.919897
vt 0.0995416 0.0777699
vt 0.247856 0.338143
vt 0.301224 0.338538
vt 0.444502 0.483756
vt 0.0844436 0.424277
vt 0.0324313 0.488373
vt 0.585819 0.0346066
vt 0.586149 0.0777699
vt 0.348176 0.338886
vt 0.429144 0.339486
vt 0.653926 0.0777699
vt 0.685077 0.0777699
vt 0.791499 0.209716
vt 0.482266 0.21203
vt 0.527202 0.116903
vt 0.654868 0.803269
vt 0.675448 0.928828
vt 0.658187 0.93707
vt 0.0162445 0.169979
vt 0.258624 0.21203
vt 0.0162445 0.21203
vt 0.804819 0.390629
vt 0.918528 0.66098
vt 0.848735 0.66098
vt 0.460922 0.123369
vt 0.417106 0.187966
vt 0.426593 0.146306
vt 0.906539 0.165947
vt 0.90529 0.192208
vt 0.871981 0.165947
vt 0.260084 0.13517
vt 0.306588 0.130789
vt 0.305816 0.21203
vt 0.258624 0.21203
vt 0.31541 0.130789
vt 0.362348 0.21203
vt 0.31541 0.21203
vt 0.513083 0.953424
vt 0.495078 0.872015
vt 0.591387 0.97112
vt 0.980985 0.59704
vt 0.96326 0.642252
vt 0.525339 0.569776
vt 0.495078 0.600303
vt 0.959718 0.390629
vt 0.698468 0.919751
vt 0.675448 0.928828
vt 0.426593 0.146306
vt 0.41411 0.127922
vt 0.767741 0.569776
vt 0.767741 0.905663
vt 0.362348 0.129815
vt 0.980985 0.390629
vt 0.792652 0.165947
vt 0.469806 0.21203
vt 0.430365 0.21203
vt 0.260084 0.13517
vt 0.512428 0.116903
vt 0.983259 0.165947
vt 0.98326 0.21203
vt 0.960863 0.21203
vt 0.963139 0.165947
vt 0.598819 0.615958
vt 0.804819 0.66098
vt 0.938123 0.165947
vt 0.611288 0.569776
vt 0.563327 0.569776
vt 0.663765 0.569776
vt 0.804361 0.165947
vt 0.804751 0.21203
vt 0.14672 0.241741
vt 0.147088 0.282387
vt 0.0129561 0.282387
vt 0.0129561 0.241741
vt 0.787024 0.822224
vt 0.966356 0.679487
vt 0.861634 0.966644
vt 0.383461 0.241741
vt 0.470425 0.241741
vt 0.491507 0.282387
vt 0.38313 0.282387
vt 0.88448 0.231166
vt 0.792418 0.351039
vt 0.792418 0.231166
vt 0.652252 0.241741
vt 0.652999 0.282387
vt 0.626279 0.282387
vt 0.626922 0.241741
vt 0.255671 0.24197
vt 0.371084 0.24197
vt 0.371084 0.282116
vt 0.255671 0.282116
vt 0.966356 0.808361
vt 0.915375 0.973055
vt 0.728119 0.241741
vt 0.729125 0.282387
vt 0.706457 0.282387
vt 0.700472 0.241741
vt 0.787024 0.863117
vt 0.98361 0.263091
vt 0.928589 0.231166
vt 0.987666 0.231166
vt 0.977689 0.309694
vt 0.982995 0.331683
vt 0.754347 0.282387
vt 0.754347 0.241741
vt 0.877465 0.351039
vt 0.243559 0.282387
vt 0.243559 0.241741
vt 0.987666 0.351039
vt 0.966356 0.974303
vt 0.523439 0.282387
vt 0.494201 0.241741
vt 0.527938 0.241741
vt 0.546639 0.282387
vt 0.615191 0.241741
vt 0.615191 0.282387
vt 0.816659 0.975
vt 0.910028 0.231166
vt 0.787024 0.975285
vt 0.787024 0.793406
vt 0.787024 0.679486


#
# MESH 000
#
g surface_000
usemtl surface_000
f 85/85/85 86/86/86 10/10/10
f 85/85/85 10/10/10 9/9/9
f 9/9/9 10/10/10 11/11/11
f 9/9/9 11/11/11 12/12/12
f 12/12/12 11/11/11 53/53/53
f 12/12/12 53/53/53 52/52/52
f 52/52/52 53/53/53 54/54/54
f 52/52/52 54/54/54 55/55/55
f 83/83/83 60/60/60 84/84/84
f 83/83/83 61/61/61 60/60/60
f 60/60/60 61/61/61 62/62/62
f 60/60/60 62/62/62 63/63/63
f 83/83/83 6/6/6 61/61/61
f 6/6/6 51/51/51 61/61/61
f 61/61/61 51/51/51 78/78/78
f 61/61/61 78/78/78 62/62/62
f 6/6/6 50/50/50 51/51/51
f 79/79/79 40/40/40 39/39/39
f 39/39/39 40/40/40 41/41/41
f 73/73/73 74/74/74 28/28/28
f 73/73/73 28/28/28 27/27/27
f 25/25/25 27/27/27 28/28/28
f 25/25/25 26/26/26 27/27/27
f 46/46/46 26/26/26 25/25/25
f 46/46/46 25/25/25 47/47/47
f 71/71/71 45/45/45 72/72/72
f 6/6/6 45/45/45 71/71/71
f 6/6/6 44/44/44 45/45/45
f 45/45/45 44/44/44 88/88/88
f 44/44/44 87/87/87 88/88/88
f 44/44/44 81/81/81 87/87/87
f 44/44/44 80/80/80 81/81/81
f 71/71/71 75/75/75 6/6/6
f 6/6/6 75/75/75 67/67/67
f 6/6/6 67/67/67 68/68/68
f 6/6/6 80/80/80 44/44/44
f 6/6/6 5/5/5 80/80/80
f 5/5/5 6/6/6 7/7/7
f 5/5/5 7/7/7 8/8/8
f 29/29/29 58/58/58 59/59/59
f 13/13/13 58/58/58 29/29/29
f 58/58/58 13/13/13 76/76/76
f 13/13/13 69/69/69 76/76/76
f 13/13/13 57/57/57 69/69/69
f 13/13/13 56/56/56 57/57/57
f 13/13/13 70/70/70 56/56/56
f 70/70/70 13/13/13 66/66/66
f 13/13/13 29/29/29 30/30/30
f 13/13/13 30/30/30 82/82/82
f 13/13/13 82/82/82 14/14/14
f 13/13/13 14/14/14 15/15/15
f 13/13/13 15/15/15 16/16/16
f 13/13/13 16/16/16 77/77/77
f 13/13/13 77/77/77 64/64/64
f 13/13/13 64/64/64 65/65/65
f 13/13/13 65/65/65 66/66/66
f 48/48/48 1/1/1 49/49/49
f 48/48/48 2/2/2 1/1/1
f 1/1/1 2/2/2 3/3/3
f 1/1/1 3/3/3 4/4/4
f 35/35/35 37/37/37 38/38/38
f 35/35/35 36/36/36 37/37/37
f 43/43/43 36/36/36 35/35/35
f 43/43/43 42/42/42 36/36/36
f 19/19/19 42/42/42 43/43/43
f 19/19/19 43/43/43 20/20/20
f 17/17/17 19/19/19 20/20/20
f 17/17/17 18/18/18 19/19/19
f 31/31/31 33/33/33 34/34/34
f 31/31/31 32/32/32 33/33/33
f 90/90/90 32/32/32 31/31/31
f 89/89/89 32/32/32 90/90/90
f 22/22/22 32/32/32 89/89/89
f 22/22/22 21/21/21 32/32/32
f 21/21/21 22/22/22 23/23/23
f 21/21/21 23/23/23 24/24/24
f 100/100/100 102/102/102 142/142/142
f 100/100/100 101/101/101 102/102/102
f 123/123/123 101/101/101 100/100/100
f 131/131/131 101/101/101 123/123/123
f 131/131/131 119/119/119 101/101/101
f 101/101/101 119/119/119 120/120/120
f 137/137/137 138/138/138 139/139/139
f 137/137/137 139/139/139 140/140/140
f 140/140/140 139/139/139 107/107/107
f 140/140/140 107/107/107 143/143/143
f 143/143/143 107/107/107 106/106/106
f 106/106/106 107/107/107 108/108/108
f 108/108/108 107/107/107 147/147/147
f 147/147/147 107/107/107 148/148/148
f 139/139/139 148/148/148 107/107/107
f 133/133/133 103/103/103 136/136/136
f 133/133/133 104/104/104 103/103/103
f 103/103/103 104/104/104 105/105/105
f 133/133/133 134/134/134 104/104/104
f 104/104/104 134/134/134 114/114/114
f 104/104/104 114/114/114 130/130/130
f 104/104/104 130/130/130 127/127/127
f 126/126/126 104/104/104 127/127/127
f 113/113/113 130/130/130 114/114/114
f 113/113/113 114/114/114 115/115/115
f 97/97/97 135/135/135 98/98/98
f 97/97/97 98/98/98 99/99/99
f 91/91/91 93/93/93 132/132/132
f 91/91/91 92/92/92 93/93/93
f 94/94/94 124/124/124 125/125/125
f 94/94/94 129/129/129 124/124/124
f 128/128/128 129/129/129 94/94/94
f 128/128/128 94/94/94 141/141/141
f 128/128/128 141/141/141 146/146/146
f 146/146/146 141/141/141 144/144/144
f 144/144/144 141/141/141 145/145/145
f 145/145/145 141/141/141 121/121/121
f 121/121/121 141/141/141 94/94/94
f 121/121/121 94/94/94 122/122/122
f 122/122/122 94/94/94 117/117/117
f 117/117/117 94/94/94 118/118/118
f 116/116/116 117/117/117 118/118/118
f 94/94/94 96/96/96 118/118/118
f 94/94/94 95/95/95 96/96/96
f 109/109/109 111/111/111 112/112/112
f 109/109/109 110/110/110 111/111/111
f 200/200/200 154/154/154 199/199/199
f 199/199/199 154/154/154 153/153/153
f 153/153/153 154/154/154 155/155/155
f 153/153/153 155/155/155 177/177/177
f 177/177/177 155/155/155 196/196/196
f 177/177/177 196/196/196 198/198/198
f 154/154/154 172/172/172 155/155/155
f 154/154/154 171/171/171 172/172/172
f 172/172/172 171/171/171 189/189/189
f 193/193/193 194/194/194 195/195/195
f 193/193/193 192/192/192 194/194/194
f 190/190/190 192/192/192 193/193/193
f 190/190/190 191/191/191 192/192/192
f 158/158/158 191/191/191 190/190/190
f 158/158/158 157/157/157 191/191/191
f 156/156/156 157/157/157 158/158/158
f 156/156/156 158/158/158 159/159/159
f 185/185/185 182/182/182 188/188/188
f 161/161/161 182/182/182 185/185/185
f 161/161/161 181/181/181 182/182/182
f 181/181/181 161/161/161 197/197/197
f 197/197/197 179/179/179 181/181/181
f 181/181/181 179/179/179 178/178/178
f 178/178/178 179/179/179 180/180/180
f 197/197/197 161/161/161 160/160/160
f 160/160/160 161/161/161 162/162/162
f 186/186/186 149/149/149 187/187/187
f 186/186/186 150/150/150 149/149/149
f 149/149/149 150/150/150 151/151/151
f 149/149/149 151/151/151 152/152/152
f 183/183/183 173/173/173 184/184/184
f 183/183/183 174/174/174 173/173/173
f 173/173/173 174/174/174 175/175/175
f 173/173/173 175/175/175 176/176/176
f 176/176/176 175/175/175 164/164/164
f 176/176/176 164/164/164 163/163/163
f 163/163/163 164/164/164 165/165/165
f 163/163/163 165/165/165 166/166/166
f 167/167/167 169/169/169 170/170/170
f 167/167/167 168/168/168 169/169/169

