#
# OBJECT NAME
#
o model_1287
mtllib 1287.mtl

#
# VERTEX BUFFER 000
#
v 0.429611 1.84596 0.5
v 0.429611 1.93786 0.23148
v 0.429611 0.122221 0.5
v -0.429611 0.122221 0.5
v -0.429611 1.93786 0.23148
v -0.429611 1.84596 0.5
v -0.429611 1.93786 0.459234
v -0.429611 2 0.366379
v 0.429611 0.122221 -0.343911
v 0.429611 1.93786 -0.343911
v -0.429611 0.122221 -0.343911
v -0.429611 1.93786 -0.343911
v 0.429611 1.93786 0.459234
v -0.429611 2 0.23148
v 0.429611 2 0.23148
v 0.429611 2 0.366379
v -0.429611 0.122221 -0.343911
v -0.429611 0.122221 0.278201
v 0.429611 0.122221 0.278201
v 0.429611 0.122221 -0.343911
v 0.429611 1.93786 -0.343911
v -0.429611 1.93786 -0.343911
v -0.429611 0.122221 -0.343911
v 0.429611 0.122221 -0.343911
v -0.429611 0.122221 0.5
v 0.429611 0.122221 0.5
v -0.429611 1.93786 0.278201
v -0.429611 1.93786 -0.343911
v 0.429611 1.93786 -0.343911
v 0.429611 1.93786 0.278201
v -0.429611 0.24536 0.495949
v -0.429611 1.01075 0.49595
v -0.429611 1.01075 0.432313
v -0.429611 0.24536 0.432312
v -0.429611 1.84596 0.49595
v -0.429611 1.93786 0.455183
v -0.429611 1.8939 0.406737
v -0.429611 1.82962 0.432313
v -0.429611 2 0.362329
v -0.429611 1.93786 0.342653
v -0.429611 1.98044 0.274151
v 0.429611 0.245361 0.432312
v 0.429611 1.01075 0.432313
v 0.429611 1.01075 0.49595
v 0.429611 0.245361 0.495949
v 0.429611 1.84596 0.49595
v 0.429611 1.82962 0.432313
v 0.429611 1.8939 0.406737
v 0.429611 1.93786 0.455183
v 0.429611 1.93786 0.342653
v 0.429611 2 0.362329
v 0.429611 1.98044 0.274151
v 0.225139 0.245362 0.495949
v 0.429611 0.245361 0.495949
v 0.147829 0.339578 0.495949
v -0.429611 1.84596 0.49595
v -0.147829 1.01075 0.49595
v 0.147829 1.01075 0.49595
v 0.429611 1.84596 0.49595
v -0.429611 1.01075 0.49595
v 0.429611 1.93786 0.455183
v -0.429611 1.93786 0.455183
v 0.429611 2 0.362329
v -0.429611 2 0.362329
v 0.429611 2 0.274151
v -0.429611 2 0.274151
v 0.429611 0.245361 0.495949
v 0.225139 0.245362 0.495949
v 0.225139 0.245362 0.432312
v 0.429611 0.245361 0.432312
v -0.147829 0.339578 0.495949
v -0.225139 0.245361 0.495949
v -0.429611 0.24536 0.495949
v -0.429611 0.24536 0.432312
v -0.225139 0.245361 0.432312
v 0.429611 2 0.274151
v 0.429611 1.98044 0.274151
v -0.429611 1.98044 0.274151
v -0.429611 2 0.274151
v 0.429611 1.8939 0.406737
v 0.429611 1.82962 0.432313
v -0.429611 1.82962 0.432313
v -0.429611 1.8939 0.406737
v -0.429611 1.93786 0.342653
v 0.429611 1.93786 0.342653
v -0.429611 1.93786 0.274151
v 0.429611 1.93786 0.274151
v 0.147829 0.339577 0.432313
v 0.429611 0.245361 0.432312
v 0.225139 0.245362 0.432312
v -0.147829 0.339577 0.432313
v -0.147829 1.01075 0.432313
v 0.147829 1.01075 0.432313
v -0.429611 1.01075 0.432313
v 0.147829 0.339577 0.432313
v 0.225139 0.245362 0.432312
v 0.225139 0.245362 0.495949
v 0.147829 0.339578 0.495949
v 0.147829 0.339578 0.495949
v -0.147829 0.339578 0.495949
v -0.147829 0.339577 0.432313
v 0.147829 0.339577 0.432313
v -0.147829 0.339578 0.495949
v -0.225139 0.245361 0.495949
v -0.225139 0.245361 0.432312
v -0.147829 0.339577 0.432313
v -0.429611 0.24536 0.432312
v 0.429611 1.01075 0.432313
v 0.429611 1.01075 0.49595
v 0.429611 1.01075 0.432313
v 0.429611 1.01075 0.49595
v -0.429611 0.24536 0.495949
v -0.429611 1.01075 0.432313
v -0.429611 1.01075 0.49595
v -0.225139 0.245361 0.432312
v -0.225139 0.245361 0.495949
v 0.429611 1.93786 0.274151
v -0.429611 1.93786 0.274151
v 0.429611 2 0.274151
v -0.429611 2 0.274151
v -0.429611 1.93786 0.274151
v 0.429611 1.93786 0.274151
v -0.429611 0.122221 -0.5
v 0.429611 0.122221 -0.5
v 0.429611 0.038225 -0.467379
v -0.429611 0.038225 -0.467379
v -0.429611 0 0.409052
v 0.429611 0 0.409052
v 0.429611 0.038225 0.467379
v -0.429611 0.038225 0.467379
v 0.429611 0.122221 0.5
v -0.429611 0.122221 0.5
v 0.429611 0 -0.409052
v -0.429611 0 -0.409052
v 0.429611 2 -0.366379
v -0.429611 2 -0.366379
v -0.429611 2 0.23148
v 0.429611 2 0.23148
v 0.429611 1.93786 -0.459234
v -0.429611 1.93786 -0.459234
v 0.429611 1.84596 -0.5
v -0.429611 1.84596 -0.5
v 0.429611 1.98044 0.278201
v -0.429611 1.98044 0.278201
v -0.429611 1.93786 0.278201
v 0.429611 1.93786 0.278201
v -0.429611 1.98044 0.278201
v 0.429611 1.98044 0.278201
v 0.429611 1.98044 0.23148
v -0.429611 1.98044 0.23148
v 0.429611 2 0.23148
v -0.429611 2 0.23148
v -0.429611 1.98044 0.23148
v 0.429611 1.98044 0.23148
v -0.429611 2 -0.366379
v -0.5 1.8893 -0.319609
v -0.5 1.8893 0.319609
v -0.429611 2 0.278201
v -0.5 0.135185 0.412583
v -0.5 0.135185 -0.412583
v -0.5 0.073 -0.396884
v -0.5 0.073 0.396884
v -0.5 1.8893 -0.319609
v -0.5 1.85145 -0.379217
v -0.5 1.85145 0.379217
v -0.5 1.8893 0.319609
v -0.429611 1.93786 -0.459234
v -0.5 1.85145 -0.379217
v -0.5 1.79427 0.412583
v -0.5 1.79427 -0.412583
v -0.429611 0.122221 -0.5
v -0.429611 0.038225 -0.467379
v -0.5 0.073 -0.396884
v -0.5 0.135185 -0.412583
v -0.429611 0 -0.409052
v -0.429611 0 0.409052
v -0.5 0.052036 0.366941
v -0.5 0.052036 -0.366941
v -0.429611 0.038225 0.467379
v -0.5 0.073 0.396884
v -0.429611 1.84596 0.5
v -0.5 1.79427 0.412583
v -0.5 0.135185 0.412583
v -0.429611 0.122221 0.5
v -0.429611 1.93786 0.459234
v -0.5 1.85145 0.379217
v -0.429611 2 0.366379
v -0.429611 2 0.278201
v -0.5 1.79427 -0.412583
v -0.429611 1.84596 -0.5
v -0.5 0.052036 -0.366941
v -0.5 0.052036 0.366941
v 0.429611 2 -0.366379
v 0.429611 2 0.278201
v 0.5 1.8893 0.319609
v 0.5 1.8893 -0.319609
v 0.5 0.135185 0.412583
v 0.5 0.073 0.396884
v 0.5 0.073 -0.396884
v 0.5 0.135185 -0.412583
v 0.5 1.8893 -0.319609
v 0.5 1.8893 0.319609
v 0.5 1.85145 0.379217
v 0.5 1.85145 -0.379217
v 0.5 1.85145 -0.379217
v 0.429611 1.93786 -0.459234
v 0.5 1.79427 -0.412583
v 0.5 1.79427 0.412583
v 0.429611 0.122221 -0.5
v 0.5 0.135185 -0.412583
v 0.5 0.073 -0.396884
v 0.429611 0.038225 -0.467379
v 0.429611 0 -0.409052
v 0.5 0.052036 -0.366941
v 0.5 0.052036 0.366941
v 0.429611 0 0.409052
v 0.5 0.073 0.396884
v 0.429611 0.038225 0.467379
v 0.429611 1.84596 0.5
v 0.429611 0.122221 0.5
v 0.5 0.135185 0.412583
v 0.5 1.79427 0.412583
v 0.5 1.85145 0.379217
v 0.429611 1.93786 0.459234
v 0.429611 2 0.278201
v 0.429611 2 0.366379
v 0.429611 1.84596 -0.5
v 0.5 1.79427 -0.412583
v 0.5 0.052036 -0.366941
v 0.5 0.052036 0.366941
v -0.429611 0.122221 0.5
v 0.429611 0.122221 0.5
v 0.429611 0.24536 0.5
v -0.429611 0.245357 0.5
v 0.429611 0.122221 0.368719
v -0.429611 0.122221 0.368719
v -0.429611 0.245357 0.368719
v 0.429611 0.24536 0.368719
v 0.429611 0.24536 0.5
v 0.429611 0.24536 0.368719
v -0.429611 0.245357 0.368719
v -0.429611 0.245357 0.5

vn -1 0 0
vn -1 0 0
vn -1 0 0
vn 1 0 0
vn 1 0 0
vn 1 0 0
vn 1 0 0
vn 1 0 0
vn -1 0 0
vn -1 0 0
vn 1 0 0
vn 1 0 0
vn -1 0 0
vn 1 0 0
vn -1 0 0
vn -1 0 0
vn 0 1 0
vn 0 1 0
vn 0 1 0
vn 0 1 0
vn 0 0 1
vn 0 0 1
vn 0 0 1
vn 0 0 1
vn 0 1 0
vn 0 1 0
vn 0 -1 0
vn 0 -1 0
vn 0 -1 0
vn 0 -1 0
vn -1 1.78814e-007 -1.78814e-007
vn -1 1.78814e-007 -1.78814e-007
vn -1 1.78814e-007 -1.78814e-007
vn -1 1.78814e-007 -1.78814e-007
vn -1 0 0
vn -1 0 0
vn -1 0 0
vn -1 0 0
vn -1 0 0
vn -1 0 0
vn -1 1.78814e-007 -1.78814e-007
vn 1 1.78814e-007 -1.78814e-007
vn 1 1.78814e-007 -1.78814e-007
vn 1 1.78814e-007 -1.78814e-007
vn 1 1.78814e-007 -1.78814e-007
vn 1 0 0
vn 1 0 0
vn 1 0 0
vn 1 0 0
vn 1 0 0
vn 1 0 0
vn 1 0 0
vn 0 2.98023e-007 1
vn 2.38419e-007 -1.01328e-006 1
vn 1.19209e-007 -1.01328e-006 1
vn 0 0.0718994 0.99707
vn 0 -3.57628e-007 1
vn 0 -3.57628e-007 1
vn 0 0.0718994 0.99707
vn 0 -6.55651e-007 1
vn 0 0.654785 0.755371
vn 0 0.654785 0.755371
vn 0 0.945801 0.324463
vn 0 0.945801 0.324463
vn 0 1 -1.19209e-007
vn 0 1 -1.19209e-007
vn -5.126e-006 -1 -2.38419e-007
vn -5.126e-006 -1 -2.38419e-007
vn -5.126e-006 -1 -2.38419e-007
vn -5.126e-006 -1 -2.38419e-007
vn 0 -9.53674e-007 1
vn 4.82798e-006 -1 -2.98023e-007
vn 4.82798e-006 -1 -2.98023e-007
vn 4.82798e-006 -1 -2.98023e-007
vn 4.82798e-006 -1 -2.98023e-007
vn 0 -2.44379e-006 -1
vn 0 -8.34465e-007 -1
vn 0 -8.34465e-007 -1
vn 0 -2.44379e-006 -1
vn 0 -0.637695 -0.77002
vn 0 -0.0484619 -0.998535
vn 0 -0.0484619 -0.998535
vn 0 -0.637695 -0.77002
vn 0 -0.94873 -0.314697
vn 0 -0.94873 -0.314697
vn 0 -1 0
vn 0 -1 0
vn -5.96046e-007 3.57628e-007 -1
vn -1.13249e-006 5.96046e-007 -1
vn 0 1.10865e-005 -1
vn 5.96046e-007 4.17233e-007 -1
vn 1.78814e-007 1.19209e-007 -1
vn -1.78814e-007 1.19209e-007 -1
vn 5.96046e-007 4.17233e-007 -1
vn -0.772949 -0.634277 3.27826e-006
vn -0.772949 -0.634277 3.27826e-006
vn -0.772949 -0.634277 3.27826e-006
vn -0.772949 -0.634277 3.27826e-006
vn 0 -1 1.16825e-005
vn 0 -1 1.16825e-005
vn 0 -1 1.16825e-005
vn 0 -1 1.16825e-005
vn 0.772949 -0.634277 3.21865e-006
vn 0.772949 -0.634277 3.21865e-006
vn 0.772949 -0.634277 3.21865e-006
vn 0.772949 -0.634277 3.21865e-006
vn 1.13249e-006 7.15256e-007 -1
vn -5.96046e-007 3.57628e-007 -1
vn 1 0 0
vn 1 0 0
vn 1.78814e-007 -6.55651e-007 1
vn 0 -9.53674e-007 1
vn -1 0 0
vn -1 0 0
vn 0 8.04663e-006 -1
vn -2.98023e-007 -8.9407e-007 1
vn 0 -1.19209e-007 -1
vn 0 -1.19209e-007 -1
vn 1 7.15256e-007 -7.15256e-007
vn -1 1.49012e-006 -1.49012e-006
vn -1 0 0
vn 1 0 0
vn 0 -0.0180359 -0.999512
vn 0 -0.0180359 -0.999512
vn 0 -0.59668 -0.802246
vn 0 -0.59668 -0.802246
vn 0 -0.999023 0.0435486
vn 0 -0.999023 0.0435486
vn 0 -0.59668 0.802246
vn 0 -0.59668 0.802246
vn 0 -0.361816 0.932129
vn 0 -0.361816 0.932129
vn 0 -0.999023 -0.0435486
vn 0 -0.999023 -0.0435486
vn 0 0.995605 -0.0895996
vn 0 0.995605 -0.0895996
vn 0 1 0
vn 0 1 0
vn 0 0.654785 -0.755371
vn 0 0.654785 -0.755371
vn 0 0.0224457 -0.999512
vn 0 0.0224457 -0.999512
vn 0 0 1
vn 0 0 1
vn 0 0 1
vn 0 0 1
vn 0 1 0
vn 0 1 0
vn 0 1 0
vn 0 1 0
vn 0 0 1
vn 0 0 1
vn 0 0 1
vn 0 0 1
vn -0.850586 0.523926 -0.0411682
vn -0.849121 0.526367 -0.0332031
vn -0.851074 0.522461 0.0460815
vn -0.84375 0.536133 0
vn -1 0 0
vn -1 0 0
vn -1 0 0
vn -1 0 0
vn -1 0 0
vn -1 0 0
vn -1 0 0
vn -1 0 0
vn -0.85498 0.356689 -0.375732
vn -0.854004 0.347168 -0.387207
vn -1 0 0
vn -1 0 0
vn -0.77832 -0.00824738 -0.626953
vn -0.755371 -0.341309 -0.559082
vn -0.750977 -0.375732 -0.541992
vn -0.77832 -0.00840759 -0.626953
vn -0.609863 -0.791016 -0.0406799
vn -0.609863 -0.791016 0.0406799
vn -0.603027 -0.797363 0.0219879
vn -0.603027 -0.797363 -0.0219879
vn -0.755371 -0.341309 0.559082
vn -0.750977 -0.375732 0.541992
vn -0.784668 0.018631 0.618652
vn -0.782227 0.0103149 0.622559
vn -0.77832 -0.00840759 0.626953
vn -0.77832 -0.00824738 0.626953
vn -0.85498 0.356689 0.375732
vn -0.854004 0.347168 0.387207
vn -0.861328 0.465332 0.202881
vn -0.84375 0.536133 0
vn -0.782227 0.0103149 -0.622559
vn -0.784668 0.018631 -0.618652
vn -1 0 0
vn -1 0 0
vn 0.850586 0.523926 -0.0411682
vn 0.84375 0.536133 0
vn 0.851074 0.522461 0.0460815
vn 0.849121 0.526367 -0.0332031
vn 1 0 0
vn 1 0 0
vn 1 0 0
vn 1 0 0
vn 1 0 0
vn 1 0 0
vn 1 0 0
vn 1 0 0
vn 0.854004 0.347168 -0.387207
vn 0.85498 0.356689 -0.375732
vn 1 0 0
vn 1 0 0
vn 0.77832 -0.00824738 -0.626953
vn 0.77832 -0.00840759 -0.626953
vn 0.750977 -0.375732 -0.541992
vn 0.755371 -0.341309 -0.559082
vn 0.609863 -0.791016 -0.0406799
vn 0.603027 -0.797363 -0.0219879
vn 0.603027 -0.797363 0.0219879
vn 0.609863 -0.791016 0.0406799
vn 0.750977 -0.375732 0.541992
vn 0.755371 -0.341309 0.559082
vn 0.784668 0.018631 0.618652
vn 0.77832 -0.00824738 0.626953
vn 0.77832 -0.00840759 0.626953
vn 0.782227 0.0103149 0.622559
vn 0.854004 0.347168 0.387207
vn 0.85498 0.356689 0.375732
vn 0.84375 0.536133 0
vn 0.861328 0.465332 0.202881
vn 0.784668 0.018631 -0.618652
vn 0.782227 0.0103149 -0.622559
vn 1 0 0
vn 1 0 0
vn 0 0 1
vn 0 0 1
vn 0 0 1
vn 0 0 1
vn 0 0 -1
vn 0 0 -1
vn 0 0 -1
vn 0 0 -1
vn -3.45707e-006 1 0
vn -3.45707e-006 1 0
vn -3.45707e-006 1 0
vn -3.45707e-006 1 0

vt 0.176339 0.910122
vt 0.128257 0.927766
vt 0.176339 0.578147
vt 0.176339 0.578147
vt 0.128257 0.927766
vt 0.176339 0.910122
vt 0.168689 0.927766
vt 0.152141 0.939696
vt 0.0165656 0.578147
vt 0.0165655 0.927766
vt 0.0165656 0.578147
vt 0.0165655 0.927766
vt 0.168689 0.927766
vt 0.128257 0.939696
vt 0.128257 0.939696
vt 0.152141 0.939696
vt 0.774411 0.427625
vt 0.774411 0.315595
vt 0.939914 0.315595
vt 0.939914 0.427625
vt 0.990988 0.918621
vt 0.830842 0.918621
vt 0.830842 0.575624
vt 0.990988 0.575624
vt 0.774411 0.268083
vt 0.939914 0.268083
vt 0.774411 0.196736
vt 0.774411 0.0836672
vt 0.939914 0.0836672
vt 0.939914 0.196736
vt 0.640416 0.978449
vt 0.361114 0.978449
vt 0.361114 0.996275
vt 0.640416 0.996275
vt 0.0919422 0.978449
vt 0.0643068 0.978449
vt 0.0643067 0.996275
vt 0.0919421 0.996275
vt 0.0356365 0.978449
vt 0.0356363 0.996275
vt 0.00325719 0.984388
vt 0.640416 0.996275
vt 0.361117 0.996275
vt 0.361117 0.978449
vt 0.640416 0.978449
vt 0.0919473 0.978449
vt 0.0919473 0.996275
vt 0.0643116 0.996275
vt 0.0643116 0.978449
vt 0.0356408 0.996275
vt 0.0356407 0.978449
vt 0.00326115 0.984388
vt 0.189966 0.00549835
vt 0.247 0.00549805
vt 0.168401 0.0317786
vt 0.00733303 0.474074
vt 0.0859319 0.241105
vt 0.168401 0.241105
vt 0.247 0.474074
vt 0.00733303 0.241105
vt 0.247 0.503329
vt 0.00733303 0.503329
vt 0.247 0.534037
vt 0.00733303 0.534037
vt 0.247 0.566609
vt 0.00733303 0.566609
vt 0.648619 0.978449
vt 0.723396 0.978449
vt 0.723396 0.996275
vt 0.648619 0.996275
vt 0.0859319 0.0317786
vt 0.92066 0.978449
vt 0.995436 0.978449
vt 0.995436 0.996275
vt 0.92066 0.996275
vt 0.00326109 0.953553
vt 0.00326109 0.959008
vt 0.267482 0.959008
vt 0.267482 0.953553
vt 0.269367 0.90134
vt 0.269367 0.884743
vt 0.463762 0.884743
vt 0.463762 0.90134
vt 0.463762 0.918556
vt 0.269367 0.918556
vt 0.463762 0.939158
vt 0.269367 0.939158
vt 0.333118 0.529692
vt 0.269367 0.508375
vt 0.315627 0.508376
vt 0.40001 0.529692
vt 0.40001 0.699478
vt 0.333118 0.699478
vt 0.463762 0.699478
vt 0.767967 0.996275
vt 0.723396 0.996275
vt 0.723396 0.978449
vt 0.767967 0.978449
vt 0.767967 0.978449
vt 0.87609 0.978449
vt 0.87609 0.996275
vt 0.767967 0.996275
vt 0.87609 0.978449
vt 0.92066 0.978449
vt 0.92066 0.996275
vt 0.87609 0.996275
vt 0.463762 0.508375
vt 0.269367 0.699478
vt 0.361117 0.978449
vt 0.361117 0.996275
vt 0.247 0.241105
vt 0.00733303 0.00549781
vt 0.361114 0.996275
vt 0.361114 0.978449
vt 0.417501 0.508375
vt 0.0643674 0.00549805
vt 0.00326109 0.970886
vt 0.267482 0.970886
vt 0.00326109 0.978449
vt 0.00325713 0.978449
vt 0.00325695 0.996275
vt 0.00326115 0.996275
vt 0.710737 0.276017
vt 0.485243 0.276017
vt 0.485243 0.25988
vt 0.710737 0.25988
vt 0.710737 0.0397866
vt 0.485243 0.0397866
vt 0.485243 0.0216352
vt 0.710737 0.0216352
vt 0.485243 0.00549805
vt 0.710737 0.00549805
vt 0.485243 0.241729
vt 0.710737 0.241729
vt 0.485243 0.7867
vt 0.710737 0.7867
vt 0.710737 0.939997
vt 0.485243 0.939997
vt 0.485243 0.758045
vt 0.710737 0.758045
vt 0.485243 0.730746
vt 0.710737 0.730746
vt 0.721424 0.953666
vt 0.946918 0.953666
vt 0.946918 0.970237
vt 0.721424 0.970237
vt 0.946918 0.943764
vt 0.721424 0.943764
vt 0.721424 0.932438
vt 0.946918 0.932438
vt 0.485243 0.948783
vt 0.710737 0.948783
vt 0.710737 0.956813
vt 0.485243 0.956813
vt 0.763769 0.563177
vt 0.775753 0.530895
vt 0.940943 0.530895
vt 0.927494 0.563076
vt 0.480975 0.0190178
vt 0.256967 0.0190178
vt 0.261082 0.0109261
vt 0.47686 0.0109261
vt 0.280647 0.499725
vt 0.266288 0.488732
vt 0.471639 0.488732
vt 0.457255 0.499725
vt 0.73711 0.545169
vt 0.759617 0.521119
vt 0.480975 0.473586
vt 0.256967 0.473586
vt 0.720893 0.0372351
vt 0.732736 0.0194249
vt 0.754429 0.0332931
vt 0.750295 0.0415447
vt 0.749909 0.00552547
vt 0.966834 0.00552547
vt 0.953835 0.0277578
vt 0.762902 0.0277578
vt 0.984004 0.0194256
vt 0.962307 0.0332931
vt 0.99573 0.518346
vt 0.966442 0.506207
vt 0.966442 0.0415447
vt 0.99573 0.0372349
vt 0.979926 0.544972
vt 0.957104 0.521119
vt 0.953861 0.563177
vt 0.927565 0.563091
vt 0.750295 0.506207
vt 0.720893 0.518383
vt 0.269054 0.00549805
vt 0.468889 0.00549805
vt 0.763769 0.563177
vt 0.927494 0.563076
vt 0.940943 0.530895
vt 0.775753 0.530895
vt 0.480975 0.0190178
vt 0.47686 0.0109261
vt 0.261082 0.0109261
vt 0.256967 0.0190178
vt 0.280647 0.499725
vt 0.457255 0.499725
vt 0.471639 0.488732
vt 0.266288 0.488732
vt 0.759617 0.521119
vt 0.73711 0.545169
vt 0.256967 0.473586
vt 0.480975 0.473586
vt 0.720893 0.0372351
vt 0.750295 0.0415447
vt 0.754429 0.0332931
vt 0.732736 0.0194249
vt 0.749909 0.00552547
vt 0.762902 0.0277578
vt 0.953835 0.0277578
vt 0.966834 0.00552547
vt 0.962307 0.0332931
vt 0.984004 0.0194256
vt 0.99573 0.518346
vt 0.99573 0.0372349
vt 0.966442 0.0415447
vt 0.966442 0.506207
vt 0.957104 0.521119
vt 0.979926 0.544972
vt 0.927565 0.563091
vt 0.953861 0.563177
vt 0.720893 0.518383
vt 0.750295 0.506207
vt 0.269054 0.00549805
vt 0.468889 0.00549805
vt 0.810725 0.625843
vt 0.810726 0.88716
vt 0.783902 0.88716
vt 0.783902 0.625843
vt 0.731201 0.88716
vt 0.731202 0.625843
vt 0.758251 0.625843
vt 0.758251 0.88716
vt 0.242619 0.88716
vt 0.201338 0.88716
vt 0.201338 0.625843
vt 0.242619 0.625843


#
# MESH 000
#
g surface_000
usemtl surface_000
f 15/15/15 2/2/2 16/16/16
f 16/16/16 2/2/2 13/13/13
f 13/13/13 2/2/2 1/1/1
f 1/1/1 2/2/2 3/3/3
f 9/9/9 3/3/3 2/2/2
f 9/9/9 2/2/2 10/10/10
f 8/8/8 5/5/5 14/14/14
f 7/7/7 5/5/5 8/8/8
f 7/7/7 6/6/6 5/5/5
f 4/4/4 5/5/5 6/6/6
f 5/5/5 4/4/4 11/11/11
f 11/11/11 12/12/12 5/5/5
f 27/27/27 29/29/29 30/30/30
f 27/27/27 28/28/28 29/29/29
f 25/25/25 26/26/26 19/19/19
f 25/25/25 19/19/19 18/18/18
f 17/17/17 18/18/18 19/19/19
f 17/17/17 19/19/19 20/20/20
f 21/21/21 23/23/23 24/24/24
f 21/21/21 22/22/22 23/23/23
f 122/122/122 52/52/52 50/50/50
f 50/50/50 52/52/52 51/51/51
f 49/49/49 50/50/50 51/51/51
f 49/49/49 48/48/48 50/50/50
f 46/46/46 48/48/48 49/49/49
f 46/46/46 47/47/47 48/48/48
f 47/47/47 46/46/46 109/109/109
f 47/47/47 109/109/109 110/110/110
f 119/119/119 51/51/51 52/52/52
f 121/121/121 40/40/40 41/41/41
f 39/39/39 41/41/41 40/40/40
f 120/120/120 41/41/41 39/39/39
f 36/36/36 39/39/39 40/40/40
f 36/36/36 40/40/40 37/37/37
f 35/35/35 36/36/36 37/37/37
f 35/35/35 37/37/37 38/38/38
f 35/35/35 38/38/38 113/113/113
f 35/35/35 113/113/113 114/114/114
f 117/117/117 118/118/118 78/78/78
f 117/117/117 78/78/78 77/77/77
f 76/76/76 77/77/77 78/78/78
f 76/76/76 78/78/78 79/79/79
f 116/116/116 71/71/71 112/112/112
f 112/112/112 71/71/71 57/57/57
f 112/112/112 57/57/57 60/60/60
f 56/56/56 60/60/60 57/57/57
f 56/56/56 57/57/57 58/58/58
f 56/56/56 58/58/58 59/59/59
f 56/56/56 59/59/59 61/61/61
f 56/56/56 61/61/61 62/62/62
f 71/71/71 58/58/58 57/57/57
f 71/71/71 55/55/55 58/58/58
f 111/111/111 58/58/58 55/55/55
f 59/59/59 58/58/58 111/111/111
f 111/111/111 55/55/55 54/54/54
f 53/53/53 54/54/54 55/55/55
f 63/63/63 62/62/62 61/61/61
f 63/63/63 64/64/64 62/62/62
f 63/63/63 66/66/66 64/64/64
f 63/63/63 65/65/65 66/66/66
f 115/115/115 107/107/107 91/91/91
f 91/91/91 107/107/107 94/94/94
f 91/91/91 94/94/94 92/92/92
f 91/91/91 92/92/92 93/93/93
f 91/91/91 93/93/93 88/88/88
f 93/93/93 89/89/89 88/88/88
f 88/88/88 89/89/89 90/90/90
f 92/92/92 94/94/94 82/82/82
f 82/82/82 93/93/93 92/92/92
f 82/82/82 81/81/81 93/93/93
f 81/81/81 108/108/108 93/93/93
f 93/93/93 108/108/108 89/89/89
f 80/80/80 81/81/81 82/82/82
f 80/80/80 82/82/82 83/83/83
f 83/83/83 85/85/85 80/80/80
f 83/83/83 84/84/84 85/85/85
f 85/85/85 84/84/84 86/86/86
f 85/85/85 86/86/86 87/87/87
f 103/103/103 105/105/105 106/106/106
f 103/103/103 104/104/104 105/105/105
f 99/99/99 101/101/101 102/102/102
f 99/99/99 100/100/100 101/101/101
f 95/95/95 97/97/97 98/98/98
f 95/95/95 96/96/96 97/97/97
f 72/72/72 74/74/74 75/75/75
f 72/72/72 73/73/73 74/74/74
f 67/67/67 69/69/69 70/70/70
f 67/67/67 68/68/68 69/69/69
f 42/42/42 44/44/44 45/45/45
f 42/42/42 43/43/43 44/44/44
f 31/31/31 33/33/33 34/34/34
f 31/31/31 32/32/32 33/33/33
f 151/151/151 153/153/153 154/154/154
f 151/151/151 152/152/152 153/153/153
f 147/147/147 149/149/149 150/150/150
f 147/147/147 148/148/148 149/149/149
f 143/143/143 145/145/145 146/146/146
f 143/143/143 144/144/144 145/145/145
f 135/135/135 137/137/137 138/138/138
f 135/135/135 136/136/136 137/137/137
f 136/136/136 135/135/135 139/139/139
f 136/136/136 139/139/139 140/140/140
f 141/141/141 140/140/140 139/139/139
f 141/141/141 142/142/142 140/140/140
f 141/141/141 123/123/123 142/142/142
f 141/141/141 124/124/124 123/123/123
f 123/123/123 124/124/124 125/125/125
f 123/123/123 125/125/125 126/126/126
f 133/133/133 126/126/126 125/125/125
f 133/133/133 134/134/134 126/126/126
f 133/133/133 127/127/127 134/134/134
f 133/133/133 128/128/128 127/127/127
f 127/127/127 128/128/128 129/129/129
f 127/127/127 129/129/129 130/130/130
f 131/131/131 130/130/130 129/129/129
f 131/131/131 132/132/132 130/130/130
f 229/229/229 198/198/198 230/230/230
f 229/229/229 199/199/199 198/198/198
f 197/197/197 198/198/198 199/199/199
f 197/197/197 199/199/199 200/200/200
f 197/197/197 200/200/200 207/207/207
f 197/197/197 207/207/207 208/208/208
f 207/207/207 203/203/203 208/208/208
f 207/207/207 204/204/204 203/203/203
f 201/201/201 203/203/203 204/204/204
f 201/201/201 202/202/202 203/203/203
f 195/195/195 225/225/225 226/226/226
f 226/226/226 223/223/223 195/195/195
f 226/226/226 224/224/224 223/223/223
f 219/219/219 223/223/223 224/224/224
f 219/219/219 222/222/222 223/223/223
f 219/219/219 221/221/221 222/222/222
f 219/219/219 220/220/220 221/221/221
f 220/220/220 217/217/217 221/221/221
f 220/220/220 218/218/218 217/217/217
f 216/216/216 217/217/217 218/218/218
f 216/216/216 215/215/215 217/217/217
f 213/213/213 215/215/215 216/216/216
f 213/213/213 214/214/214 215/215/215
f 213/213/213 211/211/211 214/214/214
f 213/213/213 212/212/212 211/211/211
f 209/209/209 211/211/211 212/212/212
f 209/209/209 210/210/210 211/211/211
f 209/209/209 228/228/228 210/210/210
f 209/209/209 227/227/227 228/228/228
f 227/227/227 205/205/205 228/228/228
f 227/227/227 206/206/206 205/205/205
f 193/193/193 205/205/205 206/206/206
f 193/193/193 196/196/196 205/205/205
f 193/193/193 195/195/195 196/196/196
f 193/193/193 194/194/194 195/195/195
f 191/191/191 192/192/192 162/162/162
f 191/191/191 162/162/162 161/161/161
f 159/159/159 161/161/161 162/162/162
f 159/159/159 160/160/160 161/161/161
f 159/159/159 170/170/170 160/160/160
f 159/159/159 169/169/169 170/170/170
f 170/170/170 169/169/169 165/165/165
f 170/170/170 165/165/165 164/164/164
f 163/163/163 164/164/164 165/165/165
f 163/163/163 165/165/165 166/166/166
f 187/187/187 188/188/188 157/157/157
f 187/187/187 157/157/157 186/186/186
f 187/187/187 186/186/186 185/185/185
f 181/181/181 185/185/185 186/186/186
f 181/181/181 186/186/186 182/182/182
f 181/181/181 182/182/182 183/183/183
f 181/181/181 183/183/183 184/184/184
f 184/184/184 183/183/183 180/180/180
f 184/184/184 180/180/180 179/179/179
f 176/176/176 179/179/179 180/180/180
f 176/176/176 180/180/180 177/177/177
f 175/175/175 176/176/176 177/177/177
f 175/175/175 177/177/177 178/178/178
f 175/175/175 178/178/178 173/173/173
f 175/175/175 173/173/173 172/172/172
f 171/171/171 172/172/172 173/173/173
f 171/171/171 173/173/173 174/174/174
f 171/171/171 174/174/174 189/189/189
f 171/171/171 189/189/189 190/190/190
f 190/190/190 189/189/189 168/168/168
f 190/190/190 168/168/168 167/167/167
f 155/155/155 167/167/167 168/168/168
f 155/155/155 168/168/168 156/156/156
f 155/155/155 156/156/156 157/157/157
f 155/155/155 157/157/157 158/158/158
f 239/239/239 241/241/241 242/242/242
f 239/239/239 240/240/240 241/241/241
f 235/235/235 237/237/237 238/238/238
f 235/235/235 236/236/236 237/237/237
f 231/231/231 233/233/233 234/234/234
f 231/231/231 232/232/232 233/233/233

