#
# OBJECT NAME
#
o model_1216
mtllib 1216.mtl

#
# VERTEX BUFFER 000
#
v 0.470179 0.530251 -0.247648
v 1.60213 1 -0.467624
v 0.325068 0.97372 -0.503916
v -0.509384 0.187461 0.269538
v -0.5 0 0.525
v 0.297196 0.0333133 0.332452
v 0.0650983 0.193617 0.132965
v 0.877428 0.335007 0.0748004
v 1.47539 0.726385 -0.18661
v 0.716012 0.352557 -0.0393534
v -0.5 1 -0.475
v -0.51476 0.472371 -0.0243727
v -0.185888 0.415864 -0.109472

vn -0.0225372 0.618652 0.784668
vn 0 0 1
vn 0.0306702 0.522461 0.851563
vn 0.145752 0.794434 0.589355
vn 0 0 1
vn 0 0 1
vn 0.0532227 0.787109 0.614258
vn -0.178101 0.806152 0.563477
vn -0.180786 0.703125 0.6875
vn -0.12439 0.749023 0.650391
vn 0 0 1
vn 0.234497 0.706055 0.66748
vn 0.10376 0.642578 0.758789

vt 0.465277 0.530251
vt 1 1
vt 0.396728 0.990995
vt 0.00253987 0.187461
vt 0.00697267 0
vt 0.383562 0.066215
vt 0.273921 0.212042
vt 0.684914 0.334306
vt 0.978517 0.686654
vt 0.585607 0.367882
vt 0.00697267 1
vt 0 0.472371
vt 0.155357 0.415864


#
# MESH 000
#
g surface_000
usemtl surface_000
f 4/4/4 5/5/5 6/6/6
f 4/4/4 6/6/6 7/7/7
f 13/13/13 4/4/4 7/7/7
f 13/13/13 12/12/12 4/4/4
f 11/11/11 12/12/12 13/13/13
f 11/11/11 13/13/13 1/1/1
f 11/11/11 1/1/1 3/3/3
f 1/1/1 2/2/2 3/3/3
f 6/6/6 10/10/10 7/7/7
f 1/1/1 7/7/7 10/10/10
f 1/1/1 13/13/13 7/7/7
f 6/6/6 8/8/8 10/10/10
f 8/8/8 9/9/9 10/10/10
f 9/9/9 1/1/1 10/10/10
f 9/9/9 2/2/2 1/1/1

