#
# OBJECT NAME
#
o model_3176
mtllib 3176.mtl

#
# VERTEX BUFFER 000
#
v -0.235837 0.138151 -0.235833
v -0.235837 0.138151 0.235833
v -4.76837e-006 0.138151 0
v 0.235828 0.138151 -0.235833
v -0.235837 0.138151 -0.235833
v -0.303302 0 0.303296
v 0.303293 0 0.303296
v -0.294796 0.138151 0.294791
v 0.294786 0.138151 0.294791
v 0.303293 0 0.303296
v 0.303293 0 -0.303296
v 0.294786 0.138151 0.294791
v 0.294786 0.138151 -0.294791
v 0.303293 0 -0.303296
v -0.303302 0 -0.303296
v 0.294786 0.138151 -0.294791
v -0.294796 0.138151 -0.294791
v -0.303302 0 -0.303296
v -0.303302 0 0.303296
v -0.294796 0.138151 -0.294791
v -0.294796 0.138151 0.294791
v -0.303302 0 0.303296
v -0.303302 0 -0.303296
v 0.303293 0 -0.303296
v 0.303293 0 0.303296
v -0.235837 0.138151 0.235833
v 0.235828 0.138151 0.235833
v 0.235828 0.138151 0.235833
v 0.235828 0.138151 -0.235833
v 0.294786 0.138151 -0.294791
v 0.235828 0.138151 -0.235833
v 0.235828 0.138151 0.235833
v 0.294786 0.138151 0.294791
v -0.294796 0.138151 -0.294791
v -0.235837 0.138151 -0.235833
v 0.235828 0.138151 -0.235833
v -0.294796 0.138151 0.294791
v -0.235837 0.138151 0.235833
v -0.235837 0.138151 -0.235833
v 0.235828 0.138151 0.235833
v -0.235837 0.138151 0.235833

vn 0 1 0
vn 0 1 0
vn 0 1 0
vn 0 1 1.19209e-006
vn 0 1 1.19209e-006
vn 0 0.35791 0.933594
vn 0 0.35791 0.933594
vn 0 0.35791 0.933594
vn 0 0.35791 0.933594
vn 0.933594 0.35791 0
vn 0.933594 0.35791 0
vn 0.933594 0.35791 0
vn 0.933594 0.35791 0
vn 0 0.35791 -0.933594
vn 0 0.35791 -0.933594
vn 0 0.35791 -0.933594
vn 0 0.35791 -0.933594
vn -0.933594 0.35791 0
vn -0.933594 0.35791 0
vn -0.933594 0.35791 0
vn -0.933594 0.35791 0
vn 0 -1 0
vn 0 -1 0
vn 0 -1 0
vn 0 -1 0
vn 0 1 -1.01328e-006
vn 0 1 -1.01328e-006
vn 0 1 0
vn 0 1 0
vn 0 1 0
vn 0 1 0
vn 0 1 0
vn 0 1 0
vn 0 1 0
vn 0 1 1.19209e-006
vn 0 1 1.19209e-006
vn 0 1 0
vn 0 1 0
vn 0 1 0
vn 0 1 -1.01328e-006
vn 0 1 -1.01328e-006

vt 0.572577 0.427379
vt 0.572577 0.247523
vt 0.663317 0.336936
vt 0.751482 0.427379
vt 0.572577 0.427379
vt 0.0106387 0.397476
vt 0.262581 0.397476
vt 0.0106387 0.457633
vt 0.262581 0.457633
vt 0.0106387 0.397476
vt 0.262581 0.397476
vt 0.0106387 0.457633
vt 0.262581 0.457633
vt 0.0106387 0.397476
vt 0.262581 0.397476
vt 0.0106387 0.457633
vt 0.262581 0.457633
vt 0.0106387 0.397476
vt 0.262581 0.397476
vt 0.0106387 0.457633
vt 0.262581 0.457633
vt 0.243567 0.743351
vt 0.0109555 0.743351
vt 0.0109555 0.506997
vt 0.243567 0.506997
vt 0.572577 0.247523
vt 0.751482 0.247523
vt 0.751482 0.247523
vt 0.751482 0.427379
vt 0.809647 0.482787
vt 0.780381 0.453617
vt 0.780381 0.220255
vt 0.809647 0.191085
vt 0.516987 0.482787
vt 0.546253 0.453617
vt 0.780381 0.453617
vt 0.516987 0.191085
vt 0.546253 0.220255
vt 0.546253 0.453617
vt 0.780381 0.220255
vt 0.546253 0.220255


#
# MESH 000
#
g surface_000
usemtl surface_000
f 28/28/28 29/29/29 3/3/3
f 26/26/26 27/27/27 3/3/3
f 4/4/4 5/5/5 3/3/3
f 1/1/1 2/2/2 3/3/3
f 37/37/37 40/40/40 41/41/41
f 37/37/37 33/33/33 40/40/40
f 37/37/37 39/39/39 34/34/34
f 37/37/37 38/38/38 39/39/39
f 34/34/34 36/36/36 30/30/30
f 34/34/34 35/35/35 36/36/36
f 30/30/30 32/32/32 33/33/33
f 30/30/30 31/31/31 32/32/32
f 22/22/22 24/24/24 25/25/25
f 22/22/22 23/23/23 24/24/24
f 20/20/20 19/19/19 21/21/21
f 18/18/18 19/19/19 20/20/20
f 16/16/16 15/15/15 17/17/17
f 14/14/14 15/15/15 16/16/16
f 12/12/12 11/11/11 13/13/13
f 10/10/10 11/11/11 12/12/12
f 8/8/8 7/7/7 9/9/9
f 6/6/6 7/7/7 8/8/8

