#
# OBJECT NAME
#
o model_3186
mtllib 3186.mtl

#
# VERTEX BUFFER 000
#
v 0.294786 0.138151 0.294791
v 0.294786 0.138151 -0.294791
v -0.294796 0.138151 -0.294791
v -0.294796 0.138151 0.294791
v -0.294796 0.138151 0.294791
v -0.303302 0 0.303296
v 0.303293 0 0.303296
v 0.294786 0.138151 0.294791
v 0.294786 0.138151 0.294791
v 0.303293 0 0.303296
v 0.303293 0 -0.303296
v 0.294786 0.138151 -0.294791
v 0.294786 0.138151 -0.294791
v 0.303293 0 -0.303296
v -0.303302 0 -0.303296
v -0.294796 0.138151 -0.294791
v -0.294796 0.138151 -0.294791
v -0.303302 0 -0.303296
v -0.303302 0 0.303296
v -0.294796 0.138151 0.294791
v -0.303302 0 0.303296
v -0.303302 0 -0.303296
v 0.303293 0 -0.303296
v 0.303293 0 0.303296

vn 0 1 0
vn 0 1 0
vn 0 1 0
vn 0 1 0
vn 0 0.35791 0.933594
vn 0 0.35791 0.933594
vn 0 0.35791 0.933594
vn 0 0.35791 0.933594
vn 0.933594 0.35791 0
vn 0.933594 0.35791 0
vn 0.933594 0.35791 0
vn 0.933594 0.35791 0
vn 0 0.35791 -0.933594
vn 0 0.35791 -0.933594
vn 0 0.35791 -0.933594
vn 0 0.35791 -0.933594
vn -0.933594 0.35791 0
vn -0.933594 0.35791 0
vn -0.933594 0.35791 0
vn -0.933594 0.35791 0
vn 0 -1 0
vn 0 -1 0
vn 0 -1 0
vn 0 -1 0

vt 0.809647 0.191085
vt 0.809647 0.482787
vt 0.516987 0.482787
vt 0.516987 0.191085
vt 0.0106387 0.457633
vt 0.0106387 0.397476
vt 0.262581 0.397476
vt 0.262581 0.457633
vt 0.0106387 0.457633
vt 0.0106387 0.397476
vt 0.262581 0.397476
vt 0.262581 0.457633
vt 0.0106387 0.457633
vt 0.0106387 0.397476
vt 0.262581 0.397476
vt 0.262581 0.457633
vt 0.0106387 0.457633
vt 0.0106387 0.397476
vt 0.262581 0.397476
vt 0.262581 0.457633
vt 0.243567 0.743351
vt 0.0109555 0.743351
vt 0.0109555 0.506997
vt 0.243567 0.506997


#
# MESH 000
#
g surface_000
usemtl surface_000
f 21/21/21 23/23/23 24/24/24
f 21/21/21 22/22/22 23/23/23
f 17/17/17 19/19/19 20/20/20
f 17/17/17 18/18/18 19/19/19
f 13/13/13 15/15/15 16/16/16
f 13/13/13 14/14/14 15/15/15
f 9/9/9 11/11/11 12/12/12
f 9/9/9 10/10/10 11/11/11
f 5/5/5 7/7/7 8/8/8
f 5/5/5 6/6/6 7/7/7
f 1/1/1 3/3/3 4/4/4
f 1/1/1 2/2/2 3/3/3

