#
# OBJECT NAME
#
o model_1981
mtllib 1981.mtl

#
# VERTEX BUFFER 000
#
v -0.148792 0 0.154639
v -0.148792 0 -0.154639
v 0.151263 0 -0.154639
v 0.151263 0 0.154639
v -0.191124 0.999544 -0.191124
v -0.191124 0.999544 0.191124
v 0.191124 0.999544 0.191124
v 0.191124 0.999544 -0.191124
v -0.191205 0.0395506 -0.154639
v -0.148792 0 -0.154639
v -0.148792 0 0.154639
v -0.191205 0.0395506 0.154639
v -0.154639 0.0395506 0.194188
v -0.148792 0 0.154639
v 0.151263 0 0.154639
v 0.154639 0.0395506 0.194188
v -0.191205 0.170827 0.154639
v -0.191205 0.0395506 0.154639
v -0.154639 0.0395506 0.194188
v -0.154639 0.170827 0.194188
v 0.151263 0 -0.154639
v 0.193674 0.0395506 -0.154639
v 0.193674 0.0395506 0.154639
v 0.151263 0 0.154639
v 0.154639 0.170827 0.194188
v 0.154639 0.0395506 0.194188
v 0.193674 0.0395506 0.154639
v 0.193674 0.170827 0.154639
v -0.154639 0.170827 -0.194188
v -0.154639 0.0395506 -0.194188
v -0.191205 0.0395506 -0.154639
v -0.191205 0.170827 -0.154639
v -0.148792 0 -0.154639
v -0.154639 0.0395506 -0.194188
v 0.154639 0.0395506 -0.194188
v 0.151263 0 -0.154639
v 0.193674 0.170827 -0.154639
v 0.193674 0.0395506 -0.154639
v 0.154639 0.0395506 -0.194188
v 0.154639 0.170827 -0.194188
v -0.169002 0.205175 0.115334
v -0.191205 0.170827 0.154639
v -0.154639 0.170827 0.194188
v -0.115334 0.205175 0.166076
v 0.115334 0.205175 0.166076
v 0.154639 0.170827 0.194188
v 0.193674 0.170827 0.154639
v 0.171471 0.205175 0.115334
v -0.115334 0.205175 -0.166076
v -0.154639 0.170827 -0.194188
v -0.191205 0.170827 -0.154639
v -0.169002 0.205175 -0.115334
v 0.171471 0.205175 -0.115334
v 0.193674 0.170827 -0.154639
v 0.154639 0.170827 -0.194188
v 0.115334 0.205175 -0.166076
v -0.169002 0.545662 0.115334
v -0.169002 0.205175 0.115334
v -0.115334 0.205175 0.166076
v -0.115334 0.545662 0.166076
v 0.115334 0.545662 0.166076
v 0.115334 0.205175 0.166076
v 0.171471 0.205175 0.115334
v 0.171471 0.545662 0.115334
v 0.171471 0.545662 -0.115334
v 0.171471 0.205175 -0.115334
v 0.115334 0.205175 -0.166076
v 0.115334 0.545662 -0.166076
v -0.115334 0.545662 -0.166076
v -0.115334 0.205175 -0.166076
v -0.169002 0.205175 -0.115334
v -0.169002 0.545662 -0.115334
v -0.191124 0.999544 0.191124
v -0.191124 0.999544 -0.191124
v -0.225 0.961127 -0.191124
v -0.225 0.961127 0.191124
v 0.191124 0.999544 0.191124
v -0.191124 0.999544 0.191124
v -0.191124 0.961127 0.225
v 0.191124 0.961127 0.225
v 0.225 0.961127 -0.191124
v 0.191124 0.999544 -0.191124
v 0.191124 0.999544 0.191124
v 0.225 0.961127 0.191124
v -0.191124 0.961127 -0.225
v -0.191124 0.999544 -0.191124
v 0.191124 0.999544 -0.191124
v 0.191124 0.961127 -0.225
v -0.115334 0.205175 0.166076
v -0.154639 0.170827 0.194188
v 0.154639 0.170827 0.194188
v 0.115334 0.205175 0.166076
v 0.193674 0.170827 -0.154639
v 0.171471 0.205175 -0.115334
v 0.171471 0.205175 0.115334
v 0.193674 0.170827 0.154639
v -0.154639 0.170827 -0.194188
v -0.115334 0.205175 -0.166076
v 0.115334 0.205175 -0.166076
v 0.154639 0.170827 -0.194188
v -0.169002 0.205175 -0.115334
v -0.191205 0.170827 -0.154639
v -0.191205 0.170827 0.154639
v -0.169002 0.205175 0.115334
v -0.115334 0.545662 0.166076
v -0.115334 0.205175 0.166076
v 0.115334 0.205175 0.166076
v 0.115334 0.545662 0.166076
v 0.171471 0.205175 -0.115334
v 0.171471 0.545662 -0.115334
v 0.171471 0.545662 0.115334
v 0.171471 0.205175 0.115334
v -0.115334 0.205175 -0.166076
v -0.115334 0.545662 -0.166076
v 0.115334 0.545662 -0.166076
v 0.115334 0.205175 -0.166076
v -0.169002 0.545662 -0.115334
v -0.169002 0.205175 -0.115334
v -0.169002 0.205175 0.115334
v -0.169002 0.545662 0.115334
v -0.154639 0.170827 0.194188
v -0.154639 0.0395506 0.194188
v 0.154639 0.0395506 0.194188
v 0.154639 0.170827 0.194188
v -0.191205 0.170827 -0.154639
v -0.191205 0.0395506 -0.154639
v -0.191205 0.0395506 0.154639
v -0.191205 0.170827 0.154639
v 0.193674 0.0395506 -0.154639
v 0.193674 0.170827 -0.154639
v 0.193674 0.170827 0.154639
v 0.193674 0.0395506 0.154639
v -0.154639 0.0395506 -0.194188
v -0.154639 0.170827 -0.194188
v 0.154639 0.170827 -0.194188
v 0.154639 0.0395506 -0.194188
v -0.191205 0.0395506 0.154639
v -0.148792 0 0.154639
v -0.154639 0.0395506 0.194188
v 0.154639 0.0395506 0.194188
v 0.151263 0 0.154639
v 0.193674 0.0395506 0.154639
v -0.154639 0.0395506 -0.194188
v -0.148792 0 -0.154639
v -0.191205 0.0395506 -0.154639
v 0.193674 0.0395506 -0.154639
v 0.151263 0 -0.154639
v 0.154639 0.0395506 -0.194188
v -0.191124 0.961127 0.225
v -0.191124 0.999544 0.191124
v -0.225 0.961127 0.191124
v 0.191124 0.961127 0.225
v 0.225 0.961127 0.191124
v 0.191124 0.999544 0.191124
v 0.225 0.961127 -0.191124
v 0.191124 0.961127 -0.225
v 0.191124 0.999544 -0.191124
v -0.191124 0.961127 -0.225
v -0.225 0.961127 -0.191124
v -0.191124 0.999544 -0.191124
v -0.225 0.583923 -0.191124
v -0.169002 0.545662 -0.115334
v -0.169002 0.545662 0.115334
v -0.225 0.583923 0.191124
v -0.191124 0.583923 0.225
v -0.225 0.583923 0.191124
v -0.169002 0.545662 0.115334
v -0.115334 0.545662 0.166076
v -0.191124 0.583923 0.225
v -0.115334 0.545662 0.166076
v 0.115334 0.545662 0.166076
v 0.191124 0.583923 0.225
v 0.225 0.583923 0.191124
v 0.191124 0.583923 0.225
v 0.115334 0.545662 0.166076
v 0.171471 0.545662 0.115334
v 0.171471 0.545662 -0.115334
v 0.225 0.583923 -0.191124
v 0.225 0.583923 0.191124
v 0.171471 0.545662 0.115334
v 0.191124 0.583923 -0.225
v 0.225 0.583923 -0.191124
v 0.171471 0.545662 -0.115334
v 0.115334 0.545662 -0.166076
v -0.115334 0.545662 -0.166076
v -0.191124 0.583923 -0.225
v 0.191124 0.583923 -0.225
v 0.115334 0.545662 -0.166076
v -0.225 0.583923 -0.191124
v -0.191124 0.583923 -0.225
v -0.115334 0.545662 -0.166076
v -0.169002 0.545662 -0.115334
v -0.191124 0.961127 0.225
v -0.225 0.961127 0.191124
v -0.225 0.583923 0.191124
v -0.191124 0.583923 0.225
v 0.225 0.961127 0.191124
v 0.191124 0.961127 0.225
v 0.191124 0.583923 0.225
v 0.225 0.583923 0.191124
v 0.191124 0.961127 -0.225
v 0.225 0.961127 -0.191124
v 0.225 0.583923 -0.191124
v 0.191124 0.583923 -0.225
v -0.225 0.961127 -0.191124
v -0.191124 0.961127 -0.225
v -0.191124 0.583923 -0.225
v -0.225 0.583923 -0.191124
v -0.225 0.961127 -0.191124
v -0.225 0.583923 -0.191124
v -0.225 0.583923 0.191124
v -0.225 0.961127 0.191124
v -0.191124 0.961127 0.225
v -0.191124 0.583923 0.225
v 0.191124 0.583923 0.225
v 0.191124 0.961127 0.225
v 0.225 0.583923 -0.191124
v 0.225 0.961127 -0.191124
v 0.225 0.961127 0.191124
v 0.225 0.583923 0.191124
v -0.191124 0.583923 -0.225
v -0.191124 0.961127 -0.225
v 0.191124 0.961127 -0.225
v 0.191124 0.583923 -0.225

vn 0 -1 0
vn 0 -1 0
vn 0 -1 0
vn 0 -1 0
vn 0 1 0
vn 0 1 0
vn 0 1 0
vn 0 1 0
vn -0.681641 -0.730957 0
vn -0.681641 -0.730957 0
vn -0.681641 -0.730957 0
vn -0.681641 -0.730957 0
vn 0 -0.707031 0.707031
vn 0 -0.707031 0.707031
vn 0 -0.707031 0.707031
vn 0 -0.707031 0.707031
vn -0.733887 0 0.678711
vn -0.733887 0 0.678711
vn -0.733887 0 0.678711
vn -0.733887 0 0.678711
vn 0.681641 -0.730957 0
vn 0.681641 -0.730957 0
vn 0.681641 -0.730957 0
vn 0.681641 -0.730957 0
vn 0.711426 0 0.702148
vn 0.711426 0 0.702148
vn 0.711426 0 0.702148
vn 0.711426 0 0.702148
vn -0.733887 0 -0.678711
vn -0.733887 0 -0.678711
vn -0.733887 0 -0.678711
vn -0.733887 0 -0.678711
vn 0 -0.707031 -0.707031
vn 0 -0.707031 -0.707031
vn 0 -0.707031 -0.707031
vn 0 -0.707031 -0.707031
vn 0.711426 0 -0.702148
vn 0.711426 0 -0.702148
vn 0.711426 0 -0.702148
vn 0.711426 0 -0.702148
vn -0.425537 0.79834 0.425293
vn -0.425537 0.79834 0.425293
vn -0.425537 0.79834 0.425293
vn -0.425537 0.79834 0.425293
vn 0.413818 0.798828 0.436279
vn 0.413818 0.798828 0.436279
vn 0.413818 0.798828 0.436279
vn 0.413818 0.798828 0.436279
vn -0.425537 0.79834 -0.425293
vn -0.425537 0.79834 -0.425293
vn -0.425537 0.79834 -0.425293
vn -0.425537 0.79834 -0.425293
vn 0.413818 0.798828 -0.436279
vn 0.413818 0.798828 -0.436279
vn 0.413818 0.798828 -0.436279
vn 0.413818 0.798828 -0.436279
vn -0.687012 0 0.726563
vn -0.687012 0 0.726563
vn -0.687012 0 0.726563
vn -0.687012 0 0.726563
vn 0.67041 0 0.741699
vn 0.67041 0 0.741699
vn 0.67041 0 0.741699
vn 0.67041 0 0.741699
vn 0.67041 0 -0.741699
vn 0.67041 0 -0.741699
vn 0.67041 0 -0.741699
vn 0.67041 0 -0.741699
vn -0.687012 0 -0.726563
vn -0.687012 0 -0.726563
vn -0.687012 0 -0.726563
vn -0.687012 0 -0.726563
vn -0.75 0.661133 0
vn -0.75 0.661133 0
vn -0.75 0.661133 0
vn -0.75 0.661133 0
vn 0 0.661133 0.75
vn 0 0.661133 0.75
vn 0 0.661133 0.75
vn 0 0.661133 0.75
vn 0.75 0.661133 0
vn 0.75 0.661133 0
vn 0.75 0.661133 0
vn 0.75 0.661133 0
vn 0 0.661133 -0.75
vn 0 0.661133 -0.75
vn 0 0.661133 -0.75
vn 0 0.661133 -0.75
vn 0 0.633301 0.773438
vn 0 0.633301 0.773438
vn 0 0.633301 0.773438
vn 0 0.633301 0.773438
vn 0.839355 0.54248 0
vn 0.839355 0.54248 0
vn 0.839355 0.54248 0
vn 0.839355 0.54248 0
vn 0 0.633301 -0.773438
vn 0 0.633301 -0.773438
vn 0 0.633301 -0.773438
vn 0 0.633301 -0.773438
vn -0.839355 0.54248 0
vn -0.839355 0.54248 0
vn -0.839355 0.54248 0
vn -0.839355 0.54248 0
vn 0 0 1
vn 0 0 1
vn 0 0 1
vn 0 0 1
vn 1 0 0
vn 1 0 0
vn 1 0 0
vn 1 0 0
vn 0 0 -1
vn 0 0 -1
vn 0 0 -1
vn 0 0 -1
vn -1 0 0
vn -1 0 0
vn -1 0 0
vn -1 0 0
vn 0 0 1
vn 0 0 1
vn 0 0 1
vn 0 0 1
vn -1 0 0
vn -1 0 0
vn -1 0 0
vn -1 0 0
vn 1 0 0
vn 1 0 0
vn 1 0 0
vn 1 0 0
vn 0 0 -1
vn 0 0 -1
vn 0 0 -1
vn 0 0 -1
vn -0.57666 -0.618164 0.533203
vn -0.57666 -0.618164 0.533203
vn -0.57666 -0.618164 0.533203
vn 0.56543 -0.606445 0.558105
vn 0.56543 -0.606445 0.558105
vn 0.56543 -0.606445 0.558105
vn -0.57666 -0.618164 -0.533203
vn -0.57666 -0.618164 -0.533203
vn -0.57666 -0.618164 -0.533203
vn 0.56543 -0.606445 -0.558105
vn 0.56543 -0.606445 -0.558105
vn 0.56543 -0.606445 -0.558105
vn -0.599609 0.528809 0.599609
vn -0.599609 0.528809 0.599609
vn -0.599609 0.528809 0.599609
vn 0.599609 0.528809 0.599609
vn 0.599609 0.528809 0.599609
vn 0.599609 0.528809 0.599609
vn 0.599609 0.528809 -0.599609
vn 0.599609 0.528809 -0.599609
vn 0.599609 0.528809 -0.599609
vn -0.599609 0.528809 -0.599609
vn -0.599609 0.528809 -0.599609
vn -0.599609 0.528809 -0.599609
vn -0.563965 -0.825195 0
vn -0.563965 -0.825195 0
vn -0.563965 -0.825195 0
vn -0.563965 -0.825195 0
vn -0.26123 -0.92627 0.270508
vn -0.26123 -0.92627 0.270508
vn -0.26123 -0.92627 0.270508
vn -0.26123 -0.92627 0.270508
vn 0 -0.838379 0.544434
vn 0 -0.838379 0.544434
vn 0 -0.838379 0.544434
vn 0 -0.838379 0.544434
vn 0.259521 -0.925293 0.276123
vn 0.259521 -0.925293 0.276123
vn 0.259521 -0.925293 0.276123
vn 0.259521 -0.925293 0.276123
vn 0.581055 -0.813477 0
vn 0.581055 -0.813477 0
vn 0.581055 -0.813477 0
vn 0.581055 -0.813477 0
vn 0.259521 -0.925293 -0.276123
vn 0.259521 -0.925293 -0.276123
vn 0.259521 -0.925293 -0.276123
vn 0.259521 -0.925293 -0.276123
vn 0 -0.838379 -0.544434
vn 0 -0.838379 -0.544434
vn 0 -0.838379 -0.544434
vn 0 -0.838379 -0.544434
vn -0.26123 -0.92627 -0.270508
vn -0.26123 -0.92627 -0.270508
vn -0.26123 -0.92627 -0.270508
vn -0.26123 -0.92627 -0.270508
vn -0.707031 0 0.707031
vn -0.707031 0 0.707031
vn -0.707031 0 0.707031
vn -0.707031 0 0.707031
vn 0.707031 0 0.707031
vn 0.707031 0 0.707031
vn 0.707031 0 0.707031
vn 0.707031 0 0.707031
vn 0.707031 0 -0.707031
vn 0.707031 0 -0.707031
vn 0.707031 0 -0.707031
vn 0.707031 0 -0.707031
vn -0.707031 0 -0.707031
vn -0.707031 0 -0.707031
vn -0.707031 0 -0.707031
vn -0.707031 0 -0.707031
vn -1 0 0
vn -1 0 0
vn -1 0 0
vn -1 0 0
vn 0 0 1
vn 0 0 1
vn 0 0 1
vn 0 0 1
vn 1 0 0
vn 1 0 0
vn 1 0 0
vn 1 0 0
vn 0 0 -1
vn 0 0 -1
vn 0 0 -1
vn 0 0 -1

vt 0.991302 0.0221485
vt 0.991302 0.141266
vt 0.863376 0.141266
vt 0.863376 0.0221485
vt 0.25192 0.954781
vt 0.0465696 0.954781
vt 0.0465696 0.734337
vt 0.25192 0.734337
vt 0.958487 0.384799
vt 0.986303 0.384799
vt 0.986303 0.536689
vt 0.958487 0.536644
vt 0.958147 0.794144
vt 0.985963 0.794144
vt 0.985963 0.957265
vt 0.958147 0.957138
vt 0.716472 0.217353
vt 0.716472 0.331899
vt 0.687992 0.331899
vt 0.687992 0.217353
vt 0.98634 0.738865
vt 0.958524 0.739056
vt 0.958524 0.587169
vt 0.98634 0.587169
vt 0.484423 0.217353
vt 0.484423 0.331899
vt 0.455944 0.331899
vt 0.455944 0.217353
vt 0.937361 0.217353
vt 0.937361 0.331899
vt 0.908881 0.331899
vt 0.908881 0.217353
vt 0.988263 0.338154
vt 0.960446 0.338119
vt 0.960446 0.175031
vt 0.988263 0.175031
vt 0.277833 0.217353
vt 0.277833 0.331899
vt 0.249354 0.331899
vt 0.249354 0.217353
vt 0.862728 0.589698
vt 0.862728 0.556972
vt 0.892012 0.556972
vt 0.892012 0.589698
vt 0.777245 0.589698
vt 0.777245 0.556973
vt 0.807006 0.556973
vt 0.807006 0.589698
vt 0.907304 0.589698
vt 0.907304 0.556973
vt 0.937668 0.556972
vt 0.937668 0.589698
vt 0.8208 0.556973
vt 0.848652 0.556972
vt 0.848652 0.589698
vt 0.8208 0.589698
vt 0.720222 0.882505
vt 0.720222 0.990358
vt 0.690913 0.990358
vt 0.690913 0.882505
vt 0.520563 0.882505
vt 0.520563 0.990358
vt 0.491253 0.990358
vt 0.491253 0.882505
vt 0.344679 0.882505
vt 0.344679 0.990358
vt 0.315369 0.990358
vt 0.315369 0.882505
vt 0.901432 0.882505
vt 0.901432 0.990358
vt 0.872123 0.990358
vt 0.872123 0.882505
vt 0.0465696 0.965409
vt 0.25192 0.965409
vt 0.25192 0.993073
vt 0.0465696 0.993073
vt 0.0332564 0.734337
vt 0.0332564 0.954781
vt 0.00657466 0.954781
vt 0.00657466 0.734337
vt 0.25192 0.692181
vt 0.25192 0.719844
vt 0.0465696 0.719844
vt 0.0465696 0.692181
vt 0.294061 0.954781
vt 0.267379 0.954781
vt 0.267379 0.734337
vt 0.294061 0.734337
vt 0.439636 0.489333
vt 0.425147 0.463434
vt 0.588268 0.463434
vt 0.574031 0.489333
vt 0.577956 0.429322
vt 0.558653 0.455221
vt 0.445369 0.455221
vt 0.426066 0.429322
vt 0.584766 0.392458
vt 0.570403 0.418357
vt 0.436007 0.418357
vt 0.421643 0.392458
vt 0.446837 0.383108
vt 0.427489 0.357209
vt 0.579379 0.357209
vt 0.560121 0.383108
vt 0.67227 0.882505
vt 0.67227 0.990358
vt 0.537874 0.990358
vt 0.537874 0.882505
vt 0.357995 0.990358
vt 0.357995 0.882505
vt 0.471279 0.882505
vt 0.471279 0.990358
vt 0.313236 0.868415
vt 0.313236 0.760562
vt 0.447633 0.760562
vt 0.447633 0.868415
vt 0.850817 0.882505
vt 0.850817 0.990358
vt 0.737533 0.990358
vt 0.737533 0.882505
vt 0.669017 0.217353
vt 0.669017 0.331899
vt 0.505894 0.331899
vt 0.505894 0.217353
vt 0.88608 0.217353
vt 0.88608 0.331899
vt 0.73419 0.331899
vt 0.73419 0.217353
vt 0.289576 0.331899
vt 0.289576 0.217353
vt 0.441467 0.217353
vt 0.441467 0.331899
vt 0.249354 0.453987
vt 0.249354 0.339441
vt 0.412477 0.339441
vt 0.412477 0.453987
vt 0.958487 0.551327
vt 0.986303 0.551372
vt 0.973217 0.575414
vt 0.958147 0.967597
vt 0.985963 0.967724
vt 0.972877 0.992609
vt 0.960446 0.348765
vt 0.988263 0.348801
vt 0.975176 0.373733
vt 0.958524 0.755461
vt 0.98634 0.755271
vt 0.973254 0.779422
vt 0.00657466 0.965409
vt 0.0332564 0.965409
vt 0.019915 0.989643
vt 0.00988272 0.706977
vt 0.0332564 0.692181
vt 0.0332564 0.719844
vt 0.459256 0.729162
vt 0.48263 0.743957
vt 0.459256 0.756825
vt 0.294061 0.965409
vt 0.280721 0.989643
vt 0.267379 0.965409
vt 0.473521 0.865317
vt 0.519848 0.805843
vt 0.633129 0.805843
vt 0.678867 0.865317
vt 0.61407 0.568411
vt 0.585602 0.568411
vt 0.585602 0.50055
vt 0.61407 0.50055
vt 0.698785 0.864958
vt 0.74447 0.805484
vt 0.878683 0.805484
vt 0.918927 0.864958
vt 0.560303 0.568411
vt 0.530907 0.568411
vt 0.531246 0.50055
vt 0.560303 0.50055
vt 0.627588 0.727601
vt 0.673621 0.787075
vt 0.46827 0.787075
vt 0.514304 0.727601
vt 0.508247 0.568411
vt 0.479092 0.568411
vt 0.479092 0.50055
vt 0.508247 0.50055
vt 0.871472 0.726781
vt 0.914496 0.786256
vt 0.694052 0.786256
vt 0.737076 0.726781
vt 0.453672 0.568411
vt 0.424328 0.568411
vt 0.424328 0.50055
vt 0.453672 0.50055
vt 0.562717 0.0105398
vt 0.59038 0.0105398
vt 0.59038 0.20508
vt 0.562717 0.20508
vt 0.274457 0.0105398
vt 0.30212 0.0105398
vt 0.30212 0.20508
vt 0.274457 0.20508
vt 0.010341 0.0105398
vt 0.038004 0.0105398
vt 0.038004 0.20508
vt 0.010341 0.20508
vt 0.823504 0.0105398
vt 0.851167 0.0105398
vt 0.851167 0.20508
vt 0.823504 0.20508
vt 0.810517 0.0105398
vt 0.810517 0.20508
vt 0.605166 0.20508
vt 0.605166 0.0105398
vt 0.547931 0.0105398
vt 0.547931 0.20508
vt 0.327487 0.20508
vt 0.327487 0.0105398
vt 0.0469433 0.20508
vt 0.0469433 0.0105398
vt 0.252294 0.0105398
vt 0.252294 0.20508
vt 0.010341 0.418445
vt 0.010341 0.223905
vt 0.230785 0.223905
vt 0.230785 0.418445


#
# MESH 000
#
g surface_000
usemtl surface_000
f 158/158/158 159/159/159 160/160/160
f 155/155/155 156/156/156 157/157/157
f 152/152/152 153/153/153 154/154/154
f 149/149/149 150/150/150 151/151/151
f 146/146/146 147/147/147 148/148/148
f 143/143/143 144/144/144 145/145/145
f 140/140/140 141/141/141 142/142/142
f 137/137/137 138/138/138 139/139/139
f 221/221/221 223/223/223 224/224/224
f 221/221/221 222/222/222 223/223/223
f 217/217/217 219/219/219 220/220/220
f 217/217/217 218/218/218 219/219/219
f 213/213/213 215/215/215 216/216/216
f 213/213/213 214/214/214 215/215/215
f 209/209/209 211/211/211 212/212/212
f 209/209/209 210/210/210 211/211/211
f 205/205/205 207/207/207 208/208/208
f 205/205/205 206/206/206 207/207/207
f 201/201/201 203/203/203 204/204/204
f 201/201/201 202/202/202 203/203/203
f 197/197/197 199/199/199 200/200/200
f 197/197/197 198/198/198 199/199/199
f 193/193/193 195/195/195 196/196/196
f 193/193/193 194/194/194 195/195/195
f 189/189/189 191/191/191 192/192/192
f 189/189/189 190/190/190 191/191/191
f 185/185/185 187/187/187 188/188/188
f 185/185/185 186/186/186 187/187/187
f 181/181/181 183/183/183 184/184/184
f 181/181/181 182/182/182 183/183/183
f 177/177/177 179/179/179 180/180/180
f 177/177/177 178/178/178 179/179/179
f 173/173/173 175/175/175 176/176/176
f 173/173/173 174/174/174 175/175/175
f 169/169/169 171/171/171 172/172/172
f 169/169/169 170/170/170 171/171/171
f 165/165/165 167/167/167 168/168/168
f 165/165/165 166/166/166 167/167/167
f 161/161/161 163/163/163 164/164/164
f 161/161/161 162/162/162 163/163/163
f 133/133/133 135/135/135 136/136/136
f 133/133/133 134/134/134 135/135/135
f 129/129/129 131/131/131 132/132/132
f 129/129/129 130/130/130 131/131/131
f 125/125/125 127/127/127 128/128/128
f 125/125/125 126/126/126 127/127/127
f 121/121/121 123/123/123 124/124/124
f 121/121/121 122/122/122 123/123/123
f 117/117/117 119/119/119 120/120/120
f 117/117/117 118/118/118 119/119/119
f 113/113/113 115/115/115 116/116/116
f 113/113/113 114/114/114 115/115/115
f 109/109/109 111/111/111 112/112/112
f 109/109/109 110/110/110 111/111/111
f 105/105/105 107/107/107 108/108/108
f 105/105/105 106/106/106 107/107/107
f 101/101/101 103/103/103 104/104/104
f 101/101/101 102/102/102 103/103/103
f 97/97/97 99/99/99 100/100/100
f 97/97/97 98/98/98 99/99/99
f 93/93/93 95/95/95 96/96/96
f 93/93/93 94/94/94 95/95/95
f 89/89/89 91/91/91 92/92/92
f 89/89/89 90/90/90 91/91/91
f 85/85/85 87/87/87 88/88/88
f 85/85/85 86/86/86 87/87/87
f 81/81/81 83/83/83 84/84/84
f 81/81/81 82/82/82 83/83/83
f 77/77/77 79/79/79 80/80/80
f 77/77/77 78/78/78 79/79/79
f 73/73/73 75/75/75 76/76/76
f 73/73/73 74/74/74 75/75/75
f 69/69/69 71/71/71 72/72/72
f 69/69/69 70/70/70 71/71/71
f 65/65/65 67/67/67 68/68/68
f 65/65/65 66/66/66 67/67/67
f 61/61/61 63/63/63 64/64/64
f 61/61/61 62/62/62 63/63/63
f 57/57/57 59/59/59 60/60/60
f 57/57/57 58/58/58 59/59/59
f 53/53/53 55/55/55 56/56/56
f 53/53/53 54/54/54 55/55/55
f 49/49/49 51/51/51 52/52/52
f 49/49/49 50/50/50 51/51/51
f 45/45/45 47/47/47 48/48/48
f 45/45/45 46/46/46 47/47/47
f 41/41/41 43/43/43 44/44/44
f 41/41/41 42/42/42 43/43/43
f 37/37/37 39/39/39 40/40/40
f 37/37/37 38/38/38 39/39/39
f 33/33/33 35/35/35 36/36/36
f 33/33/33 34/34/34 35/35/35
f 29/29/29 31/31/31 32/32/32
f 29/29/29 30/30/30 31/31/31
f 25/25/25 27/27/27 28/28/28
f 25/25/25 26/26/26 27/27/27
f 21/21/21 23/23/23 24/24/24
f 21/21/21 22/22/22 23/23/23
f 17/17/17 19/19/19 20/20/20
f 17/17/17 18/18/18 19/19/19
f 13/13/13 15/15/15 16/16/16
f 13/13/13 14/14/14 15/15/15
f 9/9/9 11/11/11 12/12/12
f 9/9/9 10/10/10 11/11/11
f 5/5/5 7/7/7 8/8/8
f 5/5/5 6/6/6 7/7/7
f 1/1/1 3/3/3 4/4/4
f 1/1/1 2/2/2 3/3/3

