#
# OBJECT NAME
#
o model_4658
mtllib 4658.mtl

#
# VERTEX BUFFER 000
#
v -0.455963 0.827557 -0.052666
v -2.12714e-006 0.827557 -0.052666
v -0.0403918 0.791107 -0.052666
v -0.415574 0.791107 -0.052666
v -2.12714e-006 0 -0.052666
v -0.455963 0 -0.052666
v -0.415574 0.0364515 -0.052666
v -0.0403918 0.0364515 -0.052666
v -2.12714e-006 0.827557 -0.052666
v -2.12714e-006 0 -0.052666
v -0.0403918 0.0364515 -0.052666
v -0.0403918 0.791107 -0.052666
v -0.455963 0 -0.052666
v -0.455963 0.827557 -0.052666
v -0.415574 0.791107 -0.052666
v -0.415574 0.0364515 -0.052666
v -0.415574 0.791107 -0.052666
v -0.0403918 0.791107 -0.052666
v -0.0403918 0.0364515 -0.052666
v -0.415574 0.0364515 -0.052666
v -0.392015 0.497508 -0.005905
v -0.392015 0.458152 0.0487516
v -0.34837 0.458152 0.0487516
v -0.34837 0.497508 -0.005905
v -0.34837 0.27115 0.0487516
v -0.392015 0.27115 0.0487516
v -0.34837 0.231794 -0.005905
v -0.392015 0.231794 -0.005905
v -0.392015 0.466368 -0.005905
v -0.34837 0.466368 -0.005905
v -0.34837 0.449773 0.0178352
v -0.392015 0.449773 0.0178352
v -0.34837 0.279529 0.0178352
v -0.392015 0.279529 0.0178352
v -0.34837 0.26365 -0.005905
v -0.392015 0.26365 -0.005905
v -0.392015 0.458152 0.0487516
v -0.392015 0.497508 -0.005905
v -0.392015 0.466368 -0.005905
v -0.392015 0.449773 0.0178352
v -0.392015 0.27115 0.0487516
v -0.392015 0.279529 0.0178352
v -0.392015 0.231794 -0.005905
v -0.392015 0.26365 -0.005905
v -0.34837 0.497508 -0.005905
v -0.34837 0.458152 0.0487516
v -0.34837 0.449773 0.0178352
v -0.34837 0.466368 -0.005905
v -0.34837 0.27115 0.0487516
v -0.34837 0.231794 -0.005905
v -0.34837 0.26365 -0.005905
v -0.34837 0.279529 0.0178352
v -0.415571 0.364651 -0.00556502
v -0.368007 0.584547 -0.00556502
v -0.415571 0.584547 -0.00556502
v -0.271498 0.364651 -0.00556502
v -0.271498 0.459936 -0.00556502
v -0.298593 0.482937 -0.00556502
v -0.339871 0.563067 -0.00556502
v -0.332842 0.493037 -0.00556502
v -0.368007 0.584547 -0.00556502
v -0.368007 0.584547 -0.025095
v -0.415571 0.584547 -0.025095
v -0.415571 0.584547 -0.00556502
v -0.339871 0.563067 -0.00556502
v -0.33987 0.563067 -0.025095
v -0.271498 0.364651 -0.00556502
v -0.271498 0.364651 -0.025095
v -0.271498 0.459936 -0.025095
v -0.271498 0.459936 -0.00556502
v -0.332842 0.493037 -0.00556502
v -0.332842 0.493037 -0.025095
v -0.298593 0.482937 -0.00556502
v -0.298593 0.482937 -0.025095
v -0.332842 0.493037 -0.025095
v -0.332842 0.493037 -0.00556502
v -0.415571 0.144755 -0.00556502
v -0.368007 0.144755 -0.00556502
v -0.298593 0.246366 -0.00556502
v -0.271498 0.269368 -0.00556502
v -0.332842 0.236265 -0.00556502
v -0.339871 0.166236 -0.00556502
v -0.415571 0.144755 -0.00556502
v -0.415571 0.144755 -0.025095
v -0.368007 0.144755 -0.025095
v -0.368007 0.144755 -0.00556502
v -0.33987 0.166236 -0.025095
v -0.339871 0.166236 -0.00556502
v -0.271498 0.269368 -0.00556502
v -0.271498 0.269368 -0.025095
v -0.271498 0.364651 -0.025095
v -0.271498 0.364651 -0.00556502
v -0.332842 0.236265 -0.025095
v -0.332842 0.236265 -0.00556502
v -0.332842 0.236265 -0.00556502
v -0.332842 0.236265 -0.025095
v -0.298593 0.246366 -0.025095
v -0.298593 0.246366 -0.00556502
v 0 0.827557 0
v -0.455961 0.827557 0
v -0.415571 0.791107 0
v -0.0403897 0.791107 0
v -0.455961 0 0
v 0 0 0
v -0.0403897 0.0364515 0
v -0.415571 0.0364515 0
v -0.455961 0 0
v -0.455961 0.827557 0
v -0.455961 0.827557 -0.052666
v -0.455961 0 -0.052666
v 0 0.827557 0
v 0 0 0
v 0 0 -0.052666
v 0 0.827557 -0.052666
v -0.0403897 0.791107 -0.017866
v -0.415571 0.791107 -0.017866
v -0.415571 0.0364515 -0.017866
v -0.0403897 0.0364515 -0.017866
v -0.455961 0 0
v -0.455961 0 -0.052666
v 0 0 -0.052666
v 0 0 0
v 0 0.827557 0
v 0 0.827557 -0.052666
v -0.455961 0.827557 -0.052666
v -0.455961 0.827557 0
v -0.455961 0.827557 0
v -0.455961 0 0
v -0.415571 0.0364515 0
v -0.415571 0.791107 0
v 0 0 0
v 0 0.827557 0
v -0.0403897 0.791107 0
v -0.0403897 0.0364515 0
v -0.0403897 0.791107 0
v -0.0403897 0.791107 -0.017866
v -0.0403897 0.0364515 -0.017866
v -0.0403897 0.0364515 0
v -0.0403897 0.0364515 0
v -0.0403897 0.0364515 -0.017866
v -0.415571 0.0364515 -0.017866
v -0.415571 0.0364515 0
v -0.415571 0.0364515 0
v -0.415571 0.0364515 -0.017866
v -0.415571 0.791107 -0.017866
v -0.415571 0.791107 0
v -0.415571 0.791107 0
v -0.415571 0.791107 -0.017866
v -0.0403897 0.791107 -0.017866
v -0.0403897 0.791107 0

vn 0 0 -1
vn 0 0 -1
vn 0 0 -1
vn 0 0 -1
vn 0 0 -1
vn 0 0 -1
vn 0 0 -1
vn 0 0 -1
vn 0 0 -1
vn 0 0 -1
vn 0 0 -1
vn 0 0 -1
vn 0 0 -1
vn 0 0 -1
vn 0 0 -1
vn 0 0 -1
vn 0 0 -1
vn 0 0 -1
vn 0 0 -1
vn 0 0 -1
vn 0 0.641602 0.766602
vn 0 0.330566 0.943359
vn 0 0.330566 0.943359
vn 0 0.641602 0.766602
vn 0 -0.330566 0.943359
vn 0 -0.330566 0.943359
vn 0 -0.641602 0.766602
vn 0 -0.641602 0.766602
vn 0 -0.638672 -0.769043
vn 0 -0.638672 -0.769043
vn 0 -0.329102 -0.943848
vn 0 -0.329102 -0.943848
vn 0 0.329102 -0.943848
vn 0 0.329102 -0.943848
vn 0 0.638672 -0.769043
vn 0 0.638672 -0.769043
vn -1 0 0
vn -1 0 0
vn -1 0 0
vn -1 0 0
vn -1 0 0
vn -1 0 0
vn -1 0 0
vn -1 0 0
vn 1 0 0
vn 1 0 0
vn 1 0 0
vn 1 0 0
vn 1 0 0
vn 1 0 0
vn 1 0 0
vn 1 0 0
vn 0 0 1
vn 0 0 1
vn 0 0 1
vn 0 0 1
vn 0 0 1
vn 0 0 1
vn 0 0 1
vn 0 0 1
vn 0.34082 0.939941 0
vn 0.34082 0.939941 0
vn 0 1 0
vn 0 1 0
vn 0.888672 0.45752 0
vn 0.888672 0.45752 0
vn 1 0 0
vn 1 0 0
vn 0.919922 0.391113 0
vn 0.919922 0.391113 0
vn 0.995117 0.0946655 0
vn 0.995117 0.0946655 0
vn 0.497559 0.867188 0
vn 0.497559 0.867188 0
vn 0.296875 0.95459 0
vn 0.296875 0.95459 0
vn 0 0 1
vn 0 0 1
vn 0 0 1
vn 0 0 1
vn 0 0 1
vn 0 0 1
vn 0 -1 0
vn 0 -1 0
vn 0.34082 -0.939941 0
vn 0.34082 -0.939941 0
vn 0.888672 -0.45752 0
vn 0.888672 -0.45752 0
vn 0.919922 -0.390869 0
vn 0.919922 -0.390869 0
vn 1 0 0
vn 1 0 0
vn 0.995117 -0.0946655 0
vn 0.995117 -0.0946655 0
vn 0.296875 -0.95459 0
vn 0.296875 -0.95459 0
vn 0.497559 -0.867188 0
vn 0.497559 -0.867188 0
vn 0 0 1
vn 0 0 1
vn 0 0 1
vn 0 0 1
vn 0 0 1
vn 0 0 1
vn 0 0 1
vn 0 0 1
vn -1 0 0
vn -1 0 0
vn -1 0 0
vn -1 0 0
vn 1 0 0
vn 1 0 0
vn 1 0 0
vn 1 0 0
vn 0 0 1
vn 0 0 1
vn 0 0 1
vn 0 0 1
vn 0 -1 0
vn 0 -1 0
vn 0 -1 0
vn 0 -1 0
vn 0 1 0
vn 0 1 0
vn 0 1 0
vn 0 1 0
vn 0 0 1
vn 0 0 1
vn 0 0 1
vn 0 0 1
vn 0 0 1
vn 0 0 1
vn 0 0 1
vn 0 0 1
vn -1 0 0
vn -1 0 0
vn -1 0 0
vn -1 0 0
vn 0 1 0
vn 0 1 0
vn 0 1 0
vn 0 1 0
vn 1 0 0
vn 1 0 0
vn 1 0 0
vn 1 0 0
vn 0 -1 0
vn 0 -1 0
vn 0 -1 0
vn 0 -1 0

vt 0.618793 0.114726
vt 0.39986 0.114726
vt 0.419254 0.133617
vt 0.5994 0.133617
vt 0.618793 0.114726
vt 0.39986 0.114726
vt 0.419254 0.133617
vt 0.5994 0.133617
vt 0.38707 0.114726
vt 0.0128281 0.114726
vt 0.0291797 0.133617
vt 0.370738 0.133617
vt 0.387055 0.114726
vt 0.0124364 0.114726
vt 0.0287914 0.133617
vt 0.370699 0.133617
vt 0.196406 0.32797
vt 0.343301 0.32797
vt 0.343301 0.601653
vt 0.196406 0.601653
vt 0.767006 0.188967
vt 0.741482 0.188967
vt 0.741504 0.212001
vt 0.767006 0.212001
vt 0.651818 0.212001
vt 0.65184 0.188967
vt 0.626323 0.212001
vt 0.626323 0.188967
vt 0.767006 0.212001
vt 0.767006 0.188967
vt 0.741367 0.188967
vt 0.741504 0.212001
vt 0.651971 0.188967
vt 0.651818 0.212001
vt 0.626323 0.188967
vt 0.626323 0.212001
vt 0.741504 0.219445
vt 0.767006 0.219445
vt 0.754596 0.228384
vt 0.739143 0.228384
vt 0.651818 0.219445
vt 0.654204 0.228384
vt 0.626323 0.219445
vt 0.638745 0.228384
vt 0.767006 0.219445
vt 0.741504 0.219445
vt 0.739143 0.228384
vt 0.754596 0.228384
vt 0.651818 0.219445
vt 0.626323 0.219445
vt 0.638745 0.228384
vt 0.654204 0.228384
vt 0.984019 0.321723
vt 0.960529 0.426855
vt 0.984019 0.426855
vt 0.912866 0.321723
vt 0.912866 0.367278
vt 0.926247 0.378275
vt 0.946633 0.416585
vt 0.943162 0.383104
vt 0.6484 0.161274
vt 0.6484 0.171449
vt 0.62361 0.171449
vt 0.62361 0.161274
vt 0.666303 0.161274
vt 0.666303 0.171449
vt 0.781929 0.161274
vt 0.781929 0.171449
vt 0.736374 0.171449
vt 0.736374 0.161274
vt 0.699984 0.161274
vt 0.699984 0.171449
vt 0.718476 0.161274
vt 0.718476 0.171449
vt 0.699984 0.171449
vt 0.699984 0.161274
vt 0.984019 0.216591
vt 0.960529 0.216591
vt 0.926247 0.265171
vt 0.912866 0.276168
vt 0.943162 0.260342
vt 0.946633 0.226861
vt 0.623611 0.161274
vt 0.623611 0.171449
vt 0.648401 0.171449
vt 0.648401 0.161274
vt 0.666304 0.171449
vt 0.666304 0.161274
vt 0.736375 0.161274
vt 0.736375 0.171449
vt 0.781929 0.171449
vt 0.781929 0.161274
vt 0.699985 0.171449
vt 0.699985 0.161274
vt 0.699985 0.161274
vt 0.699985 0.171449
vt 0.718477 0.171449
vt 0.718477 0.161274
vt 0.618793 0.114726
vt 0.39986 0.114726
vt 0.419254 0.133617
vt 0.5994 0.133617
vt 0.618793 0.114726
vt 0.39986 0.114726
vt 0.419254 0.133617
vt 0.5994 0.133617
vt 0.0128281 0.102352
vt 0.38707 0.102352
vt 0.387055 0.073943
vt 0.0128094 0.073943
vt 0.0124364 0.102352
vt 0.387055 0.102352
vt 0.387055 0.073943
vt 0.0124364 0.073943
vt 0.834937 0.753843
vt 0.834937 0.564507
vt 0.45834 0.564507
vt 0.45834 0.753843
vt 0.618793 0.102352
vt 0.618793 0.073943
vt 0.39986 0.073943
vt 0.39986 0.102352
vt 0.618793 0.102352
vt 0.618793 0.073943
vt 0.39986 0.073943
vt 0.39986 0.102352
vt 0.38707 0.114726
vt 0.0128281 0.114726
vt 0.0291797 0.133617
vt 0.370738 0.133617
vt 0.387055 0.114726
vt 0.0124364 0.114726
vt 0.0287914 0.133617
vt 0.370699 0.133617
vt 0.0287914 0.143307
vt 0.0287914 0.159541
vt 0.370699 0.159541
vt 0.370699 0.143307
vt 0.419254 0.143307
vt 0.419254 0.159541
vt 0.5994 0.159541
vt 0.5994 0.143307
vt 0.0291797 0.143307
vt 0.0292091 0.159541
vt 0.370738 0.159541
vt 0.370738 0.143307
vt 0.419254 0.143307
vt 0.419254 0.159541
vt 0.5994 0.159541
vt 0.5994 0.143307


#
# MESH 000
#
g surface_000
usemtl surface_000
f 17/17/17 19/19/19 20/20/20
f 17/17/17 18/18/18 19/19/19
f 13/13/13 15/15/15 16/16/16
f 13/13/13 14/14/14 15/15/15
f 9/9/9 11/11/11 12/12/12
f 9/9/9 10/10/10 11/11/11
f 5/5/5 7/7/7 8/8/8
f 5/5/5 6/6/6 7/7/7
f 1/1/1 3/3/3 4/4/4
f 1/1/1 2/2/2 3/3/3
f 95/95/95 96/96/96 97/97/97
f 95/95/95 97/97/97 98/98/98
f 98/98/98 97/97/97 90/90/90
f 98/98/98 90/90/90 89/89/89
f 89/89/89 90/90/90 91/91/91
f 89/89/89 91/91/91 92/92/92
f 88/88/88 93/93/93 94/94/94
f 88/88/88 87/87/87 93/93/93
f 86/86/86 87/87/87 88/88/88
f 86/86/86 85/85/85 87/87/87
f 83/83/83 85/85/85 86/86/86
f 83/83/83 84/84/84 85/85/85
f 77/77/77 78/78/78 53/53/53
f 82/82/82 53/53/53 78/78/78
f 81/81/81 53/53/53 82/82/82
f 81/81/81 79/79/79 53/53/53
f 53/53/53 79/79/79 80/80/80
f 53/53/53 80/80/80 56/56/56
f 53/53/53 56/56/56 57/57/57
f 53/53/53 57/57/57 58/58/58
f 53/53/53 58/58/58 60/60/60
f 59/59/59 53/53/53 60/60/60
f 53/53/53 59/59/59 54/54/54
f 53/53/53 54/54/54 55/55/55
f 73/73/73 75/75/75 76/76/76
f 73/73/73 74/74/74 75/75/75
f 70/70/70 74/74/74 73/73/73
f 70/70/70 69/69/69 74/74/74
f 67/67/67 69/69/69 70/70/70
f 67/67/67 68/68/68 69/69/69
f 71/71/71 72/72/72 66/66/66
f 71/71/71 66/66/66 65/65/65
f 65/65/65 66/66/66 62/62/62
f 65/65/65 62/62/62 61/61/61
f 61/61/61 62/62/62 63/63/63
f 61/61/61 63/63/63 64/64/64
f 49/49/49 50/50/50 51/51/51
f 49/49/49 51/51/51 52/52/52
f 46/46/46 49/49/49 52/52/52
f 46/46/46 52/52/52 47/47/47
f 45/45/45 46/46/46 47/47/47
f 45/45/45 47/47/47 48/48/48
f 43/43/43 42/42/42 44/44/44
f 43/43/43 41/41/41 42/42/42
f 41/41/41 40/40/40 42/42/42
f 41/41/41 37/37/37 40/40/40
f 37/37/37 39/39/39 40/40/40
f 37/37/37 38/38/38 39/39/39
f 35/35/35 36/36/36 34/34/34
f 35/35/35 34/34/34 33/33/33
f 33/33/33 34/34/34 32/32/32
f 33/33/33 32/32/32 31/31/31
f 29/29/29 31/31/31 32/32/32
f 29/29/29 30/30/30 31/31/31
f 27/27/27 26/26/26 28/28/28
f 27/27/27 25/25/25 26/26/26
f 25/25/25 22/22/22 26/26/26
f 25/25/25 23/23/23 22/22/22
f 21/21/21 22/22/22 23/23/23
f 21/21/21 23/23/23 24/24/24
f 147/147/147 149/149/149 150/150/150
f 147/147/147 148/148/148 149/149/149
f 143/143/143 145/145/145 146/146/146
f 143/143/143 144/144/144 145/145/145
f 139/139/139 141/141/141 142/142/142
f 139/139/139 140/140/140 141/141/141
f 135/135/135 137/137/137 138/138/138
f 135/135/135 136/136/136 137/137/137
f 131/131/131 133/133/133 134/134/134
f 131/131/131 132/132/132 133/133/133
f 127/127/127 129/129/129 130/130/130
f 127/127/127 128/128/128 129/129/129
f 123/123/123 125/125/125 126/126/126
f 123/123/123 124/124/124 125/125/125
f 119/119/119 121/121/121 122/122/122
f 119/119/119 120/120/120 121/121/121
f 115/115/115 117/117/117 118/118/118
f 115/115/115 116/116/116 117/117/117
f 111/111/111 113/113/113 114/114/114
f 111/111/111 112/112/112 113/113/113
f 107/107/107 109/109/109 110/110/110
f 107/107/107 108/108/108 109/109/109
f 103/103/103 105/105/105 106/106/106
f 103/103/103 104/104/104 105/105/105
f 99/99/99 101/101/101 102/102/102
f 99/99/99 100/100/100 101/101/101

