#
# OBJECT NAME
#
o model_1269
mtllib 1269.mtl

#
# VERTEX BUFFER 000
#
v -0.347007 0.847007 0.487756
v 0.5 0.847007 0.487756
v 0.5 0.856317 0.5
v -0.356317 0.856317 0.5
v -0.5 1 0.5
v 0.5 1 0.5
v 0.5 1 -0.5
v -0.5 1 -0.5
v -0.356317 0.856317 -0.5
v 0.5 0.856317 -0.5
v 0.5 0.847007 -0.487756
v -0.347007 0.847007 -0.487756
v -0.347007 0.847007 -0.487756
v 0.5 0.847007 -0.487756
v 0.5 0.847007 0.487756
v -0.347007 0.847007 0.487756
v 0.5 0.847007 0.487756
v 0.5 0.847007 -0.487756
v 0.5 0.856317 -0.5
v 0.5 0.856317 0.5
v -0.5 1 -0.5
v 0.5 1 -0.5
v 0.5 0.856317 -0.5
v 0.5 1 -0.5
v 0.5 1 0.5
v 0.5 1 0.5
v -0.5 1 0.5
v -0.5 0 0.5
v -0.356317 0.143683 0.5
v -0.356317 0.856317 0.5
v -0.5 1 0.5
v -0.5 1 -0.5
v -0.356317 0.856317 -0.5
v -0.356317 0.143683 -0.5
v -0.5 0 -0.5
v -0.347007 0.152993 0.487756
v -0.347007 0.152993 -0.487756
v -0.347007 0.847007 -0.487756
v -0.347007 0.847007 0.487756
v -0.5 0 -0.5
v -0.5 0 0.5
v -0.5 1 0.5
v -0.5 1 -0.5
v -0.347007 0.152993 0.487756
v -0.347007 0.847007 0.487756
v -0.347007 0.847007 -0.487756
v -0.347007 0.152993 -0.487756
v -0.347007 0.152993 0.487756
v 0.5 0.152993 0.487756
v 0.5 0.152993 -0.487756
v -0.347007 0.152993 -0.487756
v -0.5 0 -0.5
v 0.5 0 -0.5
v 0.5 0 0.5
v -0.5 0 0.5
v -0.356317 0.143683 0.5
v 0.5 0.143683 0.5
v 0.5 0.152993 0.487756
v -0.347007 0.152993 0.487756
v 0.5 0.143683 0.5
v 0.5 0.143683 -0.5
v 0.5 0.152993 -0.487756
v 0.5 0.152993 0.487756
v -0.347007 0.152993 -0.487756
v 0.5 0.152993 -0.487756
v 0.5 0.143683 -0.5
v -0.356317 0.143683 -0.5
v -0.5 0 0.5
v 0.5 0 0.5
v 0.5 0 0.5
v 0.5 0 -0.5
v -0.356317 0.143683 -0.5
v 0.5 0 -0.5
v -0.5 0 -0.5
v -0.347024 0.454533 0.336414
v 0.499999 0.454533 0.336414
v 0.499999 0.606414 -0.315467
v -0.347024 0.606414 -0.315467
v -0.347024 0.606414 -0.315467
v 0.499999 0.606414 -0.315467
v 0.499999 0.545467 -0.336414
v -0.347024 0.545467 -0.336414
v -0.347024 0.545467 -0.336414
v 0.499999 0.545467 -0.336414
v 0.499999 0.393586 0.315467
v -0.347024 0.393586 0.315467
v -0.347024 0.393586 0.315467
v 0.499999 0.393586 0.315467
v 0.499999 0.454533 0.336414
v -0.347024 0.454533 0.336414
v 0.499999 0.454533 0.336414
v 0.499999 0.393586 0.315467
v 0.499999 0.545467 -0.336414
v 0.499999 0.606414 -0.315467
v -0.347024 0.393586 0.315467
v -0.347024 0.454533 0.336414
v -0.347024 0.606414 -0.315467
v -0.347024 0.545467 -0.336414
v -0.347024 0.666298 0.336414
v 0.499999 0.666298 0.336414
v 0.499999 0.818179 -0.315467
v -0.347024 0.818179 -0.315467
v -0.347024 0.818179 -0.315467
v 0.499999 0.818179 -0.315467
v 0.499999 0.757233 -0.336414
v -0.347024 0.757233 -0.336414
v -0.347024 0.757233 -0.336414
v 0.499999 0.757233 -0.336414
v 0.499999 0.605352 0.315467
v -0.347024 0.605352 0.315467
v -0.347024 0.605352 0.315467
v 0.499999 0.605352 0.315467
v 0.499999 0.666298 0.336414
v -0.347024 0.666298 0.336414
v 0.499999 0.666298 0.336414
v 0.499999 0.605352 0.315467
v 0.499999 0.757233 -0.336414
v 0.499999 0.818179 -0.315467
v -0.347024 0.605352 0.315467
v -0.347024 0.666298 0.336414
v -0.347024 0.818179 -0.315467
v -0.347024 0.757233 -0.336414
v -0.347024 0.243214 0.336414
v 0.499999 0.243214 0.336414
v 0.499999 0.395096 -0.315467
v -0.347024 0.395096 -0.315467
v -0.347024 0.395096 -0.315467
v 0.499999 0.395096 -0.315467
v 0.499999 0.334149 -0.336414
v -0.347024 0.334149 -0.336414
v -0.347024 0.334149 -0.336414
v 0.499999 0.334149 -0.336414
v 0.499999 0.182268 0.315467
v -0.347024 0.182268 0.315467
v -0.347024 0.182268 0.315467
v 0.499999 0.182268 0.315467
v 0.499999 0.243214 0.336414
v -0.347024 0.243214 0.336414
v 0.499999 0.243214 0.336414
v 0.499999 0.182268 0.315467
v 0.499999 0.334149 -0.336414
v 0.499999 0.395096 -0.315467
v -0.347024 0.182268 0.315467
v -0.347024 0.243214 0.336414
v -0.347024 0.395096 -0.315467
v -0.347024 0.334149 -0.336414

vn 0 -0.795898 0.60498
vn 0 -0.795898 0.60498
vn 0 -0.0735474 0.99707
vn 0 -0.0331726 0.999023
vn 0 1 0
vn 0 1 0
vn 0 1 0
vn 0 1 0
vn 0 -0.0331726 -0.999023
vn 0 -0.0735474 -0.99707
vn 0 -0.795898 -0.60498
vn 0 -0.795898 -0.60498
vn 0 -1 0
vn 0 -1 0
vn 0 -1 0
vn 0 -1 0
vn 1 2.06232e-005 0
vn 1 2.06232e-005 0
vn 1 4.76837e-007 0
vn 1 4.76837e-007 0
vn 0 0 -1
vn 0 0 -1
vn 0 -0.0735474 -0.99707
vn 1 0 0
vn 1 0 0
vn 0 0 1
vn 0 0 1
vn 0 0 1
vn 0.0297852 0 0.999512
vn 0.0297852 0 0.999512
vn 0 0 1
vn 0 0 -1
vn 0.0297852 0 -0.999512
vn 0.0297852 0 -0.999512
vn 0 0 -1
vn 1 0 0
vn 1 0 0
vn 1 0 0
vn 1 0 0
vn -1 0 0
vn -1 0 0
vn -1 0 0
vn -1 0 0
vn 0.795898 0 0.60498
vn 0.795898 0 0.60498
vn 0.795898 0 -0.60498
vn 0.795898 0 -0.60498
vn 0 1 0
vn 0 1 0
vn 0 1 0
vn 0 1 0
vn 0 -1 0
vn 0 -1 0
vn 0 -1 0
vn 0 -1 0
vn 0 0.0331726 0.999023
vn 0 0.0735474 0.99707
vn 0 0.795898 0.60498
vn 0 0.795898 0.60498
vn 1 -4.76837e-007 0
vn 1 -4.76837e-007 0
vn 1 -2.06232e-005 0
vn 1 -2.06232e-005 0
vn 0 0.795898 -0.60498
vn 0 0.795898 -0.60498
vn 0 0.0735474 -0.99707
vn 0 0.0331726 -0.999023
vn 0 0 1
vn 0 0 1
vn 1 0 0
vn 1 0 0
vn 0 0.0331726 -0.999023
vn 0 0 -1
vn 0 0 -1
vn 0 0.973633 0.226807
vn 0 0.973633 0.226807
vn 0 0.973633 0.226807
vn 0 0.973633 0.226807
vn 0 0.324951 -0.945313
vn 0 0.324951 -0.945313
vn 0 0.324951 -0.945313
vn 0 0.324951 -0.945313
vn 0 -0.973633 -0.226807
vn 0 -0.973633 -0.226807
vn 0 -0.973633 -0.226807
vn 0 -0.973633 -0.226807
vn 0 -0.324951 0.945313
vn 0 -0.324951 0.945313
vn 0 -0.324951 0.945313
vn 0 -0.324951 0.945313
vn 1 -6.55651e-007 0
vn 1 -6.55651e-007 0
vn 1 -6.55651e-007 0
vn 1 -6.55651e-007 0
vn -1 -2.98023e-007 0
vn -1 -2.98023e-007 0
vn -1 -2.98023e-007 0
vn -1 -2.98023e-007 0
vn 0 0.973633 0.226807
vn 0 0.973633 0.226807
vn 0 0.973633 0.226807
vn 0 0.973633 0.226807
vn 0 0.324951 -0.945313
vn 0 0.324951 -0.945313
vn 0 0.324951 -0.945313
vn 0 0.324951 -0.945313
vn 0 -0.973633 -0.226807
vn 0 -0.973633 -0.226807
vn 0 -0.973633 -0.226807
vn 0 -0.973633 -0.226807
vn 0 -0.324951 0.945313
vn 0 -0.324951 0.945313
vn 0 -0.324951 0.945313
vn 0 -0.324951 0.945313
vn 1 -6.55651e-007 0
vn 1 -6.55651e-007 0
vn 1 -6.55651e-007 0
vn 1 -6.55651e-007 0
vn -1 -2.98023e-007 0
vn -1 -2.98023e-007 0
vn -1 -2.98023e-007 0
vn -1 -2.98023e-007 0
vn 0 0.973633 0.226807
vn 0 0.973633 0.226807
vn 0 0.973633 0.226807
vn 0 0.973633 0.226807
vn 0 0.324951 -0.945313
vn 0 0.324951 -0.945313
vn 0 0.324951 -0.945313
vn 0 0.324951 -0.945313
vn 0 -0.973633 -0.226807
vn 0 -0.973633 -0.226807
vn 0 -0.973633 -0.226807
vn 0 -0.973633 -0.226807
vn 0 -0.324951 0.945313
vn 0 -0.324951 0.945313
vn 0 -0.324951 0.945313
vn 0 -0.324951 0.945313
vn 1 -6.55651e-007 0
vn 1 -6.55651e-007 0
vn 1 -6.55651e-007 0
vn 1 -6.55651e-007 0
vn -1 -2.98023e-007 0
vn -1 -2.98023e-007 0
vn -1 -2.98023e-007 0
vn -1 -2.98023e-007 0

vt 0.886102 0.70811
vt 0.520181 0.70811
vt 0.520181 0.677195
vt 0.89931 0.677195
vt 0.951616 0.52668
vt 0.520181 0.52668
vt 0.520181 0.322744
vt 0.951616 0.322744
vt 0.89931 0.677195
vt 0.520181 0.677195
vt 0.520181 0.677195
vt 0.89931 0.677195
vt 0.872895 0.971654
vt 0.520181 0.971654
vt 0.520181 0.766853
vt 0.872895 0.766853
vt 0.680294 0.70811
vt 0.772206 0.70811
vt 0.772206 0.677195
vt 0.680294 0.677195
vt 0.951616 0.550365
vt 0.520181 0.550365
vt 0.520181 0.677195
vt 0.772206 0.550365
vt 0.680294 0.550365
vt 0.520181 0.550365
vt 0.951616 0.550365
vt 0.951616 0.550365
vt 0.89931 0.677195
vt 0.568201 0.677195
vt 0.520181 0.550365
vt 0.520181 0.550365
vt 0.568201 0.677195
vt 0.89931 0.677195
vt 0.951616 0.550365
vt 0.388357 0.344551
vt 0.477733 0.344551
vt 0.477733 0.872053
vt 0.388357 0.872053
vt 0.951616 0.322744
vt 0.951616 0.526681
vt 0.520181 0.52668
vt 0.520181 0.322744
vt 0.886102 0.70811
vt 0.585611 0.70811
vt 0.585611 0.70811
vt 0.886102 0.70811
vt 0.598819 0.766853
vt 0.951616 0.766853
vt 0.951616 0.971654
vt 0.598819 0.971654
vt 0.520181 0.322744
vt 0.951616 0.322744
vt 0.951616 0.52668
vt 0.520181 0.52668
vt 0.568201 0.677195
vt 0.951616 0.677195
vt 0.951616 0.70811
vt 0.585611 0.70811
vt 0.680294 0.677195
vt 0.772206 0.677195
vt 0.772206 0.70811
vt 0.680294 0.70811
vt 0.568201 0.677195
vt 0.951616 0.677195
vt 0.951616 0.677195
vt 0.568201 0.677195
vt 0.520181 0.550365
vt 0.951616 0.550365
vt 0.680294 0.550365
vt 0.772206 0.550365
vt 0.568201 0.677195
vt 0.951616 0.550365
vt 0.520181 0.550365
vt 0.0162541 0.37226
vt 0.357906 0.37226
vt 0.357906 0.5821
vt 0.0162541 0.5821
vt 0.00929683 0.605155
vt 0.364863 0.605155
vt 0.364863 0.653604
vt 0.00929683 0.653604
vt 0.0162541 0.372055
vt 0.357906 0.372055
vt 0.357906 0.581449
vt 0.0162541 0.581449
vt 0.00929683 0.301057
vt 0.364863 0.301057
vt 0.364863 0.348658
vt 0.00929683 0.348658
vt 0.0133003 0.696661
vt 0.036503 0.696661
vt 0.036503 0.906502
vt 0.0133003 0.906502
vt 0.0122862 0.696661
vt 0.0356524 0.696661
vt 0.0356524 0.906502
vt 0.0122862 0.906502
vt 0.0162541 0.37226
vt 0.357906 0.37226
vt 0.357906 0.5821
vt 0.0162541 0.5821
vt 0.00929683 0.605155
vt 0.364863 0.605155
vt 0.364863 0.653604
vt 0.00929683 0.653604
vt 0.0162541 0.372055
vt 0.357906 0.372055
vt 0.357906 0.581449
vt 0.0162541 0.581449
vt 0.00929683 0.301057
vt 0.364863 0.301057
vt 0.364863 0.348658
vt 0.00929683 0.348658
vt 0.0133003 0.696661
vt 0.0365029 0.696661
vt 0.0365029 0.906502
vt 0.0133003 0.906502
vt 0.0122862 0.696661
vt 0.0356524 0.696661
vt 0.0356524 0.906502
vt 0.0122862 0.906502
vt 0.0162541 0.37226
vt 0.357906 0.37226
vt 0.357906 0.582948
vt 0.0162541 0.582948
vt 0.00929683 0.606003
vt 0.364863 0.606003
vt 0.364863 0.653604
vt 0.00929683 0.653604
vt 0.891922 0.52668
vt 0.56288 0.526681
vt 0.56288 0.322744
vt 0.891922 0.322744
vt 0.0107898 0.606096
vt 0.363521 0.606096
vt 0.363521 0.653697
vt 0.0107898 0.653697
vt 0.0133003 0.696661
vt 0.0365029 0.696661
vt 0.0365029 0.90735
vt 0.0133003 0.90735
vt 0.0117577 0.696661
vt 0.0356524 0.696661
vt 0.0356524 0.90735
vt 0.0117577 0.90735


#
# MESH 000
#
g surface_000
usemtl surface_000
f 72/72/72 73/73/73 74/74/74
f 72/72/72 66/66/66 73/73/73
f 70/70/70 71/71/71 61/61/61
f 70/70/70 61/61/61 60/60/60
f 60/60/60 61/61/61 62/62/62
f 60/60/60 62/62/62 63/63/63
f 68/68/68 69/69/69 57/57/57
f 68/68/68 57/57/57 56/56/56
f 56/56/56 57/57/57 58/58/58
f 56/56/56 58/58/58 59/59/59
f 64/64/64 66/66/66 67/67/67
f 64/64/64 65/65/65 66/66/66
f 52/52/52 54/54/54 55/55/55
f 52/52/52 53/53/53 54/54/54
f 48/48/48 50/50/50 51/51/51
f 48/48/48 49/49/49 50/50/50
f 34/34/34 46/46/46 47/47/47
f 34/34/34 33/33/33 46/46/46
f 32/32/32 33/33/33 34/34/34
f 32/32/32 34/34/34 35/35/35
f 30/30/30 44/44/44 45/45/45
f 30/30/30 29/29/29 44/44/44
f 28/28/28 29/29/29 30/30/30
f 28/28/28 30/30/30 31/31/31
f 40/40/40 42/42/42 43/43/43
f 40/40/40 41/41/41 42/42/42
f 36/36/36 38/38/38 39/39/39
f 36/36/36 37/37/37 38/38/38
f 4/4/4 26/26/26 27/27/27
f 4/4/4 3/3/3 26/26/26
f 1/1/1 3/3/3 4/4/4
f 1/1/1 2/2/2 3/3/3
f 20/20/20 24/24/24 25/25/25
f 20/20/20 19/19/19 24/24/24
f 17/17/17 19/19/19 20/20/20
f 17/17/17 18/18/18 19/19/19
f 21/21/21 23/23/23 9/9/9
f 21/21/21 22/22/22 23/23/23
f 13/13/13 15/15/15 16/16/16
f 13/13/13 14/14/14 15/15/15
f 9/9/9 11/11/11 12/12/12
f 9/9/9 10/10/10 11/11/11
f 5/5/5 7/7/7 8/8/8
f 5/5/5 6/6/6 7/7/7
f 95/95/95 97/97/97 98/98/98
f 95/95/95 96/96/96 97/97/97
f 91/91/91 93/93/93 94/94/94
f 91/91/91 92/92/92 93/93/93
f 87/87/87 89/89/89 90/90/90
f 87/87/87 88/88/88 89/89/89
f 83/83/83 85/85/85 86/86/86
f 83/83/83 84/84/84 85/85/85
f 79/79/79 81/81/81 82/82/82
f 79/79/79 80/80/80 81/81/81
f 75/75/75 77/77/77 78/78/78
f 75/75/75 76/76/76 77/77/77
f 119/119/119 121/121/121 122/122/122
f 119/119/119 120/120/120 121/121/121
f 115/115/115 117/117/117 118/118/118
f 115/115/115 116/116/116 117/117/117
f 111/111/111 113/113/113 114/114/114
f 111/111/111 112/112/112 113/113/113
f 107/107/107 109/109/109 110/110/110
f 107/107/107 108/108/108 109/109/109
f 103/103/103 105/105/105 106/106/106
f 103/103/103 104/104/104 105/105/105
f 99/99/99 101/101/101 102/102/102
f 99/99/99 100/100/100 101/101/101
f 143/143/143 145/145/145 146/146/146
f 143/143/143 144/144/144 145/145/145
f 139/139/139 141/141/141 142/142/142
f 139/139/139 140/140/140 141/141/141
f 135/135/135 137/137/137 138/138/138
f 135/135/135 136/136/136 137/137/137
f 131/131/131 133/133/133 134/134/134
f 131/131/131 132/132/132 133/133/133
f 127/127/127 129/129/129 130/130/130
f 127/127/127 128/128/128 129/129/129
f 123/123/123 125/125/125 126/126/126
f 123/123/123 124/124/124 125/125/125

