#
# OBJECT NAME
#
o model_3328
mtllib 3328.mtl

#
# VERTEX BUFFER 000
#
v -0.204487 0.0202705 -0.0215573
v -0.40093 0.0202705 0.0728099
v -0.310683 0.0202705 0.159966
v 0.109195 0.0202705 0.102073
v 0.117694 0.0202705 0.020029
v -0.0452941 0.0202705 -0.199629
v -0.464312 0.0202705 -0.214728
v -0.05404 0.0202705 0.181063
v -0.154164 0.0202705 -0.311619
v -0.267896 0.0202705 -0.358719
v -0.434509 0.0202705 -0.32748
v 0.152736 0 0.0213205
v 0.138697 0 0.125828
v -0.0280752 0 -0.230626
v -0.147923 0 -0.348686
v -0.270696 0 -0.395528
v -0.466885 0 -0.347499
v -0.5 0 -0.222219
v -0.436618 0 0.102515
v -0.336343 0 0.199355
v -0.0378544 0 0.220452
v 0.138697 0 0.125828
v -0.0280752 0 -0.230626
v 0.152736 0 0.0213205
v -0.0378544 0 0.220452
v -0.5 0 -0.222219
v -0.466885 0 -0.347499
v -0.436618 0 0.102515
v -0.336343 0 0.199355
v -0.270696 0 -0.395528
v -0.147923 0 -0.348686
v -0.29393 0.0202705 0.335755
v -0.231015 0.0202705 0.237275
v -0.408204 0.0202705 0.237639
v -0.221164 0.0202705 0.419908
v -0.176778 0.0202705 0.274467
v -0.411083 0.0202705 0.381362
v -0.293403 0.0202705 0.444877
v -0.443626 0.0202705 0.305924
v -0.4241 0 0.388172
v -0.293345 0 0.458744
v -0.213079 0 0.431001
v -0.163761 0 0.267658
v -0.224025 0 0.226333
v -0.422908 0 0.226696
v -0.460259 0 0.30261
v -0.163761 0 0.267658
v -0.213079 0 0.431001
v -0.293345 0 0.458744
v -0.4241 0 0.388172
v -0.460259 0 0.30261
v -0.224025 0 0.226333
v -0.422908 0 0.226696
v -0.105541 0.0202705 0.396377
v 0.00528648 0.0202705 0.456852
v 0.0610753 0.0202705 0.363269
v 0.0802586 0.0202705 0.209496
v -0.0528154 0.0202705 0.296463
v 0.282443 0.0202705 0.442283
v 0.310424 0.0202705 0.31698
v 0.226952 0.0202705 0.192563
v 0.341506 0 0.310233
v 0.297093 0 0.45649
v 0.224382 0 0.159635
v 0.084556 0 0.186452
v -0.0674658 0 0.282256
v -0.122054 0 0.411705
v -0.00564699 0 0.471582
v -0.0674658 0 0.282256
v 0.084556 0 0.186452
v 0.297093 0 0.45649
v -0.00564699 0 0.471582
v 0.224382 0 0.159635
v 0.341506 0 0.310233
v -0.122054 0 0.411705

vn 0 1 0
vn -0.168213 0.983398 0.0626831
vn -0.0521545 0.980957 0.186646
vn 0.127319 0.983887 0.124817
vn 0.183716 0.978027 -0.0978394
vn 0.124084 0.987305 -0.0986938
vn -0.181396 0.98291 0.0166321
vn 0.0209656 0.983887 0.175537
vn 0.0928955 0.987793 -0.121948
vn 0.0065918 0.991211 -0.131714
vn -0.0884399 0.986816 -0.135254
vn 0.482666 0.852051 -0.20105
vn 0.304688 0.896484 0.321289
vn 0.417969 0.837402 -0.351807
vn 0.266602 0.862305 -0.430176
vn -0.000979424 0.859863 -0.510254
vn -0.310059 0.890625 -0.331787
vn -0.471436 0.881348 0.0250549
vn -0.396484 0.900879 0.175293
vn -0.134766 0.910156 0.391357
vn 0.0797119 0.894531 0.439209
vn 0 -1 0
vn 0 -1 0
vn 0 -1 0
vn 0 -1 0
vn 0 -1 0
vn 0 -1 0
vn 0 -1 0
vn 0 -1 0
vn 0 -1 0
vn 0 -1 0
vn 0 1 0
vn 0.0570679 0.90918 -0.411377
vn -0.108704 0.902344 -0.416504
vn 0.366455 0.898926 0.238037
vn 0.460693 0.887207 -0.0145874
vn -0.25293 0.92334 0.287354
vn -0.0857544 0.911621 0.401123
vn -0.318359 0.947754 0.00376701
vn -0.583984 0.564453 0.58252
vn -0.15332 0.557617 0.81543
vn 0.681152 0.536621 0.497559
vn 0.823242 0.562012 -0.0750122
vn 0.15686 0.510742 -0.844727
vn -0.320313 0.608398 -0.725586
vn -0.756836 0.651855 -0.0390015
vn 0 -1 0
vn 0 -1 0
vn 0 -1 0
vn 0 -1 0
vn 0 -1 0
vn 0 -1 0
vn 0 -1 0
vn -0.358887 0.930176 0.0726929
vn -0.0302887 0.91748 0.395508
vn 0 1 0
vn -0.109497 0.963867 -0.241333
vn -0.22998 0.948242 -0.217407
vn 0.136108 0.94043 0.310303
vn 0.201904 0.978027 -0.0460815
vn 0.125 0.972168 -0.197266
vn 0.602539 0.783691 -0.148071
vn 0.320313 0.726074 0.60791
vn 0.133789 0.828125 -0.543457
vn -0.195313 0.770996 -0.605469
vn -0.545898 0.647949 -0.530762
vn -0.550781 0.757324 0.350098
vn -0.12561 0.647461 0.751465
vn 0 -1 0
vn 0 -1 0
vn 0 -1 0
vn 0 -1 0
vn 0 -1 0
vn 0 -1 0
vn 0 -1 0

vt 0.606105 0.356879
vt 0.873455 0.035688
vt 0.960611 0.125935
vt 0.781626 0.639712
vt 0.617729 0.672259
vt 0.327131 0.511849
vt 0.538686 0.035688
vt 0.960611 0.50255
vt 0.272498 0.413046
vt 0.274823 0.331679
vt 0.425934 0.0654914
vt 0.61902 0.707301
vt 0.801129 0.671138
vt 0.296134 0.529068
vt 0.235431 0.419287
vt 0.238014 0.328879
vt 0.405915 0.033115
vt 0.531195 0
vt 0.90316 0
vt 1 0.100275
vt 1 0.518736
vt 0.801129 0.671138
vt 0.296134 0.529068
vt 0.61902 0.707301
vt 1 0.518736
vt 0.531195 0
vt 0.405915 0.033115
vt 0.90316 0
vt 1 0.100275
vt 0.238014 0.328879
vt 0.235431 0.419287
vt 0.117255 0.501946
vt 0.0117255 0.569365
vt 0.0117255 0.360134
vt 0.224235 0.579921
vt 0.0515802 0.627484
vt 0.18293 0.376408
vt 0.250992 0.502511
vt 0.0852888 0.341535
vt 0.190227 0.362459
vt 0.265851 0.502574
vt 0.236122 0.588585
vt 0.044283 0.641433
vt 0 0.576855
vt 0 0.344377
vt 0.081737 0.323712
vt 0.044283 0.641433
vt 0.236122 0.588585
vt 0.265851 0.502574
vt 0.190227 0.362459
vt 0.081737 0.323712
vt 0 0.576855
vt 0 0.344377
vt 0.0383921 0.881436
vt 0.061331 0.693975
vt 0.226391 0.783262
vt 0.365877 0.978326
vt 0.151998 0.978326
vt 0.300783 0.588197
vt 0.543724 0.71141
vt 0.525125 0.92529
vt 0.578983 0.703427
vt 0.309049 0.566523
vt 0.538299 0.960445
vt 0.381376 1
vt 0.143732 1
vt 0.0175034 0.892344
vt 0.042991 0.684054
vt 0.143732 1
vt 0.381376 1
vt 0.309049 0.566523
vt 0.042991 0.684054
vt 0.538299 0.960445
vt 0.578983 0.703427
vt 0.0175034 0.892344


#
# MESH 000
#
g surface_000
usemtl surface_000
f 25/25/25 29/29/29 28/28/28
f 25/25/25 28/28/28 26/26/26
f 25/25/25 26/26/26 27/27/27
f 27/27/27 22/22/22 25/25/25
f 27/27/27 30/30/30 22/22/22
f 22/22/22 30/30/30 31/31/31
f 22/22/22 31/31/31 23/23/23
f 22/22/22 23/23/23 24/24/24
f 8/8/8 21/21/21 13/13/13
f 20/20/20 21/21/21 8/8/8
f 20/20/20 8/8/8 3/3/3
f 20/20/20 3/3/3 2/2/2
f 20/20/20 2/2/2 19/19/19
f 19/19/19 2/2/2 7/7/7
f 19/19/19 7/7/7 18/18/18
f 8/8/8 13/13/13 4/4/4
f 1/1/1 8/8/8 4/4/4
f 3/3/3 8/8/8 1/1/1
f 1/1/1 2/2/2 3/3/3
f 7/7/7 2/2/2 1/1/1
f 11/11/11 7/7/7 1/1/1
f 18/18/18 7/7/7 11/11/11
f 18/18/18 11/11/11 17/17/17
f 17/17/17 11/11/11 10/10/10
f 17/17/17 10/10/10 16/16/16
f 12/12/12 4/4/4 13/13/13
f 12/12/12 5/5/5 4/4/4
f 4/4/4 5/5/5 1/1/1
f 1/1/1 5/5/5 6/6/6
f 6/6/6 9/9/9 1/1/1
f 1/1/1 9/9/9 10/10/10
f 10/10/10 11/11/11 1/1/1
f 5/5/5 12/12/12 14/14/14
f 5/5/5 14/14/14 6/6/6
f 15/15/15 6/6/6 14/14/14
f 15/15/15 9/9/9 6/6/6
f 9/9/9 15/15/15 16/16/16
f 9/9/9 16/16/16 10/10/10
f 52/52/52 51/51/51 53/53/53
f 47/47/47 51/51/51 52/52/52
f 47/47/47 50/50/50 51/51/51
f 47/47/47 49/49/49 50/50/50
f 47/47/47 48/48/48 49/49/49
f 37/37/37 46/46/46 40/40/40
f 37/37/37 39/39/39 46/46/46
f 46/46/46 39/39/39 34/34/34
f 46/46/46 34/34/34 45/45/45
f 34/34/34 44/44/44 45/45/45
f 34/34/34 33/33/33 44/44/44
f 43/43/43 44/44/44 33/33/33
f 37/37/37 40/40/40 41/41/41
f 37/37/37 41/41/41 38/38/38
f 32/32/32 37/37/37 38/38/38
f 32/32/32 39/39/39 37/37/37
f 34/34/34 39/39/39 32/32/32
f 32/32/32 33/33/33 34/34/34
f 36/36/36 33/33/33 32/32/32
f 43/43/43 33/33/33 36/36/36
f 35/35/35 43/43/43 36/36/36
f 35/35/35 42/42/42 43/43/43
f 42/42/42 35/35/35 38/38/38
f 42/42/42 38/38/38 41/41/41
f 38/38/38 35/35/35 32/32/32
f 32/32/32 35/35/35 36/36/36
f 75/75/75 69/69/69 72/72/72
f 69/69/69 71/71/71 72/72/72
f 69/69/69 70/70/70 71/71/71
f 70/70/70 74/74/74 71/71/71
f 70/70/70 73/73/73 74/74/74
f 55/55/55 68/68/68 63/63/63
f 67/67/67 68/68/68 55/55/55
f 67/67/67 55/55/55 54/54/54
f 58/58/58 67/67/67 54/54/54
f 58/58/58 66/66/66 67/67/67
f 66/66/66 58/58/58 57/57/57
f 66/66/66 57/57/57 65/65/65
f 55/55/55 63/63/63 59/59/59
f 56/56/56 55/55/55 59/59/59
f 54/54/54 55/55/55 56/56/56
f 56/56/56 58/58/58 54/54/54
f 57/57/57 58/58/58 56/56/56
f 61/61/61 57/57/57 56/56/56
f 64/64/64 57/57/57 61/61/61
f 64/64/64 65/65/65 57/57/57
f 62/62/62 59/59/59 63/63/63
f 62/62/62 60/60/60 59/59/59
f 59/59/59 60/60/60 56/56/56
f 60/60/60 61/61/61 56/56/56
f 62/62/62 61/61/61 60/60/60
f 62/62/62 64/64/64 61/61/61

