#
# OBJECT NAME
#
o model_3325
mtllib 3325.mtl

#
# VERTEX BUFFER 000
#
v -0.119097 0.0202705 0.14312
v 0.105913 0.0202705 0.434518
v 0.193069 0.0202705 0.344271
v -0.0657914 0.0202705 -0.146709
v -0.121587 0.0202705 -0.140897
v -0.327539 0.0202705 -0.0315007
v -0.177108 0.0202705 0.43295
v 0.178497 0.0202705 -0.0390127
v 0.204046 0.0202705 0.0272435
v -0.363573 0.0202705 -0.00244055
v -0.424774 0.0202705 0.120663
v -0.310202 0.0202705 0.381642
v -0.120295 0 -0.175939
v -0.0583004 0 -0.182397
v -0.354532 0 -0.0519484
v -0.39457 0 -0.0196594
v -0.462745 0 0.118168
v -0.332481 0 0.411629
v -0.184599 0 0.468638
v 0.135619 0 0.470206
v 0.232459 0 0.369931
v 0.243436 0 0.0110579
v 0.215048 0 -0.0625601
v -0.0583004 0 -0.182397
v -0.39457 0 -0.0196594
v -0.354532 0 -0.0519484
v -0.120295 0 -0.175939
v 0.243436 0 0.0110579
v -0.184599 0 0.468638
v -0.332481 0 0.411629
v 0.135619 0 0.470206
v 0.232459 0 0.369931
v 0.215048 0 -0.0625601
v -0.462745 0 0.118168
v 0.362188 0.0202705 -0.423379
v 0.0872546 0.0202705 -0.454092
v 0.166339 0.0202705 -0.298812
v 0.214514 0.0202705 -0.134643
v 0.459643 0.0202705 -0.275043
v 0.00952828 0.0202705 -0.225262
v 0.02609 0.0202705 -0.423873
v -0.00548748 0.0202705 -0.371554
v 0.0784675 0 -0.472511
v 0.386389 0 -0.442688
v 0.0105068 0 -0.438935
v -0.0245793 0 -0.379637
v -0.00789512 0 -0.21709
v 0.219867 0 -0.116402
v 0.492233 0 -0.272402
v 0.0784675 0 -0.472511
v 0.386389 0 -0.442688
v 0.492233 0 -0.272402
v 0.219867 0 -0.116402
v -0.00789512 0 -0.21709
v -0.0245793 0 -0.379637
v 0.0105068 0 -0.438935
v 0.382798 0.0202705 0.29393
v 0.284318 0.0202705 0.231015
v 0.284681 0.0202705 0.408204
v 0.482632 0.0202705 0.221164
v 0.32151 0.0202705 0.176778
v 0.444086 0.0202705 0.411083
v 0.507601 0.0202705 0.293403
v 0.331997 0.0202705 0.43622
v 0.450896 0 0.4241
v 0.521468 0 0.293345
v 0.493725 0 0.213079
v 0.314701 0 0.163761
v 0.273376 0 0.224025
v 0.273739 0 0.422908
v 0.326332 0 0.453033
v 0.314701 0 0.163761
v 0.493725 0 0.213079
v 0.521468 0 0.293345
v 0.450896 0 0.4241
v 0.326332 0 0.453033
v 0.273376 0 0.224025
v 0.273739 0 0.422908
v -0.0915076 0.0202705 -0.372911
v -0.207464 0.0202705 -0.422852
v -0.254337 0.0202705 -0.324499
v -0.316912 0.0202705 -0.128674
v -0.134743 0.0202705 -0.26854
v -0.423896 0.0202705 -0.38863
v -0.457828 0.0202705 -0.216569
v -0.0927289 0.0202705 -0.32229
v -0.434893 0.0202705 -0.181411
v -0.438214 0 -0.402082
v -0.488529 0 -0.202668
v -0.463046 0 -0.163603
v -0.330347 0 -0.100782
v -0.118839 0 -0.255752
v -0.0721563 0 -0.315474
v -0.0764861 0 -0.389705
v -0.197943 0 -0.438532
v -0.488529 0 -0.202668
v -0.330347 0 -0.100782
v -0.463046 0 -0.163603
v -0.118839 0 -0.255752
v -0.438214 0 -0.402082
v -0.197943 0 -0.438532
v -0.0764861 0 -0.389705
v -0.0721563 0 -0.315474

vn 0 1 0
vn 0.030014 0.986816 0.157715
vn 0.14209 0.989258 0.0301361
vn 0.0454407 0.989258 -0.135864
vn -0.0765991 0.98291 -0.165894
vn -0.0853882 0.984375 -0.152344
vn -0.0168457 0.990234 0.135376
vn 0.0892334 0.984863 -0.14563
vn 0.139893 0.989746 -0.00371552
vn -0.112366 0.990723 -0.0738525
vn -0.169067 0.984863 0.0251923
vn -0.133667 0.985352 0.101868
vn -0.201538 0.845215 -0.494385
vn 0.158203 0.873535 -0.459717
vn -0.275879 0.837891 -0.470215
vn -0.424072 0.867188 -0.260742
vn -0.476807 0.876465 0.0611267
vn -0.368164 0.875488 0.311523
vn -0.0619812 0.872559 0.483643
vn 0.133301 0.905273 0.402588
vn 0.399414 0.909668 0.112976
vn 0.444092 0.895508 -0.0257263
vn 0.259033 0.89209 -0.369873
vn 0 -1 0
vn 0 -1 0
vn 0 -1 0
vn 0 -1 0
vn 0 -1 0
vn 0 -1 0
vn 0 -1 0
vn 0 -1 0
vn 0 -1 0
vn 0 -1 0
vn 0 -1 0
vn 0.0953369 0.966797 -0.235962
vn 0.00426102 0.952148 -0.304932
vn 0 1 0
vn 0.0194397 0.95752 0.286133
vn 0.235474 0.962402 0.135132
vn -0.231445 0.944824 0.230835
vn -0.154053 0.972168 -0.174561
vn -0.268311 0.962891 -0.0171204
vn -0.0227814 0.708496 -0.705078
vn 0.323486 0.796875 -0.509277
vn -0.462402 0.727051 -0.506836
vn -0.70752 0.70166 -0.0795898
vn -0.568359 0.676758 0.467041
vn 0.125854 0.681641 0.720215
vn 0.492676 0.854004 0.166504
vn 0 -1 0
vn 0 -1 0
vn 0 -1 0
vn 0 -1 0
vn 0 -1 0
vn 0 -1 0
vn 0 -1 0
vn 0 1 0
vn -0.411377 0.90918 -0.0570679
vn -0.453125 0.887207 0.0827026
vn 0.220825 0.901367 -0.371338
vn -0.0141754 0.888184 -0.458252
vn 0.233276 0.933105 0.272461
vn 0.369873 0.925293 0.0791016
vn 0.00258446 0.943848 0.330078
vn 0.48999 0.587891 0.643555
vn 0.81543 0.557617 0.15332
vn 0.472656 0.537109 -0.698242
vn -0.0675049 0.554688 -0.828613
vn -0.844727 0.510742 -0.15686
vn -0.766602 0.589844 0.251709
vn -0.0332031 0.639648 0.76709
vn 0 -1 0
vn 0 -1 0
vn 0 -1 0
vn 0 -1 0
vn 0 -1 0
vn 0 -1 0
vn 0 -1 0
vn 0.253906 0.935547 -0.244873
vn 7.76649e-005 0.922852 -0.384277
vn 0 1 0
vn 0.119019 0.947754 0.295654
vn 0.206909 0.946289 0.246704
vn -0.199219 0.947266 -0.24939
vn -0.273926 0.960938 -0.0286407
vn 0.275391 0.956055 0.0999756
vn -0.109192 0.976563 0.183105
vn -0.445801 0.734375 -0.51123
vn -0.609375 0.79248 -0.0176239
vn -0.307617 0.842773 0.441162
vn 0.0212555 0.808105 0.588379
vn 0.486572 0.663574 0.567871
vn 0.661621 0.709961 0.240234
vn 0.425781 0.734375 -0.527832
vn 0.0744629 0.657715 -0.749512
vn 0 -1 0
vn 0 -1 0
vn 0 -1 0
vn 0 -1 0
vn 0 -1 0
vn 0 -1 0
vn 0 -1 0
vn 0 -1 0

vt 0.606105 0.356879
vt 0.873455 0.035688
vt 0.960611 0.125935
vt 0.673524 0.678071
vt 0.617729 0.672259
vt 0.363165 0.540909
vt 0.538686 0.035688
vt 0.935061 0.568807
vt 0.960611 0.50255
vt 0.327131 0.511849
vt 0.264362 0.379337
vt 0.405592 0.0869956
vt 0.61902 0.707301
vt 0.681015 0.713759
vt 0.336172 0.561357
vt 0.296134 0.529068
vt 0.226391 0.381832
vt 0.383313 0.0570085
vt 0.531195 0
vt 0.932866 0.0223695
vt 1 0.100275
vt 1 0.518736
vt 0.971612 0.592354
vt 0.681015 0.713759
vt 0.296134 0.529068
vt 0.336172 0.561357
vt 0.61902 0.707301
vt 1 0.518736
vt 0.531195 0
vt 0.383313 0.0570085
vt 0.932866 0.0223695
vt 1 0.100275
vt 0.971612 0.592354
vt 0.226391 0.381832
vt 0.489091 0.960162
vt 0.151998 0.978326
vt 0.226391 0.783262
vt 0.265912 0.592846
vt 0.55651 0.729428
vt 0.041985 0.714317
vt 0.0799294 0.949701
vt 0.0383921 0.881436
vt 0.143732 1
vt 0.51828 0.979818
vt 0.063656 0.968194
vt 0.0175034 0.892344
vt 0.0214955 0.706656
vt 0.270303 0.571689
vt 0.59319 0.723446
vt 0.143732 1
vt 0.51828 0.979818
vt 0.59319 0.723446
vt 0.270303 0.571689
vt 0.0214955 0.706656
vt 0.0175034 0.892344
vt 0.063656 0.968194
vt 0.117255 0.501946
vt 0.0117255 0.569365
vt 0.0117255 0.360134
vt 0.224235 0.579921
vt 0.0515802 0.627484
vt 0.18293 0.376408
vt 0.250992 0.502511
vt 0.0626223 0.339792
vt 0.190227 0.362459
vt 0.265851 0.502574
vt 0.236122 0.588585
vt 0.044283 0.641433
vt 0 0.576855
vt 0 0.344377
vt 0.056552 0.321775
vt 0.044283 0.641433
vt 0.236122 0.588585
vt 0.265851 0.502574
vt 0.190227 0.362459
vt 0.056552 0.321775
vt 0 0.576855
vt 0 0.344377
vt 0.0383921 0.881436
vt 0.061331 0.693975
vt 0.226391 0.783262
vt 0.489091 0.960162
vt 0.151998 0.978326
vt 0.283347 0.590522
vt 0.569296 0.747445
vt 0.0799294 0.949701
vt 0.566971 0.795102
vt 0.289676 0.569106
vt 0.607397 0.743465
vt 0.604813 0.796418
vt 0.51828 0.979818
vt 0.143732 1
vt 0.063656 0.968194
vt 0.0175034 0.892344
vt 0.042991 0.684054
vt 0.607397 0.743465
vt 0.51828 0.979818
vt 0.604813 0.796418
vt 0.143732 1
vt 0.289676 0.569106
vt 0.042991 0.684054
vt 0.0175034 0.892344
vt 0.063656 0.968194


#
# MESH 000
#
g surface_000
usemtl surface_000
f 28/28/28 32/32/32 31/31/31
f 28/28/28 31/31/31 29/29/29
f 28/28/28 29/29/29 30/30/30
f 28/28/28 30/30/30 33/33/33
f 34/34/34 33/33/33 30/30/30
f 34/34/34 24/24/24 33/33/33
f 34/34/34 25/25/25 24/24/24
f 24/24/24 25/25/25 26/26/26
f 24/24/24 26/26/26 27/27/27
f 14/14/14 8/8/8 23/23/23
f 14/14/14 4/4/4 8/8/8
f 8/8/8 4/4/4 1/1/1
f 1/1/1 9/9/9 8/8/8
f 8/8/8 9/9/9 22/22/22
f 8/8/8 22/22/22 23/23/23
f 13/13/13 4/4/4 14/14/14
f 13/13/13 5/5/5 4/4/4
f 4/4/4 5/5/5 1/1/1
f 15/15/15 5/5/5 13/13/13
f 15/15/15 6/6/6 5/5/5
f 5/5/5 6/6/6 1/1/1
f 16/16/16 6/6/6 15/15/15
f 16/16/16 10/10/10 6/6/6
f 6/6/6 10/10/10 1/1/1
f 10/10/10 11/11/11 1/1/1
f 1/1/1 11/11/11 12/12/12
f 12/12/12 7/7/7 1/1/1
f 7/7/7 2/2/2 1/1/1
f 1/1/1 2/2/2 3/3/3
f 3/3/3 9/9/9 1/1/1
f 17/17/17 10/10/10 16/16/16
f 17/17/17 11/11/11 10/10/10
f 11/11/11 17/17/17 18/18/18
f 11/11/11 18/18/18 12/12/12
f 19/19/19 12/12/12 18/18/18
f 19/19/19 7/7/7 12/12/12
f 20/20/20 7/7/7 19/19/19
f 20/20/20 2/2/2 7/7/7
f 2/2/2 20/20/20 21/21/21
f 2/2/2 21/21/21 3/3/3
f 21/21/21 9/9/9 3/3/3
f 21/21/21 22/22/22 9/9/9
f 50/50/50 55/55/55 56/56/56
f 50/50/50 54/54/54 55/55/55
f 50/50/50 53/53/53 54/54/54
f 50/50/50 52/52/52 53/53/53
f 50/50/50 51/51/51 52/52/52
f 49/49/49 44/44/44 35/35/35
f 43/43/43 35/35/35 44/44/44
f 43/43/43 36/36/36 35/35/35
f 35/35/35 36/36/36 37/37/37
f 37/37/37 39/39/39 35/35/35
f 49/49/49 35/35/35 39/39/39
f 39/39/39 48/48/48 49/49/49
f 39/39/39 38/38/38 48/48/48
f 38/38/38 47/47/47 48/48/48
f 45/45/45 36/36/36 43/43/43
f 45/45/45 41/41/41 36/36/36
f 36/36/36 41/41/41 37/37/37
f 41/41/41 42/42/42 37/37/37
f 37/37/37 42/42/42 40/40/40
f 37/37/37 40/40/40 38/38/38
f 37/37/37 38/38/38 39/39/39
f 45/45/45 42/42/42 41/41/41
f 45/45/45 46/46/46 42/42/42
f 40/40/40 42/42/42 46/46/46
f 40/40/40 46/46/46 47/47/47
f 38/38/38 40/40/40 47/47/47
f 77/77/77 76/76/76 78/78/78
f 72/72/72 76/76/76 77/77/77
f 72/72/72 75/75/75 76/76/76
f 72/72/72 74/74/74 75/75/75
f 72/72/72 73/73/73 74/74/74
f 62/62/62 71/71/71 65/65/65
f 62/62/62 64/64/64 71/71/71
f 64/64/64 70/70/70 71/71/71
f 64/64/64 59/59/59 70/70/70
f 59/59/59 69/69/69 70/70/70
f 59/59/59 58/58/58 69/69/69
f 68/68/68 69/69/69 58/58/58
f 62/62/62 65/65/65 66/66/66
f 62/62/62 66/66/66 63/63/63
f 57/57/57 62/62/62 63/63/63
f 57/57/57 64/64/64 62/62/62
f 57/57/57 59/59/59 64/64/64
f 57/57/57 58/58/58 59/59/59
f 61/61/61 58/58/58 57/57/57
f 68/68/68 58/58/58 61/61/61
f 60/60/60 68/68/68 61/61/61
f 60/60/60 67/67/67 68/68/68
f 67/67/67 60/60/60 63/63/63
f 67/67/67 63/63/63 66/66/66
f 63/63/63 60/60/60 57/57/57
f 57/57/57 60/60/60 61/61/61
f 99/99/99 102/102/102 103/103/103
f 99/99/99 101/101/101 102/102/102
f 99/99/99 100/100/100 101/101/101
f 99/99/99 96/96/96 100/100/100
f 99/99/99 97/97/97 96/96/96
f 96/96/96 97/97/97 98/98/98
f 84/84/84 95/95/95 88/88/88
f 84/84/84 80/80/80 95/95/95
f 94/94/94 95/95/95 80/80/80
f 94/94/94 80/80/80 79/79/79
f 93/93/93 94/94/94 79/79/79
f 84/84/84 88/88/88 89/89/89
f 84/84/84 89/89/89 85/85/85
f 81/81/81 84/84/84 85/85/85
f 81/81/81 80/80/80 84/84/84
f 79/79/79 80/80/80 81/81/81
f 86/86/86 79/79/79 81/81/81
f 93/93/93 79/79/79 86/86/86
f 93/93/93 86/86/86 83/83/83
f 93/93/93 83/83/83 92/92/92
f 92/92/92 83/83/83 82/82/82
f 92/92/92 82/82/82 91/91/91
f 90/90/90 85/85/85 89/89/89
f 90/90/90 87/87/87 85/85/85
f 85/85/85 87/87/87 81/81/81
f 81/81/81 87/87/87 82/82/82
f 82/82/82 83/83/83 81/81/81
f 83/83/83 86/86/86 81/81/81
f 87/87/87 90/90/90 91/91/91
f 87/87/87 91/91/91 82/82/82

