#
# OBJECT NAME
#
o model_3167
mtllib 3167.mtl

#
# VERTEX BUFFER 000
#
v 0.483431 0.812185 -0.457521
v 0.429395 0.696392 -0.479381
v 0.258191 0.682792 -0.477196
v 0.254177 0.743444 -0.459983
v 0.0136958 0.791738 -0.457521
v 0.0739762 0.67777 -0.473292
v 0.25 0.787364 -0.457521
v 0.484098 0.813934 -0.49161
v 0.254177 0.743444 -0.492899
v 0.258191 0.682792 -0.477196
v 0.429395 0.696392 -0.479381
v 0.013358 0.792931 -0.491239
v 0.0739762 0.67777 -0.473292
v 0.25 0.788333 -0.491065
v 0.49344 0.837567 -0.4922
v 0.25 0.811241 -0.4922
v 0.25 0.788333 -0.491065
v 0.484098 0.813934 -0.49161
v 0.49344 0.837567 -0.455404
v 0.25 0.811241 -0.455404
v 0.25 0.829092 -0.474144
v 0.497986 0.855069 -0.474144
v 0.497986 0.855069 -0.474144
v 0.25 0.829092 -0.474144
v 0.00571853 0.815524 -0.4922
v 0.013358 0.792931 -0.491239
v 0.00571853 0.815524 -0.455404
v 0.00317443 0.83355 -0.474144
v 0.00317443 0.83355 -0.474144
v 0.00571853 0.815524 -0.4922
v 0.25 0.787364 -0.457521
v 0.483431 0.812185 -0.457521
v 0.00571853 0.815524 -0.455404
v 0.0136958 0.791738 -0.457521
v -0.0141445 0.791111 -0.456432
v -0.0798737 0.668535 -0.477004
v -0.253935 0.673415 -0.4805
v -0.253025 0.74296 -0.459409
v -0.481065 0.811943 -0.456432
v -0.423792 0.686632 -0.476867
v -0.25 0.786805 -0.456432
v -0.0141445 0.791111 -0.456432
v -0.25 0.786805 -0.456432
v -0.25 0.811269 -0.455404
v -0.00522676 0.8157 -0.455404
v -0.25 0.82912 -0.474144
v -0.00170198 0.83355 -0.474144
v -0.00170198 0.83355 -0.474144
v -0.25 0.82912 -0.474144
v -0.25 0.811269 -0.4922
v -0.00522676 0.8157 -0.4922
v -0.481065 0.811943 -0.456432
v -0.491562 0.83747 -0.455404
v -0.497347 0.856264 -0.474144
v -0.497347 0.856264 -0.474144
v -0.491562 0.83747 -0.4922
v -0.491562 0.83747 -0.4922
v -0.481062 0.812774 -0.492968
v -0.25 0.786937 -0.492968
v -0.0141471 0.791368 -0.492968
v -0.0141471 0.791368 -0.492968
v -0.253025 0.74296 -0.494074
v -0.253935 0.673415 -0.4805
v -0.0798737 0.668535 -0.477004
v -0.481062 0.812774 -0.492968
v -0.423792 0.686632 -0.476867
v -0.25 0.786937 -0.492968
v 0.271969 0.497907 -0.483305
v 0.191967 0.495676 -0.483305
v 0.279257 0.35 -0.472903
v 0.346677 0.503952 -0.478146
v 0.0739762 0.67777 -0.473292
v 0.397413 0.623209 -0.470533
v 0.483431 0.812185 -0.457521
v 0.254177 0.743444 -0.459983
v 0.258191 0.682792 -0.477196
v 0.429395 0.696392 -0.479381
v 0.0136958 0.791738 -0.457521
v 0.25 0.787364 -0.457521
v 0.271969 0.497907 -0.483305
v 0.279257 0.35 -0.472903
v 0.191967 0.495676 -0.483305
v 0.346677 0.503952 -0.478146
v 0.0739762 0.67777 -0.473292
v 0.397413 0.623209 -0.470533
v 0.484098 0.813934 -0.49161
v 0.429395 0.696392 -0.479381
v 0.258191 0.682792 -0.477196
v 0.254177 0.743444 -0.492899
v 0.013358 0.792931 -0.491239
v 0.25 0.788333 -0.491065
v 0.49344 0.837567 -0.4922
v 0.484098 0.813934 -0.49161
v 0.25 0.788333 -0.491065
v 0.25 0.811241 -0.4922
v 0.49344 0.837567 -0.455404
v 0.497986 0.855069 -0.474144
v 0.25 0.829092 -0.474144
v 0.25 0.811241 -0.455404
v 0.497986 0.855069 -0.474144
v 0.25 0.829092 -0.474144
v 0.013358 0.792931 -0.491239
v 0.00571853 0.815524 -0.4922
v 0.00317443 0.83355 -0.474144
v 0.00571853 0.815524 -0.455404
v 0.00571853 0.815524 -0.4922
v 0.00317443 0.83355 -0.474144
v 0.25 0.787364 -0.457521
v 0.483431 0.812185 -0.457521
v 0.00571853 0.815524 -0.455404
v 0.0136958 0.791738 -0.457521
v -0.265495 0.49374 -0.467999
v -0.339438 0.499614 -0.467999
v -0.264222 0.35 -0.481401
v -0.18749 0.491571 -0.472593
v -0.253935 0.673415 -0.4805
v -0.118763 0.593602 -0.465961
v -0.0798737 0.668535 -0.477004
v -0.0141445 0.791111 -0.456432
v -0.253025 0.74296 -0.459409
v -0.481065 0.811943 -0.456432
v -0.423792 0.686632 -0.476867
v -0.25 0.786805 -0.456432
v -0.0141445 0.791111 -0.456432
v -0.00522676 0.8157 -0.455404
v -0.25 0.811269 -0.455404
v -0.25 0.786805 -0.456432
v -0.00170198 0.83355 -0.474144
v -0.25 0.82912 -0.474144
v -0.00170198 0.83355 -0.474144
v -0.00522676 0.8157 -0.4922
v -0.25 0.811269 -0.4922
v -0.25 0.82912 -0.474144
v -0.491562 0.83747 -0.455404
v -0.481065 0.811943 -0.456432
v -0.497347 0.856264 -0.474144
v -0.491562 0.83747 -0.4922
v -0.497347 0.856264 -0.474144
v -0.25 0.786937 -0.492968
v -0.481062 0.812774 -0.492968
v -0.491562 0.83747 -0.4922
v -0.0141471 0.791368 -0.492968
v -0.265495 0.49374 -0.467999
v -0.264222 0.35 -0.481401
v -0.339438 0.499614 -0.467999
v -0.18749 0.491571 -0.472593
v -0.253935 0.673415 -0.4805
v -0.0798737 0.668535 -0.477004
v -0.118763 0.593602 -0.465961
v -0.0141471 0.791368 -0.492968
v -0.253025 0.74296 -0.494074
v -0.481062 0.812774 -0.492968
v -0.423792 0.686632 -0.476867
v -0.25 0.786937 -0.492968
v 0.5 0.838377 -0.485767
v 0.5 0.826754 -0.474144
v 0.25 0.799618 -0.474144
v 0.25 0.811241 -0.485767
v 0.5 0.826754 -0.474144
v 0.5 0.838377 -0.462522
v 0.25 0.811241 -0.462522
v 0.25 0.799618 -0.474144
v 0.5 0.85 -0.474144
v 0.25 0.822864 -0.474144
v 0 0.804077 -0.474144
v 0 0.8157 -0.485767
v 0 0.8157 -0.462522
v 0 0.804077 -0.474144
v 0 0.827323 -0.474144
v 0 0.8157 -0.485767
v -0.25 0.799646 -0.474144
v -0.25 0.811269 -0.485767
v -0.25 0.811269 -0.462522
v -0.25 0.799646 -0.474144
v -0.25 0.822892 -0.474144
v -0.5 0.826754 -0.474144
v -0.5 0.838377 -0.485767
v -0.5 0.838377 -0.462522
v -0.5 0.826754 -0.474144
v -0.5 0.85 -0.474144
v -0.5 0.838377 -0.485767
v 0.5 0.826754 -0.474144
v 0.5 0.838377 -0.485767
v 0.5 0.838377 -0.474144
v 0.5 0.838377 -0.462522
v 0.5 0.85 -0.474144
v -0.5 0.838377 -0.485767
v -0.5 0.826754 -0.474144
v -0.5 0.838377 -0.474144
v -0.5 0.838377 -0.462522
v -0.5 0.85 -0.474144

vn -0.0386963 0.227295 -0.972656
vn -0.0462952 0.228394 -0.972168
vn -0.0205078 0.20752 -0.977539
vn -0.0169067 0.180542 -0.983398
vn 0.00465393 0.202271 -0.979004
vn 0.00434494 0.187134 -0.981934
vn -0.00791931 0.189209 -0.981445
vn -0.0359802 0.183472 0.981934
vn 0.00242043 0.143066 0.989258
vn 0.0018425 0.182373 0.98291
vn -0.0321045 0.163574 0.98584
vn 0.0296173 0.210815 0.977051
vn 0.0337219 0.199707 0.979004
vn -0.00304985 0.0891724 0.995605
vn 0.0532532 -0.496826 0.865723
vn 0.0166779 -0.381104 0.924316
vn -0.00304985 0.0891724 0.995605
vn -0.0359802 0.183472 0.981934
vn 0.0516968 -0.48584 -0.87207
vn 0.0154343 -0.361572 -0.932129
vn 0.0454407 -0.998535 0.000240088
vn 0.105774 -0.994141 -0.0017128
vn 0.105774 -0.994141 -0.0017128
vn 0.0454407 -0.998535 0.000240088
vn -0.00818634 -0.452148 0.891602
vn 0.0296173 0.210815 0.977051
vn -0.00785828 -0.441895 -0.896484
vn -0.0177917 -0.999512 -0.00069952
vn -0.0177917 -0.999512 -0.00069952
vn -0.00818634 -0.452148 0.891602
vn -0.00791931 0.189209 -0.981445
vn -0.0386963 0.227295 -0.972656
vn -0.00785828 -0.441895 -0.896484
vn 0.00465393 0.202271 -0.979004
vn -0.00208855 0.190918 -0.981445
vn -0.00714493 0.214233 -0.976563
vn 0.00979614 0.21521 -0.976074
vn 0.00933838 0.191162 -0.981445
vn 0.0196686 0.190918 -0.980957
vn 0.0284424 0.216187 -0.975586
vn 0.00695801 0.170654 -0.984863
vn -0.00208855 0.190918 -0.981445
vn 0.00695801 0.170654 -0.984863
vn -0.016571 -0.37793 -0.925293
vn 0.00831604 -0.462891 -0.88623
vn -0.0464783 -0.998535 0.000255823
vn 0.0179596 -0.999512 -0.000962257
vn 0.0179596 -0.999512 -0.000962257
vn -0.0464783 -0.998535 0.000255823
vn -0.0177307 -0.401855 0.915039
vn 0.00856018 -0.47583 0.878906
vn 0.0196686 0.190918 -0.980957
vn -0.0542603 -0.497314 -0.865723
vn -0.108459 -0.993652 -0.00200272
vn -0.108459 -0.993652 -0.00200272
vn -0.0555725 -0.508789 0.858398
vn -0.0555725 -0.508789 0.858398
vn 0.0280914 0.13855 0.989746
vn 0.00461197 0.113098 0.993164
vn -0.0142441 0.138306 0.990234
vn -0.0142441 0.138306 0.990234
vn 0.00712585 0.131348 0.991211
vn 0.00711823 0.161865 0.986328
vn -0.0279694 0.161133 0.986328
vn 0.0280914 0.13855 0.989746
vn 0.0456543 0.162598 0.985352
vn 0.00461197 0.113098 0.993164
vn -0.0261993 -0.0339661 0.999023
vn 0.000515938 -0.0185089 0.999512
vn -0.0358887 0.0682983 0.996582
vn -0.0693359 0.0056572 0.997559
vn -0.00815582 -0.148071 0.98877
vn -0.0156708 -0.0146027 0.999512
vn 0.0386963 -0.227295 0.972656
vn 0.0169067 -0.180542 0.983398
vn 0.0192413 -0.11792 0.992676
vn 0.0398865 -0.175537 0.983398
vn -0.00465393 -0.202271 0.979004
vn 0.00791931 -0.189209 0.981445
vn 0.0261993 0.0339661 -0.999023
vn 0.0358887 -0.0682983 -0.996582
vn -0.000516415 0.0185089 -0.999512
vn 0.0693359 -0.0056572 -0.997559
vn -0.0182648 -0.119934 -0.992188
vn 0.0156708 0.0146027 -0.999512
vn 0.0359802 -0.183472 -0.981934
vn 0.0265808 -0.156616 -0.986816
vn -0.00515747 -0.172852 -0.984863
vn -0.00242043 -0.143066 -0.989258
vn -0.0296173 -0.210815 -0.977051
vn 0.00304985 -0.0891724 -0.995605
vn -0.0532532 0.496826 -0.865723
vn 0.0359802 -0.183472 -0.981934
vn 0.00304985 -0.0891724 -0.995605
vn -0.0166779 0.381104 -0.924316
vn -0.0516968 0.48584 0.87207
vn -0.105774 0.994141 0.0017128
vn -0.0454407 0.998535 -0.000240088
vn -0.0154343 0.361572 0.932129
vn -0.105774 0.994141 0.0017128
vn -0.0454407 0.998535 -0.000240088
vn -0.0296173 -0.210815 -0.977051
vn 0.00818634 0.452148 -0.891602
vn 0.0177917 0.999512 0.00069952
vn 0.00785828 0.441895 0.896484
vn 0.00818634 0.452148 -0.891602
vn 0.0177917 0.999512 0.00069952
vn 0.00791931 -0.189209 0.981445
vn 0.0386963 -0.227295 0.972656
vn 0.00785828 0.441895 0.896484
vn -0.00465393 -0.202271 0.979004
vn 0.0180664 -0.0684204 0.99707
vn -0.00751877 0.040863 0.999023
vn 0.026825 -0.0925293 0.995117
vn 0.0557861 -0.0979004 0.993164
vn -0.0126724 -0.0870972 0.996094
vn -0.0295258 0.103027 0.994141
vn 0.00355911 -0.156982 0.987305
vn 0.00208855 -0.190918 0.981445
vn -0.00933838 -0.191162 0.981445
vn -0.0196686 -0.190918 0.980957
vn -0.0123444 -0.135254 0.990723
vn -0.00695801 -0.170654 0.984863
vn 0.00208855 -0.190918 0.981445
vn -0.00831604 0.462891 0.88623
vn 0.016571 0.37793 0.925293
vn -0.00695801 -0.170654 0.984863
vn -0.0179596 0.999512 0.000962257
vn 0.0464783 0.998535 -0.000255823
vn -0.0179596 0.999512 0.000962257
vn -0.00856018 0.47583 -0.878906
vn 0.0177307 0.401855 -0.915039
vn 0.0464783 0.998535 -0.000255823
vn 0.0542603 0.497314 0.865723
vn -0.0196686 -0.190918 0.980957
vn 0.108459 0.993652 0.00200272
vn 0.0555725 0.508789 -0.858398
vn 0.108459 0.993652 0.00200272
vn -0.00461197 -0.113098 -0.993164
vn -0.0280914 -0.13855 -0.989746
vn 0.0555725 0.508789 -0.858398
vn 0.0142441 -0.138306 -0.990234
vn -0.0180664 0.0684204 -0.99707
vn -0.026825 0.0925293 -0.995117
vn 0.00751877 -0.040863 -0.999023
vn -0.0557861 0.0979004 -0.993164
vn 0.00289154 -0.129028 -0.991211
vn 0.0259705 -0.159912 -0.986328
vn 0.0295258 -0.103027 -0.994141
vn 0.0142441 -0.138306 -0.990234
vn -0.00712585 -0.131348 -0.991211
vn -0.0280914 -0.13855 -0.989746
vn -0.0397949 -0.131592 -0.990234
vn -0.00461197 -0.113098 -0.993164
vn 0.00633621 0.0485535 -0.998535
vn 0.118774 -0.992676 -1.3113e-006
vn 0.0439758 -0.999023 -5.96046e-007
vn 0.00256538 -0.0283051 -0.999512
vn 0.118774 -0.992676 -1.3113e-006
vn 0.00633621 0.0485535 0.998535
vn 0.00256538 -0.0283051 0.999512
vn 0.0439758 -0.999023 -5.96046e-007
vn -0.0958252 0.995117 1.2517e-006
vn -0.0465393 0.998535 6.55651e-007
vn -5.67436e-005 -1 0
vn 8.34465e-007 0.00799561 -0.999512
vn 8.34465e-007 0.00799561 0.999512
vn -5.67436e-005 -1 0
vn 5.57303e-005 1 0
vn 8.34465e-007 0.00799561 -0.999512
vn -0.0439758 -0.999023 0
vn -0.00256157 -0.0282593 -0.999512
vn -0.00256157 -0.0282593 0.999512
vn -0.0439758 -0.999023 0
vn 0.0465393 0.998535 0
vn -0.118652 -0.992676 0
vn -0.00634766 0.0484924 -0.998535
vn -0.00634766 0.0484924 0.998535
vn -0.118652 -0.992676 0
vn 0.0957642 0.995117 0
vn -0.00634766 0.0484924 -0.998535
vn 0.118774 -0.992676 -1.3113e-006
vn 0.00633621 0.0485535 -0.998535
vn 1 0 0
vn 0.00633621 0.0485535 0.998535
vn -0.0958252 0.995117 1.2517e-006
vn -0.00634766 0.0484924 -0.998535
vn -0.118652 -0.992676 0
vn -1 0 0
vn -0.00634766 0.0484924 0.998535
vn 0.0957642 0.995117 0

vt 0.980517 0.79945
vt 0.924082 0.604047
vt 0.75 0.604047
vt 0.75 0.715819
vt 0.519569 0.799501
vt 0.577056 0.604047
vt 0.75 0.79958
vt 0.980517 0.79945
vt 0.75 0.715819
vt 0.75 0.604047
vt 0.924082 0.604047
vt 0.519569 0.799501
vt 0.577056 0.604047
vt 0.75 0.79958
vt 0.989462 0.832317
vt 0.749924 0.832317
vt 0.75 0.79958
vt 0.980517 0.79945
vt 0.989462 0.832317
vt 0.749924 0.832317
vt 0.749924 0.866051
vt 0.998013 0.866051
vt 0.998013 0.866051
vt 0.749924 0.866051
vt 0.510645 0.832316
vt 0.519569 0.799501
vt 0.510645 0.832316
vt 0.501016 0.866051
vt 0.501016 0.866051
vt 0.510645 0.832316
vt 0.75 0.79958
vt 0.980517 0.79945
vt 0.510645 0.832316
vt 0.519569 0.799501
vt 0.479645 0.79958
vt 0.422714 0.604047
vt 0.25 0.604047
vt 0.25 0.735047
vt 0.0202265 0.79958
vt 0.0778623 0.604047
vt 0.25 0.79958
vt 0.479645 0.799586
vt 0.25 0.799586
vt 0.2501 0.832097
vt 0.489468 0.832097
vt 0.2501 0.865518
vt 0.498877 0.865518
vt 0.498877 0.865518
vt 0.2501 0.865518
vt 0.2501 0.832097
vt 0.489468 0.832097
vt 0.0202265 0.799586
vt 0.0107662 0.832097
vt 0.00259379 0.865518
vt 0.00259379 0.865518
vt 0.0107663 0.832097
vt 0.0107662 0.832098
vt 0.0202265 0.799575
vt 0.25 0.799575
vt 0.479645 0.799575
vt 0.479645 0.79958
vt 0.25 0.735047
vt 0.25 0.604047
vt 0.422714 0.604047
vt 0.0202265 0.79958
vt 0.0778623 0.604047
vt 0.25 0.79958
vt 0.75 0.278157
vt 0.673107 0.278157
vt 0.75 0.0174453
vt 0.827919 0.278157
vt 0.577056 0.604047
vt 0.887764 0.480114
vt 0.980517 0.79945
vt 0.75 0.715819
vt 0.75 0.604047
vt 0.924082 0.604047
vt 0.519569 0.799501
vt 0.75 0.79958
vt 0.75 0.278157
vt 0.75 0.0174453
vt 0.673107 0.278157
vt 0.827919 0.278157
vt 0.577056 0.604047
vt 0.887764 0.480114
vt 0.980517 0.79945
vt 0.924082 0.604047
vt 0.75 0.604047
vt 0.75 0.715819
vt 0.519569 0.799501
vt 0.75 0.79958
vt 0.989462 0.832317
vt 0.980517 0.79945
vt 0.75 0.79958
vt 0.749924 0.832317
vt 0.989462 0.832317
vt 0.998013 0.866051
vt 0.749924 0.866051
vt 0.749924 0.832317
vt 0.998013 0.866051
vt 0.749924 0.866051
vt 0.519569 0.799501
vt 0.510645 0.832316
vt 0.501016 0.866051
vt 0.510645 0.832316
vt 0.510645 0.832316
vt 0.501016 0.866051
vt 0.75 0.79958
vt 0.980517 0.79945
vt 0.510645 0.832316
vt 0.519569 0.799501
vt 0.25 0.278157
vt 0.173772 0.278157
vt 0.25 0.0174453
vt 0.326996 0.278157
vt 0.25 0.604047
vt 0.38187 0.466053
vt 0.422714 0.604047
vt 0.479645 0.79958
vt 0.25 0.735047
vt 0.0202265 0.79958
vt 0.0778623 0.604047
vt 0.25 0.79958
vt 0.479645 0.799586
vt 0.489468 0.832097
vt 0.2501 0.832097
vt 0.25 0.799586
vt 0.498877 0.865518
vt 0.2501 0.865518
vt 0.498877 0.865518
vt 0.489468 0.832097
vt 0.2501 0.832097
vt 0.2501 0.865518
vt 0.0107662 0.832097
vt 0.0202265 0.799586
vt 0.00259379 0.865518
vt 0.0107663 0.832097
vt 0.00259379 0.865518
vt 0.25 0.799575
vt 0.0202265 0.799575
vt 0.0107662 0.832098
vt 0.479645 0.799575
vt 0.25 0.278157
vt 0.25 0.0174453
vt 0.173772 0.278157
vt 0.326996 0.278157
vt 0.25 0.604047
vt 0.422714 0.604047
vt 0.38187 0.466053
vt 0.479645 0.79958
vt 0.25 0.735047
vt 0.0202265 0.79958
vt 0.0778623 0.604047
vt 0.25 0.79958
vt 0.948144 0.965171
vt 0.948144 0.994349
vt 0.723985 0.994349
vt 0.723985 0.965171
vt 0.948144 0.876261
vt 0.948144 0.904453
vt 0.723985 0.904453
vt 0.723985 0.876261
vt 0.948144 0.933849
vt 0.723985 0.933849
vt 0.499827 0.994349
vt 0.499827 0.965171
vt 0.499827 0.904453
vt 0.499827 0.876261
vt 0.499827 0.933849
vt 0.499827 0.965171
vt 0.275669 0.994349
vt 0.275669 0.965171
vt 0.275669 0.904453
vt 0.275669 0.876261
vt 0.275669 0.933849
vt 0.0515103 0.994349
vt 0.0515103 0.965171
vt 0.0515104 0.904453
vt 0.0515103 0.876261
vt 0.0515103 0.933849
vt 0.0515103 0.965171
vt 0.975238 0.893312
vt 0.996965 0.938907
vt 0.976107 0.938907
vt 0.953512 0.938907
vt 0.975238 0.984503
vt 0.00358737 0.938907
vt 0.0253134 0.893312
vt 0.0261824 0.938907
vt 0.0470394 0.938908
vt 0.0253134 0.984503


#
# MESH 000
#
g surface_000
usemtl surface_000
f 33/33/33 31/31/31 34/34/34
f 33/33/33 20/20/20 31/31/31
f 31/31/31 20/20/20 19/19/19
f 31/31/31 19/19/19 32/32/32
f 19/19/19 20/20/20 21/21/21
f 19/19/19 21/21/21 22/22/22
f 20/20/20 28/28/28 21/21/21
f 20/20/20 27/27/27 28/28/28
f 24/24/24 29/29/29 30/30/30
f 24/24/24 30/30/30 16/16/16
f 23/23/23 24/24/24 16/16/16
f 23/23/23 16/16/16 15/15/15
f 15/15/15 16/16/16 17/17/17
f 15/15/15 17/17/17 18/18/18
f 16/16/16 26/26/26 17/17/17
f 16/16/16 25/25/25 26/26/26
f 12/12/12 13/13/13 10/10/10
f 12/12/12 10/10/10 9/9/9
f 12/12/12 9/9/9 14/14/14
f 14/14/14 9/9/9 8/8/8
f 8/8/8 9/9/9 10/10/10
f 8/8/8 10/10/10 11/11/11
f 5/5/5 3/3/3 6/6/6
f 5/5/5 4/4/4 3/3/3
f 1/1/1 3/3/3 4/4/4
f 1/1/1 2/2/2 3/3/3
f 5/5/5 7/7/7 4/4/4
f 7/7/7 1/1/1 4/4/4
f 65/65/65 66/66/66 63/63/63
f 65/65/65 63/63/63 62/62/62
f 65/65/65 62/62/62 67/67/67
f 67/67/67 62/62/62 61/61/61
f 61/61/61 62/62/62 63/63/63
f 61/61/61 63/63/63 64/64/64
f 51/51/51 59/59/59 60/60/60
f 51/51/51 50/50/50 59/59/59
f 50/50/50 58/58/58 59/59/59
f 50/50/50 57/57/57 58/58/58
f 48/48/48 50/50/50 51/51/51
f 48/48/48 49/49/49 50/50/50
f 49/49/49 56/56/56 50/50/50
f 49/49/49 55/55/55 56/56/56
f 43/43/43 52/52/52 53/53/53
f 43/43/43 53/53/53 44/44/44
f 42/42/42 43/43/43 44/44/44
f 42/42/42 44/44/44 45/45/45
f 45/45/45 44/44/44 46/46/46
f 45/45/45 46/46/46 47/47/47
f 44/44/44 53/53/53 54/54/54
f 44/44/44 54/54/54 46/46/46
f 39/39/39 37/37/37 40/40/40
f 39/39/39 38/38/38 37/37/37
f 35/35/35 37/37/37 38/38/38
f 35/35/35 36/36/36 37/37/37
f 39/39/39 41/41/41 38/38/38
f 41/41/41 35/35/35 38/38/38
f 110/110/110 111/111/111 108/108/108
f 110/110/110 108/108/108 99/99/99
f 108/108/108 96/96/96 99/99/99
f 96/96/96 98/98/98 99/99/99
f 99/99/99 98/98/98 104/104/104
f 99/99/99 104/104/104 105/105/105
f 108/108/108 109/109/109 96/96/96
f 96/96/96 97/97/97 98/98/98
f 101/101/101 106/106/106 107/107/107
f 101/101/101 95/95/95 106/106/106
f 100/100/100 95/95/95 101/101/101
f 100/100/100 92/92/92 95/95/95
f 92/92/92 94/94/94 95/95/95
f 95/95/95 94/94/94 102/102/102
f 95/95/95 102/102/102 103/103/103
f 92/92/92 93/93/93 94/94/94
f 90/90/90 91/91/91 89/89/89
f 91/91/91 86/86/86 89/89/89
f 86/86/86 88/88/88 89/89/89
f 90/90/90 89/89/89 88/88/88
f 90/90/90 88/88/88 84/84/84
f 88/88/88 85/85/85 84/84/84
f 84/84/84 85/85/85 80/80/80
f 82/82/82 84/84/84 80/80/80
f 80/80/80 81/81/81 82/82/82
f 83/83/83 81/81/81 80/80/80
f 86/86/86 87/87/87 88/88/88
f 87/87/87 85/85/85 88/88/88
f 85/85/85 83/83/83 80/80/80
f 78/78/78 75/75/75 79/79/79
f 78/78/78 76/76/76 75/75/75
f 74/74/74 75/75/75 76/76/76
f 79/79/79 75/75/75 74/74/74
f 78/78/78 72/72/72 76/76/76
f 76/76/76 72/72/72 73/73/73
f 77/77/77 76/76/76 73/73/73
f 74/74/74 76/76/76 77/77/77
f 72/72/72 68/68/68 73/73/73
f 73/73/73 68/68/68 71/71/71
f 71/71/71 68/68/68 70/70/70
f 68/68/68 69/69/69 70/70/70
f 69/69/69 68/68/68 72/72/72
f 131/131/131 142/142/142 139/139/139
f 131/131/131 139/139/139 132/132/132
f 130/130/130 131/131/131 132/132/132
f 130/130/130 132/132/132 133/133/133
f 133/133/133 132/132/132 137/137/137
f 133/133/133 137/137/137 138/138/138
f 132/132/132 139/139/139 140/140/140
f 132/132/132 140/140/140 141/141/141
f 127/127/127 134/134/134 135/135/135
f 127/127/127 126/126/126 134/134/134
f 126/126/126 136/136/136 134/134/134
f 126/126/126 129/129/129 136/136/136
f 125/125/125 129/129/129 126/126/126
f 125/125/125 128/128/128 129/129/129
f 124/124/124 126/126/126 127/127/127
f 124/124/124 125/125/125 126/126/126
f 152/152/152 154/154/154 151/151/151
f 154/154/154 150/150/150 151/151/151
f 150/150/150 147/147/147 151/151/151
f 152/152/152 151/151/151 147/147/147
f 152/152/152 147/147/147 153/153/153
f 147/147/147 145/145/145 153/153/153
f 147/147/147 149/149/149 145/145/145
f 149/149/149 143/143/143 145/145/145
f 143/143/143 144/144/144 145/145/145
f 146/146/146 144/144/144 143/143/143
f 150/150/150 148/148/148 147/147/147
f 147/147/147 148/148/148 149/149/149
f 149/149/149 146/146/146 143/143/143
f 121/121/121 120/120/120 123/123/123
f 121/121/121 116/116/116 120/120/120
f 119/119/119 120/120/120 116/116/116
f 123/123/123 120/120/120 119/119/119
f 121/121/121 122/122/122 116/116/116
f 116/116/116 122/122/122 113/113/113
f 116/116/116 113/113/113 117/117/117
f 116/116/116 117/117/117 118/118/118
f 119/119/119 116/116/116 118/118/118
f 117/117/117 113/113/113 112/112/112
f 117/117/117 112/112/112 115/115/115
f 115/115/115 112/112/112 114/114/114
f 112/112/112 113/113/113 114/114/114
f 174/174/174 178/178/178 179/179/179
f 174/174/174 173/173/173 178/178/178
f 173/173/173 180/180/180 178/178/178
f 173/173/173 175/175/175 180/180/180
f 175/175/175 181/181/181 180/180/180
f 175/175/175 172/172/172 181/181/181
f 169/169/169 172/172/172 175/175/175
f 169/169/169 170/170/170 172/172/172
f 168/168/168 173/173/173 174/174/174
f 168/168/168 167/167/167 173/173/173
f 167/167/167 175/175/175 173/173/173
f 167/167/167 169/169/169 175/175/175
f 161/161/161 169/169/169 167/167/167
f 161/161/161 164/164/164 169/169/169
f 164/164/164 170/170/170 169/169/169
f 164/164/164 158/158/158 170/170/170
f 162/162/162 167/167/167 168/168/168
f 162/162/162 161/161/161 167/167/167
f 159/159/159 161/161/161 162/162/162
f 159/159/159 160/160/160 161/161/161
f 160/160/160 164/164/164 161/161/161
f 160/160/160 163/163/163 164/164/164
f 163/163/163 158/158/158 164/164/164
f 163/163/163 155/155/155 158/158/158
f 155/155/155 157/157/157 158/158/158
f 158/158/158 157/157/157 165/165/165
f 158/158/158 165/165/165 166/166/166
f 166/166/166 165/165/165 171/171/171
f 166/166/166 171/171/171 172/172/172
f 172/172/172 171/171/171 176/176/176
f 172/172/172 176/176/176 177/177/177
f 155/155/155 156/156/156 157/157/157
f 191/191/191 187/187/187 189/189/189
f 187/187/187 188/188/188 189/189/189
f 188/188/188 190/190/190 189/189/189
f 190/190/190 191/191/191 189/189/189
f 183/183/183 186/186/186 184/184/184
f 186/186/186 185/185/185 184/184/184
f 185/185/185 182/182/182 184/184/184
f 182/182/182 183/183/183 184/184/184

