g z009v001_h
v 0.3633528 0.5266005 0.3632584
v 0.2133528 0.6766005 0.3632584
v 0.3633527 0.6766005 0.2132584
v 0.3633523 0.5266005 -0.3634338
v 0.3633523 0.6766005 -0.2134338
v 0.2133523 0.6766005 -0.3634338
v -0.3633409 0.5266005 0.363266
v -0.3633409 0.6766005 0.213266
v -0.2133408 0.6766005 0.363266
v -0.3633413 0.5266005 -0.3634262
v -0.2133413 0.6766005 -0.3634262
v -0.3633413 0.6766005 -0.2134262
v -0.2133414 0 -0.3634279
v -0.3633413 0.15 -0.3634262
v -0.3633413 0 -0.2134262
v -0.2133408 0 0.363266
v -0.3633409 0 0.213266
v -0.3633409 0.15 0.363266
v 0.2133528 0 0.3632584
v 0.3633528 0.15 0.3632584
v 0.3633528 0 0.2132584
v 0.2133523 0 -0.3634338
v 0.3633523 0 -0.2134338
v 0.3633523 0.15 -0.3634338
v 0.3633528 0.15 0.3632584
v 0.3633528 0.2423963 0.3632584
v 0.3633523 0.2423963 -0.3634338
v 0.3633523 0.15 -0.3634338
v 0.3633528 0 0.2132584
v 0.3633523 0 -0.2134338
v -0.3633409 0.2423963 0.363266
v -0.3633413 0.15 -0.3634262
v -0.3633413 0.2423963 -0.3634262
v -0.3633409 0.15 0.363266
v -0.3633413 0 -0.2134262
v -0.3633409 0 0.213266
v -0.3633409 0.15 0.363266
v -0.3633409 0.2423963 0.363266
v 0.3633528 0.2423963 0.3632584
v 0.3633528 0.15 0.3632584
v -0.2133408 0 0.363266
v 0.2133528 0 0.3632584
v -0.3633409 0.6766005 0.213266
v -0.3633413 0.5266005 -0.3634262
v -0.3633413 0.6766005 -0.2134262
v -0.3633409 0.5266005 0.363266
v -0.3633413 0.4513871 -0.3634262
v -0.3633409 0.4513871 0.363266
v 0.3633523 0.4513871 -0.3634338
v -0.3633413 0.5266005 -0.3634262
v -0.3633413 0.4513871 -0.3634262
v 0.3633523 0.5266005 -0.3634338
v -0.2133413 0.6766005 -0.3634262
v 0.2133523 0.6766005 -0.3634338
v -0.3796329 0.2607101 0.3795547
v -0.3796329 0.4330733 0.3795547
v 0.3796434 0.4330733 0.3795547
v 0.3796434 0.2607101 0.3795547
v -0.3796329 0.4330733 0.3795547
v -0.3796329 0.2607101 0.3795547
v -0.3796329 0.2607101 -0.3797226
v -0.3796329 0.4330733 -0.3797226
v 0.3796434 0.2607101 -0.3797226
v 0.3796434 0.4330733 -0.3797226
v -0.3796329 0.4330733 -0.3797226
v -0.3796329 0.2607101 -0.3797226
v 0.3796434 0.2607101 0.3795547
v 0.3796434 0.4330733 0.3795547
v 0.3796434 0.4330733 -0.3797226
v 0.3796434 0.2607101 -0.3797226
v -0.3633409 0.2423963 0.363266
v -0.3796329 0.2607101 0.3795547
v 0.3796434 0.2607101 0.3795547
v 0.3633528 0.2423963 0.3632584
v 0.3633528 0.4513871 0.3632584
v 0.3796434 0.4330733 0.3795547
v -0.3796329 0.4330733 0.3795547
v -0.3633409 0.4513871 0.363266
v -0.3633409 0.4513871 0.363266
v -0.3796329 0.4330733 0.3795547
v -0.3796329 0.4330733 -0.3797226
v -0.3633413 0.4513871 -0.3634262
v -0.3633413 0.2423963 -0.3634262
v -0.3796329 0.2607101 -0.3797226
v -0.3796329 0.2607101 0.3795547
v -0.3633409 0.2423963 0.363266
v 0.3633523 0.2423963 -0.3634338
v 0.3796434 0.2607101 -0.3797226
v -0.3796329 0.2607101 -0.3797226
v -0.3633413 0.2423963 -0.3634262
v -0.3633413 0.4513871 -0.3634262
v -0.3796329 0.4330733 -0.3797226
v 0.3796434 0.4330733 -0.3797226
v 0.3633523 0.4513871 -0.3634338
v 0.3633528 0.2423963 0.3632584
v 0.3796434 0.2607101 0.3795547
v 0.3796434 0.2607101 -0.3797226
v 0.3633523 0.2423963 -0.3634338
v 0.3633523 0.4513871 -0.3634338
v 0.3796434 0.4330733 -0.3797226
v 0.3796434 0.4330733 0.3795547
v 0.3633528 0.4513871 0.3632584
v -0.3633409 0.5266005 0.363266
v -0.2133408 0.6766005 0.363266
v 0.2133528 0.6766005 0.3632584
v 0.3633528 0.5266005 0.3632584
v -0.3633409 0.4513871 0.363266
v 0.3633528 0.4513871 0.3632584
v 0.3633528 0.5266005 0.3632584
v 0.3633527 0.6766005 0.2132584
v 0.3633523 0.6766005 -0.2134338
v 0.3633523 0.5266005 -0.3634338
v 0.3633528 0.4513871 0.3632584
v 0.3633523 0.4513871 -0.3634338
v 0.2133528 0.6766005 0.3632584
v 0.3633523 0.6766005 -0.2134338
v 0.3633527 0.6766005 0.2132584
v 0.2133523 0.6766005 -0.3634338
v -0.2133413 0.6766005 -0.3634262
v -0.2133408 0.6766005 0.363266
v -0.3633413 0.6766005 -0.2134262
v -0.3633409 0.6766005 0.213266
v 0.3633523 0.15 -0.3634338
v 0.3633523 0.2423963 -0.3634338
v -0.3633413 0.2423963 -0.3634262
v -0.3633413 0.15 -0.3634262
v 0.2133523 0 -0.3634338
v -0.2133414 0 -0.3634279
v 0.3633523 0 -0.2134338
v 0.2133523 0 -0.3634338
v -0.2133414 0 -0.3634279
v -0.3633413 0 -0.2134262
v 0.3633528 0 0.2132584
v -0.3633409 0 0.213266
v -0.2133408 0 0.363266
v 0.2133528 0 0.3632584
v 0.03573244 0.9014949 0.004407022
v -0.006742463 0.9155025 0.03986304
v -0.004581034 0.9192775 -0.04092097
v -0.04511642 0.9035374 0.002339426
v 0.04159299 0.6719629 -0.0007061014
v -0.001350126 0.7586845 -0.04121772
v 0.00182521 0.6678388 -0.04332533
v 0.03962296 0.7596073 -4.393607E-05
v -0.003869455 0.8268881 -0.0413548
v -0.00200696 0.7549753 0.03863833
v -0.001327527 0.6754872 0.03715157
v 0.03788923 0.82979 -0.0005787145
v -0.004581034 0.9192775 -0.04092097
v 0.03573244 0.9014949 0.004407022
v -0.003152698 0.8307181 0.03945252
v -0.006742463 0.9155025 0.03986304
v -0.04298649 0.8279344 0.0002265805
v -0.04511642 0.9035374 0.002339426
v -0.04108582 0.7541103 -0.0009630844
v -0.03924643 0.671522 -0.003831171
v 0.00182521 0.6678388 -0.04332533
v -0.001350126 0.7586845 -0.04121772
v -0.003869455 0.8268881 -0.0413548
v -0.004581034 0.9192775 -0.04092097
v 0.1268496 0.6756954 -0.2197876
v 5.185604E-06 0.7064907 -0.2122302
v 5.185604E-06 0.6756954 -0.2537766
v 0.1060783 0.7064907 -0.1838126
v 0.219706 0.6756954 -0.1269302
v -0.106068 0.7064907 -0.1838057
v -0.1268392 0.6756954 -0.21978
v 0.1837292 0.7064907 -0.1061605
v 0.253694 0.6756954 -8.392334E-05
v 5.185604E-06 0.6778503 -8.392334E-05
v -0.1837192 0.7064907 -0.1061536
v 0.2121515 0.7064907 -8.392334E-05
v -0.2196956 0.6756954 -0.1269302
v 0.219706 0.6756954 0.1267624
v -0.2121411 0.7064907 -8.392334E-05
v -0.2536836 0.6756954 -8.392334E-05
v 0.1837292 0.7064907 0.1059858
v 0.1268496 0.6756954 0.2196121
v -0.1837192 0.7064907 0.1059927
v -0.2196956 0.6756954 0.1267624
v 0.1060783 0.7064907 0.1836379
v 5.185604E-06 0.6756954 0.2536087
v -0.106068 0.7064907 0.1836448
v -0.1268392 0.6756954 0.2196198
v 5.185604E-06 0.7064907 0.2120624
vt 0.3969727 0.1240845
vt 0.4289551 0.01087189
vt 0.364502 0.01087189
vt 0.3498535 0.01087189
vt 0.3161621 0.1240845
vt 0.3806152 0.1240845
vt 0.3498535 0.01087189
vt 0.3161621 0.1240845
vt 0.3806152 0.1240845
vt 0.3969727 0.1240845
vt 0.4289551 0.01087189
vt 0.364502 0.01087189
vt 0.3969727 0.1240845
vt 0.4289551 0.01087189
vt 0.364502 0.01087189
vt 0.3498535 0.01087189
vt 0.3161621 0.1240845
vt 0.3806152 0.1240845
vt 0.3969727 0.1240845
vt 0.4289551 0.01087189
vt 0.364502 0.01087189
vt 0.3498535 0.01087189
vt 0.3161621 0.1240845
vt 0.3806152 0.1240845
vt 0.4545898 0.7802734
vt 0.4545898 0.8310547
vt 0.6542969 0.8310547
vt 0.6542969 0.7802734
vt 0.4953613 0.6967773
vt 0.6132813 0.6967773
vt 0.6542969 0.8310547
vt 0.4545898 0.7802734
vt 0.4545898 0.8310547
vt 0.6542969 0.7802734
vt 0.4953613 0.6967773
vt 0.6132813 0.6967773
vt 0.4545898 0.7802734
vt 0.4545898 0.8310547
vt 0.6542969 0.8310547
vt 0.6542969 0.7802734
vt 0.4953613 0.6967773
vt 0.6132813 0.6967773
vt 0.6132813 0.9707031
vt 0.4545898 0.8881836
vt 0.4953613 0.9707031
vt 0.6542969 0.8881836
vt 0.4545898 0.8466797
vt 0.6542969 0.8466797
vt 0.4545898 0.8466797
vt 0.6542969 0.8881836
vt 0.6542969 0.8466797
vt 0.4545898 0.8881836
vt 0.6132813 0.9707031
vt 0.4953613 0.9707031
vt 0.4521484 0.06384277
vt 0.4521484 0.2331543
vt 0.9887695 0.2331543
vt 0.9887695 0.06384277
vt 0.9887695 0.2331543
vt 0.9887695 0.06384277
vt 0.4521484 0.06384277
vt 0.4521484 0.2331543
vt 0.4521484 0.06384277
vt 0.4521484 0.2331543
vt 0.9887695 0.2331543
vt 0.9887695 0.06384277
vt 0.4521484 0.06384277
vt 0.4521484 0.2331543
vt 0.9887695 0.2331543
vt 0.9887695 0.06384277
vt 0.4521484 0.01695251
vt 0.4521484 0.03872681
vt 0.9887695 0.03872681
vt 0.9887695 0.01695251
vt 0.9887695 0.2817383
vt 0.9887695 0.2575684
vt 0.4521484 0.2575684
vt 0.4521484 0.2817383
vt 0.9887695 0.2817383
vt 0.9887695 0.2575684
vt 0.4521484 0.2575684
vt 0.4521484 0.2817383
vt 0.4521484 0.01695251
vt 0.4521484 0.03872681
vt 0.9887695 0.03872681
vt 0.9887695 0.01695251
vt 0.4521484 0.01695251
vt 0.4521484 0.03872681
vt 0.9887695 0.03872681
vt 0.9887695 0.01695251
vt 0.9887695 0.2817383
vt 0.9887695 0.2575684
vt 0.4521484 0.2575684
vt 0.4521484 0.2817383
vt 0.4521484 0.01695251
vt 0.4521484 0.03872681
vt 0.9887695 0.03872681
vt 0.9887695 0.01695251
vt 0.9887695 0.2817383
vt 0.9887695 0.2575684
vt 0.4521484 0.2575684
vt 0.4521484 0.2817383
vt 0.4545898 0.8881836
vt 0.4953613 0.9707031
vt 0.6132813 0.9707031
vt 0.6542969 0.8881836
vt 0.4545898 0.8466797
vt 0.6542969 0.8466797
vt 0.4545898 0.8881836
vt 0.4953613 0.9707031
vt 0.6132813 0.9707031
vt 0.6542969 0.8881836
vt 0.4545898 0.8466797
vt 0.6542969 0.8466797
vt 0.2758789 0.9838867
vt 0.2332764 0.6601563
vt 0.2332764 0.9003906
vt 0.2758789 0.574707
vt 0.3942871 0.574707
vt 0.3942871 0.9838867
vt 0.4367676 0.6601563
vt 0.4367676 0.9003906
vt 0.4545898 0.7802734
vt 0.4545898 0.8310547
vt 0.6542969 0.8310547
vt 0.6542969 0.7802734
vt 0.4953613 0.6967773
vt 0.6132813 0.6967773
vt 0.2171631 0.6601563
vt 0.1744385 0.574707
vt 0.0559082 0.5742188
vt 0.01296234 0.659668
vt 0.2171631 0.9008789
vt 0.01296234 0.9008789
vt 0.0559082 0.9838867
vt 0.1744385 0.9838867
vt 0.9370117 0.5585938
vt 0.9370117 0.6132813
vt 0.9638672 0.5585938
vt 0.9638672 0.6132813
vt 0.8549805 0.362793
vt 0.8959961 0.315918
vt 0.8549805 0.315918
vt 0.8959961 0.362793
vt 0.9365234 0.315918
vt 0.8959961 0.4160156
vt 0.8549805 0.4160156
vt 0.9365234 0.362793
vt 0.9848633 0.315918
vt 0.9848633 0.362793
vt 0.9365234 0.4160156
vt 0.9848633 0.4160156
vt 0.9365234 0.4641113
vt 0.9848633 0.4641113
vt 0.8959961 0.4641113
vt 0.8549805 0.4641113
vt 0.8549805 0.5131836
vt 0.8959961 0.5131836
vt 0.9365234 0.5131836
vt 0.9848633 0.5131836
vt 0.7246094 0.574707
vt 0.7768555 0.5810547
vt 0.7768555 0.546875
vt 0.7329102 0.6044922
vt 0.6860352 0.6518555
vt 0.8208008 0.6044922
vt 0.8295898 0.574707
vt 0.7006836 0.6689453
vt 0.671875 0.7568359
vt 0.7768555 0.7568359
vt 0.8530273 0.6689453
vt 0.6889648 0.7568359
vt 0.8676758 0.6518555
vt 0.6860352 0.8618164
vt 0.8647461 0.7568359
vt 0.8818359 0.7568359
vt 0.7006836 0.8447266
vt 0.7246094 0.9389648
vt 0.8530273 0.8447266
vt 0.8676758 0.8618164
vt 0.7329102 0.9091797
vt 0.7768555 0.9667969
vt 0.8208008 0.9091797
vt 0.8295898 0.9389648
vt 0.7768555 0.9326172
vn 0.5771484 0.5771484 0.5771484
vn 0.5771484 0.5771484 0.5771484
vn 0.5771484 0.5771484 0.5771484
vn 0.5771484 0.5771484 -0.5771484
vn 0.5771484 0.5771484 -0.5771484
vn 0.5771484 0.5771484 -0.5771484
vn -0.5771484 0.5771484 0.5771484
vn -0.5771484 0.5771484 0.5771484
vn -0.5771484 0.5771484 0.5771484
vn -0.5771484 0.5771484 -0.5771484
vn -0.5771484 0.5771484 -0.5771484
vn -0.5771484 0.5771484 -0.5771484
vn -0.5771484 -0.5771484 -0.5771484
vn -0.5771484 -0.5771484 -0.5771484
vn -0.5771484 -0.5771484 -0.5771484
vn -0.5771484 -0.5771484 0.5771484
vn -0.5771484 -0.5771484 0.5771484
vn -0.5771484 -0.5771484 0.5771484
vn 0.5771484 -0.5771484 0.5771484
vn 0.5771484 -0.5771484 0.5771484
vn 0.5771484 -0.5771484 0.5771484
vn 0.5771484 -0.5771484 -0.5771484
vn 0.5771484 -0.5771484 -0.5771484
vn 0.5771484 -0.5771484 -0.5771484
vn 1 0 0
vn 1 0 0
vn 1 0 0
vn 1 0 0
vn 1 0 0
vn 1 0 0
vn -1 0 0
vn -1 0 0
vn -1 0 0
vn -1 0 0
vn -1 0 0
vn -1 0 0
vn 1.049042E-05 0 1
vn 1.049042E-05 0 1
vn 1.049042E-05 0 1
vn 1.049042E-05 0 1
vn 1.323223E-05 0 1
vn 1.323223E-05 0 1
vn -1 0 0
vn -1 0 0
vn -1 0 0
vn -1 0 0
vn -1 0 0
vn -1 0 0
vn -1.049042E-05 0 -1
vn -1.049042E-05 0 -1
vn -1.049042E-05 0 -1
vn -1.049042E-05 0 -1
vn -1.323223E-05 0 -1
vn -1.323223E-05 0 -1
vn 0 0 1
vn 0 0 1
vn 0 0 1
vn 0 0 1
vn -1 0 0
vn -1 0 0
vn -1 0 0
vn -1 0 0
vn 0 0 -1
vn 0 0 -1
vn 0 0 -1
vn 0 0 -1
vn 1 0 0
vn 1 0 0
vn 1 0 0
vn 1 0 0
vn 0 -0.6645508 0.7470703
vn 0 -0.6645508 0.7470703
vn 0 -0.6645508 0.7470703
vn 0 -0.6645508 0.7470703
vn 0 0.6645508 0.7470703
vn 0 0.6645508 0.7470703
vn 0 0.6645508 0.7470703
vn 0 0.6645508 0.7470703
vn -0.7470703 0.6645508 0
vn -0.7470703 0.6645508 0
vn -0.7470703 0.6645508 0
vn -0.7470703 0.6645508 0
vn -0.7470703 -0.6645508 0
vn -0.7470703 -0.6645508 0
vn -0.7470703 -0.6645508 0
vn -0.7470703 -0.6645508 0
vn 0 -0.6645508 -0.7470703
vn 0 -0.6645508 -0.7470703
vn 0 -0.6645508 -0.7470703
vn 0 -0.6645508 -0.7470703
vn 0 0.6645508 -0.7470703
vn 0 0.6645508 -0.7470703
vn 0 0.6645508 -0.7470703
vn 0 0.6645508 -0.7470703
vn 0.7470703 -0.6645508 0
vn 0.7470703 -0.6645508 0
vn 0.7470703 -0.6645508 0
vn 0.7470703 -0.6645508 0
vn 0.7470703 0.6645508 0
vn 0.7470703 0.6645508 0
vn 0.7470703 0.6645508 0
vn 0.7470703 0.6645508 0
vn 1.323223E-05 0 1
vn 1.323223E-05 0 1
vn 1.323223E-05 0 1
vn 1.323223E-05 0 1
vn 1.049042E-05 0 1
vn 1.049042E-05 0 1
vn 1 0 0
vn 1 0 0
vn 1 0 0
vn 1 0 0
vn 1 0 0
vn 1 0 0
vn 0 1 0
vn 0 1 0
vn 0 1 0
vn 0 1 0
vn 0 1 0
vn 0 1 0
vn 0 1 0
vn 0 1 0
vn -1.049042E-05 0 -1
vn -1.049042E-05 0 -1
vn -1.049042E-05 0 -1
vn -1.049042E-05 0 -1
vn -1.174212E-05 0 -1
vn -1.174212E-05 0 -1
vn 0 -1 0
vn 0 -1 0
vn 0 -1 0
vn 0 -1 0
vn 0 -1 0
vn 0 -1 0
vn 0 -1 0
vn 0 -1 0
vn 0.9775391 0.2098389 0.01078796
vn -0.04037476 0.2907715 0.9560547
vn -0.008361816 0.2990723 -0.9541016
vn -0.9858398 0.1656494 -0.02079773
vn 0.9980469 0.02528381 -0.05822754
vn 0.01779175 0.0129776 -1
vn 0.05310059 0.02336121 -0.9985352
vn 0.9995117 0.02330017 0.0078125
vn -0.01420593 0.01304626 -1
vn -0.007865906 -0.0141449 1
vn -0.008766174 -0.01940918 1
vn 0.9995117 0.0246582 -0.01603699
vn -0.008361816 0.2990723 -0.9541016
vn 0.9775391 0.2098389 0.01078796
vn -0.0110321 -0.0171814 1
vn -0.04037476 0.2907715 0.9560547
vn -0.9995117 -0.0266571 -0.008491516
vn -0.9858398 0.1656494 -0.02079773
vn -0.9995117 -0.02400208 -0.01576233
vn -0.9931641 -0.01861572 -0.1137695
vn 0.05310059 0.02336121 -0.9985352
vn 0.01779175 0.0129776 -1
vn -0.01420593 0.01304626 -1
vn -0.008361816 0.2990723 -0.9541016
vn 0.2978516 0.8032227 -0.515625
vn 0 0.9829102 -0.1846924
vn -1.597404E-05 0.8032227 -0.5957031
vn 0.09234619 0.9829102 -0.1600342
vn 0.515625 0.8032227 -0.2978516
vn -0.09234619 0.9829102 -0.1600342
vn -0.2978516 0.8032227 -0.515625
vn 0.1600342 0.9829102 -0.09234619
vn 0.5957031 0.8032227 0
vn 0 1 0
vn -0.1600342 0.9829102 -0.09234619
vn 0.1846924 0.9829102 0
vn -0.515625 0.8032227 -0.2978516
vn 0.515625 0.8032227 0.2978516
vn -0.1846924 0.9829102 0
vn -0.5957031 0.8032227 0
vn 0.1600342 0.9829102 0.09234619
vn 0.2978516 0.8032227 0.515625
vn -0.1600342 0.9829102 0.09234619
vn -0.515625 0.8032227 0.2978516
vn 0.09234619 0.9829102 0.1600342
vn 1.597404E-05 0.8032227 0.5957031
vn -0.09234619 0.9829102 0.1600342
vn -0.2978516 0.8032227 0.515625
vn 0 0.9829102 0.1846924
g z009v001_h_0
f 3/3/3 2/2/2 1/1/1
f 6/6/6 5/5/5 4/4/4
f 9/9/9 8/8/8 7/7/7
f 12/12/12 11/11/11 10/10/10
f 15/15/15 14/14/14 13/13/13
f 18/18/18 17/17/17 16/16/16
f 21/21/21 20/20/20 19/19/19
f 24/24/24 23/23/23 22/22/22
f 27/27/27 26/26/26 25/25/25
f 28/28/28 27/27/27 25/25/25
f 28/28/28 25/25/25 29/29/29
f 30/30/30 28/28/28 29/29/29
f 33/33/33 32/32/32 31/31/31
f 32/32/32 34/34/34 31/31/31
f 32/32/32 35/35/35 34/34/34
f 35/35/35 36/36/36 34/34/34
f 39/39/39 38/38/38 37/37/37
f 40/40/40 39/39/39 37/37/37
f 40/40/40 37/37/37 41/41/41
f 42/42/42 40/40/40 41/41/41
f 45/45/45 44/44/44 43/43/43
f 44/44/44 46/46/46 43/43/43
f 44/44/44 47/47/47 46/46/46
f 47/47/47 48/48/48 46/46/46
f 51/51/51 50/50/50 49/49/49
f 50/50/50 52/52/52 49/49/49
f 50/50/50 53/53/53 52/52/52
f 53/53/53 54/54/54 52/52/52
f 57/57/57 56/56/56 55/55/55
f 58/58/58 57/57/57 55/55/55
f 61/61/61 60/60/60 59/59/59
f 62/62/62 61/61/61 59/59/59
f 65/65/65 64/64/64 63/63/63
f 66/66/66 65/65/65 63/63/63
f 69/69/69 68/68/68 67/67/67
f 70/70/70 69/69/69 67/67/67
f 73/73/73 72/72/72 71/71/71
f 74/74/74 73/73/73 71/71/71
f 77/77/77 76/76/76 75/75/75
f 78/78/78 77/77/77 75/75/75
f 81/81/81 80/80/80 79/79/79
f 82/82/82 81/81/81 79/79/79
f 85/85/85 84/84/84 83/83/83
f 86/86/86 85/85/85 83/83/83
f 89/89/89 88/88/88 87/87/87
f 90/90/90 89/89/89 87/87/87
f 93/93/93 92/92/92 91/91/91
f 94/94/94 93/93/93 91/91/91
f 97/97/97 96/96/96 95/95/95
f 98/98/98 97/97/97 95/95/95
f 101/101/101 100/100/100 99/99/99
f 102/102/102 101/101/101 99/99/99
f 105/105/105 104/104/104 103/103/103
f 106/106/106 105/105/105 103/103/103
f 106/106/106 103/103/103 107/107/107
f 108/108/108 106/106/106 107/107/107
f 111/111/111 110/110/110 109/109/109
f 112/112/112 111/111/111 109/109/109
f 112/112/112 109/109/109 113/113/113
f 114/114/114 112/112/112 113/113/113
f 117/117/117 116/116/116 115/115/115
f 116/116/116 118/118/118 115/115/115
f 118/118/118 119/119/119 115/115/115
f 119/119/119 120/120/120 115/115/115
f 119/119/119 121/121/121 120/120/120
f 121/121/121 122/122/122 120/120/120
f 125/125/125 124/124/124 123/123/123
f 126/126/126 125/125/125 123/123/123
f 126/126/126 123/123/123 127/127/127
f 128/128/128 126/126/126 127/127/127
f 131/131/131 130/130/130 129/129/129
f 132/132/132 131/131/131 129/129/129
f 132/132/132 129/129/129 133/133/133
f 134/134/134 132/132/132 133/133/133
f 134/134/134 133/133/133 135/135/135
f 133/133/133 136/136/136 135/135/135
f 139/139/139 138/138/138 137/137/137
f 140/140/140 138/138/138 139/139/139
f 143/143/143 142/142/142 141/141/141
f 142/142/142 144/144/144 141/141/141
f 142/142/142 145/145/145 144/144/144
f 141/141/141 144/144/144 146/146/146
f 147/147/147 141/141/141 146/146/146
f 145/145/145 148/148/148 144/144/144
f 145/145/145 149/149/149 148/148/148
f 149/149/149 150/150/150 148/148/148
f 144/144/144 148/148/148 151/151/151
f 151/151/151 148/148/148 150/150/150
f 146/146/146 144/144/144 151/151/151
f 152/152/152 151/151/151 150/150/150
f 153/153/153 151/151/151 152/152/152
f 146/146/146 151/151/151 153/153/153
f 154/154/154 153/153/153 152/152/152
f 147/147/147 146/146/146 155/155/155
f 155/155/155 146/146/146 153/153/153
f 156/156/156 147/147/147 155/155/155
f 156/156/156 155/155/155 157/157/157
f 155/155/155 158/158/158 157/157/157
f 155/155/155 153/153/153 158/158/158
f 153/153/153 159/159/159 158/158/158
f 153/153/153 154/154/154 159/159/159
f 154/154/154 160/160/160 159/159/159
f 163/163/163 162/162/162 161/161/161
f 162/162/162 164/164/164 161/161/161
f 161/161/161 164/164/164 165/165/165
f 166/166/166 162/162/162 163/163/163
f 167/167/167 166/166/166 163/163/163
f 164/164/164 168/168/168 165/165/165
f 165/165/165 168/168/168 169/169/169
f 162/162/162 170/170/170 164/164/164
f 166/166/166 170/170/170 162/162/162
f 164/164/164 170/170/170 168/168/168
f 171/171/171 170/170/170 166/166/166
f 171/171/171 166/166/166 167/167/167
f 168/168/168 170/170/170 172/172/172
f 168/168/168 172/172/172 169/169/169
f 173/173/173 171/171/171 167/167/167
f 169/169/169 172/172/172 174/174/174
f 175/175/175 171/171/171 173/173/173
f 175/175/175 170/170/170 171/171/171
f 176/176/176 175/175/175 173/173/173
f 172/172/172 177/177/177 174/174/174
f 172/172/172 170/170/170 177/177/177
f 174/174/174 177/177/177 178/178/178
f 179/179/179 175/175/175 176/176/176
f 179/179/179 170/170/170 175/175/175
f 180/180/180 179/179/179 176/176/176
f 177/177/177 181/181/181 178/178/178
f 177/177/177 170/170/170 181/181/181
f 178/178/178 181/181/181 182/182/182
f 183/183/183 179/179/179 180/180/180
f 183/183/183 170/170/170 179/179/179
f 184/184/184 183/183/183 180/180/180
f 182/182/182 185/185/185 184/184/184
f 181/181/181 185/185/185 182/182/182
f 181/181/181 170/170/170 185/185/185
f 185/185/185 183/183/183 184/184/184
f 185/185/185 170/170/170 183/183/183
