g z009v001_m
v 0.3633528 0.5266005 0.3632584
v 0.2133528 0.6766005 0.3632584
v 0.3633527 0.6766005 0.2132584
v 0.3633523 0.5266005 -0.3634338
v 0.3633523 0.6766005 -0.2134338
v 0.2133523 0.6766005 -0.3634338
v -0.3633409 0.5266005 0.363266
v -0.3633409 0.6766005 0.213266
v -0.2133408 0.6766005 0.363266
v -0.3633413 0.5266005 -0.3634262
v -0.2133413 0.6766005 -0.3634262
v -0.3633413 0.6766005 -0.2134262
v -0.2133414 0 -0.3634279
v -0.3633413 0.15 -0.3634262
v -0.3633413 0 -0.2134262
v -0.2133408 0 0.363266
v -0.3633409 0 0.213266
v -0.3633409 0.15 0.363266
v 0.2133528 0 0.3632584
v 0.3633528 0.15 0.3632584
v 0.3633528 0 0.2132584
v 0.2133523 0 -0.3634338
v 0.3633523 0 -0.2134338
v 0.3633523 0.15 -0.3634338
v 0.3633528 0.15 0.3632584
v 0.3633528 0.2423963 0.3632584
v 0.3633523 0.2423963 -0.3634338
v 0.3633523 0.15 -0.3634338
v 0.3633528 0 0.2132584
v 0.3633523 0 -0.2134338
v -0.3633409 0.2423963 0.363266
v -0.3633413 0.15 -0.3634262
v -0.3633413 0.2423963 -0.3634262
v -0.3633409 0.15 0.363266
v -0.3633413 0 -0.2134262
v -0.3633409 0 0.213266
v -0.3633409 0.15 0.363266
v -0.3633409 0.2423963 0.363266
v 0.3633528 0.2423963 0.3632584
v 0.3633528 0.15 0.3632584
v -0.2133408 0 0.363266
v 0.2133528 0 0.3632584
v -0.3633409 0.6766005 0.213266
v -0.3633413 0.5266005 -0.3634262
v -0.3633413 0.6766005 -0.2134262
v -0.3633409 0.5266005 0.363266
v -0.3633413 0.4513871 -0.3634262
v -0.3633409 0.4513871 0.363266
v 0.3633523 0.4513871 -0.3634338
v -0.3633413 0.5266005 -0.3634262
v -0.3633413 0.4513871 -0.3634262
v 0.3633523 0.5266005 -0.3634338
v -0.2133413 0.6766005 -0.3634262
v 0.2133523 0.6766005 -0.3634338
v -0.3633409 0.2423963 0.363266
v -0.3633409 0.4513871 0.363266
v 0.3633528 0.4513871 0.3632584
v 0.3633528 0.2423963 0.3632584
v -0.3633409 0.4513871 0.363266
v -0.3633409 0.2423963 0.363266
v -0.3633413 0.2423963 -0.3634262
v -0.3633413 0.4513871 -0.3634262
v 0.3633523 0.2423963 -0.3634338
v 0.3633523 0.4513871 -0.3634338
v -0.3633413 0.4513871 -0.3634262
v -0.3633413 0.2423963 -0.3634262
v 0.3633528 0.2423963 0.3632584
v 0.3633528 0.4513871 0.3632584
v 0.3633523 0.4513871 -0.3634338
v 0.3633523 0.2423963 -0.3634338
v -0.3633409 0.5266005 0.363266
v -0.2133408 0.6766005 0.363266
v 0.2133528 0.6766005 0.3632584
v 0.3633528 0.5266005 0.3632584
v -0.3633409 0.4513871 0.363266
v 0.3633528 0.4513871 0.3632584
v 0.3633528 0.5266005 0.3632584
v 0.3633527 0.6766005 0.2132584
v 0.3633523 0.6766005 -0.2134338
v 0.3633523 0.5266005 -0.3634338
v 0.3633528 0.4513871 0.3632584
v 0.3633523 0.4513871 -0.3634338
v 0.2133528 0.6766005 0.3632584
v 0.3633523 0.6766005 -0.2134338
v 0.3633527 0.6766005 0.2132584
v 0.2133523 0.6766005 -0.3634338
v -0.2133413 0.6766005 -0.3634262
v -0.2133408 0.6766005 0.363266
v -0.3633413 0.6766005 -0.2134262
v -0.3633409 0.6766005 0.213266
v 0.3633523 0.15 -0.3634338
v 0.3633523 0.2423963 -0.3634338
v -0.3633413 0.2423963 -0.3634262
v -0.3633413 0.15 -0.3634262
v 0.2133523 0 -0.3634338
v -0.2133414 0 -0.3634279
v 0.3633523 0 -0.2134338
v 0.2133523 0 -0.3634338
v -0.2133414 0 -0.3634279
v -0.3633413 0 -0.2134262
v 0.3633528 0 0.2132584
v -0.3633409 0 0.213266
v -0.2133408 0 0.363266
v 0.2133528 0 0.3632584
v 0.03573244 0.9014949 0.004407022
v -0.006742463 0.9155025 0.03986304
v -0.004581034 0.9192775 -0.04092097
v -0.04511642 0.9035374 0.002339426
v -0.04511642 0.9035374 0.002339426
v 0.00182521 0.6678388 -0.04332533
v -0.004581034 0.9192775 -0.04092097
v -0.03924643 0.671522 -0.003831171
v -0.001327527 0.6754872 0.03715157
v -0.006742463 0.9155025 0.03986304
v 0.03573244 0.9014949 0.004407022
v 0.04159299 0.6719629 -0.0007061014
v -0.004581034 0.9192775 -0.04092097
v 0.00182521 0.6678388 -0.04332533
v 0.1732778 0.6756954 -0.1733589
v 5.185604E-06 0.7064907 -0.2122302
v 5.185604E-06 0.6756954 -0.2537766
v 0.1449037 0.7064907 -0.1449866
v 5.185604E-06 0.6778503 -8.392334E-05
v 0.253694 0.6756954 -8.392334E-05
v -0.1448936 0.7064907 -0.1449797
v -0.1732674 0.6756954 -0.1733551
v 0.2121515 0.7064907 -8.392334E-05
v 0.1732778 0.6756954 0.1731873
v -0.2121411 0.7064907 -8.392334E-05
v -0.2536836 0.6756954 -8.392334E-05
v 0.1449037 0.7064907 0.1448118
v 5.185604E-06 0.6756954 0.2536087
v -0.1448936 0.7064907 0.1448187
v -0.1732674 0.6756954 0.1731911
v 5.185604E-06 0.7064907 0.2120624
vt 0.3969727 0.1240845
vt 0.4289551 0.01087189
vt 0.364502 0.01087189
vt 0.3498535 0.01087189
vt 0.3161621 0.1240845
vt 0.3806152 0.1240845
vt 0.3498535 0.01087189
vt 0.3161621 0.1240845
vt 0.3806152 0.1240845
vt 0.3969727 0.1240845
vt 0.4289551 0.01087189
vt 0.364502 0.01087189
vt 0.3969727 0.1240845
vt 0.4289551 0.01087189
vt 0.364502 0.01087189
vt 0.3498535 0.01087189
vt 0.3161621 0.1240845
vt 0.3806152 0.1240845
vt 0.3969727 0.1240845
vt 0.4289551 0.01087189
vt 0.364502 0.01087189
vt 0.3498535 0.01087189
vt 0.3161621 0.1240845
vt 0.3806152 0.1240845
vt 0.4545898 0.7802734
vt 0.4545898 0.8310547
vt 0.6542969 0.8310547
vt 0.6542969 0.7802734
vt 0.4953613 0.6967773
vt 0.6132813 0.6967773
vt 0.6542969 0.8310547
vt 0.4545898 0.7802734
vt 0.4545898 0.8310547
vt 0.6542969 0.7802734
vt 0.4953613 0.6967773
vt 0.6132813 0.6967773
vt 0.4545898 0.7802734
vt 0.4545898 0.8310547
vt 0.6542969 0.8310547
vt 0.6542969 0.7802734
vt 0.4953613 0.6967773
vt 0.6132813 0.6967773
vt 0.6132813 0.9707031
vt 0.4545898 0.8881836
vt 0.4953613 0.9707031
vt 0.6542969 0.8881836
vt 0.4545898 0.8466797
vt 0.6542969 0.8466797
vt 0.4545898 0.8466797
vt 0.6542969 0.8881836
vt 0.6542969 0.8466797
vt 0.4545898 0.8881836
vt 0.6132813 0.9707031
vt 0.4953613 0.9707031
vt 0.4521484 0.06384277
vt 0.4521484 0.2331543
vt 0.9887695 0.2331543
vt 0.9887695 0.06384277
vt 0.9887695 0.2331543
vt 0.9887695 0.06384277
vt 0.4521484 0.06384277
vt 0.4521484 0.2331543
vt 0.4521484 0.06384277
vt 0.4521484 0.2331543
vt 0.9887695 0.2331543
vt 0.9887695 0.06384277
vt 0.4521484 0.06384277
vt 0.4521484 0.2331543
vt 0.9887695 0.2331543
vt 0.9887695 0.06384277
vt 0.4545898 0.8881836
vt 0.4953613 0.9707031
vt 0.6132813 0.9707031
vt 0.6542969 0.8881836
vt 0.4545898 0.8466797
vt 0.6542969 0.8466797
vt 0.4545898 0.8881836
vt 0.4953613 0.9707031
vt 0.6132813 0.9707031
vt 0.6542969 0.8881836
vt 0.4545898 0.8466797
vt 0.6542969 0.8466797
vt 0.2758789 0.9838867
vt 0.2332764 0.6601563
vt 0.2332764 0.9003906
vt 0.2758789 0.574707
vt 0.3942871 0.574707
vt 0.3942871 0.9838867
vt 0.4367676 0.6601563
vt 0.4367676 0.9003906
vt 0.4545898 0.7802734
vt 0.4545898 0.8310547
vt 0.6542969 0.8310547
vt 0.6542969 0.7802734
vt 0.4953613 0.6967773
vt 0.6132813 0.6967773
vt 0.2171631 0.6601563
vt 0.1744385 0.574707
vt 0.0559082 0.5742188
vt 0.01296234 0.659668
vt 0.2171631 0.9008789
vt 0.01296234 0.9008789
vt 0.0559082 0.9838867
vt 0.1744385 0.9838867
vt 0.9370117 0.5585938
vt 0.9370117 0.6132813
vt 0.9638672 0.5585938
vt 0.9638672 0.6132813
vt 0.9848633 0.4641113
vt 0.8549805 0.5131836
vt 0.9848633 0.5131836
vt 0.8549805 0.4641113
vt 0.8549805 0.4160156
vt 0.9848633 0.4160156
vt 0.9848633 0.362793
vt 0.8549805 0.362793
vt 0.9848633 0.315918
vt 0.8549805 0.315918
vt 0.7050781 0.6132813
vt 0.7768555 0.5810547
vt 0.7768555 0.546875
vt 0.7167969 0.6367188
vt 0.7768555 0.7568359
vt 0.671875 0.7568359
vt 0.8369141 0.6367188
vt 0.8486328 0.6132813
vt 0.6889648 0.7568359
vt 0.7050781 0.9003906
vt 0.8647461 0.7568359
vt 0.8818359 0.7568359
vt 0.7167969 0.8769531
vt 0.7768555 0.9667969
vt 0.8369141 0.8769531
vt 0.8486328 0.9003906
vt 0.7768555 0.9326172
vn 0.5771484 0.5771484 0.5771484
vn 0.5771484 0.5771484 0.5771484
vn 0.5771484 0.5771484 0.5771484
vn 0.5771484 0.5771484 -0.5771484
vn 0.5771484 0.5771484 -0.5771484
vn 0.5771484 0.5771484 -0.5771484
vn -0.5771484 0.5771484 0.5771484
vn -0.5771484 0.5771484 0.5771484
vn -0.5771484 0.5771484 0.5771484
vn -0.5771484 0.5771484 -0.5771484
vn -0.5771484 0.5771484 -0.5771484
vn -0.5771484 0.5771484 -0.5771484
vn -0.5771484 -0.5771484 -0.5771484
vn -0.5771484 -0.5771484 -0.5771484
vn -0.5771484 -0.5771484 -0.5771484
vn -0.5771484 -0.5771484 0.5771484
vn -0.5771484 -0.5771484 0.5771484
vn -0.5771484 -0.5771484 0.5771484
vn 0.5771484 -0.5771484 0.5771484
vn 0.5771484 -0.5771484 0.5771484
vn 0.5771484 -0.5771484 0.5771484
vn 0.5771484 -0.5771484 -0.5771484
vn 0.5771484 -0.5771484 -0.5771484
vn 0.5771484 -0.5771484 -0.5771484
vn 1 0 0
vn 1 0 0
vn 1 0 0
vn 1 0 0
vn 1 0 0
vn 1 0 0
vn -1 0 0
vn -1 0 0
vn -1 0 0
vn -1 0 0
vn -1 0 0
vn -1 0 0
vn 1.049042E-05 0 1
vn 1.049042E-05 0 1
vn 1.049042E-05 0 1
vn 1.049042E-05 0 1
vn 1.323223E-05 0 1
vn 1.323223E-05 0 1
vn -1 0 0
vn -1 0 0
vn -1 0 0
vn -1 0 0
vn -1 0 0
vn -1 0 0
vn -1.049042E-05 0 -1
vn -1.049042E-05 0 -1
vn -1.049042E-05 0 -1
vn -1.049042E-05 0 -1
vn -1.323223E-05 0 -1
vn -1.323223E-05 0 -1
vn 0 0 1
vn 0 0 1
vn 0 0 1
vn 0 0 1
vn -1 0 0
vn -1 0 0
vn -1 0 0
vn -1 0 0
vn 0 0 -1
vn 0 0 -1
vn 0 0 -1
vn 0 0 -1
vn 1 0 0
vn 1 0 0
vn 1 0 0
vn 1 0 0
vn 1.323223E-05 0 1
vn 1.323223E-05 0 1
vn 1.323223E-05 0 1
vn 1.323223E-05 0 1
vn 1.049042E-05 0 1
vn 1.049042E-05 0 1
vn 1 0 0
vn 1 0 0
vn 1 0 0
vn 1 0 0
vn 1 0 0
vn 1 0 0
vn 0 1 0
vn 0 1 0
vn 0 1 0
vn 0 1 0
vn 0 1 0
vn 0 1 0
vn 0 1 0
vn 0 1 0
vn -1.049042E-05 0 -1
vn -1.049042E-05 0 -1
vn -1.049042E-05 0 -1
vn -1.049042E-05 0 -1
vn -1.174212E-05 0 -1
vn -1.174212E-05 0 -1
vn 0 -1 0
vn 0 -1 0
vn 0 -1 0
vn 0 -1 0
vn 0 -1 0
vn 0 -1 0
vn 0 -1 0
vn 0 -1 0
vn 0.9775391 0.2098389 0.01078796
vn -0.04037476 0.2907715 0.9560547
vn -0.008361816 0.2990723 -0.9541016
vn -0.9858398 0.1656494 -0.02079773
vn -0.9858398 0.1656494 -0.02079773
vn 0.05310059 0.02336121 -0.9985352
vn -0.008361816 0.2990723 -0.9541016
vn -0.9931641 -0.01861572 -0.1137695
vn -0.008766174 -0.01940918 1
vn -0.04037476 0.2907715 0.9560547
vn 0.9775391 0.2098389 0.01078796
vn 0.9980469 0.02528381 -0.05822754
vn -0.008361816 0.2990723 -0.9541016
vn 0.05310059 0.02336121 -0.9985352
vn 0.2978516 0.8032227 -0.515625
vn 0 0.9829102 -0.1846924
vn -1.597404E-05 0.8032227 -0.5957031
vn 0.09234619 0.9829102 -0.1600342
vn 0 1 0
vn 0.5957031 0.8032227 0
vn -0.1600342 0.9829102 -0.09234619
vn -0.515625 0.8032227 -0.2978516
vn 0.1846924 0.9829102 0
vn 0.515625 0.8032227 0.2978516
vn -0.1846924 0.9829102 0
vn -0.5957031 0.8032227 0
vn 0.1600342 0.9829102 0.09234619
vn 1.597404E-05 0.8032227 0.5957031
vn -0.09234619 0.9829102 0.1600342
vn -0.2978516 0.8032227 0.515625
vn 0 0.9829102 0.1846924
g z009v001_m_0
f 3/3/3 2/2/2 1/1/1
f 6/6/6 5/5/5 4/4/4
f 9/9/9 8/8/8 7/7/7
f 12/12/12 11/11/11 10/10/10
f 15/15/15 14/14/14 13/13/13
f 18/18/18 17/17/17 16/16/16
f 21/21/21 20/20/20 19/19/19
f 24/24/24 23/23/23 22/22/22
f 27/27/27 26/26/26 25/25/25
f 28/28/28 27/27/27 25/25/25
f 28/28/28 25/25/25 29/29/29
f 30/30/30 28/28/28 29/29/29
f 33/33/33 32/32/32 31/31/31
f 32/32/32 34/34/34 31/31/31
f 32/32/32 35/35/35 34/34/34
f 35/35/35 36/36/36 34/34/34
f 39/39/39 38/38/38 37/37/37
f 40/40/40 39/39/39 37/37/37
f 40/40/40 37/37/37 41/41/41
f 42/42/42 40/40/40 41/41/41
f 45/45/45 44/44/44 43/43/43
f 44/44/44 46/46/46 43/43/43
f 44/44/44 47/47/47 46/46/46
f 47/47/47 48/48/48 46/46/46
f 51/51/51 50/50/50 49/49/49
f 50/50/50 52/52/52 49/49/49
f 50/50/50 53/53/53 52/52/52
f 53/53/53 54/54/54 52/52/52
f 57/57/57 56/56/56 55/55/55
f 58/58/58 57/57/57 55/55/55
f 61/61/61 60/60/60 59/59/59
f 62/62/62 61/61/61 59/59/59
f 65/65/65 64/64/64 63/63/63
f 66/66/66 65/65/65 63/63/63
f 69/69/69 68/68/68 67/67/67
f 70/70/70 69/69/69 67/67/67
f 73/73/73 72/72/72 71/71/71
f 74/74/74 73/73/73 71/71/71
f 74/74/74 71/71/71 75/75/75
f 76/76/76 74/74/74 75/75/75
f 79/79/79 78/78/78 77/77/77
f 80/80/80 79/79/79 77/77/77
f 80/80/80 77/77/77 81/81/81
f 82/82/82 80/80/80 81/81/81
f 85/85/85 84/84/84 83/83/83
f 84/84/84 86/86/86 83/83/83
f 86/86/86 87/87/87 83/83/83
f 87/87/87 88/88/88 83/83/83
f 87/87/87 89/89/89 88/88/88
f 89/89/89 90/90/90 88/88/88
f 93/93/93 92/92/92 91/91/91
f 94/94/94 93/93/93 91/91/91
f 94/94/94 91/91/91 95/95/95
f 96/96/96 94/94/94 95/95/95
f 99/99/99 98/98/98 97/97/97
f 100/100/100 99/99/99 97/97/97
f 100/100/100 97/97/97 101/101/101
f 102/102/102 100/100/100 101/101/101
f 102/102/102 101/101/101 103/103/103
f 101/101/101 104/104/104 103/103/103
f 107/107/107 106/106/106 105/105/105
f 108/108/108 106/106/106 107/107/107
f 111/111/111 110/110/110 109/109/109
f 110/110/110 112/112/112 109/109/109
f 112/112/112 113/113/113 109/109/109
f 113/113/113 114/114/114 109/109/109
f 114/114/114 113/113/113 115/115/115
f 113/113/113 116/116/116 115/115/115
f 115/115/115 116/116/116 117/117/117
f 116/116/116 118/118/118 117/117/117
f 121/121/121 120/120/120 119/119/119
f 120/120/120 122/122/122 119/119/119
f 120/120/120 123/123/123 122/122/122
f 119/119/119 122/122/122 124/124/124
f 125/125/125 120/120/120 121/121/121
f 125/125/125 123/123/123 120/120/120
f 126/126/126 125/125/125 121/121/121
f 122/122/122 127/127/127 124/124/124
f 122/122/122 123/123/123 127/127/127
f 124/124/124 127/127/127 128/128/128
f 129/129/129 125/125/125 126/126/126
f 129/129/129 123/123/123 125/125/125
f 130/130/130 129/129/129 126/126/126
f 127/127/127 131/131/131 128/128/128
f 127/127/127 123/123/123 131/131/131
f 128/128/128 131/131/131 132/132/132
f 133/133/133 129/129/129 130/130/130
f 133/133/133 123/123/123 129/129/129
f 134/134/134 133/133/133 130/130/130
f 132/132/132 135/135/135 134/134/134
f 131/131/131 135/135/135 132/132/132
f 131/131/131 123/123/123 135/135/135
f 135/135/135 133/133/133 134/134/134
f 135/135/135 123/123/123 133/133/133
