g f001v001_l
v -0.2867569 -0.04872062 -0.3190427
v -0.270738 0.1848755 -0.3875549
v -0.4454039 0.1797187 -0.07636499
v 0.1701339 0.04374043 -0.3013735
v -0.4170207 -0.02887705 -0.07311768
v -0.3687646 0.1360164 0.1812539
v 0.07682538 -0.0907384 -0.2533325
v -0.3510072 -0.04766304 0.1614939
v -0.1226375 0.05895455 0.3050736
v 0.1617005 -0.08241733 0.05949093
v 0.242397 -3.72529E-09 0.0991024
v 0.1701339 0.04374043 -0.3013735
v 0.242397 -3.72529E-09 0.0991024
v 0.2338844 0.2914906 0.04814763
v -0.1226375 0.05895455 0.3050736
v 0.1661966 0.2715812 -0.242655
v -0.270738 0.1848755 -0.3875549
v -0.022542 0.3929764 0.1677062
v -0.3687646 0.1360164 0.1812539
v -0.1699201 0.3748738 -0.3067625
v -0.4454039 0.1797187 -0.07636499
v -0.255338 0.4333991 -0.03989701
vt 0.7539063 0.4204102
vt 0.8505859 0.420166
vt 0.7661133 0.1165771
vt 0.7114258 0.8022461
vt 0.7050781 0.2446289
vt 0.6269531 0.01043701
vt 0.6782227 0.6679688
vt 0.6176758 0.1784668
vt 0.4716797 0.1630859
vt 0.5297852 0.6352539
vt 0.4714355 0.7275391
vt 0.255127 0.04751587
vt 0.01198578 0.2680664
vt 0.1435547 0.3666992
vt 0.01524353 0.7817383
vt 0.2456055 0.2489014
vt 0.4516602 0.4191895
vt 0.1678467 0.5634766
vt 0.2010498 0.9667969
vt 0.34375 0.4362793
vt 0.3864746 0.8125
vt 0.2766113 0.6142578
vn -0.347168 -0.703125 -0.6206055
vn -0.3605957 0.1289063 -0.9238281
vn -0.9458008 0.3095703 -0.09735107
vn 0.6450195 -0.1137695 -0.7558594
vn -0.5644531 -0.8217773 -0.07855225
vn -0.6538086 0.3469238 0.6723633
vn 0.1478271 -0.9477539 -0.2832031
vn -0.3127441 -0.890625 0.3303223
vn 0.07348633 -0.2080078 0.9755859
vn 0.2001953 -0.9614258 0.1875
vn 0.8720703 -0.1274414 0.4726563
vn 0.6450195 -0.1137695 -0.7558594
vn 0.8720703 -0.1274414 0.4726563
vn 0.8105469 0.4772949 0.3391113
vn 0.07348633 -0.2080078 0.9755859
vn 0.5507813 0.6591797 -0.5117188
vn -0.3605957 0.1289063 -0.9238281
vn 0.1746826 0.7919922 0.5849609
vn -0.6538086 0.3469238 0.6723633
vn -0.03271484 0.8378906 -0.5449219
vn -0.9458008 0.3095703 -0.09735107
vn -0.4211426 0.8989258 0.1209106
g f001v001_l_0
f 3/3/3 2/2/2 1/1/1
f 4/4/4 1/1/1 2/2/2
f 3/3/3 1/1/1 5/5/5
f 6/6/6 3/3/3 5/5/5
f 4/4/4 7/7/7 1/1/1
f 1/1/1 7/7/7 5/5/5
f 6/6/6 5/5/5 8/8/8
f 5/5/5 7/7/7 8/8/8
f 8/8/8 9/9/9 6/6/6
f 10/10/10 7/7/7 4/4/4
f 8/8/8 7/7/7 10/10/10
f 8/8/8 10/10/10 9/9/9
f 10/10/10 4/4/4 11/11/11
f 9/9/9 10/10/10 11/11/11
f 14/14/14 13/13/13 12/12/12
f 14/14/14 15/15/15 13/13/13
f 14/14/14 12/12/12 16/16/16
f 17/17/17 16/16/16 12/12/12
f 14/14/14 18/18/18 15/15/15
f 14/14/14 16/16/16 18/18/18
f 18/18/18 19/19/19 15/15/15
f 17/17/17 20/20/20 16/16/16
f 18/18/18 16/16/16 20/20/20
f 20/20/20 17/17/17 21/21/21
f 19/19/19 22/22/22 21/21/21
f 18/18/18 22/22/22 19/19/19
f 18/18/18 20/20/20 22/22/22
f 20/20/20 21/21/21 22/22/22
