g f001v001_h
v 0.4861954 0.003428006 -0.05575705
v 0.4274363 -2.328306E-10 -0.1492155
v 0.4629523 -0.04506468 -0.09885384
v -0.07453784 0.2304985 0.2659119
v -0.1226376 0.05895455 0.3050736
v -0.3687646 0.1360164 0.1812539
v 0.09245702 0.01830061 0.2156471
v -0.3006305 0.31687 0.1168483
v -0.4454039 0.1797187 -0.07636499
v 0.1373619 0.3332181 0.1163905
v 0.242397 -3.72529E-09 0.0991024
v -0.2972476 0.4048351 -0.04854078
v -0.270738 0.1848755 -0.3875549
v -0.02254197 0.3929764 0.1677062
v 0.2338844 0.2914906 0.04814763
v 0.2796727 -3.72529E-09 -0.196243
v -0.16992 0.3748738 -0.3067625
v 0.06059518 0.08748086 -0.4065039
v -0.2134283 0.4619631 -0.03125323
v 0.04006538 0.4431284 -0.0710978
v 0.2472745 0.259946 -0.1596271
v 0.08511871 0.2832164 -0.3256829
v -0.2867568 -0.04872062 -0.3190427
v -0.270738 0.1848755 -0.3875549
v -0.4454039 0.1797187 -0.07636499
v 0.06059518 0.08748086 -0.4065039
v -0.4170207 -0.02887705 -0.07311768
v -0.3687646 0.1360164 0.1812539
v -0.01516799 -0.08584681 -0.3406458
v 0.2796727 -3.72529E-09 -0.196243
v -0.1218641 -0.1149952 -0.06591462
v -0.3510073 -0.04766304 0.1614939
v 0.1688187 -0.09562999 -0.1660192
v -0.1596828 -0.02067447 0.2796189
v -0.1226376 0.05895455 0.3050736
v 0.09245702 0.01830061 0.2156471
v 0.1617005 -0.08241733 0.05949093
v 0.242397 -3.72529E-09 0.0991024
v 0.02844396 -0.08852869 0.1319854
v -0.1634836 -0.07102525 0.2234214
v 0.1146493 0.03115973 0.4643675
v 0.1513874 0.05135361 0.3781705
v 0.09775706 -0.01377735 0.4709167
v 0.06144774 0.01659597 0.4899029
v -0.0207112 0.0007980485 0.4686966
v 0.0899968 -0.03081684 0.3301211
v 0.1041265 0.05843206 0.2974315
v 0.009440273 0.0367983 0.2979368
v -0.05307265 -0.005580392 0.3769165
v -0.007192597 -0.04060826 0.4051912
v -0.0207112 0.0007980485 0.4686966
v -0.05307265 -0.005580392 0.3769165
v -0.01460311 0.06126507 0.4454268
v 0.06144774 0.01659597 0.4899029
v -0.03664814 0.0739202 0.3883192
v 0.009440273 0.0367983 0.2979368
v 0.03944768 0.08414934 0.467401
v 0.1146493 0.03115973 0.4643675
v 0.03360993 0.1226091 0.3892017
v 0.0794311 0.1001718 0.4502105
v 0.1513874 0.05135361 0.3781705
v 0.1063573 0.1139793 0.3830703
v 0.1041265 0.05843206 0.2974315
v 0.07740696 0.1067035 0.3283834
v 0.008421995 0.1028329 0.3278098
v 0.4609913 0.0380034 0.0500313
v 0.3711759 0.06707788 0.107693
v 0.4635396 0.1317675 -0.003143758
v 0.4861954 0.003428006 -0.05575705
v 0.3769523 0.1559488 0.03759786
v 0.2854577 0.08765928 0.07162258
v 0.4238006 0.1104509 -0.1127916
v 0.4274363 -2.328306E-10 -0.1492155
v 0.2923709 0.1498518 -0.04379299
v 0.2511324 0.07757541 -0.04293694
v 0.304486 0.04143733 -0.1421306
v 0.4039075 0.1622354 -0.05943266
v 0.3516454 0.141736 -0.1103706
v 0.304486 0.04143733 -0.1421306
v 0.3657748 -0.04470855 -0.1089297
v 0.4274363 -2.328306E-10 -0.1492155
v 0.4629523 -0.04506468 -0.09885384
v 0.2766829 -0.04678391 -0.009402275
v 0.2511324 0.07757541 -0.04293694
v 0.2854577 0.08765928 0.07162258
v 0.3705488 -0.04506465 0.05623999
v 0.4861954 0.003428006 -0.05575705
v 0.3711759 0.06707788 0.107693
v 0.4609913 0.0380034 0.0500313
v -0.4391777 -0.000762541 -0.4042498
v -0.3934096 0 -0.4726005
v -0.4394871 0.07139578 -0.4219287
v -0.4157823 0.05061488 -0.3244908
v -0.396548 0.07088925 -0.4771503
v -0.3091791 0.02013312 -0.4914689
v -0.4062578 0.1093469 -0.3695946
v -0.322867 0.08249978 -0.3113599
v -0.3244974 0.09560312 -0.4688182
v -0.2676769 0.04427839 -0.4589314
v -0.3737254 0.1226618 -0.4279866
v -0.3438355 0.1367516 -0.3652515
v -0.2555377 0.07767901 -0.3872179
v -0.2998928 0.1219389 -0.410588
v -0.3115529 -0.02346185 -0.4459811
v -0.2676769 0.04427839 -0.4589314
v -0.3091791 0.02013312 -0.4914689
v -0.3934096 0 -0.4726005
v -0.4391777 -0.000762541 -0.4042498
v -0.2565264 0.02911974 -0.3721321
v -0.2555377 0.07767901 -0.3872179
v -0.322867 0.08249978 -0.3113599
v -0.3630388 -0.01484011 -0.3235724
v -0.4157823 0.05061488 -0.3244908
vt 0.5732422 -1.445313
vt 0.6982422 -1.445313
vt 0.6357422 -1.570313
vt 0.1028442 0.6674805
vt 0.01524353 0.7817383
vt 0.2010498 0.9667969
vt 0.01345825 0.4992676
vt 0.2321777 0.7480469
vt 0.3864746 0.8125
vt 0.1477051 0.454834
vt 0.01198578 0.2680664
vt 0.2885742 0.6386719
vt 0.4516602 0.4191895
vt 0.1678467 0.5634766
vt 0.1435547 0.3666992
vt 0.1608887 0.01295471
vt 0.34375 0.4362793
vt 0.3496094 0.08209229
vt 0.2648926 0.5898438
vt 0.2272949 0.4394531
vt 0.1989746 0.2458496
vt 0.2922363 0.2519531
vt 0.7539063 0.4204102
vt 0.8505859 0.420166
vt 0.7661133 0.1165771
vt 0.7871094 0.730957
vt 0.7050781 0.2446289
vt 0.6269531 0.01043701
vt 0.7246094 0.612793
vt 0.6352539 0.8730469
vt 0.6411133 0.4472656
vt 0.6176758 0.1784668
vt 0.6318359 0.7226563
vt 0.5175781 0.199707
vt 0.4716797 0.1630859
vt 0.4619141 0.4768066
vt 0.5297852 0.6352539
vt 0.4714355 0.7275391
vt 0.5332031 0.4758301
vt 0.5473633 0.2585449
vt 0.8408203 0.5976563
vt 0.8271484 0.6665039
vt 0.8574219 0.6005859
vt 0.8676758 0.5712891
vt 0.9013672 0.5888672
vt 0.8632813 0.6845703
vt 0.8466797 0.7348633
vt 0.8881836 0.7353516
vt 0.9135742 0.6679688
vt 0.8945313 0.6425781
vt 0.9951172 0.855957
vt 0.9746094 0.7475586
vt 0.9628906 0.8510742
vt 0.96875 0.9492188
vt 0.9492188 0.8095703
vt 0.9121094 0.7451172
vt 0.9477539 0.8935547
vt 0.9316406 0.9760742
vt 0.9262695 0.8510742
vt 0.9316406 0.9047852
vt 0.8813477 0.9360352
vt 0.9067383 0.8852539
vt 0.8706055 0.8291016
vt 0.8994141 0.8408203
vt 0.9199219 0.8071289
vt 0.9213867 0.04620361
vt 0.859375 0.01826477
vt 0.8989258 0.1251221
vt 0.9589844 0.1523438
vt 0.8637695 0.1147461
vt 0.8120117 0.08911133
vt 0.9013672 0.2030029
vt 0.9370117 0.2746582
vt 0.8427734 0.1878662
vt 0.8110352 0.2268066
vt 0.8637695 0.3088379
vt 0.8818359 0.1699219
vt 0.8710938 0.2133789
vt 0.9643555 0.5395508
vt 0.9248047 0.5058594
vt 0.9072266 0.5634766
vt 0.8876953 0.5048828
vt 0.9477539 0.4394531
vt 0.9926758 0.4494629
vt 0.9746094 0.3479004
vt 0.9223633 0.4008789
vt 0.8696289 0.4592285
vt 0.9306641 0.3166504
vt 0.8808594 0.3637695
vt 0.3945313 0.8793945
vt 0.4213867 0.9589844
vt 0.4284668 0.8740234
vt 0.4228516 0.7851563
vt 0.4428711 0.9130859
vt 0.4726563 0.9848633
vt 0.4448242 0.8344727
vt 0.4797363 0.7719727
vt 0.4719238 0.9116211
vt 0.503418 0.9467773
vt 0.4575195 0.8725586
vt 0.46875 0.8339844
vt 0.5151367 0.8564453
vt 0.4846191 0.8666992
vt 0.7871094 0.9267578
vt 0.7504883 0.9414063
vt 0.7792969 0.9780273
vt 0.8242188 0.9501953
vt 0.8408203 0.8793945
vt 0.7607422 0.8662109
vt 0.7392578 0.8569336
vt 0.7739258 0.7836914
vt 0.8032227 0.8388672
vt 0.8232422 0.7929688
vn 0.9760742 -0.2164307 0.00104332
vn 0.373291 -0.06030273 -0.9257813
vn 0.4741211 -0.8740234 -0.1078491
vn 0.06964111 0.3522949 0.9331055
vn -0.04403687 0.06219482 0.9970703
vn -0.7514648 0.1846924 0.6337891
vn 0.5161133 -0.1320801 0.8461914
vn -0.5678711 0.5805664 0.5834961
vn -0.9516602 0.246582 -0.1832275
vn 0.5600586 0.4951172 0.6645508
vn 0.8916016 -0.1411133 0.4299316
vn -0.7470703 0.6430664 -0.1679688
vn -0.5087891 0.1760254 -0.8427734
vn 0.06433105 0.7817383 0.6206055
vn 0.878418 0.3994141 0.2617188
vn 0.9125977 -0.1638184 -0.3747559
vn -0.1748047 0.730957 -0.6591797
vn 0.3276367 -0.05157471 -0.9433594
vn -0.178833 0.9799805 0.08514404
vn 0.309082 0.9389648 -0.1524658
vn 0.8286133 0.4443359 -0.3405762
vn 0.4082031 0.5805664 -0.7045898
vn -0.5097656 -0.6206055 -0.5961914
vn -0.5087891 0.1760254 -0.8427734
vn -0.9516602 0.246582 -0.1832275
vn 0.3276367 -0.05157471 -0.9433594
vn -0.7509766 -0.6538086 -0.09417725
vn -0.7514648 0.1846924 0.6337891
vn 0.07147217 -0.809082 -0.5834961
vn 0.9125977 -0.1638184 -0.3747559
vn -0.1013794 -0.9946289 -0.01184082
vn -0.5996094 -0.7094727 0.3706055
vn 0.3132324 -0.9394531 -0.1385498
vn -0.168335 -0.4152832 0.894043
vn -0.04403687 0.06219482 0.9970703
vn 0.5161133 -0.1320801 0.8461914
vn 0.4196777 -0.8842773 0.2036133
vn 0.8916016 -0.1411133 0.4299316
vn 0.144043 -0.9418945 0.3039551
vn -0.08587646 -0.9511719 0.2971191
vn 0.7661133 0.1951904 0.6123047
vn 0.9916992 -0.1084595 -0.06658936
vn 0.449707 -0.8339844 0.3193359
vn -0.01226044 -0.01643372 1
vn -0.5688477 -0.3640137 0.737793
vn 0.3684082 -0.8398438 -0.3986816
vn 0.4938965 0.04330444 -0.8686523
vn -0.4152832 -0.265625 -0.8701172
vn -0.824707 -0.4147949 -0.3842773
vn -0.1721191 -0.9833984 0.05841064
vn -0.5688477 -0.3640137 0.737793
vn -0.824707 -0.4147949 -0.3842773
vn -0.6777344 0.4575195 0.5756836
vn -0.01226044 -0.01643372 1
vn -0.8798828 0.4716797 -0.05767822
vn -0.4152832 -0.265625 -0.8701172
vn -0.2419434 0.5698242 0.7856445
vn 0.7661133 0.1951904 0.6123047
vn -0.2546387 0.9599609 0.1156616
vn 0.4199219 0.703125 0.5737305
vn 0.9916992 -0.1084595 -0.06658936
vn 0.5952148 0.8032227 0.02185059
vn 0.4938965 0.04330444 -0.8686523
vn 0.1662598 0.7666016 -0.6201172
vn -0.4880371 0.6523438 -0.5795898
vn 0.7768555 -0.1821289 0.6030273
vn 0.08233643 0.056427 0.9951172
vn 0.8344727 0.5229492 0.1744385
vn 0.9760742 -0.2164307 0.00104332
vn 0.03466797 0.8544922 0.5180664
vn -0.7041016 0.1705322 0.6894531
vn 0.6259766 0.4050293 -0.6665039
vn 0.373291 -0.06030273 -0.9257813
vn -0.6064453 0.7905273 -0.08557129
vn -0.9897461 0.07220459 -0.1235352
vn -0.5341797 -0.07073975 -0.8422852
vn 0.2490234 0.9511719 -0.1829834
vn -0.1984863 0.6137695 -0.7641602
vn -0.5341797 -0.07073975 -0.8422852
vn -0.2226563 -0.8867188 -0.4055176
vn 0.373291 -0.06030273 -0.9257813
vn 0.4741211 -0.8740234 -0.1078491
vn -0.6762695 -0.722168 0.1462402
vn -0.9897461 0.07220459 -0.1235352
vn -0.7041016 0.1705322 0.6894531
vn 0.01517487 -0.8027344 0.5961914
vn 0.9760742 -0.2164307 0.00104332
vn 0.08233643 0.056427 0.9951172
vn 0.7768555 -0.1821289 0.6030273
vn -0.6972656 -0.7167969 0.006771088
vn -0.4274902 -0.6152344 -0.6621094
vn -0.9360352 0.2888184 -0.2009277
vn -0.6303711 0.03552246 0.7753906
vn -0.4450684 0.3039551 -0.8422852
vn 0.2385254 -0.2193604 -0.9458008
vn -0.6044922 0.7006836 0.3791504
vn 0.3181152 0.2414551 0.9169922
vn 0.2236328 0.6015625 -0.7666016
vn 0.8618164 -0.03527832 -0.5058594
vn -0.2924805 0.8798828 -0.375
vn 0.09338379 0.9086914 0.4072266
vn 0.8759766 0.447998 0.1778564
vn 0.5131836 0.831543 -0.2130127
vn 0.276123 -0.9545898 -0.1137085
vn 0.8618164 -0.03527832 -0.5058594
vn 0.2385254 -0.2193604 -0.9458008
vn -0.4274902 -0.6152344 -0.6621094
vn -0.6972656 -0.7167969 0.006771088
vn 0.7451172 -0.5258789 0.4101563
vn 0.8759766 0.447998 0.1778564
vn 0.3181152 0.2414551 0.9169922
vn 0.01704407 -0.8139648 0.5805664
vn -0.6303711 0.03552246 0.7753906
g f001v001_h_0
f 3/3/3 2/2/2 1/1/1
f 6/6/6 5/5/5 4/4/4
f 4/4/4 5/5/5 7/7/7
f 8/8/8 6/6/6 4/4/4
f 8/8/8 9/9/9 6/6/6
f 10/10/10 4/4/4 7/7/7
f 10/10/10 7/7/7 11/11/11
f 8/8/8 12/12/12 9/9/9
f 13/13/13 9/9/9 12/12/12
f 4/4/4 14/14/14 8/8/8
f 14/14/14 4/4/4 10/10/10
f 11/11/11 15/15/15 10/10/10
f 16/16/16 15/15/15 11/11/11
f 13/13/13 12/12/12 17/17/17
f 17/17/17 18/18/18 13/13/13
f 8/8/8 19/19/19 12/12/12
f 14/14/14 19/19/19 8/8/8
f 17/17/17 12/12/12 19/19/19
f 10/10/10 20/20/20 14/14/14
f 14/14/14 20/20/20 19/19/19
f 10/10/10 15/15/15 20/20/20
f 17/17/17 19/19/19 20/20/20
f 16/16/16 21/21/21 15/15/15
f 21/21/21 16/16/16 18/18/18
f 21/21/21 20/20/20 15/15/15
f 17/17/17 20/20/20 22/22/22
f 17/17/17 22/22/22 18/18/18
f 21/21/21 22/22/22 20/20/20
f 21/21/21 18/18/18 22/22/22
f 25/25/25 24/24/24 23/23/23
f 26/26/26 23/23/23 24/24/24
f 25/25/25 23/23/23 27/27/27
f 28/28/28 25/25/25 27/27/27
f 26/26/26 29/29/29 23/23/23
f 29/29/29 26/26/26 30/30/30
f 23/23/23 31/31/31 27/27/27
f 23/23/23 29/29/29 31/31/31
f 28/28/28 27/27/27 32/32/32
f 27/27/27 31/31/31 32/32/32
f 33/33/33 29/29/29 30/30/30
f 33/33/33 31/31/31 29/29/29
f 32/32/32 34/34/34 28/28/28
f 34/34/34 35/35/35 28/28/28
f 34/34/34 36/36/36 35/35/35
f 37/37/37 33/33/33 30/30/30
f 37/37/37 30/30/30 38/38/38
f 36/36/36 39/39/39 38/38/38
f 39/39/39 37/37/37 38/38/38
f 33/33/33 37/37/37 39/39/39
f 31/31/31 33/33/33 39/39/39
f 34/34/34 39/39/39 36/36/36
f 32/32/32 40/40/40 34/34/34
f 40/40/40 32/32/32 31/31/31
f 39/39/39 34/34/34 40/40/40
f 39/39/39 40/40/40 31/31/31
f 43/43/43 42/42/42 41/41/41
f 41/41/41 44/44/44 43/43/43
f 43/43/43 44/44/44 45/45/45
f 43/43/43 46/46/46 42/42/42
f 47/47/47 42/42/42 46/46/46
f 46/46/46 48/48/48 47/47/47
f 49/49/49 48/48/48 46/46/46
f 45/45/45 49/49/49 50/50/50
f 43/43/43 45/45/45 50/50/50
f 50/50/50 46/46/46 43/43/43
f 49/49/49 46/46/46 50/50/50
f 53/53/53 52/52/52 51/51/51
f 53/53/53 51/51/51 54/54/54
f 53/53/53 55/55/55 52/52/52
f 56/56/56 52/52/52 55/55/55
f 53/53/53 54/54/54 57/57/57
f 57/57/57 54/54/54 58/58/58
f 53/53/53 59/59/59 55/55/55
f 53/53/53 57/57/57 59/59/59
f 57/57/57 58/58/58 60/60/60
f 60/60/60 59/59/59 57/57/57
f 60/60/60 58/58/58 61/61/61
f 60/60/60 61/61/61 62/62/62
f 60/60/60 62/62/62 59/59/59
f 62/62/62 61/61/61 63/63/63
f 62/62/62 63/63/63 64/64/64
f 64/64/64 63/63/63 56/56/56
f 64/64/64 59/59/59 62/62/62
f 55/55/55 59/59/59 65/65/65
f 56/56/56 55/55/55 65/65/65
f 64/64/64 65/65/65 59/59/59
f 64/64/64 56/56/56 65/65/65
f 68/68/68 67/67/67 66/66/66
f 68/68/68 66/66/66 69/69/69
f 68/68/68 70/70/70 67/67/67
f 71/71/71 67/67/67 70/70/70
f 72/72/72 68/68/68 69/69/69
f 69/69/69 73/73/73 72/72/72
f 71/71/71 70/70/70 74/74/74
f 75/75/75 71/71/71 74/74/74
f 74/74/74 76/76/76 75/75/75
f 70/70/70 68/68/68 77/77/77
f 72/72/72 77/77/77 68/68/68
f 70/70/70 77/77/77 74/74/74
f 78/78/78 73/73/73 76/76/76
f 78/78/78 72/72/72 73/73/73
f 74/74/74 78/78/78 76/76/76
f 78/78/78 77/77/77 72/72/72
f 77/77/77 78/78/78 74/74/74
f 81/81/81 80/80/80 79/79/79
f 81/81/81 82/82/82 80/80/80
f 83/83/83 79/79/79 80/80/80
f 83/83/83 84/84/84 79/79/79
f 83/83/83 85/85/85 84/84/84
f 82/82/82 86/86/86 80/80/80
f 83/83/83 80/80/80 86/86/86
f 83/83/83 86/86/86 85/85/85
f 87/87/87 86/86/86 82/82/82
f 85/85/85 86/86/86 88/88/88
f 87/87/87 89/89/89 86/86/86
f 88/88/88 86/86/86 89/89/89
f 92/92/92 91/91/91 90/90/90
f 92/92/92 90/90/90 93/93/93
f 92/92/92 94/94/94 91/91/91
f 94/94/94 95/95/95 91/91/91
f 92/92/92 93/93/93 96/96/96
f 96/96/96 93/93/93 97/97/97
f 94/94/94 98/98/98 95/95/95
f 98/98/98 99/99/99 95/95/95
f 92/92/92 100/100/100 94/94/94
f 92/92/92 96/96/96 100/100/100
f 94/94/94 100/100/100 98/98/98
f 96/96/96 97/97/97 101/101/101
f 101/101/101 100/100/100 96/96/96
f 101/101/101 97/97/97 102/102/102
f 103/103/103 102/102/102 99/99/99
f 103/103/103 99/99/99 98/98/98
f 103/103/103 98/98/98 100/100/100
f 101/101/101 102/102/102 103/103/103
f 103/103/103 100/100/100 101/101/101
f 106/106/106 105/105/105 104/104/104
f 107/107/107 106/106/106 104/104/104
f 104/104/104 108/108/108 107/107/107
f 109/109/109 104/104/104 105/105/105
f 109/109/109 105/105/105 110/110/110
f 110/110/110 111/111/111 109/109/109
f 104/104/104 112/112/112 108/108/108
f 104/104/104 109/109/109 112/112/112
f 112/112/112 109/109/109 111/111/111
f 112/112/112 113/113/113 108/108/108
f 112/112/112 111/111/111 113/113/113
