#
# OBJECT NAME
#
o model_3206
mtllib 3206.mtl

#
# VERTEX BUFFER 000
#
v -0.00988531 0.173264 -0.350974
v 0.0100914 0.173278 -0.351097
v 0.0100914 0 -0.351097
v -0.00988531 0 -0.350974
v 0.0100914 0.173278 -0.351097
v -0.00988531 0.173264 -0.350974
v -0.00992683 0.188465 -0.343389
v 0.0101367 0.188465 -0.343514
v 0.0101367 0.188465 -0.343514
v -0.00992683 0.188465 -0.343389
v -0.374609 0.188465 0.290459
v 0.386637 0.188465 0.292387
v -0.374705 0 0.309334
v -0.381226 0 0.298053
v 0.393257 0 0.299978
v 0.386665 0 0.311469
v -0.374705 0.173139 0.309334
v -0.381226 0.173055 0.298053
v -0.381226 0 0.298053
v -0.374705 0 0.309334
v -0.381226 0.173055 0.298053
v -0.374705 0.173139 0.309334
v -0.368115 0.188465 0.301726
v -0.374609 0.188465 0.290459
v 0.386665 0.173138 0.311469
v 0.380076 0.188465 0.303859
v -0.381226 0.173055 0.298053
v -0.374609 0.188465 0.290459
v -0.381226 0 0.298053
v -0.381226 0.173055 0.298053
v -0.00988531 0.173264 -0.350974
v -0.00988531 0 -0.350974
v 0.393257 0.173044 0.299978
v 0.386637 0.188465 0.292387
v 0.393257 0.173044 0.299978
v 0.386665 0.173138 0.311469
v 0.386665 0 0.311469
v 0.393257 0 0.299978
v 0.386637 0.188465 0.292387
v 0.393257 0.173044 0.299978
v 0.0100914 0.173278 -0.351097
v 0.0101367 0.188465 -0.343514
v 0.0100914 0 -0.351097
v 0.393257 0 0.299978
v 0.386665 0 0.311469
v 0.386665 0.173138 0.311469
v -0.374705 0 0.309334
v 0.386637 0.188465 0.292387
v -0.374609 0.188465 0.290459
v -0.368115 0.188465 0.301726
v 0.380076 0.188465 0.303859
v -0.00988531 0 -0.350974
v 0.0100914 0 -0.351097
v -0.00900118 0.315479 -0.242552
v -0.00889546 0.183361 -0.257162
v -0.287068 0.183361 0.227287
v -0.27426 0.315479 0.212675
v -0.265053 0.315479 0.228759
v -0.277759 0.183361 0.243427
v 0.289894 0.183361 0.245278
v 0.277188 0.315479 0.230604
v 0.286277 0.315479 0.214575
v 0.299096 0.183361 0.229178
v 0.0104571 0.183361 -0.2573
v 0.0105736 0.315479 -0.242699
v 0.286277 0.315479 0.214575
v -0.27426 0.315479 0.212675
v -0.265053 0.315479 0.228759
v 0.277188 0.315479 0.230604
v 0.289894 0.183361 0.245278
v 0.286277 0.315479 0.214575
v -0.287068 0.183361 0.227287
v -0.277759 0.183361 0.243427
v -0.265053 0.315479 0.228759
v 0.0105736 0.315479 -0.242699
v -0.00900118 0.315479 -0.242552
v -0.27426 0.315479 0.212675
v 0.286277 0.315479 0.214575

vn -0.855957 0.0123291 -0.516602
vn 0.849609 0.0122604 -0.526855
vn -0.00611877 0 -0.999512
vn -0.00611877 0 -0.999512
vn 0.849609 0.0122604 -0.526855
vn -0.855957 0.0123291 -0.516602
vn -0.842285 0.19104 -0.503906
vn 0.835938 0.189819 -0.51416
vn 0 1 0
vn 0 1 0
vn 0 1 0
vn 0 1 0
vn 0 -1 0
vn 0 -1 0
vn 0 -1 0
vn 0 -1 0
vn -0.0175476 0.0317688 0.999023
vn -0.875488 0.0107574 -0.48291
vn -0.865723 0 0.5
vn -0.865723 0 0.5
vn -0.875488 0.0107574 -0.48291
vn -0.0175476 0.0317688 0.999023
vn -0.014534 0.44873 0.893066
vn -0.856445 0.188721 -0.480225
vn 0.0122681 0.0317078 0.999023
vn 0.00974274 0.44873 0.893066
vn -0.875488 0.0107574 -0.48291
vn -0.856445 0.188721 -0.480225
vn -0.867676 0 -0.496582
vn -0.875488 0.0107574 -0.48291
vn -0.855957 0.0123291 -0.516602
vn -0.867676 0 -0.496582
vn 0.869629 0.0106812 -0.493408
vn 0.850586 0.1875 -0.490723
vn 0.869629 0.0106812 -0.493408
vn 0.0122681 0.0317078 0.999023
vn 0.867188 0 0.497559
vn 0.867188 0 0.497559
vn 0.850586 0.1875 -0.490723
vn 0.869629 0.0106812 -0.493408
vn 0.849609 0.0122604 -0.526855
vn 0.835938 0.189819 -0.51416
vn 0.861816 0 -0.506836
vn 0.861816 0 -0.506836
vn -0.0028038 0 0.999512
vn 0.0122681 0.0317078 0.999023
vn -0.0028038 0 0.999512
vn 0 1 -2.08616e-006
vn 0 1 -2.08616e-006
vn 0 1 -2.08616e-006
vn 0 1 -2.08616e-006
vn 0 -1 0
vn 0 -1 0
vn -0.850098 0.0444946 -0.524414
vn -0.848145 0.0448914 -0.527344
vn -0.880371 0.0460205 -0.471191
vn -0.877441 0.0450745 -0.477295
vn -0.0308228 0.112915 0.992676
vn -0.0325012 0.113037 0.992676
vn 0.0259247 0.113098 0.993164
vn 0.0242462 0.112915 0.993164
vn 0.870117 0.0446777 -0.490479
vn 0.873535 0.0455933 -0.484375
vn 0.840332 0.0444946 -0.539551
vn 0.842285 0.0441284 -0.536621
vn 0 1 4.17233e-007
vn 0 1 4.17233e-007
vn 0 1 4.17233e-007
vn 0 1 4.17233e-007
vn 0.0259247 0.113098 0.993164
vn 0.870117 0.0446777 -0.490479
vn -0.880371 0.0460205 -0.471191
vn -0.0325012 0.113037 0.992676
vn -0.0308228 0.112915 0.992676
vn 0 1 0
vn 0 1 0
vn 0 1 0
vn 0 1 0

vt 0.0140053 0.453331
vt 0.0172127 0.453331
vt 0.0172127 0.406644
vt 0.0140053 0.406641
vt 0.0140053 0.453331
vt 0.0172127 0.453331
vt 0.0172127 0.456642
vt 0.0140053 0.456642
vt 0.562141 0.952192
vt 0.555807 0.952192
vt 0.447935 0.734689
vt 0.664911 0.734762
vt 0.259037 0.0253074
vt 0.261168 0.0288113
vt 0.0140237 0.028738
vt 0.0161321 0.0253073
vt 0.258978 0.453331
vt 0.261076 0.453331
vt 0.261076 0.406818
vt 0.258978 0.406816
vt 0.0140053 0.453331
vt 0.0172127 0.453331
vt 0.0172127 0.456642
vt 0.0140053 0.456642
vt 0.258978 0.453331
vt 0.258978 0.456642
vt 0.258978 0.453331
vt 0.258978 0.456642
vt 0.0140053 0.406642
vt 0.0140053 0.453331
vt 0.258978 0.453331
vt 0.258978 0.406814
vt 0.261076 0.453331
vt 0.261076 0.456642
vt 0.258978 0.453331
vt 0.261076 0.453331
vt 0.261076 0.406818
vt 0.258978 0.406816
vt 0.0172127 0.456642
vt 0.0172127 0.453331
vt 0.258978 0.453331
vt 0.258978 0.456642
vt 0.0172127 0.406644
vt 0.258978 0.406816
vt 0.0140053 0.406642
vt 0.0140053 0.432071
vt 0.258978 0.406816
vt 0.664911 0.734762
vt 0.447935 0.734689
vt 0.450044 0.731258
vt 0.66278 0.731258
vt 0.138754 0.222386
vt 0.132419 0.222386
vt 0.486909 0.663551
vt 0.493159 0.62593
vt 0.333611 0.62593
vt 0.340104 0.663551
vt 0.486909 0.663551
vt 0.493159 0.62593
vt 0.333611 0.62593
vt 0.340104 0.663551
vt 0.340104 0.663551
vt 0.333611 0.62593
vt 0.493159 0.62593
vt 0.486909 0.663551
vt 0.193882 0.816276
vt 0.0118213 0.816273
vt 0.0148728 0.811216
vt 0.190993 0.811216
vt 0.333611 0.62593
vt 0.340104 0.663551
vt 0.333611 0.62593
vt 0.333611 0.62593
vt 0.340104 0.663551
vt 0.102577 0.960038
vt 0.0962195 0.959971
vt 0.0118213 0.816273
vt 0.193882 0.816276


#
# MESH 000
#
g surface_000
usemtl surface_000
f 15/15/15 52/52/52 53/53/53
f 15/15/15 14/14/14 52/52/52
f 13/13/13 14/14/14 15/15/15
f 13/13/13 15/15/15 16/16/16
f 48/48/48 50/50/50 51/51/51
f 48/48/48 49/49/49 50/50/50
f 45/45/45 17/17/17 47/47/47
f 45/45/45 46/46/46 17/17/17
f 43/43/43 35/35/35 44/44/44
f 43/43/43 2/2/2 35/35/35
f 39/39/39 41/41/41 42/42/42
f 39/39/39 40/40/40 41/41/41
f 35/35/35 37/37/37 38/38/38
f 35/35/35 36/36/36 37/37/37
f 25/25/25 33/33/33 34/34/34
f 25/25/25 34/34/34 26/26/26
f 23/23/23 25/25/25 26/26/26
f 23/23/23 22/22/22 25/25/25
f 21/21/21 22/22/22 23/23/23
f 21/21/21 23/23/23 24/24/24
f 29/29/29 31/31/31 32/32/32
f 29/29/29 30/30/30 31/31/31
f 7/7/7 27/27/27 28/28/28
f 7/7/7 6/6/6 27/27/27
f 5/5/5 6/6/6 7/7/7
f 5/5/5 7/7/7 8/8/8
f 17/17/17 19/19/19 20/20/20
f 17/17/17 18/18/18 19/19/19
f 9/9/9 11/11/11 12/12/12
f 9/9/9 10/10/10 11/11/11
f 1/1/1 3/3/3 4/4/4
f 1/1/1 2/2/2 3/3/3
f 75/75/75 77/77/77 78/78/78
f 75/75/75 76/76/76 77/77/77
f 72/72/72 74/74/74 57/57/57
f 72/72/72 73/73/73 74/74/74
f 70/70/70 71/71/71 61/61/61
f 70/70/70 63/63/63 71/71/71
f 66/66/66 68/68/68 69/69/69
f 66/66/66 67/67/67 68/68/68
f 62/62/62 63/63/63 64/64/64
f 62/62/62 64/64/64 65/65/65
f 64/64/64 54/54/54 65/65/65
f 64/64/64 55/55/55 54/54/54
f 54/54/54 55/55/55 56/56/56
f 54/54/54 56/56/56 57/57/57
f 58/58/58 60/60/60 61/61/61
f 58/58/58 59/59/59 60/60/60

