#
# OBJECT NAME
#
o model_3155
mtllib 3155.mtl

#
# VERTEX BUFFER 000
#
v -0.00253228 0.994627 -0.402418
v 0.551104 0.0205813 -0.402418
v 0.551257 0.0205813 -0.5
v -0.00237941 0.996043 -0.5
v -0.551396 0.0205813 -0.402418
v -0.00253228 0.994627 -0.402418
v -0.00237941 0.996043 -0.5
v -0.551243 0.0205813 -0.5
v -0.551396 0.0205813 -0.402418
v -0.551243 0.0205813 -0.5
v 0.551257 0.0205813 -0.5
v 0.551104 0.0205813 -0.402418
v -0.00237941 0.996043 -0.5
v 0.551257 0.0205813 -0.5
v -0.551243 0.0205813 -0.5
v -0.551396 0.0205813 -0.402418
v 0.551104 0.0205813 -0.402418
v -0.00253228 0.994627 -0.402418

vn 0.869141 0.493652 0.00494385
vn 0.869141 0.493652 0.00494385
vn 0.869141 0.493652 0.00494385
vn 0.869141 0.493652 0.00494385
vn -0.871094 0.490479 0.00219345
vn -0.871094 0.490479 0.00219345
vn -0.871094 0.490479 0.00219345
vn -0.871094 0.490479 0.00219345
vn 0 -1 0
vn 0 -1 0
vn 0 -1 0
vn 0 -1 0
vn 0 0 -1
vn 0 0 -1
vn 0 0 -1
vn 0 0 1
vn 0 0 1
vn 0 0 1

vt 0.668588 0.018884
vt 0.928476 0.0188839
vt 0.928476 0.0964424
vt 0.668588 0.0964426
vt 0.409269 0.018884
vt 0.668588 0.018884
vt 0.668588 0.0964426
vt 0.409269 0.0964425
vt 0.409269 0.018884
vt 0.409269 0.0964425
vt 0.928476 0.0964424
vt 0.928476 0.0188839
vt 0.999426 0.319522
vt 1.35933 0.940605
vt 0.638364 0.940605
vt 0 0.145809
vt 1 0.145809
vt 0.497574 0.994191


#
# MESH 000
#
g surface_000
usemtl surface_000
f 16/16/16 17/17/17 18/18/18
f 13/13/13 14/14/14 15/15/15
f 9/9/9 11/11/11 12/12/12
f 9/9/9 10/10/10 11/11/11
f 5/5/5 7/7/7 8/8/8
f 5/5/5 6/6/6 7/7/7
f 1/1/1 3/3/3 4/4/4
f 1/1/1 2/2/2 3/3/3

