#
# OBJECT NAME
#
o model_2281
mtllib 2281.mtl

#
# VERTEX BUFFER 000
#
v 0.24846 0 -0.24846
v -0.0909427 0 -0.339403
v -0.0909427 1 -0.339403
v 0.24846 1 -0.24846
v -0.0909427 0 -0.339403
v -0.339403 0 -0.0909427
v -0.339403 1 -0.0909427
v -0.0909427 1 -0.339403
v -0.339403 0 -0.0909427
v -0.24846 0 0.24846
v -0.24846 1 0.24846
v -0.339403 1 -0.0909427
v -0.24846 0 0.24846
v 0.0909427 0 0.339403
v 0.0909427 1 0.339403
v -0.24846 1 0.24846
v 0.0909427 0 0.339403
v 0.339403 0 0.0909427
v 0.339403 1 0.0909427
v 0.0909427 1 0.339403
v 0.339403 0 0.0909427
v 0.24846 0 -0.24846
v 0.24846 1 -0.24846
v 0.339403 1 0.0909427
v -0.0909427 0 -0.339403
v 0.24846 0 -0.24846
v 0 0 0
v -0.339403 0 -0.0909427
v -0.0909427 0 -0.339403
v 0 0 0
v -0.24846 0 0.24846
v -0.339403 0 -0.0909427
v 0.0909427 0 0.339403
v -0.24846 0 0.24846
v 0.339403 0 0.0909427
v 0.0909427 0 0.339403
v 0.24846 1 -0.24846
v -0.0909427 1 -0.339403
v 0 1 0
v -0.0909427 1 -0.339403
v -0.339403 1 -0.0909427
v 0 1 0
v -0.339403 1 -0.0909427
v -0.24846 1 0.24846
v -0.24846 1 0.24846
v 0.0909427 1 0.339403
v 0.0909427 1 0.339403
v 0.339403 1 0.0909427
v 0 1 0

vn 0.707031 0 -0.707031
vn -0.258789 0 -0.96582
vn -0.258789 0 -0.96582
vn 0.707031 0 -0.707031
vn -0.258789 0 -0.96582
vn -0.96582 0 -0.258789
vn -0.96582 0 -0.258789
vn -0.258789 0 -0.96582
vn -0.96582 0 -0.258789
vn -0.707031 0 0.707031
vn -0.707031 0 0.707031
vn -0.96582 0 -0.258789
vn -0.707031 0 0.707031
vn 0.258789 0 0.96582
vn 0.258789 0 0.96582
vn -0.707031 0 0.707031
vn 0.258789 0 0.96582
vn 0.96582 0 0.258789
vn 0.96582 0 0.258789
vn 0.258789 0 0.96582
vn 0.96582 0 0.258789
vn 0.707031 0 -0.707031
vn 0.707031 0 -0.707031
vn 0.96582 0 0.258789
vn 0 -1 0
vn 0 -1 0
vn 0 -1 0
vn 0 -1 0
vn 0 -1 0
vn 0 -1 0
vn 0 -1 0
vn 0 -1 0
vn 0 -1 0
vn 0 -1 0
vn 0 -1 0
vn 0 -1 0
vn 0 1 1.19209e-007
vn 0 1 1.19209e-007
vn 0 1 0
vn 0 1 1.19209e-007
vn 0 1 0
vn 0 1 0
vn 0 1 0
vn 0 1 -1.19209e-007
vn 0 1 -1.19209e-007
vn 0 1 -1.19209e-007
vn 0 1 -1.19209e-007
vn 0 1 -1.19209e-007
vn 0 1 0

vt 0.185266 5.96046e-007
vt 0.27501 8.9407e-007
vt 0.27501 1
vt 0.185266 1
vt 0.0506514 -9.53674e-007
vt 0.23013 -9.53674e-007
vt 0.23013 1
vt 0.0506514 1
vt 0.00578165 -9.53674e-007
vt 0.0955212 -8.34465e-007
vt 0.0955212 1
vt 0.00578165 1
vt 0.185261 -8.34465e-007
vt 0.275 -7.15256e-007
vt 0.275 1
vt 0.185261 1
vt 0.0955213 -7.15256e-007
vt 0.185261 -5.96046e-007
vt 0.185261 1
vt 0.0955212 1
vt 0.00578165 -3.57628e-007
vt 0.0955205 0
vt 0.0955205 1
vt 0.00578165 1
vt 0.766141 0.959345
vt 0.91723 0.813738
vt 0.766141 0.5
vt 0.957714 0.729672
vt 0.876746 0.897804
vt 0.766141 0.5
vt 0.957714 0.270328
vt 0.98735 0.5
vt 0.766141 0.0406553
vt 0.876746 0.102196
vt 0.972532 0.385164
vt 0.821443 0.0714256
vt 0.91723 0.813738
vt 0.766141 0.959345
vt 0.766141 0.5
vt 0.876746 0.897804
vt 0.957714 0.729672
vt 0.766141 0.5
vt 0.98735 0.5
vt 0.957714 0.270328
vt 0.876746 0.102196
vt 0.766141 0.0406553
vt 0.821443 0.0714256
vt 0.972532 0.385164
vt 0.766141 0.5


#
# MESH 000
#
g surface_000
usemtl surface_000
f 45/45/45 46/46/46 42/42/42
f 43/43/43 44/44/44 42/42/42
f 40/40/40 41/41/41 42/42/42
f 37/37/37 38/38/38 39/39/39
f 33/33/33 34/34/34 30/30/30
f 31/31/31 32/32/32 30/30/30
f 28/28/28 29/29/29 30/30/30
f 48/48/48 37/37/37 49/49/49
f 47/47/47 48/48/48 49/49/49
f 35/35/35 36/36/36 27/27/27
f 26/26/26 35/35/35 27/27/27
f 25/25/25 26/26/26 27/27/27
f 21/21/21 23/23/23 24/24/24
f 21/21/21 22/22/22 23/23/23
f 17/17/17 19/19/19 20/20/20
f 17/17/17 18/18/18 19/19/19
f 13/13/13 15/15/15 16/16/16
f 13/13/13 14/14/14 15/15/15
f 9/9/9 11/11/11 12/12/12
f 9/9/9 10/10/10 11/11/11
f 5/5/5 7/7/7 8/8/8
f 5/5/5 6/6/6 7/7/7
f 1/1/1 3/3/3 4/4/4
f 1/1/1 2/2/2 3/3/3

