#
# OBJECT NAME
#
o model_1211
mtllib 1211.mtl

#
# VERTEX BUFFER 000
#
v -0.0421323 1.97363 -0.0828717
v -0.107638 1.96028 0.0130739
v -0.0411513 2.23944 -0.0150945
v -0.0767883 1.43403 -0.154031
v -0.0517964 1.71264 -0.121867
v 0.0843256 1.79164 -0.1142
v 0.109899 1.49137 -0.134104
v 0.133073 1.75207 0.0263402
v 0.164087 1.45179 0.0734191
v -0.37136 0 0.472509
v 0.198693 -0.000474705 0.575291
v -0.0351081 0 0.638856
v 0.0247126 2.01716 0.10193
v 0.0307798 1.66841 0.156174
v 0.10013 1.97634 0.0312505
v -0.146813 1.65674 0.0229154
v -0.0517964 1.71264 -0.121867
v -0.0767883 1.43403 -0.154031
v -0.177797 1.38675 -0.00793008
v 0.00422173 2.27512 0.00368892
v 0.0385231 2.2367 -0.0404951
v -0.0411513 2.23944 -0.0150945
v 0.00135738 1.40103 0.19692
v -0.022901 1.28567 -0.253264
v -0.0767883 1.43403 -0.154031
v 0.132703 1.34287 -0.206695
v 0.109899 1.49137 -0.134104
v 0.00422173 2.27512 0.00368892
v 0.0527274 2.2365 0.0307143
v 0.00135738 1.40103 0.19692
v -0.00452125 1.27839 0.266211
v 0.207094 1.3441 0.0980292
v 0.164087 1.45179 0.0734191
v -0.0421323 1.97363 -0.0828717
v 0.0876134 1.98293 -0.0620362
v -0.188085 1.25457 -0.17383
v -0.251745 1.22163 -0.0140307
v -0.177797 1.38675 -0.00793008
v 0.250419 0.916249 -0.196966
v 0.0674226 0.928708 -0.301785
v 0.265653 0.89336 0.227147
v 0.323031 0.898491 -0.0114341
v 0.15124 0.896929 0.297116
v -0.0173388 0.897301 0.337415
v -0.174209 0.951136 -0.247678
v -0.296558 0.962598 -0.0327751
v 0.250419 0.916249 -0.196966
v 0.323031 0.898491 -0.0114341
v 0.465914 0.494805 0.0149982
v 0.34514 0.489463 -0.274238
v 0.127892 0.815021 -0.345878
v 0.215578 0.511537 -0.410662
v 0.265653 0.89336 0.227147
v 0.402345 0.490364 0.231124
v -0.0666296 1.99707 0.0853383
v -0.0223444 2.2334 0.063061
v 0.536838 0.260773 -0.0687195
v 0.430244 0.261377 -0.347036
v 0.34514 0.489463 -0.274238
v 0.465914 0.494805 0.0149982
v 0.606575 0.000284197 -0.0891032
v 0.487179 0 -0.427953
v -0.0173388 0.897301 0.337415
v -0.0260094 0.468159 0.45275
v 0.202789 0.461941 0.403118
v 0.15124 0.896929 0.297116
v -0.104222 1.62084 0.135875
v -0.135396 1.38359 0.13449
v -0.177797 1.38675 -0.00793008
v -0.251745 1.22163 -0.0140307
v -0.205237 1.21937 0.171179
v -0.135396 1.38359 0.13449
v -0.296558 0.962598 -0.0327751
v -0.238483 0.94881 0.173817
v -0.27733 0.842161 0.232151
v -0.238483 0.94881 0.173817
v -0.296558 0.962598 -0.0327751
v -0.368416 0.736529 -0.00948168
v -0.37136 0 0.472509
v -0.637266 0 -0.0503544
v -0.46302 0 -0.411261
v -0.21621 0 -0.544044
v -0.373659 0.282559 0.380546
v -0.297047 0.494774 0.31799
v -0.43209 0.518033 -0.039079
v -0.507837 0.273947 -0.0582589
v -0.37136 0 0.472509
v -0.637266 0 -0.0503544
v -0.43209 0.518033 -0.039079
v -0.288258 0.74495 -0.217659
v -0.285004 0.543577 -0.346544
v -0.0395566 0.539375 -0.448011
v -0.0139885 0.213262 0.598372
v -0.0351081 0 0.638856
v -0.0260094 0.468159 0.45275
v -0.0985291 0.415475 -0.524222
v 0.215578 0.511537 -0.410662
v 0.19488 0.276291 -0.495216
v -0.16156 0.240401 -0.489148
v 0.402345 0.490364 0.231124
v 0.430617 0.244279 0.276131
v -0.46302 0 -0.411261
v -0.396224 0.254256 -0.316614
v 0.202789 0.461941 0.403118
v 0.259666 0.237723 0.474455
v -0.285004 0.543577 -0.346544
v 0.198693 -0.000474705 0.575291
v 0.00422173 2.27512 0.00368892
v 0.244979 0 -0.556986
v -0.21621 0 -0.544044
v 0.56901 0 0.229808
v -0.16156 0.240401 -0.489148
v -0.21621 0 -0.544044
v -0.174209 0.951136 -0.247678
v 0.0674226 0.928708 -0.301785
v -0.288258 0.74495 -0.217659
v -0.285004 0.543577 -0.346544
v -0.285004 0.543577 -0.346544
v -0.0395566 0.539375 -0.448011
v -0.277246 0.410278 -0.434133
v -0.277246 0.410278 -0.434133
v -0.0985291 0.415475 -0.524222
v 0.606575 0.000284197 -0.0891032
v -0.21621 0 -0.544044
v 0.244979 0 -0.556986
v 0.606575 0.000284197 -0.0891032
v 0.56901 0 0.229808
v 0.606575 0.000284197 -0.0891032
v 0.487179 0 -0.427953
v 0.00422173 2.27512 0.00368892
v 0.198693 -0.000474705 0.575291
v -0.297047 0.494774 0.31799
v -0.174209 0.951136 -0.247678
v -0.368416 0.736529 -0.00948168
v -0.296558 0.962598 -0.0327751

vn -0.288574 0.213989 -0.933105
vn -0.98877 0.142212 -0.0421753
vn -0.273926 0.4646 -0.841797
vn -0.499756 0.217163 -0.837891
vn -0.759766 0.312012 -0.569336
vn 0.682129 0.235107 -0.691895
vn 0.424072 0.300049 -0.854004
vn 0.686035 0.203735 0.697754
vn 0.554199 0.309082 0.772461
vn -0.44873 -0.585449 0.674805
vn 0.318359 -0.496094 0.807617
vn 0.380371 -0.664551 0.643066
vn 0.231079 0.231445 0.944824
vn -0.0282745 0.222412 0.974121
vn 0.906738 0.107056 0.406982
vn -0.939453 0.218994 0.262451
vn -0.759766 0.312012 -0.569336
vn -0.499756 0.217163 -0.837891
vn -0.969238 0.230835 -0.083252
vn -0.0289764 0.995117 -0.0911865
vn 0.808594 0.349365 -0.4729
vn -0.273926 0.4646 -0.841797
vn -0.194214 0.290527 0.936523
vn -0.228394 0.196533 -0.953125
vn -0.499756 0.217163 -0.837891
vn 0.799805 0.208862 -0.562012
vn 0.424072 0.300049 -0.854004
vn -0.0289764 0.995117 -0.0911865
vn 0.598633 0.798828 0.0532532
vn -0.194214 0.290527 0.936523
vn -0.234253 0.12915 0.963379
vn 0.970703 0.230957 -0.0635986
vn 0.554199 0.309082 0.772461
vn -0.288574 0.213989 -0.933105
vn 0.64209 0.100281 -0.759277
vn -0.734375 0.165405 -0.657715
vn -0.996582 -0.0806274 0.00265694
vn -0.969238 0.230835 -0.083252
vn 0.725098 0.193481 -0.660156
vn 0.0203705 0.139526 -0.989746
vn 0.841797 0.186646 0.505859
vn 0.977539 0.206909 -0.0299377
vn 0.44873 0.188965 0.873047
vn -0.325928 0.408936 0.852051
vn -0.230103 0.227661 -0.945801
vn -0.941406 0.315674 -0.117126
vn 0.725098 0.193481 -0.660156
vn 0.977539 0.206909 -0.0299377
vn 0.919434 0.336426 0.20166
vn 0.770508 -0.113831 -0.626953
vn 0.12915 0.221924 -0.966309
vn 0.406738 0.389893 -0.825684
vn 0.841797 0.186646 0.505859
vn 0.820313 0.280518 0.498047
vn -0.823242 0.260498 0.503906
vn -0.173462 0.281006 0.943359
vn 0.94043 0.217896 0.260498
vn 0.681641 0.279053 -0.67627
vn 0.770508 -0.113831 -0.626953
vn 0.919434 0.336426 0.20166
vn 0.959473 -0.140869 0.242554
vn 0.464844 -0.439697 -0.768066
vn -0.325928 0.408936 0.852051
vn 0.0847778 0.216431 0.972168
vn 0.579102 0.477539 0.660156
vn 0.44873 0.188965 0.873047
vn -0.658691 0.22644 0.717285
vn -0.614258 0.301025 0.729004
vn -0.969238 0.230835 -0.083252
vn -0.996582 -0.0806274 0.00265694
vn -0.563477 -0.11731 0.817383
vn -0.614258 0.301025 0.729004
vn -0.941406 0.315674 -0.117126
vn -0.508789 0.212036 0.833984
vn -0.518555 0.285889 0.805176
vn -0.508789 0.212036 0.833984
vn -0.941406 0.315674 -0.117126
vn -0.937988 0.335693 0.0810547
vn -0.736328 -0.332031 0.589355
vn -0.841309 -0.492676 -0.221436
vn -0.703613 -0.397949 -0.587891
vn -0.339844 -0.485352 -0.805176
vn -0.449219 0.285645 0.846191
vn -0.540527 0.26709 0.797363
vn -0.86377 0.373779 -0.337646
vn -0.910156 0.276855 -0.307129
vn -0.44873 -0.585449 0.674805
vn -0.841309 -0.492676 -0.221436
vn -0.86377 0.373779 -0.337646
vn -0.85498 0.212891 -0.472412
vn -0.62793 0.281738 -0.725098
vn -0.272705 0.407715 -0.871094
vn 0.282715 0.166504 0.944336
vn 0.380371 -0.664551 0.643066
vn 0.0847778 0.216431 0.972168
vn -0.439453 0.430908 -0.787598
vn 0.406738 0.389893 -0.825684
vn 0.40918 0.395264 -0.821777
vn -0.283936 -0.0847778 -0.95459
vn 0.820313 0.280518 0.498047
vn 0.759277 0.487305 0.430664
vn -0.703613 -0.397949 -0.587891
vn -0.686035 0.332764 -0.645996
vn 0.579102 0.477539 0.660156
vn 0.323242 0.0359192 0.945313
vn -0.62793 0.281738 -0.725098
vn -0.0217133 -0.948242 0.31543
vn -0.0289764 0.995117 -0.0911865
vn 0.430176 -0.393799 -0.812012
vn -0.379395 -0.700684 -0.604004
vn 0.863281 0.300537 0.404541
vn -0.283936 -0.0847778 -0.95459
vn -0.379395 -0.700684 -0.604004
vn -0.230103 0.227661 -0.945801
vn 0.0203705 0.139526 -0.989746
vn -0.85498 0.212891 -0.472412
vn -0.62793 0.281738 -0.725098
vn -0.62793 0.281738 -0.725098
vn -0.272705 0.407715 -0.871094
vn -0.466064 0.598145 -0.651367
vn -0.466064 0.598145 -0.651367
vn -0.439453 0.430908 -0.787598
vn 0.602539 -0.783203 -0.151367
vn -0.427979 -0.610352 -0.666016
vn 0.430176 -0.393799 -0.812012
vn 0.959473 -0.140869 0.242554
vn 0.000505924 -0.999512 -0.000831127
vn 0.706543 -0.678711 -0.198242
vn 0.671387 -0.563477 -0.480957
vn -0.0289764 0.995117 -0.0911865
vn -0.0217133 -0.948242 0.31543
vn -0.540527 0.26709 0.797363
vn -0.230103 0.227661 -0.945801
vn -0.937988 0.335693 0.0810547
vn -0.941406 0.315674 -0.117126

vt 0.182475 0.825748
vt 0.246966 0.820347
vt 0.216737 0.935676
vt 0.527217 0.639426
vt 0.516846 0.731292
vt 0.483809 0.751336
vt 0.480175 0.639487
vt 0.418575 0.738554
vt 0.404261 0.627906
vt 0.706314 0.691772
vt 0.82384 0.675794
vt 0.776961 0.657237
vt 0.350354 0.843525
vt 0.346223 0.722189
vt 0.412311 0.823964
vt 0.249818 0.723031
vt 0.184431 0.721749
vt 0.185598 0.639755
vt 0.239007 0.639545
vt 0.522419 0.965019
vt 0.482695 0.934551
vt 0.536835 0.936631
vt 0.334523 0.634722
vt 0.619489 0.536778
vt 0.640894 0.584551
vt 0.560446 0.542096
vt 0.54863 0.583976
vt 0.449094 0.966037
vt 0.408359 0.934468
vt 0.286757 0.579956
vt 0.306436 0.540715
vt 0.456203 0.550325
vt 0.460203 0.574206
vt 0.525874 0.827668
vt 0.466641 0.826235
vt 0.683397 0.536186
vt 0.738102 0.535029
vt 0.716637 0.584025
vt 0.532419 0.427703
vt 0.593805 0.421429
vt 0.389261 0.421049
vt 0.466467 0.431244
vt 0.350056 0.420352
vt 0.300732 0.408343
vt 0.650888 0.426868
vt 0.746936 0.428447
vt 0.628978 0.372863
vt 0.543826 0.375804
vt 0.532094 0.219249
vt 0.619947 0.208412
vt 0.691033 0.313253
vt 0.670327 0.21134
vt 0.442239 0.367333
vt 0.470297 0.217342
vt 0.28815 0.835847
vt 0.306595 0.933201
vt 0.673021 0.0911875
vt 0.750516 0.0944005
vt 0.749561 0.150308
vt 0.651697 0.160581
vt 0.676609 0.0333409
vt 0.755989 0.0333478
vt 0.326866 0.356775
vt 0.326924 0.222416
vt 0.396089 0.209104
vt 0.390794 0.366754
vt 0.294788 0.715095
vt 0.286915 0.639309
vt 0.149074 0.584025
vt 0.148882 0.53683
vt 0.223435 0.533665
vt 0.228565 0.583826
vt 0.143375 0.428447
vt 0.215346 0.429133
vt 0.229955 0.340356
vt 0.21783 0.37405
vt 0.128252 0.373481
vt 0.151601 0.295989
vt 0.706314 0.691772
vt 0.65045 0.791953
vt 0.68748 0.873507
vt 0.740181 0.899491
vt 0.322697 0.0985674
vt 0.328164 0.166569
vt 0.202483 0.160789
vt 0.195409 0.101966
vt 0.340111 0.0333389
vt 0.20881 0.0333331
vt 0.149371 0.219469
vt 0.0897138 0.289367
vt 0.0779684 0.214542
vt 0.743536 0.218057
vt 0.433752 0.0842015
vt 0.428359 0.0333398
vt 0.424481 0.163583
vt 0.85882 0.132627
vt 0.795889 0.153293
vt 0.810465 0.108608
vt 0.852931 0.104828
vt 0.583757 0.148838
vt 0.57735 0.0904728
vt 0.110313 0.0333423
vt 0.117746 0.0954021
vt 0.50189 0.143148
vt 0.508618 0.0897096
vt 0.0985896 0.154316
vt 0.48254 0.0333369
vt 0.27612 0.963523
vt 0.818318 0.0333471
vt 0.880695 0.0333416
vt 0.600746 0.033338
vt 0.0527626 0.0960143
vt 0.0530562 0.0333384
vt 0.763017 0.372169
vt 0.706461 0.367649
vt 0.854857 0.295053
vt 0.830845 0.218136
vt 0.904879 0.157165
vt 0.845352 0.157563
vt 0.899497 0.128824
vt 0.0764269 0.129624
vt 0.0398985 0.126519
vt 0.908013 0.806991
vt 0.740181 0.899491
vt 0.832382 0.903547
vt 0.908013 0.806991
vt 0.89617 0.741954
vt 0.908013 0.806991
vt 0.884779 0.876918
vt 0.400402 0.966037
vt 0.48254 0.0333369
vt 0.242752 0.225566
vt 0.763017 0.372159
vt 0.907427 0.30103
vt 0.895638 0.373481


#
# MESH 000
#
g surface_000
usemtl surface_000
f 128/128/128 125/125/125 129/129/129
f 126/126/126 127/127/127 11/11/11
f 133/133/133 134/134/134 135/135/135
f 133/133/133 116/116/116 134/134/134
f 29/29/29 130/130/130 56/56/56
f 56/56/56 13/13/13 29/29/29
f 29/29/29 13/13/13 15/15/15
f 29/29/29 15/15/15 35/35/35
f 29/29/29 35/35/35 21/21/21
f 21/21/21 28/28/28 29/29/29
f 55/55/55 13/13/13 56/56/56
f 67/67/67 13/13/13 55/55/55
f 67/67/67 14/14/14 13/13/13
f 13/13/13 14/14/14 8/8/8
f 13/13/13 8/8/8 15/15/15
f 15/15/15 8/8/8 6/6/6
f 15/15/15 6/6/6 35/35/35
f 34/34/34 35/35/35 6/6/6
f 34/34/34 21/21/21 35/35/35
f 3/3/3 55/55/55 56/56/56
f 3/3/3 2/2/2 55/55/55
f 2/2/2 67/67/67 55/55/55
f 2/2/2 16/16/16 67/67/67
f 67/67/67 16/16/16 19/19/19
f 67/67/67 19/19/19 68/68/68
f 67/67/67 68/68/68 23/23/23
f 67/67/67 23/23/23 14/14/14
f 23/23/23 8/8/8 14/14/14
f 3/3/3 56/56/56 108/108/108
f 23/23/23 9/9/9 8/8/8
f 7/7/7 8/8/8 9/9/9
f 7/7/7 6/6/6 8/8/8
f 4/4/4 6/6/6 7/7/7
f 4/4/4 5/5/5 6/6/6
f 5/5/5 34/34/34 6/6/6
f 16/16/16 18/18/18 19/19/19
f 16/16/16 17/17/17 18/18/18
f 17/17/17 16/16/16 2/2/2
f 17/17/17 2/2/2 1/1/1
f 1/1/1 2/2/2 3/3/3
f 22/22/22 21/21/21 34/34/34
f 20/20/20 21/21/21 22/22/22
f 123/123/123 11/11/11 124/124/124
f 123/123/123 124/124/124 125/125/125
f 82/82/82 11/11/11 10/10/10
f 10/10/10 11/11/11 12/12/12
f 121/121/121 122/122/122 112/112/112
f 121/121/121 112/112/112 103/103/103
f 121/121/121 103/103/103 106/106/106
f 86/86/86 106/106/106 103/103/103
f 86/86/86 85/85/85 106/106/106
f 83/83/83 85/85/85 86/86/86
f 83/83/83 84/84/84 85/85/85
f 95/95/95 84/84/84 83/83/83
f 102/102/102 103/103/103 112/112/112
f 102/102/102 86/86/86 103/103/103
f 102/102/102 88/88/88 86/86/86
f 87/87/87 86/86/86 88/88/88
f 87/87/87 83/83/83 86/86/86
f 93/93/93 83/83/83 87/87/87
f 95/95/95 83/83/83 93/93/93
f 104/104/104 95/95/95 93/93/93
f 102/102/102 112/112/112 113/113/113
f 93/93/93 87/87/87 94/94/94
f 107/107/107 93/93/93 94/94/94
f 107/107/107 105/105/105 93/93/93
f 104/104/104 93/93/93 105/105/105
f 104/104/104 105/105/105 101/101/101
f 104/104/104 101/101/101 100/100/100
f 100/100/100 101/101/101 57/57/57
f 100/100/100 57/57/57 60/60/60
f 57/57/57 59/59/59 60/60/60
f 57/57/57 58/58/58 59/59/59
f 97/97/97 59/59/59 58/58/58
f 131/131/131 101/101/101 105/105/105
f 131/131/131 111/111/111 101/101/101
f 61/61/61 101/101/101 111/111/111
f 61/61/61 57/57/57 101/101/101
f 58/58/58 57/57/57 61/61/61
f 58/58/58 61/61/61 62/62/62
f 58/58/58 62/62/62 109/109/109
f 58/58/58 109/109/109 98/98/98
f 97/97/97 58/58/58 98/98/98
f 96/96/96 97/97/97 98/98/98
f 96/96/96 119/119/119 97/97/97
f 118/118/118 119/119/119 96/96/96
f 118/118/118 96/96/96 120/120/120
f 99/99/99 98/98/98 109/109/109
f 96/96/96 98/98/98 99/99/99
f 99/99/99 109/109/109 110/110/110
f 89/89/89 90/90/90 91/91/91
f 89/89/89 78/78/78 90/90/90
f 75/75/75 78/78/78 89/89/89
f 75/75/75 77/77/77 78/78/78
f 75/75/75 76/76/76 77/77/77
f 63/63/63 76/76/76 75/75/75
f 75/75/75 89/89/89 132/132/132
f 63/63/63 75/75/75 132/132/132
f 63/63/63 132/132/132 64/64/64
f 63/63/63 64/64/64 65/65/65
f 63/63/63 65/65/65 66/66/66
f 66/66/66 65/65/65 54/54/54
f 66/66/66 54/54/54 53/53/53
f 53/53/53 54/54/54 49/49/49
f 53/53/53 49/49/49 48/48/48
f 47/47/47 48/48/48 49/49/49
f 47/47/47 49/49/49 50/50/50
f 51/51/51 47/47/47 50/50/50
f 51/51/51 115/115/115 47/47/47
f 114/114/114 115/115/115 51/51/51
f 114/114/114 51/51/51 116/116/116
f 51/51/51 117/117/117 116/116/116
f 51/51/51 92/92/92 117/117/117
f 52/52/52 92/92/92 51/51/51
f 51/51/51 50/50/50 52/52/52
f 79/79/79 81/81/81 82/82/82
f 79/79/79 80/80/80 81/81/81
f 37/37/37 45/45/45 46/46/46
f 37/37/37 36/36/36 45/45/45
f 36/36/36 40/40/40 45/45/45
f 36/36/36 24/24/24 40/40/40
f 24/24/24 39/39/39 40/40/40
f 24/24/24 26/26/26 39/39/39
f 26/26/26 42/42/42 39/39/39
f 36/36/36 37/37/37 38/38/38
f 36/36/36 38/38/38 25/25/25
f 25/25/25 24/24/24 36/36/36
f 24/24/24 25/25/25 26/26/26
f 26/26/26 25/25/25 27/27/27
f 33/33/33 26/26/26 27/27/27
f 33/33/33 32/32/32 26/26/26
f 26/26/26 32/32/32 42/42/42
f 32/32/32 41/41/41 42/42/42
f 41/41/41 32/32/32 31/31/31
f 41/41/41 31/31/31 43/43/43
f 43/43/43 31/31/31 44/44/44
f 71/71/71 44/44/44 31/31/31
f 71/71/71 74/74/74 44/44/44
f 30/30/30 32/32/32 33/33/33
f 30/30/30 31/31/31 32/32/32
f 71/71/71 31/31/31 30/30/30
f 71/71/71 30/30/30 72/72/72
f 69/69/69 71/71/71 72/72/72
f 69/69/69 70/70/70 71/71/71
f 71/71/71 70/70/70 73/73/73
f 71/71/71 73/73/73 74/74/74

