#
# OBJECT NAME
#
o model_1497
mtllib 1497.mtl

#
# VERTEX BUFFER 000
#
v 0 0.500255 0
v 0.479305 0.000255526 -0.479305
v -0.479305 0.000255526 -0.479305
v -0.479305 0.000255526 0.479305
v 0 0.500255 0
v -0.479305 0.000255526 -0.479305
v 0.479305 0.000255526 0.479305
v 0 0.500255 0
v -0.479305 0.000255526 0.479305
v 0.479305 0.000255526 -0.479305
v 0 0.500255 0
v 0.479305 0.000255526 0.479305
v 0.479305 0.000255526 -0.479305
v 0.479305 0.000255526 0.479305
v -0.479305 0.000255526 0.479305
v -0.479305 0.000255526 -0.479305

vn 0 0.691895 -0.72168
vn 0 0.691895 -0.72168
vn 0 0.691895 -0.72168
vn -0.72168 0.691895 0
vn -0.72168 0.691895 0
vn -0.72168 0.691895 0
vn 0 0.691895 0.72168
vn 0 0.691895 0.72168
vn 0 0.691895 0.72168
vn 0.72168 0.691895 0
vn 0.72168 0.691895 0
vn 0.72168 0.691895 0
vn 0 -1 0
vn 0 -1 0
vn 0 -1 0
vn 0 -1 0

vt 0.322385 0.947046
vt 0.629957 0.631073
vt 0.0148123 0.631073
vt 0.673238 0.626235
vt 0.990543 0.318662
vt 0.673238 0.0110892
vt 0.629957 0.631073
vt 0.322385 0.947046
vt 0.0148123 0.631073
vt 0.673238 0.0110892
vt 0.990543 0.318662
vt 0.673238 0.626235
vt 0.589208 0.588502
vt 0.589208 0.0226691
vt 0.0233752 0.022669
vt 0.0233753 0.588502


#
# MESH 000
#
g surface_000
usemtl surface_000
f 10/10/10 11/11/11 12/12/12
f 7/7/7 8/8/8 9/9/9
f 4/4/4 5/5/5 6/6/6
f 1/1/1 2/2/2 3/3/3
f 13/13/13 15/15/15 16/16/16
f 13/13/13 14/14/14 15/15/15

