#
# OBJECT NAME
#
o model_1957
mtllib 1957.mtl

#
# VERTEX BUFFER 000
#
v -0.480006 -0.001292 0.600401
v -0.357125 -0.001292 0.600401
v -0.357125 0.998708 0.600401
v -0.480006 0.998708 0.600401
v -0.5 -0.001292 0.5
v -0.480006 -0.001292 0.600401
v -0.480006 0.998708 0.600401
v -0.5 0.998708 0.5
v -0.5 -0.001292 0.5
v -0.357125 -0.001292 0.5
v -0.357125 -0.001292 0.600401
v -0.480006 -0.001292 0.600401
v -0.357125 -0.001292 0.600401
v -0.357125 -0.001292 0.5
v -0.357125 0.94788 0.5
v -0.357125 0.94788 0.52597
v -0.357125 0.998708 0.52597
v -0.357125 0.998708 0.600401
v -0.070839 -0.001292 0.571413
v 0.072036 -0.001292 0.571413
v 0.072036 0.998708 0.571413
v -0.070839 0.998708 0.571413
v -0.070839 -0.001292 0.5
v -0.070839 -0.001292 0.52597
v -0.070839 -0.001292 0.571413
v -0.070839 0.998708 0.571413
v -0.070839 0.998708 0.52597
v -0.070839 0.94788 0.52597
v -0.070839 0.94788 0.5
v -0.070839 -0.001292 0.52597
v 0.072036 -0.001292 0.52597
v 0.072036 -0.001292 0.571413
v -0.070839 -0.001292 0.571413
v 0.072036 -0.001292 0.571413
v 0.072036 -0.001292 0.52597
v 0.072036 -0.001292 0.5
v 0.072036 0.94788 0.5
v 0.072036 0.94788 0.52597
v 0.072036 0.998708 0.52597
v 0.072036 0.998708 0.571413
v 0.35471 -0.001292 0.600401
v 0.480012 -0.001292 0.600401
v 0.480012 0.998708 0.600401
v 0.35471 0.998708 0.600401
v 0.35471 -0.001292 0.5
v 0.35471 -0.001292 0.600401
v 0.35471 0.998708 0.600401
v 0.35471 0.998708 0.52597
v 0.35471 0.94788 0.52597
v 0.35471 0.94788 0.5
v 0.35471 -0.001292 0.5
v 0.5 -0.001292 0.5
v 0.480012 -0.001292 0.600401
v 0.35471 -0.001292 0.600401
v 0.480012 -0.001292 0.600401
v 0.5 -0.001292 0.5
v 0.5 0.998708 0.5
v 0.480012 0.998708 0.600401
v -0.357125 0.94788 0.52597
v -0.070839 0.94788 0.52597
v -0.070839 0.998708 0.52597
v -0.357125 0.998708 0.52597
v 0.072036 0.94788 0.52597
v 0.35471 0.94788 0.52597
v 0.35471 0.998708 0.52597
v 0.072036 0.998708 0.52597
v -0.5 0.998708 0.5
v -0.480006 0.998708 0.600401
v -0.357125 0.998708 0.600401
v -0.5 0.998708 0.5
v -0.357125 0.998708 0.600401
v -0.446188 0.998708 0.5
v -0.446188 0.998708 0.5
v -0.357125 0.998708 0.52597
v -0.446188 0.998708 0.5
v -0.357125 0.998708 0.52597
v 0.44611 0.998708 0.5
v 0.44611 0.998708 0.5
v -0.070839 0.998708 0.52597
v 0.35471 0.998708 0.52597
v 0.35471 0.998708 0.600401
v 0.5 0.998708 0.5
v 0.072036 0.998708 0.571413
v 0.072036 0.998708 0.52597
v -0.070839 0.998708 0.571413
v 0.480012 0.998708 0.600401
v 0.072036 0.998708 0.52597
v 0.35471 0.998708 0.52597
v 0.44611 0.998708 0.5
v 0.072036 0.998708 0.52597
v 0.44611 0.998708 0.5
v -0.070839 0.998708 0.52597
v -0.358528 0.427561 0.52597
v 0.358526 0.427561 0.52597
v -0.358528 0.515781 0.52597
v 0.358526 0.515781 0.52597
v -0.358528 0.515781 0.52597
v 0.358526 0.515781 0.52597
v -0.358528 0.515781 0.5
v 0.358526 0.515781 0.5
v -0.358528 0.427561 0.5
v 0.358526 0.427561 0.5
v -0.358528 0.427561 0.52597
v 0.358526 0.427561 0.52597
v -0.358528 -0.00129217 0.52597
v 0.358526 -0.00129217 0.52597
v -0.358528 0.0460052 0.52597
v 0.358526 0.0460052 0.52597
v -0.358528 0.0460052 0.52597
v 0.358526 0.0460052 0.52597
v -0.358528 0.0460052 0.5
v 0.358526 0.0460052 0.5
v -0.358528 -0.00129217 0.5
v 0.358526 -0.00129217 0.5
v -0.358528 -0.00129217 0.52597
v 0.358526 -0.00129217 0.52597
v 0.35471 0.94788 0.52597
v 0.072036 0.94788 0.52597
v 0.072036 0.94788 0.5
v 0.35471 0.94788 0.5
v -0.070839 0.94788 0.52597
v -0.357125 0.94788 0.52597
v -0.357125 0.94788 0.5
v -0.070839 0.94788 0.5
v -0.480006 -0.001292 -0.600401
v -0.480006 0.998708 -0.600401
v -0.357125 0.998708 -0.600401
v -0.357125 -0.001292 -0.600401
v -0.5 -0.001292 -0.5
v -0.5 0.998708 -0.5
v -0.480006 0.998708 -0.600401
v -0.480006 -0.001292 -0.600401
v -0.5 -0.001292 -0.5
v -0.480006 -0.001292 -0.600401
v -0.357125 -0.001292 -0.600401
v -0.357125 -0.001292 -0.5
v -0.357125 -0.001292 -0.600401
v -0.357125 0.998708 -0.600401
v -0.357125 0.998708 -0.52597
v -0.357125 0.94788 -0.52597
v -0.357125 0.94788 -0.5
v -0.357125 -0.001292 -0.5
v -0.070839 -0.001292 -0.571413
v -0.070839 0.998708 -0.571413
v 0.072036 0.998708 -0.571413
v 0.072036 -0.001292 -0.571413
v -0.070839 -0.001292 -0.5
v -0.070839 0.94788 -0.5
v -0.070839 0.94788 -0.52597
v -0.070839 0.998708 -0.52597
v -0.070839 0.998708 -0.571413
v -0.070839 -0.001292 -0.571413
v -0.070839 -0.001292 -0.52597
v -0.070839 -0.001292 -0.52597
v -0.070839 -0.001292 -0.571413
v 0.072036 -0.001292 -0.571413
v 0.072036 -0.001292 -0.52597
v 0.072036 -0.001292 -0.571413
v 0.072036 0.998708 -0.571413
v 0.072036 0.998708 -0.52597
v 0.072036 0.94788 -0.52597
v 0.072036 0.94788 -0.5
v 0.072036 -0.001292 -0.5
v 0.072036 -0.001292 -0.52597
v 0.35471 -0.001292 -0.600401
v 0.35471 0.998708 -0.600401
v 0.480012 0.998708 -0.600401
v 0.480012 -0.001292 -0.600401
v 0.35471 -0.001292 -0.5
v 0.35471 0.94788 -0.5
v 0.35471 0.94788 -0.52597
v 0.35471 0.998708 -0.52597
v 0.35471 0.998708 -0.600401
v 0.35471 -0.001292 -0.600401
v 0.35471 -0.001292 -0.5
v 0.35471 -0.001292 -0.600401
v 0.480012 -0.001292 -0.600401
v 0.5 -0.001292 -0.5
v 0.480012 -0.001292 -0.600401
v 0.480012 0.998708 -0.600401
v 0.5 0.998708 -0.5
v 0.5 -0.001292 -0.5
v -0.357125 0.94788 -0.52597
v -0.357125 0.998708 -0.52597
v -0.070839 0.998708 -0.52597
v -0.070839 0.94788 -0.52597
v 0.072036 0.94788 -0.52597
v 0.072036 0.998708 -0.52597
v 0.35471 0.998708 -0.52597
v 0.35471 0.94788 -0.52597
v -0.5 0.998708 -0.5
v -0.357125 0.998708 -0.600401
v -0.480006 0.998708 -0.600401
v -0.5 0.998708 -0.5
v -0.446188 0.998708 -0.5
v -0.357125 0.998708 -0.600401
v -0.357125 0.998708 -0.52597
v -0.446188 0.998708 -0.5
v 0.44611 0.998708 -0.5
v -0.357125 0.998708 -0.52597
v 0.44611 0.998708 -0.5
v -0.070839 0.998708 -0.52597
v 0.35471 0.998708 -0.52597
v 0.5 0.998708 -0.5
v 0.35471 0.998708 -0.600401
v 0.072036 0.998708 -0.571413
v -0.070839 0.998708 -0.571413
v 0.072036 0.998708 -0.52597
v 0.480012 0.998708 -0.600401
v 0.072036 0.998708 -0.52597
v 0.44611 0.998708 -0.5
v 0.35471 0.998708 -0.52597
v 0.072036 0.998708 -0.52597
v -0.070839 0.998708 -0.52597
v 0.44611 0.998708 -0.5
v -0.358528 0.427561 -0.52597
v -0.358528 0.515781 -0.52597
v 0.358526 0.427561 -0.52597
v 0.358526 0.515781 -0.52597
v -0.358528 0.515781 -0.52597
v -0.358528 0.515781 -0.5
v 0.358526 0.515781 -0.52597
v 0.358526 0.515781 -0.5
v -0.358528 0.427561 -0.5
v -0.358528 0.427561 -0.52597
v 0.358526 0.427561 -0.5
v 0.358526 0.427561 -0.52597
v -0.358528 -0.00129217 -0.52597
v -0.358528 0.0460052 -0.52597
v 0.358526 -0.00129217 -0.52597
v 0.358526 0.0460052 -0.52597
v -0.358528 0.0460052 -0.52597
v -0.358528 0.0460052 -0.5
v 0.358526 0.0460052 -0.52597
v 0.358526 0.0460052 -0.5
v -0.358528 -0.00129217 -0.5
v -0.358528 -0.00129217 -0.52597
v 0.358526 -0.00129217 -0.5
v 0.358526 -0.00129217 -0.52597
v 0.35471 0.94788 -0.52597
v 0.35471 0.94788 -0.5
v 0.072036 0.94788 -0.5
v 0.072036 0.94788 -0.52597
v -0.070839 0.94788 -0.52597
v -0.070839 0.94788 -0.5
v -0.357125 0.94788 -0.5
v -0.357125 0.94788 -0.52597
v -0.412136 0.0342181 0.50776
v 0 0.0342181 0.50776
v -0.412136 0.962333 0.50776
v 0.412136 0.962333 0.50776
v 0.412136 0.0342181 0.50776
v -0.412136 0.0342181 -0.50776
v -0.412136 0.988489 -0.50776
v 0 0.0342181 -0.50776
v 0.412136 0.988489 -0.50776
v 0.412136 0.0342181 -0.50776
v 0.5 0.998708 0.5
v -0.5 0.998708 0.5
v -0.5 0.646778 0.5
v 0.5 0.646778 0.5
v 0.5 0.998708 0.5
v 0.5 0.998708 -0.5
v -0.5 0.998708 0.5
v -0.5 0.998708 -0.5
v -0.5 0.646778 -0.5
v -0.5 0.646778 0.5
v -0.5 0.998708 -0.5
v -0.5 0.998708 0.5
v 0.5 0.998708 0.5
v 0.5 0.646778 0.5
v 0.5 0.998708 -0.5
v 0.5 0.646778 -0.5
v -0.5 0.998708 -0.5
v 0.5 0.998708 -0.5
v 0.5 0.646778 -0.5
v -0.5 0.646778 -0.5
v -0.5 0.646778 0.5
v -0.5 0.646778 -0.5
v -0.5 -0.001292 -0.5
v -0.5 -0.00129212 0.5
v 0.5 0.646778 -0.5
v 0.5 0.646778 0.5
v 0.5 -0.001292 0.5
v 0.5 -0.001292 -0.5
v 0.5 -0.001292 -0.5
v 0.5 -0.001292 0.5
v -0.5 -0.00129212 0.5
v -0.5 -0.001292 -0.5
v 0.5 0.646778 0.5
v -0.5 0.646778 0.5
v -0.5 -0.00129212 0.5
v 0.5 -0.001292 0.5
v -0.5 0.646778 -0.5
v 0.5 0.646778 -0.5
v 0.5 -0.001292 -0.5
v -0.5 -0.001292 -0.5

vn 0 0 1
vn 0 0 1
vn 0 0 1
vn 0 0 1
vn -0.980469 0 0.19519
vn -0.980469 0 0.19519
vn -0.980469 0 0.19519
vn -0.980469 0 0.19519
vn 0 -1 0
vn 0 -1 0
vn 0 -1 0
vn 0 -1 0
vn 1 0 0
vn 1 0 0
vn 1 0 0
vn 1 0 0
vn 1 0 0
vn 1 0 0
vn 0 0 1
vn 0 0 1
vn 0 0 1
vn 0 0 1
vn -1 0 0
vn -1 0 0
vn -1 0 0
vn -1 0 0
vn -1 0 0
vn -1 0 0
vn -1 0 0
vn 0 -1 0
vn 0 -1 0
vn 0 -1 0
vn 0 -1 0
vn 1 0 0
vn 1 0 0
vn 1 0 0
vn 1 0 0
vn 1 0 0
vn 1 0 0
vn 1 0 0
vn 0 0 1
vn 0 0 1
vn 0 0 1
vn 0 0 1
vn -1 0 0
vn -1 0 0
vn -1 0 0
vn -1 0 0
vn -1 0 0
vn -1 0 0
vn 0 -1 0
vn 0 -1 0
vn 0 -1 0
vn 0 -1 0
vn 0.980469 0 0.19519
vn 0.980469 0 0.19519
vn 0.980469 0 0.19519
vn 0.980469 0 0.19519
vn 0 0 1
vn 0 0 1
vn 0 0 1
vn 0 0 1
vn 0 0 1
vn 0 0 1
vn 0 0 1
vn 0 0 1
vn 0 1 0
vn 0 1 0
vn 0 1 0
vn 0 1 1.37091e-006
vn 0 1 1.37091e-006
vn 0 1 1.37091e-006
vn 0 1 0
vn 0 1 0
vn 0 1 5.126e-006
vn 0 1 5.126e-006
vn 0 1 5.126e-006
vn 0 1 0
vn 0 1 0
vn 0 1 0
vn 0 1 0
vn 0 1 0
vn 0 1 0
vn 0 1 0
vn 0 1 0
vn 0 1 0
vn 0 1 -8.10623e-006
vn 0 1 -8.10623e-006
vn 0 1 -8.10623e-006
vn 0 1 2.40803e-005
vn 0 1 2.40803e-005
vn 0 1 2.40803e-005
vn 0 0 1
vn 0 0 1
vn 0 0 1
vn 0 0 1
vn 0 1 0
vn 0 1 0
vn 0 1 0
vn 0 1 0
vn 0 -1 0
vn 0 -1 0
vn 0 -1 0
vn 0 -1 0
vn 0 0 1
vn 0 0 1
vn 0 0 1
vn 0 0 1
vn 0 1 0
vn 0 1 0
vn 0 1 0
vn 0 1 0
vn 0 -1 0
vn 0 -1 0
vn 0 -1 0
vn 0 -1 0
vn 0 -1 0
vn 0 -1 0
vn 0 -1 0
vn 0 -1 0
vn 0 -1 0
vn 0 -1 0
vn 0 -1 0
vn 0 -1 0
vn 0 0 -1
vn 0 0 -1
vn 0 0 -1
vn 0 0 -1
vn -0.980469 0 -0.19519
vn -0.980469 0 -0.19519
vn -0.980469 0 -0.19519
vn -0.980469 0 -0.19519
vn 0 -1 0
vn 0 -1 0
vn 0 -1 0
vn 0 -1 0
vn 1 0 0
vn 1 0 0
vn 1 0 0
vn 1 0 0
vn 1 0 0
vn 1 0 0
vn 0 0 -1
vn 0 0 -1
vn 0 0 -1
vn 0 0 -1
vn -1 0 0
vn -1 0 0
vn -1 0 0
vn -1 0 0
vn -1 0 0
vn -1 0 0
vn -1 0 0
vn 0 -1 0
vn 0 -1 0
vn 0 -1 0
vn 0 -1 0
vn 1 0 0
vn 1 0 0
vn 1 0 0
vn 1 0 0
vn 1 0 0
vn 1 0 0
vn 1 0 0
vn 0 0 -1
vn 0 0 -1
vn 0 0 -1
vn 0 0 -1
vn -1 0 0
vn -1 0 0
vn -1 0 0
vn -1 0 0
vn -1 0 0
vn -1 0 0
vn 0 -1 0
vn 0 -1 0
vn 0 -1 0
vn 0 -1 0
vn 0.980469 0 -0.19519
vn 0.980469 0 -0.19519
vn 0.980469 0 -0.19519
vn 0.980469 0 -0.19519
vn 0 0 -1
vn 0 0 -1
vn 0 0 -1
vn 0 0 -1
vn 0 0 -1
vn 0 0 -1
vn 0 0 -1
vn 0 0 -1
vn 0 1 8.9407e-007
vn 0 1 8.9407e-007
vn 0 1 8.9407e-007
vn 0 1 0
vn 0 1 0
vn 0 1 0
vn 0 1 0
vn 0 1 -5.126e-006
vn 0 1 -5.126e-006
vn 0 1 -5.126e-006
vn 0 1 0
vn 0 1 0
vn 0 1 0
vn 0 1 0
vn 0 1 0
vn 0 1 0
vn 0 1 0
vn 0 1 0
vn 0 1 0
vn 0 1 8.10623e-006
vn 0 1 8.10623e-006
vn 0 1 8.10623e-006
vn 0 1 -1.60336e-005
vn 0 1 -1.60336e-005
vn 0 1 -1.60336e-005
vn 0 0 -1
vn 0 0 -1
vn 0 0 -1
vn 0 0 -1
vn 0 1 0
vn 0 1 0
vn 0 1 0
vn 0 1 0
vn 0 -1 0
vn 0 -1 0
vn 0 -1 0
vn 0 -1 0
vn 0 0 -1
vn 0 0 -1
vn 0 0 -1
vn 0 0 -1
vn 0 1 0
vn 0 1 0
vn 0 1 0
vn 0 1 0
vn 0 -1 0
vn 0 -1 0
vn 0 -1 0
vn 0 -1 0
vn 0 -1 0
vn 0 -1 0
vn 0 -1 0
vn 0 -1 0
vn 0 -1 0
vn 0 -1 0
vn 0 -1 0
vn 0 -1 0
vn 0 0 1
vn 0 0 1
vn 0 0 1
vn 0 0 1
vn 0 0 1
vn 0 0 -1
vn 0 0 -1
vn 0 0 -1
vn 0 0 -1
vn 0 0 -1
vn 0 0 1
vn 0 0 1
vn 0 0 1
vn 0 0 1
vn 0 1 0
vn 0 1 0
vn 0 1 0
vn 0 1 0
vn -1 0 0
vn -1 0 0
vn -1 0 0
vn -1 0 0
vn 1 0 0
vn 1 0 0
vn 1 0 0
vn 1 0 0
vn 0 0 -1
vn 0 0 -1
vn 0 0 -1
vn 0 0 -1
vn -1 0 0
vn -1 0 0
vn -1 0 0
vn -1 0 0
vn 1 0 0
vn 1 0 0
vn 1 0 0
vn 1 0 0
vn 0 -1 0
vn 0 -1 0
vn 0 -1 0
vn 0 -1 0
vn 0 0 1
vn 0 0 1
vn 0 0 1
vn 0 0 1
vn 0 0 -1
vn 0 0 -1
vn 0 0 -1
vn 0 0 -1

vt 0.844415 0.600653
vt 0.793024 0.600643
vt 0.793024 0.999859
vt 0.844415 0.999859
vt 0.918277 0.60068
vt 0.844415 0.600653
vt 0.844415 0.999859
vt 0.918309 0.999859
vt 0.521912 0.372398
vt 0.521947 0.335083
vt 0.550468 0.335083
vt 0.550398 0.372582
vt 0.793003 0.600604
vt 0.704916 0.600604
vt 0.704916 0.979562
vt 0.766541 0.979562
vt 0.766541 0.999859
vt 0.793003 0.999859
vt 0.789686 0.170098
vt 0.849557 0.170098
vt 0.849557 0.518237
vt 0.789686 0.518106
vt 0.762234 0.170098
vt 0.77205 0.170098
vt 0.789686 0.170098
vt 0.789686 0.518106
vt 0.77205 0.518106
vt 0.77205 0.498892
vt 0.762234 0.498892
vt 0.645967 0.376453
vt 0.645967 0.335798
vt 0.658523 0.335798
vt 0.658523 0.376453
vt 0.849557 0.170098
vt 0.861769 0.170098
vt 0.87164 0.170098
vt 0.87164 0.498918
vt 0.861769 0.498918
vt 0.861769 0.518237
vt 0.849557 0.518237
vt 0.793504 0.809978
vt 0.850233 0.809978
vt 0.850233 0.40738
vt 0.793504 0.40736
vt 0.750084 0.809978
vt 0.793504 0.809978
vt 0.793504 0.40736
vt 0.76054 0.40736
vt 0.76054 0.427824
vt 0.750084 0.427824
vt 0.691407 0.374851
vt 0.691355 0.33301
vt 0.71992 0.33281
vt 0.71992 0.374851
vt 0.850233 0.809978
vt 0.893834 0.809978
vt 0.893863 0.407414
vt 0.850233 0.40738
vt 0.858382 0.296672
vt 0.858382 0.597261
vt 0.805015 0.597261
vt 0.805015 0.296672
vt 0.79599 0.448138
vt 0.792993 0.222576
vt 0.833551 0.222576
vt 0.836549 0.448138
vt 0.760911 0.278441
vt 0.760911 0.311793
vt 0.723021 0.311793
vt 0.760911 0.278441
vt 0.723021 0.311793
vt 0.750309 0.278441
vt 0.750309 0.278441
vt 0.723021 0.287479
vt 0.750309 0.278441
vt 0.723021 0.287479
vt 0.490276 0.278441
vt 0.490276 0.278441
vt 0.64159 0.287479
vt 0.519427 0.287479
vt 0.519427 0.311793
vt 0.477549 0.278441
vt 0.600705 0.301832
vt 0.600919 0.287479
vt 0.641386 0.301832
vt 0.477549 0.311793
vt 0.600919 0.287479
vt 0.519427 0.287479
vt 0.490276 0.278441
vt 0.600919 0.287479
vt 0.490276 0.278441
vt 0.64159 0.287479
vt 0.847312 0.205069
vt 0.847312 0.636299
vt 0.794257 0.205069
vt 0.794257 0.636299
vt 0.794257 0.205069
vt 0.794257 0.636299
vt 0.695556 0.205069
vt 0.695556 0.636299
vt 0.946014 0.205069
vt 0.946014 0.636299
vt 0.847312 0.205069
vt 0.847312 0.636299
vt 0.83801 0.227886
vt 0.83801 0.613483
vt 0.79057 0.227886
vt 0.79057 0.613483
vt 0.79057 0.227886
vt 0.79057 0.613483
vt 0.702313 0.227886
vt 0.702313 0.613483
vt 0.852169 0.22789
vt 0.852542 0.613445
vt 0.83801 0.227886
vt 0.83801 0.613483
vt 0.584835 0.238765
vt 0.676833 0.238765
vt 0.676833 0.247218
vt 0.584835 0.247218
vt 0.481164 0.241739
vt 0.576464 0.241739
vt 0.576464 0.250384
vt 0.481164 0.250384
vt 0.847467 0.971416
vt 0.847467 0.572209
vt 0.794737 0.572209
vt 0.794737 0.971426
vt 0.889546 0.971389
vt 0.889578 0.572209
vt 0.847467 0.572209
vt 0.847467 0.971416
vt 0.521912 0.372398
vt 0.550398 0.372582
vt 0.550468 0.335083
vt 0.521947 0.335083
vt 0.794737 0.572209
vt 0.794737 0.971426
vt 0.76507 0.971426
vt 0.76507 0.951167
vt 0.754719 0.951167
vt 0.754719 0.572209
vt 0.795069 0.541914
vt 0.795069 0.922135
vt 0.850336 0.922266
vt 0.850336 0.541914
vt 0.768074 0.541914
vt 0.768074 0.902921
vt 0.777891 0.902921
vt 0.777891 0.922135
vt 0.795069 0.922135
vt 0.795069 0.541914
vt 0.777891 0.541914
vt 0.645967 0.376453
vt 0.658523 0.376453
vt 0.658523 0.335798
vt 0.645967 0.33594
vt 0.850336 0.541914
vt 0.850336 0.922266
vt 0.867609 0.922266
vt 0.867609 0.902947
vt 0.87748 0.902947
vt 0.87748 0.541914
vt 0.867609 0.541914
vt 0.792746 0.35457
vt 0.792746 0.757188
vt 0.852472 0.757167
vt 0.852472 0.35457
vt 0.752322 0.35457
vt 0.752322 0.736723
vt 0.762778 0.736723
vt 0.762778 0.757188
vt 0.792746 0.757188
vt 0.792746 0.35457
vt 0.691407 0.374851
vt 0.71992 0.374851
vt 0.71992 0.33281
vt 0.691355 0.33281
vt 0.852472 0.35457
vt 0.852472 0.757167
vt 0.891606 0.757134
vt 0.891577 0.35457
vt 0.858382 0.296672
vt 0.805015 0.296672
vt 0.805015 0.597261
vt 0.858382 0.597261
vt 0.79599 0.448138
vt 0.836549 0.448138
vt 0.836549 0.222576
vt 0.79599 0.222576
vt 0.760911 0.278441
vt 0.723021 0.311793
vt 0.760911 0.311793
vt 0.760911 0.278441
vt 0.750309 0.278441
vt 0.723021 0.311793
vt 0.723021 0.287479
vt 0.750309 0.278441
vt 0.490276 0.278441
vt 0.723021 0.287479
vt 0.490276 0.278441
vt 0.64159 0.287479
vt 0.519427 0.287479
vt 0.477549 0.278441
vt 0.519427 0.311793
vt 0.600705 0.301832
vt 0.641386 0.301832
vt 0.600919 0.287479
vt 0.477549 0.311793
vt 0.600919 0.287479
vt 0.490276 0.278441
vt 0.519427 0.287479
vt 0.600919 0.287479
vt 0.64159 0.287479
vt 0.490276 0.278441
vt 0.847312 0.205069
vt 0.794257 0.205069
vt 0.847312 0.636299
vt 0.794257 0.636299
vt 0.794257 0.205069
vt 0.695556 0.205069
vt 0.794257 0.636299
vt 0.695556 0.636299
vt 0.946014 0.205069
vt 0.847312 0.205069
vt 0.946014 0.636299
vt 0.847312 0.636299
vt 0.83801 0.227886
vt 0.79057 0.227886
vt 0.83801 0.613483
vt 0.79057 0.613483
vt 0.79057 0.227886
vt 0.702313 0.227886
vt 0.79057 0.613483
vt 0.702313 0.613483
vt 0.852169 0.22789
vt 0.83801 0.227886
vt 0.852542 0.613445
vt 0.83801 0.613483
vt 0.584835 0.238765
vt 0.584835 0.247218
vt 0.676833 0.247218
vt 0.676833 0.238765
vt 0.481164 0.241739
vt 0.481164 0.250384
vt 0.576464 0.250384
vt 0.576464 0.241739
vt 0.324702 0.405609
vt 0.477971 0.405609
vt 0.324736 0.670116
vt 0.631205 0.670116
vt 0.631239 0.405609
vt 0.324702 0.405609
vt 0.32472 0.677581
vt 0.477971 0.405609
vt 0.631221 0.677581
vt 0.631239 0.405609
vt 0.253111 0.453359
vt 0.00840052 0.453359
vt 0.00838828 0.281169
vt 0.253123 0.281169
vt 0.253397 0.490283
vt 0.253416 0.979204
vt 0.00839439 0.490247
vt 0.00841266 0.979167
vt 0.00838828 0.281169
vt 0.253123 0.281169
vt 0.00839442 0.453394
vt 0.253099 0.45329
vt 0.00841264 0.45329
vt 0.00838828 0.281169
vt 0.253117 0.453394
vt 0.253123 0.281169
vt 0.253111 0.453359
vt 0.00840052 0.453359
vt 0.00838828 0.281169
vt 0.253123 0.281169
vt 0.253123 0.266305
vt 0.00838828 0.266305
vt 0.00838828 0.129542
vt 0.253123 0.129542
vt 0.253123 0.266305
vt 0.00838828 0.266305
vt 0.00838828 0.129542
vt 0.253123 0.129542
vt 0.253422 0.490234
vt 0.253422 0.979216
vt 0.00839424 0.979216
vt 0.00839424 0.490234
vt 0.253497 0.490234
vt 0.253606 0.979216
vt 0.00839424 0.979216
vt 0.00828554 0.490234
vt 0.00828554 0.979216
vt 0.00828554 0.490234
vt 0.254829 0.490234
vt 0.254829 0.979216


#
# MESH 000
#
g surface_000
usemtl surface_000
f 90/90/90 91/91/91 92/92/92
f 87/87/87 88/88/88 89/89/89
f 78/78/78 74/74/74 79/79/79
f 75/75/75 76/76/76 77/77/77
f 73/73/73 69/69/69 74/74/74
f 70/70/70 71/71/71 72/72/72
f 67/67/67 68/68/68 69/69/69
f 121/121/121 123/123/123 124/124/124
f 121/121/121 122/122/122 123/123/123
f 117/117/117 119/119/119 120/120/120
f 117/117/117 118/118/118 119/119/119
f 115/115/115 114/114/114 116/116/116
f 113/113/113 114/114/114 115/115/115
f 111/111/111 110/110/110 112/112/112
f 109/109/109 110/110/110 111/111/111
f 107/107/107 106/106/106 108/108/108
f 105/105/105 106/106/106 107/107/107
f 103/103/103 102/102/102 104/104/104
f 101/101/101 102/102/102 103/103/103
f 99/99/99 98/98/98 100/100/100
f 97/97/97 98/98/98 99/99/99
f 95/95/95 94/94/94 96/96/96
f 93/93/93 94/94/94 95/95/95
f 86/86/86 82/82/82 81/81/81
f 80/80/80 81/81/81 82/82/82
f 80/80/80 82/82/82 78/78/78
f 83/83/83 79/79/79 85/85/85
f 83/83/83 84/84/84 79/79/79
f 63/63/63 65/65/65 66/66/66
f 63/63/63 64/64/64 65/65/65
f 59/59/59 61/61/61 62/62/62
f 59/59/59 60/60/60 61/61/61
f 55/55/55 57/57/57 58/58/58
f 55/55/55 56/56/56 57/57/57
f 51/51/51 53/53/53 54/54/54
f 51/51/51 52/52/52 53/53/53
f 49/49/49 47/47/47 48/48/48
f 49/49/49 46/46/46 47/47/47
f 49/49/49 45/45/45 46/46/46
f 49/49/49 50/50/50 45/45/45
f 41/41/41 43/43/43 44/44/44
f 41/41/41 42/42/42 43/43/43
f 38/38/38 36/36/36 37/37/37
f 38/38/38 35/35/35 36/36/36
f 38/38/38 34/34/34 35/35/35
f 38/38/38 40/40/40 34/34/34
f 38/38/38 39/39/39 40/40/40
f 30/30/30 32/32/32 33/33/33
f 30/30/30 31/31/31 32/32/32
f 28/28/28 26/26/26 27/27/27
f 28/28/28 25/25/25 26/26/26
f 28/28/28 24/24/24 25/25/25
f 28/28/28 23/23/23 24/24/24
f 28/28/28 29/29/29 23/23/23
f 19/19/19 21/21/21 22/22/22
f 19/19/19 20/20/20 21/21/21
f 16/16/16 14/14/14 15/15/15
f 16/16/16 13/13/13 14/14/14
f 16/16/16 18/18/18 13/13/13
f 16/16/16 17/17/17 18/18/18
f 9/9/9 11/11/11 12/12/12
f 9/9/9 10/10/10 11/11/11
f 5/5/5 7/7/7 8/8/8
f 5/5/5 6/6/6 7/7/7
f 1/1/1 3/3/3 4/4/4
f 1/1/1 2/2/2 3/3/3
f 213/213/213 214/214/214 215/215/215
f 210/210/210 211/211/211 212/212/212
f 201/201/201 202/202/202 197/197/197
f 198/198/198 199/199/199 200/200/200
f 191/191/191 192/192/192 193/193/193
f 244/244/244 246/246/246 247/247/247
f 244/244/244 245/245/245 246/246/246
f 240/240/240 242/242/242 243/243/243
f 240/240/240 241/241/241 242/242/242
f 237/237/237 239/239/239 238/238/238
f 236/236/236 237/237/237 238/238/238
f 233/233/233 235/235/235 234/234/234
f 232/232/232 233/233/233 234/234/234
f 229/229/229 231/231/231 230/230/230
f 228/228/228 229/229/229 230/230/230
f 225/225/225 227/227/227 226/226/226
f 224/224/224 225/225/225 226/226/226
f 221/221/221 223/223/223 222/222/222
f 220/220/220 221/221/221 222/222/222
f 217/217/217 219/219/219 218/218/218
f 216/216/216 217/217/217 218/218/218
f 209/209/209 205/205/205 204/204/204
f 203/203/203 204/204/204 205/205/205
f 203/203/203 201/201/201 204/204/204
f 206/206/206 202/202/202 208/208/208
f 206/206/206 207/207/207 202/202/202
f 195/195/195 197/197/197 196/196/196
f 194/194/194 195/195/195 196/196/196
f 187/187/187 189/189/189 190/190/190
f 187/187/187 188/188/188 189/189/189
f 183/183/183 185/185/185 186/186/186
f 183/183/183 184/184/184 185/185/185
f 179/179/179 181/181/181 182/182/182
f 179/179/179 180/180/180 181/181/181
f 175/175/175 177/177/177 178/178/178
f 175/175/175 176/176/176 177/177/177
f 171/171/171 169/169/169 170/170/170
f 171/171/171 174/174/174 169/169/169
f 171/171/171 173/173/173 174/174/174
f 171/171/171 172/172/172 173/173/173
f 165/165/165 167/167/167 168/168/168
f 165/165/165 166/166/166 167/167/167
f 161/161/161 159/159/159 160/160/160
f 161/161/161 158/158/158 159/159/159
f 161/161/161 164/164/164 158/158/158
f 161/161/161 163/163/163 164/164/164
f 161/161/161 162/162/162 163/163/163
f 154/154/154 156/156/156 157/157/157
f 154/154/154 155/155/155 156/156/156
f 149/149/149 147/147/147 148/148/148
f 149/149/149 153/153/153 147/147/147
f 149/149/149 152/152/152 153/153/153
f 149/149/149 151/151/151 152/152/152
f 149/149/149 150/150/150 151/151/151
f 143/143/143 145/145/145 146/146/146
f 143/143/143 144/144/144 145/145/145
f 140/140/140 138/138/138 139/139/139
f 140/140/140 137/137/137 138/138/138
f 140/140/140 142/142/142 137/137/137
f 140/140/140 141/141/141 142/142/142
f 133/133/133 135/135/135 136/136/136
f 133/133/133 134/134/134 135/135/135
f 129/129/129 131/131/131 132/132/132
f 129/129/129 130/130/130 131/131/131
f 125/125/125 127/127/127 128/128/128
f 125/125/125 126/126/126 127/127/127
f 249/249/249 252/252/252 251/251/251
f 250/250/250 249/249/249 251/251/251
f 248/248/248 249/249/249 250/250/250
f 255/255/255 256/256/256 257/257/257
f 254/254/254 256/256/256 255/255/255
f 253/253/253 254/254/254 255/255/255
f 294/294/294 296/296/296 297/297/297
f 294/294/294 295/295/295 296/296/296
f 290/290/290 292/292/292 293/293/293
f 290/290/290 291/291/291 292/292/292
f 286/286/286 288/288/288 289/289/289
f 286/286/286 287/287/287 288/288/288
f 282/282/282 284/284/284 285/285/285
f 282/282/282 283/283/283 284/284/284
f 278/278/278 280/280/280 281/281/281
f 278/278/278 279/279/279 280/280/280
f 274/274/274 276/276/276 277/277/277
f 274/274/274 275/275/275 276/276/276
f 272/272/272 271/271/271 273/273/273
f 270/270/270 271/271/271 272/272/272
f 268/268/268 267/267/267 269/269/269
f 266/266/266 267/267/267 268/268/268
f 264/264/264 263/263/263 265/265/265
f 262/262/262 263/263/263 264/264/264
f 258/258/258 260/260/260 261/261/261
f 258/258/258 259/259/259 260/260/260

