#
# OBJECT NAME
#
o model_1557
mtllib 1557.mtl

#
# VERTEX BUFFER 000
#
v 0.0205982 0.185166 -0.00104233
v 0 0.18221 -0.0214273
v 0 0.266545 -0.0305933
v 0.0150555 0.274409 -0.0177545
v -0.0150555 0.274409 -0.0177545
v 0 0.266545 -0.0305933
v 0 0.18221 -0.0214273
v -0.0205981 0.185166 -0.00104233
v 0 0.188122 0.0193426
v 0 0.282272 -0.00491565
v 0 0.282272 -0.00491565
v 0 0.188122 0.0193426
v 0 0 -0.0241403
v 0.0170698 0 -0.0170698
v 0 0 0
v -0.0170698 0 -0.0170698
v -0.0241403 0 0
v -0.0170698 0 -0.0170698
v -0.0170698 0 0.0170698
v 0 0 0
v 0 0 0.0241403
v 0.0170698 0 0.0170698
v 0.0241403 0 0
v 0.0170698 0 0.0170698
v 0.0241403 0 0
v -0.0207962 0.103176 0.00502817
v 0 0 0.0241403
v 0 0.103176 0.0258243
v 0 0.103176 0.0258243
v 0.0207962 0.103176 0.00502817
v 0 0.103176 -0.015768
v 0 0.103176 -0.015768
v 0 0 -0.0241403
v 0 0.319044 -0.0688456
v 0 0.319044 -0.0688456
v 0.0193896 0.170968 -0.0150325
v 0.054156 0.202136 -0.0112416
v 0.0274799 0.162533 -0.0101911
v 0.0591143 0.191897 -0.0065294
v 0.0112992 0.179404 -0.0101911
v 0.0491977 0.212375 -0.0065294
v 0.0193896 0.170968 -0.0150325
v 0.054156 0.202136 -0.0112416
v 0.00794812 0.182898 0.00149714
v 0.047144 0.216616 0.00484694
v 0.0112992 0.179404 0.0131854
v 0.0491977 0.212375 0.0162233
v 0.0193896 0.170968 0.0180268
v 0.054156 0.202136 0.0209355
v 0.0193896 0.170968 0.0180268
v 0.0274799 0.162533 0.0131854
v 0.054156 0.202136 0.0209355
v 0.0591143 0.191897 0.0162233
v 0.030831 0.159038 0.00149714
v 0.061168 0.187656 0.00484694
v 0.104209 0.2132 0.00484694
v 0.103246 0.217108 -0.00487032
v 0.149902 0.235533 0.00445279
v 0.103246 0.217108 0.0145642
v 0.100921 0.226543 0.0185892
v 0.0985957 0.235978 0.0145642
v 0.100921 0.226543 0.0185892
v 0.149902 0.235533 0.00445279
v 0.0976326 0.239886 0.00484694
v 0.0985957 0.235978 -0.00487032
v 0.100921 0.226543 -0.00889533
v 0.100921 0.226543 -0.00889533
v -0.00401609 0.164001 -0.00621725
v -0.00127203 0.16114 -0.0157881
v -0.00127203 0.16114 0.00335362
v -0.00120388 0.149456 0.0165185
v -0.00120388 0.149456 0.0165185
v 0.00629525 0.141637 0.0120308
v 0.00940147 0.138398 0.00119676
v 0.00629525 0.141637 -0.00963733
v -0.00120388 0.149456 -0.0141249
v -0.00120388 0.149456 -0.0141249
v -0.0305106 0.156474 0.0137578
v -0.0685108 0.185777 0.013452
v -0.0353366 0.146329 0.00931269
v -0.0730973 0.176256 0.00904557
v -0.0256396 0.166637 0.00939226
v -0.0638768 0.195297 0.0090954
v -0.0305106 0.156474 0.0137578
v -0.0685108 0.185777 0.013452
v -0.023577 0.170866 -0.00122669
v -0.06191 0.199241 -0.00147221
v -0.025531 0.166683 -0.0118786
v -0.0637625 0.195297 -0.0120605
v -0.030357 0.156538 -0.0163237
v -0.0683491 0.185777 -0.0164669
v -0.030357 0.156538 -0.0163237
v -0.035228 0.146374 -0.0119582
v -0.0683491 0.185777 -0.0164669
v -0.072983 0.176256 -0.0121103
v -0.0372906 0.142146 -0.00133921
v -0.0749498 0.172312 -0.00154268
v -0.110011 0.194991 -0.00174685
v -0.109233 0.198329 0.00655584
v -0.146006 0.210277 -0.00190773
v -0.109143 0.198329 -0.0100407
v -0.107139 0.206386 -0.0134672
v -0.105172 0.214443 -0.0100192
v -0.107139 0.206386 -0.0134672
v -0.146006 0.210277 -0.00190773
v -0.104395 0.217781 -0.0017165
v -0.105262 0.214444 0.0065773
v -0.107266 0.206386 0.0100038
v -0.107266 0.206386 0.0100038
v 0.0105584 0.139506 -0.00104996
v 0.00737922 0.136253 0.00453656
v 0.00749685 0.136253 -0.00665382
v -1.20647e-005 0.128398 -0.00899235
v -1.20647e-005 0.128398 -0.00899235
v -0.00756971 0.120543 -0.00669568
v -0.0107489 0.117289 -0.00110916
v -0.00768734 0.120543 0.0044947
v -0.000178429 0.128398 0.00683323
v -0.000178429 0.128398 0.00683323
v -0.156378 0.278763 -0.104227
v -0.183485 0.217514 -0.0111968
v -0.0452439 0.25397 -0.0876356
v -0.0726231 0.191642 0.00421445
v -0.0984359 0.108232 0.0477089
v -0.20957 0.133025 0.0311178
v -0.290141 0.271124 -0.165698
v -0.315488 0.213421 -0.0806643
v -0.339545 0.135569 -0.0410893
v 0.109159 0.315579 -0.0634451
v 0.109864 0.353183 -0.188411
v 0.00121083 0.353426 -0.189003
v 0.000506288 0.315822 -0.0640371
v -0.10368 0.316054 -0.0646048
v -0.104186 0.229659 -0.0162958
v 0 0.229199 -0.0158899
v 0.108653 0.228719 -0.0154665
v -0.102975 0.353659 -0.189571
v 0.0657988 0.124893 0.0892105
v 0.15453 0.161315 0.0915844
v 0.128209 0.230715 0.0105792
v 0.0394785 0.194293 0.00820532
v 0.112163 0.272802 -0.0915111
v 0.0238256 0.23653 -0.0938839
v 0.269214 0.301258 -0.11816
v 0.288794 0.260353 -0.0162065
v 0.315115 0.190952 0.0647986

vn 0.998047 0.0389099 0.0436707
vn 0 -0.0931396 -0.995605
vn 0 -0.222168 -0.974609
vn 0.980469 0.143921 0.132446
vn -0.980469 0.143921 0.132446
vn 0 -0.222168 -0.974609
vn 0 -0.0931396 -0.995605
vn -0.998047 0.0389099 0.0436707
vn 0 0.159302 0.986816
vn 0 0.411621 0.911133
vn 0 0.411621 0.911133
vn 0 0.159302 0.986816
vn 0 0.0650635 -0.997559
vn 0.706543 0.031311 -0.706543
vn 0 -1 0
vn -0.706543 0.031311 -0.706543
vn -0.999023 0.0186768 -0.0288239
vn -0.706543 0.031311 -0.706543
vn -0.706543 -0.0375366 0.706543
vn 0 -1 0
vn 0 -0.0306244 0.999512
vn 0.706543 -0.0375366 0.706543
vn 0.999023 0.0186768 -0.0288239
vn 0.706543 -0.0375366 0.706543
vn 0.999023 0.0186768 -0.0288239
vn -0.998047 0.0509338 0.033905
vn 0 -0.0306244 0.999512
vn 0 0.0527344 0.998535
vn 0 0.0527344 0.998535
vn 0.998047 0.0509338 0.033905
vn 0 0.0476685 -0.998535
vn 0 0.0476685 -0.998535
vn 0 0.0650635 -0.997559
vn -2.98023e-007 0.773926 -0.632813
vn -2.98023e-007 0.773926 -0.632813
vn 0.0156097 0.0384521 -0.999023
vn 0.0322266 0.0594177 -0.997559
vn 0.498047 -0.481934 -0.720215
vn 0.447021 -0.542969 -0.710449
vn -0.459961 0.535156 -0.708008
vn -0.371338 0.632324 -0.679688
vn 0.0156097 0.0384521 -0.999023
vn 0.0322266 0.0594177 -0.997559
vn -0.718262 0.695313 0.0126114
vn -0.535156 0.844238 0.00770187
vn -0.566406 0.46582 0.679199
vn -0.402588 0.605469 0.686035
vn -0.0529785 -0.0247498 0.998047
vn -0.0305176 0.0274353 0.999023
vn -0.0529785 -0.0247498 0.998047
vn 0.453857 -0.536621 0.710938
vn -0.0305176 0.0274353 0.999023
vn 0.393066 -0.565918 0.724121
vn 0.687988 -0.725098 -0.0104752
vn 0.597168 -0.801758 0.0083847
vn 0.476074 -0.878906 0.000905514
vn 0.368408 -0.595703 -0.712891
vn 0.977051 0.211914 -0.0036869
vn 0.372803 -0.592773 0.713379
vn 0.130981 0.0778809 0.988281
vn -0.0963745 0.723633 0.682617
vn 0.130981 0.0778809 0.988281
vn 0.977051 0.211914 -0.0036869
vn -0.185425 0.982422 0.000935078
vn -0.101257 0.723633 -0.682129
vn 0.124329 0.0762329 -0.989258
vn 0.124329 0.0762329 -0.989258
vn -0.828125 0.554688 -0.074585
vn 0.032959 0.271973 -0.961426
vn -0.848145 0.39209 0.355957
vn -0.245483 0.000621319 0.969238
vn -0.245483 0.000621319 0.969238
vn 0.479248 -0.524414 0.703125
vn 0.693359 -0.720215 -0.0024395
vn 0.487793 -0.513184 -0.706055
vn 0.193115 -0.176758 -0.964844
vn 0.193115 -0.176758 -0.964844
vn 0.0708618 -0.0212402 0.99707
vn -0.0223389 0.0389709 0.998535
vn -0.414795 -0.542969 0.72998
vn -0.422363 -0.55957 0.712402
vn 0.474121 0.511719 0.71582
vn 0.354248 0.625977 0.694336
vn 0.0708618 -0.0212402 0.99707
vn -0.0223389 0.0389709 0.998535
vn 0.647461 0.761719 0.00498581
vn 0.504395 0.863281 0.0028286
vn 0.483398 0.513184 -0.708984
vn 0.361816 0.625977 -0.69043
vn 0.0845337 -0.0201263 -0.996094
vn -0.011055 0.0386963 -0.999023
vn 0.0845337 -0.0201263 -0.996094
vn -0.403564 -0.541992 -0.736328
vn -0.011055 0.0386963 -0.999023
vn -0.414307 -0.55957 -0.717285
vn -0.650879 -0.758789 -0.00497437
vn -0.589355 -0.807617 -0.0031395
vn -0.47583 -0.879395 -0.00270462
vn -0.37793 -0.584961 0.717285
vn -0.984375 0.175781 -0.00492096
vn -0.370361 -0.584473 -0.721191
vn -0.141235 0.0953369 -0.985352
vn 0.0661621 0.736816 -0.672363
vn -0.141235 0.0953369 -0.985352
vn -0.984375 0.175781 -0.00492096
vn 0.139526 0.989746 0.000609875
vn 0.0591736 0.736816 0.672852
vn -0.151489 0.0952759 0.983398
vn -0.151489 0.0952759 0.983398
vn 0.67627 0.736328 0.00554657
vn 0.391602 0.327637 0.859375
vn 0.400146 0.326416 -0.855957
vn 0.12793 -0.0796509 -0.988281
vn 0.12793 -0.0796509 -0.988281
vn -0.211548 -0.43457 -0.875
vn -0.625488 -0.779785 -0.00724411
vn -0.222168 -0.432861 0.873535
vn 0.118835 -0.0766602 0.989746
vn 0.118835 -0.0766602 0.989746
vn -0.115051 0.843262 0.524902
vn -0.174316 0.699707 0.692383
vn 0.102783 0.8125 0.573242
vn 0.0531311 0.668945 0.740723
vn -0.0219421 0.460938 0.886719
vn -0.249878 0.494873 0.832031
vn -0.27002 0.832031 0.484131
vn -0.343018 0.706055 0.618652
vn -0.409668 0.510742 0.755371
vn -0.000803947 0.812012 0.583496
vn 0.00056839 0.95752 0.288086
vn 0.00056839 0.95752 0.288086
vn -0.000800133 0.812012 0.583008
vn -0.000796318 0.8125 0.582031
vn -0.00246239 0.486816 0.873047
vn -0.00246811 0.485596 0.874023
vn -0.00247574 0.484619 0.874512
vn 0.00056839 0.95752 0.288086
vn -0.29541 0.675781 0.674805
vn -0.128418 0.731934 0.668945
vn -0.166016 0.823242 0.54248
vn -0.330566 0.77002 0.544922
vn -0.19519 0.895996 0.397949
vn -0.356689 0.842285 0.40332
vn -0.101746 0.915039 0.389893
vn -0.0671387 0.84668 0.527344
vn -0.0298004 0.753906 0.655762

vt 0.179017 0.339448
vt 0.193863 0.337295
vt 0.21535 0.431092
vt 0.206946 0.436242
vt 0.206946 0.436242
vt 0.21535 0.431092
vt 0.193863 0.337295
vt 0.179017 0.339448
vt 0.164167 0.341602
vt 0.198534 0.441392
vt 0.198534 0.441392
vt 0.164167 0.341602
vt 0.19444 0.0487084
vt 0.187855 0.0487084
vt 0.171959 0.0487084
vt 0.187855 0.0487084
vt 0.171959 0.0487084
vt 0.187855 0.0487084
vt 0.156063 0.0487084
vt 0.171959 0.0487084
vt 0.149478 0.0487084
vt 0.156063 0.0487084
vt 0.171959 0.0487084
vt 0.156063 0.0487084
vt 0.171959 0.0487084
vt 0.171959 0.255803
vt 0.149478 0.0487084
vt 0.153241 0.255803
vt 0.153241 0.255803
vt 0.171959 0.255803
vt 0.190677 0.255803
vt 0.190677 0.255803
vt 0.19444 0.0487084
vt 0.247522 0.488208
vt 0.247522 0.488208
vt 0.190687 0.309154
vt 0.199739 0.370696
vt 0.201505 0.319183
vt 0.207906 0.375463
vt 0.201505 0.299124
vt 0.207906 0.365928
vt 0.190687 0.309154
vt 0.199739 0.370696
vt 0.227623 0.29497
vt 0.227623 0.363953
vt 0.25374 0.299124
vt 0.247339 0.365928
vt 0.264558 0.309154
vt 0.255506 0.370696
vt 0.264558 0.309154
vt 0.25374 0.319183
vt 0.255506 0.370696
vt 0.247339 0.375463
vt 0.227623 0.323338
vt 0.227623 0.377438
vt 0.227623 0.424061
vt 0.212375 0.423222
vt 0.227623 0.484111
vt 0.24287 0.423222
vt 0.249186 0.421198
vt 0.24287 0.419174
vt 0.249186 0.421198
vt 0.227623 0.484111
vt 0.227623 0.418335
vt 0.212375 0.419174
vt 0.206059 0.421198
vt 0.206059 0.421198
vt 0.227623 0.228955
vt 0.195042 0.234138
vt 0.260203 0.234138
vt 0.273698 0.246649
vt 0.273698 0.246649
vt 0.260203 0.259161
vt 0.227623 0.264343
vt 0.195042 0.259161
vt 0.181547 0.246649
vt 0.181547 0.246649
vt 0.095907 0.311648
vt 0.105604 0.373452
vt 0.106874 0.321692
vt 0.113856 0.378218
vt 0.106678 0.301539
vt 0.113763 0.368638
vt 0.095907 0.311648
vt 0.105604 0.373452
vt 0.132878 0.297286
vt 0.133553 0.366594
vt 0.159158 0.301381
vt 0.153381 0.368519
vt 0.170126 0.311426
vt 0.161633 0.373284
vt 0.170126 0.311426
vt 0.159355 0.321535
vt 0.161633 0.373284
vt 0.153475 0.378099
vt 0.133155 0.325788
vt 0.133685 0.380142
vt 0.134141 0.426984
vt 0.118813 0.426188
vt 0.134729 0.487318
vt 0.149452 0.426096
vt 0.155778 0.424043
vt 0.149412 0.422029
vt 0.155778 0.424043
vt 0.134729 0.487318
vt 0.134085 0.421232
vt 0.118774 0.422121
vt 0.112448 0.424173
vt 0.112448 0.424173
vt 0.132231 0.230961
vt 0.0995485 0.236266
vt 0.165016 0.23607
vt 0.178697 0.2486
vt 0.178697 0.2486
vt 0.165261 0.261211
vt 0.132578 0.266515
vt 0.0997934 0.261407
vt 0.0861123 0.248877
vt 0.0861123 0.248877
vt 0.0145137 0.784279
vt 0.214958 0.784268
vt 0.0145563 0.993886
vt 0.214949 0.993886
vt 0.41135 0.993886
vt 0.411409 0.784257
vt 0.0144584 0.512485
vt 0.214969 0.512459
vt 0.411485 0.512434
vt 0.567327 0.784433
vt 0.568738 0.544733
vt 0.787879 0.54407
vt 0.787915 0.784392
vt 0.999412 0.784756
vt 0.998951 0.968028
vt 0.787746 0.968362
vt 0.567473 0.968013
vt 0.997932 0.544912
vt 0.631124 0.451872
vt 0.631314 0.29059
vt 0.816695 0.29056
vt 0.816686 0.451836
vt 0.995033 0.290537
vt 0.995207 0.451801
vt 0.994844 0.0204849
vt 0.816711 0.020319
vt 0.631533 0.0205105


#
# MESH 000
#
g surface_000
usemtl surface_000
f 23/23/23 24/24/24 15/15/15
f 17/17/17 18/18/18 15/15/15
f 32/32/32 33/33/33 16/16/16
f 32/32/32 16/16/16 17/17/17
f 32/32/32 17/17/17 26/26/26
f 32/32/32 26/26/26 8/8/8
f 32/32/32 8/8/8 7/7/7
f 5/5/5 7/7/7 8/8/8
f 5/5/5 6/6/6 7/7/7
f 35/35/35 6/6/6 5/5/5
f 35/35/35 5/5/5 10/10/10
f 19/19/19 26/26/26 17/17/17
f 19/19/19 28/28/28 26/26/26
f 26/26/26 28/28/28 9/9/9
f 26/26/26 9/9/9 8/8/8
f 5/5/5 8/8/8 9/9/9
f 5/5/5 9/9/9 10/10/10
f 19/19/19 17/17/17 20/20/20
f 21/21/21 19/19/19 20/20/20
f 22/22/22 21/21/21 20/20/20
f 22/22/22 29/29/29 21/21/21
f 22/22/22 30/30/30 29/29/29
f 1/1/1 29/29/29 30/30/30
f 1/1/1 12/12/12 29/29/29
f 1/1/1 11/11/11 12/12/12
f 1/1/1 4/4/4 11/11/11
f 34/34/34 11/11/11 4/4/4
f 34/34/34 4/4/4 3/3/3
f 22/22/22 23/23/23 30/30/30
f 30/30/30 23/23/23 14/14/14
f 30/30/30 14/14/14 13/13/13
f 30/30/30 13/13/13 31/31/31
f 2/2/2 30/30/30 31/31/31
f 2/2/2 1/1/1 30/30/30
f 1/1/1 2/2/2 3/3/3
f 1/1/1 3/3/3 4/4/4
f 13/13/13 14/14/14 15/15/15
f 16/16/16 13/13/13 15/15/15
f 14/14/14 25/25/25 15/15/15
f 19/19/19 27/27/27 28/28/28
f 76/76/76 36/36/36 75/75/75
f 75/75/75 36/36/36 38/38/38
f 75/75/75 38/38/38 74/74/74
f 74/74/74 38/38/38 54/54/54
f 51/51/51 74/74/74 54/54/54
f 73/73/73 74/74/74 51/51/51
f 50/50/50 73/73/73 51/51/51
f 72/72/72 73/73/73 50/50/50
f 36/36/36 37/37/37 38/38/38
f 38/38/38 37/37/37 39/39/39
f 38/38/38 39/39/39 54/54/54
f 54/54/54 39/39/39 55/55/55
f 53/53/53 54/54/54 55/55/55
f 51/51/51 54/54/54 53/53/53
f 52/52/52 51/51/51 53/53/53
f 50/50/50 51/51/51 52/52/52
f 39/39/39 37/37/37 57/57/57
f 56/56/56 39/39/39 57/57/57
f 55/55/55 39/39/39 56/56/56
f 55/55/55 56/56/56 53/53/53
f 53/53/53 56/56/56 59/59/59
f 53/53/53 59/59/59 52/52/52
f 52/52/52 59/59/59 60/60/60
f 60/60/60 59/59/59 58/58/58
f 57/57/57 37/37/37 67/67/67
f 57/57/57 67/67/67 58/58/58
f 56/56/56 57/57/57 58/58/58
f 59/59/59 56/56/56 58/58/58
f 43/43/43 41/41/41 66/66/66
f 42/42/42 41/41/41 43/43/43
f 40/40/40 41/41/41 42/42/42
f 40/40/40 45/45/45 41/41/41
f 41/41/41 45/45/45 65/65/65
f 66/66/66 41/41/41 65/65/65
f 66/66/66 65/65/65 63/63/63
f 65/65/65 64/64/64 63/63/63
f 64/64/64 61/61/61 63/63/63
f 61/61/61 62/62/62 63/63/63
f 77/77/77 40/40/40 42/42/42
f 69/69/69 40/40/40 77/77/77
f 69/69/69 44/44/44 40/40/40
f 44/44/44 45/45/45 40/40/40
f 44/44/44 46/46/46 45/45/45
f 45/45/45 46/46/46 47/47/47
f 47/47/47 61/61/61 45/45/45
f 45/45/45 61/61/61 64/64/64
f 65/65/65 45/45/45 64/64/64
f 68/68/68 44/44/44 69/69/69
f 68/68/68 70/70/70 44/44/44
f 44/44/44 70/70/70 46/46/46
f 70/70/70 71/71/71 46/46/46
f 46/46/46 71/71/71 48/48/48
f 46/46/46 48/48/48 47/47/47
f 47/47/47 48/48/48 49/49/49
f 49/49/49 62/62/62 47/47/47
f 47/47/47 62/62/62 61/61/61
f 118/118/118 78/78/78 117/117/117
f 117/117/117 78/78/78 80/80/80
f 117/117/117 80/80/80 116/116/116
f 116/116/116 80/80/80 96/96/96
f 93/93/93 116/116/116 96/96/96
f 115/115/115 116/116/116 93/93/93
f 92/92/92 115/115/115 93/93/93
f 114/114/114 115/115/115 92/92/92
f 78/78/78 79/79/79 80/80/80
f 80/80/80 79/79/79 81/81/81
f 80/80/80 81/81/81 96/96/96
f 96/96/96 81/81/81 97/97/97
f 95/95/95 96/96/96 97/97/97
f 93/93/93 96/96/96 95/95/95
f 94/94/94 93/93/93 95/95/95
f 92/92/92 93/93/93 94/94/94
f 81/81/81 79/79/79 99/99/99
f 98/98/98 81/81/81 99/99/99
f 97/97/97 81/81/81 98/98/98
f 97/97/97 98/98/98 95/95/95
f 95/95/95 98/98/98 101/101/101
f 95/95/95 101/101/101 94/94/94
f 94/94/94 101/101/101 102/102/102
f 102/102/102 101/101/101 100/100/100
f 99/99/99 79/79/79 109/109/109
f 99/99/99 109/109/109 100/100/100
f 98/98/98 99/99/99 100/100/100
f 101/101/101 98/98/98 100/100/100
f 85/85/85 83/83/83 108/108/108
f 84/84/84 83/83/83 85/85/85
f 82/82/82 83/83/83 84/84/84
f 82/82/82 87/87/87 83/83/83
f 83/83/83 87/87/87 107/107/107
f 108/108/108 83/83/83 107/107/107
f 108/108/108 107/107/107 105/105/105
f 107/107/107 106/106/106 105/105/105
f 106/106/106 103/103/103 105/105/105
f 103/103/103 104/104/104 105/105/105
f 119/119/119 82/82/82 84/84/84
f 111/111/111 82/82/82 119/119/119
f 111/111/111 86/86/86 82/82/82
f 86/86/86 87/87/87 82/82/82
f 86/86/86 88/88/88 87/87/87
f 87/87/87 88/88/88 89/89/89
f 89/89/89 103/103/103 87/87/87
f 87/87/87 103/103/103 106/106/106
f 107/107/107 87/87/87 106/106/106
f 110/110/110 86/86/86 111/111/111
f 110/110/110 112/112/112 86/86/86
f 86/86/86 112/112/112 88/88/88
f 112/112/112 113/113/113 88/88/88
f 88/88/88 113/113/113 90/90/90
f 88/88/88 90/90/90 89/89/89
f 89/89/89 90/90/90 91/91/91
f 91/91/91 104/104/104 89/89/89
f 89/89/89 104/104/104 103/103/103
f 125/125/125 127/127/127 128/128/128
f 121/121/121 127/127/127 125/125/125
f 120/120/120 127/127/127 121/121/121
f 126/126/126 127/127/127 120/120/120
f 124/124/124 121/121/121 125/125/125
f 123/123/123 121/121/121 124/124/124
f 122/122/122 121/121/121 123/123/123
f 120/120/120 121/121/121 122/122/122
f 133/133/133 134/134/134 135/135/135
f 133/133/133 135/135/135 132/132/132
f 137/137/137 133/133/133 132/132/132
f 137/137/137 132/132/132 131/131/131
f 129/129/129 131/131/131 132/132/132
f 129/129/129 130/130/130 131/131/131
f 136/136/136 132/132/132 135/135/135
f 136/136/136 129/129/129 132/132/132
f 139/139/139 146/146/146 145/145/145
f 139/139/139 145/145/145 140/140/140
f 138/138/138 139/139/139 140/140/140
f 138/138/138 140/140/140 141/141/141
f 141/141/141 140/140/140 142/142/142
f 141/141/141 142/142/142 143/143/143
f 144/144/144 140/140/140 145/145/145
f 144/144/144 142/142/142 140/140/140

