#
# OBJECT NAME
#
o model_2283
mtllib 2283.mtl

#
# VERTEX BUFFER 000
#
v -0.352718 0 0.0945104
v -0.103934 0 -0.387889
v 0.352718 0 -0.0945104
v 0.103934 0 0.387889
v -0.103934 0 -0.387889
v -0.137219 0.178655 -0.485568
v 0.456296 0.214953 -0.25364
v 0.352718 0 -0.0945104
v -0.352718 0 0.0945104
v -0.510076 0.209954 0.0209623
v -0.137219 0.178655 -0.485568
v -0.103934 0 -0.387889
v 0.427284 0.214953 0.367977
v 0.103934 0 0.387889
v 0.54552 0.47574 -0.299237
v 0.763362 0.253416 -0.447121
v -0.214848 0.217118 -0.801824
v -0.155832 0.439442 -0.581573
v -0.852634 0.248417 0.0146397
v -0.589456 0.470741 0.0225051
v -0.273668 0.245221 0.867628
v -0.187651 0.467544 0.61878
v 0.717176 0.253416 0.593831
v 0.510748 0.47574 0.430394
v 0.763362 0.253416 -0.447121
v 0.717176 0.253416 0.593831
v 0.427284 0.214953 0.367977
v 0.456296 0.214953 -0.25364
v -0.273668 0.245221 0.867628
v -0.166731 0.206757 0.529375
v -0.273668 0.245221 0.867628
v -0.852634 0.248417 0.0146397
v -0.510076 0.209954 0.0209623
v -0.166731 0.206757 0.529375
v -0.214848 0.217118 -0.801824
v -0.137219 0.178655 -0.485568
v -0.214848 0.217118 -0.801824
v -0.137219 0.178655 -0.485568
v -0.589456 0.470741 0.0225051
v -0.187651 0.467544 0.61878
v 0.026935 0.554932 0.0467356
v -0.187651 0.467544 0.61878
v 0.510748 0.47574 0.430394
v 0.026935 0.554932 0.0467356
v 0.510748 0.47574 0.430394
v 0.54552 0.47574 -0.299237
v 0.026935 0.554932 0.0467356
v 0.54552 0.47574 -0.299237
v -0.155832 0.439442 -0.581573
v 0.026935 0.554932 0.0467356
v -0.155832 0.439442 -0.581573
v -0.589456 0.470741 0.0225051
v 0.026935 0.554932 0.0467356
v -0.166731 0.206757 0.529375

vn 0 -1 0
vn 0 -1 0
vn 0 -1 0
vn 0 -1 0
vn -0.865723 0 -0.5
vn -0.865723 0 -0.5
vn 1 0 0
vn 1 0 0
vn -0.865723 0 0.5
vn -0.865723 0 0.5
vn -0.865723 0 -0.5
vn -0.865723 0 -0.5
vn 0.865723 0 0.5
vn -0.0136337 -0.697266 0.716309
vn 0.541504 0.757324 -0.364258
vn 0.825195 -0.107239 -0.554199
vn -0.261963 -0.0953369 -0.959961
vn -0.189331 0.736328 -0.649414
vn -0.997559 -0.0534058 -0.0333862
vn -0.656738 0.75293 -0.0245209
vn -0.333984 -0.0963745 0.9375
vn -0.22937 0.76123 0.605957
vn 0.77832 -0.121216 0.615234
vn 0.501465 0.765625 0.401855
vn 0.825195 -0.107239 -0.554199
vn 0.77832 -0.121216 0.615234
vn 0.0858765 -0.994141 0.0633545
vn 0.107849 -0.992676 -0.0510559
vn -0.333984 -0.0963745 0.9375
vn -0.0355225 -0.994141 0.0977173
vn -0.333984 -0.0963745 0.9375
vn -0.997559 -0.0534058 -0.0333862
vn -0.126099 -0.991699 0.0090332
vn -0.0355225 -0.994141 0.0977173
vn -0.261963 -0.0953369 -0.959961
vn -0.0239105 -0.996094 -0.0847778
vn -0.261963 -0.0953369 -0.959961
vn -0.0239105 -0.996094 -0.0847778
vn -0.138428 0.985352 0.0985718
vn -0.138428 0.985352 0.0985718
vn -0.138428 0.985352 0.0985718
vn 0.0323181 0.98584 0.16272
vn 0.0323181 0.98584 0.16272
vn 0.0323181 0.98584 0.16272
vn 0.155762 0.987305 0.0074234
vn 0.155762 0.987305 0.0074234
vn 0.155762 0.987305 0.0074234
vn 0.0247345 0.981445 -0.187622
vn 0.0247345 0.981445 -0.187622
vn 0.0247345 0.981445 -0.187622
vn -0.128296 0.980957 -0.142944
vn -0.128296 0.980957 -0.142944
vn -0.128296 0.980957 -0.142944
vn 0 0 1

vt 0.979582 0.148514
vt 0.84525 0.392258
vt 0.955153 0.299452
vt 0.824337 0.122272
vt 0.73797 0.00488359
vt 0.73774 0.0916749
vt 0.603124 0.0916749
vt 0.603124 0.00488269
vt 0.192758 0.00488198
vt 0.192758 0.0916749
vt 0.029126 0.0916749
vt 0.0274244 0.00488192
vt 0.467564 0.0916749
vt 0.40268 0.00488216
vt 0.603796 0.652106
vt 0.749219 0.691072
vt 0.318716 0.900052
vt 0.352461 0.774112
vt 0.0503796 0.503819
vt 0.195 0.536489
vt 0.306172 0.248026
vt 0.345138 0.393448
vt 0.655592 0.341653
vt 0.549135 0.448109
vt 0.968635 0.870957
vt 0.935223 0.699542
vt 0.905771 0.737545
vt 0.920047 0.852727
vt 0.812898 0.662803
vt 0.810472 0.720945
vt 0.812898 0.662803
vt 0.935223 0.699542
vt 0.905771 0.737545
vt 0.810472 0.720945
vt 0.968635 0.870957
vt 0.920047 0.852727
vt 0.8141 0.971004
vt 0.814089 0.908658
vt 0.195 0.536489
vt 0.345138 0.393448
vt 0.409106 0.560853
vt 0.345138 0.393448
vt 0.549135 0.448109
vt 0.409106 0.560853
vt 0.549135 0.448109
vt 0.603796 0.652106
vt 0.409106 0.560853
vt 0.603796 0.652106
vt 0.352461 0.774112
vt 0.409106 0.560853
vt 0.352461 0.774112
vt 0.195 0.536489
vt 0.409106 0.560853
vt 0.340511 0.0916749


#
# MESH 000
#
g surface_000
usemtl surface_000
f 51/51/51 52/52/52 53/53/53
f 48/48/48 49/49/49 50/50/50
f 45/45/45 46/46/46 47/47/47
f 42/42/42 43/43/43 44/44/44
f 39/39/39 40/40/40 41/41/41
f 37/37/37 28/28/28 38/38/38
f 37/37/37 25/25/25 28/28/28
f 25/25/25 27/27/27 28/28/28
f 25/25/25 26/26/26 27/27/27
f 26/26/26 30/30/30 27/27/27
f 26/26/26 29/29/29 30/30/30
f 32/32/32 35/35/35 36/36/36
f 32/32/32 36/36/36 33/33/33
f 31/31/31 32/32/32 33/33/33
f 31/31/31 33/33/33 34/34/34
f 9/9/9 11/11/11 12/12/12
f 9/9/9 10/10/10 11/11/11
f 9/9/9 54/54/54 10/10/10
f 9/9/9 14/14/14 54/54/54
f 14/14/14 13/13/13 54/54/54
f 8/8/8 13/13/13 14/14/14
f 8/8/8 7/7/7 13/13/13
f 5/5/5 7/7/7 8/8/8
f 5/5/5 6/6/6 7/7/7
f 1/1/1 3/3/3 4/4/4
f 1/1/1 2/2/2 3/3/3
f 24/24/24 16/16/16 15/15/15
f 24/24/24 23/23/23 16/16/16
f 22/22/22 23/23/23 24/24/24
f 22/22/22 21/21/21 23/23/23
f 20/20/20 21/21/21 22/22/22
f 20/20/20 19/19/19 21/21/21
f 18/18/18 19/19/19 20/20/20
f 18/18/18 17/17/17 19/19/19
f 15/15/15 17/17/17 18/18/18
f 15/15/15 16/16/16 17/17/17

