#
# OBJECT NAME
#
o model_3333
mtllib 3333.mtl

#
# VERTEX BUFFER 000
#
v -0.00775749 1.23269 -0.198491
v -0.0235733 1.74664 -0.0950473
v 0.0220926 1.73893 0.0222251
v -0.00428302 1.04193 -0.236855
v -0.186862 1.43903 -0.515483
v -0.146149 1.47741 -0.422409
v -0.00775749 1.23269 -0.198491
v -0.146149 1.47741 -0.422409
v -0.186862 1.43903 -0.515483
v -0.238879 1.48116 -0.388379
v 0.0852365 -0.0448063 -0.299227
v 0.0220926 1.73893 0.0222251
v -0.093816 1.72302 0.0676755
v -0.0430296 -0.0529664 -0.248689
v 0.0852365 -0.0448063 -0.299227
v -0.0949849 -0.040818 -0.373474
v 0.0332812 -0.0326578 -0.424013
v -0.0430296 -0.0529664 -0.248689
v -0.141226 1.73089 -0.0487666
v 0.0220926 1.73893 0.0222251
v -0.0235733 1.74664 -0.0950473
v -0.093816 1.72302 0.0676755
v -0.275697 1.44724 -0.471884
v -0.141226 1.73089 -0.0487666
v -0.0235733 1.74664 -0.0950473
v -0.00775749 1.23269 -0.198491
v -0.124486 1.21988 -0.151737
v -0.146149 1.47741 -0.422409
v -0.238879 1.48116 -0.388379
v -0.124486 1.21988 -0.151737
v -0.00775749 1.23269 -0.198491
v -0.275697 1.44724 -0.471884
v -0.116394 1.03133 -0.191622
v -0.238879 1.48116 -0.388379
v -0.0430296 -0.0529664 -0.248689
v -0.116394 1.03133 -0.191622
v -0.0949849 -0.040818 -0.373474
v -0.186862 1.43903 -0.515483
v -0.116394 1.03133 -0.191622
v -0.00428302 1.04193 -0.236855
v 0.0332812 -0.0326578 -0.424013
v -0.0949849 -0.040818 -0.373474
v -0.00428302 1.04193 -0.236855
v 0.0852365 -0.0448063 -0.299227
v 0.0332812 -0.0326578 -0.424013
v -0.093816 1.72302 0.0676755
v -0.141226 1.73089 -0.0487666
v -0.124486 1.21988 -0.151737
v -0.222412 0.588034 0.276414
v -0.242256 0.56153 0.118634
v 0.0978408 0.366456 0.183145
v 0.0206608 0.659172 0.458164
v 0.0978408 0.366456 0.183145
v 0.305753 0.693641 0.333128
v 0.0978408 0.366456 0.183145
v 0.347773 0.65697 0.026343
v 0.0978408 0.366456 0.183145
v 0.1047 0.585832 -0.155407
v 0.0978408 0.366456 0.183145
v -0.242256 0.56153 0.118634
v 0.1047 0.585832 -0.155407
v 0.0978408 0.366456 0.183145
v -0.186842 0.863748 0.166427
v -0.191846 0.850068 0.0557238
v -0.00709584 0.917637 0.287363
v 0.214681 0.958884 0.190637
v 0.265439 0.946242 -0.0270245
v 0.079472 0.892353 -0.146515
v 0.079472 0.892353 -0.146515
v -0.191846 0.850068 0.0557238
v -0.0643989 1.0401 0.00940508
v -0.0671228 1.04446 -0.0249331
v -0.000144802 1.04058 0.0425598
v 0.0811823 1.05157 0.0066053
v 0.0982555 1.06207 -0.0625037
v 0.0340015 1.06159 -0.0956584
v -0.0671228 1.04446 -0.0249331
v 0.0340015 1.06159 -0.0956584
v -0.0360801 1.13451 0.0251289
v -0.0376208 1.14948 0.00599125
v -0.0200018 1.12131 0.0377846
v 0.006306 1.11343 0.0405675
v 0.0605612 1.12006 0.0163769
v 0.0724302 1.14777 -0.0232521
v 0.0300441 1.16885 -0.0386908
v 0.0300441 1.16885 -0.0386908
v -0.0376208 1.14948 0.00599125
v -0.0285234 1.30346 0.394228
v 0.0846928 1.22422 0.172904
v -0.0264621 1.3854 0.339447
v -0.00388351 1.26014 0.415817
v 0.109583 1.22665 0.412254
v 0.0846928 1.22422 0.172904
v 0.103637 1.18603 0.441006
v 0.292263 1.20581 0.380877
v 0.103637 1.18603 0.441006
v 0.338404 1.34569 0.27549
v 0.196962 1.4776 0.220635
v -0.0285234 1.30346 0.394228
v -0.0264621 1.3854 0.339447
v 0.109583 1.22665 0.412254
v -0.00388351 1.26014 0.415817
v -0.0200018 1.12131 0.0377846
v -0.0264621 1.3854 0.339447
v 0.196962 1.4776 0.220635
v 0.196962 1.4776 0.220635
v 0.338404 1.34569 0.27549
v 0.292263 1.20581 0.380877
v 0.103637 1.18603 0.441006
v 0.103637 1.18603 0.441006
v 0.0396425 1.03613 0.0193383
v 0.107881 1.06779 -0.033856
v 0.139891 1.07717 -0.00816668
v 0.053672 1.03343 0.060679
v -0.0443269 1.04654 0.0284777
v 0.0396425 1.03613 0.0193383
v 0.053672 1.03343 0.060679
v -0.0564673 1.0497 0.0721347
v -0.156804 1.27901 -0.174991
v -0.179848 1.3098 -0.150571
v -0.100161 1.31338 -0.221104
v -0.104865 1.35629 -0.212481
v -0.014584 1.29904 -0.232871
v 0.00652218 1.33605 -0.226419
v 0.11669 1.10841 0.0153326
v 0.0484509 1.07674 0.0685267
v 0.0484509 1.07674 0.0685267
v -0.0355188 1.08716 0.0776662
v -0.146512 1.31743 -0.123395
v -0.0898691 1.3518 -0.169508
v -0.00429184 1.33746 -0.181275
v 0.11669 1.10841 0.0153326
v 0.0396425 1.03613 0.0193383
v 0.0335717 1.07977 0.0248443
v 0.0772771 1.09431 -0.00854286
v 0.107881 1.06779 -0.033856
v -0.0443269 1.04654 0.0284777
v -0.0181844 1.08311 0.0339471
v 0.0335717 1.07977 0.0248443
v 0.0396425 1.03613 0.0193383
v -0.156804 1.27901 -0.174991
v -0.117462 1.29308 -0.151202
v -0.100161 1.31338 -0.221104
v -0.0821716 1.31088 -0.178647
v -0.014584 1.29904 -0.232871
v -0.0319887 1.30306 -0.189239
v 0.11669 1.10841 0.0153326
v -0.00429184 1.33746 -0.181275
v -0.0898691 1.3518 -0.169508
v -0.146512 1.31743 -0.123395
v -0.0355188 1.08716 0.0776662
v 0.0484509 1.07674 0.0685267
v 0.0484509 1.07674 0.0685267
v 0.11669 1.10841 0.0153326

vn 0.86084 0.210083 -0.463379
vn 0.105103 0.199097 -0.974121
vn 0.552246 -0.128784 0.823242
vn 0.601074 0.045105 -0.797363
vn 0.266846 -0.45459 -0.849609
vn 0.880371 0.473145 -0.0157318
vn 0.86084 0.210083 -0.463379
vn -0.0891113 0.933594 -0.345947
vn -0.0858765 0.93457 -0.344727
vn -0.0860596 0.93457 -0.344971
vn 0.662109 -0.148193 0.734375
vn 0.552246 -0.128784 0.823242
vn 0.189087 -0.168091 0.967285
vn 0.0595398 -0.206177 0.976563
vn 0.662109 -0.148193 0.734375
vn -0.748535 0.0375366 -0.661621
vn 0.09021 0.114502 -0.989258
vn 0.0595398 -0.206177 0.976563
vn -0.0936279 0.990234 0.10321
vn -0.0936279 0.990234 0.10321
vn -0.0927734 0.990234 0.101196
vn -0.0945435 0.989746 0.105286
vn -0.0822144 0.935059 -0.343506
vn -0.76416 0.103333 -0.635742
vn 0.105103 0.199097 -0.974121
vn 0.86084 0.210083 -0.463379
vn -0.975098 0.0335083 0.218628
vn 0.880371 0.473145 -0.0157318
vn -0.702637 0.274902 0.655762
vn -0.975098 0.0335083 0.218628
vn 0.86084 0.210083 -0.463379
vn -0.794922 -0.520996 -0.310059
vn -0.970215 -0.110718 -0.213257
vn -0.702637 0.274902 0.655762
vn 0.0595398 -0.206177 0.976563
vn -0.970215 -0.110718 -0.213257
vn -0.748535 0.0375366 -0.661621
vn 0.266846 -0.45459 -0.849609
vn -0.970215 -0.110718 -0.213257
vn 0.601074 0.045105 -0.797363
vn 0.09021 0.114502 -0.989258
vn -0.748535 0.0375366 -0.661621
vn 0.601074 0.045105 -0.797363
vn 0.662109 -0.148193 0.734375
vn 0.09021 0.114502 -0.989258
vn 0.189087 -0.168091 0.967285
vn -0.76416 0.103333 -0.635742
vn -0.975098 0.0335083 0.218628
vn -0.760254 -0.13269 0.635254
vn -0.768555 -0.345947 -0.537109
vn 0.146606 -0.987793 0.0478516
vn -0.105347 0.0586548 0.992676
vn 0.146606 -0.987793 0.0478516
vn 0.753418 0.0922852 0.650391
vn 0.146606 -0.987793 0.0478516
vn 0.933594 -0.136963 -0.330811
vn 0.146606 -0.987793 0.0478516
vn -0.0930176 -0.340332 -0.935547
vn 0.146606 -0.987793 0.0478516
vn -0.768555 -0.345947 -0.537109
vn -0.0930176 -0.340332 -0.935547
vn 0.146606 -0.987793 0.0478516
vn -0.756348 0.445068 0.479004
vn -0.765137 0.0591431 -0.640625
vn -0.178223 0.619141 0.76416
vn 0.612305 0.625488 0.482666
vn 0.84082 0.352539 -0.4104
vn -0.128662 0.0417175 -0.990723
vn -0.128662 0.0417175 -0.990723
vn -0.765137 0.0591431 -0.640625
vn -0.643555 0.689453 0.331055
vn -0.69043 0.192749 -0.696777
vn -0.194092 0.830566 0.521484
vn 0.34082 0.875 0.343018
vn 0.575684 0.643066 -0.503906
vn -0.288818 0.242188 -0.925781
vn -0.69043 0.192749 -0.696777
vn -0.288818 0.242188 -0.925781
vn -0.982422 -0.0960083 0.159302
vn -0.67627 0.583496 -0.44873
vn -0.800781 -0.406738 0.439209
vn -0.0519104 -0.93457 0.351074
vn 0.577148 -0.814453 -0.0503845
vn 0.74707 0.0356445 -0.663086
vn -0.18103 0.661621 -0.727051
vn -0.18103 0.661621 -0.727051
vn -0.67627 0.583496 -0.44873
vn 0.875977 0.361816 0.318359
vn 0.155518 0.385254 0.90918
vn 0.719727 -0.192261 0.666504
vn 0.51123 0.856934 0.0598145
vn 0.670898 0.736816 -0.0772705
vn 0.155518 0.385254 0.90918
vn 0.0621643 0.988281 0.136353
vn -0.333008 0.850098 0.407715
vn 0.0621643 0.988281 0.136353
vn -0.484863 0.328125 0.810547
vn 0.0629883 -0.211548 0.975098
vn -0.974121 -0.197144 0.107239
vn -0.728516 0.567871 -0.382324
vn -0.598633 -0.705078 0.378662
vn -0.522949 -0.790527 0.317627
vn -0.800781 -0.406738 0.439209
vn -0.728516 0.567871 -0.382324
vn -0.0194092 0.656738 -0.753418
vn -0.0194092 0.656738 -0.753418
vn 0.773926 -0.147827 -0.615234
vn 0.503906 -0.856934 -0.10614
vn 1.51396e-005 -0.98291 0.183472
vn 1.51396e-005 -0.98291 0.183472
vn -0.0773315 -0.868164 -0.489502
vn 0.161255 -0.668457 -0.725586
vn 0.987793 0.00718307 -0.155151
vn 0.341309 -0.740234 0.578613
vn -0.399658 -0.754883 -0.519531
vn -0.0773315 -0.868164 -0.489502
vn 0.341309 -0.740234 0.578613
vn -0.820801 -0.337891 0.459717
vn -0.470947 -0.625488 -0.621582
vn -0.98877 -0.0166931 0.14563
vn -0.311279 -0.326172 -0.89209
vn -0.320068 0.785156 -0.529297
vn 0.0837402 -0.520508 -0.849121
vn 0.800781 0.355469 -0.481934
vn 0.48291 0.62207 0.615723
vn 0.300537 0.376465 0.875977
vn 0.300537 0.376465 0.875977
vn -0.103699 0.528809 0.842285
vn -0.137573 0.667969 0.730957
vn 0.0796509 0.863281 0.497803
vn 0.380615 0.755371 0.532715
vn 0.48291 0.62207 0.615723
vn -0.0773315 -0.868164 -0.489502
vn -0.331055 0.770996 -0.542969
vn -0.979004 -0.020874 0.200928
vn 0.161255 -0.668457 -0.725586
vn -0.399658 -0.754883 -0.519531
vn 0.848145 0.338867 -0.406982
vn -0.331055 0.770996 -0.542969
vn -0.0773315 -0.868164 -0.489502
vn -0.470947 -0.625488 -0.621582
vn 0.973145 -0.00820923 -0.229004
vn -0.311279 -0.326172 -0.89209
vn 0.313965 -0.789063 0.527344
vn 0.0837402 -0.520508 -0.849121
vn -0.831543 -0.388672 0.395996
vn 0.48291 0.62207 0.615723
vn 0.380615 0.755371 0.532715
vn 0.0796509 0.863281 0.497803
vn -0.137573 0.667969 0.730957
vn -0.103699 0.528809 0.842285
vn 0.300537 0.376465 0.875977
vn 0.300537 0.376465 0.875977
vn 0.48291 0.62207 0.615723

vt 0.594273 0.350567
vt 0.594273 0.49228
vt 0.541762 0.496266
vt 0.802831 0.0134397
vt 0.796915 0.178409
vt 0.767416 0.159301
vt 0.767416 0.0560913
vt 0.772854 0.354492
vt 0.773961 0.272153
vt 0.85999 0.35326
vt 0.541762 0.00326443
vt 0.541762 0.496266
vt 0.704262 0.495467
vt 0.704262 0.00326455
vt 0.7751 0.35534
vt 0.856386 0.270223
vt 0.857894 0.353725
vt 0.773592 0.271837
vt 0.858692 0.479597
vt 0.773945 0.394512
vt 0.858696 0.393377
vt 0.773984 0.479445
vt 0.858881 0.270504
vt 0.648597 0.491582
vt 0.594273 0.49228
vt 0.594273 0.350567
vt 0.648597 0.350666
vt 0.767416 0.159301
vt 0.867802 0.159301
vt 0.867802 0.0560913
vt 0.767416 0.0560913
vt 0.838313 0.178409
vt 0.831 0.0150477
vt 0.867802 0.159301
vt 0.704262 0.00326467
vt 0.648596 0.296641
vt 0.648596 0.00326455
vt 0.796915 0.178408
vt 0.648597 0.29664
vt 0.594273 0.296078
vt 0.594273 0.00326443
vt 0.648597 0.00326443
vt 0.594273 0.296078
vt 0.541762 0.00326443
vt 0.594273 0.00326443
vt 0.704262 0.495467
vt 0.648596 0.491582
vt 0.648596 0.350666
vt 0.173675 0.662935
vt 0.120949 0.662935
vt 0.147312 0.508646
vt 0.279127 0.662935
vt 0.252764 0.508646
vt 0.384578 0.662935
vt 0.358215 0.508646
vt 0.49003 0.662935
vt 0.463667 0.508646
vt 0.595482 0.662935
vt 0.569119 0.508646
vt 0.120949 0.662935
vt 0.595482 0.662935
vt 0.0945862 0.508646
vt 0.173675 0.764183
vt 0.120949 0.764183
vt 0.279127 0.764183
vt 0.384578 0.764183
vt 0.49003 0.764183
vt 0.595482 0.764183
vt 0.595482 0.764183
vt 0.120949 0.764183
vt 0.173675 0.839409
vt 0.120949 0.839409
vt 0.279127 0.839409
vt 0.384578 0.839409
vt 0.49003 0.839409
vt 0.595482 0.839409
vt 0.120949 0.839409
vt 0.595482 0.839409
vt 0.173675 0.867158
vt 0.120949 0.867158
vt 0.226401 0.867158
vt 0.279127 0.867158
vt 0.384578 0.867158
vt 0.49003 0.867158
vt 0.595482 0.867158
vt 0.595482 0.867158
vt 0.120949 0.867158
vt 0.678081 0.874167
vt 0.769291 0.866613
vt 0.684636 0.931652
vt 0.687206 0.843294
vt 0.712225 0.792263
vt 0.769291 0.866613
vt 0.729035 0.77949
vt 0.836013 0.789218
vt 0.729035 0.77949
vt 0.87615 0.880815
vt 0.811976 0.977729
vt 0.173675 0.98974
vt 0.120949 0.98974
vt 0.247892 0.98974
vt 0.205886 0.98974
vt 0.226401 0.867158
vt 0.120949 0.98974
vt 0.595482 0.98974
vt 0.595482 0.98974
vt 0.49003 0.98974
vt 0.384578 0.98974
vt 0.279127 0.98974
vt 0.279127 0.98974
vt 0.939697 0.0063839
vt 0.939709 0.0572078
vt 0.923218 0.0572664
vt 0.923207 0.00644249
vt 0.93975 0.44553
vt 0.939762 0.495752
vt 0.923271 0.495811
vt 0.92326 0.445588
vt 0.939739 0.286743
vt 0.923249 0.286801
vt 0.939728 0.239527
vt 0.923238 0.239586
vt 0.939719 0.197725
vt 0.923228 0.197783
vt 0.906728 0.0573248
vt 0.906716 0.00650096
vt 0.906781 0.495869
vt 0.906769 0.445647
vt 0.906758 0.28686
vt 0.906747 0.239644
vt 0.906738 0.197842
vt 0.906728 0.0573249
vt 0.939697 0.0063839
vt 0.923207 0.00644249
vt 0.923218 0.0572664
vt 0.939709 0.0572078
vt 0.93975 0.44553
vt 0.92326 0.445588
vt 0.923271 0.495811
vt 0.939762 0.495752
vt 0.939739 0.286743
vt 0.923249 0.286801
vt 0.939728 0.239527
vt 0.923238 0.239586
vt 0.939719 0.197725
vt 0.923228 0.197783
vt 0.906728 0.0573249
vt 0.906738 0.197842
vt 0.906747 0.239644
vt 0.906758 0.28686
vt 0.906769 0.445647
vt 0.906781 0.495869
vt 0.906716 0.00650096
vt 0.906728 0.0573248


#
# MESH 000
#
g surface_000
usemtl surface_000
f 46/46/46 47/47/47 48/48/48
f 46/46/46 48/48/48 36/36/36
f 46/46/46 36/36/36 35/35/35
f 35/35/35 36/36/36 37/37/37
f 43/43/43 44/44/44 45/45/45
f 1/1/1 44/44/44 43/43/43
f 1/1/1 3/3/3 44/44/44
f 1/1/1 2/2/2 3/3/3
f 39/39/39 41/41/41 42/42/42
f 39/39/39 40/40/40 41/41/41
f 4/4/4 32/32/32 38/38/38
f 4/4/4 33/33/33 32/32/32
f 32/32/32 33/33/33 30/30/30
f 32/32/32 30/30/30 34/34/34
f 30/30/30 28/28/28 29/29/29
f 30/30/30 31/31/31 28/28/28
f 24/24/24 26/26/26 27/27/27
f 24/24/24 25/25/25 26/26/26
f 23/23/23 10/10/10 9/9/9
f 8/8/8 9/9/9 10/10/10
f 20/20/20 19/19/19 22/22/22
f 19/19/19 20/20/20 21/21/21
f 18/18/18 16/16/16 15/15/15
f 15/15/15 16/16/16 17/17/17
f 11/11/11 13/13/13 14/14/14
f 11/11/11 12/12/12 13/13/13
f 4/4/4 6/6/6 7/7/7
f 4/4/4 5/5/5 6/6/6
f 93/93/93 92/92/92 94/94/94
f 110/110/110 103/103/103 82/82/82
f 110/110/110 101/101/101 103/103/103
f 101/101/101 102/102/102 103/103/103
f 102/102/102 79/79/79 103/103/103
f 102/102/102 99/99/99 79/79/79
f 79/79/79 99/99/99 100/100/100
f 79/79/79 100/100/100 80/80/80
f 72/72/72 79/79/79 80/80/80
f 72/72/72 71/71/71 79/79/79
f 81/81/81 79/79/79 71/71/71
f 81/81/81 71/71/71 73/73/73
f 81/81/81 73/73/73 82/82/82
f 82/82/82 73/73/73 74/74/74
f 82/82/82 74/74/74 83/83/83
f 82/82/82 83/83/83 108/108/108
f 82/82/82 108/108/108 109/109/109
f 71/71/71 72/72/72 64/64/64
f 71/71/71 64/64/64 63/63/63
f 71/71/71 63/63/63 65/65/65
f 71/71/71 65/65/65 73/73/73
f 73/73/73 65/65/65 66/66/66
f 73/73/73 66/66/66 74/74/74
f 74/74/74 66/66/66 67/67/67
f 74/74/74 67/67/67 75/75/75
f 83/83/83 74/74/74 75/75/75
f 49/49/49 63/63/63 64/64/64
f 63/63/63 49/49/49 52/52/52
f 63/63/63 52/52/52 65/65/65
f 65/65/65 52/52/52 54/54/54
f 65/65/65 54/54/54 66/66/66
f 66/66/66 54/54/54 56/56/56
f 66/66/66 56/56/56 67/67/67
f 67/67/67 56/56/56 58/58/58
f 67/67/67 58/58/58 68/68/68
f 75/75/75 67/67/67 68/68/68
f 49/49/49 64/64/64 50/50/50
f 49/49/49 50/50/50 51/51/51
f 58/58/58 56/56/56 59/59/59
f 56/56/56 54/54/54 57/57/57
f 54/54/54 52/52/52 55/55/55
f 52/52/52 49/49/49 53/53/53
f 75/75/75 68/68/68 76/76/76
f 84/84/84 75/75/75 76/76/76
f 83/83/83 75/75/75 84/84/84
f 107/107/107 83/83/83 84/84/84
f 107/107/107 108/108/108 83/83/83
f 84/84/84 76/76/76 85/85/85
f 106/106/106 84/84/84 85/85/85
f 106/106/106 107/107/107 84/84/84
f 104/104/104 105/105/105 86/86/86
f 104/104/104 86/86/86 87/87/87
f 86/86/86 77/77/77 87/87/87
f 86/86/86 78/78/78 77/77/77
f 77/77/77 78/78/78 69/69/69
f 77/77/77 69/69/69 70/70/70
f 69/69/69 60/60/60 70/70/70
f 69/69/69 61/61/61 60/60/60
f 60/60/60 61/61/61 62/62/62
f 95/95/95 89/89/89 96/96/96
f 89/89/89 95/95/95 97/97/97
f 89/89/89 97/97/97 98/98/98
f 89/89/89 98/98/98 90/90/90
f 88/88/88 89/89/89 90/90/90
f 88/88/88 91/91/91 89/89/89
f 89/89/89 91/91/91 92/92/92
f 135/135/135 153/153/153 154/154/154
f 135/135/135 134/134/134 153/153/153
f 133/133/133 134/134/134 135/135/135
f 133/133/133 135/135/135 136/136/136
f 145/145/145 136/136/136 135/135/135
f 145/145/145 135/135/135 146/146/146
f 145/145/145 146/146/146 144/144/144
f 145/145/145 144/144/144 143/143/143
f 143/143/143 144/144/144 142/142/142
f 143/143/143 142/142/142 141/141/141
f 137/137/137 141/141/141 142/142/142
f 135/135/135 148/148/148 146/146/146
f 144/144/144 146/146/146 148/148/148
f 144/144/144 148/148/148 149/149/149
f 142/142/142 144/144/144 149/149/149
f 142/142/142 149/149/149 150/150/150
f 150/150/150 138/138/138 142/142/142
f 137/137/137 142/142/142 138/138/138
f 137/137/137 138/138/138 139/139/139
f 137/137/137 139/139/139 140/140/140
f 135/135/135 147/147/147 148/148/148
f 150/150/150 151/151/151 138/138/138
f 139/139/139 138/138/138 151/151/151
f 139/139/139 151/151/151 152/152/152
f 114/114/114 125/125/125 126/126/126
f 114/114/114 113/113/113 125/125/125
f 111/111/111 113/113/113 114/114/114
f 111/111/111 112/112/112 113/113/113
f 113/113/113 112/112/112 123/123/123
f 113/113/113 123/123/123 124/124/124
f 132/132/132 113/113/113 124/124/124
f 132/132/132 124/124/124 131/131/131
f 124/124/124 130/130/130 131/131/131
f 124/124/124 122/122/122 130/130/130
f 122/122/122 129/129/129 130/130/130
f 123/123/123 122/122/122 124/124/124
f 123/123/123 121/121/121 122/122/122
f 121/121/121 120/120/120 122/122/122
f 122/122/122 120/120/120 129/129/129
f 118/118/118 129/129/129 120/120/120
f 118/118/118 128/128/128 129/129/129
f 118/118/118 127/127/127 128/128/128
f 118/118/118 117/117/117 127/127/127
f 115/115/115 117/117/117 118/118/118
f 115/115/115 116/116/116 117/117/117
f 121/121/121 119/119/119 120/120/120
f 119/119/119 118/118/118 120/120/120
f 119/119/119 115/115/115 118/118/118

