#
# OBJECT NAME
#
o model_2747
mtllib 2747.mtl

#
# VERTEX BUFFER 000
#
v -0.5 0.899901 0.5
v -0.140302 0.685426 0.5
v -0.185505 1 0.5
v -0.388693 1 0.5
v 0 1 0.216886
v 0.0895206 1 0.178912
v 0.0988295 1 0
v -0.185505 1 0
v -0.256431 0.695896 -0.165676
v -0.5 0.685426 0.092642
v -0.256431 0.697576 0.0462185
v -0.5 0 0.5
v -0.5 0.685426 0.092642
v -0.5 0.517851 -0.181024
v -0.185505 1 0
v -0.256431 0.695896 -0.165676
v -0.256431 0.697576 0.0462185
v -0.284598 0.685426 -0.5
v -0.5 0.517851 -0.181024
v -0.256431 0.695896 -0.165676
v 0.497419 1 -0.5
v -0.284598 0.685426 -0.5
v -0.1494 1 -0.5
v 0.5 0 -0.5
v 0.5 0 0.5
v -0.5 0 0.5
v -0.5 0 -0.5
v -0.5 0.382966 -0.5
v 0.464225 0.685425 -0.093319
v 0.464225 1 -0.181877
v 0.0988295 1 0
v 0.140171 0.685426 0.010542
v 0 1 0.216886
v -0.185505 1 0.5
v -0.140302 0.685426 0.5
v -0.0139057 0.685426 0.208877
v 0.0895206 1 0.178912
v 0 1 0.216886
v -0.0139057 0.685426 0.208877
v 0.102531 0.685426 0.178912
v 0.0988295 1 0
v 0.0895206 1 0.178912
v 0.102531 0.685426 0.178912
v 0.140171 0.685426 0.010542
v -0.00972985 0.671439 0.5
v 0.102531 0.685426 0.178912
v -0.0139057 0.685426 0.208877
v -0.140302 0.685426 0.5
v 0.5 0.105053 0.5
v 0.500979 0.180019 0.37399
v 0.354289 0.180019 0.503055
v 0.140171 0.685426 0.010542
v 0.188116 0.20036 0.178048
v 0.5 0.20036 0.151606
v 0.464225 0.685425 -0.093319
v 0.188116 0.20036 0.178048
v 0.140171 0.685426 0.010542
v 0.102531 0.685426 0.178912
v 0.188116 0.20036 0.178048
v 0.155926 0.20036 0.5
v 0.500979 0.180019 0.37399
v 0.5 0.20036 0.151606
v 0.354289 0.180019 0.503055
v -0.5 0.517851 -0.181024
v -0.388693 1 0.5
v -0.5 1 0.406175
v -0.5 0.899901 0.5
v 0.5 0 -0.5
v 0.497419 1 -0.5
v 0.464225 0.685425 -0.093319
v 0.5 0.20036 0.151606
v -0.185505 1 0
v -0.5 0.685426 0.092642
v -0.5 1 0.159663
v 0.155926 0.20036 0.5
v 0.5 0 0.5
v 0.5 0.105053 0.5
v 0.354289 0.180019 0.503055
v -0.5 0 0.5
v -0.1494 1 -0.5
v 0.464225 1 -0.181877
v 0.497419 1 -0.5
v -0.5 1 0.159663
v -0.185505 1 0.5
v -0.5 1 0.406175
v -0.388693 1 0.5
v -0.5 0 -0.5
v -0.5 0.382966 -0.5
v 0.5 0 -0.5
v 0.464225 1 -0.181877
v 0.5 0 0.5
v 0.500979 0.180019 0.37399
v 0.5 0.105053 0.5
v -0.5 0.382966 -0.5
v -0.5 0 -0.5
v -0.5 0.899901 0.5
v -0.5 1 0.406175
v -0.5 1 0.159663
v -0.00972985 0.671439 0.5
v -0.00972985 0.671439 0.5
v 0.155926 0.20036 0.5
v -0.284598 0.685426 -0.5
v -0.1494 1 -0.5
v -0.256431 0.697576 0.0462185

vn -0.761719 0 0.647461
vn 0 0 1
vn 0 0.888672 0.458252
vn 0 0.620117 0.78418
vn 0 1 0
vn 0 1 -3.57628e-007
vn 0 1 1.19209e-007
vn 0 1 0
vn -0.877441 0.466553 -0.108521
vn -0.400391 0.849609 -0.343018
vn -0.651367 0.758301 -0.00600815
vn -0.784668 0 0.619141
vn -1 0 0
vn -1 0 0
vn -0.964844 0.255615 -0.056366
vn -0.877441 0.466553 -0.108521
vn -0.651367 0.758301 -0.00600815
vn -0.72168 0.679688 -0.130249
vn -0.719727 0.682129 -0.127686
vn -0.59082 0.806152 0.0245209
vn 0.546875 0.468018 -0.693848
vn 0 0 -1
vn 0 0.810547 -0.584961
vn 0 -1 0
vn 0 -1 0
vn 0 -1 0
vn 0 -1 0
vn -0.791016 0.562988 -0.238159
vn 0.377197 0.168213 0.910156
vn 0.377197 0.168213 0.910156
vn 0.377197 0.168213 0.910156
vn 0.377197 0.168213 0.910156
vn 0.87793 0.0375977 0.476807
vn 0.87793 0.0375977 0.476807
vn 0.87793 0.0375977 0.476807
vn 0.87793 0.0375977 0.476807
vn 0.313232 -0.0125275 0.949219
vn 0.313232 -0.0125275 0.949219
vn 0.313232 -0.0125275 0.949219
vn 0.313232 -0.0125275 0.949219
vn 0.986816 0.0874634 0.133423
vn 0.986816 0.0874634 0.133423
vn 0.986816 0.0874634 0.133423
vn 0.986816 0.0874634 0.133423
vn 0.0621338 0.996582 0.0469971
vn 0.0621338 0.996582 0.0469971
vn 0.0621338 0.996582 0.0469971
vn 0.0621338 0.996582 0.0469971
vn 0.411865 0.78125 0.468018
vn 0.411865 0.78125 0.468018
vn 0.411865 0.78125 0.468018
vn 0.184082 0.397949 0.898438
vn 0.184082 0.397949 0.898438
vn 0.184082 0.397949 0.898438
vn 0.184082 0.397949 0.898438
vn 0.944824 0.243652 0.217285
vn 0.961426 0.169312 0.214966
vn 0.947754 0.232178 0.217041
vn 0.0401001 0.998047 0.0395813
vn 0.0428772 0.998047 0.0430298
vn 0.0417786 0.998047 0.041687
vn 0.0401001 0.998047 0.0395813
vn 0.0996094 0.988281 0.11322
vn -0.508301 0.733887 -0.449463
vn -0.523438 0.58252 0.621094
vn -0.523438 0.58252 0.621094
vn -0.523438 0.58252 0.621094
vn 0.660645 0.0196533 -0.75
vn 0.546875 0.468018 -0.693848
vn 0.998535 0.0314331 0.0368042
vn 0.999023 0.0216522 0.023941
vn -0.36792 0.095459 -0.924805
vn -0.359131 0.0855103 -0.929199
vn -0.44458 0.186523 -0.875977
vn -0.000107408 -0.000387907 0.999512
vn 0.710938 -0.00656891 0.702637
vn 0.734375 -0.0198212 0.677734
vn -0.00605774 -0.0218658 0.999512
vn -0.784668 0 0.619141
vn 0 0.810547 -0.584961
vn 0.194092 0.980469 0.0202484
vn 0.546875 0.468018 -0.693848
vn -0.52832 0.848633 0
vn 0 0.888672 0.458252
vn -0.826172 0.562988 0
vn 0 0.620117 0.78418
vn -0.640137 0 -0.768066
vn -0.54541 0 -0.837891
vn 0.660645 0.0196533 -0.75
vn 0.194092 0.980469 0.0202484
vn 0.710938 -0.00656891 0.702637
vn 0.999512 -0.00672531 -0.00183964
vn 0.734375 -0.0198212 0.677734
vn -0.54541 0 -0.837891
vn -0.640137 0 -0.768066
vn -0.761719 0 0.647461
vn -0.826172 0.562988 0
vn -0.52832 0.848633 0
vn 0 0 1
vn 0.943848 0.247803 0.217407
vn 0.943848 0.247803 0.217407
vn -0.916504 0.393799 0.0648804
vn -0.946289 0.321533 -0.0104599
vn -0.180908 -0.106934 -0.977539

vt 0.513644 0.429683
vt 0.599359 0.341408
vt 0.58303 0.48202
vt 0.541577 0.48202
vt 0.432111 0.552924
vt 0.455204 0.573882
vt 0.457039 0.676593
vt 0.372697 0.667938
vt 0.616362 0.582427
vt 0.692215 0.442051
vt 0.681505 0.582427
vt 0.492014 0.0108819
vt 0.402151 0.342905
vt 0.341198 0.246302
vt 0.721553 0.97283
vt 0.681025 0.819832
vt 0.732852 0.849738
vt 0.599259 0.811378
vt 0.675262 0.669121
vt 0.681025 0.819832
vt 0.0235723 0.481189
vt 0.192067 0.344374
vt 0.164216 0.477478
vt 0.00396095 0.507277
vt 0.247321 0.507277
vt 0.247321 0.993321
vt 0.00396095 0.993321
vt 0.603018 0.641198
vt 0.893458 0.980563
vt 0.992368 0.980563
vt 0.991731 0.694828
vt 0.893218 0.78098
vt 0.55866 0.679645
vt 0.466486 0.668142
vt 0.482475 0.518393
vt 0.578605 0.539851
vt 0.591323 0.673734
vt 0.55866 0.679645
vt 0.578605 0.539851
vt 0.605235 0.533446
vt 0.878795 0.980563
vt 0.819604 0.980563
vt 0.819604 0.757728
vt 0.878795 0.757895
vt 0.852476 0.28198
vt 0.88545 0.46448
vt 0.856232 0.441867
vt 0.815148 0.281492
vt 0.259693 0.778444
vt 0.302105 0.781533
vt 0.261769 0.87819
vt 0.688701 0.321883
vt 0.688701 0.152717
vt 0.789613 0.146313
vt 0.789613 0.332171
vt 0.819903 0.4131
vt 0.878795 0.751902
vt 0.819604 0.751731
vt 0.354652 0.966311
vt 0.268367 0.983507
vt 0.302105 0.781533
vt 0.36167 0.800442
vt 0.261769 0.87819
vt 0.607213 0.427865
vt 0.312176 0.742788
vt 0.275357 0.741959
vt 0.310518 0.673396
vt 0.992005 0.00691521
vt 0.992005 0.474952
vt 0.90333 0.338456
vt 0.84018 0.103527
vt 0.990258 0.522334
vt 0.895452 0.710702
vt 0.895452 0.522334
vt 0.660551 0.110678
vt 0.751149 0.00960803
vt 0.751149 0.0555038
vt 0.695956 0.0996304
vt 0.513644 0.00960803
vt 0.385482 0.973635
vt 0.566296 0.791314
vt 0.566296 0.978437
vt 0.277419 0.57147
vt 0.367503 0.373066
vt 0.277419 0.428515
vt 0.308515 0.373066
vt 0.247186 0.0102097
vt 0.246934 0.187945
vt 0.0217918 0.0102097
vt 0.924151 0.475691
vt 0.755918 0.00691521
vt 0.791531 0.0934056
vt 0.755918 0.053976
vt 0.259315 0.185062
vt 0.260042 0.0108819
vt 0.492326 0.434536
vt 0.470485 0.486276
vt 0.419624 0.486276
vt 0.625277 0.341408
vt 0.706344 0.751786
vt 0.706415 0.4131
vt 0.599259 0.811378
vt 0.599177 0.971035
vt 0.967953 0.666231


#
# MESH 000
#
g surface_000
usemtl surface_000
f 65/65/65 66/66/66 67/67/67
f 49/49/49 50/50/50 51/51/51
f 72/72/72 104/104/104 73/73/73
f 72/72/72 73/73/73 74/74/74
f 102/102/102 16/16/16 103/103/103
f 103/103/103 16/16/16 15/15/15
f 15/15/15 16/16/16 17/17/17
f 56/56/56 100/100/100 101/101/101
f 56/56/56 58/58/58 100/100/100
f 56/56/56 57/57/57 58/58/58
f 2/2/2 75/75/75 99/99/99
f 2/2/2 79/79/79 75/75/75
f 75/75/75 79/79/79 76/76/76
f 75/75/75 76/76/76 77/77/77
f 75/75/75 77/77/77 78/78/78
f 1/1/1 79/79/79 2/2/2
f 1/1/1 2/2/2 3/3/3
f 1/1/1 3/3/3 4/4/4
f 96/96/96 97/97/97 98/98/98
f 96/96/96 98/98/98 13/13/13
f 96/96/96 13/13/13 12/12/12
f 12/12/12 13/13/13 14/14/14
f 12/12/12 14/14/14 94/94/94
f 12/12/12 94/94/94 95/95/95
f 91/91/91 92/92/92 93/93/93
f 91/91/91 71/71/71 92/92/92
f 68/68/68 71/71/71 91/91/91
f 68/68/68 70/70/70 71/71/71
f 68/68/68 69/69/69 70/70/70
f 70/70/70 69/69/69 90/90/90
f 87/87/87 88/88/88 22/22/22
f 87/87/87 22/22/22 89/89/89
f 89/89/89 22/22/22 21/21/21
f 21/21/21 22/22/22 23/23/23
f 84/84/84 85/85/85 86/86/86
f 84/84/84 83/83/83 85/85/85
f 5/5/5 83/83/83 84/84/84
f 5/5/5 8/8/8 83/83/83
f 5/5/5 7/7/7 8/8/8
f 8/8/8 7/7/7 80/80/80
f 80/80/80 7/7/7 81/81/81
f 80/80/80 81/81/81 82/82/82
f 5/5/5 6/6/6 7/7/7
f 10/10/10 9/9/9 64/64/64
f 9/9/9 10/10/10 11/11/11
f 61/61/61 60/60/60 63/63/63
f 59/59/59 60/60/60 61/61/61
f 59/59/59 61/61/61 62/62/62
f 52/52/52 54/54/54 55/55/55
f 52/52/52 53/53/53 54/54/54
f 45/45/45 47/47/47 48/48/48
f 45/45/45 46/46/46 47/47/47
f 41/41/41 43/43/43 44/44/44
f 41/41/41 42/42/42 43/43/43
f 37/37/37 39/39/39 40/40/40
f 37/37/37 38/38/38 39/39/39
f 33/33/33 35/35/35 36/36/36
f 33/33/33 34/34/34 35/35/35
f 29/29/29 31/31/31 32/32/32
f 29/29/29 30/30/30 31/31/31
f 28/28/28 19/19/19 18/18/18
f 18/18/18 19/19/19 20/20/20
f 24/24/24 26/26/26 27/27/27
f 24/24/24 25/25/25 26/26/26

