g t024v001_m
v -0.3477923 0 0.1660239
v -0.3477923 0.30929 0.1660239
v 0.3477923 0.30929 0.1660239
v 0.3477923 0 0.1660239
v -0.1964439 1.339116 -0.05779133
v 0 1.010926 0.08516186
v -0.2285436 0.9585295 0.08516186
v 0.1964439 1.339116 -0.05779133
v 0.228544 0.9585295 0.08516186
v 0.1749968 1.592959 -0.2597083
v -0.1749968 1.592959 -0.2597083
v -0.3477923 0.30929 -0.4671547
v -0.3477923 0 -0.4671547
v 0.3477923 0 -0.4671547
v 0.3477923 0.30929 -0.4671547
v -0.3010005 0.3355791 -0.4671547
v 0.3010009 0.3355791 -0.4671547
v -0.3477923 0 -0.4671547
v -0.3477923 0 0.1660239
v 0.3477923 0 0.1660239
v 0.3477923 0 -0.4671547
v 0.3477923 0 0.1660239
v 0.3477923 0.30929 0.1660239
v 0.3477923 0.30929 -0.4671547
v 0.3477923 0 -0.4671547
v -0.3477923 0 -0.4671547
v -0.3477923 0.30929 -0.4671547
v -0.3477923 0.30929 0.1660239
v -0.3477923 0 0.1660239
v -0.3477923 0.30929 -0.4671547
v -0.3010005 0.3355791 -0.4671547
v -0.3010005 0.3355791 0.1252645
v -0.3477923 0.30929 0.1660239
v 0.3477923 0.30929 0.1660239
v 0.3010009 0.3355791 0.1252645
v 0.3010009 0.3355791 -0.4671547
v 0.3477923 0.30929 -0.4671547
v -0.3477923 0.30929 0.1660239
v -0.3010005 0.3355791 0.1252645
v 0.3010009 0.3355791 0.1252645
v 0.3477923 0.30929 0.1660239
v -0.1964439 1.339116 -0.05779133
v -0.2285436 0.9585295 0.08516186
v -0.2285436 0.9585295 -0.4671547
v -0.1749968 1.592959 -0.4671547
v -0.1749968 1.592959 -0.2597083
v -0.1749968 1.592959 -0.4671547
v -0.2285436 0.9585295 -0.4671547
v 0.228544 0.9585295 -0.4671547
v 0.1749968 1.592959 -0.4671547
v 0.1749968 1.592959 -0.4671547
v 0.1964439 1.339116 -0.05779133
v 0.1749968 1.592959 -0.2597083
v 0.228544 0.9585295 -0.4671547
v 0.228544 0.9585295 0.08516186
v -0.1749968 1.592959 -0.2597083
v -0.1749968 1.592959 -0.4671547
v 0.1749968 1.592959 -0.4671547
v 0.1749968 1.592959 -0.2597083
v -0.3010005 0.3355791 -0.4671547
v -0.2692895 0.9005676 -0.4671547
v -0.2692895 0.9005676 0.1252645
v -0.3010005 0.3355791 0.1252645
v -0.2692895 0.9005676 -0.4671547
v -0.3010005 0.3355791 -0.4671547
v 0.3010009 0.3355791 -0.4671547
v 0.2692895 0.9005676 -0.4671547
v 0.3010009 0.3355791 0.1252645
v 0.2692895 0.9005676 0.1252645
v 0.2692895 0.9005676 -0.4671547
v 0.3010009 0.3355791 -0.4671547
v 0 1.010926 0.08516186
v 0.228544 0.9585295 0.08516186
v 0.2692895 0.9005676 0.1252645
v 0 0.9605647 0.1252645
v -0.2692895 0.9005676 0.1252645
v -0.2285436 0.9585295 0.08516186
v -0.2692895 0.9005676 -0.4671547
v -0.2285436 0.9585295 -0.4671547
v -0.2285436 0.9585295 0.08516186
v -0.2692895 0.9005676 0.1252645
v -0.2285436 0.9585295 -0.4671547
v -0.2692895 0.9005676 -0.4671547
v 0.2692895 0.9005676 -0.4671547
v 0.228544 0.9585295 -0.4671547
v 0.2692895 0.9005676 0.1252645
v 0.228544 0.9585295 0.08516186
v 0.228544 0.9585295 -0.4671547
v 0.2692895 0.9005676 -0.4671547
v -0.3010005 0.3355791 0.1252645
v -0.2692895 0.9005676 0.1252645
v 0 0.9605647 0.1252645
v 0.3010009 0.3355791 0.1252645
v 0.2692895 0.9005676 0.1252645
vt 0.4389648 0.01602173
vt 0.4389648 0.1077271
vt 0.840332 0.1077271
vt 0.840332 0.01602173
vt 0.5390625 0.5268555
vt 0.6396484 0.4331055
vt 0.5112305 0.4177246
vt 0.7397461 0.5268555
vt 0.7680664 0.4177246
vt 0.7231445 0.605957
vt 0.5556641 0.605957
vt 0.4484863 0.7202148
vt 0.4484863 0.628418
vt 0.03591919 0.628418
vt 0.03591919 0.7202148
vt 0.4206543 0.7280273
vt 0.06365967 0.7280273
vt 0.9814453 0.9912109
vt 0.9814453 0.8798828
vt 0.7729492 0.8798828
vt 0.7729492 0.9912109
vt 0.01187897 0.01602173
vt 0.01187897 0.1077271
vt 0.3830566 0.1077271
vt 0.3830566 0.01602173
vt 0.3830566 0.01602173
vt 0.3830566 0.1077271
vt 0.01187897 0.1077271
vt 0.01187897 0.01602173
vt 0.3830566 0.1271973
vt 0.3830566 0.142334
vt 0.0357666 0.142334
vt 0.01187897 0.1271973
vt 0.01187897 0.1271973
vt 0.0357666 0.142334
vt 0.3830566 0.142334
vt 0.3830566 0.1271973
vt 0.4389648 0.1271973
vt 0.4660645 0.142334
vt 0.8129883 0.142334
vt 0.840332 0.1271973
vt 0.1430664 0.5268555
vt 0.05926514 0.4140625
vt 0.3830566 0.4140625
vt 0.3830566 0.6000977
vt 0.2612305 0.6000977
vt 0.7597656 0.8613281
vt 0.7915039 0.6645508
vt 0.5200195 0.6645508
vt 0.5517578 0.8613281
vt 0.3830566 0.6000977
vt 0.1430664 0.5268555
vt 0.2612305 0.6000977
vt 0.3830566 0.4140625
vt 0.05926514 0.4140625
vt 0.07141113 0.9316406
vt 0.07141113 0.9887695
vt 0.2763672 0.9887695
vt 0.2763672 0.9316406
vt 0.3830566 0.1669922
vt 0.3830566 0.3344727
vt 0.0357666 0.3344727
vt 0.0357666 0.1669922
vt 0.4240723 0.9145508
vt 0.4240723 0.746582
vt 0.06707764 0.746582
vt 0.06707764 0.9145508
vt 0.0357666 0.1669922
vt 0.0357666 0.3344727
vt 0.3830566 0.3344727
vt 0.3830566 0.1669922
vt 0.6396484 0.3881836
vt 0.7680664 0.3881836
vt 0.7924805 0.3710938
vt 0.6396484 0.3710938
vt 0.4868164 0.3710938
vt 0.5112305 0.3881836
vt 0.3830566 0.3710938
vt 0.3830566 0.3881836
vt 0.05926514 0.3881836
vt 0.0357666 0.3710938
vt 0.7885742 0.644043
vt 0.8125 0.6269531
vt 0.4931641 0.6269531
vt 0.5175781 0.644043
vt 0.0357666 0.3710938
vt 0.05926514 0.3881836
vt 0.3830566 0.3881836
vt 0.3830566 0.3710938
vt 0.4660645 0.1669922
vt 0.4660645 0.3344727
vt 0.6396484 0.3522949
vt 0.8129883 0.1669922
vt 0.8129883 0.3344727
vn 0 0 1
vn 0 0 1
vn 0 0 1
vn 0 0 1
vn -0.007778168 0.5429688 0.8398438
vn 0 0.3735352 0.9277344
vn -0.08172607 0.3564453 0.9306641
vn 0.007778168 0.5429688 0.8398438
vn 0.08172607 0.3564453 0.9306641
vn 0 0.6225586 0.7827148
vn 0 0.6225586 0.7827148
vn 0 0 -1
vn 0 0 -1
vn 0 0 -1
vn 0 0 -1
vn 0 0 -1
vn 0 0 -1
vn 0 -1 0
vn 0 -1 0
vn 0 -1 0
vn 0 -1 0
vn 1 0 0
vn 1 0 0
vn 1 0 0
vn 1 0 0
vn -1 0 0
vn -1 0 0
vn -1 0 0
vn -1 0 0
vn -0.4897461 0.871582 0
vn -0.4897461 0.871582 0
vn -0.4897461 0.871582 0
vn -0.4897461 0.871582 0
vn 0.4897461 0.871582 0
vn 0.4897461 0.871582 0
vn 0.4897461 0.871582 0
vn 0.4897461 0.871582 0
vn 0 0.840332 0.5419922
vn 0 0.840332 0.5419922
vn 0 0.840332 0.5419922
vn 0 0.840332 0.5419922
vn -0.996582 0.08404541 0
vn -0.996582 0.08404541 0
vn -0.996582 0.08404541 0
vn -0.996582 0.08410645 -4.512072E-05
vn -0.996582 0.08410645 -4.512072E-05
vn 0 0 -1
vn 0 0 -1
vn 0 0 -1
vn 0 0 -1
vn 0.996582 0.08410645 -4.482269E-05
vn 0.996582 0.08410645 -4.482269E-05
vn 0.996582 0.08410645 -4.482269E-05
vn 0.996582 0.08410645 -4.482269E-05
vn 0.996582 0.08404541 0
vn 0 1 0
vn 0 1 0
vn 0 1 0
vn 0 1 0
vn -0.9985352 0.05603027 0
vn -0.9985352 0.05603027 0
vn -0.9985352 0.05603027 0
vn -0.9985352 0.05603027 0
vn 0 0 -1
vn 0 0 -1
vn 0 0 -1
vn 0 0 -1
vn 0.9985352 0.05603027 0
vn 0.9985352 0.05603027 0
vn 0.9985352 0.05603027 0
vn 0.9985352 0.05603027 0
vn 0 0.6289063 0.7773438
vn 0.140625 0.6225586 0.7695313
vn 0.140625 0.6225586 0.7695313
vn 0 0.6289063 0.7773438
vn -0.140625 0.6225586 0.7695313
vn -0.140625 0.6225586 0.7695313
vn -0.8178711 0.5751953 0
vn -0.8178711 0.5751953 0
vn -0.8178711 0.5751953 0
vn -0.8178711 0.5751953 0
vn 0 0 -1
vn 0 0 -1
vn 0 0 -1
vn 0 0 -1
vn 0.8178711 0.5751953 0
vn 0.8178711 0.5751953 0
vn 0.8178711 0.5751953 0
vn 0.8178711 0.5751953 0
vn 0 0 1
vn 0 0 1
vn 0 0 1
vn 0 0 1
vn 0 0 1
g t024v001_m_0
f 3/3/3 2/2/2 1/1/1
f 4/4/4 3/3/3 1/1/1
f 7/7/7 6/6/6 5/5/5
f 6/6/6 8/8/8 5/5/5
f 6/6/6 9/9/9 8/8/8
f 5/5/5 8/8/8 10/10/10
f 11/11/11 5/5/5 10/10/10
f 14/14/14 13/13/13 12/12/12
f 15/15/15 14/14/14 12/12/12
f 15/15/15 12/12/12 16/16/16
f 17/17/17 15/15/15 16/16/16
f 20/20/20 19/19/19 18/18/18
f 21/21/21 20/20/20 18/18/18
f 24/24/24 23/23/23 22/22/22
f 25/25/25 24/24/24 22/22/22
f 28/28/28 27/27/27 26/26/26
f 29/29/29 28/28/28 26/26/26
f 32/32/32 31/31/31 30/30/30
f 33/33/33 32/32/32 30/30/30
f 36/36/36 35/35/35 34/34/34
f 37/37/37 36/36/36 34/34/34
f 40/40/40 39/39/39 38/38/38
f 41/41/41 40/40/40 38/38/38
f 44/44/44 43/43/43 42/42/42
f 44/44/44 42/42/42 45/45/45
f 42/42/42 46/46/46 45/45/45
f 49/49/49 48/48/48 47/47/47
f 50/50/50 49/49/49 47/47/47
f 53/53/53 52/52/52 51/51/51
f 52/52/52 54/54/54 51/51/51
f 52/52/52 55/55/55 54/54/54
f 58/58/58 57/57/57 56/56/56
f 59/59/59 58/58/58 56/56/56
f 62/62/62 61/61/61 60/60/60
f 63/63/63 62/62/62 60/60/60
f 66/66/66 65/65/65 64/64/64
f 67/67/67 66/66/66 64/64/64
f 70/70/70 69/69/69 68/68/68
f 71/71/71 70/70/70 68/68/68
f 74/74/74 73/73/73 72/72/72
f 75/75/75 74/74/74 72/72/72
f 75/75/75 72/72/72 76/76/76
f 72/72/72 77/77/77 76/76/76
f 80/80/80 79/79/79 78/78/78
f 81/81/81 80/80/80 78/78/78
f 84/84/84 83/83/83 82/82/82
f 85/85/85 84/84/84 82/82/82
f 88/88/88 87/87/87 86/86/86
f 89/89/89 88/88/88 86/86/86
f 92/92/92 91/91/91 90/90/90
f 93/93/93 92/92/92 90/90/90
f 93/93/93 94/94/94 92/92/92
