#
# OBJECT NAME
#
o model_4562
mtllib 4562.mtl

#
# VERTEX BUFFER 000
#
v -0.235156 1.58205 -0.503594
v -0.235156 1.58205 -0.35256
v 0.235156 1.58205 -0.503594
v 0.235156 1.58205 -0.35256
v -0.779506 0.351308 -0.35256
v -0.779506 1.3722 -0.35256
v -0.779506 0.351308 -0.503594
v -0.779506 1.3722 -0.503594
v -0.779506 1.3722 -0.35256
v -0.643815 1.27288 -0.35256
v -0.632048 1.49719 -0.35256
v -0.553942 1.35011 -0.35256
v -0.329786 1.49719 -0.35256
v -0.235156 1.58205 -0.35256
v -0.329786 1.49719 -0.503594
v -0.235156 1.58205 -0.503594
v -0.395567 -0.00923145 -0.35256
v -0.779506 0.351308 -0.35256
v -0.395567 -0.00923145 -0.503594
v -0.779506 0.351308 -0.503594
v -0.632048 1.49719 -0.35256
v -0.329786 1.49719 -0.35256
v -0.632048 1.49719 -0.503594
v -0.329786 1.49719 -0.503594
v -0.779506 1.3722 -0.35256
v -0.632048 1.49719 -0.35256
v -0.779506 1.3722 -0.503594
v -0.632048 1.49719 -0.503594
v -0.395567 -0.00923145 -0.35256
v -0.177879 0.160455 -0.35256
v -0.38177 0.172586 -0.35256
v -0.198501 0.315644 -0.35256
v -0.779506 0.351308 -0.35256
v -0.643815 0.41946 -0.35256
v -0.235156 1.58205 -0.35256
v -0.187369 1.43077 -0.35256
v 0.235156 1.58205 -0.35256
v 0.187369 1.43077 -0.35256
v -0.329786 1.49719 -0.35256
v -0.290564 1.35011 -0.35256
v -0.779506 1.3722 -0.503594
v -0.632048 1.49719 -0.503594
v -0.643815 1.27288 -0.503594
v -0.553942 1.35011 -0.503594
v -0.643815 0.41946 -0.503594
v -0.38177 0.172586 -0.503594
v -0.779506 0.351308 -0.503594
v -0.395567 -0.00923145 -0.503594
v -0.235156 1.58205 -0.503594
v -0.187369 1.43077 -0.503594
v -0.329786 1.49719 -0.503594
v -0.290564 1.35011 -0.503594
v -0.38177 0.172586 -0.503594
v -0.290564 1.35011 -0.503594
v -0.198501 0.315644 -0.503594
v -0.187369 1.43077 -0.503594
v 0.198501 0.315644 -0.503594
v 0.187369 1.43077 -0.503594
v -0.177879 0.160455 -0.503594
v -0.198501 0.315644 -0.503594
v 0.187369 1.43077 -0.503594
v 0.235156 1.58205 -0.503594
v -0.643815 0.41946 -0.503594
v -0.643815 1.27288 -0.503594
v -0.553942 1.35011 -0.503594
v -0.177879 0.160455 -0.35256
v -0.177879 0.160455 -0.503594
v 0.177879 0.160455 -0.35256
v 0.177879 0.160455 -0.503594
v -0.38177 0.172586 -0.35256
v -0.290564 1.35011 -0.35256
v -0.643815 0.41946 -0.35256
v -0.643815 1.27288 -0.35256
v -0.553942 1.35011 -0.35256
v -0.198501 0.315644 -0.35256
v -0.187369 1.43077 -0.35256
v 0.187369 1.43077 -0.35256
v 0.198501 0.315644 -0.35256
v 0.177879 0.160455 -0.503594
v 0.198501 0.315644 -0.503594
v 0.198501 0.315644 -0.35256
v 0.177879 0.160455 -0.35256
v 0.779506 0.351308 -0.35256
v 0.779506 0.351308 -0.503594
v 0.779506 1.3722 -0.35256
v 0.779506 1.3722 -0.503594
v 0.553942 1.35011 -0.35256
v 0.643815 1.27288 -0.35256
v 0.632048 1.49719 -0.35256
v 0.779506 1.3722 -0.35256
v 0.329786 1.49719 -0.35256
v 0.329786 1.49719 -0.503594
v 0.235156 1.58205 -0.35256
v 0.235156 1.58205 -0.503594
v 0.395567 -0.00923145 -0.35256
v 0.395567 -0.00923145 -0.503594
v 0.779506 0.351308 -0.35256
v 0.779506 0.351308 -0.503594
v 0.632048 1.49719 -0.35256
v 0.632048 1.49719 -0.503594
v 0.329786 1.49719 -0.35256
v 0.329786 1.49719 -0.503594
v 0.779506 1.3722 -0.35256
v 0.779506 1.3722 -0.503594
v 0.632048 1.49719 -0.35256
v 0.632048 1.49719 -0.503594
v 0.38177 0.172586 -0.35256
v 0.395567 -0.00923145 -0.35256
v 0.643815 0.41946 -0.35256
v 0.779506 0.351308 -0.35256
v 0.329786 1.49719 -0.35256
v 0.290564 1.35011 -0.35256
v 0.553942 1.35011 -0.503594
v 0.632048 1.49719 -0.503594
v 0.643815 1.27288 -0.503594
v 0.779506 1.3722 -0.503594
v 0.395567 -0.00923145 -0.503594
v 0.38177 0.172586 -0.503594
v 0.779506 0.351308 -0.503594
v 0.643815 0.41946 -0.503594
v 0.329786 1.49719 -0.503594
v 0.290564 1.35011 -0.503594
v 0.290564 1.35011 -0.503594
v 0.38177 0.172586 -0.503594
v 0.643815 0.41946 -0.503594
v 0.643815 1.27288 -0.503594
v 0.553942 1.35011 -0.503594
v 0.177879 0.160455 -0.35256
v 0.177879 0.160455 -0.503594
v 0.395567 -0.00923145 -0.35256
v 0.395567 -0.00923145 -0.503594
v 0.38177 0.172586 -0.35256
v 0.643815 0.41946 -0.35256
v 0.290564 1.35011 -0.35256
v 0.643815 1.27288 -0.35256
v 0.553942 1.35011 -0.35256
v -0.177879 0.160455 -0.35256
v -0.395567 -0.00923145 -0.35256
v -0.177879 0.160455 -0.503594
v -0.395567 -0.00923145 -0.503594
v 0.543334 0.885306 -0.340475
v 0.349541 0.945108 -0.340475
v 0.0833204 0.425293 -0.340475
v 0.0235188 0.619085 -0.340475
v 0.62023 0.701583 -0.340475
v 0.267044 0.348397 -0.340475
v 0.0487392 1.30517 -0.340475
v -0.127807 1.39334 -0.340475
v -0.336547 0.919887 -0.340475
v -0.424709 1.09643 -0.340475
v -0.201054 0.851243 -0.340475
v 0.117384 1.16968 -0.340475
v -0.320167 0.620121 -0.340475
v -0.20363 0.503584 -0.340475
v -0.733646 0.206305 -0.340475
v -0.61711 0.0897683 -0.340475
v -0.827898 0.1895 -0.327931
v -0.63575 -0.0026477 -0.327931
v -0.20363 0.503584 -0.340475
v -0.61711 0.0897683 -0.340475
v -0.20363 0.503584 -0.455464
v -0.61711 0.0897683 -0.455464
v -0.827212 -0.0019624 -0.327931
v -0.827898 0.1895 -0.327931
v -0.827212 -0.0019624 -0.455464
v -0.827898 0.1895 -0.455464
v -0.63575 -0.0026477 -0.327931
v -0.827212 -0.0019624 -0.327931
v -0.63575 -0.0026477 -0.455464
v -0.827212 -0.0019624 -0.455464
v -0.733646 0.206305 -0.340475
v -0.733646 0.206305 -0.455464
v -0.733646 0.206305 -0.340475
v -0.320167 0.620121 -0.340475
v -0.733646 0.206305 -0.455464
v -0.320167 0.620121 -0.455464
v -0.61711 0.0897683 -0.340475
v -0.61711 0.0897683 -0.455464
v -0.733646 0.206305 -0.455464
v -0.320167 0.620121 -0.455464
v -0.61711 0.0897683 -0.455464
v -0.20363 0.503584 -0.455464
v -0.827898 0.1895 -0.455464
v -0.63575 -0.0026477 -0.455464
v -0.827212 -0.0019624 -0.455464
v -0.827898 0.1895 -0.455464
v -0.733646 0.206305 -0.455464
v -0.63575 -0.0026477 -0.455464
v -0.61711 0.0897683 -0.455464
v -0.63575 -0.0026477 -0.327931
v -0.827898 0.1895 -0.327931
v -0.827212 -0.0019624 -0.327931

vn 0 1 0
vn 0 1 0
vn 0 1 0
vn 0 1 0
vn -1 0 0
vn -1 0 0
vn -1 0 0
vn -1 0 0
vn 1.19209e-007 0 1
vn 1.19209e-007 0 1
vn 0 0 1
vn 0 0 1
vn -0.66748 0.744141 0
vn -0.66748 0.744141 0
vn -0.66748 0.744141 0
vn -0.66748 0.744141 0
vn -0.684082 -0.728516 0
vn -0.684082 -0.728516 0
vn -0.684082 -0.728516 0
vn -0.684082 -0.728516 0
vn 0 1 0
vn 0 1 0
vn 0 1 0
vn 0 1 0
vn -0.646484 0.762695 0
vn -0.646484 0.762695 0
vn -0.646484 0.762695 0
vn -0.646484 0.762695 0
vn 0 0 1
vn 0 0 1
vn 0 0 1
vn 0 0 1
vn 1.19209e-007 0 1
vn 1.19209e-007 0 1
vn 0 0 1
vn 0 0 1
vn 0 0 1
vn 0 0 1
vn 0 0 1
vn 0 0 1
vn 0 0 -1
vn 0 0 -1
vn 0 0 -1
vn 0 0 -1
vn 0 0 -1
vn 0 0 -1
vn 0 0 -1
vn -1.19209e-007 0 -1
vn 0 0 -1
vn 0 0 -1
vn 0 0 -1
vn 1.78814e-007 0 -1
vn 0 0 -1
vn 1.78814e-007 0 -1
vn 0 0 -1
vn 0 0 -1
vn 0 0 -1
vn 0 0 -1
vn 0 0 -1
vn 0 0 -1
vn 0 0 -1
vn 0 0 -1
vn 0 0 -1
vn 0 0 -1
vn 0 0 -1
vn 0 -1 0
vn 0 -1 0
vn 0 -1 0
vn 0 -1 0
vn 0 0 1
vn 0 0 1
vn 1.19209e-007 0 1
vn 1.19209e-007 0 1
vn 0 0 1
vn 0 0 1
vn 0 0 1
vn 0 0 1
vn 0 0 1
vn 0 0 -1
vn 0 0 -1
vn 0 0 1
vn 0 0 1
vn 1 0 0
vn 1 0 0
vn 1 0 0
vn 1 0 0
vn 0 0 1
vn -1.78814e-007 0 1
vn 0 0 1
vn -1.78814e-007 0 1
vn 0.66748 0.744141 0
vn 0.66748 0.744141 0
vn 0.66748 0.744141 0
vn 0.66748 0.744141 0
vn 0.684082 -0.728516 0
vn 0.684082 -0.728516 0
vn 0.684082 -0.728516 0
vn 0.684082 -0.728516 0
vn 0 1 0
vn 0 1 0
vn 0 1 0
vn 0 1 0
vn 0.646484 0.762695 0
vn 0.646484 0.762695 0
vn 0.646484 0.762695 0
vn 0.646484 0.762695 0
vn 0 0 1
vn 0 0 1
vn -1.78814e-007 0 1
vn -1.78814e-007 0 1
vn 0 0 1
vn 0 0 1
vn 0 0 -1
vn 0 0 -1
vn 0 0 -1
vn 1.78814e-007 0 -1
vn 0 0 -1
vn 0 0 -1
vn 1.78814e-007 0 -1
vn 0 0 -1
vn 0 0 -1
vn 0 0 -1
vn 0 0 -1
vn 0 0 -1
vn 0 0 -1
vn 0 0 -1
vn 0 0 -1
vn -0.614746 -0.788574 0
vn -0.614746 -0.788574 0
vn -0.614746 -0.788574 0
vn -0.614746 -0.788574 0
vn 0 0 1
vn -1.78814e-007 0 1
vn 0 0 1
vn -1.78814e-007 0 1
vn 0 0 1
vn 0.614746 -0.788574 0
vn 0.614746 -0.788574 0
vn 0.614746 -0.788574 0
vn 0.614746 -0.788574 0
vn 0 0 1
vn 0 0 1
vn 0 0 1
vn 0 0 1
vn 0 0 1
vn 0 0 1
vn 0 0 1
vn 0 0 1
vn 0 0 1
vn 0 0 1
vn 0 0 1
vn 0 0 1
vn 1.19209e-007 0 1
vn 1.19209e-007 0 1
vn 0.0222778 0.0222778 0.999023
vn 0.02211 0.02211 0.999023
vn 0.111511 0.111511 0.987305
vn 0.111511 0.111511 0.987305
vn 0.707031 -0.706543 0
vn 0.707031 -0.706543 0
vn 0.707031 -0.706543 0
vn 0.707031 -0.706543 0
vn -0.999512 -0.00357819 0
vn -0.929688 0.367676 0
vn -0.999512 -0.00357819 0
vn -0.918945 0.393799 0
vn 0.358398 -0.933105 0
vn -0.00357819 -0.999512 0
vn 0.384521 -0.922852 0
vn -0.00357819 -0.999512 0
vn -0.175415 0.984375 0
vn -0.175415 0.984375 0
vn -0.707031 0.706543 0
vn -0.707031 0.706543 0
vn -0.707031 0.706543 0
vn -0.707031 0.706543 0
vn 0.97998 -0.197632 0
vn 0.97998 -0.197632 0
vn -1.19209e-007 0 -1
vn -1.19209e-007 0 -1
vn -1.19209e-007 0 -1
vn -1.19209e-007 0 -1
vn 0 0 -1
vn 0 0 -1
vn 0 0 -1
vn 4.17233e-007 3.57628e-007 -1
vn 4.17233e-007 3.57628e-007 -1
vn 4.17233e-007 3.57628e-007 -1
vn 4.17233e-007 3.57628e-007 -1
vn -3.57628e-007 0 1
vn -3.57628e-007 0 1
vn -3.57628e-007 0 1

vt 0.226585 0.157386
vt 0.1775 0.157386
vt 0.226585 0.0126209
vt 0.1775 0.0126209
vt 0.373238 0.0126209
vt 0.373238 0.347589
vt 0.324152 0.0126209
vt 0.324152 0.347588
vt 0.0204551 0.881538
vt 0.0645547 0.849257
vt 0.068379 0.922159
vt 0.0937634 0.874359
vt 0.1775 0.213582
vt 0.1775 0.175882
vt 0.226585 0.213582
vt 0.226585 0.175882
vt 0.300872 0.283215
vt 0.300872 0.454388
vt 0.251786 0.283215
vt 0.251786 0.454388
vt 0.1775 0.321354
vt 0.1775 0.231153
vt 0.226585 0.321355
vt 0.226585 0.231153
vt 0.1775 0.402387
vt 0.1775 0.340775
vt 0.226585 0.402387
vt 0.226585 0.340775
vt 0.145235 0.432573
vt 0.215984 0.48772
vt 0.149719 0.491663
vt 0.209282 0.538157
vt 0.0204551 0.549748
vt 0.0645547 0.571897
vt 0.197369 0.949739
vt 0.212899 0.900573
vt 0.35022 0.949739
vt 0.334689 0.900573
vt 0.166614 0.922159
vt 0.179361 0.874359
vt 0.527134 0.881538
vt 0.47921 0.922159
vt 0.483034 0.849257
vt 0.453825 0.874359
vt 0.483034 0.571897
vt 0.39787 0.491663
vt 0.527134 0.549748
vt 0.402354 0.432573
vt 0.35022 0.949739
vt 0.334689 0.900573
vt 0.380975 0.922159
vt 0.368228 0.874359
vt 0.888116 0.541904
vt 0.858468 0.924612
vt 0.828555 0.5884
vt 0.824942 0.950827
vt 0.699525 0.5884
vt 0.703149 0.950827
vt 0.331605 0.48772
vt 0.338307 0.538157
vt 0.212899 0.900573
vt 0.197369 0.949739
vt 0.973284 0.622141
vt 0.973284 0.899509
vt 0.944075 0.924612
vt 0.300872 0.157748
vt 0.251786 0.157749
vt 0.300872 0.0126209
vt 0.251786 0.0126209
vt 0.156296 0.512079
vt 0.186884 0.859676
vt 0.0817426 0.581456
vt 0.0817426 0.839791
vt 0.105161 0.859676
vt 0.210631 0.555166
vt 0.217751 0.883802
vt 0.329838 0.883802
vt 0.336958 0.555166
vt 0.215984 0.48772
vt 0.209282 0.538157
vt 0.338307 0.538157
vt 0.331605 0.48772
vt 0.324152 0.0126209
vt 0.373238 0.0126209
vt 0.324152 0.347588
vt 0.373238 0.347589
vt 0.453825 0.874359
vt 0.483034 0.849257
vt 0.47921 0.922159
vt 0.527134 0.881538
vt 0.226585 0.213582
vt 0.1775 0.213582
vt 0.226585 0.175882
vt 0.1775 0.175882
vt 0.251786 0.283215
vt 0.300872 0.283215
vt 0.251786 0.454388
vt 0.300872 0.454388
vt 0.226585 0.321355
vt 0.1775 0.321354
vt 0.226585 0.231153
vt 0.1775 0.231153
vt 0.226585 0.402387
vt 0.1775 0.402387
vt 0.226585 0.340775
vt 0.1775 0.340775
vt 0.39787 0.491663
vt 0.402354 0.432573
vt 0.483034 0.571897
vt 0.527134 0.549748
vt 0.380975 0.922159
vt 0.368228 0.874359
vt 0.0937634 0.874359
vt 0.068379 0.922159
vt 0.0645547 0.849257
vt 0.0204551 0.881538
vt 0.145235 0.432573
vt 0.149719 0.491663
vt 0.0204551 0.549748
vt 0.0645547 0.571897
vt 0.166614 0.922159
vt 0.179361 0.874359
vt 0.669595 0.924612
vt 0.639957 0.541904
vt 0.554792 0.622141
vt 0.554792 0.899509
vt 0.584002 0.924612
vt 0.251786 0.177765
vt 0.300872 0.177764
vt 0.251786 0.267468
vt 0.300872 0.267468
vt 0.391293 0.512079
vt 0.465846 0.581456
vt 0.360705 0.859676
vt 0.465846 0.839791
vt 0.442427 0.859676
vt 0.300872 0.177764
vt 0.300872 0.267468
vt 0.251786 0.177765
vt 0.251786 0.267468
vt 0.912844 0.534024
vt 0.854566 0.503231
vt 0.912844 0.322593
vt 0.854566 0.353385
vt 0.972737 0.509474
vt 0.972737 0.347143
vt 0.702692 0.516851
vt 0.64186 0.496539
vt 0.702692 0.339766
vt 0.64186 0.360077
vt 0.749605 0.353385
vt 0.749605 0.503231
vt 0.775346 0.274641
vt 0.828908 0.274641
vt 0.775423 0.0845207
vt 0.828985 0.0845206
vt 0.757625 0.0589989
vt 0.84594 0.0589989
vt 0.557751 0.413438
vt 0.557751 0.211268
vt 0.6012 0.413438
vt 0.6012 0.211268
vt 0.6012 0.0911119
vt 0.6012 0.155715
vt 0.557751 0.0911119
vt 0.557751 0.155715
vt 0.557751 0.155715
vt 0.557751 0.0911119
vt 0.6012 0.155715
vt 0.6012 0.0911119
vt 0.6012 0.187405
vt 0.557751 0.187405
vt 0.6012 0.211268
vt 0.6012 0.413438
vt 0.557751 0.211268
vt 0.557751 0.413438
vt 0.557751 0.187405
vt 0.6012 0.187405
vt 0.828985 0.0845206
vt 0.828908 0.274641
vt 0.775423 0.0845207
vt 0.775346 0.274641
vt 0.84594 0.0589989
vt 0.757625 0.0589989
vt 0.801782 0.0151564
vt 0.84594 0.0589989
vt 0.828985 0.0845206
vt 0.757625 0.0589989
vt 0.775423 0.0845207
vt 0.84594 0.0589989
vt 0.757625 0.0589989
vt 0.801782 0.0151564


#
# MESH 000
#
g surface_000
usemtl surface_000
f 190/190/190 191/191/191 192/192/192
f 183/183/183 184/184/184 185/185/185
f 188/188/188 187/187/187 189/189/189
f 186/186/186 187/187/187 188/188/188
f 181/181/181 180/180/180 182/182/182
f 179/179/179 180/180/180 181/181/181
f 177/177/177 169/169/169 178/178/178
f 167/167/167 169/169/169 177/177/177
f 167/167/167 168/168/168 169/169/169
f 169/169/169 168/168/168 170/170/170
f 175/175/175 174/174/174 176/176/176
f 173/173/173 174/174/174 175/175/175
f 166/166/166 171/171/171 172/172/172
f 164/164/164 171/171/171 166/166/166
f 165/165/165 164/164/164 166/166/166
f 163/163/163 164/164/164 165/165/165
f 161/161/161 160/160/160 162/162/162
f 159/159/159 160/160/160 161/161/161
f 157/157/157 158/158/158 155/155/155
f 155/155/155 158/158/158 156/156/156
f 154/154/154 155/155/155 156/156/156
f 153/153/153 155/155/155 154/154/154
f 144/144/144 153/153/153 154/154/154
f 151/151/151 153/153/153 144/144/144
f 151/151/151 144/144/144 152/152/152
f 147/147/147 151/151/151 152/152/152
f 149/149/149 151/151/151 147/147/147
f 147/147/147 148/148/148 149/149/149
f 149/149/149 148/148/148 150/150/150
f 152/152/152 144/144/144 142/142/142
f 143/143/143 142/142/142 144/144/144
f 141/141/141 142/142/142 143/143/143
f 146/146/146 141/141/141 143/143/143
f 145/145/145 141/141/141 146/146/146
f 139/139/139 138/138/138 140/140/140
f 137/137/137 138/138/138 139/139/139
f 135/135/135 136/136/136 134/134/134
f 133/133/133 135/135/135 134/134/134
f 132/132/132 133/133/133 134/134/134
f 134/134/134 78/78/78 132/132/132
f 77/77/77 78/78/78 134/134/134
f 77/77/77 75/75/75 78/78/78
f 76/76/76 75/75/75 77/77/77
f 71/71/71 75/75/75 76/76/76
f 70/70/70 75/75/75 71/71/71
f 70/70/70 71/71/71 72/72/72
f 72/72/72 71/71/71 73/73/73
f 73/73/73 71/71/71 74/74/74
f 130/130/130 129/129/129 131/131/131
f 128/128/128 129/129/129 130/130/130
f 123/123/123 127/127/127 126/126/126
f 125/125/125 123/123/123 126/126/126
f 124/124/124 123/123/123 125/125/125
f 57/57/57 123/123/123 124/124/124
f 58/58/58 123/123/123 57/57/57
f 57/57/57 56/56/56 58/58/58
f 55/55/55 56/56/56 57/57/57
f 55/55/55 54/54/54 56/56/56
f 53/53/53 54/54/54 55/55/55
f 53/53/53 63/63/63 54/54/54
f 63/63/63 64/64/64 54/54/54
f 54/54/54 64/64/64 65/65/65
f 105/105/105 104/104/104 106/106/106
f 103/103/103 104/104/104 105/105/105
f 101/101/101 100/100/100 102/102/102
f 99/99/99 100/100/100 101/101/101
f 97/97/97 96/96/96 98/98/98
f 95/95/95 96/96/96 97/97/97
f 93/93/93 92/92/92 94/94/94
f 91/91/91 92/92/92 93/93/93
f 85/85/85 84/84/84 86/86/86
f 83/83/83 84/84/84 85/85/85
f 68/68/68 67/67/67 69/69/69
f 66/66/66 67/67/67 68/68/68
f 27/27/27 26/26/26 28/28/28
f 25/25/25 26/26/26 27/27/27
f 23/23/23 22/22/22 24/24/24
f 21/21/21 22/22/22 23/23/23
f 19/19/19 18/18/18 20/20/20
f 17/17/17 18/18/18 19/19/19
f 15/15/15 14/14/14 16/16/16
f 13/13/13 14/14/14 15/15/15
f 7/7/7 6/6/6 8/8/8
f 5/5/5 6/6/6 7/7/7
f 3/3/3 2/2/2 4/4/4
f 1/1/1 2/2/2 3/3/3
f 113/113/113 121/121/121 114/114/114
f 122/122/122 121/121/121 113/113/113
f 61/61/61 121/121/121 122/122/122
f 62/62/62 121/121/121 61/61/61
f 61/61/61 49/49/49 62/62/62
f 50/50/50 49/49/49 61/61/61
f 49/49/49 50/50/50 51/51/51
f 113/113/113 114/114/114 115/115/115
f 115/115/115 114/114/114 116/116/116
f 116/116/116 119/119/119 115/115/115
f 115/115/115 119/119/119 120/120/120
f 119/119/119 118/118/118 120/120/120
f 117/117/117 118/118/118 119/119/119
f 117/117/117 79/79/79 118/118/118
f 118/118/118 79/79/79 80/80/80
f 79/79/79 60/60/60 80/80/80
f 59/59/59 60/60/60 79/79/79
f 59/59/59 46/46/46 60/60/60
f 48/48/48 46/46/46 59/59/59
f 47/47/47 46/46/46 48/48/48
f 45/45/45 46/46/46 47/47/47
f 47/47/47 43/43/43 45/45/45
f 41/41/41 43/43/43 47/47/47
f 41/41/41 42/42/42 43/43/43
f 43/43/43 42/42/42 44/44/44
f 42/42/42 51/51/51 44/44/44
f 44/44/44 51/51/51 52/52/52
f 51/51/51 50/50/50 52/52/52
f 87/87/87 111/111/111 112/112/112
f 89/89/89 111/111/111 87/87/87
f 87/87/87 88/88/88 89/89/89
f 89/89/89 88/88/88 90/90/90
f 90/90/90 88/88/88 110/110/110
f 110/110/110 88/88/88 109/109/109
f 109/109/109 107/107/107 110/110/110
f 110/110/110 107/107/107 108/108/108
f 107/107/107 82/82/82 108/108/108
f 81/81/81 82/82/82 107/107/107
f 81/81/81 30/30/30 82/82/82
f 32/32/32 30/30/30 81/81/81
f 31/31/31 30/30/30 32/32/32
f 29/29/29 30/30/30 31/31/31
f 29/29/29 31/31/31 33/33/33
f 33/33/33 31/31/31 34/34/34
f 10/10/10 33/33/33 34/34/34
f 9/9/9 33/33/33 10/10/10
f 9/9/9 10/10/10 11/11/11
f 11/11/11 10/10/10 12/12/12
f 11/11/11 12/12/12 39/39/39
f 39/39/39 12/12/12 40/40/40
f 36/36/36 39/39/39 40/40/40
f 35/35/35 39/39/39 36/36/36
f 35/35/35 36/36/36 37/37/37
f 37/37/37 36/36/36 38/38/38
f 37/37/37 38/38/38 111/111/111
f 111/111/111 38/38/38 112/112/112

