#
# OBJECT NAME
#
o model_3237
mtllib 3237.mtl

#
# VERTEX BUFFER 000
#
v -0.410128 0.913246 -0.489014
v -0.154796 0.423711 -0.415752
v -0.0123644 0.568534 -0.386495
v -0.0123644 0.568534 -0.386495
v 0.0922135 0.703384 -0.387602
v -0.410128 0.913246 -0.489014
v -0.523476 0.753226 -0.484668
v -0.245853 1.06859 -0.468013
v -0.108512 0.53084 -0.375073
v -0.51013 0.292886 -0.423182
v -0.00167553 0.367674 -0.393535
v -0.218592 0.685103 -0.411252
v -0.51013 0.292886 -0.423182
v -0.108512 0.53084 -0.375073
v -0.603844 0.459606 -0.448583
v -0.39306 0.135077 -0.426253
v 0.359695 0.0412004 -0.490242
v 0.301857 0.521878 -0.42133
v 0.183649 -0.0187223 -0.477059
v 0.183649 -0.0187223 -0.477059
v -0.063478 0.47274 -0.423333
v -0.0403273 -0.028187 -0.474969
v 0.100404 0.506645 -0.409139
v 0.100404 0.506645 -0.409139
v 0.48809 0.211253 -0.439863
v 0.135984 0.637417 -0.424144
v 0.0511668 0.452181 -0.367131
v -0.0304283 0.261767 -0.37414
v 0.387132 0.0303091 -0.434314
v 0.48809 0.211253 -0.439863
v 0.564617 0.404779 -0.475441
v 0.0511668 0.452181 -0.367131
v -0.214022 0.509031 -0.331931
v -0.0139935 0.276495 -0.344005
v 0.0074158 0.48649 -0.396473
v 0.0074158 0.48649 -0.396473
v 0.226232 0.472799 -0.334672
v 0.028325 0.705711 -0.323424
v 0.226232 0.472799 -0.334672
v -0.214022 0.509031 -0.331931
v -0.0782909 0.302349 -0.0941592
v -0.0225071 0.787347 -0.0834146
v -0.369191 0.641666 -0.200357
v -0.169484 0.667756 -0.0636627
v -0.173914 0.19618 -0.119156
v 0.217333 0.389492 0.00537861
v -0.259065 0.322063 -0.337672
v 0.0383221 0.0547448 -0.306314
v 0.0237025 0.369281 -0.0912631
v -0.205988 0.0814376 -0.266917
v -0.0169039 0.429397 -0.00317427
v -0.354294 0.516575 -0.274565
v 0.23382 0.479645 -0.13925
v -0.174258 0.245455 -0.0209417
v 0.157645 0.0666402 -0.275351
v 0.140832 0.555168 -0.0589008
v 0.415308 0.421057 -0.374484
v 0.290095 0.809267 -0.391416
v -0.434563 0.644234 -0.420213
v -0.317981 0.288577 -0.176773
v -0.178349 0.708883 -0.144542
v 0.0416237 0.395659 -0.152721
v -0.106266 0.152046 -0.334126
v 0.315101 0.140846 -0.388309
v 0.178804 0.91573 -0.38103
v -0.216536 0.910551 -0.436428
v -0.0456877 0.671092 -0.175825
v -0.270118 0.892599 -0.491031
v -0.339257 0.570861 -0.228561
v -0.00634406 0.819585 -0.21859
v 0.267053 0.837334 -0.366737
v -0.0517133 0.753737 -0.15525
v 0.31277 0.529104 -0.052582
v 0.108347 0.950641 -0.346155
v -0.302071 0.778147 -0.226872
v 0.0723923 0.599521 -0.0345302
v 0.3068 0.18439 -0.258734
v 0.315679 0.668957 -0.192896
v 0.0332248 0.444175 0.0504463
v -0.0989581 0.860259 -0.381648
v 0.0707929 0.540038 -0.181891
v 0.298335 0.792531 -0.449005
v 0.0205158 0.354491 -0.0323984
v 0.326619 0.723922 -0.138365
v -0.130408 0.804197 -0.112764
v -0.074901 0.333843 -0.0667785
v 0.107947 0.729392 -0.168582
v -0.257749 0.654019 -0.32169
v -0.32211 0.35542 -0.318481
v -0.0438167 0.666765 -0.226601
v -0.360983 0.758033 -0.420394
v 0.114347 0.70888 -0.27758
v 0.0264388 0.341947 -0.323588
v 0.403951 0.484333 -0.450003
v -0.0195302 0.623489 -0.0968757
v -0.167171 0.245859 -0.271624
v 0.255143 0.343407 -0.085792
v 0.372949 0.544735 -0.332993
v 0.0563378 0.401069 -0.127051
v 0.320728 0.0284772 -0.359941
v -0.0789974 0.375292 -0.136209
v -0.327759 0.533554 -0.344401
v -0.292899 0.161674 -0.35938

vn -0.153564 0.0714111 0.985352
vn -0.202271 0.0409241 0.978027
vn -0.190796 0.0709229 0.979004
vn -0.190796 0.0709229 0.979004
vn -0.155518 0.102417 0.982422
vn -0.153564 0.0714111 0.985352
vn -0.0986328 0.0967407 0.990234
vn -0.176025 0.0533752 0.98291
vn -0.10498 -0.0238037 0.994141
vn -0.098938 0.00252724 0.994629
vn -0.0406799 -0.11676 0.992188
vn -0.168701 0.09552 0.980957
vn -0.098938 0.00252724 0.994629
vn -0.10498 -0.0238037 0.994141
vn -0.138184 0.0726929 0.987305
vn -0.0498352 -0.056366 0.99707
vn 0.117004 -0.127075 0.984863
vn 0.0773315 -0.118958 0.989746
vn 0.0476074 -0.115601 0.991699
vn 0.0476074 -0.115601 0.991699
vn -0.0371399 -0.126953 0.990723
vn 0.0135803 -0.101868 0.994629
vn 0.0109024 -0.126465 0.991699
vn 0.0109024 -0.126465 0.991699
vn 0.159668 0.0375366 0.986328
vn 0.235962 0.159668 0.958496
vn 0.192139 0.0526123 0.979492
vn 0.118164 -0.0750732 0.989746
vn 0.122009 -0.0376587 0.991699
vn 0.159668 0.0375366 0.986328
vn 0.176636 0.109924 0.978027
vn 0.192139 0.0526123 0.979492
vn 0.27124 -0.0809326 0.958984
vn 0.0306854 0.239258 0.970215
vn 0.00192165 -0.0426025 0.999023
vn 0.00192165 -0.0426025 0.999023
vn -0.273438 -0.0324402 0.960938
vn -0.0201569 -0.314209 0.94873
vn -0.273438 -0.0324402 0.960938
vn 0.27124 -0.0809326 0.958984
vn -0.325684 0.0165253 0.944824
vn -0.325684 0.0165253 0.944824
vn -0.325684 0.0165253 0.944824
vn -0.251221 -0.110779 0.961426
vn -0.251221 -0.110779 0.961426
vn -0.251221 -0.110779 0.961426
vn -0.520508 -0.498047 0.692871
vn -0.520508 -0.498047 0.692871
vn -0.520508 -0.498047 0.692871
vn -0.64502 -0.206909 0.735352
vn -0.64502 -0.206909 0.735352
vn -0.64502 -0.206909 0.735352
vn 0.44165 -0.353027 0.824219
vn 0.44165 -0.353027 0.824219
vn 0.44165 -0.353027 0.824219
vn 0.779785 0.276123 0.561035
vn 0.779785 0.276123 0.561035
vn 0.779785 0.276123 0.561035
vn -0.740723 0.196777 0.64209
vn -0.740723 0.196777 0.64209
vn -0.740723 0.196777 0.64209
vn 0.0828857 -0.626953 0.774414
vn 0.0828857 -0.626953 0.774414
vn 0.0828857 -0.626953 0.774414
vn -0.108582 0.695313 0.709961
vn -0.108582 0.695313 0.709961
vn -0.108582 0.695313 0.709961
vn -0.477783 0.614258 0.627441
vn -0.477783 0.614258 0.627441
vn -0.477783 0.614258 0.627441
vn 0.251221 0.708496 0.658691
vn 0.251221 0.708496 0.658691
vn 0.251221 0.708496 0.658691
vn -0.0639648 0.666016 0.742676
vn -0.0639648 0.666016 0.742676
vn -0.0639648 0.666016 0.742676
vn 0.696777 -0.109009 0.708496
vn 0.696777 -0.109009 0.708496
vn 0.696777 -0.109009 0.708496
vn 0.232056 0.600098 0.765137
vn 0.232056 0.600098 0.765137
vn 0.232056 0.600098 0.765137
vn 0.0905151 0.204468 0.974609
vn 0.0905151 0.204468 0.974609
vn 0.0905151 0.204468 0.974609
vn -0.422852 0.404053 0.811035
vn -0.422852 0.404053 0.811035
vn -0.422852 0.404053 0.811035
vn -0.477051 0.171997 0.861816
vn -0.477051 0.171997 0.861816
vn -0.477051 0.171997 0.861816
vn 0.37915 -0.203979 0.902344
vn 0.37915 -0.203979 0.902344
vn 0.37915 -0.203979 0.902344
vn -0.329346 -0.287354 0.898926
vn -0.329346 -0.287354 0.898926
vn -0.329346 -0.287354 0.898926
vn 0.57373 -0.100464 0.8125
vn 0.57373 -0.100464 0.8125
vn 0.57373 -0.100464 0.8125
vn -0.672852 -0.0925903 0.733398
vn -0.672852 -0.0925903 0.733398
vn -0.672852 -0.0925903 0.733398

vt 0.970292 0.543577
vt 0.793111 0.989826
vt 0.970292 0.989826
vt 0.970292 0.989826
vt 0.792294 0.989826
vt 0.970292 0.543577
vt 0.793111 0.558759
vt 0.792294 0.558759
vt 0.969766 0.540743
vt 0.969766 0.0982776
vt 0.791956 0.540743
vt 0.792803 0.540743
vt 0.969766 0.0982776
vt 0.969766 0.540743
vt 0.792803 0.0982776
vt 0.791956 0.0982776
vt 0.793111 0.558759
vt 0.793111 0.989826
vt 0.970292 0.543577
vt 0.970292 0.543577
vt 0.792294 0.989826
vt 0.792294 0.558759
vt 0.970292 0.989826
vt 0.970292 0.989826
vt 0.969766 0.0982776
vt 0.791956 0.540743
vt 0.969766 0.540743
vt 0.792803 0.540743
vt 0.792803 0.0982776
vt 0.969766 0.0982776
vt 0.791956 0.0982776
vt 0.969766 0.540743
vt 0.975937 0.0700191
vt 0.976179 0.0700345
vt 0.965637 0.171769
vt 0.965637 0.171769
vt 0.9763 0.0700423
vt 0.976058 0.0700268
vt 0.9763 0.0700423
vt 0.975937 0.0700191
vt 0.559905 0.100832
vt 0.813257 0.664365
vt 0.335893 0.664365
vt 0.566347 0.926078
vt 0.000496575 0.926078
vt 0.23361 0.417092
vt 0.0832187 0.498869
vt 0.619254 0.221367
vt 0.0832187 0.00275344
vt 0.23361 0.417092
vt 0.566347 0.926078
vt 0.000496575 0.926078
vt 0.23361 0.417092
vt 0.566347 0.926078
vt 0.000496575 0.926078
vt 0.559905 0.100832
vt 0.335893 0.664365
vt 0.813257 0.664365
vt 0.0832187 0.498869
vt 0.619254 0.221367
vt 0.0832187 0.00275344
vt 0.813257 0.664365
vt 0.335893 0.664365
vt 0.559905 0.100832
vt 0.566347 0.926078
vt 0.000496575 0.926078
vt 0.23361 0.417092
vt 0.0832187 0.00275344
vt 0.619254 0.221367
vt 0.0832187 0.498869
vt 0.813257 0.664365
vt 0.335893 0.664365
vt 0.559905 0.100832
vt 0.566347 0.926078
vt 0.000496575 0.926078
vt 0.23361 0.417092
vt 0.619254 0.221367
vt 0.0832187 0.498869
vt 0.0832187 0.00275344
vt 0.0832187 0.00275344
vt 0.0832187 0.498869
vt 0.619254 0.221367
vt 0.23361 0.417092
vt 0.566347 0.926078
vt 0.000496575 0.926078
vt 0.23361 0.417092
vt 0.000496575 0.926078
vt 0.566347 0.926078
vt 0.23361 0.417092
vt 0.000496575 0.926078
vt 0.566347 0.926078
vt 0.566347 0.926078
vt 0.000496575 0.926078
vt 0.23361 0.417092
vt 0.000496575 0.926078
vt 0.23361 0.417092
vt 0.566347 0.926078
vt 0.813257 0.664365
vt 0.335893 0.664365
vt 0.559905 0.100832
vt 0.813257 0.664365
vt 0.335893 0.664365
vt 0.559905 0.100832


#
# MESH 000
#
g surface_000
usemtl surface_000
f 6/6/6 5/5/5 8/8/8
f 4/4/4 5/5/5 6/6/6
f 7/7/7 2/2/2 1/1/1
f 1/1/1 2/2/2 3/3/3
f 11/11/11 10/10/10 16/16/16
f 9/9/9 10/10/10 11/11/11
f 12/12/12 15/15/15 13/13/13
f 12/12/12 13/13/13 14/14/14
f 24/24/24 21/21/21 20/20/20
f 20/20/20 21/21/21 22/22/22
f 19/19/19 18/18/18 23/23/23
f 17/17/17 18/18/18 19/19/19
f 28/28/28 30/30/30 32/32/32
f 28/28/28 29/29/29 30/30/30
f 26/26/26 25/25/25 31/31/31
f 25/25/25 26/26/26 27/27/27
f 36/36/36 38/38/38 40/40/40
f 36/36/36 37/37/37 38/38/38
f 34/34/34 39/39/39 35/35/35
f 33/33/33 34/34/34 35/35/35
f 41/41/41 42/42/42 43/43/43
f 44/44/44 45/45/45 46/46/46
f 47/47/47 48/48/48 49/49/49
f 50/50/50 51/51/51 52/52/52
f 53/53/53 54/54/54 55/55/55
f 56/56/56 57/57/57 58/58/58
f 59/59/59 60/60/60 61/61/61
f 62/62/62 63/63/63 64/64/64
f 65/65/65 66/66/66 67/67/67
f 68/68/68 69/69/69 70/70/70
f 71/71/71 72/72/72 73/73/73
f 74/74/74 75/75/75 76/76/76
f 77/77/77 78/78/78 79/79/79
f 80/80/80 81/81/81 82/82/82
f 83/83/83 84/84/84 85/85/85
f 86/86/86 87/87/87 88/88/88
f 89/89/89 90/90/90 91/91/91
f 92/92/92 93/93/93 94/94/94
f 95/95/95 96/96/96 97/97/97
f 98/98/98 99/99/99 100/100/100
f 101/101/101 102/102/102 103/103/103

