#
# OBJECT NAME
#
o model_3238
mtllib 3238.mtl

#
# VERTEX BUFFER 000
#
v -0.183695 0.434036 -0.335402
v -0.0855398 0.318996 -0.341556
v 0.0074158 0.48649 -0.396473
v 0.197929 0.550283 -0.330656
v 0.101533 0.665634 -0.325189
v 0.0644041 0.30715 -0.342947
v 0.179497 0.401555 -0.33836
v -0.0524576 0.67263 -0.325167
v -0.16931 0.577914 -0.329068
v -0.0524576 0.67263 -0.325167
v -0.16931 0.577914 -0.329068
v 0.0074158 0.48649 -0.396473
v -0.0855398 0.318996 -0.341556
v 0.179497 0.401555 -0.33836
v 0.197929 0.550283 -0.330656
v -0.000518054 0.654615 -0.0116864
v -0.208835 0.75663 -0.172549
v -0.159015 0.579786 -0.131156
v -0.0967292 0.390284 -0.0941592
v -0.335074 0.508145 -0.155952
v 0.169237 0.41662 -0.00404662
v -0.0228792 0.628293 -0.0421059
v -0.0242962 0.44859 -0.0817918
v -0.0273095 0.235643 -0.0975988
v -0.227435 0.437747 -0.0600168
v -0.182172 0.387967 -0.208331
v -0.0303663 0.0842103 -0.32975
v 0.032321 0.255905 -0.142416
v -0.250447 0.208687 -0.388825
v -0.20325 0.515785 -0.101278
v -0.187203 0.158171 -0.250094
v -0.0580759 0.27984 -0.0412278
v -0.362864 0.367018 -0.284023
v 0.262442 0.200412 -0.254028
v 0.253088 0.479645 -0.13925
v 0.114959 0.318896 -0.189881
v -0.00904721 0.149045 -0.17717
v -0.011706 0.379226 -0.0305603
v 0.212635 0.754158 -0.277532
v 0.326704 0.400498 -0.262107
v 0.383897 0.612105 -0.404689
v 0.163778 0.555168 -0.0970026
v -0.404143 0.475546 -0.387651
v -0.147929 0.540195 -0.11198
v -0.316751 0.705714 -0.28734
v -0.316374 0.313082 -0.196407
v -0.107802 0.644139 -0.133465
v -0.281752 0.655428 -0.307808
v -0.204237 0.518807 -0.224059
v -0.137909 0.376836 -0.118244
v -0.312677 0.397506 -0.309392
v 0.159192 0.376036 -0.186091
v -0.016498 0.0866285 -0.401596
v 0.247653 0.176429 -0.363262
v -0.0738745 0.29288 -0.22125
v -0.381685 0.651376 -0.415725
v -0.202764 0.475726 -0.277518
v -0.0192848 0.700542 -0.271498
v -0.202743 0.85147 -0.428149
v -0.22817 0.817664 -0.339845
v -0.0456877 0.671092 -0.175825
v -0.0200385 0.886429 -0.455423
v 0.167169 0.822844 -0.284447
v -0.333927 0.774407 -0.414078
v -0.0667936 0.709154 -0.170598
v -0.108434 0.900999 -0.338388
v -0.324316 0.590515 -0.199022
v 0.151464 0.68496 -0.205992
v 0.27807 0.574879 -0.0926023
v 0.306598 0.737506 -0.279881
v 0.0209256 0.662588 -0.0903505
v 0.0816244 0.840473 -0.279588
v -0.0357202 0.74237 -0.201043
v 0.0456261 0.646805 -0.079216
v 0.138429 0.844145 -0.25362
v -0.203384 0.700485 -0.100378
v -0.144497 0.886468 -0.284418
v 0.147725 0.60435 -0.0578363
v 0.25497 0.255524 -0.219057
v 0.354706 0.532559 -0.219608
v 0.0992962 0.335997 -0.00681627
v 0.0418707 0.379602 -0.161446
v 0.150639 0.255623 -0.215404
v 0.185902 0.485829 -0.149355
v -0.0912978 0.256004 -0.131596
v -0.0563634 0.499391 -0.0719551
v 0.0361817 0.904192 -0.421539
v 0.205933 0.58397 -0.240958
v 0.298335 0.792531 -0.413024
v -0.0501754 0.714269 -0.211851
v 0.0622868 0.590759 -0.0974617
v 0.0498169 0.418292 -0.0448278
v 0.245113 0.567728 -0.0719304
v -0.100243 0.628388 -0.0525844
v 0.0872823 0.789779 -0.108689
v 0.202391 0.369447 -0.347246
v 0.140535 0.678656 -0.333132
v -0.134376 0.622828 -0.195108
v -0.0830952 0.313139 -0.218172
v -0.0794178 0.444813 -0.0896837
v 0.0855925 0.634217 -0.119885
v -0.0846072 0.756155 -0.256873
v -0.248207 0.565418 -0.23744
v -0.32211 0.35542 -0.28499
v -0.106091 0.497683 -0.208337
v -0.212067 0.728274 -0.305371
v -0.423257 0.588951 -0.40213
v -0.318848 0.369138 -0.348009
v -0.118776 0.310571 -0.163623
v -0.0888471 0.580006 -0.116107
v -0.279879 0.643487 -0.306738
v 0.278014 0.70888 -0.308687
v 0.190106 0.341947 -0.354695
v 0.403951 0.484333 -0.412351
v 0.0778906 0.541127 -0.214687
v -0.221835 0.669762 -0.337133
v -0.0555714 0.495297 -0.23856
v 0.161427 0.704977 -0.362103
v -0.0197278 0.852982 -0.400952
v -0.189054 0.510441 -0.205422
v -0.167171 0.245859 -0.295521
v 0.0856186 0.230359 -0.194338
v 0.0759251 0.499108 -0.127834
v 0.115952 0.554365 -0.23177
v 0.0461983 0.302769 -0.220943
v 0.362809 0.446435 -0.397906
v 0.267111 0.191211 -0.336092
v -0.15557 0.358306 -0.318607
v -0.0223786 0.246392 -0.226307
v -0.100397 0.511766 -0.207529
v -0.236054 0.186312 -0.38904
v -0.324109 0.449148 -0.364123
v -0.375134 0.407807 -0.403579
v -0.292899 0.161674 -0.35938
v -0.168321 0.523893 -0.238471
v -0.126372 0.249545 -0.195387
v 0.197673 0.820914 -0.409866
v 0.151458 0.440334 -0.337769
v 0.380851 0.593393 -0.386516
v -0.0280225 0.6609 -0.312718
v -0.140702 0.500335 -0.146041
v 0.110337 0.391974 -0.138087
v 0.218306 0.619368 -0.203573
v -0.016814 0.729242 -0.229783

vn 0.293213 0.0435181 0.95459
vn 0.1521 0.230591 0.960938
vn 0.000864983 -0.0428467 0.999023
vn -0.282227 -0.13623 0.949219
vn -0.130859 -0.306152 0.942383
vn -0.0925903 0.257568 0.961426
vn -0.275391 0.0963135 0.956055
vn 0.0923462 -0.330078 0.938965
vn 0.264648 -0.185669 0.945801
vn 0.0923462 -0.330078 0.938965
vn 0.264648 -0.185669 0.945801
vn 0.000864983 -0.0428467 0.999023
vn 0.1521 0.230591 0.960938
vn -0.275391 0.0963135 0.956055
vn -0.282227 -0.13623 0.949219
vn -0.598145 -0.0122604 0.80127
vn -0.439453 0.0853882 0.894043
vn -0.417725 0.0664063 0.905762
vn -0.415283 0.0408936 0.908691
vn -0.195923 0.145996 0.969238
vn -0.386719 -0.117981 0.914063
vn -0.147705 -0.212158 0.96582
vn -0.144287 -0.139893 0.979492
vn -0.149536 -0.0710449 0.98584
vn 0.112671 -0.134766 0.984375
vn -0.506836 -0.525879 0.682129
vn -0.506348 -0.525879 0.682617
vn -0.529297 -0.529297 0.662109
vn -0.483887 -0.522461 0.70166
vn -0.644043 -0.318115 0.694824
vn -0.644043 -0.318115 0.694824
vn -0.728516 -0.290527 0.619629
vn -0.552246 -0.341064 0.760254
vn 0.19873 -0.263428 0.943848
vn 0.318359 -0.522461 0.790527
vn 0.390625 -0.410889 0.823242
vn 0.493896 -0.299561 0.815918
vn 0.564453 -0.515137 0.644043
vn 0.760254 0.270996 0.589844
vn 0.760254 0.270996 0.589844
vn 0.704102 0.255859 0.662109
vn 0.80127 0.281494 0.526855
vn -0.741211 0.150879 0.65332
vn -0.741211 0.150635 0.653809
vn -0.729492 -0.0206146 0.683105
vn -0.730469 0.316895 0.604492
vn -0.734375 0.0779419 0.673828
vn -0.6875 0.0535278 0.723633
vn -0.715332 0.10144 0.690918
vn -0.738281 0.145508 0.658203
vn -0.695801 0.124817 0.707031
vn 0.107788 -0.634766 0.764648
vn 0.107544 -0.634766 0.764648
vn 0.104248 -0.633789 0.766113
vn 0.111877 -0.63623 0.763184
vn -0.386963 0.343018 0.855469
vn -0.386963 0.343018 0.855469
vn -0.386963 0.343018 0.855469
vn -0.386963 0.343018 0.855469
vn 0.0805664 0.785645 0.612793
vn -0.100098 0.79248 0.601074
vn -0.0929565 0.79248 0.602051
vn -0.260498 0.775879 0.57373
vn -0.445557 0.611816 0.652832
vn -0.447754 0.608887 0.654297
vn -0.51416 0.498535 0.697754
vn -0.38623 0.692383 0.608887
vn 0.281982 0.679199 0.676758
vn 0.167969 0.794434 0.583496
vn 0.139648 0.644531 0.751465
vn 0.392334 0.712891 0.580566
vn 0.360596 0.525879 0.769531
vn 0.0421143 0.67041 0.740234
vn -0.035553 0.774414 0.631348
vn -0.102356 0.588867 0.80127
vn 0.214478 0.72168 0.657715
vn 0.12915 0.567871 0.8125
vn 0.682617 -0.122986 0.720215
vn 0.689453 -0.118286 0.714355
vn 0.559082 -0.199707 0.804199
vn 0.800293 -0.0306091 0.598633
vn 0.295898 -0.285156 0.911133
vn 0.231812 -0.209961 0.949707
vn 0.194824 -0.367676 0.90918
vn 0.38916 -0.202271 0.898438
vn 0.35376 -0.355713 0.864746
vn 0.303467 0.584961 0.751953
vn 0.304932 0.584961 0.750977
vn 0.213989 0.562988 0.797852
vn 0.384766 0.599609 0.701172
vn 0.0852661 0.161377 0.98291
vn 0.0879517 0.284912 0.954102
vn -0.113892 0.179077 0.977051
vn 0.290527 0.123657 0.94873
vn 0.0646362 0.0480957 0.996582
vn 0.42627 0.0235901 0.903809
vn 0.42627 0.0235901 0.903809
vn 0.42627 0.0235901 0.903809
vn 0.42627 0.0235901 0.903809
vn -0.377441 0.433105 0.818359
vn -0.377441 0.433105 0.818359
vn -0.377441 0.433105 0.818359
vn -0.377441 0.433105 0.818359
vn -0.472412 0.186523 0.861328
vn -0.429688 0.175171 0.885742
vn -0.473389 0.186768 0.860352
vn -0.512695 0.197021 0.835449
vn -0.696289 -0.0288086 0.716797
vn -0.696289 -0.0288086 0.716797
vn -0.696289 -0.0288086 0.716797
vn -0.696289 -0.0288086 0.716797
vn 0.478027 -0.221069 0.849609
vn 0.477051 -0.220947 0.850586
vn 0.37915 -0.203979 0.902344
vn 0.567383 -0.234863 0.789063
vn 0.0191193 0.431152 0.901855
vn 0.0105438 0.499268 0.866211
vn 0.0221558 0.40625 0.913086
vn 0.0352173 0.293701 0.955078
vn -0.325928 -0.283936 0.901367
vn -0.325928 -0.283936 0.901367
vn -0.325928 -0.283936 0.901367
vn -0.325928 -0.283936 0.901367
vn 0.521973 -0.108276 0.845703
vn 0.50293 -0.0454712 0.862793
vn 0.5 -0.0375366 0.864746
vn 0.475586 0.0345459 0.878906
vn -0.529297 -0.23584 0.814941
vn -0.643555 -0.147095 0.750488
vn -0.569824 -0.337158 0.749023
vn -0.483154 -0.128418 0.865723
vn -0.400146 -0.310547 0.861816
vn -0.602539 -0.0584106 0.79541
vn -0.650879 -0.0292969 0.758301
vn -0.649902 -0.0297089 0.758789
vn -0.702637 0.00425339 0.710938
vn 0.201904 0.158447 0.966309
vn 0.200562 0.158691 0.966309
vn 0.0917969 0.174561 0.97998
vn 0.304932 0.141235 0.941406
vn 0.0596313 0.282715 0.957031
vn 0.0596313 0.282715 0.957031
vn 0.0596313 0.282715 0.957031
vn 0.0596313 0.282715 0.957031

vt 0.976058 0.0700268
vt 0.976058 0.0700268
vt 0.965637 0.171769
vt 0.9763 0.0700423
vt 0.9763 0.0700423
vt 0.9763 0.0700423
vt 0.9763 0.0700423
vt 0.975816 0.0700114
vt 0.975816 0.0700114
vt 0.975816 0.0700114
vt 0.975816 0.0700114
vt 0.965637 0.171769
vt 0.976058 0.0700268
vt 0.9763 0.0700423
vt 0.9763 0.0700423
vt 0.566336 0.273809
vt 0.7961 0.50362
vt 0.568233 0.5051
vt 0.33682 0.503607
vt 0.566309 0.724949
vt 0.25598 0.523628
vt 0.485745 0.747577
vt 0.257877 0.749057
vt 0.0264644 0.747564
vt 0.255954 0.974767
vt 0.480375 0.244482
vt 0.0210941 0.244469
vt 0.25061 0.0205325
vt 0.250584 0.471672
vt 0.489663 0.764464
vt 0.0303822 0.764451
vt 0.259898 0.534653
vt 0.259872 0.985792
vt 0.254239 0.52522
vt 0.484004 0.755031
vt 0.256136 0.756511
vt 0.0247228 0.755018
vt 0.254212 0.97636
vt 0.798846 0.497129
vt 0.339565 0.497116
vt 0.569081 0.273179
vt 0.569054 0.724319
vt 0.254212 0.46913
vt 0.254239 0.0179906
vt 0.484004 0.247801
vt 0.0247228 0.247788
vt 0.569081 0.273179
vt 0.798846 0.497129
vt 0.570978 0.498608
vt 0.339565 0.497116
vt 0.569054 0.724319
vt 0.798846 0.497129
vt 0.339565 0.497116
vt 0.569081 0.273179
vt 0.569054 0.724319
vt 0.254212 0.97636
vt 0.0247228 0.755018
vt 0.254239 0.52522
vt 0.484004 0.755031
vt 0.254212 0.97636
vt 0.0247228 0.755018
vt 0.484004 0.755031
vt 0.254239 0.52522
vt 0.254212 0.46913
vt 0.254239 0.0179906
vt 0.484004 0.247801
vt 0.0247228 0.247788
vt 0.571171 0.505563
vt 0.571171 0.272915
vt 0.803818 0.505563
vt 0.338523 0.505563
vt 0.571171 0.730022
vt 0.260049 0.757249
vt 0.260049 0.524601
vt 0.492697 0.757249
vt 0.027401 0.757249
vt 0.260049 0.981708
vt 0.484004 0.247801
vt 0.0247228 0.247788
vt 0.254239 0.0179906
vt 0.254212 0.46913
vt 0.254257 0.754645
vt 0.254257 0.544883
vt 0.46402 0.754646
vt 0.0444952 0.754646
vt 0.254257 0.957024
vt 0.484004 0.247801
vt 0.0247228 0.247788
vt 0.254239 0.0179906
vt 0.254212 0.46913
vt 0.25807 0.755128
vt 0.25807 0.52248
vt 0.490718 0.755128
vt 0.0254225 0.755128
vt 0.25807 0.979587
vt 0.254257 0.957024
vt 0.0444952 0.754646
vt 0.254257 0.544883
vt 0.46402 0.754646
vt 0.254257 0.957024
vt 0.0444952 0.754646
vt 0.254257 0.544883
vt 0.46402 0.754646
vt 0.254257 0.957024
vt 0.0444952 0.754646
vt 0.254257 0.544883
vt 0.46402 0.754646
vt 0.254257 0.957024
vt 0.0444952 0.754646
vt 0.254257 0.544883
vt 0.46402 0.754646
vt 0.46402 0.754646
vt 0.0444952 0.754646
vt 0.254257 0.544883
vt 0.254257 0.957024
vt 0.254257 0.957024
vt 0.0444952 0.754646
vt 0.254257 0.544883
vt 0.46402 0.754646
vt 0.254257 0.975749
vt 0.0254353 0.754981
vt 0.254257 0.526159
vt 0.483079 0.754981
vt 0.568995 0.719441
vt 0.345761 0.498692
vt 0.792228 0.493793
vt 0.571444 0.271784
vt 0.254257 0.754645
vt 0.254257 0.544883
vt 0.46402 0.754646
vt 0.0444952 0.754646
vt 0.254257 0.957024
vt 0.570219 0.723554
vt 0.337571 0.499095
vt 0.802867 0.499095
vt 0.570219 0.266447
vt 0.46402 0.754646
vt 0.0444952 0.754646
vt 0.254257 0.544883
vt 0.254257 0.957024
vt 0.569054 0.724319
vt 0.339565 0.497116
vt 0.569081 0.273179
vt 0.798846 0.497129


#
# VERTEX BUFFER 001
#
v -0.410128 0.913246 -0.489014
v -0.154796 0.423711 -0.415752
v -0.0123644 0.568534 -0.386495
v -0.0123644 0.568534 -0.386495
v 0.0922135 0.703384 -0.387602
v -0.410128 0.913246 -0.489014
v -0.523476 0.753226 -0.484668
v -0.245853 1.06859 -0.468013
v -0.108512 0.53084 -0.375073
v -0.51013 0.292886 -0.423182
v -0.00167553 0.367674 -0.393535
v -0.218592 0.685103 -0.411252
v -0.51013 0.292886 -0.423182
v -0.108512 0.53084 -0.375073
v -0.603844 0.459606 -0.448583
v -0.39306 0.135077 -0.426253
v 0.359695 0.0412004 -0.490242
v 0.301857 0.521878 -0.42133
v 0.183649 -0.0187223 -0.477059
v 0.183649 -0.0187223 -0.477059
v -0.063478 0.47274 -0.423333
v -0.0403273 -0.028187 -0.474969
v 0.100404 0.506645 -0.409139
v 0.100404 0.506645 -0.409139
v 0.48809 0.211253 -0.439863
v 0.135984 0.637417 -0.424144
v 0.0511668 0.452181 -0.367131
v -0.0304283 0.261767 -0.37414
v 0.387132 0.0303091 -0.434314
v 0.48809 0.211253 -0.439863
v 0.564617 0.404779 -0.475441
v 0.0511668 0.452181 -0.367131

vn -0.153564 0.0714111 0.985352
vn -0.202271 0.0409241 0.978027
vn -0.190796 0.0709229 0.979004
vn -0.190796 0.0709229 0.979004
vn -0.155518 0.102417 0.982422
vn -0.153564 0.0714111 0.985352
vn -0.0986328 0.0967407 0.990234
vn -0.176025 0.0533752 0.98291
vn -0.10498 -0.0238037 0.994141
vn -0.098938 0.00252724 0.994629
vn -0.0406799 -0.11676 0.992188
vn -0.168701 0.09552 0.980957
vn -0.098938 0.00252724 0.994629
vn -0.10498 -0.0238037 0.994141
vn -0.138184 0.0726929 0.987305
vn -0.0498352 -0.056366 0.99707
vn 0.117004 -0.127075 0.984863
vn 0.0773315 -0.118958 0.989746
vn 0.0476074 -0.115601 0.991699
vn 0.0476074 -0.115601 0.991699
vn -0.0371399 -0.126953 0.990723
vn 0.0135803 -0.101868 0.994629
vn 0.0109024 -0.126465 0.991699
vn 0.0109024 -0.126465 0.991699
vn 0.159668 0.0375366 0.986328
vn 0.235962 0.159668 0.958496
vn 0.192139 0.0526123 0.979492
vn 0.118164 -0.0750732 0.989746
vn 0.122009 -0.0376587 0.991699
vn 0.159668 0.0375366 0.986328
vn 0.176636 0.109924 0.978027
vn 0.192139 0.0526123 0.979492

vt 0.970292 0.543577
vt 0.793111 0.989826
vt 0.970292 0.989826
vt 0.970292 0.989826
vt 0.792294 0.989826
vt 0.970292 0.543577
vt 0.793111 0.558759
vt 0.792294 0.558759
vt 0.969766 0.540743
vt 0.969766 0.0982776
vt 0.791956 0.540743
vt 0.792803 0.540743
vt 0.969766 0.0982776
vt 0.969766 0.540743
vt 0.792803 0.0982776
vt 0.791956 0.0982776
vt 0.793111 0.558759
vt 0.793111 0.989826
vt 0.970292 0.543577
vt 0.970292 0.543577
vt 0.792294 0.989826
vt 0.792294 0.558759
vt 0.970292 0.989826
vt 0.970292 0.989826
vt 0.969766 0.0982776
vt 0.791956 0.540743
vt 0.969766 0.540743
vt 0.792803 0.540743
vt 0.792803 0.0982776
vt 0.969766 0.0982776
vt 0.791956 0.0982776
vt 0.969766 0.540743


#
# MESH 000
#
g surface_000
usemtl surface_000
f 3/3/3 14/14/14 15/15/15
f 12/12/12 13/13/13 6/6/6
f 11/11/11 1/1/1 12/12/12
f 3/3/3 8/8/8 9/9/9
f 6/6/6 7/7/7 3/3/3
f 1/1/1 2/2/2 3/3/3
f 5/5/5 10/10/10 3/3/3
f 3/3/3 4/4/4 5/5/5
f 18/18/18 17/17/17 20/20/20
f 16/16/16 17/17/17 18/18/18
f 19/19/19 16/16/16 18/18/18
f 20/20/20 19/19/19 18/18/18
f 23/23/23 22/22/22 25/25/25
f 21/21/21 22/22/22 23/23/23
f 24/24/24 21/21/21 23/23/23
f 25/25/25 24/24/24 23/23/23
f 29/29/29 27/27/27 26/26/26
f 26/26/26 27/27/27 28/28/28
f 33/33/33 31/31/31 30/30/30
f 30/30/30 31/31/31 32/32/32
f 36/36/36 35/35/35 38/38/38
f 34/34/34 35/35/35 36/36/36
f 37/37/37 34/34/34 36/36/36
f 38/38/38 37/37/37 36/36/36
f 42/42/42 40/40/40 39/39/39
f 39/39/39 40/40/40 41/41/41
f 43/43/43 46/46/46 44/44/44
f 43/43/43 44/44/44 45/45/45
f 49/49/49 48/48/48 51/51/51
f 47/47/47 48/48/48 49/49/49
f 50/50/50 47/47/47 49/49/49
f 51/51/51 50/50/50 49/49/49
f 55/55/55 53/53/53 52/52/52
f 52/52/52 53/53/53 54/54/54
f 56/56/56 58/58/58 59/59/59
f 56/56/56 57/57/57 58/58/58
f 62/62/62 61/61/61 63/63/63
f 60/60/60 61/61/61 62/62/62
f 64/64/64 67/67/67 65/65/65
f 64/64/64 65/65/65 66/66/66
f 70/70/70 72/72/72 68/68/68
f 68/68/68 72/72/72 71/71/71
f 68/68/68 71/71/71 69/69/69
f 68/68/68 69/69/69 70/70/70
f 75/75/75 77/77/77 73/73/73
f 73/73/73 77/77/77 76/76/76
f 73/73/73 76/76/76 74/74/74
f 73/73/73 74/74/74 75/75/75
f 81/81/81 79/79/79 78/78/78
f 78/78/78 79/79/79 80/80/80
f 84/84/84 86/86/86 82/82/82
f 82/82/82 86/86/86 85/85/85
f 82/82/82 85/85/85 83/83/83
f 82/82/82 83/83/83 84/84/84
f 90/90/90 88/88/88 87/87/87
f 87/87/87 88/88/88 89/89/89
f 93/93/93 95/95/95 91/91/91
f 91/91/91 95/95/95 94/94/94
f 91/91/91 94/94/94 92/92/92
f 91/91/91 92/92/92 93/93/93
f 96/96/96 98/98/98 99/99/99
f 96/96/96 97/97/97 98/98/98
f 100/100/100 102/102/102 103/103/103
f 100/100/100 101/101/101 102/102/102
f 104/104/104 106/106/106 107/107/107
f 104/104/104 105/105/105 106/106/106
f 108/108/108 110/110/110 111/111/111
f 108/108/108 109/109/109 110/110/110
f 115/115/115 113/113/113 112/112/112
f 112/112/112 113/113/113 114/114/114
f 116/116/116 118/118/118 119/119/119
f 116/116/116 117/117/117 118/118/118
f 120/120/120 122/122/122 123/123/123
f 120/120/120 121/121/121 122/122/122
f 126/126/126 125/125/125 127/127/127
f 124/124/124 125/125/125 126/126/126
f 130/130/130 132/132/132 128/128/128
f 128/128/128 132/132/132 131/131/131
f 128/128/128 131/131/131 129/129/129
f 128/128/128 129/129/129 130/130/130
f 135/135/135 134/134/134 136/136/136
f 133/133/133 134/134/134 135/135/135
f 140/140/140 138/138/138 137/137/137
f 137/137/137 138/138/138 139/139/139
f 141/141/141 143/143/143 144/144/144
f 141/141/141 142/142/142 143/143/143

#
# MESH 001
#
g surface_001
usemtl surface_001
f 150/150/150 149/149/149 152/152/152
f 148/148/148 149/149/149 150/150/150
f 151/151/151 146/146/146 145/145/145
f 145/145/145 146/146/146 147/147/147
f 155/155/155 154/154/154 160/160/160
f 153/153/153 154/154/154 155/155/155
f 156/156/156 159/159/159 157/157/157
f 156/156/156 157/157/157 158/158/158
f 168/168/168 165/165/165 164/164/164
f 164/164/164 165/165/165 166/166/166
f 163/163/163 162/162/162 167/167/167
f 161/161/161 162/162/162 163/163/163
f 172/172/172 174/174/174 176/176/176
f 172/172/172 173/173/173 174/174/174
f 170/170/170 169/169/169 175/175/175
f 169/169/169 170/170/170 171/171/171

