g s001v001_m
v -0.1018502 0.272644 0.273642
v -0.2365426 0.2656932 0.2294471
v -0.1121535 0.3294661 0.1780872
v -0.01698197 0.1684938 0.2356416
v -0.2014163 0.3361251 0.1113385
v -0.02984966 0.2419955 0.09326191
v -0.04815364 0.03624411 0.146151
v -0.1606048 0.2600644 0.001520991
v -0.05690762 0.08629841 0.0488241
v -0.1720075 -0.008161093 0.08244874
v -0.1462501 0.09878801 -0.01375668
v -0.271292 0.1936624 0.3466974
v -0.2365426 0.2656932 0.2294471
v -0.1639571 0.2238487 0.3525751
v -0.2614001 0.05456353 0.3410232
v -0.1018502 0.272644 0.273642
v -0.1045762 0.08964355 0.3449582
v -0.2150946 -0.04157175 0.2181279
v -0.01698197 0.1684938 0.2356416
v -0.1091769 -0.01697562 0.2187308
v -0.1720075 -0.008161093 0.08244874
v -0.04815364 0.03624411 0.146151
v -0.3708581 0.2571434 0.184394
v -0.2365426 0.2656932 0.2294471
v -0.3633912 0.212357 0.2864091
v -0.405023 0.146134 0.1069021
v -0.271292 0.1936624 0.3466974
v -0.3922576 0.07306682 0.2495151
v -0.3131906 0.02097222 0.05822022
v -0.2614001 0.05456353 0.3410232
v -0.304437 -0.02908207 0.155547
v -0.1720075 -0.008161093 0.08244874
v -0.2150946 -0.04157175 0.2181279
v -0.1606048 0.2600644 0.001520991
v -0.2014163 0.3361251 0.1113385
v -0.3115875 0.3179744 0.1119215
v -0.2365426 0.2656932 0.2294471
v -0.3708581 0.2571434 0.184394
v -0.3175313 0.2254187 -0.002181157
v -0.1462501 0.09878801 -0.01375668
v -0.405023 0.146134 0.1069021
v -0.2533978 0.07497624 -0.01636489
v -0.1720075 -0.008161093 0.08244874
v -0.3131906 0.02097222 0.05822022
v -0.2854395 0.17996 0.3875687
v -0.1943144 0.3657455 0.08063719
v -0.06447043 0.2829601 0.2922971
v -0.4152838 0.2627454 0.1759089
vt 0.06903076 0.5322266
vt 0.1954346 0.6914063
vt 0.1954346 0.5048828
vt 0.02131653 0.3686523
vt 0.3208008 0.5322266
vt 0.1954346 0.3686523
vt 0.07171631 0.1862793
vt 0.369873 0.3686523
vt 0.1954346 0.2124023
vt 0.1954346 0.02810669
vt 0.3183594 0.1864014
vt 0.6845703 0.5322266
vt 0.8110352 0.6914063
vt 0.8110352 0.5048828
vt 0.6367188 0.3686523
vt 0.9365234 0.5322266
vt 0.8110352 0.3686523
vt 0.6870117 0.1862793
vt 0.9853516 0.3686523
vt 0.8110352 0.2124023
vt 0.8110352 0.02810669
vt 0.934082 0.1864014
vt 0.06903076 0.5322266
vt 0.1954346 0.6914063
vt 0.1954346 0.5048828
vt 0.02131653 0.3686523
vt 0.3208008 0.5322266
vt 0.1954346 0.3686523
vt 0.07171631 0.1862793
vt 0.369873 0.3686523
vt 0.1954346 0.2124023
vt 0.1954346 0.02810669
vt 0.3183594 0.1864014
vt 0.6367188 0.3686523
vt 0.6845703 0.5322266
vt 0.8110352 0.5048828
vt 0.8110352 0.6914063
vt 0.9365234 0.5322266
vt 0.8110352 0.3686523
vt 0.6870117 0.1862793
vt 0.9853516 0.3686523
vt 0.8110352 0.2124023
vt 0.8110352 0.02810669
vt 0.934082 0.1864014
vt 0.2197266 0.7084961
vt 0.7924805 0.7084961
vt 0.5058594 0.4221191
vt 0.5058594 0.9946289
vn 0.612793 0.5820313 0.5341797
vn -0.203125 0.8632813 0.4621582
vn 0.5151367 0.8569336 0.01913452
vn 0.9492188 0.04406738 0.310791
vn 0.06512451 0.9316406 -0.3581543
vn 0.8457031 0.3867188 -0.3676758
vn 0.9023438 -0.4311523 0.01105499
vn 0.2478027 0.4946289 -0.8330078
vn 0.8154297 -0.1496582 -0.559082
vn 0.203125 -0.8632813 -0.4624023
vn 0.3171387 -0.05441284 -0.9467773
vn -0.3190918 0.1469727 0.9360352
vn -0.203125 0.8632813 0.4621582
vn 0.2491455 0.3129883 0.9165039
vn -0.2419434 -0.512207 0.8242188
vn 0.612793 0.5820313 0.5341797
vn 0.4985352 -0.3266602 0.8032227
vn -0.09008789 -0.894043 0.4384766
vn 0.9492188 0.04406738 0.310791
vn 0.5253906 -0.7436523 0.4138184
vn 0.203125 -0.8632813 -0.4624023
vn 0.9023438 -0.4311523 0.01105499
vn -0.8666992 0.496582 0.04342651
vn -0.203125 0.8632813 0.4621582
vn -0.7768555 0.2539063 0.5761719
vn -0.9458008 -0.06262207 -0.3186035
vn -0.3190918 0.1469727 0.9360352
vn -0.8422852 -0.4013672 0.3596191
vn -0.6801758 -0.5200195 -0.5166016
vn -0.2419434 -0.512207 0.8242188
vn -0.590332 -0.8056641 0.04684448
vn 0.203125 -0.8632813 -0.4624023
vn -0.09008789 -0.894043 0.4384766
vn 0.2478027 0.4946289 -0.8330078
vn 0.06512451 0.9316406 -0.3581543
vn -0.5102539 0.7978516 -0.3210449
vn -0.203125 0.8632813 0.4621582
vn -0.8666992 0.496582 0.04342651
vn -0.4943848 0.3093262 -0.8120117
vn 0.3171387 -0.05441284 -0.9467773
vn -0.9458008 -0.06262207 -0.3186035
vn -0.3007813 -0.2139893 -0.9291992
vn 0.203125 -0.8632813 -0.4624023
vn -0.6801758 -0.5200195 -0.5166016
vn -0.203125 0.8632813 0.4621582
vn -0.203125 0.8632813 0.4621582
vn -0.203125 0.8632813 0.4621582
vn -0.203125 0.8632813 0.4621582
g s001v001_m_0
f 3/3/3 2/2/2 1/1/1
f 3/3/3 1/1/1 4/4/4
f 5/5/5 2/2/2 3/3/3
f 6/6/6 3/3/3 4/4/4
f 5/5/5 3/3/3 6/6/6
f 6/6/6 4/4/4 7/7/7
f 8/8/8 5/5/5 6/6/6
f 9/9/9 6/6/6 7/7/7
f 8/8/8 6/6/6 9/9/9
f 7/7/7 10/10/10 9/9/9
f 11/11/11 8/8/8 9/9/9
f 9/9/9 10/10/10 11/11/11
f 14/14/14 13/13/13 12/12/12
f 14/14/14 12/12/12 15/15/15
f 16/16/16 13/13/13 14/14/14
f 17/17/17 14/14/14 15/15/15
f 16/16/16 14/14/14 17/17/17
f 17/17/17 15/15/15 18/18/18
f 19/19/19 16/16/16 17/17/17
f 20/20/20 17/17/17 18/18/18
f 19/19/19 17/17/17 20/20/20
f 18/18/18 21/21/21 20/20/20
f 22/22/22 19/19/19 20/20/20
f 20/20/20 21/21/21 22/22/22
f 25/25/25 24/24/24 23/23/23
f 25/25/25 23/23/23 26/26/26
f 27/27/27 24/24/24 25/25/25
f 28/28/28 25/25/25 26/26/26
f 27/27/27 25/25/25 28/28/28
f 28/28/28 26/26/26 29/29/29
f 30/30/30 27/27/27 28/28/28
f 31/31/31 28/28/28 29/29/29
f 30/30/30 28/28/28 31/31/31
f 29/29/29 32/32/32 31/31/31
f 33/33/33 30/30/30 31/31/31
f 31/31/31 32/32/32 33/33/33
f 36/36/36 35/35/35 34/34/34
f 36/36/36 37/37/37 35/35/35
f 38/38/38 37/37/37 36/36/36
f 39/39/39 36/36/36 34/34/34
f 38/38/38 36/36/36 39/39/39
f 39/39/39 34/34/34 40/40/40
f 41/41/41 38/38/38 39/39/39
f 42/42/42 39/39/39 40/40/40
f 41/41/41 39/39/39 42/42/42
f 40/40/40 43/43/43 42/42/42
f 44/44/44 41/41/41 42/42/42
f 42/42/42 43/43/43 44/44/44
g s001v001_m_1
f 47/47/47 46/46/46 45/45/45
f 46/46/46 48/48/48 45/45/45
