g e006v001_m
v 0.3373957 0.5838656 -0.04494682
v 0.3890705 0.3890703 -0.04494682
v 0.3890705 0.3890703 0.04494682
v 0.3373957 0.5838656 0.04494682
v 0.1947956 0.7264658 -0.04494682
v 0.1947956 0.7264658 0.04494682
v 0 0.7781405 -0.04494682
v 0 0.7781405 0.04494682
v -0.1947956 0.7264658 -0.04494682
v -0.1947956 0.7264658 0.04494682
v -0.3373957 0.5838656 -0.04494682
v -0.3373957 0.5838656 0.04494682
v -0.3890705 0.3890704 -0.04494682
v -0.3890705 0.3890704 0.04494682
v -0.3890705 0.3890704 0.04494682
v -0.3373954 0.1942749 -0.04494682
v -0.3890705 0.3890704 -0.04494682
v -0.3373954 0.1942749 0.04494682
v -0.1947954 0.05167478 -0.04494682
v -0.1947954 0.05167478 0.04494682
v 0 0 -0.04494682
v 0 0 0.04494682
v 0.1947954 0.05167478 -0.04494682
v 0.1947954 0.05167478 0.04494682
v 0.3373954 0.1942749 -0.04494682
v 0.3373954 0.1942749 0.04494682
v 0.3890705 0.3890703 -0.04494682
v 0.3890705 0.3890703 0.04494682
v -0.3890705 0.3890704 -0.04494682
v -0.3373954 0.1942749 -0.04494682
v -0.3373957 0.5838656 -0.04494682
v -0.1947956 0.7264658 -0.04494682
v -0.1947954 0.05167478 -0.04494682
v 0 0.7781405 -0.04494682
v 0 0 -0.04494682
v -0.3373954 0.1942749 0.04494682
v -0.3890705 0.3890704 0.04494682
v -0.3373957 0.5838656 0.04494682
v -0.1947954 0.05167478 0.04494682
v -0.1947956 0.7264658 0.04494682
v 0 0 0.04494682
v 0 0.7781405 0.04494682
v 0.1947956 0.7264658 0.04494682
v 0.1947954 0.05167478 0.04494682
v 0.3373954 0.1942749 0.04494682
v 0.3373957 0.5838656 0.04494682
v 0.3890705 0.3890703 0.04494682
v 0.1947956 0.7264658 -0.04494682
v 0 0.7781405 -0.04494682
v 0 0 -0.04494682
v 0.1947954 0.05167478 -0.04494682
v 0.3373957 0.5838656 -0.04494682
v 0.3373954 0.1942749 -0.04494682
v 0.3890705 0.3890703 -0.04494682
v 0.001928806 0.2966671 0.07676177
v 0.06098151 0.2621025 0.04093961
v 0.001928806 0.2258358 0.04093961
v -0.05475283 0.2624514 0.04093961
v 0.05861044 0.329371 0.04093961
v -0.0571239 0.3312583 0.04093961
v 0.001928806 0.3674984 0.04093961
vt 0.7094727 0.3200684
vt 0.8652344 0.3200684
vt 0.8652344 0.2585449
vt 0.7094727 0.2585449
vt 0.5654297 0.3200684
vt 0.5654297 0.2585449
vt 0.4423828 0.3200684
vt 0.4423828 0.2585449
vt 0.3195801 0.3200684
vt 0.3195801 0.2585449
vt 0.175293 0.3200684
vt 0.175293 0.2585449
vt 0.01974487 0.3200684
vt 0.01974487 0.2585449
vt 0.8652344 0.2585449
vt 0.7094727 0.3200684
vt 0.8652344 0.3200684
vt 0.7094727 0.2585449
vt 0.5654297 0.3200684
vt 0.5654297 0.2585449
vt 0.4423828 0.3200684
vt 0.4423828 0.2585449
vt 0.3186035 0.3200684
vt 0.3186035 0.2585449
vt 0.175293 0.3200684
vt 0.175293 0.2585449
vt 0.01974487 0.3200684
vt 0.01974487 0.2585449
vt 0.0199585 0.6650391
vt 0.06524658 0.5151367
vt 0.06536865 0.8149414
vt 0.175293 0.9248047
vt 0.1750488 0.4052734
vt 0.3249512 0.9697266
vt 0.3249512 0.3598633
vt 0.4187012 0.5151367
vt 0.3730469 0.6660156
vt 0.4187012 0.8173828
vt 0.5292969 0.404541
vt 0.5292969 0.9277344
vt 0.6801758 0.3588867
vt 0.6801758 0.9736328
vt 0.831543 0.9277344
vt 0.8320313 0.4050293
vt 0.9418945 0.5151367
vt 0.9423828 0.8168945
vt 0.987793 0.6660156
vt 0.1749268 0.9243164
vt 0.3249512 0.9697266
vt 0.3249512 0.3598633
vt 0.1744385 0.4055176
vt 0.06518555 0.8144531
vt 0.06530762 0.5151367
vt 0.0199585 0.6650391
vt 0.5683594 0.1645508
vt 0.6196289 0.1131592
vt 0.5683594 0.09185791
vt 0.5068359 0.138916
vt 0.6303711 0.1903076
vt 0.5175781 0.2160645
vt 0.5683594 0.2373047
vn 0.8666992 0.4990234 0
vn 1 0 0
vn 1 0 0
vn 0.8666992 0.4990234 0
vn 0.4990234 0.8666992 0
vn 0.4990234 0.8666992 0
vn 0 1 0
vn 0 1 0
vn -0.4990234 0.8666992 0
vn -0.4990234 0.8666992 0
vn -0.8666992 0.4990234 0
vn -0.8666992 0.4990234 0
vn -1 0 0
vn -1 0 0
vn -1 0 0
vn -0.8666992 -0.4990234 0
vn -1 0 0
vn -0.8666992 -0.4990234 0
vn -0.4990234 -0.8666992 0
vn -0.4990234 -0.8666992 0
vn 0 -1 0
vn 0 -1 0
vn 0.4990234 -0.8666992 0
vn 0.4990234 -0.8666992 0
vn 0.8666992 -0.4990234 0
vn 0.8666992 -0.4990234 0
vn 1 0 0
vn 1 0 0
vn 0 0 -1
vn 0 0 -1
vn 0 0 -1
vn 0 0 -1
vn 0 0 -1
vn 0 0 -1
vn 0 0 -1
vn 0 0 1
vn 0 0 1
vn 0 0 1
vn 0 0 1
vn 0 0 1
vn 0 0 1
vn 0 0 1
vn 0 0 1
vn 0 0 1
vn 0 0 1
vn 0 0 1
vn 0 0 1
vn 0 0 -1
vn 0 0 -1
vn 0 0 -1
vn 0 0 -1
vn 0 0 -1
vn 0 0 -1
vn 0 0 -1
vn -0.001087189 0.001345634 1
vn 0.4030762 -0.2294922 0.8857422
vn 0.001225471 -0.451416 0.8925781
vn -0.4128418 -0.2369385 0.8793945
vn 0.4174805 0.2373047 0.8769531
vn -0.404541 0.2269287 0.8857422
vn 0.002502441 0.451416 0.8925781
g e006v001_m_0
f 3/3/3 2/2/2 1/1/1
f 4/4/4 3/3/3 1/1/1
f 1/1/1 5/5/5 4/4/4
f 5/5/5 6/6/6 4/4/4
f 5/5/5 7/7/7 6/6/6
f 7/7/7 8/8/8 6/6/6
f 7/7/7 9/9/9 8/8/8
f 9/9/9 10/10/10 8/8/8
f 9/9/9 11/11/11 10/10/10
f 11/11/11 12/12/12 10/10/10
f 11/11/11 13/13/13 12/12/12
f 13/13/13 14/14/14 12/12/12
f 17/17/17 16/16/16 15/15/15
f 16/16/16 18/18/18 15/15/15
f 16/16/16 19/19/19 18/18/18
f 19/19/19 20/20/20 18/18/18
f 19/19/19 21/21/21 20/20/20
f 21/21/21 22/22/22 20/20/20
f 21/21/21 23/23/23 22/22/22
f 23/23/23 24/24/24 22/22/22
f 23/23/23 25/25/25 24/24/24
f 25/25/25 26/26/26 24/24/24
f 25/25/25 27/27/27 26/26/26
f 27/27/27 28/28/28 26/26/26
f 31/31/31 30/30/30 29/29/29
f 31/31/31 32/32/32 30/30/30
f 32/32/32 33/33/33 30/30/30
f 32/32/32 34/34/34 33/33/33
f 34/34/34 35/35/35 33/33/33
f 38/38/38 37/37/37 36/36/36
f 38/38/38 36/36/36 39/39/39
f 40/40/40 38/38/38 39/39/39
f 40/40/40 39/39/39 41/41/41
f 42/42/42 40/40/40 41/41/41
f 43/43/43 42/42/42 41/41/41
f 44/44/44 43/43/43 41/41/41
f 44/44/44 45/45/45 43/43/43
f 45/45/45 46/46/46 43/43/43
f 45/45/45 47/47/47 46/46/46
f 50/50/50 49/49/49 48/48/48
f 51/51/51 50/50/50 48/48/48
f 51/51/51 48/48/48 52/52/52
f 53/53/53 51/51/51 52/52/52
f 53/53/53 52/52/52 54/54/54
f 57/57/57 56/56/56 55/55/55
f 58/58/58 57/57/57 55/55/55
f 56/56/56 59/59/59 55/55/55
f 60/60/60 58/58/58 55/55/55
f 59/59/59 61/61/61 55/55/55
f 61/61/61 60/60/60 55/55/55
