#
# OBJECT NAME
#
o model_2639
mtllib 2639.mtl

#
# VERTEX BUFFER 000
#
v -0.403052 0.133367 0.107998
v -0.272531 0 0.0730239
v -0.146048 0 0.252965
v -0.215994 0.133367 0.374115
v 0.0730239 0 0.272532
v 0.107997 0.133367 0.403052
v 0.252965 0 0.146048
v 0.374114 0.133367 0.215996
v 0.272531 0 -0.0730239
v 0.403052 0.133367 -0.107998
v 0.252965 0 0.146048
v 0.0730239 0 0.272532
v -0.272531 0 0.0730239
v -0.146048 0 0.252965
v -0.252965 0 -0.146048
v -0.0730239 0 -0.272532
v 0.272531 0 -0.0730239
v 0.146048 0 -0.252965
v 0.223304 0.676128 -0.0598355
v 0.119667 0.676128 -0.207271
v 0 0.466879 0
v -0.0598336 0.676128 -0.223303
v -0.207271 0.676128 -0.119671
v -0.223305 0.676128 0.0598355
v -0.119667 0.676128 0.207271
v 0.0598336 0.676128 0.223303
v 0.207271 0.676128 0.119671
v 0.107117 0.369349 0.399768
v 0.371065 0.369349 0.214235
v -0.214235 0.369349 0.371067
v -0.399767 0.369349 0.107118
v 0.399767 0.369349 -0.107118
v 0.258203 0.549596 0.149075
v 0.278175 0.549596 -0.0745378
v 0.0745365 0.549596 0.278178
v -0.149076 0.549596 0.258206
v -0.278175 0.549596 0.0745377
v 0.27372 0.642597 0.158033
v 0.294894 0.642597 -0.0790166
v 0.0790166 0.642597 0.294893
v -0.158033 0.642597 0.27372
v -0.294894 0.642597 0.0790166
v 0.207271 0.676128 0.119671
v 0.223304 0.676128 -0.0598355
v 0.0598336 0.676128 0.223303
v -0.119667 0.676128 0.207271
v 0.0598336 0.676128 0.223303
v -0.223305 0.676128 0.0598355
v 0.403052 0.133367 -0.107998
v 0.272531 0 -0.0730239
v 0.146048 0 -0.252965
v 0.215994 0.133367 -0.374115
v -0.0730239 0 -0.272532
v -0.107997 0.133367 -0.403052
v -0.252965 0 -0.146048
v -0.374114 0.133367 -0.215996
v -0.272531 0 0.0730239
v -0.403052 0.133367 0.107998
v -0.107117 0.369349 -0.399768
v -0.371065 0.369349 -0.214235
v 0.214235 0.369349 -0.371067
v 0.399767 0.369349 -0.107118
v -0.399767 0.369349 0.107118
v -0.258203 0.549596 -0.149076
v -0.278175 0.549596 0.0745377
v -0.0745365 0.549596 -0.278178
v 0.149076 0.549596 -0.258206
v 0.278175 0.549596 -0.0745378
v -0.27372 0.642597 -0.158033
v -0.294894 0.642597 0.0790166
v -0.0790166 0.642597 -0.294893
v 0.158033 0.642597 -0.27372
v 0.294894 0.642597 -0.0790166
v -0.207271 0.676128 -0.119671
v -0.223305 0.676128 0.0598355
v -0.0598336 0.676128 -0.223303
v 0.119667 0.676128 -0.207271
v -0.0598336 0.676128 -0.223303
v 0.223304 0.676128 -0.0598355

vn -0.929688 -0.269775 0.249146
vn -0.625 -0.691895 0.36084
vn -0.36084 -0.691895 0.625
vn -0.481445 -0.269531 0.833496
vn 0.36084 -0.691895 0.625
vn 0.249146 -0.269775 0.929688
vn 0.625 -0.691895 0.36084
vn 0.833496 -0.269531 0.481445
vn 0.625 -0.691895 -0.36084
vn 0.929688 -0.269775 -0.249146
vn 0 -1 0
vn 0 -1 0
vn 0 -1 0
vn 0 -1 0
vn 0 -1 0
vn 0 -1 0
vn 0 -1 0
vn 0 -1 0
vn -0.288574 0.957031 5.96046e-007
vn -0.144287 0.957031 0.25
vn 0 1 -3.57628e-007
vn 0.144287 0.957031 0.25
vn 0.25 0.957031 0.144287
vn 0.25 0.957031 -0.144287
vn 0.144287 0.957031 -0.25
vn -0.144287 0.957031 -0.25
vn -0.25 0.957031 -0.144287
vn 0 0.475342 0.879395
vn 0.761719 0.475342 0.439697
vn -0.439697 0.475342 0.761719
vn -0.879395 0.475342 0
vn 0.761719 0.475342 -0.439697
vn 0.821777 0.314453 0.474365
vn 0.821777 0.314453 -0.474365
vn 1.78814e-007 0.314453 0.94873
vn -0.474365 0.314453 0.821777
vn -0.94873 0.314453 -1.13249e-006
vn 0.86084 -0.104492 0.49707
vn 0.86084 -0.104431 -0.49707
vn 0 -0.104431 0.994141
vn -0.49707 -0.104431 0.86084
vn -0.994141 -0.104492 -3.57628e-006
vn 0.551758 0.77002 0.318604
vn 0.637207 0.77002 2.86102e-006
vn 0.318604 0.77002 0.551758
vn -0.318604 0.77002 0.551758
vn 0 0.77002 0.637207
vn -0.551758 0.77002 0.318604
vn 0.929688 -0.269775 -0.249146
vn 0.625 -0.691895 -0.36084
vn 0.36084 -0.691895 -0.625
vn 0.481445 -0.269531 -0.833496
vn -0.36084 -0.691895 -0.625
vn -0.249146 -0.269775 -0.929688
vn -0.625 -0.691895 -0.36084
vn -0.833496 -0.269531 -0.481445
vn -0.625 -0.691895 0.36084
vn -0.929688 -0.269775 0.249146
vn 0 0.475342 -0.879395
vn -0.761719 0.475342 -0.439697
vn 0.439697 0.475342 -0.761719
vn 0.761719 0.475342 -0.439697
vn -0.879395 0.475342 0
vn -0.821777 0.314453 -0.474365
vn -0.94873 0.314453 -1.13249e-006
vn -1.78814e-007 0.314453 -0.94873
vn 0.474365 0.314453 -0.821777
vn 0.821777 0.314453 -0.474365
vn -0.86084 -0.104492 -0.49707
vn -0.994141 -0.104492 -3.57628e-006
vn 0 -0.104431 -0.994141
vn 0.49707 -0.104431 -0.86084
vn 0.86084 -0.104431 -0.49707
vn -0.551758 0.77002 -0.318604
vn -0.637207 0.77002 -1.54972e-006
vn -0.318604 0.77002 -0.551758
vn 0.318604 0.77002 -0.551758
vn 0 0.77002 -0.637207
vn 0.551758 0.77002 -0.318604

vt 0.0810831 0.429927
vt 0.0810831 0.283817
vt 0.242903 0.283817
vt 0.242903 0.429927
vt 0.414774 0.283817
vt 0.414774 0.429927
vt 0.580682 0.283817
vt 0.580682 0.429927
vt 0.68796 0.283817
vt 0.68796 0.429927
vt 0.746789 0.080359
vt 0.823824 0.0262085
vt 0.971767 0.111623
vt 0.917616 0.0345858
vt 0.963387 0.205416
vt 0.886354 0.259567
vt 0.738409 0.174152
vt 0.792556 0.251189
vt 0.974521 0.882459
vt 0.917274 0.965481
vt 0.851193 0.848702
vt 0.818162 0.974597
vt 0.736733 0.916097
vt 0.727883 0.815011
vt 0.785117 0.731808
vt 0.884244 0.722868
vt 0.96565 0.781205
vt 0.414774 0.573125
vt 0.580682 0.573191
vt 0.242903 0.57312
vt 0.0810831 0.573296
vt 0.68796 0.573401
vt 0.580682 0.693552
vt 0.68796 0.693552
vt 0.414774 0.693552
vt 0.242903 0.693552
vt 0.0810831 0.693552
vt 0.580682 0.785398
vt 0.68796 0.785398
vt 0.414774 0.785398
vt 0.242903 0.785398
vt 0.0810831 0.785398
vt 0.580682 0.834678
vt 0.68796 0.834678
vt 0.414774 0.834678
vt 0.242903 0.834678
vt 0.414774 0.834678
vt 0.0810831 0.834678
vt 0.0810831 0.429927
vt 0.0810831 0.283817
vt 0.242903 0.283817
vt 0.242903 0.429927
vt 0.414774 0.283817
vt 0.414774 0.429927
vt 0.580682 0.283817
vt 0.580682 0.429927
vt 0.68796 0.283817
vt 0.68796 0.429927
vt 0.414774 0.573125
vt 0.580682 0.573191
vt 0.242903 0.57312
vt 0.0810831 0.573296
vt 0.68796 0.573401
vt 0.580682 0.693552
vt 0.68796 0.693552
vt 0.414774 0.693552
vt 0.242903 0.693552
vt 0.0810831 0.693552
vt 0.580682 0.785398
vt 0.68796 0.785398
vt 0.414774 0.785398
vt 0.242903 0.785398
vt 0.0810831 0.785398
vt 0.580682 0.834678
vt 0.68796 0.834678
vt 0.414774 0.834678
vt 0.242903 0.834678
vt 0.414774 0.834678
vt 0.0810831 0.834678


#
# MESH 000
#
g surface_000
usemtl surface_000
f 77/77/77 71/71/71 78/78/78
f 77/77/77 72/72/72 71/71/71
f 72/72/72 66/66/66 71/71/71
f 71/71/71 66/66/66 64/64/64
f 71/71/71 64/64/64 69/69/69
f 76/76/76 71/71/71 69/69/69
f 76/76/76 69/69/69 74/74/74
f 79/79/79 72/72/72 77/77/77
f 79/79/79 73/73/73 72/72/72
f 73/73/73 67/67/67 72/72/72
f 72/72/72 67/67/67 66/66/66
f 67/67/67 59/59/59 66/66/66
f 66/66/66 59/59/59 60/60/60
f 66/66/66 60/60/60 64/64/64
f 64/64/64 60/60/60 63/63/63
f 64/64/64 63/63/63 65/65/65
f 69/69/69 64/64/64 65/65/65
f 69/69/69 65/65/65 70/70/70
f 74/74/74 69/69/69 70/70/70
f 74/74/74 70/70/70 75/75/75
f 73/73/73 68/68/68 67/67/67
f 68/68/68 61/61/61 67/67/67
f 67/67/67 61/61/61 59/59/59
f 61/61/61 54/54/54 59/59/59
f 59/59/59 54/54/54 56/56/56
f 59/59/59 56/56/56 60/60/60
f 60/60/60 56/56/56 58/58/58
f 60/60/60 58/58/58 63/63/63
f 68/68/68 62/62/62 61/61/61
f 62/62/62 52/52/52 61/61/61
f 61/61/61 52/52/52 54/54/54
f 52/52/52 53/53/53 54/54/54
f 54/54/54 53/53/53 55/55/55
f 54/54/54 55/55/55 56/56/56
f 56/56/56 55/55/55 57/57/57
f 56/56/56 57/57/57 58/58/58
f 62/62/62 49/49/49 52/52/52
f 49/49/49 51/51/51 52/52/52
f 52/52/52 51/51/51 53/53/53
f 49/49/49 50/50/50 51/51/51
f 46/46/46 40/40/40 47/47/47
f 46/46/46 41/41/41 40/40/40
f 41/41/41 35/35/35 40/40/40
f 40/40/40 35/35/35 33/33/33
f 40/40/40 33/33/33 38/38/38
f 45/45/45 40/40/40 38/38/38
f 45/45/45 38/38/38 43/43/43
f 48/48/48 41/41/41 46/46/46
f 48/48/48 42/42/42 41/41/41
f 42/42/42 36/36/36 41/41/41
f 41/41/41 36/36/36 35/35/35
f 36/36/36 28/28/28 35/35/35
f 35/35/35 28/28/28 29/29/29
f 35/35/35 29/29/29 33/33/33
f 33/33/33 29/29/29 32/32/32
f 33/33/33 32/32/32 34/34/34
f 38/38/38 33/33/33 34/34/34
f 38/38/38 34/34/34 39/39/39
f 43/43/43 38/38/38 39/39/39
f 43/43/43 39/39/39 44/44/44
f 42/42/42 37/37/37 36/36/36
f 37/37/37 30/30/30 36/36/36
f 36/36/36 30/30/30 28/28/28
f 30/30/30 6/6/6 28/28/28
f 28/28/28 6/6/6 8/8/8
f 28/28/28 8/8/8 29/29/29
f 29/29/29 8/8/8 10/10/10
f 29/29/29 10/10/10 32/32/32
f 37/37/37 31/31/31 30/30/30
f 31/31/31 4/4/4 30/30/30
f 30/30/30 4/4/4 6/6/6
f 4/4/4 5/5/5 6/6/6
f 6/6/6 5/5/5 7/7/7
f 6/6/6 7/7/7 8/8/8
f 8/8/8 7/7/7 9/9/9
f 8/8/8 9/9/9 10/10/10
f 31/31/31 1/1/1 4/4/4
f 1/1/1 3/3/3 4/4/4
f 4/4/4 3/3/3 5/5/5
f 1/1/1 2/2/2 3/3/3
f 17/17/17 16/16/16 18/18/18
f 15/15/15 16/16/16 17/17/17
f 15/15/15 17/17/17 13/13/13
f 11/11/11 13/13/13 17/17/17
f 11/11/11 12/12/12 13/13/13
f 13/13/13 12/12/12 14/14/14
f 27/27/27 19/19/19 21/21/21
f 19/19/19 20/20/20 21/21/21
f 20/20/20 22/22/22 21/21/21
f 22/22/22 23/23/23 21/21/21
f 23/23/23 24/24/24 21/21/21
f 24/24/24 25/25/25 21/21/21
f 25/25/25 26/26/26 21/21/21
f 26/26/26 27/27/27 21/21/21

