#
# OBJECT NAME
#
o model_4915
mtllib 4915.mtl

#
# VERTEX BUFFER 000
#
v 0.322742 0.822743 -0.366993
v 0.322742 1 -0.366993
v 0.322742 1 -0.5
v 0.322742 0.822743 -0.5
v 0.322742 1 -0.366993
v 0.5 1 -0.16698
v 0.5 1 -0.5
v 0.322742 1 -0.5
v 0.5 1 -0.16698
v 0.5 0.822743 -0.16698
v 0.5 0.822743 -0.5
v 0.5 1 -0.5
v 0.5 0.822743 -0.16698
v 0.322742 0.822743 -0.366993
v 0.322742 0.822743 -0.5
v 0.5 0.822743 -0.5
v -0.322742 0.822743 -0.366993
v -0.322742 0.822743 -0.5
v -0.322742 1 -0.5
v -0.322742 1 -0.366993
v -0.322742 0.822743 -0.366993
v -0.322742 1 -0.366993
v 0.322742 1 -0.366993
v 0.322742 0.822743 -0.366993
v -0.5 1 -0.5
v -0.5 0.822743 -0.5
v -0.5 0.822743 -0.16698
v -0.5 1 -0.16698
v -0.5 0.822743 -0.5
v -0.322742 0.822743 -0.5
v -0.322742 0.822743 -0.366993
v -0.5 0.822743 -0.16698
v -0.322742 1 -0.366993
v -0.5 1 -0.16698
v 0.5 1 -0.16698
v 0.322742 1 -0.366993
v -0.5 0.822743 -0.16698
v 0.5 0.822743 -0.16698
v 0.5 1 -0.16698
v -0.5 1 -0.16698
v 0.322742 0.822743 -0.366993
v 0.5 0.822743 -0.16698
v -0.5 0.822743 -0.16698
v -0.322742 0.822743 -0.366993
v -0.5 1 -0.5
v -0.5 1 -0.16698
v -0.322742 1 -0.366993
v -0.322742 1 -0.5
v -0.322742 1 -0.5
v -0.322742 0.822743 -0.5
v -0.5 0.822743 -0.5
v -0.5 1 -0.5
v 0.322742 0.822743 -0.5
v 0.322742 1 -0.5
v 0.5 1 -0.5
v 0.5 0.822743 -0.5
v -0.0312185 0.668146 -0.315281
v -0.0340245 0.714427 -0.326007
v 1.95165e-007 0.711805 -0.334337
v 1.95154e-007 0.662075 -0.320878
v -0.044149 0.682808 -0.301771
v -0.0481174 0.720757 -0.305894
v -0.0312185 0.697468 -0.28826
v -0.0340245 0.727085 -0.285782
v 1.95165e-007 0.702414 -0.280576
v 1.95165e-007 0.729707 -0.277451
v 0.0312188 0.697468 -0.28826
v 0.0340249 0.727085 -0.285782
v 1.95165e-007 0.729707 -0.277451
v 1.95165e-007 0.702414 -0.280576
v 0.0441494 0.682808 -0.301771
v 0.0481178 0.720757 -0.305894
v 0.0312188 0.668146 -0.315281
v 0.0340249 0.714427 -0.326007
v 1.95154e-007 0.662075 -0.320878
v 1.95165e-007 0.711805 -0.334337
v -0.0312185 0.633433 -0.290234
v 1.95154e-007 0.624618 -0.293852
v -0.044149 0.654716 -0.281502
v -0.0312185 0.675997 -0.272768
v 1.95154e-007 0.684812 -0.26915
v 0.0312188 0.675997 -0.272768
v 1.95154e-007 0.684812 -0.26915
v 0.0441494 0.654716 -0.281502
v 0.0312188 0.633433 -0.290234
v 1.95154e-007 0.624618 -0.293852
v 1.77014e-007 0.672746 -0.164847
v 1.95154e-007 0.630633 -0.189028
v 0.0312188 0.639008 -0.193086
v 0.0295404 0.677869 -0.170421
v 0.0441494 0.659227 -0.202883
v 0.0417758 0.690235 -0.183879
v 0.0312188 0.679445 -0.212681
v 0.0295404 0.702602 -0.197335
v 1.95154e-007 0.68782 -0.216738
v 1.77014e-007 0.707724 -0.202909
v 1.77014e-007 0.707724 -0.202909
v 1.95154e-007 0.68782 -0.216738
v -0.0312185 0.679445 -0.212681
v -0.02954 0.702602 -0.197335
v -0.044149 0.659227 -0.202883
v -0.0417754 0.690235 -0.183879
v -0.0312185 0.639008 -0.193086
v -0.02954 0.677869 -0.170421
v 1.95154e-007 0.630633 -0.189028
v 1.77014e-007 0.672746 -0.164847
v 1.95154e-007 0.607602 -0.222495
v 0.0312188 0.617663 -0.224103
v 0.0441494 0.641953 -0.227983
v 0.0312188 0.666244 -0.231864
v 1.95154e-007 0.676304 -0.233471
v 1.95154e-007 0.676304 -0.233471
v -0.0312185 0.666244 -0.231864
v -0.044149 0.641953 -0.227983
v -0.0312185 0.617663 -0.224103
v 1.95154e-007 0.607602 -0.222495
v 1.95154e-007 0.60549 -0.259304
v 0.0312188 0.615705 -0.258217
v 0.0441494 0.640369 -0.255591
v 0.0312188 0.665033 -0.252965
v 1.95154e-007 0.675248 -0.251876
v 1.95154e-007 0.675248 -0.251876
v -0.0312185 0.665033 -0.252965
v -0.044149 0.640369 -0.255591
v -0.0312185 0.615705 -0.258217
v 1.95154e-007 0.60549 -0.259304
v -0.0328517 0.848414 -0.3268
v 1.95233e-007 0.848414 -0.335434
v -0.0464588 0.848414 -0.305958
v 1.95233e-007 0.848414 -0.335434
v 0.0328521 0.848414 -0.3268
v -0.0328517 0.848414 -0.285114
v 0.0464592 0.848414 -0.305958
v 1.95233e-007 0.848414 -0.276481
v 0.0328521 0.848414 -0.285114
v 1.95233e-007 0.848414 -0.276481
v 0.0239352 0.695029 -0.167872
v -2.53753e-007 0.691326 -0.163185
v 0.0338491 0.703966 -0.179189
v -2.53753e-007 0.691326 -0.163185
v -0.0239357 0.695029 -0.167872
v 0.0239352 0.712905 -0.190505
v -0.0338496 0.703966 -0.179189
v -2.53753e-007 0.716606 -0.195192
v -0.0239357 0.712905 -0.190505
v -2.53753e-007 0.716606 -0.195192
v -2.30877e-007 0.713543 -0.175718
v -2.30877e-007 0.713543 -0.175718

vn -1 0 0
vn -1 0 0
vn -1 0 0
vn -1 0 0
vn 0 1 0
vn 0 1 0
vn 0 1 0
vn 0 1 0
vn 1 0 0
vn 1 0 0
vn 1 0 0
vn 1 0 0
vn 0 -1 0
vn 0 -1 0
vn 0 -1 0
vn 0 -1 0
vn 1 0 0
vn 1 0 0
vn 1 0 0
vn 1 0 0
vn 0 0 -1
vn 0 0 -1
vn 0 0 -1
vn 0 0 -1
vn -1 0 0
vn -1 0 0
vn -1 0 0
vn -1 0 0
vn 0 -1 0
vn 0 -1 0
vn 0 -1 0
vn 0 -1 0
vn 0 1 0
vn 0 1 0
vn 0 1 0
vn 0 1 0
vn 0 0 1
vn 0 0 1
vn 0 0 1
vn 0 0 1
vn 0 -1 0
vn 0 -1 0
vn 0 -1 0
vn 0 -1 0
vn 0 1 0
vn 0 1 0
vn 0 1 0
vn 0 1 0
vn 0 0 -1
vn 0 0 -1
vn 0 0 -1
vn 0 0 -1
vn 0 0 -1
vn 0 0 -1
vn 0 0 -1
vn 0 0 -1
vn -0.626465 -0.457275 -0.630371
vn -0.626953 -0.16626 -0.760742
vn 0 -0.213623 -0.976563
vn 0 -0.586914 -0.809082
vn -1 -1.07288e-006 1.78814e-007
vn -1 -1.90735e-006 -7.86781e-006
vn -0.626465 0.457275 0.630371
vn -0.626953 0.16626 0.760742
vn 0 0.586914 0.80957
vn 0 0.213623 0.976563
vn 0.626465 0.457275 0.630371
vn 0.626953 0.16626 0.760742
vn 0 0.213623 0.976563
vn 0 0.586914 0.80957
vn 1 -1.07288e-006 1.78814e-007
vn 1 -1.90735e-006 -7.86781e-006
vn 0.626465 -0.457275 -0.630371
vn 0.626953 -0.16626 -0.760742
vn 0 -0.586914 -0.809082
vn 0 -0.213623 -0.976563
vn -0.626465 -0.663574 -0.407715
vn 0 -0.852051 -0.522949
vn -1 2.80142e-006 1.78814e-006
vn -0.626465 0.663574 0.407715
vn 0 0.852051 0.522949
vn 0.626465 0.663574 0.407715
vn 0 0.852051 0.522949
vn 1 2.80142e-006 1.78814e-006
vn 0.626465 -0.663574 -0.407715
vn 0 -0.852051 -0.522949
vn -3.57628e-007 -0.404541 0.914063
vn 0 -0.797852 0.602539
vn 0.628418 -0.616211 0.474121
vn 0.617188 -0.25293 0.744629
vn 0.999512 0.0207062 0.0194092
vn 0.963379 0.22876 0.138794
vn 0.623535 0.648438 -0.435547
vn 0.596191 0.645996 -0.47583
vn 0 0.824707 -0.564453
vn -4.76837e-007 0.753906 -0.65625
vn -4.76837e-007 0.753906 -0.65625
vn 0 0.824707 -0.564453
vn -0.623535 0.648438 -0.435547
vn -0.596191 0.645996 -0.47583
vn -0.999512 0.0207062 0.0194092
vn -0.963379 0.22876 0.138672
vn -0.628418 -0.616211 0.474121
vn -0.617188 -0.253174 0.744629
vn 0 -0.797852 0.602539
vn -3.57628e-007 -0.404541 0.914063
vn 0 -0.972168 0.232422
vn 0.626465 -0.757324 0.181152
vn 1 -4.70877e-006 2.32458e-006
vn 0.626465 0.757324 -0.181152
vn 0 0.972168 -0.232422
vn 0 0.972168 -0.232422
vn -0.626465 0.757324 -0.181152
vn -1 -4.70877e-006 2.32458e-006
vn -0.626465 -0.757324 0.181152
vn 0 -0.972168 0.232422
vn 0 -0.987305 -0.157349
vn 0.626465 -0.769043 -0.122559
vn 1 -7.7486e-007 4.17233e-007
vn 0.626465 0.769043 0.122559
vn 0 0.987305 0.157349
vn 0 0.987305 0.157349
vn -0.626465 0.769043 0.122559
vn -1 -7.7486e-007 4.17233e-007
vn -0.626465 -0.769043 -0.122559
vn 0 -0.987305 -0.157349
vn -0.617188 0 -0.786621
vn 0 0 -1
vn -1 0 -1.14441e-005
vn 0 0 -1
vn 0.617188 0 -0.786621
vn -0.617188 0 0.786621
vn 1 0 -1.14441e-005
vn 0 0 1
vn 0.617188 0 0.786621
vn 0 0 1
vn 0.413818 0.412354 0.811035
vn -3.57628e-007 0.294678 0.955078
vn 0.612305 0.694824 0.375977
vn -3.57628e-007 0.294678 0.955078
vn -0.413818 0.412354 0.811035
vn 0.409668 0.907227 -0.0917969
vn -0.612305 0.694824 0.375732
vn -4.76837e-007 0.964355 -0.264404
vn -0.409668 0.907227 -0.0917969
vn -4.76837e-007 0.964355 -0.264404
vn 0 0.883789 0.467529
vn 0 0.883789 0.467529

vt 0.109135 0.0227436
vt 0.109135 0.122788
vt 0.0258467 0.122788
vt 0.0258467 0.0227436
vt 0.143827 0.574831
vt 0.272068 0.433819
vt 0.0101195 0.433819
vt 0.0101195 0.574831
vt 0.731238 0.122788
vt 0.731238 0.0227436
vt 0.987356 0.0227436
vt 0.987356 0.122788
vt 0.272068 0.433819
vt 0.143827 0.574831
vt 0.0101195 0.574831
vt 0.0101195 0.433819
vt 0.109135 0.0227436
vt 0.0258467 0.0227436
vt 0.0258467 0.122788
vt 0.109135 0.122788
vt 0.568599 0.122788
vt 0.568599 0.0227436
vt 0.15529 0.0227436
vt 0.15529 0.122788
vt 0.987356 0.122788
vt 0.987356 0.0227436
vt 0.731238 0.0227436
vt 0.731238 0.122788
vt 0.0101195 0.433819
vt 0.0101195 0.574831
vt 0.143827 0.574831
vt 0.272068 0.433819
vt 0.421445 0.574831
vt 0.293204 0.433819
vt 0.962753 0.433819
vt 0.834512 0.574831
vt 0.69684 0.0227436
vt 0.0258467 0.0227436
vt 0.0258467 0.122788
vt 0.69684 0.122788
vt 0.834512 0.574831
vt 0.962753 0.433819
vt 0.293204 0.433819
vt 0.421445 0.574831
vt 0.0101195 0.433819
vt 0.272068 0.433819
vt 0.143827 0.574831
vt 0.0101195 0.574831
vt 0.109135 0.122788
vt 0.109135 0.0227436
vt 0.0259215 0.0227436
vt 0.0259215 0.122788
vt 0.109135 0.122788
vt 0.109135 0.0227436
vt 0.0259215 0.0227436
vt 0.0259215 0.122788
vt 0.762445 0.189772
vt 0.72714 0.189772
vt 0.72714 0.169356
vt 0.762445 0.169356
vt 0.762445 0.209826
vt 0.72714 0.209826
vt 0.762445 0.229734
vt 0.72714 0.229734
vt 0.762445 0.250222
vt 0.72714 0.250222
vt 0.762445 0.229734
vt 0.72714 0.229734
vt 0.72714 0.250223
vt 0.762445 0.250223
vt 0.762445 0.209826
vt 0.72714 0.209826
vt 0.762445 0.189772
vt 0.72714 0.189772
vt 0.762445 0.169356
vt 0.72714 0.169356
vt 0.797752 0.189772
vt 0.797752 0.169356
vt 0.797752 0.209826
vt 0.797752 0.229734
vt 0.797752 0.250222
vt 0.797752 0.229734
vt 0.797752 0.250223
vt 0.797752 0.209826
vt 0.797752 0.189772
vt 0.797752 0.169356
vt 0.941267 0.169356
vt 0.904954 0.169356
vt 0.904954 0.189772
vt 0.941267 0.189772
vt 0.904954 0.209826
vt 0.941267 0.209826
vt 0.904954 0.229734
vt 0.941267 0.229734
vt 0.904954 0.250223
vt 0.941267 0.250223
vt 0.941267 0.250222
vt 0.904954 0.250222
vt 0.904954 0.229734
vt 0.941267 0.229734
vt 0.904954 0.209826
vt 0.941267 0.209826
vt 0.904954 0.189772
vt 0.941267 0.189772
vt 0.904954 0.169356
vt 0.941267 0.169356
vt 0.868807 0.169356
vt 0.868807 0.189772
vt 0.868807 0.209826
vt 0.868807 0.229734
vt 0.868807 0.250223
vt 0.868807 0.250222
vt 0.868807 0.229734
vt 0.868807 0.209826
vt 0.868807 0.189772
vt 0.868807 0.169356
vt 0.833141 0.169356
vt 0.833141 0.189772
vt 0.833141 0.209826
vt 0.833141 0.229734
vt 0.833141 0.250223
vt 0.833141 0.250222
vt 0.833141 0.229734
vt 0.833141 0.209826
vt 0.833141 0.189772
vt 0.833141 0.169356
vt 0.554038 0.189772
vt 0.554038 0.169356
vt 0.554038 0.209826
vt 0.554038 0.169356
vt 0.554038 0.189772
vt 0.554038 0.229734
vt 0.554038 0.209826
vt 0.554038 0.250222
vt 0.554038 0.229734
vt 0.554038 0.250223
vt 0.963705 0.189772
vt 0.963705 0.169356
vt 0.963705 0.209826
vt 0.963705 0.169356
vt 0.963705 0.189772
vt 0.963705 0.229734
vt 0.963705 0.209826
vt 0.963705 0.250223
vt 0.963705 0.229734
vt 0.963705 0.250222
vt 0.984741 0.20978
vt 0.984741 0.20978


#
# MESH 000
#
g surface_000
usemtl surface_000
f 53/53/53 55/55/55 56/56/56
f 53/53/53 54/54/54 55/55/55
f 49/49/49 51/51/51 52/52/52
f 49/49/49 50/50/50 51/51/51
f 45/45/45 47/47/47 48/48/48
f 45/45/45 46/46/46 47/47/47
f 41/41/41 43/43/43 44/44/44
f 41/41/41 42/42/42 43/43/43
f 37/37/37 39/39/39 40/40/40
f 37/37/37 38/38/38 39/39/39
f 33/33/33 35/35/35 36/36/36
f 33/33/33 34/34/34 35/35/35
f 29/29/29 31/31/31 32/32/32
f 29/29/29 30/30/30 31/31/31
f 25/25/25 27/27/27 28/28/28
f 25/25/25 26/26/26 27/27/27
f 21/21/21 23/23/23 24/24/24
f 21/21/21 22/22/22 23/23/23
f 17/17/17 19/19/19 20/20/20
f 17/17/17 18/18/18 19/19/19
f 13/13/13 15/15/15 16/16/16
f 13/13/13 14/14/14 15/15/15
f 9/9/9 11/11/11 12/12/12
f 9/9/9 10/10/10 11/11/11
f 5/5/5 7/7/7 8/8/8
f 5/5/5 6/6/6 7/7/7
f 1/1/1 3/3/3 4/4/4
f 1/1/1 2/2/2 3/3/3
f 69/69/69 135/135/135 136/136/136
f 69/69/69 68/68/68 135/135/135
f 68/68/68 133/133/133 135/135/135
f 68/68/68 72/72/72 133/133/133
f 72/72/72 131/131/131 133/133/133
f 72/72/72 74/74/74 131/131/131
f 74/74/74 130/130/130 131/131/131
f 74/74/74 76/76/76 130/130/130
f 67/67/67 68/68/68 69/69/69
f 71/71/71 68/68/68 67/67/67
f 71/71/71 72/72/72 68/68/68
f 73/73/73 72/72/72 71/71/71
f 73/73/73 74/74/74 72/72/72
f 75/75/75 74/74/74 73/73/73
f 75/75/75 76/76/76 74/74/74
f 67/67/67 69/69/69 70/70/70
f 82/82/82 67/67/67 70/70/70
f 84/84/84 67/67/67 82/82/82
f 84/84/84 71/71/71 67/67/67
f 85/85/85 71/71/71 84/84/84
f 85/85/85 73/73/73 71/71/71
f 86/86/86 73/73/73 85/85/85
f 86/86/86 75/75/75 73/73/73
f 82/82/82 70/70/70 83/83/83
f 120/120/120 82/82/82 83/83/83
f 119/119/119 82/82/82 120/120/120
f 119/119/119 84/84/84 82/82/82
f 118/118/118 84/84/84 119/119/119
f 118/118/118 85/85/85 84/84/84
f 117/117/117 85/85/85 118/118/118
f 117/117/117 86/86/86 85/85/85
f 120/120/120 83/83/83 121/121/121
f 110/110/110 120/120/120 121/121/121
f 109/109/109 120/120/120 110/110/110
f 109/109/109 119/119/119 120/120/120
f 108/108/108 119/119/119 109/109/109
f 108/108/108 118/118/118 119/119/119
f 107/107/107 118/118/118 108/108/108
f 107/107/107 117/117/117 118/118/118
f 110/110/110 121/121/121 111/111/111
f 93/93/93 110/110/110 111/111/111
f 91/91/91 110/110/110 93/93/93
f 91/91/91 109/109/109 110/110/110
f 89/89/89 109/109/109 91/91/91
f 89/89/89 108/108/108 109/109/109
f 88/88/88 108/108/108 89/89/89
f 88/88/88 107/107/107 108/108/108
f 93/93/93 111/111/111 95/95/95
f 94/94/94 93/93/93 95/95/95
f 92/92/92 93/93/93 94/94/94
f 92/92/92 91/91/91 93/93/93
f 90/90/90 91/91/91 92/92/92
f 90/90/90 89/89/89 91/91/91
f 87/87/87 89/89/89 90/90/90
f 87/87/87 88/88/88 89/89/89
f 94/94/94 95/95/95 96/96/96
f 94/94/94 96/96/96 144/144/144
f 94/94/94 144/144/144 142/142/142
f 92/92/92 94/94/94 142/142/142
f 92/92/92 142/142/142 139/139/139
f 90/90/90 92/92/92 139/139/139
f 90/90/90 139/139/139 137/137/137
f 87/87/87 90/90/90 137/137/137
f 87/87/87 137/137/137 138/138/138
f 138/138/138 137/137/137 147/147/147
f 142/142/142 144/144/144 147/147/147
f 139/139/139 142/142/142 147/147/147
f 137/137/137 139/139/139 147/147/147
f 59/59/59 127/127/127 128/128/128
f 59/59/59 58/58/58 127/127/127
f 58/58/58 129/129/129 127/127/127
f 58/58/58 62/62/62 129/129/129
f 62/62/62 132/132/132 129/129/129
f 62/62/62 64/64/64 132/132/132
f 64/64/64 134/134/134 132/132/132
f 64/64/64 66/66/66 134/134/134
f 57/57/57 58/58/58 59/59/59
f 61/61/61 58/58/58 57/57/57
f 61/61/61 62/62/62 58/58/58
f 63/63/63 62/62/62 61/61/61
f 63/63/63 64/64/64 62/62/62
f 65/65/65 64/64/64 63/63/63
f 65/65/65 66/66/66 64/64/64
f 57/57/57 59/59/59 60/60/60
f 77/77/77 57/57/57 60/60/60
f 79/79/79 57/57/57 77/77/77
f 79/79/79 61/61/61 57/57/57
f 80/80/80 61/61/61 79/79/79
f 80/80/80 63/63/63 61/61/61
f 81/81/81 63/63/63 80/80/80
f 81/81/81 65/65/65 63/63/63
f 77/77/77 60/60/60 78/78/78
f 125/125/125 77/77/77 78/78/78
f 124/124/124 77/77/77 125/125/125
f 124/124/124 79/79/79 77/77/77
f 123/123/123 79/79/79 124/124/124
f 123/123/123 80/80/80 79/79/79
f 122/122/122 80/80/80 123/123/123
f 122/122/122 81/81/81 80/80/80
f 125/125/125 78/78/78 126/126/126
f 115/115/115 125/125/125 126/126/126
f 114/114/114 125/125/125 115/115/115
f 114/114/114 124/124/124 125/125/125
f 113/113/113 124/124/124 114/114/114
f 113/113/113 123/123/123 124/124/124
f 112/112/112 123/123/123 113/113/113
f 112/112/112 122/122/122 123/123/123
f 115/115/115 126/126/126 116/116/116
f 103/103/103 115/115/115 116/116/116
f 101/101/101 115/115/115 103/103/103
f 101/101/101 114/114/114 115/115/115
f 99/99/99 114/114/114 101/101/101
f 99/99/99 113/113/113 114/114/114
f 98/98/98 113/113/113 99/99/99
f 98/98/98 112/112/112 113/113/113
f 103/103/103 116/116/116 105/105/105
f 104/104/104 103/103/103 105/105/105
f 102/102/102 103/103/103 104/104/104
f 102/102/102 101/101/101 103/103/103
f 100/100/100 101/101/101 102/102/102
f 100/100/100 99/99/99 101/101/101
f 97/97/97 99/99/99 100/100/100
f 97/97/97 98/98/98 99/99/99
f 104/104/104 105/105/105 106/106/106
f 104/104/104 106/106/106 140/140/140
f 104/104/104 140/140/140 141/141/141
f 102/102/102 104/104/104 141/141/141
f 102/102/102 141/141/141 143/143/143
f 100/100/100 102/102/102 143/143/143
f 100/100/100 143/143/143 145/145/145
f 97/97/97 100/100/100 145/145/145
f 97/97/97 145/145/145 146/146/146
f 146/146/146 145/145/145 148/148/148
f 141/141/141 140/140/140 148/148/148
f 143/143/143 141/141/141 148/148/148
f 145/145/145 143/143/143 148/148/148

