#
# OBJECT NAME
#
o model_3507
mtllib 3507.mtl

#
# VERTEX BUFFER 000
#
v 0.937681 0.0179648 -0.184926
v 0.792578 0.0179648 -0.328736
v 0.774465 0.126924 -0.31404
v 0.913112 0.126924 -0.176588
v 0.539488 0.0179648 -0.382667
v 0.532635 0.126924 -0.365586
v 0.319623 0.0179648 -0.464339
v 0.313609 0.126924 -0.443783
v 0.018519 0.0179648 -0.493127
v 0.018519 0.126924 -0.4717
v -0.305416 0.0179648 -0.46071
v -0.296431 0.126924 -0.440315
v -0.305416 0.0179648 -0.46071
v -0.399505 0.0179648 -0.389675
v -0.387011 0.126924 -0.37242
v -0.553283 0.0179648 -0.422007
v -0.77744 0.0179648 -0.384545
v -0.748504 0.126924 -0.357377
v -0.536192 0.126924 -0.403323
v -0.953601 0.0179648 -0.218468
v -0.88608 0.126924 -0.198642
v -0.979989 0.0179648 4.2462e-006
v -0.917127 0.126924 3e-005
v -0.856113 0.0179648 0.312817
v -0.811989 0.126924 0.299015
v -0.709712 0.0179648 0.411238
v -0.677753 0.126924 0.38834
v -0.556919 0.0179648 0.406203
v -0.53972 0.126924 0.388599
v -0.420759 0.0179648 0.452333
v -0.358689 0.126924 0.427368
v -0.103893 0.0179648 0.449904
v 0.018519 0.0179648 0.485303
v 0.018519 0.126924 0.463876
v -0.100234 0.126924 0.430042
v 0.161155 0.0179648 0.441146
v 0.156892 0.126924 0.421671
v 0.239056 0.0179648 0.335674
v 0.245951 0.0179648 0.409072
v 0.266436 0.126924 0.391015
v 0.250598 0.126924 0.320862
v 0.576803 0.0179648 0.39971
v 0.791505 0.0179648 0.308733
v 0.772918 0.126924 0.295112
v 0.567769 0.126924 0.382067
v 0.935297 0.0179648 0.135897
v 0.910313 0.126924 0.129917
v 0.982712 0.0179648 4.2462e-006
v 0.955467 0.126924 3e-005
v 0.781592 0 -0.325206
v 0.927505 0 -0.183431
v 0.018253 0 0
v 0.529641 0 -0.377382
v 0.312129 0 -0.454601
v 0.018511 0 -0.481671
v -0.29876 0 -0.452458
v -0.54259 0 -0.415089
v -0.389638 0 -0.381369
v -0.764036 0 -0.380191
v -0.941046 0 -0.216394
v -0.968117 0 0
v -0.843868 0 0.308117
v -0.690538 0 0.401178
v -0.543027 0 0.397266
v -0.101321 0 0.441456
v -0.418194 0 0.443445
v 0.0185119 0 0.47575
v 0.20967 0 0.314058
v 0.157405 0 0.430578
v 0.244085 0 0.32525
v 0.328603 0 0.43405
v 0.250184 0 0.402878
v 0.783487 0 0.306539
v 0.571347 0 0.397625
v 0.926748 0 0.135001
v 0.97438 0 0
v 0.913112 0.126924 -0.176588
v 0.774465 0.126924 -0.31404
v 0.018253 0.126924 3e-005
v 0.532635 0.126924 -0.365586
v 0.313609 0.126924 -0.443783
v 0.018519 0.126924 -0.4717
v -0.296431 0.126924 -0.440315
v -0.387011 0.126924 -0.37242
v -0.536192 0.126924 -0.403323
v -0.748504 0.126924 -0.357377
v -0.88608 0.126924 -0.198642
v -0.917127 0.126924 3e-005
v -0.811989 0.126924 0.299015
v -0.677753 0.126924 0.38834
v -0.53972 0.126924 0.388599
v -0.358689 0.126924 0.427368
v -0.100234 0.126924 0.430042
v 0.018519 0.126924 0.463876
v 0.156892 0.126924 0.421671
v 0.215627 0.126924 0.307308
v 0.567769 0.126924 0.382067
v 0.250598 0.126924 0.320862
v 0.328825 0.126924 0.420379
v 0.772918 0.126924 0.295112
v 0.910313 0.126924 0.129917
v 0.955467 0.126924 3e-005
v -0.387011 0.126924 -0.37242
v -0.399505 0.0179648 -0.389675
v 0.215627 0.0179648 0.321493
v 0.215627 0.126924 0.307308
v 0.328825 0.126924 0.420379
v 0.326734 0.0179648 0.439795
v 0.215627 0.126924 0.307308
v 0.215627 0.0179648 0.321493
v 0.266436 0.126924 0.391015
v 0.795564 0 -0.331159
v 0.540618 0 -0.385483
v 0.320615 0 -0.467728
v 0.018519 0 -0.49666
v -0.306898 0 -0.464073
v -0.401565 0 -0.39252
v -0.401565 0 -0.39252
v -0.556101 0 -0.425088
v -0.782211 0 -0.389024
v -0.964734 0 -0.221737
v -0.990353 0 0
v -0.863388 0 0.315093
v -0.714981 0 0.415013
v -0.559755 0 0.409106
v -0.430993 0 0.456449
v -0.104496 0 0.453179
v 0.018519 0 0.488836
v 0.161858 0 0.444357
v 0.215627 0 0.323832
v 0.215627 0 0.323832
v 0.237153 0 0.338116
v 0.242573 0 0.412049
v 0.326389 0 0.442996
v 0.578293 0 0.402619
v 0.79457 0 0.310979
v 0.939416 0 0.136883
v 0.987204 0 0
v 0.941732 0 -0.186301
v 0.018519 0 -0.49666
v 0.320615 0 -0.467728
v 0.540618 0 -0.385483
v 0.795564 0 -0.331159
v 0.941732 0 -0.186301
v 0.987204 0 0
v 0.939416 0 0.136883
v 0.79457 0 0.310979
v 0.578293 0 0.402619
v 0.326389 0 0.442996
v 0.242573 0 0.412049
v 0.237153 0 0.338116
v 0.215627 0 0.323832
v 0.161858 0 0.444357
v 0.018519 0 0.488836
v -0.104496 0 0.453179
v -0.430993 0 0.456449
v -0.559755 0 0.409106
v -0.714981 0 0.415013
v -0.863388 0 0.315093
v -0.990353 0 0
v -0.964734 0 -0.221737
v -0.782211 0 -0.389024
v -0.556101 0 -0.425088
v -0.401565 0 -0.39252
v -0.306898 0 -0.464073

vn 0.845215 0.228882 -0.482178
vn 0.445557 0.192017 -0.874023
vn 0.424561 0.189941 -0.884766
vn 0.839355 0.228271 -0.492676
vn 0.269043 0.171875 -0.947266
vn 0.269775 0.171997 -0.947266
vn 0.202148 0.187256 -0.960938
vn 0.200195 0.187256 -0.961426
vn -0.00562668 0.192017 -0.980957
vn -0.00566483 0.192017 -0.980957
vn -0.235229 0.197388 -0.951172
vn -0.233154 0.197388 -0.952148
vn -0.235229 0.197388 -0.951172
vn -0.138184 0.172363 -0.975098
vn -0.171021 0.175293 -0.969238
vn -0.0378113 0.202881 -0.978027
vn -0.456299 0.355957 -0.814941
vn -0.434082 0.346436 -0.831543
vn -0.00880432 0.194824 -0.980469
vn -0.782227 0.492188 -0.381348
vn -0.774902 0.487549 -0.4021
vn -0.865234 0.480469 0.140747
vn -0.865234 0.478027 0.149902
vn -0.775391 0.41333 0.477051
vn -0.758301 0.407471 0.507813
vn -0.318359 0.272461 0.907715
vn -0.259277 0.257568 0.930664
vn -0.121277 0.229248 0.965332
vn -0.138672 0.235229 0.961914
vn -0.117615 0.236694 0.964355
vn -0.0601501 0.219727 0.973633
vn -0.0809937 0.19751 0.976563
vn 0.0319824 0.190308 0.980957
vn 0.0324707 0.190308 0.980957
vn -0.0836182 0.197632 0.976563
vn 0.612305 0.150635 0.775879
vn 0.63916 0.146362 0.754395
vn -0.900391 0.174072 0.398193
vn -0.753906 0.206543 0.623047
vn -0.760254 0.206177 0.615234
vn -0.885742 0.175415 0.428955
vn 0.268799 0.175659 0.946777
vn 0.585938 0.19812 0.785156
vn 0.57373 0.197266 0.794434
vn 0.264648 0.175415 0.947754
vn 0.832031 0.218872 0.509277
vn 0.826172 0.21814 0.519043
vn 0.970215 0.240601 0.00637054
vn 0.970215 0.240601 0.0100327
vn 0 -1 0
vn 0 -1 0
vn 0 -1 0
vn 0 -1 0
vn 0 -1 0
vn 0 -1 0
vn 0 -1 0
vn 0 -1 0
vn 0 -1 0
vn 0 -1 0
vn 0 -1 0
vn 0 -1 0
vn 0 -1 0
vn 0 -1 0
vn 0 -1 0
vn 0 -1 0
vn 0 -1 0
vn 0 -1 0
vn 0 -1 0
vn 0 -1 0
vn 0 -1 0
vn 0 -1 0
vn 0 -1 0
vn 0 -1 0
vn 0 -1 0
vn 0 -1 0
vn 0 -1 0
vn 0 1 0
vn 0 1 0
vn 0 1 0
vn 0 1 0
vn 0 1 0
vn 0 1 0
vn 0 1 0
vn 0 1 0
vn 0 1 0
vn 0 1 0
vn 0 1 0
vn 0 1 0
vn 0 1 0
vn 0 1 0
vn 0 1 0
vn 0 1 0
vn 0 1 0
vn 0 1 0
vn 0 1 0
vn 0 1 0
vn 0 1 0
vn 0 1 0
vn 0 1 0
vn 0 1 0
vn 0 1 0
vn 0 1 0
vn -0.171021 0.175293 -0.969238
vn -0.138184 0.172363 -0.975098
vn 0.771973 0.114563 0.624512
vn 0.756348 0.117126 0.643066
vn 0.027771 0.181152 0.98291
vn 0.0282745 0.18103 0.98291
vn 0.756348 0.117126 0.643066
vn 0.771973 0.114563 0.624512
vn 0 1 0
vn 0.430908 -0.338623 -0.835938
vn 0.251465 -0.406494 -0.87793
vn 0.186523 -0.448242 -0.874023
vn -0.00509262 -0.474121 -0.879883
vn -0.222046 -0.393066 -0.89209
vn -0.11792 -0.498047 -0.858887
vn -0.11792 -0.498047 -0.858887
vn -0.0268097 -0.393066 -0.918945
vn -0.417236 -0.461914 -0.782227
vn -0.786621 -0.476318 -0.39209
vn -0.85498 -0.496338 0.149414
vn -0.714844 -0.537109 0.446533
vn -0.2771 -0.571777 0.771484
vn -0.110352 -0.506348 0.85498
vn -0.133545 -0.405762 0.903809
vn -0.0633545 -0.490479 0.868652
vn 0.0299988 -0.398438 0.916504
vn 0.572266 -0.390137 0.720703
vn 0.637695 -0.620117 0.456055
vn 0.637695 -0.620117 0.456055
vn -0.827637 -0.497803 0.258301
vn -0.739258 -0.222656 0.634766
vn 0.0274658 -0.186768 0.981934
vn 0.267822 -0.210083 0.939941
vn 0.574707 -0.28833 0.765625
vn 0.806152 -0.329102 0.491455
vn 0.929199 -0.369141 0.00473022
vn 0.801758 -0.385742 -0.455566
vn -0.00509262 -0.474121 -0.879883
vn 0.186523 -0.448242 -0.874023
vn 0.251465 -0.406494 -0.87793
vn 0.430908 -0.338623 -0.835938
vn 0.801758 -0.385742 -0.455566
vn 0.929199 -0.369141 0.00473022
vn 0.806152 -0.329102 0.491455
vn 0.574707 -0.28833 0.765625
vn 0.267822 -0.210083 0.939941
vn 0.0274658 -0.186768 0.981934
vn -0.739258 -0.222656 0.634766
vn -0.827637 -0.497803 0.258301
vn 0.637695 -0.620117 0.456055
vn 0.572266 -0.390137 0.720703
vn 0.0299988 -0.398438 0.916504
vn -0.0633545 -0.490479 0.868652
vn -0.133545 -0.405762 0.903809
vn -0.110352 -0.506348 0.85498
vn -0.2771 -0.571777 0.771484
vn -0.714844 -0.537109 0.446533
vn -0.85498 -0.496338 0.149414
vn -0.786621 -0.476318 -0.39209
vn -0.417236 -0.461914 -0.782227
vn -0.0268097 -0.393066 -0.918945
vn -0.11792 -0.498047 -0.858887
vn -0.222046 -0.393066 -0.89209

vt 0.45667 0.920677
vt 0.531994 0.920677
vt 0.534449 0.992397
vt 0.458083 0.992397
vt 0.628979 0.920677
vt 0.628979 0.992397
vt 0.717441 0.920677
vt 0.717441 0.992397
vt 0.830932 0.920677
vt 0.830932 0.992397
vt 0.952066 0.920677
vt 0.952066 0.992397
vt 0.952066 0.920678
vt 0.9986 0.920678
vt 0.995983 0.992397
vt 0.0724182 0.820379
vt 0.167174 0.820379
vt 0.164262 0.892098
vt 0.0675753 0.892098
vt 0.265075 0.820379
vt 0.260613 0.892098
vt 0.353894 0.820379
vt 0.353894 0.892098
vt 0.492176 0.820379
vt 0.497341 0.892098
vt 0.563978 0.820379
vt 0.571266 0.892098
vt 0.627648 0.820379
vt 0.632483 0.892098
vt 0.688948 0.820379
vt 0.71384 0.892098
vt 0.824969 0.820379
vt 0.879124 0.820379
vt 0.879124 0.892098
vt 0.824969 0.892098
vt 0.942586 0.820379
vt 0.942586 0.892098
vt 0.0105261 0.920677
vt 0.0377413 0.920677
vt 0.0417021 0.992397
vt 0.014095 0.992397
vt 0.163188 0.920677
vt 0.250576 0.920677
vt 0.248667 0.992397
vt 0.163188 0.992397
vt 0.334016 0.920677
vt 0.332194 0.992397
vt 0.386654 0.920677
vt 0.386654 0.992397
vt 0.808131 0.0793214
vt 0.866436 0.135602
vt 0.508311 0.208419
vt 0.71125 0.0586097
vt 0.624894 0.0279589
vt 0.508311 0.0176128
vt 0.382414 0.0299996
vt 0.285641 0.0436681
vt 0.346356 0.0570518
vt 0.201243 0.05752
vt 0.131369 0.122532
vt 0.120635 0.208419
vt 0.167777 0.325482
vt 0.228616 0.36248
vt 0.285469 0.362613
vt 0.46077 0.378436
vt 0.335013 0.377967
vt 0.508311 0.391347
vt 0.579266 0.330748
vt 0.558731 0.374161
vt 0.600108 0.329135
vt 0.631451 0.375465
vt 0.602672 0.363112
vt 0.80809 0.324835
vt 0.727805 0.360981
vt 0.863777 0.256737
vt 0.883859 0.208419
vt 0.157482 0.532359
vt 0.208995 0.480358
vt 0.508311 0.602471
vt 0.304185 0.459255
vt 0.391143 0.426293
vt 0.508311 0.415225
vt 0.629762 0.427696
vt 0.669226 0.456247
vt 0.726521 0.443341
vt 0.810795 0.461578
vt 0.864117 0.523619
vt 0.875797 0.602471
vt 0.83471 0.717578
vt 0.780131 0.753292
vt 0.723277 0.753716
vt 0.657993 0.768846
vt 0.555424 0.768846
vt 0.508311 0.780752
vt 0.456627 0.764609
vt 0.433012 0.72445
vt 0.293902 0.750887
vt 0.416133 0.725167
vt 0.383085 0.76576
vt 0.211848 0.71637
vt 0.159872 0.654032
vt 0.139387 0.602471
vt 0.00214601 0.892098
vt 0.00502145 0.820379
vt 1 0.820379
vt 1 0.892098
vt 0.0691616 0.992397
vt 0.0691616 0.920677
vt 4.69113e-005 0.992397
vt 4.69113e-005 0.920677
vt 0.407849 0.754103
vt 0.531589 0.908853
vt 0.628979 0.908853
vt 0.717441 0.908853
vt 0.830932 0.908853
vt 0.952066 0.908853
vt 0.999031 0.908853
vt 0.00549555 0.808554
vt 0.0732167 0.808554
vt 0.167654 0.808554
vt 0.265811 0.808554
vt 0.353894 0.808554
vt 0.491324 0.808554
vt 0.562777 0.808554
vt 0.626851 0.808554
vt 0.684844 0.808554
vt 0.824969 0.808554
vt 0.879124 0.808554
vt 0.942586 0.808554
vt 1 0.808554
vt 4.69113e-005 0.908853
vt 0.00993767 0.908853
vt 0.0370882 0.908853
vt 0.0691616 0.908853
vt 0.163188 0.908853
vt 0.250891 0.908853
vt 0.334316 0.908853
vt 0.386654 0.908853
vt 0.456437 0.908853
vt 0.508311 0.011675
vt 0.62826 0.0227479
vt 0.715606 0.0553939
vt 0.813619 0.0769585
vt 0.872039 0.134463
vt 0.888896 0.208419
vt 0.868734 0.25741
vt 0.812431 0.326521
vt 0.730561 0.362897
vt 0.630571 0.378923
vt 0.599796 0.366638
vt 0.597596 0.333625
vt 0.581474 0.334555
vt 0.560344 0.379465
vt 0.508311 0.396378
vt 0.459508 0.382951
vt 0.329931 0.382939
vt 0.278828 0.367208
vt 0.218971 0.367792
vt 0.160067 0.328133
vt 0.111896 0.208419
vt 0.122062 0.120412
vt 0.194109 0.0540142
vt 0.280277 0.0396993
vt 0.341621 0.0526257
vt 0.379182 0.0254195


#
# MESH 000
#
g surface_000
usemtl surface_000
f 105/105/105 129/129/129 130/130/130
f 105/105/105 36/36/36 129/129/129
f 128/128/128 129/129/129 36/36/36
f 128/128/128 36/36/36 33/33/33
f 127/127/127 128/128/128 33/33/33
f 127/127/127 33/33/33 32/32/32
f 32/32/32 126/126/126 127/127/127
f 37/37/37 36/36/36 105/105/105
f 33/33/33 36/36/36 37/37/37
f 33/33/33 37/37/37 34/34/34
f 32/32/32 33/33/33 34/34/34
f 32/32/32 34/34/34 35/35/35
f 31/31/31 32/32/32 35/35/35
f 31/31/31 30/30/30 32/32/32
f 32/32/32 30/30/30 126/126/126
f 125/125/125 126/126/126 30/30/30
f 37/37/37 105/105/105 106/106/106
f 116/116/116 117/117/117 14/14/14
f 116/116/116 14/14/14 13/13/13
f 13/13/13 14/14/14 15/15/15
f 13/13/13 15/15/15 12/12/12
f 115/115/115 116/116/116 11/11/11
f 115/115/115 11/11/11 9/9/9
f 114/114/114 115/115/115 9/9/9
f 114/114/114 9/9/9 7/7/7
f 113/113/113 114/114/114 7/7/7
f 113/113/113 7/7/7 5/5/5
f 112/112/112 113/113/113 5/5/5
f 9/9/9 11/11/11 12/12/12
f 9/9/9 12/12/12 10/10/10
f 7/7/7 9/9/9 10/10/10
f 7/7/7 10/10/10 8/8/8
f 5/5/5 7/7/7 8/8/8
f 5/5/5 8/8/8 6/6/6
f 2/2/2 5/5/5 6/6/6
f 112/112/112 5/5/5 2/2/2
f 139/139/139 112/112/112 2/2/2
f 139/139/139 2/2/2 1/1/1
f 138/138/138 139/139/139 1/1/1
f 138/138/138 1/1/1 48/48/48
f 137/137/137 138/138/138 48/48/48
f 2/2/2 6/6/6 3/3/3
f 1/1/1 2/2/2 3/3/3
f 1/1/1 3/3/3 4/4/4
f 48/48/48 1/1/1 4/4/4
f 48/48/48 4/4/4 49/49/49
f 46/46/46 48/48/48 49/49/49
f 137/137/137 48/48/48 46/46/46
f 136/136/136 137/137/137 46/46/46
f 136/136/136 46/46/46 43/43/43
f 135/135/135 136/136/136 43/43/43
f 135/135/135 43/43/43 42/42/42
f 42/42/42 134/134/134 135/135/135
f 46/46/46 49/49/49 47/47/47
f 43/43/43 46/46/46 47/47/47
f 43/43/43 47/47/47 44/44/44
f 42/42/42 43/43/43 44/44/44
f 42/42/42 44/44/44 45/45/45
f 107/107/107 42/42/42 45/45/45
f 107/107/107 108/108/108 42/42/42
f 42/42/42 108/108/108 134/134/134
f 133/133/133 134/134/134 108/108/108
f 133/133/133 108/108/108 39/39/39
f 132/132/132 133/133/133 39/39/39
f 132/132/132 39/39/39 38/38/38
f 131/131/131 132/132/132 38/38/38
f 131/131/131 38/38/38 110/110/110
f 39/39/39 108/108/108 107/107/107
f 39/39/39 107/107/107 40/40/40
f 38/38/38 39/39/39 40/40/40
f 38/38/38 40/40/40 41/41/41
f 109/109/109 38/38/38 41/41/41
f 109/109/109 110/110/110 38/38/38
f 99/99/99 98/98/98 111/111/111
f 97/97/97 98/98/98 99/99/99
f 98/98/98 97/97/97 79/79/79
f 79/79/79 96/96/96 98/98/98
f 79/79/79 95/95/95 96/96/96
f 94/94/94 95/95/95 79/79/79
f 93/93/93 94/94/94 79/79/79
f 79/79/79 92/92/92 93/93/93
f 91/91/91 92/92/92 79/79/79
f 97/97/97 100/100/100 79/79/79
f 100/100/100 101/101/101 79/79/79
f 101/101/101 102/102/102 79/79/79
f 102/102/102 77/77/77 79/79/79
f 77/77/77 78/78/78 79/79/79
f 78/78/78 80/80/80 79/79/79
f 80/80/80 81/81/81 79/79/79
f 81/81/81 82/82/82 79/79/79
f 82/82/82 83/83/83 79/79/79
f 83/83/83 84/84/84 79/79/79
f 79/79/79 84/84/84 85/85/85
f 85/85/85 86/86/86 79/79/79
f 86/86/86 87/87/87 79/79/79
f 87/87/87 88/88/88 79/79/79
f 88/88/88 89/89/89 79/79/79
f 89/89/89 90/90/90 79/79/79
f 90/90/90 91/91/91 79/79/79
f 125/125/125 30/30/30 28/28/28
f 28/28/28 30/30/30 31/31/31
f 28/28/28 31/31/31 29/29/29
f 26/26/26 28/28/28 29/29/29
f 124/124/124 28/28/28 26/26/26
f 124/124/124 125/125/125 28/28/28
f 26/26/26 29/29/29 27/27/27
f 24/24/24 26/26/26 27/27/27
f 123/123/123 26/26/26 24/24/24
f 123/123/123 124/124/124 26/26/26
f 24/24/24 27/27/27 25/25/25
f 22/22/22 24/24/24 25/25/25
f 122/122/122 24/24/24 22/22/22
f 122/122/122 123/123/123 24/24/24
f 22/22/22 25/25/25 23/23/23
f 20/20/20 22/22/22 23/23/23
f 121/121/121 22/22/22 20/20/20
f 121/121/121 122/122/122 22/22/22
f 20/20/20 23/23/23 21/21/21
f 17/17/17 20/20/20 21/21/21
f 120/120/120 20/20/20 17/17/17
f 120/120/120 121/121/121 20/20/20
f 17/17/17 21/21/21 18/18/18
f 16/16/16 17/17/17 18/18/18
f 119/119/119 17/17/17 16/16/16
f 119/119/119 120/120/120 17/17/17
f 16/16/16 18/18/18 19/19/19
f 103/103/103 16/16/16 19/19/19
f 103/103/103 104/104/104 16/16/16
f 16/16/16 104/104/104 118/118/118
f 16/16/16 118/118/118 119/119/119
f 165/165/165 140/140/140 55/55/55
f 140/140/140 54/54/54 55/55/55
f 55/55/55 54/54/54 52/52/52
f 56/56/56 55/55/55 52/52/52
f 165/165/165 55/55/55 56/56/56
f 56/56/56 164/164/164 165/165/165
f 56/56/56 58/58/58 164/164/164
f 163/163/163 164/164/164 58/58/58
f 140/140/140 141/141/141 54/54/54
f 141/141/141 53/53/53 54/54/54
f 54/54/54 53/53/53 52/52/52
f 141/141/141 142/142/142 53/53/53
f 142/142/142 50/50/50 53/53/53
f 53/53/53 50/50/50 52/52/52
f 142/142/142 143/143/143 50/50/50
f 143/143/143 51/51/51 50/50/50
f 50/50/50 51/51/51 52/52/52
f 143/143/143 144/144/144 51/51/51
f 144/144/144 76/76/76 51/51/51
f 51/51/51 76/76/76 52/52/52
f 144/144/144 145/145/145 76/76/76
f 145/145/145 75/75/75 76/76/76
f 76/76/76 75/75/75 52/52/52
f 145/145/145 146/146/146 75/75/75
f 146/146/146 73/73/73 75/75/75
f 75/75/75 73/73/73 52/52/52
f 146/146/146 147/147/147 73/73/73
f 147/147/147 74/74/74 73/73/73
f 73/73/73 74/74/74 52/52/52
f 147/147/147 148/148/148 74/74/74
f 149/149/149 74/74/74 148/148/148
f 149/149/149 71/71/71 74/74/74
f 74/74/74 71/71/71 70/70/70
f 74/74/74 70/70/70 52/52/52
f 150/150/150 71/71/71 149/149/149
f 150/150/150 72/72/72 71/71/71
f 70/70/70 71/71/71 72/72/72
f 151/151/151 70/70/70 72/72/72
f 151/151/151 68/68/68 70/70/70
f 70/70/70 68/68/68 52/52/52
f 151/151/151 72/72/72 150/150/150
f 151/151/151 152/152/152 68/68/68
f 69/69/69 68/68/68 152/152/152
f 52/52/52 68/68/68 69/69/69
f 69/69/69 152/152/152 153/153/153
f 67/67/67 69/69/69 153/153/153
f 52/52/52 69/69/69 67/67/67
f 67/67/67 153/153/153 154/154/154
f 154/154/154 65/65/65 67/67/67
f 67/67/67 65/65/65 52/52/52
f 154/154/154 155/155/155 65/65/65
f 155/155/155 66/66/66 65/65/65
f 65/65/65 66/66/66 52/52/52
f 155/155/155 156/156/156 66/66/66
f 64/64/64 66/66/66 156/156/156
f 52/52/52 66/66/66 64/64/64
f 64/64/64 156/156/156 157/157/157
f 157/157/157 63/63/63 64/64/64
f 64/64/64 63/63/63 52/52/52
f 157/157/157 158/158/158 63/63/63
f 158/158/158 62/62/62 63/63/63
f 63/63/63 62/62/62 52/52/52
f 62/62/62 61/61/61 52/52/52
f 61/61/61 60/60/60 52/52/52
f 60/60/60 59/59/59 52/52/52
f 59/59/59 57/57/57 52/52/52
f 57/57/57 58/58/58 52/52/52
f 52/52/52 58/58/58 56/56/56
f 158/158/158 159/159/159 62/62/62
f 159/159/159 61/61/61 62/62/62
f 159/159/159 160/160/160 61/61/61
f 160/160/160 60/60/60 61/61/61
f 160/160/160 161/161/161 60/60/60
f 161/161/161 59/59/59 60/60/60
f 161/161/161 162/162/162 59/59/59
f 162/162/162 57/57/57 59/59/59
f 162/162/162 163/163/163 57/57/57
f 163/163/163 58/58/58 57/57/57

