#
# OBJECT NAME
#
o model_3509
mtllib 3509.mtl

#
# VERTEX BUFFER 000
#
v 0.937681 0.0179648 -0.184926
v 0.792578 0.0179648 -0.328736
v 0.774465 0.126924 -0.31404
v 0.913112 0.126924 -0.176588
v 0.539488 0.0179648 -0.382667
v 0.532635 0.126924 -0.365586
v 0.319623 0.0179648 -0.464339
v 0.313609 0.126924 -0.443783
v 0.018519 0.0179648 -0.493127
v 0.018519 0.126924 -0.4717
v -0.305416 0.0179648 -0.46071
v -0.296431 0.126924 -0.440315
v -0.305416 0.0179648 -0.46071
v -0.399505 0.0179648 -0.389675
v -0.387011 0.126924 -0.37242
v -0.553283 0.0179648 -0.422007
v -0.77744 0.0179648 -0.384545
v -0.748504 0.126924 -0.357377
v -0.536192 0.126924 -0.403323
v -0.953601 0.0179648 -0.218468
v -0.88608 0.126924 -0.198642
v -0.979989 0.0179648 4.2462e-006
v -0.917127 0.126924 3e-005
v -0.856113 0.0179648 0.312817
v -0.811989 0.126924 0.299015
v -0.709712 0.0179648 0.411238
v -0.677753 0.126924 0.38834
v -0.556919 0.0179648 0.406203
v -0.53972 0.126924 0.388599
v -0.430993 0 0.456449
v -0.358689 0.126924 0.427368
v -0.104496 0 0.453179
v 0.018519 0 0.488836
v 0.018519 0.126924 0.463876
v -0.100234 0.126924 0.430042
v 0.161858 0 0.444357
v 0.156892 0.126924 0.421671
v 0.22639 0 0.330974
v 0.242573 0 0.412049
v 0.266436 0.126924 0.391015
v 0.233113 0.126924 0.314085
v 0.578293 0 0.402619
v 0.79457 0 0.310979
v 0.772918 0.126924 0.295112
v 0.567769 0.126924 0.382067
v 0.939416 0 0.136883
v 0.910313 0.126924 0.129917
v 0.982712 0.0179648 4.2462e-006
v 0.955467 0.126924 3e-005
v 0.018253 0 0
v 0.795564 0 -0.331159
v 0.941732 0 -0.186301
v 0.540618 0 -0.385483
v 0.320615 0 -0.467728
v 0.018519 0 -0.49666
v -0.306898 0 -0.464073
v -0.556101 0 -0.425088
v -0.401565 0 -0.39252
v -0.782211 0 -0.389024
v -0.964734 0 -0.221737
v -0.990353 0 0
v -0.863388 0 0.315093
v -0.714981 0 0.415013
v -0.559755 0 0.409106
v -0.104496 0 0.453179
v -0.430993 0 0.456449
v 0.018519 0 0.488836
v 0.22639 0 0.330974
v 0.161858 0 0.444357
v 0.326389 0 0.442996
v 0.242573 0 0.412049
v 0.79457 0 0.310979
v 0.578293 0 0.402619
v 0.939416 0 0.136883
v 0.987204 0 0
v 0.913112 0.126924 -0.176588
v 0.774465 0.126924 -0.31404
v 0.018253 0.126924 3e-005
v 0.532635 0.126924 -0.365586
v 0.313609 0.126924 -0.443783
v 0.018519 0.126924 -0.4717
v -0.296431 0.126924 -0.440315
v -0.387011 0.126924 -0.37242
v -0.536192 0.126924 -0.403323
v -0.748504 0.126924 -0.357377
v -0.88608 0.126924 -0.198642
v -0.917127 0.126924 3e-005
v -0.811989 0.126924 0.299015
v -0.677753 0.126924 0.38834
v -0.53972 0.126924 0.388599
v -0.358689 0.126924 0.427368
v -0.100234 0.126924 0.430042
v 0.018519 0.126924 0.463876
v 0.156892 0.126924 0.421671
v 0.233113 0.126924 0.314085
v 0.567769 0.126924 0.382067
v 0.328825 0.126924 0.420379
v 0.772918 0.126924 0.295112
v 0.910313 0.126924 0.129917
v 0.955467 0.126924 3e-005
v -0.387011 0.126924 -0.37242
v -0.399505 0.0179648 -0.389675
v 0.22639 0 0.330974
v 0.233113 0.126924 0.314085
v 0.328825 0.126924 0.420379
v 0.326389 0 0.442996
v 0.266436 0.126924 0.391015
v 0.795564 0 -0.331159
v 0.540618 0 -0.385483
v 0.320615 0 -0.467728
v 0.018519 0 -0.49666
v -0.306898 0 -0.464073
v -0.401565 0 -0.39252
v -0.401565 0 -0.39252
v -0.556101 0 -0.425088
v -0.782211 0 -0.389024
v -0.964734 0 -0.221737
v -0.990353 0 0
v -0.863388 0 0.315093
v -0.714981 0 0.415013
v -0.559755 0 0.409106
v 0.987204 0 0
v 0.941732 0 -0.186301

vn 0.845215 0.228882 -0.482178
vn 0.445557 0.192017 -0.874023
vn 0.15979 0.928711 -0.333252
vn 0.247314 0.95752 -0.145142
vn 0.269043 0.171875 -0.947266
vn 0.102173 0.927734 -0.358643
vn 0.202148 0.187256 -0.960938
vn 0.0845337 0.909668 -0.406006
vn -0.00562668 0.192017 -0.980957
vn -0.00240898 0.908691 -0.416992
vn -0.235229 0.197388 -0.951172
vn -0.112305 0.881348 -0.458496
vn -0.235229 0.197388 -0.951172
vn -0.138184 0.172363 -0.975098
vn -0.0614929 0.935059 -0.348389
vn -0.0378113 0.202881 -0.978027
vn -0.456299 0.355957 -0.814941
vn -0.15271 0.943848 -0.29248
vn -0.00351524 0.919922 -0.391357
vn -0.782227 0.492188 -0.381348
vn -0.241455 0.961914 -0.125244
vn -0.865234 0.480469 0.140747
vn -0.258057 0.964844 0.0447083
vn -0.775391 0.41333 0.477051
vn -0.219482 0.964355 0.146973
vn -0.318359 0.272461 0.907715
vn -0.0928955 0.937988 0.333252
vn -0.12561 0.230957 0.964355
vn -0.0621338 0.909668 0.409668
vn -0.121399 0.240479 0.962891
vn -0.0289612 0.860352 0.507813
vn -0.0807495 0.19751 0.976563
vn 0.0318909 0.190308 0.980957
vn 0.0174713 0.849121 0.526855
vn -0.0375061 0.893555 0.447266
vn 0.567871 0.144653 0.810059
vn 0.337158 0.827637 0.448242
vn 0.315674 0.225952 0.921387
vn -0.729492 0.193481 0.655273
vn -0.701172 0.327881 0.632324
vn 0.0318298 0.993652 0.10376
vn 0.269531 0.175659 0.946289
vn 0.588379 0.198364 0.783691
vn 0.218506 0.927734 0.30249
vn 0.128906 0.876953 0.461914
vn 0.82666 0.21814 0.518555
vn 0.274658 0.945313 0.175049
vn 0.970215 0.240601 0.0151443
vn 0.278076 0.960449 0.00614929
vn 0 -1 0
vn 0 -1 0
vn 0 -1 0
vn 0 -1 0
vn 0 -1 0
vn 0 -1 0
vn 0 -1 0
vn 0 -1 0
vn 0 -1 0
vn 0 -1 0
vn 0 -1 0
vn 0 -1 0
vn 0 -1 0
vn 0 -1 0
vn 0 -1 0
vn 0 -1 0
vn 0 -1 0
vn 0 -1 0
vn 0 -1 0
vn 0 -1 0
vn 0 -1 0
vn 0 -1 0
vn 0 -1 0
vn 0 -1 0
vn 0 -1 0
vn 0 -1 0
vn 0.247314 0.95752 -0.145142
vn 0.15979 0.928711 -0.333252
vn 0 1 0
vn 0.102173 0.927734 -0.358643
vn 0.0845337 0.909668 -0.406006
vn -0.00240898 0.908691 -0.416992
vn -0.112305 0.881348 -0.458496
vn -0.0614929 0.935059 -0.348389
vn -0.00351524 0.919922 -0.391357
vn -0.15271 0.943848 -0.29248
vn -0.241455 0.961914 -0.125244
vn -0.258057 0.964844 0.0447083
vn -0.219482 0.964355 0.146973
vn -0.0928955 0.937988 0.333252
vn -0.0621338 0.909668 0.409668
vn -0.0289612 0.860352 0.507813
vn -0.0375061 0.893555 0.447266
vn 0.0174713 0.849121 0.526855
vn 0.337158 0.827637 0.448242
vn 0.0318298 0.993652 0.10376
vn 0.128906 0.876953 0.461914
vn 0.0233459 0.557129 0.82959
vn 0.218506 0.927734 0.30249
vn 0.274658 0.945313 0.175049
vn 0.278076 0.960449 0.00614929
vn -0.0614929 0.935059 -0.348389
vn -0.138184 0.172363 -0.975098
vn 0.315674 0.225952 0.921387
vn 0.0318298 0.993652 0.10376
vn 0.0233459 0.557129 0.82959
vn 0.0281372 0.18103 0.98291
vn -0.701172 0.327881 0.632324
vn 0.449219 0.192383 -0.87207
vn 0.270996 0.171753 -0.946777
vn 0.204956 0.187256 -0.960449
vn -0.00568008 0.192017 -0.980957
vn -0.236694 0.19751 -0.951172
vn -0.133911 0.171997 -0.975586
vn -0.133911 0.171997 -0.975586
vn -0.0285492 0.201538 -0.979004
vn -0.439941 0.354248 -0.824707
vn -0.777832 0.494141 -0.387695
vn -0.86377 0.480713 0.150879
vn -0.772461 0.412109 0.482422
vn -0.324951 0.274658 0.904785
vn -0.0692139 0.185059 0.97998
vn 0.966797 0.239746 -0.0830078
vn 0.846191 0.229004 -0.480713

vt 0.45667 0.920677
vt 0.531994 0.920677
vt 0.534449 0.992397
vt 0.458083 0.992397
vt 0.628979 0.920677
vt 0.628979 0.992397
vt 0.717441 0.920677
vt 0.717441 0.992397
vt 0.830932 0.920677
vt 0.830932 0.992397
vt 0.952066 0.920677
vt 0.952066 0.992397
vt 0.952066 0.920678
vt 0.9986 0.920678
vt 0.995983 0.992397
vt 0.0724182 0.820379
vt 0.167174 0.820379
vt 0.164262 0.892098
vt 0.0675753 0.892098
vt 0.265075 0.820379
vt 0.260613 0.892098
vt 0.353894 0.820379
vt 0.353894 0.892098
vt 0.492176 0.820379
vt 0.497341 0.892098
vt 0.563978 0.820379
vt 0.571266 0.892098
vt 0.627648 0.820379
vt 0.632483 0.892098
vt 0.686896 0.814466
vt 0.71384 0.892098
vt 0.824969 0.814466
vt 0.879124 0.814466
vt 0.879124 0.892098
vt 0.824969 0.892098
vt 0.942586 0.814466
vt 0.942586 0.892098
vt 0.0102319 0.914765
vt 0.0374148 0.914765
vt 0.0417021 0.992397
vt 0.014095 0.992397
vt 0.163188 0.914765
vt 0.250733 0.914765
vt 0.248667 0.992397
vt 0.163188 0.992397
vt 0.334166 0.914765
vt 0.332194 0.992397
vt 0.386654 0.920677
vt 0.386654 0.992397
vt 0.508311 0.208419
vt 0.813619 0.0769585
vt 0.872039 0.134463
vt 0.715606 0.0553939
vt 0.62826 0.0227479
vt 0.508311 0.011675
vt 0.379182 0.0254195
vt 0.280277 0.0396993
vt 0.341621 0.0526257
vt 0.194109 0.0540142
vt 0.122062 0.120412
vt 0.111896 0.208419
vt 0.160067 0.328133
vt 0.218971 0.367792
vt 0.278828 0.367208
vt 0.459508 0.382951
vt 0.329931 0.382939
vt 0.508311 0.396378
vt 0.589535 0.33409
vt 0.560344 0.379465
vt 0.630571 0.378923
vt 0.599796 0.366638
vt 0.812431 0.326521
vt 0.730561 0.362897
vt 0.868734 0.25741
vt 0.888896 0.208419
vt 0.157482 0.532359
vt 0.208995 0.480358
vt 0.508311 0.602471
vt 0.304185 0.459255
vt 0.391143 0.426293
vt 0.508311 0.415225
vt 0.629762 0.427696
vt 0.669226 0.456247
vt 0.726521 0.443341
vt 0.810795 0.461578
vt 0.864117 0.523619
vt 0.875797 0.602471
vt 0.83471 0.717578
vt 0.780131 0.753292
vt 0.723277 0.753716
vt 0.657993 0.768846
vt 0.555424 0.768846
vt 0.508311 0.780752
vt 0.456627 0.764609
vt 0.424572 0.724809
vt 0.293902 0.750887
vt 0.383085 0.76576
vt 0.211848 0.71637
vt 0.159872 0.654032
vt 0.139387 0.602471
vt 0.00214601 0.892098
vt 0.00502145 0.820379
vt 1 0.814466
vt 1 0.892098
vt 0.0691616 0.992397
vt 0.0691616 0.914765
vt 0.407849 0.754103
vt 0.531589 0.908853
vt 0.628979 0.908853
vt 0.717441 0.908853
vt 0.830932 0.908853
vt 0.952066 0.908853
vt 0.999031 0.908853
vt 0.00549555 0.808554
vt 0.0732167 0.808554
vt 0.167654 0.808554
vt 0.265811 0.808554
vt 0.353894 0.808554
vt 0.491324 0.808554
vt 0.562777 0.808554
vt 0.626851 0.808554
vt 0.386654 0.908853
vt 0.456437 0.908853


#
# MESH 000
#
g surface_000
usemtl surface_000
f 112/112/112 113/113/113 14/14/14
f 112/112/112 14/14/14 13/13/13
f 13/13/13 14/14/14 15/15/15
f 13/13/13 15/15/15 12/12/12
f 111/111/111 112/112/112 11/11/11
f 111/111/111 11/11/11 9/9/9
f 110/110/110 111/111/111 9/9/9
f 110/110/110 9/9/9 7/7/7
f 109/109/109 110/110/110 7/7/7
f 109/109/109 7/7/7 5/5/5
f 108/108/108 109/109/109 5/5/5
f 9/9/9 11/11/11 12/12/12
f 9/9/9 12/12/12 10/10/10
f 7/7/7 9/9/9 10/10/10
f 7/7/7 10/10/10 8/8/8
f 5/5/5 7/7/7 8/8/8
f 5/5/5 8/8/8 6/6/6
f 2/2/2 5/5/5 6/6/6
f 108/108/108 5/5/5 2/2/2
f 123/123/123 108/108/108 2/2/2
f 123/123/123 2/2/2 1/1/1
f 122/122/122 123/123/123 1/1/1
f 122/122/122 1/1/1 48/48/48
f 46/46/46 122/122/122 48/48/48
f 2/2/2 6/6/6 3/3/3
f 1/1/1 2/2/2 3/3/3
f 1/1/1 3/3/3 4/4/4
f 48/48/48 1/1/1 4/4/4
f 48/48/48 4/4/4 49/49/49
f 46/46/46 48/48/48 49/49/49
f 46/46/46 49/49/49 47/47/47
f 43/43/43 46/46/46 47/47/47
f 43/43/43 47/47/47 44/44/44
f 42/42/42 43/43/43 44/44/44
f 42/42/42 44/44/44 45/45/45
f 105/105/105 42/42/42 45/45/45
f 105/105/105 106/106/106 42/42/42
f 39/39/39 106/106/106 105/105/105
f 39/39/39 105/105/105 40/40/40
f 38/38/38 39/39/39 40/40/40
f 38/38/38 40/40/40 41/41/41
f 97/97/97 95/95/95 107/107/107
f 96/96/96 95/95/95 97/97/97
f 95/95/95 96/96/96 78/78/78
f 78/78/78 94/94/94 95/95/95
f 93/93/93 94/94/94 78/78/78
f 92/92/92 93/93/93 78/78/78
f 78/78/78 91/91/91 92/92/92
f 90/90/90 91/91/91 78/78/78
f 89/89/89 90/90/90 78/78/78
f 96/96/96 98/98/98 78/78/78
f 98/98/98 99/99/99 78/78/78
f 99/99/99 100/100/100 78/78/78
f 100/100/100 76/76/76 78/78/78
f 76/76/76 77/77/77 78/78/78
f 77/77/77 79/79/79 78/78/78
f 79/79/79 80/80/80 78/78/78
f 80/80/80 81/81/81 78/78/78
f 81/81/81 82/82/82 78/78/78
f 82/82/82 83/83/83 78/78/78
f 78/78/78 83/83/83 84/84/84
f 84/84/84 85/85/85 78/78/78
f 85/85/85 86/86/86 78/78/78
f 86/86/86 87/87/87 78/78/78
f 87/87/87 88/88/88 78/78/78
f 88/88/88 89/89/89 78/78/78
f 37/37/37 103/103/103 104/104/104
f 37/37/37 36/36/36 103/103/103
f 33/33/33 36/36/36 37/37/37
f 33/33/33 37/37/37 34/34/34
f 32/32/32 33/33/33 34/34/34
f 32/32/32 34/34/34 35/35/35
f 31/31/31 32/32/32 35/35/35
f 31/31/31 30/30/30 32/32/32
f 28/28/28 30/30/30 31/31/31
f 121/121/121 30/30/30 28/28/28
f 120/120/120 121/121/121 28/28/28
f 120/120/120 28/28/28 26/26/26
f 119/119/119 120/120/120 26/26/26
f 119/119/119 26/26/26 24/24/24
f 118/118/118 119/119/119 24/24/24
f 28/28/28 31/31/31 29/29/29
f 26/26/26 28/28/28 29/29/29
f 26/26/26 29/29/29 27/27/27
f 24/24/24 26/26/26 27/27/27
f 24/24/24 27/27/27 25/25/25
f 22/22/22 24/24/24 25/25/25
f 118/118/118 24/24/24 22/22/22
f 117/117/117 118/118/118 22/22/22
f 117/117/117 22/22/22 20/20/20
f 116/116/116 117/117/117 20/20/20
f 116/116/116 20/20/20 17/17/17
f 115/115/115 116/116/116 17/17/17
f 22/22/22 25/25/25 23/23/23
f 20/20/20 22/22/22 23/23/23
f 20/20/20 23/23/23 21/21/21
f 17/17/17 20/20/20 21/21/21
f 17/17/17 21/21/21 18/18/18
f 16/16/16 17/17/17 18/18/18
f 115/115/115 17/17/17 16/16/16
f 16/16/16 114/114/114 115/115/115
f 16/16/16 102/102/102 114/114/114
f 101/101/101 102/102/102 16/16/16
f 101/101/101 16/16/16 19/19/19
f 16/16/16 18/18/18 19/19/19
f 68/68/68 70/70/70 71/71/71
f 50/50/50 70/70/70 68/68/68
f 50/50/50 73/73/73 70/70/70
f 50/50/50 72/72/72 73/73/73
f 50/50/50 74/74/74 72/72/72
f 50/50/50 75/75/75 74/74/74
f 50/50/50 52/52/52 75/75/75
f 50/50/50 51/51/51 52/52/52
f 50/50/50 68/68/68 69/69/69
f 50/50/50 69/69/69 67/67/67
f 50/50/50 67/67/67 65/65/65
f 50/50/50 65/65/65 66/66/66
f 50/50/50 66/66/66 64/64/64
f 50/50/50 64/64/64 63/63/63
f 50/50/50 63/63/63 62/62/62
f 50/50/50 62/62/62 61/61/61
f 50/50/50 61/61/61 60/60/60
f 50/50/50 60/60/60 59/59/59
f 50/50/50 59/59/59 57/57/57
f 50/50/50 57/57/57 58/58/58
f 50/50/50 58/58/58 56/56/56
f 55/55/55 50/50/50 56/56/56
f 50/50/50 55/55/55 54/54/54
f 50/50/50 54/54/54 53/53/53
f 50/50/50 53/53/53 51/51/51

