g s006v002_m
v -0.2200074 0.9737337 -0.176263
v 0.01244974 0.6310073 -0.00177598
v -0.3177643 0.927112 0.07050252
v -0.655396 1.084916 -0.1805871
v 0.1120176 0.8279386 -0.2790958
v -0.09352684 0.7698891 -0.0172776
v -0.1612644 0.9348763 -0.304258
v 0.006571293 0.851348 -0.7582244
v -0.3338013 0.7915922 0.1798041
v -0.08737373 0.7854863 -0.05128694
v -0.08442307 0.6578847 0.2615645
v -0.4509392 0.4559322 0.5186877
v 0.3559456 0.8628246 -0.08559299
v -0.002949238 0.6375949 0.001058819
v 0.1540909 1.011643 -0.1707661
v 0.508317 1.118368 -0.4119946
v -0.07514048 0.6220447 -0.3144019
v 0.007797956 0.2658959 0.005899676
v -0.3232002 0.576599 -0.1622415
v -0.4517021 0.7244283 -0.6126469
v -0.3684745 0.4684289 -0.1525366
v -0.08068371 0.4251 -0.07474983
v -0.3289857 0.344177 0.07541394
v -0.7168717 0.2132514 -0.08001614
v 0.1333685 0.7989021 -0.3593016
v 0.09356189 0.7829273 -0.02414906
v -0.1385012 0.7358208 -0.265177
v -0.08755064 0.5376317 -0.7116704
v 0.05374742 0.8056212 0.2645483
v 0.1282074 0.8088945 -0.05318928
v 0.2949963 0.9510375 0.1784966
v 0.3558631 0.8313422 0.6509364
v 0.2346449 0.4816336 -0.1662576
v -0.08492422 0.4249452 -0.07229447
v 0.0286808 0.5444479 -0.367218
v 0.4417648 0.4345201 -0.6091039
v -0.1543417 0.4498882 0.2486963
v -0.02704287 0.4962003 -0.00429225
v 0.09414434 0.4779905 0.2551975
v -0.01347876 0.2408405 0.5810604
v 0.03062057 0 -0.002117395
v 0.001890898 0.3111759 -0.02829993
v 0.0003871918 0 -0.03235078
v 0.02500892 0.3111759 -0.005182028
v 0.0003871918 0 0.02811599
v -0.03116703 0.5194087 -0.004882097
v 0.001890898 0.3111759 0.01793599
v -0.02984619 0 -0.002117395
v -0.0121088 0.5194087 0.01417565
v -0.002571106 0.63515 -0.01738918
v -0.02122688 0.3111759 -0.005182028
v 0.0003871918 0 -0.03235078
v 0.001890898 0.3111759 -0.02829993
v 0.01084471 0.6298611 -0.003772497
v 0.0973773 0.7727245 -0.04171515
v -0.03116703 0.5194087 0.03323364
v -0.0502243 0.5194087 0.01417565
v -0.03116703 0.5194087 -0.004882097
v 0.001495361 0.6409574 0.009748936
v -0.01192093 0.6462463 -0.003867626
v -0.002571106 0.63515 -0.01738918
v 0.0003871918 0 -0.03235078
v -0.02984619 0 -0.002117395
v 0.0003871918 0 0.02811599
v 0.03062057 0 -0.002117395
v 0.07802987 0.1371403 -0.02854693
v 0.09931469 0.2201048 0.01544142
v 0.167285 0.2129483 -0.01826203
v 0.04511452 0.2527995 -0.02277923
v 0.180691 0.3078488 -0.01132143
v 0.1100469 0.3155072 0.02906299
v 0.06869888 0.3155913 -0.01797152
v 0.1142366 0.5021688 -2.837181E-05
v 0.03901863 0.4674506 -0.007359028
v 0.07570124 0.475765 0.02691531
v -0.01299 0.6101164 0.001733303
v 0.1035531 0.2262877 -0.05732894
v 0.04511452 0.2527995 -0.02277923
v 0.07802987 0.1371403 -0.02854693
v 0.167285 0.2129483 -0.01826203
v 0.180691 0.3078488 -0.01132143
v 0.06869888 0.3155913 -0.01797152
v 0.1151006 0.32288 -0.05771267
v 0.1142366 0.5021688 -2.837181E-05
v 0.07932401 0.4810501 -0.0352875
v 0.03901863 0.4674506 -0.007359028
v -0.01299 0.6101164 0.001733303
vt 0.3835449 0.3525391
vt 0.2641602 0.002529144
vt 0.1450195 0.3525391
vt 0.2641602 0.7114258
vt 0.6230469 0.3481445
vt 0.5019531 0.1046143
vt 0.3808594 0.3481445
vt 0.5019531 0.7119141
vt 0.6230469 0.3481445
vt 0.5019531 0.1046143
vt 0.3808594 0.3481445
vt 0.5019531 0.7119141
vt 0.3835449 0.3525391
vt 0.2641602 0.002529144
vt 0.1450195 0.3525391
vt 0.2641602 0.7114258
vt 0.3835449 0.3525391
vt 0.2641602 0.002529144
vt 0.1450195 0.3525391
vt 0.2641602 0.7114258
vt 0.6230469 0.3481445
vt 0.5019531 0.1046143
vt 0.3808594 0.3481445
vt 0.5019531 0.7119141
vt 0.6230469 0.3481445
vt 0.5019531 0.1046143
vt 0.3808594 0.3481445
vt 0.5019531 0.7119141
vt 0.6230469 0.3481445
vt 0.5019531 0.1046143
vt 0.3808594 0.3481445
vt 0.5019531 0.7119141
vt 0.6230469 0.3481445
vt 0.5019531 0.1046143
vt 0.3808594 0.3481445
vt 0.5019531 0.7119141
vt 0.6230469 0.3481445
vt 0.5019531 0.1046143
vt 0.3808594 0.3481445
vt 0.5019531 0.7119141
vt 0.8720703 0.005516052
vt 0.8911133 0.1608887
vt 0.8911133 0.005516052
vt 0.8720703 0.1604004
vt 0.8535156 0.005516052
vt 0.8911133 0.2932129
vt 0.8535156 0.1617432
vt 0.8339844 0.005516052
vt 0.8720703 0.2932129
vt 0.8911133 0.3903809
vt 0.8339844 0.1621094
vt 0.8149414 0.005516052
vt 0.8149414 0.1607666
vt 0.8720703 0.3874512
vt 0.8535156 0.5424805
vt 0.8535156 0.2927246
vt 0.8339844 0.2924805
vt 0.8149414 0.2929688
vt 0.8535156 0.3894043
vt 0.8339844 0.3908691
vt 0.8149414 0.3901367
vt 0.840332 0.05596924
vt 0.8408203 0.02648926
vt 0.8701172 0.02714539
vt 0.8696289 0.05661011
vt 0.7011719 0.0276947
vt 0.7202148 0.1075439
vt 0.7871094 0.09570313
vt 0.6572266 0.1286621
vt 0.800293 0.1862793
vt 0.7304688 0.1954346
vt 0.6679688 0.1925049
vt 0.7426758 0.357666
vt 0.6611328 0.326416
vt 0.7041016 0.3330078
vt 0.6386719 0.454834
vt 0.7202148 0.1075439
vt 0.6572266 0.1286621
vt 0.7011719 0.0276947
vt 0.7871094 0.09570313
vt 0.800293 0.1862793
vt 0.6679688 0.1925049
vt 0.7304688 0.1954346
vt 0.7426758 0.357666
vt 0.7041016 0.3330078
vt 0.6611328 0.326416
vt 0.6386719 0.454834
vn 0.4650879 0.8178711 0.3388672
vn 0.6616211 0.644043 0.3837891
vn 0.4650879 0.8178711 0.3388672
vn 0.2357178 0.9335938 0.2697754
vn 0.3503418 0.9267578 0.1351318
vn 0.2963867 0.8564453 0.4226074
vn 0.3503418 0.9267578 0.1351318
vn 0.3669434 0.9296875 -0.03533936
vn 0.2156982 0.7695313 0.6010742
vn 0.3505859 0.8681641 0.3508301
vn 0.2156982 0.7695313 0.6010742
vn 0.1295166 0.6816406 0.7202148
vn 0.09362793 0.5874023 0.8041992
vn -0.05709839 0.4365234 0.8979492
vn 0.09716797 0.590332 0.8012695
vn 0.2402344 0.706543 0.6655273
vn 0.1571045 0.8461914 0.5087891
vn 0.2912598 0.6762695 0.6767578
vn 0.1578369 0.8457031 0.5097656
vn 0.01467133 0.9511719 0.3081055
vn -0.2910156 0.8178711 0.4963379
vn 0.002973557 0.878418 0.4782715
vn -0.2910156 0.8178711 0.4963379
vn -0.447998 0.75 0.4865723
vn -0.3032227 0.9160156 -0.262207
vn -0.2192383 0.9755859 0.02044678
vn -0.3032227 0.9160156 -0.262207
vn -0.3393555 0.8447266 -0.4138184
vn -0.4733887 0.8691406 0.1419678
vn -0.543457 0.8310547 -0.1187744
vn -0.4746094 0.8691406 0.1383057
vn -0.4230957 0.8637695 0.2734375
vn 0.1531982 0.9770508 0.1483154
vn -0.0612793 0.9331055 0.3544922
vn 0.1531982 0.9770508 0.1483154
vn 0.2702637 0.9624023 0.0239563
vn -0.1130371 0.9042969 0.4121094
vn -0.1146851 0.9858398 0.1227417
vn -0.1130371 0.9042969 0.4121094
vn -0.1074829 0.8203125 0.5615234
vn 1 0.01808167 0.00446701
vn 0.02612305 0.04998779 -0.9985352
vn -0.002187729 0.01303101 -1
vn 0.9970703 0.0713501 -0.01754761
vn -0.002206802 0.03271484 0.9995117
vn -0.09796143 0.05187988 -0.9936523
vn 0.02531433 -0.0006527901 0.9995117
vn -0.9995117 0.02772522 0.004486084
vn 0.9975586 0.05767822 0.03778076
vn -0.1729736 -0.07116699 -0.9824219
vn -0.9995117 -0.03059387 -0.01675415
vn -0.002187729 0.01303101 -1
vn 0.02612305 0.04998779 -0.9985352
vn 0.9482422 -0.317627 -0.008460999
vn 0.5698242 0.7866211 -0.2374268
vn -0.08685303 0.007980347 0.9960938
vn -0.9975586 -0.005271912 0.06713867
vn -0.09796143 0.05187988 -0.9936523
vn -0.03161621 0.2371826 0.9711914
vn -0.8945313 0.4448242 0.04833984
vn -0.1729736 -0.07116699 -0.9824219
vn 0 -1 0
vn 0 -1 0
vn 0 -1 0
vn 0 -1 0
vn -0.2570801 -0.9628906 -0.0836792
vn -0.02626038 -0.2189941 0.9755859
vn 0.9355469 -0.3515625 0.03056335
vn -0.9975586 0.04504395 -0.04876709
vn 0.9931641 0.09942627 0.06390381
vn 0.05444336 -0.01756287 0.9985352
vn -0.9970703 -0.03335571 -0.06646729
vn 0.890625 0.4465332 0.08685303
vn -0.9750977 -0.2076416 -0.07556152
vn 0.02236938 0.04394531 0.9990234
vn -0.3688965 0.9277344 0.05734253
vn 0.090271 -0.08825684 -0.9921875
vn -0.9975586 0.04504395 -0.04876709
vn -0.2570801 -0.9628906 -0.0836792
vn 0.9355469 -0.3515625 0.03056335
vn 0.9931641 0.09942627 0.06390381
vn -0.9970703 -0.03335571 -0.06646729
vn 0.1760254 0.1259766 -0.9760742
vn 0.890625 0.4465332 0.08685303
vn 0.1436768 0.2021484 -0.96875
vn -0.9750977 -0.2076416 -0.07556152
vn -0.3688965 0.9277344 0.05734253
g s006v002_m_0
f 3/3/3 2/2/2 1/1/1
f 4/4/4 3/3/3 1/1/1
f 7/7/7 6/6/6 5/5/5
f 8/8/8 7/7/7 5/5/5
f 11/11/11 10/10/10 9/9/9
f 12/12/12 11/11/11 9/9/9
f 15/15/15 14/14/14 13/13/13
f 16/16/16 15/15/15 13/13/13
f 19/19/19 18/18/18 17/17/17
f 20/20/20 19/19/19 17/17/17
f 23/23/23 22/22/22 21/21/21
f 24/24/24 23/23/23 21/21/21
f 27/27/27 26/26/26 25/25/25
f 28/28/28 27/27/27 25/25/25
f 31/31/31 30/30/30 29/29/29
f 32/32/32 31/31/31 29/29/29
f 35/35/35 34/34/34 33/33/33
f 36/36/36 35/35/35 33/33/33
f 39/39/39 38/38/38 37/37/37
f 40/40/40 39/39/39 37/37/37
g s006v002_m_1
f 43/43/43 42/42/42 41/41/41
f 42/42/42 44/44/44 41/41/41
f 41/41/41 44/44/44 45/45/45
f 42/42/42 46/46/46 44/44/44
f 44/44/44 47/47/47 45/45/45
f 45/45/45 47/47/47 48/48/48
f 46/46/46 49/49/49 44/44/44
f 44/44/44 49/49/49 47/47/47
f 46/46/46 50/50/50 49/49/49
f 47/47/47 51/51/51 48/48/48
f 52/52/52 48/48/48 51/51/51
f 53/53/53 52/52/52 51/51/51
f 50/50/50 54/54/54 49/49/49
f 50/50/50 55/55/55 54/54/54
f 49/49/49 56/56/56 47/47/47
f 47/47/47 56/56/56 51/51/51
f 49/49/49 54/54/54 56/56/56
f 53/53/53 51/51/51 57/57/57
f 56/56/56 57/57/57 51/51/51
f 58/58/58 53/53/53 57/57/57
f 54/54/54 59/59/59 56/56/56
f 54/54/54 55/55/55 59/59/59
f 56/56/56 59/59/59 57/57/57
f 58/58/58 57/57/57 60/60/60
f 59/59/59 60/60/60 57/57/57
f 59/59/59 55/55/55 60/60/60
f 61/61/61 58/58/58 60/60/60
f 61/61/61 60/60/60 55/55/55
f 64/64/64 63/63/63 62/62/62
f 65/65/65 64/64/64 62/62/62
f 68/68/68 67/67/67 66/66/66
f 69/69/69 66/66/66 67/67/67
f 67/67/67 68/68/68 70/70/70
f 69/69/69 67/67/67 71/71/71
f 71/71/71 67/67/67 70/70/70
f 72/72/72 69/69/69 71/71/71
f 71/71/71 70/70/70 73/73/73
f 72/72/72 71/71/71 74/74/74
f 75/75/75 71/71/71 73/73/73
f 71/71/71 75/75/75 74/74/74
f 76/76/76 75/75/75 73/73/73
f 74/74/74 75/75/75 76/76/76
f 79/79/79 78/78/78 77/77/77
f 77/77/77 80/80/80 79/79/79
f 80/80/80 77/77/77 81/81/81
f 77/77/77 78/78/78 82/82/82
f 77/77/77 83/83/83 81/81/81
f 83/83/83 77/77/77 82/82/82
f 84/84/84 81/81/81 83/83/83
f 83/83/83 82/82/82 85/85/85
f 85/85/85 84/84/84 83/83/83
f 82/82/82 86/86/86 85/85/85
f 85/85/85 87/87/87 84/84/84
f 85/85/85 86/86/86 87/87/87
