#
# OBJECT NAME
#
o model_1553
mtllib 1553.mtl

#
# VERTEX BUFFER 000
#
v 0 0.36968 -0.366859
v 0.470064 0.30393 0.963889
v -0.470064 0.30393 0.963889
v 0.470064 0.30393 0.963889
v 0.470064 0.43655 0.963889
v -0.470064 0.43655 0.963889
v -0.470064 0.30393 0.963889
v 0 0.36968 -0.366859
v -0.470064 0.30393 0.963889
v -0.470064 0.43655 0.963889
v 0 0.36968 -0.366859
v 0.470064 0.43655 0.963889
v 0.470064 0.30393 0.963889
v 0 0.36968 -0.366859
v -0.470064 0.43655 0.963889
v 0.470064 0.43655 0.963889
v -0.220217 1.66113 0.207038
v 0.220231 1.66113 0.207038
v 7.42078e-006 1.66113 -0.22058
v -0.227147 1.32016 0.213242
v 0.227162 1.32016 0.213242
v 0.220231 1.66113 0.207038
v -0.220217 1.66113 0.207038
v 0.227162 1.32016 0.213242
v 7.42078e-006 1.32016 -0.227511
v 7.42078e-006 1.66113 -0.22058
v 0.220231 1.66113 0.207038
v 7.42078e-006 1.32016 -0.227511
v -0.227147 1.32016 0.213242
v -0.220217 1.66113 0.207038
v 7.42078e-006 1.66113 -0.22058
v 0.109319 -0.00522409 0.914436
v 0.0853544 0.107883 0.927621
v 0.181927 0.205967 -0.209403
v 0.0853544 0.107883 0.927621
v 0.202242 0.0964123 0.931379
v 0.181927 0.205967 -0.209403
v 0.202242 0.0964123 0.931379
v 0.109319 -0.00522409 0.914436
v 0.181927 0.205967 -0.209403
v 0.109319 -0.00522409 0.914436
v 0.202242 0.0964123 0.931379
v 0.0853544 0.107883 0.927621
v 0.401647 0.0470208 0.983519
v 0.289789 -0.00320429 1.01802
v 0.00484785 0.3786 0.227645
v 0.289789 -0.00320429 1.01802
v 0.320993 0.0990032 1.03038
v 0.00484785 0.3786 0.227645
v 0.320993 0.0990032 1.03038
v 0.401647 0.0470208 0.983519
v 0.00484785 0.3786 0.227645
v 0.289789 -0.00320429 1.01802
v 0.401647 0.0470208 0.983519
v 0.320993 0.0990032 1.03038
v 0.104385 0.0958702 0.999638
v -0.0388999 -0.0273565 0.983969
v -0.138248 0.386305 -0.410378
v -0.0388999 -0.0273565 0.983969
v -0.0797445 0.121501 1.02195
v -0.138248 0.386305 -0.410378
v -0.0797445 0.121501 1.02195
v 0.104385 0.0958702 0.999638
v -0.138248 0.386305 -0.410378
v -0.0388999 -0.0273565 0.983969
v 0.104385 0.0958702 0.999638
v -0.0797445 0.121501 1.02195
v -0.130368 0.0764307 1.0125
v -0.277754 0.000581127 0.989091
v 0.101009 0.0800874 -0.899991
v -0.277754 0.000581127 0.989091
v -0.270282 0.176922 0.98758
v 0.101009 0.0800874 -0.899991
v -0.270282 0.176922 0.98758
v -0.130368 0.0764307 1.0125
v 0.101009 0.0800874 -0.899991
v -0.277754 0.000581127 0.989091
v -0.130368 0.0764307 1.0125
v -0.270282 0.176922 0.98758
v 1.1132 0 -0.218697
v 0.491739 0.694154 0.877058
v 0.491739 0 0.877058
v -0.0075226 0 -1.09682
v -0.0093547 1.19546 -0.765842
v 1.1132 0 -0.218697
v 0.810673 1.19546 -0.100714
v 0.322832 0.96162 0.877058
v -0.491739 0.694154 0.877058
v -1.11419 0 -0.221563
v -0.491739 0 0.877058
v -1.11419 0 -0.221563
v -0.0093547 1.19546 -0.765842
v -0.0075226 0 -1.09682
v -0.812448 1.19546 -0.0972041
v -0.322832 0.96162 0.877058
v -0.205777 1.19706 0.582104
v 0.207728 1.19386 0.587392
v 7.47385e-006 1.4934 -0.000356325
v 7.47385e-006 1.4934 -0.000356325
v 7.47385e-006 1.4934 -0.000356325
v -0.812448 1.19546 -0.0972041
v 7.47385e-006 1.4934 -0.000356325
v 7.47385e-006 1.4934 -0.000356325
v 0.810673 1.19546 -0.100714
v 0.324763 0 0.88963
v 0.325868 0.668622 0.88963
v 0.000405067 0.728691 -0.2575
v -0.0143064 0.000108362 -0.272808
v -0.324763 0 0.88963
v -0.0143064 0.000108362 -0.272808
v 0.000405067 0.728691 -0.2575
v -0.325868 0.668622 0.88963
v 0.324763 0 0.88963
v -0.0143064 0.000108362 -0.272808
v 0.491739 0 0.877058
v -0.324763 0 0.88963
v -0.491739 0 0.877058
v 1.1132 0 -0.218697
v -1.11419 0 -0.221563
v -0.0075226 0 -1.09682
v 0 0.914098 0.88963
v -0.173205 0.868104 0.88963
v 0.173205 0.868104 0.88963
v -0.173205 0.868104 0.88963
v 0 0.914098 0.88963
v 0 1.06675 0.877058
v -0.322832 0.96162 0.877058
v 0.173205 0.868104 0.88963
v 0.322832 0.96162 0.877058
v -0.491739 0.694154 0.877058
v -0.325868 0.668622 0.88963
v -0.491739 0 0.877058
v -0.324763 0 0.88963
v 0.325868 0.668622 0.88963
v 0.491739 0.694154 0.877058
v 0.324763 0 0.88963
v 0.491739 0 0.877058
v 0 0.914098 0.88963
v -0.000524262 1.06675 0.877058
v 0.322832 0.96162 0.877058
v -0.000524262 1.06675 0.877058
v -0.322832 0.96162 0.877058
v 0 1.06675 0.877058

vn 0 -0.998535 -0.0493469
vn 0 -0.998535 -0.0493469
vn 0 -0.998535 -0.0493469
vn 0 0 1
vn 0 0 1
vn 0 0 1
vn 0 0 1
vn -0.942871 0 -0.333008
vn -0.942871 0 -0.333008
vn -0.942871 0 -0.333008
vn 0.942871 0 -0.333008
vn 0.942871 0 -0.333008
vn 0.942871 0 -0.333008
vn 0 0.998535 -0.0501709
vn 0 0.998535 -0.0501709
vn 0 0.998535 -0.0501709
vn 0 1 0
vn 0 1 0
vn 0 1 0
vn 0 0.0181885 0.999512
vn 0 0.0181885 0.999512
vn 0 0.0181885 0.999512
vn 0 0.0181885 0.999512
vn 0.888672 0.00951385 -0.457764
vn 0.888672 0.00951385 -0.457764
vn 0.888672 0.00951385 -0.457764
vn 0.888672 0.00951385 -0.457764
vn -0.888672 0.00951385 -0.457764
vn -0.888672 0.00951385 -0.457764
vn -0.888672 0.00951385 -0.457764
vn -0.888672 0.00951385 -0.457764
vn -0.975586 -0.195068 -0.0996704
vn -0.975586 -0.195068 -0.0996704
vn -0.975586 -0.195068 -0.0996704
vn 0.0942383 0.990723 0.0934448
vn 0.0942383 0.990723 0.0934448
vn 0.0942383 0.990723 0.0934448
vn 0.742188 -0.665527 -0.0771484
vn 0.742188 -0.665527 -0.0771484
vn 0.742188 -0.665527 -0.0771484
vn -0.0440979 -0.124878 0.990723
vn -0.0440979 -0.124878 0.990723
vn -0.0440979 -0.124878 0.990723
vn 0.227295 -0.841797 -0.48877
vn 0.227295 -0.841797 -0.48877
vn 0.227295 -0.841797 -0.48877
vn -0.879883 0.217529 0.422119
vn -0.879883 0.217529 0.422119
vn -0.879883 0.217529 0.422119
vn 0.565918 0.821289 0.0631714
vn 0.565918 0.821289 0.0631714
vn 0.565918 0.821289 0.0631714
vn 0.377441 -0.223877 0.898438
vn 0.377441 -0.223877 0.898438
vn 0.377441 -0.223877 0.898438
vn 0.645508 -0.717773 -0.259033
vn 0.645508 -0.717773 -0.259033
vn 0.645508 -0.717773 -0.259033
vn -0.964844 -0.262207 -0.00910187
vn -0.964844 -0.262207 -0.00910187
vn -0.964844 -0.262207 -0.00910187
vn 0.15625 0.972168 0.17334
vn 0.15625 0.972168 0.17334
vn 0.15625 0.972168 0.17334
vn 0.0864258 -0.223877 0.970703
vn 0.0864258 -0.223877 0.970703
vn 0.0864258 -0.223877 0.970703
vn 0.450195 -0.891113 0.0527649
vn 0.450195 -0.891113 0.0527649
vn 0.450195 -0.891113 0.0527649
vn -0.97998 0.0398254 -0.194702
vn -0.97998 0.0398254 -0.194702
vn -0.97998 0.0398254 -0.194702
vn 0.573242 0.815918 0.0709229
vn 0.573242 0.815918 0.0709229
vn 0.573242 0.815918 0.0709229
vn -0.164551 0.0154266 0.98584
vn -0.164551 0.0154266 0.98584
vn -0.164551 0.0154266 0.98584
vn 0.896484 0.138794 0.42041
vn 0.875977 0.175903 0.448486
vn 0.869629 -2.38419e-007 0.493164
vn 0.602051 0.213745 -0.768555
vn -0.00126362 0.459961 -0.887695
vn 0.606445 0.219849 -0.763672
vn 0.847656 0.473877 -0.237061
vn 0.615234 0.620605 0.485352
vn -0.875977 0.174072 0.449463
vn -0.895996 0.136475 0.421631
vn -0.869629 0 0.49292
vn -0.612305 0.220093 -0.759277
vn -0.00126362 0.459961 -0.887695
vn -0.605957 0.211304 -0.766602
vn -0.850586 0.474854 -0.225464
vn -0.612305 0.622559 0.486816
vn -0.309082 0.858887 0.407959
vn 0.312256 0.85791 0.407471
vn 0.00218201 0.999023 -0.0422363
vn 0.00218201 0.999023 -0.0422363
vn 0.00218201 0.999023 -0.0422363
vn -0.850586 0.474854 -0.225464
vn 0.00218201 0.999023 -0.0422363
vn 0.00218201 0.999023 -0.0422363
vn 0.847656 0.473877 -0.237061
vn -0.960449 0.00784302 0.276611
vn -0.959473 -0.071228 0.271729
vn -0.0123367 -0.101624 0.994629
vn -0.960449 0.00784302 0.276611
vn 0.963867 -0.012291 0.265381
vn 0.963867 -0.012291 0.265381
vn -0.0123367 -0.101624 0.994629
vn 0.960938 -0.0892944 0.26123
vn -6.85453e-006 -1 -9.11951e-005
vn 6.55651e-007 -1 4.02331e-005
vn -7.86781e-005 -1 -5.9545e-005
vn 6.91414e-006 -1 -9.13143e-005
vn 7.98702e-005 -1 -6.10352e-005
vn -9.60827e-005 -1 2.98023e-007
vn 9.85265e-005 -1 1.19209e-007
vn -1.37091e-006 -1 0.000131488
vn 5.77569e-005 -0.986816 0.159546
vn 0.600098 -0.777832 0.185303
vn -0.600098 -0.777832 0.184937
vn -0.0427246 0.0667725 0.996582
vn 0 0.0858154 0.996094
vn 0 0.0858154 0.996094
vn -0.0519104 0.0562744 0.996582
vn 0.0427246 0.0667725 0.996582
vn 0.0519104 0.0562744 0.996582
vn -0.0722656 0.0108566 0.99707
vn -0.0712891 0.014267 0.99707
vn -0.0753174 -6.10352e-005 0.99707
vn -0.0753174 -6.10352e-005 0.99707
vn 0.0712891 0.014267 0.99707
vn 0.0722656 0.0108566 0.99707
vn 0.0753174 -6.11544e-005 0.99707
vn 0.0753174 -6.11544e-005 0.99707
vn 5.77569e-005 -0.986816 0.159546
vn -0.00201416 0.864746 0.501953
vn 0 0 -1
vn 0 0 1
vn 0 0 1
vn 0 0 -1

vt 0.294477 0.576438
vt 0.305308 0.526885
vt 0.292253 0.627802
vt 0.987669 0.698274
vt 0.957351 0.700303
vt 0.943568 0.494393
vt 0.973885 0.492364
vt 0.957283 0.471822
vt 0.973885 0.492364
vt 0.943568 0.494393
vt 0.973783 0.718313
vt 0.957351 0.700303
vt 0.987669 0.698274
vt 0.785128 0.612896
vt 0.943568 0.494393
vt 0.957351 0.700303
vt 0.376511 0.701219
vt 0.376511 0.661241
vt 0.415324 0.68123
vt 0.373101 0.631978
vt 0.464825 0.631978
vt 0.464825 0.701661
vt 0.373101 0.701661
vt 0.464825 0.631978
vt 0.60241 0.631978
vt 0.60241 0.701661
vt 0.464825 0.701661
vt 0.281378 0.631978
vt 0.373101 0.631978
vt 0.373101 0.701661
vt 0.281378 0.701661
vt 0.669564 0.733614
vt 0.718922 0.733614
vt 0.772394 0.884328
vt 0.718922 0.733614
vt 0.79296 0.733614
vt 0.772394 0.884328
vt 0.79296 0.733614
vt 0.908129 0.733614
vt 0.772394 0.884328
vt 0.132987 0.484968
vt 0.152796 0.546838
vt 0.0985984 0.532893
vt 0.726111 0.733614
vt 0.776914 0.733614
vt 0.757127 0.884328
vt 0.776914 0.733614
vt 0.827716 0.733614
vt 0.757127 0.884328
vt 0.827716 0.733614
vt 0.878519 0.733614
vt 0.757127 0.884328
vt 0.0165123 0.528996
vt 0.0399618 0.45744
vt 0.0824915 0.51234
vt 0.808534 0.736205
vt 0.865013 0.736205
vt 0.761278 0.885248
vt 0.677281 0.736205
vt 0.735956 0.736205
vt 0.761278 0.885248
vt 0.735956 0.736205
vt 0.808535 0.736205
vt 0.761278 0.885248
vt 0.21895 0.866719
vt 0.253333 0.826598
vt 0.268911 0.878946
vt 0.903589 0.735607
vt 0.974463 0.73717
vt 0.858495 0.881985
vt 0.750515 0.735116
vt 0.83531 0.735217
vt 0.858495 0.881986
vt 0.83531 0.735217
vt 0.903591 0.735607
vt 0.858494 0.881986
vt 0.0201316 0.828902
vt 0.0656454 0.852039
vt 0.0222946 0.882693
vt 0.786157 0.010703
vt 0.581465 0.162629
vt 0.581465 0.010703
vt 0.994073 0.010703
vt 0.959083 0.358832
vt 0.786157 0.010703
vt 0.818539 0.358832
vt 0.586937 0.258785
vt 0.428306 0.162629
vt 0.19514 0.010703
vt 0.428306 0.010703
vt 0.19514 0.010703
vt 0.0437743 0.358832
vt 0.0130661 0.010703
vt 0.177347 0.358832
vt 0.422521 0.258785
vt 0.412352 0.357316
vt 0.593639 0.361362
vt 0.503864 0.48847
vt 0.324081 0.48847
vt 0.0891451 0.473798
vt 0.177347 0.358832
vt 0.881574 0.483846
vt 0.668411 0.485423
vt 0.81854 0.358832
vt 0.330624 0.740056
vt 0.410295 0.740056
vt 0.417453 0.876744
vt 0.330637 0.878613
vt 0.441263 0.878613
vt 0.441276 0.740056
vt 0.528092 0.741924
vt 0.520934 0.878613
vt 0.483165 0.106592
vt 0.504639 0.181561
vt 0.473024 0.106997
vt 0.526112 0.106593
vt 0.536252 0.106997
vt 0.446975 0.155984
vt 0.549496 0.187749
vt 0.488612 0.223808
vt 0.550184 0.878613
vt 0.544703 0.878613
vt 0.434065 0.740056
vt 0.0990392 0.793405
vt 0.145137 0.807362
vt 0.145137 0.851612
vt 0.0592167 0.821783
vt 0.191235 0.793405
vt 0.231057 0.821783
vt 0.0142629 0.740619
vt 0.0584088 0.732871
vt 0.0142629 0.544826
vt 0.0587029 0.544826
vt 0.231865 0.732871
vt 0.276011 0.740619
vt 0.231571 0.544826
vt 0.276011 0.544826
vt 0.439545 0.740056
vt 0.503864 0.258785
vt 0.379943 0.96573
vt 0.499602 0.96573
vt 0.618872 0.965731
vt 0.499408 0.98971


#
# MESH 000
#
g surface_000
usemtl surface_000
f 14/14/14 15/15/15 16/16/16
f 11/11/11 12/12/12 13/13/13
f 8/8/8 9/9/9 10/10/10
f 1/1/1 2/2/2 3/3/3
f 4/4/4 6/6/6 7/7/7
f 4/4/4 5/5/5 6/6/6
f 17/17/17 18/18/18 19/19/19
f 28/28/28 30/30/30 31/31/31
f 28/28/28 29/29/29 30/30/30
f 24/24/24 26/26/26 27/27/27
f 24/24/24 25/25/25 26/26/26
f 20/20/20 22/22/22 23/23/23
f 20/20/20 21/21/21 22/22/22
f 41/41/41 42/42/42 43/43/43
f 38/38/38 39/39/39 40/40/40
f 35/35/35 36/36/36 37/37/37
f 32/32/32 33/33/33 34/34/34
f 53/53/53 54/54/54 55/55/55
f 50/50/50 51/51/51 52/52/52
f 47/47/47 48/48/48 49/49/49
f 44/44/44 45/45/45 46/46/46
f 65/65/65 66/66/66 67/67/67
f 62/62/62 63/63/63 64/64/64
f 59/59/59 60/60/60 61/61/61
f 56/56/56 57/57/57 58/58/58
f 77/77/77 78/78/78 79/79/79
f 74/74/74 75/75/75 76/76/76
f 71/71/71 72/72/72 73/73/73
f 68/68/68 69/69/69 70/70/70
f 103/103/103 97/97/97 104/104/104
f 100/100/100 92/92/92 101/101/101
f 140/140/140 142/142/142 143/143/143
f 140/140/140 141/141/141 142/142/142
f 94/94/94 92/92/92 91/91/91
f 91/91/91 92/92/92 93/93/93
f 107/107/107 123/123/123 138/138/138
f 106/106/106 123/123/123 107/107/107
f 105/105/105 106/106/106 107/107/107
f 105/105/105 107/107/107 108/108/108
f 136/136/136 137/137/137 135/135/135
f 136/136/136 135/135/135 134/134/134
f 128/128/128 134/134/134 135/135/135
f 128/128/128 135/135/135 129/129/129
f 126/126/126 128/128/128 129/129/129
f 126/126/126 125/125/125 128/128/128
f 124/124/124 125/125/125 126/126/126
f 124/124/124 126/126/126 127/127/127
f 130/130/130 124/124/124 127/127/127
f 130/130/130 131/131/131 124/124/124
f 130/130/130 133/133/133 131/131/131
f 130/130/130 132/132/132 133/133/133
f 121/121/121 122/122/122 111/111/111
f 111/111/111 122/122/122 112/112/112
f 109/109/109 111/111/111 112/112/112
f 109/109/109 110/110/110 111/111/111
f 114/114/114 116/116/116 117/117/117
f 114/114/114 117/117/117 119/119/119
f 114/114/114 119/119/119 120/120/120
f 118/118/118 114/114/114 120/120/120
f 115/115/115 114/114/114 118/118/118
f 113/113/113 114/114/114 115/115/115
f 102/102/102 86/86/86 84/84/84
f 85/85/85 84/84/84 86/86/86
f 83/83/83 84/84/84 85/85/85
f 99/99/99 94/94/94 96/96/96
f 96/96/96 94/94/94 95/95/95
f 139/139/139 96/96/96 95/95/95
f 139/139/139 97/97/97 96/96/96
f 96/96/96 97/97/97 98/98/98
f 94/94/94 88/88/88 95/95/95
f 88/88/88 94/94/94 89/89/89
f 88/88/88 89/89/89 90/90/90
f 87/87/87 97/97/97 139/139/139
f 86/86/86 97/97/97 87/87/87
f 86/86/86 87/87/87 81/81/81
f 80/80/80 86/86/86 81/81/81
f 80/80/80 81/81/81 82/82/82

