g s004v001_h
v -0.3371925 0.008819027 -0.1857183
v 0.001292511 0.0007859792 0.04857755
v -0.1886555 0.121052 0.1698477
v -0.3968568 0.04605527 -0.1476312
v 0.07907785 -0.003339739 0.4479464
v -0.4967672 0.1061251 0.3647753
v 0.008645147 0.04061705 0.4929078
v -0.0003242179 -0.0005396143 0.04735589
v 0.3097996 -0.104388 -0.09543133
v 0.07840206 0.1783392 0.1170251
v -0.2698008 0.005830195 0.2795227
v 0.4940599 0.1782087 0.1071901
v -0.08554053 0.2884269 0.4821441
v 0.2196177 0.3372409 0.2866821
v 0.3819349 0.3971301 0.5275631
v -0.0002421767 0 0.06259847
v -0.3417655 -0.03500744 -0.0135324
v 0.01662645 0.1841415 -0.04546881
v 0.3476071 -0.05530182 0.05308437
v -0.308206 0.2509706 -0.2736959
v 0.3811666 0.2306762 -0.2070792
v 0.03943834 0.3332159 -0.2428515
v 0.06907857 0.4054823 -0.5275631
vt 1.014648 0.4868164
vt 0.6757813 0.4042969
vt 0.6757813 0.5283203
vt 1.014648 0.5283203
vt 0.3371582 0.4794922
vt 0.6757813 0.6821289
vt 0.3371582 0.5283203
vt 0.6757813 0.3093262
vt 0.3371582 0.3093262
vt 0.6757813 0.4187012
vt 1.014648 0.3093262
vt 0.3371582 0.5283203
vt 1.014648 0.5283203
vt 0.6757813 0.5478516
vt 0.6757813 0.6821289
vt 0.6757813 0.3093262
vt 0.3371582 0.3093262
vt 0.6757813 0.4187012
vt 1.014648 0.3093262
vt 0.3371582 0.5283203
vt 1.014648 0.5283203
vt 0.6757813 0.5478516
vt 0.6757813 0.6821289
vn 0.2946777 0.8691406 -0.3974609
vn 0.4035645 0.8828125 -0.2403564
vn 0.1811523 0.9780273 -0.104126
vn 0.1539307 0.9345703 -0.3210449
vn 0.4916992 0.8666992 -0.08581543
vn -0.0307312 0.9990234 0.02793884
vn 0.3666992 0.9301758 0.00674057
vn -0.4094238 0.4819336 -0.7749023
vn -0.06408691 0.5654297 -0.8222656
vn -0.3044434 0.6782227 -0.6689453
vn -0.5605469 0.6591797 -0.5014648
vn 0.04785156 0.7133789 -0.6992188
vn -0.4526367 0.809082 -0.3745117
vn -0.08398438 0.9121094 -0.4008789
vn 0.01724243 0.9677734 -0.2521973
vn -0.06835938 0.5097656 0.8579102
vn -0.3193359 0.6259766 0.7114258
vn -0.0501709 0.6801758 0.7314453
vn 0.213623 0.609375 0.7636719
vn -0.3037109 0.7734375 0.5561523
vn 0.2366943 0.7578125 0.6079102
vn -0.01209259 0.9155273 0.4023438
vn 0.004711151 0.9692383 0.24646
g s004v001_h_0
f 3/3/3 2/2/2 1/1/1
f 4/4/4 3/3/3 1/1/1
f 2/2/2 3/3/3 5/5/5
f 3/3/3 4/4/4 6/6/6
f 3/3/3 7/7/7 5/5/5
f 7/7/7 3/3/3 6/6/6
f 10/10/10 9/9/9 8/8/8
f 11/11/11 10/10/10 8/8/8
f 10/10/10 12/12/12 9/9/9
f 13/13/13 10/10/10 11/11/11
f 10/10/10 14/14/14 12/12/12
f 10/10/10 13/13/13 14/14/14
f 12/12/12 14/14/14 15/15/15
f 14/14/14 13/13/13 15/15/15
f 18/18/18 17/17/17 16/16/16
f 19/19/19 18/18/18 16/16/16
f 18/18/18 20/20/20 17/17/17
f 21/21/21 18/18/18 19/19/19
f 18/18/18 22/22/22 20/20/20
f 18/18/18 21/21/21 22/22/22
f 20/20/20 22/22/22 23/23/23
f 22/22/22 21/21/21 23/23/23
