#
# OBJECT NAME
#
o model_2778
mtllib 2778.mtl

#
# VERTEX BUFFER 000
#
v -1 -3.57628e-007 -1
v -0.745372 -4.76837e-007 0.0112805
v -0.745372 0.301347 0.0112805
v -1 0.301347 -1
v -0.0133213 0.301347 0.743331
v 1 0.301347 1
v 1 0.60327 1.24773
v -0.144544 0.60327 0.955082
v -0.745372 0.301347 0.0112805
v -0.0133213 0.301347 0.743331
v -0.144544 0.60327 0.955082
v -0.957205 0.60327 0.133454
v -0.957205 0.60327 0.133454
v -1.24773 0.60327 -1
v 1 0.999894 1.24773
v -0.144545 0.999894 0.955082
v -0.144545 0.999894 0.955082
v -0.957205 0.999894 0.133454
v -0.957205 0.999894 0.133454
v -1.24773 1.00011 -1
v -0.745372 -4.76837e-007 0.0112805
v -0.0133213 -4.76837e-007 0.743331
v -0.0133213 -4.76837e-007 0.743331
v 1 -4.76837e-007 1
v 1 0.135576 1
v -1 -3.57628e-007 -1
v 1 -5.96046e-007 -1
v -0.745372 -5.96046e-007 0.0112801
v -0.0133213 -3.57628e-007 0.743331
v 1 -3.57628e-007 1
v -0.898226 1.01 -0.951828
v 1 1.00011 -1
v -1.24773 1.00011 -1
v -0.663624 1.01 -0.0365642
v 0.0271371 1.01 0.66182
v 0.951357 1.01 0.898136
v -0.957205 0.999894 0.133454
v -0.144545 0.999894 0.955082
v 1 0.999894 1.24773
v 1 1.00011 -1
v 1 1.00011 1.24773
v 1 0.603271 1.24773
v 1 0.300333 1
v 1 0.3003 -1
v 1 1.00011 -1
v -1.24773 0.603271 -1
v -1.24773 1.00011 -1
v 1 0.3003 -1
v -1 0.300333 -1
v 1 -8.34465e-007 -1
v -1 -1.19209e-007 -1
v -1 0.300333 -1
v 1 0.3003 -1
v 1 -8.34465e-007 -1
v 1 0.3003 -1
v 1 0.300333 1
v 1 -1.19209e-007 1
v -0.342803 1.28172 0.0640184
v -0.0710495 1.28172 0.335772
v 0.0409024 1.00011 0.331718
v -0.338749 1.00011 -0.0479341
v -0.578495 1.28172 0.245691
v -0.342803 1.28172 0.0640184
v -0.338749 1.00011 -0.0479341
v -0.727618 1.00011 0.215995
v -0.223027 1.00011 0.720588
v 0.0409024 1.00011 0.331718
v -0.0710495 1.28172 0.335772
v -0.252722 1.28172 0.571465
v -0.727618 1.00011 0.215995
v -0.223027 1.00011 0.720588
v -0.252722 1.28172 0.571465
v -0.578495 1.28172 0.245691
v -0.578495 1.28172 0.245691
v -0.252722 1.28172 0.571465
v -0.0710495 1.28172 0.335772
v -0.342803 1.28172 0.0640184
v 0.37236 1.28172 0.57513
v 0.743583 1.28172 0.674599
v 0.838509 1.00011 0.615112
v 0.319895 1.00011 0.47615
v 0.259081 1.28172 0.85031
v 0.37236 1.28172 0.57513
v 0.319895 1.00011 0.47615
v 0.115088 1.00011 0.899153
v 0.804374 1.00011 1.08385
v 0.838509 1.00011 0.615112
v 0.743583 1.28172 0.674599
v 0.704095 1.28172 0.969551
v 0.115088 1.00011 0.899153
v 0.804374 1.00011 1.08385
v 0.704095 1.28172 0.969551
v 0.259081 1.28172 0.85031
v 0.259081 1.28172 0.85031
v 0.704095 1.28172 0.969551
v 0.743583 1.28172 0.674599
v 0.37236 1.28172 0.57513
v -0.681771 1.28172 -0.746324
v -0.582303 1.28172 -0.375102
v -0.483323 1.00011 -0.322637
v -0.622284 1.00011 -0.841251
v -0.976723 1.28172 -0.706837
v -0.681771 1.28172 -0.746324
v -0.622284 1.00011 -0.841251
v -1.09102 1.00011 -0.807116
v -0.906327 1.00011 -0.117831
v -0.483323 1.00011 -0.322637
v -0.582303 1.28172 -0.375102
v -0.857482 1.28172 -0.261823
v -1.09102 1.00011 -0.807116
v -0.906327 1.00011 -0.117831
v -0.857482 1.28172 -0.261823
v -0.976723 1.28172 -0.706837
v -0.976723 1.28172 -0.706837
v -0.857482 1.28172 -0.261823
v -0.582303 1.28172 -0.375102
v -0.681771 1.28172 -0.746324

vn -0.969727 0 0.244141
vn -0.969727 0 0.244141
vn -0.891602 -0.391846 0.225586
vn -0.89209 -0.390381 0.22583
vn -0.225952 -0.395752 0.889648
vn -0.226318 -0.392578 0.891113
vn -0.236206 -0.296143 0.925293
vn -0.23645 -0.292236 0.92627
vn -0.650879 -0.393066 0.648926
vn -0.651367 -0.391357 0.649414
vn -0.677734 -0.298828 0.671387
vn -0.677734 -0.297363 0.671875
vn -0.925781 -0.293945 0.236572
vn -0.925293 -0.29541 0.23645
vn -0.247681 -1.78814e-007 0.96875
vn -0.247681 -1.78814e-007 0.96875
vn -0.710938 -4.17233e-007 0.703125
vn -0.710938 -4.17233e-007 0.703125
vn -0.968262 -2.38419e-007 0.248291
vn -0.968262 -2.38419e-007 0.248291
vn -0.707031 0 0.707031
vn -0.707031 0 0.707031
vn -0.245483 0 0.969238
vn -0.245483 0 0.969238
vn -98304 -98304 -98304
vn -1.19209e-007 -1 -1.78814e-007
vn 0 -1 0
vn 0 -1 0
vn 0 -1 1.19209e-007
vn 0 -1 1.19209e-007
vn -0.00692749 0.999512 -0.0146179
vn 0.00363541 0.999512 -0.00363922
vn -0.0290833 0.999512 0.00382423
vn -0.00622177 0.999512 0.00353432
vn -0.00358009 0.999512 0.00630951
vn 0.0147476 0.999512 0.00704575
vn -0.0256805 0.999512 0.0147705
vn -0.0148392 0.999512 0.0257568
vn -0.00371742 0.999512 0.0294037
vn 1 0 0
vn 1 0 0
vn 1 0 0
vn 1 0 0
vn 1 0 0
vn 0 0 -1
vn 0 0 -1
vn 0 0 -1
vn 0 0 -1
vn 0 2.38419e-007 -1
vn 0 -1.78814e-007 -1
vn 0 -1.78814e-007 -1
vn 0 -1.78814e-007 -1
vn 0 -1.78814e-007 -1
vn 1 0 0
vn 1 0 0
vn 1 0 0
vn 1 0 0
vn 0.678711 0.279541 -0.678711
vn 0.678711 0.279541 -0.678711
vn 0.678711 0.279541 -0.678711
vn 0.678711 0.279541 -0.678711
vn -0.547363 0.33374 -0.76709
vn -0.547363 0.33374 -0.76709
vn -0.547363 0.33374 -0.76709
vn -0.547363 0.33374 -0.76709
vn 0.76709 0.33374 0.547363
vn 0.76709 0.33374 0.547363
vn 0.76709 0.33374 0.547363
vn 0.76709 0.33374 0.547363
vn -0.677246 0.287109 0.677246
vn -0.677246 0.287109 0.677246
vn -0.677246 0.287109 0.677246
vn -0.677246 0.287109 0.677246
vn 0 1 0
vn 0 1 0
vn 0 1 0
vn 0 1 0
vn 0.248413 0.279541 -0.927246
vn 0.248413 0.279541 -0.927246
vn 0.248413 0.279541 -0.927246
vn 0.248413 0.279541 -0.927246
vn -0.857422 0.33374 -0.390625
vn -0.857422 0.33374 -0.390625
vn -0.857422 0.33374 -0.390625
vn -0.857422 0.33374 -0.390625
vn 0.937988 0.33374 0.0903931
vn 0.937988 0.33374 0.0903931
vn 0.937988 0.33374 0.0903931
vn 0.937988 0.33374 0.0903931
vn -0.247803 0.287109 0.924805
vn -0.247803 0.287109 0.924805
vn -0.247803 0.287109 0.924805
vn -0.247803 0.287109 0.924805
vn 0 1 0
vn 0 1 0
vn 0 1 0
vn 0 1 0
vn 0.927246 0.279541 -0.248413
vn 0.927246 0.279541 -0.248413
vn 0.927246 0.279541 -0.248413
vn 0.927246 0.279541 -0.248413
vn -0.0903931 0.33374 -0.937988
vn -0.0903931 0.33374 -0.937988
vn -0.0903931 0.33374 -0.937988
vn -0.0903931 0.33374 -0.937988
vn 0.390625 0.33374 0.857422
vn 0.390625 0.33374 0.857422
vn 0.390625 0.33374 0.857422
vn 0.390625 0.33374 0.857422
vn -0.924805 0.287109 0.247803
vn -0.924805 0.287109 0.247803
vn -0.924805 0.287109 0.247803
vn -0.924805 0.287109 0.247803
vn 0 1 -2.38419e-007
vn 0 1 -2.38419e-007
vn 0 1 -2.38419e-007
vn 0 1 -2.38419e-007

vt 0.751346 0.75085
vt 0.996957 0.75085
vt 0.996957 0.826375
vt 0.751346 0.826375
vt 0.751346 0.826375
vt 0.996962 0.826375
vt 0.996962 0.903262
vt 0.751346 0.903262
vt 0.751346 0.826375
vt 0.99696 0.826375
vt 0.99696 0.903262
vt 0.751346 0.903262
vt 0.996957 0.903262
vt 0.751346 0.903262
vt 0.996962 0.998934
vt 0.751346 0.998934
vt 0.99696 0.998934
vt 0.751346 0.998934
vt 0.996957 0.998934
vt 0.751346 0.998934
vt 0.751346 0.75085
vt 0.99696 0.75085
vt 0.751346 0.75085
vt 0.996962 0.75085
vt 0.996962 0.782952
vt 0.235526 0.290277
vt 0.235526 0.51406
vt 0.123635 0.320258
vt 0.0417243 0.402168
vt 0.0117432 0.51406
vt 0.510227 0.0823653
vt 0.498015 0.497598
vt 0.5 0.00587946
vt 0.710203 0.134198
vt 0.864376 0.289523
vt 0.916404 0.487194
vt 0.747648 0.0700686
vt 0.929027 0.252804
vt 0.993459 0.497598
vt 0.0101582 0.00700802
vt 0.489868 0.00700814
vt 0.489868 0.074311
vt 0.430626 0.116738
vt 0.0101582 0.116738
vt 0.0101582 0.00700802
vt 0.489868 0.074311
vt 0.489868 0.00700814
vt 0.0101582 0.116738
vt 0.430626 0.116738
vt 0.338969 0.57762
vt 0.770631 0.57762
vt 0.770631 0.532408
vt 0.338969 0.532408
vt 0.338969 0.57762
vt 0.338969 0.532408
vt 0.770631 0.532408
vt 0.770631 0.57762
vt 0.150966 0.630589
vt 0.0301935 0.630589
vt 0.00923725 0.552122
vt 0.172763 0.552122
vt 0.40086 0.653157
vt 0.470988 0.653157
vt 0.487924 0.73391
vt 0.374228 0.73391
vt 0.128426 0.73391
vt 0.01513 0.73391
vt 0.0354508 0.653157
vt 0.102226 0.653157
vt 0.35572 0.73391
vt 0.145914 0.73391
vt 0.174373 0.653157
vt 0.321635 0.653157
vt 0.314904 0.628999
vt 0.18009 0.628999
vt 0.188933 0.567497
vt 0.304804 0.567497
vt 0.150966 0.630589
vt 0.0301935 0.630589
vt 0.00923725 0.552122
vt 0.172763 0.552122
vt 0.40086 0.653157
vt 0.470988 0.653157
vt 0.487924 0.73391
vt 0.374228 0.73391
vt 0.128426 0.73391
vt 0.01513 0.73391
vt 0.0354508 0.653157
vt 0.102226 0.653157
vt 0.35572 0.73391
vt 0.145914 0.73391
vt 0.174373 0.653157
vt 0.321635 0.653157
vt 0.314904 0.628999
vt 0.18009 0.628999
vt 0.188933 0.567497
vt 0.304804 0.567497
vt 0.150966 0.630589
vt 0.0301935 0.630589
vt 0.00923725 0.552122
vt 0.172763 0.552122
vt 0.40086 0.653157
vt 0.470988 0.653157
vt 0.487924 0.73391
vt 0.374228 0.73391
vt 0.128426 0.73391
vt 0.01513 0.73391
vt 0.0354508 0.653157
vt 0.102226 0.653157
vt 0.35572 0.73391
vt 0.145914 0.73391
vt 0.174373 0.653157
vt 0.321635 0.653157
vt 0.314904 0.628999
vt 0.18009 0.628999
vt 0.188933 0.567497
vt 0.304804 0.567497


#
# MESH 000
#
g surface_000
usemtl surface_000
f 25/25/25 6/6/6 24/24/24
f 6/6/6 23/23/23 24/24/24
f 6/6/6 5/5/5 23/23/23
f 5/5/5 6/6/6 7/7/7
f 5/5/5 7/7/7 8/8/8
f 8/8/8 7/7/7 15/15/15
f 8/8/8 15/15/15 16/16/16
f 10/10/10 21/21/21 22/22/22
f 10/10/10 9/9/9 21/21/21
f 9/9/9 10/10/10 11/11/11
f 9/9/9 11/11/11 12/12/12
f 12/12/12 11/11/11 17/17/17
f 12/12/12 17/17/17 18/18/18
f 14/14/14 19/19/19 20/20/20
f 14/14/14 13/13/13 19/19/19
f 4/4/4 13/13/13 14/14/14
f 4/4/4 3/3/3 13/13/13
f 1/1/1 3/3/3 4/4/4
f 1/1/1 2/2/2 3/3/3
f 29/29/29 27/27/27 30/30/30
f 28/28/28 27/27/27 29/29/29
f 26/26/26 27/27/27 28/28/28
f 39/39/39 32/32/32 36/36/36
f 32/32/32 35/35/35 36/36/36
f 36/36/36 35/35/35 38/38/38
f 36/36/36 38/38/38 39/39/39
f 32/32/32 34/34/34 35/35/35
f 35/35/35 34/34/34 37/37/37
f 35/35/35 37/37/37 38/38/38
f 32/32/32 31/31/31 34/34/34
f 31/31/31 37/37/37 34/34/34
f 31/31/31 33/33/33 37/37/37
f 31/31/31 32/32/32 33/33/33
f 45/45/45 48/48/48 49/49/49
f 45/45/45 49/49/49 46/46/46
f 45/45/45 46/46/46 47/47/47
f 40/40/40 43/43/43 44/44/44
f 40/40/40 42/42/42 43/43/43
f 40/40/40 41/41/41 42/42/42
f 54/54/54 56/56/56 57/57/57
f 54/54/54 55/55/55 56/56/56
f 50/50/50 52/52/52 53/53/53
f 50/50/50 51/51/51 52/52/52
f 114/114/114 116/116/116 117/117/117
f 114/114/114 115/115/115 116/116/116
f 110/110/110 112/112/112 113/113/113
f 110/110/110 111/111/111 112/112/112
f 106/106/106 108/108/108 109/109/109
f 106/106/106 107/107/107 108/108/108
f 102/102/102 104/104/104 105/105/105
f 102/102/102 103/103/103 104/104/104
f 98/98/98 100/100/100 101/101/101
f 98/98/98 99/99/99 100/100/100
f 94/94/94 96/96/96 97/97/97
f 94/94/94 95/95/95 96/96/96
f 90/90/90 92/92/92 93/93/93
f 90/90/90 91/91/91 92/92/92
f 86/86/86 88/88/88 89/89/89
f 86/86/86 87/87/87 88/88/88
f 82/82/82 84/84/84 85/85/85
f 82/82/82 83/83/83 84/84/84
f 78/78/78 80/80/80 81/81/81
f 78/78/78 79/79/79 80/80/80
f 74/74/74 76/76/76 77/77/77
f 74/74/74 75/75/75 76/76/76
f 70/70/70 72/72/72 73/73/73
f 70/70/70 71/71/71 72/72/72
f 66/66/66 68/68/68 69/69/69
f 66/66/66 67/67/67 68/68/68
f 62/62/62 64/64/64 65/65/65
f 62/62/62 63/63/63 64/64/64
f 58/58/58 60/60/60 61/61/61
f 58/58/58 59/59/59 60/60/60

