g d007v001_m
v -0.9795399 0.05000001 0.8815842
v -1 1.4E-14 0.9000015
v -1 1.4E-14 -0.9000015
v -0.9795399 0.05000001 -0.8815842
v -1.199593E-16 0.05000001 0.9795418
v -0.8999996 1.4E-14 1
v -0.8815861 0.05000001 0.9795418
v -1.224647E-16 1.398901E-14 1
v 0.9000001 1.392841E-14 1
v 0.8815861 0.05000001 0.9795418
v -1 1.4E-14 0.9000015
v -0.8999996 1.398612E-14 -0.9000015
v -1 1.4E-14 -0.9000015
v -0.8999996 1.399306E-14 0.9000015
v -1.224647E-16 1.398901E-14 1
v -0.8999996 1.4E-14 1
v 1.224647E-16 1.398959E-14 -1
v -0.8999996 1.4E-14 -1
v -0.8815861 0.05000001 -0.9795418
v -0.8815861 0.05000001 -0.8815842
v -0.8999996 1.398612E-14 -0.9000015
v -0.8999996 1.4E-14 -1
v 1.199593E-16 0.05000001 -0.9795418
v -0.8815861 0.05000001 -0.8815842
v -0.8815861 0.05000001 -0.9795418
v -1.199593E-16 0.05000001 0.9795418
v -0.8815861 0.05000001 0.8815842
v -0.8815861 0.05000001 0.9795418
v -0.9795399 0.05000001 0.8815842
v -0.9795399 0.05000001 -0.8815842
v -0.9795399 0.05000001 0.8815842
v -0.8815861 0.05000001 0.8815842
v -0.8999996 1.399306E-14 0.9000015
v -1 1.4E-14 0.9000015
v 1.199593E-16 0.05000001 -0.9795418
v -0.8815861 0.05000001 -0.9795418
v -0.8999996 1.4E-14 -1
v 1.224647E-16 1.398959E-14 -1
v 0.9000001 1.396762E-14 -1
v 0.8815861 0.05000001 -0.9795418
v -0.8999996 1.398612E-14 -0.9000015
v -0.8815861 0.05000001 -0.8815842
v -0.9795399 0.05000001 -0.8815842
v -1 1.4E-14 -0.9000015
v -0.8815861 0.05000001 0.9795418
v -0.8999996 1.4E-14 1
v -0.8999996 1.399306E-14 0.9000015
v -0.8815861 0.05000001 0.8815842
v 0.9795399 0.05000001 0.8815842
v 0.9795399 0.05000001 -0.8815842
v 1 1.40266E-14 -0.9000015
v 1 1.40421E-14 0.9000015
v 1 1.40421E-14 0.9000015
v 1 1.40266E-14 -0.9000015
v 0.9000001 1.399147E-14 -0.9000015
v 0.9000001 1.398522E-14 0.9000015
v -1.224647E-16 1.398901E-14 1
v 0.9000001 1.392841E-14 1
v 1.224647E-16 1.398959E-14 -1
v 0.9000001 1.396762E-14 -1
v 0.8815861 0.05000001 -0.9795418
v 0.9000001 1.396762E-14 -1
v 0.9000001 1.399147E-14 -0.9000015
v 0.8815861 0.05000001 -0.8815842
v 1.199593E-16 0.05000001 -0.9795418
v 0.8815861 0.05000001 -0.9795418
v 0.8815861 0.05000001 -0.8815842
v -1.199593E-16 0.05000001 0.9795418
v 0.8815861 0.05000001 0.8815842
v 0.8815861 0.05000001 0.9795418
v 0.9795399 0.05000001 0.8815842
v 0.9795399 0.05000001 -0.8815842
v 0.9795399 0.05000001 0.8815842
v 1 1.40421E-14 0.9000015
v 0.9000001 1.398522E-14 0.9000015
v 0.8815861 0.05000001 0.8815842
v 0.9000001 1.399147E-14 -0.9000015
v 1 1.40266E-14 -0.9000015
v 0.9795399 0.05000001 -0.8815842
v 0.8815861 0.05000001 -0.8815842
v 0.8815861 0.05000001 0.9795418
v 0.8815861 0.05000001 0.8815842
v 0.9000001 1.398522E-14 0.9000015
v 0.9000001 1.392841E-14 1
vt 0.2216797 0.04605103
vt 0.168335 0.04046631
vt 0.168335 0.7192383
vt 0.2216797 0.7133789
vt 0.2216797 0.3796387
vt 0.168335 0.7192383
vt 0.2216797 0.7133789
vt 0.168335 0.3796387
vt 0.168335 0.04046631
vt 0.2216797 0.04605103
vt 0.1135254 0.7753906
vt 0.9189453 0.7978516
vt 0.9189453 0.7753906
vt 0.1135254 0.7978516
vt 0.06872559 1
vt 0.06872559 0.7978516
vt 0.9633789 1
vt 0.9633789 0.7978516
vt 0.1362305 0.6513672
vt 0.1362305 0.6123047
vt 0.08300781 0.6186523
vt 0.08300781 0.6459961
vt 0.9951172 0.7373047
vt 0.3562012 0.7021484
vt 0.3562012 0.7373047
vt 0.9951172 0.02903748
vt 0.3562012 0.06445313
vt 0.3562012 0.02903748
vt 0.2854004 0.06445313
vt 0.2854004 0.7021484
vt 0.1362305 0.6513672
vt 0.1362305 0.6123047
vt 0.08300781 0.6186523
vt 0.08300781 0.6459961
vt 0.2216797 0.3796387
vt 0.2216797 0.04605103
vt 0.168335 0.04046631
vt 0.168335 0.3796387
vt 0.168335 0.7192383
vt 0.2216797 0.7133789
vt 0.08300781 0.7089844
vt 0.1363525 0.7158203
vt 0.1363525 0.6762695
vt 0.08300781 0.6816406
vt 0.1363525 0.6762695
vt 0.08300781 0.6816406
vt 0.08300781 0.7089844
vt 0.1363525 0.7158203
vt 0.2216797 0.7133789
vt 0.2216797 0.04605103
vt 0.168335 0.04046631
vt 0.168335 0.7192383
vt 0.1135254 0.7753906
vt 0.9189453 0.7753906
vt 0.9189453 0.7978516
vt 0.1135254 0.7978516
vt 0.06872559 1
vt 0.06872559 0.7978516
vt 0.9633789 1
vt 0.9633789 0.7978516
vt 0.1363525 0.6762695
vt 0.08300781 0.6816406
vt 0.08300781 0.7089844
vt 0.1363525 0.7158203
vt 0.9951172 0.7373047
vt 0.3562012 0.7373047
vt 0.3562012 0.7021484
vt 0.9951172 0.02903748
vt 0.3562012 0.06445313
vt 0.3562012 0.02903748
vt 0.2854004 0.06445313
vt 0.2854004 0.7021484
vt 0.1363525 0.6762695
vt 0.08300781 0.6816406
vt 0.08300781 0.7089844
vt 0.1363525 0.7158203
vt 0.08300781 0.6186523
vt 0.08300781 0.6459961
vt 0.1362305 0.6513672
vt 0.1362305 0.6123047
vt 0.1362305 0.6513672
vt 0.1362305 0.6123047
vt 0.08300781 0.6186523
vt 0.08300781 0.6459961
vn -0.925293 0.3786621 0
vn -0.925293 0.3786621 0
vn -0.925293 0.3786621 0
vn -0.925293 0.3786621 0
vn 0 0.3786621 0.925293
vn 0 0.3786621 0.925293
vn 0 0.3786621 0.925293
vn 0 0.3786621 0.925293
vn 0 0.3786621 0.925293
vn 0 0.3786621 0.925293
vn 0 -1 0
vn 0 -1 0
vn 0 -1 0
vn 0 -1 0
vn 0 -1 0
vn 0 -1 0
vn 0 -1 0
vn 0 -1 0
vn -0.9384766 0.3457031 0
vn -0.9384766 0.3457031 0
vn -0.9384766 0.3457031 0
vn -0.9384766 0.3457031 0
vn 0 1 0
vn 0 1 0
vn 0 1 0
vn 0 1 0
vn 0 1 0
vn 0 1 0
vn 0 1 0
vn 0 1 0
vn 0 0.3457031 0.9384766
vn 0 0.3457031 0.9384766
vn 0 0.3457031 0.9384766
vn 0 0.3457031 0.9384766
vn 0 0.3786621 -0.925293
vn 0 0.3786621 -0.925293
vn 0 0.3786621 -0.925293
vn 0 0.3786621 -0.925293
vn 0 0.3786621 -0.925293
vn 0 0.3786621 -0.925293
vn 0 0.3457031 -0.9384766
vn 0 0.3457031 -0.9384766
vn 0 0.3457031 -0.9384766
vn 0 0.3457031 -0.9384766
vn -0.9384766 0.3457031 0
vn -0.9384766 0.3457031 0
vn -0.9384766 0.3457031 0
vn -0.9384766 0.3457031 0
vn 0.925293 0.3786621 0
vn 0.925293 0.3786621 0
vn 0.925293 0.3786621 0
vn 0.925293 0.3786621 0
vn 0 -1 0
vn 0 -1 0
vn 0 -1 0
vn 0 -1 0
vn 0 -1 0
vn 0 -1 0
vn 0 -1 0
vn 0 -1 0
vn 0.9384766 0.3457031 0
vn 0.9384766 0.3457031 0
vn 0.9384766 0.3457031 0
vn 0.9384766 0.3457031 0
vn 0 1 0
vn 0 1 0
vn 0 1 0
vn 0 1 0
vn 0 1 0
vn 0 1 0
vn 0 1 0
vn 0 1 0
vn 0 0.3457031 0.9384766
vn 0 0.3457031 0.9384766
vn 0 0.3457031 0.9384766
vn 0 0.3457031 0.9384766
vn 0 0.3457031 -0.9384766
vn 0 0.3457031 -0.9384766
vn 0 0.3457031 -0.9384766
vn 0 0.3457031 -0.9384766
vn 0.9384766 0.3457031 0
vn 0.9384766 0.3457031 0
vn 0.9384766 0.3457031 0
vn 0.9384766 0.3457031 0
g d007v001_m_0
f 3/3/3 2/2/2 1/1/1
f 4/4/4 3/3/3 1/1/1
f 7/7/7 6/6/6 5/5/5
f 6/6/6 8/8/8 5/5/5
f 8/8/8 9/9/9 5/5/5
f 9/9/9 10/10/10 5/5/5
f 13/13/13 12/12/12 11/11/11
f 12/12/12 14/14/14 11/11/11
f 15/15/15 14/14/14 12/12/12
f 14/14/14 15/15/15 16/16/16
f 17/17/17 15/15/15 12/12/12
f 12/12/12 18/18/18 17/17/17
f 21/21/21 20/20/20 19/19/19
f 22/22/22 21/21/21 19/19/19
f 25/25/25 24/24/24 23/23/23
f 23/23/23 24/24/24 26/26/26
f 24/24/24 27/27/27 26/26/26
f 26/26/26 27/27/27 28/28/28
f 29/29/29 27/27/27 24/24/24
f 30/30/30 29/29/29 24/24/24
f 33/33/33 32/32/32 31/31/31
f 34/34/34 33/33/33 31/31/31
f 37/37/37 36/36/36 35/35/35
f 38/38/38 37/37/37 35/35/35
f 39/39/39 38/38/38 35/35/35
f 40/40/40 39/39/39 35/35/35
f 43/43/43 42/42/42 41/41/41
f 44/44/44 43/43/43 41/41/41
f 47/47/47 46/46/46 45/45/45
f 48/48/48 47/47/47 45/45/45
f 51/51/51 50/50/50 49/49/49
f 52/52/52 51/51/51 49/49/49
f 55/55/55 54/54/54 53/53/53
f 56/56/56 55/55/55 53/53/53
f 56/56/56 57/57/57 55/55/55
f 57/57/57 56/56/56 58/58/58
f 57/57/57 59/59/59 55/55/55
f 60/60/60 55/55/55 59/59/59
f 63/63/63 62/62/62 61/61/61
f 64/64/64 63/63/63 61/61/61
f 67/67/67 66/66/66 65/65/65
f 67/67/67 65/65/65 68/68/68
f 69/69/69 67/67/67 68/68/68
f 69/69/69 68/68/68 70/70/70
f 69/69/69 71/71/71 67/67/67
f 71/71/71 72/72/72 67/67/67
f 75/75/75 74/74/74 73/73/73
f 76/76/76 75/75/75 73/73/73
f 79/79/79 78/78/78 77/77/77
f 80/80/80 79/79/79 77/77/77
f 83/83/83 82/82/82 81/81/81
f 84/84/84 83/83/83 81/81/81
