#
# OBJECT NAME
#
o model_2000
mtllib 2000.mtl

#
# VERTEX BUFFER 000
#
v 0.00364024 -0.0122731 -0.163551
v 0.00365475 1.24147 -0.153866
v -0.0826609 1.24774 -0.279665
v -0.0714359 -0.0112503 -0.276769
v 0.0787164 -0.0263505 -0.242754
v 0.0889007 1.22975 -0.241463
v 0.00364024 -0.0290177 -0.355972
v 0.00367611 1.24734 -0.370489
v 0.0889007 1.22975 -0.241463
v 0.0787164 -0.0263505 -0.242754
v -0.0714359 -0.0112503 -0.276769
v -0.0826609 1.24774 -0.279665
v 0.0787164 -0.0263505 -0.242754
v 0.00364024 -0.0122731 -0.163551
v 0.00364024 -0.0290177 -0.355972
v -0.0714359 -0.0112503 -0.276769
v 0.00364024 -0.0290177 -0.355972
v 0.00364024 -0.0122731 -0.163551
v 0.00365475 1.24147 -0.153866
v 0.0889007 1.22975 -0.241463
v 0.00367611 1.24734 -0.370489
v 0.00365475 1.24147 -0.153866
v 0.00367611 1.24734 -0.370489
v -0.0826609 1.24774 -0.279665
v 0.0713183 0.200324 -0.252379
v 0.111783 0.229268 -0.247559
v 0.0122207 0.23771 -0.36657
v 0.0083046 0.206302 -0.332872
v 0.0122207 0.23771 -0.36657
v -0.105978 0.236788 -0.268867
v -0.06652 0.205648 -0.265848
v 0.0083046 0.206302 -0.332872
v -0.00641557 0.228346 -0.142331
v -0.00350615 0.199671 -0.177831
v -0.00641557 0.228346 -0.142331
v -0.00350615 0.199671 -0.177831
v 0.134188 0.199954 -0.24629
v 0.0136132 0.210487 -0.387435
v 0.0136132 0.210487 -0.387435
v -0.129539 0.209337 -0.272086
v -0.0089651 0.198804 -0.123416
v -0.0089651 0.198804 -0.123416
v 0.0115597 0.177759 -0.371878
v 0.114827 0.169077 -0.248962
v 0.0713183 0.200324 -0.252379
v 0.0083046 0.206302 -0.332872
v -0.111035 0.176811 -0.271066
v 0.0115597 0.177759 -0.371878
v 0.0083046 0.206302 -0.332872
v -0.06652 0.205648 -0.265848
v -0.00776783 0.168129 -0.140625
v -0.00350615 0.199671 -0.177831
v -0.00776783 0.168129 -0.140625
v -0.00350615 0.199671 -0.177831
v 0.00241172 0.136819 -0.191152
v 0.00513274 0.164449 -0.140366
v 0.114052 0.16345 -0.247443
v 0.0622504 0.136668 -0.251507
v 0.114052 0.16345 -0.247443
v 0.000876615 0.17932 -0.372505
v -0.000235008 0.147013 -0.332313
v 0.0622504 0.136668 -0.251507
v -0.112278 0.180318 -0.279929
v -0.0713558 0.147166 -0.27944
v -0.112278 0.180318 -0.279929
v -0.0713558 0.147166 -0.27944
v 0.00383718 0.134372 -0.117897
v 0.133236 0.133397 -0.237366
v 0.133236 0.133397 -0.237366
v -0.00129583 0.152764 -0.397764
v -0.13493 0.153739 -0.292796
v -0.13493 0.153739 -0.292796
v 0.0622504 0.136668 -0.251507
v 0.113904 0.103191 -0.248076
v 0.00138177 0.104282 -0.13881
v 0.00241172 0.136819 -0.191152
v -0.0030377 0.119616 -0.379366
v 0.113904 0.103191 -0.248076
v 0.0622504 0.136668 -0.251507
v -0.000235008 0.147013 -0.332313
v -0.119795 0.120707 -0.284602
v -0.0713558 0.147166 -0.27944
v -0.119795 0.120707 -0.284602
v -0.0713558 0.147166 -0.27944

vn -0.169312 -0.00880432 0.985352
vn -0.272461 -0.00862885 0.961914
vn -0.999512 -0.00824738 -0.014122
vn -0.999023 -0.00832367 -0.0409241
vn 0.999023 -0.00778198 -0.0424805
vn 0.999512 -0.00780487 -0.00751877
vn 0.275635 -0.0109711 -0.960938
vn 0.168823 -0.0112534 -0.985352
vn 0.999512 -0.00780487 -0.00751877
vn 0.999023 -0.00778198 -0.0424805
vn -0.999023 -0.00832367 -0.0409241
vn -0.999512 -0.00824738 -0.014122
vn -0.0949097 -0.991699 0.0862427
vn -0.0949097 -0.991699 0.0862427
vn -0.0949097 -0.991699 0.0862427
vn -0.142822 -0.98584 0.0857544
vn -0.142822 -0.98584 0.0857544
vn -0.142822 -0.98584 0.0857544
vn 0.163086 0.98584 0.0267029
vn 0.163086 0.98584 0.0267029
vn 0.163086 0.98584 0.0267029
vn 0.0330811 0.999023 0.0270386
vn 0.0330811 0.999023 0.0270386
vn 0.0330811 0.999023 0.0270386
vn -0.995117 -0.0633545 -0.0703125
vn 0.487061 0.870117 0.072876
vn 0.0707397 0.905273 -0.417969
vn -0.0971069 -0.109863 0.98877
vn 0.0707397 0.905273 -0.417969
vn -0.437744 0.898926 0.000459671
vn 0.986328 -0.015419 -0.16333
vn -0.0971069 -0.109863 0.98877
vn -0.0141144 0.867188 0.496826
vn -0.633789 0.0447388 -0.771973
vn -0.0141144 0.867188 0.496826
vn -0.633789 0.0447388 -0.771973
vn 0.986328 -0.015419 -0.16333
vn 0.772949 0.00803375 -0.634277
vn 0.772949 0.00803375 -0.634277
vn -0.935547 0.034729 -0.351318
vn -0.772949 -0.00803375 0.634277
vn -0.772949 -0.00803375 0.634277
vn 0.0276489 -0.817383 -0.574707
vn 0.523438 -0.851563 -0.00173855
vn -0.995117 -0.0633545 -0.0703125
vn -0.0971069 -0.109863 0.98877
vn -0.563965 -0.820801 -0.0880737
vn 0.0276489 -0.817383 -0.574707
vn -0.0971069 -0.109863 0.98877
vn 0.986328 -0.015419 -0.16333
vn -0.0733032 -0.861816 0.500977
vn -0.633789 0.0447388 -0.771973
vn -0.0733032 -0.861816 0.500977
vn -0.633789 0.0447388 -0.771973
vn -0.0196838 0.0541992 -0.998047
vn -0.0581055 0.859863 0.506348
vn 0.520508 0.852051 -0.0447693
vn -0.999023 -0.0229492 0.0218658
vn 0.520508 0.852051 -0.0447693
vn 0.17334 0.902344 -0.394287
vn 0.0196838 -0.0541992 0.998047
vn -0.999023 -0.0229492 0.0218658
vn -0.419189 0.897949 0.13147
vn 0.874023 -0.0760498 0.479248
vn -0.419189 0.897949 0.13147
vn 0.874023 -0.0760498 0.479248
vn 0.0196838 -0.0541992 0.998047
vn 0.874023 -0.0760498 0.479248
vn 0.874023 -0.0760498 0.479248
vn -0.0196838 0.0541992 -0.998047
vn -0.874023 0.0760498 -0.479248
vn -0.874023 0.0760498 -0.479248
vn -0.999023 -0.0229492 0.0218658
vn 0.488281 -0.858887 -0.152222
vn -0.183105 -0.853027 0.488037
vn -0.0196838 0.0541992 -0.998047
vn 0.0883179 -0.811035 -0.577637
vn 0.488281 -0.858887 -0.152222
vn -0.999023 -0.0229492 0.0218658
vn 0.0196838 -0.0541992 0.998047
vn -0.603027 -0.796875 0.02948
vn 0.874023 -0.0760498 0.479248
vn -0.603027 -0.796875 0.02948
vn 0.874023 -0.0760498 0.479248

vt 0.369735 0.00431401
vt 0.369735 0.994257
vt 0.309648 0.994257
vt 0.309648 0.00431401
vt 0.429822 0.00431401
vt 0.429822 0.994257
vt 0.129388 0.00431395
vt 0.129388 0.994257
vt 0.0392577 0.994257
vt 0.0392577 0.00431395
vt 0.23454 0.00431395
vt 0.23454 0.994257
vt 0.546521 0.605026
vt 0.633286 0.510863
vt 0.633286 0.73963
vt 0.711909 0.625247
vt 0.633286 0.73963
vt 0.633286 0.510863
vt 0.633286 0.987511
vt 0.555186 0.873889
vt 0.633286 0.760266
vt 0.633286 0.987511
vt 0.633286 0.760266
vt 0.711386 0.873889
vt 0.995816 0.639571
vt 0.96631 0.639571
vt 0.96631 0.411048
vt 0.995816 0.411048
vt 0.96631 0.875927
vt 0.96631 0.639558
vt 0.995816 0.639558
vt 0.995816 0.875927
vt 0.96631 0.411048
vt 0.995816 0.411048
vt 0.96631 0.875945
vt 0.995816 0.875945
vt 0.936649 0.639571
vt 0.936649 0.411048
vt 0.936649 0.875927
vt 0.936649 0.639558
vt 0.936649 0.411048
vt 0.936649 0.875945
vt 0.918942 0.411048
vt 0.918942 0.639571
vt 0.889436 0.639571
vt 0.889436 0.411048
vt 0.918942 0.639558
vt 0.918942 0.875927
vt 0.889436 0.875927
vt 0.889436 0.639558
vt 0.918942 0.411048
vt 0.889436 0.411048
vt 0.918942 0.875945
vt 0.889436 0.875945
vt 0.995816 0.67898
vt 0.96631 0.67898
vt 0.96631 0.391873
vt 0.995816 0.391873
vt 0.96631 0.993833
vt 0.96631 0.678966
vt 0.995816 0.678966
vt 0.995816 0.993833
vt 0.96631 0.391873
vt 0.995816 0.391873
vt 0.96631 0.993862
vt 0.995816 0.993862
vt 0.936648 0.67898
vt 0.936649 0.391873
vt 0.936648 0.993833
vt 0.936649 0.678966
vt 0.936649 0.391873
vt 0.936649 0.993862
vt 0.889436 0.391873
vt 0.918942 0.391873
vt 0.918942 0.67898
vt 0.889436 0.67898
vt 0.918942 0.678966
vt 0.918942 0.993833
vt 0.889436 0.993833
vt 0.889436 0.678966
vt 0.918942 0.391873
vt 0.889436 0.391873
vt 0.918942 0.993862
vt 0.889436 0.993862


#
# MESH 000
#
g surface_000
usemtl surface_000
f 22/22/22 23/23/23 24/24/24
f 19/19/19 20/20/20 21/21/21
f 16/16/16 17/17/17 18/18/18
f 13/13/13 14/14/14 15/15/15
f 11/11/11 12/12/12 8/8/8
f 11/11/11 8/8/8 7/7/7
f 7/7/7 8/8/8 9/9/9
f 7/7/7 9/9/9 10/10/10
f 5/5/5 6/6/6 2/2/2
f 5/5/5 2/2/2 1/1/1
f 1/1/1 2/2/2 3/3/3
f 1/1/1 3/3/3 4/4/4
f 45/45/45 53/53/53 54/54/54
f 45/45/45 44/44/44 53/53/53
f 42/42/42 53/53/53 44/44/44
f 42/42/42 44/44/44 37/37/37
f 42/42/42 37/37/37 26/26/26
f 42/42/42 26/26/26 35/35/35
f 35/35/35 26/26/26 25/25/25
f 35/35/35 25/25/25 36/36/36
f 43/43/43 44/44/44 45/45/45
f 38/38/38 44/44/44 43/43/43
f 38/38/38 37/37/37 44/44/44
f 27/27/27 37/37/37 38/38/38
f 27/27/27 26/26/26 37/37/37
f 25/25/25 26/26/26 27/27/27
f 25/25/25 27/27/27 28/28/28
f 43/43/43 45/45/45 46/46/46
f 29/29/29 31/31/31 32/32/32
f 29/29/29 30/30/30 31/31/31
f 34/34/34 31/31/31 30/30/30
f 34/34/34 30/30/30 33/33/33
f 33/33/33 30/30/30 40/40/40
f 33/33/33 40/40/40 41/41/41
f 41/41/41 40/40/40 47/47/47
f 41/41/41 47/47/47 51/51/51
f 30/30/30 29/29/29 39/39/39
f 30/30/30 39/39/39 40/40/40
f 40/40/40 39/39/39 48/48/48
f 40/40/40 48/48/48 47/47/47
f 47/47/47 48/48/48 49/49/49
f 47/47/47 49/49/49 50/50/50
f 52/52/52 47/47/47 50/50/50
f 52/52/52 51/51/51 47/47/47
f 81/81/81 80/80/80 82/82/82
f 81/81/81 77/77/77 80/80/80
f 77/77/77 79/79/79 80/80/80
f 77/77/77 78/78/78 79/79/79
f 70/70/70 78/78/78 77/77/77
f 70/70/70 69/69/69 78/78/78
f 60/60/60 69/69/69 70/70/70
f 60/60/60 59/59/59 69/69/69
f 71/71/71 77/77/77 81/81/81
f 71/71/71 70/70/70 77/77/77
f 63/63/63 70/70/70 71/71/71
f 63/63/63 60/60/60 70/70/70
f 60/60/60 63/63/63 64/64/64
f 60/60/60 64/64/64 61/61/61
f 59/59/59 60/60/60 61/61/61
f 59/59/59 61/61/61 62/62/62
f 65/65/65 55/55/55 66/66/66
f 65/65/65 56/56/56 55/55/55
f 55/55/55 56/56/56 57/57/57
f 55/55/55 57/57/57 58/58/58
f 56/56/56 65/65/65 72/72/72
f 56/56/56 72/72/72 67/67/67
f 67/67/67 57/57/57 56/56/56
f 67/67/67 68/68/68 57/57/57
f 75/75/75 68/68/68 67/67/67
f 75/75/75 74/74/74 68/68/68
f 73/73/73 74/74/74 75/75/75
f 73/73/73 75/75/75 76/76/76
f 75/75/75 84/84/84 76/76/76
f 67/67/67 72/72/72 83/83/83
f 67/67/67 83/83/83 75/75/75
f 75/75/75 83/83/83 84/84/84

