#
# OBJECT NAME
#
o model_2577
mtllib 2577.mtl

#
# VERTEX BUFFER 000
#
v -0.500114 0.752228 -0.500301
v -0.500114 0.752228 0.50047
v 0.500114 0.752228 0.50047
v 0.500114 0.752228 -0.500301
v -0.500114 0.638429 -0.500301
v -0.500114 0.638429 0.50047
v -0.500114 0.752228 0.50047
v -0.500114 0.752228 -0.500301
v 0.500114 0.638429 0.50047
v 0.500114 0.638429 -0.500301
v 0.500114 0.752228 -0.500301
v 0.500114 0.752228 0.50047
v -0.500114 0.752228 0.50047
v -0.500114 0.638429 0.50047
v 0.500114 0.638429 0.50047
v 0.500114 0.752228 0.50047
v 0.500114 0 -0.500301
v 0.500114 0 0.50047
v -0.500114 0 0.50047
v -0.500114 0 -0.500301
v 0.500114 0.112522 -0.500301
v 0.500114 0.112522 0.50047
v 0.500114 0 0.50047
v 0.500114 0 -0.500301
v -0.500114 0.112522 0.50047
v -0.500114 0.112522 -0.500301
v -0.500114 0 -0.500301
v -0.500114 0 0.50047
v 0.500114 0 0.50047
v 0.500114 0.112522 0.50047
v -0.500114 0.112522 0.50047
v -0.500114 0 0.50047
v -0.38711 0.638429 0.50047
v -0.500114 0.638429 0.50047
v -0.500114 0.112522 0.50047
v -0.38711 0.112522 0.50047
v -0.500114 0.638429 0.50047
v -0.500114 0.638429 -0.500301
v -0.500114 0.112522 -0.500301
v -0.500114 0.112522 0.50047
v 0.38711 0.112522 0.50047
v 0.500114 0.112522 0.50047
v 0.500114 0.638429 0.50047
v 0.38711 0.638429 0.50047
v 0.500114 0.112522 0.50047
v 0.500114 0.112522 -0.500301
v 0.500114 0.638429 -0.500301
v 0.500114 0.638429 0.50047
v 0.500114 0 -0.500301
v -0.500114 0 -0.500301
v -0.500114 0.752228 -0.500301
v 0.500114 0.752228 -0.500301

vn 0 1 0
vn 0 1 0
vn 0 1 0
vn 0 1 0
vn -1 0 0
vn -1 0 0
vn -1 0 0
vn -1 0 0
vn 1 0 0
vn 1 0 0
vn 1 0 0
vn 1 0 0
vn 0 0 1
vn 0 0 1
vn 0 0 1
vn 0 0 1
vn 0 -1 0
vn 0 -1 0
vn 0 -1 0
vn 0 -1 0
vn 1 0 0
vn 1 0 0
vn 1 0 0
vn 1 0 0
vn -1 0 0
vn -1 0 0
vn -1 0 0
vn -1 0 0
vn 0 0 1
vn 0 0 1
vn 0 0 1
vn 0 0 1
vn 0 0 1
vn 0 0 1
vn 0 0 1
vn 0 0 1
vn -1 0 0
vn -1 0 0
vn -1 0 0
vn -1 0 0
vn 0 0 1
vn 0 0 1
vn 0 0 1
vn 0 0 1
vn 1 0 0
vn 1 0 0
vn 1 0 0
vn 1 0 0
vn 0 0 -1
vn 0 0 -1
vn 0 0 -1
vn 0 0 -1

vt 0.243591 0.0157667
vt 0.243591 0.260021
vt 0.00981995 0.260021
vt 0.00981995 0.0157667
vt 0.993893 0.0157667
vt 0.993893 0.260021
vt 0.962273 0.260021
vt 0.962273 0.0157667
vt 0.922754 0.0157667
vt 0.922754 0.260021
vt 0.951873 0.260021
vt 0.951873 0.0157667
vt 0.243591 0.388117
vt 0.243591 0.41731
vt 0.00981995 0.41731
vt 0.00981995 0.388117
vt 0.913012 0.0157667
vt 0.913012 0.260021
vt 0.68098 0.260021
vt 0.68098 0.0157667
vt 0.993811 0.285864
vt 0.993811 0.530118
vt 0.966946 0.530118
vt 0.966946 0.285864
vt 0.926153 0.285864
vt 0.926153 0.530118
vt 0.955056 0.530118
vt 0.955056 0.285864
vt 0.243591 0.311269
vt 0.243591 0.340462
vt 0.00981995 0.340462
vt 0.00981995 0.311269
vt 0.952566 0.988557
vt 0.914514 0.988557
vt 0.914514 0.781264
vt 0.952566 0.781264
vt 0.902108 0.988557
vt 0.629653 0.988557
vt 0.629653 0.781264
vt 0.902081 0.781264
vt 0.952566 0.764143
vt 0.914541 0.764143
vt 0.914541 0.556849
vt 0.952566 0.556849
vt 0.902135 0.764143
vt 0.629653 0.764143
vt 0.629653 0.556849
vt 0.902108 0.556849
vt 0.682421 0.280252
vt 0.856263 0.280252
vt 0.856236 0.468296
vt 0.682449 0.468296


#
# MESH 000
#
g surface_000
usemtl surface_000
f 49/49/49 51/51/51 52/52/52
f 49/49/49 50/50/50 51/51/51
f 45/45/45 47/47/47 48/48/48
f 45/45/45 46/46/46 47/47/47
f 41/41/41 43/43/43 44/44/44
f 41/41/41 42/42/42 43/43/43
f 37/37/37 39/39/39 40/40/40
f 37/37/37 38/38/38 39/39/39
f 33/33/33 35/35/35 36/36/36
f 33/33/33 34/34/34 35/35/35
f 29/29/29 31/31/31 32/32/32
f 29/29/29 30/30/30 31/31/31
f 25/25/25 27/27/27 28/28/28
f 25/25/25 26/26/26 27/27/27
f 21/21/21 23/23/23 24/24/24
f 21/21/21 22/22/22 23/23/23
f 17/17/17 19/19/19 20/20/20
f 17/17/17 18/18/18 19/19/19
f 13/13/13 15/15/15 16/16/16
f 13/13/13 14/14/14 15/15/15
f 9/9/9 11/11/11 12/12/12
f 9/9/9 10/10/10 11/11/11
f 5/5/5 7/7/7 8/8/8
f 5/5/5 6/6/6 7/7/7
f 1/1/1 3/3/3 4/4/4
f 1/1/1 2/2/2 3/3/3

