#
# OBJECT NAME
#
o model_2582
mtllib 2582.mtl

#
# VERTEX BUFFER 000
#
v -0.38711 0.112522 0.50047
v 0.387109 0.112522 0.50047
v 0.387109 0.638429 0.50047
v -0.38711 0.638429 0.50047
v -0.32711 0.172478 0.44047
v 0.32711 0.172478 0.44047
v 0.32711 0.172478 -0.308218
v -0.32711 0.172478 -0.308218
v -0.38711 0.638429 -0.368218
v 0.387109 0.638429 -0.368218
v 0.387109 0.112522 -0.368218
v -0.38711 0.112522 -0.368218
v -0.38711 0.112522 -0.368218
v 0.387109 0.112522 -0.368218
v 0.387109 0.112522 0.50047
v -0.38711 0.112522 0.50047
v 0.387109 0.112522 0.50047
v 0.387109 0.112522 -0.368218
v 0.387109 0.638429 -0.368218
v 0.387109 0.638429 0.50047
v -0.38711 0.112522 -0.368218
v -0.38711 0.112522 0.50047
v -0.38711 0.638429 0.50047
v -0.38711 0.638429 -0.368218
v -0.38711 0.638429 0.50047
v 0.387109 0.638429 0.50047
v 0.32711 0.638429 0.44047
v -0.32711 0.638429 0.44047
v 0.387109 0.638429 0.50047
v 0.387109 0.638429 -0.368218
v 0.32711 0.638429 -0.308218
v 0.32711 0.638429 0.44047
v 0.387109 0.638429 -0.368218
v -0.38711 0.638429 -0.368218
v -0.32711 0.638429 -0.308218
v 0.32711 0.638429 -0.308218
v -0.38711 0.638429 -0.368218
v -0.38711 0.638429 0.50047
v -0.32711 0.638429 0.44047
v -0.32711 0.638429 -0.308218
v -0.32711 0.638429 0.44047
v 0.32711 0.638429 0.44047
v 0.32711 0.172478 0.44047
v -0.32711 0.172478 0.44047
v 0.32711 0.638429 0.44047
v 0.32711 0.638429 -0.308218
v 0.32711 0.172478 -0.308218
v 0.32711 0.172478 0.44047
v 0.32711 0.638429 -0.308218
v -0.32711 0.638429 -0.308218
v -0.32711 0.172478 -0.308218
v 0.32711 0.172478 -0.308218
v -0.32711 0.638429 -0.308218
v -0.32711 0.638429 0.44047
v -0.32711 0.172478 0.44047
v -0.32711 0.172478 -0.308218
v 0.0901426 0.429953 0.538938
v 0.0720993 0.419536 0.571142
v 0.0832533 0.377909 0.571142
v 0.104088 0.377909 0.538938
v 0.0520439 0.468052 0.538938
v 0.0416266 0.450009 0.571142
v 0 0.481997 0.538938
v 0 0.461162 0.571142
v -0.052044 0.468052 0.538938
v -0.0416267 0.450009 0.571142
v -0.0901427 0.429953 0.538938
v -0.0720994 0.419536 0.571142
v -0.104088 0.377909 0.538938
v -0.0832534 0.377909 0.571142
v -0.0901427 0.325865 0.538938
v -0.0720994 0.336283 0.571142
v -0.052044 0.287767 0.538938
v -0.0416267 0.30581 0.571142
v 0 0.273821 0.538938
v 0 0.294656 0.571142
v 0 0.294656 0.571142
v 0 0.273821 0.538938
v 0.0520439 0.287767 0.538938
v 0.0416266 0.30581 0.571142
v 0.0901426 0.325865 0.538938
v 0.0720993 0.336283 0.571142
v 0.0838966 0.426347 0.50047
v 0.0484378 0.461806 0.50047
v 0 0.474785 0.50047
v -0.0484379 0.461806 0.50047
v -0.0838967 0.426347 0.50047
v -0.0968756 0.377909 0.50047
v -0.0838967 0.329471 0.50047
v -0.0484379 0.294013 0.50047
v 0 0.281034 0.50047
v 0 0.281034 0.50047
v 0.0484378 0.294013 0.50047
v 0.0838966 0.329471 0.50047
v 0.0968756 0.377909 0.50047
v 0.0720993 0.419536 0.571142
v 0.0416266 0.450009 0.571142
v 0 0.377909 0.571142
v 0 0.461162 0.571142
v -0.0416267 0.450009 0.571142
v -0.0720994 0.419536 0.571142
v -0.0832534 0.377909 0.571142
v -0.0720994 0.336283 0.571142
v -0.0416267 0.30581 0.571142
v 0 0.294656 0.571142
v 0.0416266 0.30581 0.571142
v 0.0720993 0.336283 0.571142
v 0.0832533 0.377909 0.571142
v 0.500114 0.638429 0.50047
v -0.500114 0.638429 0.50047
v -0.500114 0.638429 -0.500301
v 0.500114 0.638429 -0.500301
v 0.500114 0.733261 -0.500301
v -0.500114 0.733261 -0.500301
v -0.481147 0.752228 -0.500301
v 0.481147 0.752228 -0.500301
v 0.481147 0.752228 0.50047
v 0.481147 0.752228 -0.500301
v -0.481147 0.752228 -0.500301
v -0.481147 0.752228 0.50047
v -0.500114 0.733261 0.50047
v -0.500114 0.733261 -0.500301
v -0.500114 0.638429 -0.500301
v -0.500114 0.638429 0.50047
v 0.500114 0.733261 -0.500301
v 0.500114 0.733261 0.50047
v 0.500114 0.638429 0.50047
v 0.500114 0.638429 -0.500301
v -0.494559 0.746673 0.50047
v -0.494559 0.746673 -0.500301
v -0.494559 0.746673 0.50047
v -0.494559 0.746673 -0.500301
v -0.494559 0.746673 0.50047
v -0.500114 0.733261 0.50047
v -0.481147 0.752228 0.50047
v -0.494559 0.746673 -0.500301
v 0.500114 0.733261 0.50047
v -0.500114 0.638429 0.50047
v 0.500114 0.638429 0.50047
v 0.494559 0.746673 0.50047
v 0.494559 0.746673 -0.500301
v 0.494559 0.746673 0.50047
v 0.494559 0.746673 -0.500301
v 0.494559 0.746673 0.50047
v 0.481147 0.752228 0.50047
v 0.494559 0.746673 -0.500301
v 0.500114 0.638429 -0.500301
v -0.500114 0.638429 -0.500301
v -0.500114 0.112522 0.50047
v 0.500114 0.112522 0.50047
v 0.500114 0.112522 -0.500301
v -0.500114 0.112522 -0.500301
v -0.500114 0.0189676 -0.500301
v 0.500114 0.0189676 -0.500301
v 0.481147 0 -0.500301
v -0.481147 0 -0.500301
v -0.481147 0 0.50047
v -0.481147 0 -0.500301
v 0.481147 0 -0.500301
v 0.481147 0 0.50047
v 0.500114 0.0189676 0.50047
v 0.500114 0.0189676 -0.500301
v 0.500114 0.112522 -0.500301
v 0.500114 0.112522 0.50047
v -0.500114 0.0189676 -0.500301
v -0.500114 0.0189676 0.50047
v -0.500114 0.112522 0.50047
v -0.500114 0.112522 -0.500301
v 0.494559 0.00555548 0.50047
v 0.494559 0.00555548 -0.500301
v 0.494559 0.00555548 0.50047
v 0.494559 0.00555548 -0.500301
v 0.494559 0.00555548 0.50047
v 0.500114 0.0189676 0.50047
v 0.481147 0 0.50047
v 0.494559 0.00555548 -0.500301
v -0.500114 0.0189676 0.50047
v 0.500114 0.112522 0.50047
v -0.500114 0.112522 0.50047
v -0.494559 0.00555548 0.50047
v -0.494559 0.00555548 -0.500301
v -0.494559 0.00555548 0.50047
v -0.494559 0.00555548 -0.500301
v -0.494559 0.00555548 0.50047
v -0.481147 0 0.50047
v -0.494559 0.00555548 -0.500301
v -0.500114 0.112522 -0.500301
v 0.500114 0.112522 -0.500301
v -0.38711 0.638429 0.50047
v -0.500114 0.638429 0.50047
v -0.500114 0.112522 0.50047
v -0.38711 0.112522 0.50047
v -0.38711 0.112522 -0.500301
v -0.500114 0.112522 -0.500301
v -0.500114 0.638429 -0.500301
v -0.38711 0.638429 -0.500301
v -0.500114 0.638429 0.50047
v -0.500114 0.638429 -0.500301
v -0.500114 0.112522 -0.500301
v -0.500114 0.112522 0.50047
v -0.38711 0.638429 -0.500301
v -0.38711 0.638429 0.50047
v -0.38711 0.112522 0.50047
v -0.38711 0.112522 -0.500301
v 0.38711 0.112522 -0.429068
v 0.38711 0.638429 -0.429068
v -0.38711 0.638429 -0.429068
v -0.38711 0.112522 -0.429068
v 0.38711 0.112522 0.50047
v 0.500114 0.112522 0.50047
v 0.500114 0.638429 0.50047
v 0.38711 0.638429 0.50047
v 0.38711 0.638429 -0.500301
v 0.500114 0.638429 -0.500301
v 0.500114 0.112522 -0.500301
v 0.38711 0.112522 -0.500301
v 0.500114 0.112522 0.50047
v 0.500114 0.112522 -0.500301
v 0.500114 0.638429 -0.500301
v 0.500114 0.638429 0.50047
v 0.38711 0.112522 -0.500301
v 0.38711 0.112522 0.50047
v 0.38711 0.638429 0.50047
v 0.38711 0.638429 -0.500301
v 0.38711 0.112522 -0.500301
v -0.38711 0.112522 -0.500301
v -0.38711 0.638429 -0.500301
v 0.38711 0.638429 -0.500301

vn 0 0 1
vn 0 0 1
vn 0 0 1
vn 0 0 1
vn 0 1 0
vn 0 1 0
vn 0 1 0
vn 0 1 0
vn 0 0 -1
vn 0 0 -1
vn 0 0 -1
vn 0 0 -1
vn 0 -1 0
vn 0 -1 0
vn 0 -1 0
vn 0 -1 0
vn 1 0 0
vn 1 0 0
vn 1 0 0
vn 1 0 0
vn -1 0 0
vn -1 0 0
vn -1 0 0
vn -1 0 0
vn 0 1 -2.38419e-007
vn 0 1 -2.38419e-007
vn 0 1 -2.38419e-007
vn 0 1 -2.38419e-007
vn 0 1 -2.38419e-007
vn 0 1 3.57628e-007
vn 0 1 3.57628e-007
vn 0 1 -2.38419e-007
vn 0 1 3.57628e-007
vn 0 1 3.57628e-007
vn 0 1 3.57628e-007
vn 0 1 3.57628e-007
vn 0 1 3.57628e-007
vn 0 1 -2.38419e-007
vn 0 1 -2.38419e-007
vn 0 1 3.57628e-007
vn 0 0 -1
vn 0 0 -1
vn 0 0 -1
vn 0 0 -1
vn -1 0 0
vn -1 0 0
vn -1 0 0
vn -1 0 0
vn 0 0 1
vn 0 0 1
vn 0 0 1
vn 0 0 1
vn 1 0 0
vn 1 0 0
vn 1 0 0
vn 1 0 0
vn 0.854004 0.493164 0.163086
vn 0.474609 0.273926 0.835938
vn 0.547852 -1.19209e-007 0.835938
vn 0.986328 0 0.163086
vn 0.493164 0.854004 0.163086
vn 0.273926 0.474609 0.835938
vn 1.78814e-007 0.986328 0.163086
vn 2.38419e-007 0.547852 0.835938
vn -0.493164 0.854004 0.163086
vn -0.273926 0.474609 0.835938
vn -0.854004 0.493164 0.163086
vn -0.474609 0.273926 0.835938
vn -0.986328 -1.19209e-007 0.163086
vn -0.547852 -1.78814e-007 0.835938
vn -0.854004 -0.493164 0.163086
vn -0.474609 -0.273926 0.835938
vn -0.493164 -0.854004 0.163086
vn -0.273926 -0.474609 0.835938
vn 1.19209e-007 -0.986328 0.163086
vn 0 -0.547852 0.835938
vn 0 -0.547852 0.835938
vn 1.19209e-007 -0.986328 0.163086
vn 0.493164 -0.854004 0.163086
vn 0.273926 -0.474609 0.835938
vn 0.854004 -0.493164 0.163086
vn 0.474609 -0.273926 0.835938
vn 0.851074 0.491211 -0.184204
vn 0.491211 0.851074 -0.184204
vn 0 0.982422 -0.184204
vn -0.491211 0.851074 -0.184204
vn -0.851074 0.491211 -0.184204
vn -0.982422 0 -0.184204
vn -0.851074 -0.491211 -0.184204
vn -0.491211 -0.851074 -0.184204
vn 1.78814e-007 -0.982422 -0.184204
vn 1.78814e-007 -0.982422 -0.184204
vn 0.491211 -0.851074 -0.184204
vn 0.851074 -0.491211 -0.184204
vn 0.982422 0 -0.184204
vn 0.474609 0.273926 0.835938
vn 0.273926 0.474609 0.835938
vn 0 0 1
vn 2.38419e-007 0.547852 0.835938
vn -0.273926 0.474609 0.835938
vn -0.474609 0.273926 0.835938
vn -0.547852 -1.78814e-007 0.835938
vn -0.474609 -0.273926 0.835938
vn -0.273926 -0.474609 0.835938
vn 0 -0.547852 0.835938
vn 0.273926 -0.474609 0.835938
vn 0.474609 -0.273926 0.835938
vn 0.547852 -1.19209e-007 0.835938
vn 0 -1 0
vn 0 -1 0
vn 0 -1 0
vn 0 -1 0
vn 0 0 -1
vn 0 0 -1
vn 0 0 -1
vn 0 0 -1
vn 0.00569153 0.999512 0
vn 0.00569153 0.999512 0
vn -0.00569153 0.999512 0
vn -0.00569153 0.999512 0
vn -0.998535 0.051239 0
vn -0.998535 0.051239 0
vn -1 0 0
vn -1 0 0
vn 0.998535 0.051239 0
vn 0.998535 0.051239 0
vn 1 0 0
vn 1 0 0
vn -0.707031 0.707031 0
vn -0.707031 0.707031 0
vn -0.707031 0.707031 0
vn -0.707031 0.707031 0
vn -9.35793e-006 0 1
vn 0 0 1
vn 0 0 1
vn 6.19888e-006 0 -1
vn 0 0 1
vn 0 0 1
vn 0 0 1
vn 0.707031 0.707031 0
vn 0.707031 0.707031 0
vn 0.707031 0.707031 0
vn 0.707031 0.707031 0
vn 1.24574e-005 0 1
vn 0 0 1
vn -6.19888e-006 0 -1
vn 0 0 -1
vn 0 0 -1
vn 0 1 0
vn 0 1 0
vn 0 1 0
vn 0 1 0
vn 0 0 -1
vn 0 0 -1
vn 0 0 -1
vn 0 0 -1
vn -0.00569153 -0.999512 0
vn -0.00569153 -0.999512 0
vn 0.00569153 -0.999512 0
vn 0.00569153 -0.999512 0
vn 0.998535 -0.0518494 0
vn 0.998535 -0.0518494 0
vn 1 0 0
vn 1 0 0
vn -0.998535 -0.0518494 0
vn -0.998535 -0.0518494 0
vn -1 0 0
vn -1 0 0
vn 0.707031 -0.707031 0
vn 0.707031 -0.707031 0
vn 0.707031 -0.707031 0
vn 0.707031 -0.707031 0
vn 0 0 1
vn 0 0 1
vn 0 0 1
vn -6.19888e-006 0 -1
vn 0 0 1
vn 0 0 1
vn 0 0 1
vn -0.707031 -0.707031 0
vn -0.707031 -0.707031 0
vn -0.707031 -0.707031 0
vn -0.707031 -0.707031 0
vn 0 0 1
vn 0 0 1
vn 6.19888e-006 0 -1
vn 0 0 -1
vn 0 0 -1
vn 0 0 1
vn 0 0 1
vn 0 0 1
vn 0 0 1
vn 0 0 -1
vn 0 0 -1
vn 0 0 -1
vn 0 0 -1
vn -1 0 0
vn -1 0 0
vn -1 0 0
vn -1 0 0
vn 1 0 0
vn 1 0 0
vn 1 0 0
vn 1 0 0
vn 0 0 1
vn 0 0 1
vn 0 0 1
vn 0 0 1
vn 0 0 1
vn 0 0 1
vn 0 0 1
vn 0 0 1
vn 0 0 -1
vn 0 0 -1
vn 0 0 -1
vn 0 0 -1
vn 1 0 0
vn 1 0 0
vn 1 0 0
vn 1 0 0
vn -1 0 0
vn -1 0 0
vn -1 0 0
vn -1 0 0
vn 0 0 -1
vn 0 0 -1
vn 0 0 -1
vn 0 0 -1

vt 0.205351 0.987974
vt 0.205351 0.814022
vt 0.378157 0.81405
vt 0.378157 0.987947
vt 0.0169747 0.429222
vt 0.161645 0.429222
vt 0.161645 0.592349
vt 0.0169747 0.592349
vt 0.391915 0.815751
vt 0.565812 0.815751
vt 0.56584 0.988558
vt 0.391888 0.988558
vt 0.0158179 0.604162
vt 0.18977 0.604162
vt 0.18977 0.797581
vt 0.0158179 0.797581
vt 0.205761 0.797581
vt 0.205761 0.604162
vt 0.378567 0.604187
vt 0.378567 0.797556
vt 0.393261 0.797581
vt 0.393261 0.604162
vt 0.566067 0.604187
vt 0.566067 0.797556
vt 0.869538 0.462351
vt 0.869538 0.288467
vt 0.88773 0.307157
vt 0.88773 0.443661
vt 0.967687 0.987479
vt 0.967687 0.794121
vt 0.985879 0.812813
vt 0.985879 0.968789
vt 0.899422 0.460893
vt 0.899422 0.287009
vt 0.917614 0.305699
vt 0.917614 0.442203
vt 0.967298 0.763136
vt 0.967298 0.569777
vt 0.98549 0.588469
vt 0.98549 0.744444
vt 0.342209 0.591166
vt 0.179005 0.591152
vt 0.178954 0.429222
vt 0.342224 0.429222
vt 0.521598 0.590918
vt 0.358503 0.590918
vt 0.35847 0.429222
vt 0.52163 0.429222
vt 0.179005 0.591166
vt 0.342247 0.591152
vt 0.342262 0.429222
vt 0.178953 0.429222
vt 0.521598 0.590918
vt 0.358503 0.590918
vt 0.35847 0.429222
vt 0.52163 0.429222
vt 0.799349 0.512333
vt 0.799351 0.499625
vt 0.828262 0.499626
vt 0.828262 0.512334
vt 0.770437 0.512331
vt 0.770439 0.499624
vt 0.741524 0.512329
vt 0.741526 0.499622
vt 0.712612 0.512326
vt 0.712613 0.49962
vt 0.683699 0.512324
vt 0.6837 0.499618
vt 0.654786 0.512324
vt 0.654786 0.499618
vt 0.625873 0.512324
vt 0.625872 0.499618
vt 0.596961 0.512326
vt 0.596959 0.49962
vt 0.568048 0.512329
vt 0.568045 0.499622
vt 0.914998 0.499622
vt 0.915001 0.512329
vt 0.886088 0.512331
vt 0.886086 0.499624
vt 0.857175 0.512333
vt 0.857174 0.499625
vt 0.799349 0.527511
vt 0.770435 0.527509
vt 0.741522 0.527507
vt 0.71261 0.527505
vt 0.683698 0.527503
vt 0.654786 0.527503
vt 0.625874 0.527503
vt 0.596962 0.527505
vt 0.568049 0.527507
vt 0.915002 0.527507
vt 0.886089 0.527509
vt 0.857176 0.527511
vt 0.828262 0.527512
vt 0.645698 0.473599
vt 0.633462 0.485375
vt 0.616746 0.45751
vt 0.616746 0.489686
vt 0.600031 0.485375
vt 0.587794 0.473599
vt 0.583315 0.457512
vt 0.587794 0.441425
vt 0.600031 0.429648
vt 0.616746 0.425338
vt 0.633462 0.429648
vt 0.645698 0.441425
vt 0.650177 0.457512
vt 0.256964 0.225391
vt 0.256964 0.0157667
vt 0.457404 0.0157667
vt 0.457404 0.22539
vt 0.00982007 0.372706
vt 0.245331 0.372706
vt 0.239392 0.378645
vt 0.0157585 0.378645
vt 0.0160075 0.260021
vt 0.0160075 0.0157667
vt 0.237653 0.0157667
vt 0.237653 0.260021
vt 0.966473 0.260021
vt 0.966473 0.0157667
vt 0.993893 0.0157667
vt 0.993893 0.260021
vt 0.948874 0.260021
vt 0.948874 0.0157667
vt 0.922754 0.0157667
vt 0.922754 0.260021
vt 0.962273 0.260021
vt 0.962273 0.0157667
vt 0.241852 0.260021
vt 0.241852 0.0157667
vt 0.243592 0.388117
vt 0.245331 0.392316
vt 0.239392 0.386377
vt 0.243591 0.376905
vt 0.00982007 0.392316
vt 0.245331 0.41731
vt 0.0098201 0.41731
vt 0.0118084 0.260021
vt 0.0118084 0.0157667
vt 0.953074 0.0157667
vt 0.953074 0.260021
vt 0.0115594 0.388117
vt 0.0157585 0.386377
vt 0.0115593 0.376905
vt 0.00982007 0.347712
vt 0.245331 0.347712
vt 0.467442 0.225391
vt 0.467442 0.0157667
vt 0.667882 0.0157667
vt 0.667882 0.225391
vt 0.00981995 0.294416
vt 0.245331 0.294416
vt 0.239392 0.300354
vt 0.0157584 0.300354
vt 0.685179 0.260021
vt 0.685179 0.0157667
vt 0.908813 0.0157667
vt 0.908813 0.260021
vt 0.971146 0.530118
vt 0.971146 0.285864
vt 0.993811 0.285864
vt 0.993811 0.530118
vt 0.950856 0.530118
vt 0.950856 0.285864
vt 0.926153 0.285864
vt 0.926153 0.530118
vt 0.966946 0.530118
vt 0.966946 0.285864
vt 0.913012 0.260021
vt 0.913012 0.0157667
vt 0.243591 0.311269
vt 0.245331 0.315468
vt 0.239392 0.30953
vt 0.243591 0.298615
vt 0.00981995 0.315468
vt 0.245331 0.340462
vt 0.00981999 0.340462
vt 0.68098 0.260021
vt 0.68098 0.0157667
vt 0.955056 0.285864
vt 0.955056 0.530118
vt 0.0115593 0.311269
vt 0.0157584 0.30953
vt 0.0115593 0.298615
vt 0.00981995 0.269422
vt 0.245331 0.269422
vt 0.952566 0.988557
vt 0.914514 0.988557
vt 0.914514 0.781264
vt 0.952566 0.781264
vt 0.577271 0.781264
vt 0.618565 0.781264
vt 0.618565 0.988557
vt 0.577271 0.988558
vt 0.902108 0.988557
vt 0.629653 0.988557
vt 0.629653 0.781264
vt 0.902081 0.781264
vt 0.669272 0.41731
vt 0.468832 0.41731
vt 0.468832 0.255462
vt 0.669272 0.255462
vt 0.18977 0.990193
vt 0.18977 0.814605
vt 0.0158179 0.814605
vt 0.0157902 0.990193
vt 0.952566 0.764143
vt 0.914541 0.764143
vt 0.914541 0.556849
vt 0.952566 0.556849
vt 0.577271 0.556849
vt 0.618565 0.556849
vt 0.618565 0.764143
vt 0.577271 0.764143
vt 0.902135 0.764143
vt 0.629653 0.764143
vt 0.629653 0.556849
vt 0.902108 0.556849
vt 0.254203 0.255462
vt 0.454643 0.255462
vt 0.454643 0.41731
vt 0.254203 0.41731
vt 0.682421 0.280252
vt 0.856263 0.280252
vt 0.856236 0.468296
vt 0.682449 0.468296


#
# MESH 000
#
g surface_000
usemtl surface_000
f 53/53/53 55/55/55 56/56/56
f 53/53/53 54/54/54 55/55/55
f 49/49/49 51/51/51 52/52/52
f 49/49/49 50/50/50 51/51/51
f 45/45/45 47/47/47 48/48/48
f 45/45/45 46/46/46 47/47/47
f 41/41/41 43/43/43 44/44/44
f 41/41/41 42/42/42 43/43/43
f 37/37/37 39/39/39 40/40/40
f 37/37/37 38/38/38 39/39/39
f 33/33/33 35/35/35 36/36/36
f 33/33/33 34/34/34 35/35/35
f 29/29/29 31/31/31 32/32/32
f 29/29/29 30/30/30 31/31/31
f 25/25/25 27/27/27 28/28/28
f 25/25/25 26/26/26 27/27/27
f 21/21/21 23/23/23 24/24/24
f 21/21/21 22/22/22 23/23/23
f 17/17/17 19/19/19 20/20/20
f 17/17/17 18/18/18 19/19/19
f 13/13/13 15/15/15 16/16/16
f 13/13/13 14/14/14 15/15/15
f 9/9/9 11/11/11 12/12/12
f 9/9/9 10/10/10 11/11/11
f 5/5/5 7/7/7 8/8/8
f 5/5/5 6/6/6 7/7/7
f 1/1/1 3/3/3 4/4/4
f 1/1/1 2/2/2 3/3/3
f 90/90/90 91/91/91 75/75/75
f 90/90/90 75/75/75 73/73/73
f 89/89/89 90/90/90 73/73/73
f 89/89/89 73/73/73 71/71/71
f 88/88/88 89/89/89 71/71/71
f 88/88/88 71/71/71 69/69/69
f 87/87/87 88/88/88 69/69/69
f 74/74/74 73/73/73 75/75/75
f 72/72/72 73/73/73 74/74/74
f 72/72/72 71/71/71 73/73/73
f 70/70/70 71/71/71 72/72/72
f 70/70/70 69/69/69 71/71/71
f 68/68/68 69/69/69 70/70/70
f 68/68/68 67/67/67 69/69/69
f 87/87/87 69/69/69 67/67/67
f 86/86/86 87/87/87 67/67/67
f 74/74/74 75/75/75 76/76/76
f 66/66/66 67/67/67 68/68/68
f 66/66/66 65/65/65 67/67/67
f 86/86/86 67/67/67 65/65/65
f 85/85/85 86/86/86 65/65/65
f 85/85/85 65/65/65 63/63/63
f 84/84/84 85/85/85 63/63/63
f 84/84/84 63/63/63 61/61/61
f 83/83/83 84/84/84 61/61/61
f 64/64/64 65/65/65 66/66/66
f 64/64/64 63/63/63 65/65/65
f 62/62/62 63/63/63 64/64/64
f 62/62/62 61/61/61 63/63/63
f 58/58/58 61/61/61 62/62/62
f 58/58/58 57/57/57 61/61/61
f 83/83/83 61/61/61 57/57/57
f 95/95/95 83/83/83 57/57/57
f 95/95/95 57/57/57 60/60/60
f 94/94/94 95/95/95 60/60/60
f 94/94/94 60/60/60 81/81/81
f 93/93/93 94/94/94 81/81/81
f 57/57/57 58/58/58 59/59/59
f 57/57/57 59/59/59 60/60/60
f 82/82/82 60/60/60 59/59/59
f 82/82/82 81/81/81 60/60/60
f 80/80/80 81/81/81 82/82/82
f 80/80/80 79/79/79 81/81/81
f 93/93/93 81/81/81 79/79/79
f 92/92/92 93/93/93 79/79/79
f 92/92/92 79/79/79 78/78/78
f 77/77/77 78/78/78 79/79/79
f 77/77/77 79/79/79 80/80/80
f 108/108/108 96/96/96 98/98/98
f 96/96/96 97/97/97 98/98/98
f 97/97/97 99/99/99 98/98/98
f 99/99/99 100/100/100 98/98/98
f 100/100/100 101/101/101 98/98/98
f 101/101/101 102/102/102 98/98/98
f 102/102/102 103/103/103 98/98/98
f 103/103/103 104/104/104 98/98/98
f 104/104/104 105/105/105 98/98/98
f 105/105/105 106/106/106 98/98/98
f 106/106/106 107/107/107 98/98/98
f 107/107/107 108/108/108 98/98/98
f 225/225/225 227/227/227 228/228/228
f 225/225/225 226/226/226 227/227/227
f 221/221/221 223/223/223 224/224/224
f 221/221/221 222/222/222 223/223/223
f 217/217/217 219/219/219 220/220/220
f 217/217/217 218/218/218 219/219/219
f 213/213/213 215/215/215 216/216/216
f 213/213/213 214/214/214 215/215/215
f 209/209/209 211/211/211 212/212/212
f 209/209/209 210/210/210 211/211/211
f 205/205/205 207/207/207 208/208/208
f 205/205/205 206/206/206 207/207/207
f 201/201/201 203/203/203 204/204/204
f 201/201/201 202/202/202 203/203/203
f 197/197/197 199/199/199 200/200/200
f 197/197/197 198/198/198 199/199/199
f 193/193/193 195/195/195 196/196/196
f 193/193/193 194/194/194 195/195/195
f 189/189/189 191/191/191 192/192/192
f 189/189/189 190/190/190 191/191/191
f 187/187/187 188/188/188 154/154/154
f 187/187/187 154/154/154 153/153/153
f 153/153/153 154/154/154 155/155/155
f 153/153/153 155/155/155 156/156/156
f 186/186/186 153/153/153 156/156/156
f 176/176/176 155/155/155 154/154/154
f 184/184/184 185/185/185 177/177/177
f 177/177/177 185/185/185 175/175/175
f 177/177/177 175/175/175 174/174/174
f 177/177/177 174/174/174 178/178/178
f 177/177/177 178/178/178 179/179/179
f 173/173/173 174/174/174 175/175/175
f 182/182/182 165/165/165 183/183/183
f 182/182/182 166/166/166 165/165/165
f 165/165/165 166/166/166 167/167/167
f 165/165/165 167/167/167 168/168/168
f 157/157/157 180/180/180 181/181/181
f 157/157/157 181/181/181 158/158/158
f 157/157/157 158/158/158 159/159/159
f 157/157/157 159/159/159 160/160/160
f 171/171/171 160/160/160 159/159/159
f 171/171/171 159/159/159 172/172/172
f 161/161/161 169/169/169 170/170/170
f 161/161/161 170/170/170 162/162/162
f 161/161/161 162/162/162 163/163/163
f 161/161/161 163/163/163 164/164/164
f 149/149/149 151/151/151 152/152/152
f 149/149/149 150/150/150 151/151/151
f 147/147/147 148/148/148 114/114/114
f 147/147/147 114/114/114 113/113/113
f 113/113/113 114/114/114 115/115/115
f 113/113/113 115/115/115 116/116/116
f 146/146/146 113/113/113 116/116/116
f 136/136/136 115/115/115 114/114/114
f 144/144/144 145/145/145 137/137/137
f 137/137/137 145/145/145 135/135/135
f 137/137/137 135/135/135 134/134/134
f 137/137/137 134/134/134 138/138/138
f 137/137/137 138/138/138 139/139/139
f 133/133/133 134/134/134 135/135/135
f 142/142/142 125/125/125 143/143/143
f 142/142/142 126/126/126 125/125/125
f 125/125/125 126/126/126 127/127/127
f 125/125/125 127/127/127 128/128/128
f 117/117/117 140/140/140 141/141/141
f 117/117/117 141/141/141 118/118/118
f 117/117/117 118/118/118 119/119/119
f 117/117/117 119/119/119 120/120/120
f 131/131/131 120/120/120 119/119/119
f 131/131/131 119/119/119 132/132/132
f 121/121/121 129/129/129 130/130/130
f 121/121/121 130/130/130 122/122/122
f 121/121/121 122/122/122 123/123/123
f 121/121/121 123/123/123 124/124/124
f 109/109/109 111/111/111 112/112/112
f 109/109/109 110/110/110 111/111/111

