#
# OBJECT NAME
#
o model_2583
mtllib 2583.mtl

#
# VERTEX BUFFER 000
#
v 0.500114 0.638429 0.50047
v -0.500114 0.638429 0.50047
v -0.500114 0.638429 -0.500301
v 0.500114 0.638429 -0.500301
v -0.500114 0.638429 -0.500301
v -0.500114 0.752228 -0.500301
v 0.500114 0.752228 -0.500301
v 0.500114 0.638429 -0.500301
v -0.500114 0.752228 -0.500301
v -0.500114 0.752228 0.50047
v 0.500114 0.752228 0.50047
v 0.500114 0.752228 -0.500301
v -0.500114 0.638429 -0.500301
v -0.500114 0.638429 0.50047
v -0.500114 0.752228 0.50047
v -0.500114 0.752228 -0.500301
v 0.500114 0.638429 0.50047
v 0.500114 0.638429 -0.500301
v 0.500114 0.752228 -0.500301
v 0.500114 0.752228 0.50047
v -0.500114 0.752228 0.50047
v -0.500114 0.638429 0.50047
v 0.500114 0.638429 0.50047
v 0.500114 0.752228 0.50047
v -0.500114 0.112522 0.50047
v 0.500114 0.112522 0.50047
v 0.500114 0.112522 -0.500301
v -0.500114 0.112522 -0.500301
v 0.500114 0.112522 -0.500301
v 0.500114 0 -0.500301
v -0.500114 0 -0.500301
v -0.500114 0.112522 -0.500301
v 0.500114 0 -0.500301
v 0.500114 0 0.50047
v -0.500114 0 0.50047
v -0.500114 0 -0.500301
v 0.500114 0.112522 -0.500301
v 0.500114 0.112522 0.50047
v 0.500114 0 0.50047
v 0.500114 0 -0.500301
v -0.500114 0.112522 0.50047
v -0.500114 0.112522 -0.500301
v -0.500114 0 -0.500301
v -0.500114 0 0.50047
v 0.500114 0 0.50047
v 0.500114 0.112522 0.50047
v -0.500114 0.112522 0.50047
v -0.500114 0 0.50047
v -0.38711 0.638429 0.50047
v -0.500114 0.638429 0.50047
v -0.500114 0.112522 0.50047
v -0.38711 0.112522 0.50047
v -0.38711 0.112522 -0.500301
v -0.500114 0.112522 -0.500301
v -0.500114 0.638429 -0.500301
v -0.38711 0.638429 -0.500301
v -0.500114 0.638429 0.50047
v -0.500114 0.638429 -0.500301
v -0.500114 0.112522 -0.500301
v -0.500114 0.112522 0.50047
v -0.38711 0.638429 -0.500301
v -0.38711 0.638429 0.50047
v -0.38711 0.112522 0.50047
v -0.38711 0.112522 -0.500301
v 0.38711 0.112522 -0.429068
v 0.38711 0.638429 -0.429068
v -0.38711 0.638429 -0.429068
v -0.38711 0.112522 -0.429068
v 0.38711 0.112522 0.50047
v 0.500114 0.112522 0.50047
v 0.500114 0.638429 0.50047
v 0.38711 0.638429 0.50047
v 0.38711 0.638429 -0.500301
v 0.500114 0.638429 -0.500301
v 0.500114 0.112522 -0.500301
v 0.38711 0.112522 -0.500301
v 0.500114 0.112522 0.50047
v 0.500114 0.112522 -0.500301
v 0.500114 0.638429 -0.500301
v 0.500114 0.638429 0.50047
v 0.38711 0.112522 -0.500301
v 0.38711 0.112522 0.50047
v 0.38711 0.638429 0.50047
v 0.38711 0.638429 -0.500301
v 0.38711 0.112522 -0.500301
v -0.38711 0.112522 -0.500301
v -0.38711 0.638429 -0.500301
v 0.38711 0.638429 -0.500301
v 0.0662161 0.444126 0.571142
v 0.0969473 0.377909 0.571142
v 0.0968756 0.377909 0.50047
v 0.0661672 0.444076 0.50047
v 0 0.474856 0.571142
v 0 0.474785 0.50047
v -0.0662162 0.444126 0.571142
v -0.0661673 0.444076 0.50047
v -0.0969474 0.377909 0.571142
v -0.0968756 0.377909 0.50047
v -0.0662162 0.311693 0.571142
v -0.0661673 0.311742 0.50047
v 0 0.280962 0.571142
v 0 0.281034 0.50047
v 0.0662161 0.311693 0.571142
v 0 0.280962 0.571142
v 0 0.281034 0.50047
v 0.0661672 0.311742 0.50047
v 0.0662161 0.444126 0.571142
v 0 0.474856 0.571142
v 0 0.377909 0.571142
v -0.0662162 0.444126 0.571142
v -0.0969474 0.377909 0.571142
v -0.0662162 0.311693 0.571142
v 0 0.280962 0.571142
v 0.0662161 0.311693 0.571142
v 0.0969473 0.377909 0.571142
v -0.38711 0.112522 0.50047
v 0.387109 0.112522 0.50047
v 0.387109 0.638429 0.50047
v -0.38711 0.638429 0.50047
v -0.32711 0.172478 0.44047
v 0.32711 0.172478 0.44047
v 0.32711 0.172478 -0.308218
v -0.32711 0.172478 -0.308218
v -0.38711 0.638429 -0.368218
v 0.387109 0.638429 -0.368218
v 0.387109 0.112522 -0.368218
v -0.38711 0.112522 -0.368218
v -0.38711 0.112522 -0.368218
v 0.387109 0.112522 -0.368218
v 0.387109 0.112522 0.50047
v -0.38711 0.112522 0.50047
v 0.387109 0.112522 0.50047
v 0.387109 0.112522 -0.368218
v 0.387109 0.638429 -0.368218
v 0.387109 0.638429 0.50047
v -0.38711 0.112522 -0.368218
v -0.38711 0.112522 0.50047
v -0.38711 0.638429 0.50047
v -0.38711 0.638429 -0.368218
v -0.38711 0.638429 0.50047
v 0.387109 0.638429 0.50047
v 0.32711 0.638429 0.44047
v -0.32711 0.638429 0.44047
v 0.387109 0.638429 0.50047
v 0.387109 0.638429 -0.368218
v 0.32711 0.638429 -0.308218
v 0.32711 0.638429 0.44047
v 0.387109 0.638429 -0.368218
v -0.38711 0.638429 -0.368218
v -0.32711 0.638429 -0.308218
v 0.32711 0.638429 -0.308218
v -0.38711 0.638429 -0.368218
v -0.38711 0.638429 0.50047
v -0.32711 0.638429 0.44047
v -0.32711 0.638429 -0.308218
v -0.32711 0.638429 0.44047
v 0.32711 0.638429 0.44047
v 0.32711 0.172478 0.44047
v -0.32711 0.172478 0.44047
v 0.32711 0.638429 0.44047
v 0.32711 0.638429 -0.308218
v 0.32711 0.172478 -0.308218
v 0.32711 0.172478 0.44047
v 0.32711 0.638429 -0.308218
v -0.32711 0.638429 -0.308218
v -0.32711 0.172478 -0.308218
v 0.32711 0.172478 -0.308218
v -0.32711 0.638429 -0.308218
v -0.32711 0.638429 0.44047
v -0.32711 0.172478 0.44047
v -0.32711 0.172478 -0.308218

vn 0 -1 0
vn 0 -1 0
vn 0 -1 0
vn 0 -1 0
vn 0 0 -1
vn 0 0 -1
vn 0 0 -1
vn 0 0 -1
vn 0 1 0
vn 0 1 0
vn 0 1 0
vn 0 1 0
vn -1 0 0
vn -1 0 0
vn -1 0 0
vn -1 0 0
vn 1 0 0
vn 1 0 0
vn 1 0 0
vn 1 0 0
vn 0 0 1
vn 0 0 1
vn 0 0 1
vn 0 0 1
vn 0 1 0
vn 0 1 0
vn 0 1 0
vn 0 1 0
vn 0 0 -1
vn 0 0 -1
vn 0 0 -1
vn 0 0 -1
vn 0 -1 0
vn 0 -1 0
vn 0 -1 0
vn 0 -1 0
vn 1 0 0
vn 1 0 0
vn 1 0 0
vn 1 0 0
vn -1 0 0
vn -1 0 0
vn -1 0 0
vn -1 0 0
vn 0 0 1
vn 0 0 1
vn 0 0 1
vn 0 0 1
vn 0 0 1
vn 0 0 1
vn 0 0 1
vn 0 0 1
vn 0 0 -1
vn 0 0 -1
vn 0 0 -1
vn 0 0 -1
vn -1 0 0
vn -1 0 0
vn -1 0 0
vn -1 0 0
vn 1 0 0
vn 1 0 0
vn 1 0 0
vn 1 0 0
vn 0 0 1
vn 0 0 1
vn 0 0 1
vn 0 0 1
vn 0 0 1
vn 0 0 1
vn 0 0 1
vn 0 0 1
vn 0 0 -1
vn 0 0 -1
vn 0 0 -1
vn 0 0 -1
vn 1 0 0
vn 1 0 0
vn 1 0 0
vn 1 0 0
vn -1 0 0
vn -1 0 0
vn -1 0 0
vn -1 0 0
vn 0 0 -1
vn 0 0 -1
vn 0 0 -1
vn 0 0 -1
vn 0.628906 0.628906 0.457031
vn 0.895996 0 0.443848
vn 0.999512 0 -0.0010128
vn 0.707031 0.707031 -0.000977516
vn 0 0.895996 0.443848
vn 0 0.999512 -0.00100994
vn -0.628906 0.628906 0.457031
vn -0.707031 0.707031 -0.000977516
vn -0.895996 0 0.443848
vn -0.999512 0 -0.00101376
vn -0.628906 -0.628906 0.457031
vn -0.707031 -0.707031 -0.000977516
vn 1.78814e-007 -0.895996 0.443848
vn 0 -0.999512 -0.00101185
vn 0.628906 -0.628906 0.457031
vn 1.78814e-007 -0.895996 0.443848
vn 0 -0.999512 -0.00101185
vn 0.707031 -0.707031 -0.000977516
vn 0.628906 0.628906 0.457031
vn 0 0.895996 0.443848
vn 1.19209e-007 0 1
vn -0.628906 0.628906 0.457031
vn -0.895996 0 0.443848
vn -0.628906 -0.628906 0.457031
vn 1.78814e-007 -0.895996 0.443848
vn 0.628906 -0.628906 0.457031
vn 0.895996 0 0.443848
vn 0 0 1
vn 0 0 1
vn 0 0 1
vn 0 0 1
vn 0 1 0
vn 0 1 0
vn 0 1 0
vn 0 1 0
vn 0 0 -1
vn 0 0 -1
vn 0 0 -1
vn 0 0 -1
vn 0 -1 0
vn 0 -1 0
vn 0 -1 0
vn 0 -1 0
vn 1 0 0
vn 1 0 0
vn 1 0 0
vn 1 0 0
vn -1 0 0
vn -1 0 0
vn -1 0 0
vn -1 0 0
vn 0 1 0
vn 0 1 0
vn 0 1 0
vn 0 1 0
vn 0 1 0
vn 0 1 0
vn 0 1 0
vn 0 1 0
vn 0 1 0
vn 0 1 0
vn 0 1 0
vn 0 1 0
vn 0 1 0
vn 0 1 0
vn 0 1 0
vn 0 1 0
vn 0 0 -1
vn 0 0 -1
vn 0 0 -1
vn 0 0 -1
vn -1 0 0
vn -1 0 0
vn -1 0 0
vn -1 0 0
vn 0 0 1
vn 0 0 1
vn 0 0 1
vn 0 0 1
vn 1 0 0
vn 1 0 0
vn 1 0 0
vn 1 0 0

vt 0.256964 0.225391
vt 0.256964 0.0157667
vt 0.457404 0.0157667
vt 0.457404 0.22539
vt 0.245331 0.347712
vt 0.243591 0.376905
vt 0.0115593 0.376905
vt 0.00982007 0.347712
vt 0.241852 0.0157667
vt 0.241852 0.260021
vt 0.0118084 0.260021
vt 0.0118084 0.0157667
vt 0.993893 0.0157667
vt 0.993893 0.260021
vt 0.962273 0.260021
vt 0.962273 0.0157667
vt 0.922754 0.0157667
vt 0.922754 0.260021
vt 0.953074 0.260021
vt 0.953074 0.0157667
vt 0.243592 0.388117
vt 0.245331 0.41731
vt 0.0098201 0.41731
vt 0.0115594 0.388117
vt 0.467442 0.225391
vt 0.467442 0.0157667
vt 0.667882 0.0157667
vt 0.667882 0.225391
vt 0.245331 0.269422
vt 0.243591 0.298615
vt 0.0115593 0.298615
vt 0.00981995 0.269422
vt 0.913012 0.0157667
vt 0.913012 0.260021
vt 0.68098 0.260021
vt 0.68098 0.0157667
vt 0.993811 0.285864
vt 0.993811 0.530118
vt 0.966946 0.530118
vt 0.966946 0.285864
vt 0.926153 0.285864
vt 0.926153 0.530118
vt 0.955056 0.530118
vt 0.955056 0.285864
vt 0.243591 0.311269
vt 0.245331 0.340462
vt 0.00981999 0.340462
vt 0.0115593 0.311269
vt 0.952566 0.988557
vt 0.914514 0.988557
vt 0.914514 0.781264
vt 0.952566 0.781264
vt 0.577271 0.781264
vt 0.618565 0.781264
vt 0.618565 0.988557
vt 0.577271 0.988558
vt 0.902108 0.988557
vt 0.629653 0.988557
vt 0.629653 0.781264
vt 0.902081 0.781264
vt 0.669272 0.41731
vt 0.468832 0.41731
vt 0.468832 0.255462
vt 0.669272 0.255462
vt 0.18977 0.990193
vt 0.18977 0.814605
vt 0.0158179 0.814605
vt 0.0157902 0.990193
vt 0.952566 0.764143
vt 0.914541 0.764143
vt 0.914541 0.556849
vt 0.952566 0.556849
vt 0.577271 0.556849
vt 0.618565 0.556849
vt 0.618565 0.764143
vt 0.577271 0.764143
vt 0.902135 0.764143
vt 0.629653 0.764143
vt 0.629653 0.556849
vt 0.902108 0.556849
vt 0.254203 0.255462
vt 0.454643 0.255462
vt 0.454643 0.41731
vt 0.254203 0.41731
vt 0.682421 0.280252
vt 0.856263 0.280252
vt 0.856236 0.468296
vt 0.682449 0.468296
vt 0.784895 0.499624
vt 0.828262 0.499626
vt 0.828262 0.527512
vt 0.784892 0.52751
vt 0.741526 0.499622
vt 0.741522 0.527507
vt 0.698156 0.499619
vt 0.698154 0.527504
vt 0.654786 0.499618
vt 0.654786 0.527503
vt 0.611415 0.499619
vt 0.611418 0.527504
vt 0.568045 0.499622
vt 0.568049 0.527507
vt 0.87163 0.499624
vt 0.914998 0.499622
vt 0.915002 0.527507
vt 0.871633 0.52751
vt 0.63958 0.479487
vt 0.616746 0.489686
vt 0.616746 0.45751
vt 0.593912 0.479487
vt 0.583315 0.457512
vt 0.593912 0.435537
vt 0.616746 0.425338
vt 0.63958 0.435537
vt 0.650177 0.457512
vt 0.205351 0.987974
vt 0.205351 0.814022
vt 0.378157 0.81405
vt 0.378157 0.987947
vt 0.0169747 0.429222
vt 0.161645 0.429222
vt 0.161645 0.592349
vt 0.0169747 0.592349
vt 0.391915 0.815751
vt 0.565812 0.815751
vt 0.56584 0.988558
vt 0.391888 0.988558
vt 0.0158179 0.604162
vt 0.18977 0.604162
vt 0.18977 0.797581
vt 0.0158179 0.797581
vt 0.205761 0.797581
vt 0.205761 0.604162
vt 0.378567 0.604187
vt 0.378567 0.797556
vt 0.393261 0.797581
vt 0.393261 0.604162
vt 0.566067 0.604187
vt 0.566067 0.797556
vt 0.869538 0.462351
vt 0.869538 0.288467
vt 0.88773 0.307157
vt 0.88773 0.443661
vt 0.967687 0.987479
vt 0.967687 0.794121
vt 0.985879 0.812813
vt 0.985879 0.968789
vt 0.899422 0.460893
vt 0.899422 0.287009
vt 0.917614 0.305699
vt 0.917614 0.442203
vt 0.967298 0.763136
vt 0.967298 0.569777
vt 0.98549 0.588469
vt 0.98549 0.744444
vt 0.342209 0.591166
vt 0.179005 0.591152
vt 0.178954 0.429222
vt 0.342224 0.429222
vt 0.521598 0.590918
vt 0.358503 0.590918
vt 0.35847 0.429222
vt 0.52163 0.429222
vt 0.179005 0.591166
vt 0.342247 0.591152
vt 0.342262 0.429222
vt 0.178953 0.429222
vt 0.521598 0.590918
vt 0.358503 0.590918
vt 0.35847 0.429222
vt 0.52163 0.429222


#
# MESH 000
#
g surface_000
usemtl surface_000
f 85/85/85 87/87/87 88/88/88
f 85/85/85 86/86/86 87/87/87
f 81/81/81 83/83/83 84/84/84
f 81/81/81 82/82/82 83/83/83
f 77/77/77 79/79/79 80/80/80
f 77/77/77 78/78/78 79/79/79
f 73/73/73 75/75/75 76/76/76
f 73/73/73 74/74/74 75/75/75
f 69/69/69 71/71/71 72/72/72
f 69/69/69 70/70/70 71/71/71
f 65/65/65 67/67/67 68/68/68
f 65/65/65 66/66/66 67/67/67
f 61/61/61 63/63/63 64/64/64
f 61/61/61 62/62/62 63/63/63
f 57/57/57 59/59/59 60/60/60
f 57/57/57 58/58/58 59/59/59
f 53/53/53 55/55/55 56/56/56
f 53/53/53 54/54/54 55/55/55
f 49/49/49 51/51/51 52/52/52
f 49/49/49 50/50/50 51/51/51
f 45/45/45 47/47/47 48/48/48
f 45/45/45 46/46/46 47/47/47
f 41/41/41 43/43/43 44/44/44
f 41/41/41 42/42/42 43/43/43
f 37/37/37 39/39/39 40/40/40
f 37/37/37 38/38/38 39/39/39
f 33/33/33 35/35/35 36/36/36
f 33/33/33 34/34/34 35/35/35
f 29/29/29 31/31/31 32/32/32
f 29/29/29 30/30/30 31/31/31
f 25/25/25 27/27/27 28/28/28
f 25/25/25 26/26/26 27/27/27
f 21/21/21 23/23/23 24/24/24
f 21/21/21 22/22/22 23/23/23
f 17/17/17 19/19/19 20/20/20
f 17/17/17 18/18/18 19/19/19
f 13/13/13 15/15/15 16/16/16
f 13/13/13 14/14/14 15/15/15
f 9/9/9 11/11/11 12/12/12
f 9/9/9 10/10/10 11/11/11
f 5/5/5 7/7/7 8/8/8
f 5/5/5 6/6/6 7/7/7
f 1/1/1 3/3/3 4/4/4
f 1/1/1 2/2/2 3/3/3
f 103/103/103 104/104/104 105/105/105
f 103/103/103 105/105/105 106/106/106
f 90/90/90 103/103/103 106/106/106
f 90/90/90 106/106/106 91/91/91
f 89/89/89 90/90/90 91/91/91
f 89/89/89 91/91/91 92/92/92
f 93/93/93 89/89/89 92/92/92
f 93/93/93 92/92/92 94/94/94
f 95/95/95 93/93/93 94/94/94
f 95/95/95 94/94/94 96/96/96
f 97/97/97 95/95/95 96/96/96
f 97/97/97 96/96/96 98/98/98
f 99/99/99 97/97/97 98/98/98
f 99/99/99 98/98/98 100/100/100
f 101/101/101 99/99/99 100/100/100
f 101/101/101 100/100/100 102/102/102
f 115/115/115 107/107/107 109/109/109
f 107/107/107 108/108/108 109/109/109
f 108/108/108 110/110/110 109/109/109
f 110/110/110 111/111/111 109/109/109
f 111/111/111 112/112/112 109/109/109
f 112/112/112 113/113/113 109/109/109
f 113/113/113 114/114/114 109/109/109
f 114/114/114 115/115/115 109/109/109
f 168/168/168 170/170/170 171/171/171
f 168/168/168 169/169/169 170/170/170
f 164/164/164 166/166/166 167/167/167
f 164/164/164 165/165/165 166/166/166
f 160/160/160 162/162/162 163/163/163
f 160/160/160 161/161/161 162/162/162
f 156/156/156 158/158/158 159/159/159
f 156/156/156 157/157/157 158/158/158
f 152/152/152 154/154/154 155/155/155
f 152/152/152 153/153/153 154/154/154
f 148/148/148 150/150/150 151/151/151
f 148/148/148 149/149/149 150/150/150
f 144/144/144 146/146/146 147/147/147
f 144/144/144 145/145/145 146/146/146
f 140/140/140 142/142/142 143/143/143
f 140/140/140 141/141/141 142/142/142
f 136/136/136 138/138/138 139/139/139
f 136/136/136 137/137/137 138/138/138
f 132/132/132 134/134/134 135/135/135
f 132/132/132 133/133/133 134/134/134
f 128/128/128 130/130/130 131/131/131
f 128/128/128 129/129/129 130/130/130
f 124/124/124 126/126/126 127/127/127
f 124/124/124 125/125/125 126/126/126
f 120/120/120 122/122/122 123/123/123
f 120/120/120 121/121/121 122/122/122
f 116/116/116 118/118/118 119/119/119
f 116/116/116 117/117/117 118/118/118

