#
# OBJECT NAME
#
o model_3617
mtllib 3617.mtl

#
# VERTEX BUFFER 000
#
v 0 0.178083 -0.460842
v 0 0.684547 -0.460842
v 0.139862 0.598841 -0.460842
v 0.206869 0 -0.460842
v -0.139862 0.598841 -0.460842
v -0.206869 0 -0.460842
v 0 0.178083 -0.456084
v 0.206869 0 -0.456084
v 0.139862 0.598841 -0.456084
v -0.139862 0.598841 -0.456084
v -0.206869 0 -0.456084
v 0.366901 0.733431 -0.452661
v 0.121923 0.78203 -0.452661
v 0 0.614217 -0.303552
v 0.121923 0.78203 -0.452661
v -1.49012e-007 1 -0.452661
v 0 0.614217 -0.303552
v -1.49012e-007 1 -0.452661
v -0.121923 0.78203 -0.452661
v 0 0.614217 -0.303552
v -0.121923 0.78203 -0.452661
v -0.366901 0.733431 -0.452661
v 0 0.614217 -0.303552
v 0.197275 0.550119 -0.452661
v 0.366901 0.733431 -0.452661
v 0 0.614217 -0.303552
v 0.226757 0.302112 -0.452661
v 0.197275 0.550119 -0.452661
v 0 0.614217 -0.303552
v 0 0.40679 -0.452661
v 0.226757 0.302112 -0.452661
v 0 0.614217 -0.303552
v -0.226757 0.302112 -0.452661
v 0 0.40679 -0.452661
v 0 0.614217 -0.303552
v -0.197275 0.550119 -0.452661
v -0.226757 0.302112 -0.452661
v 0 0.614217 -0.303552
v -0.366901 0.733431 -0.452661
v -0.197275 0.550119 -0.452661
v 0 0.614217 -0.303552
v -1.49012e-007 1 -0.452661
v 0.121923 0.78203 -0.452661
v -0.121923 0.78203 -0.452661
v 0 0.40679 -0.452661
v -0.197275 0.550119 -0.452661
v 0.197275 0.550119 -0.452661
v 0.121923 0.78203 -0.452661
v 0.366901 0.733431 -0.452661
v 0.226757 0.302112 -0.452661
v -0.226757 0.302112 -0.452661
v -0.366901 0.733431 -0.452661
v 0 0.579674 -0.467642
v -0.0374141 0.617088 -0.467642
v 0.037414 0.617088 -0.467642
v 0 0.654502 -0.467642

vn 0 0 -1
vn 0 0 -1
vn 0 0 -1
vn 0 0 -1
vn 0 0 -1
vn 0 0 -1
vn 0 0 1
vn 0 0 1
vn 0 0 1
vn 0 0 1
vn 0 0 1
vn 0.120728 0.608398 0.783691
vn 0.120728 0.608398 0.783691
vn 0.120728 0.608398 0.783691
vn 0.541504 0.302979 0.783691
vn 0.541504 0.302979 0.783691
vn 0.541504 0.302979 0.783691
vn -0.541504 0.302979 0.783691
vn -0.541504 0.302979 0.783691
vn -0.541504 0.302979 0.783691
vn -0.120728 0.608398 0.783691
vn -0.120728 0.608398 0.783691
vn -0.120728 0.608398 0.783691
vn 0.455566 -0.421387 0.783691
vn 0.455566 -0.421387 0.783691
vn 0.455566 -0.421387 0.783691
vn 0.616211 0.0732422 0.783691
vn 0.616211 0.0732422 0.783691
vn 0.616211 0.0732422 0.783691
vn -0.26001 -0.563477 0.783691
vn -0.26001 -0.563477 0.783691
vn -0.26001 -0.563477 0.783691
vn 0.26001 -0.563477 0.783691
vn 0.26001 -0.563477 0.783691
vn 0.26001 -0.563477 0.783691
vn -0.616211 0.0732422 0.783691
vn -0.616211 0.0732422 0.783691
vn -0.616211 0.0732422 0.783691
vn -0.455566 -0.421387 0.783691
vn -0.455566 -0.421387 0.783691
vn -0.455566 -0.421387 0.783691
vn 0 0 -1
vn 0 0 -1
vn 0 0 -1
vn 0 1.19209e-007 -1
vn 0 0 -1
vn 1.19209e-007 0 -1
vn 1.19209e-007 0 -1
vn 2.38419e-007 0 -1
vn 5.36442e-007 -1.78814e-007 -1
vn -2.38419e-007 0 -1
vn 0 0 -1
vn 0 0 -1
vn 0 0 -1
vn 0 0 -1
vn 0 0 -1

vt 0.738874 0.153325
vt 0.738874 0.529046
vt 0.842631 0.465465
vt 0.89234 0.0212135
vt 0.635118 0.465465
vt 0.585409 0.0212135
vt 0.738875 0.612274
vt 0.89234 0.480162
vt 0.842631 0.924413
vt 0.635118 0.924413
vt 0.585409 0.480162
vt 0.559313 0.794488
vt 0.398193 0.825817
vt 0.315577 0.717234
vt 0.383499 0.840987
vt 0.3064 0.973411
vt 0.30534 0.733076
vt 0.288444 0.973667
vt 0.212116 0.834333
vt 0.288147 0.731048
vt 0.19588 0.825087
vt 0.0401974 0.794423
vt 0.280118 0.717247
vt 0.450108 0.662803
vt 0.558957 0.778797
vt 0.326878 0.702665
vt 0.465516 0.484505
vt 0.446362 0.64619
vt 0.317402 0.689606
vt 0.308656 0.546574
vt 0.448387 0.48225
vt 0.305606 0.67694
vt 0.141151 0.47918
vt 0.288376 0.545179
vt 0.289137 0.683692
vt 0.15177 0.644887
vt 0.13431 0.494304
vt 0.274866 0.686857
vt 0.0389771 0.780056
vt 0.146115 0.661902
vt 0.275415 0.703972
vt 0.29905 0.519147
vt 0.387036 0.361848
vt 0.211064 0.361848
vt 0.304814 0.0910542
vt 0.156686 0.194488
vt 0.441415 0.194488
vt 0.387036 0.361848
vt 0.563826 0.326776
vt 0.462691 0.0155133
vt 0.13541 0.0155132
vt 0.0342744 0.326776
vt 0.480585 0.855855
vt 0.44873 0.88771
vt 0.51244 0.88771
vt 0.480585 0.919565


#
# MESH 000
#
g surface_000
usemtl surface_000
f 7/7/7 10/10/10 11/11/11
f 7/7/7 9/9/9 10/10/10
f 7/7/7 8/8/8 9/9/9
f 5/5/5 1/1/1 6/6/6
f 5/5/5 2/2/2 1/1/1
f 1/1/1 2/2/2 3/3/3
f 1/1/1 3/3/3 4/4/4
f 39/39/39 40/40/40 41/41/41
f 36/36/36 37/37/37 38/38/38
f 33/33/33 34/34/34 35/35/35
f 30/30/30 31/31/31 32/32/32
f 27/27/27 28/28/28 29/29/29
f 24/24/24 25/25/25 26/26/26
f 21/21/21 22/22/22 23/23/23
f 18/18/18 19/19/19 20/20/20
f 15/15/15 16/16/16 17/17/17
f 12/12/12 13/13/13 14/14/14
f 42/42/42 43/43/43 44/44/44
f 44/44/44 46/46/46 52/52/52
f 48/48/48 46/46/46 44/44/44
f 48/48/48 47/47/47 46/46/46
f 45/45/45 46/46/46 47/47/47
f 45/45/45 51/51/51 46/46/46
f 48/48/48 49/49/49 47/47/47
f 45/45/45 47/47/47 50/50/50
f 56/56/56 55/55/55 54/54/54
f 53/53/53 54/54/54 55/55/55

