#
# OBJECT NAME
#
o model_1809
mtllib 1809.mtl

#
# VERTEX BUFFER 000
#
v -0.637284 0.308643 0.107091
v 0.0372118 0.444886 -0.545644
v -0.624164 0.538604 -0.52321
v -0.380051 -0.111626 0.346456
v 0.30165 0.0277614 -0.277395
v 0.508602 0.18763 -0.482874
v -0.205681 0.0165957 -0.415122
v 0.0109324 0.00552207 0.0430733
v 0.490898 0.0260758 0.222954
v 0.120933 0.404429 -0.484069
v 0.409852 0.372704 0.341676
v 0.661412 0.503177 -0.161364
v -0.144642 0.0158627 -0.387979
v 0.144277 -0.0158627 0.437766
v -0.0069561 0.361311 0.884999
v 0.453765 0.244338 0.446133
v -0.485279 0.264189 0.414399
v 0.46877 -0.00992542 0.0543884
v -0.470274 0.00992537 0.0226542
v 0.2776 0.347985 0.260967
v -0.277481 0.216256 0.364214
v 0.0287893 0.321629 0.517459
v 0.125103 0.2589 -0.0507986
v -0.217956 0.177488 0.0130112
v -0.11919 0.470175 0.178149
v 0.0427641 0.292583 0.220446
v -0.0535175 0.241389 0.228873
v -0.248552 0.428998 -0.44387
v -0.508251 0.502239 -0.208113
v -0.387544 0.419304 0.118904
v -0.248552 0.428998 -0.44387
v -0.0532429 0.294807 0.0852546
v 0.0326575 0.300798 -0.262559
v -0.248552 0.428998 -0.44387
v -0.387544 0.419304 0.118904
v -0.0532429 0.294807 0.0852546
v -0.146289 0.586712 -0.129853
v -0.260448 0.405849 -0.192883
v -0.208283 0.377723 -0.0911577
v -0.00589355 0.277505 0.277746
v -0.00485983 0.256467 0.171573
v -0.11919 0.470175 0.178149
v -0.146289 0.586712 -0.129853
v -0.188972 0.371468 -0.177471
v -0.279759 0.412103 -0.106569

vn 0.141846 0.688477 0.710938
vn 0.529785 0.788086 0.312256
vn 0.0404663 0.970703 0.234985
vn 0.273438 0.50293 0.819824
vn 0.660156 0.620605 0.421875
vn -0.0197754 0.999512 0.020874
vn -0.491699 0.833496 0.251465
vn -0.368652 0.847656 0.380371
vn -0.223999 0.833496 0.504883
vn -0.692383 0.719727 -0.0473633
vn -0.494141 0.699219 0.516113
vn -0.107483 0.990723 0.0792847
vn -0.852051 0.522949 0.0147095
vn -0.662598 0.501953 0.554688
vn 0.0236664 0.998047 0.0516052
vn 0.327393 0.848145 -0.416016
vn -0.249756 0.722656 -0.644043
vn 0.32251 0.710938 -0.624512
vn 0.0398254 0.600098 -0.79834
vn -0.683105 0.704102 -0.193481
vn 0.196899 0.912598 -0.357178
vn -0.288574 0.745605 -0.600098
vn -0.441162 0.845215 0.300781
vn 0.102539 0.974121 0.199585
vn 0.0257416 -0.209229 -0.977051
vn 0.0257416 -0.209229 -0.977051
vn 0.0257416 -0.209229 -0.977051
vn 0.356201 0.928223 0.103943
vn 0.356201 0.928223 0.103943
vn 0.356201 0.928223 0.103943
vn 0.356201 0.928223 0.103943
vn 0.356201 0.928223 0.103943
vn 0.356201 0.928223 0.103943
vn 0.356201 0.928223 0.103943
vn 0.356201 0.928223 0.103943
vn 0.356201 0.928223 0.103943
vn -0.799316 0.330078 0.500977
vn -0.799316 0.330078 0.500977
vn -0.799316 0.330078 0.500977
vn 0.877441 0.471924 -0.0849609
vn 0.877441 0.471924 -0.0849609
vn 0.877441 0.471924 -0.0849609
vn -0.509277 0.280762 -0.812988
vn -0.509277 0.280762 -0.812988
vn -0.509277 0.280762 -0.812988

vt 0.345154 0.535079
vt 1.02815 0.536469
vt 0.675941 0.682305
vt 0.326358 0.311046
vt 1.00088 0.309436
vt 0.675941 0.682305
vt 0.295235 0.486496
vt 0.675941 0.404371
vt 1.04582 0.496481
vt 0.300834 0.516883
vt 0.978016 0.516885
vt 0.675941 0.682305
vt 0.335369 0.334476
vt 1.01265 0.334476
vt 0.675941 0.682305
vt 0.342877 0.509141
vt 1.01993 0.509198
vt 0.338798 0.327731
vt 1.01595 0.327787
vt 0.472954 0.0166179
vt 0.0204681 0.176988
vt 0.129354 0.0163495
vt 0.580818 0.177423
vt 0.304415 0.280857
vt 0.0656409 0.529877
vt 0.0106249 0.358628
vt 0.0992495 0.356795
vt 0.580818 0.177423
vt 0.304415 0.280857
vt 0.0204681 0.176988
vt 0.580818 0.177423
vt 0.129354 0.0163495
vt 0.472954 0.0166179
vt 0.580818 0.177423
vt 0.0204681 0.176988
vt 0.129354 0.0163495
vt 0.0656409 0.529877
vt 0.0435462 0.368604
vt 0.109687 0.369159
vt 0.0350198 0.357201
vt 0.108688 0.357625
vt 0.0656411 0.529877
vt 0.0656409 0.529877
vt 0.0227558 0.367997
vt 0.0977013 0.369707


#
# MESH 000
#
g surface_000
usemtl surface_000
f 43/43/43 44/44/44 45/45/45
f 40/40/40 41/41/41 42/42/42
f 37/37/37 38/38/38 39/39/39
f 34/34/34 35/35/35 36/36/36
f 31/31/31 32/32/32 33/33/33
f 28/28/28 29/29/29 30/30/30
f 25/25/25 26/26/26 27/27/27
f 23/23/23 24/24/24 21/21/21
f 23/23/23 21/21/21 20/20/20
f 20/20/20 21/21/21 22/22/22
f 18/18/18 19/19/19 17/17/17
f 18/18/18 17/17/17 16/16/16
f 15/15/15 16/16/16 17/17/17
f 10/10/10 13/13/13 14/14/14
f 10/10/10 14/14/14 11/11/11
f 10/10/10 11/11/11 12/12/12
f 6/6/6 8/8/8 9/9/9
f 6/6/6 7/7/7 8/8/8
f 1/1/1 4/4/4 5/5/5
f 1/1/1 5/5/5 2/2/2
f 1/1/1 2/2/2 3/3/3

