#
# OBJECT NAME
#
o model_3796
mtllib 3796.mtl

#
# VERTEX BUFFER 000
#
v 0.150163 0.602149 0.0885777
v 0.117655 0.609817 0.0724168
v 0.131456 0.433685 0.027884
v 0.0980207 0.441769 0.0140324
v 0.168073 0.617909 0.0601482
v 0.146926 0.442103 -0.00468016
v 0.135564 0.625577 0.0439873
v 0.113491 0.450187 -0.0185318
v 0.0980207 0.441769 0.0140324
v 0.117655 0.609817 0.0724168
v -0.0137074 0.00219904 0.00234365
v 0.0196995 0.00187918 0.0158658
v 0.0570524 0.251823 -0.00790691
v 0.08997 0.243002 0.0067153
v 0.035228 -0.00219847 -0.0159259
v 0.104548 0.24083 -0.027411
v 0.00182152 -0.00187886 -0.0294476
v 0.0716295 0.24965 -0.0420337
v 0.0570524 0.251823 -0.00790691
v -0.0137074 0.00219904 0.00234365
v 0.138718 0.766488 0.130227
v 0.120312 0.745947 0.158768
v 0.120312 0.745947 0.158768
v 0.154078 0.735667 0.172781
v 0.172484 0.756208 0.14424
v 0.147815 0.769813 0.162811
v 0.147815 0.769813 0.162811
v -0.0785513 0.487512 -0.0819969
v -0.0323929 0.239582 -0.0564637
v -0.0918168 0.487265 -0.0438776
v -0.0443667 0.23737 -0.0179815
v -0.0554779 0.499209 -0.0312114
v -0.00654554 0.244956 -0.00577736
v -0.042212 0.499455 -0.0693297
v 0.00542879 0.247167 -0.0442591
v -0.0323929 0.239582 -0.0564637
v -0.0785513 0.487512 -0.0819969
v -0.0256041 -0.00366257 -0.0154772
v -0.013199 -0.00192478 -0.0538468
v 0.0122825 0.0024157 -0.00295401
v 0.0246862 0.0041531 -0.0413241
v -0.013199 -0.00192478 -0.0538468
v -0.226205 0.928545 -0.204023
v -0.131355 0.732747 -0.127659
v -0.267507 0.902094 -0.215457
v -0.167528 0.711296 -0.137965
v -0.167528 0.711296 -0.137965
v -0.182682 0.717736 -0.0979261
v -0.267507 0.902094 -0.215457
v -0.286958 0.913725 -0.171216
v -0.146508 0.739187 -0.0876193
v -0.245654 0.940176 -0.159782
v -0.268221 0.948381 -0.199048
v -0.268221 0.948381 -0.199048
v 0.035228 -0.00219847 -0.0159259
v 0.0196995 0.00187918 0.0158658
v 0.00182152 -0.00187886 -0.0294476
v -0.0137074 0.00219904 0.00234365
v 0.0122825 0.0024157 -0.00295401
v -0.0256041 -0.00366257 -0.0154772
v 0.0246862 0.0041531 -0.0413241
v -0.013199 -0.00192478 -0.0538468

vn 0.341797 -0.430908 0.834961
vn -0.967285 -0.0434875 0.248535
vn 0.378662 -0.266357 0.88623
vn -0.943848 0.0893555 0.317627
vn 0.937988 0.0859985 -0.335449
vn 0.909668 -0.0580139 -0.410889
vn -0.261475 0.425781 -0.865723
vn -0.278076 0.258789 -0.924805
vn -0.943848 0.0893555 0.317627
vn -0.967285 -0.0434875 0.248535
vn -0.921387 0.269043 0.280029
vn 0.27417 -0.0405579 0.960449
vn -0.916992 0.219482 0.332275
vn 0.376953 -0.120056 0.917969
vn 0.869629 -0.270508 -0.412354
vn 0.88916 -0.213623 -0.404053
vn -0.439453 0.0805664 -0.894531
vn -0.324707 0.10498 -0.939941
vn -0.916992 0.219482 0.332275
vn -0.921387 0.269043 0.280029
vn -0.287109 0.549316 -0.78418
vn -0.965332 -0.0768433 0.249268
vn -0.965332 -0.0768433 0.249268
vn 0.315674 -0.468994 0.824707
vn 0.948242 0.186768 -0.255127
vn 0.0169373 0.820313 0.571289
vn 0.0169373 0.820313 0.571289
vn -0.374512 -0.266357 -0.887695
vn -0.428955 -0.110107 -0.896484
vn -0.851074 -0.15918 0.5
vn -0.87207 -0.0887451 0.480713
vn 0.425049 0.261963 0.866211
vn 0.453857 0.110474 0.883789
vn 0.89502 0.187378 -0.404297
vn 0.900879 0.0996704 -0.421875
vn -0.428955 -0.110107 -0.896484
vn -0.374512 -0.266357 -0.887695
vn -0.894043 -0.0651855 0.442383
vn -0.481934 -0.0476074 -0.874512
vn 0.42749 0.0438232 0.902832
vn 0.882324 0.0641479 -0.465576
vn -0.481934 -0.0476074 -0.874512
vn 0.836914 0.277832 -0.471191
vn 0.869141 0.234131 -0.435303
vn -0.357178 -0.458008 -0.813965
vn -0.341064 -0.427734 -0.836914
vn -0.341064 -0.427734 -0.836914
vn -0.826172 -0.22644 0.515137
vn -0.357178 -0.458008 -0.813965
vn -0.842285 -0.19458 0.501465
vn 0.362549 0.406982 0.837891
vn 0.29541 0.500977 0.812988
vn -0.402588 0.828613 -0.388184
vn -0.402588 0.828613 -0.388184
vn -0.0509949 -0.993164 0.102478
vn -0.0509949 -0.993164 0.102478
vn -0.0509949 -0.993164 0.102478
vn -0.0509949 -0.993164 0.102478
vn 0.156494 -0.987305 0.00587082
vn 0.156494 -0.987305 0.00587082
vn 0.156494 -0.987305 0.00587082
vn 0.156494 -0.987305 0.00587082

vt 0.551491 0.90106
vt 0.552384 0.872124
vt 0.625181 0.90106
vt 0.625441 0.872124
vt 0.550146 0.931667
vt 0.623889 0.931667
vt 0.551051 0.961136
vt 0.624179 0.961136
vt 0.625603 0.990595
vt 0.552335 0.990595
vt 0.811571 0.872124
vt 0.808165 0.90106
vt 0.705021 0.872124
vt 0.705061 0.90106
vt 0.807513 0.931667
vt 0.704849 0.931667
vt 0.810755 0.961136
vt 0.704808 0.961136
vt 0.705066 0.990595
vt 0.811411 0.990595
vt 0.488613 0.961136
vt 0.488613 0.990595
vt 0.488613 0.872124
vt 0.488613 0.90106
vt 0.488613 0.931667
vt 0.47691 0.90106
vt 0.477964 0.961136
vt 0.651586 0.872124
vt 0.745517 0.872124
vt 0.652546 0.90106
vt 0.746548 0.90106
vt 0.652696 0.931667
vt 0.745885 0.931667
vt 0.651697 0.961136
vt 0.744862 0.961136
vt 0.74547 0.990595
vt 0.651495 0.990595
vt 0.835672 0.90106
vt 0.835184 0.872124
vt 0.834586 0.931667
vt 0.834059 0.961136
vt 0.835096 0.990595
vt 0.488613 0.961136
vt 0.560419 0.961136
vt 0.488613 0.990595
vt 0.561085 0.990595
vt 0.561352 0.872124
vt 0.561032 0.90106
vt 0.488613 0.872124
vt 0.488613 0.90106
vt 0.56022 0.931667
vt 0.488613 0.931667
vt 0.47691 0.90106
vt 0.477964 0.961136
vt 0.814618 0.933773
vt 0.816313 0.92554
vt 0.818828 0.936393
vt 0.820523 0.92816
vt 0.815272 0.935376
vt 0.820031 0.938483
vt 0.813718 0.944896
vt 0.818478 0.948002


#
# VERTEX BUFFER 001
#
v -0.248434 0.898368 -0.174685
v -0.0228469 1.17998 -0.144232
v -0.0361236 1.04594 -0.291426
v 0.257674 1.29756 -0.0512605
v 0.182221 1.17549 -0.401302
v -0.0885512 1.0288 -0.483177
v 0.126267 0.995191 -0.729151
v -0.247298 0.90947 -0.463935
v -0.240129 0.902555 -0.74632
v -0.445197 0.90705 -0.48925
v -0.587026 0.75169 -0.741297
v -0.502979 0.886563 -0.299376
v -0.751491 0.85674 -0.417201
v -0.599913 0.982985 -0.154058
v -0.896457 0.903562 -0.0709133
v -0.449823 1.00887 -0.0251637
v -0.64518 1.10136 0.131224
v -0.338886 1.15167 0.0591741
v -0.374404 1.24093 0.355552
v -0.161291 1.10737 -0.0202508
v -0.0681146 1.29835 0.14105
v 0.143787 0.735058 0.14662
v 0.27709 0.729581 0.393205
v 0.336663 0.743609 0.251362
v 0.392481 0.60171 0.569204
v 0.527573 0.738717 0.348351
v 0.409003 0.844865 0.159824
v 0.656306 0.832279 0.102442
v 0.300458 0.864111 0.0515995
v 0.455162 0.979722 -0.0511742
v 0.204679 0.970586 -0.00632048
v 0.247657 1.08372 -0.229846
v 0.0691984 0.908179 0.0338764
v -0.00735664 1.06786 -0.0866203
v -0.0535144 0.933001 0.124378
v -0.268729 1.00855 0.0315509
v -0.0375214 0.814912 0.222685
v -0.220796 0.881323 0.290998
v -0.00876111 0.784052 0.371298
v -0.179223 0.710652 0.525391
v 0.127781 0.713202 0.357099
v 0.109808 0.677904 0.559825

vn -0.297607 0.88916 -0.34668
vn -0.460205 0.79541 -0.393555
vn -0.609375 0.760742 -0.221436
vn -0.270752 0.904785 -0.327148
vn -0.393066 0.865234 -0.310059
vn -0.420166 0.887207 -0.188477
vn -0.276367 0.889648 -0.362793
vn -0.322998 0.946289 0.0045929
vn -0.309326 0.918457 -0.24585
vn -0.204468 0.960938 -0.184814
vn -0.314209 0.876465 -0.363525
vn 0.023407 0.977051 -0.210571
vn -0.20874 0.928223 -0.306885
vn -0.110413 0.915039 -0.387451
vn -0.329102 0.885254 -0.328369
vn -0.0389709 0.806152 -0.589844
vn -0.224854 0.878906 -0.420166
vn -0.268555 0.8125 -0.516602
vn -0.30249 0.901855 -0.307861
vn -0.444092 0.667969 -0.59668
vn -0.34668 0.837402 -0.422119
vn 0.130981 0.861328 0.490479
vn 0.0366821 0.938965 0.34082
vn -0.192749 0.918457 0.344727
vn 0.138428 0.841797 0.520996
vn 0.03479 0.887695 0.458008
vn -0.06604 0.849121 0.523438
vn 0.157349 0.856934 0.490234
vn -0.12384 0.711914 0.690918
vn 0.0561218 0.828125 0.557617
vn 0.0934448 0.750977 0.65332
vn 0.129272 0.874023 0.467285
vn 0.275391 0.630371 0.725586
vn 0.171143 0.804199 0.568848
vn 0.29541 0.779785 0.55127
vn 0.0952759 0.868652 0.48584
vn 0.474121 0.789063 0.389893
vn 0.232422 0.850586 0.470947
vn 0.260498 0.896484 0.35791
vn 0.101929 0.849121 0.51709
vn 0.174316 0.973633 0.146362
vn 0.142212 0.90625 0.397705

vt 0.267566 0.454346
vt 0.396054 0.544808
vt 0.332605 0.639699
vt 0.524543 0.63527
vt 0.391756 0.823426
vt 0.267566 0.732964
vt 0.267566 1.01158
vt 0.203118 0.638074
vt 0.13708 0.823426
vt 0.13708 0.544808
vt 0.00659313 0.63527
vt 0.163877 0.391271
vt 0.0570081 0.330826
vt 0.189084 0.240365
vt 0.107423 0.0243751
vt 0.267566 0.240365
vt 0.267566 0.0243751
vt 0.349139 0.240365
vt 0.427533 0.0243751
vt 0.373392 0.393901
vt 0.476038 0.330826
vt 0.267566 0.454346
vt 0.396054 0.544808
vt 0.332605 0.639699
vt 0.524543 0.63527
vt 0.391756 0.823426
vt 0.267566 0.732964
vt 0.267566 1.01158
vt 0.203118 0.638074
vt 0.13708 0.823426
vt 0.13708 0.544808
vt 0.00659313 0.63527
vt 0.163877 0.391271
vt 0.0570081 0.330826
vt 0.189084 0.240365
vt 0.107423 0.0243751
vt 0.267566 0.240365
vt 0.267566 0.0243751
vt 0.349139 0.240365
vt 0.427533 0.0243751
vt 0.373392 0.393901
vt 0.476038 0.330826


#
# MESH 000
#
g surface_000
usemtl surface_000
f 61/61/61 60/60/60 62/62/62
f 59/59/59 60/60/60 61/61/61
f 57/57/57 56/56/56 58/58/58
f 55/55/55 56/56/56 57/57/57
f 36/36/36 41/41/41 42/42/42
f 35/35/35 41/41/41 36/36/36
f 33/33/33 41/41/41 35/35/35
f 40/40/40 41/41/41 33/33/33
f 31/31/31 40/40/40 33/33/33
f 38/38/38 40/40/40 31/31/31
f 38/38/38 31/31/31 39/39/39
f 39/39/39 31/31/31 29/29/29
f 36/36/36 37/37/37 35/35/35
f 35/35/35 37/37/37 34/34/34
f 34/34/34 32/32/32 35/35/35
f 35/35/35 32/32/32 33/33/33
f 32/32/32 30/30/30 33/33/33
f 33/33/33 30/30/30 31/31/31
f 30/30/30 29/29/29 31/31/31
f 28/28/28 29/29/29 30/30/30
f 48/48/48 28/28/28 30/30/30
f 47/47/47 28/28/28 48/48/48
f 47/47/47 48/48/48 49/49/49
f 34/34/34 37/37/37 44/44/44
f 44/44/44 51/51/51 34/34/34
f 34/34/34 51/51/51 32/32/32
f 51/51/51 48/48/48 32/32/32
f 32/32/32 48/48/48 30/30/30
f 44/44/44 37/37/37 46/46/46
f 45/45/45 44/44/44 46/46/46
f 43/43/43 44/44/44 45/45/45
f 44/44/44 43/43/43 51/51/51
f 51/51/51 43/43/43 52/52/52
f 50/50/50 51/51/51 52/52/52
f 48/48/48 51/51/51 50/50/50
f 49/49/49 48/48/48 50/50/50
f 49/49/49 50/50/50 53/53/53
f 50/50/50 52/52/52 53/53/53
f 54/54/54 43/43/43 45/45/45
f 52/52/52 43/43/43 54/54/54
f 19/19/19 17/17/17 20/20/20
f 18/18/18 17/17/17 19/19/19
f 17/17/17 18/18/18 15/15/15
f 15/15/15 18/18/18 16/16/16
f 14/14/14 15/15/15 16/16/16
f 12/12/12 15/15/15 14/14/14
f 13/13/13 12/12/12 14/14/14
f 11/11/11 12/12/12 13/13/13
f 19/19/19 9/9/9 18/18/18
f 18/18/18 9/9/9 8/8/8
f 8/8/8 16/16/16 18/18/18
f 6/6/6 16/16/16 8/8/8
f 6/6/6 3/3/3 16/16/16
f 16/16/16 3/3/3 14/14/14
f 3/3/3 4/4/4 14/14/14
f 14/14/14 4/4/4 13/13/13
f 9/9/9 10/10/10 8/8/8
f 8/8/8 10/10/10 7/7/7
f 7/7/7 6/6/6 8/8/8
f 5/5/5 6/6/6 7/7/7
f 5/5/5 1/1/1 6/6/6
f 6/6/6 1/1/1 3/3/3
f 1/1/1 2/2/2 3/3/3
f 3/3/3 2/2/2 4/4/4
f 22/22/22 7/7/7 10/10/10
f 21/21/21 7/7/7 22/22/22
f 7/7/7 21/21/21 5/5/5
f 5/5/5 21/21/21 25/25/25
f 24/24/24 5/5/5 25/25/25
f 1/1/1 5/5/5 24/24/24
f 23/23/23 1/1/1 24/24/24
f 2/2/2 1/1/1 23/23/23
f 27/27/27 21/21/21 22/22/22
f 25/25/25 21/21/21 27/27/27
f 23/23/23 24/24/24 26/26/26
f 24/24/24 25/25/25 26/26/26

#
# MESH 001
#
g surface_001
usemtl surface_001
f 87/87/87 85/85/85 104/104/104
f 87/87/87 88/88/88 85/85/85
f 88/88/88 86/86/86 85/85/85
f 84/84/84 85/85/85 86/86/86
f 84/84/84 103/103/103 85/85/85
f 85/85/85 103/103/103 104/104/104
f 104/104/104 103/103/103 101/101/101
f 102/102/102 104/104/104 101/101/101
f 102/102/102 101/101/101 100/100/100
f 89/89/89 86/86/86 88/88/88
f 84/84/84 86/86/86 89/89/89
f 90/90/90 89/89/89 88/88/88
f 90/90/90 92/92/92 89/89/89
f 92/92/92 91/91/91 89/89/89
f 84/84/84 89/89/89 91/91/91
f 84/84/84 91/91/91 93/93/93
f 84/84/84 93/93/93 95/95/95
f 84/84/84 95/95/95 97/97/97
f 84/84/84 97/97/97 99/99/99
f 84/84/84 99/99/99 101/101/101
f 84/84/84 101/101/101 103/103/103
f 91/91/91 92/92/92 93/93/93
f 94/94/94 93/93/93 92/92/92
f 94/94/94 96/96/96 93/93/93
f 96/96/96 95/95/95 93/93/93
f 95/95/95 96/96/96 97/97/97
f 98/98/98 97/97/97 96/96/96
f 98/98/98 100/100/100 97/97/97
f 100/100/100 99/99/99 97/97/97
f 99/99/99 100/100/100 101/101/101
f 66/66/66 64/64/64 83/83/83
f 66/66/66 67/67/67 64/64/64
f 67/67/67 65/65/65 64/64/64
f 63/63/63 64/64/64 65/65/65
f 63/63/63 82/82/82 64/64/64
f 64/64/64 82/82/82 83/83/83
f 83/83/83 82/82/82 80/80/80
f 81/81/81 83/83/83 80/80/80
f 81/81/81 80/80/80 79/79/79
f 68/68/68 65/65/65 67/67/67
f 63/63/63 65/65/65 68/68/68
f 69/69/69 68/68/68 67/67/67
f 69/69/69 71/71/71 68/68/68
f 71/71/71 70/70/70 68/68/68
f 63/63/63 68/68/68 70/70/70
f 63/63/63 70/70/70 72/72/72
f 63/63/63 72/72/72 74/74/74
f 63/63/63 74/74/74 76/76/76
f 63/63/63 76/76/76 78/78/78
f 63/63/63 78/78/78 80/80/80
f 63/63/63 80/80/80 82/82/82
f 70/70/70 71/71/71 72/72/72
f 73/73/73 72/72/72 71/71/71
f 73/73/73 75/75/75 72/72/72
f 75/75/75 74/74/74 72/72/72
f 74/74/74 75/75/75 76/76/76
f 77/77/77 76/76/76 75/75/75
f 77/77/77 79/79/79 76/76/76
f 79/79/79 78/78/78 76/76/76
f 78/78/78 79/79/79 80/80/80

