#
# OBJECT NAME
#
o model_2304
mtllib 2304.mtl

#
# VERTEX BUFFER 000
#
v 0 0.0902319 0.0633818
v 0.0633817 0.0902319 -0.0223305
v 0.0633817 0.888318 -0.0223305
v 0 0.8435 0.0633818
v -0.0633817 0.888318 -0.0223305
v -0.0633817 0.0902319 -0.0223305
v -0.0633817 0.888318 -0.0223305
v -0.0633817 0.0902319 -0.0223305
v 0.321753 0 0
v 0.321753 0.0491102 0
v 0 0.0491102 0.321754
v 0 0 0.321754
v 0.321753 0.0491102 0
v 0.321753 0 0
v 0 0 -0.321753
v 0 0.0491102 -0.321753
v -0.321753 0 0
v -0.321753 0.0491102 0
v 0 0 0.321754
v 0 0.0491102 0.321754
v 0.321753 0 0
v 0 0 0.321754
v 0 0 -0.321753
v -0.321753 0 0
v 0 0.110469 0
v 0 0.0491102 0.321754
v 0.321753 0.0491102 0
v 0 0.110469 0
v 0 0.0491102 -0.321753
v 0 0.110469 0
v -0.321753 0.0491102 0
v 0 0.110469 0

vn 0 0 1
vn 0.999512 0 -0.00818634
vn 0.987305 0 -0.157593
vn 0 0 1
vn 0 0 -1
vn 0 0 -1
vn -0.987305 0 -0.157593
vn -0.999512 0 -0.00818634
vn 1 0 0
vn 1 0 0
vn 0 0 1
vn 0 0 1
vn 1 0 0
vn 1 0 0
vn 0 0 -1
vn 0 0 -1
vn -1 0 0
vn -1 0 0
vn 0 0 1
vn 0 0 1
vn 0 -1 0
vn 0 -1 0
vn 0 -1 0
vn 0 -1 0
vn 0 0.972656 0.230957
vn 0 0.972656 0.230957
vn 0.230957 0.972656 0
vn 0.230957 0.972656 0
vn 0 0.972656 -0.230957
vn 0 0.972656 -0.230957
vn -0.230957 0.972656 0
vn -0.230957 0.972656 0

vt 0.106806 0.056963
vt 0.15889 0.0569631
vt 0.15889 0.522567
vt 0.106806 0.496525
vt 0.210973 0.548608
vt 0.210973 0.056963
vt 0.0547226 0.522567
vt 0.0547226 0.056963
vt 0.155769 0.0132325
vt 0.155769 0.0378481
vt 0.85054 0.0378481
vt 0.85054 0.0132325
vt 0.155769 0.0378481
vt 0.155769 0.0132325
vt 0.387359 0.0132325
vt 0.387359 0.0378481
vt 0.618949 0.0132325
vt 0.618949 0.0378481
vt 0.85054 0.0132325
vt 0.85054 0.0378481
vt 0.372227 0.293304
vt 0.259461 0.180538
vt 0.484993 0.180538
vt 0.372227 0.067772
vt 0.369423 0.42887
vt 0.359416 0.539109
vt 0.259184 0.418863
vt 0.369423 0.42887
vt 0.379429 0.31863
vt 0.369423 0.42887
vt 0.479662 0.438876
vt 0.369423 0.42887


#
# VERTEX BUFFER 001
#
v 0.457842 1.18774 -0.113042
v 0.457842 0.619851 0.190589
v 0.457842 0.573038 0.103033
v 0.457842 1.14093 -0.200598
v -0.457842 0.573038 0.103033
v 0.457842 0.573038 0.103033
v 0.457842 0.619851 0.190589
v -0.457842 0.619851 0.190589
v 0.457842 1.14093 -0.200598
v -0.457842 1.14093 -0.200598
v -0.457842 1.18774 -0.113042
v 0.457842 1.18774 -0.113042
v -0.457842 1.18774 -0.113042
v -0.457842 0.619851 0.190589
v 0.457842 0.619851 0.190589
v 0.457842 1.18774 -0.113042
v -0.457842 1.14093 -0.200598
v 0.457842 1.14093 -0.200598
v 0.457842 0.573038 0.103033
v -0.457842 0.573038 0.103033
v -0.457842 1.18774 -0.113042
v -0.457842 1.14093 -0.200598
v -0.457842 0.573038 0.103033
v -0.457842 0.619851 0.190589

vn 1 0 0
vn 1 0 0
vn 1 0 0
vn 1 0 0
vn 0 -0.881836 0.471436
vn 0 -0.881836 0.471436
vn 0 -0.881836 0.471436
vn 0 -0.881836 0.471436
vn 0 0.881836 -0.471436
vn 0 0.881836 -0.471436
vn 0 0.881836 -0.471436
vn 0 0.881836 -0.471436
vn 3.57628e-007 0.471436 0.881836
vn 3.57628e-007 0.471436 0.881836
vn -1.78814e-007 0.471436 0.881836
vn -1.78814e-007 0.471436 0.881836
vn 0 -0.471436 -0.881836
vn 0 -0.471436 -0.881836
vn 0 -0.471436 -0.881836
vn 0 -0.471436 -0.881836
vn -1 0 0
vn -1 0 0
vn -1 0 0
vn -1 0 0

vt 0.813292 0.611131
vt 0.813291 0.985059
vt 0.758108 0.985059
vt 0.758108 0.611131
vt 0.679783 0.584423
vt 0.679783 0.988462
vt 0.63245 0.988462
vt 0.63245 0.584423
vt 0.620564 0.584423
vt 0.620564 0.988462
vt 0.573231 0.988462
vt 0.573231 0.584423
vt 0.00877988 0.983422
vt 0.00878 0.56671
vt 0.557207 0.56671
vt 0.557207 0.983422
vt 0.984734 0.469194
vt 0.50441 0.469195
vt 0.50441 0.0967631
vt 0.984734 0.0967628
vt 0.692027 0.611131
vt 0.747211 0.611131
vt 0.747211 0.985059
vt 0.692027 0.985059


#
# MESH 000
#
g surface_000
usemtl surface_000
f 4/4/4 7/7/7 8/8/8
f 4/4/4 8/8/8 1/1/1
f 1/1/1 3/3/3 4/4/4
f 1/1/1 2/2/2 3/3/3
f 5/5/5 3/3/3 2/2/2
f 5/5/5 2/2/2 6/6/6
f 32/32/32 31/31/31 26/26/26
f 30/30/30 29/29/29 31/31/31
f 28/28/28 27/27/27 29/29/29
f 25/25/25 26/26/26 27/27/27
f 24/24/24 23/23/23 22/22/22
f 21/21/21 22/22/22 23/23/23
f 18/18/18 19/19/19 20/20/20
f 18/18/18 17/17/17 19/19/19
f 16/16/16 17/17/17 18/18/18
f 16/16/16 15/15/15 17/17/17
f 13/13/13 15/15/15 16/16/16
f 13/13/13 14/14/14 15/15/15
f 9/9/9 11/11/11 12/12/12
f 9/9/9 10/10/10 11/11/11

#
# MESH 001
#
g surface_001
usemtl surface_001
f 53/53/53 55/55/55 56/56/56
f 53/53/53 54/54/54 55/55/55
f 49/49/49 51/51/51 52/52/52
f 49/49/49 50/50/50 51/51/51
f 45/45/45 47/47/47 48/48/48
f 45/45/45 46/46/46 47/47/47
f 41/41/41 43/43/43 44/44/44
f 41/41/41 42/42/42 43/43/43
f 37/37/37 39/39/39 40/40/40
f 37/37/37 38/38/38 39/39/39
f 33/33/33 35/35/35 36/36/36
f 33/33/33 34/34/34 35/35/35

