#
# OBJECT NAME
#
o model_2305
mtllib 2305.mtl

#
# VERTEX BUFFER 000
#
v 0 0.110469 0.0633818
v 0.0633817 0.110469 0
v 0.0633817 0.876462 0
v 0 0.831644 0.0633818
v 0 0.921279 -0.0633817
v 0 0.110469 -0.0633817
v -0.0633817 0.876462 0
v 0 0.921279 -0.0633817
v 0 0.110469 -0.0633817
v -0.0633817 0.110469 0
v -0.0633817 0.876462 0
v -0.0633817 0.110469 0
v 0.227514 0 0.227514
v 0.321753 0 0
v 0.321753 0.0491102 0
v 0.227514 0.0491102 0.227514
v 0.227514 0 -0.227514
v 0.227514 0.0491102 -0.227514
v 0 0 -0.321753
v 0 0.0491102 -0.321753
v -0.227514 0 -0.227514
v -0.227514 0.0491102 -0.227514
v -0.321753 0 0
v -0.321753 0.0491102 0
v -0.227514 0 0.227514
v -0.227514 0.0491102 0.227514
v 0 0 0.321754
v 0 0.0491102 0.321754
v 0.227514 0 0.227514
v 0.227514 0.0491102 0.227514
v 0.321753 0 0
v 0.227514 0 0.227514
v 0 0 0
v 0.227514 0 -0.227514
v 0 0 -0.321753
v -0.227514 0 -0.227514
v -0.321753 0 0
v -0.227514 0 0.227514
v 0 0 0.321754
v 0 0.0491102 0.321754
v 0.227514 0.0491102 0.227514
v 0.0633817 0.110469 0
v 0 0.110469 0.0633818
v 0.321753 0.0491102 0
v 0.227514 0.0491102 -0.227514
v 0 0.110469 -0.0633817
v 0.0633817 0.110469 0
v 0 0.0491102 -0.321753
v -0.227514 0.0491102 -0.227514
v -0.0633817 0.110469 0
v 0 0.110469 -0.0633817
v -0.321753 0.0491102 0
v -0.227514 0.0491102 0.227514
v 0 0.110469 0.0633818
v -0.0633817 0.110469 0

vn 0 0 1
vn 0.999512 0 -0.00818634
vn 0.987305 0 -0.157593
vn 0 0 1
vn 0 0 -1
vn 0 0 -1
vn -0.987305 0 -0.157593
vn 0 0 -1
vn 0 0 -1
vn -0.999512 0 -0.00818634
vn -0.987305 0 -0.157593
vn -0.999512 0 -0.00818634
vn 0.707031 0 0.707031
vn 1 0 0
vn 1 0 0
vn 0.707031 0 0.707031
vn 0.707031 0 -0.707031
vn 0.707031 0 -0.707031
vn 0 0 -1
vn 0 0 -1
vn -0.707031 0 -0.707031
vn -0.707031 0 -0.707031
vn -1 0 0
vn -1 0 0
vn -0.707031 0 0.707031
vn -0.707031 0 0.707031
vn 0 0 1
vn 0 0 1
vn 0.707031 0 0.707031
vn 0.707031 0 0.707031
vn 0 -1 0
vn 0 -1 0
vn 0 -1 0
vn 0 -1 0
vn 0 -1 0
vn 0 -1 0
vn 0 -1 0
vn 0 -1 0
vn 0 -1 0
vn 0 0.972656 0.230957
vn 0.16333 0.972656 0.16333
vn 0.16333 0.972656 0.16333
vn 0 0.972656 0.230957
vn 0.230957 0.972656 0
vn 0.16333 0.972656 -0.16333
vn 0.16333 0.972656 -0.16333
vn 0.230957 0.972656 0
vn 0 0.972656 -0.230957
vn -0.16333 0.972656 -0.16333
vn -0.16333 0.972656 -0.16333
vn 0 0.972656 -0.230957
vn -0.230957 0.972656 0
vn -0.16333 0.972656 0.16333
vn -0.16333 0.972656 0.16333
vn -0.230957 0.972656 0

vt 0.106806 0.056963
vt 0.15889 0.0569631
vt 0.15889 0.522567
vt 0.106806 0.496525
vt 0.210973 0.548608
vt 0.210973 0.056963
vt 0.00379796 0.496525
vt 0.0547226 0.522567
vt 0.0547226 0.056963
vt 0.00379796 0.0569629
vt 0.0547226 0.522567
vt 0.0547226 0.056963
vt 0.0399741 0.0132325
vt 0.155769 0.0132325
vt 0.155769 0.0378481
vt 0.0399741 0.0378481
vt 0.271564 0.0132325
vt 0.271564 0.0378481
vt 0.387359 0.0132325
vt 0.387359 0.0378481
vt 0.503154 0.0132325
vt 0.503154 0.0378481
vt 0.618949 0.0132325
vt 0.618949 0.0378481
vt 0.734744 0.0132325
vt 0.734744 0.0378481
vt 0.85054 0.0132325
vt 0.85054 0.0378481
vt 0.966335 0.0132325
vt 0.966335 0.0378481
vt 0.372227 0.293304
vt 0.292489 0.260276
vt 0.372227 0.180538
vt 0.451965 0.260276
vt 0.484993 0.180538
vt 0.451965 0.1008
vt 0.372227 0.067772
vt 0.292489 0.1008
vt 0.259461 0.180538
vt 0.359416 0.539109
vt 0.284396 0.499745
vt 0.35019 0.434865
vt 0.375418 0.448102
vt 0.259184 0.418863
vt 0.298547 0.343843
vt 0.363427 0.409637
vt 0.35019 0.434865
vt 0.379429 0.31863
vt 0.454449 0.357994
vt 0.388655 0.422874
vt 0.363427 0.409637
vt 0.479662 0.438876
vt 0.440298 0.513896
vt 0.375418 0.448102
vt 0.388655 0.422874


#
# VERTEX BUFFER 001
#
v 0.457842 1.18774 -0.113042
v 0.457842 0.619851 0.190589
v 0.457842 0.573038 0.103033
v 0.457842 1.14093 -0.200598
v -0.457842 0.573038 0.103033
v 0.457842 0.573038 0.103033
v 0.457842 0.619851 0.190589
v -0.457842 0.619851 0.190589
v 0.457842 1.14093 -0.200598
v -0.457842 1.14093 -0.200598
v -0.457842 1.18774 -0.113042
v 0.457842 1.18774 -0.113042
v -0.457842 1.18774 -0.113042
v -0.457842 0.619851 0.190589
v 0.457842 0.619851 0.190589
v 0.457842 1.18774 -0.113042
v -0.457842 1.14093 -0.200598
v 0.457842 1.14093 -0.200598
v 0.457842 0.573038 0.103033
v -0.457842 0.573038 0.103033
v -0.457842 1.18774 -0.113042
v -0.457842 1.14093 -0.200598
v -0.457842 0.573038 0.103033
v -0.457842 0.619851 0.190589

vn 1 0 0
vn 1 0 0
vn 1 0 0
vn 1 0 0
vn 0 -0.881836 0.471436
vn 0 -0.881836 0.471436
vn 0 -0.881836 0.471436
vn 0 -0.881836 0.471436
vn 0 0.881836 -0.471436
vn 0 0.881836 -0.471436
vn 0 0.881836 -0.471436
vn 0 0.881836 -0.471436
vn 3.57628e-007 0.471436 0.881836
vn 3.57628e-007 0.471436 0.881836
vn -1.78814e-007 0.471436 0.881836
vn -1.78814e-007 0.471436 0.881836
vn 0 -0.471436 -0.881836
vn 0 -0.471436 -0.881836
vn 0 -0.471436 -0.881836
vn 0 -0.471436 -0.881836
vn -1 0 0
vn -1 0 0
vn -1 0 0
vn -1 0 0

vt 0.813292 0.611131
vt 0.813291 0.985059
vt 0.758108 0.985059
vt 0.758108 0.611131
vt 0.679783 0.584423
vt 0.679783 0.988462
vt 0.63245 0.988462
vt 0.63245 0.584423
vt 0.620564 0.584423
vt 0.620564 0.988462
vt 0.573231 0.988462
vt 0.573231 0.584423
vt 0.00877988 0.983422
vt 0.00878 0.56671
vt 0.557207 0.56671
vt 0.557207 0.983422
vt 0.984734 0.469194
vt 0.50441 0.469195
vt 0.50441 0.0967631
vt 0.984734 0.0967628
vt 0.692027 0.611131
vt 0.747211 0.611131
vt 0.747211 0.985059
vt 0.692027 0.985059


#
# MESH 000
#
g surface_000
usemtl surface_000
f 4/4/4 11/11/11 12/12/12
f 4/4/4 12/12/12 1/1/1
f 1/1/1 3/3/3 4/4/4
f 1/1/1 2/2/2 3/3/3
f 5/5/5 3/3/3 2/2/2
f 5/5/5 2/2/2 6/6/6
f 7/7/7 9/9/9 10/10/10
f 7/7/7 8/8/8 9/9/9
f 53/53/53 40/40/40 54/54/54
f 52/52/52 53/53/53 54/54/54
f 52/52/52 54/54/54 55/55/55
f 49/49/49 52/52/52 50/50/50
f 48/48/48 49/49/49 50/50/50
f 48/48/48 50/50/50 51/51/51
f 45/45/45 48/48/48 46/46/46
f 44/44/44 45/45/45 46/46/46
f 44/44/44 46/46/46 47/47/47
f 41/41/41 44/44/44 42/42/42
f 40/40/40 41/41/41 42/42/42
f 40/40/40 42/42/42 43/43/43
f 27/27/27 29/29/29 30/30/30
f 27/27/27 30/30/30 28/28/28
f 25/25/25 27/27/27 28/28/28
f 25/25/25 28/28/28 26/26/26
f 23/23/23 25/25/25 26/26/26
f 23/23/23 26/26/26 24/24/24
f 21/21/21 23/23/23 24/24/24
f 21/21/21 24/24/24 22/22/22
f 19/19/19 21/21/21 22/22/22
f 19/19/19 22/22/22 20/20/20
f 17/17/17 19/19/19 20/20/20
f 17/17/17 20/20/20 18/18/18
f 14/14/14 17/17/17 18/18/18
f 14/14/14 18/18/18 15/15/15
f 13/13/13 14/14/14 15/15/15
f 13/13/13 15/15/15 16/16/16
f 32/32/32 39/39/39 33/33/33
f 39/39/39 38/38/38 33/33/33
f 38/38/38 37/37/37 33/33/33
f 37/37/37 36/36/36 33/33/33
f 36/36/36 35/35/35 33/33/33
f 35/35/35 34/34/34 33/33/33
f 34/34/34 31/31/31 33/33/33
f 31/31/31 32/32/32 33/33/33

#
# MESH 001
#
g surface_001
usemtl surface_001
f 76/76/76 78/78/78 79/79/79
f 76/76/76 77/77/77 78/78/78
f 72/72/72 74/74/74 75/75/75
f 72/72/72 73/73/73 74/74/74
f 68/68/68 70/70/70 71/71/71
f 68/68/68 69/69/69 70/70/70
f 64/64/64 66/66/66 67/67/67
f 64/64/64 65/65/65 66/66/66
f 60/60/60 62/62/62 63/63/63
f 60/60/60 61/61/61 62/62/62
f 56/56/56 58/58/58 59/59/59
f 56/56/56 57/57/57 58/58/58

