#
# OBJECT NAME
#
o model_4202
mtllib 4202.mtl

#
# VERTEX BUFFER 000
#
v 0.0585909 -5.36442e-007 0.219388
v -0.00147542 0.122322 0.220765
v 0.00387612 -5.36442e-007 0.374006
v -0.040366 0.122456 0.33668
v -0.191223 0.122322 0.394532
v -0.21285 -5.36442e-007 0.453972
v -0.173093 0.159862 0.224701
v -0.197056 0.0985181 0.0558067
v -0.343659 0.0985181 0.229573
v -0.404776 -5.36442e-007 0.230015
v -0.206863 -5.36442e-007 -0.00456938
v 0.0467338 0.0692483 -0.164495
v 0.145052 0.0692483 -0.323347
v -0.00160155 -5.36442e-007 -0.155963
v 0.131128 -5.36442e-007 -0.370414
v 0.184835 0.130319 -0.188873
v 0.224618 0.10332 -0.0543977
v 0.304907 0.10329 -0.114557
v 0.322936 0.10332 -0.21325
v 0.344931 -0.0013561 -0.0897848
v 0.238542 -0.0013561 -0.00733134
v 0.371272 -0.0013561 -0.221782
v -0.14307 0.0627621 -0.171683
v -0.10663 -5.36442e-007 -0.138971
v -0.130214 0.0627621 -0.29647
v -0.0846759 -5.36442e-007 -0.329382
v -0.199356 0.0860247 -0.235148
v -0.255643 0.0627621 -0.298613
v -0.268498 0.0627621 -0.173826
v -0.281447 -5.36442e-007 -0.340792
v -0.31305 -5.36442e-007 -0.142861
v 0.131128 -5.36442e-007 -0.370414
v 0.371272 -0.0013561 -0.221782
v -0.00160155 -5.36442e-007 -0.155963
v 0.344931 -0.0013561 -0.0897848
v 0.238542 -0.0013561 -0.00733134
v -0.0846759 -5.36442e-007 -0.329382
v -0.10663 -5.36442e-007 -0.138971
v -0.281447 -5.36442e-007 -0.340792
v -0.31305 -5.36442e-007 -0.142861
v -0.206863 -5.36442e-007 -0.00456938
v 0.0585909 -5.36442e-007 0.219388
v -0.404776 -5.36442e-007 0.230015
v 0.00387612 -5.36442e-007 0.374006
v -0.21285 -5.36442e-007 0.453972

vn 0.814941 0.427979 -0.390381
vn 0.708984 0.580566 -0.399658
vn 0.607422 0.423096 0.671875
vn 0.520508 0.615234 0.591309
vn -0.22937 0.629883 0.741211
vn -0.290527 0.468506 0.833984
vn -0.0826416 0.991211 -0.102661
vn 0.0213318 0.609863 -0.791992
vn -0.770996 0.635742 0.0272064
vn -0.853027 0.520508 0.0323486
vn -0.00150299 0.498047 -0.866699
vn -0.72998 0.621582 0.283203
vn -0.0720825 0.621582 -0.779785
vn -0.797852 0.52002 0.303467
vn -0.0843506 0.52002 -0.849609
vn -0.167847 0.97998 -0.103882
vn -0.146118 0.595215 0.789551
vn 0.664063 0.624023 0.410889
vn 0.641602 0.595215 -0.483154
vn 0.772461 0.417236 0.478027
vn -0.0990601 0.43335 0.895508
vn 0.757324 0.43335 -0.488037
vn 0.455811 0.686035 0.566406
vn 0.534668 0.617676 0.576172
vn 0.501953 0.730957 -0.461914
vn 0.572266 0.67627 -0.462891
vn -2.98023e-007 1 7.15256e-007
vn -0.487305 0.69043 -0.533691
vn -0.525391 0.695801 0.489014
vn -0.473877 0.620605 -0.624023
vn -0.60791 0.629883 0.483154
vn -0.00407791 -0.999512 -0.00252533
vn -0.00391388 -0.999512 -0.0015974
vn -0.00388527 -0.999512 -0.00240517
vn -0.00358582 -0.999512 -0.00169849
vn -0.00313759 -0.999512 -0.00404739
vn 0 -1 0
vn 0 -1 0
vn 0 -1 0
vn 0 -1 0
vn 0 -1 0
vn 0 -1 0
vn 0 -1 0
vn 0 -1 0
vn 0 -1 0

vt 0.917748 0.160725
vt 0.858036 0.132595
vt 0.972626 0.0966254
vt 0.887897 0.0961356
vt 0.859731 0.059341
vt 0.920729 0.0319086
vt 0.77813 0.0954886
vt 0.692251 0.131636
vt 0.693945 0.0583825
vt 0.634233 0.0302521
vt 0.631253 0.159069
vt 0.693945 0.0583825
vt 0.692251 0.131636
vt 0.634233 0.0302521
vt 0.631253 0.159069
vt 0.77813 0.0954886
vt 0.859731 0.059341
vt 0.887897 0.0961356
vt 0.858036 0.132595
vt 0.972626 0.0966254
vt 0.920729 0.0319086
vt 0.917748 0.160725
vt 0.886953 0.217167
vt 0.8874 0.191832
vt 0.94527 0.244184
vt 0.996754 0.244483
vt 0.886584 0.243844
vt 0.886526 0.270521
vt 0.827538 0.243504
vt 0.8874 0.295856
vt 0.77564 0.243205
vt 0.631253 0.159069
vt 0.917748 0.160725
vt 0.634233 0.0302521
vt 0.972626 0.0966254
vt 0.920729 0.0319086
vt 0.996754 0.244483
vt 0.8874 0.191832
vt 0.8874 0.295856
vt 0.77564 0.243205
vt 0.631253 0.159069
vt 0.917748 0.160725
vt 0.634233 0.0302521
vt 0.972626 0.0966254
vt 0.920729 0.0319086


#
# VERTEX BUFFER 001
#
v 0.0425371 0.173645 -0.18162
v 0.102186 0.139916 -0.528704
v -0.15628 0.302409 -0.331785
v -0.205516 0.235366 -0.0394657
v -0.697547 0.43243 -0.0961775
v -0.371617 0.390416 -0.117286
v -0.581787 0.478949 -0.36299
v -0.153018 0.187751 -0.0182016
v -0.128599 0.199827 -0.0775688
v -0.870496 0.463531 -0.3269
v -0.437845 0.331853 -0.0119507
v -0.331602 0.375937 -0.248539
v -0.00988579 0 0.00787282
v 0.0154995 0 -0.0491767
v -0.348975 0.318495 0.0807574
v -0.311359 0.296341 0.411442
v -0.111254 0.237029 0.158324
v -0.168887 0.213209 -0.112507
v -0.0807719 0.454556 -0.34411
v -0.473241 0.394728 -0.292128
v -0.15872 0.322759 -0.0656339
v 0.162113 0.290839 -0.160758
v 0.116713 0.597079 -0.528416
v -0.264014 0.601686 -0.70582
v -0.14133 0.510594 -0.319334
v 0.197856 0.407631 -0.21419
v 0.25091 0.637646 -0.603042
v 0.195776 0.49081 -0.276882
v 0.505383 0.635678 -0.413404
v 0.534742 0.677372 -0.720135
v -0.0279925 0 -0.0459242
v 0.0301551 0 -0.00165653
v 0.0507822 0.245055 -0.147759
v 0.110528 0.245519 -0.102858
v 0.0992119 0.454834 -0.383361
v 0.32408 0.455135 -0.210783
v 0.311334 0.10624 0.0547218
v 0.209785 0.170034 0.141754
v 0.550146 0.226058 0.240246
v 0.64352 0.197875 0.538336
v 0.339075 0.274026 0.472347
v 0.120712 0.152116 0.259434
v -0.0256901 0 0.00594425
v 0.0200902 0 -0.0427244
v 0.406556 0.19907 0.103601
v 0.681369 0.225719 -0.201869
v 0.272021 0.188732 -0.198497
v 0.0702696 0.0644024 0.0786896
v -0.191199 0.295935 -0.0173504
v -0.551903 0.274675 0.0368645
v -0.26041 0.359111 0.25564
v 0.0332023 0.293998 0.180736
v 0.153918 0.380347 0.37094
v 0.514798 0.28827 0.363267
v 0.245138 0.270038 0.120309
v -0.0511932 0.291709 0.155754
v 0.0981681 0.528431 0.524428
v 0.454896 0.580234 0.558964
v 0.249181 0.46302 0.287317
v -0.0508707 0.395646 0.287769
v -0.271653 0.417322 0.196512
v -0.575874 0.516476 0.354574
v -0.219957 0.55299 0.436343
v 0.014779 0.40794 0.301958
v 0.0456825 0.548231 0.70262
v -0.0270667 0.48679 0.376746
v -0.243182 0.597207 0.622816
v 0.0472363 0.222862 0.111494
v -0.0282004 0.235937 0.0898321
v 0.0399548 0 -0.026711
v -0.0292687 0 -0.0465481
v -0.162083 0.596967 0.912049
v 0.0893329 0.427281 0.431613
v -0.167307 0.473417 0.357015
v -0.157506 0.19136 0.216346
v -0.18045 0.258963 0.610798
v 0.139825 0.238181 0.35069
v 0.123141 0.0584853 0.0227323
v -0.531367 0.392087 -0.0110842
v -0.630377 0.394653 0.328853
v -0.319744 0.348905 0.167826
v -0.266178 0.310682 -0.122205
v -0.149022 0.345395 -0.314972
v -0.280117 0.343369 -0.642647
v -0.42468 0.397038 -0.316959
v -0.288612 0.320541 -0.0573679
v 0.17042 0.263817 0.109305
v 0.503797 0.310903 0.298096
v 0.371623 0.43092 -0.056735
v 0.0990291 0.297974 -0.200938
v 0.3597 0.425363 0.0122313
v 0.798977 0.407279 -0.000611424
v 0.480708 0.532218 -0.294778
v 0.12294 0.42555 -0.259476

vn 0.473389 0.87207 0.121033
vn 0.537598 0.842773 0.0105362
vn 0.473877 0.87207 0.120239
vn 0.373779 0.888184 0.266602
vn 0.0714111 0.970215 0.230835
vn 0.338379 0.886719 0.313477
vn 0.0917969 0.978516 0.182007
vn 0.606934 0.67041 0.425781
vn 0.647949 0.689453 0.32251
vn -0.032959 0.986816 0.157715
vn 0.247437 0.771973 0.584961
vn 0.483398 0.873535 0.0510254
vn 0.720703 0.585938 0.369141
vn 0.720703 0.585938 0.369141
vn 0.339111 0.938965 -0.0530701
vn 0.315918 0.948242 0.0275879
vn 0.339111 0.938965 -0.0534058
vn 0.365967 0.916992 -0.158447
vn 0.0498962 0.896973 0.438477
vn -0.0847778 0.90918 0.406738
vn 0.051239 0.896973 0.438721
vn 0.223633 0.85498 0.467285
vn -0.0110168 0.928711 0.370361
vn -0.109985 0.958984 0.260742
vn -0.0105743 0.928223 0.37085
vn 0.109497 0.863281 0.492188
vn -0.224731 0.9375 0.26416
vn -0.376465 0.783203 0.494141
vn -0.180664 0.937988 0.295654
vn -0.0863037 0.987793 0.125977
vn -0.534668 0.465332 0.70459
vn -0.534668 0.465332 0.70459
vn -0.550293 0.538574 0.637207
vn -0.466309 0.539551 0.700195
vn -0.621582 0.713379 0.322754
vn -0.150635 0.717285 0.679688
vn -0.0120697 0.799316 -0.600098
vn -0.195068 0.904785 -0.378174
vn 0.0586243 0.97998 -0.187744
vn 0.239136 0.970703 0.016861
vn 0.0226898 0.988281 -0.147827
vn -0.418945 0.88916 -0.181641
vn -0.430908 0.846191 -0.312256
vn -0.269775 0.830078 -0.487549
vn -0.22229 0.972656 0.0657349
vn -0.0899048 0.995605 0.00597
vn -0.221436 0.972656 0.0653076
vn -0.376953 0.916016 0.136475
vn 0.0169525 0.974609 -0.221313
vn -0.0939331 0.964355 -0.246948
vn 0.0161591 0.974609 -0.221436
vn 0.168457 0.96875 -0.181396
vn 0.140869 0.923828 -0.355225
vn 0.227539 0.918945 -0.321533
vn 0.140259 0.923828 -0.355469
vn 0.0196533 0.91748 -0.396729
vn -0.147827 0.924805 -0.349365
vn -0.104858 0.939453 -0.325928
vn -0.147949 0.924805 -0.349365
vn -0.203247 0.902832 -0.378418
vn 0.107361 0.85498 -0.506836
vn 0.0249786 0.867676 -0.496094
vn 0.109619 0.854492 -0.506836
vn 0.216919 0.828613 -0.515625
vn 0.236572 0.95752 -0.162598
vn 0.278809 0.849609 -0.447021
vn 0.185425 0.966309 -0.176025
vn 0.341064 0.606445 -0.717773
vn 0.252441 0.619629 -0.742676
vn 0.281006 0.489014 -0.825684
vn 0.281006 0.489014 -0.825684
vn 0.180176 0.981934 -0.0497131
vn 0.558105 0.732422 -0.38916
vn -0.00226212 0.834961 -0.549805
vn -0.00454712 0.947266 -0.320068
vn -0.0765381 0.981934 -0.172729
vn -0.0038414 0.946777 -0.321289
vn 0.0804443 0.87207 -0.481934
vn 0.20813 0.977539 -0.0102615
vn 0.16626 0.984863 0.0410156
vn 0.208252 0.977539 -0.0103073
vn 0.262207 0.961426 -0.0782471
vn 0.183716 0.981934 0.0362244
vn 0.184082 0.979492 -0.0797119
vn 0.183716 0.981934 0.035553
vn 0.179443 0.964844 0.190308
vn -0.427002 0.841797 0.329834
vn -0.353516 0.837891 0.415039
vn -0.425781 0.841797 0.331055
vn -0.516113 0.830078 0.210083
vn -0.0822144 0.950684 0.29834
vn 0.0486755 0.937012 0.345215
vn -0.0808716 0.950684 0.298828
vn -0.257813 0.939453 0.225342

vt 0.682441 0.790338
vt 0.507431 0.99737
vt 0.327286 0.790338
vt 0.507431 0.626471
vt 0.0367139 0.846521
vt 0.173005 0.68489
vt 0.316625 0.847201
vt 0.140095 0.534966
vt 0.201784 0.534966
vt 0.173005 0.97607
vt 0.0438602 0.68489
vt 0.296718 0.68489
vt 0.140095 0.417693
vt 0.201784 0.417693
vt 1.01305 0.790338
vt 0.838035 0.99737
vt 0.65789 0.790338
vt 0.838035 0.626471
vt 0.682441 0.790338
vt 0.507431 0.99737
vt 0.327286 0.790338
vt 0.507431 0.626471
vt 1.01305 0.790338
vt 0.838035 0.99737
vt 0.65789 0.790338
vt 0.838035 0.626471
vt 0.0367139 0.846521
vt 0.173005 0.68489
vt 0.316625 0.847201
vt 0.173005 0.97607
vt 0.140095 0.417693
vt 0.201784 0.417693
vt 0.140095 0.547841
vt 0.201784 0.547841
vt 0.0438602 0.68489
vt 0.296718 0.68489
vt 0.0438602 0.68489
vt 0.173005 0.68489
vt 0.0367139 0.846521
vt 0.173005 0.97607
vt 0.316625 0.847201
vt 0.296718 0.68489
vt 0.201784 0.541218
vt 0.140095 0.541485
vt 1.01305 0.790338
vt 0.838035 0.99737
vt 0.65789 0.790338
vt 0.838035 0.626471
vt 0.682441 0.790338
vt 0.507431 0.99737
vt 0.327286 0.790338
vt 0.507431 0.626471
vt 1.01305 0.790338
vt 0.838035 0.99737
vt 0.65789 0.790338
vt 0.838035 0.626471
vt 0.682441 0.790338
vt 0.507431 0.99737
vt 0.327286 0.790338
vt 0.507431 0.626471
vt 1.01305 0.790338
vt 0.838035 0.99737
vt 0.65789 0.790338
vt 0.838035 0.626471
vt 0.0367139 0.846521
vt 0.173005 0.68489
vt 0.316625 0.847201
vt 0.134238 0.508284
vt 0.208381 0.508284
vt 0.134238 0.369678
vt 0.208381 0.369678
vt 0.173005 0.97607
vt 0.0438602 0.68489
vt 0.296718 0.68489
vt 0.682441 0.790338
vt 0.507431 0.99737
vt 0.327286 0.790338
vt 0.507431 0.626471
vt 0.682441 0.790338
vt 0.507431 0.99737
vt 0.327286 0.790338
vt 0.507431 0.626471
vt 1.01305 0.790338
vt 0.838035 0.99737
vt 0.65789 0.790338
vt 0.838035 0.626471
vt 1.01305 0.790338
vt 0.838035 0.99737
vt 0.65789 0.790338
vt 0.838035 0.626471
vt 0.682441 0.790338
vt 0.507431 0.99737
vt 0.327286 0.790338
vt 0.507431 0.626471


#
# MESH 000
#
g surface_000
usemtl surface_000
f 43/43/43 44/44/44 45/45/45
f 42/42/42 44/44/44 43/43/43
f 41/41/41 42/42/42 43/43/43
f 39/39/39 38/38/38 40/40/40
f 37/37/37 38/38/38 39/39/39
f 35/35/35 36/36/36 34/34/34
f 33/33/33 35/35/35 34/34/34
f 32/32/32 33/33/33 34/34/34
f 30/30/30 31/31/31 28/28/28
f 28/28/28 31/31/31 29/29/29
f 28/28/28 29/29/29 27/27/27
f 25/25/25 28/28/28 27/27/27
f 25/25/25 30/30/30 28/28/28
f 26/26/26 30/30/30 25/25/25
f 25/25/25 24/24/24 26/26/26
f 24/24/24 29/29/29 31/31/31
f 23/23/23 29/29/29 24/24/24
f 29/29/29 23/23/23 27/27/27
f 23/23/23 25/25/25 27/27/27
f 23/23/23 24/24/24 25/25/25
f 13/13/13 22/22/22 15/15/15
f 19/19/19 22/22/22 13/13/13
f 22/22/22 19/19/19 20/20/20
f 20/20/20 19/19/19 18/18/18
f 18/18/18 17/17/17 20/20/20
f 20/20/20 17/17/17 21/21/21
f 14/14/14 13/13/13 15/15/15
f 12/12/12 13/13/13 14/14/14
f 12/12/12 16/16/16 13/13/13
f 13/13/13 16/16/16 19/19/19
f 18/18/18 19/19/19 16/16/16
f 16/16/16 17/17/17 18/18/18
f 17/17/17 16/16/16 12/12/12
f 17/17/17 12/12/12 21/21/21
f 21/21/21 12/12/12 14/14/14
f 6/6/6 9/9/9 10/10/10
f 5/5/5 9/9/9 6/6/6
f 5/5/5 7/7/7 9/9/9
f 9/9/9 7/7/7 8/8/8
f 9/9/9 8/8/8 10/10/10
f 10/10/10 8/8/8 11/11/11
f 8/8/8 1/1/1 11/11/11
f 2/2/2 1/1/1 8/8/8
f 1/1/1 2/2/2 3/3/3
f 3/3/3 5/5/5 6/6/6
f 4/4/4 5/5/5 3/3/3
f 7/7/7 5/5/5 4/4/4
f 4/4/4 2/2/2 7/7/7
f 8/8/8 7/7/7 2/2/2
f 3/3/3 2/2/2 4/4/4

#
# MESH 001
#
g surface_001
usemtl surface_001
f 139/139/139 136/136/136 138/138/138
f 136/136/136 137/137/137 138/138/138
f 135/135/135 132/132/132 134/134/134
f 132/132/132 133/133/133 134/134/134
f 131/131/131 128/128/128 130/130/130
f 128/128/128 129/129/129 130/130/130
f 127/127/127 124/124/124 126/126/126
f 124/124/124 125/125/125 126/126/126
f 123/123/123 120/120/120 122/122/122
f 120/120/120 121/121/121 122/122/122
f 117/117/117 110/110/110 112/112/112
f 110/110/110 111/111/111 112/112/112
f 112/112/112 111/111/111 119/119/119
f 111/111/111 114/114/114 119/119/119
f 111/111/111 113/113/113 114/114/114
f 113/113/113 115/115/115 114/114/114
f 114/114/114 115/115/115 116/116/116
f 118/118/118 111/111/111 110/110/110
f 111/111/111 118/118/118 113/113/113
f 109/109/109 106/106/106 108/108/108
f 106/106/106 107/107/107 108/108/108
f 105/105/105 102/102/102 104/104/104
f 102/102/102 103/103/103 104/104/104
f 101/101/101 98/98/98 100/100/100
f 98/98/98 99/99/99 100/100/100
f 97/97/97 94/94/94 96/96/96
f 94/94/94 95/95/95 96/96/96
f 93/93/93 90/90/90 92/92/92
f 90/90/90 91/91/91 92/92/92
f 85/85/85 84/84/84 86/86/86
f 84/84/84 83/83/83 86/86/86
f 86/86/86 83/83/83 87/87/87
f 83/83/83 88/88/88 87/87/87
f 83/83/83 89/89/89 88/88/88
f 83/83/83 82/82/82 89/89/89
f 82/82/82 83/83/83 84/84/84
f 76/76/76 77/77/77 78/78/78
f 78/78/78 77/77/77 79/79/79
f 73/73/73 78/78/78 79/79/79
f 73/73/73 80/80/80 78/78/78
f 72/72/72 80/80/80 73/73/73
f 72/72/72 73/73/73 74/74/74
f 75/75/75 72/72/72 74/74/74
f 73/73/73 79/79/79 81/81/81
f 74/74/74 73/73/73 81/81/81
f 71/71/71 68/68/68 70/70/70
f 68/68/68 69/69/69 70/70/70
f 67/67/67 64/64/64 66/66/66
f 64/64/64 65/65/65 66/66/66
f 63/63/63 60/60/60 62/62/62
f 60/60/60 61/61/61 62/62/62
f 54/54/54 58/58/58 59/59/59
f 53/53/53 58/58/58 54/54/54
f 51/51/51 53/53/53 54/54/54
f 51/51/51 56/56/56 53/53/53
f 56/56/56 51/51/51 50/50/50
f 50/50/50 51/51/51 52/52/52
f 55/55/55 50/50/50 52/52/52
f 51/51/51 54/54/54 57/57/57
f 52/52/52 51/51/51 57/57/57
f 49/49/49 46/46/46 48/48/48
f 46/46/46 47/47/47 48/48/48

