#
# OBJECT NAME
#
o model_4203
mtllib 4203.mtl

#
# VERTEX BUFFER 000
#
v -0.0569601 0.588156 0.0131531
v -0.00869656 0.432254 0.0249229
v -0.000918388 0.435327 0.00659104
v -0.0269327 0.429665 0.0167514
v -0.0191536 0.432738 -0.00158085
v -0.0269327 0.429665 0.0167514
v -0.0172062 0.235735 0.00767918
v -0.00640106 0.236061 -0.0172051
v -0.0172062 0.235735 0.00767918
v 0.00767899 0.235409 0.0184812
v 0.0184851 0.235735 -0.00640262
v -0.0224571 0 0.00886113
v 0.00885916 0 0.0224544
v 0.0224571 0 -0.00886061
v -0.00885963 0 -0.0224546
v -0.0224571 0 0.00886113
v 0.0224571 0 -0.00886061
v 0.00885916 0 0.0224544
v -0.00885963 0 -0.0224546
v -0.0224571 0 0.00886113

vn -0.2229 0.973145 0.04953
vn 0.403076 0.0472107 0.913574
vn 0.922852 0.171631 -0.344238
vn -0.921387 -0.0879517 0.377441
vn -0.321777 0.0423889 -0.945313
vn -0.921387 -0.0879517 0.377441
vn -0.932129 -0.0115891 0.361328
vn -0.349609 0.0360107 -0.936035
vn -0.932129 -0.0115891 0.361328
vn 0.384277 0.0124435 0.922852
vn 0.926758 0.0553894 -0.37085
vn -0.930664 0.0225525 0.364746
vn 0.366211 0.0175171 0.930176
vn 0.929199 0.0195007 -0.368896
vn -0.367432 0.0245056 -0.929199
vn -0.930664 0.0225525 0.364746
vn 0 -1 0
vn 0 -1 0
vn 0 -1 0
vn 0 -1 0

vt 0.853329 0.473487
vt 0.834118 0.312964
vt 0.85333 0.313411
vt 0.891008 0.314741
vt 0.872187 0.314162
vt 0.815139 0.314802
vt 0.891008 0.151997
vt 0.872187 0.151377
vt 0.815139 0.151949
vt 0.834118 0.151279
vt 0.853329 0.150689
vt 0.815139 0.00551504
vt 0.834118 0.00551504
vt 0.853329 0.00551504
vt 0.872187 0.00551504
vt 0.891008 0.00551504
vt 0.868883 0.0475126
vt 0.867627 0.0231737
vt 0.844544 0.0487679
vt 0.843288 0.0244291


#
# VERTEX BUFFER 001
#
v -0.00869751 0.432254 0.0249226
v -0.0653048 0.625725 0.0199544
v -0.149769 0.588473 0.0561271
v -0.0140781 0.625067 -0.0649321
v -0.258286 0.797444 -0.144446
v 0.00277996 0.351305 0.0113156
v -0.117316 0.497534 0.0809884
v -0.0965576 0.455206 0.168211
v -0.168522 0.476901 -0.0013677
v -0.397724 0.516851 0.202458
v -0.012197 0.390912 0.0185302
v 0.0838349 0.568132 0.0241145
v 0.105145 0.544843 -0.0698742
v 0.107516 0.537719 0.115464
v 0.374529 0.664327 0.0240946
v 6.77109e-005 0.190617 -0.00329013
v 0.0182319 0.333223 0.183064
v 0.129293 0.336475 0.150702
v -0.0566206 0.257853 0.228988
v 0.162405 0.317556 0.509713
v -0.00393677 0.203801 -0.00092627
v -0.161917 0.355211 -0.0122751
v -0.221069 0.276443 0.0313622
v -0.11405 0.377801 -0.106116
v -0.438149 0.40424 -0.19116
v -0.0117025 0.10111 0.0017264
v -0.0648999 0.179959 0.10724
v 0.00182724 0.199451 0.11406
v -0.104207 0.123158 0.117613
v -0.0573902 0.17956 0.322824
v 0.00289655 0.0899908 0.0139902
v 0.0213547 0.188915 -0.0862776
v -0.0466127 0.177259 -0.097392
v 0.0822668 0.155815 -0.0948236
v 0.0266662 0.195021 -0.301841
v 0.00321507 0.283973 0.0181659
v 0.138698 0.452115 -0.0754663
v 0.0475531 0.465434 -0.145521
v 0.222347 0.374638 -0.0556475
v 0.320293 0.500857 -0.379405

vn 0.621094 0.201172 0.756836
vn 0.432617 0.605469 0.667969
vn 0.136353 0.513184 0.847168
vn 0.650879 0.651855 0.387695
vn 0.26001 0.803711 0.53418
vn 0.703125 0.678223 -0.21167
vn 0.366699 0.929199 -0.0366821
vn 0.461914 0.835938 0.295654
vn 0.188843 0.917969 -0.347412
vn 0.104065 0.990723 0.0825806
vn -0.878906 0.475342 0.0295258
vn -0.577148 0.81543 0.0387268
vn -0.527344 0.788574 -0.314941
vn -0.518066 0.761719 0.387939
vn -0.313721 0.948242 0.0404663
vn -0.506348 0.70752 -0.492188
vn -0.419922 0.902832 -0.0905151
vn -0.0846558 0.977539 -0.192383
vn -0.688965 0.72168 0.0619812
vn -0.315918 0.930664 0.184082
vn 0.445068 0.519043 0.729004
vn 0.0797119 0.771484 0.630859
vn -0.129883 0.553223 0.822266
vn 0.243652 0.907227 0.342529
vn -0.1698 0.851563 0.495605
vn -0.448486 0.592285 -0.668945
vn -0.567871 0.776855 -0.270508
vn -0.249023 0.9375 -0.242676
vn -0.819824 0.526367 -0.223511
vn -0.583008 0.811523 0.0218201
vn 0.102112 0.698242 0.708008
vn 0.149048 0.93457 0.322021
vn -0.205933 0.938965 0.274414
vn 0.488037 0.82373 0.28833
vn 0.16333 0.98584 0.0319519
vn -0.129639 0.560059 0.817871
vn 0.138672 0.818359 0.557129
vn -0.142212 0.921875 0.360107
vn 0.425781 0.626465 0.652344
vn 0.299805 0.897461 0.322998

vt 0.502032 0.104644
vt 0.502032 0.348038
vt 0.380867 0.348038
vt 0.623196 0.348038
vt 0.502032 0.711819
vt 0.502032 0.104644
vt 0.502032 0.348038
vt 0.380867 0.348038
vt 0.623196 0.348038
vt 0.502032 0.711819
vt 0.502032 0.104644
vt 0.502032 0.348038
vt 0.380867 0.348038
vt 0.623196 0.348038
vt 0.502032 0.711819
vt 0.502032 0.104644
vt 0.502032 0.348038
vt 0.380867 0.348038
vt 0.623196 0.348038
vt 0.502032 0.711819
vt 0.502032 0.104644
vt 0.502032 0.348038
vt 0.380867 0.348038
vt 0.623196 0.348038
vt 0.502032 0.711819
vt 0.502032 0.104644
vt 0.502032 0.348038
vt 0.380867 0.348038
vt 0.623196 0.348038
vt 0.502032 0.711819
vt 0.502032 0.104644
vt 0.502032 0.348038
vt 0.380867 0.348038
vt 0.623196 0.348038
vt 0.502032 0.711819
vt 0.502032 0.104644
vt 0.502032 0.348038
vt 0.380867 0.348038
vt 0.623196 0.348038
vt 0.502032 0.711819


#
# MESH 000
#
g surface_000
usemtl surface_000
f 19/19/19 18/18/18 20/20/20
f 17/17/17 18/18/18 19/19/19
f 7/7/7 15/15/15 16/16/16
f 8/8/8 15/15/15 7/7/7
f 11/11/11 15/15/15 8/8/8
f 14/14/14 15/15/15 11/11/11
f 10/10/10 14/14/14 11/11/11
f 13/13/13 14/14/14 10/10/10
f 9/9/9 13/13/13 10/10/10
f 12/12/12 13/13/13 9/9/9
f 7/7/7 5/5/5 8/8/8
f 8/8/8 5/5/5 11/11/11
f 11/11/11 5/5/5 3/3/3
f 11/11/11 3/3/3 10/10/10
f 10/10/10 3/3/3 2/2/2
f 6/6/6 10/10/10 2/2/2
f 9/9/9 10/10/10 6/6/6
f 4/4/4 5/5/5 7/7/7
f 4/4/4 1/1/1 5/5/5
f 1/1/1 3/3/3 5/5/5
f 1/1/1 2/2/2 3/3/3
f 1/1/1 6/6/6 2/2/2

#
# MESH 001
#
g surface_001
usemtl surface_001
f 60/60/60 58/58/58 57/57/57
f 56/56/56 57/57/57 58/58/58
f 56/56/56 59/59/59 57/57/57
f 60/60/60 57/57/57 59/59/59
f 55/55/55 53/53/53 52/52/52
f 51/51/51 52/52/52 53/53/53
f 51/51/51 54/54/54 52/52/52
f 55/55/55 52/52/52 54/54/54
f 50/50/50 48/48/48 47/47/47
f 46/46/46 47/47/47 48/48/48
f 46/46/46 49/49/49 47/47/47
f 50/50/50 47/47/47 49/49/49
f 45/45/45 43/43/43 42/42/42
f 41/41/41 42/42/42 43/43/43
f 41/41/41 44/44/44 42/42/42
f 45/45/45 42/42/42 44/44/44
f 40/40/40 38/38/38 37/37/37
f 36/36/36 37/37/37 38/38/38
f 36/36/36 39/39/39 37/37/37
f 40/40/40 37/37/37 39/39/39
f 35/35/35 33/33/33 32/32/32
f 31/31/31 32/32/32 33/33/33
f 31/31/31 34/34/34 32/32/32
f 35/35/35 32/32/32 34/34/34
f 30/30/30 28/28/28 27/27/27
f 26/26/26 27/27/27 28/28/28
f 26/26/26 29/29/29 27/27/27
f 30/30/30 27/27/27 29/29/29
f 25/25/25 23/23/23 22/22/22
f 21/21/21 22/22/22 23/23/23
f 21/21/21 24/24/24 22/22/22
f 25/25/25 22/22/22 24/24/24

