#
# OBJECT NAME
#
o model_1638
mtllib 1638.mtl

#
# VERTEX BUFFER 000
#
v -0.0917881 0.163098 -0.0801887
v -0.0908317 0.151625 -0.0644216
v -0.137422 0.166253 -0.0685959
v -0.129084 0.197033 -0.093883
v -0.164957 0.206312 -0.0623763
v -0.144683 0.179498 -0.0348856
v -0.164957 0.206312 -0.0623763
v -0.137422 0.166253 -0.0685959
v -0.101981 0.153258 -0.0512924
v -0.0908317 0.151625 -0.0644216
v -0.0289764 0.174741 -0.0441849
v -0.0567147 0.177063 -0.0064506
v -0.0330172 0.192829 -0.0709895
v -0.0289764 0.174741 -0.0441849
v -0.0950808 0.253537 -0.0965104
v -0.153419 0.268428 -0.043212
v -0.127507 0.220964 0.00679062
v -0.153419 0.268428 -0.043212
v 0.0210081 0.226302 -0.0174353
v -0.0170386 0.233842 0.0258906
v 0.0173535 0.244044 -0.0440396
v 0.0210081 0.226302 -0.0174353
v -0.0505824 0.314086 -0.0726059
v -0.108672 0.327947 -0.0191785
v -0.0815479 0.279209 0.0350047
v -0.108672 0.327947 -0.0191785
v 0.0349855 0.294116 0.00299414
v 0.00562527 0.300767 0.0296172
v 0.0318175 0.30693 -0.0139199
v 0.0349855 0.294116 0.00299414
v -0.00982576 0.347777 -0.029869
v -0.0466064 0.357983 0.00116716
v -0.0246762 0.324438 0.0321029
v -0.0466064 0.357983 0.00116716
v 0.00969154 0.345227 0.0103757
v 0.00969154 0.345227 0.0103757

vn 0.239502 -0.367432 -0.898438
vn 0.297852 -0.945801 -0.126831
vn -0.57959 -0.726074 -0.369141
vn -0.233887 0.0145493 -0.97168
vn -0.962891 0.130859 -0.234863
vn -0.603027 -0.495605 0.625
vn -0.962891 0.130859 -0.234863
vn -0.57959 -0.726074 -0.369141
vn -0.117493 -0.835449 0.536621
vn 0.297852 -0.945801 -0.126831
vn 0.594238 -0.800781 0.0704346
vn 0.0738525 -0.664063 0.743652
vn 0.466309 -0.182251 -0.865234
vn 0.594238 -0.800781 0.0704346
vn -0.0499268 0.265137 -0.962402
vn -0.874023 0.47583 -0.0947266
vn -0.531738 -0.210327 0.819824
vn -0.874023 0.47583 -0.0947266
vn 0.793457 -0.542969 0.27417
vn 0.238281 -0.420166 0.875
vn 0.634766 -0.00405121 -0.772461
vn 0.793457 -0.542969 0.27417
vn 0.110474 0.472412 -0.874023
vn -0.678223 0.733398 0.0343323
vn -0.380859 0.0598755 0.922363
vn -0.678223 0.733398 0.0343323
vn 0.883301 -0.18689 0.428955
vn 0.37915 -0.106506 0.918945
vn 0.727539 0.239746 -0.64209
vn 0.883301 -0.18689 0.428955
vn 0.314697 0.641602 -0.69873
vn -0.368652 0.910156 0.187622
vn -0.146362 0.302246 0.941406
vn -0.368652 0.910156 0.187622
vn 0.54834 0.764648 0.337891
vn 0.54834 0.764648 0.337891

vt 0.671826 0.103821
vt 0.641291 0.106584
vt 0.72158 0.016306
vt 0.770597 0.105332
vt 0.827289 0.10903
vt 0.745018 0.110862
vt 0.640906 0.10762
vt 0.744475 0.0109034
vt 0.867509 0.106099
vt 0.906635 0.105175
vt 0.971573 0.350432
vt 0.898673 0.351928
vt 0.640297 0.344902
vt 0.590889 0.349374
vt 0.800112 0.347347
vt 0.880447 0.35333
vt 0.74637 0.359634
vt 0.577913 0.354389
vt 0.965931 0.652996
vt 0.885942 0.655829
vt 0.639035 0.647466
vt 0.589628 0.651937
vt 0.79885 0.649911
vt 0.878334 0.655894
vt 0.748013 0.662198
vt 0.579557 0.656952
vt 0.890539 0.897296
vt 0.82321 0.900104
vt 0.668523 0.895943
vt 0.637987 0.898706
vt 0.767294 0.897454
vt 0.823445 0.901151
vt 0.749321 0.902984
vt 0.645209 0.899742
vt 0.749794 0.99002
vt 0.719694 0.98069


#
# VERTEX BUFFER 001
#
v 0.0506878 0.228374 0.0363367
v 0.0620155 0.228374 0.0144935
v 0.046479 0.183163 0.00999922
v 0.03674 0.183163 0.0287788
v 0.0785194 0.22749 0.0539496
v 0.0506878 0.228374 0.0363367
v 0.03674 0.183163 0.0287788
v 0.0625701 0.178455 0.0406053
v 0.0898471 0.22749 0.0321065
v 0.0785194 0.22749 0.0539496
v 0.0625701 0.178455 0.0406053
v 0.0723091 0.178455 0.0218257
v 0.0898471 0.22749 0.0321065
v 0.046479 0.183163 0.00999922
v -0.0121101 0 -0.0300242
v 0.000833772 0 -0.00337608
v -0.0297281 0 0.00394851
v 0.00901112 0 0.0224193
v 0.000833772 0 -0.00337608
v 0.0266291 0 -0.0115534
v -0.0121101 0 -0.0300242
v -0.00309858 0.318104 -0.00541537
v 0.0024477 0.31066 -0.011289
v -0.00470416 0.31066 0.00250188
v -0.00864486 0.325547 0.00045826
v -0.001493 0.325547 -0.0133326
v 0.0421019 0.100112 0.00421673
v 0.0307742 0.100112 0.0260599
v 0.020064 0.0591973 0.0227961
v 0.0332638 0.0591973 -0.00265705
v 0.0130464 0.10483 -0.00928241
v 0.000769941 0.064934 -0.0179393
v 0.00171869 0.10483 0.0125608
v 0.000769941 0.064934 -0.0179393
v -0.0124299 0.064934 0.00751382
v 0.0307742 0.100112 0.0260599
v 0.00171869 0.10483 0.0125608
v -0.0124299 0.064934 0.00751382
v 0.047323 0.271888 0.0335095
v 0.0577661 0.271888 0.0133721
v 0.0821551 0.29119 0.0291997
v 0.0620155 0.228374 0.0144935
v 0.0821551 0.29119 0.0291997
v 0.071712 0.29119 0.0493371
v 0.071712 0.29119 0.0493371
v 0.047323 0.271888 0.0335095
v 0.0181758 0.30936 0.016393
v 0.0269834 0.30936 -0.000590738
v 0.0440475 0.302918 0.00752594
v 0.034641 0.302918 0.0256645
v 0.0288688 0.338777 0.000387002
v 0.057581 0.32841 0.0149314
v 0.0440475 0.302918 0.00752594
v 0.0288688 0.338777 0.000387002
v 0.0200611 0.338777 0.0173708
v 0.0481745 0.32841 0.0330699
v 0.0200611 0.338777 0.0173708
v 0.0181758 0.30936 0.016393
v 0.034641 0.302918 0.0256645
v 0.0481745 0.32841 0.0330699
v 0.0269834 0.30936 -0.000590738
v -0.00864486 0.325547 0.00045826
v -0.001493 0.325547 -0.0133326
v -0.00470416 0.31066 0.00250188
v 0.0723091 0.178455 0.0218257
v 0.0130464 0.10483 -0.00928241
v 0.057581 0.32841 0.0149314
v 0.0577661 0.271888 0.0133721
v -0.0297281 0 0.00394851
v 0.020064 0.0591973 0.0227961
v 0.0266291 0 -0.0115534

vn -0.858887 0.0471497 0.509277
vn 0.014267 0.0602112 -0.998047
vn -0.120361 0.249023 -0.960938
vn -0.84082 0.228271 0.490234
vn 0.243408 -0.0787964 0.966309
vn -0.858887 0.0471497 0.509277
vn -0.84082 0.228271 0.490234
vn 0.185791 -0.268799 0.944824
vn 0.955566 -0.0698853 -0.285889
vn 0.243408 -0.0787964 0.966309
vn 0.185791 -0.268799 0.944824
vn 0.87207 -0.249023 -0.420654
vn 0.955566 -0.0698853 -0.285889
vn -0.120361 0.249023 -0.960938
vn -0.312744 0.0930176 -0.944824
vn 0 -1 0
vn -0.942871 0.0875244 0.321045
vn 0.146484 -0.155273 0.976563
vn 0 -1 0
vn 0.863281 -0.138672 -0.485107
vn -0.312744 0.0930176 -0.944824
vn -0.850586 -0.285645 -0.441162
vn 0.269043 -0.519531 -0.810547
vn -0.507324 -0.519531 0.687012
vn -0.64209 0.591309 0.487305
vn 0.0284119 0.591309 -0.805664
vn 0.851074 -0.171509 -0.49585
vn 0.140625 -0.192749 0.970703
vn 0.210327 -0.0792847 0.974121
vn 0.899414 -0.0665283 -0.431152
vn -0.196167 0.294678 -0.935059
vn -0.233276 0.239258 -0.942383
vn -0.859863 0.281982 0.424805
vn -0.233276 0.239258 -0.942383
vn -0.889648 0.233887 0.391602
vn 0.140625 -0.192749 0.970703
vn -0.859863 0.281982 0.424805
vn -0.889648 0.233887 0.391602
vn -0.845215 -0.0974121 0.525391
vn 0.0697632 -0.0882568 -0.993164
vn 0.928711 0.246948 -0.275146
vn 0.014267 0.0602112 -0.998047
vn 0.928711 0.246948 -0.275146
vn 0.223511 0.245605 0.942871
vn 0.223511 0.245605 0.942871
vn -0.845215 -0.0974121 0.525391
vn -0.513672 -0.458008 0.725098
vn 0.304443 -0.455322 -0.836426
vn 0.191162 -0.231689 -0.953613
vn -0.725098 -0.234131 0.647461
vn 0.286621 0.727051 -0.623535
vn 0.720703 0.553223 -0.416992
vn 0.191162 -0.231689 -0.953613
vn 0.286621 0.727051 -0.623535
vn -0.348145 0.727539 0.590332
vn 0.0422974 0.567383 0.822266
vn -0.348145 0.727539 0.590332
vn -0.513672 -0.458008 0.725098
vn -0.725098 -0.234131 0.647461
vn 0.0422974 0.567383 0.822266
vn 0.304443 -0.455322 -0.836426
vn -0.64209 0.591309 0.487305
vn 0.0284119 0.591309 -0.805664
vn -0.507324 -0.519531 0.687012
vn 0.87207 -0.249023 -0.420654
vn -0.196167 0.294678 -0.935059
vn 0.720703 0.553223 -0.416992
vn 0.0697632 -0.0882568 -0.993164
vn -0.942871 0.0875244 0.321045
vn 0.210327 -0.0792847 0.974121
vn 0.863281 -0.138672 -0.485107

vt 0.512517 0.727594
vt 0.545342 0.727594
vt 0.545342 0.606718
vt 0.512517 0.606718
vt 0.512517 0.74347
vt 0.512517 0.727594
vt 0.512517 0.606718
vt 0.512517 0.614655
vt 0.545342 0.74347
vt 0.512517 0.74347
vt 0.512517 0.614655
vt 0.545342 0.614655
vt 0.545342 0.74347
vt 0.545342 0.606718
vt 0.545342 0.00768447
vt 0.52893 0.00768447
vt 0.512517 0.00768447
vt 0.512517 0.00768447
vt 0.52893 0.00768447
vt 0.545342 0.00768447
vt 0.545342 0.00768447
vt 0.52893 0.981771
vt 0.545342 0.973833
vt 0.512517 0.973833
vt 0.512517 0.989709
vt 0.545342 0.989709
vt 0.545342 0.366302
vt 0.512517 0.366302
vt 0.512517 0.246763
vt 0.545342 0.246763
vt 0.545342 0.366302
vt 0.545342 0.246763
vt 0.512517 0.366302
vt 0.545342 0.246763
vt 0.512517 0.246763
vt 0.512517 0.366302
vt 0.512517 0.366302
vt 0.512517 0.246763
vt 0.512517 0.850714
vt 0.545342 0.850714
vt 0.545342 0.866589
vt 0.545342 0.727594
vt 0.545342 0.866589
vt 0.512517 0.866589
vt 0.512517 0.866589
vt 0.512517 0.850714
vt 0.512517 0.912273
vt 0.545342 0.912273
vt 0.545342 0.881494
vt 0.512517 0.881494
vt 0.545342 0.928149
vt 0.545342 0.897369
vt 0.545342 0.881494
vt 0.545342 0.928149
vt 0.512517 0.928149
vt 0.512517 0.897369
vt 0.512517 0.928149
vt 0.512517 0.912273
vt 0.512517 0.881494
vt 0.512517 0.897369
vt 0.545342 0.912273
vt 0.512517 0.989709
vt 0.545342 0.989709
vt 0.512517 0.973833
vt 0.545342 0.614655
vt 0.545342 0.366302
vt 0.545342 0.897369
vt 0.545342 0.850714
vt 0.512517 0.00768447
vt 0.512517 0.246763
vt 0.545342 0.00768447


#
# MESH 000
#
g surface_000
usemtl surface_000
f 8/8/8 10/10/10 9/9/9
f 10/10/10 12/12/12 9/9/9
f 9/9/9 12/12/12 17/17/17
f 9/9/9 17/17/17 6/6/6
f 9/9/9 6/6/6 8/8/8
f 6/6/6 7/7/7 8/8/8
f 6/6/6 18/18/18 7/7/7
f 6/6/6 17/17/17 18/18/18
f 17/17/17 26/26/26 18/18/18
f 10/10/10 11/11/11 12/12/12
f 11/11/11 20/20/20 12/12/12
f 12/12/12 20/20/20 25/25/25
f 12/12/12 25/25/25 17/17/17
f 17/17/17 25/25/25 26/26/26
f 25/25/25 34/34/34 26/26/26
f 25/25/25 33/33/33 34/34/34
f 33/33/33 35/35/35 34/34/34
f 35/35/35 33/33/33 28/28/28
f 27/27/27 35/35/35 28/28/28
f 11/11/11 19/19/19 20/20/20
f 19/19/19 28/28/28 20/20/20
f 20/20/20 28/28/28 33/33/33
f 20/20/20 33/33/33 25/25/25
f 19/19/19 27/27/27 28/28/28
f 32/32/32 36/36/36 31/31/31
f 31/31/31 36/36/36 29/29/29
f 23/23/23 31/31/31 29/29/29
f 24/24/24 31/31/31 23/23/23
f 24/24/24 32/32/32 31/31/31
f 29/29/29 36/36/36 30/30/30
f 21/21/21 29/29/29 30/30/30
f 23/23/23 29/29/29 21/21/21
f 15/15/15 23/23/23 21/21/21
f 16/16/16 23/23/23 15/15/15
f 16/16/16 24/24/24 23/23/23
f 21/21/21 30/30/30 22/22/22
f 13/13/13 21/21/21 22/22/22
f 15/15/15 21/21/21 13/13/13
f 4/4/4 15/15/15 13/13/13
f 5/5/5 15/15/15 4/4/4
f 5/5/5 16/16/16 15/15/15
f 13/13/13 22/22/22 14/14/14
f 1/1/1 13/13/13 14/14/14
f 4/4/4 13/13/13 1/1/1
f 4/4/4 1/1/1 3/3/3
f 5/5/5 4/4/4 3/3/3
f 1/1/1 14/14/14 2/2/2
f 1/1/1 2/2/2 3/3/3

#
# MESH 001
#
g surface_001
usemtl surface_001
f 66/66/66 51/51/51 70/70/70
f 66/66/66 107/107/107 51/51/51
f 65/65/65 107/107/107 66/66/66
f 65/65/65 54/54/54 107/107/107
f 63/63/63 65/65/65 66/66/66
f 63/63/63 64/64/64 65/65/65
f 47/47/47 64/64/64 63/63/63
f 47/47/47 63/63/63 48/48/48
f 45/45/45 47/47/47 48/48/48
f 45/45/45 46/46/46 47/47/47
f 67/67/67 63/63/63 66/66/66
f 67/67/67 66/66/66 68/68/68
f 79/79/79 46/46/46 45/45/45
f 79/79/79 80/80/80 46/46/46
f 92/92/92 80/80/80 79/79/79
f 92/92/92 79/79/79 88/88/88
f 90/90/90 92/92/92 88/88/88
f 90/90/90 91/91/91 92/92/92
f 98/98/98 91/91/91 90/90/90
f 98/98/98 90/90/90 99/99/99
f 74/74/74 54/54/54 106/106/106
f 74/74/74 105/105/105 54/54/54
f 70/70/70 57/57/57 53/53/53
f 70/70/70 53/53/53 71/71/71
f 69/69/69 70/70/70 71/71/71
f 69/69/69 67/67/67 70/70/70
f 39/39/39 67/67/67 69/69/69
f 39/39/39 69/69/69 40/40/40
f 37/37/37 39/39/39 40/40/40
f 37/37/37 38/38/38 39/39/39
f 75/75/75 38/38/38 37/37/37
f 75/75/75 76/76/76 38/38/38
f 85/85/85 76/76/76 75/75/75
f 85/85/85 75/75/75 86/86/86
f 83/83/83 85/85/85 86/86/86
f 83/83/83 84/84/84 85/85/85
f 59/59/59 84/84/84 83/83/83
f 59/59/59 83/83/83 60/60/60
f 58/58/58 59/59/59 60/60/60
f 58/58/58 62/62/62 59/59/59
f 62/62/62 97/97/97 59/59/59
f 62/62/62 90/90/90 97/97/97
f 58/58/58 60/60/60 61/61/61
f 58/58/58 61/61/61 62/62/62
f 103/103/103 104/104/104 85/85/85
f 103/103/103 79/79/79 104/104/104
f 43/43/43 73/73/73 64/64/64
f 43/43/43 64/64/64 44/44/44
f 41/41/41 43/43/43 44/44/44
f 41/41/41 42/42/42 43/43/43
f 81/81/81 42/42/42 41/41/41
f 81/81/81 82/82/82 42/42/42
f 95/95/95 82/82/82 81/81/81
f 95/95/95 81/81/81 96/96/96
f 93/93/93 95/95/95 96/96/96
f 93/93/93 94/94/94 95/95/95
f 100/100/100 94/94/94 93/93/93
f 100/100/100 93/93/93 61/61/61
f 101/101/101 102/102/102 39/39/39
f 101/101/101 63/63/63 102/102/102
f 84/84/84 88/88/88 89/89/89
f 84/84/84 87/87/87 88/88/88
f 76/76/76 45/45/45 78/78/78
f 76/76/76 77/77/77 45/45/45
f 72/72/72 74/74/74 65/65/65
f 72/72/72 73/73/73 74/74/74
f 56/56/56 55/55/55 57/57/57
f 54/54/54 55/55/55 56/56/56
f 53/53/53 52/52/52 54/54/54
f 51/51/51 52/52/52 53/53/53
f 38/38/38 48/48/48 50/50/50
f 38/38/38 49/49/49 48/48/48

