#
# OBJECT NAME
#
o model_1076
mtllib 1076.mtl

#
# VERTEX BUFFER 000
#
v 0.434701 1 0
v 0.434701 0 0
v 1.45112e-007 0 -0.434701
v 1.45112e-007 1 -0.434701
v 1.45112e-007 1 -0.434701
v 1.45112e-007 0 -0.434701
v -0.434701 0 0
v -0.434701 1 0
v -0.434701 1 0
v -0.434701 0 0
v 2.0819e-005 0 0.434701
v 2.0819e-005 1 0.434701
v 2.0819e-005 1 0.434701
v 2.0819e-005 0 0.434701
v 0.434701 0 0
v 0.434701 1 0
v -0.434701 0 0
v 1.45112e-007 0 -0.434701
v 2.0819e-005 0 0.434701
v 0.434701 0 0
v 1.45112e-007 1 -0.434701
v 2.0819e-005 1 0.434701
v 0.434701 1 0
v -0.434701 1 0

vn 1 0 -2.37823e-005
vn 1 0 -2.37823e-005
vn 0 0 -1
vn 0 0 -1
vn 0 0 -1
vn 0 0 -1
vn -1 0 2.37823e-005
vn -1 0 2.37823e-005
vn -1 0 2.37823e-005
vn -1 0 2.37823e-005
vn 0 0 1
vn 0 0 1
vn 0 0 1
vn 0 0 1
vn 1 0 -2.37823e-005
vn 1 0 -2.37823e-005
vn 0 -1 0
vn 0 -1 0
vn 0 -1 0
vn 0 -1 0
vn 0 1 0
vn 0 1 0
vn 0 1 0
vn 0 1 0

vt 0.589973 0.420902
vt 0.589973 0.255631
vt 0.833859 0.255631
vt 0.833859 0.420902
vt 0.589973 0.420902
vt 0.589973 0.255631
vt 0.833859 0.255631
vt 0.833859 0.420902
vt 0.589973 0.420902
vt 0.589973 0.255631
vt 0.833859 0.255631
vt 0.833859 0.420902
vt 0.589973 0.420902
vt 0.589973 0.255631
vt 0.833859 0.255631
vt 0.833859 0.420902
vt 0.0485698 0.809252
vt 0.186754 0.638446
vt 0.186754 0.980057
vt 0.324939 0.809252
vt 0.186754 0.980057
vt 0.186754 0.638446
vt 0.324939 0.809252
vt 0.0485698 0.809252


#
# MESH 000
#
g surface_000
usemtl surface_000
f 21/21/21 24/24/24 22/22/22
f 21/21/21 22/22/22 23/23/23
f 20/20/20 19/19/19 18/18/18
f 17/17/17 18/18/18 19/19/19
f 13/13/13 15/15/15 16/16/16
f 13/13/13 14/14/14 15/15/15
f 9/9/9 11/11/11 12/12/12
f 9/9/9 10/10/10 11/11/11
f 5/5/5 7/7/7 8/8/8
f 5/5/5 6/6/6 7/7/7
f 1/1/1 3/3/3 4/4/4
f 1/1/1 2/2/2 3/3/3

