#
# OBJECT NAME
#
o model_1079
mtllib 1079.mtl

#
# VERTEX BUFFER 000
#
v 0 0.650192 -0.434701
v -0.434701 0.650192 0
v -0.456436 0.745523 0
v 0 0.745523 -0.456436
v 0.434701 0.650192 0
v 0 0.650192 -0.434701
v 0 0.745523 -0.456436
v 0.456436 0.745523 0
v 1.08675e-006 0.650192 0.434701
v 0.434701 0.650192 0
v 0.456436 0.745523 0
v 1.08675e-006 0.745523 0.456436
v -0.434701 0.650192 0
v -0.456436 0.745523 0
v 0 0.745523 -0.456436
v -0.456436 0.745523 0
v -0.543376 0.836689 0
v -1.08675e-006 0.836689 -0.543376
v 0.456436 0.745523 0
v 0 0.745523 -0.456436
v -1.08675e-006 0.836689 -0.543376
v 0.543376 0.836689 0
v 1.08675e-006 0.745523 0.456436
v 0.456436 0.745523 0
v 0.543376 0.836689 0
v 1.08675e-006 0.836689 0.543376
v -0.456436 0.745523 0
v -0.543376 0.836689 0
v -1.08675e-006 0.836689 -0.543376
v -0.543376 0.836689 0
v -0.543376 1 0
v -1.08675e-006 1 -0.543376
v 0.543376 0.836689 0
v -1.08675e-006 0.836689 -0.543376
v -1.08675e-006 1 -0.543376
v 0.543376 1 0
v 1.08675e-006 0.836689 0.543376
v 0.543376 0.836689 0
v 0.543376 1 0
v 1.08675e-006 1 0.543376
v -0.543376 0.836689 0
v -0.543376 1 0
v -1.08675e-006 1 -0.543376
v -0.543376 1 0
v 0 1 0
v 0.543376 1 0
v 1.08675e-006 1 0.543376
v 0.543376 1 0
v -0.543376 1 0
v -0.434701 0 0
v -0.434701 0.650192 0
v -4.28631e-007 0.650192 -0.434701
v 1.44733e-007 0 -0.434701
v 1.44733e-007 0 -0.434701
v -4.28631e-007 0.650192 -0.434701
v 0.434701 0.650192 0
v 0.434701 0 0
v 0.434701 0 0
v 0.434701 0.650192 0
v 7.10506e-007 0.650192 0.434701
v 2.08192e-005 0 0.434701
v -0.434701 0.650192 0
v -0.434701 0 0
v 0 0 0
v 0.434701 0 0
v 2.08192e-005 0 0.434701
v -0.434701 0 0
v 1.44733e-007 0 -0.434701

vn 0 -0.22229 -0.974609
vn -0.974609 -0.22229 1.13249e-006
vn -0.974609 -0.22229 1.13249e-006
vn 0 -0.22229 -0.974609
vn 0.974609 -0.22229 -1.13249e-006
vn 0 -0.22229 -0.974609
vn 0 -0.22229 -0.974609
vn 0.974609 -0.22229 -1.01328e-006
vn 1.19209e-007 -0.22229 0.974609
vn 0.974609 -0.22229 -1.13249e-006
vn 0.974609 -0.22229 -1.01328e-006
vn 0 -0.22229 0.974609
vn -0.974609 -0.22229 1.13249e-006
vn -0.974609 -0.22229 1.13249e-006
vn 2.32458e-006 -0.689941 -0.723633
vn -0.723633 -0.689941 1.37091e-006
vn -0.723633 -0.689941 8.34465e-007
vn -4.41074e-006 -0.689941 -0.723633
vn 0.723633 -0.689941 -1.01328e-006
vn 2.32458e-006 -0.689941 -0.723633
vn -4.41074e-006 -0.689941 -0.723633
vn 0.723633 -0.689941 -4.76837e-007
vn 1.78814e-007 -0.689941 0.723633
vn 0.723633 -0.689941 -1.01328e-006
vn 0.723633 -0.689941 -4.76837e-007
vn -4.17233e-007 -0.689941 0.723633
vn -0.723633 -0.689941 1.37091e-006
vn -0.723633 -0.689941 8.34465e-007
vn 0 0 -1
vn -1 0 2.02656e-006
vn -1 0 2.02656e-006
vn 0 0 -1
vn 1 0 -2.02656e-006
vn 0 0 -1
vn 0 0 -1
vn 1 0 -2.02656e-006
vn 0 0 1
vn 1 0 -2.02656e-006
vn 1 0 -2.02656e-006
vn 0 0 1
vn -1 0 2.02656e-006
vn -1 0 2.02656e-006
vn 0 1 0
vn 0 1 0
vn 0 1 0
vn 0 1 0
vn 0 1 0
vn 0 1 0
vn 0 1 0
vn -1 -7.92742e-006 1.24574e-005
vn -1 -7.92742e-006 1.24574e-005
vn -4.76837e-007 0 -1
vn 3.57628e-007 0 -1
vn 3.57628e-007 0 -1
vn -4.76837e-007 0 -1
vn 1 7.92742e-006 -1.25766e-005
vn 1 7.92742e-006 -1.25766e-005
vn 1 7.92742e-006 -1.25766e-005
vn 1 7.92742e-006 -1.25766e-005
vn -1.38879e-005 0 1
vn 1.39475e-005 0 1
vn -1 -7.92742e-006 1.24574e-005
vn -1 -7.92742e-006 1.24574e-005
vn 0 -1 0
vn 0 -1 0
vn 0 -1 0
vn 0 -1 0
vn 0 -1 0

vt 0 0.501495
vt 0.166807 0.501495
vt 0.166807 0.553595
vt 0 0.553595
vt 0.833193 0.501495
vt 1 0.501495
vt 1 0.553595
vt 0.833193 0.553595
vt 0.500421 0.501495
vt 0.666386 0.501495
vt 0.666386 0.553595
vt 0.500421 0.553595
vt 0.333614 0.501495
vt 0.333614 0.553595
vt 0 0.553595
vt 0.166807 0.553595
vt 0.166807 0.501495
vt 0 0.501495
vt 0.833193 0.553595
vt 1 0.553595
vt 1 0.501495
vt 0.833193 0.501495
vt 0.500421 0.553595
vt 0.666386 0.553595
vt 0.666386 0.501495
vt 0.500421 0.501495
vt 0.333614 0.553595
vt 0.333614 0.501495
vt 0 0.553595
vt 0.166807 0.553595
vt 0.166807 0.501495
vt 0 0.501495
vt 0.833193 0.553595
vt 1 0.553595
vt 1 0.501495
vt 0.833193 0.501495
vt 0.500421 0.553595
vt 0.666386 0.553595
vt 0.666386 0.501495
vt 0.500421 0.501495
vt 0.333614 0.553595
vt 0.333614 0.501495
vt 0.710811 0.888829
vt 0.575747 0.966809
vt 0.575747 0.810849
vt 0.710812 0.73287
vt 0.440683 0.73287
vt 0.575747 0.65489
vt 0.440682 0.888829
vt 0.589973 0.255631
vt 0.589973 0.420902
vt 0.338099 0.420902
vt 0.338099 0.255631
vt 0.589973 0.255631
vt 0.589973 0.420902
vt 0.338099 0.420902
vt 0.338099 0.255631
vt 0.835281 0.255631
vt 0.835854 0.420902
vt 0.589973 0.420902
vt 0.589973 0.255631
vt 0.338099 0.420902
vt 0.338099 0.255631
vt 0.19042 0.813232
vt 0.332033 0.811618
vt 0.189495 0.976215
vt 0.0469414 0.811618
vt 0.189487 0.64702


#
# MESH 000
#
g surface_000
usemtl surface_000
f 49/49/49 47/47/47 45/45/45
f 47/47/47 48/48/48 45/45/45
f 46/46/46 43/43/43 45/45/45
f 43/43/43 44/44/44 45/45/45
f 41/41/41 40/40/40 42/42/42
f 41/41/41 37/37/37 40/40/40
f 37/37/37 39/39/39 40/40/40
f 37/37/37 38/38/38 39/39/39
f 33/33/33 35/35/35 36/36/36
f 33/33/33 34/34/34 35/35/35
f 29/29/29 31/31/31 32/32/32
f 29/29/29 30/30/30 31/31/31
f 27/27/27 26/26/26 28/28/28
f 27/27/27 23/23/23 26/26/26
f 23/23/23 25/25/25 26/26/26
f 23/23/23 24/24/24 25/25/25
f 19/19/19 21/21/21 22/22/22
f 19/19/19 20/20/20 21/21/21
f 15/15/15 17/17/17 18/18/18
f 15/15/15 16/16/16 17/17/17
f 13/13/13 12/12/12 14/14/14
f 13/13/13 9/9/9 12/12/12
f 9/9/9 11/11/11 12/12/12
f 9/9/9 10/10/10 11/11/11
f 5/5/5 7/7/7 8/8/8
f 5/5/5 6/6/6 7/7/7
f 1/1/1 3/3/3 4/4/4
f 1/1/1 2/2/2 3/3/3
f 61/61/61 62/62/62 63/63/63
f 61/61/61 60/60/60 62/62/62
f 58/58/58 60/60/60 61/61/61
f 58/58/58 59/59/59 60/60/60
f 54/54/54 56/56/56 57/57/57
f 54/54/54 55/55/55 56/56/56
f 50/50/50 52/52/52 53/53/53
f 50/50/50 51/51/51 52/52/52
f 68/68/68 65/65/65 64/64/64
f 64/64/64 65/65/65 66/66/66
f 66/66/66 67/67/67 64/64/64
f 67/67/67 68/68/68 64/64/64

