#
# OBJECT NAME
#
o model_2341
mtllib 2341.mtl

#
# VERTEX BUFFER 000
#
v 0.499143 0.183265 -0.107756
v 0.499143 0 -0.107756
v 0.312884 0.183265 -0.100473
v 0.312884 0.183265 -0.100473
v 0.499143 0 -0.107756
v 0.312884 0 -0.100473
v 0.312884 0.183265 0.100472
v 0.312884 0.183265 -0.100473
v 0.312884 0 0.100472
v 0.312884 0 0.100472
v 0.312884 0.183265 -0.100473
v 0.312884 0 -0.100473
v 0.499143 0.183265 0.107756
v 0.312884 0.183265 0.100472
v 0.499143 0 0.107756
v 0.312884 0 0.100472
v 0.499143 0.183265 0.107756
v 0.499143 0.183265 -0.107756
v 0.312884 0.183265 0.100472
v 0.312884 0.183265 -0.100473
v 0.499143 0 -0.107756
v 0.499143 0.183265 -0.107756
v 0.499143 0.183265 0.107756
v 0.499143 0 0.107756
v 0.312884 0 -0.100473
v 0.499143 0 -0.107756
v 0.499143 0 0.107756
v 0.312884 0 0.100472
v 0.499143 0.816735 0.107756
v 0.499143 1 0.107756
v 0.312884 0.816735 0.100473
v 0.312884 0.816735 0.100473
v 0.499143 1 0.107756
v 0.312884 1 0.100473
v 0.312884 0.816735 -0.100472
v 0.312884 0.816735 0.100473
v 0.312884 1 -0.100472
v 0.312884 1 -0.100472
v 0.312884 0.816735 0.100473
v 0.312884 1 0.100473
v 0.499143 0.816735 -0.107756
v 0.312884 0.816735 -0.100472
v 0.499143 1 -0.107756
v 0.499143 1 -0.107756
v 0.312884 0.816735 -0.100472
v 0.312884 1 -0.100472
v 0.499143 0.816735 -0.107756
v 0.499143 0.816735 0.107756
v 0.312884 0.816735 -0.100472
v 0.312884 0.816735 0.100473
v 0.499143 1 0.107756
v 0.499143 0.816735 0.107756
v 0.499143 0.816735 -0.107756
v 0.499143 1 -0.107756
v 0.312884 1 0.100473
v 0.499143 1 0.107756
v 0.499143 1 -0.107756
v 0.312884 1 -0.100472
v -0.499531 1 -0.107756
v -0.313272 1 -0.100473
v -0.499531 0 -0.107756
v -0.313272 0 -0.100473
v -0.499531 1 0.107756
v -0.499531 1 -0.107756
v -0.499531 0 0.107756
v -0.499531 0 -0.107756
v -0.313272 1 0.100472
v -0.313272 0 0.100472
v -0.313272 1 -0.100473
v -0.313272 0 -0.100473
v -0.499531 1 0.107756
v -0.499531 0 0.107756
v -0.313272 1 0.100472
v -0.313272 0 0.100472
v -0.313272 1 0.100472
v -0.313272 1 -0.100473
v -0.499531 1 -0.107756
v -0.499531 1 0.107756
v -0.499531 0 -0.107756
v -0.313272 0 -0.100473
v -0.313272 0 0.100472
v -0.499531 0 0.107756

vn -0.0390625 2.38419e-007 -0.999023
vn -0.0390625 2.38419e-007 -0.999023
vn -0.0390625 2.38419e-007 -0.999023
vn -0.0390625 -5.96046e-007 -0.999023
vn -0.0390625 -5.96046e-007 -0.999023
vn -0.0390625 -5.96046e-007 -0.999023
vn -1 1.78814e-007 0
vn -1 1.78814e-007 0
vn -1 1.78814e-007 0
vn -1 3.57628e-007 0
vn -1 3.57628e-007 0
vn -1 3.57628e-007 0
vn -0.0390625 2.38419e-007 0.999023
vn -0.0390625 2.38419e-007 0.999023
vn -0.0390625 2.38419e-007 0.999023
vn -0.0390625 2.38419e-007 0.999023
vn -4.76837e-007 1 0
vn -4.76837e-007 1 0
vn -4.76837e-007 1 0
vn -4.76837e-007 1 0
vn 1 -8.9407e-007 0
vn 1 -8.9407e-007 0
vn 1 -8.9407e-007 0
vn 1 -8.9407e-007 0
vn 0 -1 0
vn 0 -1 0
vn 0 -1 0
vn 0 -1 0
vn -0.0390625 -2.38419e-007 0.999023
vn -0.0390625 -2.38419e-007 0.999023
vn -0.0390625 -2.38419e-007 0.999023
vn -0.0390625 5.96046e-007 0.999023
vn -0.0390625 5.96046e-007 0.999023
vn -0.0390625 5.96046e-007 0.999023
vn -1 0 0
vn -1 0 0
vn -1 0 0
vn -1 -3.57628e-007 0
vn -1 -3.57628e-007 0
vn -1 -3.57628e-007 0
vn -0.0390625 -2.38419e-007 -0.999023
vn -0.0390625 -2.38419e-007 -0.999023
vn -0.0390625 -2.38419e-007 -0.999023
vn -0.0390625 -4.17233e-007 -0.999023
vn -0.0390625 -4.17233e-007 -0.999023
vn -0.0390625 -4.17233e-007 -0.999023
vn -5.96046e-007 -1 0
vn -5.96046e-007 -1 0
vn -5.96046e-007 -1 0
vn -5.96046e-007 -1 0
vn 1 8.9407e-007 0
vn 1 8.9407e-007 0
vn 1 8.9407e-007 0
vn 1 8.9407e-007 0
vn 0 1 0
vn 0 1 0
vn 0 1 0
vn 0 1 0
vn 0.0390625 0 -0.999023
vn 0.0390625 0 -0.999023
vn 0.0390625 0 -0.999023
vn 0.0390625 0 -0.999023
vn -1 0 0
vn -1 0 0
vn -1 0 0
vn -1 0 0
vn 1 0 0
vn 1 0 0
vn 1 0 0
vn 1 0 0
vn 0.0390625 0 0.999023
vn 0.0390625 0 0.999023
vn 0.0390625 0 0.999023
vn 0.0390625 0 0.999023
vn 0 1 0
vn 0 1 0
vn 0 1 0
vn 0 1 0
vn 0 -1 0
vn 0 -1 0
vn 0 -1 0
vn 0 -1 0

vt 0.515153 0.925403
vt 0.515153 0.810514
vt 0.601217 0.925403
vt 0.601217 0.925403
vt 0.515153 0.810514
vt 0.594236 0.810514
vt 0.81687 0.754886
vt 0.848843 0.754886
vt 0.81687 0.852953
vt 0.81687 0.852953
vt 0.848843 0.754886
vt 0.848843 0.852953
vt 0.126697 0.925403
vt 0.0345688 0.925403
vt 0.126697 0.810514
vt 0.0354844 0.810514
vt 0.81687 0.656028
vt 0.848843 0.656028
vt 0.81687 0.754886
vt 0.848843 0.754886
vt 0.541062 0.831189
vt 0.531113 0.901912
vt 0.471828 0.901912
vt 0.46188 0.831189
vt 0.0674958 0.902356
vt 0.0560077 0.829991
vt 0.136602 0.829991
vt 0.125114 0.902356
vt 0.515153 0.925403
vt 0.515153 0.810514
vt 0.601217 0.925403
vt 0.601217 0.925403
vt 0.515153 0.810514
vt 0.594236 0.810514
vt 0.81687 0.754886
vt 0.848843 0.754886
vt 0.81687 0.852953
vt 0.81687 0.852953
vt 0.848843 0.754886
vt 0.848843 0.852953
vt 0.126697 0.925403
vt 0.0345688 0.925403
vt 0.126697 0.810514
vt 0.126697 0.810514
vt 0.0345688 0.925403
vt 0.0354844 0.810514
vt 0.81687 0.656028
vt 0.848843 0.656028
vt 0.81687 0.754886
vt 0.848843 0.754886
vt 0.541062 0.831189
vt 0.531113 0.901912
vt 0.471828 0.901912
vt 0.46188 0.831189
vt 0.0674958 0.902356
vt 0.0560077 0.829991
vt 0.136602 0.829991
vt 0.125114 0.902356
vt 0.53228 0.411807
vt 0.53228 0.523749
vt 0.0229884 0.411806
vt 0.0229884 0.523753
vt 0.792258 0.991287
vt 0.730229 0.991287
vt 0.792258 0.0154549
vt 0.730229 0.0154549
vt 0.873347 0.972711
vt 0.873347 0.0541998
vt 0.904201 0.972711
vt 0.904201 0.0541998
vt 0.0229876 0.61242
vt 0.532279 0.61242
vt 0.0229876 0.724261
vt 0.532279 0.724261
vt 0.164881 0.915663
vt 0.0922272 0.915663
vt 0.0777412 0.839285
vt 0.179367 0.839285
vt 0.0777412 0.839285
vt 0.0922272 0.915663
vt 0.164881 0.915663
vt 0.179367 0.839285


#
# VERTEX BUFFER 001
#
v -0.313272 0 0
v 0.5 0 0
v -0.313272 1 0
v 0.5 1 0

vn 0 0 1
vn 0 0 1
vn 0 0 1
vn 0 0 1

vt 0.565853 0.472
vt 0.66 0.472
vt 0.565853 0.648
vt 0.66 0.648


#
# MESH 000
#
g surface_000
usemtl surface_000
f 10/10/10 11/11/11 12/12/12
f 7/7/7 8/8/8 9/9/9
f 4/4/4 5/5/5 6/6/6
f 1/1/1 2/2/2 3/3/3
f 25/25/25 27/27/27 28/28/28
f 25/25/25 26/26/26 27/27/27
f 21/21/21 23/23/23 24/24/24
f 21/21/21 22/22/22 23/23/23
f 19/19/19 18/18/18 20/20/20
f 17/17/17 18/18/18 19/19/19
f 15/15/15 14/14/14 16/16/16
f 13/13/13 14/14/14 15/15/15
f 44/44/44 45/45/45 46/46/46
f 41/41/41 42/42/42 43/43/43
f 38/38/38 39/39/39 40/40/40
f 35/35/35 36/36/36 37/37/37
f 32/32/32 33/33/33 34/34/34
f 29/29/29 30/30/30 31/31/31
f 55/55/55 57/57/57 58/58/58
f 55/55/55 56/56/56 57/57/57
f 51/51/51 53/53/53 54/54/54
f 51/51/51 52/52/52 53/53/53
f 49/49/49 48/48/48 50/50/50
f 47/47/47 48/48/48 49/49/49
f 79/79/79 81/81/81 82/82/82
f 79/79/79 80/80/80 81/81/81
f 75/75/75 77/77/77 78/78/78
f 75/75/75 76/76/76 77/77/77
f 73/73/73 72/72/72 74/74/74
f 71/71/71 72/72/72 73/73/73
f 69/69/69 68/68/68 70/70/70
f 67/67/67 68/68/68 69/69/69
f 65/65/65 64/64/64 66/66/66
f 63/63/63 64/64/64 65/65/65
f 61/61/61 60/60/60 62/62/62
f 59/59/59 60/60/60 61/61/61

#
# MESH 001
#
g surface_001
usemtl surface_001
f 85/85/85 84/84/84 86/86/86
f 83/83/83 84/84/84 85/85/85

