#
# OBJECT NAME
#
o model_2352
mtllib 2352.mtl

#
# VERTEX BUFFER 000
#
v 0.499143 0.183265 0
v 0.499143 0 -0.107756
v 0.312884 0.183265 -4.02331e-007
v 0.312884 0 -3.09199e-007
v 0.499143 0.183265 0
v 0.312884 0.183265 -4.02331e-007
v 0.499143 0 0.107756
v 0.312884 0 -3.09199e-007
v 0.499143 0 -0.107756
v 0.499143 0.183265 0
v 0.499143 0 0.107756
v 0.312884 0 -3.09199e-007
v 0.499143 0 -0.107756
v 0.499143 0 0.107756
v -0.499531 1 -0.107756
v -0.313272 1 -3.09199e-007
v -0.499531 0 -0.107756
v -0.313272 0 -3.09199e-007
v -0.499531 1 0.107756
v -0.499531 1 -0.107756
v -0.499531 0 0.107756
v -0.499531 0 -0.107756
v -0.499531 1 0.107756
v -0.499531 0 0.107756
v -0.313272 1 -3.09199e-007
v -0.313272 0 -3.09199e-007
v -0.313272 1 -3.09199e-007
v -0.499531 1 -0.107756
v -0.499531 1 0.107756
v -0.499531 0 -0.107756
v -0.313272 0 -3.09199e-007
v -0.499531 0 0.107756

vn 1.60933e-006 0.506836 -0.861816
vn -0.264648 0.274414 -0.924316
vn -0.269531 0.269531 -0.924316
vn -0.500488 -1.78814e-007 -0.865234
vn -2.02656e-006 0.506836 0.861816
vn -0.269531 0.269531 0.924316
vn -0.264648 0.274414 0.924316
vn -0.500488 5.36442e-007 0.865234
vn 1 -7.15256e-007 0
vn 1 -7.15256e-007 0
vn 1 -7.15256e-007 0
vn 0 -1 0
vn 0 -1 0
vn 0 -1 0
vn 0.0390625 0 -0.999023
vn 0.0390625 0 -0.999023
vn 0.0390625 0 -0.999023
vn 0.0390625 0 -0.999023
vn -1 0 0
vn -1 0 0
vn -1 0 0
vn -1 0 0
vn 0.0390625 0 0.999023
vn 0.0390625 0 0.999023
vn 0.0390625 0 0.999023
vn 0.0390625 0 0.999023
vn 0 1 0
vn 0 1 0
vn 0 1 0
vn 0 -1 0
vn 0 -1 0
vn 0 -1 0

vt 0.515153 0.925403
vt 0.515153 0.810514
vt 0.601217 0.925403
vt 0.594236 0.810514
vt 0.126697 0.925403
vt 0.0345688 0.925403
vt 0.126697 0.810514
vt 0.0354844 0.810514
vt 0.541062 0.831189
vt 0.501471 0.901912
vt 0.46188 0.831189
vt 0.0963048 0.902356
vt 0.0560077 0.829991
vt 0.136602 0.829991
vt 0.53228 0.411807
vt 0.53228 0.523749
vt 0.0229884 0.411806
vt 0.0229884 0.523753
vt 0.792258 0.991287
vt 0.730229 0.991287
vt 0.792258 0.0154549
vt 0.730229 0.0154549
vt 0.0229876 0.61242
vt 0.532279 0.61242
vt 0.0229876 0.724261
vt 0.532279 0.724261
vt 0.128554 0.915663
vt 0.0777412 0.839285
vt 0.179367 0.839285
vt 0.0777412 0.839285
vt 0.128554 0.915663
vt 0.179367 0.839285


#
# VERTEX BUFFER 001
#
v -0.313272 0 0
v 0.5 0 0
v -0.313272 1 0
v 0.5 1 0

vn 0 0 1
vn 0 0 1
vn 0 0 1
vn 0 0 1

vt 0.565853 0.472
vt 0.66 0.472
vt 0.565853 0.648
vt 0.66 0.648


#
# MESH 000
#
g surface_000
usemtl surface_000
f 12/12/12 13/13/13 14/14/14
f 9/9/9 10/10/10 11/11/11
f 7/7/7 6/6/6 8/8/8
f 5/5/5 6/6/6 7/7/7
f 3/3/3 2/2/2 4/4/4
f 1/1/1 2/2/2 3/3/3
f 30/30/30 31/31/31 32/32/32
f 27/27/27 28/28/28 29/29/29
f 25/25/25 24/24/24 26/26/26
f 23/23/23 24/24/24 25/25/25
f 21/21/21 20/20/20 22/22/22
f 19/19/19 20/20/20 21/21/21
f 17/17/17 16/16/16 18/18/18
f 15/15/15 16/16/16 17/17/17

#
# MESH 001
#
g surface_001
usemtl surface_001
f 35/35/35 34/34/34 36/36/36
f 33/33/33 34/34/34 35/35/35

