#
# OBJECT NAME
#
o model_2383
mtllib 2383.mtl

#
# VERTEX BUFFER 000
#
v -0.499143 0.183265 0.107756
v -0.499143 0 0.107756
v -0.312884 0.183265 0.100473
v -0.312884 0.183265 0.100473
v -0.499143 0 0.107756
v -0.312884 0 0.100473
v -0.312884 0.183265 -0.100472
v -0.312884 0.183265 0.100473
v -0.312884 0 -0.100472
v -0.312884 0 -0.100472
v -0.312884 0.183265 0.100473
v -0.312884 0 0.100473
v -0.499143 0.183265 -0.107756
v -0.312884 0.183265 -0.100472
v -0.499143 0 -0.107756
v -0.499143 0 -0.107756
v -0.312884 0.183265 -0.100472
v -0.312884 0 -0.100472
v -0.499143 0.183265 -0.107756
v -0.499143 0.183265 0.107756
v -0.312884 0.183265 -0.100472
v -0.312884 0.183265 0.100473
v -0.499143 0 0.107756
v -0.499143 0.183265 0.107756
v -0.499143 0.183265 -0.107756
v -0.499143 0 -0.107756
v -0.312884 0 0.100473
v -0.499143 0 0.107756
v -0.499143 0 -0.107756
v -0.312884 0 -0.100472
v -0.499143 0.816735 -0.107756
v -0.499143 1 -0.107756
v -0.312884 0.816735 -0.100473
v -0.312884 0.816735 -0.100473
v -0.499143 1 -0.107756
v -0.312884 1 -0.100473
v -0.312884 0.816735 0.100472
v -0.312884 0.816735 -0.100473
v -0.312884 1 0.100472
v -0.312884 1 0.100472
v -0.312884 0.816735 -0.100473
v -0.312884 1 -0.100473
v -0.499143 0.816735 0.107756
v -0.312884 0.816735 0.100472
v -0.499143 1 0.107756
v -0.312884 1 0.100472
v -0.499143 0.816735 0.107756
v -0.499143 0.816735 -0.107756
v -0.312884 0.816735 0.100472
v -0.312884 0.816735 -0.100473
v -0.499143 1 -0.107756
v -0.499143 0.816735 -0.107756
v -0.499143 0.816735 0.107756
v -0.499143 1 0.107756
v -0.312884 1 -0.100473
v -0.499143 1 -0.107756
v -0.499143 1 0.107756
v -0.312884 1 0.100472

vn 0.0390625 2.38419e-007 0.999023
vn 0.0390625 2.38419e-007 0.999023
vn 0.0390625 2.38419e-007 0.999023
vn 0.0390625 -5.96046e-007 0.999023
vn 0.0390625 -5.96046e-007 0.999023
vn 0.0390625 -5.96046e-007 0.999023
vn 1 0 0
vn 1 0 0
vn 1 0 0
vn 1 3.57628e-007 0
vn 1 3.57628e-007 0
vn 1 3.57628e-007 0
vn 0.0390625 2.38419e-007 -0.999023
vn 0.0390625 2.38419e-007 -0.999023
vn 0.0390625 2.38419e-007 -0.999023
vn 0.0390625 4.17233e-007 -0.999023
vn 0.0390625 4.17233e-007 -0.999023
vn 0.0390625 4.17233e-007 -0.999023
vn 4.76837e-007 1 0
vn 4.76837e-007 1 0
vn 4.76837e-007 1 0
vn 4.76837e-007 1 0
vn -1 -8.9407e-007 0
vn -1 -8.9407e-007 0
vn -1 -8.9407e-007 0
vn -1 -8.9407e-007 0
vn 0 -1 0
vn 0 -1 0
vn 0 -1 0
vn 0 -1 0
vn 0.0390625 -2.38419e-007 -0.999023
vn 0.0390625 -2.38419e-007 -0.999023
vn 0.0390625 -2.38419e-007 -0.999023
vn 0.0390625 5.96046e-007 -0.999023
vn 0.0390625 5.96046e-007 -0.999023
vn 0.0390625 5.96046e-007 -0.999023
vn 1 -1.78814e-007 0
vn 1 -1.78814e-007 0
vn 1 -1.78814e-007 0
vn 1 -3.57628e-007 0
vn 1 -3.57628e-007 0
vn 1 -3.57628e-007 0
vn 0.0390625 -2.38419e-007 0.999023
vn 0.0390625 -2.38419e-007 0.999023
vn 0.0390625 -2.38419e-007 0.999023
vn 0.0390625 -2.38419e-007 0.999023
vn 5.96046e-007 -1 0
vn 5.96046e-007 -1 0
vn 5.96046e-007 -1 0
vn 5.96046e-007 -1 0
vn -1 8.9407e-007 0
vn -1 8.9407e-007 0
vn -1 8.9407e-007 0
vn -1 8.9407e-007 0
vn 0 1 0
vn 0 1 0
vn 0 1 0
vn 0 1 0

vt 0.515153 0.918533
vt 0.515153 0.810514
vt 0.601217 0.918533
vt 0.601217 0.918533
vt 0.515153 0.810514
vt 0.594236 0.810514
vt 0.81687 0.754886
vt 0.848843 0.754886
vt 0.81687 0.852953
vt 0.81687 0.852953
vt 0.848843 0.754886
vt 0.848843 0.852953
vt 0.126697 0.918533
vt 0.0319943 0.918533
vt 0.126697 0.810514
vt 0.126697 0.810514
vt 0.0319943 0.918533
vt 0.0354844 0.810514
vt 0.81687 0.656028
vt 0.848843 0.656028
vt 0.81687 0.754886
vt 0.848843 0.754886
vt 0.541062 0.831189
vt 0.531113 0.901912
vt 0.471828 0.901912
vt 0.46188 0.831189
vt 0.0674958 0.902356
vt 0.0560077 0.829991
vt 0.136602 0.829991
vt 0.125114 0.902356
vt 0.515153 0.918533
vt 0.515153 0.810514
vt 0.601217 0.918533
vt 0.601217 0.918533
vt 0.515153 0.810514
vt 0.594236 0.810514
vt 0.81687 0.754886
vt 0.848843 0.754886
vt 0.81687 0.852953
vt 0.81687 0.852953
vt 0.848843 0.754886
vt 0.848843 0.852953
vt 0.126697 0.918533
vt 0.0345688 0.918533
vt 0.126697 0.810514
vt 0.0354844 0.810514
vt 0.81687 0.656028
vt 0.848843 0.656028
vt 0.81687 0.754886
vt 0.848843 0.754886
vt 0.541062 0.831189
vt 0.531113 0.901912
vt 0.471828 0.901912
vt 0.46188 0.831189
vt 0.0674958 0.902356
vt 0.0560077 0.829991
vt 0.136602 0.829991
vt 0.125114 0.902356


#
# VERTEX BUFFER 001
#
v -0.5 0 0
v 0.5 0 0
v -0.5 1 0
v 0.5 1 0

vn 0 0 1
vn 0 0 1
vn 0 0 1
vn 0 0 1

vt 0.61 0.472
vt 0.66 0.472
vt 0.61 0.648
vt 0.66 0.648


#
# MESH 000
#
g surface_000
usemtl surface_000
f 16/16/16 17/17/17 18/18/18
f 13/13/13 14/14/14 15/15/15
f 10/10/10 11/11/11 12/12/12
f 7/7/7 8/8/8 9/9/9
f 4/4/4 5/5/5 6/6/6
f 1/1/1 2/2/2 3/3/3
f 27/27/27 29/29/29 30/30/30
f 27/27/27 28/28/28 29/29/29
f 23/23/23 25/25/25 26/26/26
f 23/23/23 24/24/24 25/25/25
f 21/21/21 20/20/20 22/22/22
f 19/19/19 20/20/20 21/21/21
f 40/40/40 41/41/41 42/42/42
f 37/37/37 38/38/38 39/39/39
f 34/34/34 35/35/35 36/36/36
f 31/31/31 32/32/32 33/33/33
f 55/55/55 57/57/57 58/58/58
f 55/55/55 56/56/56 57/57/57
f 51/51/51 53/53/53 54/54/54
f 51/51/51 52/52/52 53/53/53
f 49/49/49 48/48/48 50/50/50
f 47/47/47 48/48/48 49/49/49
f 45/45/45 44/44/44 46/46/46
f 43/43/43 44/44/44 45/45/45

#
# MESH 001
#
g surface_001
usemtl surface_001
f 61/61/61 60/60/60 62/62/62
f 59/59/59 60/60/60 61/61/61

