#
# OBJECT NAME
#
o model_4841
mtllib 4841.mtl

#
# VERTEX BUFFER 000
#
v -0.0535625 0.0714387 -0.286604
v -0.0911842 0.160086 -0.160257
v 0.122906 0.230011 -0.0898454
v 0.184402 0.150581 -0.202015
v -0.014686 0.110163 -0.417038
v 0.214268 0.185891 -0.337251
v 0.0572593 0.078344 -0.546252
v 0.253784 0.141106 -0.489555
v -0.108234 0.122821 -0.0398403
v 0.0882905 0.185584 0.0168561
v -0.0301269 0.28314 0.165851
v 1.66707e-006 0.307999 -0.138807
v -0.123751 0.366911 -0.150651
v -0.153893 0.287781 0.153884
v -0.640853 0.124108 0.118032
v -0.520068 0.163514 0.128072
v -0.489939 0.225426 -0.176466
v -0.610724 0.181442 -0.186504
v -0.319397 0.20778 -0.159047
v -0.349486 0.133207 0.145494
v 0.0552176 0.387003 0.355095
v 0.295136 0.327897 0.220813
v 0.243948 0.439163 0.125844
v 0.0111427 0.500059 0.257073
v 0.342953 0.309533 0.309524
v 0.103033 0.368639 0.443806
v 0.367617 0.236524 0.417298
v 0.173083 0.303631 0.522153
v 0.175205 0.480079 0.0160744
v 0.113327 0.45891 -0.0536103
v -0.0812077 0.45891 0.0512447
v -0.0348913 0.523598 0.136303
v -0.119742 0.564898 0.0966336
v 0.0671569 0.591172 -0.0628939
v -0.0695751 0.69136 -0.228803
v -0.280869 0.587143 -0.0308003
v -0.353507 0.490068 -0.132228
v -0.142312 0.594166 -0.330352
v -0.256446 0.543984 -0.46788
v -0.467741 0.439766 -0.269877
v -0.489776 0.329589 -0.347088
v -0.302877 0.433451 -0.506616
v -0.0349164 0.960346 0.250328
v 0.0835224 0.888228 0.069918
v -0.106972 0.852075 -0.0600702
v -0.225412 0.869685 0.12034
v -0.286949 0.764381 0.226838
v -0.0964543 0.855042 0.356827
v -0.339623 0.696718 0.335538
v -0.149128 0.78738 0.465526
v -0.169404 0.615578 0.543022
v -0.3599 0.524917 0.413034
v 0.247198 0.703545 0.141103
v 0.246038 0.800878 -0.113545
v 0.121763 0.80514 -0.11112
v 0.122921 0.707806 0.143529
v 0.34982 0.733786 -0.121337
v 0.350979 0.636452 0.133311
v 0.413915 0.609004 -0.139357
v 0.414356 0.512164 0.126431
v 0.556782 0.573743 -0.124208
v 0.55794 0.47641 0.0824495
v 0.121763 0.80514 -0.11112
v 0.00836758 0.741588 -0.0963066
v 0.00952728 0.713563 0.11035
v 0.00952728 0.713563 0.11035
v 0.0765242 0.962155 0.0522966
v 0.276589 0.849757 -0.177623
v 0.0749513 0.947592 -0.349587
v -0.0951779 0.999467 -0.0825651
v 0.245656 1.06287 -0.490225
v 0.417359 0.984165 -0.355362
v -6.80191e-005 0 -0.0229418
v 0.0264271 0 0
v -7.05454e-005 0 0.0229418
v -7.05454e-005 0 0.0229418
v 0.0264271 0 0
v 0.0264299 1 0
v -2.78451e-005 1 0.0229418
v -0.0265549 0 0
v -6.80191e-005 0 -0.0229418
v -0.0265549 0 0
v -0.0265577 1 0
v -2.70815e-005 1 -0.0229418
v -0.0265549 0 0
v -0.0265577 1 0
v 0.0264299 1 0
v 0.0264271 0 0
v -2.78451e-005 1 0.0229418
v 0.0264299 1 0
v -2.70815e-005 1 -0.0229418
v -0.0265577 1 0

vn -0.238892 0.945801 -0.218506
vn -0.196777 0.931641 -0.304688
vn -0.205078 0.936523 -0.283936
vn -0.22522 0.940918 -0.252686
vn -0.29248 0.953125 -0.0736694
vn -0.293945 0.953125 -0.0688477
vn -0.19519 0.923828 -0.328613
vn -0.19519 0.923828 -0.328613
vn -0.36499 0.898926 0.240356
vn -0.36499 0.898926 0.240356
vn 0.227539 0.955566 0.185669
vn 0.227539 0.955566 0.185669
vn -0.354004 0.919922 0.166626
vn -0.389648 0.90625 0.16333
vn -0.333496 0.930664 0.14917
vn -0.0809937 0.976563 0.199219
vn -0.0739746 0.976563 0.200317
vn -0.333496 0.930664 0.14917
vn -0.364502 0.912598 0.182861
vn -0.327148 0.925781 0.188354
vn 0.418701 0.825684 0.377686
vn 0.409668 0.839844 0.355713
vn 0.420166 0.818848 0.390625
vn 0.412842 0.830566 0.373291
vn 0.364502 0.903809 0.223511
vn 0.357178 0.909668 0.210205
vn 0.443604 0.8125 0.376953
vn 0.443604 0.8125 0.376953
vn 0.142334 0.986328 -0.0817261
vn -0.130615 0.902832 -0.409424
vn -0.130615 0.902832 -0.409424
vn 0.140991 0.986328 -0.083374
vn 0.0228882 0.930176 0.36499
vn 0.0228882 0.930176 0.36499
vn -0.306152 0.948242 0.0820313
vn -0.31958 0.944824 0.0690308
vn -0.517578 0.848633 -0.105652
vn -0.526855 0.841309 -0.119385
vn -0.550781 0.819336 -0.158569
vn -0.57666 0.791504 -0.201416
vn -0.710449 0.487061 -0.507324
vn -0.710449 0.487061 -0.507324
vn -0.342285 0.938965 -0.0258484
vn -0.106567 0.945801 -0.305176
vn -0.106567 0.945801 -0.305176
vn -0.358887 0.933105 -0.00374985
vn -0.569824 0.763672 0.302246
vn -0.573242 0.756836 0.3125
vn -0.630371 0.569824 0.526367
vn -0.624023 0.607422 0.490723
vn -0.637695 0.37793 0.670898
vn -0.637695 0.37793 0.670898
vn 0.305176 0.889648 0.338623
vn 0.282715 0.895996 0.341309
vn 0.0280457 0.933594 0.356689
vn 0.0128937 0.933594 0.356934
vn 0.725586 0.643555 0.241455
vn 0.767578 0.600098 0.224243
vn 0.663086 0.695801 0.273926
vn 0.615234 0.732422 0.290283
vn 0.258301 0.893555 0.366455
vn 0.258301 0.893555 0.366455
vn -0.473145 0.872559 0.120972
vn -0.473145 0.872559 0.120972
vn -0.473145 0.872559 0.120972
vn -0.0570068 0.932129 0.356445
vn 0.365479 0.929688 -0.0351257
vn 0.186279 0.951172 0.244263
vn 0.173096 0.949219 0.262451
vn 0.365479 0.929688 -0.0351257
vn -0.0780029 0.819824 0.566406
vn -0.0780029 0.819824 0.566406
vn 0 -1 0
vn 0 -1 0
vn 0 -1 0
vn -1.77622e-005 -1.19209e-006 1
vn 1 -2.22921e-005 3.5882e-005
vn 1 -2.22921e-005 3.5882e-005
vn 1.78218e-005 -1.19209e-006 1
vn 0 -1 0
vn -1.69873e-005 -1.19209e-006 -1
vn -1 1.94907e-005 -3.58224e-005
vn -1 1.94907e-005 -3.58224e-005
vn 1.71065e-005 -1.19209e-006 -1
vn -1 1.94907e-005 -3.58224e-005
vn -1 1.94907e-005 -3.58224e-005
vn 1 -2.22921e-005 3.5882e-005
vn 1 -2.22921e-005 3.5882e-005
vn 0 1 0
vn -4.47035e-006 1 0
vn 0 1 0
vn 4.47035e-006 1 0

vt 0.221597 0.763393
vt 0.338051 0.763393
vt 0.338051 0.476739
vt 0.221597 0.476739
vt 0.126421 0.763393
vt 0.126421 0.476739
vt 0.01221 0.763393
vt 0.01221 0.476739
vt 0.401886 0.763393
vt 0.401886 0.476739
vt 0.825171 0.484655
vt 0.825171 0.787771
vt 0.726643 0.787771
vt 0.726643 0.484655
vt 0.444467 0.484655
vt 0.495392 0.484655
vt 0.495392 0.787771
vt 0.444467 0.787771
vt 0.571316 0.787771
vt 0.571316 0.484655
vt 0.169343 0.078841
vt 0.169343 0.379539
vt 0.273676 0.379539
vt 0.273876 0.0788407
vt 0.092331 0.379539
vt 0.092331 0.078841
vt 0.013904 0.379539
vt 0.013904 0.078841
vt 0.357889 0.379539
vt 0.414017 0.379539
vt 0.414017 0.078841
vt 0.357528 0.0788404
vt 0.828137 0.060571
vt 0.828137 0.368898
vt 0.713926 0.368898
vt 0.713926 0.0605715
vt 0.626523 0.0605714
vt 0.626523 0.368898
vt 0.523575 0.368898
vt 0.523575 0.060571
vt 0.447434 0.060571
vt 0.447434 0.368898
vt 0.269185 0.479651
vt 0.401886 0.479651
vt 0.401886 0.758261
vt 0.269185 0.758261
vt 0.163617 0.758261
vt 0.163617 0.479651
vt 0.0931814 0.758261
vt 0.0931814 0.479651
vt 0.01221 0.479651
vt 0.01221 0.758261
vt 0.673208 0.488834
vt 0.673208 0.785815
vt 0.74903 0.785815
vt 0.74903 0.488834
vt 0.596748 0.785815
vt 0.596748 0.488834
vt 0.507513 0.785815
vt 0.507821 0.488834
vt 0.444467 0.785815
vt 0.444467 0.488834
vt 0.74903 0.785815
vt 0.825171 0.785815
vt 0.825171 0.488834
vt 0.825171 0.488834
vt 0.401886 0.482039
vt 0.202561 0.482039
vt 0.202561 0.771551
vt 0.401886 0.771551
vt 0.01221 0.771551
vt 0.01221 0.482039
vt 0.910997 0.737366
vt 0.930746 0.783004
vt 0.950495 0.737366
vt 0.033365 0.905963
vt 0.033365 0.846452
vt 0.700211 0.846452
vt 0.700211 0.905963
vt 0.930746 0.69173
vt 0.033365 0.905963
vt 0.033365 0.846452
vt 0.700211 0.846452
vt 0.700211 0.905963
vt 0.033365 0.965473
vt 0.700211 0.965473
vt 0.700211 0.965473
vt 0.033365 0.965473
vt 0.975243 0.775181
vt 0.956519 0.738877
vt 0.975242 0.702572
vt 0.994017 0.738877


#
# MESH 000
#
g surface_000
usemtl surface_000
f 3/3/3 9/9/9 10/10/10
f 3/3/3 2/2/2 9/9/9
f 1/1/1 2/2/2 3/3/3
f 1/1/1 3/3/3 4/4/4
f 5/5/5 1/1/1 4/4/4
f 5/5/5 4/4/4 6/6/6
f 7/7/7 5/5/5 6/6/6
f 7/7/7 6/6/6 8/8/8
f 15/15/15 17/17/17 18/18/18
f 15/15/15 16/16/16 17/17/17
f 19/19/19 17/17/17 16/16/16
f 19/19/19 16/16/16 20/20/20
f 13/13/13 19/19/19 20/20/20
f 13/13/13 20/20/20 14/14/14
f 11/11/11 13/13/13 14/14/14
f 11/11/11 12/12/12 13/13/13
f 29/29/29 30/30/30 31/31/31
f 29/29/29 31/31/31 32/32/32
f 32/32/32 23/23/23 29/29/29
f 32/32/32 24/24/24 23/23/23
f 21/21/21 23/23/23 24/24/24
f 21/21/21 22/22/22 23/23/23
f 25/25/25 22/22/22 21/21/21
f 25/25/25 21/21/21 26/26/26
f 27/27/27 25/25/25 26/26/26
f 27/27/27 26/26/26 28/28/28
f 41/41/41 39/39/39 42/42/42
f 41/41/41 40/40/40 39/39/39
f 38/38/38 39/39/39 40/40/40
f 38/38/38 40/40/40 37/37/37
f 37/37/37 35/35/35 38/38/38
f 37/37/37 36/36/36 35/35/35
f 33/33/33 35/35/35 36/36/36
f 33/33/33 34/34/34 35/35/35
f 51/51/51 49/49/49 52/52/52
f 51/51/51 50/50/50 49/49/49
f 49/49/49 50/50/50 48/48/48
f 49/49/49 48/48/48 47/47/47
f 47/47/47 48/48/48 43/43/43
f 47/47/47 43/43/43 46/46/46
f 43/43/43 45/45/45 46/46/46
f 43/43/43 44/44/44 45/45/45
f 63/63/63 64/64/64 65/65/65
f 55/55/55 66/66/66 56/56/56
f 53/53/53 55/55/55 56/56/56
f 53/53/53 54/54/54 55/55/55
f 57/57/57 54/54/54 53/53/53
f 57/57/57 53/53/53 58/58/58
f 59/59/59 57/57/57 58/58/58
f 59/59/59 58/58/58 60/60/60
f 61/61/61 59/59/59 60/60/60
f 61/61/61 60/60/60 62/62/62
f 71/71/71 68/68/68 72/72/72
f 71/71/71 69/69/69 68/68/68
f 67/67/67 68/68/68 69/69/69
f 67/67/67 69/69/69 70/70/70
f 89/89/89 91/91/91 92/92/92
f 89/89/89 90/90/90 91/91/91
f 81/81/81 87/87/87 88/88/88
f 81/81/81 84/84/84 87/87/87
f 81/81/81 83/83/83 84/84/84
f 81/81/81 82/82/82 83/83/83
f 85/85/85 79/79/79 86/86/86
f 85/85/85 76/76/76 79/79/79
f 76/76/76 78/78/78 79/79/79
f 76/76/76 77/77/77 78/78/78
f 80/80/80 73/73/73 75/75/75
f 73/73/73 74/74/74 75/75/75

