g l006v001_l
v -0.1506166 0.622878 0.4473779
v 0 0.6228779 0.8255277
v 0 0.4489606 0.4473714
v 0 0.4489606 0.4473714
v 0 0.6228779 0.8255277
v 0.1506164 0.6228778 0.4473714
v 0.1506164 0.6228778 0.4473714
v 0 0.6228779 0.8255277
v 0 0.7967951 0.4473714
v 0 0.7967951 0.4473714
v 0 0.6228779 0.8255277
v -0.1506166 0.622878 0.4473779
v 0.3713808 0.5412911 0.3900309
v -0.3713803 0.5412911 0.3900309
v -0.3713803 0.5412911 -0.3896023
v 0.3713808 0.5412911 -0.3896023
v 0.1792717 0.3449752 0.4441403
v 0.4254999 0.5122994 0.4441468
v 0.4254999 0.5122994 -0.4437248
v 0.1792717 0.3449752 -0.4437312
v 0.3713808 0.996166 -0.3896023
v 0.4254999 0.9965894 -0.4555998
v 0.4254999 0.9965894 0.4560283
v 0.3713808 0.996166 0.3900309
v -0.3713803 0.996166 -0.3896023
v -0.4255004 0.9965894 -0.4555998
v 0.4254999 0.9965894 -0.4555998
v 0.3713808 0.996166 -0.3896023
v 0.3713808 0.996166 0.3900309
v 0.3713808 0.5412911 0.3900309
v 0.3713808 0.5412911 -0.3896023
v 0.3713808 0.996166 -0.3896023
v 0.3713808 0.5412911 -0.3896023
v -0.3713803 0.5412911 -0.3896023
v -0.3713803 0.996166 -0.3896023
v 0.3713808 0.996166 -0.3896023
v -0.3713803 0.996166 -0.3896023
v -0.3713803 0.5412911 -0.3896023
v -0.3713803 0.5412911 0.3900309
v -0.3713803 0.996166 0.3900309
v -0.3713803 0.996166 0.3900309
v -0.3713803 0.5412911 0.3900309
v 0.3713808 0.5412911 0.3900309
v 0.3713808 0.996166 0.3900309
v -0.4255004 0.5122994 0.4441468
v -0.1792712 0.3449752 0.4441468
v -0.1792712 0.3449752 -0.4437248
v -0.4255004 0.5122994 -0.4437248
v 0.1792717 0.3449752 -0.4437312
v -0.1792712 0.3449752 -0.4437248
v -0.1792712 0.3449752 0.4441468
v 0.1792717 0.3449752 0.4441403
v 0.1792717 0.3449752 0.4441403
v -0.1792712 0.3449752 0.4441468
v -0.4255004 0.5122994 0.4441468
v 0.4254999 0.5122994 0.4441468
v 0.4254999 0.9965894 0.4560283
v -0.4255004 0.9965894 0.4560218
v -0.4255004 0.5122994 -0.4437248
v -0.1792712 0.3449752 -0.4437248
v 0.1792717 0.3449752 -0.4437312
v 0.4254999 0.5122994 -0.4437248
v -0.4255004 0.9965894 -0.4555998
v 0.4254999 0.9965894 -0.4555998
v 0.4254999 0.5122994 0.4441468
v 0.4254999 0.9965894 0.4560283
v 0.4254999 0.9965894 -0.4555998
v 0.4254999 0.5122994 -0.4437248
v -0.4255004 0.5122994 -0.4437248
v -0.4255004 0.9965894 -0.4555998
v -0.4255004 0.9965894 0.4560218
v -0.4255004 0.5122994 0.4441468
v -0.3713803 0.996166 -0.3896023
v -0.3713803 0.996166 0.3900309
v -0.4255004 0.9965894 0.4560218
v -0.4255004 0.9965894 -0.4555998
v -0.3713803 0.996166 0.3900309
v 0.3713808 0.996166 0.3900309
v 0.4254999 0.9965894 0.4560283
v -0.4255004 0.9965894 0.4560218
v 0.08224702 0.3460956 0.420905
v 0.08224702 0.3460956 0.4870459
v -0.08224678 0.3460956 0.4870394
v -0.08224678 0.3460956 0.4205243
v 0.08224702 0.3460956 0.4870459
v 0.08224702 0.3460956 -0.4352584
v 0.08224702 0.1819208 -0.4352584
v 0.08224702 0.1819208 0.4870459
v -0.08224678 0.1819208 0.4870394
v -0.08224678 0.1819208 -0.4352519
v -0.08224678 0.3460956 -0.4352519
v -0.08224678 0.3460956 0.4870394
v 0.08224702 0.1819208 0.4870459
v 0.08224702 0.1819208 -0.4352584
v -0.08224678 0.1819208 -0.4352519
v -0.08224678 0.1819208 0.4870394
v 0.08224702 0.1819208 0.4870459
v -0.08224678 0.1819208 0.4870394
v -0.08224678 0.3460956 0.4870394
v 0.08224702 0.3460956 0.4870459
v 0.08224702 0.3460956 -0.4352584
v -0.08224678 0.3460956 -0.4352519
v -0.08224678 0.1819208 -0.4352519
v 0.08224702 0.1819208 -0.4352584
v -9.536743E-07 0.3758207 0.4559402
v -0.2202616 0.5122994 0.4559402
v 0.2202604 0.5122994 0.4559402
v 0.2202604 0.8530035 0.4559402
v -0.2202616 0.8530035 0.4559402
v 0.369328 0.2301495 0.3270596
v -0.369328 0.2316376 0.3301986
v -0.369328 0.2758379 0.3017343
v 0.369328 0.2743497 0.2985954
v -0.369328 0.2316376 0.3301986
v 0.369328 0.2301495 0.3270596
v 0.369328 0.2301495 0.270138
v -0.369328 0.2316376 0.2732769
v 0.369328 0.2743497 0.2985954
v -0.369328 0.2758379 0.3017343
v -0.369328 0.2316376 0.2732769
v 0.369328 0.2301495 0.270138
v -0.3841548 0.3758318 0.299748
v -0.3841548 0.1834712 0.1933647
v -0.3841548 0.3140746 0.194796
v -0.3841548 0.1221681 0.300252
v -0.3841548 0.3146857 0.4085488
v -0.3841548 0.1898434 0.4079214
v -0.2874064 0.3928321 0.2997075
v -0.2874064 0.3223577 0.1806184
v -0.2874064 0.1746787 0.1788177
v -0.2874064 0.1051679 0.300279
v -0.2874064 0.3234782 0.4230959
v -0.2874064 0.1819026 0.4223146
v -0.3841548 0.3758318 0.299748
v -0.2874064 0.3234782 0.4230959
v -0.3841548 0.3146857 0.4085488
v -0.2874064 0.3928321 0.2997075
v -0.2874064 0.3223577 0.1806184
v -0.3841548 0.3140746 0.194796
v -0.3841548 0.1834712 0.1933647
v -0.2874064 0.1746787 0.1788177
v -0.2874064 0.1819026 0.4223146
v -0.3841548 0.3146857 0.4085488
v -0.2874064 0.3234782 0.4230959
v -0.3841548 0.1898434 0.4079214
v -0.3841548 0.1221681 0.300252
v -0.2874064 0.1051679 0.300279
v -0.3841548 0.1834712 0.1933647
v -0.2874064 0.1746787 0.1788177
v 0.3841548 0.3758318 0.2997413
v 0.3841548 0.1894449 0.4076788
v 0.3841548 0.3146857 0.4085488
v 0.3841548 0.1221681 0.3002453
v 0.3841548 0.1834712 0.1933648
v 0.3841548 0.3144536 0.1944014
v 0.3841548 0.1834712 0.1933648
v 0.2874062 0.3232117 0.1805022
v 0.2874062 0.1746787 0.1788177
v 0.3841548 0.3144536 0.1944014
v 0.3841548 0.3758318 0.2997413
v 0.2874062 0.3928322 0.2997143
v 0.3841548 0.3146857 0.4085488
v 0.2874062 0.3234782 0.4230959
v 0.2874062 0.1051679 0.3002858
v 0.3841548 0.1834712 0.1933648
v 0.2874062 0.1746787 0.1788177
v 0.3841548 0.1221681 0.3002453
v 0.2874062 0.1810209 0.4217715
v 0.3841548 0.1894449 0.4076788
v 0.3841548 0.3146857 0.4085488
v 0.2874062 0.3234782 0.4230959
v 0.2874062 0.1810209 0.4217715
v 0.2874062 0.3928322 0.2997143
v 0.2874062 0.3234782 0.4230959
v 0.2874062 0.1051679 0.3002858
v 0.2874062 0.3232117 0.1805022
v 0.2874062 0.1746787 0.1788177
v 0.369328 0.2301495 -0.2729404
v -0.369328 0.2316376 -0.2698015
v -0.369328 0.2758379 -0.2982657
v 0.369328 0.2743497 -0.3014046
v -0.369328 0.2316376 -0.2698015
v 0.369328 0.2301495 -0.2729404
v 0.369328 0.2301495 -0.3298621
v -0.369328 0.2316376 -0.3267232
v 0.369328 0.2743497 -0.3014046
v -0.369328 0.2758379 -0.2982657
v -0.369328 0.2316376 -0.3267232
v 0.369328 0.2301495 -0.3298621
v -0.3841548 0.3758318 -0.300252
v -0.3841548 0.1834712 -0.4066353
v -0.3841548 0.3140746 -0.405204
v -0.3841548 0.1221681 -0.2997481
v -0.3841548 0.3146857 -0.1914512
v -0.3841548 0.1898434 -0.1920786
v -0.2874064 0.3928321 -0.3002925
v -0.2874064 0.3223577 -0.4193816
v -0.2874064 0.1746787 -0.4211824
v -0.2874064 0.1051679 -0.299721
v -0.2874064 0.3234782 -0.1769042
v -0.2874064 0.1819026 -0.1776854
v -0.3841548 0.3758318 -0.300252
v -0.2874064 0.3234782 -0.1769042
v -0.3841548 0.3146857 -0.1914512
v -0.2874064 0.3928321 -0.3002925
v -0.2874064 0.3223577 -0.4193816
v -0.3841548 0.3140746 -0.405204
v -0.3841548 0.1834712 -0.4066353
v -0.2874064 0.1746787 -0.4211824
v -0.2874064 0.1819026 -0.1776854
v -0.3841548 0.3146857 -0.1914512
v -0.2874064 0.3234782 -0.1769042
v -0.3841548 0.1898434 -0.1920786
v -0.3841548 0.1221681 -0.2997481
v -0.2874064 0.1051679 -0.299721
v -0.3841548 0.1834712 -0.4066353
v -0.2874064 0.1746787 -0.4211824
v 0.3841548 0.3758318 -0.3002587
v 0.3841548 0.1894449 -0.1923212
v 0.3841548 0.3146857 -0.1914513
v 0.3841548 0.1221681 -0.2997548
v 0.3841548 0.1834712 -0.4066353
v 0.3841548 0.3144536 -0.4055987
v 0.3841548 0.1834712 -0.4066353
v 0.2874062 0.3232117 -0.4194978
v 0.2874062 0.1746787 -0.4211824
v 0.3841548 0.3144536 -0.4055987
v 0.3841548 0.3758318 -0.3002587
v 0.2874062 0.3928322 -0.3002858
v 0.3841548 0.3146857 -0.1914513
v 0.2874062 0.3234782 -0.1769042
v 0.2874062 0.1051679 -0.2997143
v 0.3841548 0.1834712 -0.4066353
v 0.2874062 0.1746787 -0.4211824
v 0.3841548 0.1221681 -0.2997548
v 0.2874062 0.1810209 -0.1782286
v 0.3841548 0.1894449 -0.1923212
v 0.3841548 0.3146857 -0.1914513
v 0.2874062 0.3234782 -0.1769042
v 0.2874062 0.1810209 -0.1782286
v 0.2874062 0.3928322 -0.3002858
v 0.2874062 0.3234782 -0.1769042
v 0.2874062 0.1051679 -0.2997143
v 0.2874062 0.3232117 -0.4194978
v 0.2874062 0.1746787 -0.4211824
vt 0.4626465 0.4050293
vt 0.4606934 0.1553955
vt 0.4101563 0.4050293
vt 0.5253906 0.4050293
vt 0.4750977 0.1553955
vt 0.4729004 0.4050293
vt 0.5253906 0.4050293
vt 0.4750977 0.1553955
vt 0.4729004 0.4050293
vt 0.4626465 0.4050293
vt 0.4606934 0.1553955
vt 0.4101563 0.4050293
vt 0.9951172 0.5424805
vt 0.7973633 0.5424805
vt 0.7973633 0.9584961
vt 0.9951172 0.9584961
vt 0.005870819 0.5556641
vt 0.005870819 0.7246094
vt 0.2597656 0.7246094
vt 0.2597656 0.5556641
vt 0.7661133 0.3652344
vt 0.7485352 0.4003906
vt 0.9916992 0.4003906
vt 0.9741211 0.3652344
vt 0.765625 0.4277344
vt 0.7480469 0.4628906
vt 0.9814453 0.4628906
vt 0.9638672 0.4277344
vt 0.7719727 0.8168945
vt 0.7719727 0.5742188
vt 0.5737305 0.5742188
vt 0.5737305 0.8168945
vt 0.7719727 0.5742188
vt 0.5737305 0.5742188
vt 0.5737305 0.8168945
vt 0.7719727 0.8168945
vt 0.7719727 0.8168945
vt 0.7719727 0.5742188
vt 0.5737305 0.5742188
vt 0.5737305 0.8168945
vt 0.7719727 0.8168945
vt 0.7719727 0.5742188
vt 0.5737305 0.5742188
vt 0.5737305 0.8168945
vt 0.2597656 0.7246094
vt 0.2597656 0.5556641
vt 0.005870819 0.5556641
vt 0.005870819 0.7246094
vt 0.2597656 0.5151367
vt 0.2597656 0.3256836
vt 0.005870819 0.3256836
vt 0.005870819 0.5151367
vt 0.489502 0.5439453
vt 0.394043 0.5439453
vt 0.3283691 0.6333008
vt 0.5551758 0.6333008
vt 0.5551758 0.8149414
vt 0.3283691 0.8149414
vt 0.5551758 0.6333008
vt 0.489502 0.5439453
vt 0.394043 0.5439453
vt 0.3283691 0.6333008
vt 0.5551758 0.8149414
vt 0.3283691 0.8149414
vt 0.5742188 0.574707
vt 0.5742188 0.8168945
vt 0.7729492 0.8168945
vt 0.7729492 0.574707
vt 0.5742188 0.574707
vt 0.5742188 0.8168945
vt 0.7729492 0.8168945
vt 0.7729492 0.574707
vt 0.9741211 0.3652344
vt 0.7661133 0.3652344
vt 0.7485352 0.4003906
vt 0.9916992 0.4003906
vt 0.9638672 0.4277344
vt 0.765625 0.4277344
vt 0.7480469 0.4628906
vt 0.9814453 0.4628906
vt 0.2712402 0.1546631
vt 0.2924805 0.1546631
vt 0.2924805 0.06695557
vt 0.2712402 0.06695557
vt 0.0171051 0.2717285
vt 0.2492676 0.2717285
vt 0.2492676 0.1842041
vt 0.0171051 0.1842041
vt 0.2492676 0.1842041
vt 0.0171051 0.1842041
vt 0.0171051 0.2717285
vt 0.2492676 0.2717285
vt 0.2476807 0.06695557
vt 0.01554871 0.06695557
vt 0.01555634 0.1546631
vt 0.2476807 0.1546631
vt 0.7226563 0.3085938
vt 0.6787109 0.3085938
vt 0.6787109 0.3962402
vt 0.7226563 0.3962402
vt 0.6787109 0.3962402
vt 0.7226563 0.3962402
vt 0.7226563 0.3085938
vt 0.6787109 0.3085938
vt 0.5961914 0.1660156
vt 0.5385742 0.2374268
vt 0.6538086 0.2374268
vt 0.6538086 0.4125977
vt 0.5385742 0.4125977
vt 0.7641602 0.08477783
vt 0.5527344 0.08477783
vt 0.5527344 0.1089478
vt 0.7641602 0.1089478
vt 0.5527344 0.08477783
vt 0.7641602 0.08477783
vt 0.7641602 0.03387451
vt 0.5527344 0.03387451
vt 0.7641602 0.007228851
vt 0.5527344 0.007228851
vt 0.5527344 0.03387451
vt 0.7641602 0.03387451
vt 0.8452148 0.2452393
vt 0.8554688 0.2089844
vt 0.8554688 0.2336426
vt 0.8452148 0.1975098
vt 0.8349609 0.2337646
vt 0.8349609 0.2102051
vt 0.8369141 0.04199219
vt 0.8369141 0.02069092
vt 0.7822266 0.02069092
vt 0.7822266 0.04168701
vt 0.8369141 0.0645752
vt 0.7822266 0.0645752
vt 0.9067383 0.2521973
vt 0.7822266 0.09283447
vt 0.8227539 0.2521973
vt 0.890625 0.09283447
vt 0.9438477 0.09283447
vt 0.949707 0.2521973
vt 0.9907227 0.2521973
vt 0.9990234 0.09283447
vt 0.9453125 0.09283447
vt 0.9907227 0.2521973
vt 0.9990234 0.09283447
vt 0.9506836 0.2521973
vt 0.9067383 0.2521973
vt 0.890625 0.09283447
vt 0.8227539 0.2521973
vt 0.7822266 0.09283447
vt 0.8452148 0.2452393
vt 0.8354492 0.2102051
vt 0.8349609 0.2337646
vt 0.8452148 0.1975098
vt 0.8554688 0.2089844
vt 0.8554688 0.2337646
vt 0.8227539 0.2521973
vt 0.8393555 0.09283447
vt 0.7822266 0.09283447
vt 0.8657227 0.2521973
vt 0.9067383 0.2521973
vt 0.890625 0.09283447
vt 0.9907227 0.2521973
vt 0.9990234 0.09283447
vt 0.890625 0.09283447
vt 0.9907227 0.2521973
vt 0.9990234 0.09283447
vt 0.9067383 0.2521973
vt 0.8378906 0.09283447
vt 0.8647461 0.2521973
vt 0.8227539 0.2521973
vt 0.7822266 0.09283447
vt 0.9990234 0.0645752
vt 0.9428711 0.04333496
vt 0.9433594 0.0645752
vt 0.9990234 0.04382324
vt 0.9428711 0.02069092
vt 0.9990234 0.02069092
vt 0.7641602 0.08477783
vt 0.5527344 0.08477783
vt 0.5527344 0.1089478
vt 0.7641602 0.1089478
vt 0.5527344 0.08477783
vt 0.7641602 0.08477783
vt 0.7641602 0.03387451
vt 0.5527344 0.03387451
vt 0.7641602 0.007228851
vt 0.5527344 0.007228851
vt 0.5527344 0.03387451
vt 0.7641602 0.03387451
vt 0.8452148 0.2452393
vt 0.8554688 0.2089844
vt 0.8554688 0.2337646
vt 0.8452148 0.1975098
vt 0.8349609 0.2337646
vt 0.8354492 0.2102051
vt 0.8369141 0.04199219
vt 0.8369141 0.02069092
vt 0.7822266 0.02069092
vt 0.7822266 0.04168701
vt 0.8369141 0.0645752
vt 0.7822266 0.0645752
vt 0.9067383 0.2521973
vt 0.7822266 0.09283447
vt 0.8227539 0.2521973
vt 0.890625 0.09283447
vt 0.9438477 0.09283447
vt 0.949707 0.2521973
vt 0.9907227 0.2521973
vt 0.9990234 0.09283447
vt 0.9453125 0.09283447
vt 0.9907227 0.2521973
vt 0.9990234 0.09283447
vt 0.9506836 0.2521973
vt 0.9067383 0.2521973
vt 0.890625 0.09283447
vt 0.8227539 0.2521973
vt 0.7822266 0.09283447
vt 0.8452148 0.2452393
vt 0.8354492 0.2102051
vt 0.8349609 0.2337646
vt 0.8452148 0.1975098
vt 0.8554688 0.2089844
vt 0.8554688 0.2337646
vt 0.8227539 0.2521973
vt 0.8393555 0.09283447
vt 0.7822266 0.09283447
vt 0.8657227 0.2521973
vt 0.9067383 0.2521973
vt 0.890625 0.09283447
vt 0.9907227 0.2521973
vt 0.9990234 0.09283447
vt 0.890625 0.09283447
vt 0.9907227 0.2521973
vt 0.9990234 0.09283447
vt 0.9067383 0.2521973
vt 0.8378906 0.09283447
vt 0.8647461 0.2521973
vt 0.8227539 0.2521973
vt 0.7822266 0.09283447
vt 0.9990234 0.0645752
vt 0.9428711 0.04333496
vt 0.9433594 0.0645752
vt 0.9990234 0.04382324
vt 0.9428711 0.02069092
vt 0.9990234 0.02069092
vn -0.4692383 -0.8129883 0.3452148
vn -0.4689941 -0.8125 0.3469238
vn -0.4692383 -0.8129883 0.3452148
vn 0.4692383 -0.8129883 0.3452148
vn 0.4689941 -0.8125 0.3469238
vn 0.4692383 -0.8129883 0.3452148
vn 0.4692383 0.8129883 0.3452148
vn 0.4689941 0.8125 0.3469238
vn 0.4692383 0.8129883 0.3452148
vn -0.4692383 0.8129883 0.3452148
vn -0.4689941 0.8125 0.3469238
vn -0.4692383 0.8129883 0.3452148
vn 0 1 0
vn 0 1 0
vn 0 1 0
vn 0 1 0
vn 0.5620117 -0.8271484 0
vn 0.5620117 -0.8271484 0
vn 0.5620117 -0.8271484 0
vn 0.5620117 -0.8271484 0
vn 0 1 0
vn 0 1 0
vn 0 1 0
vn 0 1 0
vn 0 1 0
vn 0 1 0
vn 0 1 0
vn 0 1 0
vn -1 0 0
vn -1 0 0
vn -1 0 0
vn -1 0 0
vn 0 0 1
vn 0 0 1
vn 0 0 1
vn 0 0 1
vn 1 0 0
vn 1 0 0
vn 1 0 0
vn 1 0 0
vn 0 0 -1
vn 0 0 -1
vn 0 0 -1
vn 0 0 -1
vn -0.5620117 -0.8271484 0
vn -0.5620117 -0.8271484 0
vn -0.5620117 -0.8271484 0
vn -0.5620117 -0.8271484 0
vn 0 -1 0
vn 0 -1 0
vn 0 -1 0
vn 0 -1 0
vn 0 -1.937151E-05 1
vn 0 -1.937151E-05 1
vn 0 -1.937151E-05 1
vn 0 -1.937151E-05 1
vn 0 0 1
vn 0 0 1
vn 0 1.937151E-05 -1
vn 0 1.937151E-05 -1
vn 0 1.937151E-05 -1
vn 0 1.937151E-05 -1
vn 0 0 -1
vn 0 0 -1
vn 1 0 0
vn 1 0 0
vn 1 0 0
vn 1 0 0
vn -1 0 0
vn -1 0 0
vn -1 0 0
vn -1 0 0
vn 0 1 0
vn 0 1 0
vn 0 1 0
vn 0 1 0
vn 0 1 0
vn 0 1 0
vn 0 1 0
vn 0 1 0
vn 0 1 0
vn 0 1 0
vn 0 1 0
vn 0 1 0
vn 1 0 0
vn 1 0 0
vn 1 0 0
vn 1 0 0
vn -1 0 0
vn -1 0 0
vn -1 0 0
vn -1 0 0
vn 0 -1 0
vn 0 -1 0
vn 0 -1 0
vn 0 -1 0
vn -3.933907E-05 0 1
vn -3.933907E-05 0 1
vn -3.933907E-05 0 1
vn -3.933907E-05 0 1
vn -3.933907E-05 0 -1
vn -3.933907E-05 0 -1
vn -3.933907E-05 0 -1
vn -3.933907E-05 0 -1
vn -1.591444E-05 7.712841E-05 1
vn -1.591444E-05 7.712841E-05 1
vn -1.591444E-05 7.712841E-05 1
vn -1.591444E-05 0 1
vn -1.591444E-05 0 1
vn 0.004665375 0.5415039 0.8408203
vn 0.004665375 0.5415039 0.8408203
vn 0.004665375 0.5415039 0.8408203
vn 0.004665375 0.5415039 0.8408203
vn -0.00201416 -1 0
vn -0.00201416 -1 0
vn -0.00201416 -1 0
vn -0.00201416 -1 0
vn -0.002481461 0.5415039 -0.8408203
vn -0.002481461 0.5415039 -0.8408203
vn -0.002481461 0.5415039 -0.8408203
vn -0.002481461 0.5415039 -0.8408203
vn -1 0 0
vn -1 0 0
vn -1 0 0
vn -1 0 0
vn -1 0 0
vn -1 0 0
vn 1 0 0
vn 1 0 0
vn 1 0 0
vn 1 0 0
vn 1 0 0
vn 1 0 0
vn -0.1721191 0.9848633 -0.004127502
vn -0.1728516 0.4958496 0.8510742
vn -0.1728516 0.4943848 0.8520508
vn -0.1721191 0.9848633 -0.003234863
vn -0.1687012 0.4775391 -0.8623047
vn -0.1687012 0.4772949 -0.8623047
vn -0.1719971 -0.473877 -0.8637695
vn -0.1721191 -0.4760742 -0.8623047
vn -0.1677246 -0.4831543 0.859375
vn -0.1728516 0.4943848 0.8520508
vn -0.1728516 0.4958496 0.8510742
vn -0.1677246 -0.4833984 0.8588867
vn -0.1732178 -0.984375 0.0302124
vn -0.1733398 -0.984375 0.02807617
vn -0.1719971 -0.473877 -0.8637695
vn -0.1721191 -0.4760742 -0.8623047
vn 1 0 0
vn 1 0 0
vn 1 0 0
vn 1 0 0
vn 1 0 0
vn 1 0 0
vn 0.1711426 -0.4736328 -0.8637695
vn 0.1689453 0.4790039 -0.8613281
vn 0.1711426 -0.4758301 -0.862793
vn 0.1689453 0.4758301 -0.8632813
vn 0.1726074 0.9848633 -0.001394272
vn 0.1726074 0.9848633 -0.0006947517
vn 0.1721191 0.4919434 0.8535156
vn 0.1721191 0.4936523 0.8525391
vn 0.1739502 -0.984375 0.0255127
vn 0.1711426 -0.4736328 -0.8637695
vn 0.1711426 -0.4758301 -0.862793
vn 0.1739502 -0.984375 0.02740479
vn 0.1676025 -0.4846191 0.8583984
vn 0.1676025 -0.4821777 0.8598633
vn 0.1721191 0.4919434 0.8535156
vn 0.1721191 0.4936523 0.8525391
vn -1 0 0
vn -1 0 0
vn -1 0 0
vn -1 0 0
vn -1 0 0
vn -1 0 0
vn 0.004665375 0.5415039 0.8408203
vn 0.004665375 0.5415039 0.8408203
vn 0.004665375 0.5415039 0.8408203
vn 0.004665375 0.5415039 0.8408203
vn -0.00201416 -1 0
vn -0.00201416 -1 0
vn -0.00201416 -1 0
vn -0.00201416 -1 0
vn -0.002481461 0.5415039 -0.8408203
vn -0.002481461 0.5415039 -0.8408203
vn -0.002481461 0.5415039 -0.8408203
vn -0.002481461 0.5415039 -0.8408203
vn -1 0 0
vn -1 0 0
vn -1 0 0
vn -1 0 0
vn -1 0 0
vn -1 0 0
vn 1 0 0
vn 1 0 0
vn 1 0 0
vn 1 0 0
vn 1 0 0
vn 1 0 0
vn -0.1721191 0.9848633 -0.004127502
vn -0.1728516 0.4958496 0.8510742
vn -0.1728516 0.4943848 0.8520508
vn -0.1721191 0.9848633 -0.003234863
vn -0.1687012 0.4775391 -0.8623047
vn -0.1687012 0.4772949 -0.8623047
vn -0.1719971 -0.473877 -0.8637695
vn -0.1721191 -0.4760742 -0.8623047
vn -0.1677246 -0.4831543 0.859375
vn -0.1728516 0.4943848 0.8520508
vn -0.1728516 0.4958496 0.8510742
vn -0.1677246 -0.4833984 0.8588867
vn -0.1732178 -0.984375 0.0302124
vn -0.1733398 -0.984375 0.02807617
vn -0.1719971 -0.473877 -0.8637695
vn -0.1721191 -0.4760742 -0.8623047
vn 1 0 0
vn 1 0 0
vn 1 0 0
vn 1 0 0
vn 1 0 0
vn 1 0 0
vn 0.1711426 -0.4736328 -0.8637695
vn 0.1689453 0.4790039 -0.8613281
vn 0.1711426 -0.4758301 -0.862793
vn 0.1689453 0.4758301 -0.8632813
vn 0.1726074 0.9848633 -0.001393318
vn 0.1726074 0.9848633 -0.0006947517
vn 0.1721191 0.4919434 0.8535156
vn 0.1721191 0.4936523 0.8525391
vn 0.1739502 -0.984375 0.0255127
vn 0.1711426 -0.4736328 -0.8637695
vn 0.1711426 -0.4758301 -0.862793
vn 0.1739502 -0.984375 0.02740479
vn 0.1676025 -0.4846191 0.8583984
vn 0.1676025 -0.4821777 0.8598633
vn 0.1721191 0.4919434 0.8535156
vn 0.1721191 0.4936523 0.8525391
vn -1 0 0
vn -1 0 0
vn -1 0 0
vn -1 0 0
vn -1 0 0
vn -1 0 0
g l006v001_l_0
f 3/3/3 2/2/2 1/1/1
f 6/6/6 5/5/5 4/4/4
f 9/9/9 8/8/8 7/7/7
f 12/12/12 11/11/11 10/10/10
f 15/15/15 14/14/14 13/13/13
f 16/16/16 15/15/15 13/13/13
f 19/19/19 18/18/18 17/17/17
f 20/20/20 19/19/19 17/17/17
f 23/23/23 22/22/22 21/21/21
f 24/24/24 23/23/23 21/21/21
f 27/27/27 26/26/26 25/25/25
f 28/28/28 27/27/27 25/25/25
f 31/31/31 30/30/30 29/29/29
f 32/32/32 31/31/31 29/29/29
f 35/35/35 34/34/34 33/33/33
f 36/36/36 35/35/35 33/33/33
f 39/39/39 38/38/38 37/37/37
f 40/40/40 39/39/39 37/37/37
f 43/43/43 42/42/42 41/41/41
f 44/44/44 43/43/43 41/41/41
f 47/47/47 46/46/46 45/45/45
f 48/48/48 47/47/47 45/45/45
f 51/51/51 50/50/50 49/49/49
f 52/52/52 51/51/51 49/49/49
f 55/55/55 54/54/54 53/53/53
f 56/56/56 55/55/55 53/53/53
f 56/56/56 57/57/57 55/55/55
f 57/57/57 58/58/58 55/55/55
f 61/61/61 60/60/60 59/59/59
f 62/62/62 61/61/61 59/59/59
f 62/62/62 59/59/59 63/63/63
f 64/64/64 62/62/62 63/63/63
f 67/67/67 66/66/66 65/65/65
f 68/68/68 67/67/67 65/65/65
f 71/71/71 70/70/70 69/69/69
f 72/72/72 71/71/71 69/69/69
f 75/75/75 74/74/74 73/73/73
f 76/76/76 75/75/75 73/73/73
f 79/79/79 78/78/78 77/77/77
f 80/80/80 79/79/79 77/77/77
f 83/83/83 82/82/82 81/81/81
f 84/84/84 83/83/83 81/81/81
f 87/87/87 86/86/86 85/85/85
f 88/88/88 87/87/87 85/85/85
f 91/91/91 90/90/90 89/89/89
f 92/92/92 91/91/91 89/89/89
f 95/95/95 94/94/94 93/93/93
f 96/96/96 95/95/95 93/93/93
f 99/99/99 98/98/98 97/97/97
f 100/100/100 99/99/99 97/97/97
f 103/103/103 102/102/102 101/101/101
f 104/104/104 103/103/103 101/101/101
f 107/107/107 106/106/106 105/105/105
f 107/107/107 108/108/108 106/106/106
f 108/108/108 109/109/109 106/106/106
f 112/112/112 111/111/111 110/110/110
f 113/113/113 112/112/112 110/110/110
f 116/116/116 115/115/115 114/114/114
f 117/117/117 116/116/116 114/114/114
f 120/120/120 119/119/119 118/118/118
f 121/121/121 120/120/120 118/118/118
f 124/124/124 123/123/123 122/122/122
f 123/123/123 125/125/125 122/122/122
f 122/122/122 125/125/125 126/126/126
f 125/125/125 127/127/127 126/126/126
f 130/130/130 129/129/129 128/128/128
f 131/131/131 130/130/130 128/128/128
f 131/131/131 128/128/128 132/132/132
f 133/133/133 131/131/131 132/132/132
f 136/136/136 135/135/135 134/134/134
f 135/135/135 137/137/137 134/134/134
f 137/137/137 138/138/138 134/134/134
f 138/138/138 139/139/139 134/134/134
f 140/140/140 139/139/139 138/138/138
f 141/141/141 140/140/140 138/138/138
f 144/144/144 143/143/143 142/142/142
f 143/143/143 145/145/145 142/142/142
f 142/142/142 145/145/145 146/146/146
f 147/147/147 142/142/142 146/146/146
f 147/147/147 146/146/146 148/148/148
f 149/149/149 147/147/147 148/148/148
f 152/152/152 151/151/151 150/150/150
f 151/151/151 153/153/153 150/150/150
f 150/150/150 153/153/153 154/154/154
f 155/155/155 150/150/150 154/154/154
f 158/158/158 157/157/157 156/156/156
f 157/157/157 159/159/159 156/156/156
f 160/160/160 159/159/159 157/157/157
f 161/161/161 160/160/160 157/157/157
f 160/160/160 161/161/161 162/162/162
f 161/161/161 163/163/163 162/162/162
f 166/166/166 165/165/165 164/164/164
f 165/165/165 167/167/167 164/164/164
f 164/164/164 167/167/167 168/168/168
f 167/167/167 169/169/169 168/168/168
f 168/168/168 169/169/169 170/170/170
f 171/171/171 168/168/168 170/170/170
f 174/174/174 173/173/173 172/172/172
f 173/173/173 175/175/175 172/172/172
f 173/173/173 176/176/176 175/175/175
f 176/176/176 177/177/177 175/175/175
f 180/180/180 179/179/179 178/178/178
f 181/181/181 180/180/180 178/178/178
f 184/184/184 183/183/183 182/182/182
f 185/185/185 184/184/184 182/182/182
f 188/188/188 187/187/187 186/186/186
f 189/189/189 188/188/188 186/186/186
f 192/192/192 191/191/191 190/190/190
f 191/191/191 193/193/193 190/190/190
f 190/190/190 193/193/193 194/194/194
f 193/193/193 195/195/195 194/194/194
f 198/198/198 197/197/197 196/196/196
f 199/199/199 198/198/198 196/196/196
f 199/199/199 196/196/196 200/200/200
f 201/201/201 199/199/199 200/200/200
f 204/204/204 203/203/203 202/202/202
f 203/203/203 205/205/205 202/202/202
f 205/205/205 206/206/206 202/202/202
f 206/206/206 207/207/207 202/202/202
f 208/208/208 207/207/207 206/206/206
f 209/209/209 208/208/208 206/206/206
f 212/212/212 211/211/211 210/210/210
f 211/211/211 213/213/213 210/210/210
f 210/210/210 213/213/213 214/214/214
f 215/215/215 210/210/210 214/214/214
f 215/215/215 214/214/214 216/216/216
f 217/217/217 215/215/215 216/216/216
f 220/220/220 219/219/219 218/218/218
f 219/219/219 221/221/221 218/218/218
f 218/218/218 221/221/221 222/222/222
f 223/223/223 218/218/218 222/222/222
f 226/226/226 225/225/225 224/224/224
f 225/225/225 227/227/227 224/224/224
f 228/228/228 227/227/227 225/225/225
f 229/229/229 228/228/228 225/225/225
f 228/228/228 229/229/229 230/230/230
f 229/229/229 231/231/231 230/230/230
f 234/234/234 233/233/233 232/232/232
f 233/233/233 235/235/235 232/232/232
f 232/232/232 235/235/235 236/236/236
f 235/235/235 237/237/237 236/236/236
f 236/236/236 237/237/237 238/238/238
f 239/239/239 236/236/236 238/238/238
f 242/242/242 241/241/241 240/240/240
f 241/241/241 243/243/243 240/240/240
f 241/241/241 244/244/244 243/243/243
f 244/244/244 245/245/245 243/243/243
