g t023v001_l
v -0.4063843 0.8684377 -0.268425
v -0.3051599 0.8718932 -0.2477932
v -0.2922342 0.8381088 -0.6018267
v -0.4063843 0.8684377 -0.268425
v -0.3642836 0.9776372 -0.2717056
v -0.3051599 0.8718932 -0.2477932
v 0.2927491 0.8759459 -0.2261143
v 0.3957679 0.8709003 -0.2328606
v 0.3345977 0.8350101 -0.5780597
v 0.2927491 0.8759459 -0.2261143
v 0.3617954 0.980571 -0.2443047
v 0.3957679 0.8709003 -0.2328606
v 0.072299 0.3967619 -0.2149209
v 0.06082249 0.1611087 -0.2149209
v 0.03874588 0.3215804 -0.2149209
v 0.3800135 0.1797757 -0.2144356
v 0.3800135 0.5969555 -0.2144356
v 0.2462473 0.008373559 -0.2144356
v 0 0.4661776 -0.2149209
v -0.2462473 0.008373559 -0.2144356
v -0.3800135 0.5969555 -0.2144356
v -0.06082249 0.1611087 -0.2149209
v -0.07229853 0.3967619 -0.2149209
v -0.3800135 0.1797757 -0.2144356
v -0.03874493 0.3215804 -0.2149209
v -0.3800135 0.5969555 -0.2144356
v -0.3800135 0.5969555 -0.449192
v 0.3800135 0.5969555 -0.449192
v 0.3800135 0.5969555 -0.2144356
v -0.3800135 0.1797757 -0.449192
v -0.2462473 0.008373559 -0.449192
v 0.2462473 0.008373559 -0.449192
v 0.3800135 0.1797757 -0.449192
v -0.3800135 0.5969555 -0.449192
v 0.3800135 0.5969555 -0.449192
v -0.2462473 0.008373559 -0.449192
v -0.2462473 0.008373559 -0.2144356
v 0.2462473 0.008373559 -0.2144356
v 0.2462473 0.008373559 -0.449192
v 0.2462473 0.008373559 -0.2144356
v 0.3800135 0.1797757 -0.449192
v 0.2462473 0.008373559 -0.449192
v 0.3800135 0.1797757 -0.2144356
v 0.3800135 0.5969555 -0.449192
v 0.3800135 0.5969555 -0.2144356
v -0.2462473 0.008373559 -0.449192
v -0.3800135 0.1797757 -0.2144356
v -0.2462473 0.008373559 -0.2144356
v -0.3800135 0.1797757 -0.449192
v -0.3800135 0.5969555 -0.2144356
v -0.3800135 0.5969555 -0.449192
v -0.06082249 0.1611087 -0.2149209
v 0.03874588 0.3215804 -0.2149209
v 0.06082249 0.1611087 -0.2149209
v -0.03874493 0.3215804 -0.2149209
v -0.07229853 0.3967619 -0.2149209
v 0.072299 0.3967619 -0.2149209
v 0 0.4661776 -0.2149209
v -0.2922342 0.8381088 -0.6018267
v -0.3642836 0.9776372 -0.2717056
v -0.4063843 0.8684377 -0.268425
v -0.3051599 0.8718932 -0.2477932
v 0.3345977 0.8350101 -0.5780597
v 0.3617954 0.980571 -0.2443047
v 0.2927491 0.8759459 -0.2261143
v 0.3957679 0.8709003 -0.2328606
v -0.2791262 0.8354937 -0.3520126
v -0.2128839 0.8115648 -0.3262405
v -0.3216801 0.9846209 -0.3961225
v -0.3370399 0.9174536 -0.387495
v -0.2128839 0.8115648 -0.3262405
v -0.2791262 0.8354937 -0.3520126
v -0.3370399 0.9174536 -0.387495
v -0.3216801 0.9846209 -0.3961225
v -0.3279276 0.7945223 -0.361063
v -0.3382951 0.7284634 -0.3524394
v -0.2128839 0.8115648 -0.3262405
v -0.2791262 0.8354937 -0.3520126
v -0.3382951 0.7284634 -0.3524394
v -0.3279276 0.7945223 -0.361063
v -0.2791262 0.8354937 -0.3520126
v -0.2128839 0.8115648 -0.3262405
v -0.3370399 0.9174536 -0.387495
v -0.3216801 0.9846209 -0.3961225
v -0.4413805 0.8996128 -0.4223175
v -0.3747215 0.8904656 -0.3965454
v -0.3216801 0.9846209 -0.3961225
v -0.3370399 0.9174536 -0.387495
v -0.3747215 0.8904656 -0.3965454
v -0.4413805 0.8996128 -0.4223175
v -0.4413805 0.8996128 -0.4223175
v -0.3382951 0.7284634 -0.3524394
v -0.3279276 0.7945223 -0.361063
v -0.3747215 0.8904656 -0.3965454
v -0.3747215 0.8904656 -0.3965454
v -0.3279276 0.7945223 -0.361063
v -0.3382951 0.7284634 -0.3524394
v -0.4413805 0.8996128 -0.4223175
v 0.3873339 0.8906093 -0.3555374
v 0.4561625 0.9091861 -0.345108
v 0.3211067 0.9708881 -0.397788
v 0.3385866 0.9087408 -0.3725917
v 0.3385903 0.795355 -0.332058
v 0.357578 0.7207012 -0.3088328
v 0.4561625 0.9091861 -0.345108
v 0.3873339 0.8906093 -0.3555374
v 0.4561625 0.9091861 -0.345108
v 0.3873339 0.8906093 -0.3555374
v 0.3385866 0.9087408 -0.3725917
v 0.3211067 0.9708881 -0.397788
v 0.357578 0.7207012 -0.3088328
v 0.3385903 0.795355 -0.332058
v 0.3873339 0.8906093 -0.3555374
v 0.4561625 0.9091861 -0.345108
v 0.29813 0.8134866 -0.3491096
v 0.2264062 0.7820486 -0.359539
v 0.357578 0.7207012 -0.3088328
v 0.3385903 0.795355 -0.332058
v 0.3211067 0.9708881 -0.397788
v 0.2264062 0.7820486 -0.359539
v 0.29813 0.8134866 -0.3491096
v 0.3385866 0.9087408 -0.3725917
v 0.2264062 0.7820486 -0.359539
v 0.29813 0.8134866 -0.3491096
v 0.3385903 0.795355 -0.332058
v 0.357578 0.7207012 -0.3088328
v 0.3385866 0.9087408 -0.3725917
v 0.29813 0.8134866 -0.3491096
v 0.2264062 0.7820486 -0.359539
v 0.3211067 0.9708881 -0.397788
v -0.4028635 0.2610952 -0.1823235
v -0.4028635 0.5138742 -0.1823235
v -0.2192726 0.5138742 -0.1823235
v -0.2192726 0.2610952 -0.1823235
v -0.4028635 0.5138742 -0.4813042
v -0.4028635 0.2610952 -0.4813042
v -0.2192726 0.2610952 -0.4813042
v -0.2192726 0.5138742 -0.4813042
v 0.4028635 0.2610952 -0.4813042
v 0.4028635 0.5138742 -0.4813042
v 0.2192726 0.5138742 -0.4813042
v 0.2192726 0.2610952 -0.4813042
v 0.4028635 0.5138742 -0.1823235
v 0.4028635 0.2610952 -0.1823235
v 0.2192726 0.2610952 -0.1823235
v 0.2192726 0.5138742 -0.1823235
v -0.2711067 0.5929593 -0.3318138
v -0.1945624 0.6609524 -0.2945137
v -0.1945624 0.5929593 -0.2945137
v -0.2711067 0.6609524 -0.3318138
v -0.1945624 0.5929593 -0.3691177
v -0.1945624 0.6609524 -0.3691177
v -0.1401885 0.7526162 -0.2945137
v -0.1748449 0.8175373 -0.3318138
v -0.1401885 0.7526162 -0.3691177
v 0.1401895 0.7526162 -0.3691177
v 0.1748459 0.8175373 -0.3318138
v 0.1401895 0.7526162 -0.2945137
v 0.1945629 0.6609524 -0.2945137
v 0.2711067 0.6609524 -0.3318138
v 0.1945629 0.6609524 -0.3691177
v 0.1945629 0.5929593 -0.3691177
v 0.2711067 0.5929593 -0.3318138
v 0.1945629 0.5929593 -0.2945137
v -0.1945624 0.6609524 -0.2945137
v -0.1945624 0.5929593 -0.3691177
v -0.1945624 0.5929593 -0.2945137
v -0.1945624 0.6609524 -0.3691177
v -0.1401885 0.7526162 -0.3691177
v -0.1401885 0.7526162 -0.2945137
v 0.1401895 0.7526162 -0.3691177
v 0.1401895 0.7526162 -0.2945137
v 0.1945629 0.6609524 -0.2945137
v 0.1945629 0.6609524 -0.3691177
v 0.1945629 0.5929593 -0.3691177
v 0.1945629 0.5929593 -0.2945137
vt 0.1464844 0.9785156
vt 0.04968262 0.9785156
vt 0.09777832 0.7714844
vt 0.02053833 0.6967773
vt 0.05657959 0.7392578
vt 0.09564209 0.6962891
vt 0.1464844 0.9785156
vt 0.04968262 0.9785156
vt 0.09777832 0.7714844
vt 0.02053833 0.6967773
vt 0.05657959 0.7392578
vt 0.09564209 0.6962891
vt 0.2717285 0.2498779
vt 0.2653809 0.1164551
vt 0.2529297 0.2064209
vt 0.4440918 0.1269531
vt 0.4440918 0.3605957
vt 0.3691406 0.03083801
vt 0.2312012 0.2873535
vt 0.09320068 0.03083801
vt 0.01824951 0.3605957
vt 0.1971436 0.1164551
vt 0.1906738 0.2498779
vt 0.01824951 0.1269531
vt 0.2094727 0.2064209
vt 0.01824951 0.4035645
vt 0.01824951 0.5351563
vt 0.4440918 0.5351563
vt 0.4440918 0.4035645
vt 0.9111328 0.1269531
vt 0.8364258 0.03083801
vt 0.5605469 0.03083801
vt 0.4853516 0.1269531
vt 0.9111328 0.3605957
vt 0.4853516 0.3605957
vt 0.7641602 0.5351563
vt 0.7641602 0.4035645
vt 0.4853516 0.4035645
vt 0.4853516 0.5351563
vt 0.9726563 0.581543
vt 0.8374023 0.7133789
vt 0.9726563 0.7133789
vt 0.8374023 0.581543
vt 0.578125 0.7133789
vt 0.578125 0.581543
vt 0.9726563 0.581543
vt 0.8374023 0.7133789
vt 0.9726563 0.7133789
vt 0.8374023 0.581543
vt 0.578125 0.7133789
vt 0.578125 0.581543
vt 0.133667 0.5649414
vt 0.1915283 0.6577148
vt 0.2043457 0.5649414
vt 0.1464844 0.6577148
vt 0.1221924 0.7001953
vt 0.2158203 0.7001953
vt 0.1690674 0.7416992
vt 0.09777832 0.7714844
vt 0.09796143 0.9785156
vt 0.1464844 0.9785156
vt 0.04968262 0.9785156
vt 0.09777832 0.7714844
vt 0.09796143 0.9785156
vt 0.1464844 0.9785156
vt 0.04968262 0.9785156
vt 0.9272461 0.5380859
vt 0.9379883 0.4716797
vt 0.8408203 0.4716797
vt 0.8515625 0.5380859
vt 0.9379883 0.4716797
vt 0.9272461 0.4052734
vt 0.8515625 0.4052734
vt 0.8408203 0.4716797
vt 0.9545898 0.5380859
vt 0.9750977 0.4716797
vt 0.9379883 0.4716797
vt 0.9272461 0.5380859
vt 0.9750977 0.4716797
vt 0.9545898 0.4052734
vt 0.9272461 0.4052734
vt 0.9379883 0.4716797
vt 0.9545898 0.5380859
vt 0.9750977 0.4716797
vt 0.9379883 0.4716797
vt 0.9272461 0.5380859
vt 0.9750977 0.4716797
vt 0.9545898 0.4052734
vt 0.9272461 0.4052734
vt 0.9379883 0.4716797
vt 0.9379883 0.4716797
vt 0.8408203 0.4716797
vt 0.8515625 0.5380859
vt 0.9272461 0.5380859
vt 0.9272461 0.4052734
vt 0.8515625 0.4052734
vt 0.8408203 0.4716797
vt 0.9379883 0.4716797
vt 0.8515625 0.5380859
vt 0.8408203 0.4716797
vt 0.8037109 0.4716797
vt 0.8242188 0.5380859
vt 0.9272461 0.5380859
vt 0.9379883 0.4716797
vt 0.8408203 0.4716797
vt 0.8515625 0.5380859
vt 0.8408203 0.4716797
vt 0.8515625 0.4052734
vt 0.8242188 0.4052734
vt 0.8037109 0.4716797
vt 0.9379883 0.4716797
vt 0.9272461 0.4052734
vt 0.8515625 0.4052734
vt 0.8408203 0.4716797
vt 0.8515625 0.5380859
vt 0.8408203 0.4716797
vt 0.8037109 0.4716797
vt 0.8242188 0.5380859
vt 0.9379883 0.4716797
vt 0.8408203 0.4716797
vt 0.8515625 0.5380859
vt 0.9272461 0.5380859
vt 0.8408203 0.4716797
vt 0.8515625 0.4052734
vt 0.8242188 0.4052734
vt 0.8037109 0.4716797
vt 0.9272461 0.4052734
vt 0.8515625 0.4052734
vt 0.8408203 0.4716797
vt 0.9379883 0.4716797
vt 0.2402344 0.581543
vt 0.2402344 0.7270508
vt 0.3430176 0.7270508
vt 0.3430176 0.581543
vt 0.3430176 0.7270508
vt 0.3430176 0.581543
vt 0.2402344 0.581543
vt 0.2402344 0.7270508
vt 0.2402344 0.581543
vt 0.2402344 0.7270508
vt 0.3430176 0.7270508
vt 0.3430176 0.581543
vt 0.3430176 0.7270508
vt 0.3430176 0.581543
vt 0.2402344 0.581543
vt 0.2402344 0.7270508
vt 0.9858398 0.8369141
vt 0.9414063 0.8740234
vt 0.980957 0.8740234
vt 0.9492188 0.8369141
vt 0.9829102 0.7988281
vt 0.9423828 0.7988281
vt 0.8505859 0.8740234
vt 0.8505859 0.8369141
vt 0.8505859 0.7988281
vt 0.7070313 0.7988281
vt 0.7070313 0.8369141
vt 0.7070313 0.8740234
vt 0.6147461 0.8740234
vt 0.6069336 0.8369141
vt 0.6132813 0.7988281
vt 0.5732422 0.7988281
vt 0.5703125 0.8369141
vt 0.5751953 0.8740234
vt 0.9414063 0.8740234
vt 0.9829102 0.7988281
vt 0.980957 0.8740234
vt 0.9423828 0.7988281
vt 0.8505859 0.7988281
vt 0.8505859 0.8740234
vt 0.7070313 0.7988281
vt 0.7070313 0.8740234
vt 0.6147461 0.8740234
vt 0.6132813 0.7988281
vt 0.5732422 0.7988281
vt 0.5751953 0.8740234
vn -0.8383789 -0.487793 -0.2427979
vn 0.9453125 -0.3190918 0.06500244
vn 0.3398438 0.2868652 -0.8955078
vn -0.2020264 0.1071777 0.9736328
vn -0.2020264 0.1071777 0.9736328
vn -0.2020264 0.1071777 0.9736328
vn -0.9619141 -0.2600098 -0.08410645
vn 0.8374023 -0.5390625 -0.09234619
vn -0.3161621 0.3017578 -0.8994141
vn 0.07092285 0.1252441 0.9897461
vn 0.07092285 0.1252441 0.9897461
vn 0.07092285 0.1252441 0.9897461
vn -0.001410484 -0.000194788 1
vn -0.0006041527 0.002071381 1
vn 0 0 1
vn -0.001568794 0.0002706051 1
vn -0.001236916 -0.000772953 1
vn -0.0008845329 0.002103806 1
vn 0 -0.00304985 1
vn 0.0008845329 0.002103806 1
vn 0.001236916 -0.000772953 1
vn 0.0006041527 0.002071381 1
vn 0.001410484 -0.000194788 1
vn 0.001568794 0.0002706051 1
vn 0 0 1
vn 0 1 0
vn 0 1 0
vn 0 1 0
vn 0 1 0
vn 0 0 -1
vn 0 0 -1
vn 0 0 -1
vn 0 0 -1
vn 0 0 -1
vn 0 0 -1
vn 0 -1 0
vn 0 -1 0
vn 0 -1 0
vn 0 -1 0
vn 0.7885742 -0.6152344 0
vn 0.9750977 -0.2215576 0
vn 0.7885742 -0.6152344 0
vn 0.9750977 -0.2215576 0
vn 1 0 0
vn 1 0 0
vn -0.7885742 -0.6152344 0
vn -0.9750977 -0.2215576 0
vn -0.7885742 -0.6152344 0
vn -0.9750977 -0.2215576 0
vn -1 0 0
vn -1 0 0
vn 0 0 1
vn 0 0 1
vn 0 0 1
vn 0 0 1
vn 0 0 1
vn 0 0 1
vn 0 0 1
vn 0.3398438 0.2868652 -0.8955078
vn 0.056427 0.9238281 -0.3781738
vn -0.8383789 -0.487793 -0.2427979
vn 0.9453125 -0.3190918 0.06500244
vn -0.3161621 0.3017578 -0.8994141
vn -0.003263474 0.9165039 -0.3996582
vn -0.9619141 -0.2600098 -0.08410645
vn 0.8374023 -0.5390625 -0.09234619
vn 0.2980957 -0.1915283 -0.9350586
vn 0.2980957 -0.1915283 -0.9350586
vn 0.2980957 -0.1915283 -0.9350586
vn 0.2980957 -0.1915283 -0.9350586
vn -0.2980957 0.1915283 0.9350586
vn -0.2980957 0.1915283 0.9350586
vn -0.2980957 0.1915283 0.9350586
vn -0.2980957 0.1915283 0.9350586
vn 0.3081055 -0.166626 -0.9365234
vn 0.3081055 -0.166626 -0.9365234
vn 0.3081055 -0.166626 -0.9365234
vn 0.3081055 -0.166626 -0.9365234
vn -0.3081055 0.166626 0.9365234
vn -0.3081055 0.166626 0.9365234
vn -0.3081055 0.166626 0.9365234
vn -0.3081055 0.166626 0.9365234
vn 0.3395996 -0.1871338 -0.921875
vn 0.3395996 -0.1871338 -0.921875
vn 0.3395996 -0.1871338 -0.921875
vn 0.3395996 -0.1871338 -0.921875
vn -0.3395996 0.1871338 0.921875
vn -0.3395996 0.1871338 0.921875
vn -0.3395996 0.1871338 0.921875
vn -0.3395996 0.1871338 0.921875
vn 0.3361816 -0.1762695 -0.925293
vn 0.3361816 -0.1762695 -0.925293
vn 0.3361816 -0.1762695 -0.925293
vn 0.3361816 -0.1762695 -0.925293
vn -0.3361816 0.1762695 0.925293
vn -0.3361816 0.1762695 0.925293
vn -0.3361816 0.1762695 0.925293
vn -0.3361816 0.1762695 0.925293
vn 0.2176514 -0.3078613 -0.9262695
vn 0.2176514 -0.3078613 -0.9262695
vn 0.2176514 -0.3078613 -0.9262695
vn 0.2176514 -0.3078613 -0.9262695
vn 0.1757813 -0.2893066 -0.940918
vn 0.1757813 -0.2893066 -0.940918
vn 0.1757813 -0.2893066 -0.940918
vn 0.1757813 -0.2893066 -0.940918
vn -0.2176514 0.3078613 0.9262695
vn -0.2176514 0.3078613 0.9262695
vn -0.2176514 0.3078613 0.9262695
vn -0.2176514 0.3078613 0.9262695
vn -0.1757813 0.2893066 0.940918
vn -0.1757813 0.2893066 0.940918
vn -0.1757813 0.2893066 0.940918
vn -0.1757813 0.2893066 0.940918
vn 0.2578125 -0.2409668 -0.9355469
vn 0.2578125 -0.2409668 -0.9355469
vn 0.2578125 -0.2409668 -0.9355469
vn 0.2578125 -0.2409668 -0.9355469
vn 0.2546387 -0.3193359 -0.9125977
vn 0.2546387 -0.3193359 -0.9125977
vn 0.2546387 -0.3193359 -0.9125977
vn 0.2546387 -0.3193359 -0.9125977
vn -0.2578125 0.2409668 0.9355469
vn -0.2578125 0.2409668 0.9355469
vn -0.2578125 0.2409668 0.9355469
vn -0.2578125 0.2409668 0.9355469
vn -0.2546387 0.3193359 0.9125977
vn -0.2546387 0.3193359 0.9125977
vn -0.2546387 0.3193359 0.9125977
vn -0.2546387 0.3193359 0.9125977
vn 0 0 1
vn 0 0 1
vn 0 0 1
vn 0 0 1
vn 0 0 -1
vn 0 0 -1
vn 0 0 -1
vn 0 0 -1
vn 0 0 -1
vn 0 0 -1
vn 0 0 -1
vn 0 0 -1
vn 0 0 1
vn 0 0 1
vn 0 0 1
vn 0 0 1
vn -1 0 0
vn 0.1885986 -0.02230835 0.9819336
vn 0.4379883 0 0.8989258
vn -0.9472656 0.3200684 0
vn 0.4379883 0 -0.8989258
vn 0.1885986 -0.02229309 -0.9819336
vn 0.02038574 -0.1624756 0.9863281
vn -0.2963867 0.9550781 0
vn 0.02037048 -0.1624756 -0.9863281
vn -0.02037048 -0.1624756 -0.9863281
vn 0.2963867 0.9550781 0
vn -0.02038574 -0.1624756 0.9863281
vn -0.1885986 -0.02230835 0.9819336
vn 0.9472656 0.3200684 0
vn -0.1885986 -0.02229309 -0.9819336
vn -0.4379883 0 -0.8989258
vn 1 0 0
vn -0.4379883 0 0.8989258
vn 0.1885986 -0.02230835 0.9819336
vn 0.4379883 0 -0.8989258
vn 0.4379883 0 0.8989258
vn 0.1885986 -0.02229309 -0.9819336
vn 0.02037048 -0.1624756 -0.9863281
vn 0.02038574 -0.1624756 0.9863281
vn -0.02037048 -0.1624756 -0.9863281
vn -0.02038574 -0.1624756 0.9863281
vn -0.1885986 -0.02230835 0.9819336
vn -0.1885986 -0.02229309 -0.9819336
vn -0.4379883 0 -0.8989258
vn -0.4379883 0 0.8989258
g t023v001_l_0
f 3/3/3 2/2/2 1/1/1
f 6/6/6 5/5/5 4/4/4
f 9/9/9 8/8/8 7/7/7
f 12/12/12 11/11/11 10/10/10
f 15/15/15 14/14/14 13/13/13
f 14/14/14 16/16/16 13/13/13
f 16/16/16 17/17/17 13/13/13
f 14/14/14 18/18/18 16/16/16
f 17/17/17 19/19/19 13/13/13
f 18/18/18 14/14/14 20/20/20
f 21/21/21 19/19/19 17/17/17
f 14/14/14 22/22/22 20/20/20
f 23/23/23 19/19/19 21/21/21
f 22/22/22 24/24/24 20/20/20
f 21/21/21 24/24/24 23/23/23
f 23/23/23 24/24/24 22/22/22
f 22/22/22 25/25/25 23/23/23
f 28/28/28 27/27/27 26/26/26
f 29/29/29 28/28/28 26/26/26
f 32/32/32 31/31/31 30/30/30
f 33/33/33 32/32/32 30/30/30
f 33/33/33 30/30/30 34/34/34
f 35/35/35 33/33/33 34/34/34
f 38/38/38 37/37/37 36/36/36
f 39/39/39 38/38/38 36/36/36
f 42/42/42 41/41/41 40/40/40
f 41/41/41 43/43/43 40/40/40
f 41/41/41 44/44/44 43/43/43
f 44/44/44 45/45/45 43/43/43
f 48/48/48 47/47/47 46/46/46
f 47/47/47 49/49/49 46/46/46
f 47/47/47 50/50/50 49/49/49
f 50/50/50 51/51/51 49/49/49
f 54/54/54 53/53/53 52/52/52
f 53/53/53 55/55/55 52/52/52
f 55/55/55 53/53/53 56/56/56
f 53/53/53 57/57/57 56/56/56
f 58/58/58 56/56/56 57/57/57
f 61/61/61 60/60/60 59/59/59
f 60/60/60 62/62/62 59/59/59
f 65/65/65 64/64/64 63/63/63
f 64/64/64 66/66/66 63/63/63
f 69/69/69 68/68/68 67/67/67
f 70/70/70 69/69/69 67/67/67
f 73/73/73 72/72/72 71/71/71
f 74/74/74 73/73/73 71/71/71
f 77/77/77 76/76/76 75/75/75
f 78/78/78 77/77/77 75/75/75
f 81/81/81 80/80/80 79/79/79
f 82/82/82 81/81/81 79/79/79
f 85/85/85 84/84/84 83/83/83
f 86/86/86 85/85/85 83/83/83
f 89/89/89 88/88/88 87/87/87
f 90/90/90 89/89/89 87/87/87
f 93/93/93 92/92/92 91/91/91
f 94/94/94 93/93/93 91/91/91
f 97/97/97 96/96/96 95/95/95
f 98/98/98 97/97/97 95/95/95
f 101/101/101 100/100/100 99/99/99
f 102/102/102 101/101/101 99/99/99
f 105/105/105 104/104/104 103/103/103
f 106/106/106 105/105/105 103/103/103
f 109/109/109 108/108/108 107/107/107
f 110/110/110 109/109/109 107/107/107
f 113/113/113 112/112/112 111/111/111
f 114/114/114 113/113/113 111/111/111
f 117/117/117 116/116/116 115/115/115
f 118/118/118 117/117/117 115/115/115
f 121/121/121 120/120/120 119/119/119
f 122/122/122 121/121/121 119/119/119
f 125/125/125 124/124/124 123/123/123
f 126/126/126 125/125/125 123/123/123
f 129/129/129 128/128/128 127/127/127
f 130/130/130 129/129/129 127/127/127
f 133/133/133 132/132/132 131/131/131
f 134/134/134 133/133/133 131/131/131
f 137/137/137 136/136/136 135/135/135
f 138/138/138 137/137/137 135/135/135
f 141/141/141 140/140/140 139/139/139
f 142/142/142 141/141/141 139/139/139
f 145/145/145 144/144/144 143/143/143
f 146/146/146 145/145/145 143/143/143
f 149/149/149 148/148/148 147/147/147
f 148/148/148 150/150/150 147/147/147
f 147/147/147 150/150/150 151/151/151
f 150/150/150 152/152/152 151/151/151
f 148/148/148 153/153/153 150/150/150
f 150/150/150 154/154/154 152/152/152
f 153/153/153 154/154/154 150/150/150
f 154/154/154 155/155/155 152/152/152
f 156/156/156 155/155/155 154/154/154
f 157/157/157 154/154/154 153/153/153
f 157/157/157 156/156/156 154/154/154
f 158/158/158 157/157/157 153/153/153
f 157/157/157 158/158/158 159/159/159
f 156/156/156 157/157/157 160/160/160
f 160/160/160 157/157/157 159/159/159
f 161/161/161 156/156/156 160/160/160
f 161/161/161 160/160/160 162/162/162
f 160/160/160 163/163/163 162/162/162
f 160/160/160 159/159/159 163/163/163
f 159/159/159 164/164/164 163/163/163
f 167/167/167 166/166/166 165/165/165
f 166/166/166 168/168/168 165/165/165
f 168/168/168 169/169/169 165/165/165
f 169/169/169 170/170/170 165/165/165
f 170/170/170 169/169/169 171/171/171
f 172/172/172 170/170/170 171/171/171
f 173/173/173 172/172/172 171/171/171
f 174/174/174 173/173/173 171/171/171
f 173/173/173 174/174/174 175/175/175
f 176/176/176 173/173/173 175/175/175
