#
# OBJECT NAME
#
o model_3576
mtllib 3576.mtl

#
# VERTEX BUFFER 000
#
v 0.5 0.75 -0.5
v -0.5 0.75 -0.5
v -0.5 0.75 0.5
v 0.5 0.75 0.5
v 0 0.302678 -0.341488
v 0 0.302678 -0.5
v 0.1875 0.215314 -0.5
v 0.1875 0.215314 -0.341488
v -0.1875 0.215314 -0.341488
v -0.1875 0.215314 -0.5
v -0.5 0 -0.5
v -0.34152 0 -0.5
v -0.341518 0 -0.341488
v -0.5 0 -0.341519
v -0.341518 0 -0.341488
v -0.34152 0 -0.5
v 0.5 0 -0.341519
v 0.341371 0 -0.341488
v 0.341519 0 -0.5
v 0.5 0 -0.5
v 0.341519 0 0.5
v 0.341371 0 0.341519
v 0.5 0 0.34152
v 0.5 0 0.5
v 0.341519 0 0.5
v 0.1875 0.215314 0.5
v 0.1875 0.215314 0.341519
v 0.341371 0 0.341519
v 0 0.302678 0.5
v 0 0.302678 0.341519
v -0.1875 0.215314 0.5
v -0.1875 0.215314 0.341519
v -0.5 0 0.34152
v -0.341518 0 0.341519
v -0.34152 0 0.5
v -0.5 0 0.5
v 0.341371 0.302678 0
v 0.5 0.302678 0
v 0.5 0.215314 0.1875
v 0.341371 0.215314 0.1875
v -0.5 0.215314 0.1875
v -0.5 0.302678 0
v -0.341518 0.302678 -1.11759e-007
v -0.341518 0.215314 0.1875
v 0.341668 0.627059 0.341521
v -0.341521 0.627059 0.341521
v -0.341521 0.627059 -0.341551
v 0.341668 0.627059 -0.341551
v 0.341371 0 -0.341488
v 0.5 0 -0.341519
v 0.5 0.215314 -0.1875
v 0.341371 0.215314 -0.1875
v -0.5 0 -0.341519
v -0.341518 0 -0.341488
v -0.341518 0.215314 -0.1875
v -0.5 0.215314 -0.1875
v -0.341518 0.215314 0.1875
v -0.341521 0.627059 0.341521
v -0.341518 0 0.341519
v 0 0.302678 0.5
v 0.1875 0.215314 0.5
v 0.5 0.75 0.5
v 0.5 0.302678 0
v 0.5 0.215314 -0.1875
v 0.5 0.75 -0.5
v -0.5 0.75 0.5
v -0.5 0.302678 0
v -0.5 0.215314 0.1875
v 0.1875 0.215314 0.341519
v 0.341668 0.627059 0.341521
v 0.341371 0 0.341519
v 0.341371 0.215314 -0.1875
v 0.341668 0.627059 -0.341551
v 0.341371 0 -0.341488
v -0.1875 0.215314 -0.341488
v -0.341521 0.627059 -0.341551
v -0.341518 0 -0.341488
v 0.5 0 0.34152
v 0.5 0.215314 0.1875
v 0.5 0.75 0.5
v 0.5 0 0.5
v -0.34152 0 0.5
v -0.1875 0.215314 0.5
v -0.5 0.75 0.5
v -0.5 0 0.5
v -0.5 0 -0.341519
v -0.5 0.215314 -0.1875
v -0.5 0.75 -0.5
v -0.5 0 -0.5
v -0.5 0.75 -0.5
v -0.34152 0 -0.5
v -0.5 0 -0.5
v 0 0.302678 -0.5
v -0.1875 0.215314 -0.5
v 0.5 0.75 -0.5
v 0.5 0 -0.5
v 0.341519 0 -0.5
v 0.1875 0.215314 -0.5
v -0.5 0 0.34152
v -0.5 0 0.5
v 0.341519 0 0.5
v 0.5 0 0.5
v 0.5 0 -0.341519
v 0.5 0 -0.5
v 0.341668 0.627059 -0.341551
v 0 0.302678 -0.341488
v 0.1875 0.215314 -0.341488
v 0.341668 0.627059 0.341521
v 0.341371 0.302678 0
v 0.341371 0.215314 0.1875
v 0.341371 0 0.341519
v 0.5 0 0.34152
v 0.341371 0 0.341519
v -0.5 0 0.34152
v -0.341518 0 0.341519
v 0.341519 0 -0.5
v 0.341371 0 -0.341488
v -0.341518 0.302678 -1.11759e-007
v -0.341521 0.627059 -0.341551
v -0.341518 0 0.341519
v -0.34152 0 0.5
v -0.341521 0.627059 0.341521
v 0 0.302678 0.341519
v -0.1875 0.215314 0.341519
v -0.341518 0 0.341519
v -0.341518 0 -0.341488
v -0.341518 0.215314 -0.1875
v 0.341371 0 -0.341488

vn 0 1 0
vn 0 1 0
vn 0 1 0
vn 0 1 0
vn 0 -1 0
vn 0 -1 0
vn -0.663086 -0.748047 -0.000221014
vn -0.663086 -0.748047 -0.000221014
vn 0.663086 -0.748047 -1.60933e-006
vn 0.663086 -0.748047 -1.60933e-006
vn 0 -1 0
vn 0 -1 0
vn 0 -1 0
vn 0 -1 0
vn 0.812988 -0.581543 -2.80142e-006
vn 0.812988 -0.581543 -2.80142e-006
vn 0 -1 0
vn 0 -1 0
vn 0 -1 0
vn 0 -1 0
vn 0 -1 0
vn 0 -1 0
vn 0 -1 0
vn 0 -1 0
vn -0.812988 -0.581543 0.000380993
vn -0.663086 -0.748047 0.000221133
vn -0.663086 -0.748047 0.000221133
vn -0.812988 -0.581543 0.000380993
vn 0 -1 0
vn 0 -1 0
vn 0.663086 -0.748047 1.60933e-006
vn 0.663086 -0.748047 1.60933e-006
vn 0 -1 0
vn 0 -1 0
vn 0 -1 0
vn 0 -1 0
vn 0 -1 0
vn 0 -1 0
vn 1.19209e-006 -0.748047 -0.663086
vn 1.19209e-006 -0.748047 -0.663086
vn -1.2517e-006 -0.748047 -0.663086
vn 0 -1 0
vn 0 -1 0
vn -1.2517e-006 -0.748047 -0.663086
vn 0 -1 0
vn 0 -1 0
vn 0 -1 0
vn 0 -1 0
vn 8.01682e-005 -0.581543 0.812988
vn 8.01682e-005 -0.581543 0.812988
vn 4.64916e-005 -0.748047 0.663086
vn 4.64916e-005 -0.748047 0.663086
vn -8.02279e-005 -0.581543 0.812988
vn -8.02279e-005 -0.581543 0.812988
vn -4.64916e-005 -0.748047 0.663086
vn -4.64916e-005 -0.748047 0.663086
vn 1 3.93391e-006 3.8147e-006
vn 1 5.96046e-006 1.01328e-006
vn 1 3.51667e-006 4.88758e-006
vn 0 0 1
vn 0 0 1
vn 0 0 1
vn 1 0 0
vn 1 0 0
vn 1 0 0
vn -1 0 0
vn -1 0 0
vn -1 0 0
vn 2.86102e-006 2.86102e-006 -1
vn 7.7486e-007 4.41074e-006 -1
vn 3.69549e-006 2.563e-006 -1
vn -0.999512 0.000528812 -0.00051403
vn -0.999512 0.00080204 -0.000141978
vn -0.999512 0.000473499 -0.000662327
vn -0.000108182 0.000111341 1
vn -9.95398e-006 0.000160098 1
vn -0.000139117 9.9659e-005 1
vn 1 0 0
vn 1 0 0
vn 1 0 0
vn 1 0 0
vn 0 0 1
vn 0 0 1
vn 0 0 1
vn 0 0 1
vn -1 0 0
vn -1 0 0
vn -1 0 0
vn -1 0 0
vn 0 0 -1
vn 0 0 -1
vn 0 0 -1
vn 0 0 -1
vn 0 0 -1
vn 0 0 -1
vn 0 0 -1
vn 0 0 -1
vn 0 0 -1
vn -1 0 0
vn -1 0 0
vn 0 0 1
vn 0 0 1
vn 1 0 0
vn 1 0 0
vn 2.77162e-005 0.000167966 1
vn 8.9407e-006 0.000169277 1
vn 5.51343e-005 0.000151157 1
vn -0.999512 0.00080204 0.000141978
vn -0.999512 0.00080204 0
vn -0.999512 0.000528812 0.00051403
vn 2.08616e-006 -0.581543 -0.812988
vn 2.08616e-006 -0.581543 -0.812988
vn -0.999512 0.000473738 0.00066185
vn -2.08616e-006 -0.581543 -0.812988
vn -2.08616e-006 -0.581543 -0.812988
vn -0.812988 -0.581543 -0.000380993
vn -0.812988 -0.581543 -0.000380993
vn 1 5.90086e-006 0
vn 1 5.90086e-006 -1.01328e-006
vn 0.812988 -0.581543 2.80142e-006
vn 0.812988 -0.581543 2.80142e-006
vn -7.7486e-007 4.41074e-006 -1
vn 0 4.41074e-006 -1
vn -2.86102e-006 2.86102e-006 -1
vn -3.69549e-006 2.563e-006 -1
vn 1 3.51667e-006 -4.88758e-006
vn 1 3.8743e-006 -3.8147e-006
vn 0.000139117 9.95994e-005 1

vt 0.975109 0.983994
vt 0.50946 0.983994
vt 0.50946 0.518345
vt 0.975109 0.518345
vt 0.742284 0.396149
vt 0.742284 0.46996
vt 0.81425 0.46996
vt 0.81425 0.396149
vt 0.670319 0.396149
vt 0.670319 0.46996
vt 0.50946 0.46996
vt 0.583256 0.46996
vt 0.583257 0.396149
vt 0.50946 0.396164
vt 0.583257 0.396149
vt 0.583256 0.46996
vt 0.975109 0.396164
vt 0.901243 0.396149
vt 0.901313 0.46996
vt 0.975109 0.46996
vt 0.901313 0.396163
vt 0.901243 0.46996
vt 0.975109 0.46996
vt 0.975109 0.396163
vt 0.901313 0.396163
vt 0.81425 0.396163
vt 0.81425 0.46996
vt 0.901243 0.46996
vt 0.742284 0.396163
vt 0.742284 0.46996
vt 0.670319 0.396163
vt 0.670319 0.46996
vt 0.50946 0.46996
vt 0.583257 0.46996
vt 0.583256 0.396163
vt 0.50946 0.396163
vt 0.742284 0.396095
vt 0.742284 0.46996
vt 0.81425 0.46996
vt 0.81425 0.396095
vt 0.81425 0.396163
vt 0.742284 0.396163
vt 0.742284 0.46996
vt 0.81425 0.46996
vt 0.892277 0.0645257
vt 0.592572 0.0645257
vt 0.592572 0.36418
vt 0.892277 0.36418
vt 0.58327 0.396095
vt 0.583256 0.46996
vt 0.670319 0.46996
vt 0.670319 0.396095
vt 0.583256 0.396163
vt 0.58327 0.46996
vt 0.670319 0.46996
vt 0.670319 0.396163
vt 0.16584 0.181962
vt 0.0941205 0.340825
vt 0.0941213 0.0988873
vt 0.253149 0.812819
vt 0.340459 0.779112
vt 0.485974 0.983994
vt 0.253149 0.499866
vt 0.340459 0.466158
vt 0.485974 0.67104
vt 0.0203247 0.67104
vt 0.253149 0.499866
vt 0.16584 0.466158
vt 0.340459 0.181962
vt 0.412247 0.340825
vt 0.412108 0.0988873
vt 0.340459 0.181962
vt 0.412192 0.340825
vt 0.412163 0.0988873
vt 0.16584 0.181962
vt 0.0941205 0.340825
vt 0.0941216 0.0988873
vt 0.0941208 0.383083
vt 0.16584 0.466158
vt 0.0203247 0.67104
vt 0.0203247 0.383083
vt 0.094121 0.696037
vt 0.16584 0.779112
vt 0.0203247 0.983994
vt 0.0203247 0.696037
vt 0.412178 0.383083
vt 0.340459 0.466158
vt 0.485974 0.67104
vt 0.485974 0.383083
vt 0.0203247 0.983994
vt 0.094121 0.696037
vt 0.0203247 0.696037
vt 0.253149 0.812819
vt 0.16584 0.779112
vt 0.485974 0.983994
vt 0.485974 0.696037
vt 0.412178 0.696037
vt 0.340459 0.779112
vt 0.0941208 0.383083
vt 0.0203247 0.383083
vt 0.412178 0.696037
vt 0.485974 0.696037
vt 0.412178 0.383083
vt 0.485974 0.383083
vt 0.412247 0.340825
vt 0.253149 0.21567
vt 0.340459 0.181962
vt 0.0941205 0.340825
vt 0.25315 0.21567
vt 0.16584 0.181962
vt 0.901312 0.396095
vt 0.901313 0.46996
vt 0.0941213 0.0988873
vt 0.901313 0.396163
vt 0.901312 0.46996
vt 0.901313 0.46996
vt 0.901243 0.396149
vt 0.25315 0.21567
vt 0.412192 0.340825
vt 0.583257 0.46996
vt 0.583256 0.396163
vt 0.0941205 0.340825
vt 0.253149 0.21567
vt 0.16584 0.181962
vt 0.0941216 0.0988873
vt 0.412163 0.0988873
vt 0.340459 0.181962
vt 0.412108 0.0988873


#
# MESH 000
#
g surface_000
usemtl surface_000
f 105/105/105 107/107/107 128/128/128
f 105/105/105 106/106/106 107/107/107
f 105/105/105 76/76/76 106/106/106
f 75/75/75 106/106/106 76/76/76
f 75/75/75 76/76/76 77/77/77
f 126/126/126 119/119/119 127/127/127
f 127/127/127 119/119/119 118/118/118
f 118/118/118 119/119/119 58/58/58
f 118/118/118 58/58/58 57/57/57
f 57/57/57 58/58/58 59/59/59
f 122/122/122 124/124/124 125/125/125
f 122/122/122 123/123/123 124/124/124
f 122/122/122 70/70/70 123/123/123
f 123/123/123 70/70/70 69/69/69
f 69/69/69 70/70/70 71/71/71
f 120/120/120 31/31/31 121/121/121
f 120/120/120 32/32/32 31/31/31
f 30/30/30 31/31/31 32/32/32
f 30/30/30 29/29/29 31/31/31
f 29/29/29 30/30/30 27/27/27
f 29/29/29 27/27/27 26/26/26
f 25/25/25 26/26/26 27/27/27
f 25/25/25 27/27/27 28/28/28
f 8/8/8 116/116/116 117/117/117
f 8/8/8 7/7/7 116/116/116
f 5/5/5 7/7/7 8/8/8
f 5/5/5 6/6/6 7/7/7
f 6/6/6 5/5/5 9/9/9
f 6/6/6 9/9/9 10/10/10
f 10/10/10 9/9/9 15/15/15
f 10/10/10 15/15/15 16/16/16
f 114/114/114 44/44/44 115/115/115
f 114/114/114 41/41/41 44/44/44
f 41/41/41 43/43/43 44/44/44
f 41/41/41 42/42/42 43/43/43
f 42/42/42 55/55/55 43/43/43
f 42/42/42 56/56/56 55/55/55
f 53/53/53 55/55/55 56/56/56
f 53/53/53 54/54/54 55/55/55
f 108/108/108 110/110/110 113/113/113
f 108/108/108 109/109/109 110/110/110
f 109/109/109 108/108/108 73/73/73
f 109/109/109 73/73/73 72/72/72
f 72/72/72 73/73/73 74/74/74
f 111/111/111 39/39/39 112/112/112
f 111/111/111 40/40/40 39/39/39
f 37/37/37 39/39/39 40/40/40
f 37/37/37 38/38/38 39/39/39
f 37/37/37 51/51/51 38/38/38
f 37/37/37 52/52/52 51/51/51
f 49/49/49 51/51/51 52/52/52
f 49/49/49 50/50/50 51/51/51
f 65/65/65 103/103/103 104/104/104
f 65/65/65 64/64/64 103/103/103
f 63/63/63 64/64/64 65/65/65
f 80/80/80 63/63/63 65/65/65
f 80/80/80 79/79/79 63/63/63
f 78/78/78 79/79/79 80/80/80
f 81/81/81 78/78/78 80/80/80
f 62/62/62 101/101/101 102/102/102
f 62/62/62 61/61/61 101/101/101
f 60/60/60 61/61/61 62/62/62
f 84/84/84 60/60/60 62/62/62
f 84/84/84 83/83/83 60/60/60
f 82/82/82 83/83/83 84/84/84
f 85/85/85 82/82/82 84/84/84
f 66/66/66 99/99/99 100/100/100
f 66/66/66 68/68/68 99/99/99
f 66/66/66 67/67/67 68/68/68
f 88/88/88 67/67/67 66/66/66
f 88/88/88 87/87/87 67/67/67
f 86/86/86 87/87/87 88/88/88
f 88/88/88 89/89/89 86/86/86
f 96/96/96 97/97/97 95/95/95
f 95/95/95 97/97/97 98/98/98
f 95/95/95 98/98/98 93/93/93
f 95/95/95 93/93/93 90/90/90
f 90/90/90 93/93/93 94/94/94
f 90/90/90 94/94/94 91/91/91
f 90/90/90 91/91/91 92/92/92
f 45/45/45 47/47/47 48/48/48
f 45/45/45 46/46/46 47/47/47
f 33/33/33 35/35/35 36/36/36
f 33/33/33 34/34/34 35/35/35
f 21/21/21 23/23/23 24/24/24
f 21/21/21 22/22/22 23/23/23
f 17/17/17 19/19/19 20/20/20
f 17/17/17 18/18/18 19/19/19
f 11/11/11 13/13/13 14/14/14
f 11/11/11 12/12/12 13/13/13
f 1/1/1 3/3/3 4/4/4
f 1/1/1 2/2/2 3/3/3

