#
# OBJECT NAME
#
o model_1351
mtllib 1351.mtl

#
# VERTEX BUFFER 000
#
v 0 0.0791685 0.487286
v -0.419634 0.0791685 0.217194
v 0 0 0.496697
v -0.449945 0 0.235837
v 0 0 0.496697
v -0.449945 0 0.235837
v 0 0 -0.493653
v -0.422542 0 -0.250214
v 0.4365 0 -0.254807
v 0.441037 -0.00497315 0.225491
v 0.986969 2.47345 -0.106678
v 1.45532 2.71976 0
v 1.04643 2.39108 0.000115027
v 0.986965 2.47345 0.106682
v 1.45532 2.71976 0
v 1.45532 2.71976 0
v 0.942275 2.56585 -0.000410778
v 0.986965 2.47345 0.106682
v 1.45532 2.71976 0
v 0.986969 2.47345 -0.106678
v 0.535301 2.07882 -0.188789
v 0.676327 1.98744 -0.0926035
v 0.535301 2.07882 0.188789
v 0.440751 2.17063 0.0910966
v 0.0236588 0.877378 -0.323349
v 0.273285 0.849454 -0.158549
v 3.8147e-006 0.218944 -0.382454
v 0.297556 0.218944 -0.187516
v 0 0.218944 0.382454
v 0.0236588 0.877378 0.323349
v -0.322226 0.218944 0.184625
v -0.24731 0.905432 0.15608
v 0.193985 1.52603 -0.264282
v 0.389674 1.45622 -0.129603
v -0.00038468 1.59615 0.127554
v 0.193985 1.52603 0.264282
v 0.441037 -0.00497315 0.225491
v 0.430887 0.0741954 0.220047
v 0 0 0.496697
v 0 0.0791685 0.487286
v 0.4365 0 -0.254807
v 0.41368 0.0791685 -0.236702
v 0 0 -0.493653
v 1.37937e-006 0.0791685 -0.462352
v -0.407811 0.0791685 -0.228157
v -0.319629 0.218944 -0.189736
v 0.296828 0.218944 0.15692
v 3.8147e-006 0.218944 -0.382454
v 1.37937e-006 0.0791685 -0.462352
v 0 0.218944 0.382454
v -0.422542 0 -0.250214
v 0.44174 2.16986 -0.0936994
v 0.535301 2.07882 -0.188789
v 0.00124838 1.59557 -0.131137
v 0.193985 1.52603 -0.264282
v -0.245123 0.905197 -0.160426
v 0.0236588 0.877378 -0.323349
v 0.67605 1.98766 0.0931308
v 0.535301 2.07882 0.188789
v 0.193985 1.52603 0.264282
v 0.389219 1.45639 0.130404
v 0.0236588 0.877378 0.323349
v 0.272674 0.84952 0.127738
v 0 0 -0.493653

vn 0.0149078 0.470947 0.881836
vn -0.778809 0.468506 0.416504
vn 1.78814e-007 0.438965 0.897949
vn -0.635254 0.438965 0.635254
vn 0 -1 0
vn 0 -1 0
vn 0 -1 0
vn 0 -1 0
vn 0 -1 0
vn 0 -1 0
vn 0.0791016 0.118103 -0.989746
vn 0.203979 0.140137 -0.96875
vn 0.76709 -0.641113 -0.000545025
vn 0.0791016 0.118103 0.989746
vn 0.203979 0.140137 -0.96875
vn 0.203979 0.140137 -0.96875
vn -0.449219 0.893066 0.00242424
vn 0.0791016 0.118103 0.989746
vn 0.203979 0.140137 -0.96875
vn 0.0791016 0.118103 -0.989746
vn 0.03125 0.127808 -0.991211
vn 0.730469 -0.422852 -0.536133
vn 0.03125 0.127808 0.991211
vn -0.643066 0.626465 0.439697
vn -0.0259857 0.0943604 -0.995117
vn 0.864746 -0.0328979 -0.500488
vn -0.00873566 0.211914 -0.977051
vn 0.838867 0.247681 -0.484131
vn -0.00874329 0.211914 0.977051
vn -0.0259857 0.0943604 0.995117
vn -0.844238 0.251709 0.472412
vn -0.864746 0.206665 0.45752
vn -0.0119247 0.111816 -0.993164
vn 0.825195 -0.243774 -0.508789
vn -0.796387 0.424561 0.429932
vn -0.0119324 0.111877 0.993164
vn 0.897949 0.438965 -2.20537e-006
vn 0.758301 0.499268 0.418701
vn 1.78814e-007 0.438965 0.897949
vn 0.0149078 0.470947 0.881836
vn 0.635254 0.438965 -0.635254
vn 0.745117 0.516602 -0.420654
vn -3.8743e-006 0.438965 -0.897949
vn -0.00473404 0.470215 -0.882324
vn -0.77002 0.469482 -0.431641
vn -0.843262 0.239868 -0.480225
vn 0.848633 0.263184 0.458252
vn -0.00873566 0.211914 -0.977051
vn -0.00473404 0.470215 -0.882324
vn -0.00874329 0.211914 0.977051
vn -0.960449 0.27417 -0.0404358
vn -0.640625 0.624512 -0.445801
vn 0.03125 0.127808 -0.991211
vn -0.793457 0.423584 -0.436279
vn -0.0119247 0.111816 -0.993164
vn -0.861328 0.206299 -0.463623
vn -0.0259857 0.0943604 -0.995117
vn 0.729492 -0.422119 0.537598
vn 0.03125 0.127808 0.991211
vn -0.0119324 0.111877 0.993164
vn 0.82373 -0.249634 0.507813
vn -0.0259857 0.0943604 0.995117
vn 0.87793 -0.0411987 0.476563
vn -3.8743e-006 0.438965 -0.897949

vt 0.413228 0.0332907
vt 0.294263 0.0332907
vt 0.417151 0.00929952
vt 0.28429 0.00929952
vt 0.42675 0.717171
vt 0.523132 0.776805
vt 0.42675 0.961905
vt 0.518138 0.914329
vt 0.340223 0.926064
vt 0.322303 0.796275
vt 0.7167 0.857046
vt 0.66552 0.981998
vt 0.665479 0.857046
vt 0.614334 0.857046
vt 0.66552 0.981998
vt 0.213431 0.981998
vt 0.213293 0.857046
vt 0.262215 0.857046
vt 0.213431 0.981998
vt 0.164641 0.857046
vt 0.747661 0.69336
vt 0.698927 0.69336
vt 0.295599 0.69336
vt 0.247636 0.69336
vt 0.801096 0.291447
vt 0.720187 0.291447
vt 0.844954 0.0806786
vt 0.741224 0.0806786
vt 0.380857 0.0806786
vt 0.345848 0.291447
vt 0.283268 0.0806786
vt 0.267931 0.291447
vt 0.771362 0.501668
vt 0.708657 0.501668
vt 0.258989 0.501668
vt 0.321595 0.501668
vt 0.612542 0.00929952
vt 0.618366 0.0332907
vt 0.444683 0.00929952
vt 0.449876 0.0332907
vt 0.77747 0.00929952
vt 0.764482 0.0332907
vt 0.884128 0.00929952
vt 0.878549 0.0332907
vt 0.129794 0.0332907
vt 0.141579 0.0806786
vt 0.590737 0.0806786
vt 0.0466256 0.0806786
vt 0.0170563 0.0332907
vt 0.486716 0.0806786
vt 0.125078 0.00929952
vt 0.178304 0.69336
vt 0.131258 0.69336
vt 0.16664 0.501668
vt 0.105263 0.501668
vt 0.157461 0.291447
vt 0.0810099 0.291447
vt 0.631857 0.69336
vt 0.583367 0.69336
vt 0.559748 0.501668
vt 0.622135 0.501668
vt 0.53034 0.291447
vt 0.610841 0.291447
vt 0.012962 0.00929952


#
# MESH 000
#
g surface_000
usemtl surface_000
f 51/51/51 49/49/49 64/64/64
f 45/45/45 49/49/49 51/51/51
f 46/46/46 49/49/49 45/45/45
f 48/48/48 49/49/49 46/46/46
f 48/48/48 46/46/46 57/57/57
f 57/57/57 46/46/46 56/56/56
f 56/56/56 54/54/54 57/57/57
f 57/57/57 54/54/54 55/55/55
f 51/51/51 4/4/4 45/45/45
f 45/45/45 4/4/4 2/2/2
f 45/45/45 2/2/2 46/46/46
f 46/46/46 2/2/2 31/31/31
f 46/46/46 31/31/31 56/56/56
f 56/56/56 31/31/31 32/32/32
f 56/56/56 32/32/32 54/54/54
f 54/54/54 32/32/32 35/35/35
f 54/54/54 35/35/35 52/52/52
f 54/54/54 52/52/52 55/55/55
f 55/55/55 52/52/52 53/53/53
f 52/52/52 20/20/20 53/53/53
f 3/3/3 2/2/2 4/4/4
f 1/1/1 2/2/2 3/3/3
f 1/1/1 31/31/31 2/2/2
f 29/29/29 31/31/31 1/1/1
f 29/29/29 30/30/30 31/31/31
f 31/31/31 30/30/30 32/32/32
f 32/32/32 30/30/30 35/35/35
f 35/35/35 30/30/30 36/36/36
f 35/35/35 36/36/36 24/24/24
f 52/52/52 35/35/35 24/24/24
f 24/24/24 17/17/17 52/52/52
f 17/17/17 20/20/20 52/52/52
f 19/19/19 20/20/20 17/17/17
f 24/24/24 36/36/36 23/23/23
f 23/23/23 18/18/18 24/24/24
f 24/24/24 18/18/18 17/17/17
f 16/16/16 17/17/17 18/18/18
f 43/43/43 44/44/44 41/41/41
f 41/41/41 44/44/44 42/42/42
f 41/41/41 42/42/42 37/37/37
f 37/37/37 42/42/42 38/38/38
f 37/37/37 38/38/38 39/39/39
f 39/39/39 38/38/38 40/40/40
f 47/47/47 40/40/40 38/38/38
f 50/50/50 40/40/40 47/47/47
f 44/44/44 28/28/28 42/42/42
f 47/47/47 42/42/42 28/28/28
f 38/38/38 42/42/42 47/47/47
f 27/27/27 28/28/28 44/44/44
f 27/27/27 26/26/26 28/28/28
f 63/63/63 28/28/28 26/26/26
f 47/47/47 28/28/28 63/63/63
f 62/62/62 47/47/47 63/63/63
f 50/50/50 47/47/47 62/62/62
f 25/25/25 26/26/26 27/27/27
f 25/25/25 33/33/33 26/26/26
f 26/26/26 33/33/33 34/34/34
f 26/26/26 34/34/34 63/63/63
f 63/63/63 34/34/34 61/61/61
f 60/60/60 63/63/63 61/61/61
f 62/62/62 63/63/63 60/60/60
f 33/33/33 21/21/21 34/34/34
f 34/34/34 21/21/21 22/22/22
f 58/58/58 34/34/34 22/22/22
f 61/61/61 34/34/34 58/58/58
f 59/59/59 61/61/61 58/58/58
f 60/60/60 61/61/61 59/59/59
f 21/21/21 11/11/11 22/22/22
f 22/22/22 11/11/11 13/13/13
f 22/22/22 13/13/13 58/58/58
f 13/13/13 14/14/14 58/58/58
f 58/58/58 14/14/14 59/59/59
f 11/11/11 12/12/12 13/13/13
f 14/14/14 13/13/13 15/15/15
f 9/9/9 10/10/10 7/7/7
f 7/7/7 10/10/10 5/5/5
f 5/5/5 6/6/6 7/7/7
f 7/7/7 6/6/6 8/8/8

