#
# OBJECT NAME
#
o model_2988
mtllib 2988.mtl

#
# VERTEX BUFFER 000
#
v -0.092327 0.627448 -0.5
v -0.215006 0.375716 -0.5
v -0.25674 0.407302 -0.301913
v -0.193488 0.617441 -0.28754
v -0.15151 0.559229 -0.071341
v -0.305672 0.410753 -0.0319774
v -0.234281 0.614363 0.0307609
v -0.261835 1.05798 0.06052
v -0.147382 0.97351 -0.000455091
v -0.0586011 0.933698 -0.468842
v 0.0904228 0.980782 -0.200621
v 0.0924249 1.02123 -0.20003
v -0.5 0.392914 -0.0245998
v -0.540406 0.417389 0.026176
v -0.540406 0.632686 0.073549
v -0.540406 0.672902 0.163803
v -0.477847 0.708064 0.156638
v -0.13667 0.671798 0.032696
v -0.0523576 0.714317 -0.467983
v -0.001237 0.649435 -0.5
v 0.00714276 0.69921 -0.237062
v -0.001237 0.649435 -0.5
v -0.0129491 0.97718 -0.0590638
v -0.5 0.406878 -0.181057
v 0.5 0 -0.5
v 0.5 0 -0.0216417
v 0.161796 0 -0.129879
v 0.049783 0 -0.5
v 0.017909 0.686655 0.5
v -0.171954 0.528057 0.5
v -0.148927 0.524016 0.541371
v 0.0234093 0.668705 0.541371
v 0.5 1 -0.5
v 0.5 1 -0.188719
v 0.5 0.774307 -0.155099
v 0.5 0.627478 -0.5
v -0.5 1.02387 0.486929
v -0.477847 0.708064 0.156638
v -0.5 0.606757 0.5
v -0.540406 0.271251 0.473319
v -0.540406 0.417389 0.026176
v -0.5 0.392914 -0.0245998
v -0.5 0.218969 0.5
v -0.540406 0.672902 0.163803
v -0.540406 0.554508 0.473319
v -0.540406 0.632686 0.073549
v -0.5 0 0.015154
v -0.5 0 0.5
v 0.218954 1.03505 -0.128211
v 0.269067 1.04979 0.115787
v 0.480554 1.03223 0.14008
v 0.5 1 -0.188719
v 0.55717 0.662707 -0.0295391
v 0.554356 0.741674 -0.169759
v 0.5 0.684415 0.010097
v -0.0710081 0.978805 0.0558373
v -0.147382 0.97351 -0.000455091
v -0.153521 1.04519 0.025188
v 0.5 0.283517 0.5
v 0.402238 0.435148 0.439365
v 0.269021 0.363076 0.5
v 0.402238 0.435148 0.439365
v 0.5 0.283517 0.5
v 0.504616 0.464489 0.340654
v 0.461331 0.452084 0.382389
v 0.402238 0.435148 0.439365
v 0.27468 0.543091 0.5
v 0.5 0.581537 0.5
v 0.402238 0.435148 0.439365
v 0.461331 0.452084 0.382389
v 0.504616 0.464489 0.340654
v 0.5 0.581537 0.5
v 0.27468 0.543091 0.5
v 0.402238 0.435148 0.439365
v 0.119512 0.980912 0.183599
v 0.019539 0.794617 0.5
v 0.189496 1 0.5
v 0.5 0.581537 0.5
v 0.5 1 0.5
v 0.189496 1 0.5
v 0.5 1 0.178458
v 0.226287 1 0.133733
v 0.5 1 0.178458
v 0.5 0.581537 0.5
v 0.182914 0.530415 -0.5
v 0.154061 0.305811 -0.5
v -0.092327 0.627448 -0.5
v -0.001237 0.649435 -0.5
v 0.5 0.493791 0.112618
v 0.561299 0.483731 0.063066
v 0.550272 0.587053 -0.487282
v 0.571176 0.357579 -0.0808416
v 0.547055 0.2917 -0.436323
v 0.550272 0.36081 -0.488426
v 0.5 0.323722 -0.070832
v 0.5 0.240287 -0.5
v -0.0327494 0.927778 0.1046
v -0.110822 1.05923 0.486712
v -0.0710081 0.978805 0.0558373
v -0.0129491 0.97718 -0.0590638
v 0.198816 1.02679 0.089091
v 0.123907 1.04045 0.124546
v -0.0710081 0.978805 0.0558373
v 0.5 0 0.5
v -0.057591 0 0.5
v -0.164237 0.314001 0.5
v -0.5 0.606757 0.5
v -0.5 0.218969 0.5
v 0.019539 0.794617 0.5
v -0.143307 0.326839 0.541371
v -0.0259574 0.2708 0.541371
v 0.228728 0.373821 0.541371
v 0.230441 0.538793 0.541371
v -0.03022 0.243224 0.5
v 0.171914 0.994148 -0.105703
v 0.0924249 1.02123 -0.20003
v -0.5 0 0.5
v -0.413556 0 0.0121104
v -0.140209 0 0.15114
v 0.5 0 0.5
v -0.057591 0 0.5
v 0.5 0.627478 -0.5
v 0.5 0.240287 -0.5
v -0.5 0.261001 -0.5
v 0.049783 0 -0.5
v -0.5 0 -0.5
v -0.5 0 -0.5
v 0.5 0 -0.5
v 0.5 0 -0.5
v 0.5 0 -0.0216417
v 0.5 0 0.5
v -0.439292 1.08476 0.215027
v -0.261835 1.05798 0.06052
v -0.022135 0.723803 -0.485861
v -0.0523576 0.714317 -0.467983
v -0.5 0.406878 -0.181057
v -0.5 0.261001 -0.5
v -0.0586011 0.933698 -0.468842
v -0.00587947 0.941106 -0.492947
v 0.040802 0.236699 -0.5
v -0.215006 0.375716 -0.5
v 0.011628 1 -0.5
v -0.153521 1.04519 0.025188
v 0.5 1 -0.5
v 0.011628 1 -0.5
v 0.5 1 0.5
v 0.5 1 0.5
v 0.011628 1 -0.5
v 0.5 1 -0.5
v -0.439292 1.08476 0.215027
v -0.5 1.02387 0.486929
v -0.439292 1.08476 0.215027
v -0.5 1.02387 0.486929
v -0.110822 1.05923 0.486712
v -0.5 0 0.5
v -0.5 0 0.015154
v -0.5 0.261001 -0.5
v -0.5 0 -0.5
v 0.0904228 0.980782 -0.200621

vn -0.429932 0.484375 -0.761719
vn -0.229492 0.182983 -0.955566
vn -0.614258 0.751465 -0.240112
vn -0.766113 0.635254 -0.0967407
vn -0.763672 0.618164 -0.184937
vn -0.276367 0.749512 -0.601074
vn -0.311768 0.220947 -0.923828
vn -0.317627 0.698242 -0.641113
vn -0.366943 0.0621948 -0.927734
vn -0.950684 0.212891 0.225464
vn -0.94873 0.289063 0.125244
vn -0.0764771 0.996582 -0.00439835
vn -0.971191 0.233276 -0.0411682
vn -0.822266 -0.0623169 -0.56543
vn -0.791504 0.24292 -0.560059
vn -0.975586 0.213135 0.0440063
vn -0.822266 0.255859 -0.507813
vn -0.635254 0.21521 -0.741211
vn -0.96875 0.00669479 0.247314
vn -0.111755 0.200684 -0.973145
vn -0.898926 0.435303 0.0424805
vn -0.111755 0.200684 -0.973145
vn -0.644043 0.540039 -0.541016
vn -0.778809 0.621094 -0.0847778
vn 0 -1 0
vn 0 -1 0
vn 0 -1 0
vn 0 -1 0
vn -0.00666046 0.0904541 0.995605
vn -0.0611267 0.0269012 0.997559
vn -0.101074 0.0531921 0.993164
vn -0.000843525 0.140381 0.989746
vn 0.663574 0.44165 -0.603516
vn 0.833984 0.550293 -0.0256958
vn 0.995605 0.0886841 -0.00550842
vn 0.34082 0.069458 -0.9375
vn -0.391602 0.283691 0.875
vn -0.822266 0.255859 -0.507813
vn -0.299561 0.0795288 0.950684
vn -0.952148 -0.280762 0.119141
vn -0.822266 -0.0623169 -0.56543
vn -0.971191 0.233276 -0.0411682
vn -0.791016 -0.0466003 0.609375
vn -0.975586 0.213135 0.0440063
vn -0.957031 0.162842 0.238159
vn -0.791504 0.24292 -0.560059
vn -1 0 0
vn -0.953125 0 0.302246
vn 0.0103302 0.994141 -0.104858
vn 0.0191345 0.997559 0.0653687
vn 0.162964 0.982422 0.0861816
vn 0.833984 0.550293 -0.0256958
vn 0.956543 0.212769 0.19873
vn 0.95459 0.28833 -0.0685425
vn 0.994629 0.067688 0.0748901
vn 0.546387 0.322998 -0.771973
vn -0.366943 0.0621948 -0.927734
vn 0.465332 0.867676 -0.173096
vn 0.874023 0.0255432 0.484619
vn 0.316895 0.520996 0.791992
vn 0.0864258 -0.0200043 0.995605
vn 0.316895 0.520996 0.791992
vn 0.874023 0.0255432 0.484619
vn 0.999023 0.0280762 0.0303955
vn 0.477051 0.57373 0.665527
vn 0.419922 -0.0132065 0.907227
vn 0.144531 0.0586243 0.987305
vn 0.326416 -0.539551 0.775879
vn 0.331543 -0.541016 0.772461
vn 0.630859 -0.616211 0.470947
vn 0.630859 -0.616211 0.470947
vn 0.326416 -0.539551 0.775879
vn 0.0720215 -0.422363 0.90332
vn 0.331543 -0.541016 0.772461
vn -0.279053 0.946289 0.161743
vn 0.29126 0.94043 0.172852
vn -0.220215 0.662598 0.715332
vn 0.827637 0.00406265 0.561035
vn 0.634277 0.470703 0.612793
vn -0.220215 0.662598 0.715332
vn 0.899902 0.433105 0.0392151
vn -0.0438538 0.995117 0.0853271
vn 0.899902 0.433105 0.0392151
vn 0.827637 0.00406265 0.561035
vn 0 0 -1
vn 0 0 -1
vn -0.429932 0.484375 -0.761719
vn -0.111755 0.200684 -0.973145
vn 0.992676 0.00203514 0.120178
vn 0.927734 -0.0875244 0.362549
vn 0.87793 0.22937 -0.419434
vn 0.972168 -0.221313 0.0733643
vn 0.970703 -0.23877 -0.0100098
vn 0.968262 0.00642014 -0.248657
vn 0.993652 -0.103394 0.039917
vn 0.693359 -0.0484924 -0.71875
vn 0.518066 0.840332 0.157837
vn 0.206665 0.354736 0.911621
vn 0.537598 0.842285 -0.0327454
vn -0.644043 0.540039 -0.541016
vn -0.208008 0.973145 0.0966187
vn -0.131348 0.973145 0.188477
vn 0.537598 0.842285 -0.0327454
vn 0.901855 0 0.431152
vn 0 0 1
vn -0.0395203 -0.0193329 0.999023
vn -0.299561 0.0795288 0.950684
vn -0.791016 -0.0466003 0.609375
vn -0.00461197 0.0192871 0.999512
vn -0.086731 -0.0430603 0.995117
vn 0.0149689 -0.112549 0.993164
vn 0.0928345 -0.103943 0.990234
vn 0.0952759 0.0818481 0.991699
vn 0.00656891 -0.0633545 0.997559
vn -0.290527 0.956055 -0.0372009
vn -0.0764771 0.996582 -0.00439835
vn 0 -1 0
vn 0 -1 0
vn 0 -1 0
vn 0 -1 0
vn 0 -1 0
vn 0.34082 0.069458 -0.9375
vn 0.693359 -0.0484924 -0.71875
vn -0.648438 0.198242 -0.734863
vn 0 0 -1
vn -0.683594 0 -0.729492
vn 0 -1 0
vn 0.921875 0 -0.386475
vn 0.921875 0 -0.386475
vn 1 0 0
vn 0.901855 0 0.431152
vn -0.590332 0.756836 -0.278809
vn -0.317627 0.698242 -0.641113
vn -0.129395 0.0388794 -0.990723
vn -0.96875 0.00669479 0.247314
vn -0.778809 0.621094 -0.0847778
vn -0.648438 0.198242 -0.734863
vn -0.950684 0.212891 0.225464
vn -0.0665894 -0.0396729 -0.996582
vn 0 0 -1
vn -0.229492 0.182983 -0.955566
vn -0.13623 0.952637 -0.27124
vn 0.465332 0.867676 -0.173096
vn 0.663574 0.44165 -0.603516
vn -0.13623 0.952637 -0.27124
vn 0.634277 0.470703 0.612793
vn 0.634277 0.470703 0.612793
vn -0.13623 0.952637 -0.27124
vn 0.663574 0.44165 -0.603516
vn -0.590332 0.756836 -0.278809
vn -0.391602 0.283691 0.875
vn -0.590332 0.756836 -0.278809
vn -0.391602 0.283691 0.875
vn 0.206665 0.354736 0.911621
vn -0.953125 0 0.302246
vn 0 -1 0
vn -0.648438 0.198242 -0.734863
vn -0.683594 0 -0.729492
vn -0.94873 0.289063 0.125244

vt 0.632731 0.670815
vt 0.659464 0.547549
vt 0.732765 0.583558
vt 0.683107 0.742527
vt 0.810584 0.68113
vt 0.826815 0.617337
vt 0.838104 0.738491
vt 0.889726 0.951552
vt 0.825108 0.935535
vt 0.591647 0.939023
vt 0.718062 0.967418
vt 0.708595 0.992472
vt 0.881362 0.553371
vt 0.908067 0.556761
vt 0.931623 0.677721
vt 0.964778 0.735842
vt 0.952706 0.760752
vt 0.817643 0.780088
vt 0.608663 0.770526
vt 0.618884 0.722981
vt 0.689448 0.816719
vt 0.618884 0.722981
vt 0.771088 0.951624
vt 0.825236 0.512651
vt 0.258785 0.983532
vt 0.258797 0.740642
vt 0.335099 0.804987
vt 0.359307 0.983532
vt 0.129325 0.3246
vt 0.085069 0.251898
vt 0.0965068 0.24438
vt 0.131012 0.304231
vt 0.493345 0.494764
vt 0.419759 0.494723
vt 0.411816 0.385358
vt 0.493345 0.314182
vt 0.991923 0.465303
vt 0.909967 0.324871
vt 0.991923 0.279822
vt 0.985555 0.130629
vt 0.878827 0.195614
vt 0.866708 0.18473
vt 0.991923 0.107381
vt 0.911677 0.309235
vt 0.985555 0.256588
vt 0.890135 0.291352
vt 0.876196 0.0100098
vt 0.991923 0.0100098
vt 0.188577 0.810189
vt 0.203017 0.687538
vt 0.239051 0.683189
vt 0.243653 0.837461
vt 0.384968 0.328022
vt 0.412853 0.354971
vt 0.374789 0.342592
vt 0.104966 0.713822
vt 0.0901973 0.749132
vt 0.0887421 0.737099
vt 0.240722 0.139799
vt 0.241289 0.223969
vt 0.187859 0.193797
vt 0.256913 0.2176
vt 0.256959 0.147446
vt 0.291784 0.235173
vt 0.277041 0.227743
vt 0.241289 0.223969
vt 0.189178 0.258789
vt 0.257612 0.274849
vt 0.256913 0.2176
vt 0.277041 0.227743
vt 0.291784 0.235173
vt 0.239468 0.277822
vt 0.189178 0.258789
vt 0.241289 0.223969
vt 0.154429 0.665563
vt 0.129766 0.514305
vt 0.170055 0.514305
vt 0.239468 0.277822
vt 0.238682 0.473965
vt 0.16898 0.47439
vt 0.24366 0.665181
vt 0.186346 0.684406
vt 0.332967 0.494764
vt 0.257612 0.27485
vt 0.580177 0.266255
vt 0.587026 0.157748
vt 0.645513 0.313133
vt 0.620997 0.323496
vt 0.348531 0.249377
vt 0.364279 0.250552
vt 0.479851 0.294586
vt 0.396616 0.191998
vt 0.480646 0.155993
vt 0.480122 0.184914
vt 0.391896 0.166935
vt 0.493345 0.12649
vt 0.123765 0.683158
vt 0.0988639 0.514305
vt 0.104966 0.713822
vt 0.119661 0.800595
vt 0.18149 0.707766
vt 0.154038 0.707059
vt 0.104966 0.713822
vt 0.240722 0.00983334
vt 0.111727 0.00983334
vt 0.0868677 0.153773
vt 0.00860266 0.287974
vt 0.00860266 0.11021
vt 0.129705 0.37409
vt 0.0978167 0.17018
vt 0.120719 0.144491
vt 0.179485 0.207625
vt 0.180289 0.247916
vt 0.118107 0.121329
vt 0.177058 0.795751
vt 0.152377 0.861467
vt 0.493023 0.514305
vt 0.468144 0.7418
vt 0.405521 0.677292
vt 0.258785 0.514305
vt 0.386568 0.514305
vt 0.504908 0.313147
vt 0.504908 0.126093
vt 0.738543 0.1361
vt 0.623166 0.0100098
vt 0.742285 0.0100098
vt 0.493023 0.982265
vt 0.504907 0.0100098
vt 0.493345 0.0100098
vt 0.372177 0.0100098
vt 0.256959 0.0100098
vt 0.983609 0.925325
vt 0.0668471 0.708309
vt 0.627466 0.359595
vt 0.635692 0.355151
vt 0.829363 0.19094
vt 0.716032 0.399654
vt 0.638299 0.461118
vt 0.624809 0.464638
vt 0.613911 0.12436
vt 0.674634 0.19152
vt 0.620836 0.493114
vt 0.84489 0.964077
vt 0.504907 0.493114
vt 0.588263 0.989853
vt 0.259061 0.495194
vt 0.24366 0.514305
vt 0.127891 0.983532
vt 0.24366 0.983532
vt 0.0209997 0.648022
vt 0.00660878 0.514305
vt 0.923904 0.492379
vt 0.00860266 0.47918
vt 0.0993186 0.495389
vt 0.00860266 0.00983334
vt 0.493023 0.739981
vt 0.753235 0.126071
vt 0.753235 0.0100098
vt 0.148584 0.851113


#
# MESH 000
#
g surface_000
usemtl surface_000
f 72/72/72 73/73/73 74/74/74
f 56/56/56 57/57/57 58/58/58
f 47/47/47 157/157/157 158/158/158
f 47/47/47 136/136/136 157/157/157
f 47/47/47 42/42/42 136/136/136
f 42/42/42 47/47/47 48/48/48
f 42/42/42 48/48/48 43/43/43
f 40/40/40 42/42/42 43/43/43
f 40/40/40 41/41/41 42/42/42
f 45/45/45 41/41/41 40/40/40
f 44/44/44 41/41/41 45/45/45
f 44/44/44 46/46/46 41/41/41
f 43/43/43 45/45/45 40/40/40
f 43/43/43 39/39/39 45/45/45
f 39/39/39 44/44/44 45/45/45
f 39/39/39 38/38/38 44/44/44
f 37/37/37 38/38/38 39/39/39
f 152/152/152 38/38/38 37/37/37
f 105/105/105 108/108/108 155/155/155
f 105/105/105 106/106/106 108/108/108
f 106/106/106 107/107/107 108/108/108
f 106/106/106 30/30/30 107/107/107
f 109/109/109 107/107/107 30/30/30
f 153/153/153 107/107/107 109/109/109
f 153/153/153 109/109/109 154/154/154
f 105/105/105 114/114/114 106/106/106
f 114/114/114 110/110/110 106/106/106
f 106/106/106 110/110/110 31/31/31
f 106/106/106 31/31/31 30/30/30
f 29/29/29 30/30/30 31/31/31
f 109/109/109 30/30/30 29/29/29
f 78/78/78 109/109/109 29/29/29
f 78/78/78 80/80/80 109/109/109
f 78/78/78 79/79/79 80/80/80
f 105/105/105 61/61/61 114/114/114
f 61/61/61 111/111/111 114/114/114
f 114/114/114 111/111/111 110/110/110
f 31/31/31 110/110/110 111/111/111
f 31/31/31 111/111/111 112/112/112
f 31/31/31 112/112/112 113/113/113
f 31/31/31 113/113/113 32/32/32
f 29/29/29 31/31/31 32/32/32
f 105/105/105 59/59/59 61/61/61
f 59/59/59 60/60/60 61/61/61
f 104/104/104 59/59/59 105/105/105
f 29/29/29 32/32/32 113/113/113
f 29/29/29 113/113/113 67/67/67
f 78/78/78 29/29/29 67/67/67
f 67/67/67 113/113/113 112/112/112
f 67/67/67 112/112/112 61/61/61
f 66/66/66 67/67/67 61/61/61
f 61/61/61 112/112/112 111/111/111
f 98/98/98 150/150/150 151/151/151
f 133/133/133 150/150/150 98/98/98
f 133/133/133 98/98/98 58/58/58
f 97/97/97 58/58/58 98/98/98
f 97/97/97 99/99/99 58/58/58
f 76/76/76 97/97/97 98/98/98
f 75/75/75 97/97/97 76/76/76
f 97/97/97 75/75/75 103/103/103
f 75/75/75 76/76/76 77/77/77
f 77/77/77 82/82/82 75/75/75
f 82/82/82 102/102/102 75/75/75
f 99/99/99 75/75/75 102/102/102
f 99/99/99 102/102/102 100/100/100
f 99/99/99 100/100/100 57/57/57
f 77/77/77 81/81/81 82/82/82
f 81/81/81 50/50/50 82/82/82
f 82/82/82 50/50/50 101/101/101
f 82/82/82 101/101/101 102/102/102
f 101/101/101 115/115/115 102/102/102
f 115/115/115 100/100/100 102/102/102
f 159/159/159 100/100/100 115/115/115
f 116/116/116 159/159/159 115/115/115
f 147/147/147 81/81/81 77/77/77
f 148/148/148 116/116/116 149/149/149
f 149/149/149 116/116/116 52/52/52
f 116/116/116 49/49/49 52/52/52
f 49/49/49 51/51/51 52/52/52
f 52/52/52 51/51/51 81/81/81
f 81/81/81 51/51/51 50/50/50
f 49/49/49 50/50/50 51/51/51
f 49/49/49 101/101/101 50/50/50
f 49/49/49 115/115/115 101/101/101
f 116/116/116 115/115/115 49/49/49
f 83/83/83 146/146/146 84/84/84
f 83/83/83 84/84/84 55/55/55
f 34/34/34 83/83/83 55/55/55
f 34/34/34 55/55/55 35/35/35
f 33/33/33 34/34/34 35/35/35
f 33/33/33 35/35/35 36/36/36
f 55/55/55 84/84/84 64/64/64
f 55/55/55 64/64/64 89/89/89
f 89/89/89 53/53/53 55/55/55
f 53/53/53 35/35/35 55/55/55
f 53/53/53 54/54/54 35/35/35
f 91/91/91 35/35/35 54/54/54
f 91/91/91 36/36/36 35/35/35
f 94/94/94 36/36/36 91/91/91
f 94/94/94 96/96/96 36/36/36
f 64/64/64 95/95/95 89/89/89
f 89/89/89 95/95/95 92/92/92
f 89/89/89 92/92/92 90/90/90
f 89/89/89 90/90/90 53/53/53
f 90/90/90 54/54/54 53/53/53
f 90/90/90 92/92/92 54/54/54
f 54/54/54 92/92/92 93/93/93
f 54/54/54 93/93/93 94/94/94
f 54/54/54 94/94/94 91/91/91
f 63/63/63 95/95/95 64/64/64
f 63/63/63 130/130/130 95/95/95
f 129/129/129 95/95/95 130/130/130
f 129/129/129 96/96/96 95/95/95
f 96/96/96 92/92/92 95/95/95
f 96/96/96 93/93/93 92/92/92
f 93/93/93 96/96/96 94/94/94
f 65/65/65 63/63/63 64/64/64
f 65/65/65 62/62/62 63/63/63
f 63/63/63 131/131/131 130/130/130
f 10/10/10 12/12/12 145/145/145
f 10/10/10 11/11/11 12/12/12
f 10/10/10 21/21/21 11/11/11
f 21/21/21 23/23/23 11/11/11
f 21/21/21 18/18/18 23/23/23
f 9/9/9 23/23/23 18/18/18
f 7/7/7 9/9/9 18/18/18
f 7/7/7 8/8/8 9/9/9
f 9/9/9 8/8/8 143/143/143
f 10/10/10 19/19/19 21/21/21
f 19/19/19 20/20/20 21/21/21
f 132/132/132 8/8/8 17/17/17
f 17/17/17 8/8/8 7/7/7
f 15/15/15 17/17/17 7/7/7
f 16/16/16 17/17/17 15/15/15
f 14/14/14 15/15/15 7/7/7
f 14/14/14 7/7/7 6/6/6
f 13/13/13 14/14/14 6/6/6
f 24/24/24 13/13/13 6/6/6
f 24/24/24 6/6/6 3/3/3
f 24/24/24 3/3/3 137/137/137
f 137/137/137 3/3/3 2/2/2
f 1/1/1 2/2/2 3/3/3
f 5/5/5 6/6/6 7/7/7
f 3/3/3 6/6/6 5/5/5
f 5/5/5 4/4/4 3/3/3
f 1/1/1 3/3/3 4/4/4
f 22/22/22 1/1/1 4/4/4
f 22/22/22 4/4/4 21/21/21
f 5/5/5 21/21/21 4/4/4
f 5/5/5 18/18/18 21/21/21
f 7/7/7 18/18/18 5/5/5
f 125/125/125 123/123/123 128/128/128
f 125/125/125 86/86/86 123/123/123
f 86/86/86 122/122/122 123/123/123
f 86/86/86 85/85/85 122/122/122
f 88/88/88 122/122/122 85/85/85
f 88/88/88 144/144/144 122/122/122
f 125/125/125 140/140/140 86/86/86
f 87/87/87 86/86/86 140/140/140
f 85/85/85 86/86/86 87/87/87
f 85/85/85 87/87/87 88/88/88
f 124/124/124 140/140/140 125/125/125
f 124/124/124 141/141/141 140/140/140
f 87/87/87 140/140/140 141/141/141
f 124/124/124 125/125/125 126/126/126
f 120/120/120 121/121/121 26/26/26
f 26/26/26 121/121/121 119/119/119
f 26/26/26 119/119/119 27/27/27
f 25/25/25 26/26/26 27/27/27
f 25/25/25 27/27/27 28/28/28
f 28/28/28 27/27/27 118/118/118
f 28/28/28 118/118/118 127/127/127
f 127/127/127 118/118/118 156/156/156
f 117/117/117 119/119/119 121/121/121
f 117/117/117 118/118/118 119/119/119
f 118/118/118 27/27/27 119/119/119
f 156/156/156 118/118/118 117/117/117
f 68/68/68 70/70/70 71/71/71
f 68/68/68 69/69/69 70/70/70
f 88/88/88 134/134/134 144/144/144
f 134/134/134 88/88/88 135/135/135
f 134/134/134 135/135/135 138/138/138
f 134/134/134 138/138/138 139/139/139
f 144/144/144 134/134/134 139/139/139
f 144/144/144 139/139/139 142/142/142
f 138/138/138 142/142/142 139/139/139

