#
# OBJECT NAME
#
o model_5076
mtllib 5076.mtl

#
# VERTEX BUFFER 000
#
v -0.412674 1.995 0.412674
v 2.495 1.995 0.412674
v 2.495 1.995 -0.412674
v -0.412674 1.995 -0.412674
v -0.412674 1.91312 -0.412674
v 2.495 1.91312 -0.412674
v 2.495 1.91312 0.412674
v -0.412674 1.91312 0.412674
v 2.495 1.91312 0.412674
v 2.495 1.91312 -0.412674
v 2.495 1.995 -0.412674
v 2.495 1.995 0.412674
v -0.495 0.910647 0.412674
v 1.505 0.910647 0.412674
v 1.505 1.005 0.412674
v -0.495 1.005 0.412674
v -0.495 1.005 0.412674
v 1.505 1.005 0.412674
v 1.505 1.005 -0.412674
v -0.495 1.005 -0.412674
v -0.495 1.005 -0.412674
v 1.505 1.005 -0.412674
v 1.505 0.910647 -0.412674
v -0.495 0.910647 -0.412674
v -0.495 0.910647 -0.412674
v 1.505 0.910647 -0.412674
v 1.505 0.910647 0.412674
v -0.495 0.910647 0.412674
v 1.505 0.910647 0.412674
v 1.505 0.910647 -0.412674
v 1.505 1.005 -0.412674
v 1.505 1.005 0.412674
v -0.495 0.910647 -0.412674
v -0.495 0.910647 0.412674
v -0.495 1.005 0.412674
v -0.495 1.005 -0.412674
v -0.495 -0.005 0.412674
v 2.495 -0.005 0.412674
v 2.495 0.0757657 0.412674
v -0.495 0.0757657 0.412674
v -0.495 0.0757657 0.412674
v 2.495 0.0757657 0.412674
v 2.495 0.0757657 -0.412674
v -0.495 0.0757657 -0.412674
v -0.495 0.0757657 -0.412674
v 2.495 0.0757657 -0.412674
v 2.495 -0.005 -0.412674
v -0.495 -0.005 -0.412674
v -0.495 -0.005 -0.412674
v 2.495 -0.005 -0.412674
v 2.495 -0.005 0.412674
v -0.495 -0.005 0.412674
v 2.495 -0.005 0.412674
v 2.495 -0.005 -0.412674
v 2.495 0.0757657 -0.412674
v 2.495 0.0757657 0.412674
v -0.495 -0.005 -0.412674
v -0.495 -0.005 0.412674
v -0.495 0.0757657 0.412674
v -0.495 0.0757657 -0.412674
v -0.495 1.91312 0.495
v -0.495 1.995 0.495
v -0.495 1.995 -0.495
v -0.495 1.91312 -0.495
v -0.412674 1.91312 -0.412674
v -0.412674 1.995 -0.412674
v -0.412674 1.995 0.412674
v -0.412674 1.91312 0.412674
v -0.412674 1.995 0.412674
v -0.412674 1.995 -0.412674
v -0.495 1.995 -0.495
v -0.495 1.995 0.495
v -0.412674 1.91312 -0.412674
v -0.412674 1.91312 0.412674
v -0.495 1.91312 0.495
v -0.495 1.91312 -0.495
v -0.495 1.91312 -0.495
v -0.495 1.995 -0.495
v 2.495 1.995 -0.493
v 2.495 1.91312 -0.493
v -0.495 1.995 -0.495
v -0.412674 1.995 -0.412674
v 2.495 1.995 -0.412674
v 2.495 1.995 -0.493
v -0.412674 1.995 -0.412674
v -0.412674 1.91312 -0.412674
v 2.495 1.91312 -0.412674
v 2.495 1.995 -0.412674
v -0.412674 1.91312 -0.412674
v -0.495 1.91312 -0.495
v 2.495 1.91312 -0.493
v 2.495 1.91312 -0.412674
v 2.495 1.91312 -0.412674
v 2.495 1.91312 -0.493
v 2.495 1.995 -0.493
v 2.495 1.995 -0.412674
v -0.495 1.91312 0.495
v 2.495 1.91312 0.495
v 2.495 1.995 0.495
v -0.495 1.995 0.495
v -0.495 1.995 0.495
v 2.495 1.995 0.495
v 2.495 1.995 0.412674
v -0.412674 1.995 0.412674
v -0.412674 1.995 0.412674
v 2.495 1.995 0.412674
v 2.495 1.91312 0.412674
v -0.412674 1.91312 0.412674
v -0.412674 1.91312 0.412674
v 2.495 1.91312 0.412674
v 2.495 1.91312 0.495
v -0.495 1.91312 0.495
v 2.495 1.91312 0.412674
v 2.495 1.995 0.412674
v 2.495 1.995 0.495
v 2.495 1.91312 0.495
v 1.505 -0.005 -0.493
v 1.41482 -0.005 -0.493
v 1.41482 1.91312 -0.493
v 1.505 1.91312 -0.493
v 1.41482 -0.005 -0.493
v 1.41482 -0.005 -0.412674
v 1.41482 1.91312 -0.412674
v 1.41482 1.91312 -0.493
v 1.41482 -0.005 -0.412674
v 1.505 -0.005 -0.412674
v 1.505 1.91312 -0.412674
v 1.41482 1.91312 -0.412674
v 1.505 -0.005 -0.412674
v 1.505 -0.005 -0.493
v 1.505 1.91312 -0.493
v 1.505 1.91312 -0.412674
v 1.505 -0.005 -0.412674
v 1.41482 -0.005 -0.412674
v 1.41482 -0.005 -0.493
v 1.505 -0.005 -0.493
v -0.412674 -0.005 -0.495
v -0.495 -0.005 -0.495
v -0.495 1.91312 -0.495
v -0.412674 1.91312 -0.495
v -0.495 -0.005 -0.495
v -0.495 -0.005 -0.412674
v -0.495 1.91312 -0.412674
v -0.495 1.91312 -0.495
v -0.495 -0.005 -0.412674
v -0.412674 -0.005 -0.412674
v -0.412674 1.91312 -0.412674
v -0.495 1.91312 -0.412674
v -0.412674 -0.005 -0.412674
v -0.412674 -0.005 -0.495
v -0.412674 1.91312 -0.495
v -0.412674 1.91312 -0.412674
v -0.412674 -0.005 -0.412674
v -0.495 -0.005 -0.412674
v -0.495 -0.005 -0.495
v -0.412674 -0.005 -0.495
v 2.495 -0.005 -0.493
v 2.41267 -0.005 -0.495
v 2.41267 1.91312 -0.495
v 2.495 1.91312 -0.493
v 2.41267 -0.005 -0.495
v 2.41267 -0.005 -0.412674
v 2.41267 1.91312 -0.412674
v 2.41267 1.91312 -0.495
v 2.41267 -0.005 -0.412674
v 2.495 -0.005 -0.412674
v 2.495 1.91312 -0.412674
v 2.41267 1.91312 -0.412674
v 2.495 -0.005 -0.412674
v 2.495 -0.005 -0.493
v 2.495 1.91312 -0.493
v 2.495 1.91312 -0.412674
v 2.495 -0.005 -0.412674
v 2.41267 -0.005 -0.412674
v 2.41267 -0.005 -0.495
v 2.495 -0.005 -0.493
v 1.505 -0.005 0.495
v 1.505 1.91312 0.495
v 1.41482 1.91312 0.495
v 1.41482 -0.005 0.495
v 1.41482 -0.005 0.495
v 1.41482 1.91312 0.495
v 1.41482 1.91312 0.412674
v 1.41482 -0.005 0.412674
v 1.41482 -0.005 0.412674
v 1.41482 1.91312 0.412674
v 1.505 1.91312 0.412674
v 1.505 -0.005 0.412674
v 1.505 -0.005 0.412674
v 1.505 1.91312 0.412674
v 1.505 1.91312 0.495
v 1.505 -0.005 0.495
v 1.505 -0.005 0.412674
v 1.505 -0.005 0.495
v 1.41482 -0.005 0.495
v 1.41482 -0.005 0.412674
v -0.412674 -0.005 0.495
v -0.412674 1.91312 0.495
v -0.495 1.91312 0.495
v -0.495 -0.005 0.495
v -0.495 -0.005 0.495
v -0.495 1.91312 0.495
v -0.495 1.91312 0.412674
v -0.495 -0.005 0.412674
v -0.495 -0.005 0.412674
v -0.495 1.91312 0.412674
v -0.412674 1.91312 0.412674
v -0.412674 -0.005 0.412674
v -0.412674 -0.005 0.412674
v -0.412674 1.91312 0.412674
v -0.412674 1.91312 0.495
v -0.412674 -0.005 0.495
v -0.412674 -0.005 0.412674
v -0.412674 -0.005 0.495
v -0.495 -0.005 0.495
v -0.495 -0.005 0.412674
v 2.495 -0.005 0.495
v 2.495 1.91312 0.495
v 2.41267 1.91312 0.495
v 2.41267 -0.005 0.495
v 2.41267 -0.005 0.495
v 2.41267 1.91312 0.495
v 2.41267 1.91312 0.412674
v 2.41267 -0.005 0.412674
v 2.41267 -0.005 0.412674
v 2.41267 1.91312 0.412674
v 2.495 1.91312 0.412674
v 2.495 -0.005 0.412674
v 2.495 -0.005 0.412674
v 2.495 1.91312 0.412674
v 2.495 1.91312 0.495
v 2.495 -0.005 0.495
v 2.495 -0.005 0.412674
v 2.495 -0.005 0.495
v 2.41267 -0.005 0.495
v 2.41267 -0.005 0.412674
v -0.412674 0.0757657 -0.412674
v -0.412674 0.500989 0.412674
v -0.412674 0.910647 -0.412674
v 0.451036 0.500989 0.412674
v 0.451036 0.0757657 0.412674
v 0.451036 0.0757657 -0.412674
v 0.451036 0.0757657 -0.412674
v -0.412674 0.0757657 -0.412674
v -0.412674 0.910647 -0.412674
v 0.451036 0.910647 -0.412674
v 0.451036 0.0757657 0.412674
v 0.451036 0.500989 0.412674
v -0.412674 0.500989 0.412674
v -0.412674 0.0757657 0.412674
v -0.412674 0.500989 0.412674
v 0.451036 0.500989 0.412674
v 0.451036 0.910647 0.412674
v -0.412674 0.910647 0.412674
v -0.412674 0.0757657 0.412674
v -0.412674 0.910647 0.412674
v 0.451036 0.910647 -0.412674
v 0.451036 0.910647 0.412674

vn 0 1 0
vn 0 1 0
vn 0 1 0
vn 0 1 0
vn 0 -1 0
vn 0 -1 0
vn 0 -1 0
vn 0 -1 0
vn 1 0 0
vn 1 0 0
vn 1 0 0
vn 1 0 0
vn 0 0 1
vn 0 0 1
vn 0 0 1
vn 0 0 1
vn 0 1 0
vn 0 1 0
vn 0 1 0
vn 0 1 0
vn 0 0 -1
vn 0 0 -1
vn 0 0 -1
vn 0 0 -1
vn 0 -1 0
vn 0 -1 0
vn 0 -1 0
vn 0 -1 0
vn 1 0 0
vn 1 0 0
vn 1 0 0
vn 1 0 0
vn -1 0 0
vn -1 0 0
vn -1 0 0
vn -1 0 0
vn 0 0 1
vn 0 0 1
vn 0 0 1
vn 0 0 1
vn 0 1 0
vn 0 1 0
vn 0 1 0
vn 0 1 0
vn 0 0 -1
vn 0 0 -1
vn 0 0 -1
vn 0 0 -1
vn 0 -1 0
vn 0 -1 0
vn 0 -1 0
vn 0 -1 0
vn 1 0 0
vn 1 0 0
vn 1 0 0
vn 1 0 0
vn -1 0 0
vn -1 0 0
vn -1 0 0
vn -1 0 0
vn -1 0 0
vn -1 0 0
vn -1 0 0
vn -1 0 0
vn 1 -1.72853e-006 0
vn 1 -1.72853e-006 0
vn 1 -1.72853e-006 0
vn 1 -1.72853e-006 0
vn 0 1 0
vn 0 1 0
vn 0 1 0
vn 0 1 0
vn 0 -1 0
vn 0 -1 0
vn 0 -1 0
vn 0 -1 0
vn 0.000668526 0 -0.999512
vn 0.000668526 0 -0.999512
vn 0.000668526 0 -0.999512
vn 0.000668526 0 -0.999512
vn 0 1 0
vn 0 1 0
vn 0 1 0
vn 0 1 0
vn 0 0 1
vn 0 0 1
vn 0 0 1
vn 0 0 1
vn 0 -1 0
vn 0 -1 0
vn 0 -1 0
vn 0 -1 0
vn 1 0 0
vn 1 0 0
vn 1 0 0
vn 1 0 0
vn 0 0 1
vn 0 0 1
vn 0 0 1
vn 0 0 1
vn 0 1 -4.76837e-007
vn 0 1 -4.76837e-007
vn 0 1 -4.76837e-007
vn 0 1 -4.76837e-007
vn 0 0 -1
vn 0 0 -1
vn 0 0 -1
vn 0 0 -1
vn 0 -1 -2.98023e-007
vn 0 -1 -2.98023e-007
vn 0 -1 -2.98023e-007
vn 0 -1 -2.98023e-007
vn 1 0 0
vn 1 0 0
vn 1 0 0
vn 1 0 0
vn 0 0 -1
vn 0 0 -1
vn 0 0 -1
vn 0 0 -1
vn -1 0 0
vn -1 0 0
vn -1 0 0
vn -1 0 0
vn 0 0 1
vn 0 0 1
vn 0 0 1
vn 0 0 1
vn 1 0 0
vn 1 0 0
vn 1 0 0
vn 1 0 0
vn 0 -1 0
vn 0 -1 0
vn 0 -1 0
vn 0 -1 0
vn 0 0 -1
vn 0 0 -1
vn 0 0 -1
vn 0 0 -1
vn -1 0 0
vn -1 0 0
vn -1 0 0
vn -1 0 0
vn 0 0 1
vn 0 0 1
vn 0 0 1
vn 0 0 1
vn 1 0 0
vn 1 0 0
vn 1 0 0
vn 1 0 0
vn 0 -1 0
vn 0 -1 0
vn 0 -1 0
vn 0 -1 0
vn 0.0242767 0 -0.999512
vn 0.0242767 0 -0.999512
vn 0.0242767 0 -0.999512
vn 0.0242767 0 -0.999512
vn -1 0 0
vn -1 0 0
vn -1 0 0
vn -1 0 0
vn 0 0 1
vn 0 0 1
vn 0 0 1
vn 0 0 1
vn 1 0 0
vn 1 0 0
vn 1 0 0
vn 1 0 0
vn 0 -1 0
vn 0 -1 0
vn 0 -1 0
vn 0 -1 0
vn 0 0 1
vn 0 0 1
vn 0 0 1
vn 0 0 1
vn -1 0 0
vn -1 0 0
vn -1 0 0
vn -1 0 0
vn 0 0 -1
vn 0 0 -1
vn 0 0 -1
vn 0 0 -1
vn 1 0 0
vn 1 0 0
vn 1 0 0
vn 1 0 0
vn 0 -1 0
vn 0 -1 0
vn 0 -1 0
vn 0 -1 0
vn 0 0 1
vn 0 0 1
vn 0 0 1
vn 0 0 1
vn -1 0 0
vn -1 0 0
vn -1 0 0
vn -1 0 0
vn 0 0 -1
vn 0 0 -1
vn 0 0 -1
vn 0 0 -1
vn 1 0 0
vn 1 0 0
vn 1 0 0
vn 1 0 0
vn 0 -1 0
vn 0 -1 0
vn 0 -1 0
vn 0 -1 0
vn 0 0 1
vn 0 0 1
vn 0 0 1
vn 0 0 1
vn -1 0 0
vn -1 0 0
vn -1 0 0
vn -1 0 0
vn 0 0 -1
vn 0 0 -1
vn 0 0 -1
vn 0 0 -1
vn 1 0 0
vn 1 0 0
vn 1 0 0
vn 1 0 0
vn 0 -1 0
vn 0 -1 0
vn 0 -1 0
vn 0 -1 0
vn -1 0 0
vn -1 0 0
vn -1 0 0
vn 1 0 0
vn 1 0 0
vn 1 0 0
vn 0 0 -1
vn 0 0 -1
vn 0 0 -1
vn 0 0 -1
vn 0 0 1
vn 0 0 1
vn 0 0 1
vn 0 0 1
vn 0 0 1
vn 0 0 1
vn 0 0 1
vn 0 0 1
vn -1 0 0
vn -1 0 0
vn 1 0 0
vn 1 0 0

vt 0.288002 0.357821
vt 0.288002 0.685323
vt 0.0163402 0.685323
vt 0.0163402 0.357821
vt 0.288002 0.357821
vt 0.288002 0.685323
vt 0.0163402 0.685323
vt 0.0163402 0.357821
vt 0.288002 0.31935
vt 0.0163402 0.31935
vt 0.0163402 0.346102
vt 0.288002 0.346102
vt 0.985933 0.41981
vt 0.35296 0.41981
vt 0.35296 0.394772
vt 0.985933 0.394772
vt 0.985933 0.684147
vt 0.35296 0.684147
vt 0.35296 0.429998
vt 0.985933 0.429998
vt 0.985933 0.41981
vt 0.35296 0.41981
vt 0.35296 0.394772
vt 0.985933 0.394772
vt 0.985933 0.684147
vt 0.35296 0.684147
vt 0.35296 0.429998
vt 0.985933 0.429998
vt 0.306288 0.682732
vt 0.306288 0.428583
vt 0.333041 0.428583
vt 0.333041 0.682732
vt 0.306288 0.428583
vt 0.306288 0.682732
vt 0.333041 0.682732
vt 0.33304 0.428583
vt 0.985933 0.721914
vt 0.0591141 0.721914
vt 0.0591141 0.696876
vt 0.985933 0.696876
vt 0.985933 0.989091
vt 0.0591141 0.989091
vt 0.0591141 0.734942
vt 0.985933 0.734942
vt 0.985933 0.721914
vt 0.0591141 0.721914
vt 0.0591141 0.696876
vt 0.985933 0.696876
vt 0.985933 0.989091
vt 0.0591141 0.989091
vt 0.0591141 0.734942
vt 0.985933 0.734942
vt 0.0163402 0.989091
vt 0.0163402 0.734942
vt 0.0430922 0.734942
vt 0.0430922 0.989091
vt 0.0163402 0.734942
vt 0.0163402 0.989091
vt 0.0430926 0.989091
vt 0.0430926 0.734942
vt 0.656604 0.346057
vt 0.656604 0.319167
vt 0.985933 0.319167
vt 0.985933 0.346057
vt 0.668208 0.346057
vt 0.668209 0.319167
vt 0.974328 0.319167
vt 0.974328 0.346057
vt 0.143177 0.151856
vt 0.422303 0.151856
vt 0.449193 0.178746
vt 0.116287 0.178746
vt 0.122662 0.19289
vt 0.401788 0.19289
vt 0.428678 0.21978
vt 0.0957715 0.21978
vt 0.0591141 0.234764
vt 0.0591141 0.261517
vt 0.985933 0.261517
vt 0.985933 0.234764
vt 0.059738 0.178769
vt 0.0866285 0.151879
vt 0.985933 0.151879
vt 0.985933 0.178769
vt 0.0591141 0.234764
vt 0.0591141 0.261517
vt 0.985933 0.261517
vt 0.985933 0.234764
vt 0.0866301 0.192909
vt 0.0597393 0.219799
vt 0.985933 0.219799
vt 0.985933 0.192909
vt 0.304819 0.379305
vt 0.304818 0.410814
vt 0.336167 0.410814
vt 0.336167 0.379305
vt 0.0591141 0.234764
vt 0.985933 0.234764
vt 0.985933 0.261517
vt 0.0591141 0.261517
vt 0.059738 0.178769
vt 0.985933 0.178769
vt 0.985933 0.151879
vt 0.0866285 0.151879
vt 0.0591141 0.234764
vt 0.985933 0.234764
vt 0.985933 0.261517
vt 0.0591141 0.261517
vt 0.0866301 0.192909
vt 0.985933 0.192909
vt 0.985933 0.219799
vt 0.0597393 0.219799
vt 0.304819 0.379305
vt 0.336167 0.379305
vt 0.336167 0.410814
vt 0.304818 0.410814
vt 0.985933 0.382558
vt 0.985933 0.355668
vt 0.361797 0.355668
vt 0.361797 0.382558
vt 0.985933 0.382558
vt 0.985933 0.355668
vt 0.361797 0.355668
vt 0.361797 0.382558
vt 0.35296 0.355668
vt 0.35296 0.382559
vt 0.977095 0.382558
vt 0.977095 0.355668
vt 0.985933 0.382558
vt 0.985933 0.355668
vt 0.361797 0.355668
vt 0.361797 0.382558
vt 0.336167 0.379304
vt 0.304818 0.379305
vt 0.304818 0.410814
vt 0.336167 0.410814
vt 0.985933 0.382558
vt 0.985933 0.355668
vt 0.361797 0.355668
vt 0.361797 0.382558
vt 0.985933 0.382558
vt 0.985933 0.355668
vt 0.361797 0.355668
vt 0.361797 0.382558
vt 0.35296 0.355668
vt 0.35296 0.382559
vt 0.977095 0.382559
vt 0.977095 0.355668
vt 0.985933 0.382558
vt 0.985933 0.355668
vt 0.361797 0.355668
vt 0.361797 0.382558
vt 0.336167 0.379304
vt 0.304818 0.379305
vt 0.304818 0.410814
vt 0.336167 0.410814
vt 0.985933 0.382558
vt 0.985933 0.355668
vt 0.361797 0.355668
vt 0.361797 0.382558
vt 0.985933 0.382558
vt 0.985933 0.355668
vt 0.361797 0.355668
vt 0.361797 0.382558
vt 0.35296 0.355668
vt 0.35296 0.382558
vt 0.977095 0.382558
vt 0.977095 0.355668
vt 0.985933 0.382558
vt 0.985933 0.355668
vt 0.361797 0.355668
vt 0.361797 0.382559
vt 0.336167 0.379304
vt 0.304818 0.379305
vt 0.304818 0.410814
vt 0.336167 0.410814
vt 0.985933 0.382558
vt 0.361797 0.382558
vt 0.361797 0.355668
vt 0.985933 0.355668
vt 0.985933 0.382558
vt 0.361797 0.382558
vt 0.361797 0.355668
vt 0.985933 0.355668
vt 0.35296 0.355668
vt 0.977095 0.355668
vt 0.977095 0.382558
vt 0.35296 0.382559
vt 0.985933 0.382558
vt 0.361797 0.382558
vt 0.361797 0.355668
vt 0.985933 0.355668
vt 0.336167 0.379304
vt 0.336167 0.410814
vt 0.304818 0.410814
vt 0.304818 0.379305
vt 0.985933 0.382558
vt 0.361797 0.382558
vt 0.361797 0.355668
vt 0.985933 0.355668
vt 0.985933 0.382558
vt 0.361797 0.382558
vt 0.361797 0.355668
vt 0.985933 0.355668
vt 0.35296 0.355668
vt 0.977095 0.355668
vt 0.977095 0.382559
vt 0.35296 0.382559
vt 0.985933 0.382558
vt 0.361797 0.382558
vt 0.361797 0.355668
vt 0.985933 0.355668
vt 0.336167 0.379304
vt 0.336167 0.410814
vt 0.304818 0.410814
vt 0.304818 0.379305
vt 0.985933 0.382558
vt 0.361797 0.382558
vt 0.361797 0.355668
vt 0.985933 0.355668
vt 0.985933 0.382558
vt 0.361797 0.382558
vt 0.361797 0.355668
vt 0.985933 0.355668
vt 0.35296 0.355668
vt 0.977095 0.355668
vt 0.977095 0.382558
vt 0.35296 0.382558
vt 0.985933 0.382558
vt 0.361797 0.382559
vt 0.361797 0.355668
vt 0.985933 0.355668
vt 0.336167 0.379304
vt 0.336167 0.410814
vt 0.304818 0.410814
vt 0.304818 0.379305
vt 0.0721477 0.13316
vt 0.213124 0.0114478
vt 0.358165 0.13316
vt 0.213124 0.0114478
vt 0.358165 0.0114478
vt 0.358165 0.13316
vt 0.0721477 0.0114478
vt 0.358165 0.0114478
vt 0.358165 0.13316
vt 0.0721477 0.13316
vt 0.669109 0.012316
vt 0.669109 0.132834
vt 0.385569 0.132834
vt 0.385569 0.0123161
vt 0.669109 0.0123161
vt 0.385569 0.012316
vt 0.385569 0.132834
vt 0.669109 0.132834
vt 0.0721477 0.0114478
vt 0.358165 0.0114478
vt 0.0721477 0.13316
vt 0.0721477 0.0114478


#
# MESH 000
#
g surface_000
usemtl surface_000
f 57/57/57 59/59/59 60/60/60
f 57/57/57 58/58/58 59/59/59
f 53/53/53 55/55/55 56/56/56
f 53/53/53 54/54/54 55/55/55
f 49/49/49 51/51/51 52/52/52
f 49/49/49 50/50/50 51/51/51
f 45/45/45 47/47/47 48/48/48
f 45/45/45 46/46/46 47/47/47
f 41/41/41 43/43/43 44/44/44
f 41/41/41 42/42/42 43/43/43
f 37/37/37 39/39/39 40/40/40
f 37/37/37 38/38/38 39/39/39
f 33/33/33 35/35/35 36/36/36
f 33/33/33 34/34/34 35/35/35
f 29/29/29 31/31/31 32/32/32
f 29/29/29 30/30/30 31/31/31
f 25/25/25 27/27/27 28/28/28
f 25/25/25 26/26/26 27/27/27
f 21/21/21 23/23/23 24/24/24
f 21/21/21 22/22/22 23/23/23
f 17/17/17 19/19/19 20/20/20
f 17/17/17 18/18/18 19/19/19
f 13/13/13 15/15/15 16/16/16
f 13/13/13 14/14/14 15/15/15
f 9/9/9 11/11/11 12/12/12
f 9/9/9 10/10/10 11/11/11
f 5/5/5 7/7/7 8/8/8
f 5/5/5 6/6/6 7/7/7
f 1/1/1 3/3/3 4/4/4
f 1/1/1 2/2/2 3/3/3
f 73/73/73 75/75/75 76/76/76
f 73/73/73 74/74/74 75/75/75
f 69/69/69 71/71/71 72/72/72
f 69/69/69 70/70/70 71/71/71
f 65/65/65 67/67/67 68/68/68
f 65/65/65 66/66/66 67/67/67
f 61/61/61 63/63/63 64/64/64
f 61/61/61 62/62/62 63/63/63
f 113/113/113 115/115/115 116/116/116
f 113/113/113 114/114/114 115/115/115
f 109/109/109 111/111/111 112/112/112
f 109/109/109 110/110/110 111/111/111
f 105/105/105 107/107/107 108/108/108
f 105/105/105 106/106/106 107/107/107
f 101/101/101 103/103/103 104/104/104
f 101/101/101 102/102/102 103/103/103
f 97/97/97 99/99/99 100/100/100
f 97/97/97 98/98/98 99/99/99
f 93/93/93 95/95/95 96/96/96
f 93/93/93 94/94/94 95/95/95
f 89/89/89 91/91/91 92/92/92
f 89/89/89 90/90/90 91/91/91
f 85/85/85 87/87/87 88/88/88
f 85/85/85 86/86/86 87/87/87
f 81/81/81 83/83/83 84/84/84
f 81/81/81 82/82/82 83/83/83
f 77/77/77 79/79/79 80/80/80
f 77/77/77 78/78/78 79/79/79
f 233/233/233 235/235/235 236/236/236
f 233/233/233 234/234/234 235/235/235
f 229/229/229 231/231/231 232/232/232
f 229/229/229 230/230/230 231/231/231
f 225/225/225 227/227/227 228/228/228
f 225/225/225 226/226/226 227/227/227
f 221/221/221 223/223/223 224/224/224
f 221/221/221 222/222/222 223/223/223
f 217/217/217 219/219/219 220/220/220
f 217/217/217 218/218/218 219/219/219
f 213/213/213 215/215/215 216/216/216
f 213/213/213 214/214/214 215/215/215
f 209/209/209 211/211/211 212/212/212
f 209/209/209 210/210/210 211/211/211
f 205/205/205 207/207/207 208/208/208
f 205/205/205 206/206/206 207/207/207
f 201/201/201 203/203/203 204/204/204
f 201/201/201 202/202/202 203/203/203
f 197/197/197 199/199/199 200/200/200
f 197/197/197 198/198/198 199/199/199
f 193/193/193 195/195/195 196/196/196
f 193/193/193 194/194/194 195/195/195
f 189/189/189 191/191/191 192/192/192
f 189/189/189 190/190/190 191/191/191
f 185/185/185 187/187/187 188/188/188
f 185/185/185 186/186/186 187/187/187
f 181/181/181 183/183/183 184/184/184
f 181/181/181 182/182/182 183/183/183
f 177/177/177 179/179/179 180/180/180
f 177/177/177 178/178/178 179/179/179
f 173/173/173 175/175/175 176/176/176
f 173/173/173 174/174/174 175/175/175
f 169/169/169 171/171/171 172/172/172
f 169/169/169 170/170/170 171/171/171
f 165/165/165 167/167/167 168/168/168
f 165/165/165 166/166/166 167/167/167
f 161/161/161 163/163/163 164/164/164
f 161/161/161 162/162/162 163/163/163
f 157/157/157 159/159/159 160/160/160
f 157/157/157 158/158/158 159/159/159
f 153/153/153 155/155/155 156/156/156
f 153/153/153 154/154/154 155/155/155
f 149/149/149 151/151/151 152/152/152
f 149/149/149 150/150/150 151/151/151
f 145/145/145 147/147/147 148/148/148
f 145/145/145 146/146/146 147/147/147
f 141/141/141 143/143/143 144/144/144
f 141/141/141 142/142/142 143/143/143
f 137/137/137 139/139/139 140/140/140
f 137/137/137 138/138/138 139/139/139
f 133/133/133 135/135/135 136/136/136
f 133/133/133 134/134/134 135/135/135
f 129/129/129 131/131/131 132/132/132
f 129/129/129 130/130/130 131/131/131
f 125/125/125 127/127/127 128/128/128
f 125/125/125 126/126/126 127/127/127
f 121/121/121 123/123/123 124/124/124
f 121/121/121 122/122/122 123/123/123
f 117/117/117 119/119/119 120/120/120
f 117/117/117 118/118/118 119/119/119
f 240/240/240 257/257/257 258/258/258
f 240/240/240 242/242/242 257/257/257
f 240/240/240 241/241/241 242/242/242
f 239/239/239 238/238/238 256/256/256
f 237/237/237 238/238/238 239/239/239
f 237/237/237 255/255/255 238/238/238
f 251/251/251 253/253/253 254/254/254
f 251/251/251 252/252/252 253/253/253
f 247/247/247 249/249/249 250/250/250
f 247/247/247 248/248/248 249/249/249
f 243/243/243 245/245/245 246/246/246
f 243/243/243 244/244/244 245/245/245

