#
# OBJECT NAME
#
o model_5140
mtllib 5140.mtl

#
# VERTEX BUFFER 000
#
v 0.25987 0.781529 0.0629167
v 0.25987 0.72122 0.0629167
v -0.0629162 0.72122 -0.25987
v -0.0629162 0.781529 -0.25987
v -0.0629162 0.72122 -0.25987
v -0.523177 0.72122 0.200387
v -0.523177 0.781529 0.200387
v -0.0629162 0.781529 -0.25987
v -0.452038 0.72122 0.452031
v -0.452038 0.781529 0.452031
v -0.452038 0.781529 0.452031
v -0.452038 0.72122 0.452031
v -0.199728 0.72122 0.523836
v -0.199728 0.781529 0.523836
v 0.25987 0.72122 0.0629167
v 0.25987 0.781529 0.0629167
v -0.199728 0.72122 0.523836
v -0.452038 0.72122 0.452031
v -0.523177 0.72122 0.200387
v -0.0629162 0.72122 -0.25987
v 0.25987 0.72122 0.0629167
v -0.523177 0.781529 0.200387
v -0.199728 0.781529 0.523836
v 0.25987 0.781529 0.0629167
v -0.0629162 0.781529 -0.25987
v -0.452038 0.781529 0.452031
v -0.51896 0.62019 0.209025
v -0.51896 0.386536 0.209025
v -0.451875 0.386536 0.451875
v -0.451875 0.62019 0.451875
v -0.209025 0.386536 0.51896
v -0.209025 0.62019 0.51896
v -0.0418309 0.386536 0.351766
v -0.0418309 0.62019 0.351766
v -0.209025 0.386536 0.51896
v -0.451875 0.386536 0.451875
v -0.51896 0.386536 0.209025
v -0.108915 0.386536 0.108915
v -0.108915 0.62019 0.108915
v -0.108915 0.62019 0.108915
v -0.108915 0.386536 0.108915
v -0.351766 0.386536 0.0418313
v -0.351766 0.62019 0.0418313
v -0.351766 0.386536 0.0418313
v -0.0418309 0.386536 0.351766
v -0.51896 0.62019 0.209025
v -0.451875 0.62019 0.451875
v -0.209025 0.62019 0.51896
v -0.0418309 0.62019 0.351766
v -0.108915 0.62019 0.108915
v -0.351766 0.62019 0.0418313
v -0.108915 0.386536 0.108915
v -0.109825 0 0
v 0 0 0.109825
v 0 1 0.109825
v -0.109825 1 0
v -0.109825 1 0
v 0 1 0.109825
v 0.109825 1 0
v 0 1 -0.109825
v 0 1 -0.109825
v 0.109825 1 0
v 0.109825 0 0
v 0 0 -0.109825
v 0 0 -0.109825
v 0.109825 0 0
v 0 0 0.109825
v -0.109825 0 0
v 0 0 0.109825
v 0.109825 0 0
v 0.109825 1 0
v 0 1 0.109825
v 0 0 -0.109825
v -0.109825 0 0
v -0.109825 1 0
v 0 1 -0.109825
v -0.174387 0.537683 0.114391
v -0.114391 0.537683 0.174387
v -0.0249142 0.537683 0.084911
v -0.084911 0.537683 0.0249142
v -0.0549126 0.452834 0.0549126
v -0.0249142 0.537683 0.084911
v -0.114391 0.537683 0.174387
v -0.144389 0.452834 0.144389
v -0.084911 0.537683 0.0249142
v -0.0549126 0.452834 0.0549126
v -0.144389 0.452834 0.144389
v -0.174387 0.537683 0.114391

vn 0.984863 0 0.171875
vn 0.984863 0 0.171875
vn -0.172852 0 -0.984863
vn -0.172852 0 -0.984863
vn -0.172852 0 -0.984863
vn -0.877441 0 -0.479492
vn -0.877441 0 -0.479492
vn -0.172852 0 -0.984863
vn -0.707031 0 0.707031
vn -0.707031 0 0.707031
vn -0.707031 0 0.707031
vn -0.707031 0 0.707031
vn 0.479492 0 0.877441
vn 0.479492 0 0.877441
vn 0.984863 0 0.171875
vn 0.984863 0 0.171875
vn 0 -1 0
vn 0 -1 -7.15256e-007
vn 0 -1 0
vn 0 -1 0
vn 0 -1 0
vn 0 1 1.19209e-007
vn 0 1 1.19209e-007
vn 0 1 1.19209e-007
vn 0 1 1.19209e-007
vn 0 1 0
vn -0.971191 0 -0.237061
vn -0.971191 0 -0.237061
vn -0.707031 0 0.707031
vn -0.707031 0 0.707031
vn 0.237061 0 0.971191
vn 0.237061 0 0.971191
vn 0.971191 0 0.237061
vn 0.971191 0 0.237061
vn 0 -1 0
vn 0 -1 -1.78814e-007
vn 0 -1 0
vn 0.707031 0 -0.707031
vn 0.707031 0 -0.707031
vn 0.707031 0 -0.707031
vn 0.707031 0 -0.707031
vn -0.237061 0 -0.971191
vn -0.237061 0 -0.971191
vn 0 -1 0
vn 0 -1 0
vn 0 1 0
vn 0 1 0
vn 0 1 0
vn 0 1 0
vn 0 1 0
vn 0 1 0
vn 0 -1 -1.78814e-007
vn -0.707031 0 0.707031
vn -0.707031 0 0.707031
vn -0.707031 0 0.707031
vn -0.707031 0 0.707031
vn 0 1 0
vn 0 1 0
vn 0 1 0
vn 0 1 0
vn 0.707031 0 -0.707031
vn 0.707031 0 -0.707031
vn 0.707031 0 -0.707031
vn 0.707031 0 -0.707031
vn 0 -1 0
vn 0 -1 0
vn 0 -1 0
vn 0 -1 0
vn 0.707031 0 0.707031
vn 0.707031 0 0.707031
vn 0.707031 0 0.707031
vn 0.707031 0 0.707031
vn -0.707031 0 -0.707031
vn -0.707031 0 -0.707031
vn -0.707031 0 -0.707031
vn -0.707031 0 -0.707031
vn -3.33786e-006 1 3.75509e-006
vn -3.33786e-006 1 3.75509e-006
vn -3.33786e-006 1 3.75509e-006
vn -3.33786e-006 1 3.75509e-006
vn 0.632324 -0.447021 0.632324
vn 0.632324 -0.447021 0.632324
vn 0.632324 -0.447021 0.632324
vn 0.632324 -0.447021 0.632324
vn -0.632324 -0.447021 -0.632324
vn -0.632324 -0.447021 -0.632324
vn -0.632324 -0.447021 -0.632324
vn -0.632324 -0.447021 -0.632324

vt 0.0196069 0.899758
vt 0.0196069 0.852047
vt 0.323543 0.852047
vt 0.323543 0.899758
vt 0.616984 0.928062
vt 0.197905 0.928062
vt 0.197905 0.975773
vt 0.616984 0.975773
vt 0.0195577 0.928062
vt 0.0195577 0.975773
vt 0.0195577 0.975773
vt 0.0195577 0.928062
vt 0.197905 0.928062
vt 0.197905 0.975773
vt 0.616984 0.928062
vt 0.616984 0.975773
vt 0.319122 0.424997
vt 0.17158 0.314407
vt 0.0246614 0.42496
vt 0.0196069 0.823743
vt 0.323561 0.823743
vt 0.0246614 0.42496
vt 0.319122 0.424997
vt 0.323561 0.823743
vt 0.0196069 0.823743
vt 0.17158 0.314407
vt 0.337384 0.190088
vt 0.337384 0.0233991
vt 0.500959 0.0233991
vt 0.500959 0.190088
vt 0.664534 0.0233991
vt 0.664534 0.190088
vt 0.823999 0.0233991
vt 0.823999 0.190088
vt 0.958026 0.437367
vt 0.832676 0.363433
vt 0.707326 0.437367
vt 0.980336 0.0233991
vt 0.980336 0.190088
vt 0.0215817 0.190088
vt 0.0215817 0.0233991
vt 0.177918 0.0233991
vt 0.177918 0.190088
vt 0.707326 0.577841
vt 0.958026 0.577841
vt 0.708356 0.761471
vt 0.833571 0.687535
vt 0.958787 0.761471
vt 0.958787 0.901941
vt 0.833571 0.975877
vt 0.708356 0.901941
vt 0.832676 0.651775
vt 0.561189 0.357212
vt 0.659382 0.357212
vt 0.659382 0.894597
vt 0.561189 0.894597
vt 0.410856 0.894597
vt 0.410856 0.796403
vt 0.509049 0.796403
vt 0.509049 0.894597
vt 0.659382 0.894597
vt 0.561189 0.894597
vt 0.561189 0.357212
vt 0.659382 0.357212
vt 0.509049 0.894597
vt 0.509049 0.796403
vt 0.410856 0.796403
vt 0.410856 0.894597
vt 0.561189 0.357212
vt 0.659382 0.357212
vt 0.659382 0.894597
vt 0.561189 0.894597
vt 0.561189 0.357212
vt 0.659382 0.357212
vt 0.659382 0.894597
vt 0.561189 0.894597
vt 0.419388 0.755788
vt 0.419388 0.698844
vt 0.504312 0.698844
vt 0.504312 0.755788
vt 0.504311 0.621056
vt 0.504311 0.678
vt 0.419387 0.677999
vt 0.419388 0.621056
vt 0.504311 0.678
vt 0.504311 0.621056
vt 0.419388 0.621056
vt 0.419388 0.678


#
# MESH 000
#
g surface_000
usemtl surface_000
f 26/26/26 23/23/23 22/22/22
f 22/22/22 23/23/23 24/24/24
f 22/22/22 24/24/24 25/25/25
f 20/20/20 21/21/21 17/17/17
f 20/20/20 17/17/17 19/19/19
f 17/17/17 18/18/18 19/19/19
f 13/13/13 15/15/15 16/16/16
f 13/13/13 16/16/16 14/14/14
f 11/11/11 13/13/13 14/14/14
f 11/11/11 12/12/12 13/13/13
f 7/7/7 9/9/9 10/10/10
f 7/7/7 6/6/6 9/9/9
f 5/5/5 6/6/6 7/7/7
f 5/5/5 7/7/7 8/8/8
f 1/1/1 3/3/3 4/4/4
f 1/1/1 2/2/2 3/3/3
f 52/52/52 45/45/45 44/44/44
f 44/44/44 45/45/45 35/35/35
f 44/44/44 35/35/35 37/37/37
f 35/35/35 36/36/36 37/37/37
f 46/46/46 50/50/50 51/51/51
f 46/46/46 49/49/49 50/50/50
f 46/46/46 48/48/48 49/49/49
f 46/46/46 47/47/47 48/48/48
f 40/40/40 41/41/41 42/42/42
f 40/40/40 42/42/42 43/43/43
f 27/27/27 43/43/43 42/42/42
f 27/27/27 42/42/42 28/28/28
f 27/27/27 28/28/28 29/29/29
f 27/27/27 29/29/29 30/30/30
f 30/30/30 29/29/29 31/31/31
f 30/30/30 31/31/31 32/32/32
f 32/32/32 31/31/31 33/33/33
f 32/32/32 33/33/33 34/34/34
f 34/34/34 33/33/33 38/38/38
f 34/34/34 38/38/38 39/39/39
f 73/73/73 75/75/75 76/76/76
f 73/73/73 74/74/74 75/75/75
f 69/69/69 71/71/71 72/72/72
f 69/69/69 70/70/70 71/71/71
f 65/65/65 67/67/67 68/68/68
f 65/65/65 66/66/66 67/67/67
f 61/61/61 63/63/63 64/64/64
f 61/61/61 62/62/62 63/63/63
f 57/57/57 59/59/59 60/60/60
f 57/57/57 58/58/58 59/59/59
f 53/53/53 55/55/55 56/56/56
f 53/53/53 54/54/54 55/55/55
f 85/85/85 87/87/87 88/88/88
f 85/85/85 86/86/86 87/87/87
f 81/81/81 83/83/83 84/84/84
f 81/81/81 82/82/82 83/83/83
f 77/77/77 79/79/79 80/80/80
f 77/77/77 78/78/78 79/79/79

