#
# OBJECT NAME
#
o model_1909
mtllib 1909.mtl

#
# VERTEX BUFFER 000
#
v 0.341825 -0.00487604 0.290299
v 0.500437 -0.00487604 0.290299
v 0.500437 1.40234 0.290299
v 0.341825 1.40234 0.290299
v 0.341825 2.23538 0.290299
v 0.500437 2.23538 0.290299
v 0.500437 2.23538 0.117463
v 0.341825 2.23538 0.117463
v 0.341825 1.40234 -0.290299
v 0.500437 1.40234 -0.290299
v 0.500437 -0.00487604 -0.290299
v 0.341825 -0.00487604 -0.290299
v 0.341825 -0.00487604 0.117463
v 0.42113 -0.00487604 0.117463
v 0.500437 -0.00487604 0.117463
v 0.500437 -0.00487604 0.290299
v 0.341825 -0.00487604 0.290299
v 0.500437 -0.00487604 0.290299
v 0.500437 -0.00487604 0.117463
v 0.500437 1.40234 0.117463
v 0.500437 1.40234 0.290299
v 0.341825 -0.00487604 0.117463
v 0.341825 -0.00487604 0.290299
v 0.341825 1.40234 0.290299
v 0.341825 1.40234 0.117463
v 0.341825 -0.00487604 0.117463
v 0.341825 1.40234 0.117463
v 0.42113 1.40234 0.117463
v 0.42113 -0.00487604 0.117463
v 0.42113 -0.00487604 0
v 0.500437 -0.00487604 0
v 0.500437 -0.00487604 0
v 0.500437 1.40234 0
v 0.341825 2.23538 -0.117463
v 0.500437 2.23538 -0.117463
v 0.500437 2.23538 -0.290299
v 0.341825 2.23538 -0.290299
v 0.341825 -0.00487604 -0.290299
v 0.341825 -0.00487604 -0.117463
v 0.341825 1.40234 -0.117463
v 0.341825 1.40234 -0.290299
v 0.341825 -0.00487604 -0.290299
v 0.500437 -0.00487604 -0.290299
v 0.500437 -0.00487604 -0.117463
v 0.42113 -0.00487604 -0.117463
v 0.341825 -0.00487604 -0.117463
v 0.500437 1.40234 -0.117463
v 0.500437 -0.00487604 -0.117463
v 0.500437 -0.00487604 -0.290299
v 0.500437 1.40234 -0.290299
v 0.500437 2.23538 0.290299
v 0.341825 2.23538 0.290299
v 0.500437 2.23538 0.117463
v 0.500437 2.23538 0.290299
v 0.341825 2.23538 0.117463
v 0.341825 2.23538 0.290299
v 0.341825 2.23538 0.117463
v 0.341825 2.23538 -0.117463
v 0.42113 1.40234 -0.117463
v 0.500437 1.40234 -0.117463
v 0.500437 2.23538 -0.117463
v 0.500437 2.23538 -0.290299
v 0.500437 2.23538 -0.117463
v 0.341825 2.23538 -0.290299
v 0.500437 2.23538 -0.290299
v 0.341825 2.23538 -0.117463
v 0.341825 2.23538 -0.290299
v 0.42113 1.40234 -0.117463
v 0.42113 -0.00487604 -0.117463
v 0.42113 -0.00487604 0
v 0.42113 1.40234 0
v 0.42113 1.40234 0
v 0.42113 1.40234 0.117463
v 0.500437 1.40234 0.117463
v 0.500437 1.40234 0
v 0.42113 1.40234 -0.117463
v 0.500437 1.40234 -0.117463
v 0.42113 -0.00487604 0.117463
v 0.42113 1.40234 0.117463
v 0.341825 1.40234 -0.117463
v 0.341825 -0.00487604 -0.117463
v 0.42113 -0.00487604 -0.117463
v 0.500437 1.40234 0.117463
v 0.500437 2.23538 0.117463
v -0.341825 -0.00538026 0.290299
v -0.341825 1.58922 0.290299
v -0.500437 1.58922 0.290299
v -0.500437 -0.00538026 0.290299
v -0.341825 1.58922 -0.290299
v -0.341825 -0.00538026 -0.290299
v -0.500437 -0.00538026 -0.290299
v -0.500437 1.58922 -0.290299
v -0.341825 -0.00538026 0.117463
v -0.341825 -0.00538026 0.290299
v -0.500437 -0.00538026 0.290299
v -0.500437 -0.00538026 0.117463
v -0.42113 -0.00538026 0.117463
v -0.500437 -0.00538026 0.290299
v -0.500437 1.58922 0.290299
v -0.500437 1.58922 0.117463
v -0.500437 -0.00538026 0.117463
v -0.341825 -0.00538026 0.117463
v -0.341825 1.58922 0.117463
v -0.341825 1.58922 0.290299
v -0.341825 -0.00538026 0.290299
v -0.341825 -0.00538026 0.117463
v -0.42113 -0.00538026 0.117463
v -0.42113 1.58922 0.117463
v -0.341825 1.58922 0.117463
v -0.500437 -0.00538026 0
v -0.42113 -0.00538026 0
v -0.500437 -0.00538026 0
v -0.500437 1.58922 0
v -0.341825 -0.00538026 -0.290299
v -0.341825 1.58922 -0.290299
v -0.341825 1.58922 -0.117463
v -0.341825 -0.00538026 -0.117463
v -0.341825 -0.00538026 -0.290299
v -0.341825 -0.00538026 -0.117463
v -0.42113 -0.00538026 -0.117463
v -0.500437 -0.00538026 -0.117463
v -0.500437 -0.00538026 -0.290299
v -0.500437 1.58922 -0.117463
v -0.500437 1.58922 -0.290299
v -0.500437 -0.00538026 -0.290299
v -0.500437 -0.00538026 -0.117463
v -0.42113 1.58922 -0.117463
v -0.42113 1.58922 0
v -0.42113 -0.00538026 0
v -0.42113 -0.00538026 -0.117463
v -0.42113 -0.00538026 0.117463
v -0.42113 1.58922 0.117463
v -0.341825 1.58922 -0.117463
v -0.42113 1.58922 -0.117463
v -0.42113 -0.00538026 -0.117463
v -0.341825 -0.00538026 -0.117463
v -0.499569 1.79571 0.386431
v -0.499569 1.58922 0.386431
v 0.341825 1.58922 0.386431
v 0.341825 1.79571 0.386431
v -0.499569 1.79571 -0.386431
v -0.499569 1.79571 0.386431
v 0.341825 1.79571 0.13093
v 0.341825 1.79571 -0.13093
v -0.499569 1.58922 -0.386431
v -0.499569 1.79571 -0.386431
v 0.341825 1.79571 -0.386431
v 0.341825 1.58922 -0.386431
v 0.341825 1.58922 0.13093
v 0.341825 1.58922 0.386431
v -0.499569 1.58922 0.386431
v 0.594456 1.7918 0.137555
v 0.594456 1.7918 0.376762
v 0.594456 1.59312 0.376762
v 0.594456 1.59312 0.137555
v -0.593057 1.59312 0.376762
v -0.593057 1.7918 0.376762
v -0.593057 1.7918 -0.376762
v -0.593057 1.59312 -0.376762
v -0.593057 1.7918 -0.376762
v -0.593057 1.7918 0.376762
v 0.594456 1.7918 -0.376762
v 0.594456 1.7918 -0.137555
v 0.594456 1.59312 -0.137555
v 0.594456 1.59312 -0.376762
v 0.493404 1.79571 0.386431
v 0.493404 1.58922 0.386431
v 0.594456 1.59312 0.376762
v 0.594456 1.7918 0.376762
v 0.341825 1.79571 0.386431
v 0.493404 1.79571 0.386431
v 0.493404 1.79571 0.13093
v 0.493404 1.79571 -0.386431
v 0.493404 1.79571 -0.13093
v 0.594456 1.7918 -0.137555
v 0.594456 1.7918 -0.376762
v 0.493404 1.79571 -0.386431
v 0.493404 1.58922 -0.386431
v 0.493404 1.58922 -0.386431
v 0.493404 1.58922 -0.13093
v 0.341825 1.58922 -0.13093
v 0.341825 1.58922 -0.386431
v 0.594456 1.59312 0.376762
v 0.493404 1.58922 0.386431
v 0.493404 1.58922 0.13093
v 0.594456 1.59312 0.137555
v 0.341825 1.79571 -0.13093
v 0.341825 1.58922 -0.13093
v 0.493404 1.58922 -0.13093
v 0.493404 1.79571 -0.13093
v 0.341825 1.58922 -0.13093
v 0.341825 1.79571 -0.13093
v 0.341825 1.79571 0.13093
v 0.341825 1.58922 0.13093
v 0.493404 1.58922 0.13093
v 0.493404 1.79571 0.13093
v 0.594456 1.7918 0.137555
v 0.594456 1.59312 0.137555
v -0.593057 1.59312 0.376762
v -0.593057 1.7918 0.376762
v -0.499569 1.58922 -0.386431
v -0.593057 1.59312 0.376762
v -0.593057 1.59312 -0.376762
v -0.593057 1.7918 -0.376762
v -0.593057 1.59312 -0.376762
v 0.341825 1.79571 -0.386431
v 0.594456 1.7918 -0.376762
v 0.594456 1.59312 -0.376762
v 0.594456 1.59312 -0.137555
v 0.594456 1.59312 -0.376762
v 0.594456 1.59312 -0.137555
v 0.594456 1.7918 -0.137555
v 0.341825 1.58922 0.13093
v 0.341825 1.79571 0.13093
v 0.594456 1.7918 0.376762
v 0.594456 1.7918 0.137555
v -0.423045 -0.000114765 0.270488
v 0.423045 -0.000114765 0.270488
v 0.423045 0.129708 0.270488
v -0.423045 0.129708 0.270488
v -0.423045 0.129708 0.270488
v 0.423045 0.129708 0.270488
v 0.423045 0.129708 -0.270488
v -0.423045 0.129708 -0.270488
v -0.423045 0.129708 -0.270488
v 0.423045 0.129708 -0.270488
v 0.423045 -0.000114765 -0.270488
v -0.423045 -0.000114765 -0.270488
v -0.423045 -0.000114765 -0.270488
v 0.423045 -0.000114765 -0.270488
v 0.423045 -0.000114765 0.270488
v -0.423045 -0.000114765 0.270488
v 0.423045 -0.000114765 0.270488
v 0.423045 -0.000114765 -0.270488
v 0.423045 0.129708 -0.270488
v 0.423045 0.129708 0.270488
v -0.423045 -0.000114765 -0.270488
v -0.423045 -0.000114765 0.270488
v -0.423045 0.129708 0.270488
v -0.423045 0.129708 -0.270488

vn 0 0 1
vn 0 0 1
vn 0 0 1
vn 0 0 1
vn 0 1 0
vn 0 1 0
vn 0 1 0
vn 0 1 0
vn 0 0 -1
vn 0 0 -1
vn 0 0 -1
vn 0 0 -1
vn 0 -1 0
vn 0 -1 0
vn 0 -1 0
vn 0 -1 0
vn 0 -1 0
vn 1 0 0
vn 1 0 0
vn 1 0 0
vn 1 0 0
vn -1 0 0
vn -1 0 0
vn -1 0 0
vn -1 0 0
vn 0 0 -1
vn 0 0 -1
vn 0 0 -1
vn 0 0 -1
vn 0 -1 0
vn 0 -1 0
vn 1 0 0
vn 1 0 0
vn 0 1 0
vn 0 1 0
vn 0 1 0
vn 0 1 0
vn -1 0 0
vn -1 0 0
vn -1 0 0
vn -1 0 0
vn 0 -1 0
vn 0 -1 0
vn 0 -1 0
vn 0 -1 0
vn 0 -1 0
vn 1 0 0
vn 1 0 0
vn 1 0 0
vn 1 0 0
vn 0 0 1
vn 0 0 1
vn 1 0 0
vn 1 0 0
vn 0 0 -1
vn -1 0 0
vn -1 0 0
vn 0 0 1
vn 0 0 1
vn 0 0 1
vn 0 0 1
vn 1 0 0
vn 1 0 0
vn 0 0 -1
vn 0 0 -1
vn -1 0 0
vn -1 0 0
vn -1 0 0
vn -1 0 0
vn -1 0 0
vn -1 0 0
vn 0 1 0
vn 0 1 0
vn 0 1 0
vn 0 1 0
vn 0 1 0
vn 0 1 0
vn -1 0 0
vn -1 0 0
vn 0 0 1
vn 0 0 1
vn 0 0 1
vn 0 0 -1
vn 0 0 -1
vn 0 0 1
vn 0 0 1
vn 0 0 1
vn 0 0 1
vn 0 0 -1
vn 0 0 -1
vn 0 0 -1
vn 0 0 -1
vn 0 -1 0
vn 0 -1 0
vn 0 -1 0
vn 0 -1 0
vn 0 -1 0
vn -1 0 0
vn -1 0 0
vn -1 0 0
vn -1 0 0
vn 1 0 0
vn 1 0 0
vn 1 0 0
vn 1 0 0
vn 0 0 -1
vn 0 0 -1
vn 0 0 -1
vn 0 0 -1
vn 0 -1 0
vn 0 -1 0
vn -1 0 0
vn -1 0 0
vn 1 0 0
vn 1 0 0
vn 1 0 0
vn 1 0 0
vn 0 -1 0
vn 0 -1 0
vn 0 -1 0
vn 0 -1 0
vn 0 -1 0
vn -1 0 0
vn -1 0 0
vn -1 0 0
vn -1 0 0
vn 1 0 0
vn 1 0 0
vn 1 0 0
vn 1 0 0
vn 1 0 0
vn 1 0 0
vn 0 0 1
vn 0 0 1
vn 0 0 1
vn 0 0 1
vn -0.00991821 0 0.999512
vn -0.00991821 0 0.999512
vn 0 0 1
vn 0 0 1
vn -0.00632477 0.999512 0
vn -0.00632477 0.999512 0
vn 0 1 0
vn 0 1 0
vn -0.00991821 0 -0.999512
vn -0.00991821 0 -0.999512
vn 0 0 -1
vn 0 0 -1
vn 0 -1 0
vn 0 -1 0
vn -0.00632477 -0.999512 0
vn 1 0 0
vn 1 0 0
vn 1 0 0
vn 1 0 0
vn -1 0 0
vn -1 0 0
vn -1 0 0
vn -1 0 0
vn 0 1 0
vn 0 1 0
vn 1 0 0
vn 1 0 0
vn 1 0 0
vn 1 0 0
vn 0.0372314 0 0.999023
vn 0.0372314 0 0.999023
vn 0 0 1
vn 0 0 1
vn 0 1 0
vn 0.014595 0.999512 0
vn 0.0147781 0.999512 0
vn 0.014595 0.999512 1.78814e-007
vn 0.0147781 0.999512 1.78814e-007
vn 0 1 0
vn 0 1 0
vn 0.0372314 0 -0.999023
vn 0.0372314 0 -0.999023
vn 0.014595 -0.999512 0
vn 0.0147781 -0.999512 0
vn 0 -1 0
vn 0 -1 0
vn 0 -1 0
vn 0.014595 -0.999512 0
vn 0.0147781 -0.999512 0
vn 0 -1 0
vn 0 0 1
vn 0 0 1
vn 0.0255127 0 0.999512
vn 0.0255127 0 0.999512
vn 1 0 0
vn 1 0 0
vn 1 0 0
vn 1 0 0
vn 0.0255127 0 -0.999512
vn 0.0255127 0 -0.999512
vn 0 0 -1
vn 0 0 -1
vn 0 0 1
vn 0 0 1
vn -0.00632477 -0.999512 0
vn 0 -1 0
vn 0 -1 0
vn 0 0 -1
vn 0 0 -1
vn 0 1 0
vn 0 0 -1
vn 0 0 -1
vn 0 -1 0
vn 0 -1 0
vn 0 0 1
vn 0 0 1
vn 0 0 -1
vn 0 0 -1
vn 0 1 0
vn 0 1 0
vn 0 0 1
vn 0 0 1
vn 0 0 1
vn 0 0 1
vn 0 1 0
vn 0 1 0
vn 0 1 0
vn 0 1 0
vn 0 0 -1
vn 0 0 -1
vn 0 0 -1
vn 0 0 -1
vn 0 -1 0
vn 0 -1 0
vn 0 -1 0
vn 0 -1 0
vn 1 0 0
vn 1 0 0
vn 1 0 0
vn 1 0 0
vn -1 0 0
vn -1 0 0
vn -1 0 0
vn -1 0 0

vt 0.257229 0.01803
vt 0.29112 0.01803
vt 0.29112 0.331737
vt 0.257229 0.331737
vt 0.968515 0.86816
vt 0.968515 0.901089
vt 0.932633 0.901089
vt 0.932633 0.86816
vt 0.342401 0.331737
vt 0.30851 0.331737
vt 0.30851 0.01803
vt 0.342401 0.01803
vt 0.969329 0.737474
vt 0.949912 0.737474
vt 0.930494 0.737474
vt 0.930494 0.695157
vt 0.969329 0.695157
vt 0.0146365 0.0156915
vt 0.0515667 0.0156915
vt 0.0515667 0.329399
vt 0.0146365 0.329399
vt 0.157117 0.01803
vt 0.194047 0.01803
vt 0.194047 0.331737
vt 0.157117 0.331737
vt 0.465524 0.01803
vt 0.465524 0.331737
vt 0.448579 0.331737
vt 0.448579 0.01803
vt 0.949912 0.766234
vt 0.930494 0.766234
vt 0.076665 0.0156915
vt 0.076665 0.329399
vt 0.970511 0.955591
vt 0.970511 0.98852
vt 0.934629 0.98852
vt 0.934629 0.955591
vt 0.207173 0.01803
vt 0.244103 0.01803
vt 0.244103 0.331737
vt 0.207173 0.331737
vt 0.969329 0.837312
vt 0.930494 0.837312
vt 0.930494 0.794994
vt 0.949912 0.794994
vt 0.969329 0.794994
vt 0.101763 0.329399
vt 0.101763 0.0156915
vt 0.138693 0.0156915
vt 0.138693 0.329399
vt 0.29112 0.509734
vt 0.257229 0.509734
vt 0.0515667 0.507396
vt 0.0146365 0.507396
vt 0.465524 0.509734
vt 0.194047 0.509734
vt 0.157117 0.509734
vt 0.356069 0.509734
vt 0.373014 0.331737
vt 0.389959 0.331737
vt 0.389959 0.509734
vt 0.138693 0.507396
vt 0.101763 0.507396
vt 0.342401 0.509734
vt 0.30851 0.509734
vt 0.244103 0.509734
vt 0.207173 0.509734
vt 0.382777 0.318991
vt 0.382777 0.0186096
vt 0.406809 0.0186096
vt 0.406809 0.318991
vt 0.944121 0.920533
vt 0.968508 0.920533
vt 0.968508 0.936998
vt 0.944122 0.936998
vt 0.919735 0.920533
vt 0.919736 0.936998
vt 0.430841 0.0186096
vt 0.430841 0.318991
vt 0.356069 0.331737
vt 0.356069 0.01803
vt 0.373014 0.01803
vt 0.431633 0.331737
vt 0.431633 0.509734
vt 0.333736 0.633038
vt 0.333736 0.990695
vt 0.29946 0.990695
vt 0.29946 0.633038
vt 0.341826 0.990695
vt 0.341826 0.633038
vt 0.376102 0.633038
vt 0.376102 0.990695
vt 0.492915 0.58336
vt 0.455213 0.58336
vt 0.455213 0.548761
vt 0.492915 0.548761
vt 0.492915 0.566061
vt 0.135687 0.633038
vt 0.135687 0.990695
vt 0.0983371 0.990695
vt 0.0983371 0.633038
vt 0.246785 0.633038
vt 0.246785 0.990695
vt 0.209435 0.990695
vt 0.209435 0.633038
vt 0.387546 0.633038
vt 0.404684 0.633038
vt 0.404684 0.990695
vt 0.387546 0.990695
vt 0.518538 0.548761
vt 0.518538 0.566061
vt 0.0729536 0.633038
vt 0.0729536 0.990695
vt 0.292357 0.633038
vt 0.292357 0.990695
vt 0.255007 0.990695
vt 0.255007 0.633038
vt 0.581862 0.58336
vt 0.54416 0.58336
vt 0.54416 0.566061
vt 0.54416 0.548761
vt 0.581862 0.548761
vt 0.0475701 0.990695
vt 0.0102201 0.990695
vt 0.0102201 0.633038
vt 0.0475701 0.633038
vt 0.198056 0.990695
vt 0.172672 0.990695
vt 0.172672 0.633038
vt 0.198056 0.633038
vt 0.147289 0.633038
vt 0.147289 0.990695
vt 0.429822 0.990695
vt 0.412685 0.990695
vt 0.412685 0.633038
vt 0.429822 0.633038
vt 0.0241148 0.609026
vt 0.0241148 0.573276
vt 0.169784 0.573276
vt 0.169784 0.609026
vt 0.760589 0.517394
vt 0.861653 0.517394
vt 0.828242 0.627419
vt 0.794 0.627419
vt 0.19715 0.526834
vt 0.19715 0.562584
vt 0.0514807 0.562584
vt 0.0514807 0.526834
vt 0.908034 0.626661
vt 0.874623 0.626661
vt 0.874623 0.516636
vt 0.580836 0.626377
vt 0.547425 0.626377
vt 0.547425 0.599375
vt 0.580836 0.599375
vt 0.858082 0.677353
vt 0.858082 0.704355
vt 0.757018 0.704355
vt 0.757018 0.677353
vt 0.760589 0.505169
vt 0.861653 0.505169
vt 0.626754 0.626377
vt 0.593343 0.626377
vt 0.593343 0.599375
vt 0.626754 0.599375
vt 0.196027 0.609026
vt 0.196027 0.573276
vt 0.213522 0.573276
vt 0.213522 0.609026
vt 0.861653 0.627419
vt 0.861653 0.647241
vt 0.828242 0.647241
vt 0.760589 0.647241
vt 0.794 0.647241
vt 0.794 0.660455
vt 0.760589 0.660455
vt 0.0252382 0.562584
vt 0.0252382 0.526834
vt 0.975687 0.646482
vt 0.942276 0.646482
vt 0.942276 0.626661
vt 0.975687 0.626661
vt 0.874623 0.659696
vt 0.874623 0.646482
vt 0.908034 0.646482
vt 0.908034 0.659696
vt 0.452678 0.626377
vt 0.452678 0.599375
vt 0.472499 0.599375
vt 0.472499 0.626377
vt 0.534115 0.599375
vt 0.534115 0.626377
vt 0.499873 0.626377
vt 0.499873 0.599375
vt 0.654814 0.599375
vt 0.654814 0.626377
vt 0.6416 0.626377
vt 0.6416 0.599375
vt 0.00792929 0.573276
vt 0.00792929 0.609026
vt 0.975687 0.516636
vt 0.874623 0.504411
vt 0.975687 0.504411
vt 0.213335 0.562584
vt 0.213335 0.526834
vt 0.760589 0.627419
vt 0.0077432 0.562584
vt 0.0077432 0.526834
vt 0.942276 0.659696
vt 0.975687 0.659696
vt 0.485713 0.599375
vt 0.485713 0.626377
vt 0.674636 0.599375
vt 0.674636 0.626377
vt 0.861653 0.660455
vt 0.828242 0.660455
vt 0.435353 0.637537
vt 0.610009 0.637537
vt 0.610009 0.664336
vt 0.435353 0.664336
vt 0.746835 0.589175
vt 0.602948 0.589176
vt 0.602948 0.497176
vt 0.746835 0.497176
vt 0.610009 0.704673
vt 0.435353 0.704673
vt 0.435353 0.677874
vt 0.61001 0.677874
vt 0.979461 0.337761
vt 0.979461 0.491053
vt 0.881448 0.491053
vt 0.881448 0.337761
vt 0.226805 0.536187
vt 0.34841 0.536187
vt 0.34841 0.56537
vt 0.226805 0.56537
vt 0.226805 0.576374
vt 0.34841 0.576373
vt 0.34841 0.605556
vt 0.226805 0.605556


#
# MESH 000
#
g surface_000
usemtl surface_000
f 83/83/83 55/55/55 84/84/84
f 83/83/83 28/28/28 55/55/55
f 55/55/55 28/28/28 27/27/27
f 26/26/26 27/27/27 28/28/28
f 26/26/26 28/28/28 29/29/29
f 80/80/80 81/81/81 82/82/82
f 80/80/80 82/82/82 59/59/59
f 80/80/80 59/59/59 58/58/58
f 58/58/58 59/59/59 60/60/60
f 58/58/58 60/60/60 61/61/61
f 78/78/78 79/79/79 71/71/71
f 78/78/78 71/71/71 70/70/70
f 68/68/68 70/70/70 71/71/71
f 68/68/68 69/69/69 70/70/70
f 76/76/76 75/75/75 77/77/77
f 76/76/76 72/72/72 75/75/75
f 72/72/72 74/74/74 75/75/75
f 72/72/72 73/73/73 74/74/74
f 41/41/41 66/66/66 67/67/67
f 41/41/41 40/40/40 66/66/66
f 38/38/38 40/40/40 41/41/41
f 38/38/38 39/39/39 40/40/40
f 10/10/10 64/64/64 65/65/65
f 10/10/10 9/9/9 64/64/64
f 9/9/9 10/10/10 11/11/11
f 9/9/9 11/11/11 12/12/12
f 47/47/47 62/62/62 63/63/63
f 47/47/47 50/50/50 62/62/62
f 47/47/47 49/49/49 50/50/50
f 47/47/47 48/48/48 49/49/49
f 47/47/47 32/32/32 48/48/48
f 47/47/47 33/33/33 32/32/32
f 32/32/32 33/33/33 20/20/20
f 32/32/32 20/20/20 19/19/19
f 18/18/18 19/19/19 20/20/20
f 18/18/18 20/20/20 21/21/21
f 21/21/21 20/20/20 53/53/53
f 21/21/21 53/53/53 54/54/54
f 25/25/25 56/56/56 57/57/57
f 25/25/25 24/24/24 56/56/56
f 22/22/22 24/24/24 25/25/25
f 22/22/22 23/23/23 24/24/24
f 4/4/4 51/51/51 52/52/52
f 4/4/4 3/3/3 51/51/51
f 1/1/1 3/3/3 4/4/4
f 1/1/1 2/2/2 3/3/3
f 42/42/42 45/45/45 46/46/46
f 42/42/42 44/44/44 45/45/45
f 31/31/31 45/45/45 44/44/44
f 31/31/31 30/30/30 45/45/45
f 15/15/15 30/30/30 31/31/31
f 15/15/15 14/14/14 30/30/30
f 13/13/13 14/14/14 15/15/15
f 42/42/42 43/43/43 44/44/44
f 13/13/13 15/15/15 16/16/16
f 13/13/13 16/16/16 17/17/17
f 34/34/34 36/36/36 37/37/37
f 34/34/34 35/35/35 36/36/36
f 5/5/5 7/7/7 8/8/8
f 5/5/5 6/6/6 7/7/7
f 133/133/133 135/135/135 136/136/136
f 133/133/133 134/134/134 135/135/135
f 131/131/131 128/128/128 132/132/132
f 131/131/131 129/129/129 128/128/128
f 127/127/127 128/128/128 129/129/129
f 127/127/127 129/129/129 130/130/130
f 123/123/123 124/124/124 125/125/125
f 123/123/123 125/125/125 126/126/126
f 123/123/123 126/126/126 112/112/112
f 123/123/123 112/112/112 113/113/113
f 112/112/112 100/100/100 113/113/113
f 112/112/112 101/101/101 100/100/100
f 98/98/98 100/100/100 101/101/101
f 98/98/98 99/99/99 100/100/100
f 118/118/118 121/121/121 122/122/122
f 118/118/118 120/120/120 121/121/121
f 110/110/110 121/121/121 120/120/120
f 110/110/110 120/120/120 111/111/111
f 96/96/96 110/110/110 111/111/111
f 96/96/96 111/111/111 97/97/97
f 93/93/93 96/96/96 97/97/97
f 93/93/93 95/95/95 96/96/96
f 118/118/118 119/119/119 120/120/120
f 93/93/93 94/94/94 95/95/95
f 114/114/114 116/116/116 117/117/117
f 114/114/114 115/115/115 116/116/116
f 106/106/106 108/108/108 109/109/109
f 106/106/106 107/107/107 108/108/108
f 102/102/102 104/104/104 105/105/105
f 102/102/102 103/103/103 104/104/104
f 89/89/89 91/91/91 92/92/92
f 89/89/89 90/90/90 91/91/91
f 85/85/85 87/87/87 88/88/88
f 85/85/85 86/86/86 87/87/87
f 172/172/172 215/215/215 216/216/216
f 172/172/172 171/171/171 215/215/215
f 143/143/143 171/171/171 172/172/172
f 143/143/143 170/170/170 171/171/171
f 143/143/143 142/142/142 170/170/170
f 141/141/141 142/142/142 143/143/143
f 142/142/142 141/141/141 160/160/160
f 142/142/142 160/160/160 161/161/161
f 141/141/141 143/143/143 144/144/144
f 141/141/141 144/144/144 206/206/206
f 206/206/206 144/144/144 174/174/174
f 206/206/206 174/174/174 173/173/173
f 173/173/173 174/174/174 175/175/175
f 173/173/173 175/175/175 176/176/176
f 213/213/213 214/214/214 196/196/196
f 213/213/213 196/196/196 195/195/195
f 195/195/195 196/196/196 197/197/197
f 195/195/195 197/197/197 198/198/198
f 190/190/190 211/211/211 212/212/212
f 190/190/190 189/189/189 211/211/211
f 187/187/187 189/189/189 190/190/190
f 187/187/187 188/188/188 189/189/189
f 209/209/209 179/179/179 210/210/210
f 209/209/209 180/180/180 179/179/179
f 179/179/179 180/180/180 181/181/181
f 179/179/179 181/181/181 182/182/182
f 182/182/182 181/181/181 201/201/201
f 149/149/149 201/201/201 181/181/181
f 149/149/149 151/151/151 201/201/201
f 201/201/201 151/151/151 202/202/202
f 201/201/201 202/202/202 203/203/203
f 149/149/149 150/150/150 151/151/151
f 185/185/185 150/150/150 149/149/149
f 185/185/185 184/184/184 150/150/150
f 183/183/183 184/184/184 185/185/185
f 183/183/183 185/185/185 186/186/186
f 178/178/178 207/207/207 208/208/208
f 178/178/178 177/177/177 207/207/207
f 148/148/148 177/177/177 178/178/178
f 148/148/148 147/147/147 177/177/177
f 145/145/145 147/147/147 148/148/148
f 145/145/145 146/146/146 147/147/147
f 204/204/204 146/146/146 145/145/145
f 204/204/204 145/145/145 205/205/205
f 199/199/199 137/137/137 200/200/200
f 199/199/199 138/138/138 137/137/137
f 137/137/137 138/138/138 139/139/139
f 137/137/137 139/139/139 140/140/140
f 140/140/140 139/139/139 167/167/167
f 140/140/140 167/167/167 166/166/166
f 166/166/166 167/167/167 168/168/168
f 166/166/166 168/168/168 169/169/169
f 191/191/191 193/193/193 194/194/194
f 191/191/191 192/192/192 193/193/193
f 162/162/162 164/164/164 165/165/165
f 162/162/162 163/163/163 164/164/164
f 156/156/156 158/158/158 159/159/159
f 156/156/156 157/157/157 158/158/158
f 152/152/152 154/154/154 155/155/155
f 152/152/152 153/153/153 154/154/154
f 237/237/237 239/239/239 240/240/240
f 237/237/237 238/238/238 239/239/239
f 233/233/233 235/235/235 236/236/236
f 233/233/233 234/234/234 235/235/235
f 229/229/229 231/231/231 232/232/232
f 229/229/229 230/230/230 231/231/231
f 225/225/225 227/227/227 228/228/228
f 225/225/225 226/226/226 227/227/227
f 221/221/221 223/223/223 224/224/224
f 221/221/221 222/222/222 223/223/223
f 217/217/217 219/219/219 220/220/220
f 217/217/217 218/218/218 219/219/219

