#
# OBJECT NAME
#
o model_1920
mtllib 1920.mtl

#
# VERTEX BUFFER 000
#
v 0.287248 -0.00409751 0.243949
v 0.420535 -0.00409751 0.243949
v 0.420535 1.87847 0.243949
v 0.287248 1.87847 0.243949
v 0.287248 1.87847 0.243949
v 0.420535 1.87847 0.243949
v 0.420535 1.87847 0.098708
v 0.287248 1.87847 0.098708
v 0.420535 -0.00409751 -0.243949
v 0.287248 -0.00409751 -0.243949
v 0.287248 1.87847 -0.243949
v 0.420535 1.87847 -0.243949
v 0.287248 -0.00409751 0.098708
v 0.353891 -0.00409751 0.098708
v 0.420535 -0.00409751 0.098708
v 0.420535 -0.00409751 0.243949
v 0.287248 -0.00409751 0.243949
v 0.420535 -0.00409751 0.243949
v 0.420535 -0.00409751 0.098708
v 0.420535 1.17844 0.098708
v 0.420535 1.87847 0.243949
v 0.287248 -0.00409751 0.098708
v 0.287248 -0.00409751 0.243949
v 0.287248 1.87847 0.243949
v 0.287248 1.87847 0.098708
v 0.353891 1.17844 0.098708
v 0.353891 -0.00409751 0.098708
v 0.287248 -0.00409751 0.098708
v 0.287248 1.87847 0.098708
v 0.353891 -0.00409751 -0.098708
v 0.420535 -0.00409751 -0.098708
v 0.420535 -0.00409751 -0.098708
v 0.420535 1.17844 -0.098708
v 0.287248 1.87847 -0.098708
v 0.420535 1.87847 -0.098708
v 0.420535 1.87847 -0.243949
v 0.287248 1.87847 -0.243949
v 0.287248 -0.00409751 -0.243949
v 0.287248 -0.00409751 -0.098708
v 0.287248 1.87847 -0.098708
v 0.287248 1.87847 -0.243949
v 0.287248 -0.00409751 -0.243949
v 0.420535 -0.00409751 -0.243949
v 0.287248 -0.00409751 -0.098708
v 0.420535 1.87847 -0.243949
v 0.420535 1.87847 -0.098708
v 0.287248 1.87847 -0.098708
v 0.353891 1.17844 -0.098708
v 0.420535 1.17844 -0.098708
v 0.420535 1.87847 -0.098708
v 0.353891 1.17844 -0.098708
v 0.353891 -0.00409751 -0.098708
v 0.353891 -0.00409751 0.098708
v 0.353891 1.17844 0.098708
v 0.353891 1.17844 -0.098708
v 0.353891 1.17844 0.098708
v 0.420535 1.17844 0.098708
v 0.420535 1.17844 -0.098708
v 0.287248 -0.00409751 -0.098708
v 0.353891 -0.00409751 -0.098708
v 0.420535 1.17844 0.098708
v 0.420535 1.87847 0.098708
v 0.420535 1.87847 0.098708
v 0.420535 -0.00409751 -0.243949
v -0.287248 -0.00452123 0.243949
v -0.287248 1.33547 0.243949
v -0.420535 1.33547 0.243949
v -0.420535 -0.00452123 0.243949
v -0.287248 1.33547 -0.243949
v -0.287248 -0.00452123 -0.243949
v -0.420535 -0.00452123 -0.243949
v -0.420535 1.33547 -0.243949
v -0.287248 -0.00452123 0.098708
v -0.287248 1.33547 0.098708
v -0.287248 1.33547 0.243949
v -0.287248 -0.00452123 0.243949
v -0.287248 -0.00452123 0.098708
v -0.353891 -0.00452123 0.098708
v -0.353891 1.33547 0.098708
v -0.287248 1.33547 0.098708
v -0.287248 -0.00452123 -0.243949
v -0.287248 1.33547 -0.243949
v -0.287248 1.33547 -0.098708
v -0.287248 -0.00452123 -0.098708
v -0.420535 -0.00452123 0.243949
v -0.353891 -0.00452123 0.098708
v -0.287248 -0.00452123 0.098708
v -0.287248 -0.00452123 0.243949
v -0.420535 1.33547 0.243949
v -0.420535 1.33547 -0.243949
v -0.420535 -0.00452123 -0.243949
v -0.420535 -0.00452123 0.243949
v -0.353891 -0.00452123 0.098708
v -0.353891 -0.00452123 -0.098708
v -0.353891 1.33547 -0.098708
v -0.353891 1.33547 0.098708
v -0.287248 1.33547 -0.098708
v -0.353891 1.33547 -0.098708
v -0.353891 -0.00452123 -0.098708
v -0.287248 -0.00452123 -0.098708
v -0.420535 -0.00452123 -0.243949
v -0.353891 -0.00452123 -0.098708
v -0.287248 -0.00452123 -0.243949
v -0.287248 -0.00452123 -0.098708
v -0.498367 1.33547 -0.324732
v -0.498367 1.509 -0.324732
v 0.499543 1.509 -0.324732
v 0.499543 1.33547 -0.324732
v 0.499543 1.509 0.110025
v 0.499543 1.509 0.324732
v 0.499543 1.33547 0.324732
v 0.499543 1.33547 0.110025
v -0.498367 1.33547 0.324732
v -0.498367 1.509 0.324732
v -0.498367 1.509 -0.324732
v -0.498367 1.33547 -0.324732
v 0.499543 1.509 -0.324732
v 0.499543 1.509 -0.110025
v 0.499543 1.33547 -0.110025
v 0.499543 1.33547 -0.324732
v 0.499543 1.33547 0.324732
v 0.499543 1.509 0.324732
v -0.498367 1.509 0.324732
v -0.498367 1.33547 0.324732
v -0.498367 1.509 -0.324732
v 0.287248 1.509 -0.110025
v 0.499543 1.509 -0.110025
v 0.499543 1.509 -0.324732
v 0.287248 1.509 -0.110025
v 0.287248 1.33547 -0.110025
v 0.499543 1.33547 -0.110025
v 0.499543 1.509 -0.110025
v 0.287248 1.33547 -0.110025
v 0.287248 1.509 -0.110025
v 0.287248 1.509 0.110025
v 0.287248 1.33547 0.110025
v 0.499543 1.509 0.110025
v 0.499543 1.33547 0.110025
v 0.287248 1.33547 0.110025
v 0.287248 1.509 0.110025
v 0.499543 1.33547 0.324732
v -0.498367 1.33547 0.324732
v 0.287248 1.33547 0.110025
v 0.499543 1.33547 0.110025
v -0.498367 1.509 0.324732
v 0.287248 1.509 0.110025
v 0.499543 1.509 0.324732
v 0.499543 1.509 0.110025
v 0.287248 1.33547 -0.110025
v -0.498367 1.33547 -0.324732
v 0.499543 1.33547 -0.324732
v 0.499543 1.33547 -0.110025
v -0.3555 -9.64411e-005 0.227301
v 0.3555 -9.64411e-005 0.227301
v 0.3555 0.108999 0.227301
v -0.3555 0.108999 0.227301
v -0.3555 0.108999 0.227301
v 0.3555 0.108999 0.227301
v 0.3555 0.108999 -0.227301
v -0.3555 0.108999 -0.227301
v -0.3555 0.108999 -0.227301
v 0.3555 0.108999 -0.227301
v 0.3555 -9.64411e-005 -0.227301
v -0.3555 -9.64411e-005 -0.227301
v -0.3555 -9.64411e-005 -0.227301
v 0.3555 -9.64411e-005 -0.227301
v 0.3555 -9.64411e-005 0.227301
v -0.3555 -9.64411e-005 0.227301
v 0.3555 -9.64411e-005 0.227301
v 0.3555 -9.64411e-005 -0.227301
v 0.3555 0.108999 -0.227301
v 0.3555 0.108999 0.227301
v -0.3555 -9.64411e-005 -0.227301
v -0.3555 -9.64411e-005 0.227301
v -0.3555 0.108999 0.227301
v -0.3555 0.108999 -0.227301
v -0.361347 0.801056 0.156865
v -0.361347 0.11122 0.156865
v 0.361347 0.11122 0.156865
v 0.361347 0.801056 0.156865
v -0.361347 0.801056 -0.156865
v -0.361347 0.801056 0.156865
v 0.361347 0.801056 0.156865
v 0.361347 0.801056 -0.156865
v 0.361347 0.11122 -0.156865
v -0.361347 0.11122 -0.156865
v -0.361347 0.801056 -0.156865
v 0.361347 0.801056 -0.156865
v 0.361347 0.11122 0.156865
v 0.361347 0.11122 -0.156865
v 0.361347 0.801056 -0.156865
v 0.361347 0.801056 0.156865
v -0.361347 0.11122 -0.156865
v -0.361347 0.11122 0.156865
v -0.361347 0.801056 0.156865
v -0.361347 0.801056 -0.156865
v -0.0892585 1.61016 0.209227
v 0.0880545 1.61016 0.209227
v 0.0880545 1.93191 0.209227
v -0.0892585 1.93191 0.209227
v 0.0880545 1.93191 -0.129387
v -0.0892585 1.93191 -0.129387
v -0.0892585 1.93191 0.209227
v 0.0880545 1.93191 0.209227
v -0.0892585 1.93191 -0.129387
v 0.0880545 1.93191 -0.129387
v 0.0880545 0.411945 -0.129387
v -0.0892585 0.411945 -0.129387
v 0.0880545 1.61016 0
v 0.0880545 0.411945 0
v 0.0880545 0.411945 -0.129387
v 0.0880545 1.93191 -0.129387
v -0.0892585 1.93191 -0.129387
v -0.0892585 1.61016 0
v -0.0892585 1.61016 0.209227
v -0.0892585 1.93191 0.209227
v -0.0892585 0.411945 0
v 0.0880545 0.411945 0
v 0.0880545 1.61016 0
v -0.0892585 1.61016 0
v -0.0892585 1.61016 0
v 0.0880545 1.61016 0
v 0.0880545 1.61016 0.209227
v -0.0892585 1.61016 0.209227
v 0.0880545 1.93191 0.209227
v 0.0880545 1.61016 0.209227
v -0.0892585 0.411945 -0.129387
v -0.0892585 0.411945 0
v 0.492055 1.81104 0.092264
v 0.492055 1.81104 -0.092264
v -0.330462 1.81104 -0.092264
v -0.330462 1.81104 0.092264
v 0.492055 1.81104 -0.092264
v 0.492055 1.62198 -0.092264
v -0.330462 1.60882 -0.092264
v -0.330462 1.81104 -0.092264
v 0.492055 1.62198 -0.092264
v 0.492055 1.62198 0.092264
v -0.330462 1.60882 0.092264
v -0.330462 1.60882 -0.092264
v 1.03201 1.80815 -0.092264
v 1.03201 1.80815 0.092264
v 1.0464 1.76518 0.092264
v 1.0464 1.76518 -0.092264
v 0.492055 1.81104 -0.092264
v 0.492055 1.81104 0.092264
v 1.03201 1.80815 0.092264
v 1.03201 1.80815 -0.092264
v 1.03201 1.80815 -0.092264
v 1.02748 1.70954 -0.092264
v 0.492055 1.62198 0.092264
v 0.492055 1.62198 -0.092264
v 1.02748 1.70954 -0.092264
v 1.02748 1.70954 0.092264
v 0.492055 1.81104 0.092264
v 0.492055 1.62198 0.092264
v 1.02748 1.70954 0.092264
v 1.03201 1.80815 0.092264
v 1.0464 1.76518 0.092264
v -0.330462 1.81104 0.092264
v -0.330462 1.60882 0.092264
v 1.02748 1.70954 0.092264
v 1.02748 1.70954 -0.092264
v -0.377531 1.64608 0.092264
v -0.377531 1.77379 0.092264
v -0.377531 1.77379 -0.092264
v -0.377531 1.64608 -0.092264
v -0.330462 1.60882 -0.092264
v -0.330462 1.60882 0.092264
v -0.330462 1.81104 0.092264
v -0.330462 1.81104 -0.092264
v -0.377531 1.77379 -0.092264
v -0.377531 1.64608 -0.092264
v -0.377531 1.77379 0.092264
v -0.377531 1.64608 0.092264
v 1.0464 1.76518 -0.092264

vn 0 0 1
vn 0 0 1
vn 0 0 1
vn 0 0 1
vn 0 1 0
vn 0 1 0
vn 0 1 0
vn 0 1 0
vn 0 0 -1
vn 0 0 -1
vn 0 0 -1
vn 0 0 -1
vn 0 -1 0
vn 0 -1 0
vn 0 -1 0
vn 0 -1 0
vn 0 -1 0
vn 1 0 0
vn 1 0 0
vn 1 0 0
vn 1 0 0
vn -1 0 0
vn -1 0 0
vn -1 0 0
vn -1 0 0
vn 0 0 -1
vn 0 0 -1
vn 0 0 -1
vn 0 0 -1
vn 0 -1 0
vn 0 -1 0
vn 1 0 0
vn 1 0 0
vn 0 1 0
vn 0 1 0
vn 0 1 0
vn 0 1 0
vn -1 0 0
vn -1 0 0
vn -1 0 0
vn -1 0 0
vn 0 -1 0
vn 0 -1 0
vn 0 -1 0
vn 1 0 0
vn 1 0 0
vn 0 0 1
vn 0 0 1
vn 0 0 1
vn 0 0 1
vn -1 0 0
vn -1 0 0
vn -1 0 0
vn -1 0 0
vn 0 1 0
vn 0 1 0
vn 0 1 0
vn 0 1 0
vn 0 0 1
vn 0 0 1
vn 0 0 -1
vn 0 0 -1
vn 1 0 0
vn 1 0 0
vn 0 0 1
vn 0 0 1
vn 0 0 1
vn 0 0 1
vn 0 0 -1
vn 0 0 -1
vn 0 0 -1
vn 0 0 -1
vn 1 0 0
vn 1 0 0
vn 1 0 0
vn 1 0 0
vn 0 0 -1
vn 0 0 -1
vn 0 0 -1
vn 0 0 -1
vn 1 0 0
vn 1 0 0
vn 1 0 0
vn 1 0 0
vn 0 -1 0
vn 0 -1 0
vn 0 -1 0
vn 0 -1 0
vn -1 0 0
vn -1 0 0
vn -1 0 0
vn -1 0 0
vn 1 0 0
vn 1 0 0
vn 1 0 0
vn 1 0 0
vn 0 0 1
vn 0 0 1
vn 0 0 1
vn 0 0 1
vn 0 -1 0
vn 0 -1 0
vn 0 -1 0
vn 0 -1 0
vn 0 0 -1
vn 0 0 -1
vn 0 0 -1
vn 0 0 -1
vn 1 0 0
vn 1 0 0
vn 1 0 0
vn 1 0 0
vn -1 0 0
vn -1 0 0
vn -1 0 0
vn -1 0 0
vn 1 0 0
vn 1 0 0
vn 1 0 0
vn 1 0 0
vn 0 0 1
vn 0 0 1
vn 0 0 1
vn 0 0 1
vn 0 1 0
vn 0 1 0
vn 0 1 0
vn 0 1 0
vn 0 0 1
vn 0 0 1
vn 0 0 1
vn 0 0 1
vn 1 0 0
vn 1 0 0
vn 1 0 0
vn 1 0 0
vn 0 0 -1
vn 0 0 -1
vn 0 0 -1
vn 0 0 -1
vn 0 -1 0
vn 0 -1 0
vn 0 -1 0
vn 0 -1 0
vn 0 1 0
vn 0 1 0
vn 0 1 0
vn 0 1 0
vn 0 -1 0
vn 0 -1 0
vn 0 -1 0
vn 0 -1 0
vn 0 0 1
vn 0 0 1
vn 0 0 1
vn 0 0 1
vn 0 1 0
vn 0 1 0
vn 0 1 0
vn 0 1 0
vn 0 0 -1
vn 0 0 -1
vn 0 0 -1
vn 0 0 -1
vn 0 -1 0
vn 0 -1 0
vn 0 -1 0
vn 0 -1 0
vn 1 0 0
vn 1 0 0
vn 1 0 0
vn 1 0 0
vn -1 0 0
vn -1 0 0
vn -1 0 0
vn -1 0 0
vn 0 0 1
vn 0 0 1
vn 0 0 1
vn 0 0 1
vn 0 1 0
vn 0 1 0
vn 0 1 0
vn 0 1 0
vn 0 0 -1
vn 0 0 -1
vn 0 0 -1
vn 0 0 -1
vn 1 0 0
vn 1 0 0
vn 1 0 0
vn 1 0 0
vn -1 0 0
vn -1 0 0
vn -1 0 0
vn -1 0 0
vn 0 0 1
vn 0 0 1
vn 0 0 1
vn 0 0 1
vn 0 1 0
vn 0 1 0
vn 0 1 0
vn 0 1 0
vn 0 0 -1
vn 0 0 -1
vn 0 0 -1
vn 0 0 -1
vn 1 0 0
vn 1 0 0
vn 1 0 0
vn 1 0 0
vn -1 0 0
vn -1 0 0
vn -1 0 0
vn -1 0 0
vn 0 0 1
vn 0 0 1
vn 0 0 1
vn 0 0 1
vn 0 -1 0
vn 0 -1 0
vn 0 -1 0
vn 0 -1 0
vn 1 0 0
vn 1 0 0
vn -1 0 0
vn -1 0 0
vn 0 1 0
vn 0 1 0
vn -9.53674e-007 1 0
vn -9.53674e-007 1 0
vn 0 0 -1
vn 0 0 -1
vn 0 0 -1
vn 0 0 -1
vn 0.0319824 -0.999023 0
vn 0.0319824 -0.999023 0
vn 0 -1 0
vn 0 -1 0
vn 0.888672 0.457764 0
vn 0.888672 0.457764 0
vn 0.888672 0.457764 0
vn 0.888672 0.457764 0
vn -0.00840759 0.999512 0
vn -0.00840759 0.999512 0
vn -0.0170288 0.999512 0
vn -0.0170288 0.999512 0
vn 0 0 -1
vn 0 0 -1
vn 0.0823975 -0.996582 0
vn 0.0823975 -0.996582 0
vn 0.169189 -0.985352 0
vn 0.169189 -0.985352 0
vn 0 0 1
vn 0 0 1
vn 0 0 1
vn 0 0 1
vn 0 0 1
vn 0 0 1
vn 0 0 1
vn 0.885742 -0.463379 0
vn 0.885742 -0.463379 0
vn -0.961426 -0.27417 0
vn -0.961426 0.27417 0
vn -0.961426 0.27417 0
vn -0.961426 -0.27417 0
vn -0.620605 -0.783691 0
vn -0.620605 -0.783691 0
vn -0.620605 0.783691 0
vn -0.620605 0.783691 0
vn 0 0 -1
vn 0 0 -1
vn 0 0 1
vn 0 0 1
vn 0 0 -1

vt 0.257229 0.01803
vt 0.29112 0.01803
vt 0.29112 0.509734
vt 0.257229 0.509734
vt 0.968515 0.86816
vt 0.968515 0.901089
vt 0.932633 0.901089
vt 0.932633 0.86816
vt 0.30851 0.01803
vt 0.342401 0.01803
vt 0.342401 0.509734
vt 0.30851 0.509734
vt 0.969329 0.737474
vt 0.949912 0.737474
vt 0.930494 0.737474
vt 0.930494 0.695157
vt 0.969329 0.695157
vt 0.0146365 0.0156915
vt 0.0515667 0.0156915
vt 0.0515667 0.329399
vt 0.0146365 0.507396
vt 0.157117 0.01803
vt 0.194047 0.01803
vt 0.194047 0.509734
vt 0.157117 0.509734
vt 0.448579 0.331737
vt 0.448579 0.01803
vt 0.465524 0.01803
vt 0.465524 0.509734
vt 0.949912 0.794994
vt 0.930494 0.794994
vt 0.101763 0.0156915
vt 0.101763 0.329399
vt 0.970511 0.955591
vt 0.970511 0.98852
vt 0.934629 0.98852
vt 0.934629 0.955591
vt 0.207173 0.01803
vt 0.244103 0.01803
vt 0.244103 0.509734
vt 0.207173 0.509734
vt 0.969329 0.837312
vt 0.930494 0.837312
vt 0.969329 0.794994
vt 0.138693 0.507396
vt 0.101763 0.507396
vt 0.356069 0.509734
vt 0.373014 0.331737
vt 0.389959 0.331737
vt 0.389959 0.509734
vt 0.382777 0.318991
vt 0.382777 0.0186096
vt 0.430841 0.0186096
vt 0.430841 0.318991
vt 0.919735 0.920533
vt 0.968508 0.920533
vt 0.968508 0.936998
vt 0.919736 0.936998
vt 0.356069 0.01803
vt 0.373014 0.01803
vt 0.431633 0.331737
vt 0.431633 0.509734
vt 0.0515667 0.507396
vt 0.138693 0.0156915
vt 0.333736 0.633038
vt 0.333736 0.990695
vt 0.29946 0.990695
vt 0.29946 0.633038
vt 0.341826 0.990695
vt 0.341826 0.633038
vt 0.376102 0.633038
vt 0.376102 0.990695
vt 0.246785 0.633038
vt 0.246785 0.990695
vt 0.209435 0.990695
vt 0.209435 0.633038
vt 0.387546 0.633038
vt 0.404684 0.633038
vt 0.404684 0.990695
vt 0.387546 0.990695
vt 0.292357 0.633038
vt 0.292357 0.990695
vt 0.255007 0.990695
vt 0.255007 0.633038
vt 0.455213 0.548761
vt 0.492915 0.566061
vt 0.492915 0.58336
vt 0.455213 0.58336
vt 0.135687 0.990695
vt 0.0102201 0.990695
vt 0.0102201 0.633038
vt 0.135687 0.633038
vt 0.147289 0.633038
vt 0.198056 0.633038
vt 0.198056 0.990695
vt 0.147289 0.990695
vt 0.429822 0.990695
vt 0.412685 0.990695
vt 0.412685 0.633038
vt 0.429822 0.633038
vt 0.581862 0.548761
vt 0.54416 0.566061
vt 0.581862 0.58336
vt 0.54416 0.58336
vt 0.213335 0.526834
vt 0.213335 0.562584
vt 0.0077432 0.562584
vt 0.0077432 0.526834
vt 0.580836 0.626377
vt 0.547425 0.626377
vt 0.547425 0.599375
vt 0.580836 0.599375
vt 0.858082 0.677353
vt 0.858082 0.704355
vt 0.757018 0.704355
vt 0.757018 0.677353
vt 0.626754 0.626377
vt 0.593343 0.626377
vt 0.593343 0.599375
vt 0.626754 0.599375
vt 0.213522 0.573276
vt 0.213522 0.609026
vt 0.00792929 0.609026
vt 0.00792929 0.573276
vt 0.760589 0.505169
vt 0.794 0.627419
vt 0.794 0.660455
vt 0.760589 0.660455
vt 0.452678 0.626377
vt 0.452678 0.599375
vt 0.485713 0.599375
vt 0.485713 0.626377
vt 0.534115 0.599375
vt 0.534115 0.626377
vt 0.499873 0.626377
vt 0.499873 0.599375
vt 0.6416 0.626377
vt 0.6416 0.599375
vt 0.674636 0.599375
vt 0.674636 0.626377
vt 0.874623 0.659696
vt 0.874623 0.504411
vt 0.908034 0.626661
vt 0.908034 0.659696
vt 0.861653 0.505169
vt 0.828242 0.627419
vt 0.861653 0.660455
vt 0.828242 0.660455
vt 0.942276 0.626661
vt 0.975687 0.504411
vt 0.975687 0.659696
vt 0.942276 0.659696
vt 0.435353 0.637537
vt 0.610009 0.637537
vt 0.610009 0.664336
vt 0.435353 0.664336
vt 0.746835 0.589175
vt 0.602948 0.589176
vt 0.602948 0.497176
vt 0.746835 0.497176
vt 0.610009 0.704673
vt 0.435353 0.704673
vt 0.435353 0.677874
vt 0.61001 0.677874
vt 0.979461 0.337761
vt 0.979461 0.491053
vt 0.881448 0.491053
vt 0.881448 0.337761
vt 0.226805 0.536187
vt 0.34841 0.536187
vt 0.34841 0.56537
vt 0.226805 0.56537
vt 0.226805 0.576374
vt 0.34841 0.576373
vt 0.34841 0.605556
vt 0.226805 0.605556
vt 0.555604 0.409349
vt 0.555604 0.269847
vt 0.702629 0.269847
vt 0.702629 0.409349
vt 0.702134 0.42279
vt 0.702134 0.486616
vt 0.555108 0.486616
vt 0.555108 0.42279
vt 0.718366 0.269847
vt 0.865391 0.269847
vt 0.865391 0.409349
vt 0.718366 0.409349
vt 0.859163 0.419828
vt 0.859163 0.483653
vt 0.71966 0.483653
vt 0.71966 0.419828
vt 0.478452 0.270565
vt 0.542277 0.270565
vt 0.542277 0.410067
vt 0.478452 0.410067
vt 0.661254 0.637555
vt 0.694738 0.637555
vt 0.694738 0.698314
vt 0.661254 0.698314
vt 0.651417 0.700034
vt 0.617933 0.700034
vt 0.617933 0.63609
vt 0.651417 0.63609
vt 0.478318 0.202353
vt 0.478318 0.145696
vt 0.985019 0.145696
vt 0.985019 0.202353
vt 0.880731 0.258771
vt 0.476839 0.258771
vt 0.476839 0.217428
vt 0.98354 0.217428
vt 0.477765 0.0177744
vt 0.580574 0.0591173
vt 0.580574 0.125971
vt 0.477765 0.125971
vt 0.984378 0.0714303
vt 0.984378 0.126215
vt 0.593829 0.126215
vt 0.59383 0.0714303
vt 0.705934 0.65865
vt 0.739418 0.65865
vt 0.739418 0.69816
vt 0.705934 0.69816
vt 0.98354 0.325625
vt 0.880731 0.325625
vt 0.984466 0.0177744
vt 0.984466 0.0591175
vt 0.669043 0.835694
vt 0.669043 0.786709
vt 0.887389 0.786709
vt 0.887389 0.835694
vt 0.672475 0.988905
vt 0.672475 0.938718
vt 0.890821 0.935222
vt 0.890821 0.988905
vt 0.668987 0.768435
vt 0.668987 0.71945
vt 0.887389 0.71945
vt 0.887389 0.768435
vt 0.399059 0.558855
vt 0.367676 0.558855
vt 0.367676 0.550634
vt 0.399059 0.550634
vt 0.669043 0.786709
vt 0.669043 0.835694
vt 0.448875 0.835694
vt 0.448875 0.786709
vt 0.452325 0.991612
vt 0.454174 0.965436
vt 0.668987 0.71945
vt 0.668987 0.768435
vt 0.448849 0.768435
vt 0.448849 0.71945
vt 0.670764 0.85877
vt 0.670764 0.908958
vt 0.452463 0.88224
vt 0.450614 0.856064
vt 0.44474 0.867471
vt 0.889109 0.858771
vt 0.889109 0.912454
vt 0.367676 0.539957
vt 0.399059 0.539957
vt 0.397793 0.607857
vt 0.376073 0.607857
vt 0.376073 0.576474
vt 0.397793 0.576474
vt 0.408003 0.576474
vt 0.408003 0.607857
vt 0.365864 0.607857
vt 0.365864 0.576474
vt 0.903316 0.979015
vt 0.903316 0.945113
vt 0.901604 0.868661
vt 0.901604 0.902563
vt 0.446451 0.980205


#
# MESH 000
#
g surface_000
usemtl surface_000
f 21/21/21 20/20/20 63/63/63
f 18/18/18 20/20/20 21/21/21
f 18/18/18 19/19/19 20/20/20
f 20/20/20 19/19/19 32/32/32
f 20/20/20 32/32/32 33/33/33
f 33/33/33 32/32/32 64/64/64
f 33/33/33 64/64/64 45/45/45
f 33/33/33 45/45/45 46/46/46
f 61/61/61 29/29/29 62/62/62
f 61/61/61 26/26/26 29/29/29
f 26/26/26 28/28/28 29/29/29
f 26/26/26 27/27/27 28/28/28
f 47/47/47 59/59/59 60/60/60
f 47/47/47 60/60/60 48/48/48
f 47/47/47 48/48/48 49/49/49
f 47/47/47 49/49/49 50/50/50
f 55/55/55 57/57/57 58/58/58
f 55/55/55 56/56/56 57/57/57
f 51/51/51 53/53/53 54/54/54
f 51/51/51 52/52/52 53/53/53
f 42/42/42 30/30/30 44/44/44
f 42/42/42 31/31/31 30/30/30
f 15/15/15 30/30/30 31/31/31
f 15/15/15 14/14/14 30/30/30
f 13/13/13 14/14/14 15/15/15
f 13/13/13 15/15/15 16/16/16
f 13/13/13 16/16/16 17/17/17
f 42/42/42 43/43/43 31/31/31
f 38/38/38 40/40/40 41/41/41
f 38/38/38 39/39/39 40/40/40
f 34/34/34 36/36/36 37/37/37
f 34/34/34 35/35/35 36/36/36
f 22/22/22 24/24/24 25/25/25
f 22/22/22 23/23/23 24/24/24
f 9/9/9 11/11/11 12/12/12
f 9/9/9 10/10/10 11/11/11
f 5/5/5 7/7/7 8/8/8
f 5/5/5 6/6/6 7/7/7
f 1/1/1 3/3/3 4/4/4
f 1/1/1 2/2/2 3/3/3
f 101/101/101 103/103/103 104/104/104
f 101/101/101 104/104/104 102/102/102
f 101/101/101 102/102/102 86/86/86
f 101/101/101 86/86/86 85/85/85
f 85/85/85 86/86/86 87/87/87
f 85/85/85 87/87/87 88/88/88
f 97/97/97 99/99/99 100/100/100
f 97/97/97 98/98/98 99/99/99
f 93/93/93 95/95/95 96/96/96
f 93/93/93 94/94/94 95/95/95
f 89/89/89 91/91/91 92/92/92
f 89/89/89 90/90/90 91/91/91
f 81/81/81 83/83/83 84/84/84
f 81/81/81 82/82/82 83/83/83
f 77/77/77 79/79/79 80/80/80
f 77/77/77 78/78/78 79/79/79
f 73/73/73 75/75/75 76/76/76
f 73/73/73 74/74/74 75/75/75
f 69/69/69 71/71/71 72/72/72
f 69/69/69 70/70/70 71/71/71
f 65/65/65 67/67/67 68/68/68
f 65/65/65 66/66/66 67/67/67
f 149/149/149 151/151/151 152/152/152
f 149/149/149 150/150/150 151/151/151
f 143/143/143 150/150/150 149/149/149
f 143/143/143 142/142/142 150/150/150
f 141/141/141 142/142/142 143/143/143
f 141/141/141 143/143/143 144/144/144
f 145/145/145 147/147/147 148/148/148
f 145/145/145 148/148/148 146/146/146
f 145/145/145 146/146/146 126/126/126
f 145/145/145 126/126/126 125/125/125
f 125/125/125 126/126/126 127/127/127
f 125/125/125 127/127/127 128/128/128
f 137/137/137 139/139/139 140/140/140
f 137/137/137 138/138/138 139/139/139
f 133/133/133 135/135/135 136/136/136
f 133/133/133 134/134/134 135/135/135
f 129/129/129 131/131/131 132/132/132
f 129/129/129 130/130/130 131/131/131
f 121/121/121 123/123/123 124/124/124
f 121/121/121 122/122/122 123/123/123
f 117/117/117 119/119/119 120/120/120
f 117/117/117 118/118/118 119/119/119
f 113/113/113 115/115/115 116/116/116
f 113/113/113 114/114/114 115/115/115
f 109/109/109 111/111/111 112/112/112
f 109/109/109 110/110/110 111/111/111
f 105/105/105 107/107/107 108/108/108
f 105/105/105 106/106/106 107/107/107
f 173/173/173 175/175/175 176/176/176
f 173/173/173 174/174/174 175/175/175
f 169/169/169 171/171/171 172/172/172
f 169/169/169 170/170/170 171/171/171
f 165/165/165 167/167/167 168/168/168
f 165/165/165 166/166/166 167/167/167
f 161/161/161 163/163/163 164/164/164
f 161/161/161 162/162/162 163/163/163
f 157/157/157 159/159/159 160/160/160
f 157/157/157 158/158/158 159/159/159
f 153/153/153 155/155/155 156/156/156
f 153/153/153 154/154/154 155/155/155
f 193/193/193 195/195/195 196/196/196
f 193/193/193 194/194/194 195/195/195
f 189/189/189 191/191/191 192/192/192
f 189/189/189 190/190/190 191/191/191
f 185/185/185 187/187/187 188/188/188
f 185/185/185 186/186/186 187/187/187
f 181/181/181 183/183/183 184/184/184
f 181/181/181 182/182/182 183/183/183
f 177/177/177 179/179/179 180/180/180
f 177/177/177 178/178/178 179/179/179
f 213/213/213 227/227/227 228/228/228
f 213/213/213 228/228/228 214/214/214
f 213/213/213 214/214/214 215/215/215
f 213/213/213 215/215/215 216/216/216
f 209/209/209 225/225/225 226/226/226
f 209/209/209 212/212/212 225/225/225
f 209/209/209 211/211/211 212/212/212
f 209/209/209 210/210/210 211/211/211
f 221/221/221 223/223/223 224/224/224
f 221/221/221 222/222/222 223/223/223
f 217/217/217 219/219/219 220/220/220
f 217/217/217 218/218/218 219/219/219
f 205/205/205 207/207/207 208/208/208
f 205/205/205 206/206/206 207/207/207
f 201/201/201 203/203/203 204/204/204
f 201/201/201 202/202/202 203/203/203
f 197/197/197 199/199/199 200/200/200
f 197/197/197 198/198/198 199/199/199
f 250/250/250 249/249/249 276/276/276
f 234/234/234 249/249/249 250/250/250
f 234/234/234 233/233/233 249/249/249
f 233/233/233 234/234/234 235/235/235
f 233/233/233 235/235/235 236/236/236
f 272/272/272 236/236/236 235/235/235
f 272/272/272 235/235/235 273/273/273
f 274/274/274 275/275/275 261/261/261
f 274/274/274 261/261/261 260/260/260
f 256/256/256 260/260/260 261/261/261
f 256/256/256 255/255/255 260/260/260
f 255/255/255 256/256/256 257/257/257
f 255/255/255 257/257/257 258/258/258
f 259/259/259 258/258/258 257/257/257
f 266/266/266 270/270/270 271/271/271
f 266/266/266 265/265/265 270/270/270
f 264/264/264 265/265/265 266/266/266
f 264/264/264 266/266/266 267/267/267
f 264/264/264 267/267/267 268/268/268
f 264/264/264 268/268/268 269/269/269
f 243/243/243 262/262/262 263/263/263
f 243/243/243 263/263/263 244/244/244
f 241/241/241 243/243/243 244/244/244
f 241/241/241 242/242/242 243/243/243
f 251/251/251 253/253/253 254/254/254
f 251/251/251 252/252/252 253/253/253
f 245/245/245 247/247/247 248/248/248
f 245/245/245 246/246/246 247/247/247
f 237/237/237 239/239/239 240/240/240
f 237/237/237 238/238/238 239/239/239
f 229/229/229 231/231/231 232/232/232
f 229/229/229 230/230/230 231/231/231

