#
# OBJECT NAME
#
o model_4578
mtllib 4578.mtl

#
# VERTEX BUFFER 000
#
v -0.633682 0.505857 -0.422579
v 0.633682 0.505857 -0.422579
v -0.633682 1.49491 -0.422579
v 0.633682 1.49491 -0.422579
v -0.717283 1.57871 -0.374173
v 0.717283 1.57871 -0.374173
v -0.853827 1.71931 -0.374186
v 0.853827 1.71931 -0.374186
v -0.884402 1.74989 -0.496666
v 0.884402 1.74989 -0.496666
v -0.884402 0.250885 -0.496666
v 0.884402 0.250885 -0.496666
v -0.853827 0.28146 -0.374186
v 0.853827 0.28146 -0.374186
v -0.717283 0.42206 -0.374173
v 0.717283 0.42206 -0.374173
v 0.717283 0.42206 -0.374173
v 0.853827 0.28146 -0.374186
v 0.717283 1.57871 -0.374173
v 0.853827 1.71931 -0.374186
v -0.853827 0.28146 -0.374186
v -0.717283 0.42206 -0.374173
v -0.853827 1.71931 -0.374186
v -0.717283 1.57871 -0.374173
v -0.717283 0.42206 -0.374173
v 0.717283 0.42206 -0.374173
v -0.633682 0.505857 -0.422579
v 0.633682 0.505857 -0.422579
v 0.717283 0.42206 -0.374173
v 0.717283 1.57871 -0.374173
v 0.633682 0.505857 -0.422579
v 0.633682 1.49491 -0.422579
v 0.717283 1.57871 -0.374173
v -0.717283 1.57871 -0.374173
v 0.633682 1.49491 -0.422579
v -0.633682 1.49491 -0.422579
v -0.717283 1.57871 -0.374173
v -0.717283 0.42206 -0.374173
v -0.633682 1.49491 -0.422579
v -0.633682 0.505857 -0.422579
v -0.853827 1.71931 -0.374186
v 0.853827 1.71931 -0.374186
v -0.884402 1.74989 -0.496666
v 0.884402 1.74989 -0.496666
v 0.853827 1.71931 -0.374186
v 0.853827 0.28146 -0.374186
v 0.884402 1.74989 -0.496666
v 0.884402 0.250885 -0.496666
v 0.853827 0.28146 -0.374186
v -0.853827 0.28146 -0.374186
v 0.884402 0.250885 -0.496666
v -0.884402 0.250885 -0.496666
v -0.853827 0.28146 -0.374186
v -0.853827 1.71931 -0.374186
v -0.884402 0.250885 -0.496666
v -0.884402 1.74989 -0.496666

vn 0 0 1
vn 0 0 1
vn 0 0 1
vn 0 0 1
vn -4.4167e-005 5.28693e-005 1
vn 4.4167e-005 5.28693e-005 1
vn -4.29153e-005 5.40018e-005 1
vn 4.29153e-005 5.40018e-005 1
vn 0 0 -1
vn 0 0 -1
vn 0 0 -1
vn 0 0 -1
vn -4.29153e-005 -5.40018e-005 1
vn 4.29153e-005 -5.40018e-005 1
vn -4.4167e-005 -5.28693e-005 1
vn 4.4167e-005 -5.28693e-005 1
vn 4.4167e-005 -5.28693e-005 1
vn 4.29153e-005 -5.40018e-005 1
vn 4.4167e-005 5.28693e-005 1
vn 4.29153e-005 5.40018e-005 1
vn -4.29153e-005 -5.40018e-005 1
vn -4.4167e-005 -5.28693e-005 1
vn -4.29153e-005 5.40018e-005 1
vn -4.4167e-005 5.28693e-005 1
vn 0 0.5 0.865723
vn 0 0.5 0.865723
vn 0 0.5 0.865723
vn 0 0.5 0.865723
vn -0.500977 0 0.865234
vn -0.500977 0 0.865234
vn -0.500977 0 0.865234
vn -0.500977 0 0.865234
vn 0 -0.5 0.865723
vn 0 -0.5 0.865723
vn 0 -0.5 0.865723
vn 0 -0.5 0.865723
vn 0.500977 0 0.865234
vn 0.500977 0 0.865234
vn 0.500977 0 0.865234
vn 0.500977 0 0.865234
vn 0 0.970215 0.242188
vn 0 0.970215 0.242188
vn 0 0.970215 0.242188
vn 0 0.970215 0.242188
vn 0.970215 0 0.242188
vn 0.970215 0 0.242188
vn 0.970215 0 0.242188
vn 0.970215 0 0.242188
vn 0 -0.970215 0.242188
vn 0 -0.970215 0.242188
vn 0 -0.970215 0.242188
vn 0 -0.970215 0.242188
vn -0.970215 0 0.242188
vn -0.970215 0 0.242188
vn -0.970215 0 0.242188
vn -0.970215 0 0.242188

vt 0.00341094 0.00143087
vt 0.998655 0.00143087
vt 0.00341094 0.401109
vt 0.998655 0.401109
vt 0.826053 0.785393
vt 0.826053 0.450966
vt 0.897081 0.816798
vt 0.897081 0.419561
vt 0.795759 0.751919
vt 0.0158451 0.751919
vt 0.795759 0.40643
vt 0.0158451 0.40643
vt 0.897081 0.419561
vt 0.897081 0.816798
vt 0.826053 0.450966
vt 0.826053 0.785393
vt 0.636033 0.766071
vt 0.701359 0.800034
vt 0.0889247 0.766071
vt 0.0236001 0.800034
vt 0.0236001 0.800034
vt 0.0889251 0.766071
vt 0.701358 0.800034
vt 0.636034 0.766071
vt 0.668295 0.953661
vt -0.00138109 0.953661
vt 0.648228 0.937039
vt 0.0186863 0.937039
vt 0.581997 0.994131
vt 0.00220001 0.99413
vt 0.561698 0.967357
vt 0.0224983 0.967357
vt 0.668295 0.953661
vt -0.00138193 0.953661
vt 0.648228 0.937039
vt 0.0186856 0.93704
vt 0.581997 0.994131
vt 0.00220001 0.99413
vt 0.561698 0.967357
vt 0.0224983 0.967357
vt 0.912265 0.816798
vt 0.912265 0.419561
vt 0.981217 0.82366
vt 0.981217 0.412699
vt 0.0236001 0.816053
vt 0.701359 0.816053
vt 0.00813034 0.847168
vt 0.716828 0.847168
vt 0.912265 0.816798
vt 0.912265 0.419561
vt 0.981217 0.82366
vt 0.981217 0.412699
vt 0.0236001 0.816053
vt 0.701359 0.816053
vt 0.00813034 0.847168
vt 0.716828 0.847168


#
# MESH 000
#
g surface_000
usemtl surface_000
f 55/55/55 54/54/54 56/56/56
f 53/53/53 54/54/54 55/55/55
f 51/51/51 50/50/50 52/52/52
f 49/49/49 50/50/50 51/51/51
f 47/47/47 46/46/46 48/48/48
f 45/45/45 46/46/46 47/47/47
f 43/43/43 42/42/42 44/44/44
f 41/41/41 42/42/42 43/43/43
f 39/39/39 38/38/38 40/40/40
f 37/37/37 38/38/38 39/39/39
f 35/35/35 34/34/34 36/36/36
f 33/33/33 34/34/34 35/35/35
f 31/31/31 30/30/30 32/32/32
f 29/29/29 30/30/30 31/31/31
f 27/27/27 26/26/26 28/28/28
f 25/25/25 26/26/26 27/27/27
f 23/23/23 22/22/22 24/24/24
f 21/21/21 22/22/22 23/23/23
f 19/19/19 18/18/18 20/20/20
f 17/17/17 18/18/18 19/19/19
f 15/15/15 14/14/14 16/16/16
f 13/13/13 14/14/14 15/15/15
f 11/11/11 10/10/10 12/12/12
f 9/9/9 10/10/10 11/11/11
f 7/7/7 6/6/6 8/8/8
f 5/5/5 6/6/6 7/7/7
f 3/3/3 2/2/2 4/4/4
f 1/1/1 2/2/2 3/3/3

