#
# OBJECT NAME
#
o model_5008
mtllib 5008.mtl

#
# VERTEX BUFFER 000
#
v -0.817203 0 -0.327216
v -0.866304 0 -0.383217
v -0.768101 0 -0.383217
v -0.866304 0 -0.383217
v -0.817203 0 -0.327216
v -0.717483 0.285063 -0.15226
v -0.802717 0.285063 -0.248787
v -0.817203 0 -0.439219
v -0.866304 0 -0.383217
v -0.802717 0.285063 -0.248787
v -0.717483 0.285063 -0.345314
v -0.768101 0 -0.383217
v -0.63225 0.285063 -0.248787
v -0.768101 0 -0.383217
v -0.63225 0.285063 -0.248787
v -0.817203 0 -0.439219
v -0.817203 0 0.454078
v -0.768101 0 0.51008
v -0.866304 0 0.51008
v -0.866304 0 0.51008
v -0.802717 0.285063 0.375647
v -0.717483 0.285063 0.279121
v -0.817203 0 0.454078
v -0.817203 0 0.56608
v -0.717483 0.285063 0.472175
v -0.802717 0.285063 0.375647
v -0.866304 0 0.51008
v -0.768101 0 0.51008
v -0.63225 0.285063 0.375647
v -0.63225 0.285063 0.375647
v -0.768101 0 0.51008
v -0.817203 0 0.56608
v 0.817203 0 0.454078
v 0.768101 0 0.51008
v 0.63225 0.285063 0.375647
v 0.717483 0.285063 0.279121
v 0.866304 0 0.51008
v 0.802717 0.285063 0.375647
v 0.817203 0 0.56608
v 0.866304 0 0.51008
v 0.802717 0.285063 0.375647
v 0.717483 0.285063 0.472175
v 0.768101 0 0.51008
v 0.63225 0.285063 0.375647
v 0.817203 0 0.56608
v 0.768101 0 0.51008
v 0.866304 0 0.51008
v 0.817203 0 0.454078
v 0.289385 0.716273 -0.0161782
v 0.445775 0.605136 0.237608
v 0.952399 0.890951 0.340928
v 0.41009 0.830672 -0.342336
v 0.381044 0.614919 -0.126368
v 0.289385 0.716273 -0.0161782
v 0.31843 0.932027 -0.232148
v 0.640095 1.03341 -0.376649
v 0.548434 1.13476 -0.26646
v 1.04406 0.789596 0.230739
v 0.381044 0.614919 -0.126368
v 0.41009 0.830672 -0.342336
v 0.640095 1.03341 -0.376649
v 0.548434 1.13476 -0.26646
v 0.31843 0.932027 -0.232148
v 0.722394 0.688219 0.37524
v 0.916712 1.11649 -0.239019
v 0.537436 0.503782 0.12742
v 0.445775 0.605136 0.237608
v 0.916712 1.11649 -0.239019
v 0.825052 1.21784 -0.128828
v 0.537436 0.503782 0.12742
v 0.537436 0.503782 0.12742
v 0.814053 0.586864 0.265051
v 0.722394 0.688219 0.37524
v 0.445775 0.605136 0.237608
v 0.814053 0.586864 0.265051
v 1.0731 1.00535 0.0147691
v 1.0731 1.00535 0.0147691
v 0.916712 1.11649 -0.239019
v 0.825052 1.21784 -0.128828
v 0.981444 1.1067 0.124958
v 0.825052 1.21784 -0.128828
v 1.04406 0.789596 0.230739
v 0.952399 0.890951 0.340928
v 0.981444 1.1067 0.124958
v -1.27103 0.789704 -0.307672
v -0.710145 0.711577 -0.737654
v -0.72325 0.33721 -0.582434
v -1.23176 0.400769 -0.192472
v 1.2774 0.913711 0.342439
v 1.12465 1.1893 -0.270072
v 0.969257 1.16575 -0.156821
v 1.11564 0.914917 0.301135
v -1.07425 0.522649 0.236448
v -1.11564 0.914917 0.301135
v -1.00195 0.515085 0.646041
v 1.00195 0.515085 0.646041
v 1.11564 0.914917 0.301135
v 1.07425 0.522649 0.236448
v -1.38051 0.681641 0.314051
v -1.12465 1.1893 -0.270072
v -0.885115 0.502332 -0.137392
v -1.07425 0.522649 0.236448
v -0.556845 0.551186 0.155404
v 0 0.552868 0.119
v -0.528497 0.515085 0.547832
v 0 0.512498 0.502065
v 1.01657 0.293834 0.660115
v 1.11574 0.476275 0.710988
v 1.00195 0.515085 0.646041
v 1.38051 0.681641 0.314051
v 1.32326 0.443697 0.305119
v 1.23176 0.400769 -0.192472
v 1.27103 0.789704 -0.307672
v -1.11574 0.476275 0.710988
v -1.00195 0.515085 0.646041
v -1.11564 0.914917 0.301135
v -1.2774 0.913711 0.342439
v 0.72325 0.33721 -0.582434
v 0.710145 0.711577 -0.737654
v -1.15477 0.249507 0.322643
v -0.500374 0.289619 0.565081
v -1.01657 0.293834 0.660115
v 0.885115 0.502332 -0.137392
v 0.591814 1.11776 -0.4743
v 0.599225 0.469352 -0.307315
v -1.2774 0.913711 0.342439
v -1.11574 0.476275 0.710988
v -0.885115 0.502332 -0.137392
v -0.969257 1.16575 -0.156821
v 0 0.672658 -0.804999
v 0 0.328493 -0.651014
v -0.500374 0.289619 0.565081
v 0 0.292743 0.526423
v -0.599225 0.469352 -0.307315
v -0.591814 1.11776 -0.4743
v -1.01657 0.293834 0.660115
v 1.01657 0.293834 0.660115
v 0.500374 0.289619 0.565081
v 1.15477 0.249507 0.322643
v -1.08887 0.2192 -0.00943349
v -0.643611 0.21124 -0.231943
v 0 0.449865 -0.370697
v 0 1.10256 -0.532138
v 0 0.449865 -0.370697
v -0.599225 0.469352 -0.307315
v 0.528497 0.515085 0.547832
v 0 0.512498 0.502065
v 0 0.292743 0.526423
v 0.500374 0.289619 0.565081
v -1.32326 0.443697 0.305119
v 0 0.292743 0.526423
v 0 0.210431 -0.273604
v 0.643611 0.21124 -0.231943
v 0 0.210431 -0.273604
v -0.643611 0.21124 -0.231943
v 1.15477 0.249507 0.322643
v 1.11574 0.476275 0.710988
v 1.01657 0.293834 0.660115
v -1.08887 0.2192 -0.00943349
v 0 0.552868 0.119
v 0.556845 0.551186 0.155404
v -1.15477 0.249507 0.322643
v 0 0.210431 -0.273604
v 0 0.328493 -0.651014
v 0.643611 0.21124 -0.231943
v 1.00195 0.515085 0.646041
v 1.07425 0.522649 0.236448
v -0.624813 1.13945 -0.650483
v -1.00195 0.515085 0.646041
v -1.01657 0.293834 0.660115
v 0 1.10256 -0.532138
v 0 0.449865 -0.370697
v 0 0.449865 -0.370697
v 0.599225 0.469352 -0.307315
v -0.591814 1.11776 -0.4743
v 0 1.10256 -0.532138
v 0 1.11915 -0.705443
v 1.08887 0.2192 -0.00943349
v 0 0.292743 0.526423
v 0 0.210431 -0.273604
v 1.01657 0.293834 0.660115
v 0.591814 1.11776 -0.4743
v 0.624813 1.13945 -0.650483
v 0 1.11915 -0.705443
v 0 1.10256 -0.532138
v 0.885115 0.502332 -0.137392
v -1.01657 0.293834 0.660115
v 1.08887 0.2192 -0.00943349
v 0 0.672658 -0.804999
v 1.2774 0.913711 0.342439

vn -0.101379 -0.526855 0.843262
vn 0 -1 0
vn 0.232056 -0.950684 0.204346
vn -0.966309 0.247192 -0.0662842
vn -0.101379 -0.526855 0.843262
vn 0.0606689 -0.5625 0.824219
vn -0.979492 0.19043 0.0603027
vn -0.0777588 0.298828 -0.950684
vn -0.966309 0.247192 -0.0662842
vn -0.979492 0.19043 0.0603027
vn 0.102539 0.231201 -0.967285
vn 0.910645 -0.409424 -0.0515137
vn 0.88916 -0.452881 0.0625
vn 0.910645 -0.409424 -0.0515137
vn 0.88916 -0.452881 0.0625
vn -0.0777588 0.298828 -0.950684
vn -0.101379 -0.526855 -0.843262
vn 0.232056 -0.950684 -0.204346
vn 0 -1 0
vn -0.966309 0.247192 0.0662842
vn -0.979492 0.19043 -0.0603027
vn 0.0606689 -0.5625 -0.824219
vn -0.101379 -0.526855 -0.843262
vn -0.0777588 0.298828 0.950684
vn 0.102539 0.231201 0.967285
vn -0.979492 0.19043 -0.0603027
vn -0.966309 0.247192 0.0662842
vn 0.910645 -0.409424 0.0515137
vn 0.88916 -0.452881 -0.0625
vn 0.88916 -0.452881 -0.0625
vn 0.910645 -0.409424 0.0515137
vn -0.0777588 0.298828 0.950684
vn 0.101379 -0.526855 -0.843262
vn -0.910645 -0.409424 0.0515137
vn -0.88916 -0.452881 -0.0625
vn -0.0606689 -0.5625 -0.824219
vn 0.966309 0.247192 0.0662842
vn 0.979492 0.19043 -0.0603027
vn 0.0777588 0.298828 0.950684
vn 0.966309 0.247192 0.0662842
vn 0.979492 0.19043 -0.0603027
vn -0.102539 0.231201 0.967285
vn -0.910645 -0.409424 0.0515137
vn -0.88916 -0.452881 -0.0625
vn 0.0777588 0.298828 0.950684
vn -0.232056 -0.950684 -0.204346
vn 0 -1 0
vn 0.101379 -0.526855 -0.843262
vn -0.859863 0.270996 0.431885
vn -0.67041 -0.0448303 0.740234
vn 0.106079 0.443848 0.889648
vn 0.265869 -0.604004 -0.750977
vn 0.179565 -0.780762 -0.598145
vn -0.859863 0.270996 0.431885
vn -0.794922 0.580078 0.176147
vn 0.404785 -0.414063 -0.814941
vn -0.509277 0.85498 0.0942383
vn 0.794922 -0.580078 -0.176147
vn 0.179565 -0.780762 -0.598145
vn 0.265869 -0.604004 -0.750977
vn 0.404785 -0.414063 -0.814941
vn -0.509277 0.85498 0.0942383
vn -0.794922 0.580078 0.176147
vn -0.0392761 -0.299805 0.953125
vn 0.67041 0.0456238 -0.740234
vn 0.0750122 -0.984863 -0.155029
vn -0.67041 -0.0448303 0.740234
vn 0.67041 0.0456238 -0.740234
vn -0.074585 0.984863 0.154541
vn 0.0750122 -0.984863 -0.155029
vn 0.0750122 -0.984863 -0.155029
vn 0.38916 -0.818848 0.421143
vn -0.0392761 -0.299805 0.953125
vn -0.67041 -0.0448303 0.740234
vn 0.38916 -0.818848 0.421143
vn 0.965332 0.231079 -0.118347
vn 0.965332 0.231079 -0.118347
vn 0.67041 0.0456238 -0.740234
vn -0.074585 0.984863 0.154541
vn 0.52002 0.754395 0.400146
vn -0.074585 0.984863 0.154541
vn 0.794922 -0.580078 -0.176147
vn 0.106079 0.443848 0.889648
vn 0.52002 0.754395 0.400146
vn -0.664551 -0.0337219 -0.745605
vn -0.157227 -0.06427 -0.985352
vn -0.150269 -0.38501 -0.910156
vn -0.735352 -0.316895 -0.598633
vn 0.249878 0.409912 0.876953
vn 0.370361 0.924316 -0.0913086
vn -0.451416 0.281982 0.846191
vn -0.817871 0.272461 0.506348
vn 0.975098 0.156738 0.155029
vn 0.817871 0.272461 0.506348
vn 0.52832 0.40918 0.743164
vn -0.52832 0.40918 0.743164
vn -0.817871 0.272461 0.506348
vn -0.975098 0.156738 0.155029
vn -0.992188 -0.055481 0.109375
vn -0.370361 0.924316 -0.0913086
vn -0.251709 0.667969 -0.699707
vn -0.286377 0.916992 -0.2771
vn -0.0296783 0.998535 -0.0339966
vn 0.00634766 0.999023 -0.0340576
vn 0.0692139 0.405029 0.911621
vn -1.78814e-007 0.385254 0.922363
vn 0.0464172 -0.513672 0.856445
vn 0.131226 0.010704 0.991211
vn -0.52832 0.40918 0.743164
vn 0.992188 -0.055481 0.109375
vn 0.918457 -0.289795 0.267822
vn 0.735352 -0.316895 -0.598633
vn 0.664551 -0.0337219 -0.745605
vn -0.131226 0.010704 0.991211
vn 0.52832 0.40918 0.743164
vn 0.817871 0.272461 0.506348
vn -0.249878 0.409912 0.876953
vn 0.150269 -0.38501 -0.910156
vn 0.157227 -0.06427 -0.985352
vn -0.40332 -0.830566 0.383545
vn 0.0603638 -0.708008 0.703125
vn -0.0464172 -0.513672 0.856445
vn -0.398682 0.0517578 0.915527
vn -0.169922 0.2771 0.945313
vn -0.155151 0.0473022 0.986328
vn -0.249878 0.409912 0.876953
vn -0.131226 0.010704 0.991211
vn 0.398682 0.0517578 0.915527
vn 0.451416 0.281982 0.846191
vn -0.00137711 -0.072937 -0.99707
vn -0.00374413 -0.430176 -0.902344
vn 0.0603638 -0.708008 0.703125
vn -0.000974655 -0.919434 0.39209
vn 0.155151 0.0473022 0.986328
vn 0.169922 0.2771 0.945313
vn -0.0464172 -0.513672 0.856445
vn 0.0464172 -0.513672 0.856445
vn -0.0603638 -0.708008 0.703125
vn 0.40332 -0.830566 0.383545
vn -0.297363 -0.946289 -0.125854
vn -0.0361633 -0.981934 -0.18335
vn 0.000638485 0.0313416 0.999023
vn 0.00365639 0.258057 0.96582
vn 0.0102844 0.578125 -0.81543
vn -0.0578918 0.572266 -0.817871
vn -0.0692139 0.405029 0.911621
vn 1.78814e-007 0.385254 0.922363
vn -0.000974655 -0.919434 0.39209
vn -0.0603638 -0.708008 0.703125
vn -0.918457 -0.289795 0.267822
vn -0.000974655 -0.919434 0.39209
vn -0.00048089 -0.986816 -0.159424
vn 0.0361633 -0.981934 -0.18335
vn 0.00048089 -0.986816 -0.159424
vn -0.0361633 -0.981934 -0.18335
vn 0.40332 -0.830566 0.383545
vn 0.131226 0.010704 0.991211
vn 0.0464172 -0.513672 0.856445
vn -0.297363 -0.946289 -0.125854
vn -0.00634766 0.999023 -0.0340576
vn 0.0296783 0.998535 -0.0339966
vn -0.40332 -0.830566 0.383545
vn -0.00048089 -0.986816 -0.159424
vn 0.00374413 -0.430176 -0.902344
vn 0.0361633 -0.981934 -0.18335
vn -0.52832 0.40918 0.743164
vn 0.286377 0.916992 -0.2771
vn 0.0491333 0.856445 -0.513184
vn 0.52832 0.40918 0.743164
vn -0.0464172 -0.513672 0.856445
vn -0.00365639 0.258057 0.96582
vn -0.000638485 0.0313416 0.999023
vn -0.0102844 0.578125 -0.81543
vn 0.0578918 0.572266 -0.817871
vn 0.169922 0.2771 0.945313
vn 0.00365639 0.258057 0.96582
vn 0.0270538 0.858887 -0.510254
vn 0.297363 -0.946289 -0.125854
vn -0.000974655 -0.919434 0.39209
vn 0.00048089 -0.986816 -0.159424
vn 0.0464172 -0.513672 0.856445
vn -0.169922 0.2771 0.945313
vn -0.0491333 0.856445 -0.513184
vn -0.0270538 0.858887 -0.510254
vn -0.00365639 0.258057 0.96582
vn 0.251709 0.667969 -0.699707
vn -0.0464172 -0.513672 0.856445
vn 0.297363 -0.946289 -0.125854
vn 0.00137711 -0.072937 -0.99707
vn 0.249878 0.409912 0.876953

vt 0.771098 0.144132
vt 0.750344 0.126031
vt 0.791853 0.126031
vt 0.872371 0.10793
vt 0.842197 0.10793
vt 0.842198 0.24711
vt 0.872371 0.24711
vt 0.842197 0.10793
vt 0.872371 0.10793
vt 0.872371 0.24711
vt 0.842198 0.24711
vt 0.81161 0.10793
vt 0.81161 0.24711
vt 0.81161 0.10793
vt 0.81161 0.24711
vt 0.771098 0.10793
vt 0.771098 0.144132
vt 0.791853 0.126031
vt 0.750344 0.126031
vt 0.872371 0.10793
vt 0.872371 0.24711
vt 0.842197 0.24711
vt 0.842197 0.10793
vt 0.842197 0.10793
vt 0.842197 0.24711
vt 0.872371 0.24711
vt 0.872371 0.10793
vt 0.81161 0.10793
vt 0.81161 0.24711
vt 0.81161 0.24711
vt 0.81161 0.10793
vt 0.771098 0.10793
vt 0.842197 0.10793
vt 0.81161 0.10793
vt 0.81161 0.24711
vt 0.842198 0.24711
vt 0.872371 0.10793
vt 0.872371 0.24711
vt 0.842197 0.10793
vt 0.872371 0.10793
vt 0.872371 0.24711
vt 0.842198 0.24711
vt 0.81161 0.10793
vt 0.81161 0.24711
vt 0.771098 0.10793
vt 0.791853 0.126031
vt 0.750344 0.126031
vt 0.771098 0.144132
vt 0.501689 0.136494
vt 0.591618 0.09483
vt 0.723156 0.22654
vt 0.661806 0.017993
vt 0.556524 0.017993
vt 0.556524 0.073847
vt 0.661806 0.073847
vt 0.767088 0.017993
vt 0.767088 0.073847
vt 0.723156 0.22654
vt 0.501689 0.136495
vt 0.459908 0.226368
vt 0.501572 0.316297
vt 0.501572 0.316297
vt 0.459908 0.226368
vt 0.681491 0.136611
vt 0.591446 0.358078
vt 0.451241 0.017993
vt 0.451241 0.073847
vt 0.872371 0.017993
vt 0.872371 0.073847
vt 0.591618 0.09483
vt 0.451241 0.017993
vt 0.556524 0.017993
vt 0.556524 0.073847
vt 0.451241 0.073847
vt 0.681491 0.136611
vt 0.681375 0.316414
vt 0.767088 0.017993
vt 0.872371 0.017993
vt 0.872371 0.073847
vt 0.767088 0.073847
vt 0.591446 0.358078
vt 0.661806 0.017993
vt 0.661806 0.073847
vt 0.681375 0.316414
vt 0.592002 0.763376
vt 0.820762 0.759067
vt 0.820762 0.891468
vt 0.592002 0.892229
vt 0.373783 0.665245
vt 0.566514 0.651261
vt 0.541026 0.582895
vt 0.373783 0.582895
vt 0.465859 0.379275
vt 0.428927 0.484858
vt 0.357842 0.379275
vt 0.357842 0.379275
vt 0.428927 0.484858
vt 0.465859 0.379275
vt 0.447679 0.796221
vt 0.566514 0.642544
vt 0.08631 0.321028
vt 0.023021 0.216165
vt 0.221294 0.214127
vt 0.390971 0.208212
vt 0.22267 0.126319
vt 0.390971 0.126314
vt 0.0429701 0.612954
vt 0.143484 0.665245
vt 0.171593 0.582895
vt 0.447679 0.796221
vt 0.442051 0.89798
vt 0.592002 0.892229
vt 0.592002 0.763376
vt 0.143484 0.665245
vt 0.171593 0.582895
vt 0.373783 0.582895
vt 0.373783 0.665245
vt 0.820762 0.891468
vt 0.820762 0.759067
vt 0.0202065 0.931782
vt 0.165909 0.981112
vt 0.029908 0.971238
vt 0.642977 0.379275
vt 0.820762 0.567334
vt 0.820762 0.379275
vt 0.394507 0.775071
vt 0.324789 0.9056
vt 0.642977 0.379275
vt 0.541026 0.582895
vt 0.98577 0.759067
vt 0.98577 0.891468
vt 0.226516 0.017993
vt 0.390971 0.017993
vt 0.820762 0.379275
vt 0.820762 0.567334
vt 0.0429701 0.612954
vt 0.029908 0.971238
vt 0.165909 0.981112
vt 0.0202065 0.931782
vt 0.0386945 0.865843
vt 0.165909 0.837584
vt 0.98577 0.379275
vt 0.98577 0.55763
vt 0.390971 0.33972
vt 0.234683 0.337749
vt 0.22267 0.126319
vt 0.390971 0.126314
vt 0.390971 0.017993
vt 0.226516 0.017993
vt 0.442051 0.89798
vt 0.280809 0.981112
vt 0.280809 0.837349
vt 0.165909 0.837584
vt 0.98577 0.981112
vt 0.820762 0.981112
vt 0.442051 0.981112
vt 0.324789 0.9056
vt 0.331841 0.971117
vt 0.592002 0.981112
vt 0.390971 0.208212
vt 0.221294 0.214127
vt 0.442051 0.981112
vt 0.98577 0.981112
vt 0.98577 0.891468
vt 0.820762 0.981112
vt 0.054814 0.126323
vt 0.023021 0.216165
vt 0.820762 0.63815
vt 0.054814 0.126323
vt 0.331841 0.971117
vt 0.98577 0.55763
vt 0.98577 0.379275
vt 0.390971 0.33972
vt 0.234683 0.337749
vt 0.820762 0.582895
vt 0.98577 0.582895
vt 0.98577 0.63815
vt 0.0386945 0.865843
vt 0.280809 0.981112
vt 0.280809 0.837349
vt 0.0769135 0.02805
vt 0.820762 0.582895
vt 0.820762 0.63815
vt 0.98577 0.63815
vt 0.98577 0.582895
vt 0.08631 0.321028
vt 0.0769135 0.02805
vt 0.592002 0.981112
vt 0.98577 0.759067
vt 0.394507 0.775071


#
# VERTEX BUFFER 001
#
v 0.817203 0 -0.327216
v 0.717483 0.285063 -0.15226
v 0.63225 0.285063 -0.248787
v 0.768101 0 -0.383217
v 0.866304 0 -0.383217
v 0.802717 0.285063 -0.248787
v 0.717483 0.285063 -0.15226
v 0.817203 0 -0.327216
v 0.817203 0 -0.439219
v 0.717483 0.285063 -0.345314
v 0.802717 0.285063 -0.248787
v 0.866304 0 -0.383217
v 0.768101 0 -0.383217
v 0.63225 0.285063 -0.248787
v 0.717483 0.285063 -0.345314
v 0.817203 0 -0.439219
v 0.817203 0 -0.439219
v 0.866304 0 -0.383217
v 0.768101 0 -0.383217
v 0.768101 0 -0.383217
v 0.866304 0 -0.383217
v 0.817203 0 -0.327216

vn 0.101379 -0.526855 0.843262
vn -0.0606689 -0.5625 0.824219
vn -0.88916 -0.452881 0.0625
vn -0.910645 -0.409424 -0.0515137
vn 0.966309 0.247192 -0.0662842
vn 0.979492 0.19043 0.0603027
vn -0.0606689 -0.5625 0.824219
vn 0.101379 -0.526855 0.843262
vn 0.0777588 0.298828 -0.950684
vn -0.102539 0.231201 -0.967285
vn 0.979492 0.19043 0.0603027
vn 0.966309 0.247192 -0.0662842
vn -0.910645 -0.409424 -0.0515137
vn -0.88916 -0.452881 0.0625
vn -0.102539 0.231201 -0.967285
vn 0.0777588 0.298828 -0.950684
vn 0.0777588 0.298828 -0.950684
vn 0 -1 0
vn -0.232056 -0.950684 0.204346
vn -0.232056 -0.950684 0.204346
vn 0 -1 0
vn 0.101379 -0.526855 0.843262

vt 0.842197 0.10793
vt 0.842197 0.24711
vt 0.81161 0.24711
vt 0.81161 0.10793
vt 0.872371 0.10793
vt 0.872371 0.24711
vt 0.842197 0.24711
vt 0.842197 0.10793
vt 0.842197 0.10793
vt 0.842197 0.24711
vt 0.872371 0.24711
vt 0.872371 0.10793
vt 0.81161 0.10793
vt 0.81161 0.24711
vt 0.842197 0.24711
vt 0.842197 0.10793
vt 0.771098 0.10793
vt 0.750344 0.126031
vt 0.791853 0.126031
vt 0.791853 0.126031
vt 0.750344 0.126031
vt 0.771098 0.144132


#
# MESH 000
#
g surface_000
usemtl surface_000
f 2/2/2 16/16/16 3/3/3
f 1/1/1 2/2/2 3/3/3
f 5/5/5 14/14/14 15/15/15
f 5/5/5 15/15/15 6/6/6
f 4/4/4 5/5/5 6/6/6
f 4/4/4 6/6/6 7/7/7
f 12/12/12 11/11/11 13/13/13
f 12/12/12 8/8/8 11/11/11
f 8/8/8 10/10/10 11/11/11
f 8/8/8 9/9/9 10/10/10
f 19/19/19 18/18/18 32/32/32
f 17/17/17 18/18/18 19/19/19
f 23/23/23 30/30/30 31/31/31
f 23/23/23 22/22/22 30/30/30
f 20/20/20 22/22/22 23/23/23
f 20/20/20 21/21/21 22/22/22
f 28/28/28 29/29/29 25/25/25
f 28/28/28 25/25/25 24/24/24
f 24/24/24 25/25/25 26/26/26
f 24/24/24 26/26/26 27/27/27
f 46/46/46 48/48/48 47/47/47
f 45/45/45 46/46/46 47/47/47
f 43/43/43 42/42/42 44/44/44
f 43/43/43 39/39/39 42/42/42
f 39/39/39 41/41/41 42/42/42
f 39/39/39 40/40/40 41/41/41
f 37/37/37 36/36/36 38/38/38
f 37/37/37 33/33/33 36/36/36
f 33/33/33 35/35/35 36/36/36
f 33/33/33 34/34/34 35/35/35
f 84/84/84 81/81/81 51/51/51
f 81/81/81 62/62/62 51/51/51
f 51/51/51 62/62/62 63/63/63
f 51/51/51 63/63/63 49/49/49
f 49/49/49 50/50/50 51/51/51
f 50/50/50 64/64/64 51/51/51
f 77/77/77 78/78/78 79/79/79
f 77/77/77 79/79/79 80/80/80
f 82/82/82 77/77/77 80/80/80
f 82/82/82 80/80/80 83/83/83
f 72/72/72 82/82/82 83/83/83
f 72/72/72 83/83/83 73/73/73
f 71/71/71 72/72/72 73/73/73
f 71/71/71 73/73/73 74/74/74
f 65/65/65 76/76/76 58/58/58
f 61/61/61 65/65/65 58/58/58
f 58/58/58 60/60/60 61/61/61
f 58/58/58 59/59/59 60/60/60
f 59/59/59 58/58/58 70/70/70
f 70/70/70 58/58/58 75/75/75
f 68/68/68 57/57/57 69/69/69
f 68/68/68 56/56/56 57/57/57
f 56/56/56 55/55/55 57/57/57
f 56/56/56 52/52/52 55/55/55
f 52/52/52 54/54/54 55/55/55
f 52/52/52 53/53/53 54/54/54
f 53/53/53 67/67/67 54/54/54
f 53/53/53 66/66/66 67/67/67
f 132/132/132 169/169/169 187/187/187
f 132/132/132 105/105/105 169/169/169
f 102/102/102 169/169/169 105/105/105
f 102/102/102 105/105/105 103/103/103
f 101/101/101 102/102/102 103/103/103
f 103/103/103 145/145/145 101/101/101
f 144/144/144 145/145/145 103/103/103
f 144/144/144 103/103/103 104/104/104
f 106/106/106 105/105/105 132/132/132
f 104/104/104 105/105/105 106/106/106
f 104/104/104 103/103/103 105/105/105
f 106/106/106 132/132/132 133/133/133
f 182/182/182 184/184/184 185/185/185
f 182/182/182 183/183/183 184/184/184
f 183/183/183 189/189/189 184/184/184
f 183/183/183 119/119/119 189/189/189
f 119/119/119 164/164/164 189/189/189
f 119/119/119 118/118/118 164/164/164
f 163/163/163 164/164/164 118/118/118
f 163/163/163 118/118/118 165/165/165
f 183/183/183 182/182/182 91/91/91
f 183/183/183 91/91/91 90/90/90
f 113/113/113 183/183/183 90/90/90
f 113/113/113 119/119/119 183/183/183
f 113/113/113 118/118/118 119/119/119
f 113/113/113 112/112/112 118/118/118
f 165/165/165 118/118/118 112/112/112
f 165/165/165 112/112/112 188/188/188
f 112/112/112 156/156/156 188/188/188
f 89/89/89 90/90/90 91/91/91
f 89/89/89 91/91/91 92/92/92
f 108/108/108 89/89/89 92/92/92
f 108/108/108 92/92/92 109/109/109
f 107/107/107 108/108/108 109/109/109
f 179/179/179 141/141/141 180/180/180
f 179/179/179 121/121/121 141/141/141
f 121/121/121 140/140/140 141/141/141
f 120/120/120 140/140/140 121/121/121
f 120/120/120 121/121/121 122/122/122
f 175/175/175 176/176/176 177/177/177
f 175/175/175 177/177/177 168/168/168
f 168/168/168 129/129/129 175/175/175
f 168/168/168 100/100/100 129/129/129
f 117/117/117 129/129/129 100/100/100
f 117/117/117 116/116/116 129/129/129
f 114/114/114 116/116/116 117/117/117
f 114/114/114 115/115/115 116/116/116
f 168/168/168 177/177/177 130/130/130
f 168/168/168 130/130/130 86/86/86
f 85/85/85 168/168/168 86/86/86
f 85/85/85 100/100/100 168/168/168
f 99/99/99 100/100/100 85/85/85
f 126/126/126 100/100/100 99/99/99
f 126/126/126 99/99/99 127/127/127
f 86/86/86 130/130/130 131/131/131
f 86/86/86 131/131/131 87/87/87
f 85/85/85 86/86/86 87/87/87
f 85/85/85 87/87/87 88/88/88
f 99/99/99 85/85/85 88/88/88
f 99/99/99 88/88/88 150/150/150
f 150/150/150 127/127/127 99/99/99
f 162/162/162 127/127/127 150/150/150
f 162/162/162 170/170/170 127/127/127
f 154/154/154 87/87/87 131/131/131
f 154/154/154 155/155/155 87/87/87
f 155/155/155 88/88/88 87/87/87
f 155/155/155 159/159/159 88/88/88
f 159/159/159 162/162/162 88/88/88
f 150/150/150 88/88/88 162/162/162
f 114/114/114 136/136/136 115/115/115
f 125/125/125 171/171/171 172/172/172
f 125/125/125 124/124/124 171/171/171
f 123/123/123 124/124/124 125/125/125
f 123/123/123 91/91/91 124/124/124
f 123/123/123 97/97/97 91/91/91
f 123/123/123 98/98/98 97/97/97
f 96/96/96 97/97/97 98/98/98
f 156/156/156 157/157/157 158/158/158
f 156/156/156 111/111/111 157/157/157
f 111/111/111 110/110/110 157/157/157
f 157/157/157 110/110/110 190/190/190
f 190/190/190 110/110/110 90/90/90
f 113/113/113 90/90/90 110/110/110
f 110/110/110 112/112/112 113/113/113
f 111/111/111 156/156/156 112/112/112
f 110/110/110 111/111/111 112/112/112
f 151/151/151 152/152/152 153/153/153
f 151/151/151 153/153/153 138/138/138
f 153/153/153 178/178/178 138/138/138
f 138/138/138 178/178/178 139/139/139
f 137/137/137 138/138/138 139/139/139
f 135/135/135 142/142/142 143/143/143
f 135/135/135 134/134/134 142/142/142
f 129/129/129 134/134/134 135/135/135
f 129/129/129 128/128/128 134/134/134
f 93/93/93 128/128/128 129/129/129
f 93/93/93 129/129/129 94/94/94
f 93/93/93 94/94/94 95/95/95
f 161/161/161 167/167/167 186/186/186
f 161/161/161 166/166/166 167/167/167
f 161/161/161 146/146/146 166/166/166
f 181/181/181 166/166/166 146/146/146
f 181/181/181 146/146/146 149/149/149
f 146/146/146 148/148/148 149/149/149
f 146/146/146 147/147/147 148/148/148
f 186/186/186 174/174/174 161/161/161
f 173/173/173 161/161/161 174/174/174
f 173/173/173 160/160/160 161/161/161
f 160/160/160 146/146/146 161/161/161
f 160/160/160 147/147/147 146/146/146

#
# MESH 001
#
g surface_001
usemtl surface_001
f 210/210/210 211/211/211 212/212/212
f 207/207/207 208/208/208 209/209/209
f 203/203/203 205/205/205 206/206/206
f 203/203/203 204/204/204 205/205/205
f 199/199/199 201/201/201 202/202/202
f 199/199/199 200/200/200 201/201/201
f 195/195/195 197/197/197 198/198/198
f 195/195/195 196/196/196 197/197/197
f 191/191/191 193/193/193 194/194/194
f 191/191/191 192/192/192 193/193/193

