#
# OBJECT NAME
#
o model_4570
mtllib 4570.mtl

#
# VERTEX BUFFER 000
#
v 0.363353 0.15 0.363258
v 0.363352 0.15 -0.363434
v 0.363353 0.242396 0.363258
v 0.363352 0.242396 -0.363434
v 0.363353 0.5266 0.363258
v 0.363353 0.676601 0.213258
v 0.213353 0.676601 0.363258
v -0.363341 0.242396 0.363266
v -0.363341 0.242396 -0.363426
v -0.363341 0.15 0.363266
v -0.363341 0.15 -0.363426
v -0.363341 0.15 0.363266
v 0.363353 0.15 0.363258
v -0.363341 0.242396 0.363266
v 0.363353 0.242396 0.363258
v -0.363341 0.676601 0.213266
v -0.363341 0.676601 -0.213426
v -0.363341 0.5266 0.363266
v -0.363341 0.5266 -0.363426
v 0.363352 0.451387 -0.363434
v -0.363341 0.451387 -0.363426
v 0.363352 0.5266 -0.363434
v -0.363341 0.5266 -0.363426
v -0.379633 0.26071 0.379555
v 0.379643 0.26071 0.379555
v -0.379633 0.433073 0.379555
v 0.379643 0.433073 0.379555
v -0.379633 0.433073 0.379555
v -0.379633 0.433073 -0.379723
v -0.379633 0.26071 0.379555
v -0.379633 0.26071 -0.379723
v 0.379643 0.26071 -0.379723
v -0.379633 0.26071 -0.379723
v 0.379643 0.433073 -0.379723
v -0.379633 0.433073 -0.379723
v 0.379643 0.26071 0.379555
v 0.379643 0.26071 -0.379723
v 0.379643 0.433073 0.379555
v 0.379643 0.433073 -0.379723
v -0.363341 0.242396 0.363266
v 0.363353 0.242396 0.363258
v -0.379633 0.26071 0.379555
v 0.379643 0.26071 0.379555
v 0.363353 0.451387 0.363258
v -0.363341 0.451387 0.363266
v 0.379643 0.433073 0.379555
v -0.379633 0.433073 0.379555
v -0.363341 0.451387 0.363266
v -0.363341 0.451387 -0.363426
v -0.379633 0.433073 0.379555
v -0.379633 0.433073 -0.379723
v -0.363341 0.242396 -0.363426
v -0.363341 0.242396 0.363266
v -0.379633 0.26071 -0.379723
v -0.379633 0.26071 0.379555
v 0.363352 0.242396 -0.363434
v -0.363341 0.242396 -0.363426
v 0.379643 0.26071 -0.379723
v -0.379633 0.26071 -0.379723
v -0.363341 0.451387 -0.363426
v 0.363352 0.451387 -0.363434
v -0.379633 0.433073 -0.379723
v 0.379643 0.433073 -0.379723
v 0.363353 0.242396 0.363258
v 0.363352 0.242396 -0.363434
v 0.379643 0.26071 0.379555
v 0.379643 0.26071 -0.379723
v 0.363352 0.451387 -0.363434
v 0.363353 0.451387 0.363258
v 0.379643 0.433073 -0.379723
v 0.379643 0.433073 0.379555
v -0.126839 0.675695 -0.21978
v -0.219696 0.675695 -0.12693
v -0.106068 0.706491 -0.183806
v -0.183719 0.706491 -0.106154
v -0.253684 0.675695 -8.39233e-005
v -0.212141 0.706491 -8.39233e-005
v -0.219696 0.675695 0.126762
v -0.183719 0.706491 0.105993
v -0.126839 0.675695 0.21962
v -0.106068 0.706491 0.183645
v 5.1856e-006 0.675695 0.253609
v 5.1856e-006 0.706491 0.212062
v 0.12685 0.675695 0.219612
v 0.106078 0.706491 0.183638
v 0.219706 0.675695 0.126762
v 0.183729 0.706491 0.105986
v 0.253694 0.675695 -8.39233e-005
v 0.212151 0.706491 -8.39233e-005
v 0.219706 0.675695 -0.12693
v 0.183729 0.706491 -0.106161
v 0.12685 0.675695 -0.219788
v 0.106078 0.706491 -0.183813
v 5.1856e-006 0.675695 -0.253777
v 5.1856e-006 0.706491 -0.21223
v 5.1856e-006 0.67785 -8.39233e-005
v 0.363352 0.5266 -0.363434
v 0.213352 0.676601 -0.363434
v 0.363352 0.676601 -0.213434
v -0.363341 0.5266 0.363266
v 0.363353 0.5266 0.363258
v -0.213341 0.676601 0.363266
v 0.213353 0.676601 0.363258
v 0.363353 0.5266 0.363258
v 0.363352 0.5266 -0.363434
v 0.363353 0.676601 0.213258
v 0.363352 0.676601 -0.213434
v -0.363341 0.5266 0.363266
v -0.213341 0.676601 0.363266
v -0.363341 0.676601 0.213266
v 0.363353 0.451387 0.363258
v 0.363352 0.451387 -0.363434
v 0.213353 0.676601 0.363258
v 0.363353 0.676601 0.213258
v 0.213352 0.676601 -0.363434
v 0.363352 0.676601 -0.213434
v -0.363341 0.5266 -0.363426
v -0.363341 0.676601 -0.213426
v -0.213341 0.676601 -0.363426
v -0.363341 0.451387 0.363266
v -0.363341 0.451387 -0.363426
v -0.363341 0.451387 0.363266
v 0.363353 0.451387 0.363258
v 0.213352 0.676601 -0.363434
v -0.213341 0.676601 -0.363426
v -0.213341 0.676601 0.363266
v -0.213341 0.676601 -0.363426
v -0.363341 0.676601 0.213266
v -0.363341 0.676601 -0.213426
v 0.363352 0.15 -0.363434
v -0.363341 0.15 -0.363426
v 0.363352 0.242396 -0.363434
v -0.363341 0.242396 -0.363426
v -0.213341 0 -0.363428
v -0.363341 0 -0.213426
v -0.363341 0.15 -0.363426
v -0.213341 0 0.363266
v -0.363341 0.15 0.363266
v -0.363341 0 0.213266
v 0.363352 0 -0.213434
v -0.363341 0 -0.213426
v 0.213352 0 -0.363434
v -0.213341 0 -0.363428
v 0.213353 0 0.363258
v 0.363353 0 0.213258
v 0.363353 0.15 0.363258
v 0.213352 0 -0.363434
v 0.363352 0.15 -0.363434
v 0.363352 0 -0.213434
v -0.213341 0 0.363266
v -0.363341 0 0.213266
v 0.213353 0 0.363258
v 0.363353 0 0.213258
v -0.363341 0 0.213266
v -0.363341 0 -0.213426
v -0.213341 0 0.363266
v 0.213353 0 0.363258
v 0.363353 0 0.213258
v 0.363352 0 -0.213434
v 0.213352 0 -0.363434
v -0.213341 0 -0.363428
v 0.0357324 0.901495 0.00440702
v -0.00458103 0.919278 -0.040921
v -0.00674246 0.915503 0.039863
v 0.00182521 0.667839 -0.0433253
v -0.0392464 0.671522 -0.00383117
v -0.00135013 0.758684 -0.0412177
v -0.0410858 0.75411 -0.000963084
v 0.00182521 0.667839 -0.0433253
v -0.00135013 0.758684 -0.0412177
v 0.041593 0.671963 -0.000706101
v 0.039623 0.759607 -4.39361e-005
v -0.00200696 0.754975 0.0386383
v -0.00132753 0.675487 0.0371516
v -0.0429865 0.827934 0.000226581
v -0.0451164 0.903537 0.00233943
v -0.00386946 0.826888 -0.0413548
v -0.00458103 0.919278 -0.040921
v 0.0378892 0.82979 -0.000578715
v -0.00386946 0.826888 -0.0413548
v 0.0357324 0.901495 0.00440702
v -0.00458103 0.919278 -0.040921
v -0.00674246 0.915503 0.039863
v -0.0031527 0.830718 0.0394525
v -0.0451164 0.903537 0.00233943

vn 1 0 -6.55651e-007
vn 1 0 -6.55651e-007
vn 1 0 -6.55651e-007
vn 1 0 -6.55651e-007
vn 0.577148 0.577148 0.577148
vn 0.577148 0.577148 0.577148
vn 0.577148 0.577148 0.577148
vn -1 0 6.55651e-007
vn -1 0 6.55651e-007
vn -1 0 6.55651e-007
vn -1 0 6.55651e-007
vn 1.04308e-005 0 1
vn 1.04308e-005 0 1
vn 1.04308e-005 0 1
vn 1.04308e-005 0 1
vn -1 -1.19209e-007 7.7486e-007
vn -1 -1.19209e-007 7.7486e-007
vn -1 -1.19209e-007 7.7486e-007
vn -1 -1.19209e-007 7.7486e-007
vn -1.04308e-005 0 -1
vn -1.04308e-005 0 -1
vn -1.04308e-005 0 -1
vn -1.04308e-005 0 -1
vn 0 0 1
vn 0 0 1
vn 0 0 1
vn 0 0 1
vn -1 0 0
vn -1 0 0
vn -1 0 0
vn -1 0 0
vn 0 0 -1
vn 0 0 -1
vn 0 0 -1
vn 0 0 -1
vn 1 0 0
vn 1 0 0
vn 1 0 0
vn 1 0 0
vn 3.8147e-006 -0.664551 0.74707
vn 3.8147e-006 -0.664551 0.74707
vn 3.8147e-006 -0.664551 0.74707
vn 3.8147e-006 -0.664551 0.74707
vn 3.8147e-006 0.664551 0.74707
vn 3.8147e-006 0.664551 0.74707
vn 3.8147e-006 0.664551 0.74707
vn 3.8147e-006 0.664551 0.74707
vn -0.74707 0.664551 2.38419e-007
vn -0.74707 0.664551 2.38419e-007
vn -0.74707 0.664551 2.38419e-007
vn -0.74707 0.664551 2.38419e-007
vn -0.74707 -0.664551 2.38419e-007
vn -0.74707 -0.664551 2.38419e-007
vn -0.74707 -0.664551 2.38419e-007
vn -0.74707 -0.664551 2.38419e-007
vn -3.8147e-006 -0.664551 -0.74707
vn -3.8147e-006 -0.664551 -0.74707
vn -3.8147e-006 -0.664551 -0.74707
vn -3.8147e-006 -0.664551 -0.74707
vn -3.8147e-006 0.664551 -0.74707
vn -3.8147e-006 0.664551 -0.74707
vn -3.8147e-006 0.664551 -0.74707
vn -3.8147e-006 0.664551 -0.74707
vn 0.74707 -0.664551 -2.38419e-007
vn 0.74707 -0.664551 -2.38419e-007
vn 0.74707 -0.664551 -2.38419e-007
vn 0.74707 -0.664551 -2.38419e-007
vn 0.74707 0.664551 -1.78814e-007
vn 0.74707 0.664551 -1.78814e-007
vn 0.74707 0.664551 -1.78814e-007
vn 0.74707 0.664551 -1.78814e-007
vn -0.297607 0.803223 -0.515625
vn -0.515625 0.803223 -0.297607
vn -0.0923462 0.982422 -0.159912
vn -0.159912 0.982422 -0.0923462
vn -0.595215 0.803223 1.19209e-007
vn -0.184692 0.982422 -2.98023e-007
vn -0.515625 0.803223 0.297607
vn -0.159912 0.982422 0.0923462
vn -0.297607 0.803223 0.515625
vn -0.0923462 0.982422 0.159912
vn 1.59144e-005 0.803223 0.595215
vn 7.09295e-006 0.982422 0.184692
vn 0.297607 0.803223 0.515625
vn 0.0923462 0.982422 0.159912
vn 0.515625 0.803223 0.297607
vn 0.159912 0.982422 0.0923462
vn 0.595215 0.803223 0
vn 0.184692 0.982422 3.57628e-007
vn 0.515625 0.803223 -0.297607
vn 0.159912 0.982422 -0.0923462
vn 0.297607 0.803223 -0.515625
vn 0.0923462 0.982422 -0.159912
vn -1.59144e-005 0.803223 -0.595215
vn -7.09295e-006 0.982422 -0.184692
vn 0 1 0
vn 0.577148 0.577148 -0.577148
vn 0.577148 0.577148 -0.577148
vn 0.577148 0.577148 -0.577148
vn 1.31726e-005 0 1
vn 1.31726e-005 0 1
vn 1.31726e-005 0 1
vn 1.31726e-005 0 1
vn 1 0 -7.7486e-007
vn 1 0 -7.7486e-007
vn 1 0 -7.7486e-007
vn 1 0 -7.7486e-007
vn -0.577148 0.577148 0.577148
vn -0.577148 0.577148 0.577148
vn -0.577148 0.577148 0.577148
vn 1 0 -6.55651e-007
vn 1 0 -6.55651e-007
vn 0 1 0
vn 0 1 0
vn 0 1 0
vn 0 1 0
vn -0.577148 0.577148 -0.577148
vn -0.577148 0.577148 -0.577148
vn -0.577148 0.577148 -0.577148
vn -1 0 6.55651e-007
vn -1 0 6.55651e-007
vn 1.04308e-005 0 1
vn 1.04308e-005 0 1
vn -1.31726e-005 0 -1
vn -1.31726e-005 0 -1
vn 0 1 0
vn 0 1 0
vn 0 1 0
vn 0 1 0
vn -1.04308e-005 0 -1
vn -1.04308e-005 0 -1
vn -1.04308e-005 0 -1
vn -1.04308e-005 0 -1
vn -0.577148 -0.577148 -0.577148
vn -0.577148 -0.577148 -0.577148
vn -0.577148 -0.577148 -0.577148
vn -0.577148 -0.577148 0.577148
vn -0.577148 -0.577148 0.577148
vn -0.577148 -0.577148 0.577148
vn 0 -1 0
vn 0 -1 0
vn 0 -1 0
vn 0 -1 0
vn 0.577148 -0.577148 0.577148
vn 0.577148 -0.577148 0.577148
vn 0.577148 -0.577148 0.577148
vn 0.577148 -0.577148 -0.577148
vn 0.577148 -0.577148 -0.577148
vn 0.577148 -0.577148 -0.577148
vn 0 -1 0
vn 0 -1 0
vn 0 -1 0
vn 0 -1 0
vn -1 1.19209e-007 7.7486e-007
vn -1 1.19209e-007 7.7486e-007
vn 1.31726e-005 0 1
vn 1.31726e-005 0 1
vn 1 0 -7.7486e-007
vn 1 0 -7.7486e-007
vn -1.17421e-005 5.72205e-006 -1
vn -1.17421e-005 5.72205e-006 -1
vn 0.977539 0.209717 0.010788
vn -0.00835419 0.299072 -0.954102
vn -0.0403748 0.290771 0.955566
vn 0.0531006 0.0233612 -0.998047
vn -0.993164 -0.0186005 -0.11377
vn 0.0177765 0.0129776 -0.999512
vn -0.999512 -0.0239868 -0.0157623
vn 0.0531006 0.0233612 -0.998047
vn 0.0177765 0.0129776 -0.999512
vn 0.997559 0.0252686 -0.058197
vn 0.999512 0.0233002 0.0078125
vn -0.00786591 -0.0141449 0.999512
vn -0.00876617 -0.0194092 0.999512
vn -0.999512 -0.0266418 -0.00849152
vn -0.98584 0.165527 -0.0207825
vn -0.0142059 0.0130463 -0.999512
vn -0.00835419 0.299072 -0.954102
vn 0.999512 0.0246429 -0.016037
vn -0.0142059 0.0130463 -0.999512
vn 0.977539 0.209717 0.010788
vn -0.00835419 0.299072 -0.954102
vn -0.0403748 0.290771 0.955566
vn -0.0110321 -0.0171814 0.999512
vn -0.98584 0.165527 -0.0207825

vt 0.454695 0.484854
vt 0.654328 0.48485
vt 0.454695 0.535951
vt 0.654328 0.535948
vt 0.164544 0.124073
vt 0.131997 0.0108719
vt 0.196402 0.0108719
vt 0.654328 0.535949
vt 0.454695 0.53595
vt 0.654328 0.48485
vt 0.454695 0.484854
vt 0.454695 0.484854
vt 0.654328 0.48485
vt 0.454695 0.53595
vt 0.654328 0.535948
vt 0.613382 0.675582
vt 0.495457 0.675577
vt 0.654328 0.592939
vt 0.454695 0.592934
vt 0.454695 0.551611
vt 0.654328 0.551613
vt 0.454695 0.592935
vt 0.654328 0.592939
vt 0.452065 0.0638232
vt 0.988826 0.0638232
vt 0.452065 0.233181
vt 0.988826 0.233181
vt 0.988826 0.233181
vt 0.452065 0.233181
vt 0.988826 0.0638232
vt 0.452065 0.0638232
vt 0.452065 0.0638232
vt 0.988826 0.0638232
vt 0.452065 0.233181
vt 0.988826 0.233181
vt 0.452065 0.0638232
vt 0.988826 0.0638232
vt 0.452065 0.233181
vt 0.988826 0.233181
vt 0.452065 0.0169452
vt 0.988826 0.0169452
vt 0.452065 0.0387344
vt 0.988826 0.0387344
vt 0.988826 0.281757
vt 0.452065 0.281757
vt 0.988826 0.257681
vt 0.452065 0.257681
vt 0.988826 0.281757
vt 0.452065 0.281757
vt 0.988826 0.257681
vt 0.452065 0.257681
vt 0.452065 0.0169452
vt 0.988826 0.0169452
vt 0.452065 0.0387344
vt 0.988826 0.0387344
vt 0.452065 0.0169452
vt 0.988826 0.0169452
vt 0.452065 0.0387344
vt 0.988826 0.0387344
vt 0.988826 0.281757
vt 0.452065 0.281757
vt 0.988826 0.257681
vt 0.452065 0.257681
vt 0.452065 0.0169452
vt 0.988826 0.0169452
vt 0.452065 0.0387344
vt 0.988826 0.0387344
vt 0.988826 0.281757
vt 0.452065 0.281757
vt 0.988826 0.257681
vt 0.452065 0.257681
vt 0.829453 0.5749
vt 0.867911 0.651811
vt 0.82085 0.604698
vt 0.853011 0.669021
vt 0.881988 0.756882
vt 0.864782 0.756882
vt 0.867911 0.861954
vt 0.853011 0.844749
vt 0.829453 0.938871
vt 0.82085 0.909072
vt 0.776918 0.967026
vt 0.776918 0.932611
vt 0.724383 0.938865
vt 0.732986 0.909066
vt 0.685925 0.861954
vt 0.700825 0.844744
vt 0.671848 0.756882
vt 0.689054 0.756882
vt 0.685925 0.651811
vt 0.700825 0.669015
vt 0.724383 0.574893
vt 0.732986 0.604693
vt 0.776918 0.546739
vt 0.776918 0.581153
vt 0.776918 0.756882
vt 0.117345 0.0108719
vt 0.148079 0.124073
vt 0.0836947 0.124073
vt 0.454695 0.592934
vt 0.654328 0.592939
vt 0.495457 0.675577
vt 0.613382 0.675582
vt 0.454695 0.592934
vt 0.654328 0.592939
vt 0.495457 0.675577
vt 0.613382 0.675582
vt 0.117345 0.0108719
vt 0.148079 0.124073
vt 0.0836947 0.124073
vt 0.454695 0.551611
vt 0.654328 0.551613
vt 0.275905 0.555938
vt 0.233321 0.472613
vt 0.275905 0.146924
vt 0.233321 0.232015
vt 0.164544 0.124073
vt 0.131997 0.0108719
vt 0.196402 0.0108719
vt 0.654328 0.551613
vt 0.454695 0.551611
vt 0.454695 0.551611
vt 0.654328 0.551613
vt 0.495457 0.675577
vt 0.613382 0.675582
vt 0.394195 0.555938
vt 0.394195 0.146925
vt 0.436779 0.472612
vt 0.436779 0.232014
vt 0.454695 0.484854
vt 0.654328 0.48485
vt 0.454695 0.53595
vt 0.654328 0.535949
vt 0.164544 0.124073
vt 0.131997 0.0108719
vt 0.196402 0.0108719
vt 0.117345 0.0108719
vt 0.148079 0.124073
vt 0.0836947 0.124073
vt 0.217192 0.232096
vt 0.0129599 0.231863
vt 0.174457 0.146552
vt 0.0559076 0.146431
vt 0.164544 0.124073
vt 0.131997 0.0108719
vt 0.196402 0.0108719
vt 0.117345 0.0108719
vt 0.148079 0.124073
vt 0.0836947 0.124073
vt 0.0559076 0.555938
vt 0.0129599 0.472771
vt 0.174457 0.555938
vt 0.217192 0.472915
vt 0.613382 0.401634
vt 0.495457 0.401639
vt 0.495457 0.401639
vt 0.613382 0.401634
vt 0.495457 0.401639
vt 0.613382 0.401634
vt 0.495457 0.401639
vt 0.613382 0.401634
vt 0.936827 0.55859
vt 0.96386 0.55859
vt 0.936827 0.613484
vt 0.855095 0.51321
vt 0.855095 0.464026
vt 0.896237 0.51321
vt 0.896237 0.464026
vt 0.855095 0.316026
vt 0.896237 0.316026
vt 0.855095 0.362793
vt 0.896237 0.362793
vt 0.896237 0.415984
vt 0.855095 0.415984
vt 0.936429 0.464026
vt 0.984796 0.464026
vt 0.936429 0.51321
vt 0.984796 0.51321
vt 0.936429 0.362793
vt 0.936429 0.316026
vt 0.984796 0.362793
vt 0.984796 0.316026
vt 0.984796 0.415984
vt 0.936429 0.415984
vt 0.96386 0.613484


#
# MESH 000
#
g surface_000
usemtl surface_000
f 147/147/147 148/148/148 149/149/149
f 144/144/144 145/145/145 146/146/146
f 137/137/137 138/138/138 139/139/139
f 134/134/134 135/135/135 136/136/136
f 117/117/117 118/118/118 119/119/119
f 108/108/108 109/109/109 110/110/110
f 97/97/97 98/98/98 99/99/99
f 5/5/5 6/6/6 7/7/7
f 163/163/163 185/185/185 164/164/164
f 162/162/162 163/163/163 164/164/164
f 181/181/181 180/180/180 182/182/182
f 179/179/179 180/180/180 181/181/181
f 172/172/172 180/180/180 179/179/179
f 170/170/170 180/180/180 172/172/172
f 171/171/171 170/170/170 172/172/172
f 169/169/169 170/170/170 171/171/171
f 181/181/181 184/184/184 179/179/179
f 184/184/184 172/172/172 179/179/179
f 173/173/173 172/172/172 184/184/184
f 173/173/173 174/174/174 172/172/172
f 172/172/172 174/174/174 171/171/171
f 183/183/183 184/184/184 181/181/181
f 183/183/183 176/176/176 184/184/184
f 184/184/184 176/176/176 175/175/175
f 175/175/175 173/173/173 184/184/184
f 168/168/168 173/173/173 175/175/175
f 168/168/168 174/174/174 173/173/173
f 166/166/166 174/174/174 168/168/168
f 167/167/167 166/166/166 168/168/168
f 165/165/165 166/166/166 167/167/167
f 175/175/175 176/176/176 177/177/177
f 167/167/167 175/175/175 177/177/177
f 168/168/168 175/175/175 167/167/167
f 177/177/177 176/176/176 178/178/178
f 160/160/160 161/161/161 130/130/130
f 130/130/130 161/161/161 131/131/131
f 130/130/130 131/131/131 132/132/132
f 132/132/132 131/131/131 133/133/133
f 158/158/158 159/159/159 1/1/1
f 1/1/1 159/159/159 2/2/2
f 1/1/1 2/2/2 3/3/3
f 3/3/3 2/2/2 4/4/4
f 156/156/156 157/157/157 12/12/12
f 12/12/12 157/157/157 13/13/13
f 12/12/12 13/13/13 14/14/14
f 14/14/14 13/13/13 15/15/15
f 154/154/154 11/11/11 155/155/155
f 10/10/10 11/11/11 154/154/154
f 10/10/10 9/9/9 11/11/11
f 8/8/8 9/9/9 10/10/10
f 150/150/150 151/151/151 152/152/152
f 152/152/152 151/151/151 153/153/153
f 153/153/153 151/151/151 140/140/140
f 140/140/140 151/151/151 141/141/141
f 140/140/140 141/141/141 142/142/142
f 142/142/142 141/141/141 143/143/143
f 128/128/128 127/127/127 129/129/129
f 126/126/126 127/127/127 128/128/128
f 126/126/126 115/115/115 127/127/127
f 113/113/113 115/115/115 126/126/126
f 113/113/113 114/114/114 115/115/115
f 115/115/115 114/114/114 116/116/116
f 124/124/124 23/23/23 125/125/125
f 22/22/22 23/23/23 124/124/124
f 22/22/22 21/21/21 23/23/23
f 20/20/20 21/21/21 22/22/22
f 122/122/122 123/123/123 100/100/100
f 100/100/100 123/123/123 101/101/101
f 100/100/100 101/101/101 102/102/102
f 102/102/102 101/101/101 103/103/103
f 120/120/120 19/19/19 121/121/121
f 18/18/18 19/19/19 120/120/120
f 18/18/18 17/17/17 19/19/19
f 16/16/16 17/17/17 18/18/18
f 111/111/111 112/112/112 104/104/104
f 104/104/104 112/112/112 105/105/105
f 104/104/104 105/105/105 106/106/106
f 106/106/106 105/105/105 107/107/107
f 70/70/70 69/69/69 71/71/71
f 68/68/68 69/69/69 70/70/70
f 66/66/66 65/65/65 67/67/67
f 64/64/64 65/65/65 66/66/66
f 62/62/62 61/61/61 63/63/63
f 60/60/60 61/61/61 62/62/62
f 58/58/58 57/57/57 59/59/59
f 56/56/56 57/57/57 58/58/58
f 54/54/54 53/53/53 55/55/55
f 52/52/52 53/53/53 54/54/54
f 50/50/50 49/49/49 51/51/51
f 48/48/48 49/49/49 50/50/50
f 46/46/46 45/45/45 47/47/47
f 44/44/44 45/45/45 46/46/46
f 42/42/42 41/41/41 43/43/43
f 40/40/40 41/41/41 42/42/42
f 38/38/38 37/37/37 39/39/39
f 36/36/36 37/37/37 38/38/38
f 34/34/34 33/33/33 35/35/35
f 32/32/32 33/33/33 34/34/34
f 30/30/30 29/29/29 31/31/31
f 28/28/28 29/29/29 30/30/30
f 26/26/26 25/25/25 27/27/27
f 24/24/24 25/25/25 26/26/26
f 94/94/94 72/72/72 95/95/95
f 95/95/95 72/72/72 74/74/74
f 95/95/95 74/74/74 96/96/96
f 93/93/93 95/95/95 96/96/96
f 93/93/93 94/94/94 95/95/95
f 92/92/92 94/94/94 93/93/93
f 91/91/91 92/92/92 93/93/93
f 90/90/90 92/92/92 91/91/91
f 72/72/72 73/73/73 74/74/74
f 74/74/74 73/73/73 75/75/75
f 74/74/74 75/75/75 96/96/96
f 73/73/73 76/76/76 75/75/75
f 75/75/75 76/76/76 77/77/77
f 75/75/75 77/77/77 96/96/96
f 76/76/76 78/78/78 77/77/77
f 77/77/77 78/78/78 79/79/79
f 77/77/77 79/79/79 96/96/96
f 78/78/78 80/80/80 79/79/79
f 79/79/79 80/80/80 81/81/81
f 79/79/79 81/81/81 96/96/96
f 80/80/80 82/82/82 81/81/81
f 81/81/81 82/82/82 83/83/83
f 81/81/81 83/83/83 96/96/96
f 83/83/83 85/85/85 96/96/96
f 85/85/85 87/87/87 96/96/96
f 87/87/87 89/89/89 96/96/96
f 89/89/89 91/91/91 96/96/96
f 91/91/91 93/93/93 96/96/96
f 82/82/82 84/84/84 83/83/83
f 83/83/83 84/84/84 85/85/85
f 84/84/84 86/86/86 85/85/85
f 85/85/85 86/86/86 87/87/87
f 86/86/86 88/88/88 87/87/87
f 87/87/87 88/88/88 89/89/89
f 88/88/88 90/90/90 89/89/89
f 89/89/89 90/90/90 91/91/91

