#
# OBJECT NAME
#
o model_3321
mtllib 3321.mtl

#
# VERTEX BUFFER 000
#
v -0.360781 0.0410649 -0.491024
v -0.339858 0 -0.515354
v -0.940957 0 -0.520018
v -0.920002 0.0365889 -0.500924
v -0.328635 0 -0.286993
v -0.342846 0.0429449 -0.319291
v -0.917736 0.0404783 -0.299794
v -0.94181 0 -0.271008
v -0.976061 0.0381463 -0.343867
v -1.00309 0 -0.334419
v -0.318232 0.0391225 -0.338177
v -0.296979 0 -0.318831
v -0.306551 0 -0.490543
v -0.328243 0.0389194 -0.468836
v -0.306551 0 -0.490543
v -0.296979 0 -0.318831
v -0.328635 0 -0.286993
v -0.339858 0 -0.515354
v -0.949614 0.04372 -0.397785
v -0.977881 0.0364905 -0.445697
v -1.00491 0 -0.454497
v -0.940957 0 -0.520018
v -0.94181 0 -0.271008
v -1.00309 0 -0.334419
v -1.00491 0 -0.454497
v -0.922885 0.0351017 0.502439
v -0.943969 0 0.526085
v -0.42686 0 0.52058
v -0.442519 0.0312756 0.506593
v -0.956733 0 0.303177
v -0.949791 0.0367087 0.331376
v -0.46398 0.0346003 0.305307
v -0.442284 0 0.287175
v -0.409244 0.0326069 0.344722
v -0.388642 0 0.33554
v -0.99871 0 0.381961
v -0.972289 0.0337506 0.380512
v -0.388642 0 0.33554
v -0.99871 0 0.381961
v -0.956733 0 0.303177
v -0.442284 0 0.287175
v -0.96856 0.035026 0.442621
v -0.996574 0 0.443137
v -0.406884 0.0311916 0.453187
v -0.38363 0 0.461739
v -0.943969 0 0.526085
v -0.996574 0 0.443137
v -0.38363 0 0.461739
v -0.42686 0 0.52058
v -0.325075 0.0351017 0.494574
v -0.341519 0 0.517913
v 0.288219 0 0.528673
v 0.273097 0.0312756 0.514868
v -0.354939 0 0.283225
v -0.344221 0.0367087 0.316514
v 0.251654 0.0346003 0.300708
v 0.272606 0 0.282812
v 0.30451 0.0326069 0.347446
v 0.320133 0 0.338384
v -0.389461 0 0.375668
v -0.363605 0.0337506 0.374237
v 0.320133 0 0.338384
v -0.389461 0 0.375668
v -0.354939 0 0.283225
v 0.272606 0 0.282812
v -0.360697 0.035026 0.435537
v -0.387795 0 0.436046
v 0.307508 0.0311916 0.459637
v 0.323131 0 0.468079
v -0.341519 0 0.517913
v -0.387795 0 0.436046
v 0.323131 0 0.468079
v 0.288219 0 0.528673
v 0.962499 0.0331246 0.501415
v 0.37407 0.0371769 0.497364
v 0.356654 0 0.52057
v 0.978515 0 0.515141
v 0.346111 0 0.282404
v 0.351845 0.0388789 0.313241
v 0.940457 0.0366458 0.298068
v 0.962648 0 0.280274
v 0.997175 0.0345346 0.340103
v 1.01372 0 0.331092
v 0.311437 0 0.362882
v 0.337165 0.035746 0.361459
v 1.01372 0 0.331092
v 0.311437 0 0.362882
v 0.346111 0 0.282404
v 0.962648 0 0.280274
v 0.336342 0.0370967 0.438663
v 0.313202 0 0.439169
v 0.998945 0.0330356 0.446499
v 1.01549 0 0.454892
v 0.356654 0 0.52057
v 0.313202 0 0.439169
v 1.01549 0 0.454892
v 0.978515 0 0.515141
v -0.812659 0.0201602 0.234712
v -0.889704 0 0.288078
v 0.935225 0 0.27981
v 0.892417 0.015283 0.246415
v -0.912459 0 -0.274473
v -0.877511 0.0226944 -0.218705
v 0.926751 0.0190103 -0.209624
v 0.958855 0 -0.263418
v -0.994818 0 -0.111391
v -0.934459 0.0209772 -0.104103
v 0.959278 0.0191123 -0.141848
v 1.01858 0 -0.167067
v -0.994818 0 -0.111391
v -0.912459 0 -0.274473
v 0.958855 0 -0.263418
v 1.01307 0 0.177384
v 0.955795 0.0134161 0.153309
v 1.01858 0 -0.167067
v -0.9293 0.0225151 0.0952602
v -0.991909 0 0.0964247
v -0.889704 0 0.288078
v -0.991909 0 0.0964247
v 1.01307 0 0.177384
v 0.935225 0 0.27981
v 0.444238 0.0344129 -0.481842
v 0.960091 0.0376138 -0.461386
v 0.963174 0 -0.494567
v 0.426037 0 -0.508446
v 0.460407 0 -0.27813
v 0.958855 0 -0.263418
v 0.966674 0.0385934 -0.310255
v 0.472748 0.038071 -0.304701
v 0.998813 0 -0.299564
v 0.998227 0 -0.469693
v 0.998227 0 -0.469693
v 0.998813 0 -0.299564
v 0.958855 0 -0.263418
v 0.963174 0 -0.494567
v 0.392027 0 -0.468739
v 0.424862 0.0370801 -0.446329
v 0.43076 0.0394775 -0.335165
v 0.400145 0 -0.320918
v 0.392027 0 -0.468739
v 0.426037 0 -0.508446
v 0.460407 0 -0.27813
v 0.400145 0 -0.320918
v -0.262221 0.035049 -0.493053
v 0.32847 0.0345165 -0.486636
v 0.34632 0 -0.51042
v -0.277343 0 -0.506013
v -0.26173 0 -0.28915
v 0.357126 0 -0.280427
v 0.351248 0.0411375 -0.31437
v -0.240778 0.0293544 -0.305951
v 0.367493 0.037476 -0.332832
v 0.399872 0 -0.300744
v 0.390712 0 -0.486167
v 0.3609 0.0324612 -0.464947
v 0.390712 0 -0.486167
v 0.399872 0 -0.300744
v 0.357126 0 -0.280427
v 0.34632 0 -0.51042
v -0.305623 0 -0.465607
v -0.278697 0.0365091 -0.455846
v -0.271261 0.0361953 -0.336649
v -0.304338 0 -0.326807
v -0.305623 0 -0.465607
v -0.277343 0 -0.506013
v -0.26173 0 -0.28915
v -0.304338 0 -0.326807

vn 0.0091629 0.974609 -0.2229
vn 0.0556335 0.506836 -0.859863
vn -0.0974731 0.523438 -0.846191
vn -0.0138168 0.974121 -0.223999
vn 0.0556641 0.595215 0.80127
vn 0.0158691 0.976563 0.212402
vn -0.00874329 0.978516 0.205566
vn -0.0621643 0.60791 0.791016
vn -0.61084 0.751465 0.247437
vn -0.725586 0.634277 0.265381
vn 0.636719 0.769043 0.0456848
vn 0.828125 0.544922 0.12793
vn 0.802734 0.548828 -0.231201
vn 0.612793 0.77832 -0.134399
vn 0 -1 0
vn 0 -1 0
vn 0 -1 0
vn 0 -1 0
vn -0.00485229 0.999512 -0.0153198
vn -0.627441 0.743164 -0.231934
vn -0.745117 0.619141 -0.246216
vn 0 -1 0
vn 0 -1 0
vn 0 -1 0
vn 0 -1 0
vn -0.0379944 0.924805 0.37793
vn -0.136475 0.544922 0.827148
vn 0.110107 0.52832 0.841797
vn 0.0378113 0.922852 0.383057
vn -0.108032 0.554688 -0.824219
vn -0.0716553 0.919922 -0.384277
vn 0.00980377 0.916504 -0.398926
vn 0.0649414 0.561035 -0.824707
vn 0.101074 0.994141 -0.0270691
vn 0.748047 0.605957 -0.269287
vn -0.796387 0.58252 -0.161011
vn -0.0673828 0.997559 -0.0052681
vn 0 -1 0
vn 0 -1 0
vn 0 -1 0
vn 0 -1 0
vn -0.0669556 0.99707 0.0307922
vn -0.731934 0.630859 0.256836
vn 0.0932617 0.995117 0.0173035
vn 0.788574 0.591309 0.168091
vn 0 -1 0
vn 0 -1 0
vn 0 -1 0
vn 0 -1 0
vn -0.0444946 0.92627 0.373291
vn -0.120544 0.522461 0.84375
vn 0.071228 0.512207 0.855469
vn 0.0230255 0.92041 0.38916
vn -0.0787354 0.599609 -0.795898
vn -0.0569153 0.929199 -0.364502
vn 0.0188599 0.932617 -0.359131
vn 0.0748291 0.59375 -0.800781
vn 0.0848389 0.996094 -0.0149689
vn 0.811523 0.516602 -0.271973
vn -0.803711 0.57959 -0.131714
vn -0.0562744 0.998047 0.0023365
vn 0 -1 0
vn 0 -1 0
vn 0 -1 0
vn 0 -1 0
vn -0.0527344 0.998047 0.0203094
vn -0.762207 0.605469 0.227783
vn 0.0800781 0.996582 0.0120544
vn 0.856934 0.485596 0.170166
vn 0 -1 0
vn 0 -1 0
vn 0 -1 0
vn 0 -1 0
vn 0.033844 0.914551 0.402344
vn -0.036438 0.916992 0.39624
vn -0.105164 0.497803 0.860352
vn 0.0953979 0.489502 0.866211
vn -0.0709839 0.552246 -0.830078
vn -0.0599976 0.90918 -0.411621
vn 0.0177002 0.913086 -0.406738
vn 0.072876 0.552246 -0.830078
vn 0.0863037 0.995605 -0.0195465
vn 0.804199 0.515625 -0.293701
vn -0.839844 0.526855 -0.129028
vn -0.0588989 0.998047 0.00311852
vn 0 -1 0
vn 0 -1 0
vn 0 -1 0
vn 0 -1 0
vn -0.0626831 0.997559 0.020462
vn -0.802734 0.55957 0.204834
vn 0.0795898 0.996582 0.014122
vn 0.854004 0.484375 0.188477
vn 0 -1 0
vn 0 -1 0
vn 0 -1 0
vn 0 -1 0
vn -0.00460434 0.992676 0.119263
vn -0.0685425 0.945801 0.316895
vn 0.0327454 0.938965 0.342041
vn 0.0065155 0.992676 0.120422
vn -0.0240631 0.939453 -0.341309
vn -0.0089798 0.989746 -0.139526
vn 0.00793457 0.990234 -0.138184
vn 0.0171509 0.937988 -0.345703
vn -0.330811 0.941895 -0.0578308
vn -0.0115433 0.999512 0.00531387
vn 0.0157471 0.999512 0.00713348
vn 0 -1 0
vn 0 -1 0
vn 0 -1 0
vn 0 -1 0
vn 0.249512 0.966797 0.0480957
vn 0.0158386 0.999512 0.00866699
vn 0.268799 0.962402 -0.0315552
vn -0.0118942 0.999512 0.0121231
vn -0.28833 0.95459 0.0739746
vn 0 -1 0
vn 0 -1 0
vn 0 -1 0
vn 0 -1 0
vn -0.00652695 0.980469 -0.196289
vn 0.0639648 0.980957 -0.181885
vn 0.0374756 0.636719 -0.77002
vn -0.0376282 0.65625 -0.75293
vn -0.0588684 0.689453 0.72168
vn 0.00728226 0.692871 0.720703
vn 0.065979 0.986328 0.14856
vn -0.0106812 0.990234 0.136719
vn 0.726563 0.684082 0.0591431
vn 0.725098 0.684082 -0.0726318
vn 0 -1 0
vn 0 -1 0
vn 0 -1 0
vn 0 -1 0
vn -0.726563 0.67627 -0.118774
vn -0.0508728 0.998535 -0.0179138
vn -0.0556641 0.998047 0.00627518
vn -0.712891 0.658691 0.239014
vn 0 -1 0
vn 0 -1 0
vn 0 -1 0
vn 0 -1 0
vn -0.0124664 0.983887 -0.175781
vn 0.0046196 0.979492 -0.199341
vn 0.0443115 0.497803 -0.865723
vn -0.067688 0.490723 -0.868164
vn -0.0654297 0.601074 0.795898
vn 0.0228119 0.59668 0.801758
vn 0.00577164 0.981445 0.190308
vn -0.00991058 0.986816 0.161377
vn 0.556152 0.830078 0.0243225
vn 0.699707 0.703613 0.122498
vn 0.695313 0.694336 -0.184814
vn 0.546875 0.825195 -0.139404
vn 0 -1 0
vn 0 -1 0
vn 0 -1 0
vn 0 -1 0
vn -0.772461 0.628418 -0.0866089
vn -0.0387268 0.999023 -0.00453186
vn -0.0397339 0.999023 0.00818634
vn -0.730469 0.661621 0.166748
vn 0 -1 0
vn 0 -1 0
vn 0 -1 0
vn 0 -1 0

vt 0.306818 0.960307
vt 0.316407 0.981331
vt 0.0409115 0.985361
vt 0.0459277 0.968862
vt 0.321551 0.786837
vt 0.315037 0.811908
vt 0.0469661 0.795061
vt 0.0365079 0.778939
vt 0.0202348 0.833145
vt 0.0124364 0.824981
vt 0.326318 0.828228
vt 0.336059 0.811512
vt 0.331672 0.959892
vt 0.32173 0.941134
vt 0.331672 0.959892
vt 0.336059 0.811512
vt 0.321551 0.786837
vt 0.316407 0.981331
vt 0.0323561 0.879737
vt 0.0194005 0.921139
vt 0.0116021 0.928743
vt 0.0409115 0.985361
vt 0.0365079 0.778939
vt 0.0124364 0.824981
vt 0.0116021 0.928743
vt 0.0510128 0.0352283
vt 0.0326164 0.0056777
vt 0.295026 0.0110287
vt 0.284231 0.0316598
vt 0.0275173 0.218333
vt 0.0408354 0.185692
vt 0.274167 0.208619
vt 0.28739 0.233498
vt 0.299727 0.174059
vt 0.31178 0.187557
vt 0.0107329 0.143269
vt 0.032284 0.142541
vt 0.31178 0.187557
vt 0.0107329 0.143269
vt 0.0275173 0.218333
vt 0.28739 0.233498
vt 0.0337403 0.0878174
vt 0.0115917 0.084758
vt 0.300844 0.0785118
vt 0.312946 0.0670416
vt 0.0326164 0.0056777
vt 0.0115917 0.084758
vt 0.312946 0.0670416
vt 0.295026 0.0110287
vt 0.349334 0.0459709
vt 0.335746 0.00902313
vt 0.633236 0.00342572
vt 0.625424 0.0280079
vt 0.333507 0.227579
vt 0.344828 0.204111
vt 0.615193 0.214115
vt 0.627577 0.238887
vt 0.64029 0.176689
vt 0.651407 0.189132
vt 0.317554 0.153653
vt 0.330944 0.152883
vt 0.651407 0.189132
vt 0.317554 0.153653
vt 0.333507 0.227579
vt 0.627577 0.238887
vt 0.332374 0.0983634
vt 0.31837 0.0960287
vt 0.641727 0.0769184
vt 0.652867 0.0655396
vt 0.335746 0.00902313
vt 0.31837 0.0960287
vt 0.652867 0.0655396
vt 0.633236 0.00342572
vt 0.952872 0.0425733
vt 0.687819 0.0400072
vt 0.675387 0.00710696
vt 0.968572 0.0127293
vt 0.670419 0.245366
vt 0.677819 0.213724
vt 0.942952 0.220982
vt 0.961097 0.250616
vt 0.968375 0.1842
vt 0.985184 0.199315
vt 0.654081 0.167095
vt 0.671051 0.168324
vt 0.985184 0.199315
vt 0.654081 0.167095
vt 0.670419 0.245366
vt 0.961097 0.250616
vt 0.670879 0.0953606
vt 0.654916 0.0895917
vt 0.969186 0.0906609
vt 0.986016 0.0736758
vt 0.675387 0.00710696
vt 0.654916 0.0895917
vt 0.986016 0.0736758
vt 0.968572 0.0127293
vt 0.0961725 0.27719
vt 0.0702782 0.232782
vt 0.954154 0.273557
vt 0.924461 0.300738
vt 0.0597245 0.758773
vt 0.0812848 0.720889
vt 0.938589 0.697432
vt 0.95992 0.745185
vt 0.0106744 0.582414
vt 0.0425036 0.598056
vt 0.957395 0.621741
vt 0.987028 0.649856
vt 0.0106744 0.582414
vt 0.0597245 0.758773
vt 0.95992 0.745185
vt 0.987045 0.357792
vt 0.960893 0.38038
vt 0.987028 0.649856
vt 0.0374426 0.421073
vt 0.0129251 0.418867
vt 0.0702782 0.232782
vt 0.0129251 0.418867
vt 0.987045 0.357792
vt 0.954154 0.273557
vt 0.709189 0.961046
vt 0.959829 0.94816
vt 0.963812 0.982137
vt 0.70164 0.996273
vt 0.712062 0.764144
vt 0.962246 0.762569
vt 0.956012 0.792895
vt 0.725339 0.791242
vt 0.978123 0.78875
vt 0.978474 0.956664
vt 0.978474 0.956664
vt 0.978123 0.78875
vt 0.962246 0.762569
vt 0.963812 0.982137
vt 0.681469 0.955778
vt 0.697617 0.941402
vt 0.705455 0.809871
vt 0.681754 0.801954
vt 0.681469 0.955778
vt 0.70164 0.996273
vt 0.712062 0.764144
vt 0.681754 0.801954
vt 0.370001 0.962788
vt 0.646152 0.953996
vt 0.660749 0.977421
vt 0.358707 0.985065
vt 0.370235 0.781095
vt 0.658749 0.797577
vt 0.656165 0.822683
vt 0.380233 0.799757
vt 0.665182 0.835538
vt 0.681994 0.823798
vt 0.675342 0.956592
vt 0.660408 0.935369
vt 0.675342 0.956592
vt 0.681994 0.823798
vt 0.658749 0.797577
vt 0.660749 0.977421
vt 0.341813 0.939581
vt 0.355158 0.928102
vt 0.358706 0.828374
vt 0.342403 0.815074
vt 0.341813 0.939581
vt 0.358707 0.985065
vt 0.370235 0.781095
vt 0.342403 0.815074


#
# MESH 000
#
g surface_000
usemtl surface_000
f 22/22/22 24/24/24 25/25/25
f 22/22/22 23/23/23 24/24/24
f 22/22/22 17/17/17 23/23/23
f 22/22/22 18/18/18 17/17/17
f 15/15/15 17/17/17 18/18/18
f 15/15/15 16/16/16 17/17/17
f 21/21/21 10/10/10 9/9/9
f 9/9/9 10/10/10 8/8/8
f 9/9/9 8/8/8 7/7/7
f 9/9/9 7/7/7 19/19/19
f 9/9/9 19/19/19 20/20/20
f 21/21/21 9/9/9 20/20/20
f 3/3/3 21/21/21 20/20/20
f 3/3/3 20/20/20 4/4/4
f 1/1/1 3/3/3 4/4/4
f 1/1/1 2/2/2 3/3/3
f 5/5/5 7/7/7 8/8/8
f 5/5/5 6/6/6 7/7/7
f 19/19/19 7/7/7 6/6/6
f 19/19/19 6/6/6 1/1/1
f 19/19/19 1/1/1 4/4/4
f 4/4/4 20/20/20 19/19/19
f 11/11/11 6/6/6 5/5/5
f 6/6/6 11/11/11 14/14/14
f 6/6/6 14/14/14 1/1/1
f 13/13/13 1/1/1 14/14/14
f 13/13/13 2/2/2 1/1/1
f 11/11/11 5/5/5 12/12/12
f 11/11/11 12/12/12 13/13/13
f 11/11/11 13/13/13 14/14/14
f 46/46/46 48/48/48 49/49/49
f 46/46/46 47/47/47 48/48/48
f 47/47/47 38/38/38 48/48/48
f 47/47/47 39/39/39 38/38/38
f 38/38/38 39/39/39 40/40/40
f 38/38/38 40/40/40 41/41/41
f 45/45/45 35/35/35 34/34/34
f 34/34/34 35/35/35 33/33/33
f 34/34/34 33/33/33 32/32/32
f 32/32/32 37/37/37 34/34/34
f 37/37/37 44/44/44 34/34/34
f 45/45/45 34/34/34 44/44/44
f 45/45/45 44/44/44 29/29/29
f 45/45/45 29/29/29 28/28/28
f 26/26/26 28/28/28 29/29/29
f 26/26/26 27/27/27 28/28/28
f 30/30/30 32/32/32 33/33/33
f 30/30/30 31/31/31 32/32/32
f 32/32/32 31/31/31 37/37/37
f 30/30/30 37/37/37 31/31/31
f 30/30/30 36/36/36 37/37/37
f 37/37/37 36/36/36 43/43/43
f 37/37/37 43/43/43 42/42/42
f 37/37/37 42/42/42 44/44/44
f 42/42/42 29/29/29 44/44/44
f 42/42/42 26/26/26 29/29/29
f 26/26/26 42/42/42 43/43/43
f 26/26/26 43/43/43 27/27/27
f 70/70/70 72/72/72 73/73/73
f 70/70/70 71/71/71 72/72/72
f 71/71/71 62/62/62 72/72/72
f 71/71/71 63/63/63 62/62/62
f 62/62/62 63/63/63 64/64/64
f 62/62/62 64/64/64 65/65/65
f 69/69/69 59/59/59 58/58/58
f 56/56/56 58/58/58 59/59/59
f 56/56/56 61/61/61 58/58/58
f 61/61/61 68/68/68 58/58/58
f 69/69/69 58/58/58 68/68/68
f 69/69/69 68/68/68 53/53/53
f 69/69/69 53/53/53 52/52/52
f 50/50/50 52/52/52 53/53/53
f 50/50/50 51/51/51 52/52/52
f 56/56/56 59/59/59 57/57/57
f 54/54/54 56/56/56 57/57/57
f 54/54/54 55/55/55 56/56/56
f 56/56/56 55/55/55 61/61/61
f 54/54/54 61/61/61 55/55/55
f 54/54/54 60/60/60 61/61/61
f 61/61/61 60/60/60 67/67/67
f 61/61/61 67/67/67 66/66/66
f 61/61/61 66/66/66 68/68/68
f 68/68/68 66/66/66 50/50/50
f 68/68/68 50/50/50 53/53/53
f 50/50/50 66/66/66 67/67/67
f 50/50/50 67/67/67 51/51/51
f 94/94/94 96/96/96 97/97/97
f 94/94/94 95/95/95 96/96/96
f 95/95/95 86/86/86 96/96/96
f 95/95/95 87/87/87 86/86/86
f 86/86/86 87/87/87 88/88/88
f 86/86/86 88/88/88 89/89/89
f 93/93/93 83/83/83 82/82/82
f 80/80/80 82/82/82 83/83/83
f 80/80/80 85/85/85 82/82/82
f 85/85/85 92/92/92 82/82/82
f 93/93/93 82/82/82 92/92/92
f 77/77/77 93/93/93 92/92/92
f 77/77/77 92/92/92 74/74/74
f 74/74/74 76/76/76 77/77/77
f 80/80/80 83/83/83 81/81/81
f 78/78/78 80/80/80 81/81/81
f 78/78/78 79/79/79 80/80/80
f 80/80/80 79/79/79 85/85/85
f 78/78/78 85/85/85 79/79/79
f 78/78/78 84/84/84 85/85/85
f 85/85/85 84/84/84 91/91/91
f 85/85/85 91/91/91 90/90/90
f 85/85/85 90/90/90 92/92/92
f 92/92/92 90/90/90 75/75/75
f 92/92/92 75/75/75 74/74/74
f 74/74/74 75/75/75 76/76/76
f 75/75/75 91/91/91 76/76/76
f 75/75/75 90/90/90 91/91/91
f 118/118/118 120/120/120 121/121/121
f 118/118/118 119/119/119 120/120/120
f 119/119/119 109/109/109 120/120/120
f 119/119/119 110/110/110 109/109/109
f 109/109/109 110/110/110 111/111/111
f 109/109/109 111/111/111 112/112/112
f 113/113/113 115/115/115 108/108/108
f 104/104/104 108/108/108 115/115/115
f 104/104/104 107/107/107 108/108/108
f 107/107/107 114/114/114 108/108/108
f 113/113/113 108/108/108 114/114/114
f 100/100/100 113/113/113 114/114/114
f 100/100/100 114/114/114 101/101/101
f 98/98/98 100/100/100 101/101/101
f 98/98/98 99/99/99 100/100/100
f 104/104/104 115/115/115 105/105/105
f 102/102/102 104/104/104 105/105/105
f 102/102/102 103/103/103 104/104/104
f 104/104/104 103/103/103 107/107/107
f 102/102/102 107/107/107 103/103/103
f 102/102/102 106/106/106 107/107/107
f 107/107/107 106/106/106 117/117/117
f 107/107/107 117/117/117 116/116/116
f 107/107/107 116/116/116 114/114/114
f 116/116/116 101/101/101 114/114/114
f 116/116/116 98/98/98 101/101/101
f 98/98/98 116/116/116 117/117/117
f 98/98/98 117/117/117 99/99/99
f 140/140/140 142/142/142 143/143/143
f 140/140/140 134/134/134 142/142/142
f 140/140/140 135/135/135 134/134/134
f 132/132/132 134/134/134 135/135/135
f 132/132/132 133/133/133 134/134/134
f 140/140/140 141/141/141 135/135/135
f 136/136/136 139/139/139 138/138/138
f 129/129/129 138/138/138 139/139/139
f 122/122/122 138/138/138 129/129/129
f 122/122/122 137/137/137 138/138/138
f 136/136/136 138/138/138 137/137/137
f 125/125/125 136/136/136 137/137/137
f 125/125/125 137/137/137 122/122/122
f 122/122/122 124/124/124 125/125/125
f 122/122/122 123/123/123 124/124/124
f 131/131/131 124/124/124 123/123/123
f 129/129/129 139/139/139 126/126/126
f 126/126/126 128/128/128 129/129/129
f 122/122/122 129/129/129 128/128/128
f 122/122/122 128/128/128 123/123/123
f 128/128/128 131/131/131 123/123/123
f 128/128/128 130/130/130 131/131/131
f 128/128/128 127/127/127 130/130/130
f 126/126/126 127/127/127 128/128/128
f 164/164/164 166/166/166 167/167/167
f 164/164/164 158/158/158 166/166/166
f 164/164/164 159/159/159 158/158/158
f 156/156/156 158/158/158 159/159/159
f 156/156/156 157/157/157 158/158/158
f 164/164/164 165/165/165 159/159/159
f 160/160/160 163/163/163 162/162/162
f 151/151/151 162/162/162 163/163/163
f 144/144/144 162/162/162 151/151/151
f 144/144/144 161/161/161 162/162/162
f 160/160/160 162/162/162 161/161/161
f 147/147/147 160/160/160 161/161/161
f 147/147/147 161/161/161 144/144/144
f 144/144/144 146/146/146 147/147/147
f 144/144/144 145/145/145 146/146/146
f 154/154/154 146/146/146 145/145/145
f 151/151/151 163/163/163 148/148/148
f 148/148/148 150/150/150 151/151/151
f 144/144/144 151/151/151 150/150/150
f 144/144/144 150/150/150 145/145/145
f 150/150/150 155/155/155 145/145/145
f 154/154/154 145/145/145 155/155/155
f 152/152/152 154/154/154 155/155/155
f 152/152/152 153/153/153 154/154/154
f 152/152/152 149/149/149 153/153/153
f 152/152/152 150/150/150 149/149/149
f 148/148/148 149/149/149 150/150/150
f 150/150/150 152/152/152 155/155/155

