#
# OBJECT NAME
#
o model_1110
mtllib 1110.mtl

#
# VERTEX BUFFER 000
#
v -0.453128 1.00222 -0.562886
v -0.566265 1.00222 -0.449749
v -0.396914 1.20941 -0.506672
v -0.510051 1.20941 -0.393535
v -0.566265 1.00222 -0.449749
v -0.0877491 0.502224 0.025388
v -0.510051 1.20941 -0.393535
v 0.499645 0.209407 0.612782
v -0.396914 1.20941 -0.506672
v -0.510051 1.20941 -0.393535
v 0.612782 0.209407 0.499645
v 0.499645 0.209407 0.612782
v -0.453128 1.00222 -0.562886
v -0.396914 1.20941 -0.506672
v 0.0253879 0.502224 -0.0877492
v 0.612782 0.209407 0.499645
v 0.0253879 0.502224 -0.0877492
v -0.0877491 0.502224 0.025388
v -0.453128 1.00222 -0.562886
v -0.566265 1.00222 -0.449749
v -0.5 0 -0.5
v 0.5 0 -0.5
v 0.5 0 0.5
v 0.5 0 -0.5
v -0.5 0 -0.5
v -0.5 1.02421 -0.5
v 0.5 0.25 0.5
v 0.5 0 0.5
v 0.5 0.25 -0.5
v 0.5 0 -0.5
v 0.5 0 -0.5
v -0.5 1.02421 -0.5
v 0.5 0.25 -0.5
v -0.41972 1.16972 -0.5
v -0.451182 1.20118 -0.451182
v 0.5 0.25 0.5
v -0.41972 1.16972 -0.5
v 0.5 0.25 -0.5
v -0.5 0 -0.5
v -0.5 0 0.5
v -0.5 1.02421 -0.5
v -0.5 0 0.5
v -0.5 0.25 0.5
v -0.5 1.02421 -0.5
v -0.5 1.16972 -0.419721
v -0.5 0.25 0.5
v -0.5 0 0.5
v 0.5 0.25 0.5
v 0.5 0 0.5
v -0.451182 1.20118 -0.451182
v -0.5 1.16972 -0.419721
v 0.5 0.25 0.5
v -0.5 0.25 0.5
v -0.5 0 0.5
v 0.556568 0 0.443431
v 0.612782 0.209407 0.499645
v 0.443431 0 0.556568
v 0.499645 0.209407 0.612782
v 0.38107 0.00222397 0.494207
v 0.443431 0 0.556568
v 0.499645 0.209407 0.612782
v 0.443431 0 0.556568
v 0.38107 0.00222397 0.494207
v 0.556568 0 0.443431
v 0.494207 0.00222397 0.38107
v 0.494207 0.00222397 0.38107
v 0.612782 0.209407 0.499645
v 0.556568 0 0.443431
v 0.494207 0.00222397 0.38107
v 0.0253879 0.502224 -0.0877492
v 0.612782 0.209407 0.499645
v 0.494207 0.00222397 0.38107
v 0.38107 0.00222397 0.494207
v 0.0253879 0.502224 -0.0877492
v -0.0877491 0.502224 0.025388
v 0.499645 0.209407 0.612782
v -0.0877491 0.502224 0.025388
v 0.38107 0.00222397 0.494207

vn -0.660156 0.358154 -0.660156
vn -0.660156 0.358154 -0.660156
vn -0.660156 0.358154 -0.660156
vn -0.660156 0.358154 -0.660156
vn -0.707031 -0.00366783 0.706543
vn -0.707031 -0.00366783 0.706543
vn -0.707031 -0.00366783 0.706543
vn -0.707031 -0.00366783 0.706543
vn 0.406006 0.818359 0.406006
vn 0.406006 0.818359 0.406006
vn 0.406006 0.818359 0.406006
vn 0.406006 0.818359 0.406006
vn 0.707031 0.00366783 -0.706543
vn 0.707031 0.00366783 -0.706543
vn 0.707031 0.00366783 -0.706543
vn 0.707031 0.00366783 -0.706543
vn -0.421143 -0.803223 -0.421143
vn -0.421143 -0.803223 -0.421143
vn -0.421143 -0.803223 -0.421143
vn -0.421143 -0.803223 -0.421143
vn 0 -1 0
vn 0 -1 0
vn 0 -1 0
vn 0 0 -1
vn 0 0 -1
vn 0 0 -1
vn 1 0 0
vn 1 0 0
vn 1 0 0
vn 1 0 0
vn 0 0 -1
vn 0 0 -1
vn 0 0 -1
vn 0 0 -1
vn 0.707031 0.707031 2.38419e-007
vn 0.707031 0.707031 0
vn 0.707031 0.707031 2.38419e-007
vn 0.707031 0.707031 0
vn -1 0 0
vn -1 0 0
vn -1 0 0
vn -1 0 0
vn -1 0 0
vn -1 0 0
vn -1 4.17233e-007 5.96046e-007
vn 0 0 1
vn 0 0 1
vn 0 0 1
vn 0 0 1
vn -2.98023e-007 0.707031 0.707031
vn -2.98023e-007 0.707031 0.707031
vn 0 0.707031 0.707031
vn 0 0.707031 0.707031
vn 0 -1 0
vn 0.660645 -0.354736 0.660645
vn 0.660645 -0.354736 0.660645
vn 0.660645 -0.354736 0.660645
vn 0.660645 -0.354736 0.660645
vn -0.707031 -3.57628e-007 0.707031
vn -0.707031 -3.57628e-007 0.707031
vn -0.707031 -3.57628e-007 0.707031
vn -0.0178223 -0.999512 -0.0178223
vn -0.0178223 -0.999512 -0.0178223
vn -0.0178223 -0.999512 -0.0178223
vn -0.0178223 -0.999512 -0.0178223
vn 0.707031 0 -0.707031
vn 0.707031 0 -0.707031
vn 0.707031 0 -0.707031
vn 0.707031 0 -0.707031
vn 0.707031 0 -0.707031
vn 0.707031 0 -0.707031
vn -0.425537 -0.79834 -0.425537
vn -0.425537 -0.79834 -0.425537
vn -0.425537 -0.79834 -0.425537
vn -0.425537 -0.79834 -0.425537
vn -0.707031 6.55651e-007 0.707031
vn -0.707031 6.55651e-007 0.707031
vn -0.707031 6.55651e-007 0.707031

vt 0.928277 0.777228
vt 0.960447 0.776978
vt 0.92811 0.847639
vt 0.960506 0.84695
vt 0.43875 0.881908
vt 0.645954 0.869224
vt 0.404613 0.991095
vt 0.838102 0.991157
vt 0.410542 0.692664
vt 0.410542 0.612664
vt 0.843691 0.692664
vt 0.843691 0.612664
vt 0.844928 0.733079
vt 0.879066 0.842265
vt 0.637725 0.720394
vt 0.445576 0.842328
vt 0.782022 0.43797
vt 0.782022 0.35797
vt 0.98961 0.43797
vt 0.989611 0.35797
vt 0.664189 0.516492
vt 0.414101 0.516492
vt 0.414101 0.0156564
vt 0.932439 0.0179408
vt 0.682351 0.0179408
vt 0.682351 0.518776
vt 0.0889233 0.230481
vt 0.0889233 0.105272
vt 0.339012 0.230481
vt 0.339012 0.105272
vt 0.399903 0.168097
vt 0.397763 0.880682
vt 0.355693 0.256828
vt 0.355693 0.908255
vt 0.326803 0.930539
vt 0.0889233 0.256828
vt 0.339011 0.908255
vt 0.339012 0.256828
vt 0.682351 0.0179406
vt 0.932439 0.0179406
vt 0.682351 0.518776
vt 0.0255056 0.168097
vt 0.069715 0.256828
vt 0.027646 0.880682
vt 0.0697152 0.908256
vt 0.0889233 0.230481
vt 0.0889233 0.105272
vt 0.339012 0.230481
vt 0.339012 0.105272
vt 0.101132 0.930539
vt 0.0889233 0.908255
vt 0.339012 0.256828
vt 0.0889233 0.256828
vt 0.664189 0.0156564
vt 0.959826 0.903785
vt 0.959878 0.970987
vt 0.930027 0.903633
vt 0.929876 0.970987
vt 0.853157 0.856539
vt 0.872524 0.881064
vt 0.838102 0.991157
vt 0.0211043 0.0110673
vt 0.0390765 0.0110674
vt 0.0211043 0.0910673
vt 0.0390763 0.0910675
vt 0.430521 0.70771
vt 0.445576 0.842328
vt 0.411155 0.732235
vt 0.430521 0.70771
vt 0.637725 0.720394
vt 0.445576 0.842328
vt 0.0390763 0.0910675
vt 0.0390765 0.0110674
vt 0.246664 0.0910675
vt 0.246665 0.0110674
vt 0.838102 0.991157
vt 0.645954 0.869224
vt 0.853157 0.856539


#
# MESH 000
#
g surface_000
usemtl surface_000
f 76/76/76 77/77/77 78/78/78
f 69/69/69 70/70/70 71/71/71
f 66/66/66 67/67/67 68/68/68
f 59/59/59 60/60/60 61/61/61
f 39/39/39 40/40/40 41/41/41
f 24/24/24 25/25/25 26/26/26
f 74/74/74 73/73/73 75/75/75
f 72/72/72 73/73/73 74/74/74
f 64/64/64 63/63/63 65/65/65
f 62/62/62 63/63/63 64/64/64
f 57/57/57 56/56/56 58/58/58
f 55/55/55 56/56/56 57/57/57
f 21/21/21 23/23/23 54/54/54
f 21/21/21 22/22/22 23/23/23
f 52/52/52 51/51/51 53/53/53
f 50/50/50 51/51/51 52/52/52
f 48/48/48 47/47/47 49/49/49
f 46/46/46 47/47/47 48/48/48
f 44/44/44 43/43/43 45/45/45
f 42/42/42 43/43/43 44/44/44
f 38/38/38 37/37/37 36/36/36
f 35/35/35 36/36/36 37/37/37
f 33/33/33 32/32/32 34/34/34
f 31/31/31 32/32/32 33/33/33
f 29/29/29 28/28/28 30/30/30
f 27/27/27 28/28/28 29/29/29
f 19/19/19 18/18/18 20/20/20
f 17/17/17 18/18/18 19/19/19
f 15/15/15 14/14/14 16/16/16
f 13/13/13 14/14/14 15/15/15
f 11/11/11 10/10/10 12/12/12
f 9/9/9 10/10/10 11/11/11
f 7/7/7 6/6/6 8/8/8
f 5/5/5 6/6/6 7/7/7
f 3/3/3 2/2/2 4/4/4
f 1/1/1 2/2/2 3/3/3

