g e009v001_l
v -0.4774551 0 0.477455
v -0.3469038 0.9659461 0.3469039
v 0.3469038 0.9659461 0.3469039
v 0.4774551 0 0.477455
v -0.4774551 0 -0.477455
v -0.3469038 0.9659461 -0.3469039
v -0.3469038 0.9659461 0.3469039
v -0.4774551 0 0.477455
v 0.4774551 0 -0.477455
v 0.3469038 0.9659461 -0.3469039
v -0.3469038 0.9659461 -0.3469039
v -0.4774551 0 -0.477455
v 0.3469038 0.9659461 0.3469039
v 0.3469038 0.9659461 -0.3469039
v 0.4774551 0 -0.477455
v 0.4774551 0 0.477455
v -0.3469038 0.9659461 0.3469039
v -0.3469038 1.037583 0.3469039
v 0.3469038 1.037583 0.3469039
v 0.3469038 0.9659461 0.3469039
v -0.3469038 0.9659461 -0.3469039
v -0.3469038 1.037583 -0.3469039
v -0.3469038 1.037583 0.3469039
v -0.3469038 0.9659461 0.3469039
v -0.3469038 1.037583 -0.3469039
v -0.3469038 0.9659461 -0.3469039
v 0.3469038 0.9659461 -0.3469039
v 0.3469038 1.037583 -0.3469039
v 0.3469038 0.9659461 0.3469039
v 0.3469038 1.037583 0.3469039
v 0.3469038 1.037583 -0.3469039
v 0.3469038 0.9659461 -0.3469039
v -0.3469038 1.037583 0.3469039
v -0.3469038 1.984396 0.3469039
v 0.3469038 1.984396 0.3469039
v 0.3469038 1.037583 0.3469039
v -0.3469038 1.037583 -0.3469039
v -0.3469038 1.984396 -0.3469039
v -0.3469038 1.984396 0.3469039
v -0.3469038 1.037583 0.3469039
v -0.3469038 1.984396 -0.3469039
v -0.3469038 1.037583 -0.3469039
v 0.3469038 1.037583 -0.3469039
v 0.3469038 1.984396 -0.3469039
v 0.3469038 1.037583 0.3469039
v 0.3469038 1.984396 0.3469039
v 0.3469038 1.984396 -0.3469039
v 0.3469038 1.037583 -0.3469039
v -0.3469038 1.984396 -0.3469039
v -0.3688545 2.219229 -0.3688547
v -0.3688545 2.219229 0.3688548
v -0.3469038 1.984396 0.3469039
v -0.3688545 2.219229 -0.3688547
v -0.3469038 1.984396 -0.3469039
v 0.3469038 1.984396 -0.3469039
v 0.3688545 2.219229 -0.3688547
v 0.3469038 1.984396 0.3469039
v 0.3688545 2.219229 0.3688548
v 0.3688545 2.219229 -0.3688547
v 0.3469038 1.984396 -0.3469039
v -0.3469038 1.984396 0.3469039
v -0.3688545 2.219229 0.3688548
v 0.3688545 2.219229 0.3688548
v 0.3469038 1.984396 0.3469039
v -0.3688545 2.219229 -0.3688547
v -0.4886479 2.4259 -0.4886479
v -0.4886479 2.4259 0.4886479
v -0.3688545 2.219229 0.3688548
v -0.4886479 2.4259 -0.4886479
v -0.3688545 2.219229 -0.3688547
v 0.3688545 2.219229 -0.3688547
v 0.4886479 2.4259 -0.4886479
v 0.3688545 2.219229 0.3688548
v 0.4886479 2.4259 0.4886479
v 0.4886479 2.4259 -0.4886479
v 0.3688545 2.219229 -0.3688547
v -0.3688545 2.219229 0.3688548
v -0.4886479 2.4259 0.4886479
v 0.4886479 2.4259 0.4886479
v 0.3688545 2.219229 0.3688548
v 0 2.770972 -0.1968502
v 0.1441045 2.770972 -0.1441044
v 0 3.070372 0
v -0.1441045 2.770972 -0.1441044
v -0.1968503 2.770972 -3.72529E-09
v -0.1441045 2.770972 0.1441044
v 0 2.770972 0.1968502
v -0.1441045 2.770972 0.1441044
v 0 3.070372 0
v 0.1441045 2.770972 0.1441044
v 0.1968503 2.770972 3.72529E-09
v 0.1441045 2.770972 -0.1441044
v 0.1230216 2.675467 0.1230216
v 0.1000628 2.503132 0.2402137
v 0 2.675467 0.1680505
v 0.2491584 2.467152 0.2492008
v 0.3899951 2.4259 0.3899949
v 0 2.454524 0.2580365
v -0.3899951 2.4259 0.3899949
v -0.1000628 2.503132 0.2402137
v -0.2491584 2.467152 0.2491583
v 0 2.675467 0.1680505
v -0.1230216 2.675467 0.1230216
v 0.1000628 2.503132 0.2402137
v 0 2.454524 0.2580365
v -0.1000628 2.503132 0.2402137
v 0 2.675467 0.1680505
v 0.1230216 2.675467 -0.1230216
v 0.2402139 2.503132 -0.1000628
v 0.1680508 2.675467 0
v 0.2491584 2.467152 -0.2491583
v 0.3899951 2.4259 -0.3899949
v 0.2589946 2.454524 1.202483E-18
v 0.3899951 2.4259 0.3899949
v 0.2402139 2.503132 0.1000628
v 0.2491584 2.467152 0.2492008
v 0.1230216 2.675467 0.1230216
v 0.1680508 2.675467 0
v 0.2402139 2.503132 -0.1000628
v 0.2589946 2.454524 1.202483E-18
v 0.2402139 2.503132 0.1000628
v 0.1680508 2.675467 0
v -0.1441045 2.770972 0.1441044
v 0 2.675467 0.1680505
v -0.1230216 2.675467 0.1230216
v 0 2.770972 0.1968502
v 0.1441045 2.770972 0.1441044
v 0.1230216 2.675467 0.1230216
v 0.1680508 2.675467 0
v 0.1968503 2.770972 3.72529E-09
v 0.1441045 2.770972 -0.1441044
v 0.1230216 2.675467 -0.1230216
v -0.1230216 2.675467 -0.1230216
v -0.1000628 2.503132 -0.2402137
v 0 2.675467 -0.1680505
v -0.2491584 2.467152 -0.2492008
v -0.3899951 2.4259 -0.3899949
v 0 2.454524 -0.2580365
v 0.3899951 2.4259 -0.3899949
v 0.1000628 2.503132 -0.2402137
v 0.2491584 2.467152 -0.2491583
v 0.1230216 2.675467 -0.1230216
v 0 2.675467 -0.1680505
v -0.1000628 2.503132 -0.2402137
v 0 2.454524 -0.2580365
v 0.1000628 2.503132 -0.2402137
v 0 2.675467 -0.1680505
v -0.2491584 2.467152 0.2491583
v -0.1680508 2.675467 0
v -0.1230216 2.675467 0.1230216
v -0.2402139 2.503132 0.1000628
v -0.3899951 2.4259 0.3899949
v -0.2589946 2.454524 -3.292016E-17
v -0.3899951 2.4259 -0.3899949
v -0.2402139 2.503132 -0.1000628
v -0.2491584 2.467152 -0.2492008
v -0.1230216 2.675467 -0.1230216
v -0.1680508 2.675467 0
v -0.2402139 2.503132 0.1000628
v -0.2589946 2.454524 -3.292016E-17
v -0.2402139 2.503132 -0.1000628
v -0.1680508 2.675467 0
v 0.1441045 2.770972 -0.1441044
v 0 2.675467 -0.1680505
v 0.1230216 2.675467 -0.1230216
v 0 2.770972 -0.1968502
v -0.1441045 2.770972 -0.1441044
v -0.1230216 2.675467 -0.1230216
v -0.1680508 2.675467 0
v -0.1968503 2.770972 -3.72529E-09
v -0.1441045 2.770972 0.1441044
v -0.1230216 2.675467 0.1230216
v 0.4774551 0 -0.477455
v -0.4774551 0 -0.477455
v -0.4774551 0 0.477455
v 0.4774551 0 0.477455
v 0.4886479 2.4259 -0.4886479
v 0.3899951 2.4259 -0.3899949
v -0.3899951 2.4259 -0.3899949
v 0.4886479 2.4259 0.4886479
v -0.4886479 2.4259 -0.4886479
v 0.3899951 2.4259 0.3899949
v -0.3899951 2.4259 0.3899949
v -0.4886479 2.4259 0.4886479
vt 0.3508301 0.08984375
vt 0.3747559 0.3476563
vt 0.5883789 0.3476563
vt 0.6123047 0.08984375
vt 0.03314209 0.08984375
vt 0.05709839 0.3476563
vt 0.270752 0.3476563
vt 0.2946777 0.08984375
vt 0.3508301 0.08984375
vt 0.3747559 0.3476563
vt 0.5883789 0.3476563
vt 0.6123047 0.08984375
vt 0.05709839 0.3476563
vt 0.270752 0.3476563
vt 0.2946777 0.08984375
vt 0.03314209 0.08984375
vt 0.3747559 0.3574219
vt 0.3747559 0.3845215
vt 0.5883789 0.3845215
vt 0.5883789 0.3574219
vt 0.05709839 0.3574219
vt 0.05709839 0.3845215
vt 0.270752 0.3845215
vt 0.270752 0.3574219
vt 0.5883789 0.3845215
vt 0.5883789 0.3574219
vt 0.3747559 0.3574219
vt 0.3747559 0.3845215
vt 0.05709839 0.3574219
vt 0.05709839 0.3845215
vt 0.270752 0.3845215
vt 0.270752 0.3574219
vt 0.3110352 0.4006348
vt 0.3110352 0.7768555
vt 0.5854492 0.7768555
vt 0.5854492 0.4006348
vt 0.0144577 0.4006348
vt 0.0144577 0.7768555
vt 0.2888184 0.7768555
vt 0.2888184 0.4006348
vt 0.5854492 0.7768555
vt 0.5854492 0.4006348
vt 0.3110352 0.4006348
vt 0.3110352 0.7768555
vt 0.0144577 0.4006348
vt 0.0144577 0.7768555
vt 0.2888184 0.7768555
vt 0.2888184 0.4006348
vt 0.05352783 0.8671875
vt 0.05352783 0.8969727
vt 0.2744141 0.8969727
vt 0.2744141 0.8671875
vt 0.5922852 0.8969727
vt 0.5922852 0.8671875
vt 0.3713379 0.8671875
vt 0.3713379 0.8969727
vt 0.05352783 0.8671875
vt 0.05352783 0.8969727
vt 0.2744141 0.8969727
vt 0.2744141 0.8671875
vt 0.3713379 0.8671875
vt 0.3713379 0.8969727
vt 0.5922852 0.8969727
vt 0.5922852 0.8671875
vt 0.05352783 0.9130859
vt 0.02079773 0.984375
vt 0.3071289 0.984375
vt 0.2744141 0.9130859
vt 0.625 0.984375
vt 0.5922852 0.9130859
vt 0.3713379 0.9130859
vt 0.338623 0.984375
vt 0.05352783 0.9130859
vt 0.02079773 0.984375
vt 0.3071289 0.984375
vt 0.2744141 0.9130859
vt 0.3713379 0.9130859
vt 0.338623 0.984375
vt 0.625 0.984375
vt 0.5922852 0.9130859
vt 0.671875 0.5039063
vt 0.6108398 0.515625
vt 0.7304688 0.6435547
vt 0.7299805 0.4990234
vt 0.7880859 0.5039063
vt 0.8496094 0.5151367
vt 0.671875 0.5039063
vt 0.6108398 0.515625
vt 0.7304688 0.6435547
vt 0.7299805 0.4990234
vt 0.7880859 0.5039063
vt 0.8496094 0.5151367
vt 0.8886719 0.1900635
vt 0.8657227 0.09143066
vt 0.8183594 0.1760254
vt 0.9331055 0.07305908
vt 0.9619141 0.02185059
vt 0.8183594 0.06726074
vt 0.6748047 0.02210999
vt 0.7709961 0.0914917
vt 0.7036133 0.07324219
vt 0.8183594 0.1760254
vt 0.7480469 0.1899414
vt 0.9672852 0.5683594
vt 0.9257813 0.5478516
vt 0.8847656 0.5683594
vt 0.9257813 0.6450195
vt 0.8886719 0.3823242
vt 0.8657227 0.2836914
vt 0.8183594 0.3681641
vt 0.9331055 0.2653809
vt 0.9619141 0.2141113
vt 0.8183594 0.2595215
vt 0.6748047 0.2143555
vt 0.7709961 0.2836914
vt 0.7036133 0.2653809
vt 0.7480469 0.3820801
vt 0.8183594 0.3681641
vt 0.9672852 0.5683594
vt 0.9257813 0.5478516
vt 0.8847656 0.5683594
vt 0.9257813 0.6450195
vt 0.6220703 0.4665527
vt 0.671875 0.4055176
vt 0.6220703 0.4055176
vt 0.671875 0.4665527
vt 0.7197266 0.4665527
vt 0.7197266 0.4055176
vt 0.7680664 0.4055176
vt 0.7680664 0.4665527
vt 0.8178711 0.4665527
vt 0.8178711 0.4055176
vt 0.8886719 0.1900635
vt 0.8657227 0.09143066
vt 0.8183594 0.1760254
vt 0.9331055 0.07305908
vt 0.9619141 0.02185059
vt 0.8183594 0.06726074
vt 0.6748047 0.02210999
vt 0.7709961 0.0914917
vt 0.7036133 0.07324219
vt 0.7480469 0.1899414
vt 0.8183594 0.1760254
vt 0.9672852 0.5683594
vt 0.9257813 0.5478516
vt 0.8847656 0.5683594
vt 0.9257813 0.6450195
vt 0.9331055 0.2653809
vt 0.8183594 0.3681641
vt 0.8886719 0.3823242
vt 0.8657227 0.2836914
vt 0.9619141 0.2141113
vt 0.8183594 0.2595215
vt 0.6748047 0.2143555
vt 0.7709961 0.2836914
vt 0.7036133 0.2653809
vt 0.7480469 0.3820801
vt 0.8183594 0.3681641
vt 0.9672852 0.5683594
vt 0.9257813 0.5478516
vt 0.8847656 0.5683594
vt 0.9257813 0.6450195
vt 0.6220703 0.4665527
vt 0.671875 0.4055176
vt 0.6220703 0.4055176
vt 0.671875 0.4665527
vt 0.7197266 0.4665527
vt 0.7197266 0.4055176
vt 0.7680664 0.4055176
vt 0.7680664 0.4665527
vt 0.8178711 0.4665527
vt 0.8178711 0.4055176
vt 0.8847656 0.887207
vt 0.765625 0.887207
vt 0.765625 0.7675781
vt 0.8847656 0.7675781
vt 0.9848633 0.987793
vt 0.9521484 0.9550781
vt 0.6938477 0.9550781
vt 0.9848633 0.6655273
vt 0.6611328 0.987793
vt 0.9521484 0.6982422
vt 0.6938477 0.6982422
vt 0.6611328 0.6655273
vn 0 0.1339111 0.9912109
vn 0 0.1339111 0.9912109
vn 0 0.1339111 0.9912109
vn 0 0.1339111 0.9912109
vn -0.9912109 0.1339111 0
vn -0.9912109 0.1339111 0
vn -0.9912109 0.1339111 0
vn -0.9912109 0.1339111 0
vn 0 0.1339111 -0.9912109
vn 0 0.1339111 -0.9912109
vn 0 0.1339111 -0.9912109
vn 0 0.1339111 -0.9912109
vn 0.9912109 0.1339111 0
vn 0.9912109 0.1339111 0
vn 0.9912109 0.1339111 0
vn 0.9912109 0.1339111 0
vn 0 0 1
vn 0 0 1
vn 0 0 1
vn 0 0 1
vn -1 0 0
vn -1 0 0
vn -1 0 0
vn -1 0 0
vn 0 0 -1
vn 0 0 -1
vn 0 0 -1
vn 0 0 -1
vn 1 0 0
vn 1 0 0
vn 1 0 0
vn 1 0 0
vn 0 0 1
vn 0 -0.01992798 1
vn 0 -0.01992798 1
vn 0 0 1
vn -1 0 0
vn -1 -0.01992798 0
vn -1 -0.01992798 0
vn -1 0 0
vn 0 -0.01992798 -1
vn 0 0 -1
vn 0 0 -1
vn 0 -0.01992798 -1
vn 1 0 0
vn 1 -0.01992798 0
vn 1 -0.01992798 0
vn 1 0 0
vn -1 -0.01992798 0
vn -0.9956055 -0.09307861 0
vn -0.9956055 -0.09307861 0
vn -1 -0.01992798 0
vn 0 -0.09307861 -0.9956055
vn 0 -0.01992798 -1
vn 0 -0.01992798 -1
vn 0 -0.09307861 -0.9956055
vn 1 -0.01992798 0
vn 0.9956055 -0.09307861 0
vn 0.9956055 -0.09307861 0
vn 1 -0.01992798 0
vn 0 -0.01992798 1
vn 0 -0.09307861 0.9956055
vn 0 -0.09307861 0.9956055
vn 0 -0.01992798 1
vn -0.8652344 -0.5014648 0
vn -0.8652344 -0.5014648 0
vn -0.8652344 -0.5014648 0
vn -0.8652344 -0.5014648 0
vn 0 -0.5014648 -0.8652344
vn 0 -0.5014648 -0.8652344
vn 0 -0.5014648 -0.8652344
vn 0 -0.5014648 -0.8652344
vn 0.8652344 -0.5014648 0
vn 0.8652344 -0.5014648 0
vn 0.8652344 -0.5014648 0
vn 0.8652344 -0.5014648 0
vn 0 -0.5014648 0.8652344
vn 0 -0.5014648 0.8652344
vn 0 -0.5014648 0.8652344
vn 0 -0.5014648 0.8652344
vn 0 0.2756348 -0.9614258
vn 0.6787109 0.2807617 -0.6787109
vn 0 1 0
vn -0.6787109 0.2807617 -0.6787109
vn -0.9614258 0.2756348 0
vn -0.6787109 0.2807617 0.6787109
vn 0 0.2756348 0.9614258
vn -0.6787109 0.2807617 0.6787109
vn 0 1 0
vn 0.6787109 0.2807617 0.6787109
vn 0.9614258 0.2756348 0
vn 0.6787109 0.2807617 -0.6787109
vn 0.1801758 0.5366211 0.8242188
vn 0.08905029 0.7099609 0.6982422
vn 0.1801758 0.5366211 0.8242188
vn 0.03842163 0.7871094 0.6157227
vn -0.01018524 0.9458008 0.3251953
vn 0 0.9624023 0.2712402
vn 0.01015472 0.9458008 0.3251953
vn -0.08917236 0.7099609 0.6982422
vn -0.03851318 0.7871094 0.6157227
vn -0.1802979 0.5366211 0.8242188
vn -0.1802979 0.5366211 0.8242188
vn 0 0.3771973 0.9262695
vn 0 0.3771973 0.9262695
vn 0 0.3771973 0.9262695
vn 0 0.3771973 0.9262695
vn 0.8242188 0.5366211 -0.1802979
vn 0.6972656 0.7114258 -0.08978271
vn 0.8242188 0.5366211 -0.1802979
vn 0.6132813 0.7885742 -0.03952026
vn 0.326416 0.9453125 0.009613037
vn 0.2727051 0.9619141 0
vn 0.3266602 0.9453125 -0.009613037
vn 0.6972656 0.7114258 0.08978271
vn 0.6132813 0.7885742 0.03952026
vn 0.8242188 0.5366211 0.1802979
vn 0.8242188 0.5366211 0.1802979
vn 0.9248047 0.3806152 0
vn 0.9248047 0.3806152 0
vn 0.9248047 0.3806152 0
vn 0.9248047 0.3806152 0
vn -0.6787109 0.2807617 0.6787109
vn 0 -0.2888184 0.9575195
vn -0.6748047 -0.2980957 0.6748047
vn 0 0.2756348 0.9614258
vn 0.6787109 0.2807617 0.6787109
vn 0.6748047 -0.2980957 0.6748047
vn 0.9575195 -0.2888184 0
vn 0.9614258 0.2756348 0
vn 0.6787109 0.2807617 -0.6787109
vn 0.6748047 -0.2980957 -0.6748047
vn -0.1801758 0.5366211 -0.8242188
vn -0.08905029 0.7099609 -0.6982422
vn -0.1801758 0.5366211 -0.8242188
vn -0.03842163 0.7871094 -0.6157227
vn 0.01018524 0.9458008 -0.3251953
vn 0 0.9624023 -0.2712402
vn -0.01015472 0.9458008 -0.3251953
vn 0.08917236 0.7099609 -0.6982422
vn 0.03851318 0.7871094 -0.6157227
vn 0.1802979 0.5366211 -0.8242188
vn 0.1802979 0.5366211 -0.8242188
vn 0 0.3771973 -0.9262695
vn 0 0.3771973 -0.9262695
vn 0 0.3771973 -0.9262695
vn 0 0.3771973 -0.9262695
vn -0.6132813 0.7885742 0.03952026
vn -0.8242188 0.5366211 0.1802979
vn -0.8242188 0.5366211 0.1802979
vn -0.6972656 0.7114258 0.08978271
vn -0.326416 0.9453125 -0.009613037
vn -0.2727051 0.9619141 0
vn -0.3266602 0.9453125 0.009613037
vn -0.6972656 0.7114258 -0.08978271
vn -0.6132813 0.7885742 -0.03952026
vn -0.8242188 0.5366211 -0.1802979
vn -0.8242188 0.5366211 -0.1802979
vn -0.9248047 0.3806152 0
vn -0.9248047 0.3806152 0
vn -0.9248047 0.3806152 0
vn -0.9248047 0.3806152 0
vn 0.6787109 0.2807617 -0.6787109
vn 0 -0.2888184 -0.9575195
vn 0.6748047 -0.2980957 -0.6748047
vn 0 0.2756348 -0.9614258
vn -0.6787109 0.2807617 -0.6787109
vn -0.6748047 -0.2980957 -0.6748047
vn -0.9575195 -0.2888184 0
vn -0.9614258 0.2756348 0
vn -0.6787109 0.2807617 0.6787109
vn -0.6748047 -0.2980957 0.6748047
vn 0 -1 0
vn 0 -1 0
vn 0 -1 0
vn 0 -1 0
vn 0 1 0
vn 0 1 0
vn 0 1 0
vn 0 1 0
vn 0 1 0
vn 0 1 0
vn 0 1 0
vn 0 1 0
g e009v001_l_0
f 3/3/3 2/2/2 1/1/1
f 4/4/4 3/3/3 1/1/1
f 7/7/7 6/6/6 5/5/5
f 8/8/8 7/7/7 5/5/5
f 11/11/11 10/10/10 9/9/9
f 12/12/12 11/11/11 9/9/9
f 15/15/15 14/14/14 13/13/13
f 16/16/16 15/15/15 13/13/13
f 19/19/19 18/18/18 17/17/17
f 20/20/20 19/19/19 17/17/17
f 23/23/23 22/22/22 21/21/21
f 24/24/24 23/23/23 21/21/21
f 27/27/27 26/26/26 25/25/25
f 28/28/28 27/27/27 25/25/25
f 31/31/31 30/30/30 29/29/29
f 32/32/32 31/31/31 29/29/29
f 35/35/35 34/34/34 33/33/33
f 36/36/36 35/35/35 33/33/33
f 39/39/39 38/38/38 37/37/37
f 40/40/40 39/39/39 37/37/37
f 43/43/43 42/42/42 41/41/41
f 44/44/44 43/43/43 41/41/41
f 47/47/47 46/46/46 45/45/45
f 48/48/48 47/47/47 45/45/45
f 51/51/51 50/50/50 49/49/49
f 52/52/52 51/51/51 49/49/49
f 55/55/55 54/54/54 53/53/53
f 56/56/56 55/55/55 53/53/53
f 59/59/59 58/58/58 57/57/57
f 60/60/60 59/59/59 57/57/57
f 63/63/63 62/62/62 61/61/61
f 64/64/64 63/63/63 61/61/61
f 67/67/67 66/66/66 65/65/65
f 68/68/68 67/67/67 65/65/65
f 71/71/71 70/70/70 69/69/69
f 72/72/72 71/71/71 69/69/69
f 75/75/75 74/74/74 73/73/73
f 76/76/76 75/75/75 73/73/73
f 79/79/79 78/78/78 77/77/77
f 80/80/80 79/79/79 77/77/77
f 83/83/83 82/82/82 81/81/81
f 83/83/83 81/81/81 84/84/84
f 83/83/83 84/84/84 85/85/85
f 83/83/83 85/85/85 86/86/86
f 89/89/89 88/88/88 87/87/87
f 89/89/89 87/87/87 90/90/90
f 89/89/89 90/90/90 91/91/91
f 89/89/89 91/91/91 92/92/92
f 95/95/95 94/94/94 93/93/93
f 94/94/94 96/96/96 93/93/93
f 96/96/96 94/94/94 97/97/97
f 94/94/94 98/98/98 97/97/97
f 97/97/97 98/98/98 99/99/99
f 98/98/98 100/100/100 99/99/99
f 100/100/100 101/101/101 99/99/99
f 100/100/100 102/102/102 101/101/101
f 102/102/102 103/103/103 101/101/101
f 106/106/106 105/105/105 104/104/104
f 107/107/107 106/106/106 104/104/104
f 110/110/110 109/109/109 108/108/108
f 109/109/109 111/111/111 108/108/108
f 111/111/111 109/109/109 112/112/112
f 109/109/109 113/113/113 112/112/112
f 112/112/112 113/113/113 114/114/114
f 113/113/113 115/115/115 114/114/114
f 115/115/115 116/116/116 114/114/114
f 116/116/116 115/115/115 117/117/117
f 115/115/115 118/118/118 117/117/117
f 121/121/121 120/120/120 119/119/119
f 122/122/122 121/121/121 119/119/119
f 125/125/125 124/124/124 123/123/123
f 124/124/124 126/126/126 123/123/123
f 127/127/127 126/126/126 124/124/124
f 128/128/128 127/127/127 124/124/124
f 128/128/128 129/129/129 127/127/127
f 129/129/129 130/130/130 127/127/127
f 131/131/131 130/130/130 129/129/129
f 132/132/132 131/131/131 129/129/129
f 135/135/135 134/134/134 133/133/133
f 134/134/134 136/136/136 133/133/133
f 136/136/136 134/134/134 137/137/137
f 134/134/134 138/138/138 137/137/137
f 137/137/137 138/138/138 139/139/139
f 138/138/138 140/140/140 139/139/139
f 140/140/140 141/141/141 139/139/139
f 141/141/141 140/140/140 142/142/142
f 140/140/140 143/143/143 142/142/142
f 146/146/146 145/145/145 144/144/144
f 147/147/147 146/146/146 144/144/144
f 150/150/150 149/149/149 148/148/148
f 149/149/149 151/151/151 148/148/148
f 148/148/148 151/151/151 152/152/152
f 151/151/151 153/153/153 152/152/152
f 152/152/152 153/153/153 154/154/154
f 153/153/153 155/155/155 154/154/154
f 155/155/155 156/156/156 154/154/154
f 156/156/156 155/155/155 157/157/157
f 155/155/155 158/158/158 157/157/157
f 161/161/161 160/160/160 159/159/159
f 162/162/162 161/161/161 159/159/159
f 165/165/165 164/164/164 163/163/163
f 164/164/164 166/166/166 163/163/163
f 167/167/167 166/166/166 164/164/164
f 168/168/168 167/167/167 164/164/164
f 168/168/168 169/169/169 167/167/167
f 169/169/169 170/170/170 167/167/167
f 171/171/171 170/170/170 169/169/169
f 172/172/172 171/171/171 169/169/169
f 175/175/175 174/174/174 173/173/173
f 176/176/176 175/175/175 173/173/173
f 179/179/179 178/178/178 177/177/177
f 177/177/177 178/178/178 180/180/180
f 181/181/181 179/179/179 177/177/177
f 178/178/178 182/182/182 180/180/180
f 183/183/183 179/179/179 181/181/181
f 180/180/180 182/182/182 184/184/184
f 184/184/184 183/183/183 181/181/181
f 182/182/182 183/183/183 184/184/184
