g g002v002_m
v -0.3350058 0.8543904 0.3350067
v -0.311595 1 0.3115921
v 0.3115892 1 0.3115921
v 0.335 0.8543904 0.3350067
v -0.311595 1 0.3115921
v -0.311595 1 -0.3115921
v 0.3115892 1 -0.3115921
v 0.3115892 1 0.3115921
v -0.311595 1 -0.3115921
v -0.3350058 0.8543904 -0.3350067
v 0.335 0.8543904 -0.3350067
v 0.3115892 1 -0.3115921
v 0.335 0.8543904 0.3350067
v 0.3115892 1 0.3115921
v 0.3115892 1 -0.3115921
v 0.335 0.8543904 -0.3350067
v -0.3350058 0.8543904 -0.3350067
v -0.311595 1 -0.3115921
v -0.311595 1 0.3115921
v -0.3350058 0.8543904 0.3350067
vt 1.518555 0.2558594
vt 1.524414 0.3339844
vt 1.69043 0.3339844
vt 1.696289 0.2558594
vt 0.2177734 0.6230469
vt 0.2177734 0.9667969
vt 0.3916016 0.9667969
vt 0.3916016 0.6230469
vt 0.6904297 0.3339844
vt 0.6962891 0.2558594
vt 0.5185547 0.2558594
vt 0.5244141 0.3339844
vt 1.329102 0.2558594
vt 1.334961 0.3339844
vt 1.493164 0.3339844
vt 1.499023 0.2558594
vt 0.3291016 0.2558594
vt 0.3349609 0.3339844
vt 0.4931641 0.3339844
vt 0.4990234 0.2558594
vn 0 0.2061768 0.9785156
vn 0 0.2061768 0.9785156
vn 0 0.2061768 0.9785156
vn 0 0.2061768 0.9785156
vn 0 1 0
vn 0 1 0
vn 0 1 0
vn 0 1 0
vn 0 0.2061768 -0.9785156
vn 0 0.2061768 -0.9785156
vn 0 0.2061768 -0.9785156
vn 0 0.2061768 -0.9785156
vn 0.9785156 0.2061768 0
vn 0.9785156 0.2061768 0
vn 0.9785156 0.2061768 0
vn 0.9785156 0.2061768 0
vn -0.9785156 0.2061768 0
vn -0.9785156 0.2061768 0
vn -0.9785156 0.2061768 0
vn -0.9785156 0.2061768 0
g g002v002_m_0
f 3/3/3 2/2/2 1/1/1
f 4/4/4 3/3/3 1/1/1
f 7/7/7 6/6/6 5/5/5
f 8/8/8 7/7/7 5/5/5
f 11/11/11 10/10/10 9/9/9
f 12/12/12 11/11/11 9/9/9
f 15/15/15 14/14/14 13/13/13
f 16/16/16 15/15/15 13/13/13
f 19/19/19 18/18/18 17/17/17
f 20/20/20 19/19/19 17/17/17
