g n008v002_l
v -0.5 0.07 0.3125
v -0.4375 0.07 0.4375
v -0.5 0.07 0.4375
v -0.375 0.07 0.3125
v -0.125 0.07 0.375
v -0.1875 0.07 0.3125
v -0.125 0.07 0.3125
v -0.375 0.06999999 0.25
v -0.1875 0.06999999 0.25
v -0.125 0.07 0.4375
v -0.0625 0.07 0.375
v -0.0625 0.07 0.4375
v -0.4375 0.07 0.5
v -0.125 0.07 0.5
v -0.4375 0.06999999 0.1875
v -0.4375 0.06999999 0.25
v -0.0625 0.06999999 0.1875
v -0.0625 0.06999999 0.25
v -0.4375 0.06999999 -0.25
v -0.5 0.06999999 0.1875
v -0.5 0.06999999 -0.25
v -0.0625 0.06999999 -0.25
v 0.0625 0.06999999 0.1875
v 0.0625 0.06999999 -0.25
v -0.125 0.06999999 -0.375
v -0.0625 0.06999999 -0.375
v -0.375 0.06999999 -0.375
v -0.4375 0.06999999 -0.375
v -0.1875 0.06999999 -0.4375
v -0.125 0.06999999 -0.4375
v -0.3125 0.06999999 -0.4375
v -0.375 0.06999999 -0.4375
v -0.3125 0.06999999 -0.5
v -0.1875 0.06999999 -0.5
v 0.4375 0.06999999 -0.25
v 0.5 0.06999999 -0.25
v 0.5 0.06999999 0.1875
v 0.4375 0.06999999 0.1875
v 0.125 0.06999999 -0.375
v 0.0625 0.06999999 -0.375
v 0.375 0.06999999 -0.375
v 0.4375 0.06999999 -0.375
v 0.3125 0.06999999 -0.4375
v 0.375 0.06999999 -0.4375
v 0.1875 0.06999999 -0.4375
v 0.125 0.06999999 -0.4375
v 0.1875 0.06999999 -0.5
v 0.3125 0.06999999 -0.5
v 0.125 0.06999999 0.25
v 0.0625 0.06999999 0.25
v 0.3125 0.06999999 0.25
v 0.4375 0.06999999 0.1875
v 0.4375 0.06999999 0.25
v 0.3125 0.07 0.3125
v 0.125 0.07 0.3125
v 0.375 0.07 0.375
v 0.375 0.07 0.3125
v 0.0625 0.07 0.4375
v 2.875E-14 0.07 0.3125
v -7.567841E-16 0.07 0.4375
v 0.375 0.07 0.4375
v 0.4375 0.07 0.375
v 0.4375 0.07 0.4375
v 0.0625 0.07 0.5
v 0.375 0.07 0.5
v -0.3125 0.06999999 -0.4375
v -0.1875 0.06999999 -0.5
v -0.3125 0.06999999 -0.5
v -0.1875 0.06999999 -0.4375
v -0.375 0.06999999 -0.375
v -0.375 0.06999999 -0.4375
v -0.125 0.06999999 -0.375
v -0.125 0.06999999 -0.4375
v -0.4375 0.06999999 -0.25
v -0.4375 0.06999999 -0.375
v -0.0625 0.06999999 -0.25
v -0.0625 0.06999999 -0.375
v -0.4375 0.06999999 0.1875
v -0.5 0.06999999 -0.25
v -0.5 0.06999999 0.1875
v -0.0625 0.06999999 0.1875
v 0.0625 0.06999999 -0.25
v -0.375 0.06999999 0.25
v -0.4375 0.06999999 0.25
v -0.1875 0.06999999 0.25
v -0.0625 0.06999999 0.25
v -0.375 0.07 0.3125
v -0.1875 0.07 0.3125
v 0.0625 0.06999999 0.1875
v -0.4375 0.07 0.4375
v -0.5 0.07 0.3125
v -0.5 0.07 0.4375
v -0.125 0.07 0.375
v -0.125 0.07 0.3125
v -0.125 0.07 0.4375
v -0.4375 0.07 0.5
v -0.125 0.07 0.5
v -0.0625 0.07 0.4375
v -0.0625 0.07 0.375
v 0.4375 0.06999999 -0.25
v 0.4375 0.06999999 0.1875
v 0.125 0.06999999 0.25
v 0.0625 0.06999999 0.25
v 0.5 0.06999999 0.1875
v 0.5 0.06999999 -0.25
v 0.3125 0.06999999 0.25
v 0.4375 0.06999999 0.25
v 0.125 0.07 0.3125
v 0.3125 0.07 0.3125
v 0.375 0.06999999 -0.375
v 0.4375 0.06999999 -0.375
v 0.0625 0.07 0.4375
v 4.375E-15 0.07 0.3125
v -9.375E-16 0.07 0.4375
v 0.125 0.06999999 -0.375
v 0.0625 0.06999999 -0.375
v 0.375 0.07 0.375
v 0.375 0.07 0.3125
v 0.3125 0.06999999 -0.4375
v 0.375 0.06999999 -0.4375
v 0.1875 0.06999999 -0.4375
v 0.125 0.06999999 -0.4375
v 0.3125 0.06999999 -0.5
v 0.1875 0.06999999 -0.5
v 0.375 0.07 0.4375
v 0.0625 0.07 0.5
v 0.375 0.07 0.5
v 0.4375 0.07 0.4375
v 0.4375 0.07 0.375
vt 0.5 0.09375
vt 0.53125 0.03125
vt 0.5 0.03125
vt 0.5625 0.09375
vt 0.6875 0.0625
vt 0.65625 0.09375
vt 0.6875 0.09375
vt 0.5625 0.125
vt 0.65625 0.125
vt 0.6875 0.03125
vt 0.71875 0.0625
vt 0.71875 0.03125
vt 0.53125 0
vt 0.6875 0
vt 0.53125 0.15625
vt 0.53125 0.125
vt 0.71875 0.15625
vt 0.71875 0.125
vt 0.53125 0.375
vt 0.5 0.15625
vt 0.5 0.375
vt 0.71875 0.375
vt 0.78125 0.15625
vt 0.78125 0.375
vt 0.6875 0.4375
vt 0.71875 0.4375
vt 0.5625 0.4375
vt 0.53125 0.4375
vt 0.65625 0.46875
vt 0.6875 0.46875
vt 0.59375 0.46875
vt 0.5625 0.46875
vt 0.59375 0.5
vt 0.65625 0.5
vt 0.96875 0.375
vt 1 0.375
vt 1 0.15625
vt 0.96875 0.15625
vt 0.8125 0.4375
vt 0.78125 0.4375
vt 0.9375 0.4375
vt 0.96875 0.4375
vt 0.90625 0.46875
vt 0.9375 0.46875
vt 0.84375 0.46875
vt 0.8125 0.46875
vt 0.84375 0.5
vt 0.90625 0.5
vt 0.8125 0.125
vt 0.78125 0.125
vt 0.90625 0.125
vt 0.96875 0.15625
vt 0.96875 0.125
vt 0.90625 0.09375
vt 0.8125 0.09375
vt 0.9375 0.0625
vt 0.9375 0.09375
vt 0.78125 0.03125
vt 0.75 0.09375
vt 0.75 0.03125
vt 0.9375 0.03125
vt 0.96875 0.0625
vt 0.96875 0.03125
vt 0.78125 0
vt 0.9375 0
vt 0.59375 0.46875
vt 0.65625 0.5
vt 0.59375 0.5
vt 0.65625 0.46875
vt 0.5625 0.4375
vt 0.5625 0.46875
vt 0.6875 0.4375
vt 0.6875 0.46875
vt 0.53125 0.375
vt 0.53125 0.4375
vt 0.71875 0.375
vt 0.71875 0.4375
vt 0.53125 0.15625
vt 0.5 0.375
vt 0.5 0.15625
vt 0.71875 0.15625
vt 0.78125 0.375
vt 0.5625 0.125
vt 0.53125 0.125
vt 0.65625 0.125
vt 0.71875 0.125
vt 0.5625 0.09375
vt 0.65625 0.09375
vt 0.78125 0.15625
vt 0.53125 0.03125
vt 0.5 0.09375
vt 0.5 0.03125
vt 0.6875 0.0625
vt 0.6875 0.09375
vt 0.6875 0.03125
vt 0.53125 0
vt 0.6875 0
vt 0.71875 0.03125
vt 0.71875 0.0625
vt 0.96875 0.375
vt 0.96875 0.15625
vt 0.8125 0.125
vt 0.78125 0.125
vt 1 0.15625
vt 1 0.375
vt 0.90625 0.125
vt 0.96875 0.125
vt 0.8125 0.09375
vt 0.90625 0.09375
vt 0.9375 0.4375
vt 0.96875 0.4375
vt 0.78125 0.03125
vt 0.75 0.09375
vt 0.75 0.03125
vt 0.8125 0.4375
vt 0.78125 0.4375
vt 0.9375 0.0625
vt 0.9375 0.09375
vt 0.90625 0.46875
vt 0.9375 0.46875
vt 0.84375 0.46875
vt 0.8125 0.46875
vt 0.90625 0.5
vt 0.84375 0.5
vt 0.9375 0.03125
vt 0.78125 0
vt 0.9375 0
vt 0.96875 0.03125
vt 0.96875 0.0625
vn 0 1 0
vn 0 1 0
vn 0 1 0
vn 0 1 0
vn 0 1 0
vn 0 1 0
vn 0 1 0
vn 0 1 0
vn 0 1 0
vn 0 1 0
vn 0 1 0
vn 0 1 0
vn 0 1 0
vn 0 1 0
vn 0 1 0
vn 0 1 0
vn 0 1 0
vn 0 1 0
vn 0 1 0
vn 0 1 0
vn 0 1 0
vn 0 1 0
vn 0 1 0
vn 0 1 0
vn 0 1 0
vn 0 1 0
vn 0 1 0
vn 0 1 0
vn 0 1 0
vn 0 1 0
vn 0 1 0
vn 0 1 0
vn 0 1 0
vn 0 1 0
vn 0 1 0
vn 0 1 0
vn 0 1 0
vn 0 1 0
vn 0 1 0
vn 0 1 0
vn 0 1 0
vn 0 1 0
vn 0 1 0
vn 0 1 0
vn 0 1 0
vn 0 1 0
vn 0 1 0
vn 0 1 0
vn 0 1 0
vn 0 1 0
vn 0 1 0
vn 0 1 0
vn 0 1 0
vn 0 1 0
vn 0 1 0
vn 0 1 0
vn 0 1 0
vn 0 1 0
vn 0 1 0
vn 0 1 0
vn 0 1 0
vn 0 1 0
vn 0 1 0
vn 0 1 0
vn 0 1 0
vn 0 -1 0
vn 0 -1 0
vn 0 -1 0
vn 0 -1 0
vn 0 -1 0
vn 0 -1 0
vn 0 -1 0
vn 0 -1 0
vn 0 -1 0
vn 0 -1 0
vn 0 -1 0
vn 0 -1 0
vn 0 -1 0
vn 0 -1 0
vn 0 -1 0
vn 0 -1 0
vn 0 -1 0
vn 0 -1 0
vn 0 -1 0
vn 0 -1 0
vn 0 -1 0
vn 0 -1 0
vn 0 -1 0
vn 0 -1 0
vn 0 -1 0
vn 0 -1 0
vn 0 -1 0
vn 0 -1 0
vn 0 -1 0
vn 0 -1 0
vn 0 -1 0
vn 0 -1 0
vn 0 -1 0
vn 0 -1 0
vn 0 -1 0
vn 0 -1 0
vn 0 -1 0
vn 0 -1 0
vn 0 -1 0
vn 0 -1 0
vn 0 -1 0
vn 0 -1 0
vn 0 -1 0
vn 0 -1 0
vn 0 -1 0
vn 0 -1 0
vn 0 -1 0
vn 0 -1 0
vn 0 -1 0
vn 0 -1 0
vn 0 -1 0
vn 0 -1 0
vn 0 -1 0
vn 0 -1 0
vn 0 -1 0
vn 0 -1 0
vn 0 -1 0
vn 0 -1 0
vn 0 -1 0
vn 0 -1 0
vn 0 -1 0
vn 0 -1 0
vn 0 -1 0
vn 0 -1 0
g n008v002_l_0
f 3/3/3 2/2/2 1/1/1
f 2/2/2 4/4/4 1/1/1
f 2/2/2 5/5/5 4/4/4
f 5/5/5 6/6/6 4/4/4
f 5/5/5 7/7/7 6/6/6
f 4/4/4 6/6/6 8/8/8
f 6/6/6 9/9/9 8/8/8
f 2/2/2 10/10/10 5/5/5
f 11/11/11 5/5/5 10/10/10
f 12/12/12 11/11/11 10/10/10
f 2/2/2 13/13/13 10/10/10
f 13/13/13 14/14/14 10/10/10
f 8/8/8 9/9/9 15/15/15
f 16/16/16 8/8/8 15/15/15
f 9/9/9 17/17/17 15/15/15
f 9/9/9 18/18/18 17/17/17
f 15/15/15 17/17/17 19/19/19
f 15/15/15 19/19/19 20/20/20
f 19/19/19 21/21/21 20/20/20
f 17/17/17 22/22/22 19/19/19
f 17/17/17 23/23/23 22/22/22
f 23/23/23 24/24/24 22/22/22
f 19/19/19 22/22/22 25/25/25
f 22/22/22 26/26/26 25/25/25
f 27/27/27 19/19/19 25/25/25
f 27/27/27 28/28/28 19/19/19
f 27/27/27 25/25/25 29/29/29
f 25/25/25 30/30/30 29/29/29
f 31/31/31 27/27/27 29/29/29
f 31/31/31 32/32/32 27/27/27
f 31/31/31 29/29/29 33/33/33
f 29/29/29 34/34/34 33/33/33
f 35/35/35 24/24/24 23/23/23
f 23/23/23 36/36/36 35/35/35
f 23/23/23 37/37/37 36/36/36
f 23/23/23 38/38/38 37/37/37
f 24/24/24 35/35/35 39/39/39
f 40/40/40 24/24/24 39/39/39
f 35/35/35 41/41/41 39/39/39
f 35/35/35 42/42/42 41/41/41
f 39/39/39 41/41/41 43/43/43
f 41/41/41 44/44/44 43/43/43
f 45/45/45 39/39/39 43/43/43
f 45/45/45 46/46/46 39/39/39
f 45/45/45 43/43/43 47/47/47
f 43/43/43 48/48/48 47/47/47
f 50/50/50 49/49/49 23/23/23
f 49/49/49 51/51/51 23/23/23
f 51/51/51 52/52/52 23/23/23
f 51/51/51 53/53/53 52/52/52
f 54/54/54 51/51/51 49/49/49
f 55/55/55 54/54/54 49/49/49
f 56/56/56 54/54/54 55/55/55
f 56/56/56 57/57/57 54/54/54
f 58/58/58 56/56/56 55/55/55
f 58/58/58 55/55/55 59/59/59
f 60/60/60 58/58/58 59/59/59
f 58/58/58 61/61/61 56/56/56
f 62/62/62 56/56/56 61/61/61
f 63/63/63 62/62/62 61/61/61
f 58/58/58 64/64/64 61/61/61
f 64/64/64 65/65/65 61/61/61
f 68/68/68 67/67/67 66/66/66
f 67/67/67 69/69/69 66/66/66
f 66/66/66 69/69/69 70/70/70
f 71/71/71 66/66/66 70/70/70
f 69/69/69 72/72/72 70/70/70
f 69/69/69 73/73/73 72/72/72
f 70/70/70 72/72/72 74/74/74
f 75/75/75 70/70/70 74/74/74
f 72/72/72 76/76/76 74/74/74
f 72/72/72 77/77/77 76/76/76
f 74/74/74 76/76/76 78/78/78
f 74/74/74 78/78/78 79/79/79
f 78/78/78 80/80/80 79/79/79
f 76/76/76 81/81/81 78/78/78
f 76/76/76 82/82/82 81/81/81
f 78/78/78 81/81/81 83/83/83
f 84/84/84 78/78/78 83/83/83
f 81/81/81 85/85/85 83/83/83
f 81/81/81 86/86/86 85/85/85
f 83/83/83 85/85/85 87/87/87
f 85/85/85 88/88/88 87/87/87
f 82/82/82 89/89/89 81/81/81
f 87/87/87 88/88/88 90/90/90
f 91/91/91 87/87/87 90/90/90
f 92/92/92 91/91/91 90/90/90
f 88/88/88 93/93/93 90/90/90
f 88/88/88 94/94/94 93/93/93
f 93/93/93 95/95/95 90/90/90
f 90/90/90 95/95/95 96/96/96
f 95/95/95 97/97/97 96/96/96
f 98/98/98 95/95/95 93/93/93
f 99/99/99 98/98/98 93/93/93
f 82/82/82 100/100/100 89/89/89
f 100/100/100 101/101/101 89/89/89
f 89/89/89 101/101/101 102/102/102
f 103/103/103 89/89/89 102/102/102
f 104/104/104 101/101/101 100/100/100
f 105/105/105 104/104/104 100/100/100
f 101/101/101 106/106/106 102/102/102
f 101/101/101 107/107/107 106/106/106
f 102/102/102 106/106/106 108/108/108
f 106/106/106 109/109/109 108/108/108
f 110/110/110 100/100/100 82/82/82
f 110/110/110 111/111/111 100/100/100
f 108/108/108 109/109/109 112/112/112
f 113/113/113 108/108/108 112/112/112
f 114/114/114 113/113/113 112/112/112
f 115/115/115 110/110/110 82/82/82
f 116/116/116 115/115/115 82/82/82
f 109/109/109 117/117/117 112/112/112
f 109/109/109 118/118/118 117/117/117
f 119/119/119 110/110/110 115/115/115
f 119/119/119 120/120/120 110/110/110
f 121/121/121 119/119/119 115/115/115
f 122/122/122 121/121/121 115/115/115
f 123/123/123 119/119/119 121/121/121
f 124/124/124 123/123/123 121/121/121
f 117/117/117 125/125/125 112/112/112
f 112/112/112 125/125/125 126/126/126
f 125/125/125 127/127/127 126/126/126
f 128/128/128 125/125/125 117/117/117
f 129/129/129 128/128/128 117/117/117
