g n012v002_m
v 1.125E-14 0.144898 0.375
v 0.25 0.144898 0.4375
v 8.125E-15 0.144898 0.4375
v 0.25 0.144898 0.375
v -0.125 0.144898 0.3125
v -0.125 0.144898 0.375
v 0.4375 0.144898 0.3125
v 0.4375 0.144898 0.375
v 0.4375 0.144898 0.0625
v 0.5 0.144898 0.0625
v 0.5 0.144898 0.3125
v -0.4375 0.144898 0.0625
v -0.1875 0.144898 0.3125
v -0.375 0.144898 0.3125
v -0.1875 0.144898 0.375
v -0.375 0.144898 0.375
v -0.5 0.144898 0.3125
v -0.5 0.144898 0.0625
v -0.375 0.144898 0
v -0.4375 0.144898 0
v 0.375 0.144898 0
v 0.4375 0.144898 0
v -0.3125 0.144898 -0.0625
v -0.375 0.144898 -0.0625
v 0.3125 0.144898 -0.0625
v 0.375 0.144898 -0.0625
v -0.25 0.144898 -0.125
v -0.3125 0.144898 -0.125
v 0.25 0.144898 -0.125
v 0.3125 0.144898 -0.125
v -0.1875 0.144898 -0.1875
v -0.25 0.144898 -0.1875
v 0.1875 0.144898 -0.1875
v 0.25 0.144898 -0.1875
v -0.125 0.144898 -0.25
v -0.1875 0.144898 -0.25
v 0.125 0.144898 -0.25
v 0.1875 0.144898 -0.25
v -0.125 0.144898 -0.3125
v 0.125 0.144898 -0.3125
v -0.5 0.144898 0.0625
v -0.5 0 0.0625
v -0.4375 0 0.0625
v -0.4375 0.144898 0.0625
v -0.4375 0.144898 0
v -0.4375 0 0
v -0.375 0 0
v -0.375 0.144898 0
v -0.3125 0.144898 -0.0625
v -0.3125 0 -0.0625
v -0.3125 0 -0.125
v -0.3125 0.144898 -0.125
v -0.25 0.144898 -0.125
v -0.25 0 -0.125
v -0.25 0 -0.1875
v -0.25 0.144898 -0.1875
v -0.1875 0.144898 -0.1875
v -0.1875 0 -0.1875
v -0.1875 0 -0.25
v -0.1875 0.144898 -0.25
v -0.125 0.144898 -0.25
v -0.125 0 -0.25
v -0.125 0 -0.3125
v -0.125 0.144898 -0.3125
v -0.125 0 -0.3125
v 0.125 0 -0.3125
v 0.125 0.144898 -0.3125
v -0.125 0.144898 -0.3125
v 0.125 0.144898 -0.3125
v 0.125 0 -0.3125
v 0.125 0 -0.25
v 0.125 0.144898 -0.25
v 0.1875 0.144898 -0.25
v 0.1875 0 -0.25
v 0.1875 0 -0.1875
v 0.1875 0.144898 -0.1875
v 0.25 0.144898 -0.1875
v 0.25 0 -0.1875
v 0.25 0 -0.125
v 0.25 0.144898 -0.125
v 0.3125 0.144898 -0.125
v 0.3125 0 -0.125
v 0.3125 0 -0.0625
v 0.3125 0.144898 -0.0625
v 0.375 0.144898 0
v 0.375 0 0
v 0.4375 0 0
v 0.4375 0.144898 0
v 0.4375 0.144898 0
v 0.4375 0 0
v 0.4375 0 0.0625
v 0.4375 0.144898 0.0625
v -0.125 0 -0.25
v 0.125 0 -0.3125
v -0.125 0 -0.3125
v 0.125 0 -0.25
v -0.1875 0 -0.1875
v -0.1875 0 -0.25
v 0.1875 0 -0.1875
v 0.1875 0 -0.25
v -0.25 0 -0.125
v -0.25 0 -0.1875
v 0.25 0 -0.125
v 0.25 0 -0.1875
v -0.3125 0 -0.0625
v -0.3125 0 -0.125
v 0.3125 0 -0.0625
v 0.3125 0 -0.125
v -0.375 0 0
v -0.375 0 -0.0625
v 0.375 0 0
v -0.4375 0 0.0625
v 0.375 0 -0.0625
v -0.4375 0 0
v 0.4375 0 0.0625
v 0.4375 0 0
v -0.125 0 0.3125
v 0.4375 0 0.3125
v 0.5 0 0.3125
v 0.5 0 0.0625
v 0.25 0 0.375
v 0.4375 0 0.375
v 1.25E-15 0 0.375
v -0.125 0 0.375
v -1.875E-15 0 0.4375
v 0.25 0 0.4375
v -0.1875 0 0.3125
v -0.375 0 0.3125
v -0.5 0 0.3125
v -0.5 0 0.0625
v -0.375 0 0.375
v -0.1875 0 0.375
v -0.375 0.144898 0.3125
v -0.375 0 0.3125
v -0.5 0 0.3125
v -0.5 0.144898 0.3125
v -0.1875 0.144898 0.375
v -0.1875 0 0.375
v -0.375 0 0.375
v -0.375 0.144898 0.375
v -0.1875 0 0.375
v -0.1875 0.144898 0.375
v -0.1875 0.144898 0.3125
v -0.1875 0 0.3125
v 1.125E-14 0.144898 0.375
v 1.25E-15 0 0.375
v -0.125 0 0.375
v -0.125 0.144898 0.375
v 0.25 0.144898 0.4375
v 0.25 0 0.4375
v -1.875E-15 0 0.4375
v 8.125E-15 0.144898 0.4375
v 0.25 0 0.4375
v 0.25 0.144898 0.4375
v 0.25 0.144898 0.375
v 0.25 0 0.375
v 0.4375 0 0.375
v 0.4375 0.144898 0.375
v 0.4375 0.144898 0.3125
v 0.4375 0 0.3125
v 0.5 0.144898 0.0625
v 0.5 0 0.0625
v 0.5 0 0.3125
v 0.5 0.144898 0.3125
v -0.5 0 0.0625
v -0.5 0.144898 0.0625
v -0.5 0.144898 0.3125
v -0.5 0 0.3125
v -0.1875 0.144898 -0.25
v -0.1875 0 -0.25
v -0.125 0 -0.25
v -0.125 0.144898 -0.25
v -0.25 0.144898 -0.1875
v -0.25 0 -0.1875
v -0.1875 0 -0.1875
v -0.1875 0.144898 -0.1875
v -0.3125 0.144898 -0.125
v -0.3125 0 -0.125
v -0.25 0 -0.125
v -0.25 0.144898 -0.125
v -0.375 0.144898 -0.0625
v -0.375 0 -0.0625
v -0.3125 0 -0.0625
v -0.3125 0.144898 -0.0625
v -0.375 0.144898 0
v -0.375 0 0
v -0.375 0 -0.0625
v -0.375 0.144898 -0.0625
v -0.4375 0.144898 0.0625
v -0.4375 0 0.0625
v -0.4375 0 0
v -0.4375 0.144898 0
v -0.375 0 0.3125
v -0.375 0.144898 0.3125
v -0.375 0.144898 0.375
v -0.375 0 0.375
v 1.25E-15 0 0.375
v 1.125E-14 0.144898 0.375
v 8.125E-15 0.144898 0.4375
v -1.875E-15 0 0.4375
v 0.4375 0.144898 0.375
v 0.4375 0 0.375
v 0.25 0 0.375
v 0.25 0.144898 0.375
v 0.4375 0 0.3125
v 0.4375 0.144898 0.3125
v 0.5 0.144898 0.3125
v 0.5 0 0.3125
v 0.4375 0.144898 0.0625
v 0.4375 0 0.0625
v 0.5 0 0.0625
v 0.5 0.144898 0.0625
v 0.375 0.144898 -0.0625
v 0.375 0 -0.0625
v 0.375 0 0
v 0.375 0.144898 0
v 0.3125 0.144898 -0.0625
v 0.3125 0 -0.0625
v 0.375 0 -0.0625
v 0.375 0.144898 -0.0625
v 0.25 0.144898 -0.125
v 0.25 0 -0.125
v 0.3125 0 -0.125
v 0.3125 0.144898 -0.125
v 0.125 0.144898 -0.25
v 0.125 0 -0.25
v 0.1875 0 -0.25
v 0.1875 0.144898 -0.25
v 0.1875 0.144898 -0.1875
v 0.1875 0 -0.1875
v 0.25 0 -0.1875
v 0.25 0.144898 -0.1875
v -0.125 0 0.3125
v -0.125 0.144898 0.3125
v -0.125 0.144898 0.375
v -0.125 0 0.375
v -0.1875 0 0.3125
v -0.1875 0.144898 0.3125
v -0.125 0.144898 0.3125
v -0.125 0 0.3125
vt 0.75 0.0625
vt 0.875 0.03125
vt 0.75 0.03125
vt 0.875 0.0625
vt 0.6875 0.09375
vt 0.6875 0.0625
vt 0.96875 0.09375
vt 0.96875 0.0625
vt 0.96875 0.21875
vt 1 0.21875
vt 1 0.09375
vt 0.53125 0.21875
vt 0.65625 0.09375
vt 0.5625 0.09375
vt 0.65625 0.0625
vt 0.5625 0.0625
vt 0.5 0.09375
vt 0.5 0.21875
vt 0.5625 0.25
vt 0.53125 0.25
vt 0.9375 0.25
vt 0.96875 0.25
vt 0.59375 0.28125
vt 0.5625 0.28125
vt 0.90625 0.28125
vt 0.9375 0.28125
vt 0.625 0.3125
vt 0.59375 0.3125
vt 0.875 0.3125
vt 0.90625 0.3125
vt 0.65625 0.34375
vt 0.625 0.34375
vt 0.84375 0.34375
vt 0.875 0.34375
vt 0.6875 0.375
vt 0.65625 0.375
vt 0.8125 0.375
vt 0.84375 0.375
vt 0.6875 0.40625
vt 0.8125 0.40625
vt 0.5 0.1875
vt 0.5 0.21875
vt 0.53125 0.21875
vt 0.53125 0.1875
vt 0.53125 0.21875
vt 0.53125 0.25
vt 0.5625 0.25
vt 0.5625 0.21875
vt 0.59375 0.28125
vt 0.59375 0.3125
vt 0.625 0.3125
vt 0.625 0.28125
vt 0.625 0.3125
vt 0.625 0.34375
vt 0.65625 0.34375
vt 0.65625 0.3125
vt 0.65625 0.34375
vt 0.65625 0.375
vt 0.6875 0.375
vt 0.6875 0.34375
vt 0.6875 0.375
vt 0.6875 0.40625
vt 0.71875 0.40625
vt 0.71875 0.375
vt 0.6875 0.40625
vt 0.8125 0.40625
vt 0.8125 0.375
vt 0.6875 0.375
vt 0.78125 0.375
vt 0.78125 0.40625
vt 0.8125 0.40625
vt 0.8125 0.375
vt 0.8125 0.34375
vt 0.8125 0.375
vt 0.84375 0.375
vt 0.84375 0.34375
vt 0.84375 0.3125
vt 0.84375 0.34375
vt 0.875 0.34375
vt 0.875 0.3125
vt 0.875 0.28125
vt 0.875 0.3125
vt 0.90625 0.3125
vt 0.90625 0.28125
vt 0.9375 0.21875
vt 0.9375 0.25
vt 0.96875 0.25
vt 0.96875 0.21875
vt 0.9375 0.21875
vt 0.9375 0.25
vt 0.96875 0.25
vt 0.96875 0.21875
vt 0.6875 0.375
vt 0.8125 0.40625
vt 0.6875 0.40625
vt 0.8125 0.375
vt 0.65625 0.34375
vt 0.65625 0.375
vt 0.84375 0.34375
vt 0.84375 0.375
vt 0.625 0.3125
vt 0.625 0.34375
vt 0.875 0.3125
vt 0.875 0.34375
vt 0.59375 0.28125
vt 0.59375 0.3125
vt 0.90625 0.28125
vt 0.90625 0.3125
vt 0.5625 0.25
vt 0.5625 0.28125
vt 0.9375 0.25
vt 0.53125 0.21875
vt 0.9375 0.28125
vt 0.53125 0.25
vt 0.96875 0.21875
vt 0.96875 0.25
vt 0.6875 0.09375
vt 0.96875 0.09375
vt 1 0.09375
vt 1 0.21875
vt 0.875 0.0625
vt 0.96875 0.0625
vt 0.75 0.0625
vt 0.6875 0.0625
vt 0.75 0.03125
vt 0.875 0.03125
vt 0.65625 0.09375
vt 0.5625 0.09375
vt 0.5 0.09375
vt 0.5 0.21875
vt 0.5625 0.0625
vt 0.65625 0.0625
vt 0.5625 0.125
vt 0.5625 0.09375
vt 0.5 0.09375
vt 0.5 0.125
vt 0.65625 0.09375
vt 0.65625 0.0625
vt 0.5625 0.0625
vt 0.5625 0.09375
vt 0.625 0.0625
vt 0.625 0.09375
vt 0.65625 0.09375
vt 0.65625 0.0625
vt 0.75 0.09375
vt 0.75 0.0625
vt 0.6875 0.0625
vt 0.6875 0.09375
vt 0.875 0.0625
vt 0.875 0.03125
vt 0.75 0.03125
vt 0.75 0.0625
vt 0.84375 0.03125
vt 0.84375 0.0625
vt 0.875 0.0625
vt 0.875 0.03125
vt 0.9375 0.0625
vt 0.9375 0.09375
vt 0.96875 0.09375
vt 0.96875 0.0625
vt 0.96875 0.21875
vt 1 0.21875
vt 1 0.09375
vt 0.96875 0.09375
vt 0.5 0.21875
vt 0.53125 0.21875
vt 0.53125 0.09375
vt 0.5 0.09375
vt 0.65625 0.34375
vt 0.65625 0.375
vt 0.6875 0.375
vt 0.6875 0.34375
vt 0.625 0.3125
vt 0.625 0.34375
vt 0.65625 0.34375
vt 0.65625 0.3125
vt 0.59375 0.28125
vt 0.59375 0.3125
vt 0.625 0.3125
vt 0.625 0.28125
vt 0.5625 0.25
vt 0.5625 0.28125
vt 0.59375 0.28125
vt 0.59375 0.25
vt 0.5625 0.25
vt 0.5625 0.28125
vt 0.59375 0.28125
vt 0.59375 0.25
vt 0.53125 0.21875
vt 0.53125 0.25
vt 0.5625 0.25
vt 0.5625 0.21875
vt 0.5625 0.0625
vt 0.5625 0.09375
vt 0.59375 0.09375
vt 0.59375 0.0625
vt 0.75 0.03125
vt 0.75 0.0625
vt 0.78125 0.0625
vt 0.78125 0.03125
vt 0.96875 0.09375
vt 0.96875 0.0625
vt 0.875 0.0625
vt 0.875 0.09375
vt 0.96875 0.09375
vt 0.96875 0.125
vt 1 0.125
vt 1 0.09375
vt 0.96875 0.1875
vt 0.96875 0.21875
vt 1 0.21875
vt 1 0.1875
vt 0.90625 0.25
vt 0.90625 0.28125
vt 0.9375 0.28125
vt 0.9375 0.25
vt 0.90625 0.25
vt 0.90625 0.28125
vt 0.9375 0.28125
vt 0.9375 0.25
vt 0.875 0.28125
vt 0.875 0.3125
vt 0.90625 0.3125
vt 0.90625 0.28125
vt 0.8125 0.34375
vt 0.8125 0.375
vt 0.84375 0.375
vt 0.84375 0.34375
vt 0.84375 0.3125
vt 0.84375 0.34375
vt 0.875 0.34375
vt 0.875 0.3125
vt 0.6875 0.0625
vt 0.6875 0.09375
vt 0.71875 0.09375
vt 0.71875 0.0625
vt 0.65625 0.09375
vt 0.65625 0.125
vt 0.6875 0.125
vt 0.6875 0.09375
vn 0 1 0
vn 0 1 0
vn 0 1 0
vn 0 1 0
vn 0 1 0
vn 0 1 0
vn 0 1 0
vn 0 1 0
vn 0 1 0
vn 0 1 0
vn 0 1 0
vn 0 1 0
vn 0 1 0
vn 0 1 0
vn 0 1 0
vn 0 1 0
vn 0 1 0
vn 0 1 0
vn 0 1 0
vn 0 1 0
vn 0 1 0
vn 0 1 0
vn 0 1 0
vn 0 1 0
vn 0 1 0
vn 0 1 0
vn 0 1 0
vn 0 1 0
vn 0 1 0
vn 0 1 0
vn 0 1 0
vn 0 1 0
vn 0 1 0
vn 0 1 0
vn 0 1 0
vn 0 1 0
vn 0 1 0
vn 0 1 0
vn 0 1 0
vn 0 1 0
vn 0 0 -1
vn 0 0 -1
vn 0 0 -1
vn 0 0 -1
vn 0 0 -1
vn 0 0 -1
vn 0 0 -1
vn 0 0 -1
vn -1 0 0
vn -1 0 0
vn -1 0 0
vn -1 0 0
vn -1 0 0
vn -1 0 0
vn -1 0 0
vn -1 0 0
vn -1 0 0
vn -1 0 0
vn -1 0 0
vn -1 0 0
vn -1 0 0
vn -1 0 0
vn -1 0 0
vn -1 0 0
vn 0 0 -1
vn 0 0 -1
vn 0 0 -1
vn 0 0 -1
vn 1 0 0
vn 1 0 0
vn 1 0 0
vn 1 0 0
vn 1 0 0
vn 1 0 0
vn 1 0 0
vn 1 0 0
vn 1 0 0
vn 1 0 0
vn 1 0 0
vn 1 0 0
vn 1 0 0
vn 1 0 0
vn 1 0 0
vn 1 0 0
vn 0 0 -1
vn 0 0 -1
vn 0 0 -1
vn 0 0 -1
vn 1 0 0
vn 1 0 0
vn 1 0 0
vn 1 0 0
vn 0 -1 0
vn 0 -1 0
vn 0 -1 0
vn 0 -1 0
vn 0 -1 0
vn 0 -1 0
vn 0 -1 0
vn 0 -1 0
vn 0 -1 0
vn 0 -1 0
vn 0 -1 0
vn 0 -1 0
vn 0 -1 0
vn 0 -1 0
vn 0 -1 0
vn 0 -1 0
vn 0 -1 0
vn 0 -1 0
vn 0 -1 0
vn 0 -1 0
vn 0 -1 0
vn 0 -1 0
vn 0 -1 0
vn 0 -1 0
vn 0 -1 0
vn 0 -1 0
vn 0 -1 0
vn 0 -1 0
vn 0 -1 0
vn 0 -1 0
vn 0 -1 0
vn 0 -1 0
vn 0 -1 0
vn 0 -1 0
vn 0 -1 0
vn 0 -1 0
vn 0 -1 0
vn 0 -1 0
vn 0 -1 0
vn 0 -1 0
vn 0 0 1
vn 0 0 1
vn 0 0 1
vn 0 0 1
vn 0 0 1
vn 0 0 1
vn 0 0 1
vn 0 0 1
vn 1 0 0
vn 1 0 0
vn 1 0 0
vn 1 0 0
vn 0 0 1
vn 0 0 1
vn 0 0 1
vn 0 0 1
vn 0 0 1
vn 0 0 1
vn 0 0 1
vn 0 0 1
vn 1 0 0
vn 1 0 0
vn 1 0 0
vn 1 0 0
vn 1 0 0
vn 1 0 0
vn 1 0 0
vn 1 0 0
vn 1 0 0
vn 1 0 0
vn 1 0 0
vn 1 0 0
vn -1 0 0
vn -1 0 0
vn -1 0 0
vn -1 0 0
vn 0 0 -1
vn 0 0 -1
vn 0 0 -1
vn 0 0 -1
vn 0 0 -1
vn 0 0 -1
vn 0 0 -1
vn 0 0 -1
vn 0 0 -1
vn 0 0 -1
vn 0 0 -1
vn 0 0 -1
vn 0 0 -1
vn 0 0 -1
vn 0 0 -1
vn 0 0 -1
vn -1 0 0
vn -1 0 0
vn -1 0 0
vn -1 0 0
vn -1 0 0
vn -1 0 0
vn -1 0 0
vn -1 0 0
vn -1 0 0
vn -1 0 0
vn -1 0 0
vn -1 0 0
vn -1 0 0
vn -1 0 0
vn -1 0 0
vn -1 0 0
vn 0 0 1
vn 0 0 1
vn 0 0 1
vn 0 0 1
vn 0 0 1
vn 0 0 1
vn 0 0 1
vn 0 0 1
vn 0 0 -1
vn 0 0 -1
vn 0 0 -1
vn 0 0 -1
vn 1 0 0
vn 1 0 0
vn 1 0 0
vn 1 0 0
vn 0 0 -1
vn 0 0 -1
vn 0 0 -1
vn 0 0 -1
vn 0 0 -1
vn 0 0 -1
vn 0 0 -1
vn 0 0 -1
vn 0 0 -1
vn 0 0 -1
vn 0 0 -1
vn 0 0 -1
vn 0 0 -1
vn 0 0 -1
vn 0 0 -1
vn 0 0 -1
vn -1 0 0
vn -1 0 0
vn -1 0 0
vn -1 0 0
vn 0 0 1
vn 0 0 1
vn 0 0 1
vn 0 0 1
g n012v002_m_0
f 3/3/3 2/2/2 1/1/1
f 2/2/2 4/4/4 1/1/1
f 1/1/1 4/4/4 5/5/5
f 6/6/6 1/1/1 5/5/5
f 4/4/4 7/7/7 5/5/5
f 4/4/4 8/8/8 7/7/7
f 5/5/5 7/7/7 9/9/9
f 10/10/10 9/9/9 7/7/7
f 11/11/11 10/10/10 7/7/7
f 5/5/5 9/9/9 12/12/12
f 13/13/13 5/5/5 12/12/12
f 14/14/14 13/13/13 12/12/12
f 15/15/15 13/13/13 14/14/14
f 16/16/16 15/15/15 14/14/14
f 17/17/17 14/14/14 12/12/12
f 18/18/18 17/17/17 12/12/12
f 12/12/12 9/9/9 19/19/19
f 20/20/20 12/12/12 19/19/19
f 9/9/9 21/21/21 19/19/19
f 9/9/9 22/22/22 21/21/21
f 19/19/19 21/21/21 23/23/23
f 24/24/24 19/19/19 23/23/23
f 21/21/21 25/25/25 23/23/23
f 21/21/21 26/26/26 25/25/25
f 23/23/23 25/25/25 27/27/27
f 28/28/28 23/23/23 27/27/27
f 25/25/25 29/29/29 27/27/27
f 25/25/25 30/30/30 29/29/29
f 27/27/27 29/29/29 31/31/31
f 32/32/32 27/27/27 31/31/31
f 29/29/29 33/33/33 31/31/31
f 29/29/29 34/34/34 33/33/33
f 31/31/31 33/33/33 35/35/35
f 36/36/36 31/31/31 35/35/35
f 33/33/33 37/37/37 35/35/35
f 33/33/33 38/38/38 37/37/37
f 35/35/35 37/37/37 39/39/39
f 37/37/37 40/40/40 39/39/39
f 43/43/43 42/42/42 41/41/41
f 44/44/44 43/43/43 41/41/41
f 47/47/47 46/46/46 45/45/45
f 48/48/48 47/47/47 45/45/45
f 51/51/51 50/50/50 49/49/49
f 52/52/52 51/51/51 49/49/49
f 55/55/55 54/54/54 53/53/53
f 56/56/56 55/55/55 53/53/53
f 59/59/59 58/58/58 57/57/57
f 60/60/60 59/59/59 57/57/57
f 63/63/63 62/62/62 61/61/61
f 64/64/64 63/63/63 61/61/61
f 67/67/67 66/66/66 65/65/65
f 68/68/68 67/67/67 65/65/65
f 71/71/71 70/70/70 69/69/69
f 72/72/72 71/71/71 69/69/69
f 75/75/75 74/74/74 73/73/73
f 76/76/76 75/75/75 73/73/73
f 79/79/79 78/78/78 77/77/77
f 80/80/80 79/79/79 77/77/77
f 83/83/83 82/82/82 81/81/81
f 84/84/84 83/83/83 81/81/81
f 87/87/87 86/86/86 85/85/85
f 88/88/88 87/87/87 85/85/85
f 91/91/91 90/90/90 89/89/89
f 92/92/92 91/91/91 89/89/89
f 95/95/95 94/94/94 93/93/93
f 94/94/94 96/96/96 93/93/93
f 93/93/93 96/96/96 97/97/97
f 98/98/98 93/93/93 97/97/97
f 96/96/96 99/99/99 97/97/97
f 96/96/96 100/100/100 99/99/99
f 97/97/97 99/99/99 101/101/101
f 102/102/102 97/97/97 101/101/101
f 99/99/99 103/103/103 101/101/101
f 99/99/99 104/104/104 103/103/103
f 101/101/101 103/103/103 105/105/105
f 106/106/106 101/101/101 105/105/105
f 103/103/103 107/107/107 105/105/105
f 103/103/103 108/108/108 107/107/107
f 105/105/105 107/107/107 109/109/109
f 110/110/110 105/105/105 109/109/109
f 107/107/107 111/111/111 109/109/109
f 109/109/109 111/111/111 112/112/112
f 107/107/107 113/113/113 111/111/111
f 114/114/114 109/109/109 112/112/112
f 111/111/111 115/115/115 112/112/112
f 111/111/111 116/116/116 115/115/115
f 112/112/112 115/115/115 117/117/117
f 115/115/115 118/118/118 117/117/117
f 119/119/119 118/118/118 115/115/115
f 120/120/120 119/119/119 115/115/115
f 117/117/117 118/118/118 121/121/121
f 118/118/118 122/122/122 121/121/121
f 123/123/123 117/117/117 121/121/121
f 123/123/123 124/124/124 117/117/117
f 123/123/123 121/121/121 125/125/125
f 121/121/121 126/126/126 125/125/125
f 127/127/127 112/112/112 117/117/117
f 127/127/127 128/128/128 112/112/112
f 128/128/128 129/129/129 112/112/112
f 129/129/129 130/130/130 112/112/112
f 128/128/128 127/127/127 131/131/131
f 127/127/127 132/132/132 131/131/131
f 135/135/135 134/134/134 133/133/133
f 136/136/136 135/135/135 133/133/133
f 139/139/139 138/138/138 137/137/137
f 140/140/140 139/139/139 137/137/137
f 143/143/143 142/142/142 141/141/141
f 144/144/144 143/143/143 141/141/141
f 147/147/147 146/146/146 145/145/145
f 148/148/148 147/147/147 145/145/145
f 151/151/151 150/150/150 149/149/149
f 152/152/152 151/151/151 149/149/149
f 155/155/155 154/154/154 153/153/153
f 156/156/156 155/155/155 153/153/153
f 159/159/159 158/158/158 157/157/157
f 160/160/160 159/159/159 157/157/157
f 163/163/163 162/162/162 161/161/161
f 164/164/164 163/163/163 161/161/161
f 167/167/167 166/166/166 165/165/165
f 168/168/168 167/167/167 165/165/165
f 171/171/171 170/170/170 169/169/169
f 172/172/172 171/171/171 169/169/169
f 175/175/175 174/174/174 173/173/173
f 176/176/176 175/175/175 173/173/173
f 179/179/179 178/178/178 177/177/177
f 180/180/180 179/179/179 177/177/177
f 183/183/183 182/182/182 181/181/181
f 184/184/184 183/183/183 181/181/181
f 187/187/187 186/186/186 185/185/185
f 188/188/188 187/187/187 185/185/185
f 191/191/191 190/190/190 189/189/189
f 192/192/192 191/191/191 189/189/189
f 195/195/195 194/194/194 193/193/193
f 196/196/196 195/195/195 193/193/193
f 199/199/199 198/198/198 197/197/197
f 200/200/200 199/199/199 197/197/197
f 203/203/203 202/202/202 201/201/201
f 204/204/204 203/203/203 201/201/201
f 207/207/207 206/206/206 205/205/205
f 208/208/208 207/207/207 205/205/205
f 211/211/211 210/210/210 209/209/209
f 212/212/212 211/211/211 209/209/209
f 215/215/215 214/214/214 213/213/213
f 216/216/216 215/215/215 213/213/213
f 219/219/219 218/218/218 217/217/217
f 220/220/220 219/219/219 217/217/217
f 223/223/223 222/222/222 221/221/221
f 224/224/224 223/223/223 221/221/221
f 227/227/227 226/226/226 225/225/225
f 228/228/228 227/227/227 225/225/225
f 231/231/231 230/230/230 229/229/229
f 232/232/232 231/231/231 229/229/229
f 235/235/235 234/234/234 233/233/233
f 236/236/236 235/235/235 233/233/233
f 239/239/239 238/238/238 237/237/237
f 240/240/240 239/239/239 237/237/237
