g n014v001_m
v -0.25 0.4375 -0.5
v -0.25 0.5 -0.355102
v -0.25 0.4375 -0.355102
v -0.1875 0.9375 -0.355102
v -0.125 0.9375 -0.355102
v -0.1875 0.875 -0.355102
v -0.0625 0.9375 -0.355102
v 0.1875 0.875 -0.355102
v 0.0625 0.9375 -0.355102
v 0.0625 1 -0.355102
v -0.0625 1 -0.355102
v 0.125 0.9375 -0.355102
v 0.1875 0.9375 -0.355102
v 0.25 0.5 -0.355102
v 0.25 0.875 -0.355102
v -0.25 0.5 -0.355102
v -0.25 0.875 -0.355102
v -0.25 0.4375 -0.355102
v 0.25 0.4375 -0.355102
v 0.3125 0.25 -0.355102
v 0.3125 0.4375 -0.355102
v -0.3125 0.25 -0.355102
v -0.3125 0.4375 -0.355102
v 0.3125 0.1875 -0.355102
v -0.3125 0.1875 -0.355102
v 0.375 5E-15 -0.355102
v 0.375 0.1875 -0.355102
v -0.375 5E-15 -0.355102
v -0.375 0.1875 -0.355102
v -0.1875 0.9375 -0.5
v -0.125 0.9375 -0.5
v -0.125 0.9375 -0.355102
v -0.1875 0.9375 -0.355102
v -0.0625 0.9375 -0.5
v -0.0625 1 -0.5
v -0.0625 1 -0.355102
v -0.0625 0.9375 -0.355102
v 0.0625 1 -0.5
v 0.0625 1 -0.355102
v -0.0625 1 -0.355102
v -0.0625 1 -0.5
v 0.0625 1 -0.5
v 0.0625 0.9375 -0.5
v 0.0625 0.9375 -0.355102
v 0.0625 1 -0.355102
v 0.125 0.9375 -0.5
v 0.1875 0.9375 -0.5
v 0.1875 0.9375 -0.355102
v 0.125 0.9375 -0.355102
v 0.0625 0.9375 -0.5
v 0.0625 1 -0.5
v -0.0625 1 -0.5
v -0.0625 0.9375 -0.5
v 0.1875 0.875 -0.5
v 0.125 0.9375 -0.5
v 0.1875 0.9375 -0.5
v -0.1875 0.875 -0.5
v -0.125 0.9375 -0.5
v -0.1875 0.9375 -0.5
v -0.25 0.4375 -0.5
v -0.25 0.875 -0.5
v 0.25 0.4375 -0.5
v 0.25 0.875 -0.5
v -0.3125 0.25 -0.5
v -0.3125 0.4375 -0.5
v 0.3125 0.25 -0.5
v 0.3125 0.4375 -0.5
v -0.3125 0.1875 -0.5
v 0.3125 0.1875 -0.5
v 0.375 -5E-15 -0.5
v 0.375 0.1875 -0.5
v -0.375 -5E-15 -0.5
v -0.375 0.1875 -0.5
v 0.375 -5E-15 -0.5
v -0.375 -5E-15 -0.5
v -0.375 5E-15 -0.355102
v 0.375 5E-15 -0.355102
v 0.375 0.1875 -0.5
v 0.375 -5E-15 -0.5
v 0.375 5E-15 -0.355102
v 0.375 0.1875 -0.355102
v 0.3125 0.25 -0.355102
v 0.3125 0.25 -0.5
v 0.3125 0.1875 -0.5
v 0.3125 0.1875 -0.355102
v 0.3125 0.4375 -0.5
v 0.3125 0.25 -0.5
v 0.3125 0.25 -0.355102
v 0.3125 0.4375 -0.355102
v 0.25 0.5 -0.355102
v 0.25 0.875 -0.355102
v 0.25 0.875 -0.5
v 0.25 0.4375 -0.5
v 0.25 0.4375 -0.355102
v 0.1875 0.9375 -0.355102
v 0.1875 0.9375 -0.5
v 0.1875 0.875 -0.5
v 0.1875 0.875 -0.355102
v -0.375 0.1875 -0.355102
v -0.375 5E-15 -0.355102
v -0.375 -5E-15 -0.5
v -0.375 0.1875 -0.5
v -0.3125 0.1875 -0.5
v -0.3125 0.1875 -0.355102
v -0.375 0.1875 -0.355102
v -0.375 0.1875 -0.5
v -0.3125 0.4375 -0.355102
v -0.3125 0.25 -0.355102
v -0.3125 0.25 -0.5
v -0.3125 0.4375 -0.5
v -0.25 0.4375 -0.5
v -0.25 0.4375 -0.355102
v -0.3125 0.4375 -0.355102
v -0.3125 0.4375 -0.5
v -0.1875 0.9375 -0.5
v -0.1875 0.9375 -0.355102
v -0.1875 0.875 -0.355102
v -0.1875 0.875 -0.5
v 0.0625 0.9375 -0.5
v 0.125 0.9375 -0.5
v 0.125 0.9375 -0.355102
v 0.0625 0.9375 -0.355102
v 0.1875 0.875 -0.355102
v 0.1875 0.875 -0.5
v 0.25 0.875 -0.5
v 0.25 0.875 -0.355102
v 0.25 0.4375 -0.355102
v 0.25 0.4375 -0.5
v 0.3125 0.4375 -0.5
v 0.3125 0.4375 -0.355102
v 0.3125 0.1875 -0.355102
v 0.3125 0.1875 -0.5
v 0.375 0.1875 -0.5
v 0.375 0.1875 -0.355102
v -0.3125 0.25 -0.5
v -0.3125 0.25 -0.355102
v -0.3125 0.1875 -0.355102
v -0.3125 0.1875 -0.5
v -0.1875 0.875 -0.5
v -0.1875 0.875 -0.355102
v -0.25 0.875 -0.355102
v -0.25 0.875 -0.5
v -0.125 0.9375 -0.5
v -0.0625 0.9375 -0.5
v -0.0625 0.9375 -0.355102
v -0.125 0.9375 -0.355102
v -0.25 0.875 -0.5
v -0.25 0.875 -0.355102
v -0.25 0.5 -0.355102
v -0.25 0.4375 -0.5
vt 0.125 0.7260742
vt 0.15625 0.7573242
vt 0.15625 0.7260742
vt 0.65625 0.46875
vt 0.6875 0.46875
vt 0.65625 0.4375
vt 0.71875 0.46875
vt 0.84375 0.4375
vt 0.78125 0.46875
vt 0.78125 0.5
vt 0.71875 0.5
vt 0.8125 0.46875
vt 0.84375 0.46875
vt 0.875 0.25
vt 0.875 0.4375
vt 0.625 0.25
vt 0.625 0.4375
vt 0.625 0.21875
vt 0.875 0.21875
vt 0.90625 0.125
vt 0.90625 0.21875
vt 0.59375 0.125
vt 0.59375 0.21875
vt 0.90625 0.09375
vt 0.59375 0.09375
vt 0.9375 0
vt 0.9375 0.09375
vt 0.5625 0
vt 0.5625 0.09375
vt 0.15625 0.6000977
vt 0.1875 0.6000977
vt 0.1875 0.5688477
vt 0.15625 0.5688477
vt 0.21875 0.6313477
vt 0.25 0.6313477
vt 0.25 0.6000977
vt 0.21875 0.6000977
vt 0.28125 0.6313477
vt 0.28125 0.6000977
vt 0.21875 0.6000977
vt 0.21875 0.6313477
vt 0.25 0.6313477
vt 0.28125 0.6313477
vt 0.28125 0.6000977
vt 0.25 0.6000977
vt 0.3125 0.6000977
vt 0.34375 0.6000977
vt 0.34375 0.5688477
vt 0.3125 0.5688477
vt 0.78125 0.53125
vt 0.78125 0.5
vt 0.71875 0.5
vt 0.71875 0.53125
vt 0.84375 0.5625
vt 0.8125 0.53125
vt 0.84375 0.53125
vt 0.65625 0.5625
vt 0.6875 0.53125
vt 0.65625 0.53125
vt 0.625 0.78125
vt 0.625 0.5625
vt 0.875 0.78125
vt 0.875 0.5625
vt 0.59375 0.875
vt 0.59375 0.78125
vt 0.90625 0.875
vt 0.90625 0.78125
vt 0.59375 0.90625
vt 0.90625 0.90625
vt 0.9375 1
vt 0.9375 0.90625
vt 0.5625 1
vt 0.5625 0.90625
vt 0.4375 0.317627
vt 0.0625 0.317627
vt 0.0625 0.348877
vt 0.4375 0.348877
vt 0.4375 0.4855957
vt 0.4375 0.3918457
vt 0.40625 0.3918457
vt 0.40625 0.4855957
vt 0.375 0.5166016
vt 0.40625 0.5166016
vt 0.40625 0.4855957
vt 0.375 0.4855957
vt 0.40625 0.21875
vt 0.40625 0.125
vt 0.375 0.125
vt 0.375 0.21875
vt 0.34375 0.7573242
vt 0.34375 0.9604492
vt 0.375 0.9604492
vt 0.375 0.7260742
vt 0.34375 0.7260742
vt 0.3125 0.6000977
vt 0.34375 0.6000977
vt 0.34375 0.5688477
vt 0.3125 0.5688477
vt 0.09375 0.4855957
vt 0.09375 0.3918457
vt 0.0625 0.3918457
vt 0.0625 0.4855957
vt 0.0625 0.4855957
vt 0.09375 0.4855957
vt 0.09375 0.4543457
vt 0.0625 0.4543457
vt 0.125 0.21875
vt 0.125 0.125
vt 0.09375 0.125
vt 0.09375 0.21875
vt 0.09375 0.21875
vt 0.125 0.21875
vt 0.125 0.1875
vt 0.09375 0.1875
vt 0.15625 0.6000977
vt 0.1875 0.6000977
vt 0.1875 0.5688477
vt 0.15625 0.5688477
vt 0.28125 0.9614258
vt 0.3125 0.9614258
vt 0.3125 0.9301758
vt 0.28125 0.9301758
vt 0.34375 0.9604492
vt 0.375 0.9604492
vt 0.375 0.9291992
vt 0.34375 0.9291992
vt 0.375 0.21875
vt 0.40625 0.21875
vt 0.40625 0.1875
vt 0.375 0.1875
vt 0.40625 0.4855957
vt 0.4375 0.4855957
vt 0.4375 0.4543457
vt 0.40625 0.4543457
vt 0.09375 0.5166016
vt 0.125 0.5166016
vt 0.125 0.4855957
vt 0.09375 0.4855957
vt 0.125 0.9604492
vt 0.15625 0.9604492
vt 0.15625 0.9291992
vt 0.125 0.9291992
vt 0.1875 0.9614258
vt 0.21875 0.9614258
vt 0.21875 0.9301758
vt 0.1875 0.9301758
vt 0.125 0.9604492
vt 0.15625 0.9604492
vt 0.15625 0.7729492
vt 0.125 0.7260742
vn -1 0 0
vn -1 0 0
vn -1 0 0
vn 0 0 1
vn 0 0 1
vn 0 0 1
vn 0 0 1
vn 0 0 1
vn 0 0 1
vn 0 0 1
vn 0 0 1
vn 0 0 1
vn 0 0 1
vn 0 0 1
vn 0 0 1
vn 0 0 1
vn 0 0 1
vn 0 0 1
vn 0 0 1
vn 0 0 1
vn 0 0 1
vn 0 0 1
vn 0 0 1
vn 0 0 1
vn 0 0 1
vn 0 0 1
vn 0 0 1
vn 0 0 1
vn 0 0 1
vn 0 1 0
vn 0 1 0
vn 0 1 0
vn 0 1 0
vn -1 0 0
vn -1 0 0
vn -1 0 0
vn -1 0 0
vn 0 1 0
vn 0 1 0
vn 0 1 0
vn 0 1 0
vn 1 0 0
vn 1 0 0
vn 1 0 0
vn 1 0 0
vn 0 1 0
vn 0 1 0
vn 0 1 0
vn 0 1 0
vn 0 0 -1
vn 0 0 -1
vn 0 0 -1
vn 0 0 -1
vn 0 0 -1
vn 0 0 -1
vn 0 0 -1
vn 0 0 -1
vn 0 0 -1
vn 0 0 -1
vn 0 0 -1
vn 0 0 -1
vn 0 0 -1
vn 0 0 -1
vn 0 0 -1
vn 0 0 -1
vn 0 0 -1
vn 0 0 -1
vn 0 0 -1
vn 0 0 -1
vn 0 0 -1
vn 0 0 -1
vn 0 0 -1
vn 0 0 -1
vn 0 -1 0
vn 0 -1 0
vn 0 -1 0
vn 0 -1 0
vn 1 0 0
vn 1 0 0
vn 1 0 0
vn 1 0 0
vn 1 0 0
vn 1 0 0
vn 1 0 0
vn 1 0 0
vn 1 0 0
vn 1 0 0
vn 1 0 0
vn 1 0 0
vn 1 0 0
vn 1 0 0
vn 1 0 0
vn 1 0 0
vn 1 0 0
vn 1 0 0
vn 1 0 0
vn 1 0 0
vn 1 0 0
vn -1 0 0
vn -1 0 0
vn -1 0 0
vn -1 0 0
vn 0 1 0
vn 0 1 0
vn 0 1 0
vn 0 1 0
vn -1 0 0
vn -1 0 0
vn -1 0 0
vn -1 0 0
vn 0 1 0
vn 0 1 0
vn 0 1 0
vn 0 1 0
vn -1 0 0
vn -1 0 0
vn -1 0 0
vn -1 0 0
vn 0 1 0
vn 0 1 0
vn 0 1 0
vn 0 1 0
vn 0 1 0
vn 0 1 0
vn 0 1 0
vn 0 1 0
vn 0 1 0
vn 0 1 0
vn 0 1 0
vn 0 1 0
vn 0 1 0
vn 0 1 0
vn 0 1 0
vn 0 1 0
vn -1 0 0
vn -1 0 0
vn -1 0 0
vn -1 0 0
vn 0 1 0
vn 0 1 0
vn 0 1 0
vn 0 1 0
vn 0 1 0
vn 0 1 0
vn 0 1 0
vn 0 1 0
vn -1 0 0
vn -1 0 0
vn -1 0 0
vn -1 0 0
g n014v001_m_0
f 3/3/3 2/2/2 1/1/1
f 6/6/6 5/5/5 4/4/4
f 7/7/7 5/5/5 6/6/6
f 6/6/6 8/8/8 7/7/7
f 8/8/8 9/9/9 7/7/7
f 7/7/7 9/9/9 10/10/10
f 11/11/11 7/7/7 10/10/10
f 8/8/8 12/12/12 9/9/9
f 8/8/8 13/13/13 12/12/12
f 14/14/14 8/8/8 6/6/6
f 8/8/8 14/14/14 15/15/15
f 16/16/16 14/14/14 6/6/6
f 6/6/6 17/17/17 16/16/16
f 14/14/14 16/16/16 18/18/18
f 19/19/19 14/14/14 18/18/18
f 20/20/20 19/19/19 18/18/18
f 19/19/19 20/20/20 21/21/21
f 22/22/22 20/20/20 18/18/18
f 22/22/22 18/18/18 23/23/23
f 20/20/20 22/22/22 24/24/24
f 22/22/22 25/25/25 24/24/24
f 26/26/26 24/24/24 25/25/25
f 24/24/24 26/26/26 27/27/27
f 28/28/28 26/26/26 25/25/25
f 28/28/28 25/25/25 29/29/29
f 32/32/32 31/31/31 30/30/30
f 33/33/33 32/32/32 30/30/30
f 36/36/36 35/35/35 34/34/34
f 37/37/37 36/36/36 34/34/34
f 40/40/40 39/39/39 38/38/38
f 41/41/41 40/40/40 38/38/38
f 44/44/44 43/43/43 42/42/42
f 45/45/45 44/44/44 42/42/42
f 48/48/48 47/47/47 46/46/46
f 49/49/49 48/48/48 46/46/46
f 52/52/52 51/51/51 50/50/50
f 53/53/53 52/52/52 50/50/50
f 53/53/53 50/50/50 54/54/54
f 55/55/55 54/54/54 50/50/50
f 56/56/56 54/54/54 55/55/55
f 57/57/57 53/53/53 54/54/54
f 57/57/57 58/58/58 53/53/53
f 57/57/57 59/59/59 58/58/58
f 60/60/60 57/57/57 54/54/54
f 57/57/57 60/60/60 61/61/61
f 62/62/62 60/60/60 54/54/54
f 54/54/54 63/63/63 62/62/62
f 64/64/64 60/60/60 62/62/62
f 60/60/60 64/64/64 65/65/65
f 66/66/66 64/64/64 62/62/62
f 62/62/62 67/67/67 66/66/66
f 64/64/64 66/66/66 68/68/68
f 66/66/66 69/69/69 68/68/68
f 68/68/68 69/69/69 70/70/70
f 70/70/70 69/69/69 71/71/71
f 72/72/72 68/68/68 70/70/70
f 72/72/72 73/73/73 68/68/68
f 76/76/76 75/75/75 74/74/74
f 77/77/77 76/76/76 74/74/74
f 80/80/80 79/79/79 78/78/78
f 81/81/81 80/80/80 78/78/78
f 84/84/84 83/83/83 82/82/82
f 85/85/85 84/84/84 82/82/82
f 88/88/88 87/87/87 86/86/86
f 89/89/89 88/88/88 86/86/86
f 92/92/92 91/91/91 90/90/90
f 93/93/93 92/92/92 90/90/90
f 93/93/93 90/90/90 94/94/94
f 97/97/97 96/96/96 95/95/95
f 98/98/98 97/97/97 95/95/95
f 101/101/101 100/100/100 99/99/99
f 102/102/102 101/101/101 99/99/99
f 105/105/105 104/104/104 103/103/103
f 106/106/106 105/105/105 103/103/103
f 109/109/109 108/108/108 107/107/107
f 110/110/110 109/109/109 107/107/107
f 113/113/113 112/112/112 111/111/111
f 114/114/114 113/113/113 111/111/111
f 117/117/117 116/116/116 115/115/115
f 118/118/118 117/117/117 115/115/115
f 121/121/121 120/120/120 119/119/119
f 122/122/122 121/121/121 119/119/119
f 125/125/125 124/124/124 123/123/123
f 126/126/126 125/125/125 123/123/123
f 129/129/129 128/128/128 127/127/127
f 130/130/130 129/129/129 127/127/127
f 133/133/133 132/132/132 131/131/131
f 134/134/134 133/133/133 131/131/131
f 137/137/137 136/136/136 135/135/135
f 138/138/138 137/137/137 135/135/135
f 141/141/141 140/140/140 139/139/139
f 142/142/142 141/141/141 139/139/139
f 145/145/145 144/144/144 143/143/143
f 146/146/146 145/145/145 143/143/143
f 149/149/149 148/148/148 147/147/147
f 150/150/150 149/149/149 147/147/147
