g p007v001_h
v -0.5144806 0.4173942 -0.3743739
v -0.4397354 0.8388605 -0.5124846
v -0.2182579 0.825954 -0.4000287
v -0.07273865 0.3558114 -0.2838898
v 0.002006531 0.7772768 -0.4220014
v 0.1206236 0.09288579 -0.2827592
v -0.02446747 0.5033497 -0.4087672
v 0.2057247 0.5807148 -0.4472589
v 0.5464611 0.1851897 -0.4588532
v 0.4013681 0.5956534 -0.5848622
v -0.07876587 0.6257777 -0.263567
v -0.06541443 1.021268 -0.4054732
v 0.1609335 1.014974 -0.3999505
v 0.3301792 0.5597124 -0.3805189
v 0.3435287 0.9552019 -0.5224257
v 0.1936522 1 -0.5
v 0.1936522 0 -0.5
v 0.008256912 0 -0.4124103
v 0.008256912 1 -0.4124103
v -0.1771383 0 -0.5
v -0.1771383 1 -0.5
v -0.3136063 -0.05957216 -0.3998599
v -0.3434553 0.312874 -0.5051732
v -0.1641178 0.3547137 -0.4060044
v 0.07460499 -0.01689011 -0.325973
v 0.04475498 0.3555554 -0.4312873
vt 0.4453125 0.001725197
vt 0.4453125 0.4938965
vt 0.7119141 0.4938965
vt 0.9819336 0.001725197
vt 0.9819336 0.4938965
vt 0.4453125 0.001725197
vt 0.4453125 0.4938965
vt 0.7119141 0.4938965
vt 0.9819336 0.001725197
vt 0.9819336 0.4938965
vt 0.4453125 0.5004883
vt 0.4453125 0.9926758
vt 0.7119141 0.9926758
vt 0.9819336 0.5004883
vt 0.9819336 0.9926758
vt 0.362793 1
vt 0.362793 0
vt 0.182251 0
vt 0.182251 1
vt 0.0017519 0
vt 0.0017519 1
vt 0.4453125 0.5004883
vt 0.4453125 0.9926758
vt 0.7119141 0.9926758
vt 0.9819336 0.5004883
vt 0.9819336 0.9926758
vn -0.2216797 0.2203369 0.949707
vn -0.407959 0.348877 0.84375
vn -0.157959 0.2648926 0.9511719
vn -0.116333 0.2041016 0.972168
vn 0.1568604 0.2822266 0.9462891
vn 0.2749023 0.263916 0.9243164
vn 0.05432129 0.3105469 0.9492188
vn 0.3034668 0.3149414 0.8994141
vn 0.3566895 0.28125 0.8911133
vn 0.503418 0.4111328 0.7602539
vn 0.2398682 0.1861572 0.9526367
vn -0.01355743 0.3381348 0.940918
vn 0.2995605 0.2366943 0.9243164
vn 0.354248 0.1708984 0.9194336
vn 0.5947266 0.2536621 0.7626953
vn 0.4272461 0 0.9042969
vn 0.4272461 0 0.9042969
vn 0 0 1
vn 0 0 1
vn -0.4272461 0 0.9042969
vn -0.4272461 0 0.9042969
vn -0.2556152 0.1065063 0.9609375
vn -0.5092773 0.196167 0.8378906
vn -0.2053223 0.1727295 0.9633789
vn -0.1385498 0.1226196 0.9829102
vn 0.1143188 0.2788086 0.9536133
g p007v001_h_0
f 3/3/3 2/2/2 1/1/1
f 3/3/3 1/1/1 4/4/4
f 5/5/5 3/3/3 4/4/4
f 8/8/8 7/7/7 6/6/6
f 8/8/8 6/6/6 9/9/9
f 10/10/10 8/8/8 9/9/9
f 13/13/13 12/12/12 11/11/11
f 13/13/13 11/11/11 14/14/14
f 15/15/15 13/13/13 14/14/14
f 18/18/18 17/17/17 16/16/16
f 19/19/19 18/18/18 16/16/16
f 20/20/20 18/18/18 19/19/19
f 21/21/21 20/20/20 19/19/19
f 24/24/24 23/23/23 22/22/22
f 24/24/24 22/22/22 25/25/25
f 26/26/26 24/24/24 25/25/25
