g p009v001_h
v -0.107675 0.4621157 0.06349557
v 0.05366926 -0.00761124 0.01156493
v -0.04566398 -0.008635852 0.08076674
v 0.008389952 0.4798278 -0.01595347
v -0.123718 0.6971696 -0.06421532
v -0.2278476 0.6167274 0.04418826
v -0.2752027 0.7315293 -0.07403295
v -0.408473 0.6401897 -0.03653058
v -0.2774581 0.575856 0.05919715
v -0.4155707 0.4880676 0.004537272
v -0.307484 0.3962259 0.02701325
v -0.2033759 0.4870713 0.0002353479
v 0.09818321 0.2144633 0.09230623
v 0.083958 -0.008539424 0.003292739
v 0.03067489 -0.008539456 -0.08260061
v 0.03349738 0.2601642 0.0003447263
v 0.1581516 0.4690941 0.09292012
v 0.1945219 0.3683411 0.1741268
v 0.2627119 0.4941658 0.1414271
v 0.3647531 0.3965805 0.1879207
v 0.2349274 0.3226307 0.190968
v 0.3685847 0.262464 0.1726283
v 0.2749385 0.1702054 0.1098687
v 0.2071161 0.2442503 0.0845812
v -0.02336784 -0.01496087 -0.01304917
v 0.3749927 0.1953775 0.0280474
v 0.01898006 0.1234906 0.4075745
v 0.4908739 0.01419777 0.7119646
v 0.719717 0.05221922 0.4680074
v -0.004160451 0 -0.001977978
v -0.04119248 0.1396343 0.388735
v -0.389964 0.1544686 0.04438931
v -0.7047015 0.02092812 0.4772909
v -0.4801559 0.01715364 0.6989865
v -0.02431877 0 -0.00958898
v 0.05817426 0.2759295 -0.2312194
v 0.3300249 0.07855692 0.05678288
v 0.6578902 0.1974642 -0.2958751
v 0.4834694 0.3240995 -0.4806597
v -0.01579084 0 0.002355509
v -0.3175126 0.1841142 -0.08612322
v 0.09303396 0.2530794 -0.2361217
v -0.1603867 0.4113345 -0.6267931
v -0.4194926 0.3678088 -0.5321267
vt 0.1984863 0.1264648
vt 0.01049042 0.3071289
vt 0.1102295 0.314209
vt 0.1010742 0.1134644
vt 0.1932373 0.03344727
vt 0.2714844 0.07092285
vt 0.3024902 0.0213623
vt 0.3928223 0.05737305
vt 0.2966309 0.08685303
vt 0.3950195 0.114502
vt 0.3149414 0.1481934
vt 0.239624 0.1133423
vt 0.8388672 0.161377
vt 0.8798828 0.2971191
vt 0.984375 0.3083496
vt 0.9501953 0.1512451
vt 0.8535156 0.03912354
vt 0.7568359 0.07794189
vt 0.7539063 0.01239777
vt 0.6274414 0.03875732
vt 0.7060547 0.08685303
vt 0.5913086 0.09637451
vt 0.6552734 0.1484375
vt 0.7255859 0.135498
vt 0.5 0.06549072
vt 0 0.4277344
vt 1 0.4277344
vt 0.8237305 0.9951172
vt 0.1925049 0.9951172
vt 0.5 0.06549072
vt 0 0.4277344
vt 1 0.4277344
vt 0.8237305 0.9951172
vt 0.1925049 0.9951172
vt 0.5 0.06549072
vt 0 0.4277344
vt 1 0.4277344
vt 0.8237305 0.9951172
vt 0.1925049 0.9951172
vt 0.5 0.06549072
vt 0 0.4277344
vt 1 0.4277344
vt 0.8237305 0.9951172
vt 0.1925049 0.9951172
vn 0.5288086 0.2404785 0.8139648
vn 0.5566406 0.1273193 0.8208008
vn 0.5566406 0.1273193 0.8208008
vn 0.534668 0.2188721 0.815918
vn 0.3908691 0.5200195 0.7597656
vn 0.1824951 0.5800781 0.7939453
vn -0.1193848 0.6801758 0.7231445
vn -0.3393555 0.5112305 0.7895508
vn -0.2392578 0.3791504 0.894043
vn -0.3999023 0.05950928 0.9145508
vn -0.04202271 -0.1694336 0.9848633
vn 0.4243164 -0.2279053 0.8764648
vn -0.8193359 0.03134155 0.5727539
vn -0.8413086 -0.1046143 0.5302734
vn -0.8413086 -0.1046143 0.5302734
vn -0.8232422 0.01290894 0.5673828
vn -0.7241211 0.2380371 0.6469727
vn -0.5664063 0.2558594 0.7836914
vn -0.2286377 0.3459473 0.9101563
vn -0.05654907 0.1634521 0.9848633
vn -0.1488037 0.004695892 0.9887695
vn -0.02178955 -0.3354492 0.9418945
vn -0.354248 -0.5102539 0.7836914
vn -0.7080078 -0.4675293 0.5292969
vn -0.4333496 0.8681641 -0.2420654
vn -0.003677368 0.9853516 0.1691895
vn -0.004478455 0.9858398 0.168457
vn 0.07739258 0.9667969 0.243042
vn 0.07739258 0.9667969 0.243042
vn 0.3254395 0.8999023 -0.2907715
vn -0.07824707 0.9907227 0.1109009
vn -0.07843018 0.9907227 0.111145
vn -0.1494141 0.9716797 0.1832275
vn -0.1494141 0.9716797 0.1832275
vn -0.2766113 0.6508789 0.7070313
vn 0.0994873 0.8623047 0.4968262
vn 0.1000366 0.8623047 0.496582
vn 0.1633301 0.8789063 0.4482422
vn 0.1633301 0.8789063 0.4482422
vn 0.1679688 0.6367188 0.7524414
vn 0.01242065 0.8950195 0.4455566
vn 0.01242065 0.8950195 0.4455566
vn -0.01491547 0.9233398 0.3837891
vn -0.01491547 0.9233398 0.3837891
g p009v001_h_0
f 3/3/3 2/2/2 1/1/1
f 2/2/2 4/4/4 1/1/1
f 4/4/4 5/5/5 1/1/1
f 5/5/5 6/6/6 1/1/1
f 5/5/5 7/7/7 6/6/6
f 7/7/7 8/8/8 6/6/6
f 8/8/8 9/9/9 6/6/6
f 8/8/8 10/10/10 9/9/9
f 10/10/10 11/11/11 9/9/9
f 11/11/11 12/12/12 9/9/9
f 15/15/15 14/14/14 13/13/13
f 16/16/16 15/15/15 13/13/13
f 17/17/17 16/16/16 13/13/13
f 18/18/18 17/17/17 13/13/13
f 19/19/19 17/17/17 18/18/18
f 20/20/20 19/19/19 18/18/18
f 21/21/21 20/20/20 18/18/18
f 22/22/22 20/20/20 21/21/21
f 23/23/23 22/22/22 21/21/21
f 24/24/24 23/23/23 21/21/21
f 27/27/27 26/26/26 25/25/25
f 27/27/27 28/28/28 26/26/26
f 28/28/28 29/29/29 26/26/26
f 32/32/32 31/31/31 30/30/30
f 32/32/32 33/33/33 31/31/31
f 33/33/33 34/34/34 31/31/31
f 37/37/37 36/36/36 35/35/35
f 37/37/37 38/38/38 36/36/36
f 38/38/38 39/39/39 36/36/36
f 42/42/42 41/41/41 40/40/40
f 42/42/42 43/43/43 41/41/41
f 43/43/43 44/44/44 41/41/41
