g p012v001_m
v -9.536743E-07 -0.0585521 0
v -0.5425072 0.7152232 -0.1794395
v 0.006728172 1.192791 -0.08998299
v 0.5654125 0.7215171 -0.01833153
v -0.3466625 1.529593 -0.4206333
v 0.4363317 1.534041 -0.3067732
v 0.1170597 2.236656 -0.9093313
v -9.536743E-07 -0.0585521 0
v 0.07602692 0.656439 -0.5986042
v 0.4590006 1.024377 -0.1278019
v 0.5221844 0.5226728 0.4236879
v 0.6409121 1.191825 -0.6288404
v 0.9562263 1.097289 0.09364319
v 1.518531 1.476282 -0.5666199
v -9.536743E-07 -0.0585521 0
v 0.6062365 0.6807125 0.05835438
v 0.09996605 1.137395 0.3477111
v -0.4569168 0.6287178 0.4073009
v 0.5778837 1.340603 0.5499458
v -0.1734734 1.303857 0.7965584
v 0.4249535 1.780042 1.382508
v 0.1237917 1.029219 -1.018388
v 0.4369631 0.5400254 -0.5052624
v -0.1538963 0.9519131 -0.5403337
v -0.4696398 1.128392 -1.66407
v -9.536743E-07 -0.05855216 0
v -0.6379557 1.030286 -0.8043747
v -0.6408873 0.5415362 -0.2024384
v -0.9171581 1.201596 0.08511353
v -0.5573473 0.6026682 -0.3175507
v -0.4133143 1.052892 0.2433043
v -1.308227 1.669408 0.7629261
v -9.536743E-07 -0.0585521 0
v -0.5175858 1.196053 0.7680378
v 0.00803566 0.5948256 0.6487675
vt 0.5009766 0.01329803
vt 0.002733231 0.3439941
vt 0.5009766 0.512207
vt 0.9951172 0.3439941
vt 0.1050415 0.6723633
vt 0.8881836 0.6723633
vt 0.5009766 0.9970703
vt 0.5009766 0.01329803
vt 0.002733231 0.3439941
vt 0.5009766 0.512207
vt 0.9951172 0.3439941
vt 0.1050415 0.6723633
vt 0.8881836 0.6723633
vt 0.5009766 0.9970703
vt 0.5009766 0.01329803
vt 0.002733231 0.3439941
vt 0.5009766 0.512207
vt 0.9951172 0.3439941
vt 0.1050415 0.6723633
vt 0.8881836 0.6723633
vt 0.5009766 0.9970703
vt 0.8881836 0.6723633
vt 0.9951172 0.3439941
vt 0.5009766 0.512207
vt 0.5009766 0.9970703
vt 0.5009766 0.01329803
vt 0.1050415 0.6723633
vt 0.002733231 0.3439941
vt 0.8881836 0.6723633
vt 0.9951172 0.3439941
vt 0.5009766 0.512207
vt 0.5009766 0.9970703
vt 0.5009766 0.01329803
vt 0.1050415 0.6723633
vt 0.002733231 0.3439941
vn -0.0009474754 1 -0.0001388788
vn -0.3476563 0.9257813 -0.1494141
vn -0.009910583 0.9990234 0.04742432
vn 0.3703613 0.9277344 -0.04492188
vn -0.135376 0.9472656 -0.2897949
vn 0.2056885 0.9487305 -0.2401123
vn 0.06695557 0.8730469 -0.4833984
vn -0.01615906 0.9990234 0.03985596
vn 0.1463623 0.9008789 -0.4089355
vn 0.1987305 0.9799805 -0.01395416
vn 0.447998 0.8505859 0.2749023
vn 0.4533691 0.8300781 -0.3242188
vn 0.5957031 0.8032227 0.0003168583
vn 0.7138672 0.6513672 -0.2561035
vn 0.0133667 1 -0.01461792
vn 0.4106445 0.9057617 0.1038208
vn 0.02246094 0.9946289 0.1011963
vn -0.2875977 0.8964844 0.3374023
vn 0.2910156 0.8808594 0.3737793
vn -0.04022217 0.8735352 0.4853516
vn 0.1938477 0.746582 0.6362305
vn 0.005653381 0.7680664 -0.6401367
vn 0.2648926 0.8515625 -0.4519043
vn -0.07098389 0.9643555 -0.255127
vn -0.2192383 0.5834961 -0.7817383
vn 0.0002212524 1 -6.216764E-05
vn -0.3371582 0.7685547 -0.5439453
vn -0.4604492 0.8520508 -0.2481689
vn -0.5561523 0.8217773 0.125
vn -0.4504395 0.8774414 -0.1639404
vn -0.1665039 0.980957 0.1012573
vn -0.6464844 0.6611328 0.3813477
vn -0.0007767677 1 0.001202583
vn -0.3781738 0.8203125 0.4289551
vn -0.07519531 0.875 0.4780273
g p012v001_m_0
f 3/3/3 2/2/2 1/1/1
f 3/3/3 1/1/1 4/4/4
f 5/5/5 2/2/2 3/3/3
f 3/3/3 4/4/4 6/6/6
f 7/7/7 5/5/5 3/3/3
f 3/3/3 6/6/6 7/7/7
f 10/10/10 9/9/9 8/8/8
f 10/10/10 8/8/8 11/11/11
f 12/12/12 9/9/9 10/10/10
f 10/10/10 11/11/11 13/13/13
f 14/14/14 12/12/12 10/10/10
f 10/10/10 13/13/13 14/14/14
f 17/17/17 16/16/16 15/15/15
f 17/17/17 15/15/15 18/18/18
f 19/19/19 16/16/16 17/17/17
f 17/17/17 18/18/18 20/20/20
f 21/21/21 19/19/19 17/17/17
f 17/17/17 20/20/20 21/21/21
f 24/24/24 23/23/23 22/22/22
f 24/24/24 22/22/22 25/25/25
f 24/24/24 26/26/26 23/23/23
f 25/25/25 27/27/27 24/24/24
f 24/24/24 28/28/28 26/26/26
f 27/27/27 28/28/28 24/24/24
f 31/31/31 30/30/30 29/29/29
f 31/31/31 29/29/29 32/32/32
f 31/31/31 33/33/33 30/30/30
f 32/32/32 34/34/34 31/31/31
f 31/31/31 35/35/35 33/33/33
f 34/34/34 35/35/35 31/31/31
