g p014v001_m
v -0.3840318 0.2628398 0.2076571
v -0.2455559 0.4074815 0.1343386
v -0.1216083 0.4074815 0.2540325
v -0.1922317 0.27145 0.3988312
v 0.04902124 0.4074815 0.2780136
v 0.07596064 0.2628398 0.432369
v 0.201159 0.4074815 0.1971204
v 0.3170471 0.27145 0.3090317
v 0.2766929 0.4074815 0.04225183
v 0.4318194 0.2628398 0.06433034
v 0.2467728 0.4074815 -0.1274372
v 0.3890181 0.27145 -0.20307
v -0.4350119 0.27145 -0.0577718
v -0.2455559 0.4074815 0.1343386
v -0.3840318 0.2628398 0.2076571
v -0.275476 0.4074815 -0.03535044
v -0.3124642 0.2628398 -0.2992612
v -0.1999421 0.4074815 -0.190219
v -0.07577944 0.27145 -0.4297673
v -0.04780436 0.4074815 -0.2711123
v 0.1917596 0.2628398 -0.3878421
v 0.1228252 0.4074815 -0.247131
v 0.3890181 0.27145 -0.20307
v 0.2467728 0.4074815 -0.1274372
v 0.0006084442 0.0196618 0.003450632
v 0.1709971 0.03325593 -0.3447798
v -0.277926 0.03325593 -0.2662078
v -0.1196315 0.2430218 -0.678465
v -0.4831619 0.2536761 -0.4637209
v 0.2954211 0.2536761 -0.6010054
v -0.4964993 0.3147287 -0.6959093
v 0.2285419 0.3147287 -0.8237536
v -0.3615527 0.3058133 -0.8704356
v 0.04204178 0.3058133 -0.9416004
v -0.1660919 0.2921861 -0.9419543
v 0.0006084442 0.0196618 0.003450632
v -0.277926 0.03325593 -0.2662078
v -0.3419242 0.03325593 0.1850233
v -0.6850886 0.2430218 -0.09291804
v -0.5931911 0.2536761 0.3191792
v -0.4831619 0.2536761 -0.4637209
v -0.8181374 0.3147287 0.2601141
v -0.7156746 0.3147287 -0.4689473
v -0.942421 0.3058133 0.07784009
v -0.885385 0.3058133 -0.3279923
v -0.9500384 0.2921861 -0.1301543
v 0.0006084442 0.0196618 0.003450632
v -0.3419242 0.03325593 0.1850233
v 0.06744576 0.03325593 0.3853275
v -0.3029351 0.2430218 0.6258073
v 0.1173902 0.2536761 0.6657531
v -0.5931911 0.2536761 0.3191792
v -0.008296251 0.3147287 0.8614375
v -0.670012 0.3147287 0.5386972
v -0.2200541 0.3058133 0.9233125
v -0.5883989 0.3058133 0.7436589
v -0.4202232 0.2921861 0.8662834
v 0.0006084442 0.0196618 0.003450632
v 0.06744576 0.03325593 0.3853275
v 0.3844485 0.03325593 0.05789101
v 0.4987047 0.2430218 0.4844567
v 0.6665835 0.2536761 0.09704745
v 0.1173902 0.2536761 0.6657531
v 0.8138506 0.3147287 0.2770522
v 0.3024254 0.3147287 0.8066488
v 0.8072605 0.3058133 0.4975668
v 0.5225754 0.3058133 0.7923671
v 0.6911669 0.2921861 0.6703153
v 0.0006084442 0.0196618 0.003450632
v 0.3844485 0.03325593 0.05789101
v 0.1709971 0.03325593 -0.3447798
v 0.6119926 0.2430218 -0.3216275
v 0.2954211 0.2536761 -0.6010054
v 0.6665835 0.2536761 0.09704745
v 0.5121245 0.3147287 -0.6854405
v 0.8577619 0.3147287 -0.03539163
v 0.7198095 0.3058133 -0.6110305
v 0.9122095 0.3058133 -0.2491804
v 0.8482289 0.2921861 -0.4472362
v 0.6766715 0.3387456 0.09846532
v 0.4318194 0.2628398 0.06433034
v 0.5738387 0.3827637 -0.3013409
v 0.3890181 0.27145 -0.20307
v 0.1917596 0.2628398 -0.3878421
v 0.2998877 0.3387456 -0.6101621
v 0.8573399 0.3918863 -0.02980345
v 0.6665835 0.2536761 0.09704745
v 0.8577619 0.3147287 -0.03539163
v 0.922277 0.3794392 -0.2520393
v 0.9122095 0.3058133 -0.2491804
v 0.8482289 0.2921861 -0.4472362
v 0.8561244 0.367638 -0.4514347
v 0.7278099 0.3794392 -0.6177782
v 0.7198095 0.3058133 -0.6110305
v 0.5121245 0.3147287 -0.6854405
v 0.507256 0.3918863 -0.6882155
v 0.2954211 0.2536761 -0.6010054
v 0.1191592 0.3387456 0.6757857
v 0.07596064 0.2628398 0.432369
v 0.4676207 0.3827637 0.4544393
v 0.3170471 0.27145 0.3090317
v 0.4318194 0.2628398 0.06433034
v 0.6766715 0.3387456 0.09846532
v 0.2969801 0.3918863 0.8079746
v 0.1173902 0.2536761 0.6657531
v 0.3024254 0.3147287 0.8066488
v 0.5284057 0.3794392 0.8010587
v 0.5225754 0.3058133 0.7923671
v 0.6911669 0.2921861 0.6703153
v 0.6975994 0.367638 0.6765268
v 0.8161502 0.3794392 0.5030898
v 0.8072605 0.3058133 0.4975668
v 0.8138506 0.3147287 0.2770522
v 0.8149855 0.3918863 0.2715644
v 0.6665835 0.2536761 0.09704745
v -0.6021862 0.3387456 0.323962
v -0.3840318 0.2628398 0.2076571
v -0.2839925 0.3827637 0.586969
v -0.1922317 0.27145 0.3988312
v 0.07596064 0.2628398 0.432369
v 0.1191592 0.3387456 0.6757857
v -0.6729553 0.3918863 0.5339284
v -0.5931911 0.2536761 0.3191792
v -0.670012 0.3147287 0.5386972
v -0.5948629 0.3794392 0.7518896
v -0.5883989 0.3058133 0.7436589
v -0.4202232 0.2921861 0.8662834
v -0.4241433 0.367638 0.8743206
v -0.2225604 0.3794392 0.9334739
v -0.2200541 0.3058133 0.9233125
v -0.008296251 0.3147287 0.8614375
v -0.002726316 0.3918863 0.8608208
v 0.1173902 0.2536761 0.6657531
v -0.49049 0.3387456 -0.4707972
v -0.3124642 0.2628398 -0.2992612
v -0.6422971 0.3827637 -0.08690435
v -0.4350119 0.27145 -0.0577718
v -0.3840318 0.2628398 0.2076571
v -0.6021862 0.3387456 0.323962
v -0.7120485 0.3918863 -0.47322
v -0.4831619 0.2536761 -0.4637209
v -0.7156746 0.3147287 -0.4689473
v -0.8952107 0.3794392 -0.3315965
v -0.885385 0.3058133 -0.3279923
v -0.9500384 0.2921861 -0.1301543
v -0.9588933 0.367638 -0.131399
v -0.9528594 0.3794392 0.07859731
v -0.942421 0.3058133 0.07784009
v -0.8181374 0.3147287 0.2601141
v -0.8158295 0.3918863 0.2652208
v -0.5931911 0.2536761 0.3191792
v 0.2998877 0.3387456 -0.6101621
v 0.1917596 0.2628398 -0.3878421
v -0.112128 0.3827637 -0.6359098
v -0.07577944 0.27145 -0.4297673
v -0.3124642 0.2628398 -0.2992612
v -0.49049 0.3387456 -0.4707972
v 0.233726 0.3918863 -0.8216255
v 0.2954211 0.2536761 -0.6010054
v 0.2285419 0.3147287 -0.8237536
v 0.04243374 0.3794392 -0.9520587
v 0.04204178 0.3058133 -0.9416004
v -0.1660919 0.2921861 -0.9419543
v -0.1676445 0.367638 -0.9507605
v -0.3654981 0.3794392 -0.8801295
v -0.3615527 0.3058133 -0.8704356
v -0.4964993 0.3147287 -0.6959093
v -0.500643 0.3918863 -0.6921365
v -0.4831619 0.2536761 -0.4637209
v 0.2766929 0.4074815 0.04225183
v 0.0006084442 0.1222398 0.003450751
v 0.2467728 0.4074815 -0.1274372
v 0.201159 0.4074815 0.1971204
v 0.1228252 0.4074815 -0.247131
v 0.04902124 0.4074815 0.2780136
v -0.04780436 0.4074815 -0.2711123
v -0.1216083 0.4074815 0.2540325
v -0.1999421 0.4074815 -0.190219
v -0.2455559 0.4074815 0.1343386
v -0.275476 0.4074815 -0.03535044
vt 0.4499512 0.02485657
vt 0.4709473 0.1556396
vt 0.5288086 0.1556396
vt 0.5263672 0.02485657
vt 0.5917969 0.1556396
vt 0.5908203 0.02485657
vt 0.6547852 0.1556396
vt 0.6547852 0.02485657
vt 0.7172852 0.1556396
vt 0.7197266 0.02485657
vt 0.7753906 0.1556396
vt 0.7958984 0.02485657
vt 0.7197266 0.02485657
vt 0.7753906 0.1556396
vt 0.7958984 0.02485657
vt 0.7172852 0.1556396
vt 0.6547852 0.02485657
vt 0.6547852 0.1556396
vt 0.5908203 0.02485657
vt 0.5917969 0.1556396
vt 0.5263672 0.02485657
vt 0.5288086 0.1556396
vt 0.4499512 0.02485657
vt 0.4709473 0.1556396
vt 0.8554688 0.03092957
vt 0.7861328 0.220459
vt 0.9248047 0.2207031
vt 0.8554688 0.494873
vt 0.9794922 0.4145508
vt 0.7319336 0.4145508
vt 0.9711914 0.5595703
vt 0.7402344 0.5595703
vt 0.9204102 0.6484375
vt 0.7910156 0.6484375
vt 0.8554688 0.6689453
vt 0.3913574 0.03092957
vt 0.3222656 0.220459
vt 0.4606934 0.2207031
vt 0.3916016 0.494873
vt 0.515625 0.4145508
vt 0.2675781 0.4145508
vt 0.5073242 0.5595703
vt 0.2758789 0.5595703
vt 0.4562988 0.6484375
vt 0.3266602 0.6484375
vt 0.3916016 0.6689453
vt 0.8554688 0.03092957
vt 0.7861328 0.220459
vt 0.9248047 0.2207031
vt 0.8554688 0.494873
vt 0.9794922 0.4145508
vt 0.7319336 0.4145508
vt 0.9711914 0.5595703
vt 0.7402344 0.5595703
vt 0.9204102 0.6484375
vt 0.7910156 0.6484375
vt 0.8554688 0.6689453
vt 0.8554688 0.03092957
vt 0.7861328 0.220459
vt 0.9248047 0.2207031
vt 0.8554688 0.494873
vt 0.9794922 0.4145508
vt 0.7319336 0.4145508
vt 0.9711914 0.5595703
vt 0.7402344 0.5595703
vt 0.9204102 0.6484375
vt 0.7910156 0.6484375
vt 0.8554688 0.6689453
vt 0.3913574 0.03092957
vt 0.3222656 0.220459
vt 0.4606934 0.2207031
vt 0.3916016 0.494873
vt 0.515625 0.4145508
vt 0.2675781 0.4145508
vt 0.5073242 0.5595703
vt 0.2758789 0.5595703
vt 0.4562988 0.6484375
vt 0.3266602 0.6484375
vt 0.3916016 0.6689453
vt 0.2878418 0.6835938
vt 0.248291 0.5458984
vt 0.1629639 0.7329102
vt 0.1621094 0.5849609
vt 0.07867432 0.5498047
vt 0.04000854 0.6850586
vt 0.2695313 0.8115234
vt 0.3164063 0.6733398
vt 0.2878418 0.8330078
vt 0.2236328 0.9008789
vt 0.2318115 0.9428711
vt 0.1635742 0.9726563
vt 0.1635742 0.925293
vt 0.1035767 0.9008789
vt 0.09527588 0.9428711
vt 0.03930664 0.8330078
vt 0.05767822 0.8115234
vt 0.01117706 0.6738281
vt 0.7519531 0.6835938
vt 0.7143555 0.5458984
vt 0.6269531 0.7329102
vt 0.6259766 0.5849609
vt 0.5405273 0.5498047
vt 0.5039063 0.6850586
vt 0.7338867 0.8115234
vt 0.7802734 0.6733398
vt 0.7519531 0.8330078
vt 0.6875 0.9008789
vt 0.6958008 0.9428711
vt 0.6274414 0.9726563
vt 0.6274414 0.925293
vt 0.5673828 0.9008789
vt 0.5595703 0.9428711
vt 0.503418 0.8330078
vt 0.5219727 0.8115234
vt 0.4753418 0.6738281
vt 0.7519531 0.6835938
vt 0.7143555 0.5458984
vt 0.6269531 0.7329102
vt 0.6259766 0.5849609
vt 0.5405273 0.5498047
vt 0.5039063 0.6850586
vt 0.7338867 0.8115234
vt 0.7802734 0.6733398
vt 0.7519531 0.8330078
vt 0.6875 0.9008789
vt 0.6958008 0.9428711
vt 0.6274414 0.9726563
vt 0.6274414 0.925293
vt 0.5673828 0.9008789
vt 0.5595703 0.9428711
vt 0.503418 0.8330078
vt 0.5219727 0.8115234
vt 0.4753418 0.6738281
vt 0.2878418 0.6835938
vt 0.248291 0.5458984
vt 0.1629639 0.7329102
vt 0.1621094 0.5849609
vt 0.07867432 0.5498047
vt 0.04000854 0.6850586
vt 0.2695313 0.8115234
vt 0.3164063 0.6733398
vt 0.2878418 0.8330078
vt 0.2236328 0.9008789
vt 0.2318115 0.9428711
vt 0.1635742 0.9726563
vt 0.1635742 0.925293
vt 0.1035767 0.9008789
vt 0.09527588 0.9428711
vt 0.03930664 0.8330078
vt 0.05767822 0.8115234
vt 0.01117706 0.6738281
vt 0.7519531 0.6835938
vt 0.7143555 0.5458984
vt 0.6269531 0.7329102
vt 0.6259766 0.5849609
vt 0.5405273 0.5498047
vt 0.5039063 0.6850586
vt 0.7338867 0.8115234
vt 0.7802734 0.6733398
vt 0.7519531 0.8330078
vt 0.6875 0.9008789
vt 0.6958008 0.9428711
vt 0.6274414 0.9726563
vt 0.6274414 0.925293
vt 0.5673828 0.9008789
vt 0.5595703 0.9428711
vt 0.503418 0.8330078
vt 0.5219727 0.8115234
vt 0.4753418 0.6738281
vt 0.2381592 0.192749
vt 0.1295166 0.2687988
vt 0.2381592 0.3447266
vt 0.1966553 0.06994629
vt 0.1966553 0.4675293
vt 0.1295166 0.02304077
vt 0.1295166 0.5141602
vt 0.06231689 0.06994629
vt 0.06231689 0.4675293
vt 0.02081299 0.192749
vt 0.02079773 0.3447266
vn -0.5878906 0.7460938 0.3125
vn -0.2080078 0.9716797 0.1107178
vn -0.09973145 0.9741211 0.2039795
vn -0.2888184 0.7529297 0.5917969
vn 0.04101563 0.9716797 0.2320557
vn 0.1154175 0.7460938 0.6557617
vn 0.163208 0.9741211 0.1578369
vn 0.4733887 0.7529297 0.4575195
vn 0.2333984 0.9716797 0.03268433
vn 0.6591797 0.7460938 0.09277344
vn 0.2005615 0.9741211 -0.1063843
vn 0.581543 0.7529297 -0.3088379
vn -0.6518555 0.7529297 -0.09179688
vn -0.2080078 0.9716797 0.1107178
vn -0.5878906 0.7460938 0.3125
vn -0.2247314 0.9741211 -0.03179932
vn -0.4787598 0.7460938 -0.4626465
vn -0.1695557 0.9716797 -0.1635742
vn -0.1141357 0.7529297 -0.6484375
vn -0.03921509 0.9741211 -0.2236328
vn 0.2919922 0.7460938 -0.5981445
vn 0.1032104 0.9716797 -0.211792
vn 0.581543 0.7529297 -0.3088379
vn 0.2005615 0.9741211 -0.1063843
vn 0 -1 0
vn 0.1656494 -0.9262695 -0.338623
vn -0.2709961 -0.9262695 -0.262207
vn -0.07214355 -0.9091797 -0.409668
vn -0.4155273 -0.8164063 -0.401123
vn 0.2531738 -0.8164063 -0.519043
vn -0.5698242 -0.7753906 -0.2714844
vn 0.442627 -0.7753906 -0.4499512
vn -0.4064941 -0.7919922 -0.4558105
vn 0.2260742 -0.7919922 -0.5673828
vn -0.1025391 -0.8071289 -0.581543
vn 0 -1 0
vn -0.2709961 -0.9262695 -0.262207
vn -0.333252 -0.9262695 0.1766357
vn -0.4118652 -0.9091797 -0.05801392
vn -0.5097656 -0.8164063 0.2712402
vn -0.4155273 -0.8164063 -0.401123
vn -0.4343262 -0.7753906 0.458252
vn -0.2910156 -0.7753906 -0.5600586
vn -0.559082 -0.7919922 0.2457275
vn -0.4697266 -0.7919922 -0.3903809
vn -0.5844727 -0.8071289 -0.08215332
vn 0 -1 0
vn -0.333252 -0.9262695 0.1766357
vn 0.06500244 -0.9262695 0.3713379
vn -0.1824951 -0.9091797 0.3737793
vn 0.1003418 -0.8164063 0.5688477
vn -0.5097656 -0.8164063 0.2712402
vn 0.3015137 -0.7753906 0.5546875
vn -0.6225586 -0.7753906 0.1038208
vn 0.0609436 -0.7919922 0.6074219
vn -0.5161133 -0.7919922 0.3261719
vn -0.2587891 -0.8071289 0.5307617
vn 0 -1 0
vn 0.06500244 -0.9262695 0.3713379
vn 0.373291 -0.9262695 0.052948
vn 0.2990723 -0.9091797 0.2890625
vn 0.5717773 -0.8164063 0.08026123
vn 0.1003418 -0.8164063 0.5688477
vn 0.6206055 -0.7753906 -0.1154175
vn -0.09368896 -0.7753906 0.6240234
vn 0.5966797 -0.7919922 0.1298828
vn 0.1505127 -0.7919922 0.5917969
vn 0.4248047 -0.8071289 0.4101563
vn 0 -1 0
vn 0.373291 -0.9262695 0.052948
vn 0.1656494 -0.9262695 -0.338623
vn 0.3674316 -0.9091797 -0.1951904
vn 0.2531738 -0.8164063 -0.519043
vn 0.5717773 -0.8164063 0.08026123
vn 0.08203125 -0.7753906 -0.6259766
vn 0.5649414 -0.7753906 0.2819824
vn 0.3078613 -0.7919922 -0.5273438
vn 0.609375 -0.7919922 0.03967285
vn 0.5214844 -0.8071289 -0.2770996
vn -0.01731873 1 -0.002323151
vn -0.3276367 0.9438477 -0.04620361
vn -0.1834717 0.9780273 0.09747314
vn -0.4147949 0.8828125 0.2200928
vn -0.1451416 0.9438477 0.2973633
vn -0.00756073 1 0.01576233
vn 0.262207 0.9130859 0.3125
vn 0.5717773 -0.8164063 0.08026123
vn 0.5649414 -0.7753906 0.2819824
vn 0.4833984 0.8740234 -0.0531311
vn 0.609375 -0.7919922 0.03967285
vn 0.5214844 -0.8071289 -0.2770996
vn 0.4665527 0.8491211 -0.2481689
vn 0.314209 0.8740234 -0.3710938
vn 0.3078613 -0.7919922 -0.5273438
vn 0.08203125 -0.7753906 -0.6259766
vn -0.1123047 0.9130859 -0.3920898
vn 0.2531738 -0.8164063 -0.519043
vn -0.003143311 1 -0.01719666
vn -0.05731201 0.9438477 -0.3259277
vn -0.1494141 0.9780273 -0.1444092
vn -0.3376465 0.8828125 -0.326416
vn -0.3276367 0.9438477 -0.04620361
vn -0.01731873 1 -0.002323151
vn -0.2160645 0.9130859 0.3459473
vn 0.1003418 -0.8164063 0.5688477
vn -0.09368896 -0.7753906 0.6240234
vn 0.1998291 0.8740234 0.4433594
vn 0.1505127 -0.7919922 0.5917969
vn 0.4248047 -0.8071289 0.4101563
vn 0.380127 0.8491211 0.3671875
vn 0.4499512 0.8740234 0.1843262
vn 0.5966797 -0.7919922 0.1298828
vn 0.6206055 -0.7753906 -0.1154175
vn 0.3383789 0.9130859 -0.2280273
vn 0.5717773 -0.8164063 0.08026123
vn 0.01538086 1 -0.008300781
vn 0.2922363 0.9438477 -0.1551514
vn 0.09112549 0.9780273 -0.1867676
vn 0.2060547 0.8828125 -0.421875
vn -0.05731201 0.9438477 -0.3259277
vn -0.003143311 1 -0.01719666
vn -0.395752 0.9130859 -0.09851074
vn -0.5097656 -0.8164063 0.2712402
vn -0.6225586 -0.7753906 0.1038208
vn -0.3598633 0.8740234 0.3271484
vn -0.5161133 -0.7919922 0.3261719
vn -0.2587891 -0.8071289 0.5307617
vn -0.2316895 0.8491211 0.4750977
vn -0.03622437 0.8740234 0.4848633
vn 0.0609436 -0.7919922 0.6074219
vn 0.3015137 -0.7753906 0.5546875
vn 0.3212891 0.9130859 0.2512207
vn 0.1003418 -0.8164063 0.5688477
vn 0.01264954 1 0.01206207
vn 0.237915 0.9438477 0.2299805
vn 0.2056885 0.9780273 0.02896118
vn 0.4648438 0.8828125 0.06567383
vn 0.2922363 0.9438477 -0.1551514
vn 0.01538086 1 -0.008300781
vn -0.02861023 0.9130859 -0.4069824
vn -0.4155273 -0.8164063 -0.401123
vn -0.2910156 -0.7753906 -0.5600586
vn -0.4223633 0.8740234 -0.2410889
vn -0.4697266 -0.7919922 -0.3903809
vn -0.5844727 -0.8071289 -0.08215332
vn -0.5234375 0.8491211 -0.07354736
vn -0.4724121 0.8740234 0.1154175
vn -0.559082 -0.7919922 0.2457275
vn -0.4343262 -0.7753906 0.458252
vn -0.1396484 0.9130859 0.3833008
vn -0.5097656 -0.8164063 0.2712402
vn -0.00756073 1 0.01576233
vn -0.1451416 0.9438477 0.2973633
vn 0.03604126 0.9780273 0.2045898
vn 0.08123779 0.8828125 0.4624023
vn 0.237915 0.9438477 0.2299805
vn 0.01264954 1 0.01206207
vn 0.3781738 0.9130859 -0.1529541
vn 0.2531738 -0.8164063 -0.519043
vn 0.442627 -0.7753906 -0.4499512
vn 0.09881592 0.8740234 -0.4760742
vn 0.2260742 -0.7919922 -0.5673828
vn -0.1025391 -0.8071289 -0.581543
vn -0.09179688 0.8491211 -0.5205078
vn -0.2556152 0.8740234 -0.4135742
vn -0.4064941 -0.7919922 -0.4558105
vn -0.5698242 -0.7753906 -0.2714844
vn -0.4077148 0.9130859 -0.01439667
vn -0.4155273 -0.8164063 -0.401123
vn 0.2333984 0.9716797 0.03268433
vn 0 1 0
vn 0.2005615 0.9741211 -0.1063843
vn 0.163208 0.9741211 0.1578369
vn 0.1032104 0.9716797 -0.211792
vn 0.04101563 0.9716797 0.2320557
vn -0.03921509 0.9741211 -0.2236328
vn -0.09973145 0.9741211 0.2039795
vn -0.1695557 0.9716797 -0.1635742
vn -0.2080078 0.9716797 0.1107178
vn -0.2247314 0.9741211 -0.03179932
g p014v001_m_0
f 3/3/3 2/2/2 1/1/1
f 4/4/4 3/3/3 1/1/1
f 5/5/5 3/3/3 4/4/4
f 6/6/6 5/5/5 4/4/4
f 7/7/7 5/5/5 6/6/6
f 8/8/8 7/7/7 6/6/6
f 9/9/9 7/7/7 8/8/8
f 10/10/10 9/9/9 8/8/8
f 11/11/11 9/9/9 10/10/10
f 12/12/12 11/11/11 10/10/10
f 15/15/15 14/14/14 13/13/13
f 14/14/14 16/16/16 13/13/13
f 13/13/13 16/16/16 17/17/17
f 16/16/16 18/18/18 17/17/17
f 17/17/17 18/18/18 19/19/19
f 18/18/18 20/20/20 19/19/19
f 19/19/19 20/20/20 21/21/21
f 20/20/20 22/22/22 21/21/21
f 21/21/21 22/22/22 23/23/23
f 22/22/22 24/24/24 23/23/23
f 27/27/27 26/26/26 25/25/25
f 28/28/28 26/26/26 27/27/27
f 28/28/28 27/27/27 29/29/29
f 30/30/30 26/26/26 28/28/28
f 31/31/31 28/28/28 29/29/29
f 28/28/28 32/32/32 30/30/30
f 33/33/33 28/28/28 31/31/31
f 28/28/28 34/34/34 32/32/32
f 33/33/33 35/35/35 28/28/28
f 35/35/35 34/34/34 28/28/28
f 38/38/38 37/37/37 36/36/36
f 39/39/39 37/37/37 38/38/38
f 39/39/39 38/38/38 40/40/40
f 41/41/41 37/37/37 39/39/39
f 42/42/42 39/39/39 40/40/40
f 39/39/39 43/43/43 41/41/41
f 44/44/44 39/39/39 42/42/42
f 39/39/39 45/45/45 43/43/43
f 44/44/44 46/46/46 39/39/39
f 46/46/46 45/45/45 39/39/39
f 49/49/49 48/48/48 47/47/47
f 50/50/50 48/48/48 49/49/49
f 50/50/50 49/49/49 51/51/51
f 52/52/52 48/48/48 50/50/50
f 53/53/53 50/50/50 51/51/51
f 50/50/50 54/54/54 52/52/52
f 55/55/55 50/50/50 53/53/53
f 50/50/50 56/56/56 54/54/54
f 55/55/55 57/57/57 50/50/50
f 57/57/57 56/56/56 50/50/50
f 60/60/60 59/59/59 58/58/58
f 61/61/61 59/59/59 60/60/60
f 61/61/61 60/60/60 62/62/62
f 63/63/63 59/59/59 61/61/61
f 64/64/64 61/61/61 62/62/62
f 61/61/61 65/65/65 63/63/63
f 66/66/66 61/61/61 64/64/64
f 61/61/61 67/67/67 65/65/65
f 66/66/66 68/68/68 61/61/61
f 68/68/68 67/67/67 61/61/61
f 71/71/71 70/70/70 69/69/69
f 72/72/72 70/70/70 71/71/71
f 72/72/72 71/71/71 73/73/73
f 74/74/74 70/70/70 72/72/72
f 75/75/75 72/72/72 73/73/73
f 72/72/72 76/76/76 74/74/74
f 77/77/77 72/72/72 75/75/75
f 72/72/72 78/78/78 76/76/76
f 77/77/77 79/79/79 72/72/72
f 79/79/79 78/78/78 72/72/72
f 82/82/82 81/81/81 80/80/80
f 83/83/83 81/81/81 82/82/82
f 84/84/84 83/83/83 82/82/82
f 84/84/84 82/82/82 85/85/85
f 80/80/80 86/86/86 82/82/82
f 80/80/80 87/87/87 86/86/86
f 87/87/87 88/88/88 86/86/86
f 89/89/89 86/86/86 88/88/88
f 82/82/82 86/86/86 89/89/89
f 90/90/90 89/89/89 88/88/88
f 89/89/89 90/90/90 91/91/91
f 92/92/92 89/89/89 91/91/91
f 82/82/82 89/89/89 92/92/92
f 93/93/93 92/92/92 91/91/91
f 82/82/82 92/92/92 93/93/93
f 94/94/94 93/93/93 91/91/91
f 93/93/93 94/94/94 95/95/95
f 82/82/82 96/96/96 85/85/85
f 82/82/82 93/93/93 96/96/96
f 96/96/96 93/93/93 95/95/95
f 97/97/97 85/85/85 96/96/96
f 95/95/95 97/97/97 96/96/96
f 100/100/100 99/99/99 98/98/98
f 101/101/101 99/99/99 100/100/100
f 102/102/102 101/101/101 100/100/100
f 102/102/102 100/100/100 103/103/103
f 98/98/98 104/104/104 100/100/100
f 98/98/98 105/105/105 104/104/104
f 105/105/105 106/106/106 104/104/104
f 107/107/107 104/104/104 106/106/106
f 100/100/100 104/104/104 107/107/107
f 108/108/108 107/107/107 106/106/106
f 107/107/107 108/108/108 109/109/109
f 110/110/110 107/107/107 109/109/109
f 100/100/100 107/107/107 110/110/110
f 111/111/111 110/110/110 109/109/109
f 100/100/100 110/110/110 111/111/111
f 112/112/112 111/111/111 109/109/109
f 111/111/111 112/112/112 113/113/113
f 100/100/100 114/114/114 103/103/103
f 100/100/100 111/111/111 114/114/114
f 114/114/114 111/111/111 113/113/113
f 115/115/115 103/103/103 114/114/114
f 113/113/113 115/115/115 114/114/114
f 118/118/118 117/117/117 116/116/116
f 119/119/119 117/117/117 118/118/118
f 120/120/120 119/119/119 118/118/118
f 120/120/120 118/118/118 121/121/121
f 116/116/116 122/122/122 118/118/118
f 116/116/116 123/123/123 122/122/122
f 123/123/123 124/124/124 122/122/122
f 125/125/125 122/122/122 124/124/124
f 118/118/118 122/122/122 125/125/125
f 126/126/126 125/125/125 124/124/124
f 125/125/125 126/126/126 127/127/127
f 128/128/128 125/125/125 127/127/127
f 118/118/118 125/125/125 128/128/128
f 129/129/129 128/128/128 127/127/127
f 118/118/118 128/128/128 129/129/129
f 130/130/130 129/129/129 127/127/127
f 129/129/129 130/130/130 131/131/131
f 118/118/118 132/132/132 121/121/121
f 118/118/118 129/129/129 132/132/132
f 132/132/132 129/129/129 131/131/131
f 133/133/133 121/121/121 132/132/132
f 131/131/131 133/133/133 132/132/132
f 136/136/136 135/135/135 134/134/134
f 137/137/137 135/135/135 136/136/136
f 138/138/138 137/137/137 136/136/136
f 138/138/138 136/136/136 139/139/139
f 134/134/134 140/140/140 136/136/136
f 134/134/134 141/141/141 140/140/140
f 141/141/141 142/142/142 140/140/140
f 143/143/143 140/140/140 142/142/142
f 136/136/136 140/140/140 143/143/143
f 144/144/144 143/143/143 142/142/142
f 143/143/143 144/144/144 145/145/145
f 146/146/146 143/143/143 145/145/145
f 136/136/136 143/143/143 146/146/146
f 147/147/147 146/146/146 145/145/145
f 136/136/136 146/146/146 147/147/147
f 148/148/148 147/147/147 145/145/145
f 147/147/147 148/148/148 149/149/149
f 136/136/136 150/150/150 139/139/139
f 136/136/136 147/147/147 150/150/150
f 150/150/150 147/147/147 149/149/149
f 151/151/151 139/139/139 150/150/150
f 149/149/149 151/151/151 150/150/150
f 154/154/154 153/153/153 152/152/152
f 155/155/155 153/153/153 154/154/154
f 156/156/156 155/155/155 154/154/154
f 156/156/156 154/154/154 157/157/157
f 152/152/152 158/158/158 154/154/154
f 152/152/152 159/159/159 158/158/158
f 159/159/159 160/160/160 158/158/158
f 161/161/161 158/158/158 160/160/160
f 154/154/154 158/158/158 161/161/161
f 162/162/162 161/161/161 160/160/160
f 161/161/161 162/162/162 163/163/163
f 164/164/164 161/161/161 163/163/163
f 154/154/154 161/161/161 164/164/164
f 165/165/165 164/164/164 163/163/163
f 154/154/154 164/164/164 165/165/165
f 166/166/166 165/165/165 163/163/163
f 165/165/165 166/166/166 167/167/167
f 154/154/154 168/168/168 157/157/157
f 154/154/154 165/165/165 168/168/168
f 168/168/168 165/165/165 167/167/167
f 169/169/169 157/157/157 168/168/168
f 167/167/167 169/169/169 168/168/168
f 172/172/172 171/171/171 170/170/170
f 170/170/170 171/171/171 173/173/173
f 174/174/174 171/171/171 172/172/172
f 173/173/173 171/171/171 175/175/175
f 176/176/176 171/171/171 174/174/174
f 175/175/175 171/171/171 177/177/177
f 178/178/178 171/171/171 176/176/176
f 177/177/177 171/171/171 179/179/179
f 180/180/180 171/171/171 178/178/178
f 179/179/179 171/171/171 180/180/180
