g p027v001_l
v -0.7586568 0.9587716 -0.3170127
v 0.7586568 0.9587716 -0.3170127
v -0.7586568 0.5007683 -0.2117452
v 0.7586568 0.3822652 -0.1845084
v -0.2060908 -0.4205032 0
v 0.1707266 -0.4205032 0
vt 0 1
vt 1 1
vt 0 0.6679688
vt 1 0.5820313
vt 0.3642578 0
vt 0.6123047 0
vn 0 0.223999 0.9746094
vn 0 0.223999 0.9746094
vn 0 0.223999 0.9746094
vn 0 0.223999 0.9746094
vn 0 0.223999 0.9746094
vn 0 0.223999 0.9746094
g p027v001_l_0
f 3/3/3 2/2/2 1/1/1
f 3/3/3 4/4/4 2/2/2
f 5/5/5 4/4/4 3/3/3
f 6/6/6 4/4/4 5/5/5
