g p032v001_m
v -0.2429504 0.8478093 -0.1990633
v -0.4370708 0.6192077 -0.006329536
v -0.6364765 0.9623903 -0.3190198
v -0.06241035 0.2935638 -0.0341444
v -0.5756111 1.166019 -0.6229687
v 0.04204559 0.6746765 -0.3323336
v -0.2386169 1.007953 -0.5942769
v 0.1229963 0.6832285 0.02709866
v 0.1447773 0.5223985 -0.2192383
v 0.4232368 0.8132098 -0.1064882
v -0.05043983 0.2159395 -0.0262785
v 0.5459175 0.9632254 0.1314936
v 0.03341103 0.5073054 0.2491999
v 0.3333273 0.8001057 0.2852225
v -0.2949505 0.4715147 0.1778064
v -0.01832008 0.3502892 0.2921381
v -0.3187809 0.5826067 0.5476165
v -0.04742813 0.02052884 -0.01324844
v -0.6421146 0.6676924 0.5807524
v -0.4300785 0.2541934 -0.02303886
v -0.6642542 0.5011508 0.2872424
v 0.1987734 0.3692219 0.219018
v 0.252264 0.2907758 -0.03200245
v 0.5149832 0.4261577 0.2074671
v -0.02739143 0.04336621 -0.006041527
v 0.5834351 0.4572953 0.4763594
v 0.02661705 0.1933169 0.3308449
v 0.3289099 0.3433623 0.5113583
v 0.01805401 0.3573621 -0.3062949
v -0.2084808 0.2446162 -0.226429
v -0.1636772 0.4082573 -0.5620818
v -0.01000977 0.00900422 -0.02138424
v 0.01999092 0.4760049 -0.7567215
v 0.2227783 0.2027601 -0.2312498
v 0.1961393 0.3720262 -0.5686388
v -0.02173901 0.2052334 -0.02925014
v 0.02677536 -0.02692061 -0.01973152
v -0.02671814 -0.02710718 0.03751278
v -0.05645275 0.2043359 0.007718563
v -0.08346176 -0.03625066 -0.0155077
v -0.07448387 0.4404211 -0.06337643
v -0.09290028 0.1966518 -0.02660275
v -0.09411812 0.4402688 -0.04242325
v -0.1007595 0.4568205 -0.07029915
v -0.1130733 0.4278695 -0.06022358
v -0.09290028 0.1966518 -0.02660275
v -0.08346176 -0.03625066 -0.0155077
v -0.02996635 -0.03606381 -0.072752
v -0.05818844 0.1975493 -0.06357098
v 0.02677536 -0.02692061 -0.01973152
v -0.1130733 0.4278695 -0.06022358
v -0.02173901 0.2052334 -0.02925014
v -0.09344101 0.4280218 -0.08117676
v -0.1007595 0.4568205 -0.07029915
v -0.07448387 0.4404211 -0.06337643
v -0.01828575 -0.2562989 0.2360153
v -0.02971077 -0.08733249 0.1476679
v 0.08553505 -0.08065848 0.1015921
v -0.03494072 0.01148808 -0.01874828
v 0.1548729 -0.2462711 0.1667852
v -0.0073843 -0.3915622 0.1678958
v 0.1347475 -0.08154548 -0.01254272
v 0.1136723 -0.3845517 0.1194978
v 0 -0.4624181 0
v 0.08909321 -0.08947419 -0.1278782
v -0.02467918 -0.09979983 -0.1768527
v 0.2288132 -0.247604 -0.004704475
v 0.1602192 -0.2595169 -0.1779985
v -0.01072502 -0.2750314 -0.2515831
v 0.1653643 -0.3854835 -0.0003914833
v 0.1174097 -0.3938119 -0.1215415
v -0.002099037 -0.404658 -0.1729841
v -0.01072502 -0.2750314 -0.2515831
v -0.02467918 -0.09979983 -0.1768527
v -0.139925 -0.1064738 -0.1307764
v -0.03494072 0.01148808 -0.01874828
v -0.1838856 -0.2850592 -0.182353
v -0.002099037 -0.404658 -0.1729841
v -0.1891356 -0.1055867 -0.01664162
v -0.1231556 -0.4116686 -0.1245861
v 0 -0.4624181 0
v -0.1434832 -0.09765811 0.09869385
v -0.02971077 -0.08733249 0.1476679
v -0.2578259 -0.2837264 -0.0108633
v -0.1892319 -0.2718134 0.1624308
v -0.01828575 -0.2562989 0.2360153
v -0.1748466 -0.4107367 -0.004696846
v -0.1268921 -0.4024084 0.1164536
v -0.0073843 -0.3915622 0.1678958
vt 0.578125 0.840332
vt 0.5029297 0.7929688
vt 0.5029297 0.9282227
vt 0.578125 0.6914063
vt 0.578125 0.9956055
vt 0.6533203 0.7919922
vt 0.6533203 0.9282227
vt 0.578125 0.840332
vt 0.5029297 0.7929688
vt 0.5029297 0.9282227
vt 0.578125 0.6914063
vt 0.578125 0.9956055
vt 0.6533203 0.7919922
vt 0.6533203 0.9282227
vt 0.578125 0.840332
vt 0.5029297 0.7929688
vt 0.5029297 0.9282227
vt 0.578125 0.6914063
vt 0.578125 0.9956055
vt 0.6533203 0.7919922
vt 0.6533203 0.9282227
vt 0.578125 0.840332
vt 0.5029297 0.7929688
vt 0.5029297 0.9282227
vt 0.578125 0.6914063
vt 0.578125 0.9956055
vt 0.6533203 0.7919922
vt 0.6533203 0.9282227
vt 0.578125 0.840332
vt 0.5029297 0.7929688
vt 0.5029297 0.9282227
vt 0.578125 0.6914063
vt 0.578125 0.9956055
vt 0.6533203 0.7919922
vt 0.6533203 0.9282227
vt 0.8061523 0.2885742
vt 0.8061523 0.2297363
vt 0.7905273 0.2297363
vt 0.7905273 0.2885742
vt 0.7753906 0.2297363
vt 0.8061523 0.3618164
vt 0.7753906 0.2885742
vt 0.7905273 0.3601074
vt 0.7905273 0.3696289
vt 0.7753906 0.3618164
vt 0.8061523 0.2885742
vt 0.8061523 0.2297363
vt 0.7905273 0.2297363
vt 0.7905273 0.2885742
vt 0.7753906 0.2297363
vt 0.8061523 0.3618164
vt 0.7753906 0.2885742
vt 0.7905273 0.3601074
vt 0.7905273 0.3696289
vt 0.7753906 0.3618164
vt 0.5043945 0.5429688
vt 0.5185547 0.5795898
vt 0.5415039 0.5795898
vt 0.5615234 0.6157227
vt 0.5371094 0.5429688
vt 0.5151367 0.5068359
vt 0.5615234 0.5795898
vt 0.5405273 0.5068359
vt 0.5615234 0.4702148
vt 0.5820313 0.5795898
vt 0.6044922 0.5795898
vt 0.5615234 0.5429688
vt 0.5864258 0.5429688
vt 0.6191406 0.5429688
vt 0.5615234 0.5068359
vt 0.5830078 0.5068359
vt 0.6083984 0.5068359
vt 0.5043945 0.5429688
vt 0.5185547 0.5795898
vt 0.5415039 0.5795898
vt 0.5615234 0.6157227
vt 0.5371094 0.5429688
vt 0.5151367 0.5068359
vt 0.5615234 0.5795898
vt 0.5405273 0.5068359
vt 0.5615234 0.4702148
vt 0.5820313 0.5795898
vt 0.6044922 0.5795898
vt 0.5615234 0.5429688
vt 0.5864258 0.5429688
vt 0.6191406 0.5429688
vt 0.5615234 0.5068359
vt 0.5830078 0.5068359
vt 0.6083984 0.5068359
vn 0.310791 0.7543945 0.578125
vn 0.09332275 0.5273438 0.8447266
vn -0.1265869 0.8354492 0.5351563
vn 0.5336914 0.2124023 0.8188477
vn 0.1495361 0.918457 0.3659668
vn 0.6625977 0.5986328 0.4499512
vn 0.4082031 0.8984375 0.1616211
vn -0.6660156 0.734375 -0.1306152
vn -0.6723633 0.5473633 -0.4978027
vn -0.3210449 0.8666992 -0.3818359
vn -0.9584961 0.1798096 -0.2211914
vn -0.4143066 0.9077148 -0.06335449
vn -0.8276367 0.5307617 0.1807861
vn -0.4648438 0.847168 0.2573242
vn 0.1802979 0.8466797 -0.5004883
vn 0.5585938 0.7392578 -0.3762207
vn 0.2473145 0.9658203 -0.07507324
vn 0.5048828 0.3776855 -0.7763672
vn -0.01461792 0.9589844 -0.2827148
vn 0.0100174 0.6162109 -0.7875977
vn -0.2692871 0.8457031 -0.4604492
vn -0.4145508 0.9101563 -0.008613586
vn -0.3513184 0.8417969 -0.4101563
vn 0.01051331 0.9926758 -0.1184082
vn -0.7817383 0.519043 -0.3457031
vn -0.1629639 0.9726563 0.166748
vn -0.7041016 0.6894531 0.1707764
vn -0.3200684 0.8452148 0.4279785
vn 0.09637451 0.9038086 0.4174805
vn -0.2156982 0.8295898 0.5151367
vn -0.2307129 0.9658203 0.1194458
vn 0.1402588 0.5415039 0.8291016
vn 0.1029053 0.987793 0.1160889
vn 0.4724121 0.7675781 0.4333496
vn 0.4213867 0.9008789 0.1043091
vn 0.9785156 0.2059326 -0.0242157
vn 0.9731445 0.2174072 -0.07653809
vn 0.04833984 0.117981 0.9916992
vn 0.02807617 0.1379395 0.9902344
vn -1 -0.02101135 0.002227783
vn 0.9609375 0.2763672 0.01675415
vn -0.9975586 -0.04342651 0.05172729
vn 0.07104492 0.2900391 0.9545898
vn -0.3041992 0.9018555 -0.3061523
vn -0.9951172 -0.0574646 0.08227539
vn -0.9975586 -0.04342651 0.05172729
vn -1 -0.02101135 0.002227783
vn -0.0241394 0.08502197 -0.9960938
vn -0.03497314 0.02648926 -0.9990234
vn 0.9731445 0.2174072 -0.07653809
vn -0.9951172 -0.0574646 0.08227539
vn 0.9785156 0.2059326 -0.0242157
vn 0.0352478 -0.07348633 -0.996582
vn -0.3041992 0.9018555 -0.3061523
vn 0.9609375 0.2763672 0.01675415
vn -0.01902771 0.08648682 0.9960938
vn -0.06433105 0.7558594 0.6513672
vn 0.4187012 0.7841797 0.458252
vn -0.07348633 0.996582 -0.03942871
vn 0.6899414 0.1275635 0.7128906
vn 0.02319336 -0.4633789 0.8857422
vn 0.625 0.7802734 -0.02027893
vn 0.6381836 -0.4277344 0.6396484
vn 0.07348633 -0.996582 0.03942871
vn 0.4338379 0.7470703 -0.5039063
vn -0.04327393 0.7036133 -0.7089844
vn 0.9926758 0.1221313 0.01069641
vn 0.7119141 0.07336426 -0.6987305
vn 0.01192474 0.00983429 -1
vn 0.9008789 -0.4326172 0.03059387
vn 0.6572266 -0.4748535 -0.5849609
vn 0.05004883 -0.5297852 -0.8466797
vn 0.01192474 0.00983429 -1
vn -0.04327393 0.7036133 -0.7089844
vn -0.5263672 0.6757813 -0.5161133
vn -0.07348633 0.996582 -0.03942871
vn -0.6967773 -0.03121948 -0.7163086
vn 0.05004883 -0.5297852 -0.8466797
vn -0.7329102 0.6796875 -0.03747559
vn -0.5649414 -0.5654297 -0.6005859
vn 0.07348633 -0.996582 0.03942871
vn -0.5415039 0.7128906 0.4460449
vn -0.06433105 0.7558594 0.6513672
vn -0.9995117 -0.02575684 -0.01451111
vn -0.71875 0.02301025 0.6948242
vn -0.01902771 0.08648682 0.9960938
vn -0.8276367 -0.5610352 0.008712769
vn -0.5839844 -0.5185547 0.6245117
vn 0.02319336 -0.4633789 0.8857422
g p032v001_m_0
f 3/3/3 2/2/2 1/1/1
f 1/1/1 2/2/2 4/4/4
f 3/3/3 1/1/1 5/5/5
f 1/1/1 4/4/4 6/6/6
f 1/1/1 7/7/7 5/5/5
f 1/1/1 6/6/6 7/7/7
f 10/10/10 9/9/9 8/8/8
f 8/8/8 9/9/9 11/11/11
f 10/10/10 8/8/8 12/12/12
f 8/8/8 11/11/11 13/13/13
f 8/8/8 14/14/14 12/12/12
f 8/8/8 13/13/13 14/14/14
f 17/17/17 16/16/16 15/15/15
f 15/15/15 16/16/16 18/18/18
f 17/17/17 15/15/15 19/19/19
f 15/15/15 18/18/18 20/20/20
f 15/15/15 21/21/21 19/19/19
f 15/15/15 20/20/20 21/21/21
f 24/24/24 23/23/23 22/22/22
f 22/22/22 23/23/23 25/25/25
f 24/24/24 22/22/22 26/26/26
f 22/22/22 25/25/25 27/27/27
f 22/22/22 28/28/28 26/26/26
f 22/22/22 27/27/27 28/28/28
f 31/31/31 30/30/30 29/29/29
f 29/29/29 30/30/30 32/32/32
f 31/31/31 29/29/29 33/33/33
f 29/29/29 32/32/32 34/34/34
f 29/29/29 35/35/35 33/33/33
f 29/29/29 34/34/34 35/35/35
g p032v001_m_1
f 38/38/38 37/37/37 36/36/36
f 39/39/39 38/38/38 36/36/36
f 40/40/40 38/38/38 39/39/39
f 39/39/39 36/36/36 41/41/41
f 42/42/42 40/40/40 39/39/39
f 43/43/43 39/39/39 41/41/41
f 42/42/42 39/39/39 43/43/43
f 43/43/43 41/41/41 44/44/44
f 45/45/45 42/42/42 43/43/43
f 45/45/45 43/43/43 44/44/44
f 48/48/48 47/47/47 46/46/46
f 49/49/49 48/48/48 46/46/46
f 50/50/50 48/48/48 49/49/49
f 49/49/49 46/46/46 51/51/51
f 52/52/52 50/50/50 49/49/49
f 53/53/53 49/49/49 51/51/51
f 52/52/52 49/49/49 53/53/53
f 53/53/53 51/51/51 54/54/54
f 55/55/55 52/52/52 53/53/53
f 55/55/55 53/53/53 54/54/54
f 58/58/58 57/57/57 56/56/56
f 58/58/58 59/59/59 57/57/57
f 60/60/60 58/58/58 56/56/56
f 60/60/60 56/56/56 61/61/61
f 62/62/62 59/59/59 58/58/58
f 62/62/62 58/58/58 60/60/60
f 63/63/63 60/60/60 61/61/61
f 61/61/61 64/64/64 63/63/63
f 65/65/65 59/59/59 62/62/62
f 66/66/66 59/59/59 65/65/65
f 67/67/67 62/62/62 60/60/60
f 67/67/67 60/60/60 63/63/63
f 65/65/65 62/62/62 67/67/67
f 66/66/66 65/65/65 68/68/68
f 68/68/68 65/65/65 67/67/67
f 69/69/69 66/66/66 68/68/68
f 70/70/70 67/67/67 63/63/63
f 63/63/63 64/64/64 70/70/70
f 68/68/68 67/67/67 70/70/70
f 69/69/69 68/68/68 71/71/71
f 71/71/71 68/68/68 70/70/70
f 70/70/70 64/64/64 71/71/71
f 72/72/72 69/69/69 71/71/71
f 71/71/71 64/64/64 72/72/72
f 75/75/75 74/74/74 73/73/73
f 75/75/75 76/76/76 74/74/74
f 77/77/77 75/75/75 73/73/73
f 77/77/77 73/73/73 78/78/78
f 79/79/79 76/76/76 75/75/75
f 79/79/79 75/75/75 77/77/77
f 80/80/80 77/77/77 78/78/78
f 78/78/78 81/81/81 80/80/80
f 82/82/82 76/76/76 79/79/79
f 83/83/83 76/76/76 82/82/82
f 84/84/84 79/79/79 77/77/77
f 84/84/84 77/77/77 80/80/80
f 82/82/82 79/79/79 84/84/84
f 83/83/83 82/82/82 85/85/85
f 85/85/85 82/82/82 84/84/84
f 86/86/86 83/83/83 85/85/85
f 87/87/87 84/84/84 80/80/80
f 80/80/80 81/81/81 87/87/87
f 85/85/85 84/84/84 87/87/87
f 86/86/86 85/85/85 88/88/88
f 88/88/88 85/85/85 87/87/87
f 87/87/87 81/81/81 88/88/88
f 89/89/89 86/86/86 88/88/88
f 88/88/88 81/81/81 89/89/89
