g p036v001_l
v 0.5628127 1.149041 -0.3170127
v 0.5628127 0.5933137 -0.2053101
v -0.5908458 0.9926992 -0.2855876
v -0.5908458 0.7502542 -0.2368555
v 0.1913543 -0.4281161 0
v -0.180104 -0.4281161 0
vt 1 1
vt 1 0.6474609
vt 0 0.9008789
vt 0 0.7470703
vt 0.6782227 0
vt 0.355957 0
vn 0 0.1970215 0.9804688
vn 0 0.1970215 0.9804688
vn 0 0.1970215 0.9804688
vn 0 0.1970215 0.9804688
vn 0 0.1970215 0.9804688
vn 0 0.1970215 0.9804688
g p036v001_l_0
f 3/3/3 2/2/2 1/1/1
f 4/4/4 2/2/2 3/3/3
f 4/4/4 5/5/5 2/2/2
f 5/5/5 4/4/4 6/6/6
