g p039v001_l
v 0.3716645 3.648757E-07 1.912238E-06
v 0.3185067 0.5 0.002701413
v -0.01687145 0.5 -0.3326767
v -0.01815748 3.648757E-07 -0.3898201
v -0.3522491 0.5 0.002701413
v -0.4079738 3.648757E-07 1.912238E-06
v -0.4079738 3.648757E-07 1.912238E-06
v -0.3522491 0.5 0.002701413
v -0.01687098 0.5 0.3380812
v -0.01815748 3.648757E-07 0.3898201
v 0.3185067 0.5 0.002701413
v 0.3716645 3.648757E-07 1.912238E-06
v 0.3185067 0.5 0.002701413
v -0.01687098 0.5 0.3380812
v -0.01687145 0.5 -0.3326767
v -0.3522491 0.5 0.002701413
v 0.3716645 3.648757E-07 1.912238E-06
v -0.01815748 3.648757E-07 -0.3898201
v -0.4079738 3.648757E-07 1.912238E-06
v -0.01815748 3.648757E-07 0.3898201
vt 0.0005221367 0.00066185
vt 0.0005221367 0.135498
vt 0.06201172 0.135498
vt 0.06201172 0.00066185
vt 0.125 0.135498
vt 0.125 0.00066185
vt 0.0005221367 0.00066185
vt 0.0005221367 0.135498
vt 0.06201172 0.135498
vt 0.06201172 0.00066185
vt 0.125 0.135498
vt 0.125 0.00066185
vt 0.2817383 0.9038086
vt 0.2340088 0.8081055
vt 0.2340088 0.9990234
vt 0.1864014 0.9038086
vt 0.128418 0.8657227
vt 0.1572266 0.9228516
vt 0.1859131 0.8657227
vt 0.1572266 0.8081055
vn 0.984375 0.1763916 -0.001540184
vn 0.9946289 0.1057129 0.002300262
vn 0.001091003 0.1135254 -0.9936523
vn -0.0008583069 0.1855469 -0.9824219
vn -0.9936523 0.1107788 0.00229454
vn -0.9829102 0.1829834 -0.00153923
vn -0.9829102 0.1829834 -0.00153923
vn -0.9936523 0.1107788 0.00229454
vn 0.001097679 0.1029053 0.9946289
vn -0.0008592606 0.1737061 0.9848633
vn 0.9946289 0.1057129 0.002300262
vn 0.984375 0.1763916 -0.001540184
vn 0 1 0
vn 0 1 0
vn 0 1 0
vn 0 1 0
vn 0 -1 0
vn 0 -1 0
vn 0 -1 0
vn 0 -1 0
g p039v001_l_0
f 3/3/3 2/2/2 1/1/1
f 4/4/4 3/3/3 1/1/1
f 5/5/5 3/3/3 4/4/4
f 6/6/6 5/5/5 4/4/4
f 9/9/9 8/8/8 7/7/7
f 10/10/10 9/9/9 7/7/7
f 11/11/11 9/9/9 10/10/10
f 12/12/12 11/11/11 10/10/10
f 15/15/15 14/14/14 13/13/13
f 16/16/16 14/14/14 15/15/15
f 19/19/19 18/18/18 17/17/17
f 20/20/20 19/19/19 17/17/17
