g r015v002_m
v -0.2454459 -0.1806715 0.2184495
v -0.3896856 -0.120918 0.2786286
v -0.2597454 -0.120918 0.2498452
v -0.3587954 -0.25 0.2108065
v -0.2168471 -0.1806715 0.1556583
v -0.4644337 -0.120918 0.08080107
v -0.2970149 -0.25 0.07516211
v -0.2025476 -0.120918 0.1242626
v -0.2661247 -0.120918 0.007339954
v -0.2168471 -0.0611645 0.1556583
v -0.2661247 -0.120918 0.007339954
v -0.2025476 -0.120918 0.1242626
v -0.2970149 0.008163989 0.07516211
v -0.2454459 -0.0611645 0.2184495
v -0.4644337 -0.120918 0.08080107
v -0.3587954 0.008163989 0.2108065
v -0.2597454 -0.120918 0.2498452
v -0.3896856 -0.120918 0.2786286
v -0.2597454 -0.120918 0.2498452
v -0.03391269 -0.0611645 0.3147944
v -0.04821214 -0.120918 0.34619
v -0.2454459 -0.0611645 0.2184495
v -0.005313814 -0.0611645 0.2520031
v -0.2168471 -0.0611645 0.1556583
v 0.008985639 -0.120918 0.2206074
v -0.2025476 -0.120918 0.1242626
v -0.005313814 -0.1806715 0.2520031
v -0.2168471 -0.1806715 0.1556583
v -0.03391269 -0.1806715 0.3147944
v -0.2454459 -0.1806715 0.2184495
v -0.04821214 -0.120918 0.34619
v -0.2597454 -0.120918 0.2498452
v -0.03391269 -0.1806715 0.3147944
v -0.04821214 -0.120918 0.34619
v 0.01536489 -0.120918 0.4631127
v 0.04625511 -0.25 0.3952906
v -0.005313814 -0.1806715 0.2520031
v 0.2136739 -0.120918 0.3896515
v 0.1080356 -0.25 0.2596461
v 0.008985639 -0.120918 0.2206074
v 0.1389259 -0.120918 0.191824
v -0.005313814 -0.0611645 0.2520031
v 0.008985639 -0.120918 0.2206074
v 0.1389259 -0.120918 0.191824
v 0.1080356 0.008163989 0.2596461
v -0.03391269 -0.0611645 0.3147944
v 0.2136739 -0.120918 0.3896515
v 0.04625511 0.008163989 0.3952906
v -0.04821214 -0.120918 0.34619
v 0.01536489 -0.120918 0.4631127
v 0.2116182 -0.1806715 -0.2900444
v 0.2336528 -0.120918 -0.4447734
v 0.1919485 -0.120918 -0.3183863
v 0.276144 -0.25 -0.3835481
v 0.2509575 -0.1806715 -0.2333606
v 0.4418842 -0.120918 -0.407859
v 0.3611264 -0.25 -0.2610973
v 0.2706271 -0.120918 -0.2050186
v 0.4036176 -0.120918 -0.1998718
v 0.2509575 -0.0611645 -0.2333606
v 0.4036176 -0.120918 -0.1998718
v 0.2706271 -0.120918 -0.2050186
v 0.3611264 0.008163989 -0.2610973
v 0.2116182 -0.0611645 -0.2900444
v 0.4418842 -0.120918 -0.407859
v 0.276144 0.008163989 -0.3835481
v 0.1919485 -0.120918 -0.3183863
v 0.2336528 -0.120918 -0.4447734
v 0.1919485 -0.120918 -0.3183863
v 0.0206598 -0.0611645 -0.1575169
v 0.0009901524 -0.120918 -0.1858588
v 0.2116182 -0.0611645 -0.2900444
v 0.05999911 -0.0611645 -0.100833
v 0.2509575 -0.0611645 -0.2333606
v 0.07966876 -0.120918 -0.07249108
v 0.2706271 -0.120918 -0.2050186
v 0.05999911 -0.1806715 -0.100833
v 0.2509575 -0.1806715 -0.2333606
v 0.0206598 -0.1806715 -0.1575169
v 0.2116182 -0.1806715 -0.2900444
v 0.0009901524 -0.120918 -0.1858588
v 0.1919485 -0.120918 -0.3183863
v 0.0206598 -0.1806715 -0.1575169
v 0.0009901524 -0.120918 -0.1858588
v -0.1320003 -0.120918 -0.1910055
v -0.08950907 -0.25 -0.1297801
v 0.05999911 -0.1806715 -0.100833
v -0.1702669 -0.120918 0.01698172
v -0.004526615 -0.25 -0.007329345
v 0.07966876 -0.120918 -0.07249108
v 0.03796458 -0.120918 0.05389607
v 0.05999911 -0.0611645 -0.100833
v 0.07966876 -0.120918 -0.07249108
v 0.03796458 -0.120918 0.05389607
v -0.004526615 0.008163989 -0.007329345
v 0.0206598 -0.0611645 -0.1575169
v -0.1702669 -0.120918 0.01698172
v -0.08950907 0.008163989 -0.1297801
v 0.0009901524 -0.120918 -0.1858588
v -0.1320003 -0.120918 -0.1910055
vt 0.5141602 0.199585
vt 0.6801758 0.02171326
vt 0.498291 0.09906006
vt 0.6708984 0.1877441
vt 0.5146484 0.302002
vt 0.9238281 0.2507324
vt 0.6708984 0.3139648
vt 0.498291 0.4025879
vt 0.6801758 0.4799805
vt 0.5151367 0.7021484
vt 0.6796875 0.5249023
vt 0.4985352 0.6020508
vt 0.6708984 0.6904297
vt 0.5151367 0.8041992
vt 0.9228516 0.7529297
vt 0.6708984 0.815918
vt 0.4985352 0.9042969
vt 0.6796875 0.9814453
vt 0.02648926 0.3400879
vt 0.4223633 0.4440918
vt 0.4223633 0.3400879
vt 0.02648926 0.4440918
vt 0.4223633 0.5488281
vt 0.02648926 0.5488281
vt 0.4223633 0.6547852
vt 0.02648926 0.6547852
vt 0.4223633 0.7617188
vt 0.02648926 0.7617188
vt 0.4223633 0.8681641
vt 0.02648926 0.8681641
vt 0.4223633 0.9755859
vt 0.02648926 0.9755859
vt 0.5151367 0.8041992
vt 0.4985352 0.9042969
vt 0.6796875 0.9814453
vt 0.6708984 0.815918
vt 0.5151367 0.7021484
vt 0.9228516 0.7529297
vt 0.6708984 0.6904297
vt 0.4985352 0.6020508
vt 0.6796875 0.5249023
vt 0.5146484 0.302002
vt 0.498291 0.4025879
vt 0.6801758 0.4799805
vt 0.6708984 0.3139648
vt 0.5141602 0.199585
vt 0.9238281 0.2507324
vt 0.6708984 0.1877441
vt 0.498291 0.09906006
vt 0.6801758 0.02171326
vt 0.5141602 0.199585
vt 0.6801758 0.02171326
vt 0.498291 0.09906006
vt 0.6708984 0.1877441
vt 0.5146484 0.302002
vt 0.9238281 0.2507324
vt 0.6708984 0.3139648
vt 0.498291 0.4025879
vt 0.6801758 0.4799805
vt 0.5151367 0.7021484
vt 0.6796875 0.5249023
vt 0.4985352 0.6020508
vt 0.6708984 0.6904297
vt 0.5151367 0.8041992
vt 0.9228516 0.7529297
vt 0.6708984 0.815918
vt 0.4985352 0.9042969
vt 0.6796875 0.9814453
vt 0.02648926 0.3400879
vt 0.4223633 0.4440918
vt 0.4223633 0.3400879
vt 0.02648926 0.4440918
vt 0.4223633 0.5488281
vt 0.02648926 0.5488281
vt 0.4223633 0.6547852
vt 0.02648926 0.6547852
vt 0.4223633 0.7617188
vt 0.02648926 0.7617188
vt 0.4223633 0.8681641
vt 0.02648926 0.8681641
vt 0.4223633 0.9755859
vt 0.02648926 0.9755859
vt 0.5151367 0.8041992
vt 0.4985352 0.9042969
vt 0.6796875 0.9814453
vt 0.6708984 0.815918
vt 0.5151367 0.7021484
vt 0.9228516 0.7529297
vt 0.6708984 0.6904297
vt 0.4985352 0.6020508
vt 0.6796875 0.5249023
vt 0.5146484 0.302002
vt 0.498291 0.4025879
vt 0.6801758 0.4799805
vt 0.6708984 0.3139648
vt 0.5141602 0.199585
vt 0.9238281 0.2507324
vt 0.6708984 0.1877441
vt 0.498291 0.09906006
vt 0.6801758 0.02171326
vn 0.3818359 -0.6918945 0.612793
vn -0.4902344 0 0.871582
vn 0.2163086 0 0.9765625
vn -0.2836914 -0.862793 0.4182129
vn 0.7128906 -0.6918945 -0.1141968
vn -0.9101563 0 -0.4145508
vn 0.1291504 -0.862793 -0.4885254
vn 0.878418 0 -0.4777832
vn 0.3356934 0 -0.9418945
vn 0.7128906 0.6918945 -0.1141968
vn 0.3356934 0 -0.9418945
vn 0.878418 0 -0.4777832
vn 0.1291504 0.862793 -0.4885254
vn 0.3818359 0.6918945 0.612793
vn -0.9101563 0 -0.4145508
vn -0.2836914 0.862793 0.4182129
vn 0.2163086 0 0.9765625
vn -0.4902344 0 0.871582
vn -0.4145508 0 0.9101563
vn -0.2072754 0.8662109 0.4550781
vn -0.4145508 0 0.9101563
vn -0.2072754 0.8662109 0.4550781
vn 0.2072754 0.8662109 -0.4550781
vn 0.2072754 0.8662109 -0.4550781
vn 0.4145508 0 -0.9101563
vn 0.4145508 0 -0.9101563
vn 0.2072754 -0.8662109 -0.4550781
vn 0.2072754 -0.8662109 -0.4550781
vn -0.2072754 -0.8662109 0.4550781
vn -0.2072754 -0.8662109 0.4550781
vn -0.4145508 0 0.9101563
vn -0.4145508 0 0.9101563
vn -0.7128906 -0.6918945 0.1141968
vn -0.878418 0 0.4777832
vn -0.3356934 0 0.9418945
vn -0.1291504 -0.862793 0.4885254
vn -0.3818359 -0.6918945 -0.612793
vn 0.9101563 0 0.4145508
vn 0.2836914 -0.862793 -0.4182129
vn -0.2163086 0 -0.9765625
vn 0.4902344 0 -0.871582
vn -0.3818359 0.6918945 -0.612793
vn -0.2163086 0 -0.9765625
vn 0.4902344 0 -0.871582
vn 0.2836914 0.862793 -0.4182129
vn -0.7128906 0.6918945 0.1141968
vn 0.9101563 0 0.4145508
vn -0.1291504 0.862793 0.4885254
vn -0.878418 0 0.4777832
vn -0.3356934 0 0.9418945
vn -0.7216797 -0.6918945 0.01480103
vn -0.498291 0 -0.8671875
vn -0.949707 0 -0.3132324
vn -0.2142334 -0.862793 -0.4577637
vn -0.2663574 -0.6918945 0.6708984
vn 0.8217773 0 -0.5703125
vn 0.3537598 -0.862793 0.3608398
vn -0.03866577 0 0.9990234
vn 0.6376953 0 0.7700195
vn -0.2663574 0.6918945 0.6708984
vn 0.6376953 0 0.7700195
vn -0.03866577 0 0.9990234
vn 0.3537598 0.862793 0.3608398
vn -0.7216797 0.6918945 0.01480103
vn 0.8217773 0 -0.5703125
vn -0.2142334 0.862793 -0.4577637
vn -0.949707 0 -0.3132324
vn -0.498291 0 -0.8671875
vn -0.5703125 0 -0.8217773
vn -0.2851563 0.8662109 -0.4108887
vn -0.5703125 0 -0.8217773
vn -0.2851563 0.8662109 -0.4108887
vn 0.2851563 0.8662109 0.4108887
vn 0.2851563 0.8662109 0.4108887
vn 0.5703125 0 0.8217773
vn 0.5703125 0 0.8217773
vn 0.2851563 -0.8662109 0.4108887
vn 0.2851563 -0.8662109 0.4108887
vn -0.2851563 -0.8662109 -0.4108887
vn -0.2851563 -0.8662109 -0.4108887
vn -0.5703125 0 -0.8217773
vn -0.5703125 0 -0.8217773
vn 0.2663574 -0.6918945 -0.6708984
vn 0.03866577 0 -0.9990234
vn -0.6376953 0 -0.7700195
vn -0.3537598 -0.862793 -0.3608398
vn 0.7216797 -0.6918945 -0.01480103
vn -0.8217773 0 0.5703125
vn 0.2142334 -0.862793 0.4577637
vn 0.949707 0 0.3132324
vn 0.498291 0 0.8671875
vn 0.7216797 0.6918945 -0.01480103
vn 0.949707 0 0.3132324
vn 0.498291 0 0.8671875
vn 0.2142334 0.862793 0.4577637
vn 0.2663574 0.6918945 -0.6708984
vn -0.8217773 0 0.5703125
vn -0.3537598 0.862793 -0.3608398
vn 0.03866577 0 -0.9990234
vn -0.6376953 0 -0.7700195
g r015v002_m_0
f 3/3/3 2/2/2 1/1/1
f 2/2/2 4/4/4 1/1/1
f 1/1/1 4/4/4 5/5/5
f 4/4/4 2/2/2 6/6/6
f 4/4/4 7/7/7 5/5/5
f 7/7/7 4/4/4 6/6/6
f 5/5/5 7/7/7 8/8/8
f 9/9/9 7/7/7 6/6/6
f 7/7/7 9/9/9 8/8/8
f 12/12/12 11/11/11 10/10/10
f 11/11/11 13/13/13 10/10/10
f 10/10/10 13/13/13 14/14/14
f 13/13/13 11/11/11 15/15/15
f 13/13/13 16/16/16 14/14/14
f 16/16/16 13/13/13 15/15/15
f 14/14/14 16/16/16 17/17/17
f 18/18/18 16/16/16 15/15/15
f 16/16/16 18/18/18 17/17/17
f 21/21/21 20/20/20 19/19/19
f 20/20/20 22/22/22 19/19/19
f 20/20/20 23/23/23 22/22/22
f 23/23/23 24/24/24 22/22/22
f 23/23/23 25/25/25 24/24/24
f 25/25/25 26/26/26 24/24/24
f 25/25/25 27/27/27 26/26/26
f 27/27/27 28/28/28 26/26/26
f 27/27/27 29/29/29 28/28/28
f 29/29/29 30/30/30 28/28/28
f 29/29/29 31/31/31 30/30/30
f 31/31/31 32/32/32 30/30/30
f 35/35/35 34/34/34 33/33/33
f 36/36/36 35/35/35 33/33/33
f 36/36/36 33/33/33 37/37/37
f 35/35/35 36/36/36 38/38/38
f 39/39/39 36/36/36 37/37/37
f 36/36/36 39/39/39 38/38/38
f 39/39/39 37/37/37 40/40/40
f 39/39/39 41/41/41 38/38/38
f 41/41/41 39/39/39 40/40/40
f 44/44/44 43/43/43 42/42/42
f 45/45/45 44/44/44 42/42/42
f 45/45/45 42/42/42 46/46/46
f 44/44/44 45/45/45 47/47/47
f 48/48/48 45/45/45 46/46/46
f 45/45/45 48/48/48 47/47/47
f 48/48/48 46/46/46 49/49/49
f 48/48/48 50/50/50 47/47/47
f 50/50/50 48/48/48 49/49/49
f 53/53/53 52/52/52 51/51/51
f 52/52/52 54/54/54 51/51/51
f 51/51/51 54/54/54 55/55/55
f 54/54/54 52/52/52 56/56/56
f 54/54/54 57/57/57 55/55/55
f 57/57/57 54/54/54 56/56/56
f 55/55/55 57/57/57 58/58/58
f 59/59/59 57/57/57 56/56/56
f 57/57/57 59/59/59 58/58/58
f 62/62/62 61/61/61 60/60/60
f 61/61/61 63/63/63 60/60/60
f 60/60/60 63/63/63 64/64/64
f 63/63/63 61/61/61 65/65/65
f 63/63/63 66/66/66 64/64/64
f 66/66/66 63/63/63 65/65/65
f 64/64/64 66/66/66 67/67/67
f 68/68/68 66/66/66 65/65/65
f 66/66/66 68/68/68 67/67/67
f 71/71/71 70/70/70 69/69/69
f 70/70/70 72/72/72 69/69/69
f 70/70/70 73/73/73 72/72/72
f 73/73/73 74/74/74 72/72/72
f 73/73/73 75/75/75 74/74/74
f 75/75/75 76/76/76 74/74/74
f 75/75/75 77/77/77 76/76/76
f 77/77/77 78/78/78 76/76/76
f 77/77/77 79/79/79 78/78/78
f 79/79/79 80/80/80 78/78/78
f 79/79/79 81/81/81 80/80/80
f 81/81/81 82/82/82 80/80/80
f 85/85/85 84/84/84 83/83/83
f 86/86/86 85/85/85 83/83/83
f 86/86/86 83/83/83 87/87/87
f 85/85/85 86/86/86 88/88/88
f 89/89/89 86/86/86 87/87/87
f 86/86/86 89/89/89 88/88/88
f 89/89/89 87/87/87 90/90/90
f 89/89/89 91/91/91 88/88/88
f 91/91/91 89/89/89 90/90/90
f 94/94/94 93/93/93 92/92/92
f 95/95/95 94/94/94 92/92/92
f 95/95/95 92/92/92 96/96/96
f 94/94/94 95/95/95 97/97/97
f 98/98/98 95/95/95 96/96/96
f 95/95/95 98/98/98 97/97/97
f 98/98/98 96/96/96 99/99/99
f 98/98/98 100/100/100 97/97/97
f 100/100/100 98/98/98 99/99/99
