g r020v001_l
v -0.4680271 0 -0.4680269
v -0.4803667 0.07479437 -0.4803668
v -0.4803667 0.07479437 0.4803668
v -0.4680271 0 0.4680269
v 0.4803667 0.07479437 0.4803668
v -0.4803667 0.07479437 0.4803668
v -0.4803667 0.07479437 -0.4803668
v 0.4803667 0.07479437 -0.4803668
v 0.4803667 0.07479437 0.4803668
v 0.4803667 0.07479437 -0.4803668
v 0.4680271 0 -0.4680269
v 0.4680271 0 0.4680269
v -0.4680271 0 0.4680269
v -0.4803667 0.07479437 0.4803668
v 0.4803667 0.07479437 0.4803668
v 0.4680271 0 0.4680269
v 0.4680271 0 -0.4680269
v 0.4803667 0.07479437 -0.4803668
v -0.4803667 0.07479437 -0.4803668
v -0.4680271 0 -0.4680269
v 0.3530517 0.1074519 -0.06046396
v 0.3962259 0.1033055 0.2732422
v 0.2793756 0.1033055 0.1943608
v 0.2608452 0.1033055 0.05565687
v -0.1226416 0.1743235 0.2154411
v 0.01262951 0.1033055 0.3645005
v -0.1242571 0.1033055 -0.07934923
v -0.2017694 0.1033055 0.3822303
v -0.3252063 0.1033055 0.002723068
v -0.4229217 0.1033055 0.2757895
v 0.3536587 0.1033055 -0.01928448
v 0.2453785 0.1033055 -0.1242724
v 0.2588458 0.1033055 -0.1961911
v 0.400454 0.1033055 -0.2596488
v -0.4680271 0 -0.4680269
v -0.4680271 0 0.4680269
v 0.4680271 0 0.4680269
v 0.4680271 0 -0.4680269
v 0.2453785 0.1033055 -0.1242724
v -0.03497648 0.1033055 -0.09805328
v -0.05815744 0.1668364 -0.1935987
v 0.2588458 0.1033055 -0.1961911
v -0.3666754 0.1033055 -0.1974646
v -0.05904293 0.1033055 -0.3638025
v -0.4094596 0.1033055 -0.2512183
v -0.2595024 0.1033055 -0.3701208
vt 0.4372559 0.3769531
vt 0.4140625 0.3691406
vt 0.4140625 0.9785156
vt 0.4372559 0.9619141
vt 0.3105469 0.9848633
vt 0.3105469 0.3808594
vt 0.007881165 0.3808594
vt 0.007881165 0.9848633
vt 0.3308105 0.3691406
vt 0.3308105 0.9785156
vt 0.3540039 0.9619141
vt 0.3540039 0.3769531
vt 0.4760742 0.3898926
vt 0.453125 0.3737793
vt 0.453125 0.9746094
vt 0.4760742 0.9667969
vt 0.3964844 0.3898926
vt 0.3735352 0.3737793
vt 0.3735352 0.9746094
vt 0.3964844 0.9667969
vt 0.9746094 0.5507813
vt 0.9726563 0.2160645
vt 0.9204102 0.3100586
vt 0.9208984 0.4492188
vt 0.7211914 0.3457031
vt 0.7773438 0.1799316
vt 0.7407227 0.6362305
vt 0.6704102 0.1925049
vt 0.6362305 0.5834961
vt 0.5688477 0.3283691
vt 0.984375 0.6875
vt 0.9248047 0.7670898
vt 0.925293 0.8354492
vt 0.9863281 0.9174805
vt 0.1743164 0.3188477
vt 0.1743164 0.1140137
vt 0.07165527 0.1140137
vt 0.07165527 0.3188477
vt 0.9248047 0.7670898
vt 0.7958984 0.6962891
vt 0.7768555 0.7807617
vt 0.925293 0.8354492
vt 0.6318359 0.7333984
vt 0.762207 0.9379883
vt 0.6074219 0.7763672
vt 0.6679688 0.9106445
vn -0.9868164 -0.1627197 0
vn -0.9868164 -0.1627197 0
vn -0.9868164 -0.1627197 0
vn -0.9868164 -0.1627197 0
vn 0 1 0
vn 0 1 0
vn 0 1 0
vn 0 1 0
vn 0.9868164 -0.1627197 0
vn 0.9868164 -0.1627197 0
vn 0.9868164 -0.1627197 0
vn 0.9868164 -0.1627197 0
vn 0 -0.1628418 0.9868164
vn 0 -0.1628418 0.9868164
vn 0 -0.1628418 0.9868164
vn 0 -0.1628418 0.9868164
vn 0 -0.1628418 -0.9868164
vn 0 -0.1628418 -0.9868164
vn 0 -0.1628418 -0.9868164
vn 0 -0.1628418 -0.9868164
vn -0.01785278 1 0.0111084
vn -0.01785278 1 0.0111084
vn 0.1167603 0.987793 0.1021118
vn 0.09387207 0.9956055 0.01109314
vn 0.01838684 1 0.006336212
vn 0.1590576 0.9702148 0.1833496
vn 0.02241516 0.9716797 -0.2342529
vn -0.09014893 0.9311523 0.3537598
vn -0.1779785 0.9716797 -0.1549072
vn -0.2242432 0.9741211 0.03036499
vn 0 1 0
vn 0 1 0
vn 0 1 0
vn 0 1 0
vn 0 -1 0
vn 0 -1 0
vn 0 -1 0
vn 0 -1 0
vn 0.1157227 0.9306641 0.3464355
vn -0.00317955 0.9194336 0.3935547
vn -0.009658813 1 0.01800537
vn 0.1424561 0.9780273 0.151123
vn -0.1853027 0.8720703 0.4528809
vn 0.00185585 0.9584961 -0.2851563
vn -0.1251221 0.9921875 -0.008811951
vn -0.08154297 0.9638672 -0.2539063
g r020v001_l_0
f 3/3/3 2/2/2 1/1/1
f 4/4/4 3/3/3 1/1/1
f 7/7/7 6/6/6 5/5/5
f 8/8/8 7/7/7 5/5/5
f 11/11/11 10/10/10 9/9/9
f 12/12/12 11/11/11 9/9/9
f 15/15/15 14/14/14 13/13/13
f 16/16/16 15/15/15 13/13/13
f 19/19/19 18/18/18 17/17/17
f 20/20/20 19/19/19 17/17/17
f 23/23/23 22/22/22 21/21/21
f 24/24/24 23/23/23 21/21/21
f 24/24/24 25/25/25 23/23/23
f 25/25/25 26/26/26 23/23/23
f 27/27/27 25/25/25 24/24/24
f 28/28/28 26/26/26 25/25/25
f 27/27/27 29/29/29 25/25/25
f 25/25/25 30/30/30 28/28/28
f 29/29/29 30/30/30 25/25/25
f 33/33/33 32/32/32 31/31/31
f 34/34/34 33/33/33 31/31/31
f 37/37/37 36/36/36 35/35/35
f 38/38/38 37/37/37 35/35/35
f 41/41/41 40/40/40 39/39/39
f 42/42/42 41/41/41 39/39/39
f 40/40/40 41/41/41 43/43/43
f 44/44/44 41/41/41 42/42/42
f 41/41/41 45/45/45 43/43/43
f 41/41/41 44/44/44 46/46/46
f 45/45/45 41/41/41 46/46/46
