g r021v002_l
v 0.6159425 0.3039764 -0.202123
v 0.4935656 0.4172771 -0.2148281
v 0.5954642 0.4451176 -0.3299409
v 0.02863264 -0.05390112 0.06143867
v 0.1510425 -0.1672326 0.07414729
v -0.05677414 -0.05397107 -0.08242046
v 0.4081821 0.4172072 -0.3586482
v 0.5954642 0.4451176 -0.3299409
v 0.4081821 0.4172072 -0.3586482
v 0.5305591 0.3039064 -0.345943
v 0.5954642 0.4451176 -0.3299409
v 0.06563568 -0.1673027 -0.06971183
v -0.05677414 -0.05397107 -0.08242046
v 0.1510425 -0.1672326 0.07414729
v 0.6159425 0.3039764 -0.202123
v 0.5954642 0.4451176 -0.3299409
v 0.3133025 0.3551964 -0.5157883
v 0.2002425 0.4392633 -0.4319192
v 0.2031012 0.4954509 -0.5743707
v 0.07319021 -0.1272829 -0.03528513
v 0.1862807 -0.2113727 -0.119177
v -0.07977962 -0.1341087 -0.09404035
v 0.04731417 0.4324394 -0.4906584
v 0.2031012 0.4954509 -0.5743707
v 0.04731417 0.4324394 -0.4906584
v 0.1603746 0.3483723 -0.5745276
v 0.2031012 0.4954509 -0.5743707
v 0.03331137 -0.2181986 -0.1779323
v -0.07977962 -0.1341087 -0.09404035
v 0.1862807 -0.2113727 -0.119177
v 0.3133025 0.3551964 -0.5157883
v 0.2031012 0.4954509 -0.5743707
v 0.3721676 0.07424074 0.3588282
v 0.4706221 0.06230304 0.4574091
v -0.4597721 0.07245493 0.4597193
v -0.361269 0.08331603 0.3608035
v -0.4622464 0.05593839 -0.4705497
v -0.3634315 0.06793249 -0.3725341
v -0.3399353 -0.1619773 0.3409201
v 0.3436217 -0.170448 0.3390808
v 0.3721676 0.07424074 0.3588282
v -0.361269 0.08331603 0.3608035
v -0.3399353 -0.1619773 0.3409201
v -0.3419561 -0.1763372 -0.3425454
v 0.3416009 -0.1848079 -0.3443849
v 0.3436217 -0.170448 0.3390808
v 0.4347587 -0.2459621 0.4324336
v 0.4706221 0.06230304 0.4574091
v 0.4681478 0.04322392 -0.4728599
v 0.432384 -0.2638505 -0.4346789
v 0.4706221 0.06230304 0.4574091
v 0.3721676 0.07424074 0.3588282
v 0.3700047 0.0588572 -0.37451
v 0.4681478 0.04322392 -0.4728599
v -0.3634315 0.06793249 -0.3725341
v -0.4622464 0.05593839 -0.4705497
v 0.3700047 0.0588572 -0.37451
v 0.3721676 0.07424074 0.3588282
v 0.3436217 -0.170448 0.3390808
v 0.3416009 -0.1848079 -0.3443849
v 0.4681478 0.04322392 -0.4728599
v -0.4622464 0.05593839 -0.4705497
v -0.434845 -0.2540376 -0.4324735
v 0.432384 -0.2638505 -0.4346789
v 0.3416009 -0.1848079 -0.3443849
v -0.3419561 -0.1763372 -0.3425454
v -0.3634315 0.06793249 -0.3725341
v 0.3700047 0.0588572 -0.37451
v -0.4324708 -0.2361491 0.434639
v -0.434845 -0.2540376 -0.4324735
v -0.4622464 0.05593839 -0.4705497
v -0.4597721 0.07245493 0.4597193
v -0.361269 0.08331603 0.3608035
v -0.3634315 0.06793249 -0.3725341
v -0.3419561 -0.1763372 -0.3425454
v -0.3399353 -0.1619773 0.3409201
v -0.4597721 0.07245493 0.4597193
v 0.4706221 0.06230304 0.4574091
v 0.4347587 -0.2459621 0.4324336
v -0.4324708 -0.2361491 0.434639
v -0.4324708 -0.2361491 0.434639
v 0.4347587 -0.2459621 0.4324336
v 0.432384 -0.2638505 -0.4346789
v -0.434845 -0.2540376 -0.4324735
v -0.09287071 -0.1584461 -0.05635962
v -0.3451672 -0.05004002 -0.06955279
v -0.1292863 0.1625188 -0.133646
v -0.1038508 -0.08309273 -0.3205197
v -0.3561468 0.02531335 -0.3337126
v -0.03096962 -0.1044668 0.3566937
v -0.2957773 -0.1421129 0.3082196
v -0.1836877 0.08502531 0.1361898
v -0.02622747 -0.1741579 0.09399539
v -0.2910342 -0.2118042 0.04552138
v 0.3247838 -0.1788362 0.2336809
v 0.1046495 -0.07335101 0.3609844
v 0.2337594 0.134847 0.1708561
v 0.1605787 -0.1255695 0.01922417
v -0.05955553 -0.02008437 0.1465277
vt 0.06088257 0.4362793
vt 0.06088257 0.3041992
vt 0.01251984 0.3041992
vt 0.3303223 0.3041992
vt 0.3303223 0.4362793
vt 0.3303223 0.1721191
vt 0.06088257 0.1721191
vt 0.01251984 0.3041992
vt 0.4050293 0.2868652
vt 0.4099121 0.1585693
vt 0.3537598 0.15979
vt 0.6616211 0.1582031
vt 0.6665039 0.2871094
vt 0.6660156 0.02906799
vt 0.4050293 0.03013611
vt 0.3537598 0.15979
vt 0.06088257 0.4362793
vt 0.06088257 0.3041992
vt 0.01251984 0.3041992
vt 0.3303223 0.3041992
vt 0.3303223 0.4362793
vt 0.3303223 0.1721191
vt 0.06088257 0.1721191
vt 0.01251984 0.3041992
vt 0.4050293 0.2868652
vt 0.4099121 0.1585693
vt 0.3537598 0.15979
vt 0.6616211 0.1582031
vt 0.6665039 0.2871094
vt 0.6660156 0.02906799
vt 0.4050293 0.03013611
vt 0.3537598 0.15979
vt 0.6699219 0.7866211
vt 0.6699219 0.7197266
vt 0.3547363 0.7197266
vt 0.3547363 0.7866211
vt 0.02244568 0.7197266
vt 0.02244568 0.7866211
vt 0.3547363 0.9873047
vt 0.6699219 0.9873047
vt 0.6699219 0.8081055
vt 0.3547363 0.8081055
vt 0.7329102 0.7724609
vt 0.734375 0.9814453
vt 0.9433594 0.9799805
vt 0.9418945 0.7709961
vt 0.02244568 0.467041
vt 0.02244568 0.6972656
vt 0.3547363 0.6972656
vt 0.3547363 0.467041
vt 0.02244568 0.7197266
vt 0.02244568 0.7866211
vt 0.3547363 0.7866211
vt 0.3547363 0.7197266
vt 0.6699219 0.7866211
vt 0.6699219 0.7197266
vt 0.3547363 0.8081055
vt 0.02244568 0.8081055
vt 0.02244568 0.9873047
vt 0.3547363 0.9873047
vt 0.3547363 0.6972656
vt 0.6699219 0.6972656
vt 0.6699219 0.467041
vt 0.3547363 0.467041
vt 0.3547363 0.9873047
vt 0.6699219 0.9873047
vt 0.6699219 0.8081055
vt 0.3547363 0.8081055
vt 0.3547363 0.467041
vt 0.02244568 0.467041
vt 0.02244568 0.6972656
vt 0.3547363 0.6972656
vt 0.3547363 0.8081055
vt 0.02244568 0.8081055
vt 0.02244568 0.9873047
vt 0.3547363 0.9873047
vt 0.3547363 0.6972656
vt 0.6699219 0.6972656
vt 0.6699219 0.467041
vt 0.3547363 0.467041
vt 0.9418945 0.7709961
vt 0.7329102 0.7724609
vt 0.734375 0.9814453
vt 0.9433594 0.9799805
vt 0.840332 0.007972717
vt 0.6992188 0.3356934
vt 0.840332 0.3356934
vt 0.980957 0.3356934
vt 0.840332 0.6635742
vt 0.840332 0.007972717
vt 0.6992188 0.3356934
vt 0.840332 0.3356934
vt 0.980957 0.3356934
vt 0.840332 0.6635742
vt 0.840332 0.007972717
vt 0.6992188 0.3356934
vt 0.840332 0.3356934
vt 0.980957 0.3356934
vt 0.840332 0.6635742
vn 0.7661133 -0.3635254 0.5302734
vn -0.1784668 0.6694336 0.7211914
vn 0.972168 0.2183838 0.08544922
vn -0.2595215 0.5854492 0.7680664
vn 0.6850586 -0.4440918 0.5771484
vn -0.7758789 0.3520508 -0.5234375
vn -0.6967773 0.4335938 -0.5712891
vn -0.01192474 0.7548828 -0.6557617
vn -0.6967773 0.4335938 -0.5712891
vn 0.2385254 -0.6083984 -0.7568359
vn -0.01192474 0.7548828 -0.6557617
vn 0.1566162 -0.6899414 -0.7070313
vn -0.7758789 0.3520508 -0.5234375
vn 0.6850586 -0.4440918 0.5771484
vn 0.7661133 -0.3635254 0.5302734
vn 0.972168 0.2183838 0.08544922
vn 0.9648438 -0.234375 -0.1203613
vn 0.2375488 0.5600586 0.7939453
vn 0.7763672 0.4101563 -0.4785156
vn 0.2143555 0.4575195 0.862793
vn 0.9414063 -0.3334961 -0.05059814
vn -0.9667969 0.2205811 0.1296387
vn -0.9453125 0.3203125 0.06011963
vn -0.5087891 0.7832031 -0.3571777
vn -0.9453125 0.3203125 0.06011963
vn -0.2208252 -0.4851074 -0.8461914
vn -0.5087891 0.7832031 -0.3571777
vn -0.243042 -0.5854492 -0.7734375
vn -0.9667969 0.2205811 0.1296387
vn 0.9414063 -0.3334961 -0.05059814
vn 0.9648438 -0.234375 -0.1203613
vn 0.7763672 0.4101563 -0.4785156
vn 0.07562256 0.9960938 0.04708862
vn 0.07550049 0.9960938 0.04724121
vn -0.05194092 0.9975586 0.04812622
vn -0.05181885 0.9975586 0.04824829
vn -0.05148315 0.9956055 -0.0793457
vn -0.05154419 0.9956055 -0.07928467
vn -0.001685143 0.08062744 -0.996582
vn -0.001685143 0.08062744 -0.996582
vn -0.001685143 0.08062744 -0.996582
vn -0.001685143 0.08062744 -0.996582
vn 0.0123291 0.9995117 -0.02104187
vn 0.0123291 0.9995117 -0.02104187
vn 0.0123291 0.9995117 -0.02104187
vn 0.0123291 0.9995117 -0.02104187
vn 0.9931641 -0.1156006 -0.0003015995
vn 0.9931641 -0.1156006 -0.0003015995
vn 0.9931641 -0.1156006 -0.0003015995
vn 0.9931641 -0.1156006 -0.0003015995
vn 0.07550049 0.9960938 0.04724121
vn 0.07562256 0.9960938 0.04708862
vn 0.0760498 0.9936523 -0.08044434
vn 0.07617188 0.9936523 -0.08032227
vn -0.05154419 0.9956055 -0.07928467
vn -0.05148315 0.9956055 -0.0793457
vn -0.9931641 0.1158447 0.0005011559
vn -0.9931641 0.1158447 0.0005011559
vn -0.9931641 0.1158447 0.0005011559
vn -0.9931641 0.1158447 0.0005011559
vn -0.00402832 -0.1226196 -0.9926758
vn -0.00402832 -0.1226196 -0.9926758
vn -0.00402832 -0.1226196 -0.9926758
vn -0.00402832 -0.1226196 -0.9926758
vn 0.004184723 0.1221924 0.9926758
vn 0.004184723 0.1221924 0.9926758
vn 0.004184723 0.1221924 0.9926758
vn 0.004184723 0.1221924 0.9926758
vn -0.9960938 -0.0880127 0.004371643
vn -0.9960938 -0.0880127 0.004371643
vn -0.9960938 -0.0880127 0.004371643
vn -0.9960938 -0.0880127 0.004371643
vn 0.9960938 0.08703613 -0.004768372
vn 0.9960938 0.08703613 -0.004768372
vn 0.9960938 0.08703613 -0.004768372
vn 0.9960938 0.08703613 -0.004768372
vn 0.001605034 -0.08087158 0.996582
vn 0.001605034 -0.08087158 0.996582
vn 0.001605034 -0.08087158 0.996582
vn 0.001605034 -0.08087158 0.996582
vn -0.01126099 -0.9995117 0.0206604
vn -0.01126099 -0.9995117 0.0206604
vn -0.01126099 -0.9995117 0.0206604
vn -0.01126099 -0.9995117 0.0206604
vn 0.715332 0.2392578 0.65625
vn -0.3591309 0.5839844 0.7280273
vn 0.3725586 0.8964844 0.2402344
vn 0.7797852 0.4282227 -0.456543
vn -0.239502 0.9057617 -0.3496094
vn 0.4196777 0.8115234 0.4067383
vn -0.6938477 0.6196289 0.3662109
vn -0.08978271 0.9624023 -0.2568359
vn 0.5927734 0.4667969 -0.65625
vn -0.5341797 0.4177246 -0.7348633
vn 0.9482422 0.2971191 0.1098022
vn 0.09136963 0.6401367 0.7626953
vn 0.3952637 0.9155273 -0.07519531
vn 0.3549805 0.3937988 -0.8476563
vn -0.4436035 0.8720703 -0.2059326
g r021v002_l_0
f 3/3/3 2/2/2 1/1/1
f 2/2/2 4/4/4 1/1/1
f 4/4/4 5/5/5 1/1/1
f 4/4/4 6/6/6 5/5/5
f 6/6/6 4/4/4 2/2/2
f 7/7/7 6/6/6 2/2/2
f 8/8/8 7/7/7 2/2/2
f 11/11/11 10/10/10 9/9/9
f 10/10/10 12/12/12 9/9/9
f 12/12/12 13/13/13 9/9/9
f 12/12/12 14/14/14 13/13/13
f 14/14/14 12/12/12 10/10/10
f 15/15/15 14/14/14 10/10/10
f 16/16/16 15/15/15 10/10/10
f 19/19/19 18/18/18 17/17/17
f 18/18/18 20/20/20 17/17/17
f 20/20/20 21/21/21 17/17/17
f 21/21/21 20/20/20 22/22/22
f 22/22/22 20/20/20 18/18/18
f 23/23/23 22/22/22 18/18/18
f 24/24/24 23/23/23 18/18/18
f 27/27/27 26/26/26 25/25/25
f 26/26/26 28/28/28 25/25/25
f 28/28/28 29/29/29 25/25/25
f 28/28/28 30/30/30 29/29/29
f 30/30/30 28/28/28 26/26/26
f 31/31/31 30/30/30 26/26/26
f 32/32/32 31/31/31 26/26/26
f 35/35/35 34/34/34 33/33/33
f 36/36/36 35/35/35 33/33/33
f 35/35/35 36/36/36 37/37/37
f 36/36/36 38/38/38 37/37/37
f 41/41/41 40/40/40 39/39/39
f 42/42/42 41/41/41 39/39/39
f 45/45/45 44/44/44 43/43/43
f 46/46/46 45/45/45 43/43/43
f 49/49/49 48/48/48 47/47/47
f 50/50/50 49/49/49 47/47/47
f 53/53/53 52/52/52 51/51/51
f 54/54/54 53/53/53 51/51/51
f 53/53/53 54/54/54 55/55/55
f 54/54/54 56/56/56 55/55/55
f 59/59/59 58/58/58 57/57/57
f 60/60/60 59/59/59 57/57/57
f 63/63/63 62/62/62 61/61/61
f 64/64/64 63/63/63 61/61/61
f 67/67/67 66/66/66 65/65/65
f 68/68/68 67/67/67 65/65/65
f 71/71/71 70/70/70 69/69/69
f 72/72/72 71/71/71 69/69/69
f 75/75/75 74/74/74 73/73/73
f 76/76/76 75/75/75 73/73/73
f 79/79/79 78/78/78 77/77/77
f 80/80/80 79/79/79 77/77/77
f 83/83/83 82/82/82 81/81/81
f 84/84/84 83/83/83 81/81/81
f 87/87/87 86/86/86 85/85/85
f 87/87/87 85/85/85 88/88/88
f 87/87/87 89/89/89 86/86/86
f 87/87/87 88/88/88 89/89/89
f 92/92/92 91/91/91 90/90/90
f 92/92/92 90/90/90 93/93/93
f 92/92/92 94/94/94 91/91/91
f 92/92/92 93/93/93 94/94/94
f 97/97/97 96/96/96 95/95/95
f 97/97/97 95/95/95 98/98/98
f 97/97/97 99/99/99 96/96/96
f 97/97/97 98/98/98 99/99/99
