g s004v002_m
v 0.549143 0.1124523 0.1613992
v 0.4908985 0.0260758 0.2229543
v 0.01093245 0.005522072 0.0430733
v -0.0007605553 0.2634122 0.1770026
v 0.02536583 0.2422498 0.225287
v 0.04519057 0.2929174 0.2041619
v 0.04519057 0.2929174 0.2041619
v 0.02536583 0.2422498 0.225287
v 0.0172075 0.2867559 0.2592507
v -0.2529268 0.410596 -0.1855091
v -0.233871 0.3472029 -0.1980002
v -0.2110581 0.3872154 -0.2167569
v -0.221478 0.4937575 -0.1878058
v -0.2529268 0.410596 -0.1855091
v -0.1635075 0.463551 -0.228146
v -0.1117623 0.5830113 -0.1763325
v -0.2110581 0.3872154 -0.2167569
v -0.233871 0.3472029 -0.1980002
v -0.1799364 0.3708186 -0.1682568
v -0.1799364 0.3708186 -0.1682568
v -0.1635075 0.463551 -0.228146
v -0.1271777 0.442367 -0.165517
v -0.1117623 0.5830113 -0.1763325
v 0.01093245 0.005522072 0.0430733
v -0.2056808 0.01659568 -0.4151224
v -0.1369238 0.1124334 -0.4877871
v -0.6731937 0.2634691 0.07980585
v -0.01800537 -0.01095985 0.01047945
v -0.3999386 -0.1410089 0.2569634
v -0.3481297 0.4725298 -0.1977313
v -0.6241636 0.5386042 -0.5232104
v 0.001302123 0.3997121 -0.5729285
v 0.2817625 -0.001621748 -0.366887
v 0.5086021 0.1876301 -0.4828742
v 0.549143 0.1124523 0.1613992
v -0.1369238 0.1124334 -0.4877871
v 0.01093245 0.005522072 0.0430733
v 0.01093245 -0.01930988 0.04307342
v 0.4857104 0.3152896 0.3538362
v 0.2137053 -0.08475032 0.4336379
v 0.3310189 0.4586474 -0.05274796
v -0.07521343 -0.05302491 -0.3921074
v 0.6614115 0.5031766 -0.1613642
v 0.1967918 0.347015 -0.4719088
v 0.4618248 0.2368158 0.4793233
v 0.002395868 -0.01217693 0.002825141
v 0.4687698 -0.09182408 0.06823397
v -0.003503323 0.3816774 0.4894334
v -0.01855183 0.407165 0.8849993
v -0.4772193 0.2566666 0.447589
v -0.4702742 -0.07197329 0.03649974
v 0.04519057 0.2929174 0.2041619
v -0.04662871 0.3392736 0.1505275
v -0.0007605553 0.2634122 0.1770026
v 0.01273799 0.377393 0.183858
v -0.1007965 0.4721464 0.1786491
v 0.0172075 0.2867559 0.2592507
v 0.01273799 0.377393 0.183858
v 0.04519057 0.2929174 0.2041619
v -0.0239265 0.3694325 0.2535641
v -0.1007965 0.4721464 0.1786491
v -0.04662871 0.3392736 0.1505275
v -0.1007965 0.4721464 0.1786491
v -0.08504605 0.3313132 0.2212321
v -0.0007605553 0.2634122 0.1770026
v -0.03049636 0.2572506 0.2330904
v 0.02536583 0.2422498 0.225287
v -0.08504605 0.3313132 0.2212321
v -0.1007965 0.4721464 0.1786491
v -0.0239265 0.3694325 0.2535641
v -0.03049636 0.2572506 0.2330904
v 0.0172075 0.2867559 0.2592507
v 0.02536583 0.2422498 0.225287
v -0.221478 0.4937575 -0.1878058
v -0.1117623 0.5830113 -0.1763325
v -0.1819375 0.4725736 -0.125177
v -0.2529268 0.410596 -0.1855091
v -0.2253234 0.3941992 -0.1370564
v -0.233871 0.3472029 -0.1980002
v -0.1819375 0.4725736 -0.125177
v -0.1117623 0.5830113 -0.1763325
v -0.1271777 0.442367 -0.165517
v -0.2253234 0.3941992 -0.1370564
v -0.1799364 0.3708186 -0.1682568
v -0.233871 0.3472029 -0.1980002
v 0.09649158 0.3615383 -0.2868359
v -0.233871 0.3472029 -0.1980003
v -0.1615703 0.5248348 -0.4742585
v 0.01764858 0.3934765 0.06123412
v -0.3999047 0.6576961 -0.2420219
v -0.2891412 0.5765122 0.08893061
v 0.2142411 0.534379 0.2395649
v 0.02536583 0.2422497 0.225287
v 0.07670283 0.4187078 -0.07042277
v -0.01615238 0.4508168 0.5009559
v -0.2386937 0.2636569 -0.0006146431
v -0.2960815 0.2835012 0.3525169
v -0.05851182 -5.364418E-07 0.1418457
v -0.11952 -5.364418E-07 0.1882023
v 0.02044097 -5.364418E-07 0.1641872
v -0.1365658 -5.364418E-07 0.2629042
v -0.08363113 -5.364418E-07 0.3255985
v 0.07337561 -5.364418E-07 0.2268818
v 0.05632976 -5.364418E-07 0.3015838
v -0.004678339 -5.364418E-07 0.3479402
v -0.1365658 -5.364418E-07 0.2629042
v -0.11952 -5.364418E-07 0.1882023
v -0.0975388 0.05924952 0.2023747
v -0.05851182 -5.364418E-07 0.1418457
v -0.1093512 0.04388839 0.2582345
v -0.07062206 0.05924952 0.3054221
v -0.08363113 -5.364418E-07 0.3255985
v -0.004678339 -5.364418E-07 0.3479402
v -0.05153355 0.04388839 0.1685612
v 0.007432014 0.05924952 0.1843638
v 0.02044097 -5.364418E-07 0.1641872
v 0.07337561 -5.364418E-07 0.2268818
v -0.03159532 0.07899954 0.244893
v 0.03434864 0.05924952 0.287411
v -0.01165661 0.04388839 0.3212241
v 0.05632976 -5.364418E-07 0.3015838
v 0.04616109 0.04388839 0.2315511
vt 1.014648 0.5283203
vt 1.014648 0.4868164
vt 0.6757813 0.4042969
vt 0.1035767 0.3632813
vt 0.07012939 0.2893066
vt 0.03659058 0.3632813
vt 0.1035767 0.3632813
vt 0.07012939 0.2893066
vt 0.03662109 0.3632813
vt 0.1035767 0.3632813
vt 0.07012939 0.2893066
vt 0.03662109 0.3632813
vt 0.1043091 0.4238281
vt 0.1035767 0.3632813
vt 0.03588867 0.4238281
vt 0.07012939 0.5297852
vt 0.1035767 0.3632813
vt 0.07012939 0.2893066
vt 0.03662109 0.3632813
vt 0.03662109 0.3632813
vt 0.1043091 0.4238281
vt 0.03588867 0.4238281
vt 0.07012939 0.5297852
vt 0.6757813 0.4042969
vt 0.3371582 0.4794922
vt 0.3371582 0.5283203
vt 0.3371582 0.5283203
vt 0.6757813 0.3093262
vt 0.3371582 0.3093262
vt 0.6757813 0.546875
vt 0.6757813 0.6821289
vt 1.014648 0.5283203
vt 1.014648 0.3093262
vt 0.6757813 0.6821289
vt 1.014648 0.5283203
vt 0.3371582 0.5283203
vt 0.6757813 0.4042969
vt 0.6757813 0.3093262
vt 1.014648 0.5283203
vt 1.014648 0.3093262
vt 0.6757813 0.5478516
vt 0.3371582 0.3093262
vt 0.6757813 0.6821289
vt 0.3371582 0.5283203
vt 0.3371582 0.5283203
vt 0.6757813 0.3093262
vt 0.3371582 0.3093262
vt 0.6757813 0.5478516
vt 0.6757813 0.6821289
vt 1.014648 0.5283203
vt 1.014648 0.3093262
vt 0.03659058 0.3632813
vt 0.1043091 0.4238281
vt 0.1035767 0.3632813
vt 0.03588867 0.4238281
vt 0.07012939 0.5297852
vt 0.03662109 0.3632813
vt 0.1043091 0.4238281
vt 0.1035767 0.3632813
vt 0.03588867 0.4238281
vt 0.07012939 0.5297852
vt 0.03588867 0.4238281
vt 0.07012939 0.5297852
vt 0.1043091 0.4238281
vt 0.03662109 0.3632813
vt 0.1035767 0.3632813
vt 0.07012939 0.2893066
vt 0.03588867 0.4238281
vt 0.07012939 0.5297852
vt 0.1043091 0.4238281
vt 0.03659058 0.3632813
vt 0.1035767 0.3632813
vt 0.07012939 0.2893066
vt 0.03588867 0.4238281
vt 0.07012939 0.5297852
vt 0.1043091 0.4238281
vt 0.03662109 0.3632813
vt 0.1035767 0.3632813
vt 0.07012939 0.2893066
vt 0.03588867 0.4238281
vt 0.07012939 0.5297852
vt 0.1043091 0.4238281
vt 0.03662109 0.3632813
vt 0.1035767 0.3632813
vt 0.07012939 0.2893066
vt 0.4838867 0.008300781
vt 0.3046875 0.1279297
vt 0.5961914 0.1821289
vt 0.1185913 0.008018494
vt 0.3046875 0.2893066
vt 0.005153656 0.1816406
vt 0.4838867 0.008300781
vt 0.3046875 0.1279297
vt 0.5961914 0.1821289
vt 0.1185913 0.008018494
vt 0.3046875 0.2893066
vt 0.005153656 0.1816406
vt 0.9658203 0.2805176
vt 0.996582 0.2445068
vt 0.8847656 0.2958984
vt 0.9677734 0.2081299
vt 0.8920898 0.1917725
vt 0.8046875 0.279541
vt 0.7758789 0.2431641
vt 0.8066406 0.2071533
vt 0.8066406 0.2071533
vt 0.7758789 0.2431641
vt 0.8232422 0.2435303
vt 0.8046875 0.279541
vt 0.8398438 0.2230225
vt 0.8867188 0.2160645
vt 0.887207 0.1917725
vt 0.9677734 0.2081299
vt 0.8393555 0.2641602
vt 0.8857422 0.2717285
vt 0.8847656 0.2958984
vt 0.9658203 0.2805176
vt 0.8862305 0.2438965
vt 0.9492188 0.2442627
vt 0.9331055 0.2235107
vt 0.996582 0.2445068
vt 0.9321289 0.2646484
vn -0.2839355 0.6757813 0.6801758
vn -0.2839355 0.6757813 0.6801758
vn -0.2839355 0.6757813 0.6801758
vn -0.09832764 -0.4885254 -0.8671875
vn 0.4594727 -0.8745117 0.1541748
vn 0.9458008 0.2032471 -0.2541504
vn 0.9458008 0.2032471 -0.2541504
vn 0.4594727 -0.8745117 0.1541748
vn 0.3137207 0.09991455 0.9443359
vn -0.9536133 0.2536621 -0.1606445
vn -0.4226074 -0.8984375 -0.1194458
vn 0.07952881 -0.239624 -0.9677734
vn -0.8076172 0.5566406 -0.1945801
vn -0.9536133 0.2536621 -0.1606445
vn 0.2315674 -0.01577759 -0.9726563
vn 0.4504395 0.8925781 -0.005691528
vn 0.07952881 -0.239624 -0.9677734
vn -0.4226074 -0.8984375 -0.1194458
vn 0.7055664 -0.6743164 0.2192383
vn 0.7055664 -0.6743164 0.2192383
vn 0.2315674 -0.01577759 -0.9726563
vn 0.8984375 -0.3937988 0.1950684
vn 0.4504395 0.8925781 -0.005691528
vn -0.6386719 0.7001953 0.3188477
vn -0.6386719 0.7001953 0.3188477
vn -0.6386719 0.7001953 0.3188477
vn 0.2463379 0.6147461 0.7490234
vn 0.4799805 0.6113281 0.6289063
vn 0.3117676 0.5483398 0.7758789
vn 0.3469238 0.765625 0.5415039
vn 0.0158844 0.9824219 0.1859131
vn 0.5698242 0.7075195 0.418457
vn 0.6079102 0.6396484 0.470459
vn -0.1157837 0.9858398 0.1223145
vn -0.1593018 0.9726563 0.1682129
vn -0.1593018 0.9726563 0.1682129
vn -0.2421875 0.9360352 0.2558594
vn -0.765625 0.5742188 0.2902832
vn -0.6376953 0.6191406 0.4577637
vn -0.6923828 0.5585938 0.4567871
vn -0.6269531 0.7392578 0.246582
vn -0.8129883 0.5708008 0.1126099
vn -0.1074829 0.9912109 0.0793457
vn -0.7700195 0.6328125 0.08203125
vn 0.2325439 0.7978516 -0.5561523
vn 0.03720093 0.7788086 -0.6264648
vn 0.2197266 0.7617188 -0.6098633
vn 0.03527832 0.8769531 -0.4790039
vn 0.0214386 0.9975586 -0.06347656
vn -0.159668 0.8066406 -0.5688477
vn -0.1448975 0.7700195 -0.621582
vn 0.9458008 0.2032471 -0.2541504
vn -0.2563477 -0.2174072 -0.9418945
vn -0.09832764 -0.4885254 -0.8671875
vn 0.8076172 0.4934082 -0.3232422
vn -0.4892578 0.8569336 -0.1606445
vn 0.3137207 0.09991455 0.9443359
vn 0.8076172 0.4934082 -0.3232422
vn 0.9458008 0.2032471 -0.2541504
vn 0.1672363 0.3820801 0.9086914
vn -0.4892578 0.8569336 -0.1606445
vn -0.2563477 -0.2174072 -0.9418945
vn -0.4892578 0.8569336 -0.1606445
vn -0.9008789 -0.3212891 0.2915039
vn -0.09832764 -0.4885254 -0.8671875
vn -0.7270508 -0.5942383 0.3432617
vn 0.4594727 -0.8745117 0.1541748
vn -0.9008789 -0.3212891 0.2915039
vn -0.4892578 0.8569336 -0.1606445
vn 0.1672363 0.3820801 0.9086914
vn -0.7270508 -0.5942383 0.3432617
vn 0.3137207 0.09991455 0.9443359
vn 0.4594727 -0.8745117 0.1541748
vn -0.8076172 0.5566406 -0.1945801
vn 0.4504395 0.8925781 -0.005691528
vn -0.1252441 0.1728516 0.9770508
vn -0.9536133 0.2536621 -0.1606445
vn -0.3132324 -0.137085 0.9399414
vn -0.4226074 -0.8984375 -0.1194458
vn -0.1252441 0.1728516 0.9770508
vn 0.4504395 0.8925781 -0.005691528
vn 0.8984375 -0.3937988 0.1950684
vn -0.3132324 -0.137085 0.9399414
vn 0.7055664 -0.6743164 0.2192383
vn -0.4226074 -0.8984375 -0.1194458
vn 0.01576233 0.9760742 0.2161865
vn 0.5102539 0.8583984 0.05429077
vn 0.467041 0.6831055 0.5615234
vn 0.1929932 0.9165039 -0.3508301
vn 0.8662109 0.4819336 0.1314697
vn 0.6713867 0.6367188 -0.3793945
vn -0.824707 0.5410156 -0.1644287
vn -0.4597168 0.8793945 -0.1241455
vn -0.6064453 0.7246094 0.3271484
vn -0.4592285 0.6738281 -0.5791016
vn -0.1064453 0.9707031 0.2164307
vn -0.01546478 0.9389648 -0.3435059
vn 0 -1 0
vn 0 -1 0
vn 0 -1 0
vn 0 -1 0
vn 0 -1 0
vn 0 -1 0
vn 0 -1 0
vn 0 -1 0
vn -0.8637695 0.4558105 0.2156982
vn -0.7426758 0.4680176 -0.4787598
vn -0.6010742 0.6992188 -0.3874512
vn -0.1599121 0.4558105 -0.8754883
vn -0.8120117 0.5419922 0.2167969
vn -0.3974609 0.6796875 0.6162109
vn -0.4873047 0.4372559 0.7558594
vn 0.1599121 0.4558105 0.8754883
vn -0.1376953 0.5419922 -0.8291016
vn 0.3974609 0.6796875 -0.6162109
vn 0.4873047 0.4372559 -0.7558594
vn 0.8637695 0.4558105 -0.2156982
vn 0 1 0
vn 0.6010742 0.6992188 0.3874512
vn 0.1376953 0.5419922 0.8291016
vn 0.7426758 0.4680176 0.4787598
vn 0.8120117 0.5419922 -0.2167969
g s004v002_m_0
f 3/3/3 2/2/2 1/1/1
f 6/6/6 5/5/5 4/4/4
f 9/9/9 8/8/8 7/7/7
f 12/12/12 11/11/11 10/10/10
f 14/14/14 13/13/13 12/12/12
f 13/13/13 15/15/15 12/12/12
f 13/13/13 16/16/16 15/15/15
f 19/19/19 18/18/18 17/17/17
f 17/17/17 21/21/21 20/20/20
f 21/21/21 22/22/22 20/20/20
f 21/21/21 23/23/23 22/22/22
f 26/26/26 25/25/25 24/24/24
f 29/29/29 28/28/28 27/27/27
f 28/28/28 30/30/30 27/27/27
f 27/27/27 30/30/30 31/31/31
f 30/30/30 32/32/32 31/31/31
f 32/32/32 30/30/30 28/28/28
f 33/33/33 32/32/32 28/28/28
f 36/36/36 35/35/35 34/34/34
f 36/36/36 37/37/37 35/35/35
f 40/40/40 39/39/39 38/38/38
f 39/39/39 41/41/41 38/38/38
f 38/38/38 41/41/41 42/42/42
f 41/41/41 39/39/39 43/43/43
f 41/41/41 44/44/44 42/42/42
f 44/44/44 41/41/41 43/43/43
f 47/47/47 46/46/46 45/45/45
f 46/46/46 48/48/48 45/45/45
f 45/45/45 48/48/48 49/49/49
f 48/48/48 50/50/50 49/49/49
f 50/50/50 48/48/48 46/46/46
f 51/51/51 50/50/50 46/46/46
f 54/54/54 53/53/53 52/52/52
f 53/53/53 55/55/55 52/52/52
f 53/53/53 56/56/56 55/55/55
f 59/59/59 58/58/58 57/57/57
f 58/58/58 60/60/60 57/57/57
f 58/58/58 61/61/61 60/60/60
f 64/64/64 63/63/63 62/62/62
f 64/64/64 62/62/62 65/65/65
f 66/66/66 64/64/64 65/65/65
f 65/65/65 67/67/67 66/66/66
f 70/70/70 69/69/69 68/68/68
f 70/70/70 68/68/68 71/71/71
f 72/72/72 70/70/70 71/71/71
f 71/71/71 73/73/73 72/72/72
f 76/76/76 75/75/75 74/74/74
f 76/76/76 74/74/74 77/77/77
f 78/78/78 76/76/76 77/77/77
f 77/77/77 79/79/79 78/78/78
f 82/82/82 81/81/81 80/80/80
f 82/82/82 80/80/80 83/83/83
f 84/84/84 82/82/82 83/83/83
f 83/83/83 85/85/85 84/84/84
f 88/88/88 87/87/87 86/86/86
f 86/86/86 87/87/87 89/89/89
f 90/90/90 87/87/87 88/88/88
f 89/89/89 87/87/87 91/91/91
f 91/91/91 87/87/87 90/90/90
f 94/94/94 93/93/93 92/92/92
f 92/92/92 93/93/93 95/95/95
f 96/96/96 93/93/93 94/94/94
f 95/95/95 93/93/93 97/97/97
f 97/97/97 93/93/93 96/96/96
g s004v002_m_1
f 100/100/100 99/99/99 98/98/98
f 100/100/100 101/101/101 99/99/99
f 100/100/100 102/102/102 101/101/101
f 103/103/103 102/102/102 100/100/100
f 104/104/104 102/102/102 103/103/103
f 105/105/105 102/102/102 104/104/104
f 108/108/108 107/107/107 106/106/106
f 109/109/109 107/107/107 108/108/108
f 110/110/110 108/108/108 106/106/106
f 110/110/110 106/106/106 111/111/111
f 108/108/108 110/110/110 111/111/111
f 106/106/106 112/112/112 111/111/111
f 111/111/111 112/112/112 113/113/113
f 114/114/114 109/109/109 108/108/108
f 114/114/114 115/115/115 109/109/109
f 115/115/115 114/114/114 108/108/108
f 115/115/115 116/116/116 109/109/109
f 117/117/117 116/116/116 115/115/115
f 108/108/108 111/111/111 118/118/118
f 115/115/115 108/108/108 118/118/118
f 111/111/111 119/119/119 118/118/118
f 119/119/119 115/115/115 118/118/118
f 120/120/120 111/111/111 113/113/113
f 111/111/111 120/120/120 119/119/119
f 120/120/120 113/113/113 119/119/119
f 113/113/113 121/121/121 119/119/119
f 119/119/119 121/121/121 117/117/117
f 119/119/119 122/122/122 115/115/115
f 122/122/122 117/117/117 115/115/115
f 122/122/122 119/119/119 117/117/117
