g s004v003_h
v -0.1530184 0.1877508 -0.01820159
v 0.01549948 0 -0.04917669
v -0.009885821 0 0.00787282
v -0.1285987 0.1998272 -0.07756877
v -0.3716171 0.3904158 -0.1172862
v -0.4378451 0.3318535 -0.01195073
v -0.3316024 0.3759373 -0.2485389
v -0.5970427 0.4932515 -0.1989717
v -0.6975468 0.4324296 -0.09617746
v -0.5817871 0.478949 -0.3629904
v -0.8704963 0.4635313 -0.3269004
v 0.05078226 0.2450548 -0.1477588
v 0.03015509 0 -0.001656532
v -0.02799256 0 -0.04592419
v 0.1105283 0.2455192 -0.1028577
v 0.1957757 0.4908098 -0.2768824
v 0.09921188 0.4548344 -0.3833609
v 0.3240795 0.455135 -0.2107834
v 0.3368205 0.6490178 -0.461548
v 0.2509096 0.6191945 -0.6030424
v 0.5053831 0.6172272 -0.4134043
v 0.5347422 0.6773722 -0.7201355
v 0.04723635 0.2228622 0.1114938
v -0.0292687 0 -0.04654813
v 0.03995476 0 -0.02671099
v -0.0282005 0.2359374 0.08983207
v -0.02706669 0.4867904 0.3767457
v 0.08933291 0.4272809 0.4316127
v -0.167307 0.4734174 0.3570154
v -0.07338031 0.6080109 0.6123428
v 0.0456825 0.5482306 0.7026196
v -0.2431816 0.5972071 0.6228163
v -0.1620826 0.5969665 0.9120488
v 0.4807076 0.4900908 -0.294778
v 0.4092329 0.5023302 -0.1199098
v 0.1229396 0.4255504 -0.2594756
v 0.7989769 0.4072795 -0.0006114244
v 0.3596999 0.3832356 0.01223135
v 0.3716229 0.4043616 -0.05673504
v 0.2401396 0.3719415 0.0444994
v 0.09902903 0.2979737 -0.200938
v 0.5037968 0.3109033 0.2980962
v 0.1704195 0.2372587 0.1093047
v -0.4246796 0.3568213 -0.3169588
v -0.2744798 0.3861156 -0.3136363
v -0.2886117 0.320541 -0.05736792
v -0.2801171 0.3433693 -0.6426473
v -0.1490223 0.3051787 -0.3149723
v -0.3197443 0.3258783 0.1678264
v -0.4152204 0.4030157 0.07637548
v -0.2661776 0.3106824 -0.1222048
v -0.6303769 0.3946531 0.3288531
v -0.5313667 0.3690609 -0.0110842
v 0.1398255 0.1755577 0.3506896
v -0.01276875 0.2098775 0.2602124
v 0.123141 0.05848529 0.02273226
v -0.1804499 0.2589626 0.6107979
v -0.1575059 0.1287372 0.216346
v -0.2199571 0.5429749 0.4399295
v -0.2409939 0.5014442 0.2894435
v 0.01477896 0.4079401 0.3019583
v -0.5758742 0.5164763 0.3545737
v -0.271653 0.3712921 0.2137487
v 0.2491812 0.4440215 0.2873166
v 0.1638855 0.530959 0.3872159
v -0.05087064 0.395646 0.2877686
v 0.4548962 0.5802343 0.5589635
v 0.09816813 0.5094319 0.5244279
v 0.2451377 0.234238 0.1203086
v 0.2068057 0.3439183 0.2266772
v -0.05119328 0.2917089 0.1557541
v 0.5147983 0.2882704 0.3632667
v 0.1539176 0.3445471 0.3709397
v -0.2604102 0.3175058 0.2556398
v -0.2240296 0.3421637 0.1043725
v 0.03320225 0.2939977 0.1807358
v -0.5519027 0.274675 0.03686452
v -0.1911986 0.254329 -0.01735044
v 0.272021 0.1331009 -0.1984973
v 0.3247759 0.200451 -0.04174769
v 0.07026956 0.06440245 0.07868958
v 0.6813694 0.2257193 -0.2018695
v 0.406556 0.1434387 0.1036007
v 0.2097855 0.1700341 0.1417544
v -0.02569016 0 0.005944252
v 0.02009026 0 -0.04272437
v 0.1207119 0.1521163 0.2594345
v 0.3113337 0.10624 0.05472183
v 0.4149583 0.2581023 0.3125548
v 0.3390746 0.2368879 0.4723468
v 0.5501462 0.1889191 0.2402458
v 0.6435201 0.1978753 0.5383356
v -0.1413304 0.474688 -0.3193341
v -0.007309976 0.5809244 -0.3957196
v 0.1978562 0.4076309 -0.2141905
v -0.2640142 0.6016859 -0.7058202
v 0.1167131 0.5611733 -0.5284159
v -0.1587206 0.2928926 -0.06563389
v -0.110178 0.4160232 -0.1777279
v 0.162113 0.2908385 -0.1607579
v -0.4732412 0.3947281 -0.292128
v -0.08077204 0.4246897 -0.3441104
v -0.1112541 0.2086163 0.1583242
v -0.2138142 0.2996692 0.1159892
v -0.1688866 0.2132091 -0.1125069
v -0.3113593 0.296341 0.411442
v -0.3489755 0.2900818 0.08075738
v -0.1704144 0.2585079 -0.3317851
v -0.04297634 0.2425357 -0.2485176
v -0.205516 0.2353662 -0.03946567
v 0.1021862 0.1399164 -0.5287042
v 0.02840215 0.1297439 -0.1816195
v 0.1311277 -1.549721E-06 -0.3704129
v 0.02473898 -1.549721E-06 -0.2879596
v 0.2733215 -0.00135711 -0.3318387
v -0.001601417 -1.549721E-06 -0.1559628
v 0.09634884 -1.549721E-06 -0.04590505
v 0.3712716 -0.00135711 -0.2217812
v 0.3449314 -0.00135711 -0.0897842
v 0.2385425 -0.00135711 -0.007330716
v -0.1865008 -1.549721E-06 -0.359934
v -0.274405 -1.549721E-06 -0.3197675
v -0.1071667 -1.549721E-06 -0.3169096
v -0.07392751 -1.549721E-06 -0.2330042
v -0.1243073 -1.549721E-06 -0.1505277
v -0.2122112 -1.549721E-06 -0.110361
v -0.2915452 -1.549721E-06 -0.1533853
v -0.3247845 -1.549721E-06 -0.2372908
v -0.4047758 -1.549721E-06 0.2300155
v -0.3050351 -1.549721E-06 0.3810913
v -0.3500614 -1.549721E-06 0.07539719
v -0.2068623 -1.549721E-06 -0.004568756
v -0.04114992 -1.549721E-06 0.06831259
v 0.05859112 -1.549721E-06 0.2193882
v 0.003876252 -1.549721E-06 0.3740067
v -0.1393227 -1.549721E-06 0.4539728
v -0.2122112 -1.549721E-06 -0.110361
v -0.2915452 -1.549721E-06 -0.1533853
v -0.2684982 0.06276111 -0.1738258
v -0.3247845 -1.549721E-06 -0.2372908
v -0.2088785 0.04466796 -0.142713
v -0.1430695 0.06276111 -0.1716827
v -0.1243073 -1.549721E-06 -0.1505277
v -0.07392751 -1.549721E-06 -0.2330042
v -0.2922666 0.04466796 -0.236735
v -0.2556426 0.06276111 -0.2986124
v -0.274405 -1.549721E-06 -0.3197675
v -0.1865008 -1.549721E-06 -0.359934
v -0.1993561 0.08602373 -0.2351472
v -0.1302141 0.06276111 -0.2964693
v -0.1064461 0.04466796 -0.2335601
v -0.1071667 -1.549721E-06 -0.3169096
v -0.1898339 0.04466796 -0.3275822
v 0.1311277 -1.549721E-06 -0.3704129
v 0.2733215 -0.00135711 -0.3318387
v 0.2511997 0.0887172 -0.2960971
v 0.3712716 -0.00135711 -0.2217812
v 0.1450521 0.06924725 -0.3233468
v 0.184835 0.1303178 -0.1888722
v 0.0647631 0.07607058 -0.2631878
v 0.02473898 -1.549721E-06 -0.2879596
v -0.001601417 -1.549721E-06 -0.1559628
v 0.3229364 0.1033188 -0.2132494
v 0.3049071 0.1032894 -0.1145563
v 0.3449314 -0.00135711 -0.0897842
v 0.2385425 -0.00135711 -0.007330716
v 0.04673395 0.06924726 -0.1644946
v 0.1184707 0.08871719 -0.08164662
v 0.09634884 -1.549721E-06 -0.04590505
v 0.2246185 0.1033187 -0.05439705
v -0.1393227 -1.549721E-06 0.4539728
v -0.3050351 -1.549721E-06 0.3810913
v -0.2720496 0.1196252 0.341994
v -0.4047758 -1.549721E-06 0.2300155
v -0.148078 0.1223207 0.3945321
v -0.1730926 0.1598615 0.2247018
v -0.0403659 0.1224545 0.3366804
v 0.003876252 -1.549721E-06 0.3740067
v 0.05859112 -1.549721E-06 0.2193882
v -0.343659 0.09851707 0.2295734
v -0.3047681 0.09294032 0.1136588
v -0.3500614 -1.549721E-06 0.07539719
v -0.2068623 -1.549721E-06 -0.004568756
v -0.001475228 0.1223207 0.220766
v -0.07413559 0.1128492 0.1074097
v -0.04114992 -1.549721E-06 0.06831259
v -0.1970563 0.09851707 0.05580729
vt 0.1401367 0.5351563
vt 0.2017822 0.4177246
vt 0.1401367 0.4177246
vt 0.2017822 0.5351563
vt 0.1729736 0.6850586
vt 0.04385376 0.6850586
vt 0.2966309 0.6850586
vt 0.1723633 0.8222656
vt 0.03671265 0.8466797
vt 0.3166504 0.847168
vt 0.1729736 0.9760742
vt 0.1401367 0.5478516
vt 0.2017822 0.4177246
vt 0.1401367 0.4177246
vt 0.2017822 0.5478516
vt 0.1729736 0.6850586
vt 0.04385376 0.6850586
vt 0.2966309 0.6850586
vt 0.1723633 0.8222656
vt 0.03671265 0.8466797
vt 0.3166504 0.847168
vt 0.1729736 0.9760742
vt 0.1342773 0.5083008
vt 0.208374 0.3696289
vt 0.1342773 0.3696289
vt 0.208374 0.5083008
vt 0.1729736 0.6850586
vt 0.04385376 0.6850586
vt 0.2966309 0.6850586
vt 0.1723633 0.8222656
vt 0.03671265 0.8466797
vt 0.3166504 0.847168
vt 0.1729736 0.9760742
vt 0.3273926 0.7905273
vt 0.5073242 0.7905273
vt 0.5073242 0.6264648
vt 0.5073242 0.9975586
vt 0.6826172 0.7905273
vt 0.6577148 0.7905273
vt 0.8378906 0.7905273
vt 0.8378906 0.6264648
vt 0.8378906 0.9975586
vt 1.012695 0.7905273
vt 0.6577148 0.7905273
vt 0.8378906 0.7905273
vt 0.8378906 0.6264648
vt 0.8378906 0.9975586
vt 1.012695 0.7905273
vt 0.3273926 0.7905273
vt 0.5073242 0.7905273
vt 0.5073242 0.6264648
vt 0.5073242 0.9975586
vt 0.6826172 0.7905273
vt 0.3273926 0.7905273
vt 0.5073242 0.7905273
vt 0.5073242 0.6264648
vt 0.5073242 0.9975586
vt 0.6826172 0.7905273
vt 0.6577148 0.7905273
vt 0.8378906 0.7905273
vt 0.8378906 0.6264648
vt 0.8378906 0.9975586
vt 1.012695 0.7905273
vt 0.3273926 0.7905273
vt 0.5073242 0.7905273
vt 0.5073242 0.6264648
vt 0.5073242 0.9975586
vt 0.6826172 0.7905273
vt 0.6577148 0.7905273
vt 0.8378906 0.7905273
vt 0.8378906 0.6264648
vt 0.8378906 0.9975586
vt 1.012695 0.7905273
vt 0.3273926 0.7905273
vt 0.5073242 0.7905273
vt 0.5073242 0.6264648
vt 0.5073242 0.9975586
vt 0.6826172 0.7905273
vt 0.6577148 0.7905273
vt 0.8378906 0.7905273
vt 0.8378906 0.6264648
vt 0.8378906 0.9975586
vt 1.012695 0.7905273
vt 0.1729736 0.6850586
vt 0.2017822 0.5410156
vt 0.1401367 0.5415039
vt 0.2966309 0.6850586
vt 0.04385376 0.6850586
vt 0.1723633 0.8222656
vt 0.3166504 0.847168
vt 0.03671265 0.8466797
vt 0.1729736 0.9760742
vt 0.6577148 0.7905273
vt 0.8378906 0.7905273
vt 0.8378906 0.6264648
vt 0.8378906 0.9975586
vt 1.012695 0.7905273
vt 0.3273926 0.7905273
vt 0.5073242 0.7905273
vt 0.5073242 0.6264648
vt 0.5073242 0.9975586
vt 0.6826172 0.7905273
vt 0.6577148 0.7905273
vt 0.8378906 0.7905273
vt 0.8378906 0.6264648
vt 0.8378906 0.9975586
vt 1.012695 0.7905273
vt 0.3273926 0.7905273
vt 0.5073242 0.7905273
vt 0.5073242 0.6264648
vt 0.5073242 0.9975586
vt 0.6826172 0.7905273
vt 0.9658203 0.2805176
vt 0.996582 0.2445068
vt 0.887207 0.2958984
vt 0.9677734 0.2081299
vt 0.887207 0.1917725
vt 0.8046875 0.279541
vt 0.7758789 0.2431641
vt 0.8066406 0.2071533
vt 0.8046875 0.279541
vt 0.887207 0.2958984
vt 0.7758789 0.2431641
vt 0.8066406 0.2071533
vt 0.887207 0.1917725
vt 0.9677734 0.2081299
vt 0.996582 0.2445068
vt 0.9658203 0.2805176
vt 0.9208984 0.03192139
vt 0.7783203 0.002981186
vt 0.9726563 0.09661865
vt 0.9179688 0.1607666
vt 0.7783203 0.1879883
vt 0.6313477 0.1590576
vt 0.5795898 0.09436035
vt 0.6342773 0.03025818
vt 0.8066406 0.2071533
vt 0.7758789 0.2431641
vt 0.8276367 0.2435303
vt 0.8046875 0.279541
vt 0.8383789 0.2216797
vt 0.8867188 0.2171631
vt 0.887207 0.1917725
vt 0.9677734 0.2081299
vt 0.8378906 0.2653809
vt 0.8867188 0.2705078
vt 0.887207 0.2958984
vt 0.9658203 0.2805176
vt 0.8867188 0.2438965
vt 0.9453125 0.2441406
vt 0.9350586 0.22229
vt 0.996582 0.2445068
vt 0.9345703 0.2658691
vt 0.6313477 0.1590576
vt 0.7783203 0.1879883
vt 0.7783203 0.1448975
vt 0.9179688 0.1607666
vt 0.6923828 0.1315918
vt 0.7783203 0.09545898
vt 0.6640625 0.09484863
vt 0.5795898 0.09436035
vt 0.6342773 0.03025818
vt 0.8579102 0.1325684
vt 0.8876953 0.09613037
vt 0.9726563 0.09661865
vt 0.9208984 0.03192139
vt 0.6938477 0.05838013
vt 0.7783203 0.04605103
vt 0.7783203 0.002981186
vt 0.8598633 0.05932617
vt 0.9208984 0.03192139
vt 0.7783203 0.002981186
vt 0.7783203 0.04605103
vt 0.6342773 0.03025818
vt 0.8598633 0.05932617
vt 0.7783203 0.09545898
vt 0.8876953 0.09613037
vt 0.9726563 0.09661865
vt 0.9179688 0.1607666
vt 0.6938477 0.05838013
vt 0.6640625 0.09484863
vt 0.5795898 0.09436035
vt 0.6313477 0.1590576
vt 0.8579102 0.1325684
vt 0.7783203 0.1448975
vt 0.7783203 0.1879883
vt 0.6923828 0.1315918
vn 0.6074219 0.6708984 0.4257813
vn 0.7211914 0.5864258 0.3693848
vn 0.7211914 0.5864258 0.3693848
vn 0.6479492 0.6899414 0.3225098
vn 0.4130859 0.84375 0.3422852
vn 0.253418 0.7612305 0.5966797
vn 0.4992676 0.8652344 0.04275513
vn 0.09661865 0.972168 0.213623
vn -0.07012939 0.887207 0.4562988
vn 0.1636963 0.9838867 -0.07055664
vn -0.15271 0.9833984 0.09796143
vn -0.5507813 0.5390625 0.637207
vn -0.5351563 0.465332 0.7050781
vn -0.5351563 0.465332 0.7050781
vn -0.4663086 0.5400391 0.7006836
vn -0.4101563 0.7402344 0.5327148
vn -0.6245117 0.7172852 0.3083496
vn -0.1340332 0.7207031 0.6801758
vn -0.2091064 0.9350586 0.2868652
vn -0.411377 0.909668 0.05804443
vn 0.05395508 0.909668 0.4118652
vn -0.04171753 0.9960938 0.07727051
vn 0.3413086 0.6069336 -0.7177734
vn 0.2810059 0.4890137 -0.8256836
vn 0.2810059 0.4890137 -0.8256836
vn 0.2526855 0.6201172 -0.7426758
vn 0.2939453 0.8032227 -0.5180664
vn 0.5673828 0.722168 -0.3955078
vn -0.01186371 0.8266602 -0.5620117
vn 0.2158203 0.9584961 -0.1850586
vn 0.4790039 0.8764648 -0.05145264
vn -0.07495117 0.9750977 -0.2097168
vn 0.1390381 0.9873047 0.07751465
vn 0.05776978 0.9970703 -0.0461731
vn -0.08953857 0.9511719 0.2958984
vn -0.3371582 0.9233398 0.1838379
vn 0.1148071 0.925293 0.3620605
vn -0.2015381 0.7641602 0.612793
vn -0.1530762 0.9814453 0.1155396
vn -0.4313965 0.8413086 0.3251953
vn -0.5854492 0.8051758 0.09381104
vn -0.2773438 0.8276367 0.4875488
vn -0.6342773 0.5761719 0.5151367
vn -0.1920166 0.980957 0.02891541
vn 0.1834717 0.9824219 0.03994751
vn 0.1723633 0.9521484 0.2531738
vn 0.1791992 0.9750977 -0.1297607
vn 0.5419922 0.8398438 0.03430176
vn 0.4694824 0.8525391 0.2290039
vn 0.2095947 0.9775391 -0.01148987
vn 0.3408203 0.9238281 -0.1738281
vn 0.1043701 0.9873047 0.1216431
vn -0.09509277 0.9638672 -0.2480469
vn 0.3037109 0.9399414 -0.1558838
vn -0.0031147 0.9458008 -0.3242188
vn 0.09832764 0.8637695 -0.4943848
vn -0.06884766 0.9829102 -0.1705322
vn -0.331543 0.8320313 -0.4450684
vn 0.1425781 0.9487305 -0.2817383
vn 0.0881958 0.7836914 -0.6147461
vn 0.296875 0.7294922 -0.6162109
vn -0.07818604 0.8051758 -0.5878906
vn 0.008575439 0.5009766 -0.8652344
vn 0.05960083 0.777832 -0.6259766
vn -0.1485596 0.9248047 -0.3500977
vn -0.322998 0.8369141 -0.4416504
vn -0.002288818 0.9624023 -0.2722168
vn -0.3310547 0.9433594 -0.01057434
vn 0.2496338 0.7177734 -0.6499023
vn 0.1375732 0.9238281 -0.3569336
vn -0.06561279 0.9023438 -0.4257813
vn 0.2956543 0.9077148 -0.296875
vn 0.01269531 1 0.0002965927
vn -0.07452393 0.9868164 0.1429443
vn 0.02085876 0.9750977 -0.2202148
vn 0.227417 0.9604492 -0.1604004
vn -0.1446533 0.956543 -0.253418
vn 0.1049194 0.8198242 -0.5629883
vn -0.3510742 0.8974609 -0.267334
vn -0.2254639 0.972168 0.06634521
vn -0.409668 0.8999023 0.1506348
vn -0.07263184 0.9975586 -0.00434494
vn -0.05554199 0.918457 0.3916016
vn -0.211792 0.8945313 -0.3933105
vn -0.4311523 0.8466797 -0.3125
vn -0.2700195 0.8300781 -0.4875488
vn -0.395752 0.9067383 -0.1442871
vn 0.02593994 0.8115234 -0.5839844
vn 0.03875732 0.984375 -0.1710205
vn -0.1192627 0.9902344 0.07476807
vn 0.2722168 0.8964844 -0.3491211
vn 0.2347412 0.9716797 0.02159119
vn -0.2929688 0.7734375 0.5620117
vn -0.006381989 0.9262695 0.3764648
vn 0.1815186 0.8056641 0.5639648
vn -0.1654053 0.965332 0.2015381
vn 0.2675781 0.9575195 0.1075439
vn -0.05343628 0.6835938 0.7280273
vn 0.05889893 0.8955078 0.4416504
vn 0.3410645 0.8071289 0.4819336
vn -0.1743164 0.9067383 0.3842773
vn 0.1308594 0.9887695 0.074646
vn 0.6479492 0.7592773 0.06262207
vn 0.3400879 0.9389648 -0.0553894
vn 0.3913574 0.8837891 -0.2573242
vn 0.2949219 0.9492188 0.1080322
vn -0.02886963 0.9868164 -0.1578369
vn 0.1791992 0.9799805 -0.08630371
vn 0.4709473 0.8730469 0.1246338
vn 0.3449707 0.8896484 0.2988281
vn 0.550293 0.8349609 -0.02070618
vn 0.7070313 0.6337891 0.3137207
vn -0.007061005 -1 -0.009109497
vn -0.005809784 -1 -0.00201416
vn -0.00371933 -1 0.001497269
vn -0.003831863 -1 0.00171566
vn -0.00371933 -1 0.001497269
vn -0.003831863 -1 0.00171566
vn -0.005809784 -1 -0.00201416
vn -0.007061005 -1 -0.009109497
vn 0 -1 0
vn 0 -1 0
vn 0 -1 0
vn 0 -1 0
vn 0 -1 0
vn 0 -1 0
vn 0 -1 0
vn 0 -1 0
vn 0 -1 0
vn 0 -1 0
vn 0 -1 0
vn 0 -1 0
vn 0 -1 0
vn 0 -1 0
vn 0 -1 0
vn 0 -1 0
vn -0.02519226 0.5 0.8657227
vn -0.6411133 0.5151367 0.5688477
vn -0.5078125 0.734375 0.4504395
vn -0.8623047 0.5 -0.07836914
vn -0.009033203 0.5820313 0.8129883
vn 0.4633789 0.7158203 0.5224609
vn 0.5810547 0.4829102 0.6552734
vn 0.8623047 0.5 0.07836914
vn -0.8085938 0.5820313 -0.0881958
vn -0.4633789 0.7158203 -0.5224609
vn -0.5810547 0.4829102 -0.6552734
vn 0.02519226 0.5 -0.8657227
vn 0 1 0
vn 0.5078125 0.734375 -0.4504395
vn 0.8085938 0.5820313 0.0881958
vn 0.6411133 0.5151367 -0.5688477
vn 0.009033203 0.5820313 -0.8129883
vn -0.1530762 0.527832 -0.8354492
vn 0.4758301 0.4367676 -0.7631836
vn 0.378418 0.6333008 -0.6748047
vn 0.8701172 0.4296875 -0.2410889
vn -0.1307373 0.6655273 -0.7348633
vn -0.1068115 0.9921875 -0.06610107
vn -0.5913086 0.71875 -0.3657227
vn -0.7075195 0.5546875 -0.4379883
vn -0.815918 0.5292969 0.2313232
vn 0.7407227 0.6308594 -0.2299805
vn 0.6640625 0.6245117 0.4111328
vn 0.7729492 0.4174805 0.4782715
vn 0.1762695 0.4306641 0.8852539
vn -0.7158203 0.6665039 0.208252
vn -0.4343262 0.6362305 0.6376953
vn -0.4702148 0.4399414 0.7651367
vn 0.1264648 0.6318359 0.7646484
vn 0.03411865 0.4335938 0.9003906
vn -0.5864258 0.4162598 0.6948242
vn -0.5146484 0.6308594 0.5805664
vn -0.8579102 0.5004883 0.114563
vn 0.01152802 0.625 0.7807617
vn -0.05819702 0.9960938 -0.06402588
vn 0.5883789 0.6376953 0.496582
vn 0.6879883 0.4350586 0.5805664
vn 0.8911133 0.439209 -0.1158447
vn -0.7485352 0.6552734 0.1020508
vn -0.5541992 0.6884766 -0.4675293
vn -0.6469727 0.5327148 -0.5458984
vn -0.03323364 0.5073242 -0.8608398
vn 0.7646484 0.6333008 -0.1211548
vn 0.4873047 0.6274414 -0.6074219
vn 0.5834961 0.425293 -0.6918945
vn -0.02311707 0.6640625 -0.7475586
g s004v003_h_0
f 3/3/3 2/2/2 1/1/1
f 2/2/2 4/4/4 1/1/1
f 1/1/1 4/4/4 5/5/5
f 6/6/6 1/1/1 5/5/5
f 4/4/4 7/7/7 5/5/5
f 6/6/6 5/5/5 8/8/8
f 8/8/8 5/5/5 7/7/7
f 9/9/9 6/6/6 8/8/8
f 10/10/10 8/8/8 7/7/7
f 8/8/8 11/11/11 9/9/9
f 11/11/11 8/8/8 10/10/10
f 14/14/14 13/13/13 12/12/12
f 13/13/13 15/15/15 12/12/12
f 12/12/12 15/15/15 16/16/16
f 17/17/17 12/12/12 16/16/16
f 15/15/15 18/18/18 16/16/16
f 17/17/17 16/16/16 19/19/19
f 19/19/19 16/16/16 18/18/18
f 20/20/20 17/17/17 19/19/19
f 21/21/21 19/19/19 18/18/18
f 19/19/19 22/22/22 20/20/20
f 22/22/22 19/19/19 21/21/21
f 25/25/25 24/24/24 23/23/23
f 24/24/24 26/26/26 23/23/23
f 23/23/23 26/26/26 27/27/27
f 28/28/28 23/23/23 27/27/27
f 26/26/26 29/29/29 27/27/27
f 28/28/28 27/27/27 30/30/30
f 30/30/30 27/27/27 29/29/29
f 31/31/31 28/28/28 30/30/30
f 32/32/32 30/30/30 29/29/29
f 30/30/30 33/33/33 31/31/31
f 33/33/33 30/30/30 32/32/32
f 36/36/36 35/35/35 34/34/34
f 35/35/35 37/37/37 34/34/34
f 38/38/38 35/35/35 36/36/36
f 38/38/38 37/37/37 35/35/35
f 41/41/41 40/40/40 39/39/39
f 40/40/40 42/42/42 39/39/39
f 43/43/43 40/40/40 41/41/41
f 43/43/43 42/42/42 40/40/40
f 46/46/46 45/45/45 44/44/44
f 45/45/45 47/47/47 44/44/44
f 48/48/48 45/45/45 46/46/46
f 48/48/48 47/47/47 45/45/45
f 51/51/51 50/50/50 49/49/49
f 50/50/50 52/52/52 49/49/49
f 53/53/53 50/50/50 51/51/51
f 53/53/53 52/52/52 50/50/50
f 56/56/56 55/55/55 54/54/54
f 55/55/55 57/57/57 54/54/54
f 58/58/58 55/55/55 56/56/56
f 58/58/58 57/57/57 55/55/55
f 61/61/61 60/60/60 59/59/59
f 60/60/60 62/62/62 59/59/59
f 63/63/63 60/60/60 61/61/61
f 63/63/63 62/62/62 60/60/60
f 66/66/66 65/65/65 64/64/64
f 65/65/65 67/67/67 64/64/64
f 68/68/68 65/65/65 66/66/66
f 68/68/68 67/67/67 65/65/65
f 71/71/71 70/70/70 69/69/69
f 70/70/70 72/72/72 69/69/69
f 73/73/73 70/70/70 71/71/71
f 73/73/73 72/72/72 70/70/70
f 76/76/76 75/75/75 74/74/74
f 75/75/75 77/77/77 74/74/74
f 78/78/78 75/75/75 76/76/76
f 78/78/78 77/77/77 75/75/75
f 81/81/81 80/80/80 79/79/79
f 80/80/80 82/82/82 79/79/79
f 83/83/83 80/80/80 81/81/81
f 83/83/83 82/82/82 80/80/80
f 86/86/86 85/85/85 84/84/84
f 85/85/85 87/87/87 84/84/84
f 88/88/88 86/86/86 84/84/84
f 89/89/89 84/84/84 87/87/87
f 88/88/88 84/84/84 89/89/89
f 90/90/90 89/89/89 87/87/87
f 91/91/91 88/88/88 89/89/89
f 92/92/92 89/89/89 90/90/90
f 89/89/89 92/92/92 91/91/91
f 95/95/95 94/94/94 93/93/93
f 94/94/94 96/96/96 93/93/93
f 97/97/97 94/94/94 95/95/95
f 97/97/97 96/96/96 94/94/94
f 100/100/100 99/99/99 98/98/98
f 99/99/99 101/101/101 98/98/98
f 102/102/102 99/99/99 100/100/100
f 102/102/102 101/101/101 99/99/99
f 105/105/105 104/104/104 103/103/103
f 104/104/104 106/106/106 103/103/103
f 107/107/107 104/104/104 105/105/105
f 107/107/107 106/106/106 104/104/104
f 110/110/110 109/109/109 108/108/108
f 109/109/109 111/111/111 108/108/108
f 112/112/112 109/109/109 110/110/110
f 112/112/112 111/111/111 109/109/109
g s004v003_h_1
f 115/115/115 114/114/114 113/113/113
f 115/115/115 116/116/116 114/114/114
f 115/115/115 117/117/117 116/116/116
f 118/118/118 117/117/117 115/115/115
f 119/119/119 117/117/117 118/118/118
f 120/120/120 117/117/117 119/119/119
f 123/123/123 122/122/122 121/121/121
f 124/124/124 122/122/122 123/123/123
f 125/125/125 122/122/122 124/124/124
f 126/126/126 122/122/122 125/125/125
f 127/127/127 122/122/122 126/126/126
f 128/128/128 122/122/122 127/127/127
f 131/131/131 130/130/130 129/129/129
f 132/132/132 130/130/130 131/131/131
f 133/133/133 130/130/130 132/132/132
f 134/134/134 130/130/130 133/133/133
f 135/135/135 130/130/130 134/134/134
f 136/136/136 130/130/130 135/135/135
f 139/139/139 138/138/138 137/137/137
f 140/140/140 138/138/138 139/139/139
f 141/141/141 139/139/139 137/137/137
f 141/141/141 137/137/137 142/142/142
f 139/139/139 141/141/141 142/142/142
f 137/137/137 143/143/143 142/142/142
f 142/142/142 143/143/143 144/144/144
f 145/145/145 140/140/140 139/139/139
f 145/145/145 146/146/146 140/140/140
f 146/146/146 145/145/145 139/139/139
f 146/146/146 147/147/147 140/140/140
f 148/148/148 147/147/147 146/146/146
f 139/139/139 142/142/142 149/149/149
f 146/146/146 139/139/139 149/149/149
f 142/142/142 150/150/150 149/149/149
f 150/150/150 146/146/146 149/149/149
f 151/151/151 142/142/142 144/144/144
f 142/142/142 151/151/151 150/150/150
f 151/151/151 144/144/144 150/150/150
f 144/144/144 152/152/152 150/150/150
f 150/150/150 152/152/152 148/148/148
f 150/150/150 153/153/153 146/146/146
f 153/153/153 148/148/148 146/146/146
f 153/153/153 150/150/150 148/148/148
f 156/156/156 155/155/155 154/154/154
f 157/157/157 155/155/155 156/156/156
f 158/158/158 156/156/156 154/154/154
f 158/158/158 159/159/159 156/156/156
f 158/158/158 154/154/154 160/160/160
f 158/158/158 160/160/160 159/159/159
f 154/154/154 161/161/161 160/160/160
f 160/160/160 161/161/161 162/162/162
f 163/163/163 157/157/157 156/156/156
f 163/163/163 156/156/156 159/159/159
f 163/163/163 164/164/164 157/157/157
f 163/163/163 159/159/159 164/164/164
f 164/164/164 165/165/165 157/157/157
f 166/166/166 165/165/165 164/164/164
f 167/167/167 160/160/160 162/162/162
f 167/167/167 159/159/159 160/160/160
f 167/167/167 162/162/162 168/168/168
f 167/167/167 168/168/168 159/159/159
f 162/162/162 169/169/169 168/168/168
f 168/168/168 169/169/169 166/166/166
f 170/170/170 164/164/164 159/159/159
f 170/170/170 166/166/166 164/164/164
f 170/170/170 159/159/159 168/168/168
f 170/170/170 168/168/168 166/166/166
f 173/173/173 172/172/172 171/171/171
f 174/174/174 172/172/172 173/173/173
f 175/175/175 173/173/173 171/171/171
f 175/175/175 176/176/176 173/173/173
f 175/175/175 171/171/171 177/177/177
f 175/175/175 177/177/177 176/176/176
f 171/171/171 178/178/178 177/177/177
f 177/177/177 178/178/178 179/179/179
f 180/180/180 174/174/174 173/173/173
f 180/180/180 173/173/173 176/176/176
f 180/180/180 181/181/181 174/174/174
f 180/180/180 176/176/176 181/181/181
f 181/181/181 182/182/182 174/174/174
f 183/183/183 182/182/182 181/181/181
f 184/184/184 177/177/177 179/179/179
f 184/184/184 176/176/176 177/177/177
f 184/184/184 179/179/179 185/185/185
f 184/184/184 185/185/185 176/176/176
f 179/179/179 186/186/186 185/185/185
f 185/185/185 186/186/186 183/183/183
f 187/187/187 181/181/181 176/176/176
f 187/187/187 183/183/183 181/181/181
f 187/187/187 176/176/176 185/185/185
f 187/187/187 185/185/185 183/183/183
