g s006v001_m
v -0.01720619 0.2357349 0.007679183
v -0.02245712 0 0.008861132
v -0.008859634 3.72529E-09 -0.02245464
v -0.006401062 0.2360607 -0.01720507
v -0.02693272 0.429665 0.01675135
v 0.02245712 3.72529E-09 -0.008860612
v -0.01915359 0.432738 -0.001580853
v -0.08161776 0.581858 -0.002096654
v 0.01848507 0.2357349 -0.006402619
v 0.008859158 0 0.0224544
v -0.0009183884 0.435327 0.006591044
v 0.007678986 0.2354091 0.01848116
v -0.02245712 0 0.008861132
v -0.01720619 0.2357349 0.007679183
v -0.008696556 0.4322541 0.02492293
v -0.02693272 0.429665 0.01675135
v 0.02245712 3.72529E-09 -0.008860612
v -0.008859634 3.72529E-09 -0.02245464
v -0.02245712 0 0.008861132
v 0.008859158 0 0.0224544
v -0.01407814 0.6250666 -0.06493209
v -0.00869751 0.432254 0.02492261
v -0.1497693 0.5884731 0.05612712
v -0.2582865 0.7974435 -0.1444456
v -0.1685224 0.4769008 -0.0013677
v 0.002779961 0.3513054 0.01131556
v -0.09655762 0.4552059 0.1682112
v -0.3977242 0.5168507 0.2024577
v 0.1075163 0.5377187 0.1154638
v -0.01219702 0.3909118 0.01853016
v 0.1051452 0.5448434 -0.06987422
v 0.3745294 0.6643273 0.02409463
v -0.0566206 0.2578532 0.2289879
v 6.771088E-05 0.1906169 -0.003290132
v 0.1292934 0.3364749 0.1507016
v 0.162405 0.3175564 0.5097132
v -0.1140499 0.3778011 -0.1061165
v -0.003936768 0.2038008 -0.0009262699
v -0.2210693 0.2764426 0.03136218
v -0.4381495 0.4042395 -0.19116
v -0.104207 0.1231583 0.1176126
v -0.01170254 0.10111 0.001726396
v 0.00182724 0.1994509 0.1140603
v -0.05739021 0.1795602 0.3228242
v 0.08226681 0.1558145 -0.09482365
v 0.002896547 0.08999081 0.01399025
v -0.04661274 0.1772591 -0.09739202
v 0.02666616 0.1950209 -0.3018405
v 0.2223473 0.3746382 -0.05564749
v 0.003215075 0.2839733 0.01816592
v 0.04755306 0.4654343 -0.1455213
v 0.3202929 0.500857 -0.3794047
vt 0.8911133 0.1519775
vt 0.8911133 0.005516052
vt 0.8720703 0.005516052
vt 0.8720703 0.1513672
vt 0.8911133 0.3146973
vt 0.8535156 0.005516052
vt 0.8720703 0.314209
vt 0.8535156 0.4733887
vt 0.8535156 0.1506348
vt 0.8339844 0.005516052
vt 0.8535156 0.3134766
vt 0.8339844 0.1512451
vt 0.8149414 0.005516052
vt 0.8149414 0.1519775
vt 0.8339844 0.3129883
vt 0.8149414 0.3146973
vt 0.8696289 0.05661011
vt 0.840332 0.05596924
vt 0.8408203 0.02648926
vt 0.8701172 0.02714539
vt 0.6230469 0.3481445
vt 0.5019531 0.1046143
vt 0.3808594 0.3481445
vt 0.5019531 0.7119141
vt 0.6230469 0.3481445
vt 0.5019531 0.1046143
vt 0.3808594 0.3481445
vt 0.5019531 0.7119141
vt 0.6230469 0.3481445
vt 0.5019531 0.1046143
vt 0.3808594 0.3481445
vt 0.5019531 0.7119141
vt 0.6230469 0.3481445
vt 0.5019531 0.1046143
vt 0.3808594 0.3481445
vt 0.5019531 0.7119141
vt 0.6230469 0.3481445
vt 0.5019531 0.1046143
vt 0.3808594 0.3481445
vt 0.5019531 0.7119141
vt 0.6230469 0.3481445
vt 0.5019531 0.1046143
vt 0.3808594 0.3481445
vt 0.5019531 0.7119141
vt 0.6230469 0.3481445
vt 0.5019531 0.1046143
vt 0.3808594 0.3481445
vt 0.5019531 0.7119141
vt 0.6230469 0.3481445
vt 0.5019531 0.1046143
vt 0.3808594 0.3481445
vt 0.5019531 0.7119141
vn -0.9321289 -0.01159668 0.3615723
vn -0.9306641 0.02255249 0.3649902
vn -0.3676758 0.02452087 -0.9296875
vn -0.3496094 0.03601074 -0.9360352
vn -0.9135742 -0.1119385 0.3903809
vn 0.9291992 0.01950073 -0.3688965
vn -0.3041992 0.009086609 -0.9526367
vn -0.298584 0.9541016 0.006565094
vn 0.9272461 0.05541992 -0.3708496
vn 0.3662109 0.01751709 0.9301758
vn 0.9233398 0.2021484 -0.3259277
vn 0.3842773 0.01245117 0.9233398
vn -0.9306641 0.02255249 0.3649902
vn -0.9321289 -0.01159668 0.3615723
vn 0.4086914 0.08282471 0.9086914
vn -0.9135742 -0.1119385 0.3903809
vn 0 -1 0
vn 0 -1 0
vn 0 -1 0
vn 0 -1 0
vn 0.425293 0.6162109 0.6630859
vn 0.5644531 0.3615723 0.7421875
vn 0.425293 0.6162109 0.6630859
vn 0.328125 0.7373047 0.5908203
vn 0.3549805 0.9345703 -0.03108215
vn 0.5917969 0.7919922 -0.1497803
vn 0.3549805 0.9345703 -0.03108215
vn 0.2045898 0.9780273 0.03833008
vn -0.565918 0.8237305 0.03890991
vn -0.7851563 0.6181641 0.03381348
vn -0.565918 0.8237305 0.03890991
vn -0.416748 0.9082031 0.04025269
vn -0.4157715 0.90625 -0.07763672
vn -0.486084 0.8007813 -0.3503418
vn -0.4157715 0.90625 -0.07763672
vn -0.3586426 0.9296875 0.08209229
vn 0.06799316 0.7768555 0.6259766
vn 0.3161621 0.6293945 0.7099609
vn 0.06799316 0.7768555 0.6259766
vn -0.07714844 0.8300781 0.5522461
vn -0.5698242 0.7802734 -0.2573242
vn -0.5058594 0.6782227 -0.5327148
vn -0.5698242 0.7802734 -0.2573242
vn -0.5834961 0.8071289 -0.08868408
vn 0.1501465 0.9389648 0.3088379
vn 0.1227417 0.8071289 0.5776367
vn 0.1501465 0.9389648 0.3088379
vn 0.159668 0.9770508 0.1420898
vn 0.1467285 0.8242188 0.5473633
vn -0.02989197 0.6733398 0.7387695
vn 0.1467285 0.8242188 0.5473633
vn 0.2420654 0.8769531 0.4150391
g s006v001_m_0
f 3/3/3 2/2/2 1/1/1
f 4/4/4 3/3/3 1/1/1
f 4/4/4 1/1/1 5/5/5
f 3/3/3 4/4/4 6/6/6
f 7/7/7 4/4/4 5/5/5
f 8/8/8 7/7/7 5/5/5
f 4/4/4 9/9/9 6/6/6
f 4/4/4 7/7/7 9/9/9
f 6/6/6 9/9/9 10/10/10
f 11/11/11 7/7/7 8/8/8
f 7/7/7 11/11/11 9/9/9
f 9/9/9 12/12/12 10/10/10
f 9/9/9 11/11/11 12/12/12
f 10/10/10 12/12/12 13/13/13
f 12/12/12 14/14/14 13/13/13
f 15/15/15 11/11/11 8/8/8
f 11/11/11 15/15/15 12/12/12
f 12/12/12 15/15/15 14/14/14
f 16/16/16 15/15/15 8/8/8
f 15/15/15 16/16/16 14/14/14
f 19/19/19 18/18/18 17/17/17
f 20/20/20 19/19/19 17/17/17
g s006v001_m_1
f 23/23/23 22/22/22 21/21/21
f 24/24/24 23/23/23 21/21/21
f 27/27/27 26/26/26 25/25/25
f 28/28/28 27/27/27 25/25/25
f 31/31/31 30/30/30 29/29/29
f 32/32/32 31/31/31 29/29/29
f 35/35/35 34/34/34 33/33/33
f 36/36/36 35/35/35 33/33/33
f 39/39/39 38/38/38 37/37/37
f 40/40/40 39/39/39 37/37/37
f 43/43/43 42/42/42 41/41/41
f 44/44/44 43/43/43 41/41/41
f 47/47/47 46/46/46 45/45/45
f 48/48/48 47/47/47 45/45/45
f 51/51/51 50/50/50 49/49/49
f 52/52/52 51/51/51 49/49/49
