g t005v001_l
v 0.4576988 0 0.001318234
v 1.907349E-06 0 -0.4506917
v -5.722046E-06 0 0.4536858
v -5.722046E-06 0 0.4536858
v 1.907349E-06 0 -0.4506917
v -0.4576988 0 0.001318234
v 0.3872529 0.3980876 3.917202E-19
v 6.67572E-06 0.3980876 -0.3825858
v 5.722046E-06 0.3960813 -0.4766285
v 0.4824409 0.3960813 4.880061E-19
v 6.67572E-06 0.3980876 -0.3825858
v -0.3872527 0.3980876 -3.9172E-19
v -0.4824409 0.3960813 -4.880061E-19
v 5.722046E-06 0.3960813 -0.4766285
v 5.722046E-06 0.3960813 -0.4766285
v 1.907349E-06 0 -0.4506917
v 0.4576988 0 0.001318234
v 0.4824409 0.3960813 4.880061E-19
v -0.4824409 0.3960813 -4.880061E-19
v -0.4576988 0 0.001318234
v 1.907349E-06 0 -0.4506917
v 5.722046E-06 0.3960813 -0.4766285
v 0.3673916 0.0719552 -3.832075E-06
v -9.76627E-18 0.0719552 -0.3629721
v 6.67572E-06 0.3980876 -0.3825858
v 0.3872529 0.3980876 3.917202E-19
v -3.814697E-06 0.0719552 0.3629677
v -6.67572E-06 0.3980876 0.3825858
v -9.76627E-18 0.0719552 -0.3629721
v -0.3872527 0.3980876 -3.9172E-19
v 6.67572E-06 0.3980876 -0.3825858
v -0.3673935 0.0719552 -3.832075E-06
v -6.67572E-06 0.3980876 0.3825858
v -3.814697E-06 0.0719552 0.3629677
v -0.3872527 0.3980876 -3.9172E-19
v -6.67572E-06 0.3980876 0.3825858
v -5.722046E-06 0.3960813 0.4766285
v -0.4824409 0.3960813 -4.880061E-19
v -6.67572E-06 0.3980876 0.3825858
v 0.3872529 0.3980876 3.917202E-19
v 0.4824409 0.3960813 4.880061E-19
v -5.722046E-06 0.3960813 0.4766285
v -5.722046E-06 0.3960813 0.4766285
v -5.722046E-06 0 0.4536858
v -0.4576988 0 0.001318234
v -0.4824409 0.3960813 -4.880061E-19
v 0.4824409 0.3960813 4.880061E-19
v 0.4576988 0 0.001318234
v -5.722046E-06 0 0.4536858
v -5.722046E-06 0.3960813 0.4766285
v -0.3673935 0.0719552 -3.832075E-06
v -9.76627E-18 0.0719552 -0.3629721
v -3.814697E-06 0.0719552 0.3629677
v 0.3673916 0.0719552 -3.832075E-06
vt 0.3205566 0.7773438
vt 0.5019531 0.9628906
vt 0.5019531 0.5810547
vt 0.5019531 0.9628906
vt 0.5019531 0.5820313
vt 0.3205566 0.7773438
vt 0.1444092 0.5356445
vt 0.4001465 0.5356445
vt 0.4143066 0.4829102
vt 0.130249 0.4829102
vt 0.7143555 0.5356445
vt 0.9731445 0.5356445
vt 0.9873047 0.4829102
vt 0.7001953 0.4829102
vt 0.4143066 0.4614258
vt 0.4143066 0.2316895
vt 0.130249 0.2316895
vt 0.130249 0.4614258
vt 0.9873047 0.4614258
vt 0.9873047 0.2316895
vt 0.7001953 0.2316895
vt 0.7001953 0.4614258
vt 0.6430664 0.01419067
vt 0.4125977 0.01419067
vt 0.4125977 0.203125
vt 0.6430664 0.203125
vt 0.8710938 0.01419067
vt 0.8710938 0.203125
vt 0.8710938 0.01419067
vt 0.6430664 0.203125
vt 0.8710938 0.203125
vt 0.6430664 0.01419067
vt 0.4125977 0.203125
vt 0.4125977 0.01419067
vt 0.1444092 0.5356445
vt 0.4001465 0.5356445
vt 0.4143066 0.4829102
vt 0.130249 0.4829102
vt 0.7143555 0.5356445
vt 0.9731445 0.5356445
vt 0.9873047 0.4829102
vt 0.7001953 0.4829102
vt 0.4143066 0.4614258
vt 0.4143066 0.2316895
vt 0.130249 0.2316895
vt 0.130249 0.4614258
vt 0.9873047 0.4614258
vt 0.9873047 0.2316895
vt 0.7001953 0.2316895
vt 0.7001953 0.4614258
vt 0.5551758 0.7739258
vt 0.7695313 0.9580078
vt 0.7695313 0.5898438
vt 0.9799805 0.7739258
vn 0 -1 0
vn 0 -1 0
vn 0 -1 0
vn 0 -1 0
vn 0 -1 0
vn 0 -1 0
vn 0.02107239 1 -0.005645752
vn 0.01542664 1 -0.01542664
vn 0.01542664 1 -0.01542664
vn 0.02107239 1 -0.005645752
vn -0.005645752 1 -0.02107239
vn -0.02107239 1 -0.005645752
vn -0.02107239 1 -0.005645752
vn -0.005645752 1 -0.02107239
vn 0.4987793 -0.06518555 -0.8642578
vn 0.4992676 -0.06518555 -0.8642578
vn 0.9980469 -0.06234741 0.0005545616
vn 0.9980469 -0.06234741 -0.0005335808
vn -0.9980469 -0.06234741 -0.0005674362
vn -0.9980469 -0.06234741 0.0005202293
vn 0.4992676 -0.06518555 -0.8642578
vn 0.4987793 -0.06518555 -0.8642578
vn -0.9980469 0.06079102 -2.348423E-05
vn -0.4990234 0.06079102 0.8642578
vn -0.4990234 0.06079102 0.8642578
vn -0.9980469 0.06079102 -2.688169E-05
vn 0.4990234 0.06079102 -0.8642578
vn 0.4990234 0.06079102 -0.8642578
vn -0.4990234 0.06079102 0.8642578
vn 0.9980469 0.06079102 2.0504E-05
vn -0.4990234 0.06079102 0.8642578
vn 0.9980469 0.06079102 2.479553E-05
vn 0.4990234 0.06079102 -0.8642578
vn 0.4990234 0.06079102 -0.8642578
vn -0.02107239 1 0.005645752
vn -0.01542664 1 0.01542664
vn -0.01542664 1 0.01542664
vn -0.02107239 1 0.005645752
vn 0.005645752 1 0.02107239
vn 0.02107239 1 0.005645752
vn 0.02107239 1 0.005645752
vn 0.005645752 1 0.02107239
vn -0.4992676 -0.05947876 0.8642578
vn -0.4987793 -0.05947876 0.8647461
vn -0.9980469 -0.06234741 0.0005202293
vn -0.9980469 -0.06234741 -0.0005674362
vn 0.9980469 -0.06234741 -0.0005335808
vn 0.9980469 -0.06234741 0.0005545616
vn -0.4987793 -0.05947876 0.8647461
vn -0.4992676 -0.05947876 0.8642578
vn 0 1 0
vn 0 1 0
vn 0 1 0
vn 0 1 0
g t005v001_l_0
f 3/3/3 2/2/2 1/1/1
f 6/6/6 5/5/5 4/4/4
f 9/9/9 8/8/8 7/7/7
f 10/10/10 9/9/9 7/7/7
f 13/13/13 12/12/12 11/11/11
f 14/14/14 13/13/13 11/11/11
f 17/17/17 16/16/16 15/15/15
f 18/18/18 17/17/17 15/15/15
f 21/21/21 20/20/20 19/19/19
f 22/22/22 21/21/21 19/19/19
f 25/25/25 24/24/24 23/23/23
f 26/26/26 25/25/25 23/23/23
f 26/26/26 23/23/23 27/27/27
f 28/28/28 26/26/26 27/27/27
f 31/31/31 30/30/30 29/29/29
f 30/30/30 32/32/32 29/29/29
f 30/30/30 33/33/33 32/32/32
f 33/33/33 34/34/34 32/32/32
f 37/37/37 36/36/36 35/35/35
f 38/38/38 37/37/37 35/35/35
f 41/41/41 40/40/40 39/39/39
f 42/42/42 41/41/41 39/39/39
f 45/45/45 44/44/44 43/43/43
f 46/46/46 45/45/45 43/43/43
f 49/49/49 48/48/48 47/47/47
f 50/50/50 49/49/49 47/47/47
f 53/53/53 52/52/52 51/51/51
f 54/54/54 52/52/52 53/53/53
