g t007v001_l
v -0.1509919 -0.02104264 -0.3459455
v -0.3221658 -0.02104264 -0.3047256
v -0.1986684 -0.02104264 -0.168715
v 0.3993275 0.5919713 0.4901884
v 0.4761555 0.6343426 0.4211228
v 0.4520143 0.4881852 0.4513854
v -0.4481681 0.5485572 -0.4098897
v -0.4227565 0.6912203 -0.4342009
v -0.4860557 0.6638564 -0.3471777
v 0.4014871 -0.02104264 0.2007008
v 0.2528174 -0.02104264 0.2634728
v 0.3661627 -0.02104264 0.3607489
v 0.3976465 0.8787662 0.4128413
v 0.183081 0.8770927 0.3932941
v 0.421003 0.8916416 0.1984011
v 0.183081 0.8770927 0.3932941
v 0.1982517 0.87549 0.1789927
v 0.421003 0.8916416 0.1984011
v -0.1986684 -0.02104264 -0.168715
v -0.1518781 0.3970155 -0.3314106
v -0.1509919 -0.02104264 -0.3459455
v -0.2277669 0.3919994 -0.1436142
v -0.1309809 0.8815676 -0.3256956
v -0.2688822 0.8947651 -0.1196676
v -0.4514861 0.8824748 -0.2463593
v -0.4097949 0.3808008 -0.2359388
v -0.3221658 -0.02104264 -0.3047256
v -0.3189873 0.3858168 -0.4074425
v -0.1509919 -0.02104264 -0.3459455
v -0.3288641 0.8895595 -0.4524082
v -0.1518781 0.3970155 -0.3314106
v -0.1309809 0.8815676 -0.3256956
v -0.4514861 0.8824748 -0.2463593
v -0.3288641 0.8895595 -0.4524082
v -0.1309809 0.8815676 -0.3256956
v -0.2688822 0.8947651 -0.1196676
v 0.4761555 0.6343426 0.4211228
v -0.01499619 0.5448812 -0.1155712
v 0.4520143 0.4881852 0.4513854
v -0.004451606 0.6945756 -0.1347763
v 0.3993275 0.5919713 0.4901884
v -0.4481681 0.5485572 -0.4098897
v -0.07720275 0.6649472 -0.04230632
v -0.4227565 0.6912203 -0.4342009
v -0.4860557 0.6638564 -0.3471777
v -0.01499619 0.5448812 -0.1155712
v 0.3993275 0.5919713 0.4901884
v 0.4520143 0.4881852 0.4513854
v -0.07720275 0.6649472 -0.04230632
v -0.4860557 0.6638564 -0.3471777
v -0.4481681 0.5485572 -0.4098897
v 0.2576196 0.3347588 0.1792123
v 0.1982517 0.87549 0.1789927
v 0.183081 0.8770927 0.3932941
v 0.2202272 0.3347588 0.3679272
v 0.2528174 -0.02104264 0.2634728
v 0.3661627 -0.02104264 0.3607489
v 0.4174096 0.3347588 0.39674
v 0.3976465 0.8787662 0.4128413
v 0.421003 0.8916416 0.1984011
v 0.4496622 0.3347588 0.2117911
v 0.4014871 -0.02104264 0.2007008
v 0.2576196 0.3347588 0.1792123
v 0.1982517 0.87549 0.1789927
v 0.2528174 -0.02104264 0.2634728
vt 0.625 0.02693176
vt 0.5913086 0.1135254
vt 0.6933594 0.08447266
vt 0.1556396 0.08355713
vt 0.09893799 0.03494263
vt 0.04147339 0.08355713
vt 0.2064209 0.08355713
vt 0.263916 0.1334229
vt 0.3205566 0.08355713
vt 0.402832 0.02693176
vt 0.4284668 0.1280518
vt 0.4880371 0.0557251
vt 0.9638672 0.3320313
vt 0.8344727 0.2729492
vt 0.9140625 0.4726563
vt 0.8344727 0.2729492
vt 0.7773438 0.4177246
vt 0.9140625 0.4726563
vt 0.4130859 0.5112305
vt 0.4931641 0.7368164
vt 0.4931641 0.5112305
vt 0.4130859 0.7368164
vt 0.4931641 0.9946289
vt 0.4313965 0.9946289
vt 0.2973633 0.9946289
vt 0.2922363 0.7368164
vt 0.230835 0.5112305
vt 0.1695557 0.7368164
vt 0.0458374 0.5112305
vt 0.1589355 0.9946289
vt 0.0458374 0.7368164
vt 0.03677368 0.9946289
vt 0.7944336 0.07855225
vt 0.8310547 0.2213135
vt 0.9667969 0.1661377
vt 0.9501953 0.04721069
vt 0.00560379 0.300293
vt 0.4155273 0.2297363
vt 0.00560379 0.2297363
vt 0.4155273 0.300293
vt 0.00560379 0.3713379
vt 0.6967773 0.2297363
vt 0.4155273 0.3713379
vt 0.6967773 0.300293
vt 0.6967773 0.3713379
vt 0.4155273 0.2297363
vt 0.00560379 0.3713379
vt 0.00560379 0.2297363
vt 0.4155273 0.3713379
vt 0.6967773 0.3713379
vt 0.6967773 0.2297363
vt 0.5058594 0.7368164
vt 0.5058594 0.9946289
vt 0.5976563 0.9946289
vt 0.5878906 0.7368164
vt 0.546875 0.5112305
vt 0.7114258 0.5112305
vt 0.7114258 0.7368164
vt 0.7207031 0.9946289
vt 0.8442383 0.9946289
vt 0.8339844 0.7368164
vt 0.8339844 0.5112305
vt 0.9541016 0.7368164
vt 0.9638672 0.9946289
vt 0.9541016 0.5112305
vn 0 -1 0
vn 0 -1 0
vn 0 -1 0
vn 0.652832 0.04870605 0.7558594
vn 0.652832 0.04870605 0.7558594
vn 0.652832 0.04870605 0.7558594
vn -0.8149414 0.04663086 -0.578125
vn -0.8149414 0.04663086 -0.578125
vn -0.8149414 0.04663086 -0.578125
vn 0 -1 0
vn 0 -1 0
vn 0 -1 0
vn -0.01311493 0.9980469 0.0585022
vn -0.01311493 0.9980469 0.0585022
vn -0.01311493 0.9980469 0.0585022
vn -0.07122803 0.9975586 -0.01250458
vn -0.07122803 0.9975586 -0.01250458
vn -0.07122803 0.9975586 -0.01250458
vn 0.6923828 -0.08795166 0.7163086
vn 1 0.001219749 -0.002368927
vn 0.9848633 -0.06860352 -0.1582031
vn 0.621582 -0.01783752 0.7832031
vn 0.9990234 -0.002603531 0.04815674
vn 0.5205078 -0.03979492 0.8530273
vn -0.9931641 -0.09313965 -0.06787109
vn -0.9921875 -0.1050415 0.06396484
vn -0.8842773 -0.3845215 -0.2646484
vn -0.5512695 -0.09161377 -0.8291016
vn 0.9848633 -0.06860352 -0.1582031
vn -0.5512695 -0.07611084 -0.8310547
vn 1 0.001219749 -0.002368927
vn 0.9990234 -0.002603531 0.04815674
vn -0.0009975433 1 -0.01546478
vn -0.0009975433 1 -0.01546478
vn -0.0009975433 1 -0.01546478
vn -0.0009975433 1 -0.01546478
vn 0.6782227 0.5410156 -0.4973145
vn 0.2348633 -0.925293 -0.298584
vn 0.1760254 -0.953125 -0.2463379
vn 0.5917969 0.5498047 -0.5898438
vn -0.7426758 0.1248169 0.6577148
vn 0.1251221 -0.9716797 -0.1998291
vn -0.6601563 0.2340088 0.7133789
vn 0.4680176 0.559082 -0.6845703
vn -0.5776367 0.1647949 0.7998047
vn 0.2348633 -0.925293 -0.298584
vn -0.7426758 0.1248169 0.6577148
vn 0.1760254 -0.953125 -0.2463379
vn -0.6601563 0.2340088 0.7133789
vn -0.5776367 0.1647949 0.7998047
vn 0.1251221 -0.9716797 -0.1998291
vn -0.7470703 -0.07232666 -0.6606445
vn -0.8168945 -0.06958008 -0.5727539
vn -0.9321289 -0.09381104 0.3500977
vn -0.9145508 -0.1040039 0.3911133
vn -0.925293 -0.3198242 -0.2034912
vn 0.3789063 -0.2949219 0.8769531
vn 0.7783203 -0.03186035 0.6274414
vn 0.8168945 0.02246094 0.5761719
vn 0.9291992 0.04040527 -0.3679199
vn 0.9316406 -0.004112244 -0.3637695
vn 0.6166992 -0.2514648 -0.7456055
vn -0.7470703 -0.07232666 -0.6606445
vn -0.8168945 -0.06958008 -0.5727539
vn -0.925293 -0.3198242 -0.2034912
g t007v001_l_0
f 3/3/3 2/2/2 1/1/1
f 6/6/6 5/5/5 4/4/4
f 9/9/9 8/8/8 7/7/7
f 12/12/12 11/11/11 10/10/10
f 15/15/15 14/14/14 13/13/13
f 18/18/18 17/17/17 16/16/16
f 21/21/21 20/20/20 19/19/19
f 20/20/20 22/22/22 19/19/19
f 20/20/20 23/23/23 22/22/22
f 23/23/23 24/24/24 22/22/22
f 25/25/25 22/22/22 24/24/24
f 19/19/19 22/22/22 26/26/26
f 25/25/25 26/26/26 22/22/22
f 19/19/19 26/26/26 27/27/27
f 26/26/26 25/25/25 28/28/28
f 26/26/26 28/28/28 27/27/27
f 27/27/27 28/28/28 29/29/29
f 25/25/25 30/30/30 28/28/28
f 28/28/28 31/31/31 29/29/29
f 28/28/28 30/30/30 31/31/31
f 31/31/31 30/30/30 32/32/32
f 35/35/35 34/34/34 33/33/33
f 36/36/36 35/35/35 33/33/33
f 39/39/39 38/38/38 37/37/37
f 38/38/38 40/40/40 37/37/37
f 37/37/37 40/40/40 41/41/41
f 38/38/38 42/42/42 40/40/40
f 40/40/40 43/43/43 41/41/41
f 42/42/42 44/44/44 40/40/40
f 40/40/40 44/44/44 43/43/43
f 44/44/44 45/45/45 43/43/43
f 48/48/48 47/47/47 46/46/46
f 47/47/47 49/49/49 46/46/46
f 49/49/49 50/50/50 46/46/46
f 50/50/50 51/51/51 46/46/46
f 54/54/54 53/53/53 52/52/52
f 55/55/55 54/54/54 52/52/52
f 55/55/55 52/52/52 56/56/56
f 57/57/57 55/55/55 56/56/56
f 58/58/58 54/54/54 55/55/55
f 57/57/57 58/58/58 55/55/55
f 59/59/59 54/54/54 58/58/58
f 60/60/60 59/59/59 58/58/58
f 61/61/61 58/58/58 57/57/57
f 61/61/61 60/60/60 58/58/58
f 62/62/62 61/61/61 57/57/57
f 60/60/60 61/61/61 63/63/63
f 63/63/63 61/61/61 62/62/62
f 60/60/60 63/63/63 64/64/64
f 65/65/65 63/63/63 62/62/62
