g t011v001_h
v 0.1725388 0.8681844 -0.3698692
v 0.3812962 0.8681844 -0.3698692
v 0.3812962 0.3649351 -0.3698692
v 0.1217213 0.1075288 -0.3698692
v -0.1217442 0.1075288 -0.3698692
v -0.1725616 0.8681844 -0.3698692
v -0.1112747 0.9160859 -0.3698692
v 0.1112518 0.9160859 -0.3698692
v -0.381319 0.8681844 -0.3698692
v -0.381319 0.3649351 -0.3698692
v -0.1456242 1.026844 -0.5
v 0.1456013 1.026844 -0.5
v 0.1456013 1.026844 -0.3569641
v -0.1456242 1.026844 -0.3569641
v -0.4827223 0.3138433 -0.3569641
v -0.4827223 0.3138433 -0.5
v -0.4827223 1.003208 -0.5
v -0.4827223 1.003208 -0.3569641
v -0.2042255 0.9742919 -0.3569641
v -0.1456242 1.026844 -0.5
v -0.1456242 1.026844 -0.3569641
v -0.2042255 0.9742919 -0.5
v -0.359581 0.9742919 -0.3569641
v -0.359581 0.9742919 -0.5
v -0.1513863 -0.009553373 -0.3569641
v -0.4827223 0.3138433 -0.5
v -0.4827223 0.3138433 -0.3569641
v -0.1513863 -0.009553373 -0.5
v 0.1513634 -0.009553373 -0.3569641
v 0.1513634 -0.009553373 -0.5
v -0.4227562 1.026844 -0.3569641
v -0.359581 0.9742919 -0.5
v -0.359581 0.9742919 -0.3569641
v -0.4227562 1.026844 -0.5
v -0.4827223 1.003208 -0.3569641
v -0.4827223 1.003208 -0.5
v -0.1799364 0.8832117 -0.3569641
v -0.1725616 0.8681844 -0.3698692
v -0.381319 0.8681844 -0.3698692
v -0.3986931 0.8832117 -0.3569641
v -0.3986931 0.8832117 -0.3569641
v -0.381319 0.8681844 -0.3698692
v -0.381319 0.3649351 -0.3698692
v -0.3986931 0.3560475 -0.3569641
v -0.3986931 0.3560475 -0.3569641
v -0.381319 0.3649351 -0.3698692
v -0.1217442 0.1075288 -0.3698692
v -0.1281471 0.08655018 -0.3569641
v -0.1217442 0.1075288 -0.3698692
v 0.1217213 0.1075288 -0.3698692
v 0.1281242 0.08655018 -0.3569641
v -0.1281471 0.08655018 -0.3569641
v -0.1160316 0.9331605 -0.3569641
v -0.1112747 0.9160859 -0.3698692
v -0.1725616 0.8681844 -0.3698692
v -0.1799364 0.8832117 -0.3569641
v -0.1160316 0.9331605 -0.3569641
v 0.1160088 0.9331605 -0.3569641
v 0.1112518 0.9160859 -0.3698692
v -0.1112747 0.9160859 -0.3698692
v 0.1799135 0.8832117 -0.5
v 0.1160088 0.9331605 -0.5
v -0.1160316 0.9331605 -0.5
v -0.1799364 0.8832117 -0.5
v -0.1281471 0.08655018 -0.5
v -0.3986931 0.8832117 -0.5
v -0.3986931 0.3560475 -0.5
v 0.1281242 0.08655018 -0.5
v 0.3986702 0.8832117 -0.5
v 0.3986702 0.3560475 -0.5
v 0.4826994 0.3138433 -0.3569641
v 0.4826994 1.003208 -0.3569641
v 0.4826994 1.003208 -0.5
v 0.4826994 0.3138433 -0.5
v 0.2042027 0.9742919 -0.3569641
v 0.1456013 1.026844 -0.3569641
v 0.1456013 1.026844 -0.5
v 0.2042027 0.9742919 -0.5
v 0.1513634 -0.009553373 -0.3569641
v 0.4826994 0.3138433 -0.3569641
v 0.4826994 0.3138433 -0.5
v 0.1513634 -0.009553373 -0.5
v 0.3595581 0.9742919 -0.3569641
v 0.2042027 0.9742919 -0.3569641
v 0.2042027 0.9742919 -0.5
v 0.3595581 0.9742919 -0.5
v 0.4227333 1.026844 -0.3569641
v 0.3595581 0.9742919 -0.3569641
v 0.3595581 0.9742919 -0.5
v 0.4227333 1.026844 -0.5
v 0.4826994 1.003208 -0.3569641
v 0.4826994 1.003208 -0.5
v 0.1799135 0.8832117 -0.3569641
v 0.3986702 0.8832117 -0.3569641
v 0.3812962 0.8681844 -0.3698692
v 0.1725388 0.8681844 -0.3698692
v 0.3986702 0.8832117 -0.3569641
v 0.3986702 0.3560475 -0.3569641
v 0.3812962 0.3649351 -0.3698692
v 0.3812962 0.8681844 -0.3698692
v 0.3986702 0.3560475 -0.3569641
v 0.1281242 0.08655018 -0.3569641
v 0.1217213 0.1075288 -0.3698692
v 0.3812962 0.3649351 -0.3698692
v 0.1160088 0.9331605 -0.3569641
v 0.1799135 0.8832117 -0.3569641
v 0.1725388 0.8681844 -0.3698692
v 0.1112518 0.9160859 -0.3698692
v -0.06770897 0.7332456 -0.5082779
v 0.06768608 0.7332456 -0.5082779
v 0.06768608 0.9319015 -0.5082779
v -0.06770897 0.9319015 -0.5082779
v -0.3360748 -0.001264393 -0.3424492
v -0.3070059 0.08846843 -0.4588966
v -0.3360748 -0.001264393 -0.4588966
v -0.3070059 0.08846843 -0.3424492
v -0.1655331 0.1878789 -0.4588966
v -0.1655331 0.1878789 -0.3424492
v -0.09638405 0.2563385 -0.3424492
v 0.3986702 0.7507524 -0.3424492
v 0.3986702 0.7507523 -0.4588966
v -0.09638405 0.2563385 -0.4588966
v 0.004600525 0.08654982 -0.3424492
v 0.003961563 0.2215431 -0.3424492
v 0.003961563 0.2215431 -0.4588966
v 0.004600525 0.08654982 -0.4588966
v -0.1655331 0.1878789 -0.3424492
v -0.1285877 0.08655033 -0.3424492
v -0.1285877 0.08655033 -0.4588966
v -0.1655331 0.1878789 -0.4588966
v -0.09638405 0.2563385 -0.4588966
v 0.003961563 0.2215431 -0.4588966
v 0.003961563 0.2215431 -0.3424492
v -0.09638405 0.2563385 -0.3424492
v 0.003961563 0.2215431 -0.3424492
v 0.004600525 0.08654982 -0.3424492
v -0.1285877 0.08655033 -0.3424492
v -0.09638405 0.2563385 -0.3424492
v -0.1655331 0.1878789 -0.3424492
v -0.2975845 0.3199312 -0.3424492
v -0.3969955 0.1784583 -0.3424492
v -0.3070059 0.08846843 -0.3424492
v -0.4867287 0.1493892 -0.3424492
v -0.3360748 -0.001264393 -0.3424492
v -0.4873676 -0.001903653 -0.3424492
v -0.229126 0.3890805 -0.3424492
v 0.3986702 0.7507524 -0.3424492
v -0.398695 0.3560476 -0.3424492
v 0.2652874 0.8832117 -0.3424492
v 0.3986702 0.8832117 -0.3424492
v -0.2639208 0.4894255 -0.3424492
v -0.398695 0.4900648 -0.3424492
v 0.3986702 0.8832117 -0.3424492
v 0.3986702 0.8832117 -0.4588966
v 0.3986702 0.7507523 -0.4588966
v 0.3986702 0.7507524 -0.3424492
v -0.4873676 -0.001903653 -0.3424492
v -0.3360748 -0.001264393 -0.3424492
v -0.3360748 -0.001264393 -0.4588966
v -0.4873676 -0.001903653 -0.4588966
v -0.1285877 0.08655033 -0.3424492
v 0.004600525 0.08654982 -0.3424492
v 0.004600525 0.08654982 -0.4588966
v -0.1285877 0.08655033 -0.4588966
v -0.4867287 0.1493892 -0.3424492
v -0.4867287 0.1493892 -0.4588966
v -0.3969955 0.1784583 -0.4588966
v -0.3969955 0.1784583 -0.3424492
v -0.2975845 0.3199312 -0.4588966
v -0.2975845 0.3199312 -0.3424492
v -0.229126 0.3890805 -0.3424492
v -0.229126 0.3890805 -0.4588966
v 0.2652874 0.8832117 -0.4588966
v 0.2652874 0.8832117 -0.3424492
v -0.398695 0.4900648 -0.3424492
v -0.398695 0.4900648 -0.4588966
v -0.2639208 0.4894255 -0.4588966
v -0.2639208 0.4894255 -0.3424492
v -0.2975845 0.3199312 -0.3424492
v -0.2975845 0.3199312 -0.4588966
v -0.398695 0.3560476 -0.4588966
v -0.398695 0.3560476 -0.3424492
v -0.229126 0.3890805 -0.4588966
v -0.229126 0.3890805 -0.3424492
v -0.2639208 0.4894255 -0.3424492
v -0.2639208 0.4894255 -0.4588966
v 0.3986702 0.8832117 -0.3424492
v 0.2652874 0.8832117 -0.3424492
v 0.2652874 0.8832117 -0.4588966
v 0.3986702 0.8832117 -0.4588966
v -0.4873676 -0.001903653 -0.3424492
v -0.4873676 -0.001903653 -0.4588966
v -0.4867287 0.1493892 -0.4588966
v -0.4867287 0.1493892 -0.3424492
v -0.398695 0.3560476 -0.3424492
v -0.398695 0.3560476 -0.4588966
v -0.398695 0.4900648 -0.4588966
v -0.398695 0.4900648 -0.3424492
v -0.3969955 0.1784583 -0.4588966
v -0.1655331 0.1878789 -0.4588966
v -0.2975845 0.3199312 -0.4588966
v -0.3070059 0.08846843 -0.4588966
v -0.4867287 0.1493892 -0.4588966
v -0.3360748 -0.001264393 -0.4588966
v -0.4873676 -0.001903653 -0.4588966
v 0.4227333 1.026844 -0.5
v 0.3595581 0.9742919 -0.5
v 0.3986702 0.8832117 -0.5
v 0.4826994 1.003208 -0.5
v 0.2042027 0.9742919 -0.5
v 0.3986702 0.3560475 -0.5
v 0.1799135 0.8832117 -0.5
v 0.4826994 0.3138433 -0.5
v 0.1456013 1.026844 -0.5
v 0.1160088 0.9331605 -0.5
v -0.1160316 0.9331605 -0.5
v -0.1456242 1.026844 -0.5
v -0.1799364 0.8832117 -0.5
v -0.2042255 0.9742919 -0.5
v 0.1281242 0.08655018 -0.5
v 0.1513634 -0.009553373 -0.5
v -0.1513863 -0.009553373 -0.5
v -0.1281471 0.08655018 -0.5
v -0.4827223 0.3138433 -0.5
v -0.3986931 0.3560475 -0.5
v -0.4827223 1.003208 -0.5
v -0.3986931 0.8832117 -0.5
v -0.359581 0.9742919 -0.5
v -0.4227562 1.026844 -0.5
v -0.1281471 0.08655018 -0.3569641
v 0.1513634 -0.009553373 -0.3569641
v -0.1513863 -0.009553373 -0.3569641
v -0.4827223 0.3138433 -0.3569641
v 0.1281242 0.08655018 -0.3569641
v -0.3986931 0.3560475 -0.3569641
v 0.4826994 0.3138433 -0.3569641
v -0.4827223 1.003208 -0.3569641
v 0.3986702 0.3560475 -0.3569641
v 0.4826994 1.003208 -0.3569641
v -0.3986931 0.8832117 -0.3569641
v 0.3986702 0.8832117 -0.3569641
v -0.4227562 1.026844 -0.3569641
v -0.359581 0.9742919 -0.3569641
v -0.2042255 0.9742919 -0.3569641
v -0.1799364 0.8832117 -0.3569641
v 0.4227333 1.026844 -0.3569641
v 0.3595581 0.9742919 -0.3569641
v 0.2042027 0.9742919 -0.3569641
v 0.1799135 0.8832117 -0.3569641
v 0.1456013 1.026844 -0.3569641
v 0.1160088 0.9331605 -0.3569641
v -0.1456242 1.026844 -0.3569641
v -0.1160316 0.9331605 -0.3569641
vt 0.2536621 0.7875977
vt 0.3308105 0.7875977
vt 0.3308105 0.4152832
vt 0.2353516 0.2252197
vt 0.1448975 0.2252197
vt 0.126709 0.7875977
vt 0.1491699 0.8227539
vt 0.2310791 0.8227539
vt 0.04949951 0.7875977
vt 0.04949951 0.4152832
vt 0.5151367 0.2624512
vt 0.5952148 0.2624512
vt 0.5952148 0.1767578
vt 0.5151367 0.1767578
vt 0.4902344 0.1263428
vt 0.4902344 0.03338623
vt 0.2663574 0.03338623
vt 0.2663574 0.1263428
vt 0.4926758 0.1767578
vt 0.5151367 0.2624512
vt 0.5151367 0.1767578
vt 0.4926758 0.2624512
vt 0.4487305 0.1767578
vt 0.4487305 0.2624512
vt 0.640625 0.1263428
vt 0.4902344 0.03338623
vt 0.4902344 0.1263428
vt 0.640625 0.03338623
vt 0.7392578 0.1263428
vt 0.7392578 0.03338623
vt 0.425293 0.1767578
vt 0.4487305 0.2624512
vt 0.4487305 0.1767578
vt 0.425293 0.2624512
vt 0.40625 0.1767578
vt 0.40625 0.2624512
vt 0.2675781 0.9511719
vt 0.2675781 0.9741211
vt 0.3410645 0.9741211
vt 0.3410645 0.9511719
vt 0.3410645 0.9511719
vt 0.3410645 0.9741211
vt 0.5107422 0.9741211
vt 0.5107422 0.9511719
vt 0.5107422 0.9511719
vt 0.5107422 0.9741211
vt 0.6508789 0.9741211
vt 0.6508789 0.9511719
vt 0.6508789 0.9741211
vt 0.7460938 0.9741211
vt 0.7460938 0.9511719
vt 0.6508789 0.9511719
vt 0.2294922 0.9511719
vt 0.2294922 0.9741211
vt 0.2675781 0.9741211
vt 0.2675781 0.9511719
vt 0.2294922 0.9511719
vt 0.116272 0.9511719
vt 0.116272 0.9741211
vt 0.2294922 0.9741211
vt 0.4641113 0.855957
vt 0.4836426 0.8867188
vt 0.5546875 0.8867188
vt 0.5742188 0.855957
vt 0.5585938 0.3681641
vt 0.6411133 0.855957
vt 0.6411133 0.5332031
vt 0.4799805 0.3681641
vt 0.3972168 0.855957
vt 0.3972168 0.5332031
vt 0.4902344 0.03338623
vt 0.2663574 0.03338623
vt 0.2663574 0.1263428
vt 0.4902344 0.1263428
vt 0.6176758 0.1767578
vt 0.5952148 0.1767578
vt 0.5952148 0.2624512
vt 0.6176758 0.2624512
vt 0.640625 0.03338623
vt 0.4902344 0.03338623
vt 0.4902344 0.1263428
vt 0.640625 0.1263428
vt 0.6616211 0.1767578
vt 0.6176758 0.1767578
vt 0.6176758 0.2624512
vt 0.6616211 0.2624512
vt 0.6850586 0.1767578
vt 0.6616211 0.1767578
vt 0.6616211 0.2624512
vt 0.6850586 0.2624512
vt 0.7041016 0.1767578
vt 0.7041016 0.2624512
vt 0.2675781 0.9741211
vt 0.3410645 0.9741211
vt 0.3410645 0.9511719
vt 0.2675781 0.9511719
vt 0.3410645 0.9741211
vt 0.5107422 0.9741211
vt 0.5107422 0.9511719
vt 0.3410645 0.9511719
vt 0.5107422 0.9741211
vt 0.6508789 0.9741211
vt 0.6508789 0.9511719
vt 0.5107422 0.9511719
vt 0.2294922 0.9741211
vt 0.2675781 0.9741211
vt 0.2675781 0.9511719
vt 0.2294922 0.9511719
vt 0.9145508 0.4946289
vt 0.8706055 0.4946289
vt 0.8706055 0.6240234
vt 0.9145508 0.6240234
vt 0.8735352 0.7807617
vt 0.9135742 0.8452148
vt 0.9135742 0.7807617
vt 0.8735352 0.8452148
vt 0.9135742 0.9638672
vt 0.8735352 0.9638672
vt 0.940918 0.3908691
vt 0.940918 0.875
vt 0.980957 0.875
vt 0.980957 0.3908691
vt 0.940918 0.1879883
vt 0.940918 0.2800293
vt 0.980957 0.2800293
vt 0.980957 0.1879883
vt 0.940918 0.02246094
vt 0.940918 0.09539795
vt 0.980957 0.09539795
vt 0.980957 0.02246094
vt 0.980957 0.3537598
vt 0.980957 0.2800293
vt 0.940918 0.2800293
vt 0.940918 0.3537598
vt 0.8774414 0.4101563
vt 0.9125977 0.3400879
vt 0.8779297 0.2702637
vt 0.8417969 0.3759766
vt 0.8417969 0.3039551
vt 0.7729492 0.3039551
vt 0.7836914 0.1781006
vt 0.8305664 0.1781006
vt 0.7680664 0.1160278
vt 0.8466797 0.1160278
vt 0.8071289 0.03662109
vt 0.7724609 0.3759766
vt 0.8422852 0.8930664
vt 0.7368164 0.2700195
vt 0.7724609 0.8925781
vt 0.8076172 0.9624023
vt 0.7373047 0.4101563
vt 0.7016602 0.3400879
vt 0.940918 0.9677734
vt 0.980957 0.9677734
vt 0.980957 0.875
vt 0.940918 0.875
vt 0.8735352 0.6767578
vt 0.8735352 0.7807617
vt 0.9135742 0.7807617
vt 0.9135742 0.6767578
vt 0.940918 0.09539795
vt 0.940918 0.1879883
vt 0.980957 0.1879883
vt 0.980957 0.09539795
vt 0.9135742 0.7807617
vt 0.8735352 0.7807617
vt 0.8735352 0.8452148
vt 0.9135742 0.8452148
vt 0.8735352 0.9638672
vt 0.9135742 0.9638672
vt 0.980957 0.3908691
vt 0.940918 0.3908691
vt 0.940918 0.875
vt 0.980957 0.875
vt 0.940918 0.1879883
vt 0.980957 0.1879883
vt 0.980957 0.09539795
vt 0.940918 0.09539795
vt 0.940918 0.3537598
vt 0.980957 0.3537598
vt 0.980957 0.2800293
vt 0.940918 0.2800293
vt 0.980957 0.02246094
vt 0.940918 0.02246094
vt 0.940918 0.09539795
vt 0.980957 0.09539795
vt 0.980957 0.9677734
vt 0.980957 0.875
vt 0.940918 0.875
vt 0.940918 0.9677734
vt 0.9135742 0.6767578
vt 0.8735352 0.6767578
vt 0.8735352 0.7807617
vt 0.9135742 0.7807617
vt 0.940918 0.2800293
vt 0.980957 0.2800293
vt 0.980957 0.1879883
vt 0.940918 0.1879883
vt 0.7270508 0.5390625
vt 0.6689453 0.6650391
vt 0.737793 0.6650391
vt 0.6796875 0.5390625
vt 0.7426758 0.4770508
vt 0.6640625 0.4770508
vt 0.7036133 0.3977051
vt 0.03314209 0.9077148
vt 0.05664063 0.8686523
vt 0.04211426 0.8012695
vt 0.01085663 0.8901367
vt 0.1143799 0.8686523
vt 0.04211426 0.4091797
vt 0.1234131 0.8012695
vt 0.01085663 0.3776855
vt 0.1362305 0.9077148
vt 0.1472168 0.8383789
vt 0.2335205 0.8383789
vt 0.2445068 0.9077148
vt 0.2573242 0.8012695
vt 0.2663574 0.8686523
vt 0.1427002 0.2087402
vt 0.1340332 0.137207
vt 0.246582 0.137207
vt 0.2380371 0.2087402
vt 0.369873 0.3776855
vt 0.338623 0.4091797
vt 0.369873 0.8901367
vt 0.338623 0.8012695
vt 0.3239746 0.8686523
vt 0.3474121 0.9077148
vt 0.1427002 0.2087402
vt 0.246582 0.137207
vt 0.1340332 0.137207
vt 0.01085663 0.3776855
vt 0.2380371 0.2087402
vt 0.04211426 0.4091797
vt 0.369873 0.3776855
vt 0.01085663 0.8901367
vt 0.338623 0.4091797
vt 0.369873 0.8901367
vt 0.04211426 0.8012695
vt 0.338623 0.8012695
vt 0.03314209 0.9077148
vt 0.05664063 0.8686523
vt 0.1143799 0.8686523
vt 0.1234131 0.8012695
vt 0.3474121 0.9077148
vt 0.3239746 0.8686523
vt 0.2663574 0.8686523
vt 0.2573242 0.8012695
vt 0.2445068 0.9077148
vt 0.2335205 0.8383789
vt 0.1362305 0.9077148
vt 0.1472168 0.8383789
vn 0 0 1
vn 0 0 1
vn 0 0 1
vn 0 0 1
vn 0 0 1
vn 0 0 1
vn 0 0 1
vn 0 0 1
vn 0 0 1
vn 0 0 1
vn 0 1 0
vn 0 1 0
vn 0 1 0
vn 0 1 0
vn -1 0 0
vn -1 0 0
vn -1 0 0
vn -1 0 0
vn -0.2385254 0.9711914 0
vn -0.6674805 0.7446289 0
vn -0.6674805 0.7446289 0
vn -0.2385254 0.9711914 0
vn 0 1 0
vn 0 1 0
vn -0.4543457 -0.890625 0
vn -0.6982422 -0.7158203 0
vn -0.6982422 -0.7158203 0
vn -0.4543457 -0.890625 0
vn 0.4543457 -0.890625 0
vn 0.4543457 -0.890625 0
vn 0.2286377 0.9736328 0
vn 0.6396484 0.7685547 0
vn 0.6396484 0.7685547 0
vn 0.2286377 0.9736328 0
vn -0.3666992 0.9301758 0
vn -0.3666992 0.9301758 0
vn 0 -0.6513672 0.7587891
vn 0 -0.6513672 0.7587891
vn 0 -0.6513672 0.7587891
vn 0 -0.6513672 0.7587891
vn 0.5961914 0 0.8027344
vn 0.5961914 0 0.8027344
vn 0.5961914 0 0.8027344
vn 0.5961914 0 0.8027344
vn 0.3964844 0.3989258 0.8266602
vn 0.3964844 0.3989258 0.8266602
vn 0.3964844 0.3989258 0.8266602
vn 0.3964844 0.3989258 0.8266602
vn 0 0.5239258 0.8515625
vn 0 0.5239258 0.8515625
vn 0 0.5239258 0.8515625
vn 0 0.5239258 0.8515625
vn 0.3811035 -0.4875488 0.7856445
vn 0.3811035 -0.4875488 0.7856445
vn 0.3811035 -0.4875488 0.7856445
vn 0.3811035 -0.4875488 0.7856445
vn 0 -0.6030273 0.7978516
vn 0 -0.6030273 0.7978516
vn 0 -0.6030273 0.7978516
vn 0 -0.6030273 0.7978516
vn 0 0 -1
vn 0 0 -1
vn 0 0 -1
vn 0 0 -1
vn 0 0 -1
vn 0 0 -1
vn 0 0 -1
vn 0 0 -1
vn 0 0 -1
vn 0 0 -1
vn 1 0 0
vn 1 0 0
vn 1 0 0
vn 1 0 0
vn 0.6674805 0.7446289 0
vn 0.6674805 0.7446289 0
vn 0.6674805 0.7446289 0
vn 0.6674805 0.7446289 0
vn 0.4543457 -0.890625 0
vn 0.6982422 -0.7158203 0
vn 0.6982422 -0.7158203 0
vn 0.4543457 -0.890625 0
vn 0 1 0
vn 0 1 0
vn 0 1 0
vn 0 1 0
vn -0.2286377 0.9736328 0
vn -0.6396484 0.7685547 0
vn -0.6396484 0.7685547 0
vn -0.2286377 0.9736328 0
vn 0.3666992 0.9301758 0
vn 0.3666992 0.9301758 0
vn 0 -0.6513672 0.7587891
vn 0 -0.6513672 0.7587891
vn 0 -0.6513672 0.7587891
vn 0 -0.6513672 0.7587891
vn -0.5961914 0 0.8027344
vn -0.5961914 0 0.8027344
vn -0.5961914 0 0.8027344
vn -0.5961914 0 0.8027344
vn -0.3964844 0.3989258 0.8266602
vn -0.3964844 0.3989258 0.8266602
vn -0.3964844 0.3989258 0.8266602
vn -0.3964844 0.3989258 0.8266602
vn -0.3811035 -0.4875488 0.7856445
vn -0.3811035 -0.4875488 0.7856445
vn -0.3811035 -0.4875488 0.7856445
vn -0.3811035 -0.4875488 0.7856445
vn 0 0 -1
vn 0 0 -1
vn 0 0 -1
vn 0 0 -1
vn 0.9511719 -0.3081055 0
vn 0.7426758 -0.6694336 0
vn 0.9511719 -0.3081055 0
vn 0.7426758 -0.6694336 0
vn 0.574707 -0.8183594 0
vn 0.574707 -0.8183594 0
vn 0.706543 -0.7075195 0
vn 0.706543 -0.7075195 0
vn 0.706543 -0.7075195 0
vn 0.706543 -0.7075195 0
vn 1 0.004734039 0
vn 1 0.004734039 0
vn 1 0.004734039 0
vn 1 0.004734039 0
vn -0.9394531 -0.3425293 0
vn -0.9394531 -0.3425293 0
vn -0.9394531 -0.3425293 0
vn -0.9394531 -0.3425293 0
vn 0.3276367 0.9448242 0
vn 0.3276367 0.9448242 0
vn 0.3276367 0.9448242 0
vn 0.3276367 0.9448242 0
vn 0 0 1
vn 0 0 1
vn 0 0 1
vn 0 0 1
vn 0 0 1
vn 0 0 1
vn 0 0 1
vn 0 0 1
vn 0 0 1
vn 0 0 1
vn 0 0 1
vn 0 0 1
vn 0 0 1
vn 0 0 1
vn 0 0 1
vn 0 0 1
vn 0 0 1
vn 0 0 1
vn 1 0 0
vn 1 0 0
vn 1 0 0
vn 1 0 0
vn 0.004226685 -1 0
vn 0.004226685 -1 0
vn 0.004226685 -1 0
vn 0.004226685 -1 0
vn 0 -1 0
vn 0 -1 0
vn 0 -1 0
vn 0 -1 0
vn -0.3081055 0.9511719 0
vn -0.3081055 0.9511719 0
vn -0.6694336 0.7426758 0
vn -0.6694336 0.7426758 0
vn -0.8183594 0.574707 0
vn -0.8183594 0.574707 0
vn -0.7070313 0.7075195 0
vn -0.7070313 0.7075195 0
vn -0.7070313 0.7075195 0
vn -0.7070313 0.7075195 0
vn 0.004741669 1 0
vn 0.004741669 1 0
vn 0.004741669 1 0
vn 0.004741669 1 0
vn -0.3364258 -0.9418945 0
vn -0.3364258 -0.9418945 0
vn -0.3364258 -0.9418945 0
vn -0.3364258 -0.9418945 0
vn 0.9448242 0.3276367 0
vn 0.9448242 0.3276367 0
vn 0.9448242 0.3276367 0
vn 0.9448242 0.3276367 0
vn 0 1 0
vn 0 1 0
vn 0 1 0
vn 0 1 0
vn -1 0.00422287 0
vn -1 0.00422287 0
vn -1 0.00422287 0
vn -1 0.00422287 0
vn -1 0 0
vn -1 0 0
vn -1 0 0
vn -1 0 0
vn 0 0 -1
vn 0 0 -1
vn 0 0 -1
vn 0 0 -1
vn 0 0 -1
vn 0 0 -1
vn 0 0 -1
vn 0 0 -1
vn 0 0 -1
vn 0 0 -1
vn 0 0 -1
vn 0 0 -1
vn 0 0 -1
vn 0 0 -1
vn 0 0 -1
vn 0 0 -1
vn 0 0 -1
vn 0 0 -1
vn 0 0 -1
vn 0 0 -1
vn 0 0 -1
vn 0 0 -1
vn 0 0 -1
vn 0 0 -1
vn 0 0 -1
vn 0 0 -1
vn 0 0 -1
vn 0 0 -1
vn 0 0 -1
vn 0 0 -1
vn 0 0 -1
vn 0 0 1
vn 0 0 1
vn 0 0 1
vn 0 0 1
vn 0 0 1
vn 0 0 1
vn 0 0 1
vn 0 0 1
vn 0 0 1
vn 0 0 1
vn 0 0 1
vn 0 0 1
vn 0 0 1
vn 0 0 1
vn 0 0 1
vn 0 0 1
vn 0 0 1
vn 0 0 1
vn 0 0 1
vn 0 0 1
vn 0 0 1
vn 0 0 1
vn 0 0 1
vn 0 0 1
g t011v001_h_0
f 3/3/3 2/2/2 1/1/1
f 4/4/4 3/3/3 1/1/1
f 5/5/5 4/4/4 1/1/1
f 6/6/6 5/5/5 1/1/1
f 6/6/6 1/1/1 7/7/7
f 1/1/1 8/8/8 7/7/7
f 6/6/6 9/9/9 5/5/5
f 9/9/9 10/10/10 5/5/5
f 13/13/13 12/12/12 11/11/11
f 14/14/14 13/13/13 11/11/11
f 17/17/17 16/16/16 15/15/15
f 18/18/18 17/17/17 15/15/15
f 21/21/21 20/20/20 19/19/19
f 20/20/20 22/22/22 19/19/19
f 19/19/19 22/22/22 23/23/23
f 22/22/22 24/24/24 23/23/23
f 27/27/27 26/26/26 25/25/25
f 26/26/26 28/28/28 25/25/25
f 29/29/29 25/25/25 28/28/28
f 30/30/30 29/29/29 28/28/28
f 33/33/33 32/32/32 31/31/31
f 32/32/32 34/34/34 31/31/31
f 31/31/31 34/34/34 35/35/35
f 34/34/34 36/36/36 35/35/35
f 39/39/39 38/38/38 37/37/37
f 40/40/40 39/39/39 37/37/37
f 43/43/43 42/42/42 41/41/41
f 44/44/44 43/43/43 41/41/41
f 47/47/47 46/46/46 45/45/45
f 48/48/48 47/47/47 45/45/45
f 51/51/51 50/50/50 49/49/49
f 52/52/52 51/51/51 49/49/49
f 55/55/55 54/54/54 53/53/53
f 56/56/56 55/55/55 53/53/53
f 59/59/59 58/58/58 57/57/57
f 60/60/60 59/59/59 57/57/57
f 63/63/63 62/62/62 61/61/61
f 64/64/64 63/63/63 61/61/61
f 64/64/64 61/61/61 65/65/65
f 64/64/64 65/65/65 66/66/66
f 65/65/65 67/67/67 66/66/66
f 61/61/61 68/68/68 65/65/65
f 68/68/68 61/61/61 69/69/69
f 70/70/70 68/68/68 69/69/69
f 73/73/73 72/72/72 71/71/71
f 74/74/74 73/73/73 71/71/71
f 77/77/77 76/76/76 75/75/75
f 78/78/78 77/77/77 75/75/75
f 81/81/81 80/80/80 79/79/79
f 82/82/82 81/81/81 79/79/79
f 85/85/85 84/84/84 83/83/83
f 86/86/86 85/85/85 83/83/83
f 89/89/89 88/88/88 87/87/87
f 90/90/90 89/89/89 87/87/87
f 90/90/90 87/87/87 91/91/91
f 92/92/92 90/90/90 91/91/91
f 95/95/95 94/94/94 93/93/93
f 96/96/96 95/95/95 93/93/93
f 99/99/99 98/98/98 97/97/97
f 100/100/100 99/99/99 97/97/97
f 103/103/103 102/102/102 101/101/101
f 104/104/104 103/103/103 101/101/101
f 107/107/107 106/106/106 105/105/105
f 108/108/108 107/107/107 105/105/105
f 111/111/111 110/110/110 109/109/109
f 112/112/112 111/111/111 109/109/109
f 115/115/115 114/114/114 113/113/113
f 114/114/114 116/116/116 113/113/113
f 114/114/114 117/117/117 116/116/116
f 117/117/117 118/118/118 116/116/116
f 121/121/121 120/120/120 119/119/119
f 122/122/122 121/121/121 119/119/119
f 125/125/125 124/124/124 123/123/123
f 126/126/126 125/125/125 123/123/123
f 129/129/129 128/128/128 127/127/127
f 130/130/130 129/129/129 127/127/127
f 133/133/133 132/132/132 131/131/131
f 134/134/134 133/133/133 131/131/131
f 137/137/137 136/136/136 135/135/135
f 137/137/137 135/135/135 138/138/138
f 139/139/139 137/137/137 138/138/138
f 140/140/140 139/139/139 138/138/138
f 140/140/140 141/141/141 139/139/139
f 141/141/141 142/142/142 139/139/139
f 141/141/141 143/143/143 142/142/142
f 143/143/143 144/144/144 142/142/142
f 143/143/143 145/145/145 144/144/144
f 146/146/146 140/140/140 138/138/138
f 146/146/146 138/138/138 147/147/147
f 148/148/148 140/140/140 146/146/146
f 149/149/149 146/146/146 147/147/147
f 149/149/149 147/147/147 150/150/150
f 151/151/151 148/148/148 146/146/146
f 151/151/151 152/152/152 148/148/148
f 155/155/155 154/154/154 153/153/153
f 156/156/156 155/155/155 153/153/153
f 159/159/159 158/158/158 157/157/157
f 160/160/160 159/159/159 157/157/157
f 163/163/163 162/162/162 161/161/161
f 164/164/164 163/163/163 161/161/161
f 167/167/167 166/166/166 165/165/165
f 168/168/168 167/167/167 165/165/165
f 169/169/169 167/167/167 168/168/168
f 170/170/170 169/169/169 168/168/168
f 173/173/173 172/172/172 171/171/171
f 174/174/174 173/173/173 171/171/171
f 177/177/177 176/176/176 175/175/175
f 178/178/178 177/177/177 175/175/175
f 181/181/181 180/180/180 179/179/179
f 182/182/182 181/181/181 179/179/179
f 185/185/185 184/184/184 183/183/183
f 186/186/186 185/185/185 183/183/183
f 189/189/189 188/188/188 187/187/187
f 190/190/190 189/189/189 187/187/187
f 193/193/193 192/192/192 191/191/191
f 194/194/194 193/193/193 191/191/191
f 197/197/197 196/196/196 195/195/195
f 198/198/198 197/197/197 195/195/195
f 201/201/201 200/200/200 199/199/199
f 200/200/200 202/202/202 199/199/199
f 199/199/199 202/202/202 203/203/203
f 202/202/202 204/204/204 203/203/203
f 204/204/204 205/205/205 203/203/203
f 208/208/208 207/207/207 206/206/206
f 209/209/209 208/208/208 206/206/206
f 210/210/210 207/207/207 208/208/208
f 211/211/211 208/208/208 209/209/209
f 212/212/212 210/210/210 208/208/208
f 213/213/213 211/211/211 209/209/209
f 210/210/210 212/212/212 214/214/214
f 212/212/212 215/215/215 214/214/214
f 214/214/214 215/215/215 216/216/216
f 217/217/217 214/214/214 216/216/216
f 216/216/216 218/218/218 217/217/217
f 218/218/218 219/219/219 217/217/217
f 220/220/220 211/211/211 213/213/213
f 221/221/221 220/220/220 213/213/213
f 220/220/220 221/221/221 222/222/222
f 223/223/223 220/220/220 222/222/222
f 223/223/223 222/222/222 224/224/224
f 225/225/225 223/223/223 224/224/224
f 225/225/225 224/224/224 226/226/226
f 219/219/219 218/218/218 227/227/227
f 227/227/227 225/225/225 226/226/226
f 228/228/228 219/219/219 227/227/227
f 227/227/227 226/226/226 229/229/229
f 228/228/228 227/227/227 229/229/229
f 232/232/232 231/231/231 230/230/230
f 232/232/232 230/230/230 233/233/233
f 231/231/231 234/234/234 230/230/230
f 230/230/230 235/235/235 233/233/233
f 234/234/234 231/231/231 236/236/236
f 233/233/233 235/235/235 237/237/237
f 238/238/238 234/234/234 236/236/236
f 238/238/238 236/236/236 239/239/239
f 235/235/235 240/240/240 237/237/237
f 241/241/241 238/238/238 239/239/239
f 237/237/237 240/240/240 242/242/242
f 240/240/240 243/243/243 242/242/242
f 244/244/244 243/243/243 240/240/240
f 245/245/245 244/244/244 240/240/240
f 241/241/241 239/239/239 246/246/246
f 247/247/247 241/241/241 246/246/246
f 247/247/247 248/248/248 241/241/241
f 248/248/248 249/249/249 241/241/241
f 249/249/249 248/248/248 250/250/250
f 251/251/251 249/249/249 250/250/250
f 244/244/244 245/245/245 252/252/252
f 251/251/251 250/250/250 252/252/252
f 245/245/245 253/253/253 252/252/252
f 253/253/253 251/251/251 252/252/252
