g t012v001_m
v 0.4730592 0.02694064 -0.3546867
v 0.4730592 0.9730594 -0.3546867
v 0.5 1 -0.5
v 0.5 0 -0.5
v 0.30196 0.9730594 -0.3546867
v 0.4730592 0.9730594 -0.3546867
v 0.4730592 0.02694064 -0.3546867
v 0.2323852 0.9290718 -0.3546867
v -0.4730587 0.02694064 -0.3546867
v -0.2323856 0.9290718 -0.3546867
v 0.1619344 0.9730594 -0.3546867
v -0.1619339 0.9730594 -0.3546867
v -0.30196 0.9730594 -0.3546867
v -0.4730587 0.9730594 -0.3546867
v 0.30196 0.9730594 -0.3546867
v 0.5 1 -0.5
v 0.4730592 0.9730594 -0.3546867
v 0.30196 1 -0.5
v 0.2323852 0.9290718 -0.3546867
v 0.2323852 0.9560125 -0.5
v 0.1619344 0.9730594 -0.3546867
v 0.1619344 1 -0.5
v -0.1619339 0.9730594 -0.3546867
v -0.1619339 1 -0.5
v -0.2323856 0.9560125 -0.5
v -0.2323856 0.9290718 -0.3546867
v -0.30196 1 -0.5
v -0.30196 0.9730594 -0.3546867
v -0.5 1 -0.5
v -0.4730587 0.9730594 -0.3546867
v 0.5 0 -0.5
v 0.5 1 -0.5
v 0.30196 1 -0.5
v 0.2323852 0.9560125 -0.5
v -0.2323856 0.9560125 -0.5
v -0.5 0 -0.5
v -0.1619339 1 -0.5
v 0.1619344 1 -0.5
v -0.30196 1 -0.5
v -0.5 1 -0.5
v -0.4730587 0.02694064 -0.3546867
v -0.5 0 -0.5
v -0.5 1 -0.5
v -0.4730587 0.9730594 -0.3546867
v 0.4730592 0.02694064 -0.3546867
v 0.5 0 -0.5
v -0.5 0 -0.5
v -0.4730587 0.02694064 -0.3546867
v -0.02977753 0.8644599 -0.3424492
v 0.3971801 0.8644599 -0.3424492
v 0.3971801 0.6919257 -0.3424492
v -0.01689172 0.2510652 -0.3424492
v -0.39779 0.2676733 -0.3424492
v -0.1923816 0.2390224 -0.3424492
v -0.3173485 0.1020044 -0.3424492
v -0.3979425 0.1020043 -0.3424492
vt 0.6791992 0.1876221
vt 0.3718262 0.1876221
vt 0.3632813 0.2836914
vt 0.6879883 0.2836914
vt 0.2810059 0.972168
vt 0.3398438 0.972168
vt 0.3398438 0.3222656
vt 0.2573242 0.9418945
vt 0.0153656 0.3222656
vt 0.09790039 0.9418945
vt 0.2330322 0.972168
vt 0.1220093 0.972168
vt 0.07403564 0.972168
vt 0.0153656 0.972168
vt 0.3034668 0.0418396
vt 0.3693848 0.1395264
vt 0.3601074 0.0418396
vt 0.3049316 0.1395264
vt 0.2751465 0.0418396
vt 0.2753906 0.1395264
vt 0.246582 0.0418396
vt 0.2458496 0.1395264
vt 0.1387939 0.0418396
vt 0.1396484 0.1395264
vt 0.1100464 0.1395264
vt 0.1102295 0.0418396
vt 0.08062744 0.1395264
vt 0.08190918 0.0418396
vt 0.01602173 0.1395264
vt 0.0252533 0.0418396
vt 0.3640137 0.3222656
vt 0.3640137 0.972168
vt 0.4284668 0.972168
vt 0.4511719 0.9433594
vt 0.6020508 0.9433594
vt 0.6889648 0.3222656
vt 0.5791016 0.972168
vt 0.473877 0.972168
vt 0.6245117 0.972168
vt 0.6889648 0.972168
vt 0.02610779 -0.8125
vt 0.01734924 -0.7163086
vt 0.3422852 -0.7163086
vt 0.3334961 -0.8125
vt 0.02610779 0.1876221
vt 0.01734924 0.2836914
vt 0.3422852 0.2836914
vt 0.3334961 0.1876221
vt 0.8383789 0.9790039
vt 0.9907227 0.9790039
vt 0.9907227 0.8554688
vt 0.8427734 0.5400391
vt 0.706543 0.5522461
vt 0.7802734 0.5317383
vt 0.7353516 0.4335938
vt 0.706543 0.4335938
vn 0.9833984 0 0.182251
vn 0.9833984 0 0.182251
vn 0.9833984 0 0.182251
vn 0.9833984 0 0.182251
vn 0 0 1
vn 0 0 1
vn 0 0 1
vn 0 0 1
vn 0 0 1
vn 0 0 1
vn 0 0 1
vn 0 0 1
vn 0 0 1
vn 0 0 1
vn 0 0.9833984 0.182251
vn 0 0.9833984 0.182251
vn 0 0.9833984 0.182251
vn 0 0.9833984 0.182251
vn -0.3891602 0.9057617 0.1679688
vn -0.421875 0.8916016 0.1652832
vn 0.7109375 0.6914063 0.1281738
vn 0.7109375 0.6914063 0.1281738
vn -0.7109375 0.6914063 0.1281738
vn -0.7109375 0.6914063 0.1281738
vn 0.421875 0.8916016 0.1652832
vn 0.3891602 0.9057617 0.1679688
vn 0 0.9833984 0.182251
vn 0 0.9833984 0.182251
vn 0 0.9833984 0.182251
vn 0 0.9833984 0.182251
vn 0 0 -1
vn 0 0 -1
vn 0 0 -1
vn 0 0 -1
vn 0 0 -1
vn 0 0 -1
vn 0 0 -1
vn 0 0 -1
vn 0 0 -1
vn 0 0 -1
vn -0.9833984 0 0.182251
vn -0.9833984 0 0.182251
vn -0.9833984 0 0.182251
vn -0.9833984 0 0.182251
vn 0 -0.9833984 0.182251
vn 0 -0.9833984 0.182251
vn 0 -0.9833984 0.182251
vn 0 -0.9833984 0.182251
vn 0 0 1
vn 0 0 1
vn 0 0 1
vn 0 0 1
vn 0 0 1
vn 0 0 1
vn 0 0 1
vn 0 0 1
g t012v001_m_0
f 3/3/3 2/2/2 1/1/1
f 4/4/4 3/3/3 1/1/1
f 7/7/7 6/6/6 5/5/5
f 7/7/7 5/5/5 8/8/8
f 7/7/7 8/8/8 9/9/9
f 8/8/8 10/10/10 9/9/9
f 10/10/10 8/8/8 11/11/11
f 12/12/12 10/10/10 11/11/11
f 9/9/9 10/10/10 13/13/13
f 9/9/9 13/13/13 14/14/14
f 17/17/17 16/16/16 15/15/15
f 16/16/16 18/18/18 15/15/15
f 15/15/15 18/18/18 19/19/19
f 18/18/18 20/20/20 19/19/19
f 19/19/19 20/20/20 21/21/21
f 20/20/20 22/22/22 21/21/21
f 23/23/23 21/21/21 22/22/22
f 24/24/24 23/23/23 22/22/22
f 24/24/24 25/25/25 23/23/23
f 25/25/25 26/26/26 23/23/23
f 25/25/25 27/27/27 26/26/26
f 27/27/27 28/28/28 26/26/26
f 27/27/27 29/29/29 28/28/28
f 29/29/29 30/30/30 28/28/28
f 33/33/33 32/32/32 31/31/31
f 34/34/34 33/33/33 31/31/31
f 34/34/34 31/31/31 35/35/35
f 31/31/31 36/36/36 35/35/35
f 35/35/35 37/37/37 34/34/34
f 37/37/37 38/38/38 34/34/34
f 39/39/39 35/35/35 36/36/36
f 40/40/40 39/39/39 36/36/36
f 43/43/43 42/42/42 41/41/41
f 44/44/44 43/43/43 41/41/41
f 47/47/47 46/46/46 45/45/45
f 48/48/48 47/47/47 45/45/45
f 51/51/51 50/50/50 49/49/49
f 51/51/51 49/49/49 52/52/52
f 49/49/49 53/53/53 52/52/52
f 53/53/53 54/54/54 52/52/52
f 53/53/53 55/55/55 54/54/54
f 56/56/56 55/55/55 53/53/53
