g t012v001_l
v 0.4730592 0.02694064 -0.3546867
v 0.4730592 0.9730594 -0.3546867
v 0.5 1 -0.5
v 0.5 0 -0.5
v 0.4730592 0.02694064 -0.3546867
v -0.4730587 0.02694064 -0.3546867
v -0.4730587 0.9730594 -0.3546867
v 0.4730592 0.9730594 -0.3546867
v 0.5 1 -0.5
v -0.5 1 -0.5
v -0.5 0 -0.5
v 0.5 0 -0.5
v -0.4730587 0.02694064 -0.3546867
v -0.5 0 -0.5
v -0.5 1 -0.5
v -0.4730587 0.9730594 -0.3546867
v 0.4730592 0.02694064 -0.3546867
v 0.5 0 -0.5
v -0.5 0 -0.5
v -0.4730587 0.02694064 -0.3546867
v -0.5 1 -0.5
v 0.5 1 -0.5
v 0.4730592 0.9730594 -0.3546867
v -0.4730587 0.9730594 -0.3546867
v -0.33836 0.03814209 -0.3424492
v -0.39779 0.2676733 -0.3424492
v -0.02977753 0.9190031 -0.3424492
v 0.4725527 0.8644599 -0.3424492
vt 0.6791992 0.1876221
vt 0.3718262 0.1876221
vt 0.3632813 0.2836914
vt 0.6879883 0.2836914
vt 0.3398438 0.3222656
vt 0.0153656 0.3222656
vt 0.0153656 0.972168
vt 0.3398438 0.972168
vt 0.3640137 0.972168
vt 0.6889648 0.972168
vt 0.6889648 0.3222656
vt 0.3640137 0.3222656
vt 0.02610779 -0.8125
vt 0.01734924 -0.7163086
vt 0.3422852 -0.7163086
vt 0.3334961 -0.8125
vt 0.02610779 0.1876221
vt 0.01734924 0.2836914
vt 0.3422852 0.2836914
vt 0.3334961 0.1876221
vt 0.01602173 0.1395264
vt 0.3693848 0.1395264
vt 0.3601074 0.0418396
vt 0.0252533 0.0418396
vt 0.7299805 0.4116211
vt 0.706543 0.5522461
vt 0.8383789 0.9790039
vt 1.032227 0.9814453
vn 0.9833984 0 0.182251
vn 0.9833984 0 0.182251
vn 0.9833984 0 0.182251
vn 0.9833984 0 0.182251
vn 0 0 1
vn 0 0 1
vn 0 0 1
vn 0 0 1
vn 0 0 -1
vn 0 0 -1
vn 0 0 -1
vn 0 0 -1
vn -0.9833984 0 0.182251
vn -0.9833984 0 0.182251
vn -0.9833984 0 0.182251
vn -0.9833984 0 0.182251
vn 0 -0.9833984 0.182251
vn 0 -0.9833984 0.182251
vn 0 -0.9833984 0.182251
vn 0 -0.9833984 0.182251
vn 0 0.9833984 0.182251
vn 0 0.9833984 0.182251
vn 0 0.9833984 0.182251
vn 0 0.9833984 0.182251
vn 0 0 1
vn 0 0 1
vn 0 0 1
vn 0 0 1
g t012v001_l_0
f 3/3/3 2/2/2 1/1/1
f 4/4/4 3/3/3 1/1/1
f 7/7/7 6/6/6 5/5/5
f 8/8/8 7/7/7 5/5/5
f 11/11/11 10/10/10 9/9/9
f 12/12/12 11/11/11 9/9/9
f 15/15/15 14/14/14 13/13/13
f 16/16/16 15/15/15 13/13/13
f 19/19/19 18/18/18 17/17/17
f 20/20/20 19/19/19 17/17/17
f 23/23/23 22/22/22 21/21/21
f 24/24/24 23/23/23 21/21/21
f 27/27/27 26/26/26 25/25/25
f 28/28/28 27/27/27 25/25/25
