g t015v001_l
v 0.49 1 0.9252205
v 0.49 1.467812 0.5000915
v 0.49 1 0.5000915
v -0.49 1 0.5000915
v -0.49 1.467812 0.5000915
v -0.49 1 0.9252205
v -0.5 -2.328306E-10 0.5
v -0.5 0.2921437 0.5
v 0.5 0.2921437 0.5
v 0.5 -2.328306E-10 0.5
v -0.5 0.2921437 0.5
v -0.5 0.2921437 -0.5
v 0.5 0.2921437 -0.5
v 0.5 0.2921437 0.5
v -0.5 0.2921437 -0.5
v -0.5 0 -0.5
v 0.5 0 -0.5
v 0.5 0.2921437 -0.5
v -0.5 0 -0.5
v -0.5 -2.328306E-10 0.5
v 0.5 -2.328306E-10 0.5
v 0.5 0 -0.5
v -0.5 0 -0.5
v -0.5 0.2921437 -0.5
v -0.5 0.2921437 0.5
v -0.5 -2.328306E-10 0.5
v 0.5 0.2921437 0.5
v 0.5 0.2921437 -0.5
v 0.5 0 -0.5
v 0.5 -2.328306E-10 0.5
v -0.07601833 0.2820739 0.4793314
v -0.07601833 0.8576612 0.4793314
v 0.07601738 0.8576612 0.4793314
v 0.07601738 0.2820739 0.4793314
v -0.5 0.2921437 0.5
v -0.5 0.8498957 0.5
v -0.3929062 0.8498957 0.5
v -0.3929062 0.2921437 0.5
v -0.5 0.8498957 -0.5
v -0.5 0.2921436 -0.5
v -0.3929062 0.2921436 -0.5
v -0.3929062 0.8498957 -0.5
v -0.5 0.2921436 -0.5
v -0.5 0.8498957 -0.5
v -0.5 0.8498957 0.5
v -0.5 0.2921437 0.5
v -0.3929062 0.8498957 -0.5
v -0.3929062 0.2921436 -0.5
v -0.3929062 0.2921437 0.5
v -0.3929062 0.8498957 0.5
v 0.5 0.2921436 0.5
v 0.3929052 0.2921436 0.5
v 0.3929052 0.8498958 0.5
v 0.5 0.8498958 0.5
v 0.5 0.8498958 -0.5
v 0.3929052 0.8498958 -0.5
v 0.3929052 0.2921437 -0.5
v 0.5 0.2921437 -0.5
v 0.5 0.2921437 -0.5
v 0.5 0.2921436 0.5
v 0.5 0.8498958 0.5
v 0.5 0.8498958 -0.5
v 0.3929052 0.8498958 -0.5
v 0.3929052 0.8498958 0.5
v 0.3929052 0.2921436 0.5
v 0.3929052 0.2921437 -0.5
v -0.3988495 0.4988617 0.4619476
v -0.3988495 0.6414678 0.4619476
v 0.3988485 0.6414678 0.4619476
v 0.3988485 0.4988617 0.4619476
v -0.5 0.8498958 0.5
v -0.5 1 0.5
v 0.5 1 0.5
v 0.5 0.8498958 0.5
v -0.5 1 0.5
v -0.5 1 -0.5
v 0.5 1 -0.5
v 0.5 1 0.5
v -0.5 1 -0.5
v -0.5 0.8498958 -0.5
v 0.5 0.8498958 -0.5
v 0.5 1 -0.5
v -0.5 0.8498958 -0.5
v -0.5 0.8498958 0.5
v 0.5 0.8498958 0.5
v 0.5 0.8498958 -0.5
v -0.5 0.8498958 -0.5
v -0.5 1 -0.5
v -0.5 1 0.5
v -0.5 0.8498958 0.5
v 0.5 1 0.5
v 0.5 1 -0.5
v 0.5 0.8498958 -0.5
v 0.5 0.8498958 0.5
v -0.49 1 0.9252205
v -0.49 1.467812 0.5000915
v 0.49 1.467812 0.5000915
v 0.49 1 0.9252205
v -0.5 1 0.4875298
v -0.49 1 0.9252205
v 0.49 1 0.9252205
v 0.49 1 0.5000915
v -0.49 1.467812 0.5000915
v -0.49 1 0.5000915
v 0.49 1 0.5000915
v 0.49 1.467812 0.5000915
v -0.07601833 0.2820739 0.457173
v 0.07601738 0.2820739 0.457173
v 0.07601738 0.8576612 0.457173
v -0.07601833 0.8576612 0.457173
v -0.3988495 0.4988617 0.4167163
v 0.3988485 0.4988617 0.4167163
v 0.3988485 0.6414678 0.4167163
v -0.3988495 0.6414678 0.4167163
vt 0.3308105 0.8989258
vt 0.4699707 0.9716797
vt 0.4284668 0.8989258
vt 0.3513184 0.7963867
vt 0.3088379 0.8710938
vt 0.4521484 0.7963867
vt 0.7392578 0.02442932
vt 0.7392578 0.1705322
vt 0.9892578 0.1705322
vt 0.9892578 0.02442932
vt 0.4604492 0.02629089
vt 0.4604492 0.765625
vt 0.7236328 0.765625
vt 0.7236328 0.02629089
vt 0.9892578 0.1705322
vt 0.9892578 0.02442932
vt 0.7392578 0.02442932
vt 0.7392578 0.1705322
vt 0.7236328 0.765625
vt 0.7236328 0.02629089
vt 0.4604492 0.02629089
vt 0.4604492 0.765625
vt 0.07879639 0.02679443
vt 0.07879639 0.1728516
vt 0.442627 0.1728516
vt 0.442627 0.02679443
vt 0.07879639 0.1728516
vt 0.442627 0.1728516
vt 0.442627 0.02679443
vt 0.07879639 0.02679443
vt 0.01376343 0.3522949
vt 0.01376343 0.6547852
vt 0.05175781 0.6547852
vt 0.05175781 0.3522949
vt 0.07940674 0.3522949
vt 0.07940674 0.6547852
vt 0.1062012 0.6547852
vt 0.1062012 0.3522949
vt 0.1062012 0.6547852
vt 0.1062012 0.3522949
vt 0.07940674 0.3522949
vt 0.07940674 0.6547852
vt 0.1469727 0.3522949
vt 0.1469727 0.6547852
vt 0.4401855 0.6547852
vt 0.4401855 0.3522949
vt 0.4401855 0.6547852
vt 0.4401855 0.3522949
vt 0.1469727 0.3522949
vt 0.1469727 0.6547852
vt 0.1062012 0.3522949
vt 0.07940674 0.3522949
vt 0.07940674 0.6547852
vt 0.1062012 0.6547852
vt 0.07940674 0.6547852
vt 0.1062012 0.6547852
vt 0.1062012 0.3522949
vt 0.07940674 0.3522949
vt 0.4401855 0.3522949
vt 0.1469727 0.3522949
vt 0.1469727 0.6547852
vt 0.4401855 0.6547852
vt 0.1469727 0.6547852
vt 0.4401855 0.6547852
vt 0.4401855 0.3522949
vt 0.1469727 0.3522949
vt 0.5244141 0.8017578
vt 0.5244141 0.8730469
vt 0.7236328 0.8730469
vt 0.7236328 0.8017578
vt 0.7392578 0.2142334
vt 0.7392578 0.2893066
vt 0.9892578 0.2893066
vt 0.9892578 0.2142334
vt 0.4604492 0.02629089
vt 0.4604492 0.765625
vt 0.7236328 0.765625
vt 0.7236328 0.02629089
vt 0.9892578 0.2893066
vt 0.9892578 0.2142334
vt 0.7392578 0.2142334
vt 0.7392578 0.2893066
vt 0.7236328 0.765625
vt 0.7236328 0.02629089
vt 0.4604492 0.02629089
vt 0.4604492 0.765625
vt 0.1051636 0.2254639
vt 0.1051636 0.3005371
vt 0.4418945 0.3005371
vt 0.4418945 0.2254639
vt 0.1051636 0.3005371
vt 0.4418945 0.3005371
vt 0.4418945 0.2254639
vt 0.1051636 0.2254639
vt 0.7392578 0.4384766
vt 0.7392578 0.7407227
vt 0.9892578 0.7407227
vt 0.9892578 0.4384766
vt 0.9892578 0.9775391
vt 0.9892578 0.7714844
vt 0.7392578 0.7714844
vt 0.7392578 0.9775391
vt 0.262207 0.9736328
vt 0.262207 0.8959961
vt 0.01229095 0.8959961
vt 0.01229095 0.9736328
vt 0.01376343 0.3522949
vt 0.05175781 0.3522949
vt 0.05175781 0.6547852
vt 0.01376343 0.6547852
vt 0.5244141 0.8017578
vt 0.7236328 0.8017578
vt 0.7236328 0.8730469
vt 0.5244141 0.8730469
vn 1 0 0
vn 1 0 0
vn 1 0 0
vn -1 0 0
vn -1 0 0
vn -1 0 0
vn 0 0 1
vn 0 0 1
vn 0 0 1
vn 0 0 1
vn 0 1 0
vn 0 1 0
vn 0 1 0
vn 0 1 0
vn 0 0 -1
vn 0 0 -1
vn 0 0 -1
vn 0 0 -1
vn 0 -1 0
vn 0 -1 0
vn 0 -1 0
vn 0 -1 0
vn -1 0 0
vn -1 0 0
vn -1 0 0
vn -1 0 0
vn 1 0 0
vn 1 0 0
vn 1 0 0
vn 1 0 0
vn 0 0 1
vn 0 0 1
vn 0 0 1
vn 0 0 1
vn 0 0 1
vn 0 0 1
vn 0 0 1
vn 0 0 1
vn 0 0 -1
vn 0 0 -1
vn 0 0 -1
vn 0 0 -1
vn -1 0 0
vn -1 0 0
vn -1 0 0
vn -1 0 0
vn 1 0 0
vn 1 0 0
vn 1 0 0
vn 1 0 0
vn 0 0 1
vn 0 0 1
vn 0 0 1
vn 0 0 1
vn 0 0 -1
vn 0 0 -1
vn 0 0 -1
vn 0 0 -1
vn 1 0 0
vn 1 0 0
vn 1 0 0
vn 1 0 0
vn -1 0 0
vn -1 0 0
vn -1 0 0
vn -1 0 0
vn 0 0 1
vn 0 0 1
vn 0 0 1
vn 0 0 1
vn 0 0 1
vn 0 0 1
vn 0 0 1
vn 0 0 1
vn 0 1 0
vn 0 1 0
vn 0 1 0
vn 0 1 0
vn 0 0 -1
vn 0 0 -1
vn 0 0 -1
vn 0 0 -1
vn 0 -1 0
vn 0 -1 0
vn 0 -1 0
vn 0 -1 0
vn -1 0 0
vn -1 0 0
vn -1 0 0
vn -1 0 0
vn 1 0 0
vn 1 0 0
vn 1 0 0
vn 1 0 0
vn 0 0.7333984 0.6796875
vn 0 0.7333984 0.6796875
vn 0 0.7333984 0.6796875
vn 0 0.7333984 0.6796875
vn 0 -1 0
vn 0 -1 0
vn 0 -1 0
vn 0 -1 0
vn 0 0 -1
vn 0 0 -1
vn 0 0 -1
vn 0 0 -1
vn 0 0 -1
vn 0 0 -1
vn 0 0 -1
vn 0 0 -1
vn 0 0 -1
vn 0 0 -1
vn 0 0 -1
vn 0 0 -1
g t015v001_l_0
f 3/3/3 2/2/2 1/1/1
f 6/6/6 5/5/5 4/4/4
f 9/9/9 8/8/8 7/7/7
f 10/10/10 9/9/9 7/7/7
f 13/13/13 12/12/12 11/11/11
f 14/14/14 13/13/13 11/11/11
f 17/17/17 16/16/16 15/15/15
f 18/18/18 17/17/17 15/15/15
f 21/21/21 20/20/20 19/19/19
f 22/22/22 21/21/21 19/19/19
f 25/25/25 24/24/24 23/23/23
f 26/26/26 25/25/25 23/23/23
f 29/29/29 28/28/28 27/27/27
f 30/30/30 29/29/29 27/27/27
f 33/33/33 32/32/32 31/31/31
f 34/34/34 33/33/33 31/31/31
f 37/37/37 36/36/36 35/35/35
f 38/38/38 37/37/37 35/35/35
f 41/41/41 40/40/40 39/39/39
f 42/42/42 41/41/41 39/39/39
f 45/45/45 44/44/44 43/43/43
f 46/46/46 45/45/45 43/43/43
f 49/49/49 48/48/48 47/47/47
f 50/50/50 49/49/49 47/47/47
f 53/53/53 52/52/52 51/51/51
f 54/54/54 53/53/53 51/51/51
f 57/57/57 56/56/56 55/55/55
f 58/58/58 57/57/57 55/55/55
f 61/61/61 60/60/60 59/59/59
f 62/62/62 61/61/61 59/59/59
f 65/65/65 64/64/64 63/63/63
f 66/66/66 65/65/65 63/63/63
f 69/69/69 68/68/68 67/67/67
f 70/70/70 69/69/69 67/67/67
f 73/73/73 72/72/72 71/71/71
f 74/74/74 73/73/73 71/71/71
f 77/77/77 76/76/76 75/75/75
f 78/78/78 77/77/77 75/75/75
f 81/81/81 80/80/80 79/79/79
f 82/82/82 81/81/81 79/79/79
f 85/85/85 84/84/84 83/83/83
f 86/86/86 85/85/85 83/83/83
f 89/89/89 88/88/88 87/87/87
f 90/90/90 89/89/89 87/87/87
f 93/93/93 92/92/92 91/91/91
f 94/94/94 93/93/93 91/91/91
f 97/97/97 96/96/96 95/95/95
f 98/98/98 97/97/97 95/95/95
f 101/101/101 100/100/100 99/99/99
f 102/102/102 101/101/101 99/99/99
f 105/105/105 104/104/104 103/103/103
f 106/106/106 105/105/105 103/103/103
f 109/109/109 108/108/108 107/107/107
f 110/110/110 109/109/109 107/107/107
f 113/113/113 112/112/112 111/111/111
f 114/114/114 113/113/113 111/111/111
