g t022v001_m
v -0.8723223 0.5207565 0.05856895
v -0.8723223 0.8391469 0.05856895
v -0.1276774 0.8391469 0.05856895
v -0.1276774 0.5207565 0.05856895
v -0.8723223 0.8391469 0.05856895
v -0.8723223 0.8391469 -0.05856895
v -0.1276774 0.8391469 -0.05856895
v -0.1276774 0.8391469 0.05856895
v -0.8723223 0.8391469 -0.05856895
v -0.8723223 0.5207565 -0.05856895
v -0.1276774 0.5207565 -0.05856895
v -0.1276774 0.8391469 -0.05856895
v -0.8723223 0.5207565 -0.05856895
v -0.8723223 0.5207565 0.05856895
v -0.1276774 0.5207565 0.05856895
v -0.1276774 0.5207565 -0.05856895
v -0.1276777 0.487314 0.101635
v -0.1276777 1.479318 0.101635
v 0 1.479318 0.101635
v 0 0.487314 0.101635
v -0.1276777 1.479318 0.101635
v -0.1276777 1.479318 -0.101635
v 0 1.479318 -0.101635
v 0 1.479318 0.101635
v -0.1276777 1.479318 -0.101635
v -0.1276777 0.487314 -0.101635
v 0 0.487314 -0.101635
v 0 1.479318 -0.101635
v -0.1276777 0.487314 -0.101635
v -0.1276777 0.487314 0.101635
v 0 0.487314 0.101635
v 0 0.487314 -0.101635
v 0 0.487314 0.101635
v 0 1.479318 0.101635
v 0 1.479318 -0.101635
v 0 0.487314 -0.101635
v -0.1276777 0.487314 -0.101635
v -0.1276777 1.479318 -0.101635
v -0.1276777 1.479318 0.101635
v -0.1276777 0.487314 0.101635
v -1 0.487314 0.101635
v -1 1.479318 0.101635
v -0.8723223 1.479318 0.101635
v -0.8723223 0.487314 0.101635
v -1 1.479318 0.101635
v -1 1.479318 -0.101635
v -0.8723223 1.479318 -0.101635
v -0.8723223 1.479318 0.101635
v -1 1.479318 -0.101635
v -1 0.487314 -0.101635
v -0.8723223 0.487314 -0.101635
v -0.8723223 1.479318 -0.101635
v -1 0.487314 -0.101635
v -1 0.487314 0.101635
v -0.8723223 0.487314 0.101635
v -0.8723223 0.487314 -0.101635
v -0.8723223 0.487314 0.101635
v -0.8723223 1.479318 0.101635
v -0.8723223 1.479318 -0.101635
v -0.8723223 0.487314 -0.101635
v -1 0.487314 -0.101635
v -1 1.479318 -0.101635
v -1 1.479318 0.101635
v -1 0.487314 0.101635
v -0.8723223 1.127356 0.05856895
v -0.8723223 1.445747 0.05856895
v -0.1276774 1.445747 0.05856895
v -0.1276774 1.127356 0.05856895
v -0.8723223 1.445747 0.05856895
v -0.8723223 1.445747 -0.05856895
v -0.1276774 1.445747 -0.05856895
v -0.1276774 1.445747 0.05856895
v -0.8723223 1.445747 -0.05856895
v -0.8723223 1.127356 -0.05856895
v -0.1276774 1.127356 -0.05856895
v -0.1276774 1.445747 -0.05856895
v -0.8723223 1.127356 -0.05856895
v -0.8723223 1.127356 0.05856895
v -0.1276774 1.127356 0.05856895
v -0.1276774 1.127356 -0.05856895
v -0.5637033 0.433151 0.03795242
v -0.5637033 1.553 0.03795242
v -0.4357598 1.553 0.03795242
v -0.4357598 0.433151 0.03795242
v -0.5637033 1.553 0.03795242
v -0.5637033 1.553 -0.03795624
v -0.4357598 1.553 -0.03795624
v -0.4357598 1.553 0.03795242
v -0.5637033 1.553 -0.03795624
v -0.5637033 0.433151 -0.03795624
v -0.4357598 0.433151 -0.03795624
v -0.4357598 1.553 -0.03795624
v -0.5637033 0.433151 -0.03795624
v -0.5637033 0.433151 0.03795242
v -0.4357598 0.433151 0.03795242
v -0.4357598 0.433151 -0.03795624
v -0.4357598 0.433151 0.03795242
v -0.4357598 1.553 0.03795242
v -0.4357598 1.553 -0.03795624
v -0.4357598 0.433151 -0.03795624
v -0.5637033 0.433151 -0.03795624
v -0.5637033 1.553 -0.03795624
v -0.5637033 1.553 0.03795242
v -0.5637033 0.433151 0.03795242
vt 0.5317383 0.0249176
vt 0.5317383 0.2159424
vt 0.9785156 0.2159424
vt 0.9785156 0.0249176
vt 0.5317383 0.4821777
vt 0.5317383 0.5527344
vt 0.9785156 0.5527344
vt 0.9785156 0.4821777
vt 0.5317383 0.2553711
vt 0.5317383 0.4462891
vt 0.9785156 0.4462891
vt 0.9785156 0.2553711
vt 0.5317383 0.5898438
vt 0.5317383 0.6601563
vt 0.9785156 0.6601563
vt 0.9785156 0.5898438
vt 0.4250488 0.01898193
vt 0.4250488 0.6142578
vt 0.5014648 0.6142578
vt 0.5014648 0.01898193
vt 0.9008789 0.8447266
vt 0.9008789 0.9667969
vt 0.9785156 0.9667969
vt 0.9785156 0.8447266
vt 0.5014648 0.6142578
vt 0.5014648 0.01898193
vt 0.4250488 0.01898193
vt 0.4250488 0.6142578
vt 0.9785156 0.9667969
vt 0.9785156 0.8447266
vt 0.9008789 0.8447266
vt 0.9008789 0.9667969
vt 0.0160675 0.02093506
vt 0.0160675 0.6162109
vt 0.1380615 0.6162109
vt 0.1380615 0.02093506
vt 0.168335 0.02093506
vt 0.168335 0.6162109
vt 0.2902832 0.6162109
vt 0.2902832 0.02093506
vt 0.3173828 0.01898193
vt 0.3173828 0.6142578
vt 0.394043 0.6142578
vt 0.394043 0.01898193
vt 0.9008789 0.6875
vt 0.9008789 0.8095703
vt 0.9785156 0.8095703
vt 0.9785156 0.6875
vt 0.394043 0.6142578
vt 0.394043 0.01898193
vt 0.3173828 0.01898193
vt 0.3173828 0.6142578
vt 0.9785156 0.8095703
vt 0.9785156 0.6875
vt 0.9008789 0.6875
vt 0.9008789 0.8095703
vt 0.168335 0.02093506
vt 0.168335 0.6162109
vt 0.2902832 0.6162109
vt 0.2902832 0.02093506
vt 0.0160675 0.02093506
vt 0.0160675 0.6162109
vt 0.1380615 0.6162109
vt 0.1380615 0.02093506
vt 0.5317383 0.2553711
vt 0.5317383 0.4462891
vt 0.9785156 0.4462891
vt 0.9785156 0.2553711
vt 0.5317383 0.5898438
vt 0.5317383 0.6601563
vt 0.9785156 0.6601563
vt 0.9785156 0.5898438
vt 0.5317383 0.0249176
vt 0.5317383 0.2159424
vt 0.9785156 0.2159424
vt 0.9785156 0.0249176
vt 0.5317383 0.4821777
vt 0.5317383 0.5527344
vt 0.9785156 0.5527344
vt 0.9785156 0.4821777
vt 0.0317688 0.8598633
vt 0.7036133 0.8598633
vt 0.7036133 0.7832031
vt 0.0317688 0.7832031
vt 0.7285156 0.8598633
vt 0.7739258 0.8598633
vt 0.7739258 0.7832031
vt 0.7285156 0.7832031
vt 0.7036133 0.7832031
vt 0.0317688 0.7832031
vt 0.0317688 0.8598633
vt 0.7036133 0.8598633
vt 0.7739258 0.7832031
vt 0.7285156 0.7832031
vt 0.7285156 0.8598633
vt 0.7739258 0.8598633
vt 0.0317688 0.7421875
vt 0.7036133 0.7421875
vt 0.7036133 0.6962891
vt 0.0317688 0.6962891
vt 0.0317688 0.7421875
vt 0.7036133 0.7421875
vt 0.7036133 0.6962891
vt 0.0317688 0.6962891
vn 0 0 1
vn 0 0 1
vn 0 0 1
vn 0 0 1
vn 0 1 0
vn 0 1 0
vn 0 1 0
vn 0 1 0
vn 0 0 -1
vn 0 0 -1
vn 0 0 -1
vn 0 0 -1
vn 0 -1 0
vn 0 -1 0
vn 0 -1 0
vn 0 -1 0
vn 0 0 1
vn 0 0 1
vn 0 0 1
vn 0 0 1
vn 0 1 0
vn 0 1 0
vn 0 1 0
vn 0 1 0
vn 0 0 -1
vn 0 0 -1
vn 0 0 -1
vn 0 0 -1
vn 0 -1 0
vn 0 -1 0
vn 0 -1 0
vn 0 -1 0
vn 1 0 0
vn 1 0 0
vn 1 0 0
vn 1 0 0
vn -1 0 0
vn -1 0 0
vn -1 0 0
vn -1 0 0
vn 0 0 1
vn 0 0 1
vn 0 0 1
vn 0 0 1
vn 0 1 0
vn 0 1 0
vn 0 1 0
vn 0 1 0
vn 0 0 -1
vn 0 0 -1
vn 0 0 -1
vn 0 0 -1
vn 0 -1 0
vn 0 -1 0
vn 0 -1 0
vn 0 -1 0
vn 1 0 0
vn 1 0 0
vn 1 0 0
vn 1 0 0
vn -1 0 0
vn -1 0 0
vn -1 0 0
vn -1 0 0
vn 0 0 1
vn 0 0 1
vn 0 0 1
vn 0 0 1
vn 0 1 0
vn 0 1 0
vn 0 1 0
vn 0 1 0
vn 0 0 -1
vn 0 0 -1
vn 0 0 -1
vn 0 0 -1
vn 0 -1 0
vn 0 -1 0
vn 0 -1 0
vn 0 -1 0
vn 0 0 1
vn 0 0 1
vn 0 0 1
vn 0 0 1
vn 0 1 0
vn 0 1 0
vn 0 1 0
vn 0 1 0
vn 0 0 -1
vn 0 0 -1
vn 0 0 -1
vn 0 0 -1
vn 0 -1 0
vn 0 -1 0
vn 0 -1 0
vn 0 -1 0
vn 1 0 0
vn 1 0 0
vn 1 0 0
vn 1 0 0
vn -1 0 0
vn -1 0 0
vn -1 0 0
vn -1 0 0
g t022v001_m_0
f 3/3/3 2/2/2 1/1/1
f 4/4/4 3/3/3 1/1/1
f 7/7/7 6/6/6 5/5/5
f 8/8/8 7/7/7 5/5/5
f 11/11/11 10/10/10 9/9/9
f 12/12/12 11/11/11 9/9/9
f 15/15/15 14/14/14 13/13/13
f 16/16/16 15/15/15 13/13/13
f 19/19/19 18/18/18 17/17/17
f 20/20/20 19/19/19 17/17/17
f 23/23/23 22/22/22 21/21/21
f 24/24/24 23/23/23 21/21/21
f 27/27/27 26/26/26 25/25/25
f 28/28/28 27/27/27 25/25/25
f 31/31/31 30/30/30 29/29/29
f 32/32/32 31/31/31 29/29/29
f 35/35/35 34/34/34 33/33/33
f 36/36/36 35/35/35 33/33/33
f 39/39/39 38/38/38 37/37/37
f 40/40/40 39/39/39 37/37/37
f 43/43/43 42/42/42 41/41/41
f 44/44/44 43/43/43 41/41/41
f 47/47/47 46/46/46 45/45/45
f 48/48/48 47/47/47 45/45/45
f 51/51/51 50/50/50 49/49/49
f 52/52/52 51/51/51 49/49/49
f 55/55/55 54/54/54 53/53/53
f 56/56/56 55/55/55 53/53/53
f 59/59/59 58/58/58 57/57/57
f 60/60/60 59/59/59 57/57/57
f 63/63/63 62/62/62 61/61/61
f 64/64/64 63/63/63 61/61/61
f 67/67/67 66/66/66 65/65/65
f 68/68/68 67/67/67 65/65/65
f 71/71/71 70/70/70 69/69/69
f 72/72/72 71/71/71 69/69/69
f 75/75/75 74/74/74 73/73/73
f 76/76/76 75/75/75 73/73/73
f 79/79/79 78/78/78 77/77/77
f 80/80/80 79/79/79 77/77/77
f 83/83/83 82/82/82 81/81/81
f 84/84/84 83/83/83 81/81/81
f 87/87/87 86/86/86 85/85/85
f 88/88/88 87/87/87 85/85/85
f 91/91/91 90/90/90 89/89/89
f 92/92/92 91/91/91 89/89/89
f 95/95/95 94/94/94 93/93/93
f 96/96/96 95/95/95 93/93/93
f 99/99/99 98/98/98 97/97/97
f 100/100/100 99/99/99 97/97/97
f 103/103/103 102/102/102 101/101/101
f 104/104/104 103/103/103 101/101/101
