g t024v001_l
v -0.3477921 0 0.1660239
v -0.3477921 0.30929 0.1660239
v 0.3477923 0.30929 0.1660239
v 0.3477923 0 0.1660239
v -0.3477921 0.30929 -0.4671547
v -0.3477921 0 -0.4671547
v 0.3477923 0 -0.4671547
v 0.3477923 0.30929 -0.4671547
v 0.3477923 0 0.1660239
v 0.3477923 0.30929 0.1660239
v 0.3477923 0.30929 -0.4671547
v 0.3477923 0 -0.4671547
v -0.3477921 0 -0.4671547
v -0.3477921 0.30929 -0.4671547
v -0.3477921 0.30929 0.1660239
v -0.3477921 0 0.1660239
v -0.2692895 0.9005676 -0.4671547
v -0.1749969 1.592959 -0.4671547
v -0.1749969 1.592959 -0.2597083
v -0.2692895 0.9005676 0.1252645
v -0.1749969 1.592959 -0.4671547
v -0.2692895 0.9005676 -0.4671547
v 0.2692895 0.9005676 -0.4671547
v 0.1749969 1.592959 -0.4671547
v 0.2692895 0.9005676 -0.4671547
v 0.2692895 0.9005676 0.1252645
v 0.1749969 1.592959 -0.2597083
v 0.1749969 1.592959 -0.4671547
v -0.1749969 1.592959 -0.2597083
v -0.1749969 1.592959 -0.4671547
v 0.1749969 1.592959 -0.4671547
v 0.1749969 1.592959 -0.2597083
v -0.3477921 0.30929 -0.4671547
v -0.2692895 0.9005676 -0.4671547
v -0.2692895 0.9005676 0.1252645
v -0.3477921 0.30929 0.1660239
v -0.2692895 0.9005676 -0.4671547
v -0.3477921 0.30929 -0.4671547
v 0.3477923 0.30929 -0.4671547
v 0.2692895 0.9005676 -0.4671547
v 0.3477923 0.30929 0.1660239
v 0.2692895 0.9005676 0.1252645
v 0.2692895 0.9005676 -0.4671547
v 0.3477923 0.30929 -0.4671547
v -0.3477921 0.30929 0.1660239
v -0.2692895 0.9005676 0.1252645
v 0 0.9605647 0.1252645
v 0.3477923 0.30929 0.1660239
v 0.2692895 0.9005676 0.1252645
v -0.1749969 1.592959 -0.2597083
v 0 0.9605647 0.1252645
v -0.2692895 0.9005676 0.1252645
v 0.1749969 1.592959 -0.2597083
v 0.2692895 0.9005676 0.1252645
v -0.3477921 0 -0.4671547
v -0.3477921 0 0.1660239
v 0.3477923 0 0.1660239
v 0.3477923 0 -0.4671547
vt 0.4389648 0.01602173
vt 0.4389648 0.1077271
vt 0.840332 0.1077271
vt 0.840332 0.01602173
vt 0.4345703 0.7241211
vt 0.4484863 0.628418
vt 0.03591919 0.628418
vt 0.04977417 0.7241211
vt 0.01187897 0.01602173
vt 0.01187897 0.1077271
vt 0.3830566 0.1077271
vt 0.3830566 0.01602173
vt 0.3830566 0.01602173
vt 0.3830566 0.1077271
vt 0.01187897 0.1077271
vt 0.01187897 0.01602173
vt 0.3830566 0.4140625
vt 0.3830566 0.6000977
vt 0.2612305 0.6000977
vt 0.05926514 0.4140625
vt 0.7597656 0.8613281
vt 0.7915039 0.6645508
vt 0.5200195 0.6645508
vt 0.5517578 0.8613281
vt 0.3830566 0.4140625
vt 0.05926514 0.4140625
vt 0.2612305 0.6000977
vt 0.3830566 0.6000977
vt 0.07141113 0.9316406
vt 0.07141113 0.9887695
vt 0.2763672 0.9887695
vt 0.2763672 0.9316406
vt 0.3830566 0.1669922
vt 0.3830566 0.3344727
vt 0.0357666 0.3344727
vt 0.0357666 0.1669922
vt 0.4240723 0.9145508
vt 0.4240723 0.746582
vt 0.06707764 0.746582
vt 0.06707764 0.9145508
vt 0.0357666 0.1669922
vt 0.0357666 0.3344727
vt 0.3830566 0.3344727
vt 0.3830566 0.1669922
vt 0.4660645 0.1669922
vt 0.4660645 0.3344727
vt 0.6396484 0.3522949
vt 0.8129883 0.1669922
vt 0.8129883 0.3344727
vt 0.5556641 0.605957
vt 0.6396484 0.4331055
vt 0.5112305 0.4177246
vt 0.7231445 0.605957
vt 0.7680664 0.4177246
vt 0.9814453 0.9912109
vt 0.9814453 0.8798828
vt 0.7729492 0.8798828
vt 0.7729492 0.9912109
vn 0 0 1
vn 0 0 1
vn 0 0 1
vn 0 0 1
vn 0 0 -1
vn 0 0 -1
vn 0 0 -1
vn 0 0 -1
vn 1 0 0
vn 1 0 0
vn 1 0 0
vn 1 0 0
vn -1 0 0
vn -1 0 0
vn -1 0 0
vn -1 0 0
vn -0.9907227 0.1348877 0
vn -0.9907227 0.1348877 0
vn -0.9907227 0.1348877 0
vn -0.9907227 0.1348877 0
vn 0 0 -1
vn 0 0 -1
vn 0 0 -1
vn 0 0 -1
vn 0.9907227 0.1348877 0
vn 0.9907227 0.1348877 0
vn 0.9907227 0.1348877 0
vn 0.9907227 0.1348877 0
vn 0 1 0
vn 0 1 0
vn 0 1 0
vn 0 1 0
vn -0.9912109 0.1315918 0
vn -0.9912109 0.1315918 0
vn -0.9912109 0.1315918 0
vn -0.9912109 0.1315918 0
vn 0 0 -1
vn 0 0 -1
vn 0 0 -1
vn 0 0 -1
vn 0.9912109 0.1315918 0
vn 0.9912109 0.1315918 0
vn 0.9912109 0.1315918 0
vn 0.9912109 0.1315918 0
vn 0 0.06246948 0.9980469
vn -0.01577759 0.07086182 0.9975586
vn 0 0.06246948 0.9980469
vn 0 0.06246948 0.9980469
vn 0.01577759 0.07086182 0.9975586
vn -0.01937866 0.5161133 0.8564453
vn 0 0.5009766 0.8652344
vn -0.1101685 0.4943848 0.8623047
vn 0.01937866 0.5161133 0.8564453
vn 0.1101685 0.4943848 0.8623047
vn 0 -1 0
vn 0 -1 0
vn 0 -1 0
vn 0 -1 0
g t024v001_l_0
f 3/3/3 2/2/2 1/1/1
f 4/4/4 3/3/3 1/1/1
f 7/7/7 6/6/6 5/5/5
f 8/8/8 7/7/7 5/5/5
f 11/11/11 10/10/10 9/9/9
f 12/12/12 11/11/11 9/9/9
f 15/15/15 14/14/14 13/13/13
f 16/16/16 15/15/15 13/13/13
f 19/19/19 18/18/18 17/17/17
f 20/20/20 19/19/19 17/17/17
f 23/23/23 22/22/22 21/21/21
f 24/24/24 23/23/23 21/21/21
f 27/27/27 26/26/26 25/25/25
f 28/28/28 27/27/27 25/25/25
f 31/31/31 30/30/30 29/29/29
f 32/32/32 31/31/31 29/29/29
f 35/35/35 34/34/34 33/33/33
f 36/36/36 35/35/35 33/33/33
f 39/39/39 38/38/38 37/37/37
f 40/40/40 39/39/39 37/37/37
f 43/43/43 42/42/42 41/41/41
f 44/44/44 43/43/43 41/41/41
f 47/47/47 46/46/46 45/45/45
f 48/48/48 47/47/47 45/45/45
f 48/48/48 49/49/49 47/47/47
f 52/52/52 51/51/51 50/50/50
f 51/51/51 53/53/53 50/50/50
f 51/51/51 54/54/54 53/53/53
f 57/57/57 56/56/56 55/55/55
f 58/58/58 57/57/57 55/55/55
