g t037v001_l
v 0.06819589 0 0.2278287
v 0.1533526 0 0.438704
v 0.2808372 0 0.1427369
v 0.3688423 0 0.360248
v 0.2808372 0 0.1427369
v 0.1533526 0 0.438704
v 0.2808372 0 0.1427369
v 0.3688423 0 0.360248
v 0.3679366 0.3171921 0.3600834
v 0.2811085 0.3171921 0.1422918
v 0.06819589 0 0.2278287
v 0.06843524 0.3171921 0.2286784
v 0.06843524 0.3171921 0.2286784
v 0.1533526 0 0.438704
v 0.06819589 0 0.2278287
v 0.1530814 0.3171921 0.4385053
v 0.3688423 0 0.360248
v 0.3679366 0.3171921 0.3600834
v 0.3679366 0.3171921 0.3600834
v 0.2194989 0.1610391 0.2912585
v 0.2811085 0.3171921 0.1422918
v 0.06843524 0.3171921 0.2286784
v 0.2194989 0.1610391 0.2912585
v 0.1530814 0.3171921 0.4385053
v 0.06843524 0.3171921 0.2286784
v 0.3679366 0.3171921 0.3600834
v 0.4045721 0.2324141 0.4016762
v 0.3384787 0.2324141 0.3697515
v 0.3524319 0.2633436 0.3562889
v 0.4394917 0.2633436 0.3950958
v 0.3562293 0.2324141 0.3380051
v 0.421625 0.2324141 0.3651047
v 0.421625 0.09893486 0.3651047
v 0.4394917 0.086743 0.3950958
v 0.3591451 0.06022813 0.3363762
v 0.4045721 0.09893486 0.4016762
v 0.3555032 0.03067572 0.3561971
v 0.3403478 0.06022813 0.3710124
v -0.3300295 0.02571615 -0.03646088
v -0.2060845 -0.003141213 0.1988037
v -0.125334 0.02571615 -0.05513228
v 0.02967596 0.02571615 0.07396698
v 0.0504994 0.01682008 0.2722142
v -0.08074772 0.02571615 0.43367
v -0.4604827 0.03459593 0.1247675
v -0.2060845 -0.003141213 0.1988037
v -0.3300295 0.02571615 -0.03646088
v -0.4404514 0.02571615 0.323246
v -0.2854432 0.02571615 0.4523377
v -0.08074772 0.02571615 0.43367
v 0.4147073 0.0257161 -0.3850632
v 0.2076411 -0.003155513 -0.217983
v 0.4721902 0.0257161 -0.1896398
v 0.3747137 0.0257161 -0.01091766
v 0.1825726 0.0257161 0.04689198
v 0.0005736351 0.0257161 -0.05091095
v 0.2327083 0.0257161 -0.4828661
v 0.2076411 -0.003155513 -0.217983
v 0.4147073 0.0257161 -0.3850632
v 0.0405643 0.0257161 -0.4250488
v -0.05690923 0.0257161 -0.2463344
v 0.0005736351 0.0257161 -0.05091095
v 0.2076411 0.01268622 -0.217983
v 0.3747137 0.0257161 -0.01091766
v 0.1825726 0.0257161 0.04689198
v 0.0005736351 0.0257161 -0.05091095
v 0.4721902 0.0257161 -0.1896398
v -0.05690923 0.0257161 -0.2463344
v 0.4147073 0.0257161 -0.3850632
v 0.0405643 0.0257161 -0.4250488
v 0.2327083 0.0257161 -0.4828661
v -0.2054842 0.01268821 0.1986317
v 0.02967596 0.02571615 0.07396698
v 0.0504994 0.01682008 0.2722142
v -0.08074772 0.02571615 0.43367
v -0.125334 0.02571615 -0.05513228
v -0.2854432 0.02571615 0.4523377
v -0.3300295 0.02571615 -0.03646088
v -0.4404514 0.02571615 0.323246
v -0.4604827 0.03459593 0.1247675
vt 0.9589844 0.7314453
vt 0.8720703 0.9716797
vt 0.8720703 0.5854492
vt 0.9526367 0.8764648
vt 0.8720703 0.5854492
vt 0.8720703 0.9716797
vt 0.211792 0.4958496
vt 0.009567261 0.4958496
vt 0.009567261 0.8793945
vt 0.211792 0.8793945
vt 0.3122559 0.4958496
vt 0.3122559 0.8793945
vt 0.03530884 0.8793945
vt 0.211792 0.4958496
vt 0.03530884 0.4958496
vt 0.211792 0.8793945
vt 0.3122559 0.4958496
vt 0.3122559 0.8793945
vt 0.2927246 0.4375
vt 0.1374512 0.1253662
vt 0.1072388 0.4375
vt 0.01229858 0.4375
vt 0.1296387 0.1253662
vt 0.1072388 0.4375
vt 0.2695313 0.4375
vt 0.01229858 0.4375
vt 0.7094727 0.434082
vt 0.7094727 0.5283203
vt 0.7314453 0.5283203
vt 0.7314453 0.4443359
vt 0.7553711 0.5283203
vt 0.7553711 0.434082
vt 0.7553711 0.2276611
vt 0.7314453 0.2233887
vt 0.7553711 0.08001709
vt 0.7094727 0.2280273
vt 0.7314453 0.07958984
vt 0.7094727 0.08331299
vt 0.9863281 0.5795898
vt 0.9863281 0.3100586
vt 0.8696289 0.4448242
vt 0.8515625 0.3100586
vt 0.9189453 0.07641602
vt 0.9863281 0.0402832
vt 0.9189453 0.543457
vt 0.9863281 0.3100586
vt 0.9863281 0.5795898
vt 0.8515625 0.3100586
vt 0.8696289 0.1751709
vt 0.9863281 0.0402832
vt 0.9863281 0.5795898
vt 0.9863281 0.3100586
vt 0.8696289 0.4448242
vt 0.8515625 0.3100586
vt 0.9189453 0.07641602
vt 0.9863281 0.0402832
vt 0.9189453 0.543457
vt 0.9863281 0.3100586
vt 0.9863281 0.5795898
vt 0.8515625 0.3100586
vt 0.8696289 0.1751709
vt 0.9863281 0.0402832
vt 0.4914551 0.5600586
vt 0.6420898 0.5600586
vt 0.6162109 0.3569336
vt 0.4914551 0.2529297
vt 0.6088867 0.7617188
vt 0.3725586 0.3544922
vt 0.4914551 0.855957
vt 0.3405762 0.5600586
vt 0.3779297 0.7592773
vt 0.4914551 0.5600586
vt 0.6420898 0.5600586
vt 0.6162109 0.3588867
vt 0.4914551 0.2541504
vt 0.6088867 0.7602539
vt 0.3725586 0.3564453
vt 0.4914551 0.8549805
vt 0.3405762 0.5600586
vt 0.3779297 0.7583008
vn -0.8896484 -0.2460938 -0.3847656
vn -0.3891602 -0.2514648 0.8862305
vn 0 -1 0
vn 0 -1 0
vn 0 -1 0
vn -0.3891602 -0.2514648 0.8862305
vn 0.4023438 0.001031876 -0.9155273
vn 0.918457 0.001247406 0.3959961
vn 0.9179688 0.001247406 0.3964844
vn 0.4025879 0.001031876 -0.9155273
vn -0.8896484 -0.2460938 -0.3847656
vn -0.918457 0.000330925 -0.3952637
vn -0.918457 0.000330925 -0.3952637
vn -0.3891602 -0.2514648 0.8862305
vn -0.8896484 -0.2460938 -0.3847656
vn -0.402832 0.000521183 0.9150391
vn 0.918457 0.001247406 0.3959961
vn 0.9179688 0.001247406 0.3964844
vn -0.6318359 0.7231445 -0.2790527
vn -0.01213837 1 0.006595612
vn -0.2756348 0.7182617 0.6386719
vn 0.6352539 0.7231445 0.2709961
vn -0.01213837 1 0.006595612
vn 0.2810059 0.71875 -0.6357422
vn 0.6352539 0.7231445 0.2709961
vn -0.6318359 0.7231445 -0.2790527
vn -0.005443573 0.2012939 0.9794922
vn -0.3554688 0.5302734 0.7695313
vn -0.03997803 0.9985352 0.0413208
vn 0.7875977 0.4875488 0.3762207
vn 0.3364258 0.5307617 -0.777832
vn 0.7299805 0.2009277 -0.6533203
vn 0.7949219 -0.2069092 -0.5703125
vn 0.8496094 -0.3322754 0.409668
vn 0.6103516 -0.5126953 -0.6040039
vn 0.08947754 -0.2127686 0.9731445
vn 0.4289551 -0.8642578 0.262207
vn -0.06829834 -0.5185547 0.8520508
vn -0.0713501 -0.9936523 -0.08428955
vn -0.01612854 -1 -0.004463196
vn 0.03182983 -0.9941406 -0.1028442
vn 0.08361816 -0.9941406 -0.07189941
vn 0.0715332 -0.9970703 0.02124023
vn 0.03041077 -0.9941406 0.105896
vn -0.1348877 -0.9902344 -0.0413208
vn -0.01612854 -1 -0.004463196
vn -0.0713501 -0.9936523 -0.08428955
vn -0.1065674 -0.9936523 0.02978516
vn -0.03173828 -0.9941406 0.1032104
vn 0.03041077 -0.9941406 0.105896
vn 0.08361816 -0.9941406 -0.06817627
vn 0 -1 0
vn 0.1072998 -0.9941406 0.01146698
vn 0.06817627 -0.9941406 0.08361816
vn -0.0112381 -0.9941406 0.1072998
vn -0.08361816 -0.9941406 0.06817627
vn 0.0112381 -0.9941406 -0.1072998
vn 0 -1 0
vn 0.08361816 -0.9941406 -0.06817627
vn -0.06817627 -0.9941406 -0.08361816
vn -0.1072388 -0.9941406 -0.01147461
vn -0.08361816 -0.9941406 0.06817627
vn 0 1 0
vn -0.03089905 0.9990234 -0.03790283
vn 0.005096436 0.9990234 -0.04864502
vn 0.03790283 0.9990234 -0.03089905
vn -0.04864502 0.9990234 -0.005199432
vn 0.04864502 0.9990234 0.005199432
vn -0.03790283 0.9990234 0.03089905
vn 0.03089905 0.9990234 0.03790283
vn -0.005096436 0.9990234 0.04864502
vn 0.0160675 1 0.00453949
vn -0.03186035 0.9985352 0.04425049
vn -0.01494598 1 -0.004154205
vn -0.002523422 0.9985352 -0.05401611
vn -0.01441956 0.9990234 0.04672241
vn 0.01441193 0.9990234 -0.04675293
vn 0.04364014 0.9985352 0.03219604
vn 0.05435181 0.9985352 -0.001887321
vn 0.07861328 0.996582 0.0242157
g t037v001_l_0
f 3/3/3 2/2/2 1/1/1
f 6/6/6 5/5/5 4/4/4
f 9/9/9 8/8/8 7/7/7
f 10/10/10 9/9/9 7/7/7
f 7/7/7 11/11/11 10/10/10
f 11/11/11 12/12/12 10/10/10
f 15/15/15 14/14/14 13/13/13
f 14/14/14 16/16/16 13/13/13
f 14/14/14 17/17/17 16/16/16
f 17/17/17 18/18/18 16/16/16
f 21/21/21 20/20/20 19/19/19
f 21/21/21 22/22/22 20/20/20
f 25/25/25 24/24/24 23/23/23
f 24/24/24 26/26/26 23/23/23
f 29/29/29 28/28/28 27/27/27
f 30/30/30 29/29/29 27/27/27
f 31/31/31 29/29/29 30/30/30
f 32/32/32 31/31/31 30/30/30
f 33/33/33 32/32/32 30/30/30
f 34/34/34 30/30/30 27/27/27
f 34/34/34 33/33/33 30/30/30
f 35/35/35 33/33/33 34/34/34
f 36/36/36 34/34/34 27/27/27
f 37/37/37 35/35/35 34/34/34
f 37/37/37 34/34/34 36/36/36
f 38/38/38 37/37/37 36/36/36
f 41/41/41 40/40/40 39/39/39
f 42/42/42 40/40/40 41/41/41
f 43/43/43 40/40/40 42/42/42
f 44/44/44 40/40/40 43/43/43
f 47/47/47 46/46/46 45/45/45
f 45/45/45 46/46/46 48/48/48
f 48/48/48 46/46/46 49/49/49
f 49/49/49 46/46/46 50/50/50
f 53/53/53 52/52/52 51/51/51
f 54/54/54 52/52/52 53/53/53
f 55/55/55 52/52/52 54/54/54
f 56/56/56 52/52/52 55/55/55
f 59/59/59 58/58/58 57/57/57
f 57/57/57 58/58/58 60/60/60
f 60/60/60 58/58/58 61/61/61
f 61/61/61 58/58/58 62/62/62
f 65/65/65 64/64/64 63/63/63
f 65/65/65 63/63/63 66/66/66
f 67/67/67 63/63/63 64/64/64
f 68/68/68 66/66/66 63/63/63
f 67/67/67 69/69/69 63/63/63
f 68/68/68 63/63/63 70/70/70
f 71/71/71 63/63/63 69/69/69
f 71/71/71 70/70/70 63/63/63
f 74/74/74 73/73/73 72/72/72
f 74/74/74 72/72/72 75/75/75
f 76/76/76 72/72/72 73/73/73
f 77/77/77 75/75/75 72/72/72
f 76/76/76 78/78/78 72/72/72
f 77/77/77 72/72/72 79/79/79
f 80/80/80 72/72/72 78/78/78
f 80/80/80 79/79/79 72/72/72
