g t044v001_m
v -0.2338046 0.1113046 0.2383782
v -0.4116834 0.1085916 0
v -0.3338988 0.1113046 0
v -0.2882719 0.1085916 0.2939104
v 0 0.1113046 0.3339005
v 0 0.1085916 0.4116821
v 0.2360033 0.1113046 0.2362016
v 0.2909827 0.1085916 0.2912269
v 0.3338988 0.1113046 0
v 0.4116836 0.1085916 0
v -0.2882719 0.1085916 0.2939104
v -0.4116834 0.04370635 0
v -0.4116834 0.1085916 0
v -0.2882719 0.04370635 0.2939104
v 0 0.1085916 0.4116821
v 0 0.04370635 0.4116821
v 0.2909827 0.1085916 0.2912269
v 0.2909827 0.04370635 0.2912269
v 0.4116836 0.1085916 0
v 0.4116836 0.04370635 0
v -0.2882719 0.04370635 0.2939104
v -0.3338988 0.1113046 0
v -0.4116834 0.04370635 0
v -0.2338046 0.1113046 0.2383782
v 0 0.04370635 0.4116821
v 0 0.1113046 0.3339005
v 0.2909827 0.04370635 0.2912269
v 0.2360033 0.1113046 0.2362016
v 0.4116836 0.04370635 0
v 0.3338988 0.1113046 0
v 0.2338046 0.1113046 -0.2383782
v 0.4116836 0.1085916 0
v 0.3338988 0.1113046 0
v 0.2882719 0.1085916 -0.2939104
v 0 0.1113046 -0.3339005
v 0 0.1085916 -0.4116821
v -0.2360033 0.1113046 -0.2362016
v -0.2909827 0.1085916 -0.2912269
v -0.3338988 0.1113046 0
v -0.4116834 0.1085916 0
v 0.2882719 0.1085916 -0.2939104
v 0.4116836 0.04370635 0
v 0.4116836 0.1085916 0
v 0.2882719 0.04370635 -0.2939104
v 0 0.1085916 -0.4116821
v 0 0.04370635 -0.4116821
v -0.2909827 0.1085916 -0.2912269
v -0.2909827 0.04370635 -0.2912269
v -0.4116834 0.1085916 0
v -0.4116834 0.04370635 0
v 0.2882719 0.04370635 -0.2939104
v 0.3338988 0.1113046 0
v 0.4116836 0.04370635 0
v 0.2338046 0.1113046 -0.2383782
v 0 0.04370635 -0.4116821
v 0 0.1113046 -0.3339005
v -0.2909827 0.04370635 -0.2912269
v -0.2360033 0.1113046 -0.2362016
v -0.4116834 0.04370635 0
v -0.3338988 0.1113046 0
v 0.3073797 8.733348E-10 0.2270164
v 0.1981039 0.2864798 0.1177406
v 0.1177416 0.2864798 0.1981049
v 0.2270174 -4.366674E-10 0.3073807
v 0.2924356 0.07988947 0.3727989
v 0.3728971 -7.860013E-09 0.4532623
v 0.2270174 -4.366674E-10 0.3073807
v 0.2700129 0.2419784 0.3503799
v 0.1177416 0.2864798 0.1981049
v 0.2337122 0.2864798 0.3140793
v 0.4532576 5.240009E-09 0.3728943
v 0.372798 0.07988949 0.2924347
v 0.3073797 8.733348E-10 0.2270164
v 0.3503771 0.2419784 0.2700157
v 0.1981039 0.2864798 0.1177406
v 0.3140764 0.2864798 0.2337151
v 0.2270174 -4.366674E-10 0.3073807
v 0.3728971 -7.860013E-09 0.4532623
v 0.4532576 5.240009E-09 0.3728943
v 0.3073797 8.733348E-10 0.2270164
v 0.3728971 -7.860013E-09 0.4532623
v 0.372798 0.07988949 0.2924347
v 0.4532576 5.240009E-09 0.3728943
v 0.2924356 0.07988947 0.3727989
v 0.3503771 0.2419784 0.2700157
v 0.2700129 0.2419784 0.3503799
v 0.3140764 0.2864798 0.2337151
v 0.2337122 0.2864798 0.3140793
v 0.2270174 -4.36667E-10 -0.3073807
v 0.1177416 0.2864798 -0.1981049
v 0.1981039 0.2864798 -0.1177406
v 0.3073797 8.733352E-10 -0.2270164
v 0.3728971 -7.860013E-09 -0.4532623
v 0.2924356 0.07988947 -0.3727989
v 0.2270174 -4.36667E-10 -0.3073807
v 0.2700129 0.2419784 -0.3503799
v 0.1177416 0.2864798 -0.1981049
v 0.2337122 0.2864798 -0.3140793
v 0.372798 0.07988949 -0.2924347
v 0.4532576 5.240009E-09 -0.3728943
v 0.3073797 8.733352E-10 -0.2270164
v 0.3503771 0.2419784 -0.2700157
v 0.1981039 0.2864798 -0.1177406
v 0.3140764 0.2864798 -0.2337151
v 0.2270174 -4.36667E-10 -0.3073807
v 0.3073797 8.733352E-10 -0.2270164
v 0.4532576 5.240009E-09 -0.3728943
v 0.3728971 -7.860013E-09 -0.4532623
v 0.4532576 5.240009E-09 -0.3728943
v 0.2924356 0.07988947 -0.3727989
v 0.3728971 -7.860013E-09 -0.4532623
v 0.372798 0.07988949 -0.2924347
v 0.3503771 0.2419784 -0.2700157
v 0.2700129 0.2419784 -0.3503799
v 0.3140764 0.2864798 -0.2337151
v 0.2337122 0.2864798 -0.3140793
v -0.3073797 8.733348E-10 -0.2270164
v -0.1981039 0.2864798 -0.1177406
v -0.1177416 0.2864798 -0.1981049
v -0.2270174 -4.366674E-10 -0.3073807
v -0.2924356 0.07988947 -0.3727989
v -0.3728971 -7.860013E-09 -0.4532623
v -0.2270174 -4.366674E-10 -0.3073807
v -0.2700129 0.2419784 -0.3503799
v -0.1177416 0.2864798 -0.1981049
v -0.2337122 0.2864798 -0.3140793
v -0.4532574 5.240009E-09 -0.3728943
v -0.372798 0.07988949 -0.2924347
v -0.3073797 8.733348E-10 -0.2270164
v -0.3503771 0.2419784 -0.2700157
v -0.1981039 0.2864798 -0.1177406
v -0.3140764 0.2864798 -0.2337151
v -0.2270174 -4.366674E-10 -0.3073807
v -0.3728971 -7.860013E-09 -0.4532623
v -0.4532574 5.240009E-09 -0.3728943
v -0.3073797 8.733348E-10 -0.2270164
v -0.3728971 -7.860013E-09 -0.4532623
v -0.372798 0.07988949 -0.2924347
v -0.4532574 5.240009E-09 -0.3728943
v -0.2924356 0.07988947 -0.3727989
v -0.3503771 0.2419784 -0.2700157
v -0.2700129 0.2419784 -0.3503799
v -0.3140764 0.2864798 -0.2337151
v -0.2337122 0.2864798 -0.3140793
v -0.2270174 -4.36667E-10 0.3073807
v -0.1177416 0.2864798 0.1981049
v -0.1981039 0.2864798 0.1177406
v -0.3073797 8.733352E-10 0.2270164
v -0.3728971 -7.860013E-09 0.4532623
v -0.2924356 0.07988947 0.3727989
v -0.2270174 -4.36667E-10 0.3073807
v -0.2700129 0.2419784 0.3503799
v -0.1177416 0.2864798 0.1981049
v -0.2337122 0.2864798 0.3140793
v -0.372798 0.07988949 0.2924347
v -0.4532574 5.240009E-09 0.3728943
v -0.3073797 8.733352E-10 0.2270164
v -0.3503771 0.2419784 0.2700157
v -0.1981039 0.2864798 0.1177406
v -0.3140764 0.2864798 0.2337151
v -0.2270174 -4.36667E-10 0.3073807
v -0.3073797 8.733352E-10 0.2270164
v -0.4532574 5.240009E-09 0.3728943
v -0.3728971 -7.860013E-09 0.4532623
v -0.4532574 5.240009E-09 0.3728943
v -0.2924356 0.07988947 0.3727989
v -0.3728971 -7.860013E-09 0.4532623
v -0.372798 0.07988949 0.2924347
v -0.3503771 0.2419784 0.2700157
v -0.2700129 0.2419784 0.3503799
v -0.3140764 0.2864798 0.2337151
v -0.2337122 0.2864798 0.3140793
v 0.3011466 0.2864798 -0.3070363
v 0.4300704 0.2864798 0
v 0.4300704 0.5 0
v 0.3011466 0.5 -0.3070363
v 0 0.5 -0.430069
v 0 0.2864798 -0.430069
v -0.3039786 0.2864798 -0.3042329
v -0.3039786 0.5 -0.3042329
v -0.4300703 0.5 0
v -0.4300703 0.2864798 0
v -0.3011466 0.5 0.3070363
v -0.4300703 0.2864798 0
v -0.4300703 0.5 0
v -0.3011466 0.2864798 0.3070363
v 0 0.5 0.430069
v 0 0.2864798 0.430069
v 0.3039786 0.5 0.3042329
v 0.3039786 0.2864798 0.3042329
v 0.4300704 0.5 0
v 0.4300704 0.2864798 0
v -0.3011466 0.2864798 0.3070363
v 0 0.2864798 0.430069
v 0.3039786 0.2864798 0.3042329
v -0.4300703 0.2864798 0
v 0.4300704 0.2864798 0
v 0.3011466 0.2864798 -0.3070363
v -0.4300703 0.2864798 0
v 0.4300704 0.2864798 0
v -0.3039786 0.2864798 -0.3042329
v 0 0.2864798 -0.430069
v 0 0.5246902 0
v -0.4300703 0.5 0
v -0.3039786 0.5 -0.3042329
v 0 0.5 -0.430069
v -0.3011466 0.5 0.3070363
v 0.3011466 0.5 -0.3070363
v 0 0.5 0.430069
v 0.4300704 0.5 0
v 0.3039786 0.5 0.3042329
vt 0.2425537 0.1564941
vt 0.003667831 0.1060791
vt 0.003667831 0.1564941
vt 0.2425537 0.1060791
vt 0.3640137 0.1564941
vt 0.3640137 0.1060791
vt 0.4853516 0.1564941
vt 0.4853516 0.1060791
vt 0.7280273 0.1564941
vt 0.7280273 0.1060791
vt 0.2425537 0.06872559
vt 0.003667831 0.0269165
vt 0.003667831 0.06872559
vt 0.2425537 0.0269165
vt 0.3640137 0.06872559
vt 0.3640137 0.0269165
vt 0.4853516 0.06872559
vt 0.4853516 0.0269165
vt 0.7280273 0.06872559
vt 0.7280273 0.0269165
vt 0.2425537 0.1564941
vt 0.003667831 0.1060791
vt 0.003667831 0.1564941
vt 0.2425537 0.1060791
vt 0.3640137 0.1564941
vt 0.3640137 0.1060791
vt 0.4853516 0.1564941
vt 0.4853516 0.1060791
vt 0.7280273 0.1564941
vt 0.7280273 0.1060791
vt 0.2425537 0.1564941
vt 0.003667831 0.1060791
vt 0.003667831 0.1564941
vt 0.2425537 0.1060791
vt 0.3640137 0.1564941
vt 0.3640137 0.1060791
vt 0.4853516 0.1564941
vt 0.4853516 0.1060791
vt 0.7280273 0.1564941
vt 0.7280273 0.1060791
vt 0.2425537 0.06872559
vt 0.003667831 0.0269165
vt 0.003667831 0.06872559
vt 0.2425537 0.0269165
vt 0.3640137 0.06872559
vt 0.3640137 0.0269165
vt 0.4853516 0.06872559
vt 0.4853516 0.0269165
vt 0.7280273 0.06872559
vt 0.7280273 0.0269165
vt 0.2425537 0.1564941
vt 0.003667831 0.1060791
vt 0.003667831 0.1564941
vt 0.2425537 0.1060791
vt 0.3640137 0.1564941
vt 0.3640137 0.1060791
vt 0.4853516 0.1564941
vt 0.4853516 0.1060791
vt 0.7280273 0.1564941
vt 0.7280273 0.1060791
vt 0.9750977 0.2397461
vt 0.9750977 0.0181427
vt 0.902832 0.0181427
vt 0.902832 0.2397461
vt 0.6806641 0.2469482
vt 0.7602539 0.1904297
vt 0.6157227 0.1904297
vt 0.6806641 0.3322754
vt 0.6157227 0.4277344
vt 0.6806641 0.3591309
vt 0.7602539 0.1904297
vt 0.6806641 0.2469482
vt 0.6157227 0.1904297
vt 0.6806641 0.3322754
vt 0.6157227 0.4274902
vt 0.6806641 0.3591309
vt 0.9750977 0.4125977
vt 0.9750977 0.2810059
vt 0.902832 0.2814941
vt 0.902832 0.4125977
vt 0.7915039 0.0181427
vt 0.8637695 0.1195679
vt 0.8637695 0.0181427
vt 0.7915039 0.1195068
vt 0.8637695 0.2252197
vt 0.7915039 0.2252197
vt 0.8637695 0.2692871
vt 0.7915039 0.2692871
vt 0.9750977 0.2397461
vt 0.9750977 0.0181427
vt 0.902832 0.0181427
vt 0.902832 0.2397461
vt 0.7602539 0.1904297
vt 0.6806641 0.2469482
vt 0.6157227 0.1904297
vt 0.6806641 0.3322754
vt 0.6157227 0.4274902
vt 0.6806641 0.3591309
vt 0.6806641 0.2469482
vt 0.7602539 0.1904297
vt 0.6157227 0.1904297
vt 0.6806641 0.3322754
vt 0.6157227 0.4277344
vt 0.6806641 0.3591309
vt 0.902832 0.4125977
vt 0.9750977 0.4125977
vt 0.9750977 0.2814941
vt 0.902832 0.2810059
vt 0.7915039 0.0181427
vt 0.8637695 0.1195068
vt 0.8637695 0.0181427
vt 0.7915039 0.1195679
vt 0.7915039 0.2252197
vt 0.8637695 0.2252197
vt 0.7915039 0.2692871
vt 0.8637695 0.2692871
vt 0.9750977 0.2397461
vt 0.9750977 0.0181427
vt 0.902832 0.0181427
vt 0.902832 0.2397461
vt 0.6806641 0.2469482
vt 0.7602539 0.1904297
vt 0.6157227 0.1904297
vt 0.6806641 0.3322754
vt 0.6157227 0.4277344
vt 0.6806641 0.3591309
vt 0.7602539 0.1904297
vt 0.6806641 0.2469482
vt 0.6157227 0.1904297
vt 0.6806641 0.3322754
vt 0.6157227 0.4274902
vt 0.6806641 0.3591309
vt 0.9750977 0.4125977
vt 0.9750977 0.2810059
vt 0.902832 0.2814941
vt 0.902832 0.4125977
vt 0.7915039 0.0181427
vt 0.8637695 0.1195679
vt 0.8637695 0.0181427
vt 0.7915039 0.1195068
vt 0.8637695 0.2252197
vt 0.7915039 0.2252197
vt 0.8637695 0.2692871
vt 0.7915039 0.2692871
vt 0.9750977 0.2397461
vt 0.9750977 0.0181427
vt 0.902832 0.0181427
vt 0.902832 0.2397461
vt 0.7602539 0.1904297
vt 0.6806641 0.2469482
vt 0.6157227 0.1904297
vt 0.6806641 0.3322754
vt 0.6157227 0.4274902
vt 0.6806641 0.3591309
vt 0.6806641 0.2469482
vt 0.7602539 0.1904297
vt 0.6157227 0.1904297
vt 0.6806641 0.3322754
vt 0.6157227 0.4277344
vt 0.6806641 0.3591309
vt 0.902832 0.4125977
vt 0.9750977 0.4125977
vt 0.9750977 0.2814941
vt 0.902832 0.2810059
vt 0.7915039 0.0181427
vt 0.8637695 0.1195068
vt 0.8637695 0.0181427
vt 0.7915039 0.1195679
vt 0.7915039 0.2252197
vt 0.8637695 0.2252197
vt 0.7915039 0.2692871
vt 0.8637695 0.2692871
vt 0.2242432 0.8325195
vt 0.003667831 0.8325195
vt 0.003667831 0.9760742
vt 0.2242432 0.9760742
vt 0.4528809 0.9760742
vt 0.4528809 0.8325195
vt 0.6811523 0.8325195
vt 0.6811523 0.9760742
vt 0.902832 0.9760742
vt 0.902832 0.8325195
vt 0.2242432 0.9760742
vt 0.003667831 0.8325195
vt 0.003667831 0.9760742
vt 0.2242432 0.8325195
vt 0.4528809 0.9760742
vt 0.4528809 0.8325195
vt 0.6811523 0.9760742
vt 0.6811523 0.8325195
vt 0.902832 0.9760742
vt 0.902832 0.8325195
vt 0.8632813 0.4277344
vt 0.9262695 0.5795898
vt 0.8647461 0.7299805
vt 0.7207031 0.3691406
vt 0.7207031 0.7900391
vt 0.8647461 0.7299805
vt 0.7207031 0.3691406
vt 0.7207031 0.7900391
vt 0.8632813 0.4277344
vt 0.9262695 0.5795898
vt 0.3149414 0.4985352
vt 0.02882385 0.4975586
vt 0.1157837 0.6923828
vt 0.3144531 0.7885742
vt 0.1147461 0.2915039
vt 0.5131836 0.6923828
vt 0.3154297 0.2087402
vt 0.6044922 0.4985352
vt 0.5180664 0.2932129
vn -0.02467346 0.9995117 0.02462769
vn -0.03485107 0.9995117 0.0001329184
vn -0.03485107 0.9995117 0.0001785755
vn -0.02461243 0.9995117 0.02468872
vn 0.0001784563 0.9995117 0.03485107
vn 0.0001333952 0.9995117 0.03485107
vn 0.02464294 0.9995117 0.02464294
vn 0.02464294 0.9995117 0.02464294
vn 0.03485107 0.9995117 -0.0001785755
vn 0.03485107 0.9995117 -0.0001329184
vn -0.7070313 0 0.7070313
vn -1 0 0.004631042
vn -1 0 0.004631042
vn -0.7070313 0 0.7070313
vn 0.004631042 0 1
vn 0.004631042 0 1
vn 0.7070313 0 0.7070313
vn 0.7070313 0 0.7070313
vn 1 0 -0.004631042
vn 1 0 -0.004631042
vn 0.4633789 -0.7548828 -0.4643555
vn 0.6557617 -0.7548828 -0.003286362
vn 0.6557617 -0.7548828 -0.002677917
vn 0.4641113 -0.7548828 -0.4633789
vn -0.00268364 -0.7548828 -0.6557617
vn -0.003284454 -0.7548828 -0.6557617
vn -0.4638672 -0.7548828 -0.4638672
vn -0.4638672 -0.7548828 -0.4638672
vn -0.6557617 -0.7548828 0.002677917
vn -0.6557617 -0.7548828 0.003286362
vn 0.02467346 0.9995117 -0.02462769
vn 0.03485107 0.9995117 -0.0001329184
vn 0.03485107 0.9995117 -0.0001785755
vn 0.02461243 0.9995117 -0.02468872
vn -0.0001784563 0.9995117 -0.03485107
vn -0.0001333952 0.9995117 -0.03485107
vn -0.02464294 0.9995117 -0.02464294
vn -0.02464294 0.9995117 -0.02464294
vn -0.03485107 0.9995117 0.0001785755
vn -0.03485107 0.9995117 0.0001329184
vn 0.7070313 0 -0.7070313
vn 1 0 -0.004631042
vn 1 0 -0.004631042
vn 0.7070313 0 -0.7070313
vn -0.004631042 0 -1
vn -0.004631042 0 -1
vn -0.7070313 0 -0.7070313
vn -0.7070313 0 -0.7070313
vn -1 0 0.004631042
vn -1 0 0.004631042
vn -0.4633789 -0.7548828 0.4643555
vn -0.6557617 -0.7548828 0.003286362
vn -0.6557617 -0.7548828 0.002677917
vn -0.4641113 -0.7548828 0.4633789
vn 0.00268364 -0.7548828 0.6557617
vn 0.003284454 -0.7548828 0.6557617
vn 0.4638672 -0.7548828 0.4638672
vn 0.4638672 -0.7548828 0.4638672
vn 0.6557617 -0.7548828 -0.002677917
vn 0.6557617 -0.7548828 -0.003286362
vn -0.4396973 -0.7832031 -0.4396973
vn -0.6225586 -0.4748535 -0.6225586
vn -0.6225586 -0.4748535 -0.6225586
vn -0.4396973 -0.7832031 -0.4396973
vn -0.7070313 0 0.7070313
vn -0.7070313 0 0.7070313
vn -0.7070313 0 0.7070313
vn -0.7070313 0 0.7070313
vn -0.7070313 0 0.7070313
vn -0.7070313 -1.889467E-05 0.7070313
vn 0.7070313 0 -0.7070313
vn 0.7070313 0 -0.7070313
vn 0.7070313 0 -0.7070313
vn 0.7070313 0 -0.7070313
vn 0.7070313 0 -0.7070313
vn 0.7070313 0 -0.7070313
vn -0.4396973 -0.7832031 -0.4396973
vn 0 -1 0
vn 0 -1 0
vn -0.4396973 -0.7832031 -0.4396973
vn 0.40625 0.8183594 0.40625
vn 0.605957 0.5151367 0.605957
vn 0.40625 0.8183594 0.40625
vn 0.605957 0.5151367 0.605957
vn 0.65625 0.3730469 0.65625
vn 0.65625 0.3730469 0.65625
vn 0.4631348 0.7558594 0.4631348
vn 0.4631348 0.7558594 0.4631348
vn -0.4396973 -0.7832031 0.4396973
vn -0.6225586 -0.4748535 0.6225586
vn -0.6225586 -0.4748535 0.6225586
vn -0.4396973 -0.7832031 0.4396973
vn -0.7070313 0 -0.7070313
vn -0.7070313 0 -0.7070313
vn -0.7070313 0 -0.7070313
vn -0.7070313 0 -0.7070313
vn -0.7070313 0 -0.7070313
vn -0.7070313 -1.913309E-05 -0.7070313
vn 0.7070313 0 0.7070313
vn 0.7070313 0 0.7070313
vn 0.7070313 0 0.7070313
vn 0.7070313 0 0.7070313
vn 0.7070313 0 0.7070313
vn 0.7070313 0 0.7070313
vn -0.4396973 -0.7832031 0.4396973
vn -0.4396973 -0.7832031 0.4396973
vn 0 -1 0
vn 0 -1 0
vn 0.40625 0.8183594 -0.40625
vn 0.605957 0.5151367 -0.605957
vn 0.40625 0.8183594 -0.40625
vn 0.605957 0.5151367 -0.605957
vn 0.65625 0.3730469 -0.65625
vn 0.65625 0.3730469 -0.65625
vn 0.4631348 0.7558594 -0.4631348
vn 0.4631348 0.7558594 -0.4631348
vn 0.4396973 -0.7832031 0.4396973
vn 0.6225586 -0.4748535 0.6225586
vn 0.6225586 -0.4748535 0.6225586
vn 0.4396973 -0.7832031 0.4396973
vn 0.7070313 0 -0.7070313
vn 0.7070313 0 -0.7070313
vn 0.7070313 0 -0.7070313
vn 0.7070313 0 -0.7070313
vn 0.7070313 0 -0.7070313
vn 0.7070313 -1.889467E-05 -0.7070313
vn -0.7070313 0 0.7070313
vn -0.7070313 0 0.7070313
vn -0.7070313 0 0.7070313
vn -0.7070313 0 0.7070313
vn -0.7070313 0 0.7070313
vn -0.7070313 0 0.7070313
vn 0.4396973 -0.7832031 0.4396973
vn 0 -1 0
vn 0 -1 0
vn 0.4396973 -0.7832031 0.4396973
vn -0.40625 0.8183594 -0.40625
vn -0.605957 0.5151367 -0.605957
vn -0.40625 0.8183594 -0.40625
vn -0.605957 0.5151367 -0.605957
vn -0.65625 0.3730469 -0.65625
vn -0.65625 0.3730469 -0.65625
vn -0.4631348 0.7558594 -0.4631348
vn -0.4631348 0.7558594 -0.4631348
vn 0.4396973 -0.7832031 -0.4396973
vn 0.6225586 -0.4748535 -0.6225586
vn 0.6225586 -0.4748535 -0.6225586
vn 0.4396973 -0.7832031 -0.4396973
vn 0.7070313 0 0.7070313
vn 0.7070313 0 0.7070313
vn 0.7070313 0 0.7070313
vn 0.7070313 0 0.7070313
vn 0.7070313 0 0.7070313
vn 0.7070313 -1.913309E-05 0.7070313
vn -0.7070313 0 -0.7070313
vn -0.7070313 0 -0.7070313
vn -0.7070313 0 -0.7070313
vn -0.7070313 0 -0.7070313
vn -0.7070313 0 -0.7070313
vn -0.7070313 0 -0.7070313
vn 0.4396973 -0.7832031 -0.4396973
vn 0.4396973 -0.7832031 -0.4396973
vn 0 -1 0
vn 0 -1 0
vn -0.40625 0.8183594 0.40625
vn -0.605957 0.5151367 0.605957
vn -0.40625 0.8183594 0.40625
vn -0.605957 0.5151367 0.605957
vn -0.65625 0.3730469 0.65625
vn -0.65625 0.3730469 0.65625
vn -0.4631348 0.7558594 0.4631348
vn -0.4631348 0.7558594 0.4631348
vn 0.7070313 0 -0.7070313
vn 1 0 -0.004631042
vn 1 0 -0.004631042
vn 0.7070313 0 -0.7070313
vn -0.004631042 0 -1
vn -0.004631042 0 -1
vn -0.7070313 0 -0.7070313
vn -0.7070313 0 -0.7070313
vn -1 0 0.004631042
vn -1 0 0.004631042
vn -0.7070313 0 0.7070313
vn -1 0 0.004631042
vn -1 0 0.004631042
vn -0.7070313 0 0.7070313
vn 0.004631042 0 1
vn 0.004631042 0 1
vn 0.7070313 0 0.7070313
vn 0.7070313 0 0.7070313
vn 1 0 -0.004631042
vn 1 0 -0.004631042
vn 0 -1 0
vn 0 -1 0
vn 0 -1 0
vn 0 -1 0
vn 0 -1 0
vn 0 -1 0
vn 0 -1 0
vn 0 -1 0
vn 0 -1 0
vn 0 -1 0
vn 0 1 0
vn -0.05731201 0.9985352 0.0002185106
vn -0.04052734 0.9985352 -0.04052734
vn -0.0002193451 0.9985352 -0.05731201
vn -0.04046631 0.9985352 0.04058838
vn 0.04046631 0.9985352 -0.04058838
vn 0.0002193451 0.9985352 0.05731201
vn 0.05731201 0.9985352 -0.0002185106
vn 0.04052734 0.9985352 0.04052734
g t044v001_m_0
f 3/3/3 2/2/2 1/1/1
f 2/2/2 4/4/4 1/1/1
f 1/1/1 4/4/4 5/5/5
f 4/4/4 6/6/6 5/5/5
f 5/5/5 6/6/6 7/7/7
f 6/6/6 8/8/8 7/7/7
f 7/7/7 8/8/8 9/9/9
f 8/8/8 10/10/10 9/9/9
f 13/13/13 12/12/12 11/11/11
f 12/12/12 14/14/14 11/11/11
f 11/11/11 14/14/14 15/15/15
f 14/14/14 16/16/16 15/15/15
f 15/15/15 16/16/16 17/17/17
f 16/16/16 18/18/18 17/17/17
f 17/17/17 18/18/18 19/19/19
f 18/18/18 20/20/20 19/19/19
f 23/23/23 22/22/22 21/21/21
f 22/22/22 24/24/24 21/21/21
f 21/21/21 24/24/24 25/25/25
f 24/24/24 26/26/26 25/25/25
f 25/25/25 26/26/26 27/27/27
f 26/26/26 28/28/28 27/27/27
f 27/27/27 28/28/28 29/29/29
f 28/28/28 30/30/30 29/29/29
f 33/33/33 32/32/32 31/31/31
f 32/32/32 34/34/34 31/31/31
f 31/31/31 34/34/34 35/35/35
f 34/34/34 36/36/36 35/35/35
f 35/35/35 36/36/36 37/37/37
f 36/36/36 38/38/38 37/37/37
f 37/37/37 38/38/38 39/39/39
f 38/38/38 40/40/40 39/39/39
f 43/43/43 42/42/42 41/41/41
f 42/42/42 44/44/44 41/41/41
f 41/41/41 44/44/44 45/45/45
f 44/44/44 46/46/46 45/45/45
f 45/45/45 46/46/46 47/47/47
f 46/46/46 48/48/48 47/47/47
f 47/47/47 48/48/48 49/49/49
f 48/48/48 50/50/50 49/49/49
f 53/53/53 52/52/52 51/51/51
f 52/52/52 54/54/54 51/51/51
f 51/51/51 54/54/54 55/55/55
f 54/54/54 56/56/56 55/55/55
f 55/55/55 56/56/56 57/57/57
f 56/56/56 58/58/58 57/57/57
f 57/57/57 58/58/58 59/59/59
f 58/58/58 60/60/60 59/59/59
f 63/63/63 62/62/62 61/61/61
f 64/64/64 63/63/63 61/61/61
f 67/67/67 66/66/66 65/65/65
f 65/65/65 68/68/68 67/67/67
f 68/68/68 69/69/69 67/67/67
f 68/68/68 70/70/70 69/69/69
f 73/73/73 72/72/72 71/71/71
f 72/72/72 73/73/73 74/74/74
f 73/73/73 75/75/75 74/74/74
f 75/75/75 76/76/76 74/74/74
f 79/79/79 78/78/78 77/77/77
f 80/80/80 79/79/79 77/77/77
f 83/83/83 82/82/82 81/81/81
f 82/82/82 84/84/84 81/81/81
f 82/82/82 85/85/85 84/84/84
f 85/85/85 86/86/86 84/84/84
f 85/85/85 87/87/87 86/86/86
f 87/87/87 88/88/88 86/86/86
f 91/91/91 90/90/90 89/89/89
f 92/92/92 91/91/91 89/89/89
f 95/95/95 94/94/94 93/93/93
f 94/94/94 95/95/95 96/96/96
f 95/95/95 97/97/97 96/96/96
f 97/97/97 98/98/98 96/96/96
f 101/101/101 100/100/100 99/99/99
f 99/99/99 102/102/102 101/101/101
f 102/102/102 103/103/103 101/101/101
f 104/104/104 103/103/103 102/102/102
f 107/107/107 106/106/106 105/105/105
f 108/108/108 107/107/107 105/105/105
f 111/111/111 110/110/110 109/109/109
f 110/110/110 112/112/112 109/109/109
f 113/113/113 112/112/112 110/110/110
f 114/114/114 113/113/113 110/110/110
f 115/115/115 113/113/113 114/114/114
f 116/116/116 115/115/115 114/114/114
f 119/119/119 118/118/118 117/117/117
f 120/120/120 119/119/119 117/117/117
f 123/123/123 122/122/122 121/121/121
f 121/121/121 124/124/124 123/123/123
f 124/124/124 125/125/125 123/123/123
f 124/124/124 126/126/126 125/125/125
f 129/129/129 128/128/128 127/127/127
f 128/128/128 129/129/129 130/130/130
f 129/129/129 131/131/131 130/130/130
f 131/131/131 132/132/132 130/130/130
f 135/135/135 134/134/134 133/133/133
f 136/136/136 135/135/135 133/133/133
f 139/139/139 138/138/138 137/137/137
f 138/138/138 140/140/140 137/137/137
f 138/138/138 141/141/141 140/140/140
f 141/141/141 142/142/142 140/140/140
f 141/141/141 143/143/143 142/142/142
f 143/143/143 144/144/144 142/142/142
f 147/147/147 146/146/146 145/145/145
f 148/148/148 147/147/147 145/145/145
f 151/151/151 150/150/150 149/149/149
f 150/150/150 151/151/151 152/152/152
f 151/151/151 153/153/153 152/152/152
f 153/153/153 154/154/154 152/152/152
f 157/157/157 156/156/156 155/155/155
f 155/155/155 158/158/158 157/157/157
f 158/158/158 159/159/159 157/157/157
f 160/160/160 159/159/159 158/158/158
f 163/163/163 162/162/162 161/161/161
f 164/164/164 163/163/163 161/161/161
f 167/167/167 166/166/166 165/165/165
f 166/166/166 168/168/168 165/165/165
f 169/169/169 168/168/168 166/166/166
f 170/170/170 169/169/169 166/166/166
f 171/171/171 169/169/169 170/170/170
f 172/172/172 171/171/171 170/170/170
f 175/175/175 174/174/174 173/173/173
f 176/176/176 175/175/175 173/173/173
f 177/177/177 176/176/176 173/173/173
f 178/178/178 177/177/177 173/173/173
f 178/178/178 179/179/179 177/177/177
f 179/179/179 180/180/180 177/177/177
f 180/180/180 179/179/179 181/181/181
f 179/179/179 182/182/182 181/181/181
f 185/185/185 184/184/184 183/183/183
f 184/184/184 186/186/186 183/183/183
f 187/187/187 183/183/183 186/186/186
f 188/188/188 187/187/187 186/186/186
f 189/189/189 187/187/187 188/188/188
f 190/190/190 189/189/189 188/188/188
f 189/189/189 190/190/190 191/191/191
f 190/190/190 192/192/192 191/191/191
f 195/195/195 194/194/194 193/193/193
f 195/195/195 193/193/193 196/196/196
f 197/197/197 195/195/195 196/196/196
f 200/200/200 199/199/199 198/198/198
f 199/199/199 201/201/201 198/198/198
f 201/201/201 202/202/202 198/198/198
f 205/205/205 204/204/204 203/203/203
f 206/206/206 205/205/205 203/203/203
f 203/203/203 204/204/204 207/207/207
f 208/208/208 206/206/206 203/203/203
f 203/203/203 207/207/207 209/209/209
f 210/210/210 208/208/208 203/203/203
f 203/203/203 209/209/209 211/211/211
f 210/210/210 203/203/203 211/211/211
