g t046v001_h
v -0.447148 0.1630396 -0.4678034
v -0.477186 0.1630396 -0.465978
v -0.4853503 0.2896689 -0.5153592
v -0.447148 0.2887739 -0.5168375
v -0.4952428 0.3679302 -0.6446469
v 0 0.284452 -0.5227394
v 0 0.1622902 -0.4750977
v 0.4471442 0.1630396 -0.4678007
v -0.447148 0.366482 -0.6452135
v -0.4853503 0.3679302 -0.8044561
v 0 0.3599522 -0.6474686
v 0.4471442 0.2887739 -0.5168349
v -0.447148 0.3664819 -0.8038896
v -0.4729378 0.2896689 -0.9337438
v 0.4761975 0.2896689 -0.5153605
v 0.4853504 0.1630396 -0.4659755
v 0.4853504 0.3679302 -0.6446444
v 0.4471443 0.366482 -0.6452109
v 0.4974642 0.3679302 -0.8044536
v 0 0.3599521 -0.8016357
v 0.4471443 0.3664819 -0.8038908
v 0.4853504 0.2896689 -0.9337413
v -0.447148 0.2887738 -0.9322656
v -0.4871682 0.1630395 -0.983125
v -0.447148 0.1630395 -0.9812998
v 0 0.1622902 -0.9740028
v 0 0.284452 -0.9263611
v 0.4471443 0.2887738 -0.9322668
v 0.4767154 0.1630395 -0.9831263
v 0.4471443 0.1630395 -0.981301
v -0.447148 0.1630395 -0.9812998
v -0.4871682 0.1630395 -0.983125
v -0.5014217 0.06002273 -0.9337438
v -0.447148 0.06055974 -0.9322656
v -0.4853503 0.02579339 -0.8030484
v 0 0.06121937 -0.9263611
v 0 0.1622902 -0.9740028
v 0.4471443 0.1630395 -0.981301
v -0.447148 0.02579339 -0.8030466
v -0.4746165 0.02579339 -0.6459668
v 0 0.02579339 -0.8030472
v 0.4471443 0.06055974 -0.932263
v -0.447148 0.02579339 -0.645965
v -0.4853503 0.06002275 -0.5153592
v 0.4853504 0.06002273 -0.9337413
v 0.4767154 0.1630395 -0.9831263
v 0.4761975 0.02579339 -0.8030459
v 0.447148 0.02579339 -0.8030478
v 0.4853505 0.02579339 -0.6459643
v 0 0.02579339 -0.6459656
v 0.447148 0.02579339 -0.6459662
v 0.4911835 0.06002275 -0.5153605
v -0.447148 0.06055976 -0.5168375
v -0.477186 0.1630396 -0.465978
v -0.447148 0.1630396 -0.4678034
v 0 0.1622902 -0.4750977
v 0 0.06121939 -0.5227394
v 0.4471442 0.06055976 -0.5168387
v 0.4853504 0.1630396 -0.4659755
v 0.4471442 0.1630396 -0.4678007
v 0.3432664 0.02651596 1.003981
v 0.2382731 0.02651596 1.003983
v 0.2386684 0.02651596 0.9014984
v 0.3431381 0.02651596 0.901498
v -0.2398002 0.02651596 1.003982
v -0.3447974 0.02651596 1.003983
v -0.3444021 0.02651596 0.901499
v -0.2399324 0.02651596 0.9014986
v -0.469646 0.02579339 -0.6459661
v 0.469646 0.02579339 -0.6459651
v 0.469646 0.02579339 0.9014974
v -0.4633386 0.02579339 0.9014986
v 0.4471442 0.06055976 -0.5168387
v 0.4471442 0.1630396 -0.4678007
v 0.4123952 0.1630396 -0.724552
v 0.447148 0.02579339 -0.6459662
v 0.4471442 0.2887739 -0.5168349
v 0.447148 0.02579339 -0.8030478
v 0.4471443 0.366482 -0.6452109
v 0.4471443 0.06055974 -0.932263
v 0.4471443 0.3664819 -0.8038908
v 0.4471443 0.1630395 -0.981301
v 0.4471443 0.2887738 -0.9322668
v -0.447148 0.06055976 -0.5168375
v -0.4123953 0.1630396 -0.7245523
v -0.447148 0.1630396 -0.4678034
v -0.447148 0.02579339 -0.645965
v -0.447148 0.2887739 -0.5168375
v -0.447148 0.02579339 -0.8030466
v -0.447148 0.366482 -0.6452135
v -0.447148 0.06055974 -0.9322656
v -0.447148 0.3664819 -0.8038896
v -0.447148 0.1630395 -0.9812998
v -0.447148 0.2887738 -0.9322656
vt 0.9614258 0.9853516
vt 0.9838867 0.9853516
vt 0.9838867 0.9091797
vt 0.9619141 0.9091797
vt 0.9838867 0.824707
vt 0.7041016 0.9091797
vt 0.7041016 0.9853516
vt 0.4458008 0.9853516
vt 0.9619141 0.824707
vt 0.9838867 0.7338867
vt 0.7041016 0.824707
vt 0.4453125 0.9091797
vt 0.9619141 0.7338867
vt 0.9838867 0.6479492
vt 0.4233398 0.9091797
vt 0.4233398 0.9853516
vt 0.4233398 0.824707
vt 0.4453125 0.824707
vt 0.4233398 0.7338867
vt 0.7041016 0.7338867
vt 0.4453125 0.7338867
vt 0.4233398 0.6479492
vt 0.9619141 0.6479492
vt 0.9838867 0.5698242
vt 0.9614258 0.5698242
vt 0.7041016 0.5698242
vt 0.7041016 0.6479492
vt 0.4453125 0.6479492
vt 0.4233398 0.5698242
vt 0.4458008 0.5698242
vt 0.9614258 0.9853516
vt 0.9838867 0.9853516
vt 0.9838867 0.9091797
vt 0.9619141 0.9091797
vt 0.9838867 0.824707
vt 0.7041016 0.9091797
vt 0.7041016 0.9853516
vt 0.4458008 0.9853516
vt 0.9619141 0.824707
vt 0.9838867 0.7338867
vt 0.7041016 0.824707
vt 0.4453125 0.9091797
vt 0.9619141 0.7338867
vt 0.9838867 0.6479492
vt 0.4233398 0.9091797
vt 0.4233398 0.9853516
vt 0.4233398 0.824707
vt 0.4453125 0.824707
vt 0.4233398 0.7338867
vt 0.7041016 0.7338867
vt 0.4453125 0.7338867
vt 0.4233398 0.6479492
vt 0.9619141 0.6479492
vt 0.9838867 0.5698242
vt 0.9614258 0.5698242
vt 0.7041016 0.5698242
vt 0.7041016 0.6479492
vt 0.4453125 0.6479492
vt 0.4233398 0.5698242
vt 0.4458008 0.5698242
vt 0.3842773 0.9633789
vt 0.3842773 0.875
vt 0.2978516 0.875
vt 0.2978516 0.9633789
vt 0.3842773 0.9633789
vt 0.3842773 0.875
vt 0.2978516 0.875
vt 0.2978516 0.9633789
vt 0.09698486 0.008338928
vt 0.09698486 0.5458984
vt 0.9858398 0.5458984
vt 0.9858398 0.008338928
vt 0.05355835 0.6113281
vt 0.01687622 0.6879883
vt 0.2077637 0.6879883
vt 0.1499023 0.5854492
vt 0.05291748 0.7822266
vt 0.267334 0.5854492
vt 0.1490479 0.8408203
vt 0.3623047 0.6113281
vt 0.267334 0.8408203
vt 0.3991699 0.6879883
vt 0.3632813 0.7822266
vt 0.3623047 0.6113281
vt 0.2077637 0.6879883
vt 0.3991699 0.6879883
vt 0.267334 0.5854492
vt 0.3632813 0.7822266
vt 0.1499023 0.5854492
vt 0.267334 0.8408203
vt 0.05355835 0.6113281
vt 0.1490479 0.8408203
vt 0.01687622 0.6879883
vt 0.05291748 0.7822266
vn 0.01847839 0.0004897118 1
vn 0.04724121 0.0004546642 0.9990234
vn 0.04452515 0.6552734 0.7539063
vn 0.01858521 0.6572266 0.753418
vn 0.04043579 0.9643555 0.2617188
vn 0.01629639 0.6572266 0.753418
vn 0.01594543 -0.0005583763 1
vn -0.01847839 0.0004897118 1
vn 0.01742554 0.9648438 0.2614746
vn 0.04043579 0.9643555 -0.2617188
vn 0.01541138 0.965332 0.2612305
vn -0.01858521 0.6572266 0.753418
vn 0.01742554 0.9648438 -0.2614746
vn 0.04452515 0.6552734 -0.7539063
vn -0.04452515 0.6552734 0.7539063
vn -0.04724121 0.0004546642 0.9990234
vn -0.04043579 0.9643555 0.2617188
vn -0.01742554 0.9648438 0.2614746
vn -0.04043579 0.9643555 -0.2617188
vn 0.01541138 0.965332 -0.2612305
vn -0.01742554 0.9648438 -0.2614746
vn -0.04452515 0.6552734 -0.7539063
vn 0.01858521 0.6572266 -0.753418
vn 0.04724121 0.0004537106 -0.9990234
vn 0.01847839 0.0004897118 -1
vn 0.01594543 -0.0005583763 -1
vn 0.01629639 0.6572266 -0.753418
vn -0.01858521 0.6572266 -0.753418
vn -0.04724121 0.0004537106 -0.9990234
vn -0.01847839 0.0004897118 -1
vn 0.01847839 0.0004897118 -1
vn 0.04724121 0.0004537106 -0.9990234
vn 0.02844238 -0.7900391 -0.6123047
vn 0.009841919 -0.7866211 -0.6176758
vn 0.005470276 -0.9926758 -0.1193237
vn 0.008178711 -0.7885742 -0.6152344
vn 0.01594543 -0.0005583763 -1
vn -0.01847839 0.0004897118 -1
vn 0.00148201 -0.9926758 -0.1226196
vn 0.005466461 -0.9926758 0.1193848
vn 0.001137733 -0.9921875 -0.1229248
vn -0.009841919 -0.7866211 -0.6176758
vn 0.00148201 -0.9926758 0.1226807
vn 0.02844238 -0.7900391 0.6123047
vn -0.02844238 -0.7900391 -0.6123047
vn -0.04724121 0.0004537106 -0.9990234
vn -0.005470276 -0.9926758 -0.1193237
vn -0.00148201 -0.9926758 -0.1226196
vn -0.005466461 -0.9926758 0.1193848
vn 0.001137733 -0.9921875 0.1229858
vn -0.00148201 -0.9926758 0.1226807
vn -0.02844238 -0.7900391 0.6123047
vn 0.009849548 -0.7861328 0.6176758
vn 0.04724121 0.0004546642 0.9990234
vn 0.01847839 0.0004897118 1
vn 0.01594543 -0.0005583763 1
vn 0.008178711 -0.7880859 0.6152344
vn -0.009849548 -0.7861328 0.6176758
vn -0.04724121 0.0004546642 0.9990234
vn -0.01847839 0.0004897118 1
vn 0 1 0
vn 0 1 0
vn 0 1 0
vn 0 1 0
vn 0 1 0
vn 0 1 0
vn 0 1 0
vn 0 1 0
vn 0 1 0
vn 0 1 0
vn 0 1 0
vn 0 1 0
vn 0.987793 0.1049194 -0.1135254
vn 0.9907227 -0.001814842 -0.1341553
vn 1 0.004005432 0
vn 0.9736328 0.2260742 -0.0355835
vn 0.9897461 -0.08929443 -0.1115112
vn 0.9736328 0.2260742 0.03555298
vn 0.9873047 -0.1513672 -0.04443359
vn 0.987793 0.1049194 0.1135254
vn 0.9873047 -0.1513672 0.04443359
vn 0.9907227 -0.001814842 0.1341553
vn 0.9897461 -0.08929443 0.1115112
vn -0.987793 0.1049194 -0.1135254
vn -1 0.004005432 0
vn -0.9907227 -0.001814842 -0.1341553
vn -0.9736328 0.2260742 -0.0355835
vn -0.9897461 -0.08929443 -0.1115112
vn -0.9736328 0.2260742 0.03555298
vn -0.9873047 -0.1513672 -0.04443359
vn -0.987793 0.1049194 0.1135254
vn -0.9873047 -0.1513672 0.04443359
vn -0.9907227 -0.001814842 0.1341553
vn -0.9897461 -0.08929443 0.1115112
g t046v001_h_0
f 3/3/3 2/2/2 1/1/1
f 4/4/4 3/3/3 1/1/1
f 5/5/5 3/3/3 4/4/4
f 6/6/6 4/4/4 1/1/1
f 7/7/7 6/6/6 1/1/1
f 6/6/6 7/7/7 8/8/8
f 9/9/9 5/5/5 4/4/4
f 10/10/10 5/5/5 9/9/9
f 6/6/6 11/11/11 4/4/4
f 11/11/11 9/9/9 4/4/4
f 12/12/12 6/6/6 8/8/8
f 11/11/11 6/6/6 12/12/12
f 13/13/13 10/10/10 9/9/9
f 14/14/14 10/10/10 13/13/13
f 15/15/15 12/12/12 8/8/8
f 16/16/16 15/15/15 8/8/8
f 15/15/15 17/17/17 12/12/12
f 17/17/17 18/18/18 12/12/12
f 18/18/18 11/11/11 12/12/12
f 17/17/17 19/19/19 18/18/18
f 11/11/11 20/20/20 9/9/9
f 20/20/20 11/11/11 18/18/18
f 20/20/20 13/13/13 9/9/9
f 19/19/19 21/21/21 18/18/18
f 21/21/21 20/20/20 18/18/18
f 19/19/19 22/22/22 21/21/21
f 23/23/23 14/14/14 13/13/13
f 24/24/24 14/14/14 23/23/23
f 25/25/25 24/24/24 23/23/23
f 26/26/26 25/25/25 23/23/23
f 20/20/20 27/27/27 13/13/13
f 27/27/27 23/23/23 13/13/13
f 27/27/27 20/20/20 21/21/21
f 27/27/27 26/26/26 23/23/23
f 22/22/22 28/28/28 21/21/21
f 28/28/28 27/27/27 21/21/21
f 26/26/26 27/27/27 28/28/28
f 22/22/22 29/29/29 28/28/28
f 30/30/30 26/26/26 28/28/28
f 29/29/29 30/30/30 28/28/28
f 33/33/33 32/32/32 31/31/31
f 34/34/34 33/33/33 31/31/31
f 35/35/35 33/33/33 34/34/34
f 36/36/36 34/34/34 31/31/31
f 37/37/37 36/36/36 31/31/31
f 36/36/36 37/37/37 38/38/38
f 39/39/39 35/35/35 34/34/34
f 40/40/40 35/35/35 39/39/39
f 36/36/36 41/41/41 34/34/34
f 41/41/41 39/39/39 34/34/34
f 42/42/42 36/36/36 38/38/38
f 41/41/41 36/36/36 42/42/42
f 43/43/43 40/40/40 39/39/39
f 44/44/44 40/40/40 43/43/43
f 45/45/45 42/42/42 38/38/38
f 46/46/46 45/45/45 38/38/38
f 45/45/45 47/47/47 42/42/42
f 47/47/47 48/48/48 42/42/42
f 48/48/48 41/41/41 42/42/42
f 47/47/47 49/49/49 48/48/48
f 41/41/41 50/50/50 39/39/39
f 50/50/50 41/41/41 48/48/48
f 50/50/50 43/43/43 39/39/39
f 49/49/49 51/51/51 48/48/48
f 51/51/51 50/50/50 48/48/48
f 49/49/49 52/52/52 51/51/51
f 53/53/53 44/44/44 43/43/43
f 54/54/54 44/44/44 53/53/53
f 55/55/55 54/54/54 53/53/53
f 56/56/56 55/55/55 53/53/53
f 50/50/50 57/57/57 43/43/43
f 57/57/57 53/53/53 43/43/43
f 57/57/57 50/50/50 51/51/51
f 57/57/57 56/56/56 53/53/53
f 52/52/52 58/58/58 51/51/51
f 58/58/58 57/57/57 51/51/51
f 56/56/56 57/57/57 58/58/58
f 52/52/52 59/59/59 58/58/58
f 60/60/60 56/56/56 58/58/58
f 59/59/59 60/60/60 58/58/58
f 63/63/63 62/62/62 61/61/61
f 64/64/64 63/63/63 61/61/61
f 67/67/67 66/66/66 65/65/65
f 68/68/68 67/67/67 65/65/65
f 71/71/71 70/70/70 69/69/69
f 72/72/72 71/71/71 69/69/69
f 75/75/75 74/74/74 73/73/73
f 75/75/75 73/73/73 76/76/76
f 75/75/75 77/77/77 74/74/74
f 75/75/75 76/76/76 78/78/78
f 75/75/75 79/79/79 77/77/77
f 75/75/75 78/78/78 80/80/80
f 75/75/75 81/81/81 79/79/79
f 75/75/75 80/80/80 82/82/82
f 75/75/75 83/83/83 81/81/81
f 75/75/75 82/82/82 83/83/83
f 86/86/86 85/85/85 84/84/84
f 84/84/84 85/85/85 87/87/87
f 88/88/88 85/85/85 86/86/86
f 87/87/87 85/85/85 89/89/89
f 90/90/90 85/85/85 88/88/88
f 89/89/89 85/85/85 91/91/91
f 92/92/92 85/85/85 90/90/90
f 91/91/91 85/85/85 93/93/93
f 94/94/94 85/85/85 92/92/92
f 93/93/93 85/85/85 94/94/94
