g t051v003_m
v -0.4110985 0.2316587 0.4802475
v -0.4110985 0.4891235 0.4802475
v 0.4110985 0.4891235 0.4802475
v 0.4110985 0.2316587 0.4802475
v -0.5 1.00251 0.4802475
v -0.5 1.00251 -0.5
v 0.5 1.00251 -0.5
v 0.5 1.00251 0.4802475
v 0.5 0.1111122 -0.5
v 0.5 0.2316587 -0.5
v -0.5 0.2316587 -0.5
v -0.5 0.1111122 -0.5
v -0.5 0.1111122 -0.5
v -0.5 0.1111122 0.4802475
v 0.5 0.1111122 0.4802475
v 0.5 0.1111122 -0.5
v 0.5 0.1111122 -0.5
v 0.5 0.1111122 0.4802475
v 0.5 0.2316587 0.4802475
v 0.5 0.2316587 -0.5
v -0.5 0.8841892 -0.5
v -0.5 1.00251 -0.5
v -0.5 1.00251 0.4802475
v -0.5 0.8841892 0.4802475
v -0.5 1.00251 -0.5
v -0.5 0.8841892 -0.5
v 0.5 0.8841892 -0.5
v 0.5 1.00251 -0.5
v 0.5 1.00251 0.4802475
v 0.5 1.00251 -0.5
v 0.5 0.8841892 -0.5
v 0.5 0.8841892 0.4802475
v -0.5 0.8841892 0.4802475
v -0.5 1.00251 0.4802475
v -0.4104519 0.8841892 0.4802504
v 0.4104519 0.8841892 0.4802504
v 0.5 1.00251 0.4802475
v 0.5 0.8841892 0.4802475
v -0.4110985 0.2316587 0.4802475
v -0.5 0.1111122 0.4802475
v -0.5 0.2316587 0.4802475
v 0.4110985 0.2316587 0.4802475
v 0.5 0.1111122 0.4802475
v 0.5 0.2316587 0.4802475
v 0.4104519 0.6058676 0.4802504
v 0.4104519 0.8841892 0.4802504
v 0.5 0.8841892 0.4802475
v 0.4110985 0.4891235 0.4802475
v 0.5 0.2316587 0.4802475
v 0.4110985 0.2316587 0.4802475
v -0.5 0.1111122 -0.5
v -0.5 0.2316587 -0.5
v -0.5 0.2316587 0.4802475
v -0.5 0.1111122 0.4802475
v -0.4104519 0.6058676 0.4802504
v 0.4104519 0.6058676 0.4802504
v 0.4110985 0.4891235 0.4802475
v -0.4110985 0.4891235 0.4802475
v -0.4104519 0.6058676 0.4802504
v -0.5 0.8841892 0.4802475
v -0.4104519 0.8841892 0.4802504
v -0.4110985 0.4891235 0.4802475
v -0.5 0.2316587 0.4802475
v -0.4110985 0.2316587 0.4802475
v 0.4754066 0 0.4545822
v 0.2853241 0 0.4545822
v 0.2995796 0.120018 0.4403267
v 0.4611511 0.120018 0.4403267
v 0.4611511 0.120018 0.2787552
v 0.2995796 0.120018 0.2787552
v 0.2853241 0 0.2644997
v 0.4754066 0 0.2644997
v 0.4754066 0 0.2644997
v 0.2853241 0 0.2644997
v 0.2853241 0 0.4545822
v 0.4754066 0 0.4545822
v 0.2853241 0 0.4545822
v 0.2853241 0 0.2644997
v 0.2995796 0.120018 0.2787552
v 0.2995796 0.120018 0.4403267
v 0.4754066 0 0.2644997
v 0.4754066 0 0.4545822
v 0.4611511 0.120018 0.4403267
v 0.4611511 0.120018 0.2787552
v -0.4743366 0 0.4556541
v -0.4743366 0 0.2655716
v -0.4600801 0.120018 0.2798271
v -0.4600801 0.120018 0.4413986
v -0.2985106 0.120018 0.4413986
v -0.2985106 0.120018 0.2798271
v -0.2842541 0 0.2655716
v -0.2842541 0 0.4556541
v -0.2842541 0 0.4556541
v -0.2842541 0 0.2655716
v -0.4743366 0 0.2655716
v -0.4743366 0 0.4556541
v -0.4743366 0 0.2655716
v -0.2842541 0 0.2655716
v -0.2985106 0.120018 0.2798271
v -0.4600801 0.120018 0.2798271
v -0.2842541 0 0.4556541
v -0.4743366 0 0.4556541
v -0.4600801 0.120018 0.4413986
v -0.2985106 0.120018 0.4413986
v -0.4754066 0 -0.4742747
v -0.2853241 0 -0.4742747
v -0.2995806 0.120018 -0.4600192
v -0.4611502 0.120018 -0.4600192
v -0.4611502 0.120018 -0.2984477
v -0.2995806 0.120018 -0.2984477
v -0.2853241 0 -0.2841922
v -0.4754066 0 -0.2841922
v -0.4754066 0 -0.2841922
v -0.2853241 0 -0.2841922
v -0.2853241 0 -0.4742747
v -0.4754066 0 -0.4742747
v -0.2853241 0 -0.4742747
v -0.2853241 0 -0.2841922
v -0.2995806 0.120018 -0.2984477
v -0.2995806 0.120018 -0.4600192
v -0.4754066 0 -0.2841922
v -0.4754066 0 -0.4742747
v -0.4611502 0.120018 -0.4600192
v -0.4611502 0.120018 -0.2984477
v 0.4743366 0 -0.4753428
v 0.4743366 0 -0.2852603
v 0.4600792 0.120018 -0.2995196
v 0.4600792 0.120018 -0.4610873
v 0.2985115 0.120018 -0.4610873
v 0.2985115 0.120018 -0.2995196
v 0.2842541 0 -0.2852603
v 0.2842541 0 -0.4753428
v 0.2842541 0 -0.4753428
v 0.2842541 0 -0.2852603
v 0.4743366 0 -0.2852603
v 0.4743366 0 -0.4753428
v 0.4743366 0 -0.2852603
v 0.2842541 0 -0.2852603
v 0.2985115 0.120018 -0.2995196
v 0.4600792 0.120018 -0.2995196
v 0.2842541 0 -0.4753428
v 0.4743366 0 -0.4753428
v 0.4600792 0.120018 -0.4610873
v 0.2985115 0.120018 -0.4610873
v 0.004903316 0.3848823 0.5197487
v 0.1763058 0.4452044 0.4844933
v 0.1763058 0.3848823 0.4844933
v 0.004903316 0.4452044 0.5197487
v -0.1763058 0.3848823 0.4844933
v -0.1763058 0.4452044 0.4844933
v -0.5 0.2316587 -0.5
v -0.5 0.8841892 -0.5
v -0.5 0.8841892 0.4802475
v -0.5 0.2316587 0.4802475
v 0.5 0.2316587 -0.5
v 0.5 0.8841892 -0.5
v -0.5 0.8841892 -0.5
v -0.5 0.2316587 -0.5
v 0.5 0.2316587 0.4802475
v 0.5 0.8841892 0.4802475
v 0.5 0.8841892 -0.5
v 0.5 0.2316587 -0.5
v -0.4104519 0.6058676 0.4802504
v -0.4104519 0.8841892 0.4802504
v 0.4104519 0.8841892 0.4802504
v 0.4104519 0.6058676 0.4802504
v -0.004926085 0.7812204 0.5043951
v 0.1763058 0.8415424 0.4858427
v 0.1763058 0.7812204 0.4858427
v -0.004926085 0.8415424 0.5043951
v -0.1763058 0.7812204 0.4858427
v -0.1763058 0.8415424 0.4858427
vt 0.01373291 0.04446411
vt 0.01373291 0.1835938
vt 0.4199219 0.1835938
vt 0.4199219 0.04446411
vt 0.5126953 0.5136719
vt 0.5126953 0.9868164
vt 0.9858398 0.9868164
vt 0.9858398 0.5136719
vt 0.009368896 0.4609375
vt 0.009368896 0.5180664
vt 0.4926758 0.5180664
vt 0.4926758 0.4609375
vt 0.9858398 0.9868164
vt 0.9858398 0.5136719
vt 0.5126953 0.5136719
vt 0.5126953 0.9868164
vt 0.4926758 0.4609375
vt 0.009368896 0.4609375
vt 0.009368896 0.5180664
vt 0.4926758 0.5180664
vt 0.009368896 0.546875
vt 0.009368896 0.6040039
vt 0.4926758 0.6040039
vt 0.4926758 0.546875
vt 0.4926758 0.6040039
vt 0.4926758 0.546875
vt 0.009368896 0.546875
vt 0.009368896 0.6040039
vt 0.009368896 0.6040039
vt 0.4926758 0.6040039
vt 0.4926758 0.546875
vt 0.009368896 0.546875
vt 0.009368896 0.546875
vt 0.009368896 0.6040039
vt 0.05264282 0.546875
vt 0.4494629 0.546875
vt 0.4926758 0.6040039
vt 0.4926758 0.546875
vt 0.05233765 0.5180664
vt 0.009368896 0.4609375
vt 0.009368896 0.5180664
vt 0.449707 0.5180664
vt 0.4926758 0.4609375
vt 0.4926758 0.5180664
vt 0.4453125 0.2932129
vt 0.4453125 0.432373
vt 0.4899902 0.432373
vt 0.4453125 0.2349854
vt 0.4899902 0.1062012
vt 0.4453125 0.1062012
vt 0.009368896 0.4609375
vt 0.009368896 0.5180664
vt 0.4926758 0.5180664
vt 0.4926758 0.4609375
vt 0.0118103 0.4367676
vt 0.4243164 0.4367676
vt 0.4243164 0.378418
vt 0.0118103 0.378418
vt 0.4453125 0.2932129
vt 0.4899902 0.432373
vt 0.4453125 0.432373
vt 0.4453125 0.2349854
vt 0.4899902 0.1062012
vt 0.4453125 0.1062012
vt 0.237793 0.9433594
vt 0.1224365 0.9433594
vt 0.1224365 0.984375
vt 0.237793 0.984375
vt 0.1224365 0.984375
vt 0.237793 0.984375
vt 0.237793 0.9433594
vt 0.1224365 0.9433594
vt 0.015625 0.9838867
vt 0.09643555 0.9838867
vt 0.09643555 0.902832
vt 0.015625 0.902832
vt 0.3786621 0.9433594
vt 0.2646484 0.9433594
vt 0.2646484 0.984375
vt 0.3786621 0.984375
vt 0.3786621 0.9433594
vt 0.2646484 0.9433594
vt 0.2646484 0.984375
vt 0.3786621 0.984375
vt 0.237793 0.9433594
vt 0.1224365 0.9433594
vt 0.1224365 0.984375
vt 0.237793 0.984375
vt 0.1224365 0.984375
vt 0.237793 0.984375
vt 0.237793 0.9433594
vt 0.1224365 0.9433594
vt 0.015625 0.9838867
vt 0.09643555 0.9838867
vt 0.09643555 0.902832
vt 0.015625 0.902832
vt 0.3786621 0.9433594
vt 0.2646484 0.9433594
vt 0.2646484 0.984375
vt 0.3786621 0.984375
vt 0.3786621 0.9433594
vt 0.2646484 0.9433594
vt 0.2646484 0.984375
vt 0.3786621 0.984375
vt 0.237793 0.9433594
vt 0.1224365 0.9433594
vt 0.1224365 0.984375
vt 0.237793 0.984375
vt 0.1224365 0.984375
vt 0.237793 0.984375
vt 0.237793 0.9433594
vt 0.1224365 0.9433594
vt 0.015625 0.9838867
vt 0.09643555 0.9838867
vt 0.09643555 0.902832
vt 0.015625 0.902832
vt 0.3786621 0.9433594
vt 0.2646484 0.9433594
vt 0.2646484 0.984375
vt 0.3786621 0.984375
vt 0.3786621 0.9433594
vt 0.2646484 0.9433594
vt 0.2646484 0.984375
vt 0.3786621 0.984375
vt 0.237793 0.9433594
vt 0.1224365 0.9433594
vt 0.1224365 0.984375
vt 0.237793 0.984375
vt 0.1224365 0.984375
vt 0.237793 0.984375
vt 0.237793 0.9433594
vt 0.1224365 0.9433594
vt 0.015625 0.9838867
vt 0.09643555 0.9838867
vt 0.09643555 0.902832
vt 0.015625 0.902832
vt 0.3786621 0.9433594
vt 0.2646484 0.9433594
vt 0.2646484 0.984375
vt 0.3786621 0.984375
vt 0.3786621 0.9433594
vt 0.2646484 0.9433594
vt 0.2646484 0.984375
vt 0.3786621 0.984375
vt 0.2834473 0.862793
vt 0.4504395 0.9272461
vt 0.4504395 0.862793
vt 0.2834473 0.9272461
vt 0.1170044 0.862793
vt 0.1170044 0.9272461
vt 0.5126953 0.1512451
vt 0.5126953 0.4599609
vt 0.9858398 0.4599609
vt 0.9858398 0.1512451
vt 0.9858398 0.4558105
vt 0.9858398 0.1470947
vt 0.5126953 0.1470947
vt 0.5126953 0.4558105
vt 0.5126953 0.1512451
vt 0.5126953 0.4599609
vt 0.9858398 0.4599609
vt 0.9858398 0.1512451
vt 0.0118103 0.2128906
vt 0.0118103 0.3520508
vt 0.4243164 0.3520508
vt 0.4243164 0.2128906
vt 0.2766113 0.862793
vt 0.4504395 0.9272461
vt 0.4504395 0.862793
vt 0.2766113 0.9272461
vt 0.1170044 0.862793
vt 0.1170044 0.9272461
vn 0 0 1
vn 0 0 1
vn 0 0 1
vn 0 0 1
vn 0 1 0
vn 0 1 0
vn 0 1 0
vn 0 1 0
vn 0 0 -1
vn 0 0 -1
vn 0 0 -1
vn 0 0 -1
vn 0 -1 0
vn 0 -1 0
vn 0 -1 0
vn 0 -1 0
vn 1 0 0
vn 1 0 0
vn 1 0 0
vn 1 0 0
vn -1 0 0
vn -1 0 0
vn -1 0 0
vn -1 0 0
vn 0 0 -1
vn 0 0 -1
vn 0 0 -1
vn 0 0 -1
vn 1 0 0
vn 1 0 0
vn 1 0 0
vn 1 0 0
vn 0 0 1
vn 0 0 1
vn 0 0 1
vn 0 0 1
vn 0 0 1
vn 0 0 1
vn 0 0 1
vn 0 0 1
vn 0 0 1
vn 0 0 1
vn 0 0 1
vn -2.777576E-05 0 1
vn 0 0 1
vn 0 0 1
vn 0 0 1
vn 0 0 1
vn -2.777576E-05 0 1
vn 0 0 1
vn -1 0 0
vn -1 0 0
vn -1 0 0
vn -1 0 0
vn 0 0 1
vn 0 0 1
vn 0 0 1
vn 0 0 1
vn 0 0 1
vn 0 0 1
vn 0 0 1
vn 0 0 1
vn 0 0 1
vn 0 0 1
vn 0 0.2249756 0.9741211
vn 0 0.2249756 0.9741211
vn 0 0.2249756 0.9741211
vn 0 0.2249756 0.9741211
vn 0 0.2249756 -0.9741211
vn 0 0.2249756 -0.9741211
vn 0 0.2249756 -0.9741211
vn 0 0.2249756 -0.9741211
vn 0 -1 0
vn 0 -1 0
vn 0 -1 0
vn 0 -1 0
vn -0.9746094 0.2249756 0
vn -0.9746094 0.2249756 0
vn -0.9746094 0.2249756 0
vn -0.9746094 0.2249756 0
vn 0.9741211 0.2249756 0
vn 0.9741211 0.2249756 0
vn 0.9741211 0.2249756 0
vn 0.9741211 0.2249756 0
vn -0.9741211 0.2249756 0
vn -0.9741211 0.2249756 0
vn -0.9741211 0.2249756 0
vn -0.9741211 0.2249756 0
vn 0.9746094 0.2249756 0
vn 0.9746094 0.2249756 0
vn 0.9746094 0.2249756 0
vn 0.9746094 0.2249756 0
vn 0 -1 0
vn 0 -1 0
vn 0 -1 0
vn 0 -1 0
vn 0 0.2249756 -0.9741211
vn 0 0.2249756 -0.9741211
vn 0 0.2249756 -0.9741211
vn 0 0.2249756 -0.9741211
vn 0 0.2249756 0.9741211
vn 0 0.2249756 0.9741211
vn 0 0.2249756 0.9741211
vn 0 0.2249756 0.9741211
vn 0 0.2249756 -0.9741211
vn 0 0.2249756 -0.9741211
vn 0 0.2249756 -0.9741211
vn 0 0.2249756 -0.9741211
vn 0 0.2249756 0.9741211
vn 0 0.2249756 0.9741211
vn 0 0.2249756 0.9741211
vn 0 0.2249756 0.9741211
vn 0 -1 0
vn 0 -1 0
vn 0 -1 0
vn 0 -1 0
vn 0.9746094 0.2249756 0
vn 0.9746094 0.2249756 0
vn 0.9746094 0.2249756 0
vn 0.9746094 0.2249756 0
vn -0.9741211 0.2249756 0
vn -0.9741211 0.2249756 0
vn -0.9741211 0.2249756 0
vn -0.9741211 0.2249756 0
vn 0.9741211 0.2249756 0
vn 0.9741211 0.2249756 0
vn 0.9741211 0.2249756 0
vn 0.9741211 0.2249756 0
vn -0.9741211 0.2249756 0
vn -0.9741211 0.2249756 0
vn -0.9741211 0.2249756 0
vn -0.9741211 0.2249756 0
vn 0 -1 0
vn 0 -1 0
vn 0 -1 0
vn 0 -1 0
vn 0 0.2249756 0.9741211
vn 0 0.2249756 0.9741211
vn 0 0.2249756 0.9741211
vn 0 0.2249756 0.9741211
vn 0 0.2249756 -0.9741211
vn 0 0.2249756 -0.9741211
vn 0 0.2249756 -0.9741211
vn 0 0.2249756 -0.9741211
vn 0 0 1
vn 0 0 1
vn 0 0 1
vn 0 0 1
vn 0 0 1
vn 0 0 1
vn -1 0 0
vn -1 0 0
vn -1 0 0
vn -1 0 0
vn 0 0 -1
vn 0 0 -1
vn 0 0 -1
vn 0 0 -1
vn 1 0 0
vn 1 0 0
vn 1 0 0
vn 1 0 0
vn 0 0 1
vn 0 0 1
vn 0 0 1
vn 0 0 1
vn 0 0 1
vn 0 0 1
vn 0 0 1
vn 0 0 1
vn 0 0 1
vn 0 0 1
g t051v003_m_0
f 3/3/3 2/2/2 1/1/1
f 4/4/4 3/3/3 1/1/1
f 7/7/7 6/6/6 5/5/5
f 8/8/8 7/7/7 5/5/5
f 11/11/11 10/10/10 9/9/9
f 12/12/12 11/11/11 9/9/9
f 15/15/15 14/14/14 13/13/13
f 16/16/16 15/15/15 13/13/13
f 19/19/19 18/18/18 17/17/17
f 20/20/20 19/19/19 17/17/17
f 23/23/23 22/22/22 21/21/21
f 24/24/24 23/23/23 21/21/21
f 27/27/27 26/26/26 25/25/25
f 28/28/28 27/27/27 25/25/25
f 31/31/31 30/30/30 29/29/29
f 32/32/32 31/31/31 29/29/29
f 35/35/35 34/34/34 33/33/33
f 35/35/35 36/36/36 34/34/34
f 36/36/36 37/37/37 34/34/34
f 36/36/36 38/38/38 37/37/37
f 41/41/41 40/40/40 39/39/39
f 42/42/42 39/39/39 40/40/40
f 43/43/43 42/42/42 40/40/40
f 42/42/42 43/43/43 44/44/44
f 47/47/47 46/46/46 45/45/45
f 47/47/47 45/45/45 48/48/48
f 49/49/49 47/47/47 48/48/48
f 50/50/50 49/49/49 48/48/48
f 53/53/53 52/52/52 51/51/51
f 54/54/54 53/53/53 51/51/51
f 57/57/57 56/56/56 55/55/55
f 58/58/58 57/57/57 55/55/55
f 61/61/61 60/60/60 59/59/59
f 59/59/59 60/60/60 62/62/62
f 60/60/60 63/63/63 62/62/62
f 63/63/63 64/64/64 62/62/62
f 67/67/67 66/66/66 65/65/65
f 68/68/68 67/67/67 65/65/65
f 71/71/71 70/70/70 69/69/69
f 72/72/72 71/71/71 69/69/69
f 75/75/75 74/74/74 73/73/73
f 76/76/76 75/75/75 73/73/73
f 79/79/79 78/78/78 77/77/77
f 80/80/80 79/79/79 77/77/77
f 83/83/83 82/82/82 81/81/81
f 84/84/84 83/83/83 81/81/81
f 87/87/87 86/86/86 85/85/85
f 88/88/88 87/87/87 85/85/85
f 91/91/91 90/90/90 89/89/89
f 92/92/92 91/91/91 89/89/89
f 95/95/95 94/94/94 93/93/93
f 96/96/96 95/95/95 93/93/93
f 99/99/99 98/98/98 97/97/97
f 100/100/100 99/99/99 97/97/97
f 103/103/103 102/102/102 101/101/101
f 104/104/104 103/103/103 101/101/101
f 107/107/107 106/106/106 105/105/105
f 108/108/108 107/107/107 105/105/105
f 111/111/111 110/110/110 109/109/109
f 112/112/112 111/111/111 109/109/109
f 115/115/115 114/114/114 113/113/113
f 116/116/116 115/115/115 113/113/113
f 119/119/119 118/118/118 117/117/117
f 120/120/120 119/119/119 117/117/117
f 123/123/123 122/122/122 121/121/121
f 124/124/124 123/123/123 121/121/121
f 127/127/127 126/126/126 125/125/125
f 128/128/128 127/127/127 125/125/125
f 131/131/131 130/130/130 129/129/129
f 132/132/132 131/131/131 129/129/129
f 135/135/135 134/134/134 133/133/133
f 136/136/136 135/135/135 133/133/133
f 139/139/139 138/138/138 137/137/137
f 140/140/140 139/139/139 137/137/137
f 143/143/143 142/142/142 141/141/141
f 144/144/144 143/143/143 141/141/141
f 147/147/147 146/146/146 145/145/145
f 146/146/146 148/148/148 145/145/145
f 149/149/149 145/145/145 148/148/148
f 150/150/150 149/149/149 148/148/148
f 153/153/153 152/152/152 151/151/151
f 154/154/154 153/153/153 151/151/151
f 157/157/157 156/156/156 155/155/155
f 158/158/158 157/157/157 155/155/155
f 161/161/161 160/160/160 159/159/159
f 162/162/162 161/161/161 159/159/159
f 165/165/165 164/164/164 163/163/163
f 166/166/166 165/165/165 163/163/163
f 169/169/169 168/168/168 167/167/167
f 168/168/168 170/170/170 167/167/167
f 171/171/171 167/167/167 170/170/170
f 172/172/172 171/171/171 170/170/170
