g t056v001_m
v 0.1115327 0.007438825 0.1146775
v 0.1516991 0.04894897 0.08581043
v 0.16998 0.002361549 0.04448739
v 0.009225845 0.0496733 0.02050287
v 0.16998 0.002361549 0.04448739
v 0.06767273 0.04459602 -0.04968718
v 0.06767273 0.04459602 -0.04968718
v 0.06474018 0.1087997 0.004671447
v 0.009225845 0.0496733 0.02050287
v -0.1235957 0.001834266 0.06354834
v -0.1216106 0.03289589 0.108946
v -0.07387614 0.001218216 0.1389823
v -0.05146813 0.08568638 0.05361743
v -0.0469451 0.04412392 0.002126388
v -0.001839638 0.03962841 0.05972692
v 0.247221 0.369853 0.4222641
v 0.4830967 0 0.123704
v 0.247221 -1.462827E-17 0.4341393
v 0.4699022 0.369853 0.1199798
v 0.405268 0 -0.3342125
v 0.3944432 0.579519 0.09868124
v 0.2045898 0.579519 0.3543625
v 0.1623032 0.5231721 0.409687
v 0 0.579519 0.4091797
v 0.3929657 0.369853 -0.3248954
v 0 0.369853 -0.487587
v 0 -9.476377E-17 -0.501297
v 0 0.579519 -0.4091797
v 0.3226122 0.579519 -0.271623
v 0 0.7108964 -0.2678375
v 0.1957884 0.7108964 -0.1755847
v 0.2584156 0.7108961 0.06028706
v 0.1339197 0.7108961 0.2319527
v -0.1339188 0.7108961 0.2319527
v -0.2045898 0.579519 0.3543625
v -0.1623032 0.5231721 0.409687
v -0.247221 0.369853 0.4222641
v -0.3916147 0.579519 0.09661849
v -0.2588783 0.7108964 0.04805249
v -0.4652481 0.369853 0.1235597
v -0.247221 -1.314694E-17 0.4341354
v -0.4781233 -1.541735E-16 0.1282705
v -0.3942295 0.369853 -0.3225683
v -0.4083057 5.119866E-17 -0.328894
v -0.3239225 0.579519 -0.2690824
v -0.1941356 0.7108964 -0.1761133
v 0 0.579519 -0.4091797
v 0 0.7108964 -0.2678375
v 0 0.369853 -0.487587
v 0 -9.476377E-17 -0.501297
v -0.2150854 0.9196368 -0.2320369
v 0 0.9196368 -0.316391
v 0.2176131 0.9196368 -0.2301055
v 0.3163919 0.9196368 0
v -0.3163919 0.9196368 0
v -0.2193718 0.9196368 0.2279887
v 0.2150873 0.9196368 0.2320369
v 0 0.9196368 0.316391
v 0.06640816 0.918569 0.1743698
v 0.06640816 0.9999999 0.1221619
v 0.1454735 0.9999999 0.1221619
v 0.1454735 0.918569 0.1743698
v 0.06640816 0.9999999 0.1221619
v 0.06640816 0.9999999 -0.1221581
v 0.1454735 0.9999999 -0.1221581
v 0.1454735 0.9999999 0.1221619
v 0.06640816 0.9999999 -0.1221581
v 0.06640816 0.918569 -0.1743622
v 0.1454735 0.918569 -0.1743622
v 0.1454735 0.9999999 -0.1221581
v 0.1454735 0.918569 0.1743698
v 0.1454735 0.9999999 0.1221619
v 0.1454735 0.9999999 -0.1221581
v 0.1454735 0.918569 -0.1743622
v 0.06640816 0.918569 -0.1743622
v 0.06640816 0.9999999 -0.1221581
v 0.06640816 0.9999999 0.1221619
v 0.06640816 0.918569 0.1743698
v 0.2176131 0.8399761 -0.2301055
v 0 0.8399761 -0.316391
v -0.2150854 0.8399761 -0.2320369
v -0.3163919 0.8399761 0
v 0.3163919 0.8399761 0
v 0.2150873 0.8399761 0.2320369
v -0.2193718 0.8399761 0.2279887
v 0 0.8399761 0.316391
v -0.06640816 0.918569 0.1743698
v -0.1454735 0.918569 0.1743698
v -0.1454735 0.9999999 0.1221619
v -0.06640816 0.9999999 0.1221619
v -0.06640816 0.9999999 0.1221619
v -0.1454735 0.9999999 0.1221619
v -0.1454735 0.9999999 -0.1221581
v -0.06640816 0.9999999 -0.1221581
v -0.06640816 0.9999999 -0.1221581
v -0.1454735 0.9999999 -0.1221581
v -0.1454735 0.918569 -0.1743622
v -0.06640816 0.918569 -0.1743622
v -0.1454735 0.918569 0.1743698
v -0.1454735 0.918569 -0.1743622
v -0.1454735 0.9999999 -0.1221581
v -0.1454735 0.9999999 0.1221619
v -0.06640816 0.918569 -0.1743622
v -0.06640816 0.918569 0.1743698
v -0.06640816 0.9999999 0.1221619
v -0.06640816 0.9999999 -0.1221581
v 0.1957897 0.8399755 -0.1755843
v 0.2584156 0.7108961 0.06028706
v 0.2584156 0.8399755 0.06028706
v 0.1957884 0.7108964 -0.1755847
v 0 0.7108964 -0.2678375
v 0 0.8399755 -0.2678375
v -0.1941356 0.7108964 -0.1761133
v -0.1941356 0.8399755 -0.1761133
v -0.2588783 0.8399761 0.04805249
v -0.2588783 0.7108964 0.04805249
v 0.3163919 0.9196368 0
v 0.2176131 0.8399761 -0.2301055
v 0.3163919 0.8399761 0
v 0.2176131 0.9196368 -0.2301055
v 0 0.8399761 -0.316391
v 0 0.9196368 -0.316391
v -0.2150854 0.8399761 -0.2320369
v -0.2150854 0.9196368 -0.2320369
v -0.3163919 0.8399761 0
v -0.3163919 0.9196368 0
v 0.2584156 0.7108961 0.06028706
v 0.1339207 0.8399755 0.2319527
v 0.2584156 0.8399755 0.06028706
v 0.1339197 0.7108961 0.2319527
v -0.1339188 0.8399755 0.2319527
v -0.1339188 0.7108961 0.2319527
v -0.2588783 0.8399761 0.04805249
v -0.2588783 0.7108964 0.04805249
v 0.2150873 0.8399761 0.2320369
v 0.3163919 0.9196368 0
v 0.3163919 0.8399761 0
v 0.2150873 0.9196368 0.2320369
v 0 0.8399761 0.316391
v 0 0.9196368 0.316391
v -0.2193718 0.8399761 0.2279887
v -0.2193718 0.9196368 0.2279887
v -0.3163919 0.9196368 0
v -0.3163919 0.8399761 0
v -0.1680355 5.472545E-05 -0.1678915
v 0 0.369853 -0.2438507
v 0 5.471054E-05 -0.2438545
v -0.1680355 0.369853 -0.1678915
v 0.003820933 0.4795537 -0.1749908
v -0.247221 0.369853 0.4222641
v -0.247221 -1.314694E-17 0.4341354
v -0.1623032 0.5231721 0.409687
v 0 0.579519 0.4091797
v -0.4781233 -1.541735E-16 0.1282705
v -0.247221 -1.314694E-17 0.4341354
v -0.1680355 5.472545E-05 -0.1678915
v -0.4083057 5.119866E-17 -0.328894
v 0 -9.476377E-17 -0.501297
v 0 5.471054E-05 -0.2438545
v 0.1740438 5.472545E-05 -0.1615249
v 0.405268 0 -0.3342125
v 0.4830967 0 0.123704
v 0.247221 -1.462827E-17 0.4341393
v 0.1740438 5.472545E-05 -0.1615249
v 0 5.471054E-05 -0.2438545
v 0 0.369853 -0.2438507
v 0.1735296 0.369853 -0.1703644
v 0.247221 -1.462827E-17 0.4341393
v 0.247221 0.369853 0.4222641
v 0.003820933 0.4795537 -0.1749908
v 0.1623032 0.5231721 0.409687
v 0 0.579519 0.4091797
v 0.1115327 0.007438825 0.1146775
v 0.009225845 0.0496733 0.02050287
v 0.1516991 0.04894897 0.08581043
v 0.06474018 0.1087997 0.004671447
v 0.16998 0.002361549 0.04448739
v 0.1516991 0.04894897 0.08581043
v 0.06767273 0.04459602 -0.04968718
v 0.06474018 0.1087997 0.004671447
v -0.05146813 0.08568638 0.05361743
v -0.001839638 0.03962841 0.05972692
v -0.1216106 0.03289589 0.108946
v -0.07387614 0.001218216 0.1389823
v -0.05146813 0.08568638 0.05361743
v -0.1216106 0.03289589 0.108946
v -0.0469451 0.04412392 0.002126388
v -0.1235957 0.001834266 0.06354834
v -0.247221 2.736272E-05 -0.1464984
v 0.247221 2.736272E-05 -0.1401099
v 0 5.471054E-05 -0.2438545
v 0.1702065 0 0.1702065
v -0.1702065 0 0.1702065
v 0 0 0.2407083
v 0 5.471054E-05 -0.2438545
v 0.247221 2.736272E-05 -0.1401099
v 0 0.05625805 -1.473583E-08
v -0.247221 2.736272E-05 -0.1464984
v 0.1702065 0 0.1702065
v -0.1702065 0 0.1702065
v 0 0 0.2407083
vt 0.04125977 0.300293
vt 0.01667786 0.300293
vt 0.01667786 0.3496094
vt 0.6201172 0.2521973
vt 0.5957031 0.1293945
vt 0.5957031 0.2521973
vt 0.02755737 0.2282715
vt 0.0531311 0.2282715
vt 0.0531311 0.1789551
vt 0.01712036 0.2446289
vt 0.01712036 0.2939453
vt 0.04168701 0.2939453
vt 0.0531311 0.04364014
vt 0.02755737 0.04364014
vt 0.04034424 0.09301758
vt 0.6381836 0.2376709
vt 0.7817383 0.027771
vt 0.6381836 0.027771
vt 0.7817383 0.2376709
vt 0.9213867 0.027771
vt 0.7817383 0.3771973
vt 0.6381836 0.3771973
vt 0.6186523 0.3347168
vt 0.5664063 0.3771973
vt 0.9213867 0.2376709
vt 0.9956055 0.2376709
vt 0.9956055 0.027771
vt 0.9956055 0.3771973
vt 0.9213867 0.3771973
vt 0.9956055 0.486084
vt 0.9213867 0.486084
vt 0.7817383 0.486084
vt 0.6381836 0.486084
vt 0.4938965 0.486084
vt 0.4938965 0.3771973
vt 0.5136719 0.3344727
vt 0.4938965 0.2376709
vt 0.3503418 0.3771973
vt 0.3503418 0.486084
vt 0.3503418 0.2376709
vt 0.4938965 0.027771
vt 0.3503418 0.027771
vt 0.2104492 0.2376709
vt 0.2104492 0.027771
vt 0.2104492 0.3771973
vt 0.2104492 0.486084
vt 0.1363525 0.3771973
vt 0.1363525 0.486084
vt 0.1363525 0.2376709
vt 0.1363525 0.027771
vt 0.05819702 0.8662109
vt 0.1056519 0.8916016
vt 0.1530762 0.8662109
vt 0.2005615 0.7016602
vt 0.01074982 0.7016602
vt 0.05819702 0.5371094
vt 0.1530762 0.5371094
vt 0.1056519 0.5117188
vt 0.1081543 0.3557129
vt 0.1081543 0.2937012
vt 0.0814209 0.2937012
vt 0.0814209 0.3557129
vt 0.1081543 0.2785645
vt 0.1081543 0.1346436
vt 0.0814209 0.1346436
vt 0.0814209 0.2785645
vt 0.1081543 0.1182861
vt 0.1081543 0.05621338
vt 0.0814209 0.05621338
vt 0.0814209 0.1182861
vt 0.007141113 0.3950195
vt 0.02479553 0.4501953
vt 0.1074219 0.4501953
vt 0.125 0.3950195
vt 0.007141113 0.3950195
vt 0.02479553 0.4501953
vt 0.1074219 0.4501953
vt 0.125 0.3950195
vt 0.05819702 0.8662109
vt 0.1056519 0.8916016
vt 0.1530762 0.8662109
vt 0.2005615 0.7016602
vt 0.01074982 0.7016602
vt 0.05819702 0.5371094
vt 0.1530762 0.5371094
vt 0.1056519 0.5117188
vt 0.1081543 0.05621338
vt 0.0814209 0.05621338
vt 0.0814209 0.1182861
vt 0.1081543 0.1182861
vt 0.1081543 0.1346436
vt 0.0814209 0.1346436
vt 0.0814209 0.2785645
vt 0.1081543 0.2785645
vt 0.1081543 0.2937012
vt 0.0814209 0.2937012
vt 0.0814209 0.3557129
vt 0.1081543 0.3557129
vt 0.125 0.3950195
vt 0.007141113 0.3950195
vt 0.02479553 0.4501953
vt 0.1074219 0.4501953
vt 0.125 0.3950195
vt 0.007141113 0.3950195
vt 0.02479553 0.4501953
vt 0.1074219 0.4501953
vt 0.4257813 0.9775391
vt 0.342041 0.8999023
vt 0.342041 0.9775391
vt 0.4257813 0.8999023
vt 0.4665527 0.8999023
vt 0.4665527 0.9775391
vt 0.5073242 0.8999023
vt 0.5073242 0.9775391
vt 0.5913086 0.9775391
vt 0.5913086 0.8999023
vt 0.05493164 0.9775391
vt 0.1455078 0.9257813
vt 0.05493164 0.9257813
vt 0.1455078 0.9775391
vt 0.1889648 0.9257813
vt 0.1889648 0.9775391
vt 0.2324219 0.9257813
vt 0.2324219 0.9775391
vt 0.3227539 0.9257813
vt 0.3227539 0.9775391
vt 0.5913086 0.8999023
vt 0.5073242 0.9775391
vt 0.5913086 0.9775391
vt 0.5073242 0.8999023
vt 0.4257813 0.9775391
vt 0.4257813 0.8999023
vt 0.342041 0.9775391
vt 0.342041 0.8999023
vt 0.2324219 0.9257813
vt 0.3227539 0.9775391
vt 0.3227539 0.9257813
vt 0.2324219 0.9775391
vt 0.1889648 0.9257813
vt 0.1889648 0.9775391
vt 0.1455078 0.9257813
vt 0.1455078 0.9775391
vt 0.05493164 0.9775391
vt 0.05493164 0.9257813
vt 0.527832 0.5200195
vt 0.565918 0.6953125
vt 0.5693359 0.5200195
vt 0.5249023 0.6801758
vt 0.5371094 0.7514648
vt 0.3981934 0.6801758
vt 0.3981934 0.5200195
vt 0.402832 0.7617188
vt 0.4069824 0.8413086
vt 0.8364258 0.7373047
vt 0.7729492 0.5200195
vt 0.7539063 0.8217773
vt 0.7734375 0.9541016
vt 0.7109375 0.987793
vt 0.7109375 0.8588867
vt 0.6679688 0.8217773
vt 0.6484375 0.9541016
vt 0.5854492 0.7373047
vt 0.6489258 0.5200195
vt 0.255127 0.5200195
vt 0.2133789 0.5200195
vt 0.2174072 0.6928711
vt 0.2578125 0.6801758
vt 0.3857422 0.5200195
vt 0.3857422 0.6801758
vt 0.2452393 0.7509766
vt 0.3806152 0.7626953
vt 0.3762207 0.8432617
vt 0.5473633 0.1270752
vt 0.5327148 0.2524414
vt 0.5703125 0.1374512
vt 0.5703125 0.2524414
vt 0.5957031 0.1293945
vt 0.5703125 0.1374512
vt 0.5957031 0.2521973
vt 0.5703125 0.2524414
vt 0.5678711 0.1130981
vt 0.6049805 0.1130981
vt 0.5678711 0.02288818
vt 0.5922852 0.02391052
vt 0.5678711 0.1130981
vt 0.5678711 0.02288818
vt 0.5395508 0.1130981
vt 0.5395508 0.02732849
vt 0.7675781 0.7373047
vt 0.6542969 0.7373047
vt 0.7109375 0.8496094
vt 0.671875 0.6586914
vt 0.75 0.6586914
vt 0.7109375 0.6264648
vt 0.9150391 0.9760742
vt 0.9912109 0.8261719
vt 0.9150391 0.8261719
vt 0.8388672 0.8261719
vt 0.9672852 0.7211914
vt 0.862793 0.7211914
vt 0.9150391 0.6777344
vn 0.7299805 -0.2700195 0.6274414
vn 0.7299805 -0.2700195 0.6274414
vn 0.7299805 -0.2700195 0.6274414
vn 0.1875 -0.671875 -0.7167969
vn 0.1875 -0.671875 -0.7167969
vn 0.1875 -0.671875 -0.7167969
vn -0.5952148 0.5957031 -0.5390625
vn -0.5141602 0.7114258 -0.4794922
vn -0.5957031 0.5957031 -0.5390625
vn -0.671875 -0.597168 0.4379883
vn -0.671875 -0.597168 0.4379883
vn -0.671875 -0.597168 0.4379883
vn 0.6035156 0.6455078 -0.4682617
vn 0.640625 0.597168 -0.4824219
vn 0.6396484 0.5986328 -0.4819336
vn 0.7021484 0.1378174 0.6987305
vn 0.9995117 0.03704834 0
vn 0.7070313 0.0292511 0.7070313
vn 0.9892578 0.1450195 0
vn 0.4997559 0.03704834 -0.8652344
vn 0.8681641 0.496582 0
vn 0.512207 0.5620117 0.6494141
vn 0.3742676 0.4912109 0.7866211
vn 0 0.7348633 0.6782227
vn 0.4946289 0.1450195 -0.8569336
vn 0 0.1450195 -0.9892578
vn 0 0.03704834 -0.9995117
vn 0 0.496582 -0.8681641
vn 0.434082 0.496582 -0.7519531
vn 0 0.7324219 -0.6806641
vn 0.340332 0.7324219 -0.5893555
vn 0.6806641 0.7324219 0
vn 0.340332 0.7324219 0.5893555
vn -0.340332 0.7324219 0.5893555
vn -0.512207 0.5620117 0.6494141
vn -0.3742676 0.4912109 0.7866211
vn -0.7021484 0.1378174 0.6987305
vn -0.8681641 0.496582 0
vn -0.6806641 0.7324219 0
vn -0.9892578 0.1450195 0
vn -0.7070313 0.0292511 0.7070313
vn -0.9995117 0.03704834 0
vn -0.4946289 0.1450195 -0.8569336
vn -0.4997559 0.03704834 -0.8652344
vn -0.434082 0.496582 -0.7519531
vn -0.340332 0.7324219 -0.5893555
vn 0 0.496582 -0.8681641
vn 0 0.7324219 -0.6806641
vn 0 0.1450195 -0.9892578
vn 0 0.03704834 -0.9995117
vn 0 1 0
vn 0 1 0
vn 0 1 0
vn 0 1 0
vn 0 1 0
vn 0 1 0
vn 0 1 0
vn 0 1 0
vn 0 0.5395508 0.8417969
vn 0 0.5395508 0.8417969
vn 0 0.5395508 0.8417969
vn 0 0.5395508 0.8417969
vn 0 1 0
vn 0 1 0
vn 0 1 0
vn 0 1 0
vn 0 0.5395508 -0.8417969
vn 0 0.5395508 -0.8417969
vn 0 0.5395508 -0.8417969
vn 0 0.5395508 -0.8417969
vn 1 0 0
vn 1 0 0
vn 1 0 0
vn 1 0 0
vn -1 0 0
vn -1 0 0
vn -1 0 0
vn -1 0 0
vn 0 -1 0
vn 0 -1 0
vn 0 -1 0
vn 0 -1 0
vn 0 -1 0
vn 0 -1 0
vn 0 -1 0
vn 0 -1 0
vn 0 0.5395508 0.8417969
vn 0 0.5395508 0.8417969
vn 0 0.5395508 0.8417969
vn 0 0.5395508 0.8417969
vn 0 1 0
vn 0 1 0
vn 0 1 0
vn 0 1 0
vn 0 0.5395508 -0.8417969
vn 0 0.5395508 -0.8417969
vn 0 0.5395508 -0.8417969
vn 0 0.5395508 -0.8417969
vn -1 0 0
vn -1 0 0
vn -1 0 0
vn -1 0 0
vn 1 0 0
vn 1 0 0
vn 1 0 0
vn 1 0 0
vn 0.5 0 -0.8662109
vn 1 0 0
vn 1 0 0
vn 0.5 0 -0.8662109
vn 0 0 -1
vn 0 0 -1
vn -0.5 0 -0.8662109
vn -0.5 0 -0.8662109
vn -1 0 0
vn -1 0 0
vn 1 0 0
vn 0.5 0 -0.8662109
vn 1 0 0
vn 0.5 0 -0.8662109
vn 0 0 -1
vn 0 0 -1
vn -0.5 0 -0.8662109
vn -0.5 0 -0.8662109
vn -1 0 0
vn -1 0 0
vn 1 0 0
vn 0.5 0 0.8662109
vn 1 0 0
vn 0.5 0 0.8662109
vn -0.5 0 0.8662109
vn -0.5 0 0.8662109
vn -1 0 0
vn -1 0 0
vn 0.5 0 0.8662109
vn 1 0 0
vn 1 0 0
vn 0.5 0 0.8662109
vn 0 0 1
vn 0 0 1
vn -0.5 0 0.8662109
vn -0.5 0 0.8662109
vn -1 0 0
vn -1 0 0
vn 0.7021484 0 0.7119141
vn 0.3894043 -0.03701782 0.9204102
vn 0.3974609 0 0.9174805
vn 0.7280273 -0.1085815 0.6767578
vn 0.3068848 -0.8212891 0.480957
vn 0.9995117 -0.03598022 0
vn 1 0 0
vn 0.6459961 -0.7636719 0.009284973
vn 0.1668701 -0.9858398 0
vn 0.0001077056 -1 2.884865E-05
vn 6.186962E-05 -1 -6.300211E-05
vn 6.681681E-05 -1 0.0001995564
vn 6.681681E-05 -1 0.0001995564
vn 6.681681E-05 -1 0.0001995564
vn 6.681681E-05 -1 0.0001995564
vn -6.681681E-05 -1 0.0001995564
vn -6.681681E-05 -1 0.0001995564
vn -0.0001077056 -1 2.884865E-05
vn -6.186962E-05 -1 -6.300211E-05
vn -0.7021484 0 0.7119141
vn 0.3974609 0 0.9174805
vn 0.3894043 -0.03701782 0.9204102
vn -0.7280273 -0.1085815 0.6767578
vn -1 0 0
vn -0.9995117 -0.03598022 0
vn 0.3068848 -0.8212891 0.480957
vn -0.6459961 -0.7636719 0.009284973
vn 0.1668701 -0.9858398 0
vn -0.1835938 0.6748047 0.7148438
vn -0.1750488 0.6894531 0.703125
vn -0.1809082 0.6791992 0.7109375
vn -0.1706543 0.6967773 0.6967773
vn 0.7304688 0.5908203 -0.3425293
vn 0.7299805 0.5917969 -0.342041
vn 0.7285156 0.5942383 -0.3405762
vn 0.7275391 0.5966797 -0.3395996
vn 0.05075073 0.6894531 0.722168
vn 0.04598999 0.7001953 0.7124023
vn 0.04211426 0.7089844 0.7041016
vn 0.03826904 0.7172852 0.6958008
vn -0.7363281 0.4934082 -0.4628906
vn -0.6972656 0.5751953 -0.427002
vn -0.71875 0.5327148 -0.4465332
vn -0.6674805 0.6279297 -0.4003906
vn 0 -1 -0.0001608133
vn 0 -1 -0.0001608133
vn 0 -1 0
vn 0 -1 -0.0001608133
vn 0 -1 -0.0001608133
vn 0 -1 0
vn 0 0.9746094 -0.2246094
vn 0.2218018 0.9750977 0.0008268356
vn 0 1 -0.0001316071
vn -0.2218018 0.9750977 0.0008268356
vn 0.1595459 0.9736328 0.1623535
vn -0.1595459 0.9736328 0.1623535
vn 0 0.9736328 0.2275391
g t056v001_m_0
f 3/3/3 2/2/2 1/1/1
f 6/6/6 5/5/5 4/4/4
f 9/9/9 8/8/8 7/7/7
f 12/12/12 11/11/11 10/10/10
f 15/15/15 14/14/14 13/13/13
f 18/18/18 17/17/17 16/16/16
f 17/17/17 19/19/19 16/16/16
f 17/17/17 20/20/20 19/19/19
f 16/16/16 19/19/19 21/21/21
f 22/22/22 16/16/16 21/21/21
f 23/23/23 16/16/16 22/22/22
f 24/24/24 23/23/23 22/22/22
f 20/20/20 25/25/25 19/19/19
f 25/25/25 20/20/20 26/26/26
f 20/20/20 27/27/27 26/26/26
f 25/25/25 26/26/26 28/28/28
f 19/19/19 25/25/25 29/29/29
f 29/29/29 25/25/25 28/28/28
f 21/21/21 19/19/19 29/29/29
f 28/28/28 30/30/30 29/29/29
f 30/30/30 31/31/31 29/29/29
f 29/29/29 31/31/31 21/21/21
f 31/31/31 32/32/32 21/21/21
f 21/21/21 32/32/32 22/22/22
f 32/32/32 33/33/33 22/22/22
f 22/22/22 33/33/33 24/24/24
f 33/33/33 34/34/34 24/24/24
f 24/24/24 34/34/34 35/35/35
f 36/36/36 24/24/24 35/35/35
f 37/37/37 36/36/36 35/35/35
f 35/35/35 34/34/34 38/38/38
f 34/34/34 39/39/39 38/38/38
f 37/37/37 35/35/35 40/40/40
f 35/35/35 38/38/38 40/40/40
f 37/37/37 40/40/40 41/41/41
f 40/40/40 42/42/42 41/41/41
f 40/40/40 43/43/43 42/42/42
f 40/40/40 38/38/38 43/43/43
f 43/43/43 44/44/44 42/42/42
f 38/38/38 39/39/39 45/45/45
f 38/38/38 45/45/45 43/43/43
f 39/39/39 46/46/46 45/45/45
f 45/45/45 46/46/46 47/47/47
f 43/43/43 45/45/45 47/47/47
f 46/46/46 48/48/48 47/47/47
f 49/49/49 43/43/43 47/47/47
f 44/44/44 43/43/43 49/49/49
f 50/50/50 44/44/44 49/49/49
f 53/53/53 52/52/52 51/51/51
f 53/53/53 51/51/51 54/54/54
f 51/51/51 55/55/55 54/54/54
f 55/55/55 56/56/56 54/54/54
f 56/56/56 57/57/57 54/54/54
f 56/56/56 58/58/58 57/57/57
f 61/61/61 60/60/60 59/59/59
f 62/62/62 61/61/61 59/59/59
f 65/65/65 64/64/64 63/63/63
f 66/66/66 65/65/65 63/63/63
f 69/69/69 68/68/68 67/67/67
f 70/70/70 69/69/69 67/67/67
f 73/73/73 72/72/72 71/71/71
f 74/74/74 73/73/73 71/71/71
f 77/77/77 76/76/76 75/75/75
f 78/78/78 77/77/77 75/75/75
f 81/81/81 80/80/80 79/79/79
f 82/82/82 81/81/81 79/79/79
f 83/83/83 82/82/82 79/79/79
f 82/82/82 83/83/83 84/84/84
f 85/85/85 82/82/82 84/84/84
f 84/84/84 86/86/86 85/85/85
f 89/89/89 88/88/88 87/87/87
f 90/90/90 89/89/89 87/87/87
f 93/93/93 92/92/92 91/91/91
f 94/94/94 93/93/93 91/91/91
f 97/97/97 96/96/96 95/95/95
f 98/98/98 97/97/97 95/95/95
f 101/101/101 100/100/100 99/99/99
f 102/102/102 101/101/101 99/99/99
f 105/105/105 104/104/104 103/103/103
f 106/106/106 105/105/105 103/103/103
f 109/109/109 108/108/108 107/107/107
f 108/108/108 110/110/110 107/107/107
f 107/107/107 110/110/110 111/111/111
f 112/112/112 107/107/107 111/111/111
f 112/112/112 111/111/111 113/113/113
f 114/114/114 112/112/112 113/113/113
f 114/114/114 113/113/113 115/115/115
f 113/113/113 116/116/116 115/115/115
f 119/119/119 118/118/118 117/117/117
f 118/118/118 120/120/120 117/117/117
f 120/120/120 118/118/118 121/121/121
f 122/122/122 120/120/120 121/121/121
f 122/122/122 121/121/121 123/123/123
f 124/124/124 122/122/122 123/123/123
f 123/123/123 125/125/125 124/124/124
f 125/125/125 126/126/126 124/124/124
f 129/129/129 128/128/128 127/127/127
f 128/128/128 130/130/130 127/127/127
f 128/128/128 131/131/131 130/130/130
f 131/131/131 132/132/132 130/130/130
f 131/131/131 133/133/133 132/132/132
f 133/133/133 134/134/134 132/132/132
f 137/137/137 136/136/136 135/135/135
f 136/136/136 138/138/138 135/135/135
f 135/135/135 138/138/138 139/139/139
f 138/138/138 140/140/140 139/139/139
f 139/139/139 140/140/140 141/141/141
f 140/140/140 142/142/142 141/141/141
f 142/142/142 143/143/143 141/141/141
f 143/143/143 144/144/144 141/141/141
f 147/147/147 146/146/146 145/145/145
f 146/146/146 148/148/148 145/145/145
f 148/148/148 146/146/146 149/149/149
f 148/148/148 150/150/150 145/145/145
f 150/150/150 151/151/151 145/145/145
f 152/152/152 150/150/150 148/148/148
f 149/149/149 152/152/152 148/148/148
f 153/153/153 152/152/152 149/149/149
f 156/156/156 155/155/155 154/154/154
f 157/157/157 156/156/156 154/154/154
f 156/156/156 157/157/157 158/158/158
f 159/159/159 156/156/156 158/158/158
f 160/160/160 159/159/159 158/158/158
f 161/161/161 160/160/160 158/158/158
f 162/162/162 160/160/160 161/161/161
f 162/162/162 163/163/163 160/160/160
f 166/166/166 165/165/165 164/164/164
f 167/167/167 166/166/166 164/164/164
f 164/164/164 168/168/168 167/167/167
f 168/168/168 169/169/169 167/167/167
f 166/166/166 167/167/167 170/170/170
f 167/167/167 169/169/169 170/170/170
f 169/169/169 171/171/171 170/170/170
f 170/170/170 171/171/171 172/172/172
f 175/175/175 174/174/174 173/173/173
f 175/175/175 176/176/176 174/174/174
f 179/179/179 178/178/178 177/177/177
f 179/179/179 180/180/180 178/178/178
f 183/183/183 182/182/182 181/181/181
f 183/183/183 184/184/184 182/182/182
f 187/187/187 186/186/186 185/185/185
f 187/187/187 188/188/188 186/186/186
f 191/191/191 190/190/190 189/189/189
f 190/190/190 192/192/192 189/189/189
f 192/192/192 193/193/193 189/189/189
f 192/192/192 194/194/194 193/193/193
f 197/197/197 196/196/196 195/195/195
f 195/195/195 198/198/198 197/197/197
f 197/197/197 199/199/199 196/196/196
f 197/197/197 198/198/198 200/200/200
f 197/197/197 201/201/201 199/199/199
f 197/197/197 200/200/200 201/201/201
