g t058v002_h
v -0.8207442 0.3366916 0.2854212
v -0.7376635 0.3366916 0.3684956
v -0.7927958 0.3366916 0.340552
v -0.7376635 0.3366916 -0.3684956
v -0.8207442 0.3366916 -0.2802553
v -0.7927958 0.3366916 -0.340552
v 0.7376406 0.3366916 -0.3684956
v 0.7376407 0.3366916 0.3684956
v 0.8207213 0.3366916 0.2854212
v 0.7927729 0.3366916 0.340552
v 0.8207213 0.3366916 -0.2802553
v 0.7927729 0.3366916 -0.340552
vt 0.01448059 0.06048584
vt 0.03244019 0.02455139
vt 0.02052307 0.03665161
vt 0.03244019 0.3764648
vt 0.01448059 0.3405762
vt 0.02052307 0.3642578
vt 0.4279785 0.3764648
vt 0.4279785 0.02455139
vt 0.4458008 0.06048584
vt 0.4396973 0.03665161
vt 0.4458008 0.3405762
vt 0.4396973 0.3642578
vn 0 1 0
vn 0 1 0
vn 0 1 0
vn 0 1 0
vn 0 1 0
vn 0 1 0
vn 0 1 0
vn 0 1 0
vn 0 1 0
vn 0 1 0
vn 0 1 0
vn 0 1 0
g t058v002_h_0
f 3/3/3 2/2/2 1/1/1
f 2/2/2 4/4/4 1/1/1
f 4/4/4 5/5/5 1/1/1
f 4/4/4 6/6/6 5/5/5
f 7/7/7 4/4/4 2/2/2
f 8/8/8 7/7/7 2/2/2
f 7/7/7 8/8/8 9/9/9
f 8/8/8 10/10/10 9/9/9
f 11/11/11 7/7/7 9/9/9
f 12/12/12 7/7/7 11/11/11
