g t062v002_m
v 0.2400322 0.04007834 0.02158614
v 0.2400322 -0.04484656 0.004238826
v 0.2400322 0.007390468 -0.02930908
v 0.4056029 0.04007834 0.02158614
v 0.4056029 0.007390468 -0.02930908
v 0.4056029 -0.04484656 0.004238826
v -0.3914961 0.04007834 0.02158614
v -0.3914961 -0.04484656 0.004238826
v -0.3914961 0.007390468 -0.02930908
v -0.2259254 0.04007834 0.02158614
v -0.2259254 0.007390468 -0.02930908
v -0.2259254 -0.04484656 0.004238826
v 0.4802 0.2707491 0.7863993
v 0.4802 0.3640325 0.4801963
v 0.4802 0.2707472 0.173986
v 0.4802 -9.159088E-07 0.9603927
v 0.4802 0 -3.663635E-06
v -0.4802 -9.159088E-07 0.9603927
v 0.4802 0.2707491 0.7863993
v 0.4802 -9.159088E-07 0.9603927
v -0.4802 0.2707491 0.7863993
v 0.4802 0.3640325 0.4801963
v -0.4802 0.3640325 0.4801963
v -0.4802 0.2707472 0.173986
v 0.4802 0.2707472 0.173986
v 0.4802 0 -3.663635E-06
v -0.4802 0 -3.663635E-06
v -0.4802 0.2707472 0.173986
v -0.4802 0.3640325 0.4801963
v -0.4802 0.2707491 0.7863993
v -0.4802 0 -3.663635E-06
v -0.4802 -9.159088E-07 0.9603927
v 0.4802 -9.159088E-07 0.9603927
v 0.3844692 -2.747727E-06 0.8595548
v -0.3846377 -2.747727E-06 0.8595548
v -0.4802 -9.159088E-07 0.9603927
v -0.4802 0 -3.663635E-06
v -0.3846377 -9.159088E-07 0.09044783
v 0.3844692 -9.159088E-07 0.09044783
v 0.4802 0 -3.663635E-06
v -0.4802 -9.159088E-07 0.9603927
v -0.3846377 -2.747727E-06 0.8595548
v -0.3846377 -9.159088E-07 0.09044783
v -0.4802 0 -3.663635E-06
v 0.4802 0 -3.663635E-06
v 0.3844692 -9.159088E-07 0.09044783
v 0.3844692 -2.747727E-06 0.8595548
v 0.4802 -9.159088E-07 0.9603927
v 0.3844692 -2.747727E-06 0.8595548
v 0 0.3197877 0.4801963
v -0.3846377 -2.747727E-06 0.8595548
v -0.3846377 -9.159088E-07 0.09044783
v -0.3846377 -9.159088E-07 0.09044783
v 0 0.3197877 0.4801963
v 0.3844692 -9.159088E-07 0.09044783
v 0.3844692 -2.747727E-06 0.8595548
v 0.4056029 0.007390468 -0.02930908
v 0.4056029 0.04007834 0.02158614
v 0.2400322 0.04007834 0.02158614
v 0.2400322 0.007390468 -0.02930908
v 0.2400322 -0.04484656 0.004238826
v 0.4056029 -0.04484656 0.004238826
v 0.2400322 0.04007834 0.02158614
v 0.4056029 0.04007834 0.02158614
v -0.2259254 0.007390468 -0.02930908
v -0.2259254 0.04007834 0.02158614
v -0.3914961 0.04007834 0.02158614
v -0.3914961 0.007390468 -0.02930908
v -0.3914961 -0.04484656 0.004238826
v -0.2259254 -0.04484656 0.004238826
v -0.3914961 0.04007834 0.02158614
v -0.2259254 0.04007834 0.02158614
vt 0.02008057 0.4819336
vt 0.04190063 0.4594727
vt 0.02015686 0.4594727
vt 0.04190063 0.4594727
vt 0.02015686 0.4594727
vt 0.02008057 0.4819336
vt 0.02008057 0.4819336
vt 0.04190063 0.4594727
vt 0.02015686 0.4594727
vt 0.04190063 0.4594727
vt 0.02015686 0.4594727
vt 0.02008057 0.4819336
vt 0.7114258 0.9658203
vt 0.8183594 0.9985352
vt 0.925293 0.9658203
vt 0.6503906 0.871582
vt 0.9863281 0.871582
vt 0.6337891 0.3061523
vt 0.9790039 0.4226074
vt 0.9790039 0.3061523
vt 0.6337891 0.4226074
vt 0.9790039 0.5385742
vt 0.6337891 0.5385742
vt 0.6337891 0.6547852
vt 0.9790039 0.6547852
vt 0.9790039 0.7714844
vt 0.6337891 0.7714844
vt 0.7114258 0.9658203
vt 0.8183594 0.9985352
vt 0.925293 0.9658203
vt 0.6503906 0.871582
vt 0.9863281 0.871582
vt 0.6337891 0.8007813
vt 0.6665039 0.8369141
vt 0.9462891 0.8369141
vt 0.9790039 0.8007813
vt 0.6337891 0.8007813
vt 0.6665039 0.8369141
vt 0.9462891 0.8369141
vt 0.9790039 0.8007813
vt 0.2709961 0.3093262
vt 0.3027344 0.3427734
vt 0.5751953 0.3427734
vt 0.6069336 0.3093262
vt 0.2709961 0.3093262
vt 0.3027344 0.3427734
vt 0.5751953 0.3427734
vt 0.6069336 0.3093262
vt 0.2495117 0.9838867
vt 0.1322021 0.8686523
vt 0.01477051 0.9838867
vt 0.01477051 0.7563477
vt 0.2495117 0.9838867
vt 0.1322021 0.8686523
vt 0.01477051 0.9838867
vt 0.01477051 0.7563477
vt 0.08319092 0.5327148
vt 0.08319092 0.559082
vt 0.1547852 0.559082
vt 0.1547852 0.5327148
vt 0.1547852 0.5058594
vt 0.08319092 0.5058594
vt 0.1547852 0.4528809
vt 0.08319092 0.4528809
vt 0.08319092 0.5327148
vt 0.08319092 0.559082
vt 0.1547852 0.559082
vt 0.1547852 0.5327148
vt 0.1547852 0.5058594
vt 0.08319092 0.5058594
vt 0.1547852 0.4528809
vt 0.08319092 0.4528809
vn -1 0 0
vn -1 0 0
vn -1 0 0
vn 1 0 0
vn 1 0 0
vn 1 0 0
vn -1 1.466274E-05 0
vn -1 1.466274E-05 0
vn -1 1.466274E-05 0
vn 1 0 0
vn 1 0 0
vn 1 0 0
vn 1 0 0
vn 1 0 0
vn 1 0 0
vn 1 0 0
vn 1 0 0
vn 0 0.4260254 0.9047852
vn 0 0.7749023 0.6323242
vn 0 0.4260254 0.9047852
vn 0 0.7749023 0.6323242
vn 0 1 0
vn 0 1 0
vn 0 0.7749023 -0.6323242
vn 0 0.7749023 -0.6323242
vn 0 0.4260254 -0.9047852
vn 0 0.4260254 -0.9047852
vn -1 0 0
vn -1 0 0
vn -1 0 0
vn -1 1.358986E-05 0
vn -1 1.358986E-05 0
vn 0 -1 1.388788E-05
vn 0 -1 1.388788E-05
vn 0 -1 1.388788E-05
vn 0 -1 1.388788E-05
vn 0 -1 -1.126528E-05
vn 0 -1 -1.126528E-05
vn 0 -1 -1.126528E-05
vn 0 -1 -1.126528E-05
vn 0 -1 1.388788E-05
vn 0 -1 1.388788E-05
vn 0 -1 -1.126528E-05
vn 0 -1 -1.126528E-05
vn 0 -1 -1.126528E-05
vn 0 -1 -1.126528E-05
vn 0 -1 1.388788E-05
vn 0 -1 1.388788E-05
vn -0.3623047 -0.8603516 -0.3581543
vn -3.969669E-05 -1 -0.002449036
vn 0.3623047 -0.8603516 -0.3581543
vn 0.3544922 -0.8637695 0.3586426
vn 0.3544922 -0.8637695 0.3586426
vn -3.969669E-05 -1 -0.002449036
vn -0.3544922 -0.8632813 0.3586426
vn -0.3623047 -0.8603516 -0.3581543
vn 0 0.2001953 -0.9799805
vn 0 0.9741211 0.2255859
vn 0 0.9741211 0.2255859
vn 0 0.2001953 -0.9799805
vn 0 -0.9741211 -0.2255859
vn 0 -0.9741211 -0.2255859
vn 0 0.9741211 0.2255859
vn 0 0.9741211 0.2255859
vn 0 0.2000732 -0.9799805
vn 0 0.9741211 0.2255859
vn 0 0.9741211 0.2255859
vn 0 0.2000732 -0.9799805
vn 0 -0.9741211 -0.2255859
vn 0 -0.9741211 -0.2255859
vn 0 0.9741211 0.2255859
vn 0 0.9741211 0.2255859
g t062v002_m_0
f 3/3/3 2/2/2 1/1/1
f 6/6/6 5/5/5 4/4/4
f 9/9/9 8/8/8 7/7/7
f 12/12/12 11/11/11 10/10/10
f 15/15/15 14/14/14 13/13/13
f 15/15/15 13/13/13 16/16/16
f 17/17/17 15/15/15 16/16/16
f 20/20/20 19/19/19 18/18/18
f 19/19/19 21/21/21 18/18/18
f 19/19/19 22/22/22 21/21/21
f 22/22/22 23/23/23 21/21/21
f 23/23/23 22/22/22 24/24/24
f 22/22/22 25/25/25 24/24/24
f 24/24/24 25/25/25 26/26/26
f 27/27/27 24/24/24 26/26/26
f 30/30/30 29/29/29 28/28/28
f 30/30/30 28/28/28 31/31/31
f 32/32/32 30/30/30 31/31/31
f 35/35/35 34/34/34 33/33/33
f 36/36/36 35/35/35 33/33/33
f 39/39/39 38/38/38 37/37/37
f 40/40/40 39/39/39 37/37/37
f 43/43/43 42/42/42 41/41/41
f 44/44/44 43/43/43 41/41/41
f 47/47/47 46/46/46 45/45/45
f 48/48/48 47/47/47 45/45/45
f 51/51/51 50/50/50 49/49/49
f 52/52/52 50/50/50 51/51/51
f 55/55/55 54/54/54 53/53/53
f 56/56/56 54/54/54 55/55/55
f 59/59/59 58/58/58 57/57/57
f 60/60/60 59/59/59 57/57/57
f 61/61/61 60/60/60 57/57/57
f 62/62/62 61/61/61 57/57/57
f 63/63/63 61/61/61 62/62/62
f 64/64/64 63/63/63 62/62/62
f 67/67/67 66/66/66 65/65/65
f 68/68/68 67/67/67 65/65/65
f 69/69/69 68/68/68 65/65/65
f 70/70/70 69/69/69 65/65/65
f 71/71/71 69/69/69 70/70/70
f 72/72/72 71/71/71 70/70/70
