g t062v001_l
v -0.4802 0 0.4772727
v 0.4802 0 0.4772727
v 0.4802 0 -0.4831272
v -0.4802 0 -0.4831272
v -0.4802 0 0.4772727
v -0.4802 0 -0.4831272
v -0.4802 0.5798718 -0.4831272
v -0.4802 0.5798718 0.4772727
v -0.4802 0 0.4772727
v -0.4802 0.5798718 0.4772727
v 0.4802 0.5798718 0.4772727
v 0.4802 0 0.4772727
v 0.4802 0.5798718 0.4772727
v 0.4802 0.5798718 -0.4831272
v 0.4802 0 -0.4831272
v 0.4802 0 0.4772727
v 0.4802 0.5798718 -0.4831272
v -0.4802 0.5798718 -0.4831272
v -0.4802 0 -0.4831272
v 0.4802 0 -0.4831272
v -0.4802 0.5798718 -0.4831272
v 0.4802 0.5798718 -0.4831272
v 0.4802 0.5798718 0.4772727
v -0.4802 0.5798718 0.4772727
vt 0.6025391 0.3759766
vt 0.28125 0.3759766
vt 0.28125 0.6972656
vt 0.6025391 0.6972656
vt 0.6069336 0.01741028
vt 0.2709961 0.01741028
vt 0.2709961 0.2189941
vt 0.6069336 0.2189941
vt 0.6337891 0.01741028
vt 0.6337891 0.2189941
vt 0.9790039 0.2189941
vt 0.9790039 0.01741028
vt 0.2709961 0.2189941
vt 0.6069336 0.2189941
vt 0.6069336 0.01741028
vt 0.2709961 0.01741028
vt 0.263916 0.9291992
vt 0.6088867 0.9291992
vt 0.6088867 0.7275391
vt 0.263916 0.7275391
vt 0.006195068 0.2614746
vt 0.2587891 0.2614746
vt 0.2587891 0.008918762
vt 0.006195068 0.008918762
vn 0 -1 0
vn 0 -1 0
vn 0 -1 0
vn 0 -1 0
vn -1 0 0
vn -1 0 0
vn -1 0 0
vn -1 0 0
vn 0 0 1
vn 0 0 1
vn 0 0 1
vn 0 0 1
vn 1 0 0
vn 1 0 0
vn 1 0 0
vn 1 0 0
vn 0 0 -1
vn 0 0 -1
vn 0 0 -1
vn 0 0 -1
vn 0 1 0
vn 0 1 0
vn 0 1 0
vn 0 1 0
g t062v001_l_0
f 3/3/3 2/2/2 1/1/1
f 4/4/4 3/3/3 1/1/1
f 7/7/7 6/6/6 5/5/5
f 8/8/8 7/7/7 5/5/5
f 11/11/11 10/10/10 9/9/9
f 12/12/12 11/11/11 9/9/9
f 15/15/15 14/14/14 13/13/13
f 16/16/16 15/15/15 13/13/13
f 19/19/19 18/18/18 17/17/17
f 20/20/20 19/19/19 17/17/17
f 23/23/23 22/22/22 21/21/21
f 24/24/24 23/23/23 21/21/21
