g t070v001_l
v -0.8283682 0.6375884 -0.4087124
v -0.856966 1.948216 -0.5
v -0.7997704 1.887443 -0.3174248
v 0.7997704 1.887443 -0.3174248
v 0.856966 1.948216 -0.5
v 0.8283682 0.6375884 -0.4087124
v -0.856966 1.948216 -0.5
v -0.8283682 0.6375884 -0.4087124
v 0 0.09047723 -0.4087124
v 0.05104136 1.887443 -0.3174248
v -0.7997704 1.887443 -0.3174248
v -0.856966 1.948216 -0.5
v 0.856966 1.948216 -0.5
v 0.7997704 1.887443 -0.3174248
v 0.856966 1.948216 -0.5
v -0.856966 1.948216 -0.5
v 0.8283682 0.6375884 -0.4087124
v 0 0.09047723 -0.4087124
v -0.7997704 1.887443 -0.3174248
v 0.05104136 1.887443 -0.3174248
v 0 0.09047723 -0.4087124
v -0.8283682 0.6375884 -0.4087124
v 0.05104136 1.887443 -0.3174248
v 0.7997704 1.887443 -0.3174248
v 0.8283682 0.6375884 -0.4087124
v 0 0.09047723 -0.4087124
vt 0.06378174 0.2868652
vt 0.01052094 0.9760742
vt 0.1170654 0.9443359
vt 0.1170654 0.0557251
vt 0.01052094 0.02372742
vt 0.06378174 0.7133789
vt 0.7949219 0.9267578
vt 0.9907227 0.3210449
vt 0.5996094 0.06118774
vt 0.1170654 0.6323242
vt 0.1170654 0.277832
vt 0.01052094 0.2619629
vt 0.01052094 0.9760742
vt 0.1170654 0.9443359
vt 0.9907227 0.9267578
vt 0.7949219 0.9267578
vt 0.9907227 0.3210449
vt 0.5996094 0.06118774
vt 0.1397705 0.9853516
vt 0.5830078 0.9853516
vt 0.5786133 0.01478577
vt 0.137085 0.3046875
vt 0.5830078 0.9853516
vt 0.137085 0.9853516
vt 0.137085 0.3046875
vt 0.5786133 0.01478577
vn -0.9541016 0 0.2988281
vn -0.9541016 0 0.2988281
vn -0.9541016 0 0.2988281
vn 0.9541016 0 0.2988281
vn 0.9541016 0 0.2988281
vn 0.9541016 0 0.2988281
vn 0.001152992 -0.05908203 -0.9980469
vn -0.04650879 -0.07043457 -0.996582
vn 0.01249695 -0.04333496 -0.9990234
vn 0 0.9487305 0.315918
vn 0 0.9487305 0.315918
vn 0 0.9487305 0.315918
vn 0 0.9487305 0.315918
vn 0 0.9487305 0.315918
vn 0 -0.06945801 -0.9975586
vn 0.001152992 -0.05908203 -0.9980469
vn 0.01352692 -0.05215454 -0.9985352
vn 0.01249695 -0.04333496 -0.9990234
vn -0.01931763 -0.05929565 0.9980469
vn 0.0003619194 -0.05963135 0.9980469
vn -0.0005741119 -0.05963135 0.9980469
vn -0.01931763 -0.05929565 0.9980469
vn 0.0003619194 -0.05963135 0.9980469
vn 0.02079773 -0.05996704 0.9980469
vn 0.02079773 -0.05996704 0.9980469
vn -0.0005741119 -0.05963135 0.9980469
g t070v001_l_0
f 3/3/3 2/2/2 1/1/1
f 6/6/6 5/5/5 4/4/4
f 9/9/9 8/8/8 7/7/7
f 12/12/12 11/11/11 10/10/10
f 13/13/13 12/12/12 10/10/10
f 13/13/13 10/10/10 14/14/14
f 17/17/17 16/16/16 15/15/15
f 18/18/18 16/16/16 17/17/17
f 21/21/21 20/20/20 19/19/19
f 22/22/22 21/21/21 19/19/19
f 25/25/25 24/24/24 23/23/23
f 26/26/26 25/25/25 23/23/23
