g t077v001_m
v -0.6357498 -0.002647704 -0.3279312
v -0.8272123 -0.001962404 -0.3279312
v -0.8278978 0.1895003 -0.3279312
v -0.2351558 1.582051 -0.5035936
v 0.2351558 1.582051 -0.5035936
v 0.2351558 1.582051 -0.3525603
v -0.2351558 1.582051 -0.3525603
v -0.7795062 0.3513084 -0.3525603
v -0.7795062 0.3513084 -0.5035936
v -0.7795062 1.372202 -0.5035936
v -0.7795062 1.372202 -0.3525603
v -0.3297861 1.497189 -0.3525603
v -0.3297861 1.497189 -0.5035936
v -0.2351558 1.582051 -0.5035936
v -0.2351558 1.582051 -0.3525603
v -0.3955669 -0.009231449 -0.3525603
v -0.3955669 -0.009231449 -0.5035936
v -0.7795062 0.3513084 -0.5035936
v -0.7795062 0.3513084 -0.3525603
v -0.6320481 1.497189 -0.3525603
v -0.6320481 1.497189 -0.5035936
v -0.3297861 1.497189 -0.5035936
v -0.3297861 1.497189 -0.3525603
v -0.7795062 1.372202 -0.3525603
v -0.7795062 1.372202 -0.5035936
v -0.6320481 1.497189 -0.5035936
v -0.6320481 1.497189 -0.3525603
v -0.2905636 1.350111 -0.5035936
v -0.5539422 1.350111 -0.5035936
v -0.6438146 1.272875 -0.5035936
v -0.6438146 0.4194603 -0.5035936
v -0.3817701 0.172586 -0.5035936
v -0.1985006 0.3156438 -0.5035936
v -0.1873693 1.430769 -0.5035936
v 0.1873693 1.430769 -0.5035936
v 0.1985006 0.3156438 -0.5035936
v 0.2905636 1.350111 -0.5035936
v 0.3817701 0.172586 -0.5035936
v 0.6438146 0.4194603 -0.5035936
v 0.6438146 1.272875 -0.5035936
v 0.5539422 1.350111 -0.5035936
v -0.1778791 0.1604546 -0.3525603
v 0.1778791 0.1604546 -0.3525603
v 0.1778791 0.1604546 -0.5035936
v -0.1778791 0.1604546 -0.5035936
v -0.6438146 1.272875 -0.3525603
v -0.5539422 1.350111 -0.3525603
v -0.2905636 1.350111 -0.3525603
v -0.6438146 0.4194602 -0.3525603
v -0.3817701 0.172586 -0.3525603
v -0.1985006 0.3156438 -0.3525603
v -0.1873693 1.430769 -0.3525603
v 0.1985006 0.3156438 -0.3525603
v 0.1873693 1.430769 -0.3525603
v 0.2905636 1.350111 -0.3525603
v 0.3817701 0.172586 -0.3525603
v 0.6438146 0.4194603 -0.3525603
v 0.6438146 1.272875 -0.3525603
v 0.5539422 1.350111 -0.3525603
v 0.7795062 0.3513084 -0.3525603
v 0.7795062 1.372202 -0.3525603
v 0.7795062 1.372202 -0.5035936
v 0.7795062 0.3513084 -0.5035936
v 0.3297861 1.497189 -0.3525603
v 0.2351558 1.582051 -0.3525603
v 0.2351558 1.582051 -0.5035936
v 0.3297861 1.497189 -0.5035936
v 0.3955669 -0.009231449 -0.3525603
v 0.7795062 0.3513084 -0.3525603
v 0.7795062 0.3513084 -0.5035936
v 0.3955669 -0.009231449 -0.5035936
v 0.6320481 1.497189 -0.3525603
v 0.3297861 1.497189 -0.3525603
v 0.3297861 1.497189 -0.5035936
v 0.6320481 1.497189 -0.5035936
v 0.7795062 1.372202 -0.3525603
v 0.6320481 1.497189 -0.3525603
v 0.6320481 1.497189 -0.5035936
v 0.7795062 1.372202 -0.5035936
v 0.1778791 0.1604546 -0.3525603
v 0.3955669 -0.009231449 -0.3525603
v 0.3955669 -0.009231449 -0.5035936
v 0.1778791 0.1604546 -0.5035936
v -0.1778791 0.1604546 -0.3525603
v -0.1778791 0.1604546 -0.5035936
v -0.3955669 -0.009231449 -0.5035936
v -0.3955669 -0.009231449 -0.3525603
v 0.6202297 0.7015826 -0.3404752
v 0.2670441 0.348397 -0.3404752
v 0.08332038 0.4252933 -0.3404752
v 0.5433335 0.8853062 -0.3404752
v 0.0235188 0.6190852 -0.3404752
v 0.3495412 0.9451076 -0.3404752
v -0.2010539 0.8512425 -0.3404752
v 0.117384 1.16968 -0.3404752
v -0.2036302 0.5035844 -0.3404752
v -0.3365467 0.9198874 -0.3404752
v -0.3201666 0.6201209 -0.3404752
v 0.04873919 1.305173 -0.3404752
v -0.4247086 1.096433 -0.3404752
v -0.1278067 1.393335 -0.3404752
v -0.61711 0.08976832 -0.3404752
v -0.7336464 0.2063047 -0.3404752
v -0.6357498 -0.002647704 -0.3279312
v -0.8278978 0.1895003 -0.3279312
v -0.2036302 0.5035844 -0.3404752
v -0.2036302 0.5035844 -0.4554639
v -0.61711 0.08976832 -0.4554639
v -0.61711 0.08976832 -0.3404752
v -0.8272123 -0.001962404 -0.3279312
v -0.8272123 -0.001962402 -0.4554639
v -0.8278978 0.1895003 -0.4554639
v -0.8278978 0.1895003 -0.3279312
v -0.7336464 0.2063047 -0.4554639
v -0.7336464 0.2063047 -0.3404752
v -0.6357498 -0.002647704 -0.3279312
v -0.8272123 -0.001962402 -0.4554639
v -0.8272123 -0.001962404 -0.3279312
v -0.6357498 -0.002647703 -0.4554639
v -0.61711 0.08976832 -0.3404752
v -0.61711 0.08976832 -0.4554639
v -0.7336464 0.2063047 -0.3404752
v -0.7336464 0.2063047 -0.4554639
v -0.3201666 0.6201209 -0.4554639
v -0.3201666 0.6201209 -0.3404752
v -0.7336464 0.2063047 -0.4554639
v -0.2036302 0.5035844 -0.4554639
v -0.3201666 0.6201209 -0.4554639
v -0.61711 0.08976832 -0.4554639
v -0.8278978 0.1895003 -0.4554639
v -0.6357498 -0.002647703 -0.4554639
v -0.8272123 -0.001962402 -0.4554639
v 0.2351558 1.582051 -0.3525603
v 0.3297861 1.497189 -0.3525603
v 0.2905636 1.350111 -0.3525603
v 0.6320481 1.497189 -0.3525603
v 0.1873693 1.430769 -0.3525603
v 0.5539422 1.350111 -0.3525603
v 0.6438146 1.272875 -0.3525603
v 0.7795062 1.372202 -0.3525603
v 0.6438146 0.4194603 -0.3525603
v 0.7795062 0.3513084 -0.3525603
v -0.2351558 1.582051 -0.3525603
v -0.1873693 1.430769 -0.3525603
v 0.3817701 0.172586 -0.3525603
v 0.3955669 -0.009231449 -0.3525603
v -0.2905636 1.350111 -0.3525603
v -0.3297861 1.497189 -0.3525603
v 0.1778791 0.1604546 -0.3525603
v 0.1985006 0.3156438 -0.3525603
v -0.1985006 0.3156438 -0.3525603
v -0.1778791 0.1604546 -0.3525603
v -0.6320481 1.497189 -0.3525603
v -0.5539422 1.350111 -0.3525603
v -0.6438146 1.272875 -0.3525603
v -0.7795062 1.372202 -0.3525603
v -0.6438146 0.4194602 -0.3525603
v -0.7795062 0.3513084 -0.3525603
v -0.3817701 0.172586 -0.3525603
v -0.3955669 -0.009231449 -0.3525603
v -0.1778791 0.1604546 -0.5035936
v 0.1778791 0.1604546 -0.5035936
v 0.1985006 0.3156438 -0.5035936
v 0.3955669 -0.009231449 -0.5035936
v -0.1985006 0.3156438 -0.5035936
v 0.3817701 0.172586 -0.5035936
v -0.3955669 -0.009231449 -0.5035936
v 0.7795062 0.3513084 -0.5035936
v -0.3817701 0.172586 -0.5035936
v 0.6438146 0.4194603 -0.5035936
v -0.7795062 0.3513084 -0.5035936
v 0.7795062 1.372202 -0.5035936
v -0.6438146 0.4194603 -0.5035936
v 0.6438146 1.272875 -0.5035936
v -0.7795062 1.372202 -0.5035936
v 0.6320481 1.497189 -0.5035936
v -0.6438146 1.272875 -0.5035936
v 0.5539422 1.350111 -0.5035936
v -0.6320481 1.497189 -0.5035936
v 0.3297861 1.497189 -0.5035936
v -0.5539422 1.350111 -0.5035936
v 0.2905636 1.350111 -0.5035936
v -0.3297861 1.497189 -0.5035936
v -0.2905636 1.350111 -0.5035936
v -0.2351558 1.582051 -0.5035936
v -0.1873693 1.430769 -0.5035936
v 0.2351558 1.582051 -0.5035936
v 0.1873693 1.430769 -0.5035936
vt 0.8457031 0.05899048
vt 0.8017578 0.01515961
vt 0.7578125 0.05899048
vt 0.2265625 0.1573486
vt 0.2265625 0.01261902
vt 0.1774902 0.01261902
vt 0.1774902 0.1573486
vt 0.373291 0.01261902
vt 0.3242188 0.01261902
vt 0.3242188 0.3476563
vt 0.373291 0.3476563
vt 0.1774902 0.213623
vt 0.2265625 0.213623
vt 0.2265625 0.1759033
vt 0.1774902 0.1759033
vt 0.3007813 0.2832031
vt 0.251709 0.2832031
vt 0.251709 0.4543457
vt 0.3007813 0.4543457
vt 0.1774902 0.3212891
vt 0.2265625 0.3212891
vt 0.2265625 0.2312012
vt 0.1774902 0.2312012
vt 0.1774902 0.4023438
vt 0.2265625 0.4023438
vt 0.2265625 0.3408203
vt 0.1774902 0.3408203
vt 0.8583984 0.9248047
vt 0.9438477 0.9248047
vt 0.9731445 0.8994141
vt 0.9731445 0.6220703
vt 0.8881836 0.5419922
vt 0.8286133 0.5883789
vt 0.824707 0.9506836
vt 0.703125 0.9506836
vt 0.699707 0.5883789
vt 0.6694336 0.9248047
vt 0.6401367 0.5419922
vt 0.5546875 0.6220703
vt 0.5546875 0.8994141
vt 0.5839844 0.9248047
vt 0.3007813 0.1577148
vt 0.3007813 0.01261902
vt 0.251709 0.01261902
vt 0.251709 0.1577148
vt 0.08172607 0.8398438
vt 0.1051636 0.8598633
vt 0.1868896 0.8598633
vt 0.08172607 0.581543
vt 0.15625 0.512207
vt 0.2105713 0.5551758
vt 0.2177734 0.8837891
vt 0.3369141 0.5551758
vt 0.329834 0.8837891
vt 0.3605957 0.8598633
vt 0.3913574 0.512207
vt 0.4658203 0.581543
vt 0.4658203 0.8398438
vt 0.4423828 0.8598633
vt 0.3242188 0.01261902
vt 0.3242188 0.3476563
vt 0.373291 0.3476563
vt 0.373291 0.01261902
vt 0.2265625 0.213623
vt 0.2265625 0.1759033
vt 0.1774902 0.1759033
vt 0.1774902 0.213623
vt 0.251709 0.2832031
vt 0.251709 0.4543457
vt 0.3007813 0.4543457
vt 0.3007813 0.2832031
vt 0.2265625 0.3212891
vt 0.2265625 0.2312012
vt 0.1774902 0.2312012
vt 0.1774902 0.3212891
vt 0.2265625 0.4023438
vt 0.2265625 0.3408203
vt 0.1774902 0.3408203
vt 0.1774902 0.4023438
vt 0.251709 0.1777344
vt 0.251709 0.2675781
vt 0.3007813 0.2675781
vt 0.3007813 0.1777344
vt 0.3007813 0.1777344
vt 0.251709 0.1777344
vt 0.251709 0.2675781
vt 0.3007813 0.2675781
vt 0.9726563 0.5092773
vt 0.9726563 0.347168
vt 0.9130859 0.3225098
vt 0.9130859 0.5341797
vt 0.8544922 0.3532715
vt 0.8544922 0.503418
vt 0.7495117 0.3532715
vt 0.7495117 0.503418
vt 0.8291016 0.2746582
vt 0.7026367 0.3398438
vt 0.7753906 0.2746582
vt 0.7026367 0.5170898
vt 0.6420898 0.3601074
vt 0.6420898 0.496582
vt 0.8291016 0.08453369
vt 0.7753906 0.08453369
vt 0.8457031 0.05899048
vt 0.7578125 0.05899048
vt 0.5576172 0.4133301
vt 0.6010742 0.4133301
vt 0.6010742 0.2113037
vt 0.5576172 0.2113037
vt 0.6010742 0.09112549
vt 0.5576172 0.09112549
vt 0.5576172 0.1557617
vt 0.6010742 0.1557617
vt 0.5576172 0.1873779
vt 0.6010742 0.1873779
vt 0.5576172 0.1557617
vt 0.6010742 0.09112549
vt 0.5576172 0.09112549
vt 0.6010742 0.1557617
vt 0.5576172 0.1873779
vt 0.6010742 0.1873779
vt 0.6010742 0.2113037
vt 0.5576172 0.2113037
vt 0.5576172 0.4133301
vt 0.6010742 0.4133301
vt 0.8291016 0.08453369
vt 0.7753906 0.2746582
vt 0.8291016 0.2746582
vt 0.7753906 0.08453369
vt 0.8457031 0.05899048
vt 0.7578125 0.05899048
vt 0.8017578 0.01515961
vt 0.3503418 0.949707
vt 0.3808594 0.9223633
vt 0.3681641 0.8745117
vt 0.479248 0.9223633
vt 0.3347168 0.9003906
vt 0.4538574 0.8745117
vt 0.4831543 0.8491211
vt 0.5273438 0.8813477
vt 0.4831543 0.5717773
vt 0.5273438 0.5498047
vt 0.1973877 0.949707
vt 0.2128906 0.9003906
vt 0.3979492 0.4916992
vt 0.4023438 0.4326172
vt 0.1793213 0.8745117
vt 0.166626 0.9223633
vt 0.331543 0.487793
vt 0.3383789 0.5380859
vt 0.2092285 0.5380859
vt 0.2159424 0.487793
vt 0.06835938 0.9223633
vt 0.09375 0.8745117
vt 0.0645752 0.8491211
vt 0.02046204 0.8813477
vt 0.0645752 0.5717773
vt 0.02046204 0.5498047
vt 0.1496582 0.4916992
vt 0.1452637 0.4326172
vt 0.331543 0.487793
vt 0.2159424 0.487793
vt 0.2092285 0.5380859
vt 0.1452637 0.4326172
vt 0.3383789 0.5380859
vt 0.1496582 0.4916992
vt 0.4023438 0.4326172
vt 0.02046204 0.5498047
vt 0.3979492 0.4916992
vt 0.0645752 0.5717773
vt 0.5273438 0.5498047
vt 0.02046204 0.8813477
vt 0.4831543 0.5717773
vt 0.0645752 0.8491211
vt 0.5273438 0.8813477
vt 0.06835938 0.9223633
vt 0.4831543 0.8491211
vt 0.09375 0.8745117
vt 0.479248 0.9223633
vt 0.166626 0.9223633
vt 0.4538574 0.8745117
vt 0.1793213 0.8745117
vt 0.3808594 0.9223633
vt 0.3681641 0.8745117
vt 0.3503418 0.949707
vt 0.3347168 0.9003906
vt 0.1973877 0.949707
vt 0.2128906 0.9003906
vn 0 0 1
vn 0 0 1
vn 0 0 1
vn 0 1 0
vn 0 1 0
vn 0 1 0
vn 0 1 0
vn -1 0 0
vn -1 0 0
vn -1 0 0
vn -1 0 0
vn -0.6674805 0.7446289 0
vn -0.6674805 0.7446289 0
vn -0.6674805 0.7446289 0
vn -0.6674805 0.7446289 0
vn -0.6845703 -0.7290039 0
vn -0.6845703 -0.7290039 0
vn -0.6845703 -0.7290039 0
vn -0.6845703 -0.7290039 0
vn 0 1 0
vn 0 1 0
vn 0 1 0
vn 0 1 0
vn -0.6464844 0.7626953 0
vn -0.6464844 0.7626953 0
vn -0.6464844 0.7626953 0
vn -0.6464844 0.7626953 0
vn 0 0 -1
vn 0 0 -1
vn 0 0 -1
vn 0 0 -1
vn 0 0 -1
vn 0 0 -1
vn 0 0 -1
vn 0 0 -1
vn 0 0 -1
vn 0 0 -1
vn 0 0 -1
vn 0 0 -1
vn 0 0 -1
vn 0 0 -1
vn 0 -1 0
vn 0 -1 0
vn 0 -1 0
vn 0 -1 0
vn 0 0 1
vn 0 0 1
vn 0 0 1
vn 0 0 1
vn 0 0 1
vn 0 0 1
vn 0 0 1
vn 0 0 1
vn 0 0 1
vn 0 0 1
vn 0 0 1
vn 0 0 1
vn 0 0 1
vn 0 0 1
vn 1 0 0
vn 1 0 0
vn 1 0 0
vn 1 0 0
vn 0.6674805 0.7446289 0
vn 0.6674805 0.7446289 0
vn 0.6674805 0.7446289 0
vn 0.6674805 0.7446289 0
vn 0.6845703 -0.7290039 0
vn 0.6845703 -0.7290039 0
vn 0.6845703 -0.7290039 0
vn 0.6845703 -0.7290039 0
vn 0 1 0
vn 0 1 0
vn 0 1 0
vn 0 1 0
vn 0.6464844 0.7626953 0
vn 0.6464844 0.7626953 0
vn 0.6464844 0.7626953 0
vn 0.6464844 0.7626953 0
vn -0.6147461 -0.7885742 0
vn -0.6147461 -0.7885742 0
vn -0.6147461 -0.7885742 0
vn -0.6147461 -0.7885742 0
vn 0.6147461 -0.7885742 0
vn 0.6147461 -0.7885742 0
vn 0.6147461 -0.7885742 0
vn 0.6147461 -0.7885742 0
vn 0 0 1
vn 0 0 1
vn 0 0 1
vn 0 0 1
vn 0 0 1
vn 0 0 1
vn 0 0 1
vn 0 0 1
vn 0 0 1
vn 0 0 1
vn 0 0 1
vn 0 0 1
vn 0 0 1
vn 0 0 1
vn 0.02210999 0.02210999 0.9995117
vn 0.02229309 0.02229309 0.9995117
vn 0.1115112 0.1115112 0.9873047
vn 0.1115112 0.1115112 0.9873047
vn 0.7075195 -0.7070313 0
vn 0.7075195 -0.7070313 0
vn 0.7075195 -0.7070313 0
vn 0.7075195 -0.7070313 0
vn -1 -0.003580093 0
vn -1 -0.003580093 0
vn -0.9189453 0.394043 0
vn -0.9301758 0.3676758 0
vn -0.1755371 0.984375 0
vn -0.1755371 0.984375 0
vn 0.3586426 -0.9335938 0
vn -0.003580093 -1 0
vn -0.003580093 -1 0
vn 0.3847656 -0.9228516 0
vn 0.9804688 -0.1977539 0
vn 0.9804688 -0.1977539 0
vn -0.7075195 0.7070313 0
vn -0.7075195 0.7070313 0
vn -0.7075195 0.7070313 0
vn -0.7075195 0.7070313 0
vn 0 0 -1
vn 0 0 -1
vn 0 0 -1
vn 0 0 -1
vn 0 0 -1
vn 0 0 -1
vn 0 0 -1
vn 0 0 1
vn 0 0 1
vn 0 0 1
vn 0 0 1
vn 0 0 1
vn 0 0 1
vn 0 0 1
vn 0 0 1
vn 0 0 1
vn 0 0 1
vn 0 0 1
vn 0 0 1
vn 0 0 1
vn 0 0 1
vn 0 0 1
vn 0 0 1
vn 0 0 1
vn 0 0 1
vn 0 0 1
vn 0 0 1
vn 0 0 1
vn 0 0 1
vn 0 0 1
vn 0 0 1
vn 0 0 1
vn 0 0 1
vn 0 0 1
vn 0 0 1
vn 0 0 -1
vn 0 0 -1
vn 0 0 -1
vn 0 0 -1
vn 0 0 -1
vn 0 0 -1
vn 0 0 -1
vn 0 0 -1
vn 0 0 -1
vn 0 0 -1
vn 0 0 -1
vn 0 0 -1
vn 0 0 -1
vn 0 0 -1
vn 0 0 -1
vn 0 0 -1
vn 0 0 -1
vn 0 0 -1
vn 0 0 -1
vn 0 0 -1
vn 0 0 -1
vn 0 0 -1
vn 0 0 -1
vn 0 0 -1
vn 0 0 -1
vn 0 0 -1
vn 0 0 -1
vn 0 0 -1
g t077v001_m_0
f 3/3/3 2/2/2 1/1/1
f 6/6/6 5/5/5 4/4/4
f 7/7/7 6/6/6 4/4/4
f 10/10/10 9/9/9 8/8/8
f 11/11/11 10/10/10 8/8/8
f 14/14/14 13/13/13 12/12/12
f 15/15/15 14/14/14 12/12/12
f 18/18/18 17/17/17 16/16/16
f 19/19/19 18/18/18 16/16/16
f 22/22/22 21/21/21 20/20/20
f 23/23/23 22/22/22 20/20/20
f 26/26/26 25/25/25 24/24/24
f 27/27/27 26/26/26 24/24/24
f 30/30/30 29/29/29 28/28/28
f 31/31/31 30/30/30 28/28/28
f 31/31/31 28/28/28 32/32/32
f 32/32/32 28/28/28 33/33/33
f 28/28/28 34/34/34 33/33/33
f 34/34/34 35/35/35 33/33/33
f 35/35/35 36/36/36 33/33/33
f 35/35/35 37/37/37 36/36/36
f 37/37/37 38/38/38 36/36/36
f 37/37/37 39/39/39 38/38/38
f 40/40/40 39/39/39 37/37/37
f 41/41/41 40/40/40 37/37/37
f 44/44/44 43/43/43 42/42/42
f 45/45/45 44/44/44 42/42/42
f 48/48/48 47/47/47 46/46/46
f 49/49/49 48/48/48 46/46/46
f 48/48/48 49/49/49 50/50/50
f 50/50/50 51/51/51 48/48/48
f 51/51/51 52/52/52 48/48/48
f 51/51/51 53/53/53 52/52/52
f 53/53/53 54/54/54 52/52/52
f 54/54/54 53/53/53 55/55/55
f 53/53/53 56/56/56 55/55/55
f 57/57/57 55/55/55 56/56/56
f 55/55/55 57/57/57 58/58/58
f 59/59/59 55/55/55 58/58/58
f 62/62/62 61/61/61 60/60/60
f 63/63/63 62/62/62 60/60/60
f 66/66/66 65/65/65 64/64/64
f 67/67/67 66/66/66 64/64/64
f 70/70/70 69/69/69 68/68/68
f 71/71/71 70/70/70 68/68/68
f 74/74/74 73/73/73 72/72/72
f 75/75/75 74/74/74 72/72/72
f 78/78/78 77/77/77 76/76/76
f 79/79/79 78/78/78 76/76/76
f 82/82/82 81/81/81 80/80/80
f 83/83/83 82/82/82 80/80/80
f 86/86/86 85/85/85 84/84/84
f 87/87/87 86/86/86 84/84/84
f 90/90/90 89/89/89 88/88/88
f 91/91/91 90/90/90 88/88/88
f 92/92/92 90/90/90 91/91/91
f 93/93/93 92/92/92 91/91/91
f 92/92/92 93/93/93 94/94/94
f 93/93/93 95/95/95 94/94/94
f 96/96/96 92/92/92 94/94/94
f 94/94/94 95/95/95 97/97/97
f 98/98/98 96/96/96 94/94/94
f 95/95/95 99/99/99 97/97/97
f 100/100/100 97/97/97 99/99/99
f 101/101/101 100/100/100 99/99/99
f 102/102/102 96/96/96 98/98/98
f 103/103/103 102/102/102 98/98/98
f 104/104/104 102/102/102 103/103/103
f 105/105/105 104/104/104 103/103/103
f 108/108/108 107/107/107 106/106/106
f 109/109/109 108/108/108 106/106/106
f 112/112/112 111/111/111 110/110/110
f 113/113/113 112/112/112 110/110/110
f 114/114/114 112/112/112 113/113/113
f 115/115/115 114/114/114 113/113/113
f 118/118/118 117/117/117 116/116/116
f 117/117/117 119/119/119 116/116/116
f 116/116/116 119/119/119 120/120/120
f 119/119/119 121/121/121 120/120/120
f 124/124/124 123/123/123 122/122/122
f 125/125/125 124/124/124 122/122/122
f 128/128/128 127/127/127 126/126/126
f 127/127/127 129/129/129 126/126/126
f 126/126/126 129/129/129 130/130/130
f 129/129/129 131/131/131 130/130/130
f 131/131/131 132/132/132 130/130/130
f 135/135/135 134/134/134 133/133/133
f 134/134/134 135/135/135 136/136/136
f 137/137/137 135/135/135 133/133/133
f 135/135/135 138/138/138 136/136/136
f 138/138/138 139/139/139 136/136/136
f 139/139/139 140/140/140 136/136/136
f 139/139/139 141/141/141 140/140/140
f 141/141/141 142/142/142 140/140/140
f 137/137/137 133/133/133 143/143/143
f 144/144/144 137/137/137 143/143/143
f 141/141/141 145/145/145 142/142/142
f 145/145/145 146/146/146 142/142/142
f 147/147/147 144/144/144 143/143/143
f 148/148/148 147/147/147 143/143/143
f 149/149/149 146/146/146 145/145/145
f 150/150/150 149/149/149 145/145/145
f 149/149/149 150/150/150 151/151/151
f 152/152/152 149/149/149 151/151/151
f 147/147/147 148/148/148 153/153/153
f 154/154/154 147/147/147 153/153/153
f 155/155/155 154/154/154 153/153/153
f 156/156/156 155/155/155 153/153/153
f 157/157/157 155/155/155 156/156/156
f 158/158/158 157/157/157 156/156/156
f 152/152/152 151/151/151 159/159/159
f 159/159/159 157/157/157 158/158/158
f 160/160/160 152/152/152 159/159/159
f 160/160/160 159/159/159 158/158/158
f 163/163/163 162/162/162 161/161/161
f 162/162/162 163/163/163 164/164/164
f 165/165/165 163/163/163 161/161/161
f 163/163/163 166/166/166 164/164/164
f 165/165/165 161/161/161 167/167/167
f 164/164/164 166/166/166 168/168/168
f 169/169/169 165/165/165 167/167/167
f 166/166/166 170/170/170 168/168/168
f 169/169/169 167/167/167 171/171/171
f 168/168/168 170/170/170 172/172/172
f 173/173/173 169/169/169 171/171/171
f 170/170/170 174/174/174 172/172/172
f 173/173/173 171/171/171 175/175/175
f 176/176/176 172/172/172 174/174/174
f 177/177/177 173/173/173 175/175/175
f 178/178/178 176/176/176 174/174/174
f 175/175/175 179/179/179 177/177/177
f 180/180/180 176/176/176 178/178/178
f 179/179/179 181/181/181 177/177/177
f 182/182/182 180/180/180 178/178/178
f 179/179/179 183/183/183 181/181/181
f 183/183/183 184/184/184 181/181/181
f 184/184/184 183/183/183 185/185/185
f 186/186/186 184/184/184 185/185/185
f 180/180/180 182/182/182 187/187/187
f 185/185/185 187/187/187 186/186/186
f 182/182/182 188/188/188 187/187/187
f 187/187/187 188/188/188 186/186/186
