g z003v001_l
v 2.980232E-08 0.0004289746 -1.489111
v 0.2555189 0.09511603 -1.456061
v -0.2555189 0.09511603 -1.456061
v -0.7346992 0.1210527 -0.2586821
v -0.5053844 0.1210527 -0.4879969
v -0.4613628 0.09511604 -0.01341265
v -0.2586822 0.1210527 -0.7346991
v 2.980232E-08 0.09511604 -0.4678982
v -0.5053844 0.1210527 -0.4879969
v 1.489111 0.0004289746 -0.01341265
v 1.462502 0.09511604 0.2593943
v 1.462502 0.09511604 -0.259394
v 0.7346992 0.1210527 -0.2586821
v 0.4613629 0.09511604 -0.01341265
v 0.5053844 0.1210527 -0.4879969
v 0.2586823 0.1210527 -0.7346991
v 0.5053844 0.1210527 -0.4879969
v 2.980232E-08 0.09511604 -0.4678982
v -1.489111 0.0004289746 -0.01341265
v -1.462502 0.09511604 -0.259394
v -1.462502 0.09511604 0.2593943
v -0.7346992 0.1210527 0.2586824
v -0.4613628 0.09511604 -0.01341265
v -0.5053844 0.1210527 0.4879972
v -0.2586822 0.1210527 0.7346994
v -0.5053844 0.1210527 0.4879972
v 2.980232E-08 0.09511604 0.4678985
v 2.980232E-08 0.0004289746 1.489111
v -0.2555189 0.09511603 1.456061
v 0.2555189 0.09511603 1.456061
v 0.7346992 0.1210527 0.2586824
v 0.5053844 0.1210527 0.4879972
v 0.4613629 0.09511604 -0.01341265
v 0.2586823 0.1210527 0.7346994
v 2.980232E-08 0.09511604 0.4678985
v 0.5053844 0.1210527 0.4879972
v -0.2555189 0.09511603 -1.456061
v -0.2586822 0.1210527 -0.7346991
v -0.5053844 0.1210527 -0.4879969
v -1.462502 0.09511604 -1.462501
v -1.462502 0.09511604 -0.259394
v -0.7346992 0.1210527 -0.2586821
v -1.489111 0.0004289746 -1.489111
v -1.462502 0.09511604 -1.462501
v -1.462502 0.09511604 -0.259394
v -1.489111 0.0004289746 -0.01341265
v -1.489111 0.0004289746 -1.489111
v 2.980232E-08 0.0004289746 -1.489111
v -0.2555189 0.09511603 -1.456061
v -1.462502 0.09511604 -1.462501
v 2.980232E-08 0.09511604 -0.4678982
v -0.2586822 0.1210527 -0.7346991
v -0.2555189 0.09511603 -1.456061
v 0.2555189 0.09511603 -1.456061
v 0.2586823 0.1210527 -0.7346991
v 2.980232E-08 0.0004289746 -1.489111
v -1.489111 0.0004289746 -1.489111
v -1.489111 0.0004289746 -0.01341265
v 2.980232E-08 0.0004289746 -0.01341265
v -0.1341924 0.4183153 -0.1341914
v -0.1341924 0.4183153 0.1341916
v -0.3133802 0.2515053 0.3133794
v -0.3133802 0.2515053 -0.3133792
v -0.3133802 0.2515053 0.3133794
v -0.5053844 0.1210527 0.4879972
v -0.4613628 0.09511604 -0.01341265
v -0.3133802 0.2515053 -0.3133792
v -0.5053844 0.1210527 -0.4879969
v 0.2555189 0.09511603 -1.456061
v 0.5053844 0.1210527 -0.4879969
v 0.2586823 0.1210527 -0.7346991
v 1.462502 0.09511604 -1.462501
v 1.462502 0.09511604 -0.259394
v 0.7346992 0.1210527 -0.2586821
v 1.489111 0.0004289746 -1.489111
v 1.489111 0.0004289746 -0.01341265
v 1.462502 0.09511604 -0.259394
v 1.462502 0.09511604 -1.462501
v 1.489111 0.0004289746 -1.489111
v 1.462502 0.09511604 -1.462501
v 0.2555189 0.09511603 -1.456061
v 2.980232E-08 0.0004289746 -1.489111
v 0.4613629 0.09511604 -0.01341265
v 0.7346992 0.1210527 -0.2586821
v 1.462502 0.09511604 -0.259394
v 1.462502 0.09511604 0.2593943
v 0.7346992 0.1210527 0.2586824
v 2.980232E-08 0.0004289746 -1.489111
v 2.980232E-08 0.0004289746 -0.01341265
v 1.489111 0.0004289746 -0.01341265
v 1.489111 0.0004289746 -1.489111
v -0.1341924 0.4183153 -0.1341914
v -0.3133802 0.2515053 -0.3133792
v 0.3133803 0.2515053 -0.3133792
v 0.1341925 0.4183153 -0.1341914
v -0.2555189 0.09511603 1.456061
v -0.5053844 0.1210527 0.4879972
v -0.2586822 0.1210527 0.7346994
v -1.462502 0.09511604 1.462502
v -1.462502 0.09511604 0.2593943
v -0.7346992 0.1210527 0.2586824
v -1.489111 0.0004289746 1.489111
v -1.489111 0.0004289746 -0.01341265
v -1.462502 0.09511604 0.2593943
v -1.462502 0.09511604 1.462502
v -1.489111 0.0004289746 1.489111
v -1.462502 0.09511604 1.462502
v -0.2555189 0.09511603 1.456061
v 2.980232E-08 0.0004289746 1.489111
v -0.4613628 0.09511604 -0.01341265
v -0.7346992 0.1210527 0.2586824
v -1.462502 0.09511604 0.2593943
v -1.462502 0.09511604 -0.259394
v -0.7346992 0.1210527 -0.2586821
v 2.980232E-08 0.0004289746 1.489111
v 2.980232E-08 0.0004289746 -0.01341265
v -1.489111 0.0004289746 -0.01341265
v -1.489111 0.0004289746 1.489111
v -0.3133802 0.2515053 0.3133794
v 2.980232E-08 0.09511604 0.4678985
v -0.5053844 0.1210527 0.4879972
v 0.3133803 0.2515053 0.3133794
v 0.5053844 0.1210527 0.4879972
v -0.1341924 0.4183153 0.1341916
v 0.1341925 0.4183153 0.1341916
v 0.3133803 0.2515053 0.3133794
v -0.3133802 0.2515053 0.3133794
v -0.1341924 0.4183153 0.1341916
v -0.1341924 0.4183153 -0.1341914
v 0.1341925 0.4183153 -0.1341914
v 0.1341925 0.4183153 0.1341916
v 0.2555189 0.09511603 1.456061
v 0.2586823 0.1210527 0.7346994
v 0.5053844 0.1210527 0.4879972
v 1.462502 0.09511604 1.462502
v 1.462502 0.09511604 0.2593943
v 0.7346992 0.1210527 0.2586824
v 1.489111 0.0004289746 1.489111
v 1.462502 0.09511604 1.462502
v 1.462502 0.09511604 0.2593943
v 1.489111 0.0004289746 -0.01341265
v 1.489111 0.0004289746 1.489111
v 2.980232E-08 0.0004289746 1.489111
v 0.2555189 0.09511603 1.456061
v 1.462502 0.09511604 1.462502
v 2.980232E-08 0.09511604 0.4678985
v 0.2586823 0.1210527 0.7346994
v 0.2555189 0.09511603 1.456061
v -0.2555189 0.09511603 1.456061
v -0.2586822 0.1210527 0.7346994
v 2.980232E-08 0.0004289746 1.489111
v 1.489111 0.0004289746 1.489111
v 1.489111 0.0004289746 -0.01341265
v 2.980232E-08 0.0004289746 -0.01341265
v 0.1341925 0.4183153 -0.1341914
v 0.3133803 0.2515053 -0.3133792
v 0.3133803 0.2515053 0.3133794
v 0.1341925 0.4183153 0.1341916
v 0.4613629 0.09511604 -0.01341265
v 0.5053844 0.1210527 0.4879972
v 0.3133803 0.2515053 0.3133794
v 0.3133803 0.2515053 -0.3133792
v 0.5053844 0.1210527 -0.4879969
v 2.980232E-08 0.09511604 -0.4678982
v 0.5053844 0.1210527 -0.4879969
v 0.3133803 0.2515053 -0.3133792
v -0.3133802 0.2515053 -0.3133792
v -0.5053844 0.1210527 -0.4879969
vt 0.1218872 0.7319336
vt 0.1507568 0.7495117
vt 0.09283447 0.7495117
vt 0.3666992 0.7114258
vt 0.3400879 0.6699219
vt 0.3337402 0.7270508
vt 0.2983398 0.6435547
vt 0.282959 0.6762695
vt 0.3400879 0.6699219
vt 0.0586853 0.730957
vt 0.05831909 0.7485352
vt 0.05953979 0.7485352
vt 0.3666992 0.7114258
vt 0.3337402 0.7270508
vt 0.3400879 0.6699219
vt 0.2983398 0.6435547
vt 0.3400879 0.6699219
vt 0.282959 0.6762695
vt 0.05889893 0.730957
vt 0.05877686 0.7485352
vt 0.05831909 0.7485352
vt 0.3666992 0.7114258
vt 0.3337402 0.7270508
vt 0.3400879 0.6699219
vt 0.2983398 0.6435547
vt 0.3400879 0.6699219
vt 0.282959 0.6762695
vt 0.1218872 0.7319336
vt 0.1507568 0.7495117
vt 0.09283447 0.7495117
vt 0.3666992 0.7114258
vt 0.3400879 0.6699219
vt 0.3337402 0.7270508
vt 0.2983398 0.6435547
vt 0.282959 0.6762695
vt 0.3400879 0.6699219
vt 0.2949219 0.5087891
vt 0.2963867 0.6279297
vt 0.3364258 0.6679688
vt 0.4958496 0.5058594
vt 0.4836426 0.7055664
vt 0.3737793 0.7055664
vt 0.006790161 0.9511719
vt 0.0111618 0.9667969
vt 0.2202148 0.9667969
vt 0.2202148 0.9511719
vt 0.4958496 0.9746094
vt 0.2824707 0.9746094
vt 0.2824707 0.9902344
vt 0.4914551 0.9902344
vt 0.2524414 0.6621094
vt 0.2132568 0.6279297
vt 0.2249756 0.5141602
vt 0.2790527 0.5141602
vt 0.2900391 0.6279297
vt 0.3979492 0.8222656
vt 0.4934082 0.8222656
vt 0.4934082 0.9179688
vt 0.3979492 0.9179688
vt 0.2458496 0.8051758
vt 0.2897949 0.8056641
vt 0.307373 0.7802734
vt 0.2286377 0.7797852
vt 0.1427002 0.8842773
vt 0.1810303 0.8530273
vt 0.09259033 0.8540039
vt 0.04199219 0.8842773
vt 0.003622055 0.8530273
vt 0.2949219 0.5087891
vt 0.3364258 0.6679688
vt 0.2963867 0.6279297
vt 0.4958496 0.5058594
vt 0.4836426 0.7055664
vt 0.3737793 0.7055664
vt 0.006790161 0.9511719
vt 0.2202148 0.9511719
vt 0.2202148 0.9667969
vt 0.0111618 0.9667969
vt 0.4958496 0.9746094
vt 0.4914551 0.9902344
vt 0.2824707 0.9902344
vt 0.2824707 0.9746094
vt 0.2507324 0.6621094
vt 0.2883301 0.6274414
vt 0.2773438 0.5136719
vt 0.2233887 0.5136719
vt 0.2116699 0.6274414
vt 0.3979492 0.8222656
vt 0.3979492 0.9179688
vt 0.4934082 0.9179688
vt 0.4934082 0.8222656
vt 0.3046875 0.7382813
vt 0.3222656 0.7133789
vt 0.2421875 0.7133789
vt 0.2597656 0.7382813
vt 0.2949219 0.5087891
vt 0.3364258 0.6679688
vt 0.2963867 0.6279297
vt 0.4958496 0.5058594
vt 0.4836426 0.7055664
vt 0.3737793 0.7055664
vt 0.006790161 0.9511719
vt 0.2202148 0.9511719
vt 0.2202148 0.9667969
vt 0.0111618 0.9667969
vt 0.4958496 0.9746094
vt 0.4914551 0.9902344
vt 0.2824707 0.9902344
vt 0.2824707 0.9746094
vt 0.2507324 0.6621094
vt 0.2883301 0.6274414
vt 0.2773438 0.5136719
vt 0.2233887 0.5136719
vt 0.2116699 0.6274414
vt 0.3979492 0.8222656
vt 0.3979492 0.9179688
vt 0.4934082 0.9179688
vt 0.4934082 0.8222656
vt 0.3330078 0.8842773
vt 0.2839355 0.8525391
vt 0.371582 0.8530273
vt 0.2336426 0.8842773
vt 0.1951904 0.8530273
vt 0.3046875 0.7382813
vt 0.2597656 0.7382813
vt 0.2421875 0.7133789
vt 0.3222656 0.7133789
vt 0.2335205 0.7050781
vt 0.1860352 0.7055664
vt 0.1855469 0.7543945
vt 0.2336426 0.7543945
vt 0.2949219 0.5087891
vt 0.2963867 0.6279297
vt 0.3364258 0.6679688
vt 0.4958496 0.5058594
vt 0.4836426 0.7055664
vt 0.3737793 0.7055664
vt 0.006790161 0.9511719
vt 0.0111618 0.9667969
vt 0.2202148 0.9667969
vt 0.2202148 0.9511719
vt 0.4958496 0.9746094
vt 0.2824707 0.9746094
vt 0.2824707 0.9902344
vt 0.4914551 0.9902344
vt 0.2524414 0.6621094
vt 0.2900391 0.6279297
vt 0.2790527 0.5141602
vt 0.2249756 0.5141602
vt 0.2132568 0.6279297
vt 0.3979492 0.8222656
vt 0.4934082 0.8222656
vt 0.4934082 0.9179688
vt 0.3979492 0.9179688
vt 0.2454834 0.8056641
vt 0.2279053 0.7802734
vt 0.3066406 0.7797852
vt 0.2893066 0.8051758
vt 0.09259033 0.8540039
vt 0.1810303 0.8530273
vt 0.1427002 0.8842773
vt 0.04199219 0.8842773
vt 0.003622055 0.8530273
vt 0.2839355 0.8525391
vt 0.1951904 0.8530273
vt 0.2336426 0.8842773
vt 0.3330078 0.8842773
vt 0.371582 0.8530273
vn 0 0.3295898 -0.9443359
vn 0 0.3295898 -0.9443359
vn 0 0.3295898 -0.9443359
vn 0.04989624 0.9975586 0.04989624
vn 0.04989624 0.9975586 0.04989624
vn 0.04989624 0.9975586 0.04989624
vn 0.04922485 0.9975586 0.04922485
vn 0.04922485 0.9975586 0.04922485
vn 0.04922485 0.9975586 0.04922485
vn 0.9628906 0.2705078 0
vn 0.9628906 0.2705078 0
vn 0.9628906 0.2705078 0
vn -0.04989624 0.9975586 0.04989624
vn -0.04989624 0.9975586 0.04989624
vn -0.04989624 0.9975586 0.04989624
vn -0.04922485 0.9975586 0.04922485
vn -0.04922485 0.9975586 0.04922485
vn -0.04922485 0.9975586 0.04922485
vn -0.9628906 0.2705078 0
vn -0.9628906 0.2705078 0
vn -0.9628906 0.2705078 0
vn 0.04745483 0.9975586 -0.04745483
vn 0.04745483 0.9975586 -0.04745483
vn 0.04745483 0.9975586 -0.04745483
vn 0.04922485 0.9975586 -0.04922485
vn 0.04922485 0.9975586 -0.04922485
vn 0.04922485 0.9975586 -0.04922485
vn 0 0.3295898 0.9443359
vn 0 0.3295898 0.9443359
vn 0 0.3295898 0.9443359
vn -0.04745483 0.9975586 -0.04745483
vn -0.04745483 0.9975586 -0.04745483
vn -0.04745483 0.9975586 -0.04745483
vn -0.04922485 0.9975586 -0.04922485
vn -0.04922485 0.9975586 -0.04922485
vn -0.04922485 0.9975586 -0.04922485
vn -0.001106262 1 -0.02153015
vn 0.01263428 0.9995117 -0.02886963
vn -0.01634216 0.9995117 -0.01629639
vn -0.2196045 0.9755859 -0.01512146
vn -0.3171387 0.9482422 -0.00390625
vn -0.02816772 0.9995117 -0.004508972
vn -0.9628906 0.2705078 0
vn -0.2196045 0.9755859 -0.01512146
vn -0.3171387 0.9482422 -0.00390625
vn -0.9628906 0.2705078 0
vn 0.002275467 0.3029785 -0.953125
vn 0.002275467 0.3029785 -0.953125
vn 0.002275467 0.3029785 -0.953125
vn 0.002275467 0.3029785 -0.953125
vn 0 1 -0.01531982
vn 0.01263428 0.9995117 -0.02886963
vn -0.001106262 1 -0.02153015
vn 0.001106262 1 -0.02153015
vn -0.01263428 0.9995117 -0.02886963
vn 0 -1 0
vn 0 -1 0
vn 0 -1 0
vn 0 -1 0
vn -0.6811523 0.7319336 0
vn -0.6811523 0.7319336 0
vn -0.6811523 0.7319336 0
vn -0.6811523 0.7319336 0
vn -0.3469238 0.8696289 0.3510742
vn -0.3325195 0.8935547 0.3017578
vn -0.6914063 0.722168 0.001112938
vn -0.3435059 0.8681641 -0.3583984
vn -0.3234863 0.8935547 -0.3117676
vn 0.001106262 1 -0.02153015
vn 0.01634216 0.9995117 -0.01629639
vn -0.01263428 0.9995117 -0.02886963
vn 0.2196045 0.9755859 -0.01512146
vn 0.3171387 0.9482422 -0.00390625
vn 0.02816772 0.9995117 -0.004508972
vn 0.9628906 0.2705078 0
vn 0.9628906 0.2705078 0
vn 0.3171387 0.9482422 -0.00390625
vn 0.2196045 0.9755859 -0.01512146
vn -0.002275467 0.3029785 -0.953125
vn -0.002275467 0.3029785 -0.953125
vn -0.002275467 0.3029785 -0.953125
vn -0.002275467 0.3029785 -0.953125
vn 0.0150528 1 -0.001484871
vn 0.03536987 0.9887695 0.144043
vn 0.00210762 1 0.008583069
vn 0.002590179 1 -0.009506226
vn 0.03543091 0.9907227 -0.1300049
vn 0 -1 0
vn 0 -1 0
vn 0 -1 0
vn 0 -1 0
vn 0 0.7319336 -0.6811523
vn 0 0.7319336 -0.6811523
vn 0 0.7319336 -0.6811523
vn 0 0.7319336 -0.6811523
vn -0.001106262 1 0.02153015
vn -0.01634216 0.9995117 0.01629639
vn 0.01263428 0.9995117 0.02886963
vn -0.2214355 0.9750977 0.0151062
vn -0.3225098 0.9467773 0.003890991
vn -0.02816772 0.9995117 0.004508972
vn -0.9628906 0.2705078 0
vn -0.9628906 0.2705078 0
vn -0.3225098 0.9467773 0.003890991
vn -0.2214355 0.9750977 0.0151062
vn 0.002277374 0.3029785 0.953125
vn 0.002277374 0.3029785 0.953125
vn 0.002277374 0.3029785 0.953125
vn 0.002277374 0.3029785 0.953125
vn -0.0150528 1 -0.001484871
vn -0.03543091 0.9907227 -0.1300049
vn -0.002590179 1 -0.009506226
vn -0.00210762 1 0.008583069
vn -0.03536987 0.9887695 0.144043
vn 0 -1 0
vn 0 -1 0
vn 0 -1 0
vn 0 -1 0
vn -0.3469238 0.8696289 0.3510742
vn 0 0.7246094 0.6889648
vn -0.3325195 0.8935547 0.3017578
vn 0.3469238 0.8696289 0.3510742
vn 0.3325195 0.8935547 0.3017578
vn 0 0.7319336 0.6811523
vn 0 0.7319336 0.6811523
vn 0 0.7319336 0.6811523
vn 0 0.7319336 0.6811523
vn 0 1 0
vn 0 1 0
vn 0 1 0
vn 0 1 0
vn 0.001106262 1 0.02153015
vn -0.01263428 0.9995117 0.02886963
vn 0.01634216 0.9995117 0.01629639
vn 0.2214355 0.9750977 0.0151062
vn 0.3225098 0.9467773 0.003890991
vn 0.02816772 0.9995117 0.004508972
vn 0.9628906 0.2705078 0
vn 0.2214355 0.9750977 0.0151062
vn 0.3225098 0.9467773 0.003890991
vn 0.9628906 0.2705078 0
vn -0.002277374 0.3029785 0.953125
vn -0.002277374 0.3029785 0.953125
vn -0.002277374 0.3029785 0.953125
vn -0.002277374 0.3029785 0.953125
vn 0 1 0.01531982
vn -0.01263428 0.9995117 0.02886963
vn 0.001106262 1 0.02153015
vn -0.001106262 1 0.02153015
vn 0.01263428 0.9995117 0.02886963
vn 0 -1 0
vn 0 -1 0
vn 0 -1 0
vn 0 -1 0
vn 0.6811523 0.7319336 0
vn 0.6811523 0.7319336 0
vn 0.6811523 0.7319336 0
vn 0.6811523 0.7319336 0
vn 0.6914063 0.722168 0.001112938
vn 0.3325195 0.8935547 0.3017578
vn 0.3469238 0.8696289 0.3510742
vn 0.3435059 0.8681641 -0.3583984
vn 0.3234863 0.8935547 -0.3117676
vn 0 0.7246094 -0.6889648
vn 0.3234863 0.8935547 -0.3117676
vn 0.3435059 0.8681641 -0.3583984
vn -0.3435059 0.8681641 -0.3583984
vn -0.3234863 0.8935547 -0.3117676
g z003v001_l_0
f 3/3/3 2/2/2 1/1/1
f 6/6/6 5/5/5 4/4/4
f 9/9/9 8/8/8 7/7/7
f 12/12/12 11/11/11 10/10/10
f 15/15/15 14/14/14 13/13/13
f 18/18/18 17/17/17 16/16/16
f 21/21/21 20/20/20 19/19/19
f 24/24/24 23/23/23 22/22/22
f 27/27/27 26/26/26 25/25/25
f 30/30/30 29/29/29 28/28/28
f 33/33/33 32/32/32 31/31/31
f 36/36/36 35/35/35 34/34/34
f 39/39/39 38/38/38 37/37/37
f 40/40/40 39/39/39 37/37/37
f 40/40/40 41/41/41 39/39/39
f 41/41/41 42/42/42 39/39/39
f 45/45/45 44/44/44 43/43/43
f 46/46/46 45/45/45 43/43/43
f 49/49/49 48/48/48 47/47/47
f 50/50/50 49/49/49 47/47/47
f 53/53/53 52/52/52 51/51/51
f 54/54/54 53/53/53 51/51/51
f 51/51/51 55/55/55 54/54/54
f 58/58/58 57/57/57 56/56/56
f 59/59/59 58/58/58 56/56/56
f 62/62/62 61/61/61 60/60/60
f 63/63/63 62/62/62 60/60/60
f 66/66/66 65/65/65 64/64/64
f 66/66/66 64/64/64 67/67/67
f 68/68/68 66/66/66 67/67/67
f 71/71/71 70/70/70 69/69/69
f 70/70/70 72/72/72 69/69/69
f 73/73/73 72/72/72 70/70/70
f 74/74/74 73/73/73 70/70/70
f 77/77/77 76/76/76 75/75/75
f 78/78/78 77/77/77 75/75/75
f 81/81/81 80/80/80 79/79/79
f 82/82/82 81/81/81 79/79/79
f 85/85/85 84/84/84 83/83/83
f 86/86/86 85/85/85 83/83/83
f 83/83/83 87/87/87 86/86/86
f 90/90/90 89/89/89 88/88/88
f 91/91/91 90/90/90 88/88/88
f 94/94/94 93/93/93 92/92/92
f 95/95/95 94/94/94 92/92/92
f 98/98/98 97/97/97 96/96/96
f 97/97/97 99/99/99 96/96/96
f 100/100/100 99/99/99 97/97/97
f 101/101/101 100/100/100 97/97/97
f 104/104/104 103/103/103 102/102/102
f 105/105/105 104/104/104 102/102/102
f 108/108/108 107/107/107 106/106/106
f 109/109/109 108/108/108 106/106/106
f 112/112/112 111/111/111 110/110/110
f 113/113/113 112/112/112 110/110/110
f 110/110/110 114/114/114 113/113/113
f 117/117/117 116/116/116 115/115/115
f 118/118/118 117/117/117 115/115/115
f 121/121/121 120/120/120 119/119/119
f 120/120/120 122/122/122 119/119/119
f 120/120/120 123/123/123 122/122/122
f 126/126/126 125/125/125 124/124/124
f 127/127/127 126/126/126 124/124/124
f 130/130/130 129/129/129 128/128/128
f 131/131/131 130/130/130 128/128/128
f 134/134/134 133/133/133 132/132/132
f 135/135/135 134/134/134 132/132/132
f 135/135/135 136/136/136 134/134/134
f 136/136/136 137/137/137 134/134/134
f 140/140/140 139/139/139 138/138/138
f 141/141/141 140/140/140 138/138/138
f 144/144/144 143/143/143 142/142/142
f 145/145/145 144/144/144 142/142/142
f 148/148/148 147/147/147 146/146/146
f 149/149/149 148/148/148 146/146/146
f 146/146/146 150/150/150 149/149/149
f 153/153/153 152/152/152 151/151/151
f 154/154/154 153/153/153 151/151/151
f 157/157/157 156/156/156 155/155/155
f 158/158/158 157/157/157 155/155/155
f 161/161/161 160/160/160 159/159/159
f 161/161/161 159/159/159 162/162/162
f 159/159/159 163/163/163 162/162/162
f 166/166/166 165/165/165 164/164/164
f 166/166/166 164/164/164 167/167/167
f 164/164/164 168/168/168 167/167/167
