g z010v001_m
v -0.6336817 0.5058565 -0.4225788
v -0.6336817 1.494914 -0.4225788
v 0.6336815 1.494914 -0.4225788
v 0.6336815 0.5058565 -0.4225788
v -0.7172828 1.57871 -0.3741726
v -0.8538266 1.71931 -0.3741861
v 0.8538265 1.71931 -0.3741861
v 0.7172828 1.57871 -0.3741726
v -0.8844018 1.749885 -0.4966658
v -0.8844018 0.2508852 -0.4966658
v 0.8844018 0.2508852 -0.4966658
v 0.8844018 1.749885 -0.4966658
v -0.8538266 0.2814603 -0.3741861
v -0.7172828 0.4220604 -0.3741726
v 0.7172828 0.4220604 -0.3741726
v 0.8538265 0.2814603 -0.3741861
v 0.7172828 0.4220604 -0.3741726
v 0.7172828 1.57871 -0.3741726
v 0.8538265 1.71931 -0.3741861
v 0.8538265 0.2814603 -0.3741861
v -0.8538266 0.2814603 -0.3741861
v -0.8538266 1.71931 -0.3741861
v -0.7172828 1.57871 -0.3741726
v -0.7172828 0.4220604 -0.3741726
v -0.7172828 0.4220604 -0.3741726
v -0.6336817 0.5058565 -0.4225788
v 0.6336815 0.5058565 -0.4225788
v 0.7172828 0.4220604 -0.3741726
v 0.7172828 0.4220604 -0.3741726
v 0.6336815 0.5058565 -0.4225788
v 0.6336815 1.494914 -0.4225788
v 0.7172828 1.57871 -0.3741726
v 0.7172828 1.57871 -0.3741726
v 0.6336815 1.494914 -0.4225788
v -0.6336817 1.494914 -0.4225788
v -0.7172828 1.57871 -0.3741726
v -0.7172828 1.57871 -0.3741726
v -0.6336817 1.494914 -0.4225788
v -0.6336817 0.5058565 -0.4225788
v -0.7172828 0.4220604 -0.3741726
v -0.8538266 1.71931 -0.3741861
v -0.8844018 1.749885 -0.4966658
v 0.8844018 1.749885 -0.4966658
v 0.8538265 1.71931 -0.3741861
v 0.8538265 1.71931 -0.3741861
v 0.8844018 1.749885 -0.4966658
v 0.8844018 0.2508852 -0.4966658
v 0.8538265 0.2814603 -0.3741861
v 0.8538265 0.2814603 -0.3741861
v 0.8844018 0.2508852 -0.4966658
v -0.8844018 0.2508852 -0.4966658
v -0.8538266 0.2814603 -0.3741861
v -0.8538266 0.2814603 -0.3741861
v -0.8844018 0.2508852 -0.4966658
v -0.8844018 1.749885 -0.4966658
v -0.8538266 1.71931 -0.3741861
vt 0.003410339 0.001430511
vt 0.003410339 0.401123
vt 0.9985352 0.401123
vt 0.9985352 0.001430511
vt 0.8261719 0.7851563
vt 0.8969727 0.8168945
vt 0.8969727 0.4196777
vt 0.8261719 0.4509277
vt 0.7958984 0.7519531
vt 0.7958984 0.4064941
vt 0.01583862 0.4064941
vt 0.01583862 0.7519531
vt 0.8969727 0.4196777
vt 0.8261719 0.4509277
vt 0.8261719 0.7851563
vt 0.8969727 0.8168945
vt 0.6362305 0.7661133
vt 0.08892822 0.7661133
vt 0.02360535 0.7998047
vt 0.7011719 0.7998047
vt 0.02360535 0.7998047
vt 0.7011719 0.7998047
vt 0.6362305 0.7661133
vt 0.08892822 0.7661133
vt 0.668457 0.9536133
vt 0.6484375 0.9370117
vt 0.01869202 0.9370117
vt -0.00138092 0.9536133
vt 0.5820313 0.9941406
vt 0.5615234 0.9672852
vt 0.02249146 0.9672852
vt 0.002199173 0.9941406
vt 0.668457 0.9536133
vt 0.6484375 0.9370117
vt 0.01869202 0.9370117
vt -0.001381874 0.9536133
vt 0.5820313 0.9941406
vt 0.5615234 0.9672852
vt 0.02249146 0.9672852
vt 0.002199173 0.9941406
vt 0.9121094 0.8168945
vt 0.9814453 0.8237305
vt 0.9814453 0.4125977
vt 0.9121094 0.4196777
vt 0.02360535 0.815918
vt 0.008132935 0.847168
vt 0.7167969 0.847168
vt 0.7011719 0.815918
vt 0.9121094 0.8168945
vt 0.9814453 0.8237305
vt 0.9814453 0.4125977
vt 0.9121094 0.4196777
vt 0.02360535 0.815918
vt 0.008132935 0.847168
vt 0.7167969 0.847168
vt 0.7011719 0.815918
vn 0 0 1
vn 0 0 1
vn 0 0 1
vn 0 0 1
vn -4.416704E-05 5.286932E-05 1
vn -4.297495E-05 5.406141E-05 1
vn 4.297495E-05 5.406141E-05 1
vn 4.416704E-05 5.286932E-05 1
vn 0 0 -1
vn 0 0 -1
vn 0 0 -1
vn 0 0 -1
vn -4.297495E-05 -5.406141E-05 1
vn -4.416704E-05 -5.286932E-05 1
vn 4.416704E-05 -5.286932E-05 1
vn 4.297495E-05 -5.406141E-05 1
vn 4.416704E-05 -5.286932E-05 1
vn 4.416704E-05 5.286932E-05 1
vn 4.297495E-05 5.406141E-05 1
vn 4.297495E-05 -5.406141E-05 1
vn -4.297495E-05 -5.406141E-05 1
vn -4.297495E-05 5.406141E-05 1
vn -4.416704E-05 5.286932E-05 1
vn -4.416704E-05 -5.286932E-05 1
vn 0 0.5 0.8657227
vn 0 0.5 0.8657227
vn 0 0.5 0.8657227
vn 0 0.5 0.8657227
vn -0.5009766 0 0.8652344
vn -0.5009766 0 0.8652344
vn -0.5009766 0 0.8652344
vn -0.5009766 0 0.8652344
vn 0 -0.5 0.8657227
vn 0 -0.5 0.8657227
vn 0 -0.5 0.8657227
vn 0 -0.5 0.8657227
vn 0.5009766 0 0.8652344
vn 0.5009766 0 0.8652344
vn 0.5009766 0 0.8652344
vn 0.5009766 0 0.8652344
vn 0 0.9702148 0.2421875
vn 0 0.9702148 0.2421875
vn 0 0.9702148 0.2421875
vn 0 0.9702148 0.2421875
vn 0.9702148 0 0.2421875
vn 0.9702148 0 0.2421875
vn 0.9702148 0 0.2421875
vn 0.9702148 0 0.2421875
vn 0 -0.9702148 0.2421875
vn 0 -0.9702148 0.2421875
vn 0 -0.9702148 0.2421875
vn 0 -0.9702148 0.2421875
vn -0.9702148 0 0.2421875
vn -0.9702148 0 0.2421875
vn -0.9702148 0 0.2421875
vn -0.9702148 0 0.2421875
g z010v001_m_0
f 3/3/3 2/2/2 1/1/1
f 4/4/4 3/3/3 1/1/1
f 7/7/7 6/6/6 5/5/5
f 8/8/8 7/7/7 5/5/5
f 11/11/11 10/10/10 9/9/9
f 12/12/12 11/11/11 9/9/9
f 15/15/15 14/14/14 13/13/13
f 16/16/16 15/15/15 13/13/13
f 19/19/19 18/18/18 17/17/17
f 20/20/20 19/19/19 17/17/17
f 23/23/23 22/22/22 21/21/21
f 24/24/24 23/23/23 21/21/21
f 27/27/27 26/26/26 25/25/25
f 28/28/28 27/27/27 25/25/25
f 31/31/31 30/30/30 29/29/29
f 32/32/32 31/31/31 29/29/29
f 35/35/35 34/34/34 33/33/33
f 36/36/36 35/35/35 33/33/33
f 39/39/39 38/38/38 37/37/37
f 40/40/40 39/39/39 37/37/37
f 43/43/43 42/42/42 41/41/41
f 44/44/44 43/43/43 41/41/41
f 47/47/47 46/46/46 45/45/45
f 48/48/48 47/47/47 45/45/45
f 51/51/51 50/50/50 49/49/49
f 52/52/52 51/51/51 49/49/49
f 55/55/55 54/54/54 53/53/53
f 56/56/56 55/55/55 53/53/53
