g z021v001_m
v 9.536743E-07 0 -0.09999967
v 0.0951786 1.163327 -0.04843009
v 0.023036 1.163327 -0.07831229
v 0.08265471 2.105235 -0.08867858
v -0.01058006 2.105235 -0.1359793
v 0.023036 1.163327 -0.07831229
v 0.0005025864 2.811275 -0.1271273
v 0.1061113 2.811706 -0.07580148
v -0.1101995 2.809301 -0.06995349
v -0.1062527 2.105235 -0.0889874
v -0.1112297 2.784173 0.04867806
v -0.1097515 2.105235 0.01376983
v 0.0003156662 2.785043 0.127128
v -0.01058006 2.105235 0.08819454
v -0.0491066 1.163327 0.06248685
v -0.1062527 2.105235 -0.0889874
v -0.01058006 2.105235 -0.1359793
v -0.0491066 1.163327 -0.04034987
v 9.536743E-07 0 -0.09999967
v -0.09999943 0 3.501773E-07
v 0.023036 1.163327 0.1257355
v 9.536743E-07 0 0.1000004
v 0.0003156662 2.785043 0.127128
v 0.08952689 2.105235 0.02605279
v 0.1180542 2.808165 0.0494078
v 0.1061113 2.811706 -0.07580148
v 0.08265471 2.105235 -0.08867858
v 0.1250601 1.163327 0.02371161
v 0.0951786 1.163327 -0.04843009
v 0.023036 1.163327 0.1257355
v -0.01058006 2.105235 0.08819454
v 0.1250601 1.163327 0.02371161
v 0.1000013 0 3.501773E-07
v 0.0951786 1.163327 -0.04843009
v 9.536743E-07 0 -0.09999967
v 0.101362 2.411072 0.03615701
v 0.1398296 2.316128 0.07113743
v -0.007599831 2.277339 0.09813106
v 0.1514273 2.374511 -0.06982297
v 0.09544635 2.490885 -0.08116728
v 0.1398296 2.316128 0.07113743
v 0.102006 2.434421 -0.1335776
v -0.00231266 2.459894 -0.1663615
v -0.004067421 2.50679 -0.1303113
v -0.09042072 2.484755 -0.09554285
v -0.1259108 2.440511 -0.1358128
v 0.1877632 2.323181 -0.01894385
v -0.1566277 2.415125 -0.0108754
v -0.1092098 2.343278 0.02300906
v -0.2058601 2.34515 -0.01751691
v -0.1454208 2.353816 0.05608785
v -0.1092098 2.343278 0.02300906
v -0.1846008 2.207509 0.08348691
v -0.007599831 2.277339 0.09813106
v -0.004588127 2.166887 0.1562456
v -0.003824234 2.086361 0.1602844
v 0.1300287 2.1216 0.162043
v -0.00206089 2.253077 0.1692773
v 0.1232338 2.175847 0.2030841
v 0.1759729 2.180687 0.1018695
v 0.1777248 2.227406 0.1489053
v 0.08419132 2.382673 -0.1327282
v 0.08841109 2.285938 -0.08542365
v 0.1514273 2.374511 -0.06982297
v -0.08983612 2.163918 0.0582369
v -0.003824234 2.086361 0.1602844
v 0.07193565 2.199036 0.04312599
v 0.1300287 2.1216 0.162043
v 0.1759729 2.180687 0.1018695
v 0.1877632 2.323181 -0.01894385
v -0.003824234 2.086361 0.1602844
v 0.1514273 2.374511 -0.06982297
v 0.08841109 2.285938 -0.08542365
v -0.1846008 2.207509 0.08348691
v -0.08983612 2.163918 0.0582369
v -0.2058601 2.34515 -0.01751691
v -0.1438017 2.319093 -0.04283172
v -0.1259108 2.440511 -0.1358128
v -0.09948921 2.39069 -0.1282955
v -0.08983612 2.163918 0.0582369
v -0.1120944 2.235837 -0.08542585
v -0.1438017 2.319093 -0.04283172
v 0.102006 2.434421 -0.1335776
v 0.08419132 2.382673 -0.1327282
v -0.00231266 2.459894 -0.1663615
v -0.007857323 2.290756 -0.1335919
v -0.09948921 2.39069 -0.1282955
v -0.008963585 2.400261 -0.1533349
v -0.1259108 2.440511 -0.1358128
v -0.226387 2.258366 0.01246625
v -0.1729412 2.370712 -0.03658509
v -0.07011795 2.214231 0.01176363
v -0.3219433 2.479323 -0.09451115
v -0.4189434 2.301569 -0.0212394
v -0.4578571 2.394824 -0.05688584
v -0.4937305 2.500149 -0.254993
v -0.267087 2.499638 -0.2660539
v -0.1016541 2.393258 -0.1480279
v -0.06894708 2.327176 -0.06038962
v -0.07011795 2.214231 0.01176363
v 0.393713 2.365843 -0.3403525
v 0.3118973 2.468098 -0.3084638
v 0.420558 2.342253 -0.1993535
v 0.2008934 2.485202 -0.2604575
v 0.376049 2.298016 -0.1095656
v 0.1940603 2.281916 -0.03767693
v 0.09097862 2.367651 -0.1256285
v 0.07686043 2.268773 -0.008196831
v 0.1917419 0.7050729 0.2143184
v 0.03230762 0.6016892 0.2498759
v -0.003686905 0.732384 0.2492814
v 0.2443371 0.8534806 0.1862534
v 0.2603769 1.957748 0.1394899
v 0.3628025 0.9267277 0.1444532
v 0.3696604 1.04961 0.1324185
v -0.3048964 1.111334 0.1858947
v -0.2440157 1.959222 0.1382047
v -0.1441193 0.5559599 0.2294238
v -0.205081 0.5714492 0.2149128
v -0.5401249 1.684612 0.1029454
v -0.5907946 1.13971 0.1287228
v -0.4279366 2.006263 0.07758296
v -0.4687166 0.5658727 0.1841663
v -0.6260748 0.9300219 0.1232742
v -0.6029558 0.526346 0.1354395
v -0.2901115 2.24522 0.02691656
v -0.1846008 2.207509 0.08348691
v -0.2058601 2.34515 -0.01751691
v -0.003824234 2.086361 0.1602844
v 0.1300287 2.1216 0.162043
v 0.1759729 2.180687 0.1018695
v 0.4503841 2.027339 0.04795289
v 0.2921124 2.248812 0.001982093
v 0.1877632 2.323181 -0.01894385
v 0.6153135 1.115559 0.1090964
v 0.468173 0.9673008 0.1161519
v -0.3048964 1.111334 0.1858947
v -0.4133873 0.4865687 0.1980544
v 0.1917419 0.7050729 0.2142896
v -0.003686905 0.732384 0.249253
v 0.03230762 0.6016892 0.2498471
v 0.2443371 0.8534806 0.1862246
v 0.2603769 1.957748 0.1394615
v -0.2440157 1.959222 0.1381764
v -0.3048964 1.111334 0.1858664
v -0.1441193 0.5559599 0.229395
v -0.205081 0.5714492 0.214884
v 0.3696604 1.04961 0.1321266
v 0.3628025 0.9267277 0.1444244
v 0.6153135 1.115559 0.1090676
v 0.468173 0.9673008 0.1161232
v 0.4503841 2.027339 0.0479241
v 0.1759729 2.180687 0.1018407
v 0.2921124 2.248812 0.001953304
v 0.1877632 2.323181 -0.01897264
v 0.1300287 2.1216 0.1620142
v -0.003824234 2.086361 0.1602557
v -0.1846008 2.207509 0.08345807
v -0.2901115 2.24522 0.02688777
v -0.2058601 2.34515 -0.0175457
v -0.4279366 2.006263 0.07755411
v -0.5401249 1.684612 0.1029167
v -0.5907946 1.13971 0.1286939
v -0.4687166 0.5658727 0.1841376
v -0.4133873 0.4865687 0.1980256
v -0.6260748 0.9300219 0.1232454
v -0.6029558 0.526346 0.1354108
v -0.3048964 1.111334 0.1858664
v 0.1000013 0 3.501773E-07
v 9.536743E-07 0 -0.09999967
v -0.09999943 0 3.501773E-07
v 9.536743E-07 0 0.1000004
v 0.0003156662 2.785043 0.127128
v -0.1112297 2.784173 0.04867806
v 0.0004091263 2.820327 0.03807824
v 0.1180542 2.808165 0.0494078
v -0.1101995 2.809301 -0.06995349
v 0.1061113 2.811706 -0.07580148
v 0.0005025864 2.811275 -0.1271273
v 0.364397 2.419032 -0.2552804
v 0.393713 2.365843 -0.3403525
v 0.420558 2.342253 -0.1993535
v 0.3118973 2.468098 -0.3084638
v 0.2967405 2.429804 -0.1670432
v 0.376049 2.298016 -0.1095656
v 0.2008934 2.485202 -0.2604575
v 0.1768064 2.370937 -0.06121659
v 0.1940603 2.281916 -0.03767693
v 0.09097862 2.367651 -0.1256285
v 0.07686043 2.268773 -0.008196831
v -0.188859 2.334398 -0.06983638
v -0.07011795 2.214231 0.01176363
v -0.06894708 2.327176 -0.06038962
v -0.1016541 2.393258 -0.1480279
v -0.226387 2.258366 0.01246625
v -0.267087 2.499638 -0.2660539
v -0.3327456 2.442533 -0.144215
v -0.4189434 2.301569 -0.0212394
v -0.4937305 2.500149 -0.254993
v -0.4578571 2.394824 -0.05688584
vt 0.6166992 0.5029297
vt 0.4455566 0.5029297
vt 0.4455566 0.5151367
vt 0.3137207 0.5029297
vt 0.3137207 0.5170898
vt 0.4455566 0.5151367
vt 0.2252197 0.5170898
vt 0.2252197 0.5029297
vt 0.2252197 0.5317383
vt 0.3137207 0.5317383
vt 0.2252197 0.5463867
vt 0.3137207 0.5458984
vt 0.2252197 0.5634766
vt 0.3137207 0.5629883
vt 0.4455566 0.5449219
vt 0.3137207 0.5317383
vt 0.3137207 0.5170898
vt 0.4455566 0.5283203
vt 0.6166992 0.5029297
vt 0.6166992 0.5268555
vt 0.4455566 0.5600586
vt 0.6166992 0.550293
vt 0.2252197 0.5634766
vt 0.3137207 0.5795898
vt 0.2252197 0.5810547
vt 0.2252197 0.5957031
vt 0.3137207 0.5957031
vt 0.4455566 0.5830078
vt 0.4455566 0.5957031
vt 0.4455566 0.5600586
vt 0.3137207 0.5629883
vt 0.4455566 0.5830078
vt 0.6166992 0.5732422
vt 0.4455566 0.5957031
vt 0.6166992 0.5957031
vt 0.03387451 0.4689941
vt 0.06323242 0.4770508
vt 0.06915283 0.4489746
vt 0.02378845 0.4838867
vt 0.01771545 0.4545898
vt 0.06323242 0.4770508
vt 0.008323669 0.4648438
vt 0.003107071 0.440918
vt 0.01314545 0.4414063
vt 0.01914978 0.4287109
vt 0.01385498 0.4177246
vt 0.04620361 0.4941406
vt 0.0385437 0.4191895
vt 0.05957031 0.4345703
vt 0.04574585 0.4042969
vt 0.06109619 0.4255371
vt 0.05957031 0.4345703
vt 0.08447266 0.4082031
vt 0.06915283 0.4489746
vt 0.09869385 0.4465332
vt 0.1154175 0.4458008
vt 0.1070557 0.4750977
vt 0.0826416 0.4492188
vt 0.0960083 0.4709473
vt 0.09039307 0.4921875
vt 0.08605957 0.4804688
vt 0.1330566 0.4018555
vt 0.1196289 0.3886719
vt 0.1161499 0.4138184
vt 0.1029663 0.3369141
vt 0.06866455 0.3354492
vt 0.09368896 0.3796387
vt 0.05413818 0.3647461
vt 0.06427002 0.3850098
vt 0.09790039 0.4111328
vt 0.06866455 0.3354492
vt 0.1161499 0.4138184
vt 0.1196289 0.3886719
vt 0.1175537 0.3186035
vt 0.1029663 0.3369141
vt 0.152832 0.3361816
vt 0.1430664 0.3483887
vt 0.166626 0.3713379
vt 0.1544189 0.3710938
vt 0.1029663 0.3369141
vt 0.1252441 0.3544922
vt 0.1430664 0.3483887
vt 0.1387939 0.4121094
vt 0.1330566 0.4018555
vt 0.1578369 0.3977051
vt 0.1292725 0.3786621
vt 0.1544189 0.3710938
vt 0.1478271 0.3896484
vt 0.166626 0.3713379
vt 0.4438477 0.2391357
vt 0.4248047 0.2301025
vt 0.4282227 0.260498
vt 0.4291992 0.2022705
vt 0.4597168 0.2114258
vt 0.4523926 0.1962891
vt 0.4304199 0.1685791
vt 0.4047852 0.1917725
vt 0.4040527 0.2282715
vt 0.4133301 0.2423096
vt 0.4282227 0.260498
vt 0.4562988 0.08398438
vt 0.4736328 0.07269287
vt 0.4421387 0.06744385
vt 0.4833984 0.05636597
vt 0.4365234 0.05175781
vt 0.4472656 0.02392578
vt 0.4743652 0.0249939
vt 0.4577637 0.008529663
vt 0.1452637 0.05038452
vt 0.1192017 0.0335083
vt 0.1132813 0.05438232
vt 0.1542969 0.07452393
vt 0.1525879 0.2565918
vt 0.1745605 0.08636475
vt 0.1762695 0.1063843
vt 0.06323242 0.1154175
vt 0.06958008 0.2536621
vt 0.09051514 0.02584839
vt 0.0803833 0.02830505
vt 0.02085876 0.2076416
vt 0.01782227 0.1199341
vt 0.03753662 0.2614746
vt 0.03753662 0.02716064
vt 0.01041412 0.08605957
vt 0.01448822 0.02085876
vt 0.05795288 0.3046875
vt 0.07788086 0.2958984
vt 0.07116699 0.3273926
vt 0.1084595 0.2744141
vt 0.1289063 0.2807617
vt 0.1379395 0.2927246
vt 0.1860352 0.2724609
vt 0.159668 0.3100586
vt 0.1429443 0.3227539
vt 0.2175293 0.1181641
vt 0.1934814 0.0925293
vt 0.06323242 0.1154175
vt 0.04678345 0.01436615
vt 0.2883301 0.4626465
vt 0.2597656 0.4587402
vt 0.2648926 0.4777832
vt 0.2963867 0.440918
vt 0.2988281 0.2797852
vt 0.2242432 0.279541
vt 0.2155762 0.4033203
vt 0.2393799 0.484375
vt 0.2302246 0.4821777
vt 0.3151855 0.4121094
vt 0.314209 0.4299316
vt 0.3510742 0.4030762
vt 0.3283691 0.4248047
vt 0.3283691 0.2697754
vt 0.2905273 0.2473145
vt 0.3098145 0.2374268
vt 0.2990723 0.2265625
vt 0.2800293 0.2558594
vt 0.2595215 0.2609863
vt 0.2304688 0.2434082
vt 0.2142334 0.237915
vt 0.222168 0.2232666
vt 0.1966553 0.2727051
vt 0.1796875 0.3198242
vt 0.1746826 0.3991699
vt 0.1917725 0.4829102
vt 0.1999512 0.4946289
vt 0.1678467 0.4299316
vt 0.1710205 0.4887695
vt 0.2155762 0.4033203
vt 0.5151367 0.4543457
vt 0.4970703 0.4724121
vt 0.479248 0.4543457
vt 0.4970703 0.4362793
vt 0.496582 0.4350586
vt 0.4794922 0.4470215
vt 0.496582 0.4484863
vt 0.5146484 0.4467773
vt 0.4797363 0.4650879
vt 0.5126953 0.4660645
vt 0.496582 0.473877
vt 0.4069824 0.01800537
vt 0.4040527 0.002700806
vt 0.3908691 0.01976013
vt 0.4204102 0.0158844
vt 0.4082031 0.03405762
vt 0.3845215 0.0345459
vt 0.4301758 0.03302002
vt 0.4052734 0.05871582
vt 0.3920898 0.06365967
vt 0.4194336 0.06677246
vt 0.3996582 0.08105469
vt 0.4260254 0.09631348
vt 0.4289551 0.06750488
vt 0.4147949 0.08428955
vt 0.4057617 0.09680176
vt 0.442627 0.08843994
vt 0.4047852 0.1329346
vt 0.4274902 0.1265869
vt 0.4575195 0.1155396
vt 0.4299316 0.1583252
vt 0.4519043 0.1309814
vn 0.08172607 -0.005191803 -0.996582
vn 0.7612305 -0.01186371 -0.6479492
vn -0.1947021 -0.02583313 -0.9804688
vn 0.8105469 -0.01358032 -0.5859375
vn -0.02597046 -0.02555847 -0.9995117
vn -0.1947021 -0.02583313 -0.9804688
vn -0.005821228 0.01281738 -1
vn 0.8442383 -0.01937866 -0.5361328
vn -0.8164063 0.01100159 -0.5776367
vn -0.8466797 -0.03720093 -0.53125
vn -0.8876953 -0.02494812 0.4602051
vn -0.8969727 -0.02958679 0.440918
vn 0.01976013 -0.05691528 0.9980469
vn 0.0171051 -0.01038361 1
vn -0.862793 -0.01088715 0.5048828
vn -0.8466797 -0.03720093 -0.53125
vn -0.02597046 -0.02555847 -0.9995117
vn -0.8364258 -0.02685547 -0.5473633
vn 0.08172607 -0.005191803 -0.996582
vn -1 0.007419586 -0.00573349
vn 0.09887695 -0.001768112 0.9951172
vn 0.09338379 -0.02978516 0.9951172
vn 0.01976013 -0.05691528 0.9980469
vn 0.8969727 -0.003633499 0.4416504
vn 0.9033203 -0.05084229 0.4255371
vn 0.8442383 -0.01937866 -0.5361328
vn 0.8105469 -0.01358032 -0.5859375
vn 0.9511719 -0.003210068 0.309082
vn 0.7612305 -0.01186371 -0.6479492
vn 0.09887695 -0.001768112 0.9951172
vn 0.0171051 -0.01038361 1
vn 0.9511719 -0.003210068 0.309082
vn 0.9829102 -0.03964233 0.180542
vn 0.7612305 -0.01186371 -0.6479492
vn 0.08172607 -0.005191803 -0.996582
vn 0.6879883 0.4785156 0.5458984
vn 0.355957 0.637207 0.6835938
vn 0.07208252 0.3703613 0.9262695
vn 0.9321289 -0.1375732 -0.3356934
vn 0.7905273 0.5688477 -0.2271729
vn 0.355957 0.637207 0.6835938
vn 0.5556641 0.2171631 -0.8027344
vn 0.03189087 0.1555176 -0.9873047
vn 0.05007935 0.6098633 -0.7910156
vn -0.4624023 0.8530273 -0.2421875
vn -0.6313477 0.08581543 -0.7705078
vn 0.7973633 -0.3920898 -0.4584961
vn -0.5214844 0.6708984 0.5273438
vn 0.3427734 0.5761719 0.7416992
vn -0.9648438 -0.1519775 -0.2139893
vn -0.4455566 0.4536133 0.7719727
vn 0.4489746 0.8500977 0.2751465
vn -0.4921875 0.1630859 0.8549805
vn 0.2303467 0.9321289 0.2792969
vn -0.3588867 -0.0007376671 0.9335938
vn -0.2258301 -0.1520996 0.9624023
vn 0.2800293 -0.3459473 0.8955078
vn -0.2268066 0.4165039 0.8803711
vn 0.243042 0.269043 0.9321289
vn 0.9487305 -0.2064209 0.2392578
vn 0.5205078 0.4907227 0.6987305
vn 0.3601074 -0.2609863 -0.8955078
vn 0.5185547 -0.5019531 -0.6923828
vn 0.9321289 -0.1375732 -0.3356934
vn -0.3105469 -0.765625 -0.5634766
vn 0.08477783 -0.7900391 -0.6069336
vn 0.2944336 -0.7045898 -0.6455078
vn 0.2086182 -0.7700195 -0.6030273
vn 0.2570801 -0.6943359 -0.671875
vn 0.7973633 -0.3920898 -0.4584961
vn 0.08477783 -0.7900391 -0.6069336
vn 0.9321289 -0.1375732 -0.3356934
vn 0.5185547 -0.5019531 -0.6923828
vn -0.4765625 -0.6220703 -0.6210938
vn -0.3105469 -0.765625 -0.5634766
vn -0.9648438 -0.1519775 -0.2139893
vn -0.6435547 -0.4682617 -0.6054688
vn -0.6313477 0.08581543 -0.7705078
vn -0.3981934 -0.2875977 -0.8710938
vn -0.9384766 -0.34375 -0.02668762
vn -0.7670898 -0.2871094 -0.5737305
vn -0.6435547 -0.4682617 -0.6054688
vn 0.5556641 0.2171631 -0.8027344
vn 0.3601074 -0.2609863 -0.8955078
vn 0.03189087 0.1555176 -0.9873047
vn -0.05731201 -0.2509766 -0.9663086
vn -0.3981934 -0.2875977 -0.8710938
vn -0.027771 -0.2325439 -0.972168
vn -0.6313477 0.08581543 -0.7705078
vn -0.02548218 0.402832 0.9150391
vn 0.1928711 0.6635742 0.7226563
vn 0.1046143 0.3557129 0.9287109
vn 0.09747314 0.8100586 0.578125
vn -0.04772949 0.407959 0.9116211
vn -0.21521 0.6645508 0.715332
vn -0.1651611 0.9399414 0.2988281
vn 0.2697754 0.9301758 0.2484131
vn 0.4128418 0.8505859 0.3249512
vn 0.4121094 0.6181641 0.6694336
vn 0.3852539 0.4938965 0.7792969
vn -0.7739258 -0.6323242 0.04156494
vn -0.4191895 -0.7719727 -0.4777832
vn -0.409668 -0.7714844 -0.4868164
vn -0.2166748 -0.7475586 -0.6279297
vn -0.2137451 -0.7470703 -0.6298828
vn -0.1337891 -0.7324219 -0.6674805
vn -0.135498 -0.7314453 -0.6679688
vn -0.07788086 -0.7578125 -0.6474609
vn 0.1889648 0.1020508 0.9765625
vn 0.1832275 0.05493164 0.9814453
vn 0.0004417896 0.06561279 0.9980469
vn 0.2521973 0.04055786 0.9667969
vn 0.08410645 0.0736084 0.9936523
vn 0.3427734 0.03857422 0.9384766
vn 0.2081299 0.05337524 0.9765625
vn -0.07165527 0.07653809 0.9946289
vn -0.08190918 0.09851074 0.9916992
vn -0.1867676 0.02290344 0.9819336
vn -0.1262207 0.029953 0.9916992
vn -0.1868896 0.07373047 0.9794922
vn -0.1947021 0.05831909 0.9790039
vn -0.2744141 0.2420654 0.9306641
vn -0.2362061 0.03796387 0.9711914
vn -0.3117676 0.02406311 0.949707
vn -0.3435059 0.008636475 0.9389648
vn -0.2724609 0.3459473 0.8979492
vn -0.2607422 0.3129883 0.9130859
vn -0.2321777 0.5517578 0.8007813
vn -0.03894043 -0.07855225 0.9960938
vn 0.09393311 -0.07904053 0.9926758
vn 0.3984375 0.4023438 0.8242188
vn 0.3505859 0.107605 0.9301758
vn 0.3757324 0.5019531 0.7792969
vn 0.2832031 0.6064453 0.7431641
vn 0.0769043 0.06530762 0.9951172
vn 0.0769043 0.06530762 0.9951172
vn -0.07165527 0.07653809 0.9946289
vn -0.112793 0.03890991 0.9926758
vn -0.1889648 -0.1020508 -0.9765625
vn -0.000442028 -0.06561279 -0.9980469
vn -0.1832275 -0.05493164 -0.9814453
vn -0.2526855 -0.04058838 -0.9667969
vn -0.07049561 -0.08648682 -0.9936523
vn 0.08837891 -0.09649658 -0.9912109
vn 0.08355713 -0.07556152 -0.9936523
vn 0.1867676 -0.02290344 -0.9819336
vn 0.1262207 -0.029953 -0.9916992
vn -0.237915 -0.02146912 -0.9711914
vn -0.3442383 -0.03872681 -0.9379883
vn -0.1309814 -0.01681519 -0.9912109
vn -0.1096802 0.06161499 -0.9921875
vn -0.3864746 -0.175293 -0.9052734
vn -0.3984375 -0.4023438 -0.8242188
vn -0.3757324 -0.5019531 -0.7792969
vn -0.2832031 -0.6064453 -0.7431641
vn -0.09393311 0.07904053 -0.9926758
vn 0.03894043 0.07855225 -0.9960938
vn 0.2607422 -0.3129883 -0.9130859
vn 0.2724609 -0.3459473 -0.8979492
vn 0.2321777 -0.5517578 -0.8007813
vn 0.2744141 -0.2420654 -0.9306641
vn 0.1868896 -0.07006836 -0.9799805
vn 0.1882324 -0.06262207 -0.9799805
vn 0.2362061 -0.03796387 -0.9711914
vn 0.112793 -0.03890991 -0.9926758
vn 0.3117676 -0.02406311 -0.949707
vn 0.3435059 -0.008636475 -0.9389648
vn 0.08355713 -0.07556152 -0.9936523
vn 0 -1 0
vn 0 -1 0
vn 0 -1 0
vn 0 -1 0
vn -0.1013184 0.9248047 0.3664551
vn -0.2775879 0.9291992 0.2442627
vn -0.06640625 0.9863281 0.1523438
vn 0.09051514 0.9882813 0.1209717
vn -0.1298828 0.9912109 0.03186035
vn 0.0506897 0.9985352 -0.02853394
vn -0.01220703 0.9985352 -0.05471802
vn 0.6894531 0.7124023 0.1312256
vn 0.7978516 0.5952148 -0.097229
vn 0.6606445 0.6386719 0.3947754
vn 0.4536133 0.871582 0.185791
vn 0.1804199 0.7602539 0.6240234
vn 0.4169922 0.4941406 0.7626953
vn -0.06402588 0.8969727 0.4372559
vn 0.06738281 0.6972656 0.7138672
vn 0.3342285 0.4255371 0.8408203
vn -0.223877 0.8398438 0.4946289
vn -0.1962891 0.5961914 0.7788086
vn -0.1062622 -0.7158203 -0.6904297
vn -0.08874512 -0.6181641 -0.78125
vn 0.02171326 -0.6420898 -0.7666016
vn -0.1561279 -0.7890625 -0.59375
vn -0.09008789 -0.6699219 -0.7368164
vn -0.131958 -0.8261719 -0.5478516
vn -0.1010742 -0.7861328 -0.6098633
vn -0.1087036 -0.6435547 -0.7573242
vn -0.006622314 -0.8911133 -0.4538574
vn -0.1835938 -0.7280273 -0.6606445
g z021v001_m_0
f 3/3/3 2/2/2 1/1/1
f 5/5/5 4/4/4 2/2/2
f 6/6/6 5/5/5 2/2/2
f 5/5/5 7/7/7 4/4/4
f 7/7/7 8/8/8 4/4/4
f 9/9/9 7/7/7 5/5/5
f 10/10/10 9/9/9 5/5/5
f 11/11/11 9/9/9 10/10/10
f 12/12/12 11/11/11 10/10/10
f 13/13/13 11/11/11 12/12/12
f 14/14/14 13/13/13 12/12/12
f 14/14/14 12/12/12 15/15/15
f 15/15/15 12/12/12 16/16/16
f 16/16/16 17/17/17 6/6/6
f 18/18/18 16/16/16 6/6/6
f 18/18/18 15/15/15 16/16/16
f 18/18/18 6/6/6 19/19/19
f 20/20/20 18/18/18 19/19/19
f 15/15/15 18/18/18 20/20/20
f 21/21/21 14/14/14 15/15/15
f 21/21/21 15/15/15 20/20/20
f 22/22/22 21/21/21 20/20/20
f 14/14/14 24/24/24 23/23/23
f 24/24/24 25/25/25 23/23/23
f 26/26/26 25/25/25 24/24/24
f 27/27/27 26/26/26 24/24/24
f 27/27/27 24/24/24 28/28/28
f 29/29/29 27/27/27 28/28/28
f 30/30/30 28/28/28 24/24/24
f 31/31/31 30/30/30 24/24/24
f 30/30/30 22/22/22 32/32/32
f 22/22/22 33/33/33 32/32/32
f 34/34/34 28/28/28 33/33/33
f 35/35/35 34/34/34 33/33/33
f 38/38/38 37/37/37 36/36/36
f 40/40/40 36/36/36 39/39/39
f 41/41/41 39/39/39 36/36/36
f 42/42/42 40/40/40 39/39/39
f 40/40/40 42/42/42 43/43/43
f 44/44/44 40/40/40 43/43/43
f 45/45/45 44/44/44 43/43/43
f 45/45/45 43/43/43 46/46/46
f 39/39/39 41/41/41 47/47/47
f 45/45/45 46/46/46 48/48/48
f 45/45/45 48/48/48 49/49/49
f 46/46/46 50/50/50 48/48/48
f 48/48/48 50/50/50 51/51/51
f 48/48/48 51/51/51 52/52/52
f 50/50/50 53/53/53 51/51/51
f 54/54/54 52/52/52 51/51/51
f 51/51/51 53/53/53 55/55/55
f 55/55/55 53/53/53 56/56/56
f 55/55/55 56/56/56 57/57/57
f 58/58/58 54/54/54 51/51/51
f 58/58/58 51/51/51 55/55/55
f 54/54/54 58/58/58 41/41/41
f 59/59/59 55/55/55 57/57/57
f 55/55/55 59/59/59 58/58/58
f 58/58/58 59/59/59 41/41/41
f 57/57/57 60/60/60 59/59/59
f 59/59/59 61/61/61 41/41/41
f 60/60/60 61/61/61 59/59/59
f 47/47/47 41/41/41 61/61/61
f 47/47/47 61/61/61 60/60/60
f 64/64/64 63/63/63 62/62/62
f 67/67/67 66/66/66 65/65/65
f 69/69/69 68/68/68 67/67/67
f 70/70/70 69/69/69 67/67/67
f 68/68/68 71/71/71 67/67/67
f 70/70/70 67/67/67 72/72/72
f 67/67/67 73/73/73 72/72/72
f 75/75/75 71/71/71 74/74/74
f 75/75/75 74/74/74 76/76/76
f 77/77/77 75/75/75 76/76/76
f 76/76/76 78/78/78 77/77/77
f 78/78/78 79/79/79 77/77/77
f 77/77/77 81/81/81 80/80/80
f 79/79/79 81/81/81 82/82/82
f 72/72/72 84/84/84 83/83/83
f 83/83/83 84/84/84 85/85/85
f 84/84/84 73/73/73 86/86/86
f 86/86/86 81/81/81 87/87/87
f 88/88/88 86/86/86 87/87/87
f 88/88/88 84/84/84 86/86/86
f 84/84/84 88/88/88 85/85/85
f 88/88/88 79/79/79 89/89/89
f 85/85/85 88/88/88 89/89/89
f 92/92/92 91/91/91 90/90/90
f 91/91/91 93/93/93 90/90/90
f 93/93/93 94/94/94 90/90/90
f 93/93/93 95/95/95 94/94/94
f 96/96/96 95/95/95 93/93/93
f 93/93/93 97/97/97 96/96/96
f 93/93/93 91/91/91 97/97/97
f 91/91/91 98/98/98 97/97/97
f 91/91/91 99/99/99 98/98/98
f 100/100/100 99/99/99 91/91/91
f 103/103/103 102/102/102 101/101/101
f 104/104/104 102/102/102 103/103/103
f 105/105/105 104/104/104 103/103/103
f 105/105/105 106/106/106 104/104/104
f 106/106/106 107/107/107 104/104/104
f 106/106/106 108/108/108 107/107/107
f 111/111/111 110/110/110 109/109/109
f 109/109/109 112/112/112 111/111/111
f 112/112/112 113/113/113 111/111/111
f 112/112/112 114/114/114 113/113/113
f 114/114/114 115/115/115 113/113/113
f 111/111/111 113/113/113 116/116/116
f 113/113/113 117/117/117 116/116/116
f 111/111/111 116/116/116 118/118/118
f 119/119/119 118/118/118 116/116/116
f 120/120/120 116/116/116 117/117/117
f 120/120/120 121/121/121 116/116/116
f 117/117/117 122/122/122 120/120/120
f 121/121/121 123/123/123 116/116/116
f 124/124/124 123/123/123 121/121/121
f 123/123/123 124/124/124 125/125/125
f 126/126/126 122/122/122 117/117/117
f 127/127/127 126/126/126 117/117/117
f 127/127/127 128/128/128 126/126/126
f 129/129/129 127/127/127 117/117/117
f 130/130/130 129/129/129 117/117/117
f 113/113/113 130/130/130 117/117/117
f 130/130/130 113/113/113 131/131/131
f 131/131/131 113/113/113 132/132/132
f 132/132/132 113/113/113 115/115/115
f 131/131/131 132/132/132 133/133/133
f 131/131/131 133/133/133 134/134/134
f 132/132/132 115/115/115 135/135/135
f 115/115/115 136/136/136 135/135/135
f 123/123/123 138/138/138 137/137/137
f 138/138/138 119/119/119 137/137/137
f 141/141/141 140/140/140 139/139/139
f 142/142/142 139/139/139 140/140/140
f 143/143/143 142/142/142 140/140/140
f 144/144/144 143/143/143 140/140/140
f 145/145/145 144/144/144 140/140/140
f 146/146/146 145/145/145 140/140/140
f 146/146/146 147/147/147 145/145/145
f 143/143/143 148/148/148 142/142/142
f 148/148/148 149/149/149 142/142/142
f 150/150/150 148/148/148 143/143/143
f 148/148/148 150/150/150 151/151/151
f 150/150/150 143/143/143 152/152/152
f 143/143/143 153/153/153 152/152/152
f 152/152/152 153/153/153 154/154/154
f 154/154/154 153/153/153 155/155/155
f 143/143/143 156/156/156 153/153/153
f 157/157/157 156/156/156 143/143/143
f 144/144/144 157/157/157 143/143/143
f 158/158/158 157/157/157 144/144/144
f 159/159/159 158/158/158 144/144/144
f 160/160/160 158/158/158 159/159/159
f 161/161/161 159/159/159 144/144/144
f 161/161/161 144/144/144 162/162/162
f 163/163/163 162/162/162 144/144/144
f 145/145/145 163/163/163 144/144/144
f 164/164/164 163/163/163 145/145/145
f 165/165/165 164/164/164 145/145/145
f 164/164/164 166/166/166 163/163/163
f 166/166/166 164/164/164 167/167/167
f 147/147/147 165/165/165 168/168/168
f 171/171/171 170/170/170 169/169/169
f 172/172/172 171/171/171 169/169/169
f 175/175/175 174/174/174 173/173/173
f 176/176/176 175/175/175 173/173/173
f 175/175/175 177/177/177 174/174/174
f 178/178/178 175/175/175 176/176/176
f 177/177/177 175/175/175 179/179/179
f 178/178/178 179/179/179 175/175/175
f 182/182/182 181/181/181 180/180/180
f 180/180/180 181/181/181 183/183/183
f 182/182/182 180/180/180 184/184/184
f 184/184/184 180/180/180 183/183/183
f 184/184/184 185/185/185 182/182/182
f 184/184/184 183/183/183 186/186/186
f 185/185/185 184/184/184 187/187/187
f 184/184/184 186/186/186 187/187/187
f 188/188/188 185/185/185 187/187/187
f 186/186/186 189/189/189 187/187/187
f 190/190/190 188/188/188 187/187/187
f 190/190/190 187/187/187 189/189/189
f 193/193/193 192/192/192 191/191/191
f 193/193/193 191/191/191 194/194/194
f 191/191/191 192/192/192 195/195/195
f 196/196/196 194/194/194 191/191/191
f 197/197/197 191/191/191 195/195/195
f 197/197/197 196/196/196 191/191/191
f 198/198/198 197/197/197 195/195/195
f 196/196/196 197/197/197 199/199/199
f 200/200/200 197/197/197 198/198/198
f 200/200/200 199/199/199 197/197/197
