g z021v004_l
v -1.001358E-05 0.4175126 0.1722635
v -0.04020452 0.8127124 0.2540773
v -0.1522088 0.4587983 0.254078
v -1.192093E-05 0.8127124 0.2136573
v 0.1521869 0.3739156 0.254078
v 0.04018068 0.8127124 0.2540773
v -0.1522088 0.4587983 0.254078
v -1.001358E-05 0.402987 0.385886
v -1.001358E-05 0.4175126 0.1722635
v 0.1521869 0.3739156 0.254078
v -1.192093E-05 0.8127124 0.2136573
v -0.05452585 0.8598745 0.2540773
v -0.04020452 0.8127124 0.2540773
v -1.096725E-05 0.8646358 0.1992557
v 0.04018068 0.8127124 0.2540773
v -1.096725E-05 0.9248031 0.2540773
v 0.05450392 0.8598745 0.2540773
v -1.192093E-05 0.8127124 0.2944971
v 0.05450392 0.8598745 0.2540773
v 0.04018068 0.8127124 0.2540773
v -1.096725E-05 0.8646358 0.3089058
v -0.04020452 0.8127124 0.2540773
v -1.096725E-05 0.9248031 0.2540773
v -0.05452585 0.8598745 0.2540773
v 0.5312672 1.553532 0.2460238
v -4.291534E-06 2.660867 0.2460238
v -4.291534E-06 0.854385 0.2460238
v 0.766624 2.660867 0.2460238
v -4.291534E-06 2.660867 0.2556348
v 0.5406213 1.572039 0.2556348
v -4.291534E-06 0.854385 0.2556348
v 0.766624 2.660867 0.2556348
v -4.291534E-06 2.660867 0.2460238
v -0.5267153 1.542959 0.2460238
v -4.291534E-06 0.854385 0.2460238
v -0.7666392 2.660867 0.2460238
v -0.5294104 1.548291 0.2556348
v -4.291534E-06 2.660867 0.2556348
v -4.291534E-06 0.854385 0.2556348
v -0.7666392 2.660867 0.2556348
v -1.192093E-05 0.8127124 0.2944971
v -0.1522088 0.4587983 0.254078
v -0.04020452 0.8127124 0.2540773
v -1.001358E-05 0.402987 0.385886
v 0.1521869 0.3739156 0.254078
v 0.04018068 0.8127124 0.2540773
v 0.1000005 0 1.192093E-07
v 0.1000757 3.052325 -0.004100775
v -4.768372E-07 3.065724 -0.0999999
v 1.192093E-07 0 -0.0999999
v -0.09845161 3.061735 0.0008206647
v -0.1000004 0 1.192093E-07
v -4.768372E-07 3.050746 0.1000001
v 1.192093E-07 0 0.1000001
v 0.1000757 3.052325 -0.004100775
v 0.1000005 0 1.192093E-07
v -4.768372E-07 3.065724 -0.0999999
v -4.768372E-07 3.050746 0.1000001
v -0.09845161 3.061735 0.0008206647
v 0.1000757 3.052325 -0.004100775
v 1.038328 2.703303 0.177438
v 0.8456416 2.703303 0.06234331
v 0.8456416 2.576402 0.1774381
v 0.8456416 2.830204 0.1774381
v 1.038328 2.703303 0.177438
v 0.8456416 2.576402 0.1774381
v 0.8456416 2.703303 0.2925339
v 0.8456416 2.830204 0.1774381
v 0.8007908 2.79444 0.1774386
v 0.8456416 2.830204 0.1774381
v 0.8456416 2.703303 0.2925339
v 0.8007908 2.703303 0.2601153
v 0.8456416 2.576402 0.1774381
v 0.8007908 2.61212 0.1774386
v 0.8456416 2.703303 0.06234331
v 0.8007908 2.703303 0.09476193
v 0.8456416 2.830204 0.1774381
v 0.8007908 2.79444 0.1774386
v -1.038328 2.703303 0.1774392
v -0.8456421 2.703303 0.2925339
v -0.8456421 2.576402 0.1774391
v -0.8456421 2.830204 0.1774391
v -1.038328 2.703303 0.1774392
v -0.8456421 2.576402 0.1774391
v -0.8456421 2.703303 0.06234331
v -0.8456421 2.830204 0.1774391
v -0.8007917 2.79444 0.1774578
v -0.8456421 2.830204 0.1774391
v -0.8456421 2.703303 0.06234331
v -0.8007917 2.703292 0.09478584
v -0.8456421 2.576402 0.1774391
v -0.8007917 2.61212 0.1774578
v -0.8456421 2.703303 0.2925339
v -0.8007917 2.703315 0.2601392
v -0.8456421 2.830204 0.1774391
v -0.8007917 2.79444 0.1774578
v -0.3773551 2.54589 0.2586836
v -0.4719043 2.545891 0.2586838
v -0.5333543 2.706233 0.2618128
v -0.315906 2.706231 0.2618054
v -0.5333543 2.796445 0.1774547
v -0.315906 2.796445 0.1774514
v -0.498734 2.708641 0.09676373
v -0.3505263 2.708643 0.09676313
v 0.3505177 2.708643 0.09676313
v 0.4987254 2.708641 0.09676373
v 0.5333457 2.796445 0.1774547
v 0.3158975 2.796445 0.1774514
v 0.3158975 2.706231 0.2618054
v 0.5333457 2.706233 0.2618128
v 0.4718957 2.545891 0.2586838
v 0.3773465 2.54589 0.2586836
v -0.8007917 2.703315 0.2601392
v 0.8007908 2.61212 0.1774386
v -0.8007917 2.61212 0.1774578
v 0.8007908 2.703303 0.2601153
v -0.8007917 2.79444 0.1774578
v 0.8007908 2.79444 0.1774386
v -0.8007917 2.61212 0.1774578
v 0.8007908 2.61212 0.1774386
v 0.8007908 2.703303 0.09849384
v -0.8007917 2.703292 0.09851667
v 0.8007908 2.79444 0.1774386
v -0.8007917 2.79444 0.1774578
v 0.1000005 0 1.192093E-07
v -0.1000004 0 1.192093E-07
v 1.192093E-07 0 0.1000001
v 1.192093E-07 0 -0.0999999
vt 0.8325195 0.01283264
vt 0.8540039 0.1152954
vt 0.875 0.02252197
vt 0.831543 0.1152954
vt 0.7900391 0.003805161
vt 0.809082 0.1152954
vt 0.7861328 0.1656494
vt 0.8144531 0.1418457
vt 0.7583008 0.1434326
vt 0.7866211 0.1188354
vt 0.6723633 0.006885529
vt 0.6923828 0.03793335
vt 0.6948242 0.006885529
vt 0.6723633 0.03793335
vt 0.6499023 0.006885529
vt 0.6723633 0.05453491
vt 0.6523438 0.03793335
vt 0.6723633 0.006885529
vt 0.6923828 0.03793335
vt 0.6948242 0.006885529
vt 0.6723633 0.03793335
vt 0.6499023 0.006885529
vt 0.6723633 0.05453491
vt 0.6523438 0.03793335
vt 0.921875 0.1699219
vt 0.9970703 0.00333786
vt 0.9970703 0.2749023
vt 0.8813477 0.00333786
vt 0.871582 0.4685059
vt 0.9614258 0.2756348
vt 0.871582 0.1483154
vt 1.007813 0.4685059
vt 0.9970703 0.00333786
vt 0.9223633 0.1715088
vt 0.9970703 0.2749023
vt 0.8813477 0.00333786
vt 0.9594727 0.2714844
vt 0.871582 0.4685059
vt 0.871582 0.1483154
vt 1.007813 0.4685059
vt 0.7514648 0.1152954
vt 0.7124023 0.02671814
vt 0.7299805 0.1152954
vt 0.7504883 0.01275635
vt 0.7900391 0.003805161
vt 0.7724609 0.1152954
vt 0.6044922 0.06982422
vt 0.6044922 0.4975586
vt 0.628418 0.4975586
vt 0.6289063 0.06982422
vt 0.6533203 0.4975586
vt 0.6538086 0.06982422
vt 0.6777344 0.4975586
vt 0.6787109 0.06982422
vt 0.7036133 0.4975586
vt 0.7036133 0.06982422
vt 0.8012695 0.4587402
vt 0.8012695 0.4033203
vt 0.7797852 0.4262695
vt 0.8208008 0.4311523
vt 0.8095703 0.3879395
vt 0.8095703 0.3283691
vt 0.7802734 0.3283691
vt 0.8388672 0.3283691
vt 0.7514648 0.3886719
vt 0.7802734 0.3283691
vt 0.7514648 0.3283691
vt 0.7216797 0.3283691
vt 0.7216797 0.2919922
vt 0.7216797 0.2988281
vt 0.7514648 0.2988281
vt 0.7514648 0.2919922
vt 0.7802734 0.2988281
vt 0.7802734 0.2919922
vt 0.8095703 0.2988281
vt 0.8095703 0.2919922
vt 0.8388672 0.2988281
vt 0.8388672 0.2919922
vt 0.8095703 0.3879395
vt 0.8095703 0.3283691
vt 0.7802734 0.3283691
vt 0.8388672 0.3283691
vt 0.7514648 0.3886719
vt 0.7802734 0.3283691
vt 0.7514648 0.3283691
vt 0.7216797 0.3283691
vt 0.7216797 0.2919922
vt 0.7216797 0.2988281
vt 0.7514648 0.2988281
vt 0.7514648 0.2919922
vt 0.7802734 0.2988281
vt 0.7802734 0.2919922
vt 0.8095703 0.2988281
vt 0.8095703 0.2919922
vt 0.8388672 0.2988281
vt 0.8388672 0.2919922
vt 0.7290039 0.19104
vt 0.7290039 0.2073975
vt 0.7646484 0.2180176
vt 0.7641602 0.1800537
vt 0.7807617 0.2180176
vt 0.7807617 0.1800537
vt 0.8095703 0.211792
vt 0.8095703 0.1860352
vt 0.8095703 0.211792
vt 0.8095703 0.1860352
vt 0.7807617 0.1800537
vt 0.7807617 0.2180176
vt 0.7646484 0.2180176
vt 0.7641602 0.1800537
vt 0.7290039 0.19104
vt 0.7290039 0.2073975
vt 0.5717773 0.2883301
vt 0.5932617 0.4956055
vt 0.5932617 0.2883301
vt 0.5717773 0.4956055
vt 0.550293 0.2883301
vt 0.550293 0.4956055
vt 0.550293 0.2883301
vt 0.550293 0.4956055
vt 0.5717773 0.4956055
vt 0.5717773 0.2883301
vt 0.5932617 0.4956055
vt 0.5932617 0.2883301
vt 0.8291016 0.4309082
vt 0.7734375 0.4311523
vt 0.8012695 0.4587402
vt 0.8012695 0.4033203
vn 0.02246094 0.1409912 -0.9897461
vn -0.9628906 0.2587891 -0.07702637
vn -0.9628906 0.2587891 -0.07702637
vn 0.02246094 0.1409912 -0.9897461
vn 0.9711914 0.2235107 -0.08288574
vn 0.9711914 0.2235107 -0.08288574
vn -0.293457 -0.9536133 -0.06488037
vn -0.2678223 -0.9614258 -0.06536865
vn -0.2678223 -0.9614258 -0.06536865
vn -0.2419434 -0.9682617 -0.0657959
vn 0 -0.2773438 -0.9609375
vn -0.9707031 0.239502 -2.878904E-05
vn -0.9599609 -0.279541 -2.068281E-05
vn 0 0.2471924 -0.96875
vn 0.9599609 -0.279541 -2.098083E-05
vn 0 1 -4.607439E-05
vn 0.9707031 0.239502 -2.902746E-05
vn 0 -0.2773438 0.9609375
vn 0.9707031 0.239502 -2.902746E-05
vn 0.9599609 -0.279541 -2.098083E-05
vn 0 0.2471924 0.96875
vn -0.9599609 -0.279541 -2.068281E-05
vn 0 1 -4.607439E-05
vn -0.9707031 0.239502 -2.878904E-05
vn 0 0 -1
vn 0 0 -1
vn 0 0 -1
vn 0 0 -1
vn 0 0 1
vn 0 0 1
vn 0 0 1
vn 0 0 1
vn 0 0 -1
vn 0 0 -1
vn 0 0 -1
vn 0 0 -1
vn 0 0 1
vn 0 0 1
vn 0 0 1
vn 0 0 1
vn 0.03001404 0.2293701 0.9726563
vn -0.9628906 0.2587891 -0.07702637
vn -0.9628906 0.2587891 -0.07702637
vn 0.03001404 0.2293701 0.9726563
vn 0.9711914 0.2235107 -0.08288574
vn 0.9711914 0.2235107 -0.08288574
vn 1 -1.877546E-05 -0.01026154
vn 1 -1.877546E-05 -0.01026154
vn -0.008255005 -0.0001549721 -1
vn -0.008255005 -0.0001549721 -1
vn -1 0.0002596378 0.002054214
vn -1 0.0002596378 0.002054214
vn 0.004062653 0.0003995895 1
vn 0.004062653 0.0003995895 1
vn 1 -1.877546E-05 -0.01026154
vn 1 -1.877546E-05 -0.01026154
vn 0.0489502 0.9960938 0.07458496
vn 0.0489502 0.9960938 0.07458496
vn 0.03604126 0.996582 0.074646
vn 0.06182861 0.9951172 0.07452393
vn 1 0 0
vn 0.5126953 0 -0.8583984
vn 0.5498047 -0.8349609 0
vn 0.5498047 0.8349609 0
vn 1 0 0
vn 0.5498047 -0.8349609 0
vn 0.5126953 0 0.8583984
vn 0.5498047 0.8349609 0
vn -0.6235352 0.7817383 0
vn -0.6235352 0.7817383 0
vn -0.5859375 -1.049042E-05 0.8105469
vn -0.5859375 -1.049042E-05 0.8105469
vn -0.6230469 -0.7822266 0
vn -0.6230469 -0.7822266 0
vn -0.5859375 -1.055002E-05 -0.8105469
vn -0.5859375 -1.055002E-05 -0.8105469
vn -0.6235352 0.7817383 0
vn -0.6235352 0.7817383 0
vn -1 0 0
vn -0.5126953 0 0.8583984
vn -0.5498047 -0.8349609 0
vn -0.5498047 0.8349609 0
vn -1 0 0
vn -0.5498047 -0.8349609 0
vn -0.5126953 0 -0.8583984
vn -0.5498047 0.8349609 0
vn 0.6235352 0.7817383 0.0001282692
vn 0.6235352 0.7817383 0.0001282692
vn 0.5859375 -5.745888E-05 -0.8100586
vn 0.5859375 -5.745888E-05 -0.8100586
vn 0.6230469 -0.7822266 0.0001077652
vn 0.6230469 -0.7822266 0.0001077652
vn 0.5854492 3.606081E-05 0.8105469
vn 0.5854492 3.606081E-05 0.8105469
vn 0.6235352 0.7817383 0.0001282692
vn 0.6235352 0.7817383 0.0001282692
vn 2.413988E-05 -0.01948547 1
vn 2.413988E-05 -0.01948547 1
vn 2.461672E-05 0.3581543 0.9335938
vn 2.461672E-05 0.3581543 0.9335938
vn 0 1 -0.004325867
vn 0 1 -0.004325867
vn -1.144409E-05 0.6767578 -0.7363281
vn -1.144409E-05 0.6767578 -0.7363281
vn 1.144409E-05 0.6767578 -0.7363281
vn 1.144409E-05 0.6767578 -0.7363281
vn 0 1 -0.004325867
vn 0 1 -0.004325867
vn -2.461672E-05 0.3581543 0.9335938
vn -2.461672E-05 0.3581543 0.9335938
vn -2.413988E-05 -0.01948547 1
vn -2.413988E-05 -0.01948547 1
vn 1.347065E-05 0.0001568794 1
vn 0 -1 -0.01144409
vn 0 -1 -0.01144409
vn 1.347065E-05 0.0001568794 1
vn 0 1 -0.01150513
vn 0 1 -0.01150513
vn 0 -1 -0.01144409
vn 0 -1 -0.01144409
vn -1.311302E-05 9.459257E-05 -1
vn -1.311302E-05 9.459257E-05 -1
vn 0 1 -0.01150513
vn 0 1 -0.01150513
vn 0 -1 0
vn 0 -1 0
vn 0 -1 0
vn 0 -1 0
g z021v004_l_0
f 3/3/3 2/2/2 1/1/1
f 2/2/2 4/4/4 1/1/1
f 1/1/1 4/4/4 5/5/5
f 4/4/4 6/6/6 5/5/5
f 9/9/9 8/8/8 7/7/7
f 8/8/8 9/9/9 10/10/10
f 13/13/13 12/12/12 11/11/11
f 12/12/12 14/14/14 11/11/11
f 11/11/11 14/14/14 15/15/15
f 12/12/12 16/16/16 14/14/14
f 14/14/14 17/17/17 15/15/15
f 14/14/14 16/16/16 17/17/17
f 20/20/20 19/19/19 18/18/18
f 19/19/19 21/21/21 18/18/18
f 18/18/18 21/21/21 22/22/22
f 19/19/19 23/23/23 21/21/21
f 21/21/21 24/24/24 22/22/22
f 21/21/21 23/23/23 24/24/24
f 27/27/27 26/26/26 25/25/25
f 25/25/25 26/26/26 28/28/28
f 31/31/31 30/30/30 29/29/29
f 30/30/30 32/32/32 29/29/29
f 35/35/35 34/34/34 33/33/33
f 34/34/34 36/36/36 33/33/33
f 39/39/39 38/38/38 37/37/37
f 37/37/37 38/38/38 40/40/40
f 43/43/43 42/42/42 41/41/41
f 42/42/42 44/44/44 41/41/41
f 41/41/41 44/44/44 45/45/45
f 46/46/46 41/41/41 45/45/45
f 49/49/49 48/48/48 47/47/47
f 50/50/50 49/49/49 47/47/47
f 51/51/51 49/49/49 50/50/50
f 52/52/52 51/51/51 50/50/50
f 53/53/53 51/51/51 52/52/52
f 54/54/54 53/53/53 52/52/52
f 55/55/55 53/53/53 54/54/54
f 56/56/56 55/55/55 54/54/54
f 59/59/59 58/58/58 57/57/57
f 58/58/58 60/60/60 57/57/57
f 63/63/63 62/62/62 61/61/61
f 62/62/62 64/64/64 61/61/61
f 67/67/67 66/66/66 65/65/65
f 68/68/68 67/67/67 65/65/65
f 71/71/71 70/70/70 69/69/69
f 72/72/72 71/71/71 69/69/69
f 73/73/73 71/71/71 72/72/72
f 74/74/74 73/73/73 72/72/72
f 75/75/75 73/73/73 74/74/74
f 76/76/76 75/75/75 74/74/74
f 77/77/77 75/75/75 76/76/76
f 78/78/78 77/77/77 76/76/76
f 81/81/81 80/80/80 79/79/79
f 80/80/80 82/82/82 79/79/79
f 85/85/85 84/84/84 83/83/83
f 86/86/86 85/85/85 83/83/83
f 89/89/89 88/88/88 87/87/87
f 90/90/90 89/89/89 87/87/87
f 91/91/91 89/89/89 90/90/90
f 92/92/92 91/91/91 90/90/90
f 93/93/93 91/91/91 92/92/92
f 94/94/94 93/93/93 92/92/92
f 95/95/95 93/93/93 94/94/94
f 96/96/96 95/95/95 94/94/94
f 99/99/99 98/98/98 97/97/97
f 100/100/100 99/99/99 97/97/97
f 99/99/99 100/100/100 101/101/101
f 100/100/100 102/102/102 101/101/101
f 103/103/103 101/101/101 102/102/102
f 104/104/104 103/103/103 102/102/102
f 107/107/107 106/106/106 105/105/105
f 108/108/108 107/107/107 105/105/105
f 108/108/108 109/109/109 107/107/107
f 109/109/109 110/110/110 107/107/107
f 111/111/111 110/110/110 109/109/109
f 112/112/112 111/111/111 109/109/109
f 115/115/115 114/114/114 113/113/113
f 114/114/114 116/116/116 113/113/113
f 113/113/113 116/116/116 117/117/117
f 116/116/116 118/118/118 117/117/117
f 121/121/121 120/120/120 119/119/119
f 122/122/122 121/121/121 119/119/119
f 123/123/123 121/121/121 122/122/122
f 124/124/124 123/123/123 122/122/122
f 127/127/127 126/126/126 125/125/125
f 126/126/126 128/128/128 125/125/125
