g z030v001_ring_m
v 0.7911235 -9.953201E-19 -0.2119807
v 1.01577 -4.833601E-18 -0.1337284
v 0.8120245 -9.953201E-19 -0.1069049
v 0.9896249 -4.833601E-18 -0.265169
v 0.7566863 -9.953201E-19 -0.3134295
v 0.946547 -4.833601E-18 -0.3920723
v 0.7093021 -9.953201E-19 -0.4095155
v 0.8872738 -4.833601E-18 -0.5122674
v 0.6497813 -9.953201E-19 -0.4985945
v 0.8128185 -4.833601E-18 -0.623697
v 0.5791427 -9.953201E-19 -0.5791424
v 0.7244561 -4.833601E-18 -0.7244554
v 0.4985948 -9.953201E-19 -0.649781
v 0.6236978 -4.833601E-18 -0.8128179
v 0.4095158 -9.953201E-19 -0.7093018
v 0.5122678 -4.833601E-18 -0.8872732
v 0.3134298 -9.953201E-19 -0.7566861
v 0.3920727 -4.833601E-18 -0.9465468
v 0.2119811 -9.953201E-19 -0.7911234
v 0.2651695 -4.833601E-18 -0.9896244
v 0.1069052 -9.953201E-19 -0.8120242
v 0.1337289 -4.833601E-18 -1.01577
v 1.733461E-07 -9.953201E-19 -0.8190312
v 2.890819E-07 -4.833601E-18 -1.024535
v -0.1069048 -9.953201E-19 -0.8120242
v -0.1337283 -4.833601E-18 -1.01577
v -0.2119807 -9.953201E-19 -0.7911234
v -0.2651689 -4.833601E-18 -0.9896244
v -0.3134295 -9.953201E-19 -0.7566861
v -0.3920723 -4.833601E-18 -0.9465468
v -0.4095154 -9.953201E-19 -0.7093018
v -0.5122672 -4.833601E-18 -0.8872732
v -0.4985945 -9.953201E-19 -0.6497811
v -0.623697 -4.833601E-18 -0.8128181
v -0.5791423 -9.953201E-19 -0.5791425
v -0.7244554 -4.833601E-18 -0.7244555
v -0.649781 -9.953201E-19 -0.4985946
v -0.8128179 -4.833601E-18 -0.6236972
v -0.7093017 -9.953201E-19 -0.4095156
v -0.8872731 -4.833601E-18 -0.5122675
v -0.756686 -9.953201E-19 -0.3134297
v -0.9465467 -4.833601E-18 -0.3920726
v -0.7911232 -9.953201E-19 -0.2119809
v -0.9896242 -4.833601E-18 -0.2651692
v -0.812024 -9.953201E-19 -0.1069051
v -1.015769 -4.833601E-18 -0.1337287
v -0.8190309 -9.953201E-19 -6.730684E-08
v -1.024535 -4.833601E-18 -2.447038E-08
v -0.8120239 -9.953201E-19 0.1069049
v -1.015769 -4.833601E-18 0.1337286
v -0.7911231 -9.953201E-19 0.2119807
v -0.9896241 -4.833601E-18 0.2651691
v -0.7566859 -9.953201E-19 0.3134295
v -0.9465464 -4.833601E-18 0.3920723
v -0.7093015 -9.953201E-19 0.4095154
v -0.8872728 -4.833601E-18 0.5122674
v -0.6497809 -9.953201E-19 0.4985943
v -0.8128177 -4.833601E-18 0.6236972
v -0.5791422 -9.953201E-19 0.5791422
v -0.7244552 -4.833601E-18 0.7244554
v -0.4985943 -9.953201E-19 0.6497809
v -0.6236969 -4.833601E-18 0.8128178
v -0.4095154 -9.953201E-19 0.7093015
v -0.5122671 -4.833601E-18 0.887273
v -0.3134295 -9.953201E-19 0.7566858
v -0.3920723 -4.833601E-18 0.9465466
v -0.2119807 -9.953201E-19 0.7911229
v -0.2651689 -4.833601E-18 0.9896241
v -0.106905 -9.953201E-19 0.8120237
v -0.1337285 -4.833601E-18 1.015769
v 2.483016E-09 -9.953201E-19 0.8190306
v 7.534753E-08 -4.833601E-18 1.024534
v 0.1069049 -9.953201E-19 0.8120237
v 0.1337286 -4.833601E-18 1.015769
v 0.2119807 -9.953201E-19 0.7911228
v 0.265169 -4.833601E-18 0.989624
v 0.3134294 -9.953201E-19 0.7566856
v 0.3920722 -4.833601E-18 0.9465463
v 0.4095153 -9.953201E-19 0.7093014
v 0.5122672 -4.833601E-18 0.8872727
v 0.4985942 -9.953201E-19 0.6497806
v 0.6236969 -4.833601E-18 0.8128176
v 0.579142 -9.953201E-19 0.579142
v 0.7244551 -4.833601E-18 0.7244551
v 0.6497806 -9.953201E-19 0.4985942
v 0.8128176 -4.833601E-18 0.6236969
v 0.7093012 -9.953201E-19 0.4095153
v 0.8872726 -4.833601E-18 0.5122672
v 0.7566855 -9.953201E-19 0.3134294
v 0.9465461 -4.833601E-18 0.3920723
v 0.7911226 -9.953201E-19 0.2119807
v 0.9896237 -4.833601E-18 0.265169
v 0.8120234 -9.953201E-19 0.106905
v 1.015769 -4.833601E-18 0.1337287
v 0.8190304 -9.953201E-19 5.473821E-08
v 1.024534 -4.833601E-18 1.281972E-07
v 0.8120245 -9.953201E-19 -0.1069049
v 1.01577 -4.833601E-18 -0.1337284
vt 0.7885742 0.02011108
vt 0.007911682 -0.0007600784
vt 0.7885742 -0.0007600784
vt 0.007911682 0.02011108
vt 0.7885742 0.04098511
vt 0.007911682 0.04098511
vt 0.7885742 0.06182861
vt 0.007911682 0.06182861
vt 0.7885742 0.08270264
vt 0.007911682 0.08270264
vt 0.7885742 0.1035767
vt 0.007911682 0.1035767
vt 0.7885742 0.1244507
vt 0.007911682 0.1244507
vt 0.7885742 0.1452637
vt 0.007911682 0.1452637
vt 0.7885742 0.1661377
vt 0.007911682 0.1661377
vt 0.7885742 0.1870117
vt 0.007911682 0.1870117
vt 0.7885742 0.2078857
vt 0.007911682 0.2078857
vt 0.7885742 0.2287598
vt 0.007911682 0.2287598
vt 0.7885742 0.2496338
vt 0.007911682 0.2496338
vt 0.7885742 0.2705078
vt 0.007911682 0.2705078
vt 0.7885742 0.2912598
vt 0.007911682 0.2912598
vt 0.7885742 0.3122559
vt 0.007911682 0.3122559
vt 0.7885742 0.3330078
vt 0.007911682 0.3330078
vt 0.7885742 0.3540039
vt 0.007911682 0.3540039
vt 0.7885742 0.3747559
vt 0.007911682 0.3747559
vt 0.7885742 0.395752
vt 0.007911682 0.395752
vt 0.7885742 0.4165039
vt 0.007911682 0.4165039
vt 0.7885742 0.4375
vt 0.007911682 0.4375
vt 0.7885742 0.458252
vt 0.007911682 0.458252
vt 0.7885742 0.479248
vt 0.007911682 0.479248
vt 0.7885742 0.5
vt 0.007911682 0.5
vt 0.7885742 0.5209961
vt 0.007911682 0.5209961
vt 0.7885742 0.5415039
vt 0.007911682 0.5415039
vt 0.7885742 0.5625
vt 0.007911682 0.5625
vt 0.7885742 0.5834961
vt 0.007911682 0.5834961
vt 0.7885742 0.6044922
vt 0.007911682 0.6044922
vt 0.7885742 0.625
vt 0.007911682 0.625
vt 0.7885742 0.6459961
vt 0.007911682 0.6459961
vt 0.7885742 0.6669922
vt 0.007911682 0.6669922
vt 0.7885742 0.6879883
vt 0.007911682 0.6879883
vt 0.7885742 0.7084961
vt 0.007911682 0.7084961
vt 0.7885742 0.7294922
vt 0.007911682 0.7294922
vt 0.7885742 0.7504883
vt 0.007911682 0.7504883
vt 0.7885742 0.7714844
vt 0.007911682 0.7714844
vt 0.7885742 0.7919922
vt 0.007911682 0.7919922
vt 0.7885742 0.8129883
vt 0.007911682 0.8129883
vt 0.7885742 0.8339844
vt 0.007911682 0.8339844
vt 0.7885742 0.8544922
vt 0.007911682 0.8544922
vt 0.7885742 0.8754883
vt 0.007911682 0.8754883
vt 0.7885742 0.8964844
vt 0.007911682 0.8964844
vt 0.7885742 0.9174805
vt 0.007911682 0.9174805
vt 0.7885742 0.9379883
vt 0.007911682 0.9379883
vt 0.7885742 0.9589844
vt 0.007911682 0.9589844
vt 0.7885742 0.9799805
vt 0.007911682 0.9799805
vt 0.7885742 1.000977
vt 0.007911682 1.000977
vn 0 1 0
vn 0 1 0
vn 0 1 0
vn 0 1 0
vn 0 1 0
vn 0 1 0
vn 0 1 0
vn 0 1 0
vn 0 1 0
vn 0 1 0
vn 0 1 0
vn 0 1 0
vn 0 1 0
vn 0 1 0
vn 0 1 0
vn 0 1 0
vn 0 1 0
vn 0 1 0
vn 0 1 0
vn 0 1 0
vn 0 1 0
vn 0 1 0
vn 0 1 0
vn 0 1 0
vn 0 1 0
vn 0 1 0
vn 0 1 0
vn 0 1 0
vn 0 1 0
vn 0 1 0
vn 0 1 0
vn 0 1 0
vn 0 1 0
vn 0 1 0
vn 0 1 0
vn 0 1 0
vn 0 1 0
vn 0 1 0
vn 0 1 0
vn 0 1 0
vn 0 1 0
vn 0 1 0
vn 0 1 0
vn 0 1 0
vn 0 1 0
vn 0 1 0
vn 0 1 0
vn 0 1 0
vn 0 1 0
vn 0 1 0
vn 0 1 0
vn 0 1 0
vn 0 1 0
vn 0 1 0
vn 0 1 0
vn 0 1 0
vn 0 1 0
vn 0 1 0
vn 0 1 0
vn 0 1 0
vn 0 1 0
vn 0 1 0
vn 0 1 0
vn 0 1 0
vn 0 1 0
vn 0 1 0
vn 0 1 0
vn 0 1 0
vn 0 1 0
vn 0 1 0
vn 0 1 0
vn 0 1 0
vn 0 1 0
vn 0 1 0
vn 0 1 0
vn 0 1 0
vn 0 1 0
vn 0 1 0
vn 0 1 0
vn 0 1 0
vn 0 1 0
vn 0 1 0
vn 0 1 0
vn 0 1 0
vn 0 1 0
vn 0 1 0
vn 0 1 0
vn 0 1 0
vn 0 1 0
vn 0 1 0
vn 0 1 0
vn 0 1 0
vn 0 1 0
vn 0 1 0
vn 0 1 0
vn 0 1 0
vn 0 1 0
vn 0 1 0
g z030v001_ring_m_0
f 3/3/3 2/2/2 1/1/1
f 2/2/2 4/4/4 1/1/1
f 1/1/1 4/4/4 5/5/5
f 4/4/4 6/6/6 5/5/5
f 5/5/5 6/6/6 7/7/7
f 6/6/6 8/8/8 7/7/7
f 7/7/7 8/8/8 9/9/9
f 8/8/8 10/10/10 9/9/9
f 9/9/9 10/10/10 11/11/11
f 10/10/10 12/12/12 11/11/11
f 11/11/11 12/12/12 13/13/13
f 12/12/12 14/14/14 13/13/13
f 13/13/13 14/14/14 15/15/15
f 14/14/14 16/16/16 15/15/15
f 15/15/15 16/16/16 17/17/17
f 16/16/16 18/18/18 17/17/17
f 17/17/17 18/18/18 19/19/19
f 18/18/18 20/20/20 19/19/19
f 19/19/19 20/20/20 21/21/21
f 20/20/20 22/22/22 21/21/21
f 21/21/21 22/22/22 23/23/23
f 22/22/22 24/24/24 23/23/23
f 23/23/23 24/24/24 25/25/25
f 24/24/24 26/26/26 25/25/25
f 25/25/25 26/26/26 27/27/27
f 26/26/26 28/28/28 27/27/27
f 27/27/27 28/28/28 29/29/29
f 28/28/28 30/30/30 29/29/29
f 29/29/29 30/30/30 31/31/31
f 30/30/30 32/32/32 31/31/31
f 31/31/31 32/32/32 33/33/33
f 32/32/32 34/34/34 33/33/33
f 33/33/33 34/34/34 35/35/35
f 34/34/34 36/36/36 35/35/35
f 35/35/35 36/36/36 37/37/37
f 36/36/36 38/38/38 37/37/37
f 37/37/37 38/38/38 39/39/39
f 38/38/38 40/40/40 39/39/39
f 39/39/39 40/40/40 41/41/41
f 40/40/40 42/42/42 41/41/41
f 41/41/41 42/42/42 43/43/43
f 42/42/42 44/44/44 43/43/43
f 43/43/43 44/44/44 45/45/45
f 44/44/44 46/46/46 45/45/45
f 45/45/45 46/46/46 47/47/47
f 46/46/46 48/48/48 47/47/47
f 47/47/47 48/48/48 49/49/49
f 48/48/48 50/50/50 49/49/49
f 49/49/49 50/50/50 51/51/51
f 50/50/50 52/52/52 51/51/51
f 51/51/51 52/52/52 53/53/53
f 52/52/52 54/54/54 53/53/53
f 53/53/53 54/54/54 55/55/55
f 54/54/54 56/56/56 55/55/55
f 55/55/55 56/56/56 57/57/57
f 56/56/56 58/58/58 57/57/57
f 57/57/57 58/58/58 59/59/59
f 58/58/58 60/60/60 59/59/59
f 59/59/59 60/60/60 61/61/61
f 60/60/60 62/62/62 61/61/61
f 61/61/61 62/62/62 63/63/63
f 62/62/62 64/64/64 63/63/63
f 63/63/63 64/64/64 65/65/65
f 64/64/64 66/66/66 65/65/65
f 65/65/65 66/66/66 67/67/67
f 66/66/66 68/68/68 67/67/67
f 67/67/67 68/68/68 69/69/69
f 68/68/68 70/70/70 69/69/69
f 69/69/69 70/70/70 71/71/71
f 70/70/70 72/72/72 71/71/71
f 71/71/71 72/72/72 73/73/73
f 72/72/72 74/74/74 73/73/73
f 73/73/73 74/74/74 75/75/75
f 74/74/74 76/76/76 75/75/75
f 75/75/75 76/76/76 77/77/77
f 76/76/76 78/78/78 77/77/77
f 77/77/77 78/78/78 79/79/79
f 78/78/78 80/80/80 79/79/79
f 79/79/79 80/80/80 81/81/81
f 80/80/80 82/82/82 81/81/81
f 81/81/81 82/82/82 83/83/83
f 82/82/82 84/84/84 83/83/83
f 83/83/83 84/84/84 85/85/85
f 84/84/84 86/86/86 85/85/85
f 85/85/85 86/86/86 87/87/87
f 86/86/86 88/88/88 87/87/87
f 87/87/87 88/88/88 89/89/89
f 88/88/88 90/90/90 89/89/89
f 89/89/89 90/90/90 91/91/91
f 90/90/90 92/92/92 91/91/91
f 91/91/91 92/92/92 93/93/93
f 92/92/92 94/94/94 93/93/93
f 93/93/93 94/94/94 95/95/95
f 94/94/94 96/96/96 95/95/95
f 95/95/95 96/96/96 97/97/97
f 96/96/96 98/98/98 97/97/97
