g z031v001_neptune_l
v 0.04617476 -0.4535495 -0.05502887
v 0 -0.459203 0
v 0.07074381 -0.4535495 -0.01247399
v 0.2053065 -0.4091529 -0.03620091
v 0.1340044 -0.4091529 -0.1597
v 0.3197723 -0.3247055 -0.05638424
v 4.28171E-08 -0.4535495 -0.07183515
v 0 -0.459203 0
v 0.2087167 -0.3247055 -0.2487386
v 0.4029367 -0.2084738 -0.07104829
v 1.242601E-07 -0.4091529 -0.2084737
v 0.2629984 -0.2084738 -0.3134289
v 0.4466588 -0.07183513 -0.07875764
v -0.04617471 -0.4535495 -0.05502893
v 0 -0.459203 0
v 1.935396E-07 -0.3247055 -0.3247054
v 0.291536 -0.07183513 -0.3474386
v 0.4466588 0.07183513 -0.07875764
v -0.1340042 -0.4091529 -0.1597002
v 2.438741E-07 -0.2084738 -0.4091526
v 0.291536 0.07183513 -0.3474386
v 0.4029367 0.2084738 -0.07104829
v -0.07074381 -0.4535495 -0.01247407
v 0 -0.459203 0
v -0.2087165 -0.3247055 -0.2487389
v 2.703365E-07 -0.07183513 -0.4535492
v 0.2629984 0.2084738 -0.3134289
v 0.3197723 0.3247055 -0.05638424
v -0.2053065 -0.4091529 -0.03620115
v -0.2629981 -0.2084738 -0.3134292
v 2.703365E-07 0.07183513 -0.4535492
v 0.2087167 0.3247055 -0.2487386
v 0.2053065 0.4091529 -0.03620091
v 0.1340044 0.4091529 -0.1597
v 2.438741E-07 0.2084738 -0.4091526
v -0.2915357 -0.07183513 -0.347439
v -0.3197723 -0.3247055 -0.05638461
v 1.935396E-07 0.3247055 -0.3247054
v -0.2915357 0.07183513 -0.347439
v -0.4029367 -0.2084738 -0.07104875
v -0.2629981 0.2084738 -0.3134292
v -0.4466588 -0.07183513 -0.07875815
v -0.4466588 0.07183513 -0.07875815
v -0.1805436 -0.4091529 0.1042368
v -0.2812032 -0.3247055 0.1623527
v -0.3543367 -0.2084738 0.2045763
v -0.3927853 -0.07183513 0.2267746
v -0.06221109 -0.4535495 0.03591757
v 0 -0.459203 0
v -0.02456908 -0.4535495 0.06750298
v 0 -0.459203 0
v -0.07130226 -0.4091529 0.1959012
v -0.1110559 -0.3247055 0.3051233
v 0.02456906 -0.4535495 0.06750298
v 0 -0.459203 0
v 0.07130221 -0.4091529 0.1959013
v -0.1399386 -0.2084738 0.3844778
v 0.06221109 -0.4535495 0.03591759
v 0 -0.459203 0
v 0.1110558 -0.3247055 0.3051234
v 0.1805436 -0.4091529 0.1042369
v 0.07074381 -0.4535495 -0.01247399
v 0 -0.459203 0
v 0.2053065 -0.4091529 -0.03620091
v 0.2812032 -0.3247055 0.1623528
v 0.3197723 -0.3247055 -0.05638424
v 0.1399385 -0.2084738 0.3844779
v 0.3543367 -0.2084738 0.2045764
v 0.4029367 -0.2084738 -0.07104829
v -0.1551231 -0.07183513 0.4261969
v 0.155123 -0.07183513 0.426197
v 0.3927853 -0.07183513 0.2267747
v 0.4466588 -0.07183513 -0.07875764
v -0.3927853 0.07183513 0.2267746
v -0.1551231 0.07183513 0.4261969
v 0.155123 0.07183513 0.426197
v 0.3927853 0.07183513 0.2267747
v 0.4466588 0.07183513 -0.07875764
v -0.4029367 0.2084738 -0.07104875
v -0.3543367 0.2084738 0.2045763
v -0.1399386 0.2084738 0.3844778
v 0.1399385 0.2084738 0.3844779
v 0.3543367 0.2084738 0.2045764
v 0.4029367 0.2084738 -0.07104829
v -0.2087165 0.3247055 -0.2487389
v -0.3197723 0.3247055 -0.05638461
v -0.1340042 0.4091529 -0.1597002
v -0.2053065 0.4091529 -0.03620115
v 1.242601E-07 0.4091529 -0.2084737
v -0.2812032 0.3247055 0.1623527
v 0.2812032 0.3247055 0.1623528
v 0.3197723 0.3247055 -0.05638424
v -0.1110559 0.3247055 0.3051233
v 0.1110558 0.3247055 0.3051234
v 0.1805436 0.4091529 0.1042369
v 0.2053065 0.4091529 -0.03620091
v 0.07074381 0.4535495 -0.01247399
v 0.07130221 0.4091529 0.1959013
v -0.1805436 0.4091529 0.1042368
v -0.07130226 0.4091529 0.1959012
v -0.07074381 0.4535495 -0.01247407
v 0.07183518 0.4535495 0
v 0 0.459203 0
v 0.06750298 0.4535495 0.02456908
v 0 0.459203 0
v 0.06221109 0.4535495 0.03591759
v 0 0.459203 0
v 0.05502893 0.4535495 0.04617476
v 0 0.459203 0
v 0.03591758 0.4535495 0.06221109
v 0 0.459203 0
v 0.02456906 0.4535495 0.06750298
v 0 0.459203 0
v 0.01247404 0.4535495 0.07074384
v 0 0.459203 0
v -0.01247406 0.4535495 0.07074382
v 0 0.459203 0
v -0.02456908 0.4535495 0.06750298
v 0 0.459203 0
v -0.03591759 0.4535495 0.06221107
v 0 0.459203 0
v -0.05502894 0.4535495 0.04617473
v 0 0.459203 0
v -0.06221109 0.4535495 0.03591757
v 0 0.459203 0
v -0.06750298 0.4535495 0.02456905
v 0 0.459203 0
v -0.07183515 0.4535495 -2.354941E-08
v 0 0.459203 0
v 0 0.459203 0
v -0.06750295 0.4535495 -0.02456909
v 0 0.459203 0
v -0.05502889 0.4535495 -0.04617476
v 0 0.459203 0
v -0.04617471 0.4535495 -0.05502893
v 0 0.459203 0
v -0.03591754 0.4535495 -0.06221108
v 0 0.459203 0
v -0.012474 0.4535495 -0.07074381
v 0 0.459203 0
v 4.28171E-08 0.4535495 -0.07183515
v 0 0.459203 0
v 0.01247408 0.4535495 -0.07074379
v 0 0.459203 0
v 0.03591761 0.4535495 -0.06221103
v 0 0.459203 0
v 0.04617476 0.4535495 -0.05502887
v 0 0.459203 0
v 0.05502894 0.4535495 -0.04617469
v 0 0.459203 0
v 0.06750296 0.4535495 -0.02456901
v 0 0.459203 0
v 0.07074381 0.4535495 -0.01247399
v 0 0.459203 0
vt 0.111084 0.04998779
vt 0.097229 0
vt 0 0.04998779
vt 0 0.1500244
vt 0.111084 0.1500244
vt 0 0.25
vt 0.222168 0.04998779
vt 0.208374 0
vt 0.111084 0.25
vt 0 0.3500977
vt 0.222168 0.1500244
vt 0.111084 0.3500977
vt 0 0.4499512
vt 0.333252 0.04998779
vt 0.3193359 0
vt 0.222168 0.25
vt 0.111084 0.4499512
vt 0 0.5498047
vt 0.333252 0.1500244
vt 0.222168 0.3500977
vt 0.111084 0.5498047
vt 0 0.6499023
vt 0.4443359 0.04998779
vt 0.4306641 0
vt 0.333252 0.25
vt 0.222168 0.4499512
vt 0.111084 0.6499023
vt 0 0.75
vt 0.4443359 0.1500244
vt 0.333252 0.3500977
vt 0.222168 0.5498047
vt 0.111084 0.75
vt 0 0.8500977
vt 0.111084 0.8500977
vt 0.222168 0.6499023
vt 0.333252 0.4499512
vt 0.4443359 0.25
vt 0.222168 0.75
vt 0.333252 0.5498047
vt 0.4443359 0.3500977
vt 0.333252 0.6499023
vt 0.4443359 0.4499512
vt 0.4443359 0.5498047
vt 0.5556641 0.1500244
vt 0.5556641 0.25
vt 0.5556641 0.3500977
vt 0.5556641 0.4499512
vt 0.5556641 0.04998779
vt 0.5415039 0
vt 0.6665039 0.04998779
vt 0.652832 0
vt 0.6665039 0.1500244
vt 0.6665039 0.25
vt 0.777832 0.04998779
vt 0.7636719 0
vt 0.777832 0.1500244
vt 0.6665039 0.3500977
vt 0.8886719 0.04998779
vt 0.875 0
vt 0.777832 0.25
vt 0.8886719 0.1500244
vt 1 0.04998779
vt 0.9863281 0
vt 1 0.1500244
vt 0.8886719 0.25
vt 1 0.25
vt 0.777832 0.3500977
vt 0.8886719 0.3500977
vt 1 0.3500977
vt 0.6665039 0.4499512
vt 0.777832 0.4499512
vt 0.8886719 0.4499512
vt 1 0.4499512
vt 0.5556641 0.5498047
vt 0.6665039 0.5498047
vt 0.777832 0.5498047
vt 0.8886719 0.5498047
vt 1 0.5498047
vt 0.4443359 0.6499023
vt 0.5556641 0.6499023
vt 0.6665039 0.6499023
vt 0.777832 0.6499023
vt 0.8886719 0.6499023
vt 1 0.6499023
vt 0.333252 0.75
vt 0.4443359 0.75
vt 0.333252 0.8500977
vt 0.4443359 0.8500977
vt 0.222168 0.8500977
vt 0.5556641 0.75
vt 0.8886719 0.75
vt 1 0.75
vt 0.6665039 0.75
vt 0.777832 0.75
vt 0.8886719 0.8500977
vt 1 0.8500977
vt 1 0.9501953
vt 0.777832 0.8500977
vt 0.5556641 0.8500977
vt 0.6665039 0.8500977
vt 0.4443359 0.9501953
vt 0.972168 0.9501953
vt 0.9863281 1
vt 0.9165039 0.9501953
vt 0.9306641 1
vt 0.8886719 0.9501953
vt 0.902832 1
vt 0.8613281 0.9501953
vt 0.875 1
vt 0.8056641 0.9501953
vt 0.8193359 1
vt 0.777832 0.9501953
vt 0.7915039 1
vt 0.75 0.9501953
vt 0.7636719 1
vt 0.6943359 0.9501953
vt 0.7084961 1
vt 0.6665039 0.9501953
vt 0.6806641 1
vt 0.6386719 0.9501953
vt 0.652832 1
vt 0.5834961 0.9501953
vt 0.597168 1
vt 0.5556641 0.9501953
vt 0.5693359 1
vt 0.527832 0.9501953
vt 0.5415039 1
vt 0.472168 0.9501953
vt 0.486084 1
vt 0.458252 1
vt 0.416748 0.9501953
vt 0.4306641 1
vt 0.361084 0.9501953
vt 0.375 1
vt 0.333252 0.9501953
vt 0.347168 1
vt 0.3056641 0.9501953
vt 0.3193359 1
vt 0.25 0.9501953
vt 0.263916 1
vt 0.222168 0.9501953
vt 0.236084 1
vt 0.194458 0.9501953
vt 0.208374 1
vt 0.138916 0.9501953
vt 0.152832 1
vt 0.111084 0.9501953
vt 0.125 1
vt 0.08331299 0.9501953
vt 0.097229 1
vt 0.027771 0.9501953
vt 0.04165649 1
vt 0 0.9501953
vt 0.0138855 1
vn 0.1877441 -0.956543 -0.2236328
vn 0 -1 0
vn 0.2875977 -0.956543 -0.0506897
vn 0.512207 -0.8540039 -0.09033203
vn 0.3342285 -0.8540039 -0.3984375
vn 0.7294922 -0.671875 -0.1286621
vn 0 -0.956543 -0.2919922
vn 0 -1 0
vn 0.4760742 -0.671875 -0.5673828
vn 0.8896484 -0.4284668 -0.1568604
vn 0 -0.8540039 -0.5200195
vn 0.5810547 -0.4284668 -0.6923828
vn 0.9741211 -0.1470947 -0.1717529
vn -0.1877441 -0.956543 -0.2236328
vn 0 -1 0
vn 0 -0.671875 -0.7407227
vn 0.6357422 -0.1470947 -0.7578125
vn 0.9741211 0.1470947 -0.1717529
vn -0.3342285 -0.8540039 -0.3984375
vn 0 -0.4284668 -0.9038086
vn 0.6357422 0.1470947 -0.7578125
vn 0.8896484 0.4284668 -0.1568604
vn -0.2875977 -0.956543 -0.0506897
vn 0 -1 0
vn -0.4760742 -0.671875 -0.5673828
vn 0 -0.1470947 -0.9892578
vn 0.5810547 0.4284668 -0.6923828
vn 0.7294922 0.671875 -0.1286621
vn -0.512207 -0.8540039 -0.09033203
vn -0.5810547 -0.4284668 -0.6923828
vn 0 0.1470947 -0.9892578
vn 0.4760742 0.671875 -0.5673828
vn 0.5131836 0.8535156 -0.09051514
vn 0.3349609 0.8535156 -0.3991699
vn 0 0.4284668 -0.9038086
vn -0.6357422 -0.1470947 -0.7578125
vn -0.7294922 -0.671875 -0.1286621
vn 0 0.671875 -0.7407227
vn -0.6357422 0.1470947 -0.7578125
vn -0.8896484 -0.4284668 -0.1568604
vn -0.5810547 0.4284668 -0.6923828
vn -0.9741211 -0.1470947 -0.1717529
vn -0.9741211 0.1470947 -0.1717529
vn -0.4504395 -0.8540039 0.2600098
vn -0.6416016 -0.671875 0.3703613
vn -0.7827148 -0.4284668 0.4519043
vn -0.8564453 -0.1470947 0.4946289
vn -0.2529297 -0.956543 0.1459961
vn 0 -1 0
vn -0.09985352 -0.956543 0.2744141
vn 0 -1 0
vn -0.1778564 -0.8540039 0.4887695
vn -0.253418 -0.671875 0.6962891
vn 0.09985352 -0.956543 0.2744141
vn 0 -1 0
vn 0.1778564 -0.8540039 0.4887695
vn -0.309082 -0.4284668 0.8491211
vn 0.2529297 -0.956543 0.1459961
vn 0 -1 0
vn 0.253418 -0.671875 0.6962891
vn 0.4504395 -0.8540039 0.2600098
vn 0.2875977 -0.956543 -0.0506897
vn 0 -1 0
vn 0.512207 -0.8540039 -0.09033203
vn 0.6416016 -0.671875 0.3703613
vn 0.7294922 -0.671875 -0.1286621
vn 0.309082 -0.4284668 0.8491211
vn 0.7827148 -0.4284668 0.4519043
vn 0.8896484 -0.4284668 -0.1568604
vn -0.3383789 -0.1470947 0.9296875
vn 0.3383789 -0.1470947 0.9296875
vn 0.8564453 -0.1470947 0.4946289
vn 0.9741211 -0.1470947 -0.1717529
vn -0.8564453 0.1470947 0.4946289
vn -0.3383789 0.1470947 0.9296875
vn 0.3383789 0.1470947 0.9296875
vn 0.8564453 0.1470947 0.4946289
vn 0.9741211 0.1470947 -0.1717529
vn -0.8896484 0.4284668 -0.1568604
vn -0.7827148 0.4284668 0.4519043
vn -0.309082 0.4284668 0.8491211
vn 0.309082 0.4284668 0.8491211
vn 0.7827148 0.4284668 0.4519043
vn 0.8896484 0.4284668 -0.1568604
vn -0.4760742 0.671875 -0.5673828
vn -0.7294922 0.671875 -0.1286621
vn -0.3349609 0.8535156 -0.3991699
vn -0.5131836 0.8535156 -0.09051514
vn 0 0.8535156 -0.5209961
vn -0.6416016 0.671875 0.3703613
vn 0.6416016 0.671875 0.3703613
vn 0.7294922 0.671875 -0.1286621
vn -0.253418 0.671875 0.6962891
vn 0.253418 0.671875 0.6962891
vn 0.451416 0.8535156 0.260498
vn 0.5131836 0.8535156 -0.09051514
vn 0.300293 0.9521484 -0.052948
vn 0.1782227 0.8535156 0.4897461
vn -0.451416 0.8535156 0.260498
vn -0.1782227 0.8535156 0.4897461
vn -0.300293 0.9521484 -0.052948
vn 0.3132324 0.9482422 0.05487061
vn 0 1 0
vn 0.3129883 0.9482422 0.05554199
vn 0 1 0
vn 0.2641602 0.9521484 0.1524658
vn 0 1 0
vn 0.2045898 0.9482422 0.2432861
vn 0 1 0
vn 0.2041016 0.9482422 0.2437744
vn 0 1 0
vn 0.1043091 0.9521484 0.2866211
vn 0 1 0
vn 0.0003483295 0.9482422 0.3178711
vn 0 1 0
vn -0.0003483295 0.9482422 0.3178711
vn 0 1 0
vn -0.1043091 0.9521484 0.2866211
vn 0 1 0
vn -0.2041016 0.9482422 0.2437744
vn 0 1 0
vn -0.2045898 0.9482422 0.2432861
vn 0 1 0
vn -0.2641602 0.9521484 0.1524658
vn 0 1 0
vn -0.3129883 0.9482422 0.05554199
vn 0 1 0
vn -0.3132324 0.9482422 0.05487061
vn 0 1 0
vn 0 1 0
vn -0.2753906 0.9482422 -0.1586914
vn 0 1 0
vn -0.2751465 0.9482422 -0.1593018
vn 0 1 0
vn -0.1960449 0.9521484 -0.2335205
vn 0 1 0
vn -0.1090698 0.9482422 -0.298584
vn 0 1 0
vn -0.1083984 0.9482422 -0.2988281
vn 0 1 0
vn 0 0.9521484 -0.3049316
vn 0 1 0
vn 0.1083984 0.9482422 -0.2988281
vn 0 1 0
vn 0.1090698 0.9482422 -0.298584
vn 0 1 0
vn 0.1960449 0.9521484 -0.2335205
vn 0 1 0
vn 0.2751465 0.9482422 -0.1593018
vn 0 1 0
vn 0.2753906 0.9482422 -0.1586914
vn 0 1 0
vn 0.300293 0.9521484 -0.052948
vn 0 1 0
g z031v001_neptune_l_0
f 3/3/3 2/2/2 1/1/1
f 3/3/3 1/1/1 4/4/4
f 1/1/1 5/5/5 4/4/4
f 4/4/4 5/5/5 6/6/6
f 1/1/1 7/7/7 5/5/5
f 1/1/1 8/8/8 7/7/7
f 5/5/5 9/9/9 6/6/6
f 6/6/6 9/9/9 10/10/10
f 7/7/7 11/11/11 5/5/5
f 5/5/5 11/11/11 9/9/9
f 9/9/9 12/12/12 10/10/10
f 10/10/10 12/12/12 13/13/13
f 7/7/7 14/14/14 11/11/11
f 7/7/7 15/15/15 14/14/14
f 11/11/11 16/16/16 9/9/9
f 9/9/9 16/16/16 12/12/12
f 12/12/12 17/17/17 13/13/13
f 13/13/13 17/17/17 18/18/18
f 14/14/14 19/19/19 11/11/11
f 11/11/11 19/19/19 16/16/16
f 16/16/16 20/20/20 12/12/12
f 12/12/12 20/20/20 17/17/17
f 17/17/17 21/21/21 18/18/18
f 18/18/18 21/21/21 22/22/22
f 14/14/14 23/23/23 19/19/19
f 14/14/14 24/24/24 23/23/23
f 19/19/19 25/25/25 16/16/16
f 16/16/16 25/25/25 20/20/20
f 20/20/20 26/26/26 17/17/17
f 17/17/17 26/26/26 21/21/21
f 21/21/21 27/27/27 22/22/22
f 22/22/22 27/27/27 28/28/28
f 23/23/23 29/29/29 19/19/19
f 19/19/19 29/29/29 25/25/25
f 25/25/25 30/30/30 20/20/20
f 20/20/20 30/30/30 26/26/26
f 26/26/26 31/31/31 21/21/21
f 21/21/21 31/31/31 27/27/27
f 27/27/27 32/32/32 28/28/28
f 28/28/28 32/32/32 33/33/33
f 32/32/32 34/34/34 33/33/33
f 27/27/27 35/35/35 32/32/32
f 31/31/31 35/35/35 27/27/27
f 26/26/26 36/36/36 31/31/31
f 30/30/30 36/36/36 26/26/26
f 25/25/25 37/37/37 30/30/30
f 29/29/29 37/37/37 25/25/25
f 32/32/32 38/38/38 34/34/34
f 35/35/35 38/38/38 32/32/32
f 31/31/31 39/39/39 35/35/35
f 36/36/36 39/39/39 31/31/31
f 30/30/30 40/40/40 36/36/36
f 37/37/37 40/40/40 30/30/30
f 35/35/35 41/41/41 38/38/38
f 39/39/39 41/41/41 35/35/35
f 36/36/36 42/42/42 39/39/39
f 40/40/40 42/42/42 36/36/36
f 39/39/39 43/43/43 41/41/41
f 42/42/42 43/43/43 39/39/39
f 29/29/29 44/44/44 37/37/37
f 37/37/37 45/45/45 40/40/40
f 44/44/44 45/45/45 37/37/37
f 40/40/40 46/46/46 42/42/42
f 45/45/45 46/46/46 40/40/40
f 42/42/42 47/47/47 43/43/43
f 46/46/46 47/47/47 42/42/42
f 48/48/48 44/44/44 29/29/29
f 23/23/23 48/48/48 29/29/29
f 23/23/23 49/49/49 48/48/48
f 48/48/48 50/50/50 44/44/44
f 48/48/48 51/51/51 50/50/50
f 44/44/44 52/52/52 45/45/45
f 50/50/50 52/52/52 44/44/44
f 45/45/45 53/53/53 46/46/46
f 52/52/52 53/53/53 45/45/45
f 50/50/50 54/54/54 52/52/52
f 50/50/50 55/55/55 54/54/54
f 54/54/54 56/56/56 52/52/52
f 52/52/52 56/56/56 53/53/53
f 53/53/53 57/57/57 46/46/46
f 46/46/46 57/57/57 47/47/47
f 54/54/54 58/58/58 56/56/56
f 54/54/54 59/59/59 58/58/58
f 56/56/56 60/60/60 53/53/53
f 53/53/53 60/60/60 57/57/57
f 58/58/58 61/61/61 56/56/56
f 56/56/56 61/61/61 60/60/60
f 58/58/58 62/62/62 61/61/61
f 58/58/58 63/63/63 62/62/62
f 62/62/62 64/64/64 61/61/61
f 61/61/61 64/64/64 65/65/65
f 61/61/61 65/65/65 60/60/60
f 64/64/64 66/66/66 65/65/65
f 60/60/60 67/67/67 57/57/57
f 60/60/60 65/65/65 67/67/67
f 65/65/65 66/66/66 68/68/68
f 65/65/65 68/68/68 67/67/67
f 66/66/66 69/69/69 68/68/68
f 57/57/57 67/67/67 70/70/70
f 57/57/57 70/70/70 47/47/47
f 67/67/67 68/68/68 71/71/71
f 67/67/67 71/71/71 70/70/70
f 68/68/68 69/69/69 72/72/72
f 68/68/68 72/72/72 71/71/71
f 69/69/69 73/73/73 72/72/72
f 47/47/47 70/70/70 74/74/74
f 47/47/47 74/74/74 43/43/43
f 70/70/70 71/71/71 75/75/75
f 70/70/70 75/75/75 74/74/74
f 71/71/71 72/72/72 76/76/76
f 71/71/71 76/76/76 75/75/75
f 72/72/72 73/73/73 77/77/77
f 72/72/72 77/77/77 76/76/76
f 73/73/73 78/78/78 77/77/77
f 43/43/43 74/74/74 79/79/79
f 43/43/43 79/79/79 41/41/41
f 74/74/74 75/75/75 80/80/80
f 74/74/74 80/80/80 79/79/79
f 75/75/75 76/76/76 81/81/81
f 75/75/75 81/81/81 80/80/80
f 76/76/76 77/77/77 82/82/82
f 76/76/76 82/82/82 81/81/81
f 77/77/77 78/78/78 83/83/83
f 77/77/77 83/83/83 82/82/82
f 78/78/78 84/84/84 83/83/83
f 41/41/41 79/79/79 85/85/85
f 41/41/41 85/85/85 38/38/38
f 79/79/79 80/80/80 86/86/86
f 79/79/79 86/86/86 85/85/85
f 85/85/85 86/86/86 87/87/87
f 86/86/86 88/88/88 87/87/87
f 38/38/38 85/85/85 89/89/89
f 85/85/85 87/87/87 89/89/89
f 38/38/38 89/89/89 34/34/34
f 80/80/80 90/90/90 86/86/86
f 86/86/86 90/90/90 88/88/88
f 80/80/80 81/81/81 90/90/90
f 83/83/83 84/84/84 91/91/91
f 84/84/84 92/92/92 91/91/91
f 81/81/81 93/93/93 90/90/90
f 81/81/81 82/82/82 93/93/93
f 82/82/82 83/83/83 94/94/94
f 83/83/83 91/91/91 94/94/94
f 82/82/82 94/94/94 93/93/93
f 91/91/91 92/92/92 95/95/95
f 92/92/92 96/96/96 95/95/95
f 95/95/95 96/96/96 97/97/97
f 91/91/91 95/95/95 98/98/98
f 94/94/94 91/91/91 98/98/98
f 90/90/90 93/93/93 99/99/99
f 90/90/90 99/99/99 88/88/88
f 93/93/93 100/100/100 99/99/99
f 93/93/93 94/94/94 100/100/100
f 94/94/94 98/98/98 100/100/100
f 101/101/101 88/88/88 99/99/99
f 97/97/97 102/102/102 95/95/95
f 97/97/97 103/103/103 102/102/102
f 102/102/102 104/104/104 95/95/95
f 104/104/104 102/102/102 105/105/105
f 104/104/104 106/106/106 95/95/95
f 104/104/104 107/107/107 106/106/106
f 95/95/95 106/106/106 108/108/108
f 106/106/106 109/109/109 108/108/108
f 108/108/108 110/110/110 95/95/95
f 110/110/110 108/108/108 111/111/111
f 110/110/110 112/112/112 95/95/95
f 110/110/110 113/113/113 112/112/112
f 112/112/112 98/98/98 95/95/95
f 98/98/98 112/112/112 114/114/114
f 112/112/112 115/115/115 114/114/114
f 114/114/114 100/100/100 98/98/98
f 100/100/100 114/114/114 116/116/116
f 116/116/116 114/114/114 117/117/117
f 116/116/116 118/118/118 100/100/100
f 116/116/116 119/119/119 118/118/118
f 99/99/99 100/100/100 118/118/118
f 99/99/99 118/118/118 120/120/120
f 118/118/118 121/121/121 120/120/120
f 99/99/99 120/120/120 122/122/122
f 122/122/122 120/120/120 123/123/123
f 122/122/122 124/124/124 99/99/99
f 122/122/122 125/125/125 124/124/124
f 99/99/99 124/124/124 126/126/126
f 124/124/124 127/127/127 126/126/126
f 99/99/99 126/126/126 128/128/128
f 128/128/128 126/126/126 129/129/129
f 99/99/99 128/128/128 101/101/101
f 128/128/128 130/130/130 101/101/101
f 101/101/101 132/132/132 131/131/131
f 88/88/88 101/101/101 131/131/131
f 88/88/88 131/131/131 133/133/133
f 133/133/133 131/131/131 134/134/134
f 88/88/88 133/133/133 135/135/135
f 133/133/133 136/136/136 135/135/135
f 135/135/135 87/87/87 88/88/88
f 87/87/87 135/135/135 137/137/137
f 135/135/135 138/138/138 137/137/137
f 87/87/87 137/137/137 139/139/139
f 139/139/139 137/137/137 140/140/140
f 87/87/87 139/139/139 141/141/141
f 139/139/139 142/142/142 141/141/141
f 141/141/141 89/89/89 87/87/87
f 34/34/34 89/89/89 141/141/141
f 141/141/141 143/143/143 34/34/34
f 141/141/141 144/144/144 143/143/143
f 143/143/143 145/145/145 34/34/34
f 145/145/145 143/143/143 146/146/146
f 145/145/145 147/147/147 34/34/34
f 145/145/145 148/148/148 147/147/147
f 33/33/33 34/34/34 147/147/147
f 147/147/147 149/149/149 33/33/33
f 147/147/147 150/150/150 149/149/149
f 149/149/149 151/151/151 33/33/33
f 151/151/151 149/149/149 152/152/152
f 151/151/151 153/153/153 33/33/33
f 151/151/151 154/154/154 153/153/153
