g z033v001_moon_l
v 0.04617476 -0.4535495 -0.05502887
v 0 -0.459203 0
v 0.07074381 -0.4535495 -0.01247399
v 0.2053065 -0.4091529 -0.03620091
v 0.1340044 -0.4091529 -0.1597
v 0.3197723 -0.3247055 -0.05638424
v 4.28171E-08 -0.4535495 -0.07183515
v 0 -0.459203 0
v 0.2087167 -0.3247055 -0.2487386
v 0.4029367 -0.2084738 -0.07104829
v 1.242601E-07 -0.4091529 -0.2084737
v 0.2629984 -0.2084738 -0.3134289
v 0.4466588 -0.07183513 -0.07875764
v -0.04617471 -0.4535495 -0.05502893
v 0 -0.459203 0
v 1.935396E-07 -0.3247055 -0.3247054
v 0.291536 -0.07183513 -0.3474386
v 0.4466588 0.07183513 -0.07875764
v -0.1340042 -0.4091529 -0.1597002
v 2.438741E-07 -0.2084738 -0.4091526
v 0.291536 0.07183513 -0.3474386
v 0.4029367 0.2084738 -0.07104829
v -0.07074381 -0.4535495 -0.01247407
v 0 -0.459203 0
v -0.2087165 -0.3247055 -0.2487389
v 2.703365E-07 -0.07183513 -0.4535492
v 0.2629984 0.2084738 -0.3134289
v 0.3197723 0.3247055 -0.05638424
v -0.2053065 -0.4091529 -0.03620115
v -0.2629981 -0.2084738 -0.3134292
v 2.703365E-07 0.07183513 -0.4535492
v 0.2087167 0.3247055 -0.2487386
v 0.2053065 0.4091529 -0.03620091
v -0.06221109 -0.4535495 0.03591757
v 0 -0.459203 0
v -0.3197723 -0.3247055 -0.05638461
v -0.2915357 -0.07183513 -0.347439
v 2.438741E-07 0.2084738 -0.4091526
v 0.1340044 0.4091529 -0.1597
v 0.07074381 0.4535495 -0.01247399
v -0.1805436 -0.4091529 0.1042368
v -0.4029367 -0.2084738 -0.07104875
v -0.2915357 0.07183513 -0.347439
v 1.935396E-07 0.3247055 -0.3247054
v 0.04617476 0.4535495 -0.05502887
v 0 0.459203 0
v 1.242601E-07 0.4091529 -0.2084737
v -0.2629981 0.2084738 -0.3134292
v -0.4466588 -0.07183513 -0.07875815
v -0.2812032 -0.3247055 0.1623527
v 4.28171E-08 0.4535495 -0.07183515
v 0 0.459203 0
v -0.2087165 0.3247055 -0.2487389
v -0.4466588 0.07183513 -0.07875815
v -0.3543367 -0.2084738 0.2045763
v -0.1340042 0.4091529 -0.1597002
v -0.4029367 0.2084738 -0.07104875
v -0.3927853 -0.07183513 0.2267746
v -0.04617471 0.4535495 -0.05502893
v 0 0.459203 0
v -0.3197723 0.3247055 -0.05638461
v -0.3927853 0.07183513 0.2267746
v -0.2053065 0.4091529 -0.03620115
v -0.3543367 0.2084738 0.2045763
v -0.07074381 0.4535495 -0.01247407
v 0 0.459203 0
v -0.2812032 0.3247055 0.1623527
v -0.1805436 0.4091529 0.1042368
v -0.06221109 0.4535495 0.03591757
v 0 0.459203 0
v -0.1551231 -0.07183513 0.4261969
v -0.1551231 0.07183513 0.4261969
v -0.1399386 0.2084738 0.3844778
v -0.1110559 0.3247055 0.3051233
v -0.07130226 0.4091529 0.1959012
v -0.1399386 -0.2084738 0.3844778
v -0.02456908 0.4535495 0.06750298
v 0 0.459203 0
v -0.1110559 -0.3247055 0.3051233
v -0.07130226 -0.4091529 0.1959012
v -0.02456908 -0.4535495 0.06750298
v 0 -0.459203 0
v 0.02456906 -0.4535495 0.06750298
v 0 -0.459203 0
v 0.07130221 -0.4091529 0.1959013
v 0.1110558 -0.3247055 0.3051234
v 0.06221109 -0.4535495 0.03591759
v 0 -0.459203 0
v 0.1805436 -0.4091529 0.1042369
v 0.1399385 -0.2084738 0.3844779
v 0.07074381 -0.4535495 -0.01247399
v 0 -0.459203 0
v 0.2053065 -0.4091529 -0.03620091
v 0.2812032 -0.3247055 0.1623528
v 0.3197723 -0.3247055 -0.05638424
v 0.3543367 -0.2084738 0.2045764
v 0.4029367 -0.2084738 -0.07104829
v 0.155123 -0.07183513 0.426197
v 0.3927853 -0.07183513 0.2267747
v 0.4466588 -0.07183513 -0.07875764
v 0.155123 0.07183513 0.426197
v 0.3927853 0.07183513 0.2267747
v 0.4466588 0.07183513 -0.07875764
v 0.1399385 0.2084738 0.3844779
v 0.3543367 0.2084738 0.2045764
v 0.4029367 0.2084738 -0.07104829
v 0.1110558 0.3247055 0.3051234
v 0.2812032 0.3247055 0.1623528
v 0.3197723 0.3247055 -0.05638424
v 0.07130221 0.4091529 0.1959013
v 0.1805436 0.4091529 0.1042369
v 0.2053065 0.4091529 -0.03620091
v 0.02456906 0.4535495 0.06750298
v 0 0.459203 0
v 0.06221109 0.4535495 0.03591759
v 0 0.459203 0
v 0.07074381 0.4535495 -0.01247399
v 0 0.459203 0
vt 0.111084 0.04998779
vt 0.097229 0
vt 0 0.04998779
vt 0 0.1500244
vt 0.111084 0.1500244
vt 0 0.25
vt 0.222168 0.04998779
vt 0.208374 0
vt 0.111084 0.25
vt 0 0.3500977
vt 0.222168 0.1500244
vt 0.111084 0.3500977
vt 0 0.4499512
vt 0.333252 0.04998779
vt 0.3193359 0
vt 0.222168 0.25
vt 0.111084 0.4499512
vt 0 0.5498047
vt 0.333252 0.1500244
vt 0.222168 0.3500977
vt 0.111084 0.5498047
vt 0 0.6499023
vt 0.4443359 0.04998779
vt 0.4306641 0
vt 0.333252 0.25
vt 0.222168 0.4499512
vt 0.111084 0.6499023
vt 0 0.75
vt 0.4443359 0.1500244
vt 0.333252 0.3500977
vt 0.222168 0.5498047
vt 0.111084 0.75
vt 0 0.8500977
vt 0.5556641 0.04998779
vt 0.5415039 0
vt 0.4443359 0.25
vt 0.333252 0.4499512
vt 0.222168 0.6499023
vt 0.111084 0.8500977
vt 0 0.9501953
vt 0.5556641 0.1500244
vt 0.4443359 0.3500977
vt 0.333252 0.5498047
vt 0.222168 0.75
vt 0.111084 0.9501953
vt 0.0138855 1
vt 0.222168 0.8500977
vt 0.333252 0.6499023
vt 0.4443359 0.4499512
vt 0.5556641 0.25
vt 0.222168 0.9501953
vt 0.125 1
vt 0.333252 0.75
vt 0.4443359 0.5498047
vt 0.5556641 0.3500977
vt 0.333252 0.8500977
vt 0.4443359 0.6499023
vt 0.5556641 0.4499512
vt 0.333252 0.9501953
vt 0.236084 1
vt 0.4443359 0.75
vt 0.5556641 0.5498047
vt 0.4443359 0.8500977
vt 0.5556641 0.6499023
vt 0.4443359 0.9501953
vt 0.347168 1
vt 0.5556641 0.75
vt 0.5556641 0.8500977
vt 0.5556641 0.9501953
vt 0.458252 1
vt 0.6665039 0.4499512
vt 0.6665039 0.5498047
vt 0.6665039 0.6499023
vt 0.6665039 0.75
vt 0.6665039 0.8500977
vt 0.6665039 0.3500977
vt 0.6665039 0.9501953
vt 0.5693359 1
vt 0.6665039 0.25
vt 0.6665039 0.1500244
vt 0.6665039 0.04998779
vt 0.652832 0
vt 0.777832 0.04998779
vt 0.7636719 0
vt 0.777832 0.1500244
vt 0.777832 0.25
vt 0.8886719 0.04998779
vt 0.875 0
vt 0.8886719 0.1500244
vt 0.777832 0.3500977
vt 1 0.04998779
vt 0.9863281 0
vt 1 0.1500244
vt 0.8886719 0.25
vt 1 0.25
vt 0.8886719 0.3500977
vt 1 0.3500977
vt 0.777832 0.4499512
vt 0.8886719 0.4499512
vt 1 0.4499512
vt 0.777832 0.5498047
vt 0.8886719 0.5498047
vt 1 0.5498047
vt 0.777832 0.6499023
vt 0.8886719 0.6499023
vt 1 0.6499023
vt 0.777832 0.75
vt 0.8886719 0.75
vt 1 0.75
vt 0.777832 0.8500977
vt 0.8886719 0.8500977
vt 1 0.8500977
vt 0.777832 0.9501953
vt 0.6806641 1
vt 0.8886719 0.9501953
vt 0.7915039 1
vt 1 0.9501953
vt 0.902832 1
vn 0.1877441 -0.956543 -0.2236328
vn 0 -1 0
vn 0.2875977 -0.956543 -0.0506897
vn 0.512207 -0.8540039 -0.09033203
vn 0.3342285 -0.8540039 -0.3984375
vn 0.7294922 -0.671875 -0.1286621
vn 0 -0.956543 -0.2919922
vn 0 -1 0
vn 0.4760742 -0.671875 -0.5673828
vn 0.8896484 -0.4284668 -0.1568604
vn 0 -0.8540039 -0.5200195
vn 0.5810547 -0.4284668 -0.6923828
vn 0.9741211 -0.1470947 -0.1717529
vn -0.1877441 -0.956543 -0.2236328
vn 0 -1 0
vn 0 -0.671875 -0.7407227
vn 0.6357422 -0.1470947 -0.7578125
vn 0.9741211 0.1470947 -0.1717529
vn -0.3342285 -0.8540039 -0.3984375
vn 0 -0.4284668 -0.9038086
vn 0.6357422 0.1470947 -0.7578125
vn 0.8896484 0.4284668 -0.1568604
vn -0.2875977 -0.956543 -0.0506897
vn 0 -1 0
vn -0.4760742 -0.671875 -0.5673828
vn 0 -0.1470947 -0.9892578
vn 0.5810547 0.4284668 -0.6923828
vn 0.7294922 0.671875 -0.1286621
vn -0.512207 -0.8540039 -0.09033203
vn -0.5810547 -0.4284668 -0.6923828
vn 0 0.1470947 -0.9892578
vn 0.4760742 0.671875 -0.5673828
vn 0.512207 0.8540039 -0.09033203
vn -0.2529297 -0.956543 0.1459961
vn 0 -1 0
vn -0.7294922 -0.671875 -0.1286621
vn -0.6357422 -0.1470947 -0.7578125
vn 0 0.4284668 -0.9038086
vn 0.3342285 0.8540039 -0.3984375
vn 0.2875977 0.956543 -0.0506897
vn -0.4504395 -0.8540039 0.2600098
vn -0.8896484 -0.4284668 -0.1568604
vn -0.6357422 0.1470947 -0.7578125
vn 0 0.671875 -0.7407227
vn 0.1877441 0.956543 -0.2236328
vn 0 1 0
vn 0 0.8540039 -0.5200195
vn -0.5810547 0.4284668 -0.6923828
vn -0.9741211 -0.1470947 -0.1717529
vn -0.6416016 -0.671875 0.3703613
vn 0 0.956543 -0.2919922
vn 0 1 0
vn -0.4760742 0.671875 -0.5673828
vn -0.9741211 0.1470947 -0.1717529
vn -0.7827148 -0.4284668 0.4519043
vn -0.3342285 0.8540039 -0.3984375
vn -0.8896484 0.4284668 -0.1568604
vn -0.8564453 -0.1470947 0.4946289
vn -0.1877441 0.956543 -0.2236328
vn 0 1 0
vn -0.7294922 0.671875 -0.1286621
vn -0.8564453 0.1470947 0.4946289
vn -0.512207 0.8540039 -0.09033203
vn -0.7827148 0.4284668 0.4519043
vn -0.2875977 0.956543 -0.0506897
vn 0 1 0
vn -0.6416016 0.671875 0.3703613
vn -0.4504395 0.8540039 0.2600098
vn -0.2529297 0.956543 0.1459961
vn 0 1 0
vn -0.3383789 -0.1470947 0.9296875
vn -0.3383789 0.1470947 0.9296875
vn -0.309082 0.4284668 0.8491211
vn -0.253418 0.671875 0.6962891
vn -0.1778564 0.8540039 0.4887695
vn -0.309082 -0.4284668 0.8491211
vn -0.09985352 0.956543 0.2744141
vn 0 1 0
vn -0.253418 -0.671875 0.6962891
vn -0.1778564 -0.8540039 0.4887695
vn -0.09985352 -0.956543 0.2744141
vn 0 -1 0
vn 0.09985352 -0.956543 0.2744141
vn 0 -1 0
vn 0.1778564 -0.8540039 0.4887695
vn 0.253418 -0.671875 0.6962891
vn 0.2529297 -0.956543 0.1459961
vn 0 -1 0
vn 0.4504395 -0.8540039 0.2600098
vn 0.309082 -0.4284668 0.8491211
vn 0.2875977 -0.956543 -0.0506897
vn 0 -1 0
vn 0.512207 -0.8540039 -0.09033203
vn 0.6416016 -0.671875 0.3703613
vn 0.7294922 -0.671875 -0.1286621
vn 0.7827148 -0.4284668 0.4519043
vn 0.8896484 -0.4284668 -0.1568604
vn 0.3383789 -0.1470947 0.9296875
vn 0.8564453 -0.1470947 0.4946289
vn 0.9741211 -0.1470947 -0.1717529
vn 0.3383789 0.1470947 0.9296875
vn 0.8564453 0.1470947 0.4946289
vn 0.9741211 0.1470947 -0.1717529
vn 0.309082 0.4284668 0.8491211
vn 0.7827148 0.4284668 0.4519043
vn 0.8896484 0.4284668 -0.1568604
vn 0.253418 0.671875 0.6962891
vn 0.6416016 0.671875 0.3703613
vn 0.7294922 0.671875 -0.1286621
vn 0.1778564 0.8540039 0.4887695
vn 0.4504395 0.8540039 0.2600098
vn 0.512207 0.8540039 -0.09033203
vn 0.09985352 0.956543 0.2744141
vn 0 1 0
vn 0.2529297 0.956543 0.1459961
vn 0 1 0
vn 0.2875977 0.956543 -0.0506897
vn 0 1 0
g z033v001_moon_l_0
f 3/3/3 2/2/2 1/1/1
f 3/3/3 1/1/1 4/4/4
f 1/1/1 5/5/5 4/4/4
f 4/4/4 5/5/5 6/6/6
f 1/1/1 7/7/7 5/5/5
f 1/1/1 8/8/8 7/7/7
f 5/5/5 9/9/9 6/6/6
f 6/6/6 9/9/9 10/10/10
f 7/7/7 11/11/11 5/5/5
f 5/5/5 11/11/11 9/9/9
f 9/9/9 12/12/12 10/10/10
f 10/10/10 12/12/12 13/13/13
f 7/7/7 14/14/14 11/11/11
f 7/7/7 15/15/15 14/14/14
f 11/11/11 16/16/16 9/9/9
f 9/9/9 16/16/16 12/12/12
f 12/12/12 17/17/17 13/13/13
f 13/13/13 17/17/17 18/18/18
f 14/14/14 19/19/19 11/11/11
f 11/11/11 19/19/19 16/16/16
f 16/16/16 20/20/20 12/12/12
f 12/12/12 20/20/20 17/17/17
f 17/17/17 21/21/21 18/18/18
f 18/18/18 21/21/21 22/22/22
f 14/14/14 23/23/23 19/19/19
f 14/14/14 24/24/24 23/23/23
f 19/19/19 25/25/25 16/16/16
f 16/16/16 25/25/25 20/20/20
f 20/20/20 26/26/26 17/17/17
f 17/17/17 26/26/26 21/21/21
f 21/21/21 27/27/27 22/22/22
f 22/22/22 27/27/27 28/28/28
f 23/23/23 29/29/29 19/19/19
f 19/19/19 29/29/29 25/25/25
f 25/25/25 30/30/30 20/20/20
f 20/20/20 30/30/30 26/26/26
f 26/26/26 31/31/31 21/21/21
f 21/21/21 31/31/31 27/27/27
f 27/27/27 32/32/32 28/28/28
f 28/28/28 32/32/32 33/33/33
f 23/23/23 34/34/34 29/29/29
f 23/23/23 35/35/35 34/34/34
f 29/29/29 36/36/36 25/25/25
f 25/25/25 36/36/36 30/30/30
f 30/30/30 37/37/37 26/26/26
f 26/26/26 37/37/37 31/31/31
f 31/31/31 38/38/38 27/27/27
f 27/27/27 38/38/38 32/32/32
f 32/32/32 39/39/39 33/33/33
f 33/33/33 39/39/39 40/40/40
f 34/34/34 41/41/41 29/29/29
f 29/29/29 41/41/41 36/36/36
f 36/36/36 42/42/42 30/30/30
f 30/30/30 42/42/42 37/37/37
f 37/37/37 43/43/43 31/31/31
f 31/31/31 43/43/43 38/38/38
f 38/38/38 44/44/44 32/32/32
f 32/32/32 44/44/44 39/39/39
f 39/39/39 45/45/45 40/40/40
f 40/40/40 45/45/45 46/46/46
f 39/39/39 47/47/47 45/45/45
f 44/44/44 47/47/47 39/39/39
f 38/38/38 48/48/48 44/44/44
f 43/43/43 48/48/48 38/38/38
f 37/37/37 49/49/49 43/43/43
f 42/42/42 49/49/49 37/37/37
f 36/36/36 50/50/50 42/42/42
f 41/41/41 50/50/50 36/36/36
f 47/47/47 51/51/51 45/45/45
f 45/45/45 51/51/51 52/52/52
f 44/44/44 53/53/53 47/47/47
f 48/48/48 53/53/53 44/44/44
f 43/43/43 54/54/54 48/48/48
f 49/49/49 54/54/54 43/43/43
f 42/42/42 55/55/55 49/49/49
f 50/50/50 55/55/55 42/42/42
f 47/47/47 56/56/56 51/51/51
f 53/53/53 56/56/56 47/47/47
f 48/48/48 57/57/57 53/53/53
f 54/54/54 57/57/57 48/48/48
f 49/49/49 58/58/58 54/54/54
f 55/55/55 58/58/58 49/49/49
f 56/56/56 59/59/59 51/51/51
f 51/51/51 59/59/59 60/60/60
f 53/53/53 61/61/61 56/56/56
f 57/57/57 61/61/61 53/53/53
f 54/54/54 62/62/62 57/57/57
f 58/58/58 62/62/62 54/54/54
f 56/56/56 63/63/63 59/59/59
f 61/61/61 63/63/63 56/56/56
f 57/57/57 64/64/64 61/61/61
f 62/62/62 64/64/64 57/57/57
f 63/63/63 65/65/65 59/59/59
f 59/59/59 65/65/65 66/66/66
f 61/61/61 67/67/67 63/63/63
f 64/64/64 67/67/67 61/61/61
f 63/63/63 68/68/68 65/65/65
f 67/67/67 68/68/68 63/63/63
f 68/68/68 69/69/69 65/65/65
f 65/65/65 69/69/69 70/70/70
f 58/58/58 71/71/71 62/62/62
f 62/62/62 72/72/72 64/64/64
f 71/71/71 72/72/72 62/62/62
f 64/64/64 73/73/73 67/67/67
f 72/72/72 73/73/73 64/64/64
f 67/67/67 74/74/74 68/68/68
f 73/73/73 74/74/74 67/67/67
f 68/68/68 75/75/75 69/69/69
f 74/74/74 75/75/75 68/68/68
f 76/76/76 71/71/71 58/58/58
f 55/55/55 76/76/76 58/58/58
f 75/75/75 77/77/77 69/69/69
f 69/69/69 77/77/77 78/78/78
f 79/79/79 76/76/76 55/55/55
f 50/50/50 79/79/79 55/55/55
f 80/80/80 79/79/79 50/50/50
f 41/41/41 80/80/80 50/50/50
f 81/81/81 80/80/80 41/41/41
f 34/34/34 81/81/81 41/41/41
f 34/34/34 82/82/82 81/81/81
f 81/81/81 83/83/83 80/80/80
f 81/81/81 84/84/84 83/83/83
f 80/80/80 85/85/85 79/79/79
f 83/83/83 85/85/85 80/80/80
f 79/79/79 86/86/86 76/76/76
f 85/85/85 86/86/86 79/79/79
f 83/83/83 87/87/87 85/85/85
f 83/83/83 88/88/88 87/87/87
f 87/87/87 89/89/89 85/85/85
f 85/85/85 89/89/89 86/86/86
f 86/86/86 90/90/90 76/76/76
f 76/76/76 90/90/90 71/71/71
f 87/87/87 91/91/91 89/89/89
f 87/87/87 92/92/92 91/91/91
f 91/91/91 93/93/93 89/89/89
f 89/89/89 94/94/94 86/86/86
f 89/89/89 93/93/93 94/94/94
f 86/86/86 94/94/94 90/90/90
f 93/93/93 95/95/95 94/94/94
f 94/94/94 95/95/95 96/96/96
f 94/94/94 96/96/96 90/90/90
f 95/95/95 97/97/97 96/96/96
f 90/90/90 98/98/98 71/71/71
f 90/90/90 96/96/96 98/98/98
f 71/71/71 98/98/98 72/72/72
f 96/96/96 97/97/97 99/99/99
f 96/96/96 99/99/99 98/98/98
f 97/97/97 100/100/100 99/99/99
f 98/98/98 101/101/101 72/72/72
f 98/98/98 99/99/99 101/101/101
f 72/72/72 101/101/101 73/73/73
f 99/99/99 100/100/100 102/102/102
f 99/99/99 102/102/102 101/101/101
f 100/100/100 103/103/103 102/102/102
f 101/101/101 104/104/104 73/73/73
f 101/101/101 102/102/102 104/104/104
f 73/73/73 104/104/104 74/74/74
f 102/102/102 103/103/103 105/105/105
f 102/102/102 105/105/105 104/104/104
f 103/103/103 106/106/106 105/105/105
f 104/104/104 107/107/107 74/74/74
f 104/104/104 105/105/105 107/107/107
f 74/74/74 107/107/107 75/75/75
f 105/105/105 106/106/106 108/108/108
f 105/105/105 108/108/108 107/107/107
f 106/106/106 109/109/109 108/108/108
f 107/107/107 110/110/110 75/75/75
f 107/107/107 108/108/108 110/110/110
f 75/75/75 110/110/110 77/77/77
f 108/108/108 109/109/109 111/111/111
f 108/108/108 111/111/111 110/110/110
f 109/109/109 112/112/112 111/111/111
f 110/110/110 113/113/113 77/77/77
f 110/110/110 111/111/111 113/113/113
f 77/77/77 113/113/113 114/114/114
f 111/111/111 112/112/112 115/115/115
f 111/111/111 115/115/115 113/113/113
f 113/113/113 115/115/115 116/116/116
f 112/112/112 117/117/117 115/115/115
f 115/115/115 117/117/117 118/118/118
