g z034v001_h
v 0.2845171 -0.1178032 0
v 0 -0.1178032 0
v 0.2748224 -0.1178032 0.07363844
v 0.2748223 -0.1178032 -0.07363837
v 0.246399 -0.1178032 0.1422585
v 0.2463989 -0.1178032 -0.1422584
v 0.2011839 -0.1178032 0.201184
v 0.2011839 -0.1178032 -0.2011838
v 0.1422585 -0.1178032 0.246399
v 0.1422585 -0.1178032 -0.2463989
v 0.07363842 -0.1178032 0.2748224
v 0.07363843 -0.1178032 -0.2748222
v -8.47927E-09 -0.1178032 0.284517
v 3.391708E-08 -0.1178032 -0.2845169
v -0.07363843 -0.1178032 0.2748224
v -0.07363837 -0.1178032 -0.2748223
v -0.1422585 -0.1178032 0.246399
v -0.1422585 -0.1178032 -0.2463989
v -0.2011839 -0.1178032 0.2011839
v -0.2011839 -0.1178032 -0.2011839
v -0.246399 -0.1178032 0.1422585
v -0.2463989 -0.1178032 -0.1422585
v -0.2748223 -0.1178032 0.0736384
v -0.2748223 -0.1178032 -0.07363843
v -0.284517 -0.1178032 -1.695854E-08
v 0.2748224 -0.1178032 0.07363844
v 0.2289841 -0.03934902 9.930075E-09
v 0.2845171 -0.1178032 0
v 0.2211816 -0.03934902 0.05926545
v 8.275062E-09 -0.03934902 9.930075E-09
v 0.246399 -0.1178032 0.1422585
v 0.2211815 -0.03934902 -0.05926538
v 0.2748223 -0.1178032 -0.07363837
v 0.198306 -0.03934902 0.114492
v 0.2011839 -0.1178032 0.201184
v 0.1983059 -0.03934902 -0.1144919
v 0.2463989 -0.1178032 -0.1422584
v 0.1619162 -0.03934902 0.1619162
v 0.1422585 -0.1178032 0.246399
v 0.1619161 -0.03934902 -0.1619161
v 0.2011839 -0.1178032 -0.2011838
v 0.114492 -0.03934902 0.198306
v 0.114492 -0.03934902 -0.1983059
v 0.05926543 -0.03934902 0.2211816
v 0.07363842 -0.1178032 0.2748224
v 0.1422585 -0.1178032 -0.2463989
v -8.47927E-09 -0.1178032 0.284517
v 0.05926544 -0.03934902 -0.2211815
v 0.07363843 -0.1178032 -0.2748222
v 1.450805E-09 -0.03934902 0.228984
v -0.07363843 -0.1178032 0.2748224
v 3.557209E-08 -0.03934902 -0.2289839
v 3.391708E-08 -0.1178032 -0.2845169
v -0.05926543 -0.03934902 0.2211816
v -0.1422585 -0.1178032 0.246399
v -0.05926538 -0.03934902 -0.2211815
v -0.07363837 -0.1178032 -0.2748223
v -0.114492 -0.03934902 0.198306
v -0.114492 -0.03934902 -0.1983059
v -0.1619162 -0.03934902 0.1619162
v -0.2011839 -0.1178032 0.2011839
v -0.1422585 -0.1178032 -0.2463989
v -0.246399 -0.1178032 0.1422585
v -0.1619161 -0.03934902 -0.1619161
v -0.2011839 -0.1178032 -0.2011839
v -0.198306 -0.03934902 0.114492
v -0.2748223 -0.1178032 0.0736384
v -0.1983059 -0.03934902 -0.114492
v -0.2463989 -0.1178032 -0.1422585
v -0.2211816 -0.03934902 0.05926542
v -0.284517 -0.1178032 -1.695854E-08
v -0.2211815 -0.03934902 -0.05926543
v -0.2748223 -0.1178032 -0.07363843
v -0.228984 -0.03934902 -3.718437E-09
vt 0.9741211 0.1894531
vt 0.809082 0.1828613
vt 0.96875 0.2321777
vt 0.96875 0.1467285
vt 0.9521484 0.2719727
vt 0.9521484 0.1069946
vt 0.9257813 0.3061523
vt 0.9257813 0.07281494
vt 0.8916016 0.3325195
vt 0.8916016 0.04656982
vt 0.8520508 0.348877
vt 0.8520508 0.03009033
vt 0.809082 0.3544922
vt 0.809082 0.02445984
vt 0.7666016 0.348877
vt 0.7666016 0.03009033
vt 0.7265625 0.3325195
vt 0.7265625 0.04656982
vt 0.6923828 0.3061523
vt 0.6923828 0.07281494
vt 0.6665039 0.2719727
vt 0.6665039 0.1069946
vt 0.6499023 0.2321777
vt 0.6499023 0.1467285
vt 0.644043 0.1894531
vt 0.7792969 0.4992676
vt 0.6889648 0.5961914
vt 0.7919922 0.5961914
vt 0.6796875 0.5258789
vt 0.4169922 0.5961914
vt 0.7416992 0.4086914
vt 0.6796875 0.6669922
vt 0.7792969 0.6933594
vt 0.652832 0.4602051
vt 0.6821289 0.3310547
vt 0.652832 0.7324219
vt 0.7416992 0.7841797
vt 0.609375 0.4038086
vt 0.6044922 0.2714844
vt 0.609375 0.7890625
vt 0.6821289 0.8618164
vt 0.5532227 0.3605957
vt 0.5532227 0.8320313
vt 0.4873047 0.3334961
vt 0.5141602 0.2340088
vt 0.6044922 0.9213867
vt 0.4169922 0.2211914
vt 0.4873047 0.859375
vt 0.5141602 0.9589844
vt 0.4169922 0.3242188
vt 0.3198242 0.2340088
vt 0.4169922 0.8686523
vt 0.4169922 0.9716797
vt 0.3464355 0.3334961
vt 0.229248 0.2714844
vt 0.3464355 0.859375
vt 0.3198242 0.9589844
vt 0.2807617 0.3605957
vt 0.2807617 0.8320313
vt 0.2243652 0.4038086
vt 0.1516113 0.3310547
vt 0.229248 0.9213867
vt 0.09191895 0.4086914
vt 0.2243652 0.7890625
vt 0.1516113 0.8618164
vt 0.1810303 0.4602051
vt 0.05444336 0.4992676
vt 0.1810303 0.7324219
vt 0.09191895 0.7841797
vt 0.1538086 0.5258789
vt 0.04165649 0.5961914
vt 0.1538086 0.6669922
vt 0.05444336 0.6933594
vt 0.1445313 0.5961914
vn 0 -1 0
vn 0 -1 0
vn 0 -1 0
vn 0 -1 0
vn 0 -1 0
vn 0 -1 0
vn 0 -1 0
vn 0 -1 0
vn 0 -1 0
vn 0 -1 0
vn 0 -1 0
vn 0 -1 0
vn 0 -1 0
vn 0 -1 0
vn 0 -1 0
vn 0 -1 0
vn 0 -1 0
vn 0 -1 0
vn 0 -1 0
vn 0 -1 0
vn 0 -1 0
vn 0 -1 0
vn 0 -1 0
vn 0 -1 0
vn 0 -1 0
vn 0.7885742 0.5776367 0.2113037
vn 0.4763184 0.8793945 0
vn 0.8164063 0.5776367 0
vn 0.4599609 0.8793945 0.123291
vn 0 1 0
vn 0.7070313 0.5776367 0.4082031
vn 0.4599609 0.8793945 -0.123291
vn 0.7885742 0.5776367 -0.2113037
vn 0.4123535 0.8793945 0.2381592
vn 0.5771484 0.5776367 0.5771484
vn 0.4123535 0.8793945 -0.2381592
vn 0.7070313 0.5776367 -0.4082031
vn 0.3366699 0.8793945 0.3366699
vn 0.4082031 0.5776367 0.7070313
vn 0.3366699 0.8793945 -0.3366699
vn 0.5771484 0.5776367 -0.5771484
vn 0.2381592 0.8793945 0.4123535
vn 0.2381592 0.8793945 -0.4123535
vn 0.123291 0.8793945 0.4599609
vn 0.2113037 0.5776367 0.7885742
vn 0.4082031 0.5776367 -0.7070313
vn 0 0.5776367 0.8164063
vn 0.123291 0.8793945 -0.4599609
vn 0.2113037 0.5776367 -0.7885742
vn 0 0.8793945 0.4763184
vn -0.2113037 0.5776367 0.7885742
vn 0 0.8793945 -0.4763184
vn 0 0.5776367 -0.8164063
vn -0.123291 0.8793945 0.4599609
vn -0.4082031 0.5776367 0.7070313
vn -0.123291 0.8793945 -0.4599609
vn -0.2113037 0.5776367 -0.7885742
vn -0.2381592 0.8793945 0.4123535
vn -0.2381592 0.8793945 -0.4123535
vn -0.3366699 0.8793945 0.3366699
vn -0.5771484 0.5776367 0.5771484
vn -0.4082031 0.5776367 -0.7070313
vn -0.7070313 0.5776367 0.4082031
vn -0.3366699 0.8793945 -0.3366699
vn -0.5771484 0.5776367 -0.5771484
vn -0.4123535 0.8793945 0.2381592
vn -0.7885742 0.5776367 0.2113037
vn -0.4123535 0.8793945 -0.2381592
vn -0.7070313 0.5776367 -0.4082031
vn -0.4599609 0.8793945 0.123291
vn -0.8164063 0.5776367 0
vn -0.4599609 0.8793945 -0.123291
vn -0.7885742 0.5776367 -0.2113037
vn -0.4763184 0.8793945 0
g z034v001_h_0
f 3/3/3 2/2/2 1/1/1
f 1/1/1 2/2/2 4/4/4
f 5/5/5 2/2/2 3/3/3
f 4/4/4 2/2/2 6/6/6
f 7/7/7 2/2/2 5/5/5
f 6/6/6 2/2/2 8/8/8
f 9/9/9 2/2/2 7/7/7
f 8/8/8 2/2/2 10/10/10
f 11/11/11 2/2/2 9/9/9
f 10/10/10 2/2/2 12/12/12
f 13/13/13 2/2/2 11/11/11
f 12/12/12 2/2/2 14/14/14
f 15/15/15 2/2/2 13/13/13
f 14/14/14 2/2/2 16/16/16
f 17/17/17 2/2/2 15/15/15
f 16/16/16 2/2/2 18/18/18
f 19/19/19 2/2/2 17/17/17
f 18/18/18 2/2/2 20/20/20
f 21/21/21 2/2/2 19/19/19
f 20/20/20 2/2/2 22/22/22
f 23/23/23 2/2/2 21/21/21
f 22/22/22 2/2/2 24/24/24
f 25/25/25 2/2/2 23/23/23
f 24/24/24 2/2/2 25/25/25
f 28/28/28 27/27/27 26/26/26
f 27/27/27 29/29/29 26/26/26
f 27/27/27 30/30/30 29/29/29
f 26/26/26 29/29/29 31/31/31
f 32/32/32 27/27/27 28/28/28
f 32/32/32 30/30/30 27/27/27
f 33/33/33 32/32/32 28/28/28
f 29/29/29 34/34/34 31/31/31
f 29/29/29 30/30/30 34/34/34
f 31/31/31 34/34/34 35/35/35
f 36/36/36 32/32/32 33/33/33
f 36/36/36 30/30/30 32/32/32
f 37/37/37 36/36/36 33/33/33
f 34/34/34 38/38/38 35/35/35
f 34/34/34 30/30/30 38/38/38
f 35/35/35 38/38/38 39/39/39
f 40/40/40 36/36/36 37/37/37
f 40/40/40 30/30/30 36/36/36
f 41/41/41 40/40/40 37/37/37
f 38/38/38 42/42/42 39/39/39
f 38/38/38 30/30/30 42/42/42
f 43/43/43 30/30/30 40/40/40
f 43/43/43 40/40/40 41/41/41
f 42/42/42 30/30/30 44/44/44
f 39/39/39 42/42/42 45/45/45
f 42/42/42 44/44/44 45/45/45
f 46/46/46 43/43/43 41/41/41
f 45/45/45 44/44/44 47/47/47
f 48/48/48 43/43/43 46/46/46
f 48/48/48 30/30/30 43/43/43
f 49/49/49 48/48/48 46/46/46
f 44/44/44 50/50/50 47/47/47
f 44/44/44 30/30/30 50/50/50
f 47/47/47 50/50/50 51/51/51
f 52/52/52 48/48/48 49/49/49
f 52/52/52 30/30/30 48/48/48
f 53/53/53 52/52/52 49/49/49
f 50/50/50 54/54/54 51/51/51
f 50/50/50 30/30/30 54/54/54
f 51/51/51 54/54/54 55/55/55
f 56/56/56 52/52/52 53/53/53
f 56/56/56 30/30/30 52/52/52
f 57/57/57 56/56/56 53/53/53
f 54/54/54 58/58/58 55/55/55
f 54/54/54 30/30/30 58/58/58
f 59/59/59 30/30/30 56/56/56
f 59/59/59 56/56/56 57/57/57
f 58/58/58 30/30/30 60/60/60
f 55/55/55 58/58/58 61/61/61
f 58/58/58 60/60/60 61/61/61
f 62/62/62 59/59/59 57/57/57
f 61/61/61 60/60/60 63/63/63
f 64/64/64 59/59/59 62/62/62
f 64/64/64 30/30/30 59/59/59
f 65/65/65 64/64/64 62/62/62
f 60/60/60 66/66/66 63/63/63
f 60/60/60 30/30/30 66/66/66
f 63/63/63 66/66/66 67/67/67
f 68/68/68 64/64/64 65/65/65
f 68/68/68 30/30/30 64/64/64
f 69/69/69 68/68/68 65/65/65
f 66/66/66 70/70/70 67/67/67
f 66/66/66 30/30/30 70/70/70
f 67/67/67 70/70/70 71/71/71
f 72/72/72 68/68/68 69/69/69
f 72/72/72 30/30/30 68/68/68
f 73/73/73 72/72/72 69/69/69
f 71/71/71 74/74/74 73/73/73
f 70/70/70 74/74/74 71/71/71
f 70/70/70 30/30/30 74/74/74
f 74/74/74 72/72/72 73/73/73
f 74/74/74 30/30/30 72/72/72
