#
# OBJECT NAME
#
o model_2259
mtllib 2259.mtl

#
# VERTEX BUFFER 000
#
v -0.228178 0.516638 0.474533
v -0.31258 0.260676 0.457606
v -0.176476 0.260676 0.457605
v -0.345907 0.516638 0.345908
v -0.176476 0.260676 0.457605
v -0.31258 0.260676 0.457606
v 0.25 0.516638 0.474532
v 0.25 0.260676 0.457605
v 0.5 0.153702 0.457605
v 0.5 0.516638 0.474532
v 0.5 0.516638 0.345907
v 1.74112e-007 0.153702 0.457605
v 0.25 0.260676 0.457605
v 0.25 0.516638 0.474532
v 1.74112e-007 0.153702 0.457605
v 0.5 0.153702 0.457605
v 0.5 0.516638 0.345907
v 0.5 0.516638 0.474532
v 0.5 0.516638 0.345907
v 0.5 0.153702 0.457605
v 0.25 0.260676 0.457605
v 0.25 0.260676 0.457605
v -0.345907 0.516006 0.365487
v -0.457605 0.260708 0.312581
v -0.457605 0.153702 1.19209e-007
v -0.457605 0.153702 1.19209e-007
v -0.457605 0.260708 0.312581
v -0.474532 0.516638 0.228178
v -0.345908 0.516638 -0.345907
v -0.457605 0.153702 1.19209e-007
v -0.457605 0.260708 -0.312581
v -0.457605 0.153702 1.19209e-007
v -0.345908 0.516638 -0.345907
v -0.474532 0.516638 -0.228178
v -0.457605 0.260708 -0.312581
v -0.292955 0.114682 0.411812
v -0.45778 0.0834584 0.573439
v -0.365102 0 0.485411
v -0.473676 0 0.376837
v -0.566353 0.0834584 0.464866
v -0.401529 0.114682 0.303238
v -0.527056 0.199343 0.421326
v -0.228178 0.516638 0.474533
v -0.418482 0.199343 0.529899
v -0.31258 0.260708 0.457606
v -0.457605 0.260708 0.312581
v -0.365102 0 0.485411
v -0.473676 0 0.376837
v -0.401529 0.114682 0.303238
v -0.292955 0.114682 0.411812
v -0.45778 0.0834584 0.573439
v -0.566353 0.0834584 0.464866
v -0.457605 0.260708 0.312581
v -0.31258 0.260708 0.457606
v -0.418482 0.199343 0.529899
v -0.527056 0.199343 0.421326
v -0.474532 0.516638 0.228178
v -0.479319 0.516638 0.471047
v -0.228178 0.516638 -0.474645
v -0.176476 0.260676 -0.457717
v -0.31258 0.260676 -0.457718
v -0.345907 0.516638 -0.34602
v -0.31258 0.260676 -0.457718
v -0.176476 0.260676 -0.457717
v 0.25 0.516638 -0.474644
v 0.5 0.153702 -0.457717
v 0.25 0.260676 -0.457717
v 0.5 0.516638 -0.474644
v 1.63913e-007 0.153702 -0.457717
v 0.25 0.260676 -0.457717
v 1.63913e-007 0.153702 -0.457717
v 0.25 0.516638 -0.474644
v 0.5 0.153702 -0.457717
v 0.5 0.516638 -0.474644
v 0.5 0.516638 -0.346019
v 0.5 0.516638 -0.346019
v 0.25 0.260676 -0.457717
v 0.5 0.153702 -0.457717
v 0.25 0.260676 -0.457717
v 0.5 0.516638 -0.346019
v -0.292955 0.114682 -0.411812
v -0.365102 0 -0.485411
v -0.45778 0.0834584 -0.573439
v -0.473676 0 -0.376837
v -0.401529 0.114682 -0.303238
v -0.566353 0.0834584 -0.464866
v -0.527056 0.199343 -0.421326
v -0.228178 0.516638 -0.474533
v -0.31258 0.260708 -0.457606
v -0.418482 0.199343 -0.529899
v -0.457605 0.260708 -0.312581
v -0.365102 0 -0.485411
v -0.292955 0.114682 -0.411812
v -0.401529 0.114682 -0.303238
v -0.473676 0 -0.376837
v -0.45778 0.0834584 -0.573439
v -0.566353 0.0834584 -0.464866
v -0.31258 0.260708 -0.457606
v -0.457605 0.260708 -0.312581
v -0.527056 0.199343 -0.421326
v -0.418482 0.199343 -0.529899
v -0.474532 0.516638 -0.228178
v -0.479319 0.516638 -0.471047
v 0.5 0.651308 -0.407321
v 0.5 0.651308 -0.499587
v -0.499587 0.651308 -0.499587
v -0.407322 0.651308 -0.407321
v -0.407322 0.651308 -0.407321
v -0.499587 0.651308 -0.499587
v -0.499587 0.651308 0.499588
v -0.407321 0.651308 0.407322
v 0.5 0.651308 0.499588
v 0.5 0.651308 0.407322
v -0.407321 0.651308 0.407322
v -0.499587 0.651308 0.499588
v -0.499587 0.516638 -0.499587
v 0.5 0.516638 -0.499587
v -0.499587 0.516638 0.499588
v -0.499587 0.516638 -0.499587
v 0.5 0.516638 0.499588
v -0.499587 0.516638 0.499588
v 0.5 0.516638 0.499588
v -0.499587 0.516638 0.499588
v -0.499587 0.516638 -0.499587
v 0.5 0.516638 -0.499587
v 0.5 0.730955 -0.407321
v -0.407321 0.730955 -0.407321
v -0.407321 0.730955 0.407322
v 0.5 0.730955 0.407322
v 0.5 0.730955 -0.407321
v 0.5 0.651308 -0.407321
v -0.407322 0.651308 -0.407321
v -0.407321 0.730955 -0.407321
v -0.407321 0.730955 0.407322
v -0.407321 0.730955 -0.407321
v -0.407322 0.651308 -0.407321
v -0.407321 0.651308 0.407322
v -0.407321 0.651308 0.407322
v 0.5 0.651308 0.407322
v 0.5 0.730955 0.407322
v -0.407321 0.730955 0.407322
v 0.5 0.651308 -0.407321
v 0.5 0.516638 -0.499587
v 0.5 0.651308 -0.499587
v 0.5 0.651308 -0.407321
v 0.5 0.730955 -0.407321
v 0.5 0.730955 0.407322
v 0.5 0.651308 0.407322
v 0.5 0.516638 0.499588
v 0.5 0.651308 0.407322
v 0.5 0.651308 0.499588

vn -0.00315285 -0.0502319 0.998535
vn 5.54323e-006 -0.065979 0.997559
vn -0.0299225 -0.0719604 0.996582
vn -0.00878906 -0.307617 -0.951172
vn -0.240112 -0.51709 -0.821289
vn -4.64916e-006 -0.399902 -0.916504
vn 5.96046e-007 -0.0510864 0.998535
vn -3.57628e-007 -0.065979 0.997559
vn -0.0112381 -0.0542908 0.998047
vn -1.3113e-006 -0.0465698 0.998535
vn -0.0220642 -0.304688 -0.952148
vn -0.00121307 -0.308105 -0.951172
vn -3.57628e-007 -0.065979 0.997559
vn 5.96046e-007 -0.0510864 0.998535
vn 0.000694275 -0.0513611 0.998535
vn 1 1.19209e-007 1.78814e-007
vn 1 1.19209e-007 1.78814e-007
vn 1 1.19209e-007 1.78814e-007
vn -0.0220642 -0.304688 -0.952148
vn -0.124878 -0.291748 -0.948242
vn 0.0723877 -0.457275 -0.88623
vn 0.0723877 -0.457275 -0.88623
vn 1 0 0
vn 1 0 0
vn 1 0 0
vn -0.998535 -0.0516052 0
vn -0.947266 -0.320313 0
vn -0.987793 0.154663 0
vn 0.947754 -0.317627 -0.0273132
vn 0.95166 -0.306396 -0.0141373
vn 0.900391 -0.411133 -0.140747
vn 0.95166 -0.306396 -0.0141373
vn 0.947754 -0.317627 -0.0273132
vn -0.998535 -0.0506287 -0.00647354
vn -0.997559 -0.0592957 -0.0202942
vn 0.671387 -0.0409546 0.739258
vn -0.358398 -0.304688 0.882324
vn 0.330566 -0.931152 0.151611
vn -0.697754 -0.0202026 -0.715332
vn -0.696777 -0.027832 -0.716309
vn -0.720703 -0.108276 -0.68457
vn -0.979004 0.123718 0.161865
vn 0.0532532 0.140503 0.988281
vn -0.167969 0.157227 0.973145
vn 0.635742 -0.228516 0.736816
vn -0.745117 -0.251221 -0.617676
vn 0.330566 -0.931152 0.151611
vn 0.0919189 -0.991211 -0.0919189
vn 0.700684 -0.132935 -0.700684
vn 0.69873 -0.150024 -0.69873
vn -0.358398 -0.304688 0.882324
vn -0.67041 -0.315918 0.67041
vn 0.673828 0.301758 -0.673828
vn 0.673828 0.301758 -0.673828
vn -0.167969 0.157227 0.973145
vn -0.979004 0.123718 0.161865
vn -0.989746 0.112732 -0.0839844
vn -0.700195 0.202637 0.684082
vn -0.00315285 -0.0502319 -0.998535
vn -0.0299225 -0.0719604 -0.996582
vn 5.54323e-006 -0.065979 -0.997559
vn -0.00878906 -0.307617 0.951172
vn -5.06639e-006 -0.399902 0.916504
vn -0.240112 -0.51709 0.821289
vn 4.76837e-007 -0.0510864 -0.998535
vn -0.0112381 -0.0542908 -0.998047
vn -4.17233e-007 -0.065979 -0.997559
vn -1.60933e-006 -0.0465698 -0.998535
vn -0.00121307 -0.308105 0.951172
vn -4.17233e-007 -0.065979 -0.997559
vn 0.000694275 -0.0513611 -0.998535
vn 4.76837e-007 -0.0510864 -0.998535
vn 1 0 1.78814e-007
vn 1 0 1.78814e-007
vn 1 0 1.78814e-007
vn -0.0220642 -0.304688 0.952148
vn 0.0723877 -0.457275 0.88623
vn -0.124878 -0.291748 0.948242
vn 0.0723877 -0.457275 0.88623
vn -0.0220642 -0.304688 0.952148
vn 0.671387 -0.0409546 -0.739258
vn 0.330566 -0.931152 -0.151611
vn -0.358398 -0.304688 -0.882324
vn -0.697754 -0.0202026 0.715332
vn -0.720703 -0.108276 0.68457
vn -0.696777 -0.027832 0.716309
vn -0.979004 0.123718 -0.161865
vn 0.0532532 0.140503 -0.988281
vn 0.635742 -0.228516 -0.736816
vn -0.167969 0.157227 -0.973145
vn -0.745117 -0.251221 0.617676
vn 0.330566 -0.931152 -0.151611
vn 0.69873 -0.150024 0.69873
vn 0.700684 -0.132935 0.700684
vn 0.0919189 -0.991211 0.0919189
vn -0.358398 -0.304688 -0.882324
vn -0.67041 -0.315918 -0.67041
vn 0.673828 0.301758 0.673828
vn 0.673828 0.301758 0.673828
vn -0.979004 0.123718 -0.161865
vn -0.167969 0.157227 -0.973145
vn -0.989746 0.112732 0.0839844
vn -0.700195 0.202637 -0.684082
vn 0 1 0
vn 0 0.546875 -0.836914
vn -0.644043 0.410889 -0.644531
vn 0 1 0
vn 0 1 0
vn -0.644043 0.410889 -0.644531
vn -0.644043 0.410889 0.644531
vn 0 1 0
vn 0 0.546875 0.836914
vn 0 1 0
vn 0 1 0
vn -0.644043 0.410889 0.644531
vn -0.706543 1.19209e-007 -0.707031
vn 0 0 -1
vn -0.706543 1.19209e-007 0.707031
vn -0.706543 1.19209e-007 -0.707031
vn 0 0 1
vn -0.706543 1.19209e-007 0.707031
vn 0 -1 0
vn 0 -1 0
vn 0 -1 0
vn 0 -1 0
vn 0 1 0
vn 0 1 0
vn 0 1 0
vn 0 1 0
vn 0 3.57628e-007 -1
vn 0 3.57628e-007 -1
vn -0.667969 4.17233e-007 -0.743652
vn -0.667969 4.17233e-007 -0.743652
vn -0.667969 5.36442e-007 0.743652
vn -0.667969 4.17233e-007 -0.743652
vn -0.667969 4.17233e-007 -0.743652
vn -0.667969 5.36442e-007 0.743652
vn -0.667969 5.36442e-007 0.743652
vn 0 5.36442e-007 1
vn 0 5.36442e-007 1
vn -0.667969 5.36442e-007 0.743652
vn 1 0 0
vn 1 0 0
vn 1 0 0
vn 1 4.17233e-007 0
vn 1 4.17233e-007 0
vn 1 4.17233e-007 0
vn 1 4.17233e-007 0
vn 1 0 0
vn 1 0 0
vn 1 0 0

vt 0.0457855 0.803741
vt 0.0187649 0.655217
vt 0.0615866 0.655323
vt 0.389119 0.115036
vt 0.380445 0.0445073
vt 0.389119 0.0445073
vt 0.0360701 0.803741
vt 0.0360701 0.655377
vt 0.112757 0.602338
vt 0.112757 0.803741
vt 0.310293 0.114704
vt 0.35012 0.0134228
vt 0.189806 0.655217
vt 0.189806 0.803741
vt 0.112757 0.602338
vt 0.400856 0.0559944
vt 0.492668 0.0821096
vt 0.492668 0.0219641
vt 0.389119 0.115036
vt 0.35012 0.0134228
vt 0.380445 0.0445073
vt 0.319794 0.0445073
vt 0.385844 0.118779
vt 0.385844 0.0429449
vt 0.355785 0.0429449
vt 0.112484 0.599699
vt 0.205724 0.655217
vt 0.181788 0.803741
vt 0.364023 0.118779
vt 0.332334 0.0429449
vt 0.364023 0.0429449
vt 0.333646 0.0355643
vt 0.364023 0.118779
vt 0.0453658 0.803741
vt 0.0187649 0.655217
vt 0.370207 0.54444
vt 0.314618 0.54444
vt 0.347021 0.482357
vt 0.27931 0.483302
vt 0.311709 0.54444
vt 0.257232 0.54444
vt 0.297668 0.594487
vt 0.36867 0.816242
vt 0.329895 0.594487
vt 0.357871 0.651396
vt 0.26215 0.651396
vt 0.416778 0.372344
vt 0.465367 0.37235
vt 0.465367 0.472255
vt 0.416778 0.472237
vt 0.416778 0.260918
vt 0.465367 0.260919
vt 0.472562 0.579115
vt 0.409585 0.579155
vt 0.416778 0.161324
vt 0.465367 0.161324
vt 0.257325 0.816242
vt 0.313781 0.803193
vt 0.0457855 0.803741
vt 0.0615866 0.655323
vt 0.0187649 0.655217
vt 0.389119 0.115036
vt 0.389119 0.0445073
vt 0.380445 0.0445073
vt 0.0360701 0.803741
vt 0.112757 0.602338
vt 0.0360701 0.655377
vt 0.112757 0.803741
vt 0.35012 0.0134228
vt 0.189806 0.655217
vt 0.112757 0.602338
vt 0.189806 0.803741
vt 0.400856 0.0559944
vt 0.492668 0.0219641
vt 0.492668 0.0821096
vt 0.389119 0.115036
vt 0.380445 0.0445073
vt 0.35012 0.0134228
vt 0.319794 0.0445073
vt 0.310293 0.114704
vt 0.370207 0.54444
vt 0.347021 0.482357
vt 0.314618 0.54444
vt 0.27931 0.483302
vt 0.257232 0.54444
vt 0.311709 0.54444
vt 0.297668 0.594487
vt 0.36867 0.816242
vt 0.357871 0.651396
vt 0.329895 0.594487
vt 0.26215 0.651396
vt 0.416778 0.372344
vt 0.416778 0.472237
vt 0.465367 0.472255
vt 0.465367 0.37235
vt 0.416778 0.260918
vt 0.465367 0.260919
vt 0.409585 0.579155
vt 0.472562 0.579115
vt 0.465367 0.161324
vt 0.416778 0.161324
vt 0.257325 0.816242
vt 0.313781 0.803193
vt 0.242536 0.990739
vt 0.242536 0.937381
vt 0.495143 0.937381
vt 0.495143 0.990739
vt 0.242536 0.990739
vt 0.242536 0.937381
vt 0.495143 0.937381
vt 0.495143 0.990739
vt 0.495143 0.937381
vt 0.495143 0.990739
vt 0.242536 0.990739
vt 0.242536 0.937381
vt 0.495143 0.858852
vt 0.242536 0.858852
vt 0.495143 0.858853
vt 0.242536 0.858853
vt 0.495143 0.858852
vt 0.242536 0.858852
vt 0.391522 0.474188
vt 0.249333 0.474188
vt 0.249333 0.184646
vt 0.391522 0.184646
vt 0.503978 0.130547
vt 0.727447 0.130547
vt 0.727447 0.579039
vt 0.503978 0.579039
vt 0.00300817 0.946299
vt 0.00300817 0.915675
vt 0.233974 0.915675
vt 0.233974 0.946299
vt 0.233974 0.946299
vt 0.00300817 0.946299
vt 0.00300817 0.915675
vt 0.233974 0.915675
vt 0.00300817 0.915675
vt 0.233974 0.915675
vt 0.233974 0.946299
vt 0.00300817 0.946299
vt 0.289724 0.0752587
vt 0.295308 0.00777805
vt 0.295308 0.0716919
vt 0.289724 0.0752587
vt 0.288836 0.114269
vt 0.189862 0.114269
vt 0.188975 0.0752587
vt 0.18339 0.00777805
vt 0.188975 0.0752587
vt 0.18339 0.0716919


#
# MESH 000
#
g surface_000
usemtl surface_000
f 76/76/76 77/77/77 78/78/78
f 73/73/73 74/74/74 75/75/75
f 23/23/23 32/32/32 33/33/33
f 29/29/29 30/30/30 31/31/31
f 23/23/23 24/24/24 25/25/25
f 19/19/19 20/20/20 21/21/21
f 16/16/16 17/17/17 18/18/18
f 138/138/138 140/140/140 141/141/141
f 138/138/138 139/139/139 140/140/140
f 134/134/134 136/136/136 137/137/137
f 134/134/134 135/135/135 136/136/136
f 130/130/130 132/132/132 133/133/133
f 130/130/130 131/131/131 132/132/132
f 126/126/126 128/128/128 129/129/129
f 126/126/126 127/127/127 128/128/128
f 122/122/122 124/124/124 125/125/125
f 122/122/122 123/123/123 124/124/124
f 120/120/120 115/115/115 121/121/121
f 120/120/120 112/112/112 115/115/115
f 112/112/112 114/114/114 115/115/115
f 112/112/112 113/113/113 114/114/114
f 118/118/118 109/109/109 119/119/119
f 118/118/118 110/110/110 109/109/109
f 108/108/108 109/109/109 110/110/110
f 108/108/108 110/110/110 111/111/111
f 116/116/116 105/105/105 117/117/117
f 116/116/116 106/106/106 105/105/105
f 104/104/104 105/105/105 106/106/106
f 104/104/104 106/106/106 107/107/107
f 96/96/96 100/100/100 101/101/101
f 96/96/96 97/97/97 100/100/100
f 96/96/96 95/95/95 97/97/97
f 96/96/96 92/92/92 95/95/95
f 92/92/92 94/94/94 95/95/95
f 92/92/92 93/93/93 94/94/94
f 94/94/94 93/93/93 98/98/98
f 94/94/94 98/98/98 99/99/99
f 84/84/84 85/85/85 86/86/86
f 87/87/87 86/86/86 85/85/85
f 85/85/85 91/91/91 87/87/87
f 91/91/91 102/102/102 87/87/87
f 102/102/102 103/103/103 87/87/87
f 90/90/90 87/87/87 103/103/103
f 103/103/103 88/88/88 90/90/90
f 88/88/88 89/89/89 90/90/90
f 81/81/81 90/90/90 89/89/89
f 90/90/90 81/81/81 83/83/83
f 81/81/81 82/82/82 83/83/83
f 79/79/79 80/80/80 69/69/69
f 69/69/69 80/80/80 62/62/62
f 69/69/69 62/62/62 64/64/64
f 62/62/62 63/63/63 64/64/64
f 70/70/70 71/71/71 72/72/72
f 71/71/71 59/59/59 72/72/72
f 71/71/71 60/60/60 59/59/59
f 59/59/59 60/60/60 61/61/61
f 65/65/65 68/68/68 66/66/66
f 65/65/65 66/66/66 67/67/67
f 51/51/51 55/55/55 56/56/56
f 51/51/51 56/56/56 52/52/52
f 51/51/51 52/52/52 48/48/48
f 51/51/51 48/48/48 47/47/47
f 47/47/47 48/48/48 49/49/49
f 47/47/47 49/49/49 50/50/50
f 49/49/49 54/54/54 50/50/50
f 49/49/49 53/53/53 54/54/54
f 39/39/39 40/40/40 41/41/41
f 42/42/42 41/41/41 40/40/40
f 41/41/41 42/42/42 46/46/46
f 46/46/46 42/42/42 57/57/57
f 57/57/57 42/42/42 58/58/58
f 44/44/44 58/58/58 42/42/42
f 58/58/58 44/44/44 43/43/43
f 43/43/43 44/44/44 45/45/45
f 36/36/36 45/45/45 44/44/44
f 44/44/44 37/37/37 36/36/36
f 36/36/36 37/37/37 38/38/38
f 26/26/26 34/34/34 35/35/35
f 34/34/34 26/26/26 28/28/28
f 26/26/26 27/27/27 28/28/28
f 22/22/22 12/12/12 11/11/11
f 11/11/11 12/12/12 4/4/4
f 4/4/4 12/12/12 5/5/5
f 4/4/4 5/5/5 6/6/6
f 13/13/13 14/14/14 15/15/15
f 15/15/15 14/14/14 1/1/1
f 15/15/15 1/1/1 3/3/3
f 1/1/1 2/2/2 3/3/3
f 7/7/7 9/9/9 10/10/10
f 7/7/7 8/8/8 9/9/9
f 149/149/149 150/150/150 151/151/151
f 149/149/149 142/142/142 150/150/150
f 149/149/149 143/143/143 142/142/142
f 142/142/142 143/143/143 144/144/144
f 145/145/145 147/147/147 148/148/148
f 145/145/145 146/146/146 147/147/147

