#
# OBJECT NAME
#
o model_2025
mtllib 2025.mtl

#
# VERTEX BUFFER 000
#
v -0.0165364 0.312396 -0.0193958
v -0.0319247 0.406714 -0.0207921
v -0.0100366 0.308281 -0.043895
v -0.0284627 0.399108 -0.0608673
v 0.0138598 0.31369 -0.0390973
v 0.00379466 0.407544 -0.0638898
v -0.0786099 0.509109 -0.0753425
v -0.0464489 0.510731 -0.113448
v -0.131606 0.579797 -0.173821
v 0.0138598 0.31369 -0.0390973
v -0.000119181 0.39703 -0.0658716
v 0.00905379 0.404085 -0.0304102
v -0.0100366 0.308281 -0.0438952
v 0.0181755 0.479236 -0.0803102
v 0.0279773 0.484841 -0.052238
v 0.0654967 0.562906 -0.0897919
v 0.0138598 0.31369 -0.0390973
v 0.0297253 0.425875 -0.0397813
v 0.00810477 0.316466 -0.0148804
v -0.0343597 0.421726 -0.00563631
v -0.0165364 0.312396 -0.0193958
v -0.0319848 0.549266 0.0160253
v 0.0389626 0.550504 -0.0175512
v 0.0169424 0.670161 0.0985378
v 0.0625892 0.672551 0.0784838
v 0.0976937 0.69828 0.229534
v -0.000737887 0.157781 -0.0277849
v 0.0260886 0.269831 -0.0637649
v 0.0224039 0.159668 -0.0217753
v 0.0506462 0.275517 -0.0133938
v 0.0176767 0.162086 0.00188516
v 0.113139 0.338374 -0.0647072
v 0.0916493 0.331237 -0.1051
v 0.172447 0.35821 -0.132992
v -0.0063746 0 0.0105815
v 0.0173822 0 0.0164919
v -0.00708756 0.159221 -0.00314088
v 0.0176767 0.162086 0.00188516
v 0.0241834 0 -0.00663346
v 0.024318 0.159612 -0.0226896
v -0.000747232 0 -0.0125739
v -0.000737887 0.157781 -0.0277849
v -0.0063746 0 0.0105815
v -0.00708756 0.159221 -0.00314088
v 0.0138595 0.31369 -0.0390974
v -0.0100366 0.308281 -0.0438952
v 0.00810424 0.316466 -0.0148805
v -0.0165364 0.312396 -0.0193958
v -0.0165364 0.312396 -0.0193958
v -0.0217111 0.447468 -0.057535
v -0.0165364 0.312396 -0.0193958
v -0.0100366 0.308281 -0.043895
v -0.0319247 0.406714 -0.0207921
v -0.0284627 0.399108 -0.0608673
v 0.0138598 0.31369 -0.0390973
v 0.00379466 0.407544 -0.0638898
v -0.131606 0.579797 -0.173821
v -0.0786099 0.509109 -0.0753425
v -0.0464489 0.510731 -0.113448
v -0.000119181 0.39703 -0.0658716
v -0.0100366 0.308281 -0.0438952
v 0.0138598 0.31369 -0.0390973
v 0.00905379 0.404085 -0.0304102
v 0.0279773 0.484841 -0.052238
v 0.0654967 0.562906 -0.0897919
v 0.0181755 0.479236 -0.0803102
v -0.0343597 0.421726 -0.00563631
v 0.0297253 0.425875 -0.0397813
v 0.00810477 0.316466 -0.0148804
v 0.0138598 0.31369 -0.0390973
v -0.0165364 0.312396 -0.0193958
v 0.0976937 0.69828 0.229534
v 0.0625892 0.672551 0.0784838
v 0.0169424 0.670161 0.0985378
v 0.0389626 0.550504 -0.0175512
v -0.0319848 0.549266 0.0160253
v -0.000737887 0.157781 -0.0277849
v 0.0224039 0.159668 -0.0217753
v 0.0260886 0.269831 -0.0637649
v 0.0176767 0.162086 0.00188516
v 0.0506462 0.275517 -0.0133938
v 0.172447 0.35821 -0.132992
v 0.0916493 0.331237 -0.1051
v 0.113139 0.338374 -0.0647072
v 0.0241834 0 -0.00663346
v 0.0173822 0 0.0164919
v -0.000747232 0 -0.0125739
v -0.0063746 0 0.0105815

vn -0.959961 -0.160034 -0.227905
vn -0.944824 -0.324707 -0.0290527
vn -0.577148 -0.274414 -0.768555
vn -0.691895 -0.421631 -0.585449
vn 0.240234 -0.223633 -0.944336
vn 0.0140839 -0.330566 -0.943359
vn -0.624023 -0.618652 -0.476563
vn -0.53125 -0.65625 -0.534668
vn -0.40625 -0.831543 -0.378174
vn 0.506836 -0.185303 -0.841309
vn 0.947266 -0.155396 -0.279785
vn 0.957031 -0.157104 -0.242065
vn 0.246094 -0.258789 -0.933594
vn 0.916504 -0.333496 -0.21936
vn 0.913574 -0.341797 -0.218384
vn 0.84375 -0.499268 -0.194946
vn 0.960449 -0.134277 0.243652
vn 0.463867 -0.107666 0.878906
vn 0.518066 -0.0515137 0.853516
vn 0.445801 -0.106262 0.888672
vn -0.154419 -0.148071 0.976563
vn 0.407471 -0.410156 0.81543
vn 0.408691 -0.404297 0.817871
vn 0.301025 -0.746094 0.59375
vn 0.300781 -0.746094 0.593262
vn 0.113464 -0.983398 0.141113
vn 0.261963 -0.351318 -0.898438
vn 0.740234 -0.598633 -0.30542
vn 0.822754 -0.332031 -0.460693
vn 0.759277 -0.586914 -0.280518
vn 0.945313 -0.24585 0.213989
vn 0.544922 -0.82373 -0.154175
vn 0.540039 -0.827637 -0.150269
vn 0.316406 -0.948242 -0.000740051
vn -0.826172 0.0472412 0.560547
vn 0.490723 0.0767212 0.867676
vn -0.840332 0.0265198 0.541016
vn 0.528809 0.100098 0.842773
vn 0.872559 -0.049469 -0.485107
vn 0.85791 -0.0259552 -0.512695
vn -0.525391 -0.0837402 -0.846191
vn -0.508789 -0.103882 -0.854492
vn -0.826172 0.0472412 0.560547
vn -0.840332 0.0265198 0.541016
vn 0.86377 0.0492859 -0.500488
vn -0.521484 -0.123291 -0.84375
vn 0.531738 0.199097 0.822754
vn -0.828613 0.0418701 0.557617
vn -0.828613 0.0418701 0.557617
vn -0.230591 0.959473 -0.161377
vn 0.959961 0.160034 0.227905
vn 0.577148 0.274414 0.768555
vn 0.944824 0.324707 0.0290527
vn 0.691895 0.421631 0.585449
vn -0.240234 0.223633 0.944336
vn -0.0140839 0.330566 0.943359
vn 0.40625 0.831543 0.378174
vn 0.624023 0.618652 0.476563
vn 0.53125 0.65625 0.534668
vn -0.947266 0.155396 0.279785
vn -0.246094 0.258789 0.933594
vn -0.506836 0.185303 0.841309
vn -0.957031 0.157104 0.242065
vn -0.913574 0.341797 0.218384
vn -0.84375 0.499268 0.194946
vn -0.916504 0.333496 0.21936
vn -0.445801 0.106262 -0.888672
vn -0.463867 0.107666 -0.878906
vn -0.518066 0.0515137 -0.853516
vn -0.960449 0.134277 -0.243652
vn 0.154419 0.148071 -0.976563
vn -0.113464 0.983398 -0.141113
vn -0.300781 0.746094 -0.593262
vn -0.301025 0.746094 -0.59375
vn -0.408691 0.404297 -0.817871
vn -0.407471 0.410156 -0.81543
vn -0.261963 0.351318 0.898438
vn -0.822754 0.332031 0.460693
vn -0.740234 0.598633 0.30542
vn -0.945313 0.24585 -0.213989
vn -0.759277 0.586914 0.280518
vn -0.316406 0.948242 0.000740051
vn -0.540039 0.827637 0.150269
vn -0.544922 0.82373 0.154175
vn 0 -1 0
vn 0 -1 0
vn 0 -1 0
vn 0 -1 0

vt 0.212507 0.520734
vt 0.212507 0.569863
vt 0.24613 0.520734
vt 0.24613 0.569986
vt 0.27951 0.520734
vt 0.27951 0.570661
vt 0.212507 0.626152
vt 0.27951 0.627686
vt 0.24613 0.723741
vt 0.245887 0.520734
vt 0.212507 0.57816
vt 0.27951 0.579187
vt 0.212507 0.520734
vt 0.212507 0.650392
vt 0.27951 0.650392
vt 0.245887 0.723741
vt 0.369643 0.52191
vt 0.369643 0.579931
vt 0.403023 0.52191
vt 0.436403 0.57959
vt 0.436403 0.52191
vt 0.436403 0.627679
vt 0.369643 0.626942
vt 0.436403 0.698382
vt 0.369643 0.698453
vt 0.403023 0.812032
vt 0.212507 0.520734
vt 0.212507 0.592706
vt 0.245887 0.520734
vt 0.27951 0.592128
vt 0.27951 0.520734
vt 0.27951 0.650392
vt 0.212507 0.650392
vt 0.245887 0.723741
vt 0.558855 0.408444
vt 0.575987 0.408444
vt 0.558855 0.468406
vt 0.575987 0.468406
vt 0.595834 0.408444
vt 0.595834 0.468406
vt 0.616032 0.408444
vt 0.616032 0.468406
vt 0.636452 0.408444
vt 0.636452 0.468406
vt 0.595834 0.525096
vt 0.616032 0.525096
vt 0.575987 0.525096
vt 0.558855 0.525096
vt 0.636452 0.525096
vt 0.595834 0.575112
vt 0.212507 0.520734
vt 0.24613 0.520734
vt 0.212507 0.569863
vt 0.24613 0.569986
vt 0.27951 0.520734
vt 0.27951 0.570661
vt 0.24613 0.723741
vt 0.212507 0.626152
vt 0.27951 0.627686
vt 0.212507 0.57816
vt 0.212507 0.520734
vt 0.245887 0.520734
vt 0.27951 0.579187
vt 0.27951 0.650392
vt 0.245887 0.723741
vt 0.212507 0.650392
vt 0.436403 0.57959
vt 0.369643 0.579931
vt 0.403023 0.52191
vt 0.369643 0.52191
vt 0.436403 0.52191
vt 0.403023 0.812032
vt 0.369643 0.698453
vt 0.436403 0.698382
vt 0.369643 0.626942
vt 0.436403 0.627679
vt 0.212507 0.520734
vt 0.245887 0.520734
vt 0.212507 0.592706
vt 0.27951 0.520734
vt 0.27951 0.592128
vt 0.245887 0.723741
vt 0.212507 0.650392
vt 0.27951 0.650392
vt 0.602542 0.432226
vt 0.601736 0.418929
vt 0.588378 0.432344
vt 0.588209 0.419176


#
# MESH 000
#
g surface_000
usemtl surface_000
f 87/87/87 86/86/86 88/88/88
f 85/85/85 86/86/86 87/87/87
f 82/82/82 83/83/83 84/84/84
f 79/79/79 84/84/84 83/83/83
f 81/81/81 84/84/84 79/79/79
f 78/78/78 81/81/81 79/79/79
f 80/80/80 81/81/81 78/78/78
f 77/77/77 78/78/78 79/79/79
f 72/72/72 73/73/73 74/74/74
f 74/74/74 73/73/73 76/76/76
f 76/76/76 73/73/73 75/75/75
f 75/75/75 67/67/67 76/76/76
f 68/68/68 67/67/67 75/75/75
f 67/67/67 68/68/68 69/69/69
f 69/69/69 71/71/71 67/67/67
f 68/68/68 70/70/70 69/69/69
f 64/64/64 65/65/65 66/66/66
f 66/66/66 63/63/63 64/64/64
f 60/60/60 63/63/63 66/66/66
f 62/62/62 63/63/63 60/60/60
f 60/60/60 61/61/61 62/62/62
f 57/57/57 58/58/58 59/59/59
f 58/58/58 54/54/54 59/59/59
f 54/54/54 56/56/56 59/59/59
f 56/56/56 54/54/54 52/52/52
f 55/55/55 56/56/56 52/52/52
f 53/53/53 54/54/54 58/58/58
f 52/52/52 54/54/54 53/53/53
f 51/51/51 52/52/52 53/53/53
f 43/43/43 44/44/44 41/41/41
f 41/41/41 44/44/44 42/42/42
f 41/41/41 42/42/42 39/39/39
f 39/39/39 42/42/42 40/40/40
f 38/38/38 39/39/39 40/40/40
f 36/36/36 39/39/39 38/38/38
f 37/37/37 36/36/36 38/38/38
f 35/35/35 36/36/36 37/37/37
f 42/42/42 44/44/44 46/46/46
f 46/46/46 40/40/40 42/42/42
f 45/45/45 40/40/40 46/46/46
f 45/45/45 38/38/38 40/40/40
f 47/47/47 38/38/38 45/45/45
f 48/48/48 38/38/38 47/47/47
f 37/37/37 38/38/38 48/48/48
f 46/46/46 44/44/44 49/49/49
f 50/50/50 46/46/46 49/49/49
f 46/46/46 50/50/50 45/45/45
f 45/45/45 50/50/50 47/47/47
f 47/47/47 50/50/50 48/48/48
f 34/34/34 32/32/32 33/33/33
f 32/32/32 28/28/28 33/33/33
f 30/30/30 28/28/28 32/32/32
f 29/29/29 28/28/28 30/30/30
f 27/27/27 28/28/28 29/29/29
f 31/31/31 29/29/29 30/30/30
f 26/26/26 24/24/24 25/25/25
f 24/24/24 22/22/22 25/25/25
f 25/25/25 22/22/22 23/23/23
f 22/22/22 20/20/20 23/23/23
f 23/23/23 20/20/20 18/18/18
f 19/19/19 18/18/18 20/20/20
f 17/17/17 18/18/18 19/19/19
f 19/19/19 20/20/20 21/21/21
f 15/15/15 14/14/14 16/16/16
f 12/12/12 14/14/14 15/15/15
f 11/11/11 14/14/14 12/12/12
f 10/10/10 11/11/11 12/12/12
f 11/11/11 10/10/10 13/13/13
f 7/7/7 9/9/9 8/8/8
f 7/7/7 8/8/8 4/4/4
f 2/2/2 7/7/7 4/4/4
f 3/3/3 2/2/2 4/4/4
f 1/1/1 2/2/2 3/3/3
f 8/8/8 6/6/6 4/4/4
f 6/6/6 3/3/3 4/4/4
f 5/5/5 3/3/3 6/6/6

