#
# OBJECT NAME
#
o model_2023
mtllib 2023.mtl

#
# VERTEX BUFFER 000
#
v -0.0209746 0.312396 -0.0246014
v -0.040493 0.406714 -0.0263725
v -0.0127304 0.308281 -0.055676
v -0.0361018 0.399108 -0.0772034
v 0.0175796 0.31369 -0.0495906
v 0.00481311 0.407544 -0.0810371
v -0.0288747 0.478283 -0.122095
v -0.0665448 0.467097 -0.109179
v -0.0794502 0.476631 -0.0609196
v -0.166928 0.579797 -0.220472
v -0.108388 0.5333 -0.154859
v -0.119966 0.541588 -0.130208
v -0.0889561 0.543178 -0.165696
v 0.0219793 0.396798 -0.0657488
v 0.0175796 0.31369 -0.0495906
v -0.000151161 0.39703 -0.0835508
v -0.0127304 0.308281 -0.0556762
v 0.0114837 0.404085 -0.0385719
v 0.0354861 0.484841 -0.0662581
v 0.0230536 0.479236 -0.101865
v 0.0830754 0.562906 -0.113891
v 0.0377032 0.425875 -0.0504582
v 0.00904206 0.421993 -0.00480742
v 0.0175796 0.31369 -0.0495906
v 0.01028 0.316466 -0.0188742
v -0.0209746 0.312396 -0.0246014
v -0.0435815 0.421726 -0.00714904
v 0.0496525 0.690631 0.171149
v 0.072337 0.682058 0.163359
v 0.123914 0.69828 0.291138
v 0.091577 0.693715 0.152242
v -0.0405692 0.549266 0.0203264
v 0.0170892 0.54138 0.0220915
v 0.0494198 0.550504 -0.0222617
v -0.00667344 0.649692 0.0788198
v 0.0366672 0.637682 0.0755229
v 0.0671979 0.651386 0.0468538
v -0.000935936 0.157781 -0.0352421
v 0.0330905 0.269831 -0.0808788
v 0.0284169 0.159668 -0.0276196
v 0.0654408 0.26355 -0.0581846
v 0.0224209 0.162086 0.00239111
v 0.0642391 0.275517 -0.0169886
v 0.143505 0.338374 -0.0820739
v 0.116247 0.331237 -0.133308
v 0.218729 0.35821 -0.168686
v -0.00808548 0 0.0134214
v 0.0220473 0 0.0209181
v -0.00898978 0.159221 -0.00398385
v 0.0224209 0.162086 0.00239111
v 0.0306739 0 -0.00841381
v 0.0308446 0.159612 -0.0287792
v -0.00094779 0 -0.0159486
v -0.000935936 0.157781 -0.0352421
v -0.00808548 0 0.0134214
v -0.00898978 0.159221 -0.00398385
v 0.0175793 0.31369 -0.0495908
v -0.0127304 0.308281 -0.0556762
v 0.0102793 0.316466 -0.0188743
v -0.0209746 0.312396 -0.0246014
v -0.0209746 0.312396 -0.0246014
v -0.0275382 0.447468 -0.0729767
v -0.0209746 0.312396 -0.0246014
v -0.0127304 0.308281 -0.055676
v -0.040493 0.406714 -0.0263725
v -0.0361018 0.399108 -0.0772034
v 0.0175796 0.31369 -0.0495906
v 0.00481311 0.407544 -0.0810371
v -0.0288747 0.478283 -0.122095
v -0.0665448 0.467097 -0.109179
v -0.0794502 0.476631 -0.0609196
v -0.166928 0.579797 -0.220472
v -0.119966 0.541588 -0.130208
v -0.108388 0.5333 -0.154859
v -0.0889561 0.543178 -0.165696
v 0.0219793 0.396798 -0.0657488
v -0.000151161 0.39703 -0.0835508
v 0.0175796 0.31369 -0.0495906
v -0.0127304 0.308281 -0.0556762
v 0.0114837 0.404085 -0.0385719
v 0.0354861 0.484841 -0.0662581
v 0.0230536 0.479236 -0.101865
v 0.0830754 0.562906 -0.113891
v 0.0377032 0.425875 -0.0504582
v 0.0175796 0.31369 -0.0495906
v 0.00904206 0.421993 -0.00480742
v 0.01028 0.316466 -0.0188742
v -0.0209746 0.312396 -0.0246014
v -0.0435815 0.421726 -0.00714904
v 0.0496525 0.690631 0.171149
v 0.123914 0.69828 0.291138
v 0.072337 0.682058 0.163359
v 0.091577 0.693715 0.152242
v -0.0405692 0.549266 0.0203264
v 0.0170892 0.54138 0.0220915
v 0.0494198 0.550504 -0.0222617
v -0.00667344 0.649692 0.0788198
v 0.0366672 0.637682 0.0755229
v 0.0671979 0.651386 0.0468538
v -0.000935936 0.157781 -0.0352421
v 0.0284169 0.159668 -0.0276196
v 0.0330905 0.269831 -0.0808788
v 0.0654408 0.26355 -0.0581846
v 0.0224209 0.162086 0.00239111
v 0.0642391 0.275517 -0.0169886
v 0.143505 0.338374 -0.0820739
v 0.116247 0.331237 -0.133308
v 0.218729 0.35821 -0.168686
v 0.0306739 0 -0.00841381
v 0.0220473 0 0.0209181
v -0.00094779 0 -0.0159486
v -0.00808548 0 0.0134214

vn -0.959961 -0.160034 -0.227905
vn -0.942383 -0.325928 -0.0718384
vn -0.577148 -0.274414 -0.768555
vn -0.69873 -0.415527 -0.581543
vn 0.240234 -0.223633 -0.944336
vn -0.0445557 -0.333252 -0.941406
vn -0.0862427 -0.45874 -0.884277
vn -0.631836 -0.54541 -0.550293
vn -0.892578 -0.440186 -0.0958252
vn -0.411865 -0.829102 -0.377686
vn -0.542969 -0.664551 -0.512695
vn -0.824707 -0.554688 -0.106934
vn -0.0612183 -0.577148 -0.813965
vn 0.963867 -0.142456 -0.224365
vn 0.420654 -0.244751 -0.873047
vn 0.577148 -0.21875 -0.786621
vn 0.246094 -0.258789 -0.933594
vn 0.924316 -0.0567932 0.376221
vn 0.92334 -0.320801 -0.209717
vn 0.90332 -0.315186 -0.290039
vn 0.84375 -0.499268 -0.194946
vn 0.835449 -0.139282 0.530762
vn 0.450684 -0.170776 0.875977
vn 0.936523 -0.0543823 0.345459
vn 0.554199 -0.0818481 0.828125
vn -0.120605 -0.114319 0.98584
vn -0.0491638 -0.158569 0.98584
vn -0.250732 -0.827637 0.500977
vn 0.221069 -0.908203 0.35498
vn 0.139282 -0.984863 0.102356
vn 0.631348 -0.764648 0.128052
vn -0.0670166 -0.273926 0.958984
vn 0.422607 -0.29541 0.856445
vn 0.80957 -0.248535 0.53125
vn -0.131958 -0.542969 0.829102
vn 0.349121 -0.60498 0.715332
vn 0.748535 -0.508301 0.425049
vn 0.261963 -0.351318 -0.898438
vn 0.382324 -0.529785 -0.756836
vn 0.803223 -0.383789 -0.455322
vn 0.780273 -0.54541 -0.304199
vn 0.945313 -0.24585 0.213989
vn 0.893555 -0.409424 0.182983
vn 0.57959 -0.807129 -0.110229
vn 0.525391 -0.830078 -0.185059
vn 0.316406 -0.948242 -0.000740051
vn -0.826172 0.0472412 0.560547
vn 0.490723 0.0767212 0.867676
vn -0.840332 0.0265198 0.541016
vn 0.528809 0.100098 0.842773
vn 0.872559 -0.049469 -0.485107
vn 0.85791 -0.0259552 -0.512695
vn -0.525391 -0.0837402 -0.846191
vn -0.508789 -0.103882 -0.854492
vn -0.826172 0.0472412 0.560547
vn -0.840332 0.0265198 0.541016
vn 0.86377 0.0492859 -0.500488
vn -0.521484 -0.123291 -0.84375
vn 0.531738 0.199097 0.822754
vn -0.828613 0.0418701 0.557617
vn -0.828613 0.0418701 0.557617
vn -0.230591 0.959473 -0.161377
vn 0.959961 0.160034 0.227905
vn 0.577148 0.274414 0.768555
vn 0.942383 0.325928 0.0718384
vn 0.69873 0.415527 0.581543
vn -0.240234 0.223633 0.944336
vn 0.0445557 0.333252 0.941406
vn 0.0862427 0.45874 0.884277
vn 0.631836 0.54541 0.550293
vn 0.892578 0.440186 0.0958252
vn 0.411865 0.829102 0.377686
vn 0.824707 0.554688 0.106934
vn 0.542969 0.664551 0.512695
vn 0.0612183 0.577148 0.813965
vn -0.963867 0.142456 0.224365
vn -0.577148 0.21875 0.786621
vn -0.420654 0.244751 0.873047
vn -0.246094 0.258789 0.933594
vn -0.924316 0.0567932 -0.376221
vn -0.92334 0.320801 0.209717
vn -0.90332 0.315186 0.290039
vn -0.84375 0.499268 0.194946
vn -0.835449 0.139282 -0.530762
vn -0.936523 0.0543823 -0.345459
vn -0.450684 0.170776 -0.875977
vn -0.554199 0.0818481 -0.828125
vn 0.120605 0.114319 -0.98584
vn 0.0491638 0.158569 -0.98584
vn 0.250732 0.827637 -0.500977
vn -0.139282 0.984863 -0.102356
vn -0.221069 0.908203 -0.35498
vn -0.631348 0.764648 -0.128052
vn 0.0670166 0.273926 -0.958984
vn -0.422607 0.29541 -0.856445
vn -0.80957 0.248535 -0.53125
vn 0.131958 0.542969 -0.829102
vn -0.349121 0.60498 -0.715332
vn -0.748535 0.508301 -0.425049
vn -0.261963 0.351318 0.898438
vn -0.803223 0.383789 0.455322
vn -0.382324 0.529785 0.756836
vn -0.780273 0.54541 0.304199
vn -0.945313 0.24585 -0.213989
vn -0.893555 0.409424 -0.182983
vn -0.57959 0.807129 0.110229
vn -0.525391 0.830078 0.185059
vn -0.316406 0.948242 0.000740051
vn -3.57628e-007 -1 0
vn 0 -1 -2.98023e-007
vn 0 -1 -2.98023e-007
vn 2.98023e-007 -1 -5.36442e-007

vt 0.212507 0.520734
vt 0.212507 0.569863
vt 0.24613 0.520734
vt 0.24613 0.569986
vt 0.27951 0.520734
vt 0.27951 0.570661
vt 0.27951 0.604979
vt 0.24613 0.604435
vt 0.212507 0.601911
vt 0.24613 0.723741
vt 0.24613 0.650392
vt 0.212507 0.650392
vt 0.27951 0.650392
vt 0.245887 0.577708
vt 0.245887 0.520734
vt 0.212507 0.57816
vt 0.212507 0.520734
vt 0.27951 0.579187
vt 0.27951 0.650392
vt 0.212507 0.650392
vt 0.245887 0.723741
vt 0.369643 0.579931
vt 0.403023 0.579296
vt 0.369643 0.52191
vt 0.403023 0.52191
vt 0.436403 0.52191
vt 0.436403 0.57959
vt 0.436403 0.725017
vt 0.403023 0.725017
vt 0.403023 0.812032
vt 0.369643 0.725017
vt 0.436403 0.627679
vt 0.403023 0.626889
vt 0.369643 0.626942
vt 0.436403 0.671747
vt 0.403023 0.67213
vt 0.369643 0.671889
vt 0.212507 0.520734
vt 0.212507 0.592706
vt 0.245887 0.520734
vt 0.245887 0.592198
vt 0.27951 0.520734
vt 0.27951 0.592128
vt 0.27951 0.650392
vt 0.212507 0.650392
vt 0.245887 0.723741
vt 0.558697 0.409359
vt 0.575752 0.409359
vt 0.558697 0.469055
vt 0.575752 0.469055
vt 0.595512 0.409359
vt 0.595512 0.469055
vt 0.61562 0.409359
vt 0.61562 0.469055
vt 0.63595 0.409359
vt 0.63595 0.469055
vt 0.595512 0.525495
vt 0.61562 0.525495
vt 0.575752 0.525495
vt 0.558697 0.525495
vt 0.63595 0.525495
vt 0.595512 0.575289
vt 0.212507 0.520734
vt 0.24613 0.520734
vt 0.212507 0.569863
vt 0.24613 0.569986
vt 0.27951 0.520734
vt 0.27951 0.570661
vt 0.27951 0.604979
vt 0.24613 0.604435
vt 0.212507 0.601911
vt 0.24613 0.723741
vt 0.212507 0.650392
vt 0.24613 0.650392
vt 0.27951 0.650392
vt 0.245887 0.577708
vt 0.212507 0.57816
vt 0.245887 0.520734
vt 0.212507 0.520734
vt 0.27951 0.579187
vt 0.27951 0.650392
vt 0.212507 0.650392
vt 0.245887 0.723741
vt 0.369643 0.579931
vt 0.369643 0.52191
vt 0.403023 0.579296
vt 0.403023 0.52191
vt 0.436403 0.52191
vt 0.436403 0.57959
vt 0.436403 0.725017
vt 0.403023 0.812032
vt 0.403023 0.725017
vt 0.369643 0.725017
vt 0.436403 0.627679
vt 0.403023 0.626889
vt 0.369643 0.626942
vt 0.436403 0.671747
vt 0.403023 0.67213
vt 0.369643 0.671889
vt 0.212507 0.520734
vt 0.245887 0.520734
vt 0.212507 0.592706
vt 0.245887 0.592198
vt 0.27951 0.520734
vt 0.27951 0.592128
vt 0.27951 0.650392
vt 0.212507 0.650392
vt 0.245887 0.723741
vt 0.608529 0.43072
vt 0.608025 0.417467
vt 0.594429 0.430521
vt 0.594555 0.41741


#
# MESH 000
#
g surface_000
usemtl surface_000
f 111/111/111 110/110/110 112/112/112
f 109/109/109 110/110/110 111/111/111
f 108/108/108 107/107/107 106/106/106
f 106/106/106 107/107/107 103/103/103
f 106/106/106 103/103/103 105/105/105
f 105/105/105 103/103/103 101/101/101
f 104/104/104 105/105/105 101/101/101
f 107/107/107 102/102/102 103/103/103
f 101/101/101 103/103/103 102/102/102
f 100/100/100 101/101/101 102/102/102
f 81/81/81 83/83/83 82/82/82
f 81/81/81 82/82/82 76/76/76
f 81/81/81 76/76/76 80/80/80
f 76/76/76 78/78/78 80/80/80
f 76/76/76 77/77/77 78/78/78
f 77/77/77 79/79/79 78/78/78
f 82/82/82 77/77/77 76/76/76
f 67/67/67 68/68/68 64/64/64
f 68/68/68 66/66/66 64/64/64
f 64/64/64 66/66/66 65/65/65
f 63/63/63 64/64/64 65/65/65
f 68/68/68 70/70/70 66/66/66
f 70/70/70 71/71/71 66/66/66
f 66/66/66 71/71/71 65/65/65
f 69/69/69 70/70/70 68/68/68
f 69/69/69 74/74/74 70/70/70
f 74/74/74 73/73/73 70/70/70
f 70/70/70 73/73/73 71/71/71
f 75/75/75 74/74/74 69/69/69
f 74/74/74 75/75/75 72/72/72
f 72/72/72 73/73/73 74/74/74
f 55/55/55 56/56/56 53/53/53
f 53/53/53 56/56/56 54/54/54
f 53/53/53 54/54/54 51/51/51
f 51/51/51 54/54/54 52/52/52
f 50/50/50 51/51/51 52/52/52
f 48/48/48 51/51/51 50/50/50
f 49/49/49 48/48/48 50/50/50
f 47/47/47 48/48/48 49/49/49
f 54/54/54 56/56/56 58/58/58
f 58/58/58 52/52/52 54/54/54
f 57/57/57 52/52/52 58/58/58
f 57/57/57 50/50/50 52/52/52
f 59/59/59 50/50/50 57/57/57
f 60/60/60 50/50/50 59/59/59
f 49/49/49 50/50/50 60/60/60
f 58/58/58 56/56/56 61/61/61
f 62/62/62 58/58/58 61/61/61
f 58/58/58 62/62/62 57/57/57
f 57/57/57 62/62/62 59/59/59
f 59/59/59 62/62/62 60/60/60
f 46/46/46 44/44/44 45/45/45
f 44/44/44 41/41/41 45/45/45
f 45/45/45 41/41/41 39/39/39
f 40/40/40 39/39/39 41/41/41
f 38/38/38 39/39/39 40/40/40
f 44/44/44 43/43/43 41/41/41
f 43/43/43 40/40/40 41/41/41
f 42/42/42 40/40/40 43/43/43
f 19/19/19 20/20/20 21/21/21
f 19/19/19 14/14/14 20/20/20
f 20/20/20 14/14/14 16/16/16
f 14/14/14 15/15/15 16/16/16
f 16/16/16 15/15/15 17/17/17
f 19/19/19 18/18/18 14/14/14
f 14/14/14 18/18/18 15/15/15
f 5/5/5 3/3/3 6/6/6
f 6/6/6 3/3/3 4/4/4
f 8/8/8 6/6/6 4/4/4
f 7/7/7 6/6/6 8/8/8
f 11/11/11 7/7/7 8/8/8
f 13/13/13 7/7/7 11/11/11
f 11/11/11 10/10/10 13/13/13
f 10/10/10 11/11/11 12/12/12
f 3/3/3 2/2/2 4/4/4
f 9/9/9 4/4/4 2/2/2
f 8/8/8 4/4/4 9/9/9
f 9/9/9 12/12/12 8/8/8
f 8/8/8 12/12/12 11/11/11
f 1/1/1 2/2/2 3/3/3
f 90/90/90 98/98/98 97/97/97
f 92/92/92 98/98/98 90/90/90
f 92/92/92 93/93/93 98/98/98
f 98/98/98 93/93/93 99/99/99
f 96/96/96 98/98/98 99/99/99
f 95/95/95 98/98/98 96/96/96
f 94/94/94 98/98/98 95/95/95
f 97/97/97 98/98/98 94/94/94
f 90/90/90 91/91/91 92/92/92
f 91/91/91 93/93/93 92/92/92
f 94/94/94 95/95/95 89/89/89
f 89/89/89 95/95/95 86/86/86
f 88/88/88 89/89/89 86/86/86
f 87/87/87 88/88/88 86/86/86
f 85/85/85 87/87/87 86/86/86
f 84/84/84 85/85/85 86/86/86
f 95/95/95 84/84/84 86/86/86
f 96/96/96 84/84/84 95/95/95
f 35/35/35 36/36/36 28/28/28
f 35/35/35 32/32/32 36/36/36
f 36/36/36 32/32/32 33/33/33
f 33/33/33 34/34/34 36/36/36
f 36/36/36 34/34/34 37/37/37
f 37/37/37 31/31/31 36/36/36
f 36/36/36 31/31/31 29/29/29
f 28/28/28 36/36/36 29/29/29
f 28/28/28 29/29/29 30/30/30
f 30/30/30 29/29/29 31/31/31
f 32/32/32 27/27/27 33/33/33
f 33/33/33 27/27/27 23/23/23
f 23/23/23 22/22/22 33/33/33
f 33/33/33 22/22/22 34/34/34
f 26/26/26 23/23/23 27/27/27
f 25/25/25 23/23/23 26/26/26
f 24/24/24 23/23/23 25/25/25
f 22/22/22 23/23/23 24/24/24

