g r017v001_l
v 0 0.8546827 0.2408534
v 0.2333088 0.7763816 1.884315E-17
v 0.2030296 0.6056622 2.486398E-17
v 0 0.6056622 0.2056374
v -0.3557777 0.914211 -1.407805E-17
v -0.2082448 0.6056622 -2.550264E-17
v 0 0.8546827 -0.2408534
v 0 0.6056622 -0.2056374
v 0.2333088 0.7763816 1.884315E-17
v 0.2030296 0.6056622 2.486398E-17
v -0.2082448 0.6056622 -2.550264E-17
v 0 0.6056622 0.2056374
v 0 0 0.2698953
v -0.2698951 0 -3.305263E-17
v 0 0.6056622 -0.2056374
v 0 0 -0.2698952
v 0.2030296 0.6056622 2.486398E-17
v 0 0 0.2698953
v 0 0.6056622 0.2056374
v 0.2698951 0 3.301465E-17
v 0 0.6056622 -0.2056374
v 0 0 -0.2698952
v 0.3045335 0.2562784 -0.02973945
v 0.3045335 0.2562784 0.02973945
v 0.4913816 0.5944021 0.02973945
v 0.4913816 0.5944021 -0.02973945
v 0.4109535 0.7697884 0.02973946
v 0.4109535 0.7697884 -0.02973944
v 0.2239089 0.5824311 -0.02973945
v 0.2239089 0.5824311 0.02973943
v 0.2641034 0.569594 0
v 0.2101293 0.6451434 -0.02973945
v 0.2101293 0.6451434 0.02973945
v 0.3186393 0.7847655 -0.02973945
v 0.3186393 0.7847655 0.02973945
v 0.4109535 0.7697884 -0.02973944
v 0.4109535 0.7697884 0.02973946
v 0.4913816 0.5944021 -0.02973945
v 0.2724419 0.292016 -7.450581E-09
v 0.3045335 0.2562784 -0.02973945
v 0.4460907 0.5960943 7.450581E-09
v 0.3913841 0.7283513 -7.450581E-09
v 0.4109535 0.7697884 -0.02973944
v 0.2724419 0.292016 -7.450581E-09
v 0.4913816 0.5944021 0.02973945
v 0.3045335 0.2562784 0.02973945
v 0.4460907 0.5960943 7.450581E-09
v 0.4109535 0.7697884 0.02973946
v 0.3913841 0.7283513 -7.450581E-09
v 0.3913841 0.7283513 -7.450581E-09
v 0.3186393 0.7847655 0.02973945
v 0.4109535 0.7697884 0.02973946
v 0.3216839 0.7390411 0
v 0.2101293 0.6451434 0.02973945
v 0.2527642 0.6464836 0
v 0.2239089 0.5824311 0.02973943
v 0.2857513 0.6149278 7.450581E-09
v 0.2641034 0.569594 0
v 0.4109535 0.7697884 -0.02973944
v 0.3216839 0.7390411 0
v 0.3913841 0.7283513 -7.450581E-09
v 0.3186393 0.7847655 -0.02973945
v 0.2527642 0.6464836 0
v 0.2101293 0.6451434 -0.02973945
v 0.2239089 0.5824311 -0.02973945
v 0.2857513 0.6149278 7.450581E-09
v 0.2641034 0.569594 0
v 0.2216196 0.2834142 7.450581E-09
v 0.2724419 0.292016 -7.450581E-09
v 0.3045335 0.2562784 0.02973945
v 0.2348857 0.1613723 0.04695596
v 0.2348857 0.1613723 0.04695596
v 0.3045335 0.2562784 0.02973945
v 0.3045335 0.2562784 -0.02973945
v 0.2348857 0.1613723 -0.04695596
v 0.2348857 0.1613723 -0.04695596
v 0.3045335 0.2562784 -0.02973945
v 0.2724419 0.292016 -7.450581E-09
v 0.2216196 0.2834142 7.450581E-09
v 0.2698951 0 3.301465E-17
v 0 0 -0.2698952
v -0.2698951 0 -3.305263E-17
v 0 0 0.2698953
v 0.02102804 0.9325905 -6.071532E-18
v 0 0.8546827 -0.2408534
v 0.2333088 0.7763816 1.884315E-17
v 0 0.8546827 0.2408534
v -0.3557777 0.914211 -1.407805E-17
vt 0.7631836 0.9267578
vt 1 0.8554688
vt 1 0.7451172
vt 0.7573242 0.7451172
vt 0.5 0.9907227
vt 0.5 0.7451172
vt 0.2366943 0.9267578
vt 0.2427979 0.7451172
vt 0 0.8554688
vt 0 0.7451172
vt 0.2856445 0.7373047
vt 0.5708008 0.7373047
vt 0.5708008 0.378418
vt 0.2856445 0.378418
vt 0.002000809 0.7373047
vt 0.002000809 0.378418
vt 0.2856445 0.7373047
vt 0.002000809 0.378418
vt 0.002000809 0.7373047
vt 0.2856445 0.378418
vt 0.5708008 0.7373047
vt 0.5708008 0.378418
vt 0.855957 0.009963989
vt 0.8212891 0.009963989
vt 0.8212891 0.2443848
vt 0.855957 0.2443848
vt 0.8212891 0.3530273
vt 0.855957 0.3530273
vt 0.7998047 0.6430664
vt 0.7641602 0.6435547
vt 0.7910156 0.668457
vt 0.7998047 0.6049805
vt 0.7641602 0.6044922
vt 0.7998047 0.484375
vt 0.7641602 0.4846191
vt 0.7998047 0.4282227
vt 0.7641602 0.4284668
vt 0.8789063 0.2443848
vt 0.9091797 0.009963989
vt 0.8789063 0.009963989
vt 0.9091797 0.2443848
vt 0.9091797 0.3530273
vt 0.8789063 0.3530273
vt 0.7705078 0.009963989
vt 0.7998047 0.2443848
vt 0.7998047 0.009963989
vt 0.7705078 0.2443848
vt 0.7998047 0.3530273
vt 0.7705078 0.3530273
vt 0.9208984 0.5527344
vt 0.8950195 0.5053711
vt 0.8950195 0.5527344
vt 0.9208984 0.503418
vt 0.8950195 0.4199219
vt 0.9204102 0.4147949
vt 0.8950195 0.3825684
vt 0.9355469 0.392334
vt 0.9174805 0.369873
vt 0.9873047 0.5522461
vt 0.9609375 0.5029297
vt 0.9609375 0.5522461
vt 0.9873047 0.5048828
vt 0.9614258 0.4143066
vt 0.9873047 0.4194336
vt 0.9873047 0.3820801
vt 0.9467773 0.3918457
vt 0.9648438 0.3693848
vt 0.9501953 0.659668
vt 0.9208984 0.6342773
vt 0.8950195 0.6416016
vt 0.8950195 0.7270508
vt 0.8354492 0.4287109
vt 0.8354492 0.4992676
vt 0.8710938 0.4992676
vt 0.8710938 0.4287109
vt 0.9873047 0.6650391
vt 0.9873047 0.5795898
vt 0.9609375 0.5722656
vt 0.9316406 0.5976563
vt 0.2729492 0.1450195
vt 0.4069824 0.2790527
vt 0.5429688 0.1450195
vt 0.4069824 0.01099396
vt 0.402832 0.1450195
vt 0.4069824 0.2790527
vt 0.5429688 0.1450195
vt 0.4069824 0.01099396
vt 0.2729492 0.1450195
vn -0.2331543 -0.2277832 0.9453125
vn 0.987793 -0.154541 0
vn 0.9990234 0.04238892 0
vn -0.04049683 0.003585815 0.9990234
vn -0.9462891 -0.3232422 0
vn -0.9990234 -0.04418945 0
vn -0.2331543 -0.2277832 -0.9453125
vn -0.04049683 0.003585815 -0.9990234
vn 0.987793 -0.154541 0
vn 0.9990234 0.04238892 0
vn -0.9990234 -0.04418945 0
vn -0.04049683 0.003585815 0.9990234
vn 0 0.1055298 0.9946289
vn -0.9946289 0.1036987 0
vn -0.04049683 0.003585815 -0.9990234
vn 0 0.1055298 -0.9946289
vn 0.9990234 0.04238892 0
vn 0 0.1055298 0.9946289
vn -0.04049683 0.003585815 0.9990234
vn 0.9941406 0.1073608 0
vn -0.04049683 0.003585815 -0.9990234
vn 0 0.1055298 -0.9946289
vn 0.6469727 -0.3334961 -0.6855469
vn 0.6469727 -0.3334961 0.6855469
vn 0.7578125 -0.1448975 0.6357422
vn 0.7578125 -0.1448975 -0.6357422
vn 0.6308594 0.5415039 0.5556641
vn 0.6308594 0.5415039 -0.5556641
vn -0.6240234 -0.2797852 -0.7294922
vn -0.6240234 -0.2797852 0.7294922
vn 0.5761719 -0.8173828 0
vn -0.7641602 0.4077148 -0.5
vn -0.7641602 0.4077148 0.5
vn -0.494873 0.7119141 -0.4980469
vn -0.494873 0.7119141 0.4980469
vn 0.6308594 0.5415039 -0.5556641
vn 0.6308594 0.5415039 0.5556641
vn 0.7578125 -0.1448975 -0.6357422
vn -0.8037109 0.5947266 0
vn 0.6469727 -0.3334961 -0.6855469
vn -0.972168 0.2352295 0
vn -0.7724609 -0.6347656 0
vn 0.6308594 0.5415039 -0.5556641
vn -0.8037109 0.5947266 0
vn 0.7578125 -0.1448975 0.6357422
vn 0.6469727 -0.3334961 0.6855469
vn -0.972168 0.2352295 0
vn 0.6308594 0.5415039 0.5556641
vn -0.7724609 -0.6347656 0
vn -0.7724609 -0.6347656 0
vn -0.494873 0.7119141 0.4980469
vn 0.6308594 0.5415039 0.5556641
vn 0.5737305 -0.8188477 0
vn -0.7641602 0.4077148 0.5
vn 0.9311523 -0.3640137 0
vn -0.6240234 -0.2797852 0.7294922
vn 0.9624023 0.2724609 0
vn 0.5761719 -0.8173828 0
vn 0.6308594 0.5415039 -0.5556641
vn 0.5737305 -0.8188477 0
vn -0.7724609 -0.6347656 0
vn -0.494873 0.7119141 -0.4980469
vn 0.9311523 -0.3640137 0
vn -0.7641602 0.4077148 -0.5
vn -0.6240234 -0.2797852 -0.7294922
vn 0.9624023 0.2724609 0
vn 0.5761719 -0.8173828 0
vn -0.4621582 0.8867188 0
vn -0.8037109 0.5947266 0
vn 0.6469727 -0.3334961 0.6855469
vn 0.7919922 -0.4836426 0.3730469
vn 0.7919922 -0.4836426 0.3730469
vn 0.6469727 -0.3334961 0.6855469
vn 0.6469727 -0.3334961 -0.6855469
vn 0.7919922 -0.4836426 -0.3730469
vn 0.7919922 -0.4836426 -0.3730469
vn 0.6469727 -0.3334961 -0.6855469
vn -0.8037109 0.5947266 0
vn -0.4621582 0.8867188 0
vn 0 -1 0
vn 0 -1 0
vn 0 -1 0
vn 0 -1 0
vn 0.2258301 0.9741211 0
vn 0.1862793 0.9301758 -0.3171387
vn 0.5927734 0.8056641 0
vn 0.1862793 0.9301758 0.3171387
vn -0.04870605 0.9990234 0
g r017v001_l_0
f 3/3/3 2/2/2 1/1/1
f 4/4/4 3/3/3 1/1/1
f 4/4/4 1/1/1 5/5/5
f 6/6/6 4/4/4 5/5/5
f 6/6/6 5/5/5 7/7/7
f 8/8/8 6/6/6 7/7/7
f 8/8/8 7/7/7 9/9/9
f 10/10/10 8/8/8 9/9/9
f 13/13/13 12/12/12 11/11/11
f 14/14/14 13/13/13 11/11/11
f 14/14/14 11/11/11 15/15/15
f 16/16/16 14/14/14 15/15/15
f 19/19/19 18/18/18 17/17/17
f 18/18/18 20/20/20 17/17/17
f 17/17/17 20/20/20 21/21/21
f 20/20/20 22/22/22 21/21/21
f 25/25/25 24/24/24 23/23/23
f 26/26/26 25/25/25 23/23/23
f 27/27/27 25/25/25 26/26/26
f 28/28/28 27/27/27 26/26/26
f 31/31/31 30/30/30 29/29/29
f 29/29/29 30/30/30 32/32/32
f 30/30/30 33/33/33 32/32/32
f 32/32/32 33/33/33 34/34/34
f 33/33/33 35/35/35 34/34/34
f 34/34/34 35/35/35 36/36/36
f 35/35/35 37/37/37 36/36/36
f 40/40/40 39/39/39 38/38/38
f 39/39/39 41/41/41 38/38/38
f 38/38/38 41/41/41 42/42/42
f 43/43/43 38/38/38 42/42/42
f 46/46/46 45/45/45 44/44/44
f 45/45/45 47/47/47 44/44/44
f 47/47/47 45/45/45 48/48/48
f 49/49/49 47/47/47 48/48/48
f 52/52/52 51/51/51 50/50/50
f 51/51/51 53/53/53 50/50/50
f 51/51/51 54/54/54 53/53/53
f 54/54/54 55/55/55 53/53/53
f 55/55/55 54/54/54 56/56/56
f 57/57/57 55/55/55 56/56/56
f 58/58/58 57/57/57 56/56/56
f 61/61/61 60/60/60 59/59/59
f 60/60/60 62/62/62 59/59/59
f 60/60/60 63/63/63 62/62/62
f 63/63/63 64/64/64 62/62/62
f 65/65/65 64/64/64 63/63/63
f 66/66/66 65/65/65 63/63/63
f 65/65/65 66/66/66 67/67/67
f 70/70/70 69/69/69 68/68/68
f 71/71/71 70/70/70 68/68/68
f 74/74/74 73/73/73 72/72/72
f 75/75/75 74/74/74 72/72/72
f 78/78/78 77/77/77 76/76/76
f 79/79/79 78/78/78 76/76/76
f 82/82/82 81/81/81 80/80/80
f 83/83/83 82/82/82 80/80/80
f 86/86/86 85/85/85 84/84/84
f 87/87/87 86/86/86 84/84/84
f 85/85/85 88/88/88 84/84/84
f 88/88/88 87/87/87 84/84/84
