#
# OBJECT NAME
#
o model_1762
mtllib 1762.mtl

#
# VERTEX BUFFER 000
#
v 0.772416 0 1.33155
v 1.5 0 0
v 1.5 0.165 -4.01417e-006
v 0.772416 0.165 1.33154
v -1.5 0.165 -4.01417e-006
v -1.5 0 0
v -0.772416 0 1.33155
v -0.772416 0.165 1.33154
v -0.0811508 0.0135862 -0.0557762
v -0.0925805 0.0135862 -0.0761641
v -0.106504 0.0135862 -0.0921967
v -0.117934 0.0135862 -0.112585
v -0.0950748 0.0135862 -0.0718087
v -0.0672269 0.0135862 -0.0397436
v -0.772416 0.165 -1.33155
v -1.5 0.165 -4.01417e-006
v -1.1625 0.165 -4.01889e-006
v -0.598623 0.165 -1.03195
v 0.772416 0.165 -1.33155
v 1.5 0.165 -4.01417e-006
v 1.5 0 0
v 0.772416 0 -1.33155
v -0.772416 0.165 1.33154
v -0.598623 0.165 1.03195
v -0.772416 0 -1.33155
v -1.5 0 0
v -1.5 0.165 -4.01417e-006
v -0.772416 0.165 -1.33155
v -0.772416 0.165 1.33154
v -0.772416 0 1.33155
v 0.772416 0 1.33155
v 0.772416 0.165 1.33154
v -0.772416 0 -1.33155
v -0.772416 0.165 -1.33155
v 0.772416 0.165 -1.33155
v 0.772416 0 -1.33155
v 1.5 0.165 -4.01417e-006
v 1.1625 0.165 -4.01889e-006
v 0.598623 0.165 1.03195
v 0.772416 0.165 1.33154
v 0.772416 0.165 -1.33155
v 0.598623 0.165 -1.03195
v 1.1625 0.165 -4.01889e-006
v 1.5 0.165 -4.01417e-006
v -0.598623 0.165 1.03195
v -0.772416 0.165 1.33154
v -0.772416 0.165 -1.33155
v -0.598623 0.165 -1.03195
v 0.390053 0.165 0.228552
v 0.256099 0.05 0.15006
v 0.149656 0.05 0.257984
v 0.227934 0.165 0.392926
v 0 0.165 0.457108
v 0 0.05 0.300124
v -0.149656 0.05 0.257984
v -0.227934 0.165 0.392926
v -0.390053 0.165 0.228552
v -0.256099 0.05 0.15006
v -0.290625 0.05 -4.01534e-006
v -0.442639 0.165 -4.01869e-006
v -0.390053 0.165 -0.22856
v -0.256099 0.05 -0.150068
v -0.149656 0.05 -0.257992
v -0.227934 0.165 -0.392934
v 0 0.165 -0.457116
v 0 0.05 -0.300132
v 0.149656 0.05 -0.257992
v 0.227934 0.165 -0.392934
v 0.390053 0.165 -0.22856
v 0.256099 0.05 -0.150068
v 0.290625 0.05 -4.01534e-006
v 0.442639 0.165 -4.01869e-006
v 0.598623 0.165 1.03195
v 1.1625 0.165 -4.01889e-006
v 1.1625 0.05 -4.01889e-006
v 0.598623 0.05 1.03195
v -0.598623 0.165 1.03195
v 0.598623 0.165 1.03195
v 0.598623 0.05 1.03195
v -0.598623 0.05 1.03195
v -1.1625 0.165 -4.01889e-006
v -0.598623 0.165 1.03195
v -0.598623 0.05 1.03195
v -1.1625 0.05 -4.01889e-006
v -0.598623 0.165 -1.03195
v -1.1625 0.165 -4.01889e-006
v -1.1625 0.05 -4.01889e-006
v -0.598623 0.05 -1.03195
v 0.598623 0.165 -1.03195
v -0.598623 0.165 -1.03195
v -0.598623 0.05 -1.03195
v 0.598623 0.05 -1.03195
v 1.1625 0.165 -4.01889e-006
v 0.598623 0.165 -1.03195
v 0.598623 0.05 -1.03195
v 1.1625 0.05 -4.01889e-006
v 1.1625 0.05 -4.01889e-006
v 0.598623 0.05 1.03195
v 0.598623 0.05 -1.03195
v -0.598623 0.05 -1.03195
v -1.1625 0.05 -4.01889e-006
v -0.598623 0.05 1.03195
v 0 0.05 -4.01417e-006
v -0.772416 0 -1.33155
v -0.598623 0 -1.03195
v -1.1625 0 0
v -1.5 0 0
v 0.772416 0 -1.33155
v 0.598623 0 -1.03196
v -0.598623 0 -1.03195
v -0.772416 0 -1.33155
v 0.772416 0 -1.33155
v 1.5 0 0
v 1.1625 0 0
v 0.598623 0 -1.03196
v 0.772416 0 1.33155
v 0.598623 0 1.03195
v 1.1625 0 0
v 1.5 0 0
v -0.772416 0 1.33155
v -0.598623 0 1.03195
v 0.598623 0 1.03195
v 0.772416 0 1.33155
v -1.5 0 0
v -1.1625 0 0
v 0 0 0
v -0.598623 0 1.03195
v -1.1625 0 0
v 0.598623 0 1.03195
v 1.1625 0 0
v 0.598623 0 -1.03196
v -0.598623 0 -1.03195

vn 0.877441 1.12653e-005 0.479492
vn 0.877441 1.12653e-005 0.479492
vn 0.877441 1.12653e-005 0.479492
vn 0.877441 1.12653e-005 0.479492
vn -0.877441 1.13845e-005 0.479492
vn -0.877441 1.13845e-005 0.479492
vn -0.877441 1.13845e-005 0.479492
vn -0.877441 1.13845e-005 0.479492
vn 0 1 0
vn 0 1 0
vn 0 1 0
vn 0 1 0
vn 0 1 0
vn 0 1 0
vn 0 1 0
vn 0 1 0
vn 0 1 0
vn 0 1 0
vn 0.877441 -1.12653e-005 -0.479492
vn 0.877441 -1.12653e-005 -0.479492
vn 0.877441 -1.12653e-005 -0.479492
vn 0.877441 -1.12653e-005 -0.479492
vn 0 1 0
vn 0 1 0
vn -0.877441 -1.12653e-005 -0.479492
vn -0.877441 -1.12653e-005 -0.479492
vn -0.877441 -1.12653e-005 -0.479492
vn -0.877441 -1.12653e-005 -0.479492
vn 0 2.45571e-005 1
vn 0 2.45571e-005 1
vn 0 2.45571e-005 1
vn 0 2.45571e-005 1
vn 0 -2.45571e-005 -1
vn 0 -2.45571e-005 -1
vn 0 -2.45571e-005 -1
vn 0 -2.45571e-005 -1
vn 0 1 0
vn 0 1 0
vn 0 1 0
vn 0 1 0
vn 0 1 0
vn 0 1 0
vn 0 1 0
vn 0 1 0
vn 0 1 0
vn 0 1 0
vn 0 1 0
vn 0 1 0
vn 0.0859985 0.995117 0.0464783
vn -0.292969 0.942383 -0.158813
vn -0.166382 0.944336 -0.283203
vn -0.014473 0.999512 -0.0253296
vn 0 0.995117 0.0968628
vn 0 0.943848 -0.32959
vn 0.166382 0.944336 -0.283203
vn 0.014473 0.999512 -0.0253296
vn -0.0859985 0.995117 0.0464783
vn 0.292969 0.942383 -0.158813
vn 0.329834 0.943848 0
vn 0.0357056 0.999023 0
vn -0.0859985 0.995117 -0.0464783
vn 0.292969 0.942383 0.158813
vn 0.166382 0.944336 0.283203
vn 0.014473 0.999512 0.0253296
vn 0 0.995117 -0.0968628
vn 0 0.943848 0.32959
vn -0.166382 0.944336 0.283203
vn -0.014473 0.999512 0.0253296
vn 0.0859985 0.995117 -0.0464783
vn -0.292969 0.942383 0.158813
vn -0.329834 0.943848 0
vn -0.0357056 0.999023 0
vn -0.877441 0 -0.479492
vn -0.877441 0 -0.479492
vn -0.877441 0 -0.479492
vn -0.877441 0 -0.479492
vn 0 0 -1
vn 0 0 -1
vn 0 0 -1
vn 0 0 -1
vn 0.877441 0 -0.479492
vn 0.877441 0 -0.479492
vn 0.877441 0 -0.479492
vn 0.877441 0 -0.479492
vn 0.877441 0 0.479492
vn 0.877441 0 0.479492
vn 0.143188 0.974121 0.171997
vn 0.235229 0.971191 0.0300903
vn 0 0 1
vn 0 0 1
vn 0 0 1
vn 0 0 1
vn -0.877441 0 0.479492
vn -0.877441 0 0.479492
vn -0.877441 0 0.479492
vn -0.877441 0 0.479492
vn 0.173462 0.984375 0
vn 0.0848999 0.985352 0.14624
vn 0.0848999 0.985352 -0.14624
vn 0.235229 0.971191 0.0300903
vn 0.143188 0.974121 0.171997
vn -0.0848999 0.985352 0.14624
vn 0 1 0
vn 0 -1 0
vn 0 -1 0
vn 0 -1 0
vn 0 -1 0
vn 0 -1 0
vn 0 -1 0
vn 0 -1 0
vn 0 -1 0
vn 0 -1 0
vn 0 -1 0
vn 0 -1 0
vn 0 -1 0
vn 0 -1 0
vn 0 -1 0
vn 0 -1 0
vn 0 -1 0
vn 0 -1 0
vn 0 -1 0
vn 0 -1 0
vn 0 -1 0
vn 0 -1 0
vn 0 -1 0
vn 0 -1 0
vn 0 -1 0
vn 0 -1 0
vn 0 -1 0
vn 0 -1 0
vn 0 -1 0
vn 0 -1 0

vt 0.111713 0.926735
vt 0.461195 0.926735
vt 0.461195 0.982143
vt 0.111713 0.982143
vt 0.111713 0.982143
vt 0.111713 0.926735
vt 0.461195 0.926735
vt 0.461195 0.982143
vt -0.445671 1.67458
vt -0.44731 1.67759
vt -0.449307 1.67991
vt -0.450946 1.68292
vt -0.447668 1.6769
vt -0.443675 1.67227
vt 0.988404 0.474134
vt 0.988404 0.987537
vt 0.910818 0.910228
vt 0.910818 0.551538
vt 0.459525 0.0793026
vt 0.116226 0.0793025
vt 0.116226 0.023894
vt 0.459525 0.0238939
vt 0.487401 0.987537
vt 0.563837 0.910228
vt 0.116226 0.0238941
vt 0.459525 0.023894
vt 0.459525 0.0793026
vt 0.116226 0.0793026
vt 0.116226 0.0793025
vt 0.116226 0.023894
vt 0.459525 0.0238939
vt 0.459525 0.0793026
vt 0.461195 0.926735
vt 0.461195 0.982144
vt 0.111713 0.982143
vt 0.111713 0.926735
vt 0.487401 0.987537
vt 0.563837 0.910228
vt 0.910818 0.910228
vt 0.988404 0.987537
vt 0.988404 0.987537
vt 0.910818 0.910228
vt 0.910818 0.551538
vt 0.988404 0.474134
vt 0.910818 0.551538
vt 0.988404 0.474134
vt 0.487401 0.987537
vt 0.563837 0.910228
vt 0.401767 0.51292
vt 0.367121 0.535789
vt 0.339591 0.504345
vt 0.359837 0.465028
vt 0.300884 0.446328
vt 0.300884 0.492067
vt 0.262178 0.504345
vt 0.241932 0.465028
vt 0.200002 0.51292
vt 0.234648 0.535789
vt 0.225718 0.579511
vt 0.186401 0.579511
vt 0.200002 0.646103
vt 0.234648 0.623234
vt 0.262178 0.654678
vt 0.241932 0.693994
vt 0.300884 0.712694
vt 0.300885 0.666956
vt 0.339591 0.654678
vt 0.359837 0.693994
vt 0.401767 0.646103
vt 0.367121 0.623233
vt 0.376051 0.579511
vt 0.415368 0.579511
vt 0.88788 0.877479
vt 0.537075 0.877479
vt 0.537075 0.833567
vt 0.88788 0.833567
vt 0.88788 0.877479
vt 0.537075 0.877479
vt 0.537075 0.833567
vt 0.88788 0.833567
vt 0.88788 0.877479
vt 0.537075 0.877479
vt 0.537075 0.833567
vt 0.88788 0.833567
vt 0.88788 0.877479
vt 0.537076 0.877479
vt 0.537075 0.833567
vt 0.88788 0.833567
vt 0.88788 0.877479
vt 0.537075 0.877479
vt 0.537075 0.833567
vt 0.88788 0.833567
vt 0.88788 0.877479
vt 0.537075 0.877479
vt 0.537075 0.833567
vt 0.88788 0.833567
vt 0.607875 0.588997
vt 0.462035 0.28833
vt 0.462035 0.889663
vt 0.152382 0.889663
vt 0.0065417 0.588997
vt 0.152382 0.28833
vt 0.300884 0.579511
vt 0.988404 0.474134
vt 0.910818 0.551538
vt 0.910818 0.910228
vt 0.988404 0.987537
vt 0.487401 0.987537
vt 0.563837 0.910228
vt 0.910818 0.910228
vt 0.988404 0.987537
vt 0.988404 0.987537
vt 0.988404 0.474134
vt 0.910818 0.551538
vt 0.910818 0.910228
vt 0.487401 0.987537
vt 0.563837 0.910228
vt 0.910818 0.910228
vt 0.988404 0.987537
vt 0.988404 0.987537
vt 0.910818 0.910228
vt 0.910818 0.551538
vt 0.988404 0.474134
vt 0.487401 0.987537
vt 0.563837 0.910228
vt 0.751947 0.627003
vt 0.81328 0.531821
vt 0.871053 0.627003
vt 0.690614 0.531821
vt 0.63284 0.627003
vt 0.690614 0.722185
vt 0.81328 0.722185


#
# MESH 000
#
g surface_000
usemtl surface_000
f 124/124/124 125/125/125 121/121/121
f 124/124/124 121/121/121 120/120/120
f 120/120/120 121/121/121 122/122/122
f 120/120/120 122/122/122 123/123/123
f 116/116/116 118/118/118 119/119/119
f 116/116/116 117/117/117 118/118/118
f 112/112/112 114/114/114 115/115/115
f 112/112/112 113/113/113 114/114/114
f 108/108/108 110/110/110 111/111/111
f 108/108/108 109/109/109 110/110/110
f 104/104/104 106/106/106 107/107/107
f 104/104/104 105/105/105 106/106/106
f 93/93/93 95/95/95 96/96/96
f 93/93/93 94/94/94 95/95/95
f 89/89/89 91/91/91 92/92/92
f 89/89/89 90/90/90 91/91/91
f 85/85/85 87/87/87 88/88/88
f 85/85/85 86/86/86 87/87/87
f 81/81/81 83/83/83 84/84/84
f 81/81/81 82/82/82 83/83/83
f 77/77/77 79/79/79 80/80/80
f 77/77/77 78/78/78 79/79/79
f 73/73/73 75/75/75 76/76/76
f 73/73/73 74/74/74 75/75/75
f 47/47/47 48/48/48 42/42/42
f 47/47/47 42/42/42 41/41/41
f 41/41/41 42/42/42 43/43/43
f 41/41/41 43/43/43 44/44/44
f 40/40/40 45/45/45 46/46/46
f 40/40/40 39/39/39 45/45/45
f 37/37/37 39/39/39 40/40/40
f 37/37/37 38/38/38 39/39/39
f 33/33/33 35/35/35 36/36/36
f 33/33/33 34/34/34 35/35/35
f 29/29/29 31/31/31 32/32/32
f 29/29/29 30/30/30 31/31/31
f 25/25/25 27/27/27 28/28/28
f 25/25/25 26/26/26 27/27/27
f 23/23/23 24/24/24 17/17/17
f 23/23/23 17/17/17 16/16/16
f 15/15/15 16/16/16 17/17/17
f 15/15/15 17/17/17 18/18/18
f 19/19/19 21/21/21 22/22/22
f 19/19/19 20/20/20 21/21/21
f 14/14/14 10/10/10 9/9/9
f 9/9/9 10/10/10 11/11/11
f 9/9/9 11/11/11 13/13/13
f 11/11/11 10/10/10 12/12/12
f 5/5/5 7/7/7 8/8/8
f 5/5/5 6/6/6 7/7/7
f 1/1/1 3/3/3 4/4/4
f 1/1/1 2/2/2 3/3/3
f 126/126/126 128/128/128 132/132/132
f 126/126/126 127/127/127 128/128/128
f 126/126/126 129/129/129 127/127/127
f 126/126/126 130/130/130 129/129/129
f 126/126/126 131/131/131 130/130/130
f 126/126/126 132/132/132 131/131/131
f 102/102/102 57/57/57 101/101/101
f 56/56/56 57/57/57 102/102/102
f 55/55/55 57/57/57 56/56/56
f 55/55/55 58/58/58 57/57/57
f 57/57/57 58/58/58 59/59/59
f 57/57/57 59/59/59 60/60/60
f 101/101/101 57/57/57 60/60/60
f 60/60/60 61/61/61 101/101/101
f 101/101/101 61/61/61 100/100/100
f 102/102/102 53/53/53 56/56/56
f 53/53/53 55/55/55 56/56/56
f 53/53/53 54/54/54 55/55/55
f 103/103/103 55/55/55 54/54/54
f 103/103/103 58/58/58 55/55/55
f 103/103/103 59/59/59 58/58/58
f 103/103/103 62/62/62 59/59/59
f 59/59/59 62/62/62 61/61/61
f 59/59/59 61/61/61 60/60/60
f 98/98/98 53/53/53 102/102/102
f 52/52/52 53/53/53 98/98/98
f 51/51/51 53/53/53 52/52/52
f 51/51/51 54/54/54 53/53/53
f 103/103/103 54/54/54 51/51/51
f 98/98/98 49/49/49 52/52/52
f 49/49/49 51/51/51 52/52/52
f 49/49/49 50/50/50 51/51/51
f 103/103/103 51/51/51 50/50/50
f 97/97/97 49/49/49 98/98/98
f 72/72/72 49/49/49 97/97/97
f 71/71/71 49/49/49 72/72/72
f 71/71/71 50/50/50 49/49/49
f 103/103/103 50/50/50 71/71/71
f 103/103/103 71/71/71 70/70/70
f 103/103/103 70/70/70 67/67/67
f 103/103/103 67/67/67 66/66/66
f 103/103/103 66/66/66 63/63/63
f 103/103/103 63/63/63 62/62/62
f 97/97/97 69/69/69 72/72/72
f 69/69/69 71/71/71 72/72/72
f 69/69/69 70/70/70 71/71/71
f 67/67/67 70/70/70 69/69/69
f 67/67/67 69/69/69 68/68/68
f 65/65/65 67/67/67 68/68/68
f 65/65/65 66/66/66 67/67/67
f 63/63/63 66/66/66 65/65/65
f 63/63/63 65/65/65 64/64/64
f 61/61/61 63/63/63 64/64/64
f 61/61/61 62/62/62 63/63/63
f 99/99/99 69/69/69 97/97/97
f 68/68/68 69/69/69 99/99/99
f 99/99/99 65/65/65 68/68/68
f 100/100/100 65/65/65 99/99/99
f 64/64/64 65/65/65 100/100/100
f 100/100/100 61/61/61 64/64/64

