#
# OBJECT NAME
#
o model_2105
mtllib 2105.mtl

#
# VERTEX BUFFER 000
#
v 0.772416 0 1.33155
v 1.5 0 0
v 1.5 0.165 -4.01417e-006
v 0.772416 0.165 1.33154
v -1.5 0.165 -4.01417e-006
v -1.5 0 0
v -0.772416 0 1.33155
v -0.772416 0.165 1.33154
v -0.106504 0.0135862 -0.0921967
v -0.0938276 0.0135862 -0.0739864
v -0.117934 0.0135862 -0.112585
v -0.0672269 0.0135862 -0.0397436
v -0.0938276 0.0135862 -0.0739864
v -0.0811508 0.0135862 -0.0557762
v -0.772416 0.165 -1.33155
v -1.5 0.165 -4.01417e-006
v -1.1625 0.165 -4.01889e-006
v -0.598623 0.165 -1.03195
v 0.772416 0.165 -1.33155
v 1.5 0.165 -4.01417e-006
v 1.5 0 0
v 0.772416 0 -1.33155
v -0.772416 0.165 1.33154
v -0.598623 0.165 1.03195
v -0.772416 0 -1.33155
v -1.5 0 0
v -1.5 0.165 -4.01417e-006
v -0.772416 0.165 -1.33155
v -0.772416 0.165 1.33154
v -0.772416 0 1.33155
v 0.772416 0 1.33155
v 0.772416 0.165 1.33154
v -0.772416 0 -1.33155
v -0.772416 0.165 -1.33155
v 0.772416 0.165 -1.33155
v 0.772416 0 -1.33155
v 1.5 0.165 -4.01417e-006
v 1.1625 0.165 -4.01889e-006
v 0.598623 0.165 1.03195
v 0.772416 0.165 1.33154
v 0.772416 0.165 -1.33155
v 0.598623 0.165 -1.03195
v 1.1625 0.165 -4.01889e-006
v 1.5 0.165 -4.01417e-006
v -0.598623 0.165 1.03195
v -0.772416 0.165 1.33154
v -0.772416 0.165 -1.33155
v -0.598623 0.165 -1.03195
v 0 0.298104 -4.01045e-006
v -0.180238 0.324772 0.5211
v 0.328785 0.344256 0.426204
v -0.56487 0.321363 -0.00760127
v 0.198222 0.335572 -0.4935
v -0.269872 0.352408 -0.46523
v 0.612239 0.301482 -0.0703253
v 0.598623 0.165 1.03195
v -0.772416 0 -1.33155
v -0.598623 0 -1.03195
v -1.1625 0 0
v -1.5 0 0
v 0.772416 0 -1.33155
v 0.598623 0 -1.03196
v -0.598623 0 -1.03195
v -0.772416 0 -1.33155
v 0.772416 0 -1.33155
v 1.5 0 0
v 1.1625 0 0
v 0.598623 0 -1.03196
v 0.772416 0 1.33155
v 0.598623 0 1.03195
v 1.1625 0 0
v 1.5 0 0
v -0.772416 0 1.33155
v -0.598623 0 1.03195
v 0.598623 0 1.03195
v 0.772416 0 1.33155
v -1.5 0 0
v -1.1625 0 0
v 0 0 0
v -0.598623 0 1.03195
v -1.1625 0 0
v 0.598623 0 1.03195
v 1.1625 0 0
v 0.598623 0 -1.03196
v -0.598623 0 -1.03195
v 0.598623 0.165 -1.03195
v -0.598623 0.165 -1.03195
v -0.598623 0.165 1.03195
v -1.1625 0.165 -4.01889e-006
v 1.1625 0.165 -4.01889e-006
v -0.0811508 0.0135862 -0.0557762
v -0.106504 0.0135862 -0.0921967
v -0.0938276 0.0135862 -0.0739864
v -0.0811508 0.0135862 -0.0557762
v -0.0938276 0.0135862 -0.0739864
v -0.106504 0.0135862 -0.0921967
v 0.000704799 0.676453 0.0696483
v 0.0178425 0.554346 0.167402
v 0.177231 0.563732 -0.0053867
v 0.147603 0.430145 0.33772
v 0.226575 0.302123 0.445058
v 0.476478 0.306446 0.204798
v 0.340445 0.443534 0.14455
v -0.122313 0.435618 0.329945
v 0.0128099 0.299325 0.531882
v 0.0598515 0.692995 -0.0482636
v 0.00188523 0.557415 -0.183766
v 0.341592 0.43855 -0.102926
v 0.433993 0.296959 -0.248668
v 0.258943 0.305517 -0.426319
v 0.205942 0.415107 -0.262807
v 0.547615 0.297807 -0.050218
v -0.0584419 0.689325 -0.0482636
v -0.165491 0.551783 0.0145186
v -0.158434 0.443669 -0.306755
v -0.250642 0.296959 -0.436211
v -0.464188 0.315875 -0.207815
v -0.318175 0.445029 -0.112566
v 0.00444271 0.292958 -0.537922
v 0.0526925 0.440472 -0.386106
v 0.000704799 0.676453 0.0696483
v -0.0584419 0.689325 -0.0482636
v -0.309126 0.435363 0.135648
v -0.433578 0.313496 0.229476
v -0.210891 0.304502 0.462141
v 0.000704799 0.676453 0.0696483
v 0.0598515 0.692995 -0.0482636
v -0.524404 0.303433 0.0301176
v -0.0866227 0.713864 0.40203
v 0.146979 0.677001 0.24707
v -0.00473413 0.674119 -0.0173415
v -0.270926 0.686004 0.170801
v 0.451188 0.735143 0.0368079
v 0.250363 0.770537 -0.165391
v -0.206826 0.763645 -0.229053
v -0.429366 0.77893 -0.0261427
v 0.078952 0.821991 -0.424793
v -0.0867692 0.71156 0.401877
v -0.271072 0.6837 0.170648
v -0.00488065 0.671815 -0.0174945
v 0.146832 0.674696 0.246917
v 0.250217 0.768233 -0.165544
v 0.451042 0.732839 0.0366548
v -0.429513 0.776626 -0.0262958
v -0.206972 0.761341 -0.229206
v 0.0788055 0.819687 -0.424946

vn 0.877441 1.12653e-005 0.479492
vn 0.877441 1.12653e-005 0.479492
vn 0.877441 1.12653e-005 0.479492
vn 0.877441 1.12653e-005 0.479492
vn -0.877441 1.13845e-005 0.479492
vn -0.877441 1.13845e-005 0.479492
vn -0.877441 1.13845e-005 0.479492
vn -0.877441 1.13845e-005 0.479492
vn 0 1 -5.36442e-007
vn 0 1 -5.36442e-007
vn 0 1 -5.36442e-007
vn 0 1 5.36442e-007
vn 0 1 5.36442e-007
vn 0 1 5.36442e-007
vn 0 1 0
vn 0 1 0
vn 0 1 0
vn 0 1 0
vn 0.877441 -1.12653e-005 -0.479492
vn 0.877441 -1.12653e-005 -0.479492
vn 0.877441 -1.12653e-005 -0.479492
vn 0.877441 -1.12653e-005 -0.479492
vn 0 1 0
vn 0 1 0
vn -0.877441 -1.12653e-005 -0.479492
vn -0.877441 -1.12653e-005 -0.479492
vn -0.877441 -1.12653e-005 -0.479492
vn -0.877441 -1.12653e-005 -0.479492
vn 0 2.45571e-005 1
vn 0 2.45571e-005 1
vn 0 2.45571e-005 1
vn 0 2.45571e-005 1
vn 0 -2.45571e-005 -1
vn 0 -2.45571e-005 -1
vn 0 -2.45571e-005 -1
vn 0 -2.45571e-005 -1
vn 0 1 0
vn 0 1 0
vn 0 1 0
vn 0 1 0
vn 0 1 0
vn 0 1 0
vn 0 1 0
vn 0 1 0
vn 0 1 0
vn 0 1 0
vn 0 1 0
vn 0 1 0
vn 0.0108109 0.999512 0.00564575
vn -0.0589294 0.981934 0.179321
vn 0.125732 0.98584 0.109436
vn -0.220093 0.975098 -0.0259857
vn 0.0960083 0.975586 -0.195923
vn -0.115051 0.975098 -0.187134
vn 0.211304 0.975586 -0.0516968
vn 0.121094 0.967773 0.218994
vn 0 -1 0
vn 0 -1 0
vn 0 -1 0
vn 0 -1 0
vn 0 -1 0
vn 0 -1 0
vn 0 -1 0
vn 0 -1 0
vn 0 -1 0
vn 0 -1 0
vn 0 -1 0
vn 0 -1 0
vn 0 -1 0
vn 0 -1 0
vn 0 -1 0
vn 0 -1 0
vn 0 -1 0
vn 0 -1 0
vn 0 -1 0
vn 0 -1 0
vn 0 -1 0
vn 0 -1 0
vn 0 -1 0
vn 0 -1 0
vn 0 -1 0
vn 0 -1 0
vn 0 -1 0
vn 0 -1 0
vn 0 -1 0
vn 0.13501 0.966309 -0.218384
vn -0.134644 0.964844 -0.225464
vn -0.120056 0.96875 0.216553
vn -0.264648 0.963867 -0.0265198
vn 0.235596 0.971191 -0.0216217
vn 0 1 0
vn 0 1 0
vn 0 1 0
vn 0 -1 0
vn 0 -1 0
vn 0 -1 0
vn -0.0182953 0.761719 0.646973
vn 0.0314941 0.85791 0.512207
vn 0.518066 0.854004 -0.0428162
vn 0.304443 0.791504 0.529297
vn 0.423096 0.71582 0.554688
vn 0.550781 0.731445 0.401367
vn 0.504395 0.794434 0.337158
vn -0.290039 0.819824 0.493164
vn 0.00892639 0.791992 0.609863
vn 0.528809 0.771973 -0.351318
vn 0.0067215 0.855957 -0.516113
vn 0.508301 0.816895 -0.270996
vn 0.477295 0.776367 -0.411377
vn 0.393555 0.754883 -0.524414
vn 0.406738 0.78418 -0.467773
vn 0.613281 0.785645 -0.0778809
vn -0.599609 0.71582 -0.357178
vn -0.522949 0.850098 0.0547485
vn -0.37207 0.796387 -0.476318
vn -0.395752 0.758301 -0.51709
vn -0.513672 0.779297 -0.35791
vn -0.5 0.824219 -0.264893
vn 0.0845337 0.761719 -0.64209
vn 0.184082 0.791504 -0.58252
vn -0.0182953 0.761719 0.646973
vn -0.599609 0.71582 -0.357178
vn -0.48584 0.816895 0.310547
vn -0.486816 0.780273 0.39209
vn -0.375977 0.777832 0.50293
vn -0.0182953 0.761719 0.646973
vn 0.528809 0.771973 -0.351318
vn -0.581543 0.812012 0.0445251
vn 0.037323 0.995117 -0.0870361
vn -0.0577087 0.99707 0.0479431
vn 0.00029254 0.984375 0.175903
vn 0.138794 0.987305 0.0730591
vn -0.151611 0.971191 0.182251
vn -0.108643 0.960938 0.25293
vn 0.083252 0.956055 0.279297
vn 0.22937 0.947754 0.220825
vn -0.0600891 0.941895 0.32959
vn -0.037323 -0.995117 0.0870361
vn -0.138794 -0.987305 -0.0730591
vn -0.00029254 -0.984375 -0.175903
vn 0.0577087 -0.99707 -0.0479431
vn 0.108643 -0.960938 -0.25293
vn 0.151611 -0.971191 -0.182251
vn -0.22937 -0.947754 -0.220825
vn -0.083252 -0.956055 -0.279297
vn 0.0600891 -0.941895 -0.32959

vt 0.112849 0.465433
vt 0.460326 0.465433
vt 0.460326 0.493204
vt 0.112849 0.493204
vt 0.112849 0.493204
vt 0.112849 0.465433
vt 0.460326 0.465432
vt 0.460326 0.493204
vt -0.449307 1.67991
vt -0.44731 1.67759
vt -0.450946 1.68292
vt -0.443675 1.67227
vt -0.44731 1.67759
vt -0.445671 1.67458
vt 0.993058 0.236031
vt 0.993058 0.495907
vt 0.915161 0.457159
vt 0.915161 0.274826
vt 0.462056 0.0406942
vt 0.11738 0.0406941
vt 0.11738 0.012923
vt 0.462056 0.0129229
vt 0.486637 0.495907
vt 0.56338 0.457159
vt 0.11738 0.012923
vt 0.462056 0.0129229
vt 0.462056 0.0406942
vt 0.11738 0.0406942
vt 0.11738 0.0406941
vt 0.11738 0.012923
vt 0.462056 0.0129229
vt 0.462056 0.0406942
vt 0.460326 0.465433
vt 0.460326 0.493204
vt 0.112849 0.493204
vt 0.112849 0.465433
vt 0.486637 0.495907
vt 0.56338 0.457159
vt 0.915161 0.457159
vt 0.993058 0.495907
vt 0.993058 0.495907
vt 0.915161 0.457159
vt 0.915161 0.274826
vt 0.993058 0.236031
vt 0.915161 0.274826
vt 0.993058 0.236031
vt 0.486637 0.495907
vt 0.56338 0.457159
vt 0.302779 0.291402
vt 0.257207 0.216226
vt 0.389038 0.229832
vt 0.157499 0.28855
vt 0.355393 0.364321
vt 0.233418 0.359877
vt 0.463775 0.303185
vt 0.464576 0.14546
vt 0.993058 0.236031
vt 0.915161 0.274826
vt 0.915161 0.457159
vt 0.993058 0.495907
vt 0.486637 0.495907
vt 0.56338 0.457159
vt 0.915161 0.457159
vt 0.993058 0.495907
vt 0.993058 0.495907
vt 0.993058 0.236031
vt 0.915161 0.274826
vt 0.915161 0.457159
vt 0.486637 0.495907
vt 0.56338 0.457159
vt 0.915161 0.457159
vt 0.993058 0.495907
vt 0.993058 0.495907
vt 0.915161 0.457159
vt 0.915161 0.274826
vt 0.993058 0.236031
vt 0.486637 0.495907
vt 0.56338 0.457159
vt 0.755651 0.315205
vt 0.817231 0.267499
vt 0.875236 0.315205
vt 0.694072 0.267499
vt 0.636067 0.315205
vt 0.694072 0.362911
vt 0.817231 0.362911
vt 0.464576 0.446852
vt 0.153681 0.446852
vt 0.153681 0.14546
vt 0.00725549 0.296156
vt 0.611001 0.296156
vt -0.445671 1.67458
vt -0.449307 1.67991
vt -0.447668 1.6769
vt -0.445671 1.67458
vt -0.44731 1.67759
vt -0.449307 1.67991
vt 0.622766 0.677855
vt 0.574641 0.646459
vt 0.721488 0.648696
vt 0.565221 0.592175
vt 0.552186 0.568797
vt 0.749357 0.568593
vt 0.720951 0.595248
vt 0.458418 0.646908
vt 0.476435 0.582284
vt 0.678993 0.686992
vt 0.732014 0.720465
vt 0.831399 0.63992
vt 0.878031 0.644417
vt 0.877865 0.712242
vt 0.820655 0.696678
vt 0.844621 0.595318
vt 0.641799 0.705689
vt 0.548904 0.718081
vt 0.704271 0.785192
vt 0.719763 0.804338
vt 0.539531 0.805957
vt 0.55641 0.776033
vt 0.84522 0.779048
vt 0.817214 0.757845
vt 0.604556 0.686992
vt 0.641528 0.705189
vt 0.456399 0.722874
vt 0.404542 0.734371
vt 0.398485 0.644775
vt 0.641528 0.668473
vt 0.679081 0.686896
vt 0.430578 0.768491
vt 0.00464582 0.796605
vt 0.00464582 0.732411
vt 0.131106 0.732411
vt 0.131106 0.796605
vt 0.00464582 0.673737
vt 0.131106 0.673737
vt 0.253769 0.732411
vt 0.253769 0.796605
vt 0.253769 0.673737
vt 0.00464582 0.796605
vt 0.131106 0.796605
vt 0.131106 0.732411
vt 0.00464582 0.732411
vt 0.131106 0.673737
vt 0.00464582 0.673737
vt 0.253769 0.796605
vt 0.253769 0.732411
vt 0.253769 0.673737


#
# VERTEX BUFFER 001
#
v 0.0755133 0.722094 -0.0616966
v -0.00275409 0.678136 -0.0162728
v 0.137129 0.709878 0.000340909
v -0.0278786 0.702533 0.112396
v -0.0844254 0.692917 0.0414517
v -0.0647585 0.719715 -0.081229
v 0.0580068 0.743305 0.0450985
v 0.0433938 0.733872 -0.0107419
v 0.0851704 0.682201 0.0183328
v 0.113571 0.748213 0.0281015
v 0.0580068 0.743305 0.0450985
v 0.0994671 0.736176 -0.0271747
v 0.113571 0.748213 0.0281015
v 0.0433938 0.733872 -0.0107419
v 0.0743737 0.777189 0.00276917
v -0.066979 0.767432 -0.0539981
v -0.108838 0.756915 -0.0925187
v -0.0610804 0.709237 -0.0841818
v -0.0252118 0.766155 -0.0941414
v -0.066979 0.767432 -0.0539981
v -0.0670709 0.755638 -0.133252
v -0.0252118 0.766155 -0.0941414
v -0.0670709 0.755638 -0.133252
v -0.0706765 0.793662 -0.0994262
v 0.100643 0.770755 -0.0703326
v 0.0505251 0.763183 -0.0412316
v 0.072091 0.705201 -0.0786406
v 0.0706929 0.764338 -0.120207
v 0.0208235 0.75436 -0.0909561
v 0.0706929 0.764338 -0.120207
v 0.0505251 0.763183 -0.0412316
v 0.0208235 0.75436 -0.0909561
v 0.0535391 0.799744 -0.081996
v -0.0638541 0.746907 0.00245426
v -0.064966 0.732063 0.0641168
v -0.0939843 0.674781 0.0222841
v -0.127277 0.741614 0.00417779
v -0.0638541 0.746907 0.00245426
v -0.128699 0.731848 0.0674656
v -0.127277 0.741614 0.00417779
v -0.128699 0.731848 0.0674656
v -0.0976852 0.77906 0.0427465
v 0.000731118 0.747687 0.121718
v -0.0511064 0.738409 0.0927466
v 0.00116909 0.684762 0.0833472
v 0.0294488 0.753395 0.0695943
v 0.000731118 0.747687 0.121718
v -0.0211802 0.740517 0.0408412
v 0.0294488 0.753395 0.0695943
v -0.0511064 0.738409 0.0927466
v -0.018199 0.783461 0.0798448

vn -0.198608 0.852539 0.48291
vn -0.0575562 0.992188 0.109131
vn -0.219482 0.975098 -0.0153122
vn -0.109314 0.972168 -0.205688
vn 0.167847 0.985352 -0.014801
vn 0.140625 0.88916 0.434814
vn -0.486816 0.0207062 0.873047
vn -0.855957 -0.213989 -0.469971
vn 0.109375 -0.980957 0.159668
vn 0.864746 0.137939 0.482422
vn -0.486816 0.0207062 0.873047
vn 0.502441 -0.149414 -0.851074
vn 0.864746 0.137939 0.482422
vn -0.855957 -0.213989 -0.469971
vn -0.112732 0.97998 -0.161255
vn 0.0062294 0.114197 0.993164
vn -0.983887 -0.175537 0.0239868
vn 0.111267 -0.981934 0.151123
vn 0.998535 0.0434875 -0.0118332
vn 0.0062294 0.114197 0.993164
vn 0.00655365 -0.226196 -0.973633
vn 0.998535 0.0434875 -0.0118332
vn 0.00655365 -0.226196 -0.973633
vn -0.111389 0.981445 -0.155884
vn 0.959961 0.130493 0.247314
vn -0.239868 -0.0537109 0.969238
vn 0.191406 -0.980469 0.0334473
vn 0.254395 -0.0255432 -0.966309
vn -0.93457 -0.259033 -0.242188
vn 0.254395 -0.0255432 -0.966309
vn -0.239868 -0.0537109 0.969238
vn -0.93457 -0.259033 -0.242188
vn -0.192749 0.980469 -0.0355835
vn 0.696777 0.130615 -0.705078
vn 0.717773 -0.171997 0.674316
vn 0.0301666 -0.980957 -0.190552
vn -0.711426 0.0462341 -0.700684
vn 0.696777 0.130615 -0.705078
vn -0.695801 -0.193359 0.690918
vn -0.711426 0.0462341 -0.700684
vn -0.695801 -0.193359 0.690918
vn -0.0375061 0.97998 0.193848
vn 0.273438 0.0215149 0.961426
vn -0.938477 -0.210571 0.273438
vn 0.188843 -0.980957 0.037262
vn 0.952148 0.141602 -0.269775
vn 0.273438 0.0215149 0.961426
vn -0.246338 -0.148071 -0.95752
vn 0.952148 0.141602 -0.269775
vn -0.938477 -0.210571 0.273438
vn -0.194702 0.97998 -0.0334167

vt 0.105043 0.57358
vt 0.0494608 0.573127
vt 0.105195 0.549381
vt 0.000104696 0.549265
vt 0.000241995 0.57238
vt 0.0518985 0.597869
vt 0.129798 0.648332
vt 0.05285 0.648374
vt 0.0785565 0.604159
vt 0.104283 0.648374
vt 0.0267378 0.648332
vt 0.0789029 0.648414
vt 0.0268869 0.648377
vt 0.129671 0.648376
vt 0.0788908 0.671071
vt 0.128909 0.648279
vt 0.0789056 0.648418
vt 0.0785565 0.604159
vt 0.129167 0.648346
vt 0.0532953 0.648278
vt 0.103897 0.648384
vt 0.0273665 0.648344
vt 0.0276414 0.648383
vt 0.0788908 0.671071
vt 0.0788882 0.648415
vt 0.0277885 0.648349
vt 0.0785565 0.604159
vt 0.128768 0.648349
vt 0.12893 0.648315
vt 0.0533517 0.648348
vt 0.103807 0.648349
vt 0.0276272 0.648316
vt 0.0788908 0.671071
vt 0.133252 0.648572
vt 0.078925 0.648475
vt 0.0785565 0.604159
vt 0.133086 0.648511
vt 0.0509687 0.648572
vt 0.106186 0.64857
vt 0.0233775 0.64851
vt 0.0232173 0.64857
vt 0.0788908 0.671071
vt 0.131899 0.648457
vt 0.0516677 0.648497
vt 0.0785565 0.604159
vt 0.105462 0.648499
vt 0.0246083 0.648458
vt 0.0789038 0.64845
vt 0.024588 0.6485
vt 0.131902 0.648498
vt 0.0788908 0.671071


#
# MESH 000
#
g surface_000
usemtl surface_000
f 94/94/94 95/95/95 96/96/96
f 91/91/91 92/92/92 93/93/93
f 12/12/12 13/13/13 14/14/14
f 9/9/9 10/10/10 11/11/11
f 77/77/77 78/78/78 74/74/74
f 77/77/77 74/74/74 73/73/73
f 73/73/73 74/74/74 75/75/75
f 73/73/73 75/75/75 76/76/76
f 69/69/69 71/71/71 72/72/72
f 69/69/69 70/70/70 71/71/71
f 65/65/65 67/67/67 68/68/68
f 65/65/65 66/66/66 67/67/67
f 61/61/61 63/63/63 64/64/64
f 61/61/61 62/62/62 63/63/63
f 57/57/57 59/59/59 60/60/60
f 57/57/57 58/58/58 59/59/59
f 47/47/47 48/48/48 42/42/42
f 47/47/47 42/42/42 41/41/41
f 41/41/41 42/42/42 43/43/43
f 41/41/41 43/43/43 44/44/44
f 40/40/40 45/45/45 46/46/46
f 40/40/40 39/39/39 45/45/45
f 37/37/37 39/39/39 40/40/40
f 37/37/37 38/38/38 39/39/39
f 33/33/33 35/35/35 36/36/36
f 33/33/33 34/34/34 35/35/35
f 29/29/29 31/31/31 32/32/32
f 29/29/29 30/30/30 31/31/31
f 25/25/25 27/27/27 28/28/28
f 25/25/25 26/26/26 27/27/27
f 23/23/23 24/24/24 17/17/17
f 23/23/23 17/17/17 16/16/16
f 15/15/15 16/16/16 17/17/17
f 15/15/15 17/17/17 18/18/18
f 19/19/19 21/21/21 22/22/22
f 19/19/19 20/20/20 21/21/21
f 5/5/5 7/7/7 8/8/8
f 5/5/5 6/6/6 7/7/7
f 1/1/1 3/3/3 4/4/4
f 1/1/1 2/2/2 3/3/3
f 89/89/89 54/54/54 87/87/87
f 89/89/89 52/52/52 54/54/54
f 52/52/52 49/49/49 54/54/54
f 53/53/53 54/54/54 49/49/49
f 54/54/54 53/53/53 86/86/86
f 54/54/54 86/86/86 87/87/87
f 88/88/88 52/52/52 89/89/89
f 88/88/88 50/50/50 52/52/52
f 49/49/49 52/52/52 50/50/50
f 49/49/49 50/50/50 51/51/51
f 51/51/51 55/55/55 49/49/49
f 49/49/49 55/55/55 53/53/53
f 90/90/90 53/53/53 55/55/55
f 90/90/90 86/86/86 53/53/53
f 88/88/88 56/56/56 50/50/50
f 56/56/56 51/51/51 50/50/50
f 56/56/56 55/55/55 51/51/51
f 90/90/90 55/55/55 56/56/56
f 79/79/79 81/81/81 85/85/85
f 79/79/79 80/80/80 81/81/81
f 79/79/79 82/82/82 80/80/80
f 79/79/79 83/83/83 82/82/82
f 79/79/79 84/84/84 83/83/83
f 79/79/79 85/85/85 84/84/84
f 122/122/122 126/126/126 127/127/127
f 107/107/107 113/113/113 127/127/127
f 113/113/113 107/107/107 114/114/114
f 118/118/118 114/114/114 107/107/107
f 118/118/118 123/123/123 114/114/114
f 114/114/114 123/123/123 104/104/104
f 114/114/114 104/104/104 98/98/98
f 121/121/121 114/114/114 98/98/98
f 121/121/121 122/122/122 114/114/114
f 118/118/118 107/107/107 115/115/115
f 115/115/115 117/117/117 118/118/118
f 118/118/118 117/117/117 128/128/128
f 118/118/118 128/128/128 123/123/123
f 123/123/123 128/128/128 124/124/124
f 104/104/104 123/123/123 124/124/124
f 120/120/120 115/115/115 107/107/107
f 119/119/119 115/115/115 120/120/120
f 119/119/119 116/116/116 115/115/115
f 115/115/115 116/116/116 117/117/117
f 107/107/107 111/111/111 120/120/120
f 119/119/119 120/120/120 111/111/111
f 119/119/119 111/111/111 110/110/110
f 108/108/108 110/110/110 111/111/111
f 108/108/108 109/109/109 110/110/110
f 112/112/112 109/109/109 108/108/108
f 112/112/112 108/108/108 103/103/103
f 112/112/112 103/103/103 102/102/102
f 99/99/99 111/111/111 107/107/107
f 99/99/99 108/108/108 111/111/111
f 103/103/103 108/108/108 99/99/99
f 103/103/103 99/99/99 98/98/98
f 103/103/103 98/98/98 100/100/100
f 100/100/100 102/102/102 103/103/103
f 100/100/100 101/101/101 102/102/102
f 100/100/100 105/105/105 101/101/101
f 104/104/104 105/105/105 100/100/100
f 104/104/104 125/125/125 105/105/105
f 106/106/106 99/99/99 107/107/107
f 106/106/106 126/126/126 99/99/99
f 104/104/104 124/124/124 125/125/125
f 104/104/104 100/100/100 98/98/98
f 97/97/97 98/98/98 99/99/99
f 132/132/132 135/135/135 136/136/136
f 132/132/132 131/131/131 135/135/135
f 131/131/131 137/137/137 135/135/135
f 131/131/131 134/134/134 137/137/137
f 130/130/130 134/134/134 131/131/131
f 130/130/130 133/133/133 134/134/134
f 129/129/129 131/131/131 132/132/132
f 129/129/129 130/130/130 131/131/131
f 139/139/139 144/144/144 145/145/145
f 139/139/139 145/145/145 140/140/140
f 138/138/138 139/139/139 140/140/140
f 138/138/138 140/140/140 141/141/141
f 141/141/141 140/140/140 142/142/142
f 141/141/141 142/142/142 143/143/143
f 140/140/140 145/145/145 146/146/146
f 140/140/140 146/146/146 142/142/142

#
# MESH 001
#
g surface_001
usemtl surface_001
f 152/152/152 151/151/151 148/148/148
f 150/150/150 148/148/148 151/151/151
f 150/150/150 149/149/149 148/148/148
f 147/147/147 148/148/148 149/149/149
f 148/148/148 147/147/147 152/152/152
f 157/157/157 156/156/156 161/161/161
f 156/156/156 157/157/157 155/155/155
f 154/154/154 153/153/153 161/161/161
f 153/153/153 154/154/154 155/155/155
f 158/158/158 160/160/160 161/161/161
f 160/160/160 158/158/158 155/155/155
f 158/158/158 159/159/159 155/155/155
f 159/159/159 158/158/158 161/161/161
f 168/168/168 167/167/167 170/170/170
f 167/167/167 168/168/168 164/164/164
f 166/166/166 165/165/165 170/170/170
f 165/165/165 166/166/166 164/164/164
f 169/169/169 163/163/163 170/170/170
f 163/163/163 169/169/169 164/164/164
f 162/162/162 163/163/163 164/164/164
f 163/163/163 162/162/162 170/170/170
f 178/178/178 177/177/177 179/179/179
f 177/177/177 178/178/178 173/173/173
f 176/176/176 175/175/175 179/179/179
f 175/175/175 176/176/176 173/173/173
f 171/171/171 174/174/174 179/179/179
f 174/174/174 171/171/171 173/173/173
f 171/171/171 172/172/172 173/173/173
f 172/172/172 171/171/171 179/179/179
f 186/186/186 185/185/185 188/188/188
f 185/185/185 186/186/186 182/182/182
f 184/184/184 183/183/183 188/188/188
f 183/183/183 184/184/184 182/182/182
f 187/187/187 181/181/181 188/188/188
f 181/181/181 187/187/187 182/182/182
f 180/180/180 181/181/181 182/182/182
f 181/181/181 180/180/180 188/188/188
f 193/193/193 192/192/192 197/197/197
f 192/192/192 193/193/193 191/191/191
f 190/190/190 189/189/189 197/197/197
f 189/189/189 190/190/190 191/191/191
f 194/194/194 196/196/196 197/197/197
f 196/196/196 194/194/194 191/191/191
f 194/194/194 195/195/195 191/191/191
f 195/195/195 194/194/194 197/197/197

